<?xml version="1.0" encoding="utf-8" standalone="no"?>
<!DOCTYPE svg PUBLIC "-//W3C//DTD SVG 1.1//EN"
  "http://www.w3.org/Graphics/SVG/1.1/DTD/svg11.dtd">
<svg xmlns:xlink="http://www.w3.org/1999/xlink" width="408.10125pt" height="310.86825pt" viewBox="0 0 408.10125 310.86825" xmlns="http://www.w3.org/2000/svg" version="1.1">
 <metadata>
  <rdf:RDF xmlns:dc="http://purl.org/dc/elements/1.1/" xmlns:cc="http://creativecommons.org/ns#" xmlns:rdf="http://www.w3.org/1999/02/22-rdf-syntax-ns#">
   <cc:Work>
    <dc:type rdf:resource="http://purl.org/dc/dcmitype/StillImage"/>
    <dc:date>2022-05-17T22:20:16.404966</dc:date>
    <dc:format>image/svg+xml</dc:format>
    <dc:creator>
     <cc:Agent>
      <dc:title>Matplotlib v3.5.2, https://matplotlib.org/</dc:title>
     </cc:Agent>
    </dc:creator>
   </cc:Work>
  </rdf:RDF>
 </metadata>
 <defs>
  <style type="text/css">*{stroke-linejoin: round; stroke-linecap: butt}</style>
 </defs>
 <g id="figure_1">
  <g id="patch_1">
   <path d="M 0 310.86825 
L 408.10125 310.86825 
L 408.10125 0 
L 0 0 
z
" style="fill: #ffffff"/>
  </g>
  <g id="axes_1">
   <g id="patch_2">
    <path d="M 43.78125 273.312 
L 400.90125 273.312 
L 400.90125 7.2 
L 43.78125 7.2 
z
" style="fill: #ffffff"/>
   </g>
   <g id="patch_3">
    <path d="M 60.568228 273.312 
L 62.183411 273.312 
L 62.183411 269.168567 
L 60.568228 269.168567 
z
" clip-path="url(#p3e189bd00b)" style="fill: #1f77b4"/>
   </g>
   <g id="patch_4">
    <path d="M 62.183411 273.312 
L 63.798594 273.312 
L 63.798594 266.406278 
L 62.183411 266.406278 
z
" clip-path="url(#p3e189bd00b)" style="fill: #1f77b4"/>
   </g>
   <g id="patch_5">
    <path d="M 63.798594 273.312 
L 65.413776 273.312 
L 65.413776 262.262845 
L 63.798594 262.262845 
z
" clip-path="url(#p3e189bd00b)" style="fill: #1f77b4"/>
   </g>
   <g id="patch_6">
    <path d="M 65.413776 273.312 
L 67.028959 273.312 
L 67.028959 256.738267 
L 65.413776 256.738267 
z
" clip-path="url(#p3e189bd00b)" style="fill: #1f77b4"/>
   </g>
   <g id="patch_7">
    <path d="M 67.028959 273.312 
L 68.644141 273.312 
L 68.644141 260.8817 
L 67.028959 260.8817 
z
" clip-path="url(#p3e189bd00b)" style="fill: #1f77b4"/>
   </g>
   <g id="patch_8">
    <path d="M 68.644141 273.312 
L 70.259324 273.312 
L 70.259324 251.213689 
L 68.644141 251.213689 
z
" clip-path="url(#p3e189bd00b)" style="fill: #1f77b4"/>
   </g>
   <g id="patch_9">
    <path d="M 70.259324 273.312 
L 71.874506 273.312 
L 71.874506 253.975978 
L 70.259324 253.975978 
z
" clip-path="url(#p3e189bd00b)" style="fill: #1f77b4"/>
   </g>
   <g id="patch_10">
    <path d="M 71.874506 273.312 
L 73.489689 273.312 
L 73.489689 247.070256 
L 71.874506 247.070256 
z
" clip-path="url(#p3e189bd00b)" style="fill: #1f77b4"/>
   </g>
   <g id="patch_11">
    <path d="M 73.489689 273.312 
L 75.104871 273.312 
L 75.104871 246.379684 
L 73.489689 246.379684 
z
" clip-path="url(#p3e189bd00b)" style="fill: #1f77b4"/>
   </g>
   <g id="patch_12">
    <path d="M 75.104871 273.312 
L 76.720054 273.312 
L 76.720054 239.473962 
L 75.104871 239.473962 
z
" clip-path="url(#p3e189bd00b)" style="fill: #1f77b4"/>
   </g>
   <g id="patch_13">
    <path d="M 76.720054 273.312 
L 78.335236 273.312 
L 78.335236 242.236251 
L 76.720054 242.236251 
z
" clip-path="url(#p3e189bd00b)" style="fill: #1f77b4"/>
   </g>
   <g id="patch_14">
    <path d="M 78.335236 273.312 
L 79.950419 273.312 
L 79.950419 241.545678 
L 78.335236 241.545678 
z
" clip-path="url(#p3e189bd00b)" style="fill: #1f77b4"/>
   </g>
   <g id="patch_15">
    <path d="M 79.950419 273.312 
L 81.565601 273.312 
L 81.565601 245.689112 
L 79.950419 245.689112 
z
" clip-path="url(#p3e189bd00b)" style="fill: #1f77b4"/>
   </g>
   <g id="patch_16">
    <path d="M 81.565601 273.312 
L 83.180784 273.312 
L 83.180784 234.639956 
L 81.565601 234.639956 
z
" clip-path="url(#p3e189bd00b)" style="fill: #1f77b4"/>
   </g>
   <g id="patch_17">
    <path d="M 83.180784 273.312 
L 84.795966 273.312 
L 84.795966 221.519084 
L 83.180784 221.519084 
z
" clip-path="url(#p3e189bd00b)" style="fill: #1f77b4"/>
   </g>
   <g id="patch_18">
    <path d="M 84.795966 273.312 
L 86.411149 273.312 
L 86.411149 212.541646 
L 84.795966 212.541646 
z
" clip-path="url(#p3e189bd00b)" style="fill: #1f77b4"/>
   </g>
   <g id="patch_19">
    <path d="M 86.411149 273.312 
L 88.026331 273.312 
L 88.026331 209.779357 
L 86.411149 209.779357 
z
" clip-path="url(#p3e189bd00b)" style="fill: #1f77b4"/>
   </g>
   <g id="patch_20">
    <path d="M 88.026331 273.312 
L 89.641514 273.312 
L 89.641514 213.232218 
L 88.026331 213.232218 
z
" clip-path="url(#p3e189bd00b)" style="fill: #1f77b4"/>
   </g>
   <g id="patch_21">
    <path d="M 89.641514 273.312 
L 91.256697 273.312 
L 91.256697 207.70764 
L 89.641514 207.70764 
z
" clip-path="url(#p3e189bd00b)" style="fill: #1f77b4"/>
   </g>
   <g id="patch_22">
    <path d="M 91.256697 273.312 
L 92.871879 273.312 
L 92.871879 208.398213 
L 91.256697 208.398213 
z
" clip-path="url(#p3e189bd00b)" style="fill: #1f77b4"/>
   </g>
   <g id="patch_23">
    <path d="M 92.871879 273.312 
L 94.487062 273.312 
L 94.487062 209.088785 
L 92.871879 209.088785 
z
" clip-path="url(#p3e189bd00b)" style="fill: #1f77b4"/>
   </g>
   <g id="patch_24">
    <path d="M 94.487062 273.312 
L 96.102244 273.312 
L 96.102244 207.017068 
L 94.487062 207.017068 
z
" clip-path="url(#p3e189bd00b)" style="fill: #1f77b4"/>
   </g>
   <g id="patch_25">
    <path d="M 96.102244 273.312 
L 97.717427 273.312 
L 97.717427 195.967913 
L 96.102244 195.967913 
z
" clip-path="url(#p3e189bd00b)" style="fill: #1f77b4"/>
   </g>
   <g id="patch_26">
    <path d="M 97.717427 273.312 
L 99.332609 273.312 
L 99.332609 198.039629 
L 97.717427 198.039629 
z
" clip-path="url(#p3e189bd00b)" style="fill: #1f77b4"/>
   </g>
   <g id="patch_27">
    <path d="M 99.332609 273.312 
L 100.947792 273.312 
L 100.947792 194.586768 
L 99.332609 194.586768 
z
" clip-path="url(#p3e189bd00b)" style="fill: #1f77b4"/>
   </g>
   <g id="patch_28">
    <path d="M 100.947792 273.312 
L 102.562974 273.312 
L 102.562974 192.515052 
L 100.947792 192.515052 
z
" clip-path="url(#p3e189bd00b)" style="fill: #1f77b4"/>
   </g>
   <g id="patch_29">
    <path d="M 102.562974 273.312 
L 104.178157 273.312 
L 104.178157 187.681046 
L 102.562974 187.681046 
z
" clip-path="url(#p3e189bd00b)" style="fill: #1f77b4"/>
   </g>
   <g id="patch_30">
    <path d="M 104.178157 273.312 
L 105.793339 273.312 
L 105.793339 166.273308 
L 104.178157 166.273308 
z
" clip-path="url(#p3e189bd00b)" style="fill: #1f77b4"/>
   </g>
   <g id="patch_31">
    <path d="M 105.793339 273.312 
L 107.408522 273.312 
L 107.408522 186.990474 
L 105.793339 186.990474 
z
" clip-path="url(#p3e189bd00b)" style="fill: #1f77b4"/>
   </g>
   <g id="patch_32">
    <path d="M 107.408522 273.312 
L 109.023704 273.312 
L 109.023704 178.703608 
L 107.408522 178.703608 
z
" clip-path="url(#p3e189bd00b)" style="fill: #1f77b4"/>
   </g>
   <g id="patch_33">
    <path d="M 109.023704 273.312 
L 110.638887 273.312 
L 110.638887 166.273308 
L 109.023704 166.273308 
z
" clip-path="url(#p3e189bd00b)" style="fill: #1f77b4"/>
   </g>
   <g id="patch_34">
    <path d="M 110.638887 273.312 
L 112.254069 273.312 
L 112.254069 176.631891 
L 110.638887 176.631891 
z
" clip-path="url(#p3e189bd00b)" style="fill: #1f77b4"/>
   </g>
   <g id="patch_35">
    <path d="M 112.254069 273.312 
L 113.869252 273.312 
L 113.869252 187.681046 
L 112.254069 187.681046 
z
" clip-path="url(#p3e189bd00b)" style="fill: #1f77b4"/>
   </g>
   <g id="patch_36">
    <path d="M 113.869252 273.312 
L 115.484434 273.312 
L 115.484434 163.511019 
L 113.869252 163.511019 
z
" clip-path="url(#p3e189bd00b)" style="fill: #1f77b4"/>
   </g>
   <g id="patch_37">
    <path d="M 115.484434 273.312 
L 117.099617 273.312 
L 117.099617 168.345025 
L 115.484434 168.345025 
z
" clip-path="url(#p3e189bd00b)" style="fill: #1f77b4"/>
   </g>
   <g id="patch_38">
    <path d="M 117.099617 273.312 
L 118.714799 273.312 
L 118.714799 154.53358 
L 117.099617 154.53358 
z
" clip-path="url(#p3e189bd00b)" style="fill: #1f77b4"/>
   </g>
   <g id="patch_39">
    <path d="M 118.714799 273.312 
L 120.329982 273.312 
L 120.329982 161.439302 
L 118.714799 161.439302 
z
" clip-path="url(#p3e189bd00b)" style="fill: #1f77b4"/>
   </g>
   <g id="patch_40">
    <path d="M 120.329982 273.312 
L 121.945165 273.312 
L 121.945165 139.340992 
L 120.329982 139.340992 
z
" clip-path="url(#p3e189bd00b)" style="fill: #1f77b4"/>
   </g>
   <g id="patch_41">
    <path d="M 121.945165 273.312 
L 123.560347 273.312 
L 123.560347 137.269275 
L 121.945165 137.269275 
z
" clip-path="url(#p3e189bd00b)" style="fill: #1f77b4"/>
   </g>
   <g id="patch_42">
    <path d="M 123.560347 273.312 
L 125.17553 273.312 
L 125.17553 150.390147 
L 123.560347 150.390147 
z
" clip-path="url(#p3e189bd00b)" style="fill: #1f77b4"/>
   </g>
   <g id="patch_43">
    <path d="M 125.17553 273.312 
L 126.790712 273.312 
L 126.790712 131.744698 
L 125.17553 131.744698 
z
" clip-path="url(#p3e189bd00b)" style="fill: #1f77b4"/>
   </g>
   <g id="patch_44">
    <path d="M 126.790712 273.312 
L 128.405895 273.312 
L 128.405895 155.224153 
L 126.790712 155.224153 
z
" clip-path="url(#p3e189bd00b)" style="fill: #1f77b4"/>
   </g>
   <g id="patch_45">
    <path d="M 128.405895 273.312 
L 130.021077 273.312 
L 130.021077 136.578703 
L 128.405895 136.578703 
z
" clip-path="url(#p3e189bd00b)" style="fill: #1f77b4"/>
   </g>
   <g id="patch_46">
    <path d="M 130.021077 273.312 
L 131.63626 273.312 
L 131.63626 134.506986 
L 130.021077 134.506986 
z
" clip-path="url(#p3e189bd00b)" style="fill: #1f77b4"/>
   </g>
   <g id="patch_47">
    <path d="M 131.63626 273.312 
L 133.251442 273.312 
L 133.251442 137.269275 
L 131.63626 137.269275 
z
" clip-path="url(#p3e189bd00b)" style="fill: #1f77b4"/>
   </g>
   <g id="patch_48">
    <path d="M 133.251442 273.312 
L 134.866625 273.312 
L 134.866625 143.484425 
L 133.251442 143.484425 
z
" clip-path="url(#p3e189bd00b)" style="fill: #1f77b4"/>
   </g>
   <g id="patch_49">
    <path d="M 134.866625 273.312 
L 136.481807 273.312 
L 136.481807 126.910692 
L 134.866625 126.910692 
z
" clip-path="url(#p3e189bd00b)" style="fill: #1f77b4"/>
   </g>
   <g id="patch_50">
    <path d="M 136.481807 273.312 
L 138.09699 273.312 
L 138.09699 128.291837 
L 136.481807 128.291837 
z
" clip-path="url(#p3e189bd00b)" style="fill: #1f77b4"/>
   </g>
   <g id="patch_51">
    <path d="M 138.09699 273.312 
L 139.712172 273.312 
L 139.712172 130.363553 
L 138.09699 130.363553 
z
" clip-path="url(#p3e189bd00b)" style="fill: #1f77b4"/>
   </g>
   <g id="patch_52">
    <path d="M 139.712172 273.312 
L 141.327355 273.312 
L 141.327355 120.695542 
L 139.712172 120.695542 
z
" clip-path="url(#p3e189bd00b)" style="fill: #1f77b4"/>
   </g>
   <g id="patch_53">
    <path d="M 141.327355 273.312 
L 142.942537 273.312 
L 142.942537 113.099248 
L 141.327355 113.099248 
z
" clip-path="url(#p3e189bd00b)" style="fill: #1f77b4"/>
   </g>
   <g id="patch_54">
    <path d="M 142.942537 273.312 
L 144.55772 273.312 
L 144.55772 99.978376 
L 142.942537 99.978376 
z
" clip-path="url(#p3e189bd00b)" style="fill: #1f77b4"/>
   </g>
   <g id="patch_55">
    <path d="M 144.55772 273.312 
L 146.172902 273.312 
L 146.172902 104.812381 
L 144.55772 104.812381 
z
" clip-path="url(#p3e189bd00b)" style="fill: #1f77b4"/>
   </g>
   <g id="patch_56">
    <path d="M 146.172902 273.312 
L 147.788085 273.312 
L 147.788085 114.480392 
L 146.172902 114.480392 
z
" clip-path="url(#p3e189bd00b)" style="fill: #1f77b4"/>
   </g>
   <g id="patch_57">
    <path d="M 147.788085 273.312 
L 149.403267 273.312 
L 149.403267 119.314398 
L 147.788085 119.314398 
z
" clip-path="url(#p3e189bd00b)" style="fill: #1f77b4"/>
   </g>
   <g id="patch_58">
    <path d="M 149.403267 273.312 
L 151.01845 273.312 
L 151.01845 98.597232 
L 149.403267 98.597232 
z
" clip-path="url(#p3e189bd00b)" style="fill: #1f77b4"/>
   </g>
   <g id="patch_59">
    <path d="M 151.01845 273.312 
L 152.633633 273.312 
L 152.633633 118.623826 
L 151.01845 118.623826 
z
" clip-path="url(#p3e189bd00b)" style="fill: #1f77b4"/>
   </g>
   <g id="patch_60">
    <path d="M 152.633633 273.312 
L 154.248815 273.312 
L 154.248815 105.502954 
L 152.633633 105.502954 
z
" clip-path="url(#p3e189bd00b)" style="fill: #1f77b4"/>
   </g>
   <g id="patch_61">
    <path d="M 154.248815 273.312 
L 155.863998 273.312 
L 155.863998 106.193526 
L 154.248815 106.193526 
z
" clip-path="url(#p3e189bd00b)" style="fill: #1f77b4"/>
   </g>
   <g id="patch_62">
    <path d="M 155.863998 273.312 
L 157.47918 273.312 
L 157.47918 86.166932 
L 155.863998 86.166932 
z
" clip-path="url(#p3e189bd00b)" style="fill: #1f77b4"/>
   </g>
   <g id="patch_63">
    <path d="M 157.47918 273.312 
L 159.094363 273.312 
L 159.094363 116.552109 
L 157.47918 116.552109 
z
" clip-path="url(#p3e189bd00b)" style="fill: #1f77b4"/>
   </g>
   <g id="patch_64">
    <path d="M 159.094363 273.312 
L 160.709545 273.312 
L 160.709545 110.336959 
L 159.094363 110.336959 
z
" clip-path="url(#p3e189bd00b)" style="fill: #1f77b4"/>
   </g>
   <g id="patch_65">
    <path d="M 160.709545 273.312 
L 162.324728 273.312 
L 162.324728 89.619793 
L 160.709545 89.619793 
z
" clip-path="url(#p3e189bd00b)" style="fill: #1f77b4"/>
   </g>
   <g id="patch_66">
    <path d="M 162.324728 273.312 
L 163.93991 273.312 
L 163.93991 102.740665 
L 162.324728 102.740665 
z
" clip-path="url(#p3e189bd00b)" style="fill: #1f77b4"/>
   </g>
   <g id="patch_67">
    <path d="M 163.93991 273.312 
L 165.555093 273.312 
L 165.555093 91.000937 
L 163.93991 91.000937 
z
" clip-path="url(#p3e189bd00b)" style="fill: #1f77b4"/>
   </g>
   <g id="patch_68">
    <path d="M 165.555093 273.312 
L 167.170275 273.312 
L 167.170275 99.978376 
L 165.555093 99.978376 
z
" clip-path="url(#p3e189bd00b)" style="fill: #1f77b4"/>
   </g>
   <g id="patch_69">
    <path d="M 167.170275 273.312 
L 168.785458 273.312 
L 168.785458 75.117777 
L 167.170275 75.117777 
z
" clip-path="url(#p3e189bd00b)" style="fill: #1f77b4"/>
   </g>
   <g id="patch_70">
    <path d="M 168.785458 273.312 
L 170.40064 273.312 
L 170.40064 86.166932 
L 168.785458 86.166932 
z
" clip-path="url(#p3e189bd00b)" style="fill: #1f77b4"/>
   </g>
   <g id="patch_71">
    <path d="M 170.40064 273.312 
L 172.015823 273.312 
L 172.015823 80.642354 
L 170.40064 80.642354 
z
" clip-path="url(#p3e189bd00b)" style="fill: #1f77b4"/>
   </g>
   <g id="patch_72">
    <path d="M 172.015823 273.312 
L 173.631005 273.312 
L 173.631005 67.521482 
L 172.015823 67.521482 
z
" clip-path="url(#p3e189bd00b)" style="fill: #1f77b4"/>
   </g>
   <g id="patch_73">
    <path d="M 173.631005 273.312 
L 175.246188 273.312 
L 175.246188 83.404643 
L 173.631005 83.404643 
z
" clip-path="url(#p3e189bd00b)" style="fill: #1f77b4"/>
   </g>
   <g id="patch_74">
    <path d="M 175.246188 273.312 
L 176.86137 273.312 
L 176.86137 103.431237 
L 175.246188 103.431237 
z
" clip-path="url(#p3e189bd00b)" style="fill: #1f77b4"/>
   </g>
   <g id="patch_75">
    <path d="M 176.86137 273.312 
L 178.476553 273.312 
L 178.476553 70.974343 
L 176.86137 70.974343 
z
" clip-path="url(#p3e189bd00b)" style="fill: #1f77b4"/>
   </g>
   <g id="patch_76">
    <path d="M 178.476553 273.312 
L 180.091736 273.312 
L 180.091736 74.427204 
L 178.476553 74.427204 
z
" clip-path="url(#p3e189bd00b)" style="fill: #1f77b4"/>
   </g>
   <g id="patch_77">
    <path d="M 180.091736 273.312 
L 181.706918 273.312 
L 181.706918 70.283771 
L 180.091736 70.283771 
z
" clip-path="url(#p3e189bd00b)" style="fill: #1f77b4"/>
   </g>
   <g id="patch_78">
    <path d="M 181.706918 273.312 
L 183.322101 273.312 
L 183.322101 73.04606 
L 181.706918 73.04606 
z
" clip-path="url(#p3e189bd00b)" style="fill: #1f77b4"/>
   </g>
   <g id="patch_79">
    <path d="M 183.322101 273.312 
L 184.937283 273.312 
L 184.937283 77.189493 
L 183.322101 77.189493 
z
" clip-path="url(#p3e189bd00b)" style="fill: #1f77b4"/>
   </g>
   <g id="patch_80">
    <path d="M 184.937283 273.312 
L 186.552466 273.312 
L 186.552466 72.355488 
L 184.937283 72.355488 
z
" clip-path="url(#p3e189bd00b)" style="fill: #1f77b4"/>
   </g>
   <g id="patch_81">
    <path d="M 186.552466 273.312 
L 188.167648 273.312 
L 188.167648 74.427204 
L 186.552466 74.427204 
z
" clip-path="url(#p3e189bd00b)" style="fill: #1f77b4"/>
   </g>
   <g id="patch_82">
    <path d="M 188.167648 273.312 
L 189.782831 273.312 
L 189.782831 73.04606 
L 188.167648 73.04606 
z
" clip-path="url(#p3e189bd00b)" style="fill: #1f77b4"/>
   </g>
   <g id="patch_83">
    <path d="M 189.782831 273.312 
L 191.398013 273.312 
L 191.398013 55.781755 
L 189.782831 55.781755 
z
" clip-path="url(#p3e189bd00b)" style="fill: #1f77b4"/>
   </g>
   <g id="patch_84">
    <path d="M 191.398013 273.312 
L 193.013196 273.312 
L 193.013196 58.544044 
L 191.398013 58.544044 
z
" clip-path="url(#p3e189bd00b)" style="fill: #1f77b4"/>
   </g>
   <g id="patch_85">
    <path d="M 193.013196 273.312 
L 194.628378 273.312 
L 194.628378 51.638322 
L 193.013196 51.638322 
z
" clip-path="url(#p3e189bd00b)" style="fill: #1f77b4"/>
   </g>
   <g id="patch_86">
    <path d="M 194.628378 273.312 
L 196.243561 273.312 
L 196.243561 89.619793 
L 194.628378 89.619793 
z
" clip-path="url(#p3e189bd00b)" style="fill: #1f77b4"/>
   </g>
   <g id="patch_87">
    <path d="M 196.243561 273.312 
L 197.858743 273.312 
L 197.858743 75.808349 
L 196.243561 75.808349 
z
" clip-path="url(#p3e189bd00b)" style="fill: #1f77b4"/>
   </g>
   <g id="patch_88">
    <path d="M 197.858743 273.312 
L 199.473926 273.312 
L 199.473926 83.404643 
L 197.858743 83.404643 
z
" clip-path="url(#p3e189bd00b)" style="fill: #1f77b4"/>
   </g>
   <g id="patch_89">
    <path d="M 199.473926 273.312 
L 201.089108 273.312 
L 201.089108 58.544044 
L 199.473926 58.544044 
z
" clip-path="url(#p3e189bd00b)" style="fill: #1f77b4"/>
   </g>
   <g id="patch_90">
    <path d="M 201.089108 273.312 
L 202.704291 273.312 
L 202.704291 75.808349 
L 201.089108 75.808349 
z
" clip-path="url(#p3e189bd00b)" style="fill: #1f77b4"/>
   </g>
   <g id="patch_91">
    <path d="M 202.704291 273.312 
L 204.319473 273.312 
L 204.319473 79.951782 
L 202.704291 79.951782 
z
" clip-path="url(#p3e189bd00b)" style="fill: #1f77b4"/>
   </g>
   <g id="patch_92">
    <path d="M 204.319473 273.312 
L 205.934656 273.312 
L 205.934656 70.283771 
L 204.319473 70.283771 
z
" clip-path="url(#p3e189bd00b)" style="fill: #1f77b4"/>
   </g>
   <g id="patch_93">
    <path d="M 205.934656 273.312 
L 207.549838 273.312 
L 207.549838 82.023499 
L 205.934656 82.023499 
z
" clip-path="url(#p3e189bd00b)" style="fill: #1f77b4"/>
   </g>
   <g id="patch_94">
    <path d="M 207.549838 273.312 
L 209.165021 273.312 
L 209.165021 50.947749 
L 207.549838 50.947749 
z
" clip-path="url(#p3e189bd00b)" style="fill: #1f77b4"/>
   </g>
   <g id="patch_95">
    <path d="M 209.165021 273.312 
L 210.780204 273.312 
L 210.780204 77.880065 
L 209.165021 77.880065 
z
" clip-path="url(#p3e189bd00b)" style="fill: #1f77b4"/>
   </g>
   <g id="patch_96">
    <path d="M 210.780204 273.312 
L 212.395386 273.312 
L 212.395386 19.872 
L 210.780204 19.872 
z
" clip-path="url(#p3e189bd00b)" style="fill: #1f77b4"/>
   </g>
   <g id="patch_97">
    <path d="M 212.395386 273.312 
L 214.010569 273.312 
L 214.010569 51.638322 
L 212.395386 51.638322 
z
" clip-path="url(#p3e189bd00b)" style="fill: #1f77b4"/>
   </g>
   <g id="patch_98">
    <path d="M 214.010569 273.312 
L 215.625751 273.312 
L 215.625751 64.068621 
L 214.010569 64.068621 
z
" clip-path="url(#p3e189bd00b)" style="fill: #1f77b4"/>
   </g>
   <g id="patch_99">
    <path d="M 215.625751 273.312 
L 217.240934 273.312 
L 217.240934 59.925188 
L 215.625751 59.925188 
z
" clip-path="url(#p3e189bd00b)" style="fill: #1f77b4"/>
   </g>
   <g id="patch_100">
    <path d="M 217.240934 273.312 
L 218.856116 273.312 
L 218.856116 57.162899 
L 217.240934 57.162899 
z
" clip-path="url(#p3e189bd00b)" style="fill: #1f77b4"/>
   </g>
   <g id="patch_101">
    <path d="M 218.856116 273.312 
L 220.471299 273.312 
L 220.471299 43.351455 
L 218.856116 43.351455 
z
" clip-path="url(#p3e189bd00b)" style="fill: #1f77b4"/>
   </g>
   <g id="patch_102">
    <path d="M 220.471299 273.312 
L 222.086481 273.312 
L 222.086481 63.378049 
L 220.471299 63.378049 
z
" clip-path="url(#p3e189bd00b)" style="fill: #1f77b4"/>
   </g>
   <g id="patch_103">
    <path d="M 222.086481 273.312 
L 223.701664 273.312 
L 223.701664 82.023499 
L 222.086481 82.023499 
z
" clip-path="url(#p3e189bd00b)" style="fill: #1f77b4"/>
   </g>
   <g id="patch_104">
    <path d="M 223.701664 273.312 
L 225.316846 273.312 
L 225.316846 37.826877 
L 223.701664 37.826877 
z
" clip-path="url(#p3e189bd00b)" style="fill: #1f77b4"/>
   </g>
   <g id="patch_105">
    <path d="M 225.316846 273.312 
L 226.932029 273.312 
L 226.932029 53.710038 
L 225.316846 53.710038 
z
" clip-path="url(#p3e189bd00b)" style="fill: #1f77b4"/>
   </g>
   <g id="patch_106">
    <path d="M 226.932029 273.312 
L 228.547211 273.312 
L 228.547211 63.378049 
L 226.932029 63.378049 
z
" clip-path="url(#p3e189bd00b)" style="fill: #1f77b4"/>
   </g>
   <g id="patch_107">
    <path d="M 228.547211 273.312 
L 230.162394 273.312 
L 230.162394 36.445733 
L 228.547211 36.445733 
z
" clip-path="url(#p3e189bd00b)" style="fill: #1f77b4"/>
   </g>
   <g id="patch_108">
    <path d="M 230.162394 273.312 
L 231.777576 273.312 
L 231.777576 53.710038 
L 230.162394 53.710038 
z
" clip-path="url(#p3e189bd00b)" style="fill: #1f77b4"/>
   </g>
   <g id="patch_109">
    <path d="M 231.777576 273.312 
L 233.392759 273.312 
L 233.392759 47.494888 
L 231.777576 47.494888 
z
" clip-path="url(#p3e189bd00b)" style="fill: #1f77b4"/>
   </g>
   <g id="patch_110">
    <path d="M 233.392759 273.312 
L 235.007941 273.312 
L 235.007941 26.08715 
L 233.392759 26.08715 
z
" clip-path="url(#p3e189bd00b)" style="fill: #1f77b4"/>
   </g>
   <g id="patch_111">
    <path d="M 235.007941 273.312 
L 236.623124 273.312 
L 236.623124 70.283771 
L 235.007941 70.283771 
z
" clip-path="url(#p3e189bd00b)" style="fill: #1f77b4"/>
   </g>
   <g id="patch_112">
    <path d="M 236.623124 273.312 
L 238.238306 273.312 
L 238.238306 44.042027 
L 236.623124 44.042027 
z
" clip-path="url(#p3e189bd00b)" style="fill: #1f77b4"/>
   </g>
   <g id="patch_113">
    <path d="M 238.238306 273.312 
L 239.853489 273.312 
L 239.853489 46.113744 
L 238.238306 46.113744 
z
" clip-path="url(#p3e189bd00b)" style="fill: #1f77b4"/>
   </g>
   <g id="patch_114">
    <path d="M 239.853489 273.312 
L 241.468672 273.312 
L 241.468672 61.996905 
L 239.853489 61.996905 
z
" clip-path="url(#p3e189bd00b)" style="fill: #1f77b4"/>
   </g>
   <g id="patch_115">
    <path d="M 241.468672 273.312 
L 243.083854 273.312 
L 243.083854 79.26121 
L 241.468672 79.26121 
z
" clip-path="url(#p3e189bd00b)" style="fill: #1f77b4"/>
   </g>
   <g id="patch_116">
    <path d="M 243.083854 273.312 
L 244.699037 273.312 
L 244.699037 55.091183 
L 243.083854 55.091183 
z
" clip-path="url(#p3e189bd00b)" style="fill: #1f77b4"/>
   </g>
   <g id="patch_117">
    <path d="M 244.699037 273.312 
L 246.314219 273.312 
L 246.314219 63.378049 
L 244.699037 63.378049 
z
" clip-path="url(#p3e189bd00b)" style="fill: #1f77b4"/>
   </g>
   <g id="patch_118">
    <path d="M 246.314219 273.312 
L 247.929402 273.312 
L 247.929402 66.140338 
L 246.314219 66.140338 
z
" clip-path="url(#p3e189bd00b)" style="fill: #1f77b4"/>
   </g>
   <g id="patch_119">
    <path d="M 247.929402 273.312 
L 249.544584 273.312 
L 249.544584 66.140338 
L 247.929402 66.140338 
z
" clip-path="url(#p3e189bd00b)" style="fill: #1f77b4"/>
   </g>
   <g id="patch_120">
    <path d="M 249.544584 273.312 
L 251.159767 273.312 
L 251.159767 49.566605 
L 249.544584 49.566605 
z
" clip-path="url(#p3e189bd00b)" style="fill: #1f77b4"/>
   </g>
   <g id="patch_121">
    <path d="M 251.159767 273.312 
L 252.774949 273.312 
L 252.774949 61.306332 
L 251.159767 61.306332 
z
" clip-path="url(#p3e189bd00b)" style="fill: #1f77b4"/>
   </g>
   <g id="patch_122">
    <path d="M 252.774949 273.312 
L 254.390132 273.312 
L 254.390132 39.898594 
L 252.774949 39.898594 
z
" clip-path="url(#p3e189bd00b)" style="fill: #1f77b4"/>
   </g>
   <g id="patch_123">
    <path d="M 254.390132 273.312 
L 256.005314 273.312 
L 256.005314 59.234616 
L 254.390132 59.234616 
z
" clip-path="url(#p3e189bd00b)" style="fill: #1f77b4"/>
   </g>
   <g id="patch_124">
    <path d="M 256.005314 273.312 
L 257.620497 273.312 
L 257.620497 74.427204 
L 256.005314 74.427204 
z
" clip-path="url(#p3e189bd00b)" style="fill: #1f77b4"/>
   </g>
   <g id="patch_125">
    <path d="M 257.620497 273.312 
L 259.235679 273.312 
L 259.235679 79.951782 
L 257.620497 79.951782 
z
" clip-path="url(#p3e189bd00b)" style="fill: #1f77b4"/>
   </g>
   <g id="patch_126">
    <path d="M 259.235679 273.312 
L 260.850862 273.312 
L 260.850862 75.117777 
L 259.235679 75.117777 
z
" clip-path="url(#p3e189bd00b)" style="fill: #1f77b4"/>
   </g>
   <g id="patch_127">
    <path d="M 260.850862 273.312 
L 262.466044 273.312 
L 262.466044 73.736632 
L 260.850862 73.736632 
z
" clip-path="url(#p3e189bd00b)" style="fill: #1f77b4"/>
   </g>
   <g id="patch_128">
    <path d="M 262.466044 273.312 
L 264.081227 273.312 
L 264.081227 84.095215 
L 262.466044 84.095215 
z
" clip-path="url(#p3e189bd00b)" style="fill: #1f77b4"/>
   </g>
   <g id="patch_129">
    <path d="M 264.081227 273.312 
L 265.696409 273.312 
L 265.696409 83.404643 
L 264.081227 83.404643 
z
" clip-path="url(#p3e189bd00b)" style="fill: #1f77b4"/>
   </g>
   <g id="patch_130">
    <path d="M 265.696409 273.312 
L 267.311592 273.312 
L 267.311592 86.166932 
L 265.696409 86.166932 
z
" clip-path="url(#p3e189bd00b)" style="fill: #1f77b4"/>
   </g>
   <g id="patch_131">
    <path d="M 267.311592 273.312 
L 268.926775 273.312 
L 268.926775 80.642354 
L 267.311592 80.642354 
z
" clip-path="url(#p3e189bd00b)" style="fill: #1f77b4"/>
   </g>
   <g id="patch_132">
    <path d="M 268.926775 273.312 
L 270.541957 273.312 
L 270.541957 73.736632 
L 268.926775 73.736632 
z
" clip-path="url(#p3e189bd00b)" style="fill: #1f77b4"/>
   </g>
   <g id="patch_133">
    <path d="M 270.541957 273.312 
L 272.15714 273.312 
L 272.15714 68.902627 
L 270.541957 68.902627 
z
" clip-path="url(#p3e189bd00b)" style="fill: #1f77b4"/>
   </g>
   <g id="patch_134">
    <path d="M 272.15714 273.312 
L 273.772322 273.312 
L 273.772322 79.26121 
L 272.15714 79.26121 
z
" clip-path="url(#p3e189bd00b)" style="fill: #1f77b4"/>
   </g>
   <g id="patch_135">
    <path d="M 273.772322 273.312 
L 275.387505 273.312 
L 275.387505 82.714071 
L 273.772322 82.714071 
z
" clip-path="url(#p3e189bd00b)" style="fill: #1f77b4"/>
   </g>
   <g id="patch_136">
    <path d="M 275.387505 273.312 
L 277.002687 273.312 
L 277.002687 99.287804 
L 275.387505 99.287804 
z
" clip-path="url(#p3e189bd00b)" style="fill: #1f77b4"/>
   </g>
   <g id="patch_137">
    <path d="M 277.002687 273.312 
L 278.61787 273.312 
L 278.61787 86.857504 
L 277.002687 86.857504 
z
" clip-path="url(#p3e189bd00b)" style="fill: #1f77b4"/>
   </g>
   <g id="patch_138">
    <path d="M 278.61787 273.312 
L 280.233052 273.312 
L 280.233052 83.404643 
L 278.61787 83.404643 
z
" clip-path="url(#p3e189bd00b)" style="fill: #1f77b4"/>
   </g>
   <g id="patch_139">
    <path d="M 280.233052 273.312 
L 281.848235 273.312 
L 281.848235 94.453798 
L 280.233052 94.453798 
z
" clip-path="url(#p3e189bd00b)" style="fill: #1f77b4"/>
   </g>
   <g id="patch_140">
    <path d="M 281.848235 273.312 
L 283.463417 273.312 
L 283.463417 91.69151 
L 281.848235 91.69151 
z
" clip-path="url(#p3e189bd00b)" style="fill: #1f77b4"/>
   </g>
   <g id="patch_141">
    <path d="M 283.463417 273.312 
L 285.0786 273.312 
L 285.0786 86.166932 
L 283.463417 86.166932 
z
" clip-path="url(#p3e189bd00b)" style="fill: #1f77b4"/>
   </g>
   <g id="patch_142">
    <path d="M 285.0786 273.312 
L 286.693782 273.312 
L 286.693782 103.431237 
L 285.0786 103.431237 
z
" clip-path="url(#p3e189bd00b)" style="fill: #1f77b4"/>
   </g>
   <g id="patch_143">
    <path d="M 286.693782 273.312 
L 288.308965 273.312 
L 288.308965 88.929221 
L 286.693782 88.929221 
z
" clip-path="url(#p3e189bd00b)" style="fill: #1f77b4"/>
   </g>
   <g id="patch_144">
    <path d="M 288.308965 273.312 
L 289.924147 273.312 
L 289.924147 118.623826 
L 288.308965 118.623826 
z
" clip-path="url(#p3e189bd00b)" style="fill: #1f77b4"/>
   </g>
   <g id="patch_145">
    <path d="M 289.924147 273.312 
L 291.53933 273.312 
L 291.53933 117.242681 
L 289.924147 117.242681 
z
" clip-path="url(#p3e189bd00b)" style="fill: #1f77b4"/>
   </g>
   <g id="patch_146">
    <path d="M 291.53933 273.312 
L 293.154512 273.312 
L 293.154512 113.78982 
L 291.53933 113.78982 
z
" clip-path="url(#p3e189bd00b)" style="fill: #1f77b4"/>
   </g>
   <g id="patch_147">
    <path d="M 293.154512 273.312 
L 294.769695 273.312 
L 294.769695 96.525515 
L 293.154512 96.525515 
z
" clip-path="url(#p3e189bd00b)" style="fill: #1f77b4"/>
   </g>
   <g id="patch_148">
    <path d="M 294.769695 273.312 
L 296.384877 273.312 
L 296.384877 99.287804 
L 294.769695 99.287804 
z
" clip-path="url(#p3e189bd00b)" style="fill: #1f77b4"/>
   </g>
   <g id="patch_149">
    <path d="M 296.384877 273.312 
L 298.00006 273.312 
L 298.00006 114.480392 
L 296.384877 114.480392 
z
" clip-path="url(#p3e189bd00b)" style="fill: #1f77b4"/>
   </g>
   <g id="patch_150">
    <path d="M 298.00006 273.312 
L 299.615243 273.312 
L 299.615243 123.457831 
L 298.00006 123.457831 
z
" clip-path="url(#p3e189bd00b)" style="fill: #1f77b4"/>
   </g>
   <g id="patch_151">
    <path d="M 299.615243 273.312 
L 301.230425 273.312 
L 301.230425 111.718104 
L 299.615243 111.718104 
z
" clip-path="url(#p3e189bd00b)" style="fill: #1f77b4"/>
   </g>
   <g id="patch_152">
    <path d="M 301.230425 273.312 
L 302.845608 273.312 
L 302.845608 117.242681 
L 301.230425 117.242681 
z
" clip-path="url(#p3e189bd00b)" style="fill: #1f77b4"/>
   </g>
   <g id="patch_153">
    <path d="M 302.845608 273.312 
L 304.46079 273.312 
L 304.46079 110.336959 
L 302.845608 110.336959 
z
" clip-path="url(#p3e189bd00b)" style="fill: #1f77b4"/>
   </g>
   <g id="patch_154">
    <path d="M 304.46079 273.312 
L 306.075973 273.312 
L 306.075973 137.269275 
L 304.46079 137.269275 
z
" clip-path="url(#p3e189bd00b)" style="fill: #1f77b4"/>
   </g>
   <g id="patch_155">
    <path d="M 306.075973 273.312 
L 307.691155 273.312 
L 307.691155 122.767259 
L 306.075973 122.767259 
z
" clip-path="url(#p3e189bd00b)" style="fill: #1f77b4"/>
   </g>
   <g id="patch_156">
    <path d="M 307.691155 273.312 
L 309.306338 273.312 
L 309.306338 116.552109 
L 307.691155 116.552109 
z
" clip-path="url(#p3e189bd00b)" style="fill: #1f77b4"/>
   </g>
   <g id="patch_157">
    <path d="M 309.306338 273.312 
L 310.92152 273.312 
L 310.92152 140.031564 
L 309.306338 140.031564 
z
" clip-path="url(#p3e189bd00b)" style="fill: #1f77b4"/>
   </g>
   <g id="patch_158">
    <path d="M 310.92152 273.312 
L 312.536703 273.312 
L 312.536703 139.340992 
L 310.92152 139.340992 
z
" clip-path="url(#p3e189bd00b)" style="fill: #1f77b4"/>
   </g>
   <g id="patch_159">
    <path d="M 312.536703 273.312 
L 314.151885 273.312 
L 314.151885 120.00497 
L 312.536703 120.00497 
z
" clip-path="url(#p3e189bd00b)" style="fill: #1f77b4"/>
   </g>
   <g id="patch_160">
    <path d="M 314.151885 273.312 
L 315.767068 273.312 
L 315.767068 140.031564 
L 314.151885 140.031564 
z
" clip-path="url(#p3e189bd00b)" style="fill: #1f77b4"/>
   </g>
   <g id="patch_161">
    <path d="M 315.767068 273.312 
L 317.38225 273.312 
L 317.38225 130.363553 
L 315.767068 130.363553 
z
" clip-path="url(#p3e189bd00b)" style="fill: #1f77b4"/>
   </g>
   <g id="patch_162">
    <path d="M 317.38225 273.312 
L 318.997433 273.312 
L 318.997433 143.484425 
L 317.38225 143.484425 
z
" clip-path="url(#p3e189bd00b)" style="fill: #1f77b4"/>
   </g>
   <g id="patch_163">
    <path d="M 318.997433 273.312 
L 320.612615 273.312 
L 320.612615 155.224153 
L 318.997433 155.224153 
z
" clip-path="url(#p3e189bd00b)" style="fill: #1f77b4"/>
   </g>
   <g id="patch_164">
    <path d="M 320.612615 273.312 
L 322.227798 273.312 
L 322.227798 140.722136 
L 320.612615 140.722136 
z
" clip-path="url(#p3e189bd00b)" style="fill: #1f77b4"/>
   </g>
   <g id="patch_165">
    <path d="M 322.227798 273.312 
L 323.84298 273.312 
L 323.84298 148.318431 
L 322.227798 148.318431 
z
" clip-path="url(#p3e189bd00b)" style="fill: #1f77b4"/>
   </g>
   <g id="patch_166">
    <path d="M 323.84298 273.312 
L 325.458163 273.312 
L 325.458163 160.74873 
L 323.84298 160.74873 
z
" clip-path="url(#p3e189bd00b)" style="fill: #1f77b4"/>
   </g>
   <g id="patch_167">
    <path d="M 325.458163 273.312 
L 327.073346 273.312 
L 327.073346 169.726169 
L 325.458163 169.726169 
z
" clip-path="url(#p3e189bd00b)" style="fill: #1f77b4"/>
   </g>
   <g id="patch_168">
    <path d="M 327.073346 273.312 
L 328.688528 273.312 
L 328.688528 157.986441 
L 327.073346 157.986441 
z
" clip-path="url(#p3e189bd00b)" style="fill: #1f77b4"/>
   </g>
   <g id="patch_169">
    <path d="M 328.688528 273.312 
L 330.303711 273.312 
L 330.303711 146.937286 
L 328.688528 146.937286 
z
" clip-path="url(#p3e189bd00b)" style="fill: #1f77b4"/>
   </g>
   <g id="patch_170">
    <path d="M 330.303711 273.312 
L 331.918893 273.312 
L 331.918893 167.654452 
L 330.303711 167.654452 
z
" clip-path="url(#p3e189bd00b)" style="fill: #1f77b4"/>
   </g>
   <g id="patch_171">
    <path d="M 331.918893 273.312 
L 333.534076 273.312 
L 333.534076 175.941319 
L 331.918893 175.941319 
z
" clip-path="url(#p3e189bd00b)" style="fill: #1f77b4"/>
   </g>
   <g id="patch_172">
    <path d="M 333.534076 273.312 
L 335.149258 273.312 
L 335.149258 166.273308 
L 333.534076 166.273308 
z
" clip-path="url(#p3e189bd00b)" style="fill: #1f77b4"/>
   </g>
   <g id="patch_173">
    <path d="M 335.149258 273.312 
L 336.764441 273.312 
L 336.764441 169.726169 
L 335.149258 169.726169 
z
" clip-path="url(#p3e189bd00b)" style="fill: #1f77b4"/>
   </g>
   <g id="patch_174">
    <path d="M 336.764441 273.312 
L 338.379623 273.312 
L 338.379623 171.797886 
L 336.764441 171.797886 
z
" clip-path="url(#p3e189bd00b)" style="fill: #1f77b4"/>
   </g>
   <g id="patch_175">
    <path d="M 338.379623 273.312 
L 339.994806 273.312 
L 339.994806 169.035597 
L 338.379623 169.035597 
z
" clip-path="url(#p3e189bd00b)" style="fill: #1f77b4"/>
   </g>
   <g id="patch_176">
    <path d="M 339.994806 273.312 
L 341.609988 273.312 
L 341.609988 185.60933 
L 339.994806 185.60933 
z
" clip-path="url(#p3e189bd00b)" style="fill: #1f77b4"/>
   </g>
   <g id="patch_177">
    <path d="M 341.609988 273.312 
L 343.225171 273.312 
L 343.225171 175.250747 
L 341.609988 175.250747 
z
" clip-path="url(#p3e189bd00b)" style="fill: #1f77b4"/>
   </g>
   <g id="patch_178">
    <path d="M 343.225171 273.312 
L 344.840353 273.312 
L 344.840353 195.277341 
L 343.225171 195.277341 
z
" clip-path="url(#p3e189bd00b)" style="fill: #1f77b4"/>
   </g>
   <g id="patch_179">
    <path d="M 344.840353 273.312 
L 346.455536 273.312 
L 346.455536 203.564207 
L 344.840353 203.564207 
z
" clip-path="url(#p3e189bd00b)" style="fill: #1f77b4"/>
   </g>
   <g id="patch_180">
    <path d="M 346.455536 273.312 
L 348.070718 273.312 
L 348.070718 198.039629 
L 346.455536 198.039629 
z
" clip-path="url(#p3e189bd00b)" style="fill: #1f77b4"/>
   </g>
   <g id="patch_181">
    <path d="M 348.070718 273.312 
L 349.685901 273.312 
L 349.685901 195.967913 
L 348.070718 195.967913 
z
" clip-path="url(#p3e189bd00b)" style="fill: #1f77b4"/>
   </g>
   <g id="patch_182">
    <path d="M 349.685901 273.312 
L 351.301083 273.312 
L 351.301083 198.039629 
L 349.685901 198.039629 
z
" clip-path="url(#p3e189bd00b)" style="fill: #1f77b4"/>
   </g>
   <g id="patch_183">
    <path d="M 351.301083 273.312 
L 352.916266 273.312 
L 352.916266 205.635924 
L 351.301083 205.635924 
z
" clip-path="url(#p3e189bd00b)" style="fill: #1f77b4"/>
   </g>
   <g id="patch_184">
    <path d="M 352.916266 273.312 
L 354.531448 273.312 
L 354.531448 211.160501 
L 352.916266 211.160501 
z
" clip-path="url(#p3e189bd00b)" style="fill: #1f77b4"/>
   </g>
   <g id="patch_185">
    <path d="M 354.531448 273.312 
L 356.146631 273.312 
L 356.146631 207.017068 
L 354.531448 207.017068 
z
" clip-path="url(#p3e189bd00b)" style="fill: #1f77b4"/>
   </g>
   <g id="patch_186">
    <path d="M 356.146631 273.312 
L 357.761814 273.312 
L 357.761814 218.066223 
L 356.146631 218.066223 
z
" clip-path="url(#p3e189bd00b)" style="fill: #1f77b4"/>
   </g>
   <g id="patch_187">
    <path d="M 357.761814 273.312 
L 359.376996 273.312 
L 359.376996 218.066223 
L 357.761814 218.066223 
z
" clip-path="url(#p3e189bd00b)" style="fill: #1f77b4"/>
   </g>
   <g id="patch_188">
    <path d="M 359.376996 273.312 
L 360.992179 273.312 
L 360.992179 214.613362 
L 359.376996 214.613362 
z
" clip-path="url(#p3e189bd00b)" style="fill: #1f77b4"/>
   </g>
   <g id="patch_189">
    <path d="M 360.992179 273.312 
L 362.607361 273.312 
L 362.607361 232.56824 
L 360.992179 232.56824 
z
" clip-path="url(#p3e189bd00b)" style="fill: #1f77b4"/>
   </g>
   <g id="patch_190">
    <path d="M 362.607361 273.312 
L 364.222544 273.312 
L 364.222544 226.35309 
L 362.607361 226.35309 
z
" clip-path="url(#p3e189bd00b)" style="fill: #1f77b4"/>
   </g>
   <g id="patch_191">
    <path d="M 364.222544 273.312 
L 365.837726 273.312 
L 365.837726 228.424807 
L 364.222544 228.424807 
z
" clip-path="url(#p3e189bd00b)" style="fill: #1f77b4"/>
   </g>
   <g id="patch_192">
    <path d="M 365.837726 273.312 
L 367.452909 273.312 
L 367.452909 236.711673 
L 365.837726 236.711673 
z
" clip-path="url(#p3e189bd00b)" style="fill: #1f77b4"/>
   </g>
   <g id="patch_193">
    <path d="M 367.452909 273.312 
L 369.068091 273.312 
L 369.068091 244.307967 
L 367.452909 244.307967 
z
" clip-path="url(#p3e189bd00b)" style="fill: #1f77b4"/>
   </g>
   <g id="patch_194">
    <path d="M 369.068091 273.312 
L 370.683274 273.312 
L 370.683274 238.092817 
L 369.068091 238.092817 
z
" clip-path="url(#p3e189bd00b)" style="fill: #1f77b4"/>
   </g>
   <g id="patch_195">
    <path d="M 370.683274 273.312 
L 372.298456 273.312 
L 372.298456 248.451401 
L 370.683274 248.451401 
z
" clip-path="url(#p3e189bd00b)" style="fill: #1f77b4"/>
   </g>
   <g id="patch_196">
    <path d="M 372.298456 273.312 
L 373.913639 273.312 
L 373.913639 251.213689 
L 372.298456 251.213689 
z
" clip-path="url(#p3e189bd00b)" style="fill: #1f77b4"/>
   </g>
   <g id="patch_197">
    <path d="M 373.913639 273.312 
L 375.528821 273.312 
L 375.528821 256.047695 
L 373.913639 256.047695 
z
" clip-path="url(#p3e189bd00b)" style="fill: #1f77b4"/>
   </g>
   <g id="patch_198">
    <path d="M 375.528821 273.312 
L 377.144004 273.312 
L 377.144004 253.285406 
L 375.528821 253.285406 
z
" clip-path="url(#p3e189bd00b)" style="fill: #1f77b4"/>
   </g>
   <g id="patch_199">
    <path d="M 377.144004 273.312 
L 378.759186 273.312 
L 378.759186 259.500556 
L 377.144004 259.500556 
z
" clip-path="url(#p3e189bd00b)" style="fill: #1f77b4"/>
   </g>
   <g id="patch_200">
    <path d="M 378.759186 273.312 
L 380.374369 273.312 
L 380.374369 262.262845 
L 378.759186 262.262845 
z
" clip-path="url(#p3e189bd00b)" style="fill: #1f77b4"/>
   </g>
   <g id="patch_201">
    <path d="M 380.374369 273.312 
L 381.989551 273.312 
L 381.989551 267.09685 
L 380.374369 267.09685 
z
" clip-path="url(#p3e189bd00b)" style="fill: #1f77b4"/>
   </g>
   <g id="patch_202">
    <path d="M 381.989551 273.312 
L 383.604734 273.312 
L 383.604734 269.859139 
L 381.989551 269.859139 
z
" clip-path="url(#p3e189bd00b)" style="fill: #1f77b4"/>
   </g>
   <g id="matplotlib.axis_1">
    <g id="xtick_1">
     <g id="line2d_1">
      <defs>
       <path id="m460376991c" d="M 0 0 
L 0 3.5 
" style="stroke: #000000; stroke-width: 0.8"/>
      </defs>
      <g>
       <use xlink:href="#m460376991c" x="60.013977" y="273.312" style="stroke: #000000; stroke-width: 0.8"/>
      </g>
     </g>
     <g id="text_1">
      <!-- 0.0 -->
      <g transform="translate(52.062415 287.910437)scale(0.1 -0.1)">
       <defs>
        <path id="DejaVuSans-30" d="M 2034 4250 
Q 1547 4250 1301 3770 
Q 1056 3291 1056 2328 
Q 1056 1369 1301 889 
Q 1547 409 2034 409 
Q 2525 409 2770 889 
Q 3016 1369 3016 2328 
Q 3016 3291 2770 3770 
Q 2525 4250 2034 4250 
z
M 2034 4750 
Q 2819 4750 3233 4129 
Q 3647 3509 3647 2328 
Q 3647 1150 3233 529 
Q 2819 -91 2034 -91 
Q 1250 -91 836 529 
Q 422 1150 422 2328 
Q 422 3509 836 4129 
Q 1250 4750 2034 4750 
z
" transform="scale(0.015625)"/>
        <path id="DejaVuSans-2e" d="M 684 794 
L 1344 794 
L 1344 0 
L 684 0 
L 684 794 
z
" transform="scale(0.015625)"/>
       </defs>
       <use xlink:href="#DejaVuSans-30"/>
       <use xlink:href="#DejaVuSans-2e" x="63.623047"/>
       <use xlink:href="#DejaVuSans-30" x="95.410156"/>
      </g>
     </g>
    </g>
    <g id="xtick_2">
     <g id="line2d_2">
      <g>
       <use xlink:href="#m460376991c" x="101.350278" y="273.312" style="stroke: #000000; stroke-width: 0.8"/>
      </g>
     </g>
     <g id="text_2">
      <!-- 0.2 -->
      <g transform="translate(93.398715 287.910437)scale(0.1 -0.1)">
       <defs>
        <path id="DejaVuSans-32" d="M 1228 531 
L 3431 531 
L 3431 0 
L 469 0 
L 469 531 
Q 828 903 1448 1529 
Q 2069 2156 2228 2338 
Q 2531 2678 2651 2914 
Q 2772 3150 2772 3378 
Q 2772 3750 2511 3984 
Q 2250 4219 1831 4219 
Q 1534 4219 1204 4116 
Q 875 4013 500 3803 
L 500 4441 
Q 881 4594 1212 4672 
Q 1544 4750 1819 4750 
Q 2544 4750 2975 4387 
Q 3406 4025 3406 3419 
Q 3406 3131 3298 2873 
Q 3191 2616 2906 2266 
Q 2828 2175 2409 1742 
Q 1991 1309 1228 531 
z
" transform="scale(0.015625)"/>
       </defs>
       <use xlink:href="#DejaVuSans-30"/>
       <use xlink:href="#DejaVuSans-2e" x="63.623047"/>
       <use xlink:href="#DejaVuSans-32" x="95.410156"/>
      </g>
     </g>
    </g>
    <g id="xtick_3">
     <g id="line2d_3">
      <g>
       <use xlink:href="#m460376991c" x="142.686578" y="273.312" style="stroke: #000000; stroke-width: 0.8"/>
      </g>
     </g>
     <g id="text_3">
      <!-- 0.4 -->
      <g transform="translate(134.735016 287.910437)scale(0.1 -0.1)">
       <defs>
        <path id="DejaVuSans-34" d="M 2419 4116 
L 825 1625 
L 2419 1625 
L 2419 4116 
z
M 2253 4666 
L 3047 4666 
L 3047 1625 
L 3713 1625 
L 3713 1100 
L 3047 1100 
L 3047 0 
L 2419 0 
L 2419 1100 
L 313 1100 
L 313 1709 
L 2253 4666 
z
" transform="scale(0.015625)"/>
       </defs>
       <use xlink:href="#DejaVuSans-30"/>
       <use xlink:href="#DejaVuSans-2e" x="63.623047"/>
       <use xlink:href="#DejaVuSans-34" x="95.410156"/>
      </g>
     </g>
    </g>
    <g id="xtick_4">
     <g id="line2d_4">
      <g>
       <use xlink:href="#m460376991c" x="184.022879" y="273.312" style="stroke: #000000; stroke-width: 0.8"/>
      </g>
     </g>
     <g id="text_4">
      <!-- 0.6 -->
      <g transform="translate(176.071316 287.910437)scale(0.1 -0.1)">
       <defs>
        <path id="DejaVuSans-36" d="M 2113 2584 
Q 1688 2584 1439 2293 
Q 1191 2003 1191 1497 
Q 1191 994 1439 701 
Q 1688 409 2113 409 
Q 2538 409 2786 701 
Q 3034 994 3034 1497 
Q 3034 2003 2786 2293 
Q 2538 2584 2113 2584 
z
M 3366 4563 
L 3366 3988 
Q 3128 4100 2886 4159 
Q 2644 4219 2406 4219 
Q 1781 4219 1451 3797 
Q 1122 3375 1075 2522 
Q 1259 2794 1537 2939 
Q 1816 3084 2150 3084 
Q 2853 3084 3261 2657 
Q 3669 2231 3669 1497 
Q 3669 778 3244 343 
Q 2819 -91 2113 -91 
Q 1303 -91 875 529 
Q 447 1150 447 2328 
Q 447 3434 972 4092 
Q 1497 4750 2381 4750 
Q 2619 4750 2861 4703 
Q 3103 4656 3366 4563 
z
" transform="scale(0.015625)"/>
       </defs>
       <use xlink:href="#DejaVuSans-30"/>
       <use xlink:href="#DejaVuSans-2e" x="63.623047"/>
       <use xlink:href="#DejaVuSans-36" x="95.410156"/>
      </g>
     </g>
    </g>
    <g id="xtick_5">
     <g id="line2d_5">
      <g>
       <use xlink:href="#m460376991c" x="225.35918" y="273.312" style="stroke: #000000; stroke-width: 0.8"/>
      </g>
     </g>
     <g id="text_5">
      <!-- 0.8 -->
      <g transform="translate(217.407617 287.910437)scale(0.1 -0.1)">
       <defs>
        <path id="DejaVuSans-38" d="M 2034 2216 
Q 1584 2216 1326 1975 
Q 1069 1734 1069 1313 
Q 1069 891 1326 650 
Q 1584 409 2034 409 
Q 2484 409 2743 651 
Q 3003 894 3003 1313 
Q 3003 1734 2745 1975 
Q 2488 2216 2034 2216 
z
M 1403 2484 
Q 997 2584 770 2862 
Q 544 3141 544 3541 
Q 544 4100 942 4425 
Q 1341 4750 2034 4750 
Q 2731 4750 3128 4425 
Q 3525 4100 3525 3541 
Q 3525 3141 3298 2862 
Q 3072 2584 2669 2484 
Q 3125 2378 3379 2068 
Q 3634 1759 3634 1313 
Q 3634 634 3220 271 
Q 2806 -91 2034 -91 
Q 1263 -91 848 271 
Q 434 634 434 1313 
Q 434 1759 690 2068 
Q 947 2378 1403 2484 
z
M 1172 3481 
Q 1172 3119 1398 2916 
Q 1625 2713 2034 2713 
Q 2441 2713 2670 2916 
Q 2900 3119 2900 3481 
Q 2900 3844 2670 4047 
Q 2441 4250 2034 4250 
Q 1625 4250 1398 4047 
Q 1172 3844 1172 3481 
z
" transform="scale(0.015625)"/>
       </defs>
       <use xlink:href="#DejaVuSans-30"/>
       <use xlink:href="#DejaVuSans-2e" x="63.623047"/>
       <use xlink:href="#DejaVuSans-38" x="95.410156"/>
      </g>
     </g>
    </g>
    <g id="xtick_6">
     <g id="line2d_6">
      <g>
       <use xlink:href="#m460376991c" x="266.69548" y="273.312" style="stroke: #000000; stroke-width: 0.8"/>
      </g>
     </g>
     <g id="text_6">
      <!-- 1.0 -->
      <g transform="translate(258.743918 287.910437)scale(0.1 -0.1)">
       <defs>
        <path id="DejaVuSans-31" d="M 794 531 
L 1825 531 
L 1825 4091 
L 703 3866 
L 703 4441 
L 1819 4666 
L 2450 4666 
L 2450 531 
L 3481 531 
L 3481 0 
L 794 0 
L 794 531 
z
" transform="scale(0.015625)"/>
       </defs>
       <use xlink:href="#DejaVuSans-31"/>
       <use xlink:href="#DejaVuSans-2e" x="63.623047"/>
       <use xlink:href="#DejaVuSans-30" x="95.410156"/>
      </g>
     </g>
    </g>
    <g id="xtick_7">
     <g id="line2d_7">
      <g>
       <use xlink:href="#m460376991c" x="308.031781" y="273.312" style="stroke: #000000; stroke-width: 0.8"/>
      </g>
     </g>
     <g id="text_7">
      <!-- 1.2 -->
      <g transform="translate(300.080218 287.910437)scale(0.1 -0.1)">
       <use xlink:href="#DejaVuSans-31"/>
       <use xlink:href="#DejaVuSans-2e" x="63.623047"/>
       <use xlink:href="#DejaVuSans-32" x="95.410156"/>
      </g>
     </g>
    </g>
    <g id="xtick_8">
     <g id="line2d_8">
      <g>
       <use xlink:href="#m460376991c" x="349.368081" y="273.312" style="stroke: #000000; stroke-width: 0.8"/>
      </g>
     </g>
     <g id="text_8">
      <!-- 1.4 -->
      <g transform="translate(341.416519 287.910437)scale(0.1 -0.1)">
       <use xlink:href="#DejaVuSans-31"/>
       <use xlink:href="#DejaVuSans-2e" x="63.623047"/>
       <use xlink:href="#DejaVuSans-34" x="95.410156"/>
      </g>
     </g>
    </g>
    <g id="xtick_9">
     <g id="line2d_9">
      <g>
       <use xlink:href="#m460376991c" x="390.704382" y="273.312" style="stroke: #000000; stroke-width: 0.8"/>
      </g>
     </g>
     <g id="text_9">
      <!-- 1.6 -->
      <g transform="translate(382.752819 287.910437)scale(0.1 -0.1)">
       <use xlink:href="#DejaVuSans-31"/>
       <use xlink:href="#DejaVuSans-2e" x="63.623047"/>
       <use xlink:href="#DejaVuSans-36" x="95.410156"/>
      </g>
     </g>
    </g>
    <g id="text_10">
     <!-- Angle with normal (rad) -->
     <g transform="translate(163.023281 301.588562)scale(0.1 -0.1)">
      <defs>
       <path id="DejaVuSans-41" d="M 2188 4044 
L 1331 1722 
L 3047 1722 
L 2188 4044 
z
M 1831 4666 
L 2547 4666 
L 4325 0 
L 3669 0 
L 3244 1197 
L 1141 1197 
L 716 0 
L 50 0 
L 1831 4666 
z
" transform="scale(0.015625)"/>
       <path id="DejaVuSans-6e" d="M 3513 2113 
L 3513 0 
L 2938 0 
L 2938 2094 
Q 2938 2591 2744 2837 
Q 2550 3084 2163 3084 
Q 1697 3084 1428 2787 
Q 1159 2491 1159 1978 
L 1159 0 
L 581 0 
L 581 3500 
L 1159 3500 
L 1159 2956 
Q 1366 3272 1645 3428 
Q 1925 3584 2291 3584 
Q 2894 3584 3203 3211 
Q 3513 2838 3513 2113 
z
" transform="scale(0.015625)"/>
       <path id="DejaVuSans-67" d="M 2906 1791 
Q 2906 2416 2648 2759 
Q 2391 3103 1925 3103 
Q 1463 3103 1205 2759 
Q 947 2416 947 1791 
Q 947 1169 1205 825 
Q 1463 481 1925 481 
Q 2391 481 2648 825 
Q 2906 1169 2906 1791 
z
M 3481 434 
Q 3481 -459 3084 -895 
Q 2688 -1331 1869 -1331 
Q 1566 -1331 1297 -1286 
Q 1028 -1241 775 -1147 
L 775 -588 
Q 1028 -725 1275 -790 
Q 1522 -856 1778 -856 
Q 2344 -856 2625 -561 
Q 2906 -266 2906 331 
L 2906 616 
Q 2728 306 2450 153 
Q 2172 0 1784 0 
Q 1141 0 747 490 
Q 353 981 353 1791 
Q 353 2603 747 3093 
Q 1141 3584 1784 3584 
Q 2172 3584 2450 3431 
Q 2728 3278 2906 2969 
L 2906 3500 
L 3481 3500 
L 3481 434 
z
" transform="scale(0.015625)"/>
       <path id="DejaVuSans-6c" d="M 603 4863 
L 1178 4863 
L 1178 0 
L 603 0 
L 603 4863 
z
" transform="scale(0.015625)"/>
       <path id="DejaVuSans-65" d="M 3597 1894 
L 3597 1613 
L 953 1613 
Q 991 1019 1311 708 
Q 1631 397 2203 397 
Q 2534 397 2845 478 
Q 3156 559 3463 722 
L 3463 178 
Q 3153 47 2828 -22 
Q 2503 -91 2169 -91 
Q 1331 -91 842 396 
Q 353 884 353 1716 
Q 353 2575 817 3079 
Q 1281 3584 2069 3584 
Q 2775 3584 3186 3129 
Q 3597 2675 3597 1894 
z
M 3022 2063 
Q 3016 2534 2758 2815 
Q 2500 3097 2075 3097 
Q 1594 3097 1305 2825 
Q 1016 2553 972 2059 
L 3022 2063 
z
" transform="scale(0.015625)"/>
       <path id="DejaVuSans-20" transform="scale(0.015625)"/>
       <path id="DejaVuSans-77" d="M 269 3500 
L 844 3500 
L 1563 769 
L 2278 3500 
L 2956 3500 
L 3675 769 
L 4391 3500 
L 4966 3500 
L 4050 0 
L 3372 0 
L 2619 2869 
L 1863 0 
L 1184 0 
L 269 3500 
z
" transform="scale(0.015625)"/>
       <path id="DejaVuSans-69" d="M 603 3500 
L 1178 3500 
L 1178 0 
L 603 0 
L 603 3500 
z
M 603 4863 
L 1178 4863 
L 1178 4134 
L 603 4134 
L 603 4863 
z
" transform="scale(0.015625)"/>
       <path id="DejaVuSans-74" d="M 1172 4494 
L 1172 3500 
L 2356 3500 
L 2356 3053 
L 1172 3053 
L 1172 1153 
Q 1172 725 1289 603 
Q 1406 481 1766 481 
L 2356 481 
L 2356 0 
L 1766 0 
Q 1100 0 847 248 
Q 594 497 594 1153 
L 594 3053 
L 172 3053 
L 172 3500 
L 594 3500 
L 594 4494 
L 1172 4494 
z
" transform="scale(0.015625)"/>
       <path id="DejaVuSans-68" d="M 3513 2113 
L 3513 0 
L 2938 0 
L 2938 2094 
Q 2938 2591 2744 2837 
Q 2550 3084 2163 3084 
Q 1697 3084 1428 2787 
Q 1159 2491 1159 1978 
L 1159 0 
L 581 0 
L 581 4863 
L 1159 4863 
L 1159 2956 
Q 1366 3272 1645 3428 
Q 1925 3584 2291 3584 
Q 2894 3584 3203 3211 
Q 3513 2838 3513 2113 
z
" transform="scale(0.015625)"/>
       <path id="DejaVuSans-6f" d="M 1959 3097 
Q 1497 3097 1228 2736 
Q 959 2375 959 1747 
Q 959 1119 1226 758 
Q 1494 397 1959 397 
Q 2419 397 2687 759 
Q 2956 1122 2956 1747 
Q 2956 2369 2687 2733 
Q 2419 3097 1959 3097 
z
M 1959 3584 
Q 2709 3584 3137 3096 
Q 3566 2609 3566 1747 
Q 3566 888 3137 398 
Q 2709 -91 1959 -91 
Q 1206 -91 779 398 
Q 353 888 353 1747 
Q 353 2609 779 3096 
Q 1206 3584 1959 3584 
z
" transform="scale(0.015625)"/>
       <path id="DejaVuSans-72" d="M 2631 2963 
Q 2534 3019 2420 3045 
Q 2306 3072 2169 3072 
Q 1681 3072 1420 2755 
Q 1159 2438 1159 1844 
L 1159 0 
L 581 0 
L 581 3500 
L 1159 3500 
L 1159 2956 
Q 1341 3275 1631 3429 
Q 1922 3584 2338 3584 
Q 2397 3584 2469 3576 
Q 2541 3569 2628 3553 
L 2631 2963 
z
" transform="scale(0.015625)"/>
       <path id="DejaVuSans-6d" d="M 3328 2828 
Q 3544 3216 3844 3400 
Q 4144 3584 4550 3584 
Q 5097 3584 5394 3201 
Q 5691 2819 5691 2113 
L 5691 0 
L 5113 0 
L 5113 2094 
Q 5113 2597 4934 2840 
Q 4756 3084 4391 3084 
Q 3944 3084 3684 2787 
Q 3425 2491 3425 1978 
L 3425 0 
L 2847 0 
L 2847 2094 
Q 2847 2600 2669 2842 
Q 2491 3084 2119 3084 
Q 1678 3084 1418 2786 
Q 1159 2488 1159 1978 
L 1159 0 
L 581 0 
L 581 3500 
L 1159 3500 
L 1159 2956 
Q 1356 3278 1631 3431 
Q 1906 3584 2284 3584 
Q 2666 3584 2933 3390 
Q 3200 3197 3328 2828 
z
" transform="scale(0.015625)"/>
       <path id="DejaVuSans-61" d="M 2194 1759 
Q 1497 1759 1228 1600 
Q 959 1441 959 1056 
Q 959 750 1161 570 
Q 1363 391 1709 391 
Q 2188 391 2477 730 
Q 2766 1069 2766 1631 
L 2766 1759 
L 2194 1759 
z
M 3341 1997 
L 3341 0 
L 2766 0 
L 2766 531 
Q 2569 213 2275 61 
Q 1981 -91 1556 -91 
Q 1019 -91 701 211 
Q 384 513 384 1019 
Q 384 1609 779 1909 
Q 1175 2209 1959 2209 
L 2766 2209 
L 2766 2266 
Q 2766 2663 2505 2880 
Q 2244 3097 1772 3097 
Q 1472 3097 1187 3025 
Q 903 2953 641 2809 
L 641 3341 
Q 956 3463 1253 3523 
Q 1550 3584 1831 3584 
Q 2591 3584 2966 3190 
Q 3341 2797 3341 1997 
z
" transform="scale(0.015625)"/>
       <path id="DejaVuSans-28" d="M 1984 4856 
Q 1566 4138 1362 3434 
Q 1159 2731 1159 2009 
Q 1159 1288 1364 580 
Q 1569 -128 1984 -844 
L 1484 -844 
Q 1016 -109 783 600 
Q 550 1309 550 2009 
Q 550 2706 781 3412 
Q 1013 4119 1484 4856 
L 1984 4856 
z
" transform="scale(0.015625)"/>
       <path id="DejaVuSans-64" d="M 2906 2969 
L 2906 4863 
L 3481 4863 
L 3481 0 
L 2906 0 
L 2906 525 
Q 2725 213 2448 61 
Q 2172 -91 1784 -91 
Q 1150 -91 751 415 
Q 353 922 353 1747 
Q 353 2572 751 3078 
Q 1150 3584 1784 3584 
Q 2172 3584 2448 3432 
Q 2725 3281 2906 2969 
z
M 947 1747 
Q 947 1113 1208 752 
Q 1469 391 1925 391 
Q 2381 391 2643 752 
Q 2906 1113 2906 1747 
Q 2906 2381 2643 2742 
Q 2381 3103 1925 3103 
Q 1469 3103 1208 2742 
Q 947 2381 947 1747 
z
" transform="scale(0.015625)"/>
       <path id="DejaVuSans-29" d="M 513 4856 
L 1013 4856 
Q 1481 4119 1714 3412 
Q 1947 2706 1947 2009 
Q 1947 1309 1714 600 
Q 1481 -109 1013 -844 
L 513 -844 
Q 928 -128 1133 580 
Q 1338 1288 1338 2009 
Q 1338 2731 1133 3434 
Q 928 4138 513 4856 
z
" transform="scale(0.015625)"/>
      </defs>
      <use xlink:href="#DejaVuSans-41"/>
      <use xlink:href="#DejaVuSans-6e" x="68.408203"/>
      <use xlink:href="#DejaVuSans-67" x="131.787109"/>
      <use xlink:href="#DejaVuSans-6c" x="195.263672"/>
      <use xlink:href="#DejaVuSans-65" x="223.046875"/>
      <use xlink:href="#DejaVuSans-20" x="284.570312"/>
      <use xlink:href="#DejaVuSans-77" x="316.357422"/>
      <use xlink:href="#DejaVuSans-69" x="398.144531"/>
      <use xlink:href="#DejaVuSans-74" x="425.927734"/>
      <use xlink:href="#DejaVuSans-68" x="465.136719"/>
      <use xlink:href="#DejaVuSans-20" x="528.515625"/>
      <use xlink:href="#DejaVuSans-6e" x="560.302734"/>
      <use xlink:href="#DejaVuSans-6f" x="623.681641"/>
      <use xlink:href="#DejaVuSans-72" x="684.863281"/>
      <use xlink:href="#DejaVuSans-6d" x="724.226562"/>
      <use xlink:href="#DejaVuSans-61" x="821.638672"/>
      <use xlink:href="#DejaVuSans-6c" x="882.917969"/>
      <use xlink:href="#DejaVuSans-20" x="910.701172"/>
      <use xlink:href="#DejaVuSans-28" x="942.488281"/>
      <use xlink:href="#DejaVuSans-72" x="981.501953"/>
      <use xlink:href="#DejaVuSans-61" x="1022.615234"/>
      <use xlink:href="#DejaVuSans-64" x="1083.894531"/>
      <use xlink:href="#DejaVuSans-29" x="1147.371094"/>
     </g>
    </g>
   </g>
   <g id="matplotlib.axis_2">
    <g id="ytick_1">
     <g id="line2d_10">
      <defs>
       <path id="m106d3d3ae2" d="M 0 0 
L -3.5 0 
" style="stroke: #000000; stroke-width: 0.8"/>
      </defs>
      <g>
       <use xlink:href="#m106d3d3ae2" x="43.78125" y="273.312" style="stroke: #000000; stroke-width: 0.8"/>
      </g>
     </g>
     <g id="text_11">
      <!-- 0.0 -->
      <g transform="translate(20.878125 277.111219)scale(0.1 -0.1)">
       <use xlink:href="#DejaVuSans-30"/>
       <use xlink:href="#DejaVuSans-2e" x="63.623047"/>
       <use xlink:href="#DejaVuSans-30" x="95.410156"/>
      </g>
     </g>
    </g>
    <g id="ytick_2">
     <g id="line2d_11">
      <g>
       <use xlink:href="#m106d3d3ae2" x="43.78125" y="230.138319" style="stroke: #000000; stroke-width: 0.8"/>
      </g>
     </g>
     <g id="text_12">
      <!-- 0.2 -->
      <g transform="translate(20.878125 233.937538)scale(0.1 -0.1)">
       <use xlink:href="#DejaVuSans-30"/>
       <use xlink:href="#DejaVuSans-2e" x="63.623047"/>
       <use xlink:href="#DejaVuSans-32" x="95.410156"/>
      </g>
     </g>
    </g>
    <g id="ytick_3">
     <g id="line2d_12">
      <g>
       <use xlink:href="#m106d3d3ae2" x="43.78125" y="186.964638" style="stroke: #000000; stroke-width: 0.8"/>
      </g>
     </g>
     <g id="text_13">
      <!-- 0.4 -->
      <g transform="translate(20.878125 190.763856)scale(0.1 -0.1)">
       <use xlink:href="#DejaVuSans-30"/>
       <use xlink:href="#DejaVuSans-2e" x="63.623047"/>
       <use xlink:href="#DejaVuSans-34" x="95.410156"/>
      </g>
     </g>
    </g>
    <g id="ytick_4">
     <g id="line2d_13">
      <g>
       <use xlink:href="#m106d3d3ae2" x="43.78125" y="143.790957" style="stroke: #000000; stroke-width: 0.8"/>
      </g>
     </g>
     <g id="text_14">
      <!-- 0.6 -->
      <g transform="translate(20.878125 147.590175)scale(0.1 -0.1)">
       <use xlink:href="#DejaVuSans-30"/>
       <use xlink:href="#DejaVuSans-2e" x="63.623047"/>
       <use xlink:href="#DejaVuSans-36" x="95.410156"/>
      </g>
     </g>
    </g>
    <g id="ytick_5">
     <g id="line2d_14">
      <g>
       <use xlink:href="#m106d3d3ae2" x="43.78125" y="100.617275" style="stroke: #000000; stroke-width: 0.8"/>
      </g>
     </g>
     <g id="text_15">
      <!-- 0.8 -->
      <g transform="translate(20.878125 104.416494)scale(0.1 -0.1)">
       <use xlink:href="#DejaVuSans-30"/>
       <use xlink:href="#DejaVuSans-2e" x="63.623047"/>
       <use xlink:href="#DejaVuSans-38" x="95.410156"/>
      </g>
     </g>
    </g>
    <g id="ytick_6">
     <g id="line2d_15">
      <g>
       <use xlink:href="#m106d3d3ae2" x="43.78125" y="57.443594" style="stroke: #000000; stroke-width: 0.8"/>
      </g>
     </g>
     <g id="text_16">
      <!-- 1.0 -->
      <g transform="translate(20.878125 61.242813)scale(0.1 -0.1)">
       <use xlink:href="#DejaVuSans-31"/>
       <use xlink:href="#DejaVuSans-2e" x="63.623047"/>
       <use xlink:href="#DejaVuSans-30" x="95.410156"/>
      </g>
     </g>
    </g>
    <g id="ytick_7">
     <g id="line2d_16">
      <g>
       <use xlink:href="#m106d3d3ae2" x="43.78125" y="14.269913" style="stroke: #000000; stroke-width: 0.8"/>
      </g>
     </g>
     <g id="text_17">
      <!-- 1.2 -->
      <g transform="translate(20.878125 18.069132)scale(0.1 -0.1)">
       <use xlink:href="#DejaVuSans-31"/>
       <use xlink:href="#DejaVuSans-2e" x="63.623047"/>
       <use xlink:href="#DejaVuSans-32" x="95.410156"/>
      </g>
     </g>
    </g>
    <g id="text_18">
     <!-- Probability density -->
     <g transform="translate(14.798438 186.606781)rotate(-90)scale(0.1 -0.1)">
      <defs>
       <path id="DejaVuSans-50" d="M 1259 4147 
L 1259 2394 
L 2053 2394 
Q 2494 2394 2734 2622 
Q 2975 2850 2975 3272 
Q 2975 3691 2734 3919 
Q 2494 4147 2053 4147 
L 1259 4147 
z
M 628 4666 
L 2053 4666 
Q 2838 4666 3239 4311 
Q 3641 3956 3641 3272 
Q 3641 2581 3239 2228 
Q 2838 1875 2053 1875 
L 1259 1875 
L 1259 0 
L 628 0 
L 628 4666 
z
" transform="scale(0.015625)"/>
       <path id="DejaVuSans-62" d="M 3116 1747 
Q 3116 2381 2855 2742 
Q 2594 3103 2138 3103 
Q 1681 3103 1420 2742 
Q 1159 2381 1159 1747 
Q 1159 1113 1420 752 
Q 1681 391 2138 391 
Q 2594 391 2855 752 
Q 3116 1113 3116 1747 
z
M 1159 2969 
Q 1341 3281 1617 3432 
Q 1894 3584 2278 3584 
Q 2916 3584 3314 3078 
Q 3713 2572 3713 1747 
Q 3713 922 3314 415 
Q 2916 -91 2278 -91 
Q 1894 -91 1617 61 
Q 1341 213 1159 525 
L 1159 0 
L 581 0 
L 581 4863 
L 1159 4863 
L 1159 2969 
z
" transform="scale(0.015625)"/>
       <path id="DejaVuSans-79" d="M 2059 -325 
Q 1816 -950 1584 -1140 
Q 1353 -1331 966 -1331 
L 506 -1331 
L 506 -850 
L 844 -850 
Q 1081 -850 1212 -737 
Q 1344 -625 1503 -206 
L 1606 56 
L 191 3500 
L 800 3500 
L 1894 763 
L 2988 3500 
L 3597 3500 
L 2059 -325 
z
" transform="scale(0.015625)"/>
       <path id="DejaVuSans-73" d="M 2834 3397 
L 2834 2853 
Q 2591 2978 2328 3040 
Q 2066 3103 1784 3103 
Q 1356 3103 1142 2972 
Q 928 2841 928 2578 
Q 928 2378 1081 2264 
Q 1234 2150 1697 2047 
L 1894 2003 
Q 2506 1872 2764 1633 
Q 3022 1394 3022 966 
Q 3022 478 2636 193 
Q 2250 -91 1575 -91 
Q 1294 -91 989 -36 
Q 684 19 347 128 
L 347 722 
Q 666 556 975 473 
Q 1284 391 1588 391 
Q 1994 391 2212 530 
Q 2431 669 2431 922 
Q 2431 1156 2273 1281 
Q 2116 1406 1581 1522 
L 1381 1569 
Q 847 1681 609 1914 
Q 372 2147 372 2553 
Q 372 3047 722 3315 
Q 1072 3584 1716 3584 
Q 2034 3584 2315 3537 
Q 2597 3491 2834 3397 
z
" transform="scale(0.015625)"/>
      </defs>
      <use xlink:href="#DejaVuSans-50"/>
      <use xlink:href="#DejaVuSans-72" x="58.552734"/>
      <use xlink:href="#DejaVuSans-6f" x="97.416016"/>
      <use xlink:href="#DejaVuSans-62" x="158.597656"/>
      <use xlink:href="#DejaVuSans-61" x="222.074219"/>
      <use xlink:href="#DejaVuSans-62" x="283.353516"/>
      <use xlink:href="#DejaVuSans-69" x="346.830078"/>
      <use xlink:href="#DejaVuSans-6c" x="374.613281"/>
      <use xlink:href="#DejaVuSans-69" x="402.396484"/>
      <use xlink:href="#DejaVuSans-74" x="430.179688"/>
      <use xlink:href="#DejaVuSans-79" x="469.388672"/>
      <use xlink:href="#DejaVuSans-20" x="528.568359"/>
      <use xlink:href="#DejaVuSans-64" x="560.355469"/>
      <use xlink:href="#DejaVuSans-65" x="623.832031"/>
      <use xlink:href="#DejaVuSans-6e" x="685.355469"/>
      <use xlink:href="#DejaVuSans-73" x="748.734375"/>
      <use xlink:href="#DejaVuSans-69" x="800.833984"/>
      <use xlink:href="#DejaVuSans-74" x="828.617188"/>
      <use xlink:href="#DejaVuSans-79" x="867.826172"/>
     </g>
    </g>
   </g>
   <g id="line2d_17">
    <path d="M 60.013977 273.312 
L 79.837728 232.155686 
L 90.237073 211.075155 
L 99.01152 193.769804 
L 106.811029 178.864605 
L 113.960578 165.671881 
L 120.460169 154.12379 
L 126.63478 143.588983 
L 132.484411 134.035122 
L 138.009063 125.421183 
L 143.208736 117.699543 
L 148.408408 110.37178 
L 153.283101 103.876232 
L 158.157794 97.757627 
L 162.707507 92.399036 
L 167.257221 87.391055 
L 171.481954 83.063221 
L 175.706688 79.053306 
L 179.606442 75.639827 
L 183.506197 72.507813 
L 187.405951 69.661725 
L 191.305705 67.105614 
L 194.88048 65.020366 
L 198.455255 63.184338 
L 202.03003 61.599727 
L 205.604804 60.268428 
L 209.179579 59.192034 
L 212.429374 58.435784 
L 215.67917 57.892014 
L 218.928965 57.561265 
L 222.17876 57.443861 
L 225.428555 57.53992 
L 228.678351 57.849347 
L 231.928146 58.371835 
L 235.177941 59.106867 
L 238.427736 60.053718 
L 242.002511 61.33878 
L 245.577286 62.877467 
L 249.152061 64.667938 
L 252.726836 66.70805 
L 256.30161 68.995362 
L 260.201365 71.76932 
L 264.101119 74.830255 
L 268.000873 78.173808 
L 271.900628 81.795218 
L 276.125361 86.025977 
L 280.350095 90.569704 
L 284.899809 95.804234 
L 289.449522 101.382775 
L 294.324215 107.729234 
L 299.198908 114.444064 
L 304.39858 121.99573 
L 309.923232 130.43858 
L 315.447884 139.28967 
L 321.297515 149.078253 
L 327.472126 159.841733 
L 333.971717 171.60847 
L 341.121266 185.01456 
L 348.920775 200.118931 
L 357.695222 217.605092 
L 368.094567 238.838911 
L 383.368605 270.596674 
L 384.668523 273.312 
L 384.668523 273.312 
" clip-path="url(#p3e189bd00b)" style="fill: none; stroke: #ff7f0e; stroke-width: 1.5; stroke-linecap: square"/>
   </g>
   <g id="patch_203">
    <path d="M 43.78125 273.312 
L 43.78125 7.2 
" style="fill: none; stroke: #000000; stroke-width: 0.8; stroke-linejoin: miter; stroke-linecap: square"/>
   </g>
   <g id="patch_204">
    <path d="M 400.90125 273.312 
L 400.90125 7.2 
" style="fill: none; stroke: #000000; stroke-width: 0.8; stroke-linejoin: miter; stroke-linecap: square"/>
   </g>
   <g id="patch_205">
    <path d="M 43.78125 273.312 
L 400.90125 273.312 
" style="fill: none; stroke: #000000; stroke-width: 0.8; stroke-linejoin: miter; stroke-linecap: square"/>
   </g>
   <g id="patch_206">
    <path d="M 43.78125 7.2 
L 400.90125 7.2 
" style="fill: none; stroke: #000000; stroke-width: 0.8; stroke-linejoin: miter; stroke-linecap: square"/>
   </g>
  </g>
 </g>
 <defs>
  <clipPath id="p3e189bd00b">
   <rect x="43.78125" y="7.2" width="357.12" height="266.112"/>
  </clipPath>
 </defs>
</svg>
