<?xml version="1.0" encoding="utf-8" standalone="no"?>
<!DOCTYPE svg PUBLIC "-//W3C//DTD SVG 1.1//EN"
  "http://www.w3.org/Graphics/SVG/1.1/DTD/svg11.dtd">
<svg xmlns:xlink="http://www.w3.org/1999/xlink" width="408.10125pt" height="310.86825pt" viewBox="0 0 408.10125 310.86825" xmlns="http://www.w3.org/2000/svg" version="1.1">
 <metadata>
  <rdf:RDF xmlns:dc="http://purl.org/dc/elements/1.1/" xmlns:cc="http://creativecommons.org/ns#" xmlns:rdf="http://www.w3.org/1999/02/22-rdf-syntax-ns#">
   <cc:Work>
    <dc:type rdf:resource="http://purl.org/dc/dcmitype/StillImage"/>
    <dc:date>2022-05-17T23:00:52.761672</dc:date>
    <dc:format>image/svg+xml</dc:format>
    <dc:creator>
     <cc:Agent>
      <dc:title>Matplotlib v3.5.2, https://matplotlib.org/</dc:title>
     </cc:Agent>
    </dc:creator>
   </cc:Work>
  </rdf:RDF>
 </metadata>
 <defs>
  <style type="text/css">*{stroke-linejoin: round; stroke-linecap: butt}</style>
 </defs>
 <g id="figure_1">
  <g id="patch_1">
   <path d="M 0 310.86825 
L 408.10125 310.86825 
L 408.10125 0 
L 0 0 
z
" style="fill: #ffffff"/>
  </g>
  <g id="axes_1">
   <g id="patch_2">
    <path d="M 43.78125 273.312 
L 400.90125 273.312 
L 400.90125 7.2 
L 43.78125 7.2 
z
" style="fill: #ffffff"/>
   </g>
   <g id="patch_3">
    <path d="M 60.909459 273.312 
L 62.525618 273.312 
L 62.525618 265.414436 
L 60.909459 265.414436 
z
" clip-path="url(#p4dd27fa96b)" style="fill: #1f77b4"/>
   </g>
   <g id="patch_4">
    <path d="M 62.525618 273.312 
L 64.141777 273.312 
L 64.141777 266.132397 
L 62.525618 266.132397 
z
" clip-path="url(#p4dd27fa96b)" style="fill: #1f77b4"/>
   </g>
   <g id="patch_5">
    <path d="M 64.141777 273.312 
L 65.757936 273.312 
L 65.757936 265.414436 
L 64.141777 265.414436 
z
" clip-path="url(#p4dd27fa96b)" style="fill: #1f77b4"/>
   </g>
   <g id="patch_6">
    <path d="M 65.757936 273.312 
L 67.374095 273.312 
L 67.374095 261.106674 
L 65.757936 261.106674 
z
" clip-path="url(#p4dd27fa96b)" style="fill: #1f77b4"/>
   </g>
   <g id="patch_7">
    <path d="M 67.374095 273.312 
L 68.990254 273.312 
L 68.990254 257.516873 
L 67.374095 257.516873 
z
" clip-path="url(#p4dd27fa96b)" style="fill: #1f77b4"/>
   </g>
   <g id="patch_8">
    <path d="M 68.990254 273.312 
L 70.606413 273.312 
L 70.606413 250.337269 
L 68.990254 250.337269 
z
" clip-path="url(#p4dd27fa96b)" style="fill: #1f77b4"/>
   </g>
   <g id="patch_9">
    <path d="M 70.606413 273.312 
L 72.222572 273.312 
L 72.222572 251.055229 
L 70.606413 251.055229 
z
" clip-path="url(#p4dd27fa96b)" style="fill: #1f77b4"/>
   </g>
   <g id="patch_10">
    <path d="M 72.222572 273.312 
L 73.838731 273.312 
L 73.838731 243.875626 
L 72.222572 243.875626 
z
" clip-path="url(#p4dd27fa96b)" style="fill: #1f77b4"/>
   </g>
   <g id="patch_11">
    <path d="M 73.838731 273.312 
L 75.45489 273.312 
L 75.45489 239.567864 
L 73.838731 239.567864 
z
" clip-path="url(#p4dd27fa96b)" style="fill: #1f77b4"/>
   </g>
   <g id="patch_12">
    <path d="M 75.45489 273.312 
L 77.071049 273.312 
L 77.071049 240.285824 
L 75.45489 240.285824 
z
" clip-path="url(#p4dd27fa96b)" style="fill: #1f77b4"/>
   </g>
   <g id="patch_13">
    <path d="M 77.071049 273.312 
L 78.687208 273.312 
L 78.687208 229.516419 
L 77.071049 229.516419 
z
" clip-path="url(#p4dd27fa96b)" style="fill: #1f77b4"/>
   </g>
   <g id="patch_14">
    <path d="M 78.687208 273.312 
L 80.303367 273.312 
L 80.303367 232.388261 
L 78.687208 232.388261 
z
" clip-path="url(#p4dd27fa96b)" style="fill: #1f77b4"/>
   </g>
   <g id="patch_15">
    <path d="M 80.303367 273.312 
L 81.919526 273.312 
L 81.919526 233.106221 
L 80.303367 233.106221 
z
" clip-path="url(#p4dd27fa96b)" style="fill: #1f77b4"/>
   </g>
   <g id="patch_16">
    <path d="M 81.919526 273.312 
L 83.535685 273.312 
L 83.535685 238.849904 
L 81.919526 238.849904 
z
" clip-path="url(#p4dd27fa96b)" style="fill: #1f77b4"/>
   </g>
   <g id="patch_17">
    <path d="M 83.535685 273.312 
L 85.151843 273.312 
L 85.151843 224.490697 
L 83.535685 224.490697 
z
" clip-path="url(#p4dd27fa96b)" style="fill: #1f77b4"/>
   </g>
   <g id="patch_18">
    <path d="M 85.151843 273.312 
L 86.768002 273.312 
L 86.768002 218.747014 
L 85.151843 218.747014 
z
" clip-path="url(#p4dd27fa96b)" style="fill: #1f77b4"/>
   </g>
   <g id="patch_19">
    <path d="M 86.768002 273.312 
L 88.384161 273.312 
L 88.384161 208.695569 
L 86.768002 208.695569 
z
" clip-path="url(#p4dd27fa96b)" style="fill: #1f77b4"/>
   </g>
   <g id="patch_20">
    <path d="M 88.384161 273.312 
L 90.00032 273.312 
L 90.00032 206.541688 
L 88.384161 206.541688 
z
" clip-path="url(#p4dd27fa96b)" style="fill: #1f77b4"/>
   </g>
   <g id="patch_21">
    <path d="M 90.00032 273.312 
L 91.616479 273.312 
L 91.616479 206.541688 
L 90.00032 206.541688 
z
" clip-path="url(#p4dd27fa96b)" style="fill: #1f77b4"/>
   </g>
   <g id="patch_22">
    <path d="M 91.616479 273.312 
L 93.232638 273.312 
L 93.232638 222.336816 
L 91.616479 222.336816 
z
" clip-path="url(#p4dd27fa96b)" style="fill: #1f77b4"/>
   </g>
   <g id="patch_23">
    <path d="M 93.232638 273.312 
L 94.848797 273.312 
L 94.848797 201.515966 
L 93.232638 201.515966 
z
" clip-path="url(#p4dd27fa96b)" style="fill: #1f77b4"/>
   </g>
   <g id="patch_24">
    <path d="M 94.848797 273.312 
L 96.464956 273.312 
L 96.464956 195.772283 
L 94.848797 195.772283 
z
" clip-path="url(#p4dd27fa96b)" style="fill: #1f77b4"/>
   </g>
   <g id="patch_25">
    <path d="M 96.464956 273.312 
L 98.081115 273.312 
L 98.081115 197.926164 
L 96.464956 197.926164 
z
" clip-path="url(#p4dd27fa96b)" style="fill: #1f77b4"/>
   </g>
   <g id="patch_26">
    <path d="M 98.081115 273.312 
L 99.697274 273.312 
L 99.697274 182.848997 
L 98.081115 182.848997 
z
" clip-path="url(#p4dd27fa96b)" style="fill: #1f77b4"/>
   </g>
   <g id="patch_27">
    <path d="M 99.697274 273.312 
L 101.313433 273.312 
L 101.313433 201.515966 
L 99.697274 201.515966 
z
" clip-path="url(#p4dd27fa96b)" style="fill: #1f77b4"/>
   </g>
   <g id="patch_28">
    <path d="M 101.313433 273.312 
L 102.929592 273.312 
L 102.929592 190.028601 
L 101.313433 190.028601 
z
" clip-path="url(#p4dd27fa96b)" style="fill: #1f77b4"/>
   </g>
   <g id="patch_29">
    <path d="M 102.929592 273.312 
L 104.545751 273.312 
L 104.545751 195.054323 
L 102.929592 195.054323 
z
" clip-path="url(#p4dd27fa96b)" style="fill: #1f77b4"/>
   </g>
   <g id="patch_30">
    <path d="M 104.545751 273.312 
L 106.16191 273.312 
L 106.16191 178.541235 
L 104.545751 178.541235 
z
" clip-path="url(#p4dd27fa96b)" style="fill: #1f77b4"/>
   </g>
   <g id="patch_31">
    <path d="M 106.16191 273.312 
L 107.778069 273.312 
L 107.778069 178.541235 
L 106.16191 178.541235 
z
" clip-path="url(#p4dd27fa96b)" style="fill: #1f77b4"/>
   </g>
   <g id="patch_32">
    <path d="M 107.778069 273.312 
L 109.394228 273.312 
L 109.394228 157.720385 
L 107.778069 157.720385 
z
" clip-path="url(#p4dd27fa96b)" style="fill: #1f77b4"/>
   </g>
   <g id="patch_33">
    <path d="M 109.394228 273.312 
L 111.010387 273.312 
L 111.010387 158.438346 
L 109.394228 158.438346 
z
" clip-path="url(#p4dd27fa96b)" style="fill: #1f77b4"/>
   </g>
   <g id="patch_34">
    <path d="M 111.010387 273.312 
L 112.626546 273.312 
L 112.626546 157.002425 
L 111.010387 157.002425 
z
" clip-path="url(#p4dd27fa96b)" style="fill: #1f77b4"/>
   </g>
   <g id="patch_35">
    <path d="M 112.626546 273.312 
L 114.242704 273.312 
L 114.242704 158.438346 
L 112.626546 158.438346 
z
" clip-path="url(#p4dd27fa96b)" style="fill: #1f77b4"/>
   </g>
   <g id="patch_36">
    <path d="M 114.242704 273.312 
L 115.858863 273.312 
L 115.858863 159.874266 
L 114.242704 159.874266 
z
" clip-path="url(#p4dd27fa96b)" style="fill: #1f77b4"/>
   </g>
   <g id="patch_37">
    <path d="M 115.858863 273.312 
L 117.475022 273.312 
L 117.475022 143.361178 
L 115.858863 143.361178 
z
" clip-path="url(#p4dd27fa96b)" style="fill: #1f77b4"/>
   </g>
   <g id="patch_38">
    <path d="M 117.475022 273.312 
L 119.091181 273.312 
L 119.091181 144.797099 
L 117.475022 144.797099 
z
" clip-path="url(#p4dd27fa96b)" style="fill: #1f77b4"/>
   </g>
   <g id="patch_39">
    <path d="M 119.091181 273.312 
L 120.70734 273.312 
L 120.70734 153.412623 
L 119.091181 153.412623 
z
" clip-path="url(#p4dd27fa96b)" style="fill: #1f77b4"/>
   </g>
   <g id="patch_40">
    <path d="M 120.70734 273.312 
L 122.323499 273.312 
L 122.323499 155.566504 
L 120.70734 155.566504 
z
" clip-path="url(#p4dd27fa96b)" style="fill: #1f77b4"/>
   </g>
   <g id="patch_41">
    <path d="M 122.323499 273.312 
L 123.939658 273.312 
L 123.939658 162.028147 
L 122.323499 162.028147 
z
" clip-path="url(#p4dd27fa96b)" style="fill: #1f77b4"/>
   </g>
   <g id="patch_42">
    <path d="M 123.939658 273.312 
L 125.555817 273.312 
L 125.555817 127.566051 
L 123.939658 127.566051 
z
" clip-path="url(#p4dd27fa96b)" style="fill: #1f77b4"/>
   </g>
   <g id="patch_43">
    <path d="M 125.555817 273.312 
L 127.171976 273.312 
L 127.171976 144.079139 
L 125.555817 144.079139 
z
" clip-path="url(#p4dd27fa96b)" style="fill: #1f77b4"/>
   </g>
   <g id="patch_44">
    <path d="M 127.171976 273.312 
L 128.788135 273.312 
L 128.788135 113.924805 
L 127.171976 113.924805 
z
" clip-path="url(#p4dd27fa96b)" style="fill: #1f77b4"/>
   </g>
   <g id="patch_45">
    <path d="M 128.788135 273.312 
L 130.404294 273.312 
L 130.404294 153.412623 
L 128.788135 153.412623 
z
" clip-path="url(#p4dd27fa96b)" style="fill: #1f77b4"/>
   </g>
   <g id="patch_46">
    <path d="M 130.404294 273.312 
L 132.020453 273.312 
L 132.020453 141.925258 
L 130.404294 141.925258 
z
" clip-path="url(#p4dd27fa96b)" style="fill: #1f77b4"/>
   </g>
   <g id="patch_47">
    <path d="M 132.020453 273.312 
L 133.636612 273.312 
L 133.636612 124.69421 
L 132.020453 124.69421 
z
" clip-path="url(#p4dd27fa96b)" style="fill: #1f77b4"/>
   </g>
   <g id="patch_48">
    <path d="M 133.636612 273.312 
L 135.252771 273.312 
L 135.252771 123.258289 
L 133.636612 123.258289 
z
" clip-path="url(#p4dd27fa96b)" style="fill: #1f77b4"/>
   </g>
   <g id="patch_49">
    <path d="M 135.252771 273.312 
L 136.86893 273.312 
L 136.86893 123.258289 
L 135.252771 123.258289 
z
" clip-path="url(#p4dd27fa96b)" style="fill: #1f77b4"/>
   </g>
   <g id="patch_50">
    <path d="M 136.86893 273.312 
L 138.485089 273.312 
L 138.485089 116.796646 
L 136.86893 116.796646 
z
" clip-path="url(#p4dd27fa96b)" style="fill: #1f77b4"/>
   </g>
   <g id="patch_51">
    <path d="M 138.485089 273.312 
L 140.101248 273.312 
L 140.101248 130.437892 
L 138.485089 130.437892 
z
" clip-path="url(#p4dd27fa96b)" style="fill: #1f77b4"/>
   </g>
   <g id="patch_52">
    <path d="M 140.101248 273.312 
L 141.717407 273.312 
L 141.717407 109.617042 
L 140.101248 109.617042 
z
" clip-path="url(#p4dd27fa96b)" style="fill: #1f77b4"/>
   </g>
   <g id="patch_53">
    <path d="M 141.717407 273.312 
L 143.333565 273.312 
L 143.333565 107.463161 
L 141.717407 107.463161 
z
" clip-path="url(#p4dd27fa96b)" style="fill: #1f77b4"/>
   </g>
   <g id="patch_54">
    <path d="M 143.333565 273.312 
L 144.949724 273.312 
L 144.949724 129.001972 
L 143.333565 129.001972 
z
" clip-path="url(#p4dd27fa96b)" style="fill: #1f77b4"/>
   </g>
   <g id="patch_55">
    <path d="M 144.949724 273.312 
L 146.565883 273.312 
L 146.565883 98.847637 
L 144.949724 98.847637 
z
" clip-path="url(#p4dd27fa96b)" style="fill: #1f77b4"/>
   </g>
   <g id="patch_56">
    <path d="M 146.565883 273.312 
L 148.182042 273.312 
L 148.182042 101.001518 
L 146.565883 101.001518 
z
" clip-path="url(#p4dd27fa96b)" style="fill: #1f77b4"/>
   </g>
   <g id="patch_57">
    <path d="M 148.182042 273.312 
L 149.798201 273.312 
L 149.798201 103.87336 
L 148.182042 103.87336 
z
" clip-path="url(#p4dd27fa96b)" style="fill: #1f77b4"/>
   </g>
   <g id="patch_58">
    <path d="M 149.798201 273.312 
L 151.41436 273.312 
L 151.41436 80.898629 
L 149.798201 80.898629 
z
" clip-path="url(#p4dd27fa96b)" style="fill: #1f77b4"/>
   </g>
   <g id="patch_59">
    <path d="M 151.41436 273.312 
L 153.030519 273.312 
L 153.030519 109.617042 
L 151.41436 109.617042 
z
" clip-path="url(#p4dd27fa96b)" style="fill: #1f77b4"/>
   </g>
   <g id="patch_60">
    <path d="M 153.030519 273.312 
L 154.646678 273.312 
L 154.646678 111.052963 
L 153.030519 111.052963 
z
" clip-path="url(#p4dd27fa96b)" style="fill: #1f77b4"/>
   </g>
   <g id="patch_61">
    <path d="M 154.646678 273.312 
L 156.262837 273.312 
L 156.262837 91.668034 
L 154.646678 91.668034 
z
" clip-path="url(#p4dd27fa96b)" style="fill: #1f77b4"/>
   </g>
   <g id="patch_62">
    <path d="M 156.262837 273.312 
L 157.878996 273.312 
L 157.878996 93.103955 
L 156.262837 93.103955 
z
" clip-path="url(#p4dd27fa96b)" style="fill: #1f77b4"/>
   </g>
   <g id="patch_63">
    <path d="M 157.878996 273.312 
L 159.495155 273.312 
L 159.495155 88.078232 
L 157.878996 88.078232 
z
" clip-path="url(#p4dd27fa96b)" style="fill: #1f77b4"/>
   </g>
   <g id="patch_64">
    <path d="M 159.495155 273.312 
L 161.111314 273.312 
L 161.111314 76.590867 
L 159.495155 76.590867 
z
" clip-path="url(#p4dd27fa96b)" style="fill: #1f77b4"/>
   </g>
   <g id="patch_65">
    <path d="M 161.111314 273.312 
L 162.727473 273.312 
L 162.727473 101.719479 
L 161.111314 101.719479 
z
" clip-path="url(#p4dd27fa96b)" style="fill: #1f77b4"/>
   </g>
   <g id="patch_66">
    <path d="M 162.727473 273.312 
L 164.343632 273.312 
L 164.343632 98.847637 
L 162.727473 98.847637 
z
" clip-path="url(#p4dd27fa96b)" style="fill: #1f77b4"/>
   </g>
   <g id="patch_67">
    <path d="M 164.343632 273.312 
L 165.959791 273.312 
L 165.959791 89.514153 
L 164.343632 89.514153 
z
" clip-path="url(#p4dd27fa96b)" style="fill: #1f77b4"/>
   </g>
   <g id="patch_68">
    <path d="M 165.959791 273.312 
L 167.57595 273.312 
L 167.57595 83.05251 
L 165.959791 83.05251 
z
" clip-path="url(#p4dd27fa96b)" style="fill: #1f77b4"/>
   </g>
   <g id="patch_69">
    <path d="M 167.57595 273.312 
L 169.192109 273.312 
L 169.192109 55.770017 
L 167.57595 55.770017 
z
" clip-path="url(#p4dd27fa96b)" style="fill: #1f77b4"/>
   </g>
   <g id="patch_70">
    <path d="M 169.192109 273.312 
L 170.808268 273.312 
L 170.808268 85.206391 
L 169.192109 85.206391 
z
" clip-path="url(#p4dd27fa96b)" style="fill: #1f77b4"/>
   </g>
   <g id="patch_71">
    <path d="M 170.808268 273.312 
L 172.424427 273.312 
L 172.424427 51.462255 
L 170.808268 51.462255 
z
" clip-path="url(#p4dd27fa96b)" style="fill: #1f77b4"/>
   </g>
   <g id="patch_72">
    <path d="M 172.424427 273.312 
L 174.040585 273.312 
L 174.040585 75.154946 
L 172.424427 75.154946 
z
" clip-path="url(#p4dd27fa96b)" style="fill: #1f77b4"/>
   </g>
   <g id="patch_73">
    <path d="M 174.040585 273.312 
L 175.656744 273.312 
L 175.656744 69.411263 
L 174.040585 69.411263 
z
" clip-path="url(#p4dd27fa96b)" style="fill: #1f77b4"/>
   </g>
   <g id="patch_74">
    <path d="M 175.656744 273.312 
L 177.272903 273.312 
L 177.272903 72.283105 
L 175.656744 72.283105 
z
" clip-path="url(#p4dd27fa96b)" style="fill: #1f77b4"/>
   </g>
   <g id="patch_75">
    <path d="M 177.272903 273.312 
L 178.889062 273.312 
L 178.889062 84.488431 
L 177.272903 84.488431 
z
" clip-path="url(#p4dd27fa96b)" style="fill: #1f77b4"/>
   </g>
   <g id="patch_76">
    <path d="M 178.889062 273.312 
L 180.505221 273.312 
L 180.505221 73.719025 
L 178.889062 73.719025 
z
" clip-path="url(#p4dd27fa96b)" style="fill: #1f77b4"/>
   </g>
   <g id="patch_77">
    <path d="M 180.505221 273.312 
L 182.12138 273.312 
L 182.12138 68.693303 
L 180.505221 68.693303 
z
" clip-path="url(#p4dd27fa96b)" style="fill: #1f77b4"/>
   </g>
   <g id="patch_78">
    <path d="M 182.12138 273.312 
L 183.737539 273.312 
L 183.737539 78.744748 
L 182.12138 78.744748 
z
" clip-path="url(#p4dd27fa96b)" style="fill: #1f77b4"/>
   </g>
   <g id="patch_79">
    <path d="M 183.737539 273.312 
L 185.353698 273.312 
L 185.353698 60.077779 
L 183.737539 60.077779 
z
" clip-path="url(#p4dd27fa96b)" style="fill: #1f77b4"/>
   </g>
   <g id="patch_80">
    <path d="M 185.353698 273.312 
L 186.969857 273.312 
L 186.969857 57.205938 
L 185.353698 57.205938 
z
" clip-path="url(#p4dd27fa96b)" style="fill: #1f77b4"/>
   </g>
   <g id="patch_81">
    <path d="M 186.969857 273.312 
L 188.586016 273.312 
L 188.586016 65.821462 
L 186.969857 65.821462 
z
" clip-path="url(#p4dd27fa96b)" style="fill: #1f77b4"/>
   </g>
   <g id="patch_82">
    <path d="M 188.586016 273.312 
L 190.202175 273.312 
L 190.202175 72.283105 
L 188.586016 72.283105 
z
" clip-path="url(#p4dd27fa96b)" style="fill: #1f77b4"/>
   </g>
   <g id="patch_83">
    <path d="M 190.202175 273.312 
L 191.818334 273.312 
L 191.818334 36.385088 
L 190.202175 36.385088 
z
" clip-path="url(#p4dd27fa96b)" style="fill: #1f77b4"/>
   </g>
   <g id="patch_84">
    <path d="M 191.818334 273.312 
L 193.434493 273.312 
L 193.434493 42.846731 
L 191.818334 42.846731 
z
" clip-path="url(#p4dd27fa96b)" style="fill: #1f77b4"/>
   </g>
   <g id="patch_85">
    <path d="M 193.434493 273.312 
L 195.050652 273.312 
L 195.050652 60.795739 
L 193.434493 60.795739 
z
" clip-path="url(#p4dd27fa96b)" style="fill: #1f77b4"/>
   </g>
   <g id="patch_86">
    <path d="M 195.050652 273.312 
L 196.666811 273.312 
L 196.666811 68.693303 
L 195.050652 68.693303 
z
" clip-path="url(#p4dd27fa96b)" style="fill: #1f77b4"/>
   </g>
   <g id="patch_87">
    <path d="M 196.666811 273.312 
L 198.28297 273.312 
L 198.28297 75.872907 
L 196.666811 75.872907 
z
" clip-path="url(#p4dd27fa96b)" style="fill: #1f77b4"/>
   </g>
   <g id="patch_88">
    <path d="M 198.28297 273.312 
L 199.899129 273.312 
L 199.899129 53.616136 
L 198.28297 53.616136 
z
" clip-path="url(#p4dd27fa96b)" style="fill: #1f77b4"/>
   </g>
   <g id="patch_89">
    <path d="M 199.899129 273.312 
L 201.515288 273.312 
L 201.515288 32.077326 
L 199.899129 32.077326 
z
" clip-path="url(#p4dd27fa96b)" style="fill: #1f77b4"/>
   </g>
   <g id="patch_90">
    <path d="M 201.515288 273.312 
L 203.131446 273.312 
L 203.131446 49.308374 
L 201.515288 49.308374 
z
" clip-path="url(#p4dd27fa96b)" style="fill: #1f77b4"/>
   </g>
   <g id="patch_91">
    <path d="M 203.131446 273.312 
L 204.747605 273.312 
L 204.747605 61.5137 
L 203.131446 61.5137 
z
" clip-path="url(#p4dd27fa96b)" style="fill: #1f77b4"/>
   </g>
   <g id="patch_92">
    <path d="M 204.747605 273.312 
L 206.363764 273.312 
L 206.363764 37.103048 
L 204.747605 37.103048 
z
" clip-path="url(#p4dd27fa96b)" style="fill: #1f77b4"/>
   </g>
   <g id="patch_93">
    <path d="M 206.363764 273.312 
L 207.979923 273.312 
L 207.979923 47.872453 
L 206.363764 47.872453 
z
" clip-path="url(#p4dd27fa96b)" style="fill: #1f77b4"/>
   </g>
   <g id="patch_94">
    <path d="M 207.979923 273.312 
L 209.596082 273.312 
L 209.596082 76.590867 
L 207.979923 76.590867 
z
" clip-path="url(#p4dd27fa96b)" style="fill: #1f77b4"/>
   </g>
   <g id="patch_95">
    <path d="M 209.596082 273.312 
L 211.212241 273.312 
L 211.212241 49.308374 
L 209.596082 49.308374 
z
" clip-path="url(#p4dd27fa96b)" style="fill: #1f77b4"/>
   </g>
   <g id="patch_96">
    <path d="M 211.212241 273.312 
L 212.8284 273.312 
L 212.8284 58.641858 
L 211.212241 58.641858 
z
" clip-path="url(#p4dd27fa96b)" style="fill: #1f77b4"/>
   </g>
   <g id="patch_97">
    <path d="M 212.8284 273.312 
L 214.444559 273.312 
L 214.444559 54.334096 
L 212.8284 54.334096 
z
" clip-path="url(#p4dd27fa96b)" style="fill: #1f77b4"/>
   </g>
   <g id="patch_98">
    <path d="M 214.444559 273.312 
L 216.060718 273.312 
L 216.060718 34.231207 
L 214.444559 34.231207 
z
" clip-path="url(#p4dd27fa96b)" style="fill: #1f77b4"/>
   </g>
   <g id="patch_99">
    <path d="M 216.060718 273.312 
L 217.676877 273.312 
L 217.676877 64.385541 
L 216.060718 64.385541 
z
" clip-path="url(#p4dd27fa96b)" style="fill: #1f77b4"/>
   </g>
   <g id="patch_100">
    <path d="M 217.676877 273.312 
L 219.293036 273.312 
L 219.293036 57.923898 
L 217.676877 57.923898 
z
" clip-path="url(#p4dd27fa96b)" style="fill: #1f77b4"/>
   </g>
   <g id="patch_101">
    <path d="M 219.293036 273.312 
L 220.909195 273.312 
L 220.909195 51.462255 
L 219.293036 51.462255 
z
" clip-path="url(#p4dd27fa96b)" style="fill: #1f77b4"/>
   </g>
   <g id="patch_102">
    <path d="M 220.909195 273.312 
L 222.525354 273.312 
L 222.525354 52.898176 
L 220.909195 52.898176 
z
" clip-path="url(#p4dd27fa96b)" style="fill: #1f77b4"/>
   </g>
   <g id="patch_103">
    <path d="M 222.525354 273.312 
L 224.141513 273.312 
L 224.141513 47.154493 
L 222.525354 47.154493 
z
" clip-path="url(#p4dd27fa96b)" style="fill: #1f77b4"/>
   </g>
   <g id="patch_104">
    <path d="M 224.141513 273.312 
L 225.757672 273.312 
L 225.757672 58.641858 
L 224.141513 58.641858 
z
" clip-path="url(#p4dd27fa96b)" style="fill: #1f77b4"/>
   </g>
   <g id="patch_105">
    <path d="M 225.757672 273.312 
L 227.373831 273.312 
L 227.373831 40.69285 
L 225.757672 40.69285 
z
" clip-path="url(#p4dd27fa96b)" style="fill: #1f77b4"/>
   </g>
   <g id="patch_106">
    <path d="M 227.373831 273.312 
L 228.98999 273.312 
L 228.98999 51.462255 
L 227.373831 51.462255 
z
" clip-path="url(#p4dd27fa96b)" style="fill: #1f77b4"/>
   </g>
   <g id="patch_107">
    <path d="M 228.98999 273.312 
L 230.606149 273.312 
L 230.606149 52.898176 
L 228.98999 52.898176 
z
" clip-path="url(#p4dd27fa96b)" style="fill: #1f77b4"/>
   </g>
   <g id="patch_108">
    <path d="M 230.606149 273.312 
L 232.222308 273.312 
L 232.222308 30.641405 
L 230.606149 30.641405 
z
" clip-path="url(#p4dd27fa96b)" style="fill: #1f77b4"/>
   </g>
   <g id="patch_109">
    <path d="M 232.222308 273.312 
L 233.838466 273.312 
L 233.838466 51.462255 
L 232.222308 51.462255 
z
" clip-path="url(#p4dd27fa96b)" style="fill: #1f77b4"/>
   </g>
   <g id="patch_110">
    <path d="M 233.838466 273.312 
L 235.454625 273.312 
L 235.454625 65.103501 
L 233.838466 65.103501 
z
" clip-path="url(#p4dd27fa96b)" style="fill: #1f77b4"/>
   </g>
   <g id="patch_111">
    <path d="M 235.454625 273.312 
L 237.070784 273.312 
L 237.070784 55.770017 
L 235.454625 55.770017 
z
" clip-path="url(#p4dd27fa96b)" style="fill: #1f77b4"/>
   </g>
   <g id="patch_112">
    <path d="M 237.070784 273.312 
L 238.686943 273.312 
L 238.686943 42.128771 
L 237.070784 42.128771 
z
" clip-path="url(#p4dd27fa96b)" style="fill: #1f77b4"/>
   </g>
   <g id="patch_113">
    <path d="M 238.686943 273.312 
L 240.303102 273.312 
L 240.303102 37.103048 
L 238.686943 37.103048 
z
" clip-path="url(#p4dd27fa96b)" style="fill: #1f77b4"/>
   </g>
   <g id="patch_114">
    <path d="M 240.303102 273.312 
L 241.919261 273.312 
L 241.919261 55.052057 
L 240.303102 55.052057 
z
" clip-path="url(#p4dd27fa96b)" style="fill: #1f77b4"/>
   </g>
   <g id="patch_115">
    <path d="M 241.919261 273.312 
L 243.53542 273.312 
L 243.53542 51.462255 
L 241.919261 51.462255 
z
" clip-path="url(#p4dd27fa96b)" style="fill: #1f77b4"/>
   </g>
   <g id="patch_116">
    <path d="M 243.53542 273.312 
L 245.151579 273.312 
L 245.151579 60.077779 
L 243.53542 60.077779 
z
" clip-path="url(#p4dd27fa96b)" style="fill: #1f77b4"/>
   </g>
   <g id="patch_117">
    <path d="M 245.151579 273.312 
L 246.767738 273.312 
L 246.767738 36.385088 
L 245.151579 36.385088 
z
" clip-path="url(#p4dd27fa96b)" style="fill: #1f77b4"/>
   </g>
   <g id="patch_118">
    <path d="M 246.767738 273.312 
L 248.383897 273.312 
L 248.383897 39.97489 
L 246.767738 39.97489 
z
" clip-path="url(#p4dd27fa96b)" style="fill: #1f77b4"/>
   </g>
   <g id="patch_119">
    <path d="M 248.383897 273.312 
L 250.000056 273.312 
L 250.000056 62.23166 
L 248.383897 62.23166 
z
" clip-path="url(#p4dd27fa96b)" style="fill: #1f77b4"/>
   </g>
   <g id="patch_120">
    <path d="M 250.000056 273.312 
L 251.616215 273.312 
L 251.616215 37.103048 
L 250.000056 37.103048 
z
" clip-path="url(#p4dd27fa96b)" style="fill: #1f77b4"/>
   </g>
   <g id="patch_121">
    <path d="M 251.616215 273.312 
L 253.232374 273.312 
L 253.232374 19.872 
L 251.616215 19.872 
z
" clip-path="url(#p4dd27fa96b)" style="fill: #1f77b4"/>
   </g>
   <g id="patch_122">
    <path d="M 253.232374 273.312 
L 254.848533 273.312 
L 254.848533 56.487977 
L 253.232374 56.487977 
z
" clip-path="url(#p4dd27fa96b)" style="fill: #1f77b4"/>
   </g>
   <g id="patch_123">
    <path d="M 254.848533 273.312 
L 256.464692 273.312 
L 256.464692 56.487977 
L 254.848533 56.487977 
z
" clip-path="url(#p4dd27fa96b)" style="fill: #1f77b4"/>
   </g>
   <g id="patch_124">
    <path d="M 256.464692 273.312 
L 258.080851 273.312 
L 258.080851 47.154493 
L 256.464692 47.154493 
z
" clip-path="url(#p4dd27fa96b)" style="fill: #1f77b4"/>
   </g>
   <g id="patch_125">
    <path d="M 258.080851 273.312 
L 259.69701 273.312 
L 259.69701 60.077779 
L 258.080851 60.077779 
z
" clip-path="url(#p4dd27fa96b)" style="fill: #1f77b4"/>
   </g>
   <g id="patch_126">
    <path d="M 259.69701 273.312 
L 261.313169 273.312 
L 261.313169 60.795739 
L 259.69701 60.795739 
z
" clip-path="url(#p4dd27fa96b)" style="fill: #1f77b4"/>
   </g>
   <g id="patch_127">
    <path d="M 261.313169 273.312 
L 262.929327 273.312 
L 262.929327 85.206391 
L 261.313169 85.206391 
z
" clip-path="url(#p4dd27fa96b)" style="fill: #1f77b4"/>
   </g>
   <g id="patch_128">
    <path d="M 262.929327 273.312 
L 264.545486 273.312 
L 264.545486 76.590867 
L 262.929327 76.590867 
z
" clip-path="url(#p4dd27fa96b)" style="fill: #1f77b4"/>
   </g>
   <g id="patch_129">
    <path d="M 264.545486 273.312 
L 266.161645 273.312 
L 266.161645 58.641858 
L 264.545486 58.641858 
z
" clip-path="url(#p4dd27fa96b)" style="fill: #1f77b4"/>
   </g>
   <g id="patch_130">
    <path d="M 266.161645 273.312 
L 267.777804 273.312 
L 267.777804 47.154493 
L 266.161645 47.154493 
z
" clip-path="url(#p4dd27fa96b)" style="fill: #1f77b4"/>
   </g>
   <g id="patch_131">
    <path d="M 267.777804 273.312 
L 269.393963 273.312 
L 269.393963 86.642312 
L 267.777804 86.642312 
z
" clip-path="url(#p4dd27fa96b)" style="fill: #1f77b4"/>
   </g>
   <g id="patch_132">
    <path d="M 269.393963 273.312 
L 271.010122 273.312 
L 271.010122 78.026788 
L 269.393963 78.026788 
z
" clip-path="url(#p4dd27fa96b)" style="fill: #1f77b4"/>
   </g>
   <g id="patch_133">
    <path d="M 271.010122 273.312 
L 272.626281 273.312 
L 272.626281 76.590867 
L 271.010122 76.590867 
z
" clip-path="url(#p4dd27fa96b)" style="fill: #1f77b4"/>
   </g>
   <g id="patch_134">
    <path d="M 272.626281 273.312 
L 274.24244 273.312 
L 274.24244 47.154493 
L 272.626281 47.154493 
z
" clip-path="url(#p4dd27fa96b)" style="fill: #1f77b4"/>
   </g>
   <g id="patch_135">
    <path d="M 274.24244 273.312 
L 275.858599 273.312 
L 275.858599 103.87336 
L 274.24244 103.87336 
z
" clip-path="url(#p4dd27fa96b)" style="fill: #1f77b4"/>
   </g>
   <g id="patch_136">
    <path d="M 275.858599 273.312 
L 277.474758 273.312 
L 277.474758 95.975796 
L 275.858599 95.975796 
z
" clip-path="url(#p4dd27fa96b)" style="fill: #1f77b4"/>
   </g>
   <g id="patch_137">
    <path d="M 277.474758 273.312 
L 279.090917 273.312 
L 279.090917 73.001065 
L 277.474758 73.001065 
z
" clip-path="url(#p4dd27fa96b)" style="fill: #1f77b4"/>
   </g>
   <g id="patch_138">
    <path d="M 279.090917 273.312 
L 280.707076 273.312 
L 280.707076 87.360272 
L 279.090917 87.360272 
z
" clip-path="url(#p4dd27fa96b)" style="fill: #1f77b4"/>
   </g>
   <g id="patch_139">
    <path d="M 280.707076 273.312 
L 282.323235 273.312 
L 282.323235 81.616589 
L 280.707076 81.616589 
z
" clip-path="url(#p4dd27fa96b)" style="fill: #1f77b4"/>
   </g>
   <g id="patch_140">
    <path d="M 282.323235 273.312 
L 283.939394 273.312 
L 283.939394 76.590867 
L 282.323235 76.590867 
z
" clip-path="url(#p4dd27fa96b)" style="fill: #1f77b4"/>
   </g>
   <g id="patch_141">
    <path d="M 283.939394 273.312 
L 285.555553 273.312 
L 285.555553 101.001518 
L 283.939394 101.001518 
z
" clip-path="url(#p4dd27fa96b)" style="fill: #1f77b4"/>
   </g>
   <g id="patch_142">
    <path d="M 285.555553 273.312 
L 287.171712 273.312 
L 287.171712 97.411717 
L 285.555553 97.411717 
z
" clip-path="url(#p4dd27fa96b)" style="fill: #1f77b4"/>
   </g>
   <g id="patch_143">
    <path d="M 287.171712 273.312 
L 288.787871 273.312 
L 288.787871 95.257836 
L 287.171712 95.257836 
z
" clip-path="url(#p4dd27fa96b)" style="fill: #1f77b4"/>
   </g>
   <g id="patch_144">
    <path d="M 288.787871 273.312 
L 290.40403 273.312 
L 290.40403 102.437439 
L 288.787871 102.437439 
z
" clip-path="url(#p4dd27fa96b)" style="fill: #1f77b4"/>
   </g>
   <g id="patch_145">
    <path d="M 290.40403 273.312 
L 292.020189 273.312 
L 292.020189 94.539875 
L 290.40403 94.539875 
z
" clip-path="url(#p4dd27fa96b)" style="fill: #1f77b4"/>
   </g>
   <g id="patch_146">
    <path d="M 292.020189 273.312 
L 293.636347 273.312 
L 293.636347 90.950074 
L 292.020189 90.950074 
z
" clip-path="url(#p4dd27fa96b)" style="fill: #1f77b4"/>
   </g>
   <g id="patch_147">
    <path d="M 293.636347 273.312 
L 295.252506 273.312 
L 295.252506 89.514153 
L 293.636347 89.514153 
z
" clip-path="url(#p4dd27fa96b)" style="fill: #1f77b4"/>
   </g>
   <g id="patch_148">
    <path d="M 295.252506 273.312 
L 296.868665 273.312 
L 296.868665 106.027241 
L 295.252506 106.027241 
z
" clip-path="url(#p4dd27fa96b)" style="fill: #1f77b4"/>
   </g>
   <g id="patch_149">
    <path d="M 296.868665 273.312 
L 298.484824 273.312 
L 298.484824 99.565598 
L 296.868665 99.565598 
z
" clip-path="url(#p4dd27fa96b)" style="fill: #1f77b4"/>
   </g>
   <g id="patch_150">
    <path d="M 298.484824 273.312 
L 300.100983 273.312 
L 300.100983 97.411717 
L 298.484824 97.411717 
z
" clip-path="url(#p4dd27fa96b)" style="fill: #1f77b4"/>
   </g>
   <g id="patch_151">
    <path d="M 300.100983 273.312 
L 301.717142 273.312 
L 301.717142 89.514153 
L 300.100983 89.514153 
z
" clip-path="url(#p4dd27fa96b)" style="fill: #1f77b4"/>
   </g>
   <g id="patch_152">
    <path d="M 301.717142 273.312 
L 303.333301 273.312 
L 303.333301 93.103955 
L 301.717142 93.103955 
z
" clip-path="url(#p4dd27fa96b)" style="fill: #1f77b4"/>
   </g>
   <g id="patch_153">
    <path d="M 303.333301 273.312 
L 304.94946 273.312 
L 304.94946 111.770924 
L 303.333301 111.770924 
z
" clip-path="url(#p4dd27fa96b)" style="fill: #1f77b4"/>
   </g>
   <g id="patch_154">
    <path d="M 304.94946 273.312 
L 306.565619 273.312 
L 306.565619 113.206844 
L 304.94946 113.206844 
z
" clip-path="url(#p4dd27fa96b)" style="fill: #1f77b4"/>
   </g>
   <g id="patch_155">
    <path d="M 306.565619 273.312 
L 308.181778 273.312 
L 308.181778 107.463161 
L 306.565619 107.463161 
z
" clip-path="url(#p4dd27fa96b)" style="fill: #1f77b4"/>
   </g>
   <g id="patch_156">
    <path d="M 308.181778 273.312 
L 309.797937 273.312 
L 309.797937 130.437892 
L 308.181778 130.437892 
z
" clip-path="url(#p4dd27fa96b)" style="fill: #1f77b4"/>
   </g>
   <g id="patch_157">
    <path d="M 309.797937 273.312 
L 311.414096 273.312 
L 311.414096 133.309734 
L 309.797937 133.309734 
z
" clip-path="url(#p4dd27fa96b)" style="fill: #1f77b4"/>
   </g>
   <g id="patch_158">
    <path d="M 311.414096 273.312 
L 313.030255 273.312 
L 313.030255 132.591773 
L 311.414096 132.591773 
z
" clip-path="url(#p4dd27fa96b)" style="fill: #1f77b4"/>
   </g>
   <g id="patch_159">
    <path d="M 313.030255 273.312 
L 314.646414 273.312 
L 314.646414 147.668941 
L 313.030255 147.668941 
z
" clip-path="url(#p4dd27fa96b)" style="fill: #1f77b4"/>
   </g>
   <g id="patch_160">
    <path d="M 314.646414 273.312 
L 316.262573 273.312 
L 316.262573 133.309734 
L 314.646414 133.309734 
z
" clip-path="url(#p4dd27fa96b)" style="fill: #1f77b4"/>
   </g>
   <g id="patch_161">
    <path d="M 316.262573 273.312 
L 317.878732 273.312 
L 317.878732 141.925258 
L 316.262573 141.925258 
z
" clip-path="url(#p4dd27fa96b)" style="fill: #1f77b4"/>
   </g>
   <g id="patch_162">
    <path d="M 317.878732 273.312 
L 319.494891 273.312 
L 319.494891 154.848544 
L 317.878732 154.848544 
z
" clip-path="url(#p4dd27fa96b)" style="fill: #1f77b4"/>
   </g>
   <g id="patch_163">
    <path d="M 319.494891 273.312 
L 321.11105 273.312 
L 321.11105 142.643218 
L 319.494891 142.643218 
z
" clip-path="url(#p4dd27fa96b)" style="fill: #1f77b4"/>
   </g>
   <g id="patch_164">
    <path d="M 321.11105 273.312 
L 322.727208 273.312 
L 322.727208 146.95098 
L 321.11105 146.95098 
z
" clip-path="url(#p4dd27fa96b)" style="fill: #1f77b4"/>
   </g>
   <g id="patch_165">
    <path d="M 322.727208 273.312 
L 324.343367 273.312 
L 324.343367 145.515059 
L 322.727208 145.515059 
z
" clip-path="url(#p4dd27fa96b)" style="fill: #1f77b4"/>
   </g>
   <g id="patch_166">
    <path d="M 324.343367 273.312 
L 325.959526 273.312 
L 325.959526 141.207297 
L 324.343367 141.207297 
z
" clip-path="url(#p4dd27fa96b)" style="fill: #1f77b4"/>
   </g>
   <g id="patch_167">
    <path d="M 325.959526 273.312 
L 327.575685 273.312 
L 327.575685 169.207751 
L 325.959526 169.207751 
z
" clip-path="url(#p4dd27fa96b)" style="fill: #1f77b4"/>
   </g>
   <g id="patch_168">
    <path d="M 327.575685 273.312 
L 329.191844 273.312 
L 329.191844 166.335909 
L 327.575685 166.335909 
z
" clip-path="url(#p4dd27fa96b)" style="fill: #1f77b4"/>
   </g>
   <g id="patch_169">
    <path d="M 329.191844 273.312 
L 330.808003 273.312 
L 330.808003 149.822822 
L 329.191844 149.822822 
z
" clip-path="url(#p4dd27fa96b)" style="fill: #1f77b4"/>
   </g>
   <g id="patch_170">
    <path d="M 330.808003 273.312 
L 332.424162 273.312 
L 332.424162 157.720385 
L 330.808003 157.720385 
z
" clip-path="url(#p4dd27fa96b)" style="fill: #1f77b4"/>
   </g>
   <g id="patch_171">
    <path d="M 332.424162 273.312 
L 334.040321 273.312 
L 334.040321 175.669394 
L 332.424162 175.669394 
z
" clip-path="url(#p4dd27fa96b)" style="fill: #1f77b4"/>
   </g>
   <g id="patch_172">
    <path d="M 334.040321 273.312 
L 335.65648 273.312 
L 335.65648 164.899989 
L 334.040321 164.899989 
z
" clip-path="url(#p4dd27fa96b)" style="fill: #1f77b4"/>
   </g>
   <g id="patch_173">
    <path d="M 335.65648 273.312 
L 337.272639 273.312 
L 337.272639 167.77183 
L 335.65648 167.77183 
z
" clip-path="url(#p4dd27fa96b)" style="fill: #1f77b4"/>
   </g>
   <g id="patch_174">
    <path d="M 337.272639 273.312 
L 338.888798 273.312 
L 338.888798 190.028601 
L 337.272639 190.028601 
z
" clip-path="url(#p4dd27fa96b)" style="fill: #1f77b4"/>
   </g>
   <g id="patch_175">
    <path d="M 338.888798 273.312 
L 340.504957 273.312 
L 340.504957 177.823275 
L 338.888798 177.823275 
z
" clip-path="url(#p4dd27fa96b)" style="fill: #1f77b4"/>
   </g>
   <g id="patch_176">
    <path d="M 340.504957 273.312 
L 342.121116 273.312 
L 342.121116 182.848997 
L 340.504957 182.848997 
z
" clip-path="url(#p4dd27fa96b)" style="fill: #1f77b4"/>
   </g>
   <g id="patch_177">
    <path d="M 342.121116 273.312 
L 343.737275 273.312 
L 343.737275 193.618402 
L 342.121116 193.618402 
z
" clip-path="url(#p4dd27fa96b)" style="fill: #1f77b4"/>
   </g>
   <g id="patch_178">
    <path d="M 343.737275 273.312 
L 345.353434 273.312 
L 345.353434 185.720839 
L 343.737275 185.720839 
z
" clip-path="url(#p4dd27fa96b)" style="fill: #1f77b4"/>
   </g>
   <g id="patch_179">
    <path d="M 345.353434 273.312 
L 346.969593 273.312 
L 346.969593 188.59268 
L 345.353434 188.59268 
z
" clip-path="url(#p4dd27fa96b)" style="fill: #1f77b4"/>
   </g>
   <g id="patch_180">
    <path d="M 346.969593 273.312 
L 348.585752 273.312 
L 348.585752 192.900442 
L 346.969593 192.900442 
z
" clip-path="url(#p4dd27fa96b)" style="fill: #1f77b4"/>
   </g>
   <g id="patch_181">
    <path d="M 348.585752 273.312 
L 350.201911 273.312 
L 350.201911 192.182482 
L 348.585752 192.182482 
z
" clip-path="url(#p4dd27fa96b)" style="fill: #1f77b4"/>
   </g>
   <g id="patch_182">
    <path d="M 350.201911 273.312 
L 351.818069 273.312 
L 351.818069 196.490244 
L 350.201911 196.490244 
z
" clip-path="url(#p4dd27fa96b)" style="fill: #1f77b4"/>
   </g>
   <g id="patch_183">
    <path d="M 351.818069 273.312 
L 353.434228 273.312 
L 353.434228 210.13149 
L 351.818069 210.13149 
z
" clip-path="url(#p4dd27fa96b)" style="fill: #1f77b4"/>
   </g>
   <g id="patch_184">
    <path d="M 353.434228 273.312 
L 355.050387 273.312 
L 355.050387 210.13149 
L 353.434228 210.13149 
z
" clip-path="url(#p4dd27fa96b)" style="fill: #1f77b4"/>
   </g>
   <g id="patch_185">
    <path d="M 355.050387 273.312 
L 356.666546 273.312 
L 356.666546 221.618856 
L 355.050387 221.618856 
z
" clip-path="url(#p4dd27fa96b)" style="fill: #1f77b4"/>
   </g>
   <g id="patch_186">
    <path d="M 356.666546 273.312 
L 358.282705 273.312 
L 358.282705 213.721292 
L 356.666546 213.721292 
z
" clip-path="url(#p4dd27fa96b)" style="fill: #1f77b4"/>
   </g>
   <g id="patch_187">
    <path d="M 358.282705 273.312 
L 359.898864 273.312 
L 359.898864 205.823728 
L 358.282705 205.823728 
z
" clip-path="url(#p4dd27fa96b)" style="fill: #1f77b4"/>
   </g>
   <g id="patch_188">
    <path d="M 359.898864 273.312 
L 361.515023 273.312 
L 361.515023 222.336816 
L 359.898864 222.336816 
z
" clip-path="url(#p4dd27fa96b)" style="fill: #1f77b4"/>
   </g>
   <g id="patch_189">
    <path d="M 361.515023 273.312 
L 363.131182 273.312 
L 363.131182 234.542142 
L 361.515023 234.542142 
z
" clip-path="url(#p4dd27fa96b)" style="fill: #1f77b4"/>
   </g>
   <g id="patch_190">
    <path d="M 363.131182 273.312 
L 364.747341 273.312 
L 364.747341 232.388261 
L 363.131182 232.388261 
z
" clip-path="url(#p4dd27fa96b)" style="fill: #1f77b4"/>
   </g>
   <g id="patch_191">
    <path d="M 364.747341 273.312 
L 366.3635 273.312 
L 366.3635 231.6703 
L 364.747341 231.6703 
z
" clip-path="url(#p4dd27fa96b)" style="fill: #1f77b4"/>
   </g>
   <g id="patch_192">
    <path d="M 366.3635 273.312 
L 367.979659 273.312 
L 367.979659 235.260102 
L 366.3635 235.260102 
z
" clip-path="url(#p4dd27fa96b)" style="fill: #1f77b4"/>
   </g>
   <g id="patch_193">
    <path d="M 367.979659 273.312 
L 369.595818 273.312 
L 369.595818 237.413983 
L 367.979659 237.413983 
z
" clip-path="url(#p4dd27fa96b)" style="fill: #1f77b4"/>
   </g>
   <g id="patch_194">
    <path d="M 369.595818 273.312 
L 371.211977 273.312 
L 371.211977 235.260102 
L 369.595818 235.260102 
z
" clip-path="url(#p4dd27fa96b)" style="fill: #1f77b4"/>
   </g>
   <g id="patch_195">
    <path d="M 371.211977 273.312 
L 372.828136 273.312 
L 372.828136 246.029507 
L 371.211977 246.029507 
z
" clip-path="url(#p4dd27fa96b)" style="fill: #1f77b4"/>
   </g>
   <g id="patch_196">
    <path d="M 372.828136 273.312 
L 374.444295 273.312 
L 374.444295 247.465428 
L 372.828136 247.465428 
z
" clip-path="url(#p4dd27fa96b)" style="fill: #1f77b4"/>
   </g>
   <g id="patch_197">
    <path d="M 374.444295 273.312 
L 376.060454 273.312 
L 376.060454 253.20911 
L 374.444295 253.20911 
z
" clip-path="url(#p4dd27fa96b)" style="fill: #1f77b4"/>
   </g>
   <g id="patch_198">
    <path d="M 376.060454 273.312 
L 377.676613 273.312 
L 377.676613 256.080952 
L 376.060454 256.080952 
z
" clip-path="url(#p4dd27fa96b)" style="fill: #1f77b4"/>
   </g>
   <g id="patch_199">
    <path d="M 377.676613 273.312 
L 379.292772 273.312 
L 379.292772 262.542595 
L 377.676613 262.542595 
z
" clip-path="url(#p4dd27fa96b)" style="fill: #1f77b4"/>
   </g>
   <g id="patch_200">
    <path d="M 379.292772 273.312 
L 380.908931 273.312 
L 380.908931 262.542595 
L 379.292772 262.542595 
z
" clip-path="url(#p4dd27fa96b)" style="fill: #1f77b4"/>
   </g>
   <g id="patch_201">
    <path d="M 380.908931 273.312 
L 382.525089 273.312 
L 382.525089 270.440159 
L 380.908931 270.440159 
z
" clip-path="url(#p4dd27fa96b)" style="fill: #1f77b4"/>
   </g>
   <g id="patch_202">
    <path d="M 382.525089 273.312 
L 384.141248 273.312 
L 384.141248 269.722198 
L 382.525089 269.722198 
z
" clip-path="url(#p4dd27fa96b)" style="fill: #1f77b4"/>
   </g>
   <g id="matplotlib.axis_1">
    <g id="xtick_1">
     <g id="line2d_1">
      <defs>
       <path id="m868bc819fd" d="M 0 0 
L 0 3.5 
" style="stroke: #000000; stroke-width: 0.8"/>
      </defs>
      <g>
       <use xlink:href="#m868bc819fd" x="60.013977" y="273.312" style="stroke: #000000; stroke-width: 0.8"/>
      </g>
     </g>
     <g id="text_1">
      <!-- 0.0 -->
      <g transform="translate(52.062415 287.910437)scale(0.1 -0.1)">
       <defs>
        <path id="DejaVuSans-30" d="M 2034 4250 
Q 1547 4250 1301 3770 
Q 1056 3291 1056 2328 
Q 1056 1369 1301 889 
Q 1547 409 2034 409 
Q 2525 409 2770 889 
Q 3016 1369 3016 2328 
Q 3016 3291 2770 3770 
Q 2525 4250 2034 4250 
z
M 2034 4750 
Q 2819 4750 3233 4129 
Q 3647 3509 3647 2328 
Q 3647 1150 3233 529 
Q 2819 -91 2034 -91 
Q 1250 -91 836 529 
Q 422 1150 422 2328 
Q 422 3509 836 4129 
Q 1250 4750 2034 4750 
z
" transform="scale(0.015625)"/>
        <path id="DejaVuSans-2e" d="M 684 794 
L 1344 794 
L 1344 0 
L 684 0 
L 684 794 
z
" transform="scale(0.015625)"/>
       </defs>
       <use xlink:href="#DejaVuSans-30"/>
       <use xlink:href="#DejaVuSans-2e" x="63.623047"/>
       <use xlink:href="#DejaVuSans-30" x="95.410156"/>
      </g>
     </g>
    </g>
    <g id="xtick_2">
     <g id="line2d_2">
      <g>
       <use xlink:href="#m868bc819fd" x="101.350278" y="273.312" style="stroke: #000000; stroke-width: 0.8"/>
      </g>
     </g>
     <g id="text_2">
      <!-- 0.2 -->
      <g transform="translate(93.398715 287.910437)scale(0.1 -0.1)">
       <defs>
        <path id="DejaVuSans-32" d="M 1228 531 
L 3431 531 
L 3431 0 
L 469 0 
L 469 531 
Q 828 903 1448 1529 
Q 2069 2156 2228 2338 
Q 2531 2678 2651 2914 
Q 2772 3150 2772 3378 
Q 2772 3750 2511 3984 
Q 2250 4219 1831 4219 
Q 1534 4219 1204 4116 
Q 875 4013 500 3803 
L 500 4441 
Q 881 4594 1212 4672 
Q 1544 4750 1819 4750 
Q 2544 4750 2975 4387 
Q 3406 4025 3406 3419 
Q 3406 3131 3298 2873 
Q 3191 2616 2906 2266 
Q 2828 2175 2409 1742 
Q 1991 1309 1228 531 
z
" transform="scale(0.015625)"/>
       </defs>
       <use xlink:href="#DejaVuSans-30"/>
       <use xlink:href="#DejaVuSans-2e" x="63.623047"/>
       <use xlink:href="#DejaVuSans-32" x="95.410156"/>
      </g>
     </g>
    </g>
    <g id="xtick_3">
     <g id="line2d_3">
      <g>
       <use xlink:href="#m868bc819fd" x="142.686578" y="273.312" style="stroke: #000000; stroke-width: 0.8"/>
      </g>
     </g>
     <g id="text_3">
      <!-- 0.4 -->
      <g transform="translate(134.735016 287.910437)scale(0.1 -0.1)">
       <defs>
        <path id="DejaVuSans-34" d="M 2419 4116 
L 825 1625 
L 2419 1625 
L 2419 4116 
z
M 2253 4666 
L 3047 4666 
L 3047 1625 
L 3713 1625 
L 3713 1100 
L 3047 1100 
L 3047 0 
L 2419 0 
L 2419 1100 
L 313 1100 
L 313 1709 
L 2253 4666 
z
" transform="scale(0.015625)"/>
       </defs>
       <use xlink:href="#DejaVuSans-30"/>
       <use xlink:href="#DejaVuSans-2e" x="63.623047"/>
       <use xlink:href="#DejaVuSans-34" x="95.410156"/>
      </g>
     </g>
    </g>
    <g id="xtick_4">
     <g id="line2d_4">
      <g>
       <use xlink:href="#m868bc819fd" x="184.022879" y="273.312" style="stroke: #000000; stroke-width: 0.8"/>
      </g>
     </g>
     <g id="text_4">
      <!-- 0.6 -->
      <g transform="translate(176.071316 287.910437)scale(0.1 -0.1)">
       <defs>
        <path id="DejaVuSans-36" d="M 2113 2584 
Q 1688 2584 1439 2293 
Q 1191 2003 1191 1497 
Q 1191 994 1439 701 
Q 1688 409 2113 409 
Q 2538 409 2786 701 
Q 3034 994 3034 1497 
Q 3034 2003 2786 2293 
Q 2538 2584 2113 2584 
z
M 3366 4563 
L 3366 3988 
Q 3128 4100 2886 4159 
Q 2644 4219 2406 4219 
Q 1781 4219 1451 3797 
Q 1122 3375 1075 2522 
Q 1259 2794 1537 2939 
Q 1816 3084 2150 3084 
Q 2853 3084 3261 2657 
Q 3669 2231 3669 1497 
Q 3669 778 3244 343 
Q 2819 -91 2113 -91 
Q 1303 -91 875 529 
Q 447 1150 447 2328 
Q 447 3434 972 4092 
Q 1497 4750 2381 4750 
Q 2619 4750 2861 4703 
Q 3103 4656 3366 4563 
z
" transform="scale(0.015625)"/>
       </defs>
       <use xlink:href="#DejaVuSans-30"/>
       <use xlink:href="#DejaVuSans-2e" x="63.623047"/>
       <use xlink:href="#DejaVuSans-36" x="95.410156"/>
      </g>
     </g>
    </g>
    <g id="xtick_5">
     <g id="line2d_5">
      <g>
       <use xlink:href="#m868bc819fd" x="225.35918" y="273.312" style="stroke: #000000; stroke-width: 0.8"/>
      </g>
     </g>
     <g id="text_5">
      <!-- 0.8 -->
      <g transform="translate(217.407617 287.910437)scale(0.1 -0.1)">
       <defs>
        <path id="DejaVuSans-38" d="M 2034 2216 
Q 1584 2216 1326 1975 
Q 1069 1734 1069 1313 
Q 1069 891 1326 650 
Q 1584 409 2034 409 
Q 2484 409 2743 651 
Q 3003 894 3003 1313 
Q 3003 1734 2745 1975 
Q 2488 2216 2034 2216 
z
M 1403 2484 
Q 997 2584 770 2862 
Q 544 3141 544 3541 
Q 544 4100 942 4425 
Q 1341 4750 2034 4750 
Q 2731 4750 3128 4425 
Q 3525 4100 3525 3541 
Q 3525 3141 3298 2862 
Q 3072 2584 2669 2484 
Q 3125 2378 3379 2068 
Q 3634 1759 3634 1313 
Q 3634 634 3220 271 
Q 2806 -91 2034 -91 
Q 1263 -91 848 271 
Q 434 634 434 1313 
Q 434 1759 690 2068 
Q 947 2378 1403 2484 
z
M 1172 3481 
Q 1172 3119 1398 2916 
Q 1625 2713 2034 2713 
Q 2441 2713 2670 2916 
Q 2900 3119 2900 3481 
Q 2900 3844 2670 4047 
Q 2441 4250 2034 4250 
Q 1625 4250 1398 4047 
Q 1172 3844 1172 3481 
z
" transform="scale(0.015625)"/>
       </defs>
       <use xlink:href="#DejaVuSans-30"/>
       <use xlink:href="#DejaVuSans-2e" x="63.623047"/>
       <use xlink:href="#DejaVuSans-38" x="95.410156"/>
      </g>
     </g>
    </g>
    <g id="xtick_6">
     <g id="line2d_6">
      <g>
       <use xlink:href="#m868bc819fd" x="266.69548" y="273.312" style="stroke: #000000; stroke-width: 0.8"/>
      </g>
     </g>
     <g id="text_6">
      <!-- 1.0 -->
      <g transform="translate(258.743918 287.910437)scale(0.1 -0.1)">
       <defs>
        <path id="DejaVuSans-31" d="M 794 531 
L 1825 531 
L 1825 4091 
L 703 3866 
L 703 4441 
L 1819 4666 
L 2450 4666 
L 2450 531 
L 3481 531 
L 3481 0 
L 794 0 
L 794 531 
z
" transform="scale(0.015625)"/>
       </defs>
       <use xlink:href="#DejaVuSans-31"/>
       <use xlink:href="#DejaVuSans-2e" x="63.623047"/>
       <use xlink:href="#DejaVuSans-30" x="95.410156"/>
      </g>
     </g>
    </g>
    <g id="xtick_7">
     <g id="line2d_7">
      <g>
       <use xlink:href="#m868bc819fd" x="308.031781" y="273.312" style="stroke: #000000; stroke-width: 0.8"/>
      </g>
     </g>
     <g id="text_7">
      <!-- 1.2 -->
      <g transform="translate(300.080218 287.910437)scale(0.1 -0.1)">
       <use xlink:href="#DejaVuSans-31"/>
       <use xlink:href="#DejaVuSans-2e" x="63.623047"/>
       <use xlink:href="#DejaVuSans-32" x="95.410156"/>
      </g>
     </g>
    </g>
    <g id="xtick_8">
     <g id="line2d_8">
      <g>
       <use xlink:href="#m868bc819fd" x="349.368081" y="273.312" style="stroke: #000000; stroke-width: 0.8"/>
      </g>
     </g>
     <g id="text_8">
      <!-- 1.4 -->
      <g transform="translate(341.416519 287.910437)scale(0.1 -0.1)">
       <use xlink:href="#DejaVuSans-31"/>
       <use xlink:href="#DejaVuSans-2e" x="63.623047"/>
       <use xlink:href="#DejaVuSans-34" x="95.410156"/>
      </g>
     </g>
    </g>
    <g id="xtick_9">
     <g id="line2d_9">
      <g>
       <use xlink:href="#m868bc819fd" x="390.704382" y="273.312" style="stroke: #000000; stroke-width: 0.8"/>
      </g>
     </g>
     <g id="text_9">
      <!-- 1.6 -->
      <g transform="translate(382.752819 287.910437)scale(0.1 -0.1)">
       <use xlink:href="#DejaVuSans-31"/>
       <use xlink:href="#DejaVuSans-2e" x="63.623047"/>
       <use xlink:href="#DejaVuSans-36" x="95.410156"/>
      </g>
     </g>
    </g>
    <g id="text_10">
     <!-- Angle with normal (rad) -->
     <g transform="translate(163.023281 301.588562)scale(0.1 -0.1)">
      <defs>
       <path id="DejaVuSans-41" d="M 2188 4044 
L 1331 1722 
L 3047 1722 
L 2188 4044 
z
M 1831 4666 
L 2547 4666 
L 4325 0 
L 3669 0 
L 3244 1197 
L 1141 1197 
L 716 0 
L 50 0 
L 1831 4666 
z
" transform="scale(0.015625)"/>
       <path id="DejaVuSans-6e" d="M 3513 2113 
L 3513 0 
L 2938 0 
L 2938 2094 
Q 2938 2591 2744 2837 
Q 2550 3084 2163 3084 
Q 1697 3084 1428 2787 
Q 1159 2491 1159 1978 
L 1159 0 
L 581 0 
L 581 3500 
L 1159 3500 
L 1159 2956 
Q 1366 3272 1645 3428 
Q 1925 3584 2291 3584 
Q 2894 3584 3203 3211 
Q 3513 2838 3513 2113 
z
" transform="scale(0.015625)"/>
       <path id="DejaVuSans-67" d="M 2906 1791 
Q 2906 2416 2648 2759 
Q 2391 3103 1925 3103 
Q 1463 3103 1205 2759 
Q 947 2416 947 1791 
Q 947 1169 1205 825 
Q 1463 481 1925 481 
Q 2391 481 2648 825 
Q 2906 1169 2906 1791 
z
M 3481 434 
Q 3481 -459 3084 -895 
Q 2688 -1331 1869 -1331 
Q 1566 -1331 1297 -1286 
Q 1028 -1241 775 -1147 
L 775 -588 
Q 1028 -725 1275 -790 
Q 1522 -856 1778 -856 
Q 2344 -856 2625 -561 
Q 2906 -266 2906 331 
L 2906 616 
Q 2728 306 2450 153 
Q 2172 0 1784 0 
Q 1141 0 747 490 
Q 353 981 353 1791 
Q 353 2603 747 3093 
Q 1141 3584 1784 3584 
Q 2172 3584 2450 3431 
Q 2728 3278 2906 2969 
L 2906 3500 
L 3481 3500 
L 3481 434 
z
" transform="scale(0.015625)"/>
       <path id="DejaVuSans-6c" d="M 603 4863 
L 1178 4863 
L 1178 0 
L 603 0 
L 603 4863 
z
" transform="scale(0.015625)"/>
       <path id="DejaVuSans-65" d="M 3597 1894 
L 3597 1613 
L 953 1613 
Q 991 1019 1311 708 
Q 1631 397 2203 397 
Q 2534 397 2845 478 
Q 3156 559 3463 722 
L 3463 178 
Q 3153 47 2828 -22 
Q 2503 -91 2169 -91 
Q 1331 -91 842 396 
Q 353 884 353 1716 
Q 353 2575 817 3079 
Q 1281 3584 2069 3584 
Q 2775 3584 3186 3129 
Q 3597 2675 3597 1894 
z
M 3022 2063 
Q 3016 2534 2758 2815 
Q 2500 3097 2075 3097 
Q 1594 3097 1305 2825 
Q 1016 2553 972 2059 
L 3022 2063 
z
" transform="scale(0.015625)"/>
       <path id="DejaVuSans-20" transform="scale(0.015625)"/>
       <path id="DejaVuSans-77" d="M 269 3500 
L 844 3500 
L 1563 769 
L 2278 3500 
L 2956 3500 
L 3675 769 
L 4391 3500 
L 4966 3500 
L 4050 0 
L 3372 0 
L 2619 2869 
L 1863 0 
L 1184 0 
L 269 3500 
z
" transform="scale(0.015625)"/>
       <path id="DejaVuSans-69" d="M 603 3500 
L 1178 3500 
L 1178 0 
L 603 0 
L 603 3500 
z
M 603 4863 
L 1178 4863 
L 1178 4134 
L 603 4134 
L 603 4863 
z
" transform="scale(0.015625)"/>
       <path id="DejaVuSans-74" d="M 1172 4494 
L 1172 3500 
L 2356 3500 
L 2356 3053 
L 1172 3053 
L 1172 1153 
Q 1172 725 1289 603 
Q 1406 481 1766 481 
L 2356 481 
L 2356 0 
L 1766 0 
Q 1100 0 847 248 
Q 594 497 594 1153 
L 594 3053 
L 172 3053 
L 172 3500 
L 594 3500 
L 594 4494 
L 1172 4494 
z
" transform="scale(0.015625)"/>
       <path id="DejaVuSans-68" d="M 3513 2113 
L 3513 0 
L 2938 0 
L 2938 2094 
Q 2938 2591 2744 2837 
Q 2550 3084 2163 3084 
Q 1697 3084 1428 2787 
Q 1159 2491 1159 1978 
L 1159 0 
L 581 0 
L 581 4863 
L 1159 4863 
L 1159 2956 
Q 1366 3272 1645 3428 
Q 1925 3584 2291 3584 
Q 2894 3584 3203 3211 
Q 3513 2838 3513 2113 
z
" transform="scale(0.015625)"/>
       <path id="DejaVuSans-6f" d="M 1959 3097 
Q 1497 3097 1228 2736 
Q 959 2375 959 1747 
Q 959 1119 1226 758 
Q 1494 397 1959 397 
Q 2419 397 2687 759 
Q 2956 1122 2956 1747 
Q 2956 2369 2687 2733 
Q 2419 3097 1959 3097 
z
M 1959 3584 
Q 2709 3584 3137 3096 
Q 3566 2609 3566 1747 
Q 3566 888 3137 398 
Q 2709 -91 1959 -91 
Q 1206 -91 779 398 
Q 353 888 353 1747 
Q 353 2609 779 3096 
Q 1206 3584 1959 3584 
z
" transform="scale(0.015625)"/>
       <path id="DejaVuSans-72" d="M 2631 2963 
Q 2534 3019 2420 3045 
Q 2306 3072 2169 3072 
Q 1681 3072 1420 2755 
Q 1159 2438 1159 1844 
L 1159 0 
L 581 0 
L 581 3500 
L 1159 3500 
L 1159 2956 
Q 1341 3275 1631 3429 
Q 1922 3584 2338 3584 
Q 2397 3584 2469 3576 
Q 2541 3569 2628 3553 
L 2631 2963 
z
" transform="scale(0.015625)"/>
       <path id="DejaVuSans-6d" d="M 3328 2828 
Q 3544 3216 3844 3400 
Q 4144 3584 4550 3584 
Q 5097 3584 5394 3201 
Q 5691 2819 5691 2113 
L 5691 0 
L 5113 0 
L 5113 2094 
Q 5113 2597 4934 2840 
Q 4756 3084 4391 3084 
Q 3944 3084 3684 2787 
Q 3425 2491 3425 1978 
L 3425 0 
L 2847 0 
L 2847 2094 
Q 2847 2600 2669 2842 
Q 2491 3084 2119 3084 
Q 1678 3084 1418 2786 
Q 1159 2488 1159 1978 
L 1159 0 
L 581 0 
L 581 3500 
L 1159 3500 
L 1159 2956 
Q 1356 3278 1631 3431 
Q 1906 3584 2284 3584 
Q 2666 3584 2933 3390 
Q 3200 3197 3328 2828 
z
" transform="scale(0.015625)"/>
       <path id="DejaVuSans-61" d="M 2194 1759 
Q 1497 1759 1228 1600 
Q 959 1441 959 1056 
Q 959 750 1161 570 
Q 1363 391 1709 391 
Q 2188 391 2477 730 
Q 2766 1069 2766 1631 
L 2766 1759 
L 2194 1759 
z
M 3341 1997 
L 3341 0 
L 2766 0 
L 2766 531 
Q 2569 213 2275 61 
Q 1981 -91 1556 -91 
Q 1019 -91 701 211 
Q 384 513 384 1019 
Q 384 1609 779 1909 
Q 1175 2209 1959 2209 
L 2766 2209 
L 2766 2266 
Q 2766 2663 2505 2880 
Q 2244 3097 1772 3097 
Q 1472 3097 1187 3025 
Q 903 2953 641 2809 
L 641 3341 
Q 956 3463 1253 3523 
Q 1550 3584 1831 3584 
Q 2591 3584 2966 3190 
Q 3341 2797 3341 1997 
z
" transform="scale(0.015625)"/>
       <path id="DejaVuSans-28" d="M 1984 4856 
Q 1566 4138 1362 3434 
Q 1159 2731 1159 2009 
Q 1159 1288 1364 580 
Q 1569 -128 1984 -844 
L 1484 -844 
Q 1016 -109 783 600 
Q 550 1309 550 2009 
Q 550 2706 781 3412 
Q 1013 4119 1484 4856 
L 1984 4856 
z
" transform="scale(0.015625)"/>
       <path id="DejaVuSans-64" d="M 2906 2969 
L 2906 4863 
L 3481 4863 
L 3481 0 
L 2906 0 
L 2906 525 
Q 2725 213 2448 61 
Q 2172 -91 1784 -91 
Q 1150 -91 751 415 
Q 353 922 353 1747 
Q 353 2572 751 3078 
Q 1150 3584 1784 3584 
Q 2172 3584 2448 3432 
Q 2725 3281 2906 2969 
z
M 947 1747 
Q 947 1113 1208 752 
Q 1469 391 1925 391 
Q 2381 391 2643 752 
Q 2906 1113 2906 1747 
Q 2906 2381 2643 2742 
Q 2381 3103 1925 3103 
Q 1469 3103 1208 2742 
Q 947 2381 947 1747 
z
" transform="scale(0.015625)"/>
       <path id="DejaVuSans-29" d="M 513 4856 
L 1013 4856 
Q 1481 4119 1714 3412 
Q 1947 2706 1947 2009 
Q 1947 1309 1714 600 
Q 1481 -109 1013 -844 
L 513 -844 
Q 928 -128 1133 580 
Q 1338 1288 1338 2009 
Q 1338 2731 1133 3434 
Q 928 4138 513 4856 
z
" transform="scale(0.015625)"/>
      </defs>
      <use xlink:href="#DejaVuSans-41"/>
      <use xlink:href="#DejaVuSans-6e" x="68.408203"/>
      <use xlink:href="#DejaVuSans-67" x="131.787109"/>
      <use xlink:href="#DejaVuSans-6c" x="195.263672"/>
      <use xlink:href="#DejaVuSans-65" x="223.046875"/>
      <use xlink:href="#DejaVuSans-20" x="284.570312"/>
      <use xlink:href="#DejaVuSans-77" x="316.357422"/>
      <use xlink:href="#DejaVuSans-69" x="398.144531"/>
      <use xlink:href="#DejaVuSans-74" x="425.927734"/>
      <use xlink:href="#DejaVuSans-68" x="465.136719"/>
      <use xlink:href="#DejaVuSans-20" x="528.515625"/>
      <use xlink:href="#DejaVuSans-6e" x="560.302734"/>
      <use xlink:href="#DejaVuSans-6f" x="623.681641"/>
      <use xlink:href="#DejaVuSans-72" x="684.863281"/>
      <use xlink:href="#DejaVuSans-6d" x="724.226562"/>
      <use xlink:href="#DejaVuSans-61" x="821.638672"/>
      <use xlink:href="#DejaVuSans-6c" x="882.917969"/>
      <use xlink:href="#DejaVuSans-20" x="910.701172"/>
      <use xlink:href="#DejaVuSans-28" x="942.488281"/>
      <use xlink:href="#DejaVuSans-72" x="981.501953"/>
      <use xlink:href="#DejaVuSans-61" x="1022.615234"/>
      <use xlink:href="#DejaVuSans-64" x="1083.894531"/>
      <use xlink:href="#DejaVuSans-29" x="1147.371094"/>
     </g>
    </g>
   </g>
   <g id="matplotlib.axis_2">
    <g id="ytick_1">
     <g id="line2d_10">
      <defs>
       <path id="m981b26a6da" d="M 0 0 
L -3.5 0 
" style="stroke: #000000; stroke-width: 0.8"/>
      </defs>
      <g>
       <use xlink:href="#m981b26a6da" x="43.78125" y="273.312" style="stroke: #000000; stroke-width: 0.8"/>
      </g>
     </g>
     <g id="text_11">
      <!-- 0.0 -->
      <g transform="translate(20.878125 277.111219)scale(0.1 -0.1)">
       <use xlink:href="#DejaVuSans-30"/>
       <use xlink:href="#DejaVuSans-2e" x="63.623047"/>
       <use xlink:href="#DejaVuSans-30" x="95.410156"/>
      </g>
     </g>
    </g>
    <g id="ytick_2">
     <g id="line2d_11">
      <g>
       <use xlink:href="#m981b26a6da" x="43.78125" y="228.398914" style="stroke: #000000; stroke-width: 0.8"/>
      </g>
     </g>
     <g id="text_12">
      <!-- 0.2 -->
      <g transform="translate(20.878125 232.198132)scale(0.1 -0.1)">
       <use xlink:href="#DejaVuSans-30"/>
       <use xlink:href="#DejaVuSans-2e" x="63.623047"/>
       <use xlink:href="#DejaVuSans-32" x="95.410156"/>
      </g>
     </g>
    </g>
    <g id="ytick_3">
     <g id="line2d_12">
      <g>
       <use xlink:href="#m981b26a6da" x="43.78125" y="183.485827" style="stroke: #000000; stroke-width: 0.8"/>
      </g>
     </g>
     <g id="text_13">
      <!-- 0.4 -->
      <g transform="translate(20.878125 187.285046)scale(0.1 -0.1)">
       <use xlink:href="#DejaVuSans-30"/>
       <use xlink:href="#DejaVuSans-2e" x="63.623047"/>
       <use xlink:href="#DejaVuSans-34" x="95.410156"/>
      </g>
     </g>
    </g>
    <g id="ytick_4">
     <g id="line2d_13">
      <g>
       <use xlink:href="#m981b26a6da" x="43.78125" y="138.572741" style="stroke: #000000; stroke-width: 0.8"/>
      </g>
     </g>
     <g id="text_14">
      <!-- 0.6 -->
      <g transform="translate(20.878125 142.371959)scale(0.1 -0.1)">
       <use xlink:href="#DejaVuSans-30"/>
       <use xlink:href="#DejaVuSans-2e" x="63.623047"/>
       <use xlink:href="#DejaVuSans-36" x="95.410156"/>
      </g>
     </g>
    </g>
    <g id="ytick_5">
     <g id="line2d_14">
      <g>
       <use xlink:href="#m981b26a6da" x="43.78125" y="93.659654" style="stroke: #000000; stroke-width: 0.8"/>
      </g>
     </g>
     <g id="text_15">
      <!-- 0.8 -->
      <g transform="translate(20.878125 97.458873)scale(0.1 -0.1)">
       <use xlink:href="#DejaVuSans-30"/>
       <use xlink:href="#DejaVuSans-2e" x="63.623047"/>
       <use xlink:href="#DejaVuSans-38" x="95.410156"/>
      </g>
     </g>
    </g>
    <g id="ytick_6">
     <g id="line2d_15">
      <g>
       <use xlink:href="#m981b26a6da" x="43.78125" y="48.746568" style="stroke: #000000; stroke-width: 0.8"/>
      </g>
     </g>
     <g id="text_16">
      <!-- 1.0 -->
      <g transform="translate(20.878125 52.545786)scale(0.1 -0.1)">
       <use xlink:href="#DejaVuSans-31"/>
       <use xlink:href="#DejaVuSans-2e" x="63.623047"/>
       <use xlink:href="#DejaVuSans-30" x="95.410156"/>
      </g>
     </g>
    </g>
    <g id="text_17">
     <!-- Probability density -->
     <g transform="translate(14.798438 186.606781)rotate(-90)scale(0.1 -0.1)">
      <defs>
       <path id="DejaVuSans-50" d="M 1259 4147 
L 1259 2394 
L 2053 2394 
Q 2494 2394 2734 2622 
Q 2975 2850 2975 3272 
Q 2975 3691 2734 3919 
Q 2494 4147 2053 4147 
L 1259 4147 
z
M 628 4666 
L 2053 4666 
Q 2838 4666 3239 4311 
Q 3641 3956 3641 3272 
Q 3641 2581 3239 2228 
Q 2838 1875 2053 1875 
L 1259 1875 
L 1259 0 
L 628 0 
L 628 4666 
z
" transform="scale(0.015625)"/>
       <path id="DejaVuSans-62" d="M 3116 1747 
Q 3116 2381 2855 2742 
Q 2594 3103 2138 3103 
Q 1681 3103 1420 2742 
Q 1159 2381 1159 1747 
Q 1159 1113 1420 752 
Q 1681 391 2138 391 
Q 2594 391 2855 752 
Q 3116 1113 3116 1747 
z
M 1159 2969 
Q 1341 3281 1617 3432 
Q 1894 3584 2278 3584 
Q 2916 3584 3314 3078 
Q 3713 2572 3713 1747 
Q 3713 922 3314 415 
Q 2916 -91 2278 -91 
Q 1894 -91 1617 61 
Q 1341 213 1159 525 
L 1159 0 
L 581 0 
L 581 4863 
L 1159 4863 
L 1159 2969 
z
" transform="scale(0.015625)"/>
       <path id="DejaVuSans-79" d="M 2059 -325 
Q 1816 -950 1584 -1140 
Q 1353 -1331 966 -1331 
L 506 -1331 
L 506 -850 
L 844 -850 
Q 1081 -850 1212 -737 
Q 1344 -625 1503 -206 
L 1606 56 
L 191 3500 
L 800 3500 
L 1894 763 
L 2988 3500 
L 3597 3500 
L 2059 -325 
z
" transform="scale(0.015625)"/>
       <path id="DejaVuSans-73" d="M 2834 3397 
L 2834 2853 
Q 2591 2978 2328 3040 
Q 2066 3103 1784 3103 
Q 1356 3103 1142 2972 
Q 928 2841 928 2578 
Q 928 2378 1081 2264 
Q 1234 2150 1697 2047 
L 1894 2003 
Q 2506 1872 2764 1633 
Q 3022 1394 3022 966 
Q 3022 478 2636 193 
Q 2250 -91 1575 -91 
Q 1294 -91 989 -36 
Q 684 19 347 128 
L 347 722 
Q 666 556 975 473 
Q 1284 391 1588 391 
Q 1994 391 2212 530 
Q 2431 669 2431 922 
Q 2431 1156 2273 1281 
Q 2116 1406 1581 1522 
L 1381 1569 
Q 847 1681 609 1914 
Q 372 2147 372 2553 
Q 372 3047 722 3315 
Q 1072 3584 1716 3584 
Q 2034 3584 2315 3537 
Q 2597 3491 2834 3397 
z
" transform="scale(0.015625)"/>
      </defs>
      <use xlink:href="#DejaVuSans-50"/>
      <use xlink:href="#DejaVuSans-72" x="58.552734"/>
      <use xlink:href="#DejaVuSans-6f" x="97.416016"/>
      <use xlink:href="#DejaVuSans-62" x="158.597656"/>
      <use xlink:href="#DejaVuSans-61" x="222.074219"/>
      <use xlink:href="#DejaVuSans-62" x="283.353516"/>
      <use xlink:href="#DejaVuSans-69" x="346.830078"/>
      <use xlink:href="#DejaVuSans-6c" x="374.613281"/>
      <use xlink:href="#DejaVuSans-69" x="402.396484"/>
      <use xlink:href="#DejaVuSans-74" x="430.179688"/>
      <use xlink:href="#DejaVuSans-79" x="469.388672"/>
      <use xlink:href="#DejaVuSans-20" x="528.568359"/>
      <use xlink:href="#DejaVuSans-64" x="560.355469"/>
      <use xlink:href="#DejaVuSans-65" x="623.832031"/>
      <use xlink:href="#DejaVuSans-6e" x="685.355469"/>
      <use xlink:href="#DejaVuSans-73" x="748.734375"/>
      <use xlink:href="#DejaVuSans-69" x="800.833984"/>
      <use xlink:href="#DejaVuSans-74" x="828.617188"/>
      <use xlink:href="#DejaVuSans-79" x="867.826172"/>
     </g>
    </g>
   </g>
   <g id="line2d_16">
    <path d="M 60.013977 273.312 
L 79.837728 230.497557 
L 90.237073 208.567722 
L 99.01152 190.565164 
L 106.811029 175.059456 
L 113.960578 161.335216 
L 120.460169 149.321869 
L 126.63478 138.362629 
L 132.484411 128.423857 
L 138.009063 119.462876 
L 143.208736 111.430141 
L 148.408408 103.807153 
L 153.283101 97.049909 
L 158.157794 90.684794 
L 162.707507 85.110314 
L 167.257221 79.900569 
L 171.481954 75.398372 
L 175.706688 71.226903 
L 179.606442 67.6759 
L 183.506197 64.417702 
L 187.405951 61.456949 
L 190.980726 59.00783 
L 194.555501 56.815126 
L 198.130275 54.881458 
L 201.70505 53.209142 
L 205.279825 51.800178 
L 208.52962 50.749254 
L 211.779415 49.918413 
L 215.029211 49.308476 
L 218.279006 48.920046 
L 221.528801 48.753508 
L 224.778596 48.809025 
L 228.028392 49.086544 
L 231.278187 49.585789 
L 234.527982 50.306267 
L 237.777777 51.247265 
L 241.027573 52.407854 
L 244.277368 53.786885 
L 247.852143 55.554486 
L 251.426917 57.582633 
L 255.001692 59.868899 
L 258.576467 62.410548 
L 262.476221 65.470939 
L 266.375976 68.827275 
L 270.27573 72.474777 
L 274.500464 76.748777 
L 278.725198 81.351247 
L 282.949931 86.274498 
L 287.499645 91.925754 
L 292.049358 97.928538 
L 296.924051 104.736949 
L 301.798744 111.920389 
L 306.998416 119.978068 
L 312.523068 128.964123 
L 318.3727 138.927759 
L 324.547311 149.911279 
L 331.046901 161.947909 
L 337.871471 175.059456 
L 345.346 189.909065 
L 353.795468 207.216587 
L 363.544854 227.728035 
L 375.894076 254.267521 
L 384.668523 273.312 
L 384.668523 273.312 
" clip-path="url(#p4dd27fa96b)" style="fill: none; stroke: #ff7f0e; stroke-width: 1.5; stroke-linecap: square"/>
   </g>
   <g id="patch_203">
    <path d="M 43.78125 273.312 
L 43.78125 7.2 
" style="fill: none; stroke: #000000; stroke-width: 0.8; stroke-linejoin: miter; stroke-linecap: square"/>
   </g>
   <g id="patch_204">
    <path d="M 400.90125 273.312 
L 400.90125 7.2 
" style="fill: none; stroke: #000000; stroke-width: 0.8; stroke-linejoin: miter; stroke-linecap: square"/>
   </g>
   <g id="patch_205">
    <path d="M 43.78125 273.312 
L 400.90125 273.312 
" style="fill: none; stroke: #000000; stroke-width: 0.8; stroke-linejoin: miter; stroke-linecap: square"/>
   </g>
   <g id="patch_206">
    <path d="M 43.78125 7.2 
L 400.90125 7.2 
" style="fill: none; stroke: #000000; stroke-width: 0.8; stroke-linejoin: miter; stroke-linecap: square"/>
   </g>
  </g>
 </g>
 <defs>
  <clipPath id="p4dd27fa96b">
   <rect x="43.78125" y="7.2" width="357.12" height="266.112"/>
  </clipPath>
 </defs>
</svg>
