<?xml version="1.0" encoding="utf-8" standalone="no"?>
<!DOCTYPE svg PUBLIC "-//W3C//DTD SVG 1.1//EN"
  "http://www.w3.org/Graphics/SVG/1.1/DTD/svg11.dtd">
<svg xmlns:xlink="http://www.w3.org/1999/xlink" width="414.46375pt" height="310.86825pt" viewBox="0 0 414.46375 310.86825" xmlns="http://www.w3.org/2000/svg" version="1.1">
 <metadata>
  <rdf:RDF xmlns:dc="http://purl.org/dc/elements/1.1/" xmlns:cc="http://creativecommons.org/ns#" xmlns:rdf="http://www.w3.org/1999/02/22-rdf-syntax-ns#">
   <cc:Work>
    <dc:type rdf:resource="http://purl.org/dc/dcmitype/StillImage"/>
    <dc:date>2022-05-17T22:20:15.384884</dc:date>
    <dc:format>image/svg+xml</dc:format>
    <dc:creator>
     <cc:Agent>
      <dc:title>Matplotlib v3.5.2, https://matplotlib.org/</dc:title>
     </cc:Agent>
    </dc:creator>
   </cc:Work>
  </rdf:RDF>
 </metadata>
 <defs>
  <style type="text/css">*{stroke-linejoin: round; stroke-linecap: butt}</style>
 </defs>
 <g id="figure_1">
  <g id="patch_1">
   <path d="M 0 310.86825 
L 414.46375 310.86825 
L 414.46375 0 
L 0 0 
z
" style="fill: #ffffff"/>
  </g>
  <g id="axes_1">
   <g id="patch_2">
    <path d="M 50.14375 273.312 
L 407.26375 273.312 
L 407.26375 7.2 
L 50.14375 7.2 
z
" style="fill: #ffffff"/>
   </g>
   <g id="patch_3">
    <path d="M 68.047465 273.312 
L 69.662377 273.312 
L 69.662377 272.060444 
L 68.047465 272.060444 
z
" clip-path="url(#paa5eb7760d)" style="fill: #1f77b4"/>
   </g>
   <g id="patch_4">
    <path d="M 69.662377 273.312 
L 71.277289 273.312 
L 71.277289 270.808889 
L 69.662377 270.808889 
z
" clip-path="url(#paa5eb7760d)" style="fill: #1f77b4"/>
   </g>
   <g id="patch_5">
    <path d="M 71.277289 273.312 
L 72.892201 273.312 
L 72.892201 270.183111 
L 71.277289 270.183111 
z
" clip-path="url(#paa5eb7760d)" style="fill: #1f77b4"/>
   </g>
   <g id="patch_6">
    <path d="M 72.892201 273.312 
L 74.507113 273.312 
L 74.507113 265.802667 
L 72.892201 265.802667 
z
" clip-path="url(#paa5eb7760d)" style="fill: #1f77b4"/>
   </g>
   <g id="patch_7">
    <path d="M 74.507113 273.312 
L 76.122025 273.312 
L 76.122025 266.428444 
L 74.507113 266.428444 
z
" clip-path="url(#paa5eb7760d)" style="fill: #1f77b4"/>
   </g>
   <g id="patch_8">
    <path d="M 76.122025 273.312 
L 77.736937 273.312 
L 77.736937 263.299556 
L 76.122025 263.299556 
z
" clip-path="url(#paa5eb7760d)" style="fill: #1f77b4"/>
   </g>
   <g id="patch_9">
    <path d="M 77.736937 273.312 
L 79.351849 273.312 
L 79.351849 263.925333 
L 77.736937 263.925333 
z
" clip-path="url(#paa5eb7760d)" style="fill: #1f77b4"/>
   </g>
   <g id="patch_10">
    <path d="M 79.351849 273.312 
L 80.966761 273.312 
L 80.966761 263.925333 
L 79.351849 263.925333 
z
" clip-path="url(#paa5eb7760d)" style="fill: #1f77b4"/>
   </g>
   <g id="patch_11">
    <path d="M 80.966761 273.312 
L 82.581673 273.312 
L 82.581673 262.048 
L 80.966761 262.048 
z
" clip-path="url(#paa5eb7760d)" style="fill: #1f77b4"/>
   </g>
   <g id="patch_12">
    <path d="M 82.581673 273.312 
L 84.196585 273.312 
L 84.196585 262.673778 
L 82.581673 262.673778 
z
" clip-path="url(#paa5eb7760d)" style="fill: #1f77b4"/>
   </g>
   <g id="patch_13">
    <path d="M 84.196585 273.312 
L 85.811497 273.312 
L 85.811497 260.170667 
L 84.196585 260.170667 
z
" clip-path="url(#paa5eb7760d)" style="fill: #1f77b4"/>
   </g>
   <g id="patch_14">
    <path d="M 85.811497 273.312 
L 87.426409 273.312 
L 87.426409 261.422222 
L 85.811497 261.422222 
z
" clip-path="url(#paa5eb7760d)" style="fill: #1f77b4"/>
   </g>
   <g id="patch_15">
    <path d="M 87.426409 273.312 
L 89.041321 273.312 
L 89.041321 257.667556 
L 87.426409 257.667556 
z
" clip-path="url(#paa5eb7760d)" style="fill: #1f77b4"/>
   </g>
   <g id="patch_16">
    <path d="M 89.041321 273.312 
L 90.656233 273.312 
L 90.656233 248.280889 
L 89.041321 248.280889 
z
" clip-path="url(#paa5eb7760d)" style="fill: #1f77b4"/>
   </g>
   <g id="patch_17">
    <path d="M 90.656233 273.312 
L 92.271145 273.312 
L 92.271145 257.041778 
L 90.656233 257.041778 
z
" clip-path="url(#paa5eb7760d)" style="fill: #1f77b4"/>
   </g>
   <g id="patch_18">
    <path d="M 92.271145 273.312 
L 93.886057 273.312 
L 93.886057 257.041778 
L 92.271145 257.041778 
z
" clip-path="url(#paa5eb7760d)" style="fill: #1f77b4"/>
   </g>
   <g id="patch_19">
    <path d="M 93.886057 273.312 
L 95.500969 273.312 
L 95.500969 247.655111 
L 93.886057 247.655111 
z
" clip-path="url(#paa5eb7760d)" style="fill: #1f77b4"/>
   </g>
   <g id="patch_20">
    <path d="M 95.500969 273.312 
L 97.11588 273.312 
L 97.11588 252.661333 
L 95.500969 252.661333 
z
" clip-path="url(#paa5eb7760d)" style="fill: #1f77b4"/>
   </g>
   <g id="patch_21">
    <path d="M 97.11588 273.312 
L 98.730792 273.312 
L 98.730792 243.274667 
L 97.11588 243.274667 
z
" clip-path="url(#paa5eb7760d)" style="fill: #1f77b4"/>
   </g>
   <g id="patch_22">
    <path d="M 98.730792 273.312 
L 100.345704 273.312 
L 100.345704 249.532444 
L 98.730792 249.532444 
z
" clip-path="url(#paa5eb7760d)" style="fill: #1f77b4"/>
   </g>
   <g id="patch_23">
    <path d="M 100.345704 273.312 
L 101.960616 273.312 
L 101.960616 247.655111 
L 100.345704 247.655111 
z
" clip-path="url(#paa5eb7760d)" style="fill: #1f77b4"/>
   </g>
   <g id="patch_24">
    <path d="M 101.960616 273.312 
L 103.575528 273.312 
L 103.575528 248.906667 
L 101.960616 248.906667 
z
" clip-path="url(#paa5eb7760d)" style="fill: #1f77b4"/>
   </g>
   <g id="patch_25">
    <path d="M 103.575528 273.312 
L 105.19044 273.312 
L 105.19044 240.145778 
L 103.575528 240.145778 
z
" clip-path="url(#paa5eb7760d)" style="fill: #1f77b4"/>
   </g>
   <g id="patch_26">
    <path d="M 105.19044 273.312 
L 106.805352 273.312 
L 106.805352 245.777778 
L 105.19044 245.777778 
z
" clip-path="url(#paa5eb7760d)" style="fill: #1f77b4"/>
   </g>
   <g id="patch_27">
    <path d="M 106.805352 273.312 
L 108.420264 273.312 
L 108.420264 236.391111 
L 106.805352 236.391111 
z
" clip-path="url(#paa5eb7760d)" style="fill: #1f77b4"/>
   </g>
   <g id="patch_28">
    <path d="M 108.420264 273.312 
L 110.035176 273.312 
L 110.035176 238.268444 
L 108.420264 238.268444 
z
" clip-path="url(#paa5eb7760d)" style="fill: #1f77b4"/>
   </g>
   <g id="patch_29">
    <path d="M 110.035176 273.312 
L 111.650088 273.312 
L 111.650088 240.771556 
L 110.035176 240.771556 
z
" clip-path="url(#paa5eb7760d)" style="fill: #1f77b4"/>
   </g>
   <g id="patch_30">
    <path d="M 111.650088 273.312 
L 113.265 273.312 
L 113.265 231.384889 
L 111.650088 231.384889 
z
" clip-path="url(#paa5eb7760d)" style="fill: #1f77b4"/>
   </g>
   <g id="patch_31">
    <path d="M 113.265 273.312 
L 114.879912 273.312 
L 114.879912 241.397333 
L 113.265 241.397333 
z
" clip-path="url(#paa5eb7760d)" style="fill: #1f77b4"/>
   </g>
   <g id="patch_32">
    <path d="M 114.879912 273.312 
L 116.494824 273.312 
L 116.494824 231.384889 
L 114.879912 231.384889 
z
" clip-path="url(#paa5eb7760d)" style="fill: #1f77b4"/>
   </g>
   <g id="patch_33">
    <path d="M 116.494824 273.312 
L 118.109736 273.312 
L 118.109736 236.391111 
L 116.494824 236.391111 
z
" clip-path="url(#paa5eb7760d)" style="fill: #1f77b4"/>
   </g>
   <g id="patch_34">
    <path d="M 118.109736 273.312 
L 119.724648 273.312 
L 119.724648 227.004444 
L 118.109736 227.004444 
z
" clip-path="url(#paa5eb7760d)" style="fill: #1f77b4"/>
   </g>
   <g id="patch_35">
    <path d="M 119.724648 273.312 
L 121.33956 273.312 
L 121.33956 235.765333 
L 119.724648 235.765333 
z
" clip-path="url(#paa5eb7760d)" style="fill: #1f77b4"/>
   </g>
   <g id="patch_36">
    <path d="M 121.33956 273.312 
L 122.954472 273.312 
L 122.954472 227.004444 
L 121.33956 227.004444 
z
" clip-path="url(#paa5eb7760d)" style="fill: #1f77b4"/>
   </g>
   <g id="patch_37">
    <path d="M 122.954472 273.312 
L 124.569384 273.312 
L 124.569384 223.875556 
L 122.954472 223.875556 
z
" clip-path="url(#paa5eb7760d)" style="fill: #1f77b4"/>
   </g>
   <g id="patch_38">
    <path d="M 124.569384 273.312 
L 126.184296 273.312 
L 126.184296 231.384889 
L 124.569384 231.384889 
z
" clip-path="url(#paa5eb7760d)" style="fill: #1f77b4"/>
   </g>
   <g id="patch_39">
    <path d="M 126.184296 273.312 
L 127.799208 273.312 
L 127.799208 232.010667 
L 126.184296 232.010667 
z
" clip-path="url(#paa5eb7760d)" style="fill: #1f77b4"/>
   </g>
   <g id="patch_40">
    <path d="M 127.799208 273.312 
L 129.414119 273.312 
L 129.414119 230.133333 
L 127.799208 230.133333 
z
" clip-path="url(#paa5eb7760d)" style="fill: #1f77b4"/>
   </g>
   <g id="patch_41">
    <path d="M 129.414119 273.312 
L 131.029031 273.312 
L 131.029031 227.004444 
L 129.414119 227.004444 
z
" clip-path="url(#paa5eb7760d)" style="fill: #1f77b4"/>
   </g>
   <g id="patch_42">
    <path d="M 131.029031 273.312 
L 132.643943 273.312 
L 132.643943 218.243556 
L 131.029031 218.243556 
z
" clip-path="url(#paa5eb7760d)" style="fill: #1f77b4"/>
   </g>
   <g id="patch_43">
    <path d="M 132.643943 273.312 
L 134.258855 273.312 
L 134.258855 214.488889 
L 132.643943 214.488889 
z
" clip-path="url(#paa5eb7760d)" style="fill: #1f77b4"/>
   </g>
   <g id="patch_44">
    <path d="M 134.258855 273.312 
L 135.873767 273.312 
L 135.873767 223.875556 
L 134.258855 223.875556 
z
" clip-path="url(#paa5eb7760d)" style="fill: #1f77b4"/>
   </g>
   <g id="patch_45">
    <path d="M 135.873767 273.312 
L 137.488679 273.312 
L 137.488679 209.482667 
L 135.873767 209.482667 
z
" clip-path="url(#paa5eb7760d)" style="fill: #1f77b4"/>
   </g>
   <g id="patch_46">
    <path d="M 137.488679 273.312 
L 139.103591 273.312 
L 139.103591 211.985778 
L 137.488679 211.985778 
z
" clip-path="url(#paa5eb7760d)" style="fill: #1f77b4"/>
   </g>
   <g id="patch_47">
    <path d="M 139.103591 273.312 
L 140.718503 273.312 
L 140.718503 215.114667 
L 139.103591 215.114667 
z
" clip-path="url(#paa5eb7760d)" style="fill: #1f77b4"/>
   </g>
   <g id="patch_48">
    <path d="M 140.718503 273.312 
L 142.333415 273.312 
L 142.333415 212.611556 
L 140.718503 212.611556 
z
" clip-path="url(#paa5eb7760d)" style="fill: #1f77b4"/>
   </g>
   <g id="patch_49">
    <path d="M 142.333415 273.312 
L 143.948327 273.312 
L 143.948327 212.611556 
L 142.333415 212.611556 
z
" clip-path="url(#paa5eb7760d)" style="fill: #1f77b4"/>
   </g>
   <g id="patch_50">
    <path d="M 143.948327 273.312 
L 145.563239 273.312 
L 145.563239 208.856889 
L 143.948327 208.856889 
z
" clip-path="url(#paa5eb7760d)" style="fill: #1f77b4"/>
   </g>
   <g id="patch_51">
    <path d="M 145.563239 273.312 
L 147.178151 273.312 
L 147.178151 214.488889 
L 145.563239 214.488889 
z
" clip-path="url(#paa5eb7760d)" style="fill: #1f77b4"/>
   </g>
   <g id="patch_52">
    <path d="M 147.178151 273.312 
L 148.793063 273.312 
L 148.793063 218.243556 
L 147.178151 218.243556 
z
" clip-path="url(#paa5eb7760d)" style="fill: #1f77b4"/>
   </g>
   <g id="patch_53">
    <path d="M 148.793063 273.312 
L 150.407975 273.312 
L 150.407975 210.108444 
L 148.793063 210.108444 
z
" clip-path="url(#paa5eb7760d)" style="fill: #1f77b4"/>
   </g>
   <g id="patch_54">
    <path d="M 150.407975 273.312 
L 152.022887 273.312 
L 152.022887 196.341333 
L 150.407975 196.341333 
z
" clip-path="url(#paa5eb7760d)" style="fill: #1f77b4"/>
   </g>
   <g id="patch_55">
    <path d="M 152.022887 273.312 
L 153.637799 273.312 
L 153.637799 198.844444 
L 152.022887 198.844444 
z
" clip-path="url(#paa5eb7760d)" style="fill: #1f77b4"/>
   </g>
   <g id="patch_56">
    <path d="M 153.637799 273.312 
L 155.252711 273.312 
L 155.252711 206.353778 
L 153.637799 206.353778 
z
" clip-path="url(#paa5eb7760d)" style="fill: #1f77b4"/>
   </g>
   <g id="patch_57">
    <path d="M 155.252711 273.312 
L 156.867623 273.312 
L 156.867623 213.237333 
L 155.252711 213.237333 
z
" clip-path="url(#paa5eb7760d)" style="fill: #1f77b4"/>
   </g>
   <g id="patch_58">
    <path d="M 156.867623 273.312 
L 158.482535 273.312 
L 158.482535 205.102222 
L 156.867623 205.102222 
z
" clip-path="url(#paa5eb7760d)" style="fill: #1f77b4"/>
   </g>
   <g id="patch_59">
    <path d="M 158.482535 273.312 
L 160.097447 273.312 
L 160.097447 201.347556 
L 158.482535 201.347556 
z
" clip-path="url(#paa5eb7760d)" style="fill: #1f77b4"/>
   </g>
   <g id="patch_60">
    <path d="M 160.097447 273.312 
L 161.712358 273.312 
L 161.712358 204.476444 
L 160.097447 204.476444 
z
" clip-path="url(#paa5eb7760d)" style="fill: #1f77b4"/>
   </g>
   <g id="patch_61">
    <path d="M 161.712358 273.312 
L 163.32727 273.312 
L 163.32727 198.844444 
L 161.712358 198.844444 
z
" clip-path="url(#paa5eb7760d)" style="fill: #1f77b4"/>
   </g>
   <g id="patch_62">
    <path d="M 163.32727 273.312 
L 164.942182 273.312 
L 164.942182 187.580444 
L 163.32727 187.580444 
z
" clip-path="url(#paa5eb7760d)" style="fill: #1f77b4"/>
   </g>
   <g id="patch_63">
    <path d="M 164.942182 273.312 
L 166.557094 273.312 
L 166.557094 191.960889 
L 164.942182 191.960889 
z
" clip-path="url(#paa5eb7760d)" style="fill: #1f77b4"/>
   </g>
   <g id="patch_64">
    <path d="M 166.557094 273.312 
L 168.172006 273.312 
L 168.172006 208.231111 
L 166.557094 208.231111 
z
" clip-path="url(#paa5eb7760d)" style="fill: #1f77b4"/>
   </g>
   <g id="patch_65">
    <path d="M 168.172006 273.312 
L 169.786918 273.312 
L 169.786918 193.838222 
L 168.172006 193.838222 
z
" clip-path="url(#paa5eb7760d)" style="fill: #1f77b4"/>
   </g>
   <g id="patch_66">
    <path d="M 169.786918 273.312 
L 171.40183 273.312 
L 171.40183 180.696889 
L 169.786918 180.696889 
z
" clip-path="url(#paa5eb7760d)" style="fill: #1f77b4"/>
   </g>
   <g id="patch_67">
    <path d="M 171.40183 273.312 
L 173.016742 273.312 
L 173.016742 197.592889 
L 171.40183 197.592889 
z
" clip-path="url(#paa5eb7760d)" style="fill: #1f77b4"/>
   </g>
   <g id="patch_68">
    <path d="M 173.016742 273.312 
L 174.631654 273.312 
L 174.631654 184.451556 
L 173.016742 184.451556 
z
" clip-path="url(#paa5eb7760d)" style="fill: #1f77b4"/>
   </g>
   <g id="patch_69">
    <path d="M 174.631654 273.312 
L 176.246566 273.312 
L 176.246566 180.696889 
L 174.631654 180.696889 
z
" clip-path="url(#paa5eb7760d)" style="fill: #1f77b4"/>
   </g>
   <g id="patch_70">
    <path d="M 176.246566 273.312 
L 177.861478 273.312 
L 177.861478 190.083556 
L 176.246566 190.083556 
z
" clip-path="url(#paa5eb7760d)" style="fill: #1f77b4"/>
   </g>
   <g id="patch_71">
    <path d="M 177.861478 273.312 
L 179.47639 273.312 
L 179.47639 187.580444 
L 177.861478 187.580444 
z
" clip-path="url(#paa5eb7760d)" style="fill: #1f77b4"/>
   </g>
   <g id="patch_72">
    <path d="M 179.47639 273.312 
L 181.091302 273.312 
L 181.091302 200.721778 
L 179.47639 200.721778 
z
" clip-path="url(#paa5eb7760d)" style="fill: #1f77b4"/>
   </g>
   <g id="patch_73">
    <path d="M 181.091302 273.312 
L 182.706214 273.312 
L 182.706214 178.193778 
L 181.091302 178.193778 
z
" clip-path="url(#paa5eb7760d)" style="fill: #1f77b4"/>
   </g>
   <g id="patch_74">
    <path d="M 182.706214 273.312 
L 184.321126 273.312 
L 184.321126 178.193778 
L 182.706214 178.193778 
z
" clip-path="url(#paa5eb7760d)" style="fill: #1f77b4"/>
   </g>
   <g id="patch_75">
    <path d="M 184.321126 273.312 
L 185.936038 273.312 
L 185.936038 180.071111 
L 184.321126 180.071111 
z
" clip-path="url(#paa5eb7760d)" style="fill: #1f77b4"/>
   </g>
   <g id="patch_76">
    <path d="M 185.936038 273.312 
L 187.55095 273.312 
L 187.55095 183.825778 
L 185.936038 183.825778 
z
" clip-path="url(#paa5eb7760d)" style="fill: #1f77b4"/>
   </g>
   <g id="patch_77">
    <path d="M 187.55095 273.312 
L 189.165862 273.312 
L 189.165862 188.832 
L 187.55095 188.832 
z
" clip-path="url(#paa5eb7760d)" style="fill: #1f77b4"/>
   </g>
   <g id="patch_78">
    <path d="M 189.165862 273.312 
L 190.780774 273.312 
L 190.780774 173.813333 
L 189.165862 173.813333 
z
" clip-path="url(#paa5eb7760d)" style="fill: #1f77b4"/>
   </g>
   <g id="patch_79">
    <path d="M 190.780774 273.312 
L 192.395686 273.312 
L 192.395686 171.310222 
L 190.780774 171.310222 
z
" clip-path="url(#paa5eb7760d)" style="fill: #1f77b4"/>
   </g>
   <g id="patch_80">
    <path d="M 192.395686 273.312 
L 194.010597 273.312 
L 194.010597 175.064889 
L 192.395686 175.064889 
z
" clip-path="url(#paa5eb7760d)" style="fill: #1f77b4"/>
   </g>
   <g id="patch_81">
    <path d="M 194.010597 273.312 
L 195.625509 273.312 
L 195.625509 170.058667 
L 194.010597 170.058667 
z
" clip-path="url(#paa5eb7760d)" style="fill: #1f77b4"/>
   </g>
   <g id="patch_82">
    <path d="M 195.625509 273.312 
L 197.240421 273.312 
L 197.240421 181.322667 
L 195.625509 181.322667 
z
" clip-path="url(#paa5eb7760d)" style="fill: #1f77b4"/>
   </g>
   <g id="patch_83">
    <path d="M 197.240421 273.312 
L 198.855333 273.312 
L 198.855333 178.819556 
L 197.240421 178.819556 
z
" clip-path="url(#paa5eb7760d)" style="fill: #1f77b4"/>
   </g>
   <g id="patch_84">
    <path d="M 198.855333 273.312 
L 200.470245 273.312 
L 200.470245 168.181333 
L 198.855333 168.181333 
z
" clip-path="url(#paa5eb7760d)" style="fill: #1f77b4"/>
   </g>
   <g id="patch_85">
    <path d="M 200.470245 273.312 
L 202.085157 273.312 
L 202.085157 168.807111 
L 200.470245 168.807111 
z
" clip-path="url(#paa5eb7760d)" style="fill: #1f77b4"/>
   </g>
   <g id="patch_86">
    <path d="M 202.085157 273.312 
L 203.700069 273.312 
L 203.700069 161.923556 
L 202.085157 161.923556 
z
" clip-path="url(#paa5eb7760d)" style="fill: #1f77b4"/>
   </g>
   <g id="patch_87">
    <path d="M 203.700069 273.312 
L 205.314981 273.312 
L 205.314981 155.04 
L 203.700069 155.04 
z
" clip-path="url(#paa5eb7760d)" style="fill: #1f77b4"/>
   </g>
   <g id="patch_88">
    <path d="M 205.314981 273.312 
L 206.929893 273.312 
L 206.929893 169.432889 
L 205.314981 169.432889 
z
" clip-path="url(#paa5eb7760d)" style="fill: #1f77b4"/>
   </g>
   <g id="patch_89">
    <path d="M 206.929893 273.312 
L 208.544805 273.312 
L 208.544805 174.439111 
L 206.929893 174.439111 
z
" clip-path="url(#paa5eb7760d)" style="fill: #1f77b4"/>
   </g>
   <g id="patch_90">
    <path d="M 208.544805 273.312 
L 210.159717 273.312 
L 210.159717 173.813333 
L 208.544805 173.813333 
z
" clip-path="url(#paa5eb7760d)" style="fill: #1f77b4"/>
   </g>
   <g id="patch_91">
    <path d="M 210.159717 273.312 
L 211.774629 273.312 
L 211.774629 178.193778 
L 210.159717 178.193778 
z
" clip-path="url(#paa5eb7760d)" style="fill: #1f77b4"/>
   </g>
   <g id="patch_92">
    <path d="M 211.774629 273.312 
L 213.389541 273.312 
L 213.389541 156.917333 
L 211.774629 156.917333 
z
" clip-path="url(#paa5eb7760d)" style="fill: #1f77b4"/>
   </g>
   <g id="patch_93">
    <path d="M 213.389541 273.312 
L 215.004453 273.312 
L 215.004453 156.291556 
L 213.389541 156.291556 
z
" clip-path="url(#paa5eb7760d)" style="fill: #1f77b4"/>
   </g>
   <g id="patch_94">
    <path d="M 215.004453 273.312 
L 216.619365 273.312 
L 216.619365 162.549333 
L 215.004453 162.549333 
z
" clip-path="url(#paa5eb7760d)" style="fill: #1f77b4"/>
   </g>
   <g id="patch_95">
    <path d="M 216.619365 273.312 
L 218.234277 273.312 
L 218.234277 154.414222 
L 216.619365 154.414222 
z
" clip-path="url(#paa5eb7760d)" style="fill: #1f77b4"/>
   </g>
   <g id="patch_96">
    <path d="M 218.234277 273.312 
L 219.849189 273.312 
L 219.849189 154.414222 
L 218.234277 154.414222 
z
" clip-path="url(#paa5eb7760d)" style="fill: #1f77b4"/>
   </g>
   <g id="patch_97">
    <path d="M 219.849189 273.312 
L 221.464101 273.312 
L 221.464101 151.911111 
L 219.849189 151.911111 
z
" clip-path="url(#paa5eb7760d)" style="fill: #1f77b4"/>
   </g>
   <g id="patch_98">
    <path d="M 221.464101 273.312 
L 223.079013 273.312 
L 223.079013 158.794667 
L 221.464101 158.794667 
z
" clip-path="url(#paa5eb7760d)" style="fill: #1f77b4"/>
   </g>
   <g id="patch_99">
    <path d="M 223.079013 273.312 
L 224.693925 273.312 
L 224.693925 156.291556 
L 223.079013 156.291556 
z
" clip-path="url(#paa5eb7760d)" style="fill: #1f77b4"/>
   </g>
   <g id="patch_100">
    <path d="M 224.693925 273.312 
L 226.308836 273.312 
L 226.308836 141.272889 
L 224.693925 141.272889 
z
" clip-path="url(#paa5eb7760d)" style="fill: #1f77b4"/>
   </g>
   <g id="patch_101">
    <path d="M 226.308836 273.312 
L 227.923748 273.312 
L 227.923748 146.904889 
L 226.308836 146.904889 
z
" clip-path="url(#paa5eb7760d)" style="fill: #1f77b4"/>
   </g>
   <g id="patch_102">
    <path d="M 227.923748 273.312 
L 229.53866 273.312 
L 229.53866 158.794667 
L 227.923748 158.794667 
z
" clip-path="url(#paa5eb7760d)" style="fill: #1f77b4"/>
   </g>
   <g id="patch_103">
    <path d="M 229.53866 273.312 
L 231.153572 273.312 
L 231.153572 150.033778 
L 229.53866 150.033778 
z
" clip-path="url(#paa5eb7760d)" style="fill: #1f77b4"/>
   </g>
   <g id="patch_104">
    <path d="M 231.153572 273.312 
L 232.768484 273.312 
L 232.768484 141.272889 
L 231.153572 141.272889 
z
" clip-path="url(#paa5eb7760d)" style="fill: #1f77b4"/>
   </g>
   <g id="patch_105">
    <path d="M 232.768484 273.312 
L 234.383396 273.312 
L 234.383396 145.027556 
L 232.768484 145.027556 
z
" clip-path="url(#paa5eb7760d)" style="fill: #1f77b4"/>
   </g>
   <g id="patch_106">
    <path d="M 234.383396 273.312 
L 235.998308 273.312 
L 235.998308 136.266667 
L 234.383396 136.266667 
z
" clip-path="url(#paa5eb7760d)" style="fill: #1f77b4"/>
   </g>
   <g id="patch_107">
    <path d="M 235.998308 273.312 
L 237.61322 273.312 
L 237.61322 136.266667 
L 235.998308 136.266667 
z
" clip-path="url(#paa5eb7760d)" style="fill: #1f77b4"/>
   </g>
   <g id="patch_108">
    <path d="M 237.61322 273.312 
L 239.228132 273.312 
L 239.228132 142.524444 
L 237.61322 142.524444 
z
" clip-path="url(#paa5eb7760d)" style="fill: #1f77b4"/>
   </g>
   <g id="patch_109">
    <path d="M 239.228132 273.312 
L 240.843044 273.312 
L 240.843044 138.769778 
L 239.228132 138.769778 
z
" clip-path="url(#paa5eb7760d)" style="fill: #1f77b4"/>
   </g>
   <g id="patch_110">
    <path d="M 240.843044 273.312 
L 242.457956 273.312 
L 242.457956 141.898667 
L 240.843044 141.898667 
z
" clip-path="url(#paa5eb7760d)" style="fill: #1f77b4"/>
   </g>
   <g id="patch_111">
    <path d="M 242.457956 273.312 
L 244.072868 273.312 
L 244.072868 147.530667 
L 242.457956 147.530667 
z
" clip-path="url(#paa5eb7760d)" style="fill: #1f77b4"/>
   </g>
   <g id="patch_112">
    <path d="M 244.072868 273.312 
L 245.68778 273.312 
L 245.68778 131.886222 
L 244.072868 131.886222 
z
" clip-path="url(#paa5eb7760d)" style="fill: #1f77b4"/>
   </g>
   <g id="patch_113">
    <path d="M 245.68778 273.312 
L 247.302692 273.312 
L 247.302692 150.033778 
L 245.68778 150.033778 
z
" clip-path="url(#paa5eb7760d)" style="fill: #1f77b4"/>
   </g>
   <g id="patch_114">
    <path d="M 247.302692 273.312 
L 248.917604 273.312 
L 248.917604 135.015111 
L 247.302692 135.015111 
z
" clip-path="url(#paa5eb7760d)" style="fill: #1f77b4"/>
   </g>
   <g id="patch_115">
    <path d="M 248.917604 273.312 
L 250.532516 273.312 
L 250.532516 131.886222 
L 248.917604 131.886222 
z
" clip-path="url(#paa5eb7760d)" style="fill: #1f77b4"/>
   </g>
   <g id="patch_116">
    <path d="M 250.532516 273.312 
L 252.147428 273.312 
L 252.147428 135.015111 
L 250.532516 135.015111 
z
" clip-path="url(#paa5eb7760d)" style="fill: #1f77b4"/>
   </g>
   <g id="patch_117">
    <path d="M 252.147428 273.312 
L 253.76234 273.312 
L 253.76234 138.144 
L 252.147428 138.144 
z
" clip-path="url(#paa5eb7760d)" style="fill: #1f77b4"/>
   </g>
   <g id="patch_118">
    <path d="M 253.76234 273.312 
L 255.377252 273.312 
L 255.377252 135.015111 
L 253.76234 135.015111 
z
" clip-path="url(#paa5eb7760d)" style="fill: #1f77b4"/>
   </g>
   <g id="patch_119">
    <path d="M 255.377252 273.312 
L 256.992164 273.312 
L 256.992164 117.493333 
L 255.377252 117.493333 
z
" clip-path="url(#paa5eb7760d)" style="fill: #1f77b4"/>
   </g>
   <g id="patch_120">
    <path d="M 256.992164 273.312 
L 258.607075 273.312 
L 258.607075 116.867556 
L 256.992164 116.867556 
z
" clip-path="url(#paa5eb7760d)" style="fill: #1f77b4"/>
   </g>
   <g id="patch_121">
    <path d="M 258.607075 273.312 
L 260.221987 273.312 
L 260.221987 111.235556 
L 258.607075 111.235556 
z
" clip-path="url(#paa5eb7760d)" style="fill: #1f77b4"/>
   </g>
   <g id="patch_122">
    <path d="M 260.221987 273.312 
L 261.836899 273.312 
L 261.836899 119.996444 
L 260.221987 119.996444 
z
" clip-path="url(#paa5eb7760d)" style="fill: #1f77b4"/>
   </g>
   <g id="patch_123">
    <path d="M 261.836899 273.312 
L 263.451811 273.312 
L 263.451811 116.867556 
L 261.836899 116.867556 
z
" clip-path="url(#paa5eb7760d)" style="fill: #1f77b4"/>
   </g>
   <g id="patch_124">
    <path d="M 263.451811 273.312 
L 265.066723 273.312 
L 265.066723 116.241778 
L 263.451811 116.241778 
z
" clip-path="url(#paa5eb7760d)" style="fill: #1f77b4"/>
   </g>
   <g id="patch_125">
    <path d="M 265.066723 273.312 
L 266.681635 273.312 
L 266.681635 114.990222 
L 265.066723 114.990222 
z
" clip-path="url(#paa5eb7760d)" style="fill: #1f77b4"/>
   </g>
   <g id="patch_126">
    <path d="M 266.681635 273.312 
L 268.296547 273.312 
L 268.296547 126.88 
L 266.681635 126.88 
z
" clip-path="url(#paa5eb7760d)" style="fill: #1f77b4"/>
   </g>
   <g id="patch_127">
    <path d="M 268.296547 273.312 
L 269.911459 273.312 
L 269.911459 123.125333 
L 268.296547 123.125333 
z
" clip-path="url(#paa5eb7760d)" style="fill: #1f77b4"/>
   </g>
   <g id="patch_128">
    <path d="M 269.911459 273.312 
L 271.526371 273.312 
L 271.526371 112.487111 
L 269.911459 112.487111 
z
" clip-path="url(#paa5eb7760d)" style="fill: #1f77b4"/>
   </g>
   <g id="patch_129">
    <path d="M 271.526371 273.312 
L 273.141283 273.312 
L 273.141283 124.376889 
L 271.526371 124.376889 
z
" clip-path="url(#paa5eb7760d)" style="fill: #1f77b4"/>
   </g>
   <g id="patch_130">
    <path d="M 273.141283 273.312 
L 274.756195 273.312 
L 274.756195 111.235556 
L 273.141283 111.235556 
z
" clip-path="url(#paa5eb7760d)" style="fill: #1f77b4"/>
   </g>
   <g id="patch_131">
    <path d="M 274.756195 273.312 
L 276.371107 273.312 
L 276.371107 98.094222 
L 274.756195 98.094222 
z
" clip-path="url(#paa5eb7760d)" style="fill: #1f77b4"/>
   </g>
   <g id="patch_132">
    <path d="M 276.371107 273.312 
L 277.986019 273.312 
L 277.986019 115.616 
L 276.371107 115.616 
z
" clip-path="url(#paa5eb7760d)" style="fill: #1f77b4"/>
   </g>
   <g id="patch_133">
    <path d="M 277.986019 273.312 
L 279.600931 273.312 
L 279.600931 95.591111 
L 277.986019 95.591111 
z
" clip-path="url(#paa5eb7760d)" style="fill: #1f77b4"/>
   </g>
   <g id="patch_134">
    <path d="M 279.600931 273.312 
L 281.215843 273.312 
L 281.215843 121.873778 
L 279.600931 121.873778 
z
" clip-path="url(#paa5eb7760d)" style="fill: #1f77b4"/>
   </g>
   <g id="patch_135">
    <path d="M 281.215843 273.312 
L 282.830755 273.312 
L 282.830755 91.210667 
L 281.215843 91.210667 
z
" clip-path="url(#paa5eb7760d)" style="fill: #1f77b4"/>
   </g>
   <g id="patch_136">
    <path d="M 282.830755 273.312 
L 284.445667 273.312 
L 284.445667 81.198222 
L 282.830755 81.198222 
z
" clip-path="url(#paa5eb7760d)" style="fill: #1f77b4"/>
   </g>
   <g id="patch_137">
    <path d="M 284.445667 273.312 
L 286.060579 273.312 
L 286.060579 108.732444 
L 284.445667 108.732444 
z
" clip-path="url(#paa5eb7760d)" style="fill: #1f77b4"/>
   </g>
   <g id="patch_138">
    <path d="M 286.060579 273.312 
L 287.675491 273.312 
L 287.675491 94.339556 
L 286.060579 94.339556 
z
" clip-path="url(#paa5eb7760d)" style="fill: #1f77b4"/>
   </g>
   <g id="patch_139">
    <path d="M 287.675491 273.312 
L 289.290403 273.312 
L 289.290403 88.707556 
L 287.675491 88.707556 
z
" clip-path="url(#paa5eb7760d)" style="fill: #1f77b4"/>
   </g>
   <g id="patch_140">
    <path d="M 289.290403 273.312 
L 290.905314 273.312 
L 290.905314 105.603556 
L 289.290403 105.603556 
z
" clip-path="url(#paa5eb7760d)" style="fill: #1f77b4"/>
   </g>
   <g id="patch_141">
    <path d="M 290.905314 273.312 
L 292.520226 273.312 
L 292.520226 99.971556 
L 290.905314 99.971556 
z
" clip-path="url(#paa5eb7760d)" style="fill: #1f77b4"/>
   </g>
   <g id="patch_142">
    <path d="M 292.520226 273.312 
L 294.135138 273.312 
L 294.135138 76.817778 
L 292.520226 76.817778 
z
" clip-path="url(#paa5eb7760d)" style="fill: #1f77b4"/>
   </g>
   <g id="patch_143">
    <path d="M 294.135138 273.312 
L 295.75005 273.312 
L 295.75005 106.229333 
L 294.135138 106.229333 
z
" clip-path="url(#paa5eb7760d)" style="fill: #1f77b4"/>
   </g>
   <g id="patch_144">
    <path d="M 295.75005 273.312 
L 297.364962 273.312 
L 297.364962 118.744889 
L 295.75005 118.744889 
z
" clip-path="url(#paa5eb7760d)" style="fill: #1f77b4"/>
   </g>
   <g id="patch_145">
    <path d="M 297.364962 273.312 
L 298.979874 273.312 
L 298.979874 99.971556 
L 297.364962 99.971556 
z
" clip-path="url(#paa5eb7760d)" style="fill: #1f77b4"/>
   </g>
   <g id="patch_146">
    <path d="M 298.979874 273.312 
L 300.594786 273.312 
L 300.594786 70.56 
L 298.979874 70.56 
z
" clip-path="url(#paa5eb7760d)" style="fill: #1f77b4"/>
   </g>
   <g id="patch_147">
    <path d="M 300.594786 273.312 
L 302.209698 273.312 
L 302.209698 106.229333 
L 300.594786 106.229333 
z
" clip-path="url(#paa5eb7760d)" style="fill: #1f77b4"/>
   </g>
   <g id="patch_148">
    <path d="M 302.209698 273.312 
L 303.82461 273.312 
L 303.82461 91.210667 
L 302.209698 91.210667 
z
" clip-path="url(#paa5eb7760d)" style="fill: #1f77b4"/>
   </g>
   <g id="patch_149">
    <path d="M 303.82461 273.312 
L 305.439522 273.312 
L 305.439522 87.456 
L 303.82461 87.456 
z
" clip-path="url(#paa5eb7760d)" style="fill: #1f77b4"/>
   </g>
   <g id="patch_150">
    <path d="M 305.439522 273.312 
L 307.054434 273.312 
L 307.054434 72.437333 
L 305.439522 72.437333 
z
" clip-path="url(#paa5eb7760d)" style="fill: #1f77b4"/>
   </g>
   <g id="patch_151">
    <path d="M 307.054434 273.312 
L 308.669346 273.312 
L 308.669346 74.314667 
L 307.054434 74.314667 
z
" clip-path="url(#paa5eb7760d)" style="fill: #1f77b4"/>
   </g>
   <g id="patch_152">
    <path d="M 308.669346 273.312 
L 310.284258 273.312 
L 310.284258 95.591111 
L 308.669346 95.591111 
z
" clip-path="url(#paa5eb7760d)" style="fill: #1f77b4"/>
   </g>
   <g id="patch_153">
    <path d="M 310.284258 273.312 
L 311.89917 273.312 
L 311.89917 81.198222 
L 310.284258 81.198222 
z
" clip-path="url(#paa5eb7760d)" style="fill: #1f77b4"/>
   </g>
   <g id="patch_154">
    <path d="M 311.89917 273.312 
L 313.514082 273.312 
L 313.514082 104.352 
L 311.89917 104.352 
z
" clip-path="url(#paa5eb7760d)" style="fill: #1f77b4"/>
   </g>
   <g id="patch_155">
    <path d="M 313.514082 273.312 
L 315.128994 273.312 
L 315.128994 86.204444 
L 313.514082 86.204444 
z
" clip-path="url(#paa5eb7760d)" style="fill: #1f77b4"/>
   </g>
   <g id="patch_156">
    <path d="M 315.128994 273.312 
L 316.743906 273.312 
L 316.743906 103.100444 
L 315.128994 103.100444 
z
" clip-path="url(#paa5eb7760d)" style="fill: #1f77b4"/>
   </g>
   <g id="patch_157">
    <path d="M 316.743906 273.312 
L 318.358818 273.312 
L 318.358818 90.584889 
L 316.743906 90.584889 
z
" clip-path="url(#paa5eb7760d)" style="fill: #1f77b4"/>
   </g>
   <g id="patch_158">
    <path d="M 318.358818 273.312 
L 319.97373 273.312 
L 319.97373 79.320889 
L 318.358818 79.320889 
z
" clip-path="url(#paa5eb7760d)" style="fill: #1f77b4"/>
   </g>
   <g id="patch_159">
    <path d="M 319.97373 273.312 
L 321.588642 273.312 
L 321.588642 96.216889 
L 319.97373 96.216889 
z
" clip-path="url(#paa5eb7760d)" style="fill: #1f77b4"/>
   </g>
   <g id="patch_160">
    <path d="M 321.588642 273.312 
L 323.203553 273.312 
L 323.203553 90.584889 
L 321.588642 90.584889 
z
" clip-path="url(#paa5eb7760d)" style="fill: #1f77b4"/>
   </g>
   <g id="patch_161">
    <path d="M 323.203553 273.312 
L 324.818465 273.312 
L 324.818465 96.842667 
L 323.203553 96.842667 
z
" clip-path="url(#paa5eb7760d)" style="fill: #1f77b4"/>
   </g>
   <g id="patch_162">
    <path d="M 324.818465 273.312 
L 326.433377 273.312 
L 326.433377 63.050667 
L 324.818465 63.050667 
z
" clip-path="url(#paa5eb7760d)" style="fill: #1f77b4"/>
   </g>
   <g id="patch_163">
    <path d="M 326.433377 273.312 
L 328.048289 273.312 
L 328.048289 51.160889 
L 326.433377 51.160889 
z
" clip-path="url(#paa5eb7760d)" style="fill: #1f77b4"/>
   </g>
   <g id="patch_164">
    <path d="M 328.048289 273.312 
L 329.663201 273.312 
L 329.663201 76.192 
L 328.048289 76.192 
z
" clip-path="url(#paa5eb7760d)" style="fill: #1f77b4"/>
   </g>
   <g id="patch_165">
    <path d="M 329.663201 273.312 
L 331.278113 273.312 
L 331.278113 78.695111 
L 329.663201 78.695111 
z
" clip-path="url(#paa5eb7760d)" style="fill: #1f77b4"/>
   </g>
   <g id="patch_166">
    <path d="M 331.278113 273.312 
L 332.893025 273.312 
L 332.893025 63.676444 
L 331.278113 63.676444 
z
" clip-path="url(#paa5eb7760d)" style="fill: #1f77b4"/>
   </g>
   <g id="patch_167">
    <path d="M 332.893025 273.312 
L 334.507937 273.312 
L 334.507937 73.688889 
L 332.893025 73.688889 
z
" clip-path="url(#paa5eb7760d)" style="fill: #1f77b4"/>
   </g>
   <g id="patch_168">
    <path d="M 334.507937 273.312 
L 336.122849 273.312 
L 336.122849 69.308444 
L 334.507937 69.308444 
z
" clip-path="url(#paa5eb7760d)" style="fill: #1f77b4"/>
   </g>
   <g id="patch_169">
    <path d="M 336.122849 273.312 
L 337.737761 273.312 
L 337.737761 63.050667 
L 336.122849 63.050667 
z
" clip-path="url(#paa5eb7760d)" style="fill: #1f77b4"/>
   </g>
   <g id="patch_170">
    <path d="M 337.737761 273.312 
L 339.352673 273.312 
L 339.352673 51.786667 
L 337.737761 51.786667 
z
" clip-path="url(#paa5eb7760d)" style="fill: #1f77b4"/>
   </g>
   <g id="patch_171">
    <path d="M 339.352673 273.312 
L 340.967585 273.312 
L 340.967585 75.566222 
L 339.352673 75.566222 
z
" clip-path="url(#paa5eb7760d)" style="fill: #1f77b4"/>
   </g>
   <g id="patch_172">
    <path d="M 340.967585 273.312 
L 342.582497 273.312 
L 342.582497 82.449778 
L 340.967585 82.449778 
z
" clip-path="url(#paa5eb7760d)" style="fill: #1f77b4"/>
   </g>
   <g id="patch_173">
    <path d="M 342.582497 273.312 
L 344.197409 273.312 
L 344.197409 54.915556 
L 342.582497 54.915556 
z
" clip-path="url(#paa5eb7760d)" style="fill: #1f77b4"/>
   </g>
   <g id="patch_174">
    <path d="M 344.197409 273.312 
L 345.812321 273.312 
L 345.812321 46.780444 
L 344.197409 46.780444 
z
" clip-path="url(#paa5eb7760d)" style="fill: #1f77b4"/>
   </g>
   <g id="patch_175">
    <path d="M 345.812321 273.312 
L 347.427233 273.312 
L 347.427233 63.676444 
L 345.812321 63.676444 
z
" clip-path="url(#paa5eb7760d)" style="fill: #1f77b4"/>
   </g>
   <g id="patch_176">
    <path d="M 347.427233 273.312 
L 349.042145 273.312 
L 349.042145 50.535111 
L 347.427233 50.535111 
z
" clip-path="url(#paa5eb7760d)" style="fill: #1f77b4"/>
   </g>
   <g id="patch_177">
    <path d="M 349.042145 273.312 
L 350.657057 273.312 
L 350.657057 61.173333 
L 349.042145 61.173333 
z
" clip-path="url(#paa5eb7760d)" style="fill: #1f77b4"/>
   </g>
   <g id="patch_178">
    <path d="M 350.657057 273.312 
L 352.271969 273.312 
L 352.271969 54.915556 
L 350.657057 54.915556 
z
" clip-path="url(#paa5eb7760d)" style="fill: #1f77b4"/>
   </g>
   <g id="patch_179">
    <path d="M 352.271969 273.312 
L 353.886881 273.312 
L 353.886881 67.431111 
L 352.271969 67.431111 
z
" clip-path="url(#paa5eb7760d)" style="fill: #1f77b4"/>
   </g>
   <g id="patch_180">
    <path d="M 353.886881 273.312 
L 355.501792 273.312 
L 355.501792 71.811556 
L 353.886881 71.811556 
z
" clip-path="url(#paa5eb7760d)" style="fill: #1f77b4"/>
   </g>
   <g id="patch_181">
    <path d="M 355.501792 273.312 
L 357.116704 273.312 
L 357.116704 34.264889 
L 355.501792 34.264889 
z
" clip-path="url(#paa5eb7760d)" style="fill: #1f77b4"/>
   </g>
   <g id="patch_182">
    <path d="M 357.116704 273.312 
L 358.731616 273.312 
L 358.731616 55.541333 
L 357.116704 55.541333 
z
" clip-path="url(#paa5eb7760d)" style="fill: #1f77b4"/>
   </g>
   <g id="patch_183">
    <path d="M 358.731616 273.312 
L 360.346528 273.312 
L 360.346528 71.185778 
L 358.731616 71.185778 
z
" clip-path="url(#paa5eb7760d)" style="fill: #1f77b4"/>
   </g>
   <g id="patch_184">
    <path d="M 360.346528 273.312 
L 361.96144 273.312 
L 361.96144 38.019556 
L 360.346528 38.019556 
z
" clip-path="url(#paa5eb7760d)" style="fill: #1f77b4"/>
   </g>
   <g id="patch_185">
    <path d="M 361.96144 273.312 
L 363.576352 273.312 
L 363.576352 54.915556 
L 361.96144 54.915556 
z
" clip-path="url(#paa5eb7760d)" style="fill: #1f77b4"/>
   </g>
   <g id="patch_186">
    <path d="M 363.576352 273.312 
L 365.191264 273.312 
L 365.191264 21.123556 
L 363.576352 21.123556 
z
" clip-path="url(#paa5eb7760d)" style="fill: #1f77b4"/>
   </g>
   <g id="patch_187">
    <path d="M 365.191264 273.312 
L 366.806176 273.312 
L 366.806176 38.019556 
L 365.191264 38.019556 
z
" clip-path="url(#paa5eb7760d)" style="fill: #1f77b4"/>
   </g>
   <g id="patch_188">
    <path d="M 366.806176 273.312 
L 368.421088 273.312 
L 368.421088 46.154667 
L 366.806176 46.154667 
z
" clip-path="url(#paa5eb7760d)" style="fill: #1f77b4"/>
   </g>
   <g id="patch_189">
    <path d="M 368.421088 273.312 
L 370.036 273.312 
L 370.036 38.645333 
L 368.421088 38.645333 
z
" clip-path="url(#paa5eb7760d)" style="fill: #1f77b4"/>
   </g>
   <g id="patch_190">
    <path d="M 370.036 273.312 
L 371.650912 273.312 
L 371.650912 48.032 
L 370.036 48.032 
z
" clip-path="url(#paa5eb7760d)" style="fill: #1f77b4"/>
   </g>
   <g id="patch_191">
    <path d="M 371.650912 273.312 
L 373.265824 273.312 
L 373.265824 38.019556 
L 371.650912 38.019556 
z
" clip-path="url(#paa5eb7760d)" style="fill: #1f77b4"/>
   </g>
   <g id="patch_192">
    <path d="M 373.265824 273.312 
L 374.880736 273.312 
L 374.880736 44.903111 
L 373.265824 44.903111 
z
" clip-path="url(#paa5eb7760d)" style="fill: #1f77b4"/>
   </g>
   <g id="patch_193">
    <path d="M 374.880736 273.312 
L 376.495648 273.312 
L 376.495648 19.872 
L 374.880736 19.872 
z
" clip-path="url(#paa5eb7760d)" style="fill: #1f77b4"/>
   </g>
   <g id="patch_194">
    <path d="M 376.495648 273.312 
L 378.11056 273.312 
L 378.11056 22.375111 
L 376.495648 22.375111 
z
" clip-path="url(#paa5eb7760d)" style="fill: #1f77b4"/>
   </g>
   <g id="patch_195">
    <path d="M 378.11056 273.312 
L 379.725472 273.312 
L 379.725472 43.025778 
L 378.11056 43.025778 
z
" clip-path="url(#paa5eb7760d)" style="fill: #1f77b4"/>
   </g>
   <g id="patch_196">
    <path d="M 379.725472 273.312 
L 381.340384 273.312 
L 381.340384 54.289778 
L 379.725472 54.289778 
z
" clip-path="url(#paa5eb7760d)" style="fill: #1f77b4"/>
   </g>
   <g id="patch_197">
    <path d="M 381.340384 273.312 
L 382.955296 273.312 
L 382.955296 36.768 
L 381.340384 36.768 
z
" clip-path="url(#paa5eb7760d)" style="fill: #1f77b4"/>
   </g>
   <g id="patch_198">
    <path d="M 382.955296 273.312 
L 384.570208 273.312 
L 384.570208 22.375111 
L 382.955296 22.375111 
z
" clip-path="url(#paa5eb7760d)" style="fill: #1f77b4"/>
   </g>
   <g id="patch_199">
    <path d="M 384.570208 273.312 
L 386.18512 273.312 
L 386.18512 27.381333 
L 384.570208 27.381333 
z
" clip-path="url(#paa5eb7760d)" style="fill: #1f77b4"/>
   </g>
   <g id="patch_200">
    <path d="M 386.18512 273.312 
L 387.800031 273.312 
L 387.800031 36.768 
L 386.18512 36.768 
z
" clip-path="url(#paa5eb7760d)" style="fill: #1f77b4"/>
   </g>
   <g id="patch_201">
    <path d="M 387.800031 273.312 
L 389.414943 273.312 
L 389.414943 23.626667 
L 387.800031 23.626667 
z
" clip-path="url(#paa5eb7760d)" style="fill: #1f77b4"/>
   </g>
   <g id="patch_202">
    <path d="M 389.414943 273.312 
L 391.029855 273.312 
L 391.029855 44.277333 
L 389.414943 44.277333 
z
" clip-path="url(#paa5eb7760d)" style="fill: #1f77b4"/>
   </g>
   <g id="matplotlib.axis_1">
    <g id="xtick_1">
     <g id="line2d_1">
      <defs>
       <path id="m3ed7557726" d="M 0 0 
L 0 3.5 
" style="stroke: #000000; stroke-width: 0.8"/>
      </defs>
      <g>
       <use xlink:href="#m3ed7557726" x="66.376477" y="273.312" style="stroke: #000000; stroke-width: 0.8"/>
      </g>
     </g>
     <g id="text_1">
      <!-- 0.0 -->
      <g transform="translate(58.424915 287.910437)scale(0.1 -0.1)">
       <defs>
        <path id="DejaVuSans-30" d="M 2034 4250 
Q 1547 4250 1301 3770 
Q 1056 3291 1056 2328 
Q 1056 1369 1301 889 
Q 1547 409 2034 409 
Q 2525 409 2770 889 
Q 3016 1369 3016 2328 
Q 3016 3291 2770 3770 
Q 2525 4250 2034 4250 
z
M 2034 4750 
Q 2819 4750 3233 4129 
Q 3647 3509 3647 2328 
Q 3647 1150 3233 529 
Q 2819 -91 2034 -91 
Q 1250 -91 836 529 
Q 422 1150 422 2328 
Q 422 3509 836 4129 
Q 1250 4750 2034 4750 
z
" transform="scale(0.015625)"/>
        <path id="DejaVuSans-2e" d="M 684 794 
L 1344 794 
L 1344 0 
L 684 0 
L 684 794 
z
" transform="scale(0.015625)"/>
       </defs>
       <use xlink:href="#DejaVuSans-30"/>
       <use xlink:href="#DejaVuSans-2e" x="63.623047"/>
       <use xlink:href="#DejaVuSans-30" x="95.410156"/>
      </g>
     </g>
    </g>
    <g id="xtick_2">
     <g id="line2d_2">
      <g>
       <use xlink:href="#m3ed7557726" x="131.307386" y="273.312" style="stroke: #000000; stroke-width: 0.8"/>
      </g>
     </g>
     <g id="text_2">
      <!-- 0.2 -->
      <g transform="translate(123.355824 287.910437)scale(0.1 -0.1)">
       <defs>
        <path id="DejaVuSans-32" d="M 1228 531 
L 3431 531 
L 3431 0 
L 469 0 
L 469 531 
Q 828 903 1448 1529 
Q 2069 2156 2228 2338 
Q 2531 2678 2651 2914 
Q 2772 3150 2772 3378 
Q 2772 3750 2511 3984 
Q 2250 4219 1831 4219 
Q 1534 4219 1204 4116 
Q 875 4013 500 3803 
L 500 4441 
Q 881 4594 1212 4672 
Q 1544 4750 1819 4750 
Q 2544 4750 2975 4387 
Q 3406 4025 3406 3419 
Q 3406 3131 3298 2873 
Q 3191 2616 2906 2266 
Q 2828 2175 2409 1742 
Q 1991 1309 1228 531 
z
" transform="scale(0.015625)"/>
       </defs>
       <use xlink:href="#DejaVuSans-30"/>
       <use xlink:href="#DejaVuSans-2e" x="63.623047"/>
       <use xlink:href="#DejaVuSans-32" x="95.410156"/>
      </g>
     </g>
    </g>
    <g id="xtick_3">
     <g id="line2d_3">
      <g>
       <use xlink:href="#m3ed7557726" x="196.238295" y="273.312" style="stroke: #000000; stroke-width: 0.8"/>
      </g>
     </g>
     <g id="text_3">
      <!-- 0.4 -->
      <g transform="translate(188.286733 287.910437)scale(0.1 -0.1)">
       <defs>
        <path id="DejaVuSans-34" d="M 2419 4116 
L 825 1625 
L 2419 1625 
L 2419 4116 
z
M 2253 4666 
L 3047 4666 
L 3047 1625 
L 3713 1625 
L 3713 1100 
L 3047 1100 
L 3047 0 
L 2419 0 
L 2419 1100 
L 313 1100 
L 313 1709 
L 2253 4666 
z
" transform="scale(0.015625)"/>
       </defs>
       <use xlink:href="#DejaVuSans-30"/>
       <use xlink:href="#DejaVuSans-2e" x="63.623047"/>
       <use xlink:href="#DejaVuSans-34" x="95.410156"/>
      </g>
     </g>
    </g>
    <g id="xtick_4">
     <g id="line2d_4">
      <g>
       <use xlink:href="#m3ed7557726" x="261.169205" y="273.312" style="stroke: #000000; stroke-width: 0.8"/>
      </g>
     </g>
     <g id="text_4">
      <!-- 0.6 -->
      <g transform="translate(253.217642 287.910437)scale(0.1 -0.1)">
       <defs>
        <path id="DejaVuSans-36" d="M 2113 2584 
Q 1688 2584 1439 2293 
Q 1191 2003 1191 1497 
Q 1191 994 1439 701 
Q 1688 409 2113 409 
Q 2538 409 2786 701 
Q 3034 994 3034 1497 
Q 3034 2003 2786 2293 
Q 2538 2584 2113 2584 
z
M 3366 4563 
L 3366 3988 
Q 3128 4100 2886 4159 
Q 2644 4219 2406 4219 
Q 1781 4219 1451 3797 
Q 1122 3375 1075 2522 
Q 1259 2794 1537 2939 
Q 1816 3084 2150 3084 
Q 2853 3084 3261 2657 
Q 3669 2231 3669 1497 
Q 3669 778 3244 343 
Q 2819 -91 2113 -91 
Q 1303 -91 875 529 
Q 447 1150 447 2328 
Q 447 3434 972 4092 
Q 1497 4750 2381 4750 
Q 2619 4750 2861 4703 
Q 3103 4656 3366 4563 
z
" transform="scale(0.015625)"/>
       </defs>
       <use xlink:href="#DejaVuSans-30"/>
       <use xlink:href="#DejaVuSans-2e" x="63.623047"/>
       <use xlink:href="#DejaVuSans-36" x="95.410156"/>
      </g>
     </g>
    </g>
    <g id="xtick_5">
     <g id="line2d_5">
      <g>
       <use xlink:href="#m3ed7557726" x="326.100114" y="273.312" style="stroke: #000000; stroke-width: 0.8"/>
      </g>
     </g>
     <g id="text_5">
      <!-- 0.8 -->
      <g transform="translate(318.148551 287.910437)scale(0.1 -0.1)">
       <defs>
        <path id="DejaVuSans-38" d="M 2034 2216 
Q 1584 2216 1326 1975 
Q 1069 1734 1069 1313 
Q 1069 891 1326 650 
Q 1584 409 2034 409 
Q 2484 409 2743 651 
Q 3003 894 3003 1313 
Q 3003 1734 2745 1975 
Q 2488 2216 2034 2216 
z
M 1403 2484 
Q 997 2584 770 2862 
Q 544 3141 544 3541 
Q 544 4100 942 4425 
Q 1341 4750 2034 4750 
Q 2731 4750 3128 4425 
Q 3525 4100 3525 3541 
Q 3525 3141 3298 2862 
Q 3072 2584 2669 2484 
Q 3125 2378 3379 2068 
Q 3634 1759 3634 1313 
Q 3634 634 3220 271 
Q 2806 -91 2034 -91 
Q 1263 -91 848 271 
Q 434 634 434 1313 
Q 434 1759 690 2068 
Q 947 2378 1403 2484 
z
M 1172 3481 
Q 1172 3119 1398 2916 
Q 1625 2713 2034 2713 
Q 2441 2713 2670 2916 
Q 2900 3119 2900 3481 
Q 2900 3844 2670 4047 
Q 2441 4250 2034 4250 
Q 1625 4250 1398 4047 
Q 1172 3844 1172 3481 
z
" transform="scale(0.015625)"/>
       </defs>
       <use xlink:href="#DejaVuSans-30"/>
       <use xlink:href="#DejaVuSans-2e" x="63.623047"/>
       <use xlink:href="#DejaVuSans-38" x="95.410156"/>
      </g>
     </g>
    </g>
    <g id="xtick_6">
     <g id="line2d_6">
      <g>
       <use xlink:href="#m3ed7557726" x="391.031023" y="273.312" style="stroke: #000000; stroke-width: 0.8"/>
      </g>
     </g>
     <g id="text_6">
      <!-- 1.0 -->
      <g transform="translate(383.07946 287.910437)scale(0.1 -0.1)">
       <defs>
        <path id="DejaVuSans-31" d="M 794 531 
L 1825 531 
L 1825 4091 
L 703 3866 
L 703 4441 
L 1819 4666 
L 2450 4666 
L 2450 531 
L 3481 531 
L 3481 0 
L 794 0 
L 794 531 
z
" transform="scale(0.015625)"/>
       </defs>
       <use xlink:href="#DejaVuSans-31"/>
       <use xlink:href="#DejaVuSans-2e" x="63.623047"/>
       <use xlink:href="#DejaVuSans-30" x="95.410156"/>
      </g>
     </g>
    </g>
    <g id="text_7">
     <!-- Propagation direction -->
     <g transform="translate(175.221719 301.588562)scale(0.1 -0.1)">
      <defs>
       <path id="DejaVuSans-50" d="M 1259 4147 
L 1259 2394 
L 2053 2394 
Q 2494 2394 2734 2622 
Q 2975 2850 2975 3272 
Q 2975 3691 2734 3919 
Q 2494 4147 2053 4147 
L 1259 4147 
z
M 628 4666 
L 2053 4666 
Q 2838 4666 3239 4311 
Q 3641 3956 3641 3272 
Q 3641 2581 3239 2228 
Q 2838 1875 2053 1875 
L 1259 1875 
L 1259 0 
L 628 0 
L 628 4666 
z
" transform="scale(0.015625)"/>
       <path id="DejaVuSans-72" d="M 2631 2963 
Q 2534 3019 2420 3045 
Q 2306 3072 2169 3072 
Q 1681 3072 1420 2755 
Q 1159 2438 1159 1844 
L 1159 0 
L 581 0 
L 581 3500 
L 1159 3500 
L 1159 2956 
Q 1341 3275 1631 3429 
Q 1922 3584 2338 3584 
Q 2397 3584 2469 3576 
Q 2541 3569 2628 3553 
L 2631 2963 
z
" transform="scale(0.015625)"/>
       <path id="DejaVuSans-6f" d="M 1959 3097 
Q 1497 3097 1228 2736 
Q 959 2375 959 1747 
Q 959 1119 1226 758 
Q 1494 397 1959 397 
Q 2419 397 2687 759 
Q 2956 1122 2956 1747 
Q 2956 2369 2687 2733 
Q 2419 3097 1959 3097 
z
M 1959 3584 
Q 2709 3584 3137 3096 
Q 3566 2609 3566 1747 
Q 3566 888 3137 398 
Q 2709 -91 1959 -91 
Q 1206 -91 779 398 
Q 353 888 353 1747 
Q 353 2609 779 3096 
Q 1206 3584 1959 3584 
z
" transform="scale(0.015625)"/>
       <path id="DejaVuSans-70" d="M 1159 525 
L 1159 -1331 
L 581 -1331 
L 581 3500 
L 1159 3500 
L 1159 2969 
Q 1341 3281 1617 3432 
Q 1894 3584 2278 3584 
Q 2916 3584 3314 3078 
Q 3713 2572 3713 1747 
Q 3713 922 3314 415 
Q 2916 -91 2278 -91 
Q 1894 -91 1617 61 
Q 1341 213 1159 525 
z
M 3116 1747 
Q 3116 2381 2855 2742 
Q 2594 3103 2138 3103 
Q 1681 3103 1420 2742 
Q 1159 2381 1159 1747 
Q 1159 1113 1420 752 
Q 1681 391 2138 391 
Q 2594 391 2855 752 
Q 3116 1113 3116 1747 
z
" transform="scale(0.015625)"/>
       <path id="DejaVuSans-61" d="M 2194 1759 
Q 1497 1759 1228 1600 
Q 959 1441 959 1056 
Q 959 750 1161 570 
Q 1363 391 1709 391 
Q 2188 391 2477 730 
Q 2766 1069 2766 1631 
L 2766 1759 
L 2194 1759 
z
M 3341 1997 
L 3341 0 
L 2766 0 
L 2766 531 
Q 2569 213 2275 61 
Q 1981 -91 1556 -91 
Q 1019 -91 701 211 
Q 384 513 384 1019 
Q 384 1609 779 1909 
Q 1175 2209 1959 2209 
L 2766 2209 
L 2766 2266 
Q 2766 2663 2505 2880 
Q 2244 3097 1772 3097 
Q 1472 3097 1187 3025 
Q 903 2953 641 2809 
L 641 3341 
Q 956 3463 1253 3523 
Q 1550 3584 1831 3584 
Q 2591 3584 2966 3190 
Q 3341 2797 3341 1997 
z
" transform="scale(0.015625)"/>
       <path id="DejaVuSans-67" d="M 2906 1791 
Q 2906 2416 2648 2759 
Q 2391 3103 1925 3103 
Q 1463 3103 1205 2759 
Q 947 2416 947 1791 
Q 947 1169 1205 825 
Q 1463 481 1925 481 
Q 2391 481 2648 825 
Q 2906 1169 2906 1791 
z
M 3481 434 
Q 3481 -459 3084 -895 
Q 2688 -1331 1869 -1331 
Q 1566 -1331 1297 -1286 
Q 1028 -1241 775 -1147 
L 775 -588 
Q 1028 -725 1275 -790 
Q 1522 -856 1778 -856 
Q 2344 -856 2625 -561 
Q 2906 -266 2906 331 
L 2906 616 
Q 2728 306 2450 153 
Q 2172 0 1784 0 
Q 1141 0 747 490 
Q 353 981 353 1791 
Q 353 2603 747 3093 
Q 1141 3584 1784 3584 
Q 2172 3584 2450 3431 
Q 2728 3278 2906 2969 
L 2906 3500 
L 3481 3500 
L 3481 434 
z
" transform="scale(0.015625)"/>
       <path id="DejaVuSans-74" d="M 1172 4494 
L 1172 3500 
L 2356 3500 
L 2356 3053 
L 1172 3053 
L 1172 1153 
Q 1172 725 1289 603 
Q 1406 481 1766 481 
L 2356 481 
L 2356 0 
L 1766 0 
Q 1100 0 847 248 
Q 594 497 594 1153 
L 594 3053 
L 172 3053 
L 172 3500 
L 594 3500 
L 594 4494 
L 1172 4494 
z
" transform="scale(0.015625)"/>
       <path id="DejaVuSans-69" d="M 603 3500 
L 1178 3500 
L 1178 0 
L 603 0 
L 603 3500 
z
M 603 4863 
L 1178 4863 
L 1178 4134 
L 603 4134 
L 603 4863 
z
" transform="scale(0.015625)"/>
       <path id="DejaVuSans-6e" d="M 3513 2113 
L 3513 0 
L 2938 0 
L 2938 2094 
Q 2938 2591 2744 2837 
Q 2550 3084 2163 3084 
Q 1697 3084 1428 2787 
Q 1159 2491 1159 1978 
L 1159 0 
L 581 0 
L 581 3500 
L 1159 3500 
L 1159 2956 
Q 1366 3272 1645 3428 
Q 1925 3584 2291 3584 
Q 2894 3584 3203 3211 
Q 3513 2838 3513 2113 
z
" transform="scale(0.015625)"/>
       <path id="DejaVuSans-20" transform="scale(0.015625)"/>
       <path id="DejaVuSans-64" d="M 2906 2969 
L 2906 4863 
L 3481 4863 
L 3481 0 
L 2906 0 
L 2906 525 
Q 2725 213 2448 61 
Q 2172 -91 1784 -91 
Q 1150 -91 751 415 
Q 353 922 353 1747 
Q 353 2572 751 3078 
Q 1150 3584 1784 3584 
Q 2172 3584 2448 3432 
Q 2725 3281 2906 2969 
z
M 947 1747 
Q 947 1113 1208 752 
Q 1469 391 1925 391 
Q 2381 391 2643 752 
Q 2906 1113 2906 1747 
Q 2906 2381 2643 2742 
Q 2381 3103 1925 3103 
Q 1469 3103 1208 2742 
Q 947 2381 947 1747 
z
" transform="scale(0.015625)"/>
       <path id="DejaVuSans-65" d="M 3597 1894 
L 3597 1613 
L 953 1613 
Q 991 1019 1311 708 
Q 1631 397 2203 397 
Q 2534 397 2845 478 
Q 3156 559 3463 722 
L 3463 178 
Q 3153 47 2828 -22 
Q 2503 -91 2169 -91 
Q 1331 -91 842 396 
Q 353 884 353 1716 
Q 353 2575 817 3079 
Q 1281 3584 2069 3584 
Q 2775 3584 3186 3129 
Q 3597 2675 3597 1894 
z
M 3022 2063 
Q 3016 2534 2758 2815 
Q 2500 3097 2075 3097 
Q 1594 3097 1305 2825 
Q 1016 2553 972 2059 
L 3022 2063 
z
" transform="scale(0.015625)"/>
       <path id="DejaVuSans-63" d="M 3122 3366 
L 3122 2828 
Q 2878 2963 2633 3030 
Q 2388 3097 2138 3097 
Q 1578 3097 1268 2742 
Q 959 2388 959 1747 
Q 959 1106 1268 751 
Q 1578 397 2138 397 
Q 2388 397 2633 464 
Q 2878 531 3122 666 
L 3122 134 
Q 2881 22 2623 -34 
Q 2366 -91 2075 -91 
Q 1284 -91 818 406 
Q 353 903 353 1747 
Q 353 2603 823 3093 
Q 1294 3584 2113 3584 
Q 2378 3584 2631 3529 
Q 2884 3475 3122 3366 
z
" transform="scale(0.015625)"/>
      </defs>
      <use xlink:href="#DejaVuSans-50"/>
      <use xlink:href="#DejaVuSans-72" x="58.552734"/>
      <use xlink:href="#DejaVuSans-6f" x="97.416016"/>
      <use xlink:href="#DejaVuSans-70" x="158.597656"/>
      <use xlink:href="#DejaVuSans-61" x="222.074219"/>
      <use xlink:href="#DejaVuSans-67" x="283.353516"/>
      <use xlink:href="#DejaVuSans-61" x="346.830078"/>
      <use xlink:href="#DejaVuSans-74" x="408.109375"/>
      <use xlink:href="#DejaVuSans-69" x="447.318359"/>
      <use xlink:href="#DejaVuSans-6f" x="475.101562"/>
      <use xlink:href="#DejaVuSans-6e" x="536.283203"/>
      <use xlink:href="#DejaVuSans-20" x="599.662109"/>
      <use xlink:href="#DejaVuSans-64" x="631.449219"/>
      <use xlink:href="#DejaVuSans-69" x="694.925781"/>
      <use xlink:href="#DejaVuSans-72" x="722.708984"/>
      <use xlink:href="#DejaVuSans-65" x="761.572266"/>
      <use xlink:href="#DejaVuSans-63" x="823.095703"/>
      <use xlink:href="#DejaVuSans-74" x="878.076172"/>
      <use xlink:href="#DejaVuSans-69" x="917.285156"/>
      <use xlink:href="#DejaVuSans-6f" x="945.068359"/>
      <use xlink:href="#DejaVuSans-6e" x="1006.25"/>
     </g>
    </g>
   </g>
   <g id="matplotlib.axis_2">
    <g id="ytick_1">
     <g id="line2d_7">
      <defs>
       <path id="mee0e8c532d" d="M 0 0 
L -3.5 0 
" style="stroke: #000000; stroke-width: 0.8"/>
      </defs>
      <g>
       <use xlink:href="#mee0e8c532d" x="50.14375" y="273.312" style="stroke: #000000; stroke-width: 0.8"/>
      </g>
     </g>
     <g id="text_8">
      <!-- 0.00 -->
      <g transform="translate(20.878125 277.111219)scale(0.1 -0.1)">
       <use xlink:href="#DejaVuSans-30"/>
       <use xlink:href="#DejaVuSans-2e" x="63.623047"/>
       <use xlink:href="#DejaVuSans-30" x="95.410156"/>
       <use xlink:href="#DejaVuSans-30" x="159.033203"/>
      </g>
     </g>
    </g>
    <g id="ytick_2">
     <g id="line2d_8">
      <g>
       <use xlink:href="#mee0e8c532d" x="50.14375" y="242.184267" style="stroke: #000000; stroke-width: 0.8"/>
      </g>
     </g>
     <g id="text_9">
      <!-- 0.25 -->
      <g transform="translate(20.878125 245.983485)scale(0.1 -0.1)">
       <defs>
        <path id="DejaVuSans-35" d="M 691 4666 
L 3169 4666 
L 3169 4134 
L 1269 4134 
L 1269 2991 
Q 1406 3038 1543 3061 
Q 1681 3084 1819 3084 
Q 2600 3084 3056 2656 
Q 3513 2228 3513 1497 
Q 3513 744 3044 326 
Q 2575 -91 1722 -91 
Q 1428 -91 1123 -41 
Q 819 9 494 109 
L 494 744 
Q 775 591 1075 516 
Q 1375 441 1709 441 
Q 2250 441 2565 725 
Q 2881 1009 2881 1497 
Q 2881 1984 2565 2268 
Q 2250 2553 1709 2553 
Q 1456 2553 1204 2497 
Q 953 2441 691 2322 
L 691 4666 
z
" transform="scale(0.015625)"/>
       </defs>
       <use xlink:href="#DejaVuSans-30"/>
       <use xlink:href="#DejaVuSans-2e" x="63.623047"/>
       <use xlink:href="#DejaVuSans-32" x="95.410156"/>
       <use xlink:href="#DejaVuSans-35" x="159.033203"/>
      </g>
     </g>
    </g>
    <g id="ytick_3">
     <g id="line2d_9">
      <g>
       <use xlink:href="#mee0e8c532d" x="50.14375" y="211.056533" style="stroke: #000000; stroke-width: 0.8"/>
      </g>
     </g>
     <g id="text_10">
      <!-- 0.50 -->
      <g transform="translate(20.878125 214.855752)scale(0.1 -0.1)">
       <use xlink:href="#DejaVuSans-30"/>
       <use xlink:href="#DejaVuSans-2e" x="63.623047"/>
       <use xlink:href="#DejaVuSans-35" x="95.410156"/>
       <use xlink:href="#DejaVuSans-30" x="159.033203"/>
      </g>
     </g>
    </g>
    <g id="ytick_4">
     <g id="line2d_10">
      <g>
       <use xlink:href="#mee0e8c532d" x="50.14375" y="179.9288" style="stroke: #000000; stroke-width: 0.8"/>
      </g>
     </g>
     <g id="text_11">
      <!-- 0.75 -->
      <g transform="translate(20.878125 183.728019)scale(0.1 -0.1)">
       <defs>
        <path id="DejaVuSans-37" d="M 525 4666 
L 3525 4666 
L 3525 4397 
L 1831 0 
L 1172 0 
L 2766 4134 
L 525 4134 
L 525 4666 
z
" transform="scale(0.015625)"/>
       </defs>
       <use xlink:href="#DejaVuSans-30"/>
       <use xlink:href="#DejaVuSans-2e" x="63.623047"/>
       <use xlink:href="#DejaVuSans-37" x="95.410156"/>
       <use xlink:href="#DejaVuSans-35" x="159.033203"/>
      </g>
     </g>
    </g>
    <g id="ytick_5">
     <g id="line2d_11">
      <g>
       <use xlink:href="#mee0e8c532d" x="50.14375" y="148.801067" style="stroke: #000000; stroke-width: 0.8"/>
      </g>
     </g>
     <g id="text_12">
      <!-- 1.00 -->
      <g transform="translate(20.878125 152.600285)scale(0.1 -0.1)">
       <use xlink:href="#DejaVuSans-31"/>
       <use xlink:href="#DejaVuSans-2e" x="63.623047"/>
       <use xlink:href="#DejaVuSans-30" x="95.410156"/>
       <use xlink:href="#DejaVuSans-30" x="159.033203"/>
      </g>
     </g>
    </g>
    <g id="ytick_6">
     <g id="line2d_12">
      <g>
       <use xlink:href="#mee0e8c532d" x="50.14375" y="117.673333" style="stroke: #000000; stroke-width: 0.8"/>
      </g>
     </g>
     <g id="text_13">
      <!-- 1.25 -->
      <g transform="translate(20.878125 121.472552)scale(0.1 -0.1)">
       <use xlink:href="#DejaVuSans-31"/>
       <use xlink:href="#DejaVuSans-2e" x="63.623047"/>
       <use xlink:href="#DejaVuSans-32" x="95.410156"/>
       <use xlink:href="#DejaVuSans-35" x="159.033203"/>
      </g>
     </g>
    </g>
    <g id="ytick_7">
     <g id="line2d_13">
      <g>
       <use xlink:href="#mee0e8c532d" x="50.14375" y="86.5456" style="stroke: #000000; stroke-width: 0.8"/>
      </g>
     </g>
     <g id="text_14">
      <!-- 1.50 -->
      <g transform="translate(20.878125 90.344819)scale(0.1 -0.1)">
       <use xlink:href="#DejaVuSans-31"/>
       <use xlink:href="#DejaVuSans-2e" x="63.623047"/>
       <use xlink:href="#DejaVuSans-35" x="95.410156"/>
       <use xlink:href="#DejaVuSans-30" x="159.033203"/>
      </g>
     </g>
    </g>
    <g id="ytick_8">
     <g id="line2d_14">
      <g>
       <use xlink:href="#mee0e8c532d" x="50.14375" y="55.417867" style="stroke: #000000; stroke-width: 0.8"/>
      </g>
     </g>
     <g id="text_15">
      <!-- 1.75 -->
      <g transform="translate(20.878125 59.217085)scale(0.1 -0.1)">
       <use xlink:href="#DejaVuSans-31"/>
       <use xlink:href="#DejaVuSans-2e" x="63.623047"/>
       <use xlink:href="#DejaVuSans-37" x="95.410156"/>
       <use xlink:href="#DejaVuSans-35" x="159.033203"/>
      </g>
     </g>
    </g>
    <g id="ytick_9">
     <g id="line2d_15">
      <g>
       <use xlink:href="#mee0e8c532d" x="50.14375" y="24.290133" style="stroke: #000000; stroke-width: 0.8"/>
      </g>
     </g>
     <g id="text_16">
      <!-- 2.00 -->
      <g transform="translate(20.878125 28.089352)scale(0.1 -0.1)">
       <use xlink:href="#DejaVuSans-32"/>
       <use xlink:href="#DejaVuSans-2e" x="63.623047"/>
       <use xlink:href="#DejaVuSans-30" x="95.410156"/>
       <use xlink:href="#DejaVuSans-30" x="159.033203"/>
      </g>
     </g>
    </g>
    <g id="text_17">
     <!-- Probability density -->
     <g transform="translate(14.798438 186.606781)rotate(-90)scale(0.1 -0.1)">
      <defs>
       <path id="DejaVuSans-62" d="M 3116 1747 
Q 3116 2381 2855 2742 
Q 2594 3103 2138 3103 
Q 1681 3103 1420 2742 
Q 1159 2381 1159 1747 
Q 1159 1113 1420 752 
Q 1681 391 2138 391 
Q 2594 391 2855 752 
Q 3116 1113 3116 1747 
z
M 1159 2969 
Q 1341 3281 1617 3432 
Q 1894 3584 2278 3584 
Q 2916 3584 3314 3078 
Q 3713 2572 3713 1747 
Q 3713 922 3314 415 
Q 2916 -91 2278 -91 
Q 1894 -91 1617 61 
Q 1341 213 1159 525 
L 1159 0 
L 581 0 
L 581 4863 
L 1159 4863 
L 1159 2969 
z
" transform="scale(0.015625)"/>
       <path id="DejaVuSans-6c" d="M 603 4863 
L 1178 4863 
L 1178 0 
L 603 0 
L 603 4863 
z
" transform="scale(0.015625)"/>
       <path id="DejaVuSans-79" d="M 2059 -325 
Q 1816 -950 1584 -1140 
Q 1353 -1331 966 -1331 
L 506 -1331 
L 506 -850 
L 844 -850 
Q 1081 -850 1212 -737 
Q 1344 -625 1503 -206 
L 1606 56 
L 191 3500 
L 800 3500 
L 1894 763 
L 2988 3500 
L 3597 3500 
L 2059 -325 
z
" transform="scale(0.015625)"/>
       <path id="DejaVuSans-73" d="M 2834 3397 
L 2834 2853 
Q 2591 2978 2328 3040 
Q 2066 3103 1784 3103 
Q 1356 3103 1142 2972 
Q 928 2841 928 2578 
Q 928 2378 1081 2264 
Q 1234 2150 1697 2047 
L 1894 2003 
Q 2506 1872 2764 1633 
Q 3022 1394 3022 966 
Q 3022 478 2636 193 
Q 2250 -91 1575 -91 
Q 1294 -91 989 -36 
Q 684 19 347 128 
L 347 722 
Q 666 556 975 473 
Q 1284 391 1588 391 
Q 1994 391 2212 530 
Q 2431 669 2431 922 
Q 2431 1156 2273 1281 
Q 2116 1406 1581 1522 
L 1381 1569 
Q 847 1681 609 1914 
Q 372 2147 372 2553 
Q 372 3047 722 3315 
Q 1072 3584 1716 3584 
Q 2034 3584 2315 3537 
Q 2597 3491 2834 3397 
z
" transform="scale(0.015625)"/>
      </defs>
      <use xlink:href="#DejaVuSans-50"/>
      <use xlink:href="#DejaVuSans-72" x="58.552734"/>
      <use xlink:href="#DejaVuSans-6f" x="97.416016"/>
      <use xlink:href="#DejaVuSans-62" x="158.597656"/>
      <use xlink:href="#DejaVuSans-61" x="222.074219"/>
      <use xlink:href="#DejaVuSans-62" x="283.353516"/>
      <use xlink:href="#DejaVuSans-69" x="346.830078"/>
      <use xlink:href="#DejaVuSans-6c" x="374.613281"/>
      <use xlink:href="#DejaVuSans-69" x="402.396484"/>
      <use xlink:href="#DejaVuSans-74" x="430.179688"/>
      <use xlink:href="#DejaVuSans-79" x="469.388672"/>
      <use xlink:href="#DejaVuSans-20" x="528.568359"/>
      <use xlink:href="#DejaVuSans-64" x="560.355469"/>
      <use xlink:href="#DejaVuSans-65" x="623.832031"/>
      <use xlink:href="#DejaVuSans-6e" x="685.355469"/>
      <use xlink:href="#DejaVuSans-73" x="748.734375"/>
      <use xlink:href="#DejaVuSans-69" x="800.833984"/>
      <use xlink:href="#DejaVuSans-74" x="828.617188"/>
      <use xlink:href="#DejaVuSans-79" x="867.826172"/>
     </g>
    </g>
   </g>
   <g id="line2d_16">
    <path d="M 66.376477 273.312 
L 391.031023 24.290133 
L 391.031023 24.290133 
" clip-path="url(#paa5eb7760d)" style="fill: none; stroke: #ff7f0e; stroke-width: 1.5; stroke-linecap: square"/>
   </g>
   <g id="patch_203">
    <path d="M 50.14375 273.312 
L 50.14375 7.2 
" style="fill: none; stroke: #000000; stroke-width: 0.8; stroke-linejoin: miter; stroke-linecap: square"/>
   </g>
   <g id="patch_204">
    <path d="M 407.26375 273.312 
L 407.26375 7.2 
" style="fill: none; stroke: #000000; stroke-width: 0.8; stroke-linejoin: miter; stroke-linecap: square"/>
   </g>
   <g id="patch_205">
    <path d="M 50.14375 273.312 
L 407.26375 273.312 
" style="fill: none; stroke: #000000; stroke-width: 0.8; stroke-linejoin: miter; stroke-linecap: square"/>
   </g>
   <g id="patch_206">
    <path d="M 50.14375 7.2 
L 407.26375 7.2 
" style="fill: none; stroke: #000000; stroke-width: 0.8; stroke-linejoin: miter; stroke-linecap: square"/>
   </g>
  </g>
 </g>
 <defs>
  <clipPath id="paa5eb7760d">
   <rect x="50.14375" y="7.2" width="357.12" height="266.112"/>
  </clipPath>
 </defs>
</svg>
