<?xml version="1.0" encoding="utf-8" standalone="no"?>
<!DOCTYPE svg PUBLIC "-//W3C//DTD SVG 1.1//EN"
  "http://www.w3.org/Graphics/SVG/1.1/DTD/svg11.dtd">
<svg xmlns:xlink="http://www.w3.org/1999/xlink" width="408.10125pt" height="310.86825pt" viewBox="0 0 408.10125 310.86825" xmlns="http://www.w3.org/2000/svg" version="1.1">
 <metadata>
  <rdf:RDF xmlns:dc="http://purl.org/dc/elements/1.1/" xmlns:cc="http://creativecommons.org/ns#" xmlns:rdf="http://www.w3.org/1999/02/22-rdf-syntax-ns#">
   <cc:Work>
    <dc:type rdf:resource="http://purl.org/dc/dcmitype/StillImage"/>
    <dc:date>2022-05-15T00:08:21.999938</dc:date>
    <dc:format>image/svg+xml</dc:format>
    <dc:creator>
     <cc:Agent>
      <dc:title>Matplotlib v3.5.2, https://matplotlib.org/</dc:title>
     </cc:Agent>
    </dc:creator>
   </cc:Work>
  </rdf:RDF>
 </metadata>
 <defs>
  <style type="text/css">*{stroke-linejoin: round; stroke-linecap: butt}</style>
 </defs>
 <g id="figure_1">
  <g id="patch_1">
   <path d="M 0 310.86825 
L 408.10125 310.86825 
L 408.10125 0 
L 0 0 
z
" style="fill: #ffffff"/>
  </g>
  <g id="axes_1">
   <g id="patch_2">
    <path d="M 43.78125 273.312 
L 400.90125 273.312 
L 400.90125 7.2 
L 43.78125 7.2 
z
" style="fill: #ffffff"/>
   </g>
   <g id="patch_3">
    <path d="M 61.150164 273.312 
L 62.764804 273.312 
L 62.764804 268.929752 
L 61.150164 268.929752 
z
" clip-path="url(#p7892d697c6)" style="fill: #1f77b4"/>
   </g>
   <g id="patch_4">
    <path d="M 62.764804 273.312 
L 64.379443 273.312 
L 64.379443 268.199378 
L 62.764804 268.199378 
z
" clip-path="url(#p7892d697c6)" style="fill: #1f77b4"/>
   </g>
   <g id="patch_5">
    <path d="M 64.379443 273.312 
L 65.994083 273.312 
L 65.994083 258.704507 
L 64.379443 258.704507 
z
" clip-path="url(#p7892d697c6)" style="fill: #1f77b4"/>
   </g>
   <g id="patch_6">
    <path d="M 65.994083 273.312 
L 67.608722 273.312 
L 67.608722 260.895631 
L 65.994083 260.895631 
z
" clip-path="url(#p7892d697c6)" style="fill: #1f77b4"/>
   </g>
   <g id="patch_7">
    <path d="M 67.608722 273.312 
L 69.223362 273.312 
L 69.223362 251.400761 
L 67.608722 251.400761 
z
" clip-path="url(#p7892d697c6)" style="fill: #1f77b4"/>
   </g>
   <g id="patch_8">
    <path d="M 69.223362 273.312 
L 70.838002 273.312 
L 70.838002 253.591885 
L 69.223362 253.591885 
z
" clip-path="url(#p7892d697c6)" style="fill: #1f77b4"/>
   </g>
   <g id="patch_9">
    <path d="M 70.838002 273.312 
L 72.452641 273.312 
L 72.452641 254.322259 
L 70.838002 254.322259 
z
" clip-path="url(#p7892d697c6)" style="fill: #1f77b4"/>
   </g>
   <g id="patch_10">
    <path d="M 72.452641 273.312 
L 74.067281 273.312 
L 74.067281 238.254017 
L 72.452641 238.254017 
z
" clip-path="url(#p7892d697c6)" style="fill: #1f77b4"/>
   </g>
   <g id="patch_11">
    <path d="M 74.067281 273.312 
L 75.68192 273.312 
L 75.68192 244.827389 
L 74.067281 244.827389 
z
" clip-path="url(#p7892d697c6)" style="fill: #1f77b4"/>
   </g>
   <g id="patch_12">
    <path d="M 75.68192 273.312 
L 77.29656 273.312 
L 77.29656 239.714767 
L 75.68192 239.714767 
z
" clip-path="url(#p7892d697c6)" style="fill: #1f77b4"/>
   </g>
   <g id="patch_13">
    <path d="M 77.29656 273.312 
L 78.911199 273.312 
L 78.911199 222.185775 
L 77.29656 222.185775 
z
" clip-path="url(#p7892d697c6)" style="fill: #1f77b4"/>
   </g>
   <g id="patch_14">
    <path d="M 78.911199 273.312 
L 80.525839 273.312 
L 80.525839 227.298398 
L 78.911199 227.298398 
z
" clip-path="url(#p7892d697c6)" style="fill: #1f77b4"/>
   </g>
   <g id="patch_15">
    <path d="M 80.525839 273.312 
L 82.140478 273.312 
L 82.140478 244.097014 
L 80.525839 244.097014 
z
" clip-path="url(#p7892d697c6)" style="fill: #1f77b4"/>
   </g>
   <g id="patch_16">
    <path d="M 82.140478 273.312 
L 83.755118 273.312 
L 83.755118 217.803527 
L 82.140478 217.803527 
z
" clip-path="url(#p7892d697c6)" style="fill: #1f77b4"/>
   </g>
   <g id="patch_17">
    <path d="M 83.755118 273.312 
L 85.369757 273.312 
L 85.369757 214.151654 
L 83.755118 214.151654 
z
" clip-path="url(#p7892d697c6)" style="fill: #1f77b4"/>
   </g>
   <g id="patch_18">
    <path d="M 85.369757 273.312 
L 86.984397 273.312 
L 86.984397 218.533902 
L 85.369757 218.533902 
z
" clip-path="url(#p7892d697c6)" style="fill: #1f77b4"/>
   </g>
   <g id="patch_19">
    <path d="M 86.984397 273.312 
L 88.599036 273.312 
L 88.599036 217.073153 
L 86.984397 217.073153 
z
" clip-path="url(#p7892d697c6)" style="fill: #1f77b4"/>
   </g>
   <g id="patch_20">
    <path d="M 88.599036 273.312 
L 90.213676 273.312 
L 90.213676 213.42128 
L 88.599036 213.42128 
z
" clip-path="url(#p7892d697c6)" style="fill: #1f77b4"/>
   </g>
   <g id="patch_21">
    <path d="M 90.213676 273.312 
L 91.828315 273.312 
L 91.828315 199.544161 
L 90.213676 199.544161 
z
" clip-path="url(#p7892d697c6)" style="fill: #1f77b4"/>
   </g>
   <g id="patch_22">
    <path d="M 91.828315 273.312 
L 93.442955 273.312 
L 93.442955 200.274536 
L 91.828315 200.274536 
z
" clip-path="url(#p7892d697c6)" style="fill: #1f77b4"/>
   </g>
   <g id="patch_23">
    <path d="M 93.442955 273.312 
L 95.057594 273.312 
L 95.057594 202.46566 
L 93.442955 202.46566 
z
" clip-path="url(#p7892d697c6)" style="fill: #1f77b4"/>
   </g>
   <g id="patch_24">
    <path d="M 95.057594 273.312 
L 96.672234 273.312 
L 96.672234 198.083412 
L 95.057594 198.083412 
z
" clip-path="url(#p7892d697c6)" style="fill: #1f77b4"/>
   </g>
   <g id="patch_25">
    <path d="M 96.672234 273.312 
L 98.286873 273.312 
L 98.286873 192.97079 
L 96.672234 192.97079 
z
" clip-path="url(#p7892d697c6)" style="fill: #1f77b4"/>
   </g>
   <g id="patch_26">
    <path d="M 98.286873 273.312 
L 99.901513 273.312 
L 99.901513 187.127793 
L 98.286873 187.127793 
z
" clip-path="url(#p7892d697c6)" style="fill: #1f77b4"/>
   </g>
   <g id="patch_27">
    <path d="M 99.901513 273.312 
L 101.516152 273.312 
L 101.516152 173.981049 
L 99.901513 173.981049 
z
" clip-path="url(#p7892d697c6)" style="fill: #1f77b4"/>
   </g>
   <g id="patch_28">
    <path d="M 101.516152 273.312 
L 103.130792 273.312 
L 103.130792 179.824046 
L 101.516152 179.824046 
z
" clip-path="url(#p7892d697c6)" style="fill: #1f77b4"/>
   </g>
   <g id="patch_29">
    <path d="M 103.130792 273.312 
L 104.745431 273.312 
L 104.745431 180.554421 
L 103.130792 180.554421 
z
" clip-path="url(#p7892d697c6)" style="fill: #1f77b4"/>
   </g>
   <g id="patch_30">
    <path d="M 104.745431 273.312 
L 106.360071 273.312 
L 106.360071 169.598801 
L 104.745431 169.598801 
z
" clip-path="url(#p7892d697c6)" style="fill: #1f77b4"/>
   </g>
   <g id="patch_31">
    <path d="M 106.360071 273.312 
L 107.97471 273.312 
L 107.97471 176.902548 
L 106.360071 176.902548 
z
" clip-path="url(#p7892d697c6)" style="fill: #1f77b4"/>
   </g>
   <g id="patch_32">
    <path d="M 107.97471 273.312 
L 109.58935 273.312 
L 109.58935 168.868427 
L 107.97471 168.868427 
z
" clip-path="url(#p7892d697c6)" style="fill: #1f77b4"/>
   </g>
   <g id="patch_33">
    <path d="M 109.58935 273.312 
L 111.203989 273.312 
L 111.203989 168.868427 
L 109.58935 168.868427 
z
" clip-path="url(#p7892d697c6)" style="fill: #1f77b4"/>
   </g>
   <g id="patch_34">
    <path d="M 111.203989 273.312 
L 112.818629 273.312 
L 112.818629 156.452058 
L 111.203989 156.452058 
z
" clip-path="url(#p7892d697c6)" style="fill: #1f77b4"/>
   </g>
   <g id="patch_35">
    <path d="M 112.818629 273.312 
L 114.433269 273.312 
L 114.433269 152.800184 
L 112.818629 152.800184 
z
" clip-path="url(#p7892d697c6)" style="fill: #1f77b4"/>
   </g>
   <g id="patch_36">
    <path d="M 114.433269 273.312 
L 116.047908 273.312 
L 116.047908 160.103931 
L 114.433269 160.103931 
z
" clip-path="url(#p7892d697c6)" style="fill: #1f77b4"/>
   </g>
   <g id="patch_37">
    <path d="M 116.047908 273.312 
L 117.662548 273.312 
L 117.662548 160.103931 
L 116.047908 160.103931 
z
" clip-path="url(#p7892d697c6)" style="fill: #1f77b4"/>
   </g>
   <g id="patch_38">
    <path d="M 117.662548 273.312 
L 119.277187 273.312 
L 119.277187 159.373556 
L 117.662548 159.373556 
z
" clip-path="url(#p7892d697c6)" style="fill: #1f77b4"/>
   </g>
   <g id="patch_39">
    <path d="M 119.277187 273.312 
L 120.891827 273.312 
L 120.891827 133.810444 
L 119.277187 133.810444 
z
" clip-path="url(#p7892d697c6)" style="fill: #1f77b4"/>
   </g>
   <g id="patch_40">
    <path d="M 120.891827 273.312 
L 122.506466 273.312 
L 122.506466 133.810444 
L 120.891827 133.810444 
z
" clip-path="url(#p7892d697c6)" style="fill: #1f77b4"/>
   </g>
   <g id="patch_41">
    <path d="M 122.506466 273.312 
L 124.121106 273.312 
L 124.121106 125.776323 
L 122.506466 125.776323 
z
" clip-path="url(#p7892d697c6)" style="fill: #1f77b4"/>
   </g>
   <g id="patch_42">
    <path d="M 124.121106 273.312 
L 125.735745 273.312 
L 125.735745 132.349695 
L 124.121106 132.349695 
z
" clip-path="url(#p7892d697c6)" style="fill: #1f77b4"/>
   </g>
   <g id="patch_43">
    <path d="M 125.735745 273.312 
L 127.350385 273.312 
L 127.350385 152.06981 
L 125.735745 152.06981 
z
" clip-path="url(#p7892d697c6)" style="fill: #1f77b4"/>
   </g>
   <g id="patch_44">
    <path d="M 127.350385 273.312 
L 128.965024 273.312 
L 128.965024 160.834305 
L 127.350385 160.834305 
z
" clip-path="url(#p7892d697c6)" style="fill: #1f77b4"/>
   </g>
   <g id="patch_45">
    <path d="M 128.965024 273.312 
L 130.579664 273.312 
L 130.579664 119.202951 
L 128.965024 119.202951 
z
" clip-path="url(#p7892d697c6)" style="fill: #1f77b4"/>
   </g>
   <g id="patch_46">
    <path d="M 130.579664 273.312 
L 132.194303 273.312 
L 132.194303 103.865084 
L 130.579664 103.865084 
z
" clip-path="url(#p7892d697c6)" style="fill: #1f77b4"/>
   </g>
   <g id="patch_47">
    <path d="M 132.194303 273.312 
L 133.808943 273.312 
L 133.808943 111.899205 
L 132.194303 111.899205 
z
" clip-path="url(#p7892d697c6)" style="fill: #1f77b4"/>
   </g>
   <g id="patch_48">
    <path d="M 133.808943 273.312 
L 135.423582 273.312 
L 135.423582 119.202951 
L 133.808943 119.202951 
z
" clip-path="url(#p7892d697c6)" style="fill: #1f77b4"/>
   </g>
   <g id="patch_49">
    <path d="M 135.423582 273.312 
L 137.038222 273.312 
L 137.038222 100.21321 
L 135.423582 100.21321 
z
" clip-path="url(#p7892d697c6)" style="fill: #1f77b4"/>
   </g>
   <g id="patch_50">
    <path d="M 137.038222 273.312 
L 138.652861 273.312 
L 138.652861 130.888945 
L 137.038222 130.888945 
z
" clip-path="url(#p7892d697c6)" style="fill: #1f77b4"/>
   </g>
   <g id="patch_51">
    <path d="M 138.652861 273.312 
L 140.267501 273.312 
L 140.267501 122.854824 
L 138.652861 122.854824 
z
" clip-path="url(#p7892d697c6)" style="fill: #1f77b4"/>
   </g>
   <g id="patch_52">
    <path d="M 140.267501 273.312 
L 141.88214 273.312 
L 141.88214 130.888945 
L 140.267501 130.888945 
z
" clip-path="url(#p7892d697c6)" style="fill: #1f77b4"/>
   </g>
   <g id="patch_53">
    <path d="M 141.88214 273.312 
L 143.49678 273.312 
L 143.49678 95.830963 
L 141.88214 95.830963 
z
" clip-path="url(#p7892d697c6)" style="fill: #1f77b4"/>
   </g>
   <g id="patch_54">
    <path d="M 143.49678 273.312 
L 145.111419 273.312 
L 145.111419 92.909464 
L 143.49678 92.909464 
z
" clip-path="url(#p7892d697c6)" style="fill: #1f77b4"/>
   </g>
   <g id="patch_55">
    <path d="M 145.111419 273.312 
L 146.726059 273.312 
L 146.726059 98.022086 
L 145.111419 98.022086 
z
" clip-path="url(#p7892d697c6)" style="fill: #1f77b4"/>
   </g>
   <g id="patch_56">
    <path d="M 146.726059 273.312 
L 148.340698 273.312 
L 148.340698 95.830963 
L 146.726059 95.830963 
z
" clip-path="url(#p7892d697c6)" style="fill: #1f77b4"/>
   </g>
   <g id="patch_57">
    <path d="M 148.340698 273.312 
L 149.955338 273.312 
L 149.955338 92.179089 
L 148.340698 92.179089 
z
" clip-path="url(#p7892d697c6)" style="fill: #1f77b4"/>
   </g>
   <g id="patch_58">
    <path d="M 149.955338 273.312 
L 151.569977 273.312 
L 151.569977 92.179089 
L 149.955338 92.179089 
z
" clip-path="url(#p7892d697c6)" style="fill: #1f77b4"/>
   </g>
   <g id="patch_59">
    <path d="M 151.569977 273.312 
L 153.184617 273.312 
L 153.184617 107.516957 
L 151.569977 107.516957 
z
" clip-path="url(#p7892d697c6)" style="fill: #1f77b4"/>
   </g>
   <g id="patch_60">
    <path d="M 153.184617 273.312 
L 154.799256 273.312 
L 154.799256 88.527216 
L 153.184617 88.527216 
z
" clip-path="url(#p7892d697c6)" style="fill: #1f77b4"/>
   </g>
   <g id="patch_61">
    <path d="M 154.799256 273.312 
L 156.413896 273.312 
L 156.413896 99.482836 
L 154.799256 99.482836 
z
" clip-path="url(#p7892d697c6)" style="fill: #1f77b4"/>
   </g>
   <g id="patch_62">
    <path d="M 156.413896 273.312 
L 158.028535 273.312 
L 158.028535 73.919723 
L 156.413896 73.919723 
z
" clip-path="url(#p7892d697c6)" style="fill: #1f77b4"/>
   </g>
   <g id="patch_63">
    <path d="M 158.028535 273.312 
L 159.643175 273.312 
L 159.643175 99.482836 
L 158.028535 99.482836 
z
" clip-path="url(#p7892d697c6)" style="fill: #1f77b4"/>
   </g>
   <g id="patch_64">
    <path d="M 159.643175 273.312 
L 161.257815 273.312 
L 161.257815 90.71834 
L 159.643175 90.71834 
z
" clip-path="url(#p7892d697c6)" style="fill: #1f77b4"/>
   </g>
   <g id="patch_65">
    <path d="M 161.257815 273.312 
L 162.872454 273.312 
L 162.872454 95.830963 
L 161.257815 95.830963 
z
" clip-path="url(#p7892d697c6)" style="fill: #1f77b4"/>
   </g>
   <g id="patch_66">
    <path d="M 162.872454 273.312 
L 164.487094 273.312 
L 164.487094 87.796841 
L 162.872454 87.796841 
z
" clip-path="url(#p7892d697c6)" style="fill: #1f77b4"/>
   </g>
   <g id="patch_67">
    <path d="M 164.487094 273.312 
L 166.101733 273.312 
L 166.101733 66.615977 
L 164.487094 66.615977 
z
" clip-path="url(#p7892d697c6)" style="fill: #1f77b4"/>
   </g>
   <g id="patch_68">
    <path d="M 166.101733 273.312 
L 167.716373 273.312 
L 167.716373 72.458974 
L 166.101733 72.458974 
z
" clip-path="url(#p7892d697c6)" style="fill: #1f77b4"/>
   </g>
   <g id="patch_69">
    <path d="M 167.716373 273.312 
L 169.331012 273.312 
L 169.331012 76.110847 
L 167.716373 76.110847 
z
" clip-path="url(#p7892d697c6)" style="fill: #1f77b4"/>
   </g>
   <g id="patch_70">
    <path d="M 169.331012 273.312 
L 170.945652 273.312 
L 170.945652 65.885602 
L 169.331012 65.885602 
z
" clip-path="url(#p7892d697c6)" style="fill: #1f77b4"/>
   </g>
   <g id="patch_71">
    <path d="M 170.945652 273.312 
L 172.560291 273.312 
L 172.560291 57.121107 
L 170.945652 57.121107 
z
" clip-path="url(#p7892d697c6)" style="fill: #1f77b4"/>
   </g>
   <g id="patch_72">
    <path d="M 172.560291 273.312 
L 174.174931 273.312 
L 174.174931 69.537476 
L 172.560291 69.537476 
z
" clip-path="url(#p7892d697c6)" style="fill: #1f77b4"/>
   </g>
   <g id="patch_73">
    <path d="M 174.174931 273.312 
L 175.78957 273.312 
L 175.78957 57.851481 
L 174.174931 57.851481 
z
" clip-path="url(#p7892d697c6)" style="fill: #1f77b4"/>
   </g>
   <g id="patch_74">
    <path d="M 175.78957 273.312 
L 177.40421 273.312 
L 177.40421 76.841222 
L 175.78957 76.841222 
z
" clip-path="url(#p7892d697c6)" style="fill: #1f77b4"/>
   </g>
   <g id="patch_75">
    <path d="M 177.40421 273.312 
L 179.018849 273.312 
L 179.018849 67.346352 
L 177.40421 67.346352 
z
" clip-path="url(#p7892d697c6)" style="fill: #1f77b4"/>
   </g>
   <g id="patch_76">
    <path d="M 179.018849 273.312 
L 180.633489 273.312 
L 180.633489 81.22347 
L 179.018849 81.22347 
z
" clip-path="url(#p7892d697c6)" style="fill: #1f77b4"/>
   </g>
   <g id="patch_77">
    <path d="M 180.633489 273.312 
L 182.248128 273.312 
L 182.248128 69.537476 
L 180.633489 69.537476 
z
" clip-path="url(#p7892d697c6)" style="fill: #1f77b4"/>
   </g>
   <g id="patch_78">
    <path d="M 182.248128 273.312 
L 183.862768 273.312 
L 183.862768 58.581856 
L 182.248128 58.581856 
z
" clip-path="url(#p7892d697c6)" style="fill: #1f77b4"/>
   </g>
   <g id="patch_79">
    <path d="M 183.862768 273.312 
L 185.477407 273.312 
L 185.477407 54.929983 
L 183.862768 54.929983 
z
" clip-path="url(#p7892d697c6)" style="fill: #1f77b4"/>
   </g>
   <g id="patch_80">
    <path d="M 185.477407 273.312 
L 187.092047 273.312 
L 187.092047 73.919723 
L 185.477407 73.919723 
z
" clip-path="url(#p7892d697c6)" style="fill: #1f77b4"/>
   </g>
   <g id="patch_81">
    <path d="M 187.092047 273.312 
L 188.706686 273.312 
L 188.706686 44.704738 
L 187.092047 44.704738 
z
" clip-path="url(#p7892d697c6)" style="fill: #1f77b4"/>
   </g>
   <g id="patch_82">
    <path d="M 188.706686 273.312 
L 190.321326 273.312 
L 190.321326 62.233729 
L 188.706686 62.233729 
z
" clip-path="url(#p7892d697c6)" style="fill: #1f77b4"/>
   </g>
   <g id="patch_83">
    <path d="M 190.321326 273.312 
L 191.935965 273.312 
L 191.935965 40.32249 
L 190.321326 40.32249 
z
" clip-path="url(#p7892d697c6)" style="fill: #1f77b4"/>
   </g>
   <g id="patch_84">
    <path d="M 191.935965 273.312 
L 193.550605 273.312 
L 193.550605 52.008484 
L 191.935965 52.008484 
z
" clip-path="url(#p7892d697c6)" style="fill: #1f77b4"/>
   </g>
   <g id="patch_85">
    <path d="M 193.550605 273.312 
L 195.165244 273.312 
L 195.165244 54.199608 
L 193.550605 54.199608 
z
" clip-path="url(#p7892d697c6)" style="fill: #1f77b4"/>
   </g>
   <g id="patch_86">
    <path d="M 195.165244 273.312 
L 196.779884 273.312 
L 196.779884 33.749118 
L 195.165244 33.749118 
z
" clip-path="url(#p7892d697c6)" style="fill: #1f77b4"/>
   </g>
   <g id="patch_87">
    <path d="M 196.779884 273.312 
L 198.394523 273.312 
L 198.394523 47.626236 
L 196.779884 47.626236 
z
" clip-path="url(#p7892d697c6)" style="fill: #1f77b4"/>
   </g>
   <g id="patch_88">
    <path d="M 198.394523 273.312 
L 200.009163 273.312 
L 200.009163 61.503354 
L 198.394523 61.503354 
z
" clip-path="url(#p7892d697c6)" style="fill: #1f77b4"/>
   </g>
   <g id="patch_89">
    <path d="M 200.009163 273.312 
L 201.623802 273.312 
L 201.623802 58.581856 
L 200.009163 58.581856 
z
" clip-path="url(#p7892d697c6)" style="fill: #1f77b4"/>
   </g>
   <g id="patch_90">
    <path d="M 201.623802 273.312 
L 203.238442 273.312 
L 203.238442 19.872 
L 201.623802 19.872 
z
" clip-path="url(#p7892d697c6)" style="fill: #1f77b4"/>
   </g>
   <g id="patch_91">
    <path d="M 203.238442 273.312 
L 204.853082 273.312 
L 204.853082 65.885602 
L 203.238442 65.885602 
z
" clip-path="url(#p7892d697c6)" style="fill: #1f77b4"/>
   </g>
   <g id="patch_92">
    <path d="M 204.853082 273.312 
L 206.467721 273.312 
L 206.467721 43.974363 
L 204.853082 43.974363 
z
" clip-path="url(#p7892d697c6)" style="fill: #1f77b4"/>
   </g>
   <g id="patch_93">
    <path d="M 206.467721 273.312 
L 208.082361 273.312 
L 208.082361 76.841222 
L 206.467721 76.841222 
z
" clip-path="url(#p7892d697c6)" style="fill: #1f77b4"/>
   </g>
   <g id="patch_94">
    <path d="M 208.082361 273.312 
L 209.697 273.312 
L 209.697 49.086986 
L 208.082361 49.086986 
z
" clip-path="url(#p7892d697c6)" style="fill: #1f77b4"/>
   </g>
   <g id="patch_95">
    <path d="M 209.697 273.312 
L 211.31164 273.312 
L 211.31164 42.513614 
L 209.697 42.513614 
z
" clip-path="url(#p7892d697c6)" style="fill: #1f77b4"/>
   </g>
   <g id="patch_96">
    <path d="M 211.31164 273.312 
L 212.926279 273.312 
L 212.926279 53.469233 
L 211.31164 53.469233 
z
" clip-path="url(#p7892d697c6)" style="fill: #1f77b4"/>
   </g>
   <g id="patch_97">
    <path d="M 212.926279 273.312 
L 214.540919 273.312 
L 214.540919 68.807101 
L 212.926279 68.807101 
z
" clip-path="url(#p7892d697c6)" style="fill: #1f77b4"/>
   </g>
   <g id="patch_98">
    <path d="M 214.540919 273.312 
L 216.155558 273.312 
L 216.155558 57.851481 
L 214.540919 57.851481 
z
" clip-path="url(#p7892d697c6)" style="fill: #1f77b4"/>
   </g>
   <g id="patch_99">
    <path d="M 216.155558 273.312 
L 217.770198 273.312 
L 217.770198 58.581856 
L 216.155558 58.581856 
z
" clip-path="url(#p7892d697c6)" style="fill: #1f77b4"/>
   </g>
   <g id="patch_100">
    <path d="M 217.770198 273.312 
L 219.384837 273.312 
L 219.384837 51.27811 
L 217.770198 51.27811 
z
" clip-path="url(#p7892d697c6)" style="fill: #1f77b4"/>
   </g>
   <g id="patch_101">
    <path d="M 219.384837 273.312 
L 220.999477 273.312 
L 220.999477 56.390732 
L 219.384837 56.390732 
z
" clip-path="url(#p7892d697c6)" style="fill: #1f77b4"/>
   </g>
   <g id="patch_102">
    <path d="M 220.999477 273.312 
L 222.614116 273.312 
L 222.614116 51.27811 
L 220.999477 51.27811 
z
" clip-path="url(#p7892d697c6)" style="fill: #1f77b4"/>
   </g>
   <g id="patch_103">
    <path d="M 222.614116 273.312 
L 224.228756 273.312 
L 224.228756 56.390732 
L 222.614116 56.390732 
z
" clip-path="url(#p7892d697c6)" style="fill: #1f77b4"/>
   </g>
   <g id="patch_104">
    <path d="M 224.228756 273.312 
L 225.843395 273.312 
L 225.843395 29.36687 
L 224.228756 29.36687 
z
" clip-path="url(#p7892d697c6)" style="fill: #1f77b4"/>
   </g>
   <g id="patch_105">
    <path d="M 225.843395 273.312 
L 227.458035 273.312 
L 227.458035 58.581856 
L 225.843395 58.581856 
z
" clip-path="url(#p7892d697c6)" style="fill: #1f77b4"/>
   </g>
   <g id="patch_106">
    <path d="M 227.458035 273.312 
L 229.072674 273.312 
L 229.072674 36.670617 
L 227.458035 36.670617 
z
" clip-path="url(#p7892d697c6)" style="fill: #1f77b4"/>
   </g>
   <g id="patch_107">
    <path d="M 229.072674 273.312 
L 230.687314 273.312 
L 230.687314 47.626236 
L 229.072674 47.626236 
z
" clip-path="url(#p7892d697c6)" style="fill: #1f77b4"/>
   </g>
   <g id="patch_108">
    <path d="M 230.687314 273.312 
L 232.301953 273.312 
L 232.301953 30.097245 
L 230.687314 30.097245 
z
" clip-path="url(#p7892d697c6)" style="fill: #1f77b4"/>
   </g>
   <g id="patch_109">
    <path d="M 232.301953 273.312 
L 233.916593 273.312 
L 233.916593 48.356611 
L 232.301953 48.356611 
z
" clip-path="url(#p7892d697c6)" style="fill: #1f77b4"/>
   </g>
   <g id="patch_110">
    <path d="M 233.916593 273.312 
L 235.531232 273.312 
L 235.531232 46.165487 
L 233.916593 46.165487 
z
" clip-path="url(#p7892d697c6)" style="fill: #1f77b4"/>
   </g>
   <g id="patch_111">
    <path d="M 235.531232 273.312 
L 237.145872 273.312 
L 237.145872 56.390732 
L 235.531232 56.390732 
z
" clip-path="url(#p7892d697c6)" style="fill: #1f77b4"/>
   </g>
   <g id="patch_112">
    <path d="M 237.145872 273.312 
L 238.760511 273.312 
L 238.760511 36.670617 
L 237.145872 36.670617 
z
" clip-path="url(#p7892d697c6)" style="fill: #1f77b4"/>
   </g>
   <g id="patch_113">
    <path d="M 238.760511 273.312 
L 240.375151 273.312 
L 240.375151 38.131366 
L 238.760511 38.131366 
z
" clip-path="url(#p7892d697c6)" style="fill: #1f77b4"/>
   </g>
   <g id="patch_114">
    <path d="M 240.375151 273.312 
L 241.98979 273.312 
L 241.98979 46.895862 
L 240.375151 46.895862 
z
" clip-path="url(#p7892d697c6)" style="fill: #1f77b4"/>
   </g>
   <g id="patch_115">
    <path d="M 241.98979 273.312 
L 243.60443 273.312 
L 243.60443 55.660357 
L 241.98979 55.660357 
z
" clip-path="url(#p7892d697c6)" style="fill: #1f77b4"/>
   </g>
   <g id="patch_116">
    <path d="M 243.60443 273.312 
L 245.219069 273.312 
L 245.219069 68.076726 
L 243.60443 68.076726 
z
" clip-path="url(#p7892d697c6)" style="fill: #1f77b4"/>
   </g>
   <g id="patch_117">
    <path d="M 245.219069 273.312 
L 246.833709 273.312 
L 246.833709 41.052865 
L 245.219069 41.052865 
z
" clip-path="url(#p7892d697c6)" style="fill: #1f77b4"/>
   </g>
   <g id="patch_118">
    <path d="M 246.833709 273.312 
L 248.448348 273.312 
L 248.448348 56.390732 
L 246.833709 56.390732 
z
" clip-path="url(#p7892d697c6)" style="fill: #1f77b4"/>
   </g>
   <g id="patch_119">
    <path d="M 248.448348 273.312 
L 250.062988 273.312 
L 250.062988 56.390732 
L 248.448348 56.390732 
z
" clip-path="url(#p7892d697c6)" style="fill: #1f77b4"/>
   </g>
   <g id="patch_120">
    <path d="M 250.062988 273.312 
L 251.677628 273.312 
L 251.677628 41.052865 
L 250.062988 41.052865 
z
" clip-path="url(#p7892d697c6)" style="fill: #1f77b4"/>
   </g>
   <g id="patch_121">
    <path d="M 251.677628 273.312 
L 253.292267 273.312 
L 253.292267 66.615977 
L 251.677628 66.615977 
z
" clip-path="url(#p7892d697c6)" style="fill: #1f77b4"/>
   </g>
   <g id="patch_122">
    <path d="M 253.292267 273.312 
L 254.906907 273.312 
L 254.906907 27.906121 
L 253.292267 27.906121 
z
" clip-path="url(#p7892d697c6)" style="fill: #1f77b4"/>
   </g>
   <g id="patch_123">
    <path d="M 254.906907 273.312 
L 256.521546 273.312 
L 256.521546 66.615977 
L 254.906907 66.615977 
z
" clip-path="url(#p7892d697c6)" style="fill: #1f77b4"/>
   </g>
   <g id="patch_124">
    <path d="M 256.521546 273.312 
L 258.136186 273.312 
L 258.136186 65.885602 
L 256.521546 65.885602 
z
" clip-path="url(#p7892d697c6)" style="fill: #1f77b4"/>
   </g>
   <g id="patch_125">
    <path d="M 258.136186 273.312 
L 259.750825 273.312 
L 259.750825 40.32249 
L 258.136186 40.32249 
z
" clip-path="url(#p7892d697c6)" style="fill: #1f77b4"/>
   </g>
   <g id="patch_126">
    <path d="M 259.750825 273.312 
L 261.365465 273.312 
L 261.365465 64.424853 
L 259.750825 64.424853 
z
" clip-path="url(#p7892d697c6)" style="fill: #1f77b4"/>
   </g>
   <g id="patch_127">
    <path d="M 261.365465 273.312 
L 262.980104 273.312 
L 262.980104 77.571597 
L 261.365465 77.571597 
z
" clip-path="url(#p7892d697c6)" style="fill: #1f77b4"/>
   </g>
   <g id="patch_128">
    <path d="M 262.980104 273.312 
L 264.594744 273.312 
L 264.594744 50.547735 
L 262.980104 50.547735 
z
" clip-path="url(#p7892d697c6)" style="fill: #1f77b4"/>
   </g>
   <g id="patch_129">
    <path d="M 264.594744 273.312 
L 266.209383 273.312 
L 266.209383 53.469233 
L 264.594744 53.469233 
z
" clip-path="url(#p7892d697c6)" style="fill: #1f77b4"/>
   </g>
   <g id="patch_130">
    <path d="M 266.209383 273.312 
L 267.824023 273.312 
L 267.824023 58.581856 
L 266.209383 58.581856 
z
" clip-path="url(#p7892d697c6)" style="fill: #1f77b4"/>
   </g>
   <g id="patch_131">
    <path d="M 267.824023 273.312 
L 269.438662 273.312 
L 269.438662 68.076726 
L 267.824023 68.076726 
z
" clip-path="url(#p7892d697c6)" style="fill: #1f77b4"/>
   </g>
   <g id="patch_132">
    <path d="M 269.438662 273.312 
L 271.053302 273.312 
L 271.053302 58.581856 
L 269.438662 58.581856 
z
" clip-path="url(#p7892d697c6)" style="fill: #1f77b4"/>
   </g>
   <g id="patch_133">
    <path d="M 271.053302 273.312 
L 272.667941 273.312 
L 272.667941 67.346352 
L 271.053302 67.346352 
z
" clip-path="url(#p7892d697c6)" style="fill: #1f77b4"/>
   </g>
   <g id="patch_134">
    <path d="M 272.667941 273.312 
L 274.282581 273.312 
L 274.282581 58.581856 
L 272.667941 58.581856 
z
" clip-path="url(#p7892d697c6)" style="fill: #1f77b4"/>
   </g>
   <g id="patch_135">
    <path d="M 274.282581 273.312 
L 275.89722 273.312 
L 275.89722 65.155228 
L 274.282581 65.155228 
z
" clip-path="url(#p7892d697c6)" style="fill: #1f77b4"/>
   </g>
   <g id="patch_136">
    <path d="M 275.89722 273.312 
L 277.51186 273.312 
L 277.51186 108.247331 
L 275.89722 108.247331 
z
" clip-path="url(#p7892d697c6)" style="fill: #1f77b4"/>
   </g>
   <g id="patch_137">
    <path d="M 277.51186 273.312 
L 279.126499 273.312 
L 279.126499 88.527216 
L 277.51186 88.527216 
z
" clip-path="url(#p7892d697c6)" style="fill: #1f77b4"/>
   </g>
   <g id="patch_138">
    <path d="M 279.126499 273.312 
L 280.741139 273.312 
L 280.741139 88.527216 
L 279.126499 88.527216 
z
" clip-path="url(#p7892d697c6)" style="fill: #1f77b4"/>
   </g>
   <g id="patch_139">
    <path d="M 280.741139 273.312 
L 282.355778 273.312 
L 282.355778 75.380473 
L 280.741139 75.380473 
z
" clip-path="url(#p7892d697c6)" style="fill: #1f77b4"/>
   </g>
   <g id="patch_140">
    <path d="M 282.355778 273.312 
L 283.970418 273.312 
L 283.970418 65.155228 
L 282.355778 65.155228 
z
" clip-path="url(#p7892d697c6)" style="fill: #1f77b4"/>
   </g>
   <g id="patch_141">
    <path d="M 283.970418 273.312 
L 285.585057 273.312 
L 285.585057 89.987965 
L 283.970418 89.987965 
z
" clip-path="url(#p7892d697c6)" style="fill: #1f77b4"/>
   </g>
   <g id="patch_142">
    <path d="M 285.585057 273.312 
L 287.199697 273.312 
L 287.199697 89.987965 
L 285.585057 89.987965 
z
" clip-path="url(#p7892d697c6)" style="fill: #1f77b4"/>
   </g>
   <g id="patch_143">
    <path d="M 287.199697 273.312 
L 288.814336 273.312 
L 288.814336 95.830963 
L 287.199697 95.830963 
z
" clip-path="url(#p7892d697c6)" style="fill: #1f77b4"/>
   </g>
   <g id="patch_144">
    <path d="M 288.814336 273.312 
L 290.428976 273.312 
L 290.428976 106.786582 
L 288.814336 106.786582 
z
" clip-path="url(#p7892d697c6)" style="fill: #1f77b4"/>
   </g>
   <g id="patch_145">
    <path d="M 290.428976 273.312 
L 292.043615 273.312 
L 292.043615 94.370213 
L 290.428976 94.370213 
z
" clip-path="url(#p7892d697c6)" style="fill: #1f77b4"/>
   </g>
   <g id="patch_146">
    <path d="M 292.043615 273.312 
L 293.658255 273.312 
L 293.658255 91.448715 
L 292.043615 91.448715 
z
" clip-path="url(#p7892d697c6)" style="fill: #1f77b4"/>
   </g>
   <g id="patch_147">
    <path d="M 293.658255 273.312 
L 295.272895 273.312 
L 295.272895 103.134709 
L 293.658255 103.134709 
z
" clip-path="url(#p7892d697c6)" style="fill: #1f77b4"/>
   </g>
   <g id="patch_148">
    <path d="M 295.272895 273.312 
L 296.887534 273.312 
L 296.887534 114.820703 
L 295.272895 114.820703 
z
" clip-path="url(#p7892d697c6)" style="fill: #1f77b4"/>
   </g>
   <g id="patch_149">
    <path d="M 296.887534 273.312 
L 298.502174 273.312 
L 298.502174 107.516957 
L 296.887534 107.516957 
z
" clip-path="url(#p7892d697c6)" style="fill: #1f77b4"/>
   </g>
   <g id="patch_150">
    <path d="M 298.502174 273.312 
L 300.116813 273.312 
L 300.116813 113.359954 
L 298.502174 113.359954 
z
" clip-path="url(#p7892d697c6)" style="fill: #1f77b4"/>
   </g>
   <g id="patch_151">
    <path d="M 300.116813 273.312 
L 301.731453 273.312 
L 301.731453 110.438455 
L 300.116813 110.438455 
z
" clip-path="url(#p7892d697c6)" style="fill: #1f77b4"/>
   </g>
   <g id="patch_152">
    <path d="M 301.731453 273.312 
L 303.346092 273.312 
L 303.346092 93.639839 
L 301.731453 93.639839 
z
" clip-path="url(#p7892d697c6)" style="fill: #1f77b4"/>
   </g>
   <g id="patch_153">
    <path d="M 303.346092 273.312 
L 304.960732 273.312 
L 304.960732 115.551078 
L 303.346092 115.551078 
z
" clip-path="url(#p7892d697c6)" style="fill: #1f77b4"/>
   </g>
   <g id="patch_154">
    <path d="M 304.960732 273.312 
L 306.575371 273.312 
L 306.575371 96.561337 
L 304.960732 96.561337 
z
" clip-path="url(#p7892d697c6)" style="fill: #1f77b4"/>
   </g>
   <g id="patch_155">
    <path d="M 306.575371 273.312 
L 308.190011 273.312 
L 308.190011 125.045948 
L 306.575371 125.045948 
z
" clip-path="url(#p7892d697c6)" style="fill: #1f77b4"/>
   </g>
   <g id="patch_156">
    <path d="M 308.190011 273.312 
L 309.80465 273.312 
L 309.80465 113.359954 
L 308.190011 113.359954 
z
" clip-path="url(#p7892d697c6)" style="fill: #1f77b4"/>
   </g>
   <g id="patch_157">
    <path d="M 309.80465 273.312 
L 311.41929 273.312 
L 311.41929 106.056207 
L 309.80465 106.056207 
z
" clip-path="url(#p7892d697c6)" style="fill: #1f77b4"/>
   </g>
   <g id="patch_158">
    <path d="M 311.41929 273.312 
L 313.033929 273.312 
L 313.033929 119.933326 
L 311.41929 119.933326 
z
" clip-path="url(#p7892d697c6)" style="fill: #1f77b4"/>
   </g>
   <g id="patch_159">
    <path d="M 313.033929 273.312 
L 314.648569 273.312 
L 314.648569 146.226813 
L 313.033929 146.226813 
z
" clip-path="url(#p7892d697c6)" style="fill: #1f77b4"/>
   </g>
   <g id="patch_160">
    <path d="M 314.648569 273.312 
L 316.263208 273.312 
L 316.263208 141.844565 
L 314.648569 141.844565 
z
" clip-path="url(#p7892d697c6)" style="fill: #1f77b4"/>
   </g>
   <g id="patch_161">
    <path d="M 316.263208 273.312 
L 317.877848 273.312 
L 317.877848 136.001568 
L 316.263208 136.001568 
z
" clip-path="url(#p7892d697c6)" style="fill: #1f77b4"/>
   </g>
   <g id="patch_162">
    <path d="M 317.877848 273.312 
L 319.492487 273.312 
L 319.492487 135.271193 
L 317.877848 135.271193 
z
" clip-path="url(#p7892d697c6)" style="fill: #1f77b4"/>
   </g>
   <g id="patch_163">
    <path d="M 319.492487 273.312 
L 321.107127 273.312 
L 321.107127 136.001568 
L 319.492487 136.001568 
z
" clip-path="url(#p7892d697c6)" style="fill: #1f77b4"/>
   </g>
   <g id="patch_164">
    <path d="M 321.107127 273.312 
L 322.721766 273.312 
L 322.721766 154.260934 
L 321.107127 154.260934 
z
" clip-path="url(#p7892d697c6)" style="fill: #1f77b4"/>
   </g>
   <g id="patch_165">
    <path d="M 322.721766 273.312 
L 324.336406 273.312 
L 324.336406 133.810444 
L 322.721766 133.810444 
z
" clip-path="url(#p7892d697c6)" style="fill: #1f77b4"/>
   </g>
   <g id="patch_166">
    <path d="M 324.336406 273.312 
L 325.951045 273.312 
L 325.951045 151.339435 
L 324.336406 151.339435 
z
" clip-path="url(#p7892d697c6)" style="fill: #1f77b4"/>
   </g>
   <g id="patch_167">
    <path d="M 325.951045 273.312 
L 327.565685 273.312 
L 327.565685 162.295055 
L 325.951045 162.295055 
z
" clip-path="url(#p7892d697c6)" style="fill: #1f77b4"/>
   </g>
   <g id="patch_168">
    <path d="M 327.565685 273.312 
L 329.180324 273.312 
L 329.180324 152.06981 
L 327.565685 152.06981 
z
" clip-path="url(#p7892d697c6)" style="fill: #1f77b4"/>
   </g>
   <g id="patch_169">
    <path d="M 329.180324 273.312 
L 330.794964 273.312 
L 330.794964 161.56468 
L 329.180324 161.56468 
z
" clip-path="url(#p7892d697c6)" style="fill: #1f77b4"/>
   </g>
   <g id="patch_170">
    <path d="M 330.794964 273.312 
L 332.409603 273.312 
L 332.409603 176.172173 
L 330.794964 176.172173 
z
" clip-path="url(#p7892d697c6)" style="fill: #1f77b4"/>
   </g>
   <g id="patch_171">
    <path d="M 332.409603 273.312 
L 334.024243 273.312 
L 334.024243 165.946928 
L 332.409603 165.946928 
z
" clip-path="url(#p7892d697c6)" style="fill: #1f77b4"/>
   </g>
   <g id="patch_172">
    <path d="M 334.024243 273.312 
L 335.638882 273.312 
L 335.638882 161.56468 
L 334.024243 161.56468 
z
" clip-path="url(#p7892d697c6)" style="fill: #1f77b4"/>
   </g>
   <g id="patch_173">
    <path d="M 335.638882 273.312 
L 337.253522 273.312 
L 337.253522 161.56468 
L 335.638882 161.56468 
z
" clip-path="url(#p7892d697c6)" style="fill: #1f77b4"/>
   </g>
   <g id="patch_174">
    <path d="M 337.253522 273.312 
L 338.868161 273.312 
L 338.868161 179.824046 
L 337.253522 179.824046 
z
" clip-path="url(#p7892d697c6)" style="fill: #1f77b4"/>
   </g>
   <g id="patch_175">
    <path d="M 338.868161 273.312 
L 340.482801 273.312 
L 340.482801 184.206294 
L 338.868161 184.206294 
z
" clip-path="url(#p7892d697c6)" style="fill: #1f77b4"/>
   </g>
   <g id="patch_176">
    <path d="M 340.482801 273.312 
L 342.097441 273.312 
L 342.097441 175.441798 
L 340.482801 175.441798 
z
" clip-path="url(#p7892d697c6)" style="fill: #1f77b4"/>
   </g>
   <g id="patch_177">
    <path d="M 342.097441 273.312 
L 343.71208 273.312 
L 343.71208 170.329176 
L 342.097441 170.329176 
z
" clip-path="url(#p7892d697c6)" style="fill: #1f77b4"/>
   </g>
   <g id="patch_178">
    <path d="M 343.71208 273.312 
L 345.32672 273.312 
L 345.32672 185.667043 
L 343.71208 185.667043 
z
" clip-path="url(#p7892d697c6)" style="fill: #1f77b4"/>
   </g>
   <g id="patch_179">
    <path d="M 345.32672 273.312 
L 346.941359 273.312 
L 346.941359 197.353037 
L 345.32672 197.353037 
z
" clip-path="url(#p7892d697c6)" style="fill: #1f77b4"/>
   </g>
   <g id="patch_180">
    <path d="M 346.941359 273.312 
L 348.555999 273.312 
L 348.555999 206.847908 
L 346.941359 206.847908 
z
" clip-path="url(#p7892d697c6)" style="fill: #1f77b4"/>
   </g>
   <g id="patch_181">
    <path d="M 348.555999 273.312 
L 350.170638 273.312 
L 350.170638 192.97079 
L 348.555999 192.97079 
z
" clip-path="url(#p7892d697c6)" style="fill: #1f77b4"/>
   </g>
   <g id="patch_182">
    <path d="M 350.170638 273.312 
L 351.785278 273.312 
L 351.785278 201.004911 
L 350.170638 201.004911 
z
" clip-path="url(#p7892d697c6)" style="fill: #1f77b4"/>
   </g>
   <g id="patch_183">
    <path d="M 351.785278 273.312 
L 353.399917 273.312 
L 353.399917 201.004911 
L 351.785278 201.004911 
z
" clip-path="url(#p7892d697c6)" style="fill: #1f77b4"/>
   </g>
   <g id="patch_184">
    <path d="M 353.399917 273.312 
L 355.014557 273.312 
L 355.014557 213.42128 
L 353.399917 213.42128 
z
" clip-path="url(#p7892d697c6)" style="fill: #1f77b4"/>
   </g>
   <g id="patch_185">
    <path d="M 355.014557 273.312 
L 356.629196 273.312 
L 356.629196 217.803527 
L 355.014557 217.803527 
z
" clip-path="url(#p7892d697c6)" style="fill: #1f77b4"/>
   </g>
   <g id="patch_186">
    <path d="M 356.629196 273.312 
L 358.243836 273.312 
L 358.243836 225.107274 
L 356.629196 225.107274 
z
" clip-path="url(#p7892d697c6)" style="fill: #1f77b4"/>
   </g>
   <g id="patch_187">
    <path d="M 358.243836 273.312 
L 359.858475 273.312 
L 359.858475 217.803527 
L 358.243836 217.803527 
z
" clip-path="url(#p7892d697c6)" style="fill: #1f77b4"/>
   </g>
   <g id="patch_188">
    <path d="M 359.858475 273.312 
L 361.473115 273.312 
L 361.473115 222.185775 
L 359.858475 222.185775 
z
" clip-path="url(#p7892d697c6)" style="fill: #1f77b4"/>
   </g>
   <g id="patch_189">
    <path d="M 361.473115 273.312 
L 363.087754 273.312 
L 363.087754 223.646524 
L 361.473115 223.646524 
z
" clip-path="url(#p7892d697c6)" style="fill: #1f77b4"/>
   </g>
   <g id="patch_190">
    <path d="M 363.087754 273.312 
L 364.702394 273.312 
L 364.702394 225.837648 
L 363.087754 225.837648 
z
" clip-path="url(#p7892d697c6)" style="fill: #1f77b4"/>
   </g>
   <g id="patch_191">
    <path d="M 364.702394 273.312 
L 366.317033 273.312 
L 366.317033 236.793268 
L 364.702394 236.793268 
z
" clip-path="url(#p7892d697c6)" style="fill: #1f77b4"/>
   </g>
   <g id="patch_192">
    <path d="M 366.317033 273.312 
L 367.931673 273.312 
L 367.931673 231.680646 
L 366.317033 231.680646 
z
" clip-path="url(#p7892d697c6)" style="fill: #1f77b4"/>
   </g>
   <g id="patch_193">
    <path d="M 367.931673 273.312 
L 369.546312 273.312 
L 369.546312 237.523643 
L 367.931673 237.523643 
z
" clip-path="url(#p7892d697c6)" style="fill: #1f77b4"/>
   </g>
   <g id="patch_194">
    <path d="M 369.546312 273.312 
L 371.160952 273.312 
L 371.160952 228.759147 
L 369.546312 228.759147 
z
" clip-path="url(#p7892d697c6)" style="fill: #1f77b4"/>
   </g>
   <g id="patch_195">
    <path d="M 371.160952 273.312 
L 372.775591 273.312 
L 372.775591 240.445141 
L 371.160952 240.445141 
z
" clip-path="url(#p7892d697c6)" style="fill: #1f77b4"/>
   </g>
   <g id="patch_196">
    <path d="M 372.775591 273.312 
L 374.390231 273.312 
L 374.390231 248.479262 
L 372.775591 248.479262 
z
" clip-path="url(#p7892d697c6)" style="fill: #1f77b4"/>
   </g>
   <g id="patch_197">
    <path d="M 374.390231 273.312 
L 376.00487 273.312 
L 376.00487 249.940012 
L 374.390231 249.940012 
z
" clip-path="url(#p7892d697c6)" style="fill: #1f77b4"/>
   </g>
   <g id="patch_198">
    <path d="M 376.00487 273.312 
L 377.61951 273.312 
L 377.61951 255.783009 
L 376.00487 255.783009 
z
" clip-path="url(#p7892d697c6)" style="fill: #1f77b4"/>
   </g>
   <g id="patch_199">
    <path d="M 377.61951 273.312 
L 379.234149 273.312 
L 379.234149 259.434882 
L 377.61951 259.434882 
z
" clip-path="url(#p7892d697c6)" style="fill: #1f77b4"/>
   </g>
   <g id="patch_200">
    <path d="M 379.234149 273.312 
L 380.848789 273.312 
L 380.848789 266.008254 
L 379.234149 266.008254 
z
" clip-path="url(#p7892d697c6)" style="fill: #1f77b4"/>
   </g>
   <g id="patch_201">
    <path d="M 380.848789 273.312 
L 382.463428 273.312 
L 382.463428 266.738628 
L 380.848789 266.738628 
z
" clip-path="url(#p7892d697c6)" style="fill: #1f77b4"/>
   </g>
   <g id="patch_202">
    <path d="M 382.463428 273.312 
L 384.078068 273.312 
L 384.078068 268.199378 
L 382.463428 268.199378 
z
" clip-path="url(#p7892d697c6)" style="fill: #1f77b4"/>
   </g>
   <g id="matplotlib.axis_1">
    <g id="xtick_1">
     <g id="line2d_1">
      <defs>
       <path id="m8187be8185" d="M 0 0 
L 0 3.5 
" style="stroke: #000000; stroke-width: 0.8"/>
      </defs>
      <g>
       <use xlink:href="#m8187be8185" x="60.013977" y="273.312" style="stroke: #000000; stroke-width: 0.8"/>
      </g>
     </g>
     <g id="text_1">
      <!-- 0.0 -->
      <g transform="translate(52.062415 287.910437)scale(0.1 -0.1)">
       <defs>
        <path id="DejaVuSans-30" d="M 2034 4250 
Q 1547 4250 1301 3770 
Q 1056 3291 1056 2328 
Q 1056 1369 1301 889 
Q 1547 409 2034 409 
Q 2525 409 2770 889 
Q 3016 1369 3016 2328 
Q 3016 3291 2770 3770 
Q 2525 4250 2034 4250 
z
M 2034 4750 
Q 2819 4750 3233 4129 
Q 3647 3509 3647 2328 
Q 3647 1150 3233 529 
Q 2819 -91 2034 -91 
Q 1250 -91 836 529 
Q 422 1150 422 2328 
Q 422 3509 836 4129 
Q 1250 4750 2034 4750 
z
" transform="scale(0.015625)"/>
        <path id="DejaVuSans-2e" d="M 684 794 
L 1344 794 
L 1344 0 
L 684 0 
L 684 794 
z
" transform="scale(0.015625)"/>
       </defs>
       <use xlink:href="#DejaVuSans-30"/>
       <use xlink:href="#DejaVuSans-2e" x="63.623047"/>
       <use xlink:href="#DejaVuSans-30" x="95.410156"/>
      </g>
     </g>
    </g>
    <g id="xtick_2">
     <g id="line2d_2">
      <g>
       <use xlink:href="#m8187be8185" x="101.350278" y="273.312" style="stroke: #000000; stroke-width: 0.8"/>
      </g>
     </g>
     <g id="text_2">
      <!-- 0.2 -->
      <g transform="translate(93.398715 287.910437)scale(0.1 -0.1)">
       <defs>
        <path id="DejaVuSans-32" d="M 1228 531 
L 3431 531 
L 3431 0 
L 469 0 
L 469 531 
Q 828 903 1448 1529 
Q 2069 2156 2228 2338 
Q 2531 2678 2651 2914 
Q 2772 3150 2772 3378 
Q 2772 3750 2511 3984 
Q 2250 4219 1831 4219 
Q 1534 4219 1204 4116 
Q 875 4013 500 3803 
L 500 4441 
Q 881 4594 1212 4672 
Q 1544 4750 1819 4750 
Q 2544 4750 2975 4387 
Q 3406 4025 3406 3419 
Q 3406 3131 3298 2873 
Q 3191 2616 2906 2266 
Q 2828 2175 2409 1742 
Q 1991 1309 1228 531 
z
" transform="scale(0.015625)"/>
       </defs>
       <use xlink:href="#DejaVuSans-30"/>
       <use xlink:href="#DejaVuSans-2e" x="63.623047"/>
       <use xlink:href="#DejaVuSans-32" x="95.410156"/>
      </g>
     </g>
    </g>
    <g id="xtick_3">
     <g id="line2d_3">
      <g>
       <use xlink:href="#m8187be8185" x="142.686578" y="273.312" style="stroke: #000000; stroke-width: 0.8"/>
      </g>
     </g>
     <g id="text_3">
      <!-- 0.4 -->
      <g transform="translate(134.735016 287.910437)scale(0.1 -0.1)">
       <defs>
        <path id="DejaVuSans-34" d="M 2419 4116 
L 825 1625 
L 2419 1625 
L 2419 4116 
z
M 2253 4666 
L 3047 4666 
L 3047 1625 
L 3713 1625 
L 3713 1100 
L 3047 1100 
L 3047 0 
L 2419 0 
L 2419 1100 
L 313 1100 
L 313 1709 
L 2253 4666 
z
" transform="scale(0.015625)"/>
       </defs>
       <use xlink:href="#DejaVuSans-30"/>
       <use xlink:href="#DejaVuSans-2e" x="63.623047"/>
       <use xlink:href="#DejaVuSans-34" x="95.410156"/>
      </g>
     </g>
    </g>
    <g id="xtick_4">
     <g id="line2d_4">
      <g>
       <use xlink:href="#m8187be8185" x="184.022879" y="273.312" style="stroke: #000000; stroke-width: 0.8"/>
      </g>
     </g>
     <g id="text_4">
      <!-- 0.6 -->
      <g transform="translate(176.071316 287.910437)scale(0.1 -0.1)">
       <defs>
        <path id="DejaVuSans-36" d="M 2113 2584 
Q 1688 2584 1439 2293 
Q 1191 2003 1191 1497 
Q 1191 994 1439 701 
Q 1688 409 2113 409 
Q 2538 409 2786 701 
Q 3034 994 3034 1497 
Q 3034 2003 2786 2293 
Q 2538 2584 2113 2584 
z
M 3366 4563 
L 3366 3988 
Q 3128 4100 2886 4159 
Q 2644 4219 2406 4219 
Q 1781 4219 1451 3797 
Q 1122 3375 1075 2522 
Q 1259 2794 1537 2939 
Q 1816 3084 2150 3084 
Q 2853 3084 3261 2657 
Q 3669 2231 3669 1497 
Q 3669 778 3244 343 
Q 2819 -91 2113 -91 
Q 1303 -91 875 529 
Q 447 1150 447 2328 
Q 447 3434 972 4092 
Q 1497 4750 2381 4750 
Q 2619 4750 2861 4703 
Q 3103 4656 3366 4563 
z
" transform="scale(0.015625)"/>
       </defs>
       <use xlink:href="#DejaVuSans-30"/>
       <use xlink:href="#DejaVuSans-2e" x="63.623047"/>
       <use xlink:href="#DejaVuSans-36" x="95.410156"/>
      </g>
     </g>
    </g>
    <g id="xtick_5">
     <g id="line2d_5">
      <g>
       <use xlink:href="#m8187be8185" x="225.35918" y="273.312" style="stroke: #000000; stroke-width: 0.8"/>
      </g>
     </g>
     <g id="text_5">
      <!-- 0.8 -->
      <g transform="translate(217.407617 287.910437)scale(0.1 -0.1)">
       <defs>
        <path id="DejaVuSans-38" d="M 2034 2216 
Q 1584 2216 1326 1975 
Q 1069 1734 1069 1313 
Q 1069 891 1326 650 
Q 1584 409 2034 409 
Q 2484 409 2743 651 
Q 3003 894 3003 1313 
Q 3003 1734 2745 1975 
Q 2488 2216 2034 2216 
z
M 1403 2484 
Q 997 2584 770 2862 
Q 544 3141 544 3541 
Q 544 4100 942 4425 
Q 1341 4750 2034 4750 
Q 2731 4750 3128 4425 
Q 3525 4100 3525 3541 
Q 3525 3141 3298 2862 
Q 3072 2584 2669 2484 
Q 3125 2378 3379 2068 
Q 3634 1759 3634 1313 
Q 3634 634 3220 271 
Q 2806 -91 2034 -91 
Q 1263 -91 848 271 
Q 434 634 434 1313 
Q 434 1759 690 2068 
Q 947 2378 1403 2484 
z
M 1172 3481 
Q 1172 3119 1398 2916 
Q 1625 2713 2034 2713 
Q 2441 2713 2670 2916 
Q 2900 3119 2900 3481 
Q 2900 3844 2670 4047 
Q 2441 4250 2034 4250 
Q 1625 4250 1398 4047 
Q 1172 3844 1172 3481 
z
" transform="scale(0.015625)"/>
       </defs>
       <use xlink:href="#DejaVuSans-30"/>
       <use xlink:href="#DejaVuSans-2e" x="63.623047"/>
       <use xlink:href="#DejaVuSans-38" x="95.410156"/>
      </g>
     </g>
    </g>
    <g id="xtick_6">
     <g id="line2d_6">
      <g>
       <use xlink:href="#m8187be8185" x="266.69548" y="273.312" style="stroke: #000000; stroke-width: 0.8"/>
      </g>
     </g>
     <g id="text_6">
      <!-- 1.0 -->
      <g transform="translate(258.743918 287.910437)scale(0.1 -0.1)">
       <defs>
        <path id="DejaVuSans-31" d="M 794 531 
L 1825 531 
L 1825 4091 
L 703 3866 
L 703 4441 
L 1819 4666 
L 2450 4666 
L 2450 531 
L 3481 531 
L 3481 0 
L 794 0 
L 794 531 
z
" transform="scale(0.015625)"/>
       </defs>
       <use xlink:href="#DejaVuSans-31"/>
       <use xlink:href="#DejaVuSans-2e" x="63.623047"/>
       <use xlink:href="#DejaVuSans-30" x="95.410156"/>
      </g>
     </g>
    </g>
    <g id="xtick_7">
     <g id="line2d_7">
      <g>
       <use xlink:href="#m8187be8185" x="308.031781" y="273.312" style="stroke: #000000; stroke-width: 0.8"/>
      </g>
     </g>
     <g id="text_7">
      <!-- 1.2 -->
      <g transform="translate(300.080218 287.910437)scale(0.1 -0.1)">
       <use xlink:href="#DejaVuSans-31"/>
       <use xlink:href="#DejaVuSans-2e" x="63.623047"/>
       <use xlink:href="#DejaVuSans-32" x="95.410156"/>
      </g>
     </g>
    </g>
    <g id="xtick_8">
     <g id="line2d_8">
      <g>
       <use xlink:href="#m8187be8185" x="349.368081" y="273.312" style="stroke: #000000; stroke-width: 0.8"/>
      </g>
     </g>
     <g id="text_8">
      <!-- 1.4 -->
      <g transform="translate(341.416519 287.910437)scale(0.1 -0.1)">
       <use xlink:href="#DejaVuSans-31"/>
       <use xlink:href="#DejaVuSans-2e" x="63.623047"/>
       <use xlink:href="#DejaVuSans-34" x="95.410156"/>
      </g>
     </g>
    </g>
    <g id="xtick_9">
     <g id="line2d_9">
      <g>
       <use xlink:href="#m8187be8185" x="390.704382" y="273.312" style="stroke: #000000; stroke-width: 0.8"/>
      </g>
     </g>
     <g id="text_9">
      <!-- 1.6 -->
      <g transform="translate(382.752819 287.910437)scale(0.1 -0.1)">
       <use xlink:href="#DejaVuSans-31"/>
       <use xlink:href="#DejaVuSans-2e" x="63.623047"/>
       <use xlink:href="#DejaVuSans-36" x="95.410156"/>
      </g>
     </g>
    </g>
    <g id="text_10">
     <!-- Angle with normal (rad) -->
     <g transform="translate(163.023281 301.588562)scale(0.1 -0.1)">
      <defs>
       <path id="DejaVuSans-41" d="M 2188 4044 
L 1331 1722 
L 3047 1722 
L 2188 4044 
z
M 1831 4666 
L 2547 4666 
L 4325 0 
L 3669 0 
L 3244 1197 
L 1141 1197 
L 716 0 
L 50 0 
L 1831 4666 
z
" transform="scale(0.015625)"/>
       <path id="DejaVuSans-6e" d="M 3513 2113 
L 3513 0 
L 2938 0 
L 2938 2094 
Q 2938 2591 2744 2837 
Q 2550 3084 2163 3084 
Q 1697 3084 1428 2787 
Q 1159 2491 1159 1978 
L 1159 0 
L 581 0 
L 581 3500 
L 1159 3500 
L 1159 2956 
Q 1366 3272 1645 3428 
Q 1925 3584 2291 3584 
Q 2894 3584 3203 3211 
Q 3513 2838 3513 2113 
z
" transform="scale(0.015625)"/>
       <path id="DejaVuSans-67" d="M 2906 1791 
Q 2906 2416 2648 2759 
Q 2391 3103 1925 3103 
Q 1463 3103 1205 2759 
Q 947 2416 947 1791 
Q 947 1169 1205 825 
Q 1463 481 1925 481 
Q 2391 481 2648 825 
Q 2906 1169 2906 1791 
z
M 3481 434 
Q 3481 -459 3084 -895 
Q 2688 -1331 1869 -1331 
Q 1566 -1331 1297 -1286 
Q 1028 -1241 775 -1147 
L 775 -588 
Q 1028 -725 1275 -790 
Q 1522 -856 1778 -856 
Q 2344 -856 2625 -561 
Q 2906 -266 2906 331 
L 2906 616 
Q 2728 306 2450 153 
Q 2172 0 1784 0 
Q 1141 0 747 490 
Q 353 981 353 1791 
Q 353 2603 747 3093 
Q 1141 3584 1784 3584 
Q 2172 3584 2450 3431 
Q 2728 3278 2906 2969 
L 2906 3500 
L 3481 3500 
L 3481 434 
z
" transform="scale(0.015625)"/>
       <path id="DejaVuSans-6c" d="M 603 4863 
L 1178 4863 
L 1178 0 
L 603 0 
L 603 4863 
z
" transform="scale(0.015625)"/>
       <path id="DejaVuSans-65" d="M 3597 1894 
L 3597 1613 
L 953 1613 
Q 991 1019 1311 708 
Q 1631 397 2203 397 
Q 2534 397 2845 478 
Q 3156 559 3463 722 
L 3463 178 
Q 3153 47 2828 -22 
Q 2503 -91 2169 -91 
Q 1331 -91 842 396 
Q 353 884 353 1716 
Q 353 2575 817 3079 
Q 1281 3584 2069 3584 
Q 2775 3584 3186 3129 
Q 3597 2675 3597 1894 
z
M 3022 2063 
Q 3016 2534 2758 2815 
Q 2500 3097 2075 3097 
Q 1594 3097 1305 2825 
Q 1016 2553 972 2059 
L 3022 2063 
z
" transform="scale(0.015625)"/>
       <path id="DejaVuSans-20" transform="scale(0.015625)"/>
       <path id="DejaVuSans-77" d="M 269 3500 
L 844 3500 
L 1563 769 
L 2278 3500 
L 2956 3500 
L 3675 769 
L 4391 3500 
L 4966 3500 
L 4050 0 
L 3372 0 
L 2619 2869 
L 1863 0 
L 1184 0 
L 269 3500 
z
" transform="scale(0.015625)"/>
       <path id="DejaVuSans-69" d="M 603 3500 
L 1178 3500 
L 1178 0 
L 603 0 
L 603 3500 
z
M 603 4863 
L 1178 4863 
L 1178 4134 
L 603 4134 
L 603 4863 
z
" transform="scale(0.015625)"/>
       <path id="DejaVuSans-74" d="M 1172 4494 
L 1172 3500 
L 2356 3500 
L 2356 3053 
L 1172 3053 
L 1172 1153 
Q 1172 725 1289 603 
Q 1406 481 1766 481 
L 2356 481 
L 2356 0 
L 1766 0 
Q 1100 0 847 248 
Q 594 497 594 1153 
L 594 3053 
L 172 3053 
L 172 3500 
L 594 3500 
L 594 4494 
L 1172 4494 
z
" transform="scale(0.015625)"/>
       <path id="DejaVuSans-68" d="M 3513 2113 
L 3513 0 
L 2938 0 
L 2938 2094 
Q 2938 2591 2744 2837 
Q 2550 3084 2163 3084 
Q 1697 3084 1428 2787 
Q 1159 2491 1159 1978 
L 1159 0 
L 581 0 
L 581 4863 
L 1159 4863 
L 1159 2956 
Q 1366 3272 1645 3428 
Q 1925 3584 2291 3584 
Q 2894 3584 3203 3211 
Q 3513 2838 3513 2113 
z
" transform="scale(0.015625)"/>
       <path id="DejaVuSans-6f" d="M 1959 3097 
Q 1497 3097 1228 2736 
Q 959 2375 959 1747 
Q 959 1119 1226 758 
Q 1494 397 1959 397 
Q 2419 397 2687 759 
Q 2956 1122 2956 1747 
Q 2956 2369 2687 2733 
Q 2419 3097 1959 3097 
z
M 1959 3584 
Q 2709 3584 3137 3096 
Q 3566 2609 3566 1747 
Q 3566 888 3137 398 
Q 2709 -91 1959 -91 
Q 1206 -91 779 398 
Q 353 888 353 1747 
Q 353 2609 779 3096 
Q 1206 3584 1959 3584 
z
" transform="scale(0.015625)"/>
       <path id="DejaVuSans-72" d="M 2631 2963 
Q 2534 3019 2420 3045 
Q 2306 3072 2169 3072 
Q 1681 3072 1420 2755 
Q 1159 2438 1159 1844 
L 1159 0 
L 581 0 
L 581 3500 
L 1159 3500 
L 1159 2956 
Q 1341 3275 1631 3429 
Q 1922 3584 2338 3584 
Q 2397 3584 2469 3576 
Q 2541 3569 2628 3553 
L 2631 2963 
z
" transform="scale(0.015625)"/>
       <path id="DejaVuSans-6d" d="M 3328 2828 
Q 3544 3216 3844 3400 
Q 4144 3584 4550 3584 
Q 5097 3584 5394 3201 
Q 5691 2819 5691 2113 
L 5691 0 
L 5113 0 
L 5113 2094 
Q 5113 2597 4934 2840 
Q 4756 3084 4391 3084 
Q 3944 3084 3684 2787 
Q 3425 2491 3425 1978 
L 3425 0 
L 2847 0 
L 2847 2094 
Q 2847 2600 2669 2842 
Q 2491 3084 2119 3084 
Q 1678 3084 1418 2786 
Q 1159 2488 1159 1978 
L 1159 0 
L 581 0 
L 581 3500 
L 1159 3500 
L 1159 2956 
Q 1356 3278 1631 3431 
Q 1906 3584 2284 3584 
Q 2666 3584 2933 3390 
Q 3200 3197 3328 2828 
z
" transform="scale(0.015625)"/>
       <path id="DejaVuSans-61" d="M 2194 1759 
Q 1497 1759 1228 1600 
Q 959 1441 959 1056 
Q 959 750 1161 570 
Q 1363 391 1709 391 
Q 2188 391 2477 730 
Q 2766 1069 2766 1631 
L 2766 1759 
L 2194 1759 
z
M 3341 1997 
L 3341 0 
L 2766 0 
L 2766 531 
Q 2569 213 2275 61 
Q 1981 -91 1556 -91 
Q 1019 -91 701 211 
Q 384 513 384 1019 
Q 384 1609 779 1909 
Q 1175 2209 1959 2209 
L 2766 2209 
L 2766 2266 
Q 2766 2663 2505 2880 
Q 2244 3097 1772 3097 
Q 1472 3097 1187 3025 
Q 903 2953 641 2809 
L 641 3341 
Q 956 3463 1253 3523 
Q 1550 3584 1831 3584 
Q 2591 3584 2966 3190 
Q 3341 2797 3341 1997 
z
" transform="scale(0.015625)"/>
       <path id="DejaVuSans-28" d="M 1984 4856 
Q 1566 4138 1362 3434 
Q 1159 2731 1159 2009 
Q 1159 1288 1364 580 
Q 1569 -128 1984 -844 
L 1484 -844 
Q 1016 -109 783 600 
Q 550 1309 550 2009 
Q 550 2706 781 3412 
Q 1013 4119 1484 4856 
L 1984 4856 
z
" transform="scale(0.015625)"/>
       <path id="DejaVuSans-64" d="M 2906 2969 
L 2906 4863 
L 3481 4863 
L 3481 0 
L 2906 0 
L 2906 525 
Q 2725 213 2448 61 
Q 2172 -91 1784 -91 
Q 1150 -91 751 415 
Q 353 922 353 1747 
Q 353 2572 751 3078 
Q 1150 3584 1784 3584 
Q 2172 3584 2448 3432 
Q 2725 3281 2906 2969 
z
M 947 1747 
Q 947 1113 1208 752 
Q 1469 391 1925 391 
Q 2381 391 2643 752 
Q 2906 1113 2906 1747 
Q 2906 2381 2643 2742 
Q 2381 3103 1925 3103 
Q 1469 3103 1208 2742 
Q 947 2381 947 1747 
z
" transform="scale(0.015625)"/>
       <path id="DejaVuSans-29" d="M 513 4856 
L 1013 4856 
Q 1481 4119 1714 3412 
Q 1947 2706 1947 2009 
Q 1947 1309 1714 600 
Q 1481 -109 1013 -844 
L 513 -844 
Q 928 -128 1133 580 
Q 1338 1288 1338 2009 
Q 1338 2731 1133 3434 
Q 928 4138 513 4856 
z
" transform="scale(0.015625)"/>
      </defs>
      <use xlink:href="#DejaVuSans-41"/>
      <use xlink:href="#DejaVuSans-6e" x="68.408203"/>
      <use xlink:href="#DejaVuSans-67" x="131.787109"/>
      <use xlink:href="#DejaVuSans-6c" x="195.263672"/>
      <use xlink:href="#DejaVuSans-65" x="223.046875"/>
      <use xlink:href="#DejaVuSans-20" x="284.570312"/>
      <use xlink:href="#DejaVuSans-77" x="316.357422"/>
      <use xlink:href="#DejaVuSans-69" x="398.144531"/>
      <use xlink:href="#DejaVuSans-74" x="425.927734"/>
      <use xlink:href="#DejaVuSans-68" x="465.136719"/>
      <use xlink:href="#DejaVuSans-20" x="528.515625"/>
      <use xlink:href="#DejaVuSans-6e" x="560.302734"/>
      <use xlink:href="#DejaVuSans-6f" x="623.681641"/>
      <use xlink:href="#DejaVuSans-72" x="684.863281"/>
      <use xlink:href="#DejaVuSans-6d" x="724.226562"/>
      <use xlink:href="#DejaVuSans-61" x="821.638672"/>
      <use xlink:href="#DejaVuSans-6c" x="882.917969"/>
      <use xlink:href="#DejaVuSans-20" x="910.701172"/>
      <use xlink:href="#DejaVuSans-28" x="942.488281"/>
      <use xlink:href="#DejaVuSans-72" x="981.501953"/>
      <use xlink:href="#DejaVuSans-61" x="1022.615234"/>
      <use xlink:href="#DejaVuSans-64" x="1083.894531"/>
      <use xlink:href="#DejaVuSans-29" x="1147.371094"/>
     </g>
    </g>
   </g>
   <g id="matplotlib.axis_2">
    <g id="ytick_1">
     <g id="line2d_10">
      <defs>
       <path id="m3d7b5c7a09" d="M 0 0 
L -3.5 0 
" style="stroke: #000000; stroke-width: 0.8"/>
      </defs>
      <g>
       <use xlink:href="#m3d7b5c7a09" x="43.78125" y="273.312" style="stroke: #000000; stroke-width: 0.8"/>
      </g>
     </g>
     <g id="text_11">
      <!-- 0.0 -->
      <g transform="translate(20.878125 277.111219)scale(0.1 -0.1)">
       <use xlink:href="#DejaVuSans-30"/>
       <use xlink:href="#DejaVuSans-2e" x="63.623047"/>
       <use xlink:href="#DejaVuSans-30" x="95.410156"/>
      </g>
     </g>
    </g>
    <g id="ytick_2">
     <g id="line2d_11">
      <g>
       <use xlink:href="#m3d7b5c7a09" x="43.78125" y="227.665273" style="stroke: #000000; stroke-width: 0.8"/>
      </g>
     </g>
     <g id="text_12">
      <!-- 0.2 -->
      <g transform="translate(20.878125 231.464492)scale(0.1 -0.1)">
       <use xlink:href="#DejaVuSans-30"/>
       <use xlink:href="#DejaVuSans-2e" x="63.623047"/>
       <use xlink:href="#DejaVuSans-32" x="95.410156"/>
      </g>
     </g>
    </g>
    <g id="ytick_3">
     <g id="line2d_12">
      <g>
       <use xlink:href="#m3d7b5c7a09" x="43.78125" y="182.018547" style="stroke: #000000; stroke-width: 0.8"/>
      </g>
     </g>
     <g id="text_13">
      <!-- 0.4 -->
      <g transform="translate(20.878125 185.817766)scale(0.1 -0.1)">
       <use xlink:href="#DejaVuSans-30"/>
       <use xlink:href="#DejaVuSans-2e" x="63.623047"/>
       <use xlink:href="#DejaVuSans-34" x="95.410156"/>
      </g>
     </g>
    </g>
    <g id="ytick_4">
     <g id="line2d_13">
      <g>
       <use xlink:href="#m3d7b5c7a09" x="43.78125" y="136.37182" style="stroke: #000000; stroke-width: 0.8"/>
      </g>
     </g>
     <g id="text_14">
      <!-- 0.6 -->
      <g transform="translate(20.878125 140.171039)scale(0.1 -0.1)">
       <use xlink:href="#DejaVuSans-30"/>
       <use xlink:href="#DejaVuSans-2e" x="63.623047"/>
       <use xlink:href="#DejaVuSans-36" x="95.410156"/>
      </g>
     </g>
    </g>
    <g id="ytick_5">
     <g id="line2d_14">
      <g>
       <use xlink:href="#m3d7b5c7a09" x="43.78125" y="90.725094" style="stroke: #000000; stroke-width: 0.8"/>
      </g>
     </g>
     <g id="text_15">
      <!-- 0.8 -->
      <g transform="translate(20.878125 94.524312)scale(0.1 -0.1)">
       <use xlink:href="#DejaVuSans-30"/>
       <use xlink:href="#DejaVuSans-2e" x="63.623047"/>
       <use xlink:href="#DejaVuSans-38" x="95.410156"/>
      </g>
     </g>
    </g>
    <g id="ytick_6">
     <g id="line2d_15">
      <g>
       <use xlink:href="#m3d7b5c7a09" x="43.78125" y="45.078367" style="stroke: #000000; stroke-width: 0.8"/>
      </g>
     </g>
     <g id="text_16">
      <!-- 1.0 -->
      <g transform="translate(20.878125 48.877586)scale(0.1 -0.1)">
       <use xlink:href="#DejaVuSans-31"/>
       <use xlink:href="#DejaVuSans-2e" x="63.623047"/>
       <use xlink:href="#DejaVuSans-30" x="95.410156"/>
      </g>
     </g>
    </g>
    <g id="text_17">
     <!-- Probability density -->
     <g transform="translate(14.798438 186.606781)rotate(-90)scale(0.1 -0.1)">
      <defs>
       <path id="DejaVuSans-50" d="M 1259 4147 
L 1259 2394 
L 2053 2394 
Q 2494 2394 2734 2622 
Q 2975 2850 2975 3272 
Q 2975 3691 2734 3919 
Q 2494 4147 2053 4147 
L 1259 4147 
z
M 628 4666 
L 2053 4666 
Q 2838 4666 3239 4311 
Q 3641 3956 3641 3272 
Q 3641 2581 3239 2228 
Q 2838 1875 2053 1875 
L 1259 1875 
L 1259 0 
L 628 0 
L 628 4666 
z
" transform="scale(0.015625)"/>
       <path id="DejaVuSans-62" d="M 3116 1747 
Q 3116 2381 2855 2742 
Q 2594 3103 2138 3103 
Q 1681 3103 1420 2742 
Q 1159 2381 1159 1747 
Q 1159 1113 1420 752 
Q 1681 391 2138 391 
Q 2594 391 2855 752 
Q 3116 1113 3116 1747 
z
M 1159 2969 
Q 1341 3281 1617 3432 
Q 1894 3584 2278 3584 
Q 2916 3584 3314 3078 
Q 3713 2572 3713 1747 
Q 3713 922 3314 415 
Q 2916 -91 2278 -91 
Q 1894 -91 1617 61 
Q 1341 213 1159 525 
L 1159 0 
L 581 0 
L 581 4863 
L 1159 4863 
L 1159 2969 
z
" transform="scale(0.015625)"/>
       <path id="DejaVuSans-79" d="M 2059 -325 
Q 1816 -950 1584 -1140 
Q 1353 -1331 966 -1331 
L 506 -1331 
L 506 -850 
L 844 -850 
Q 1081 -850 1212 -737 
Q 1344 -625 1503 -206 
L 1606 56 
L 191 3500 
L 800 3500 
L 1894 763 
L 2988 3500 
L 3597 3500 
L 2059 -325 
z
" transform="scale(0.015625)"/>
       <path id="DejaVuSans-73" d="M 2834 3397 
L 2834 2853 
Q 2591 2978 2328 3040 
Q 2066 3103 1784 3103 
Q 1356 3103 1142 2972 
Q 928 2841 928 2578 
Q 928 2378 1081 2264 
Q 1234 2150 1697 2047 
L 1894 2003 
Q 2506 1872 2764 1633 
Q 3022 1394 3022 966 
Q 3022 478 2636 193 
Q 2250 -91 1575 -91 
Q 1294 -91 989 -36 
Q 684 19 347 128 
L 347 722 
Q 666 556 975 473 
Q 1284 391 1588 391 
Q 1994 391 2212 530 
Q 2431 669 2431 922 
Q 2431 1156 2273 1281 
Q 2116 1406 1581 1522 
L 1381 1569 
Q 847 1681 609 1914 
Q 372 2147 372 2553 
Q 372 3047 722 3315 
Q 1072 3584 1716 3584 
Q 2034 3584 2315 3537 
Q 2597 3491 2834 3397 
z
" transform="scale(0.015625)"/>
      </defs>
      <use xlink:href="#DejaVuSans-50"/>
      <use xlink:href="#DejaVuSans-72" x="58.552734"/>
      <use xlink:href="#DejaVuSans-6f" x="97.416016"/>
      <use xlink:href="#DejaVuSans-62" x="158.597656"/>
      <use xlink:href="#DejaVuSans-61" x="222.074219"/>
      <use xlink:href="#DejaVuSans-62" x="283.353516"/>
      <use xlink:href="#DejaVuSans-69" x="346.830078"/>
      <use xlink:href="#DejaVuSans-6c" x="374.613281"/>
      <use xlink:href="#DejaVuSans-69" x="402.396484"/>
      <use xlink:href="#DejaVuSans-74" x="430.179688"/>
      <use xlink:href="#DejaVuSans-79" x="469.388672"/>
      <use xlink:href="#DejaVuSans-20" x="528.568359"/>
      <use xlink:href="#DejaVuSans-64" x="560.355469"/>
      <use xlink:href="#DejaVuSans-65" x="623.832031"/>
      <use xlink:href="#DejaVuSans-6e" x="685.355469"/>
      <use xlink:href="#DejaVuSans-73" x="748.734375"/>
      <use xlink:href="#DejaVuSans-69" x="800.833984"/>
      <use xlink:href="#DejaVuSans-74" x="828.617188"/>
      <use xlink:href="#DejaVuSans-79" x="867.826172"/>
     </g>
    </g>
   </g>
   <g id="line2d_16">
    <path d="M 60.013977 273.312 
L 79.837728 229.798198 
L 90.237073 207.510146 
L 99.01152 189.213522 
L 106.811029 173.454534 
L 113.960578 159.506113 
L 120.460169 147.296532 
L 126.63478 136.158277 
L 132.484411 126.057158 
L 138.009063 116.949802 
L 143.208736 108.785856 
L 148.408408 101.038349 
L 153.283101 94.170727 
L 157.832814 88.120221 
L 162.382528 82.428616 
L 166.932241 77.106945 
L 171.156975 72.50566 
L 175.381709 68.239937 
L 179.281463 64.606356 
L 183.181217 61.269952 
L 187.080972 58.235474 
L 190.655746 55.722802 
L 194.230521 53.470474 
L 197.805296 51.481186 
L 201.380071 49.757316 
L 204.629866 48.422227 
L 207.879661 47.309521 
L 211.129456 46.420299 
L 214.379252 45.75544 
L 217.629047 45.315602 
L 220.878842 45.10122 
L 224.128637 45.112505 
L 227.378433 45.349446 
L 230.628228 45.81181 
L 233.878023 46.499138 
L 237.127818 47.410751 
L 240.377614 48.545749 
L 243.627409 49.903008 
L 247.202184 51.651096 
L 250.776958 53.6644 
L 254.351733 55.940512 
L 257.926508 58.476707 
L 261.501283 61.269952 
L 265.401037 64.606356 
L 269.300791 68.239937 
L 273.200546 72.16552 
L 277.425279 76.741258 
L 281.650013 81.64548 
L 286.199727 87.284896 
L 290.74944 93.284833 
L 295.624133 100.10018 
L 300.498826 107.300871 
L 305.698498 115.388278 
L 311.22315 124.418646 
L 316.747802 133.874454 
L 322.597433 144.320155 
L 328.772044 155.793751 
L 335.596614 168.961346 
L 342.746164 183.242906 
L 350.870652 199.991182 
L 359.970079 219.281976 
L 371.019383 243.254706 
L 384.668523 273.312 
L 384.668523 273.312 
" clip-path="url(#p7892d697c6)" style="fill: none; stroke: #ff7f0e; stroke-width: 1.5; stroke-linecap: square"/>
   </g>
   <g id="patch_203">
    <path d="M 43.78125 273.312 
L 43.78125 7.2 
" style="fill: none; stroke: #000000; stroke-width: 0.8; stroke-linejoin: miter; stroke-linecap: square"/>
   </g>
   <g id="patch_204">
    <path d="M 400.90125 273.312 
L 400.90125 7.2 
" style="fill: none; stroke: #000000; stroke-width: 0.8; stroke-linejoin: miter; stroke-linecap: square"/>
   </g>
   <g id="patch_205">
    <path d="M 43.78125 273.312 
L 400.90125 273.312 
" style="fill: none; stroke: #000000; stroke-width: 0.8; stroke-linejoin: miter; stroke-linecap: square"/>
   </g>
   <g id="patch_206">
    <path d="M 43.78125 7.2 
L 400.90125 7.2 
" style="fill: none; stroke: #000000; stroke-width: 0.8; stroke-linejoin: miter; stroke-linecap: square"/>
   </g>
  </g>
 </g>
 <defs>
  <clipPath id="p7892d697c6">
   <rect x="43.78125" y="7.2" width="357.12" height="266.112"/>
  </clipPath>
 </defs>
</svg>
