<?xml version="1.0" encoding="utf-8" standalone="no"?>
<!DOCTYPE svg PUBLIC "-//W3C//DTD SVG 1.1//EN"
  "http://www.w3.org/Graphics/SVG/1.1/DTD/svg11.dtd">
<svg xmlns:xlink="http://www.w3.org/1999/xlink" width="408.10125pt" height="310.86825pt" viewBox="0 0 408.10125 310.86825" xmlns="http://www.w3.org/2000/svg" version="1.1">
 <metadata>
  <rdf:RDF xmlns:dc="http://purl.org/dc/elements/1.1/" xmlns:cc="http://creativecommons.org/ns#" xmlns:rdf="http://www.w3.org/1999/02/22-rdf-syntax-ns#">
   <cc:Work>
    <dc:type rdf:resource="http://purl.org/dc/dcmitype/StillImage"/>
    <dc:date>2022-05-03T20:36:43.647381</dc:date>
    <dc:format>image/svg+xml</dc:format>
    <dc:creator>
     <cc:Agent>
      <dc:title>Matplotlib v3.5.1, https://matplotlib.org/</dc:title>
     </cc:Agent>
    </dc:creator>
   </cc:Work>
  </rdf:RDF>
 </metadata>
 <defs>
  <style type="text/css">*{stroke-linejoin: round; stroke-linecap: butt}</style>
 </defs>
 <g id="figure_1">
  <g id="patch_1">
   <path d="M 0 310.86825 
L 408.10125 310.86825 
L 408.10125 0 
L 0 0 
z
" style="fill: #ffffff"/>
  </g>
  <g id="axes_1">
   <g id="patch_2">
    <path d="M 43.78125 273.312 
L 400.90125 273.312 
L 400.90125 7.2 
L 43.78125 7.2 
z
" style="fill: #ffffff"/>
   </g>
   <g id="patch_3">
    <path d="M 60.935072 273.312 
L 62.549201 273.312 
L 62.549201 269.617539 
L 60.935072 269.617539 
z
" clip-path="url(#pbc1eb20167)" style="fill: #1f77b4"/>
   </g>
   <g id="patch_4">
    <path d="M 62.549201 273.312 
L 64.16333 273.312 
L 64.16333 262.96751 
L 62.549201 262.96751 
z
" clip-path="url(#pbc1eb20167)" style="fill: #1f77b4"/>
   </g>
   <g id="patch_5">
    <path d="M 64.16333 273.312 
L 65.777458 273.312 
L 65.777458 262.96751 
L 64.16333 262.96751 
z
" clip-path="url(#pbc1eb20167)" style="fill: #1f77b4"/>
   </g>
   <g id="patch_6">
    <path d="M 65.777458 273.312 
L 67.391587 273.312 
L 67.391587 253.361913 
L 65.777458 253.361913 
z
" clip-path="url(#pbc1eb20167)" style="fill: #1f77b4"/>
   </g>
   <g id="patch_7">
    <path d="M 67.391587 273.312 
L 69.005715 273.312 
L 69.005715 254.100805 
L 67.391587 254.100805 
z
" clip-path="url(#pbc1eb20167)" style="fill: #1f77b4"/>
   </g>
   <g id="patch_8">
    <path d="M 69.005715 273.312 
L 70.619844 273.312 
L 70.619844 252.62302 
L 69.005715 252.62302 
z
" clip-path="url(#pbc1eb20167)" style="fill: #1f77b4"/>
   </g>
   <g id="patch_9">
    <path d="M 70.619844 273.312 
L 72.233973 273.312 
L 72.233973 250.406344 
L 70.619844 250.406344 
z
" clip-path="url(#pbc1eb20167)" style="fill: #1f77b4"/>
   </g>
   <g id="patch_10">
    <path d="M 72.233973 273.312 
L 73.848101 273.312 
L 73.848101 243.017423 
L 72.233973 243.017423 
z
" clip-path="url(#pbc1eb20167)" style="fill: #1f77b4"/>
   </g>
   <g id="patch_11">
    <path d="M 73.848101 273.312 
L 75.46223 273.312 
L 75.46223 235.628501 
L 73.848101 235.628501 
z
" clip-path="url(#pbc1eb20167)" style="fill: #1f77b4"/>
   </g>
   <g id="patch_12">
    <path d="M 75.46223 273.312 
L 77.076359 273.312 
L 77.076359 240.800746 
L 75.46223 240.800746 
z
" clip-path="url(#pbc1eb20167)" style="fill: #1f77b4"/>
   </g>
   <g id="patch_13">
    <path d="M 77.076359 273.312 
L 78.690487 273.312 
L 78.690487 240.061854 
L 77.076359 240.061854 
z
" clip-path="url(#pbc1eb20167)" style="fill: #1f77b4"/>
   </g>
   <g id="patch_14">
    <path d="M 78.690487 273.312 
L 80.304616 273.312 
L 80.304616 235.628501 
L 78.690487 235.628501 
z
" clip-path="url(#pbc1eb20167)" style="fill: #1f77b4"/>
   </g>
   <g id="patch_15">
    <path d="M 80.304616 273.312 
L 81.918745 273.312 
L 81.918745 228.23958 
L 80.304616 228.23958 
z
" clip-path="url(#pbc1eb20167)" style="fill: #1f77b4"/>
   </g>
   <g id="patch_16">
    <path d="M 81.918745 273.312 
L 83.532873 273.312 
L 83.532873 221.589551 
L 81.918745 221.589551 
z
" clip-path="url(#pbc1eb20167)" style="fill: #1f77b4"/>
   </g>
   <g id="patch_17">
    <path d="M 83.532873 273.312 
L 85.147002 273.312 
L 85.147002 229.717364 
L 83.532873 229.717364 
z
" clip-path="url(#pbc1eb20167)" style="fill: #1f77b4"/>
   </g>
   <g id="patch_18">
    <path d="M 85.147002 273.312 
L 86.76113 273.312 
L 86.76113 203.85614 
L 85.147002 203.85614 
z
" clip-path="url(#pbc1eb20167)" style="fill: #1f77b4"/>
   </g>
   <g id="patch_19">
    <path d="M 86.76113 273.312 
L 88.375259 273.312 
L 88.375259 214.20063 
L 86.76113 214.20063 
z
" clip-path="url(#pbc1eb20167)" style="fill: #1f77b4"/>
   </g>
   <g id="patch_20">
    <path d="M 88.375259 273.312 
L 89.989388 273.312 
L 89.989388 209.767277 
L 88.375259 209.767277 
z
" clip-path="url(#pbc1eb20167)" style="fill: #1f77b4"/>
   </g>
   <g id="patch_21">
    <path d="M 89.989388 273.312 
L 91.603516 273.312 
L 91.603516 192.772758 
L 89.989388 192.772758 
z
" clip-path="url(#pbc1eb20167)" style="fill: #1f77b4"/>
   </g>
   <g id="patch_22">
    <path d="M 91.603516 273.312 
L 93.217645 273.312 
L 93.217645 195.728327 
L 91.603516 195.728327 
z
" clip-path="url(#pbc1eb20167)" style="fill: #1f77b4"/>
   </g>
   <g id="patch_23">
    <path d="M 93.217645 273.312 
L 94.831774 273.312 
L 94.831774 209.028385 
L 93.217645 209.028385 
z
" clip-path="url(#pbc1eb20167)" style="fill: #1f77b4"/>
   </g>
   <g id="patch_24">
    <path d="M 94.831774 273.312 
L 96.445902 273.312 
L 96.445902 196.467219 
L 94.831774 196.467219 
z
" clip-path="url(#pbc1eb20167)" style="fill: #1f77b4"/>
   </g>
   <g id="patch_25">
    <path d="M 96.445902 273.312 
L 98.060031 273.312 
L 98.060031 188.339405 
L 96.445902 188.339405 
z
" clip-path="url(#pbc1eb20167)" style="fill: #1f77b4"/>
   </g>
   <g id="patch_26">
    <path d="M 98.060031 273.312 
L 99.67416 273.312 
L 99.67416 190.556082 
L 98.060031 190.556082 
z
" clip-path="url(#pbc1eb20167)" style="fill: #1f77b4"/>
   </g>
   <g id="patch_27">
    <path d="M 99.67416 273.312 
L 101.288288 273.312 
L 101.288288 182.428268 
L 99.67416 182.428268 
z
" clip-path="url(#pbc1eb20167)" style="fill: #1f77b4"/>
   </g>
   <g id="patch_28">
    <path d="M 101.288288 273.312 
L 102.902417 273.312 
L 102.902417 182.428268 
L 101.288288 182.428268 
z
" clip-path="url(#pbc1eb20167)" style="fill: #1f77b4"/>
   </g>
   <g id="patch_29">
    <path d="M 102.902417 273.312 
L 104.516545 273.312 
L 104.516545 173.561563 
L 102.902417 173.561563 
z
" clip-path="url(#pbc1eb20167)" style="fill: #1f77b4"/>
   </g>
   <g id="patch_30">
    <path d="M 104.516545 273.312 
L 106.130674 273.312 
L 106.130674 175.778239 
L 104.516545 175.778239 
z
" clip-path="url(#pbc1eb20167)" style="fill: #1f77b4"/>
   </g>
   <g id="patch_31">
    <path d="M 106.130674 273.312 
L 107.744803 273.312 
L 107.744803 152.872583 
L 106.130674 152.872583 
z
" clip-path="url(#pbc1eb20167)" style="fill: #1f77b4"/>
   </g>
   <g id="patch_32">
    <path d="M 107.744803 273.312 
L 109.358931 273.312 
L 109.358931 169.12821 
L 107.744803 169.12821 
z
" clip-path="url(#pbc1eb20167)" style="fill: #1f77b4"/>
   </g>
   <g id="patch_33">
    <path d="M 109.358931 273.312 
L 110.97306 273.312 
L 110.97306 161.000397 
L 109.358931 161.000397 
z
" clip-path="url(#pbc1eb20167)" style="fill: #1f77b4"/>
   </g>
   <g id="patch_34">
    <path d="M 110.97306 273.312 
L 112.587189 273.312 
L 112.587189 158.044828 
L 110.97306 158.044828 
z
" clip-path="url(#pbc1eb20167)" style="fill: #1f77b4"/>
   </g>
   <g id="patch_35">
    <path d="M 112.587189 273.312 
L 114.201317 273.312 
L 114.201317 165.433749 
L 112.587189 165.433749 
z
" clip-path="url(#pbc1eb20167)" style="fill: #1f77b4"/>
   </g>
   <g id="patch_36">
    <path d="M 114.201317 273.312 
L 115.815446 273.312 
L 115.815446 151.394799 
L 114.201317 151.394799 
z
" clip-path="url(#pbc1eb20167)" style="fill: #1f77b4"/>
   </g>
   <g id="patch_37">
    <path d="M 115.815446 273.312 
L 117.429574 273.312 
L 117.429574 149.178122 
L 115.815446 149.178122 
z
" clip-path="url(#pbc1eb20167)" style="fill: #1f77b4"/>
   </g>
   <g id="patch_38">
    <path d="M 117.429574 273.312 
L 119.043703 273.312 
L 119.043703 136.616956 
L 117.429574 136.616956 
z
" clip-path="url(#pbc1eb20167)" style="fill: #1f77b4"/>
   </g>
   <g id="patch_39">
    <path d="M 119.043703 273.312 
L 120.657832 273.312 
L 120.657832 133.661388 
L 119.043703 133.661388 
z
" clip-path="url(#pbc1eb20167)" style="fill: #1f77b4"/>
   </g>
   <g id="patch_40">
    <path d="M 120.657832 273.312 
L 122.27196 273.312 
L 122.27196 142.528093 
L 120.657832 142.528093 
z
" clip-path="url(#pbc1eb20167)" style="fill: #1f77b4"/>
   </g>
   <g id="patch_41">
    <path d="M 122.27196 273.312 
L 123.886089 273.312 
L 123.886089 137.355848 
L 122.27196 137.355848 
z
" clip-path="url(#pbc1eb20167)" style="fill: #1f77b4"/>
   </g>
   <g id="patch_42">
    <path d="M 123.886089 273.312 
L 125.500218 273.312 
L 125.500218 148.43923 
L 123.886089 148.43923 
z
" clip-path="url(#pbc1eb20167)" style="fill: #1f77b4"/>
   </g>
   <g id="patch_43">
    <path d="M 125.500218 273.312 
L 127.114346 273.312 
L 127.114346 138.833633 
L 125.500218 138.833633 
z
" clip-path="url(#pbc1eb20167)" style="fill: #1f77b4"/>
   </g>
   <g id="patch_44">
    <path d="M 127.114346 273.312 
L 128.728475 273.312 
L 128.728475 155.089259 
L 127.114346 155.089259 
z
" clip-path="url(#pbc1eb20167)" style="fill: #1f77b4"/>
   </g>
   <g id="patch_45">
    <path d="M 128.728475 273.312 
L 130.342604 273.312 
L 130.342604 111.494624 
L 128.728475 111.494624 
z
" clip-path="url(#pbc1eb20167)" style="fill: #1f77b4"/>
   </g>
   <g id="patch_46">
    <path d="M 130.342604 273.312 
L 131.956732 273.312 
L 131.956732 131.444711 
L 130.342604 131.444711 
z
" clip-path="url(#pbc1eb20167)" style="fill: #1f77b4"/>
   </g>
   <g id="patch_47">
    <path d="M 131.956732 273.312 
L 133.570861 273.312 
L 133.570861 116.666869 
L 131.956732 116.666869 
z
" clip-path="url(#pbc1eb20167)" style="fill: #1f77b4"/>
   </g>
   <g id="patch_48">
    <path d="M 133.570861 273.312 
L 135.184989 273.312 
L 135.184989 121.100222 
L 133.570861 121.100222 
z
" clip-path="url(#pbc1eb20167)" style="fill: #1f77b4"/>
   </g>
   <g id="patch_49">
    <path d="M 135.184989 273.312 
L 136.799118 273.312 
L 136.799118 110.755732 
L 135.184989 110.755732 
z
" clip-path="url(#pbc1eb20167)" style="fill: #1f77b4"/>
   </g>
   <g id="patch_50">
    <path d="M 136.799118 273.312 
L 138.413247 273.312 
L 138.413247 112.972408 
L 136.799118 112.972408 
z
" clip-path="url(#pbc1eb20167)" style="fill: #1f77b4"/>
   </g>
   <g id="patch_51">
    <path d="M 138.413247 273.312 
L 140.027375 273.312 
L 140.027375 115.189085 
L 138.413247 115.189085 
z
" clip-path="url(#pbc1eb20167)" style="fill: #1f77b4"/>
   </g>
   <g id="patch_52">
    <path d="M 140.027375 273.312 
L 141.641504 273.312 
L 141.641504 110.01684 
L 140.027375 110.01684 
z
" clip-path="url(#pbc1eb20167)" style="fill: #1f77b4"/>
   </g>
   <g id="patch_53">
    <path d="M 141.641504 273.312 
L 143.255633 273.312 
L 143.255633 107.800163 
L 141.641504 107.800163 
z
" clip-path="url(#pbc1eb20167)" style="fill: #1f77b4"/>
   </g>
   <g id="patch_54">
    <path d="M 143.255633 273.312 
L 144.869761 273.312 
L 144.869761 123.316898 
L 143.255633 123.316898 
z
" clip-path="url(#pbc1eb20167)" style="fill: #1f77b4"/>
   </g>
   <g id="patch_55">
    <path d="M 144.869761 273.312 
L 146.48389 273.312 
L 146.48389 114.450192 
L 144.869761 114.450192 
z
" clip-path="url(#pbc1eb20167)" style="fill: #1f77b4"/>
   </g>
   <g id="patch_56">
    <path d="M 146.48389 273.312 
L 148.098019 273.312 
L 148.098019 124.794682 
L 146.48389 124.794682 
z
" clip-path="url(#pbc1eb20167)" style="fill: #1f77b4"/>
   </g>
   <g id="patch_57">
    <path d="M 148.098019 273.312 
L 149.712147 273.312 
L 149.712147 78.244478 
L 148.098019 78.244478 
z
" clip-path="url(#pbc1eb20167)" style="fill: #1f77b4"/>
   </g>
   <g id="patch_58">
    <path d="M 149.712147 273.312 
L 151.326276 273.312 
L 151.326276 99.67235 
L 149.712147 99.67235 
z
" clip-path="url(#pbc1eb20167)" style="fill: #1f77b4"/>
   </g>
   <g id="patch_59">
    <path d="M 151.326276 273.312 
L 152.940404 273.312 
L 152.940404 90.805644 
L 151.326276 90.805644 
z
" clip-path="url(#pbc1eb20167)" style="fill: #1f77b4"/>
   </g>
   <g id="patch_60">
    <path d="M 152.940404 273.312 
L 154.554533 273.312 
L 154.554533 103.36681 
L 152.940404 103.36681 
z
" clip-path="url(#pbc1eb20167)" style="fill: #1f77b4"/>
   </g>
   <g id="patch_61">
    <path d="M 154.554533 273.312 
L 156.168662 273.312 
L 156.168662 87.850076 
L 154.554533 87.850076 
z
" clip-path="url(#pbc1eb20167)" style="fill: #1f77b4"/>
   </g>
   <g id="patch_62">
    <path d="M 156.168662 273.312 
L 157.78279 273.312 
L 157.78279 105.583487 
L 156.168662 105.583487 
z
" clip-path="url(#pbc1eb20167)" style="fill: #1f77b4"/>
   </g>
   <g id="patch_63">
    <path d="M 157.78279 273.312 
L 159.396919 273.312 
L 159.396919 95.977889 
L 157.78279 95.977889 
z
" clip-path="url(#pbc1eb20167)" style="fill: #1f77b4"/>
   </g>
   <g id="patch_64">
    <path d="M 159.396919 273.312 
L 161.011048 273.312 
L 161.011048 97.455673 
L 159.396919 97.455673 
z
" clip-path="url(#pbc1eb20167)" style="fill: #1f77b4"/>
   </g>
   <g id="patch_65">
    <path d="M 161.011048 273.312 
L 162.625176 273.312 
L 162.625176 73.072233 
L 161.011048 73.072233 
z
" clip-path="url(#pbc1eb20167)" style="fill: #1f77b4"/>
   </g>
   <g id="patch_66">
    <path d="M 162.625176 273.312 
L 164.239305 273.312 
L 164.239305 93.761213 
L 162.625176 93.761213 
z
" clip-path="url(#pbc1eb20167)" style="fill: #1f77b4"/>
   </g>
   <g id="patch_67">
    <path d="M 164.239305 273.312 
L 165.853434 273.312 
L 165.853434 76.027802 
L 164.239305 76.027802 
z
" clip-path="url(#pbc1eb20167)" style="fill: #1f77b4"/>
   </g>
   <g id="patch_68">
    <path d="M 165.853434 273.312 
L 167.467562 273.312 
L 167.467562 79.722262 
L 165.853434 79.722262 
z
" clip-path="url(#pbc1eb20167)" style="fill: #1f77b4"/>
   </g>
   <g id="patch_69">
    <path d="M 167.467562 273.312 
L 169.081691 273.312 
L 169.081691 72.333341 
L 167.467562 72.333341 
z
" clip-path="url(#pbc1eb20167)" style="fill: #1f77b4"/>
   </g>
   <g id="patch_70">
    <path d="M 169.081691 273.312 
L 170.695819 273.312 
L 170.695819 72.333341 
L 169.081691 72.333341 
z
" clip-path="url(#pbc1eb20167)" style="fill: #1f77b4"/>
   </g>
   <g id="patch_71">
    <path d="M 170.695819 273.312 
L 172.309948 273.312 
L 172.309948 76.027802 
L 170.695819 76.027802 
z
" clip-path="url(#pbc1eb20167)" style="fill: #1f77b4"/>
   </g>
   <g id="patch_72">
    <path d="M 172.309948 273.312 
L 173.924077 273.312 
L 173.924077 83.416723 
L 172.309948 83.416723 
z
" clip-path="url(#pbc1eb20167)" style="fill: #1f77b4"/>
   </g>
   <g id="patch_73">
    <path d="M 173.924077 273.312 
L 175.538205 273.312 
L 175.538205 89.32786 
L 173.924077 89.32786 
z
" clip-path="url(#pbc1eb20167)" style="fill: #1f77b4"/>
   </g>
   <g id="patch_74">
    <path d="M 175.538205 273.312 
L 177.152334 273.312 
L 177.152334 58.294391 
L 175.538205 58.294391 
z
" clip-path="url(#pbc1eb20167)" style="fill: #1f77b4"/>
   </g>
   <g id="patch_75">
    <path d="M 177.152334 273.312 
L 178.766463 273.312 
L 178.766463 68.63888 
L 177.152334 68.63888 
z
" clip-path="url(#pbc1eb20167)" style="fill: #1f77b4"/>
   </g>
   <g id="patch_76">
    <path d="M 178.766463 273.312 
L 180.380591 273.312 
L 180.380591 62.727743 
L 178.766463 62.727743 
z
" clip-path="url(#pbc1eb20167)" style="fill: #1f77b4"/>
   </g>
   <g id="patch_77">
    <path d="M 180.380591 273.312 
L 181.99472 273.312 
L 181.99472 55.338822 
L 180.380591 55.338822 
z
" clip-path="url(#pbc1eb20167)" style="fill: #1f77b4"/>
   </g>
   <g id="patch_78">
    <path d="M 181.99472 273.312 
L 183.608848 273.312 
L 183.608848 64.94442 
L 181.99472 64.94442 
z
" clip-path="url(#pbc1eb20167)" style="fill: #1f77b4"/>
   </g>
   <g id="patch_79">
    <path d="M 183.608848 273.312 
L 185.222977 273.312 
L 185.222977 70.116665 
L 183.608848 70.116665 
z
" clip-path="url(#pbc1eb20167)" style="fill: #1f77b4"/>
   </g>
   <g id="patch_80">
    <path d="M 185.222977 273.312 
L 186.837106 273.312 
L 186.837106 60.511067 
L 185.222977 60.511067 
z
" clip-path="url(#pbc1eb20167)" style="fill: #1f77b4"/>
   </g>
   <g id="patch_81">
    <path d="M 186.837106 273.312 
L 188.451234 273.312 
L 188.451234 65.683312 
L 186.837106 65.683312 
z
" clip-path="url(#pbc1eb20167)" style="fill: #1f77b4"/>
   </g>
   <g id="patch_82">
    <path d="M 188.451234 273.312 
L 190.065363 273.312 
L 190.065363 44.25544 
L 188.451234 44.25544 
z
" clip-path="url(#pbc1eb20167)" style="fill: #1f77b4"/>
   </g>
   <g id="patch_83">
    <path d="M 190.065363 273.312 
L 191.679492 273.312 
L 191.679492 59.033283 
L 190.065363 59.033283 
z
" clip-path="url(#pbc1eb20167)" style="fill: #1f77b4"/>
   </g>
   <g id="patch_84">
    <path d="M 191.679492 273.312 
L 193.29362 273.312 
L 193.29362 40.56098 
L 191.679492 40.56098 
z
" clip-path="url(#pbc1eb20167)" style="fill: #1f77b4"/>
   </g>
   <g id="patch_85">
    <path d="M 193.29362 273.312 
L 194.907749 273.312 
L 194.907749 56.816606 
L 193.29362 56.816606 
z
" clip-path="url(#pbc1eb20167)" style="fill: #1f77b4"/>
   </g>
   <g id="patch_86">
    <path d="M 194.907749 273.312 
L 196.521878 273.312 
L 196.521878 46.472117 
L 194.907749 46.472117 
z
" clip-path="url(#pbc1eb20167)" style="fill: #1f77b4"/>
   </g>
   <g id="patch_87">
    <path d="M 196.521878 273.312 
L 198.136006 273.312 
L 198.136006 65.683312 
L 196.521878 65.683312 
z
" clip-path="url(#pbc1eb20167)" style="fill: #1f77b4"/>
   </g>
   <g id="patch_88">
    <path d="M 198.136006 273.312 
L 199.750135 273.312 
L 199.750135 40.56098 
L 198.136006 40.56098 
z
" clip-path="url(#pbc1eb20167)" style="fill: #1f77b4"/>
   </g>
   <g id="patch_89">
    <path d="M 199.750135 273.312 
L 201.364263 273.312 
L 201.364263 61.249959 
L 199.750135 61.249959 
z
" clip-path="url(#pbc1eb20167)" style="fill: #1f77b4"/>
   </g>
   <g id="patch_90">
    <path d="M 201.364263 273.312 
L 202.978392 273.312 
L 202.978392 71.594449 
L 201.364263 71.594449 
z
" clip-path="url(#pbc1eb20167)" style="fill: #1f77b4"/>
   </g>
   <g id="patch_91">
    <path d="M 202.978392 273.312 
L 204.592521 273.312 
L 204.592521 49.427685 
L 202.978392 49.427685 
z
" clip-path="url(#pbc1eb20167)" style="fill: #1f77b4"/>
   </g>
   <g id="patch_92">
    <path d="M 204.592521 273.312 
L 206.206649 273.312 
L 206.206649 34.649843 
L 204.592521 34.649843 
z
" clip-path="url(#pbc1eb20167)" style="fill: #1f77b4"/>
   </g>
   <g id="patch_93">
    <path d="M 206.206649 273.312 
L 207.820778 273.312 
L 207.820778 19.872 
L 206.206649 19.872 
z
" clip-path="url(#pbc1eb20167)" style="fill: #1f77b4"/>
   </g>
   <g id="patch_94">
    <path d="M 207.820778 273.312 
L 209.434907 273.312 
L 209.434907 56.077714 
L 207.820778 56.077714 
z
" clip-path="url(#pbc1eb20167)" style="fill: #1f77b4"/>
   </g>
   <g id="patch_95">
    <path d="M 209.434907 273.312 
L 211.049035 273.312 
L 211.049035 61.249959 
L 209.434907 61.249959 
z
" clip-path="url(#pbc1eb20167)" style="fill: #1f77b4"/>
   </g>
   <g id="patch_96">
    <path d="M 211.049035 273.312 
L 212.663164 273.312 
L 212.663164 50.166577 
L 211.049035 50.166577 
z
" clip-path="url(#pbc1eb20167)" style="fill: #1f77b4"/>
   </g>
   <g id="patch_97">
    <path d="M 212.663164 273.312 
L 214.277293 273.312 
L 214.277293 44.25544 
L 212.663164 44.25544 
z
" clip-path="url(#pbc1eb20167)" style="fill: #1f77b4"/>
   </g>
   <g id="patch_98">
    <path d="M 214.277293 273.312 
L 215.891421 273.312 
L 215.891421 47.949901 
L 214.277293 47.949901 
z
" clip-path="url(#pbc1eb20167)" style="fill: #1f77b4"/>
   </g>
   <g id="patch_99">
    <path d="M 215.891421 273.312 
L 217.50555 273.312 
L 217.50555 59.772175 
L 215.891421 59.772175 
z
" clip-path="url(#pbc1eb20167)" style="fill: #1f77b4"/>
   </g>
   <g id="patch_100">
    <path d="M 217.50555 273.312 
L 219.119678 273.312 
L 219.119678 22.827569 
L 217.50555 22.827569 
z
" clip-path="url(#pbc1eb20167)" style="fill: #1f77b4"/>
   </g>
   <g id="patch_101">
    <path d="M 219.119678 273.312 
L 220.733807 273.312 
L 220.733807 53.122146 
L 219.119678 53.122146 
z
" clip-path="url(#pbc1eb20167)" style="fill: #1f77b4"/>
   </g>
   <g id="patch_102">
    <path d="M 220.733807 273.312 
L 222.347936 273.312 
L 222.347936 30.955382 
L 220.733807 30.955382 
z
" clip-path="url(#pbc1eb20167)" style="fill: #1f77b4"/>
   </g>
   <g id="patch_103">
    <path d="M 222.347936 273.312 
L 223.962064 273.312 
L 223.962064 30.21649 
L 222.347936 30.21649 
z
" clip-path="url(#pbc1eb20167)" style="fill: #1f77b4"/>
   </g>
   <g id="patch_104">
    <path d="M 223.962064 273.312 
L 225.576193 273.312 
L 225.576193 56.816606 
L 223.962064 56.816606 
z
" clip-path="url(#pbc1eb20167)" style="fill: #1f77b4"/>
   </g>
   <g id="patch_105">
    <path d="M 225.576193 273.312 
L 227.190322 273.312 
L 227.190322 36.866519 
L 225.576193 36.866519 
z
" clip-path="url(#pbc1eb20167)" style="fill: #1f77b4"/>
   </g>
   <g id="patch_106">
    <path d="M 227.190322 273.312 
L 228.80445 273.312 
L 228.80445 28.738706 
L 227.190322 28.738706 
z
" clip-path="url(#pbc1eb20167)" style="fill: #1f77b4"/>
   </g>
   <g id="patch_107">
    <path d="M 228.80445 273.312 
L 230.418579 273.312 
L 230.418579 28.738706 
L 228.80445 28.738706 
z
" clip-path="url(#pbc1eb20167)" style="fill: #1f77b4"/>
   </g>
   <g id="patch_108">
    <path d="M 230.418579 273.312 
L 232.032708 273.312 
L 232.032708 61.249959 
L 230.418579 61.249959 
z
" clip-path="url(#pbc1eb20167)" style="fill: #1f77b4"/>
   </g>
   <g id="patch_109">
    <path d="M 232.032708 273.312 
L 233.646836 273.312 
L 233.646836 71.594449 
L 232.032708 71.594449 
z
" clip-path="url(#pbc1eb20167)" style="fill: #1f77b4"/>
   </g>
   <g id="patch_110">
    <path d="M 233.646836 273.312 
L 235.260965 273.312 
L 235.260965 50.166577 
L 233.646836 50.166577 
z
" clip-path="url(#pbc1eb20167)" style="fill: #1f77b4"/>
   </g>
   <g id="patch_111">
    <path d="M 235.260965 273.312 
L 236.875093 273.312 
L 236.875093 36.127627 
L 235.260965 36.127627 
z
" clip-path="url(#pbc1eb20167)" style="fill: #1f77b4"/>
   </g>
   <g id="patch_112">
    <path d="M 236.875093 273.312 
L 238.489222 273.312 
L 238.489222 30.21649 
L 236.875093 30.21649 
z
" clip-path="url(#pbc1eb20167)" style="fill: #1f77b4"/>
   </g>
   <g id="patch_113">
    <path d="M 238.489222 273.312 
L 240.103351 273.312 
L 240.103351 23.566461 
L 238.489222 23.566461 
z
" clip-path="url(#pbc1eb20167)" style="fill: #1f77b4"/>
   </g>
   <g id="patch_114">
    <path d="M 240.103351 273.312 
L 241.717479 273.312 
L 241.717479 51.644362 
L 240.103351 51.644362 
z
" clip-path="url(#pbc1eb20167)" style="fill: #1f77b4"/>
   </g>
   <g id="patch_115">
    <path d="M 241.717479 273.312 
L 243.331608 273.312 
L 243.331608 40.56098 
L 241.717479 40.56098 
z
" clip-path="url(#pbc1eb20167)" style="fill: #1f77b4"/>
   </g>
   <g id="patch_116">
    <path d="M 243.331608 273.312 
L 244.945737 273.312 
L 244.945737 53.122146 
L 243.331608 53.122146 
z
" clip-path="url(#pbc1eb20167)" style="fill: #1f77b4"/>
   </g>
   <g id="patch_117">
    <path d="M 244.945737 273.312 
L 246.559865 273.312 
L 246.559865 27.260921 
L 244.945737 27.260921 
z
" clip-path="url(#pbc1eb20167)" style="fill: #1f77b4"/>
   </g>
   <g id="patch_118">
    <path d="M 246.559865 273.312 
L 248.173994 273.312 
L 248.173994 39.822087 
L 246.559865 39.822087 
z
" clip-path="url(#pbc1eb20167)" style="fill: #1f77b4"/>
   </g>
   <g id="patch_119">
    <path d="M 248.173994 273.312 
L 249.788122 273.312 
L 249.788122 27.999813 
L 248.173994 27.999813 
z
" clip-path="url(#pbc1eb20167)" style="fill: #1f77b4"/>
   </g>
   <g id="patch_120">
    <path d="M 249.788122 273.312 
L 251.402251 273.312 
L 251.402251 46.472117 
L 249.788122 46.472117 
z
" clip-path="url(#pbc1eb20167)" style="fill: #1f77b4"/>
   </g>
   <g id="patch_121">
    <path d="M 251.402251 273.312 
L 253.01638 273.312 
L 253.01638 32.433166 
L 251.402251 32.433166 
z
" clip-path="url(#pbc1eb20167)" style="fill: #1f77b4"/>
   </g>
   <g id="patch_122">
    <path d="M 253.01638 273.312 
L 254.630508 273.312 
L 254.630508 42.777656 
L 253.01638 42.777656 
z
" clip-path="url(#pbc1eb20167)" style="fill: #1f77b4"/>
   </g>
   <g id="patch_123">
    <path d="M 254.630508 273.312 
L 256.244637 273.312 
L 256.244637 76.027802 
L 254.630508 76.027802 
z
" clip-path="url(#pbc1eb20167)" style="fill: #1f77b4"/>
   </g>
   <g id="patch_124">
    <path d="M 256.244637 273.312 
L 257.858766 273.312 
L 257.858766 67.161096 
L 256.244637 67.161096 
z
" clip-path="url(#pbc1eb20167)" style="fill: #1f77b4"/>
   </g>
   <g id="patch_125">
    <path d="M 257.858766 273.312 
L 259.472894 273.312 
L 259.472894 53.861038 
L 257.858766 53.861038 
z
" clip-path="url(#pbc1eb20167)" style="fill: #1f77b4"/>
   </g>
   <g id="patch_126">
    <path d="M 259.472894 273.312 
L 261.087023 273.312 
L 261.087023 50.166577 
L 259.472894 50.166577 
z
" clip-path="url(#pbc1eb20167)" style="fill: #1f77b4"/>
   </g>
   <g id="patch_127">
    <path d="M 261.087023 273.312 
L 262.701152 273.312 
L 262.701152 51.644362 
L 261.087023 51.644362 
z
" clip-path="url(#pbc1eb20167)" style="fill: #1f77b4"/>
   </g>
   <g id="patch_128">
    <path d="M 262.701152 273.312 
L 264.31528 273.312 
L 264.31528 35.388735 
L 262.701152 35.388735 
z
" clip-path="url(#pbc1eb20167)" style="fill: #1f77b4"/>
   </g>
   <g id="patch_129">
    <path d="M 264.31528 273.312 
L 265.929409 273.312 
L 265.929409 64.205528 
L 264.31528 64.205528 
z
" clip-path="url(#pbc1eb20167)" style="fill: #1f77b4"/>
   </g>
   <g id="patch_130">
    <path d="M 265.929409 273.312 
L 267.543537 273.312 
L 267.543537 82.677831 
L 265.929409 82.677831 
z
" clip-path="url(#pbc1eb20167)" style="fill: #1f77b4"/>
   </g>
   <g id="patch_131">
    <path d="M 267.543537 273.312 
L 269.157666 273.312 
L 269.157666 53.861038 
L 267.543537 53.861038 
z
" clip-path="url(#pbc1eb20167)" style="fill: #1f77b4"/>
   </g>
   <g id="patch_132">
    <path d="M 269.157666 273.312 
L 270.771795 273.312 
L 270.771795 50.166577 
L 269.157666 50.166577 
z
" clip-path="url(#pbc1eb20167)" style="fill: #1f77b4"/>
   </g>
   <g id="patch_133">
    <path d="M 270.771795 273.312 
L 272.385923 273.312 
L 272.385923 64.205528 
L 270.771795 64.205528 
z
" clip-path="url(#pbc1eb20167)" style="fill: #1f77b4"/>
   </g>
   <g id="patch_134">
    <path d="M 272.385923 273.312 
L 274.000052 273.312 
L 274.000052 55.338822 
L 272.385923 55.338822 
z
" clip-path="url(#pbc1eb20167)" style="fill: #1f77b4"/>
   </g>
   <g id="patch_135">
    <path d="M 274.000052 273.312 
L 275.614181 273.312 
L 275.614181 51.644362 
L 274.000052 51.644362 
z
" clip-path="url(#pbc1eb20167)" style="fill: #1f77b4"/>
   </g>
   <g id="patch_136">
    <path d="M 275.614181 273.312 
L 277.228309 273.312 
L 277.228309 71.594449 
L 275.614181 71.594449 
z
" clip-path="url(#pbc1eb20167)" style="fill: #1f77b4"/>
   </g>
   <g id="patch_137">
    <path d="M 277.228309 273.312 
L 278.842438 273.312 
L 278.842438 93.761213 
L 277.228309 93.761213 
z
" clip-path="url(#pbc1eb20167)" style="fill: #1f77b4"/>
   </g>
   <g id="patch_138">
    <path d="M 278.842438 273.312 
L 280.456567 273.312 
L 280.456567 78.98337 
L 278.842438 78.98337 
z
" clip-path="url(#pbc1eb20167)" style="fill: #1f77b4"/>
   </g>
   <g id="patch_139">
    <path d="M 280.456567 273.312 
L 282.070695 273.312 
L 282.070695 75.28891 
L 280.456567 75.28891 
z
" clip-path="url(#pbc1eb20167)" style="fill: #1f77b4"/>
   </g>
   <g id="patch_140">
    <path d="M 282.070695 273.312 
L 283.684824 273.312 
L 283.684824 83.416723 
L 282.070695 83.416723 
z
" clip-path="url(#pbc1eb20167)" style="fill: #1f77b4"/>
   </g>
   <g id="patch_141">
    <path d="M 283.684824 273.312 
L 285.298952 273.312 
L 285.298952 64.205528 
L 283.684824 64.205528 
z
" clip-path="url(#pbc1eb20167)" style="fill: #1f77b4"/>
   </g>
   <g id="patch_142">
    <path d="M 285.298952 273.312 
L 286.913081 273.312 
L 286.913081 73.811125 
L 285.298952 73.811125 
z
" clip-path="url(#pbc1eb20167)" style="fill: #1f77b4"/>
   </g>
   <g id="patch_143">
    <path d="M 286.913081 273.312 
L 288.52721 273.312 
L 288.52721 107.061271 
L 286.913081 107.061271 
z
" clip-path="url(#pbc1eb20167)" style="fill: #1f77b4"/>
   </g>
   <g id="patch_144">
    <path d="M 288.52721 273.312 
L 290.141338 273.312 
L 290.141338 90.066752 
L 288.52721 90.066752 
z
" clip-path="url(#pbc1eb20167)" style="fill: #1f77b4"/>
   </g>
   <g id="patch_145">
    <path d="M 290.141338 273.312 
L 291.755467 273.312 
L 291.755467 75.28891 
L 290.141338 75.28891 
z
" clip-path="url(#pbc1eb20167)" style="fill: #1f77b4"/>
   </g>
   <g id="patch_146">
    <path d="M 291.755467 273.312 
L 293.369596 273.312 
L 293.369596 96.716781 
L 291.755467 96.716781 
z
" clip-path="url(#pbc1eb20167)" style="fill: #1f77b4"/>
   </g>
   <g id="patch_147">
    <path d="M 293.369596 273.312 
L 294.983724 273.312 
L 294.983724 85.633399 
L 293.369596 85.633399 
z
" clip-path="url(#pbc1eb20167)" style="fill: #1f77b4"/>
   </g>
   <g id="patch_148">
    <path d="M 294.983724 273.312 
L 296.597853 273.312 
L 296.597853 75.28891 
L 294.983724 75.28891 
z
" clip-path="url(#pbc1eb20167)" style="fill: #1f77b4"/>
   </g>
   <g id="patch_149">
    <path d="M 296.597853 273.312 
L 298.211982 273.312 
L 298.211982 100.411242 
L 296.597853 100.411242 
z
" clip-path="url(#pbc1eb20167)" style="fill: #1f77b4"/>
   </g>
   <g id="patch_150">
    <path d="M 298.211982 273.312 
L 299.82611 273.312 
L 299.82611 102.627918 
L 298.211982 102.627918 
z
" clip-path="url(#pbc1eb20167)" style="fill: #1f77b4"/>
   </g>
   <g id="patch_151">
    <path d="M 299.82611 273.312 
L 301.440239 273.312 
L 301.440239 121.839114 
L 299.82611 121.839114 
z
" clip-path="url(#pbc1eb20167)" style="fill: #1f77b4"/>
   </g>
   <g id="patch_152">
    <path d="M 301.440239 273.312 
L 303.054367 273.312 
L 303.054367 132.183603 
L 301.440239 132.183603 
z
" clip-path="url(#pbc1eb20167)" style="fill: #1f77b4"/>
   </g>
   <g id="patch_153">
    <path d="M 303.054367 273.312 
L 304.668496 273.312 
L 304.668496 124.794682 
L 303.054367 124.794682 
z
" clip-path="url(#pbc1eb20167)" style="fill: #1f77b4"/>
   </g>
   <g id="patch_154">
    <path d="M 304.668496 273.312 
L 306.282625 273.312 
L 306.282625 103.36681 
L 304.668496 103.36681 
z
" clip-path="url(#pbc1eb20167)" style="fill: #1f77b4"/>
   </g>
   <g id="patch_155">
    <path d="M 306.282625 273.312 
L 307.896753 273.312 
L 307.896753 101.150134 
L 306.282625 101.150134 
z
" clip-path="url(#pbc1eb20167)" style="fill: #1f77b4"/>
   </g>
   <g id="patch_156">
    <path d="M 307.896753 273.312 
L 309.510882 273.312 
L 309.510882 127.011359 
L 307.896753 127.011359 
z
" clip-path="url(#pbc1eb20167)" style="fill: #1f77b4"/>
   </g>
   <g id="patch_157">
    <path d="M 309.510882 273.312 
L 311.125011 273.312 
L 311.125011 115.927977 
L 309.510882 115.927977 
z
" clip-path="url(#pbc1eb20167)" style="fill: #1f77b4"/>
   </g>
   <g id="patch_158">
    <path d="M 311.125011 273.312 
L 312.739139 273.312 
L 312.739139 116.666869 
L 311.125011 116.666869 
z
" clip-path="url(#pbc1eb20167)" style="fill: #1f77b4"/>
   </g>
   <g id="patch_159">
    <path d="M 312.739139 273.312 
L 314.353268 273.312 
L 314.353268 117.405761 
L 312.739139 117.405761 
z
" clip-path="url(#pbc1eb20167)" style="fill: #1f77b4"/>
   </g>
   <g id="patch_160">
    <path d="M 314.353268 273.312 
L 315.967396 273.312 
L 315.967396 139.572525 
L 314.353268 139.572525 
z
" clip-path="url(#pbc1eb20167)" style="fill: #1f77b4"/>
   </g>
   <g id="patch_161">
    <path d="M 315.967396 273.312 
L 317.581525 273.312 
L 317.581525 135.878064 
L 315.967396 135.878064 
z
" clip-path="url(#pbc1eb20167)" style="fill: #1f77b4"/>
   </g>
   <g id="patch_162">
    <path d="M 317.581525 273.312 
L 319.195654 273.312 
L 319.195654 150.655907 
L 317.581525 150.655907 
z
" clip-path="url(#pbc1eb20167)" style="fill: #1f77b4"/>
   </g>
   <g id="patch_163">
    <path d="M 319.195654 273.312 
L 320.809782 273.312 
L 320.809782 143.266985 
L 319.195654 143.266985 
z
" clip-path="url(#pbc1eb20167)" style="fill: #1f77b4"/>
   </g>
   <g id="patch_164">
    <path d="M 320.809782 273.312 
L 322.423911 273.312 
L 322.423911 132.183603 
L 320.809782 132.183603 
z
" clip-path="url(#pbc1eb20167)" style="fill: #1f77b4"/>
   </g>
   <g id="patch_165">
    <path d="M 322.423911 273.312 
L 324.03804 273.312 
L 324.03804 151.394799 
L 322.423911 151.394799 
z
" clip-path="url(#pbc1eb20167)" style="fill: #1f77b4"/>
   </g>
   <g id="patch_166">
    <path d="M 324.03804 273.312 
L 325.652168 273.312 
L 325.652168 150.655907 
L 324.03804 150.655907 
z
" clip-path="url(#pbc1eb20167)" style="fill: #1f77b4"/>
   </g>
   <g id="patch_167">
    <path d="M 325.652168 273.312 
L 327.266297 273.312 
L 327.266297 148.43923 
L 325.652168 148.43923 
z
" clip-path="url(#pbc1eb20167)" style="fill: #1f77b4"/>
   </g>
   <g id="patch_168">
    <path d="M 327.266297 273.312 
L 328.880426 273.312 
L 328.880426 172.083778 
L 327.266297 172.083778 
z
" clip-path="url(#pbc1eb20167)" style="fill: #1f77b4"/>
   </g>
   <g id="patch_169">
    <path d="M 328.880426 273.312 
L 330.494554 273.312 
L 330.494554 165.433749 
L 328.880426 165.433749 
z
" clip-path="url(#pbc1eb20167)" style="fill: #1f77b4"/>
   </g>
   <g id="patch_170">
    <path d="M 330.494554 273.312 
L 332.108683 273.312 
L 332.108683 156.567044 
L 330.494554 156.567044 
z
" clip-path="url(#pbc1eb20167)" style="fill: #1f77b4"/>
   </g>
   <g id="patch_171">
    <path d="M 332.108683 273.312 
L 333.722811 273.312 
L 333.722811 163.955965 
L 332.108683 163.955965 
z
" clip-path="url(#pbc1eb20167)" style="fill: #1f77b4"/>
   </g>
   <g id="patch_172">
    <path d="M 333.722811 273.312 
L 335.33694 273.312 
L 335.33694 163.217073 
L 333.722811 163.217073 
z
" clip-path="url(#pbc1eb20167)" style="fill: #1f77b4"/>
   </g>
   <g id="patch_173">
    <path d="M 335.33694 273.312 
L 336.951069 273.312 
L 336.951069 167.650426 
L 335.33694 167.650426 
z
" clip-path="url(#pbc1eb20167)" style="fill: #1f77b4"/>
   </g>
   <g id="patch_174">
    <path d="M 336.951069 273.312 
L 338.565197 273.312 
L 338.565197 168.389318 
L 336.951069 168.389318 
z
" clip-path="url(#pbc1eb20167)" style="fill: #1f77b4"/>
   </g>
   <g id="patch_175">
    <path d="M 338.565197 273.312 
L 340.179326 273.312 
L 340.179326 178.733808 
L 338.565197 178.733808 
z
" clip-path="url(#pbc1eb20167)" style="fill: #1f77b4"/>
   </g>
   <g id="patch_176">
    <path d="M 340.179326 273.312 
L 341.793455 273.312 
L 341.793455 177.994915 
L 340.179326 177.994915 
z
" clip-path="url(#pbc1eb20167)" style="fill: #1f77b4"/>
   </g>
   <g id="patch_177">
    <path d="M 341.793455 273.312 
L 343.407583 273.312 
L 343.407583 169.12821 
L 341.793455 169.12821 
z
" clip-path="url(#pbc1eb20167)" style="fill: #1f77b4"/>
   </g>
   <g id="patch_178">
    <path d="M 343.407583 273.312 
L 345.021712 273.312 
L 345.021712 178.733808 
L 343.407583 178.733808 
z
" clip-path="url(#pbc1eb20167)" style="fill: #1f77b4"/>
   </g>
   <g id="patch_179">
    <path d="M 345.021712 273.312 
L 346.635841 273.312 
L 346.635841 189.078297 
L 345.021712 189.078297 
z
" clip-path="url(#pbc1eb20167)" style="fill: #1f77b4"/>
   </g>
   <g id="patch_180">
    <path d="M 346.635841 273.312 
L 348.249969 273.312 
L 348.249969 191.294974 
L 346.635841 191.294974 
z
" clip-path="url(#pbc1eb20167)" style="fill: #1f77b4"/>
   </g>
   <g id="patch_181">
    <path d="M 348.249969 273.312 
L 349.864098 273.312 
L 349.864098 194.989434 
L 348.249969 194.989434 
z
" clip-path="url(#pbc1eb20167)" style="fill: #1f77b4"/>
   </g>
   <g id="patch_182">
    <path d="M 349.864098 273.312 
L 351.478226 273.312 
L 351.478226 204.595032 
L 349.864098 204.595032 
z
" clip-path="url(#pbc1eb20167)" style="fill: #1f77b4"/>
   </g>
   <g id="patch_183">
    <path d="M 351.478226 273.312 
L 353.092355 273.312 
L 353.092355 206.811708 
L 351.478226 206.811708 
z
" clip-path="url(#pbc1eb20167)" style="fill: #1f77b4"/>
   </g>
   <g id="patch_184">
    <path d="M 353.092355 273.312 
L 354.706484 273.312 
L 354.706484 211.245061 
L 353.092355 211.245061 
z
" clip-path="url(#pbc1eb20167)" style="fill: #1f77b4"/>
   </g>
   <g id="patch_185">
    <path d="M 354.706484 273.312 
L 356.320612 273.312 
L 356.320612 206.072816 
L 354.706484 206.072816 
z
" clip-path="url(#pbc1eb20167)" style="fill: #1f77b4"/>
   </g>
   <g id="patch_186">
    <path d="M 356.320612 273.312 
L 357.934741 273.312 
L 357.934741 214.939522 
L 356.320612 214.939522 
z
" clip-path="url(#pbc1eb20167)" style="fill: #1f77b4"/>
   </g>
   <g id="patch_187">
    <path d="M 357.934741 273.312 
L 359.54887 273.312 
L 359.54887 211.245061 
L 357.934741 211.245061 
z
" clip-path="url(#pbc1eb20167)" style="fill: #1f77b4"/>
   </g>
   <g id="patch_188">
    <path d="M 359.54887 273.312 
L 361.162998 273.312 
L 361.162998 220.850659 
L 359.54887 220.850659 
z
" clip-path="url(#pbc1eb20167)" style="fill: #1f77b4"/>
   </g>
   <g id="patch_189">
    <path d="M 361.162998 273.312 
L 362.777127 273.312 
L 362.777127 215.678414 
L 361.162998 215.678414 
z
" clip-path="url(#pbc1eb20167)" style="fill: #1f77b4"/>
   </g>
   <g id="patch_190">
    <path d="M 362.777127 273.312 
L 364.391256 273.312 
L 364.391256 223.806227 
L 362.777127 223.806227 
z
" clip-path="url(#pbc1eb20167)" style="fill: #1f77b4"/>
   </g>
   <g id="patch_191">
    <path d="M 364.391256 273.312 
L 366.005384 273.312 
L 366.005384 239.322962 
L 364.391256 239.322962 
z
" clip-path="url(#pbc1eb20167)" style="fill: #1f77b4"/>
   </g>
   <g id="patch_192">
    <path d="M 366.005384 273.312 
L 367.619513 273.312 
L 367.619513 234.889609 
L 366.005384 234.889609 
z
" clip-path="url(#pbc1eb20167)" style="fill: #1f77b4"/>
   </g>
   <g id="patch_193">
    <path d="M 367.619513 273.312 
L 369.233641 273.312 
L 369.233641 243.017423 
L 367.619513 243.017423 
z
" clip-path="url(#pbc1eb20167)" style="fill: #1f77b4"/>
   </g>
   <g id="patch_194">
    <path d="M 369.233641 273.312 
L 370.84777 273.312 
L 370.84777 230.456257 
L 369.233641 230.456257 
z
" clip-path="url(#pbc1eb20167)" style="fill: #1f77b4"/>
   </g>
   <g id="patch_195">
    <path d="M 370.84777 273.312 
L 372.461899 273.312 
L 372.461899 238.58407 
L 370.84777 238.58407 
z
" clip-path="url(#pbc1eb20167)" style="fill: #1f77b4"/>
   </g>
   <g id="patch_196">
    <path d="M 372.461899 273.312 
L 374.076027 273.312 
L 374.076027 251.884128 
L 372.461899 251.884128 
z
" clip-path="url(#pbc1eb20167)" style="fill: #1f77b4"/>
   </g>
   <g id="patch_197">
    <path d="M 374.076027 273.312 
L 375.690156 273.312 
L 375.690156 249.667452 
L 374.076027 249.667452 
z
" clip-path="url(#pbc1eb20167)" style="fill: #1f77b4"/>
   </g>
   <g id="patch_198">
    <path d="M 375.690156 273.312 
L 377.304285 273.312 
L 377.304285 251.145236 
L 375.690156 251.145236 
z
" clip-path="url(#pbc1eb20167)" style="fill: #1f77b4"/>
   </g>
   <g id="patch_199">
    <path d="M 377.304285 273.312 
L 378.918413 273.312 
L 378.918413 257.795265 
L 377.304285 257.795265 
z
" clip-path="url(#pbc1eb20167)" style="fill: #1f77b4"/>
   </g>
   <g id="patch_200">
    <path d="M 378.918413 273.312 
L 380.532542 273.312 
L 380.532542 268.878647 
L 378.918413 268.878647 
z
" clip-path="url(#pbc1eb20167)" style="fill: #1f77b4"/>
   </g>
   <g id="patch_201">
    <path d="M 380.532542 273.312 
L 382.14667 273.312 
L 382.14667 268.139755 
L 380.532542 268.139755 
z
" clip-path="url(#pbc1eb20167)" style="fill: #1f77b4"/>
   </g>
   <g id="patch_202">
    <path d="M 382.14667 273.312 
L 383.760799 273.312 
L 383.760799 268.139755 
L 382.14667 268.139755 
z
" clip-path="url(#pbc1eb20167)" style="fill: #1f77b4"/>
   </g>
   <g id="matplotlib.axis_1">
    <g id="xtick_1">
     <g id="line2d_1">
      <defs>
       <path id="m424b866a63" d="M 0 0 
L 0 3.5 
" style="stroke: #000000; stroke-width: 0.8"/>
      </defs>
      <g>
       <use xlink:href="#m424b866a63" x="60.013977" y="273.312" style="stroke: #000000; stroke-width: 0.8"/>
      </g>
     </g>
     <g id="text_1">
      <!-- 0.0 -->
      <g transform="translate(52.062415 287.910438)scale(0.1 -0.1)">
       <defs>
        <path id="DejaVuSans-30" d="M 2034 4250 
Q 1547 4250 1301 3770 
Q 1056 3291 1056 2328 
Q 1056 1369 1301 889 
Q 1547 409 2034 409 
Q 2525 409 2770 889 
Q 3016 1369 3016 2328 
Q 3016 3291 2770 3770 
Q 2525 4250 2034 4250 
z
M 2034 4750 
Q 2819 4750 3233 4129 
Q 3647 3509 3647 2328 
Q 3647 1150 3233 529 
Q 2819 -91 2034 -91 
Q 1250 -91 836 529 
Q 422 1150 422 2328 
Q 422 3509 836 4129 
Q 1250 4750 2034 4750 
z
" transform="scale(0.015625)"/>
        <path id="DejaVuSans-2e" d="M 684 794 
L 1344 794 
L 1344 0 
L 684 0 
L 684 794 
z
" transform="scale(0.015625)"/>
       </defs>
       <use xlink:href="#DejaVuSans-30"/>
       <use xlink:href="#DejaVuSans-2e" x="63.623047"/>
       <use xlink:href="#DejaVuSans-30" x="95.410156"/>
      </g>
     </g>
    </g>
    <g id="xtick_2">
     <g id="line2d_2">
      <g>
       <use xlink:href="#m424b866a63" x="101.350278" y="273.312" style="stroke: #000000; stroke-width: 0.8"/>
      </g>
     </g>
     <g id="text_2">
      <!-- 0.2 -->
      <g transform="translate(93.398715 287.910438)scale(0.1 -0.1)">
       <defs>
        <path id="DejaVuSans-32" d="M 1228 531 
L 3431 531 
L 3431 0 
L 469 0 
L 469 531 
Q 828 903 1448 1529 
Q 2069 2156 2228 2338 
Q 2531 2678 2651 2914 
Q 2772 3150 2772 3378 
Q 2772 3750 2511 3984 
Q 2250 4219 1831 4219 
Q 1534 4219 1204 4116 
Q 875 4013 500 3803 
L 500 4441 
Q 881 4594 1212 4672 
Q 1544 4750 1819 4750 
Q 2544 4750 2975 4387 
Q 3406 4025 3406 3419 
Q 3406 3131 3298 2873 
Q 3191 2616 2906 2266 
Q 2828 2175 2409 1742 
Q 1991 1309 1228 531 
z
" transform="scale(0.015625)"/>
       </defs>
       <use xlink:href="#DejaVuSans-30"/>
       <use xlink:href="#DejaVuSans-2e" x="63.623047"/>
       <use xlink:href="#DejaVuSans-32" x="95.410156"/>
      </g>
     </g>
    </g>
    <g id="xtick_3">
     <g id="line2d_3">
      <g>
       <use xlink:href="#m424b866a63" x="142.686578" y="273.312" style="stroke: #000000; stroke-width: 0.8"/>
      </g>
     </g>
     <g id="text_3">
      <!-- 0.4 -->
      <g transform="translate(134.735016 287.910438)scale(0.1 -0.1)">
       <defs>
        <path id="DejaVuSans-34" d="M 2419 4116 
L 825 1625 
L 2419 1625 
L 2419 4116 
z
M 2253 4666 
L 3047 4666 
L 3047 1625 
L 3713 1625 
L 3713 1100 
L 3047 1100 
L 3047 0 
L 2419 0 
L 2419 1100 
L 313 1100 
L 313 1709 
L 2253 4666 
z
" transform="scale(0.015625)"/>
       </defs>
       <use xlink:href="#DejaVuSans-30"/>
       <use xlink:href="#DejaVuSans-2e" x="63.623047"/>
       <use xlink:href="#DejaVuSans-34" x="95.410156"/>
      </g>
     </g>
    </g>
    <g id="xtick_4">
     <g id="line2d_4">
      <g>
       <use xlink:href="#m424b866a63" x="184.022879" y="273.312" style="stroke: #000000; stroke-width: 0.8"/>
      </g>
     </g>
     <g id="text_4">
      <!-- 0.6 -->
      <g transform="translate(176.071316 287.910438)scale(0.1 -0.1)">
       <defs>
        <path id="DejaVuSans-36" d="M 2113 2584 
Q 1688 2584 1439 2293 
Q 1191 2003 1191 1497 
Q 1191 994 1439 701 
Q 1688 409 2113 409 
Q 2538 409 2786 701 
Q 3034 994 3034 1497 
Q 3034 2003 2786 2293 
Q 2538 2584 2113 2584 
z
M 3366 4563 
L 3366 3988 
Q 3128 4100 2886 4159 
Q 2644 4219 2406 4219 
Q 1781 4219 1451 3797 
Q 1122 3375 1075 2522 
Q 1259 2794 1537 2939 
Q 1816 3084 2150 3084 
Q 2853 3084 3261 2657 
Q 3669 2231 3669 1497 
Q 3669 778 3244 343 
Q 2819 -91 2113 -91 
Q 1303 -91 875 529 
Q 447 1150 447 2328 
Q 447 3434 972 4092 
Q 1497 4750 2381 4750 
Q 2619 4750 2861 4703 
Q 3103 4656 3366 4563 
z
" transform="scale(0.015625)"/>
       </defs>
       <use xlink:href="#DejaVuSans-30"/>
       <use xlink:href="#DejaVuSans-2e" x="63.623047"/>
       <use xlink:href="#DejaVuSans-36" x="95.410156"/>
      </g>
     </g>
    </g>
    <g id="xtick_5">
     <g id="line2d_5">
      <g>
       <use xlink:href="#m424b866a63" x="225.35918" y="273.312" style="stroke: #000000; stroke-width: 0.8"/>
      </g>
     </g>
     <g id="text_5">
      <!-- 0.8 -->
      <g transform="translate(217.407617 287.910438)scale(0.1 -0.1)">
       <defs>
        <path id="DejaVuSans-38" d="M 2034 2216 
Q 1584 2216 1326 1975 
Q 1069 1734 1069 1313 
Q 1069 891 1326 650 
Q 1584 409 2034 409 
Q 2484 409 2743 651 
Q 3003 894 3003 1313 
Q 3003 1734 2745 1975 
Q 2488 2216 2034 2216 
z
M 1403 2484 
Q 997 2584 770 2862 
Q 544 3141 544 3541 
Q 544 4100 942 4425 
Q 1341 4750 2034 4750 
Q 2731 4750 3128 4425 
Q 3525 4100 3525 3541 
Q 3525 3141 3298 2862 
Q 3072 2584 2669 2484 
Q 3125 2378 3379 2068 
Q 3634 1759 3634 1313 
Q 3634 634 3220 271 
Q 2806 -91 2034 -91 
Q 1263 -91 848 271 
Q 434 634 434 1313 
Q 434 1759 690 2068 
Q 947 2378 1403 2484 
z
M 1172 3481 
Q 1172 3119 1398 2916 
Q 1625 2713 2034 2713 
Q 2441 2713 2670 2916 
Q 2900 3119 2900 3481 
Q 2900 3844 2670 4047 
Q 2441 4250 2034 4250 
Q 1625 4250 1398 4047 
Q 1172 3844 1172 3481 
z
" transform="scale(0.015625)"/>
       </defs>
       <use xlink:href="#DejaVuSans-30"/>
       <use xlink:href="#DejaVuSans-2e" x="63.623047"/>
       <use xlink:href="#DejaVuSans-38" x="95.410156"/>
      </g>
     </g>
    </g>
    <g id="xtick_6">
     <g id="line2d_6">
      <g>
       <use xlink:href="#m424b866a63" x="266.69548" y="273.312" style="stroke: #000000; stroke-width: 0.8"/>
      </g>
     </g>
     <g id="text_6">
      <!-- 1.0 -->
      <g transform="translate(258.743918 287.910438)scale(0.1 -0.1)">
       <defs>
        <path id="DejaVuSans-31" d="M 794 531 
L 1825 531 
L 1825 4091 
L 703 3866 
L 703 4441 
L 1819 4666 
L 2450 4666 
L 2450 531 
L 3481 531 
L 3481 0 
L 794 0 
L 794 531 
z
" transform="scale(0.015625)"/>
       </defs>
       <use xlink:href="#DejaVuSans-31"/>
       <use xlink:href="#DejaVuSans-2e" x="63.623047"/>
       <use xlink:href="#DejaVuSans-30" x="95.410156"/>
      </g>
     </g>
    </g>
    <g id="xtick_7">
     <g id="line2d_7">
      <g>
       <use xlink:href="#m424b866a63" x="308.031781" y="273.312" style="stroke: #000000; stroke-width: 0.8"/>
      </g>
     </g>
     <g id="text_7">
      <!-- 1.2 -->
      <g transform="translate(300.080218 287.910438)scale(0.1 -0.1)">
       <use xlink:href="#DejaVuSans-31"/>
       <use xlink:href="#DejaVuSans-2e" x="63.623047"/>
       <use xlink:href="#DejaVuSans-32" x="95.410156"/>
      </g>
     </g>
    </g>
    <g id="xtick_8">
     <g id="line2d_8">
      <g>
       <use xlink:href="#m424b866a63" x="349.368081" y="273.312" style="stroke: #000000; stroke-width: 0.8"/>
      </g>
     </g>
     <g id="text_8">
      <!-- 1.4 -->
      <g transform="translate(341.416519 287.910438)scale(0.1 -0.1)">
       <use xlink:href="#DejaVuSans-31"/>
       <use xlink:href="#DejaVuSans-2e" x="63.623047"/>
       <use xlink:href="#DejaVuSans-34" x="95.410156"/>
      </g>
     </g>
    </g>
    <g id="xtick_9">
     <g id="line2d_9">
      <g>
       <use xlink:href="#m424b866a63" x="390.704382" y="273.312" style="stroke: #000000; stroke-width: 0.8"/>
      </g>
     </g>
     <g id="text_9">
      <!-- 1.6 -->
      <g transform="translate(382.752819 287.910438)scale(0.1 -0.1)">
       <use xlink:href="#DejaVuSans-31"/>
       <use xlink:href="#DejaVuSans-2e" x="63.623047"/>
       <use xlink:href="#DejaVuSans-36" x="95.410156"/>
      </g>
     </g>
    </g>
    <g id="text_10">
     <!-- Angle with normal (rad) -->
     <g transform="translate(163.023281 301.588562)scale(0.1 -0.1)">
      <defs>
       <path id="DejaVuSans-41" d="M 2188 4044 
L 1331 1722 
L 3047 1722 
L 2188 4044 
z
M 1831 4666 
L 2547 4666 
L 4325 0 
L 3669 0 
L 3244 1197 
L 1141 1197 
L 716 0 
L 50 0 
L 1831 4666 
z
" transform="scale(0.015625)"/>
       <path id="DejaVuSans-6e" d="M 3513 2113 
L 3513 0 
L 2938 0 
L 2938 2094 
Q 2938 2591 2744 2837 
Q 2550 3084 2163 3084 
Q 1697 3084 1428 2787 
Q 1159 2491 1159 1978 
L 1159 0 
L 581 0 
L 581 3500 
L 1159 3500 
L 1159 2956 
Q 1366 3272 1645 3428 
Q 1925 3584 2291 3584 
Q 2894 3584 3203 3211 
Q 3513 2838 3513 2113 
z
" transform="scale(0.015625)"/>
       <path id="DejaVuSans-67" d="M 2906 1791 
Q 2906 2416 2648 2759 
Q 2391 3103 1925 3103 
Q 1463 3103 1205 2759 
Q 947 2416 947 1791 
Q 947 1169 1205 825 
Q 1463 481 1925 481 
Q 2391 481 2648 825 
Q 2906 1169 2906 1791 
z
M 3481 434 
Q 3481 -459 3084 -895 
Q 2688 -1331 1869 -1331 
Q 1566 -1331 1297 -1286 
Q 1028 -1241 775 -1147 
L 775 -588 
Q 1028 -725 1275 -790 
Q 1522 -856 1778 -856 
Q 2344 -856 2625 -561 
Q 2906 -266 2906 331 
L 2906 616 
Q 2728 306 2450 153 
Q 2172 0 1784 0 
Q 1141 0 747 490 
Q 353 981 353 1791 
Q 353 2603 747 3093 
Q 1141 3584 1784 3584 
Q 2172 3584 2450 3431 
Q 2728 3278 2906 2969 
L 2906 3500 
L 3481 3500 
L 3481 434 
z
" transform="scale(0.015625)"/>
       <path id="DejaVuSans-6c" d="M 603 4863 
L 1178 4863 
L 1178 0 
L 603 0 
L 603 4863 
z
" transform="scale(0.015625)"/>
       <path id="DejaVuSans-65" d="M 3597 1894 
L 3597 1613 
L 953 1613 
Q 991 1019 1311 708 
Q 1631 397 2203 397 
Q 2534 397 2845 478 
Q 3156 559 3463 722 
L 3463 178 
Q 3153 47 2828 -22 
Q 2503 -91 2169 -91 
Q 1331 -91 842 396 
Q 353 884 353 1716 
Q 353 2575 817 3079 
Q 1281 3584 2069 3584 
Q 2775 3584 3186 3129 
Q 3597 2675 3597 1894 
z
M 3022 2063 
Q 3016 2534 2758 2815 
Q 2500 3097 2075 3097 
Q 1594 3097 1305 2825 
Q 1016 2553 972 2059 
L 3022 2063 
z
" transform="scale(0.015625)"/>
       <path id="DejaVuSans-20" transform="scale(0.015625)"/>
       <path id="DejaVuSans-77" d="M 269 3500 
L 844 3500 
L 1563 769 
L 2278 3500 
L 2956 3500 
L 3675 769 
L 4391 3500 
L 4966 3500 
L 4050 0 
L 3372 0 
L 2619 2869 
L 1863 0 
L 1184 0 
L 269 3500 
z
" transform="scale(0.015625)"/>
       <path id="DejaVuSans-69" d="M 603 3500 
L 1178 3500 
L 1178 0 
L 603 0 
L 603 3500 
z
M 603 4863 
L 1178 4863 
L 1178 4134 
L 603 4134 
L 603 4863 
z
" transform="scale(0.015625)"/>
       <path id="DejaVuSans-74" d="M 1172 4494 
L 1172 3500 
L 2356 3500 
L 2356 3053 
L 1172 3053 
L 1172 1153 
Q 1172 725 1289 603 
Q 1406 481 1766 481 
L 2356 481 
L 2356 0 
L 1766 0 
Q 1100 0 847 248 
Q 594 497 594 1153 
L 594 3053 
L 172 3053 
L 172 3500 
L 594 3500 
L 594 4494 
L 1172 4494 
z
" transform="scale(0.015625)"/>
       <path id="DejaVuSans-68" d="M 3513 2113 
L 3513 0 
L 2938 0 
L 2938 2094 
Q 2938 2591 2744 2837 
Q 2550 3084 2163 3084 
Q 1697 3084 1428 2787 
Q 1159 2491 1159 1978 
L 1159 0 
L 581 0 
L 581 4863 
L 1159 4863 
L 1159 2956 
Q 1366 3272 1645 3428 
Q 1925 3584 2291 3584 
Q 2894 3584 3203 3211 
Q 3513 2838 3513 2113 
z
" transform="scale(0.015625)"/>
       <path id="DejaVuSans-6f" d="M 1959 3097 
Q 1497 3097 1228 2736 
Q 959 2375 959 1747 
Q 959 1119 1226 758 
Q 1494 397 1959 397 
Q 2419 397 2687 759 
Q 2956 1122 2956 1747 
Q 2956 2369 2687 2733 
Q 2419 3097 1959 3097 
z
M 1959 3584 
Q 2709 3584 3137 3096 
Q 3566 2609 3566 1747 
Q 3566 888 3137 398 
Q 2709 -91 1959 -91 
Q 1206 -91 779 398 
Q 353 888 353 1747 
Q 353 2609 779 3096 
Q 1206 3584 1959 3584 
z
" transform="scale(0.015625)"/>
       <path id="DejaVuSans-72" d="M 2631 2963 
Q 2534 3019 2420 3045 
Q 2306 3072 2169 3072 
Q 1681 3072 1420 2755 
Q 1159 2438 1159 1844 
L 1159 0 
L 581 0 
L 581 3500 
L 1159 3500 
L 1159 2956 
Q 1341 3275 1631 3429 
Q 1922 3584 2338 3584 
Q 2397 3584 2469 3576 
Q 2541 3569 2628 3553 
L 2631 2963 
z
" transform="scale(0.015625)"/>
       <path id="DejaVuSans-6d" d="M 3328 2828 
Q 3544 3216 3844 3400 
Q 4144 3584 4550 3584 
Q 5097 3584 5394 3201 
Q 5691 2819 5691 2113 
L 5691 0 
L 5113 0 
L 5113 2094 
Q 5113 2597 4934 2840 
Q 4756 3084 4391 3084 
Q 3944 3084 3684 2787 
Q 3425 2491 3425 1978 
L 3425 0 
L 2847 0 
L 2847 2094 
Q 2847 2600 2669 2842 
Q 2491 3084 2119 3084 
Q 1678 3084 1418 2786 
Q 1159 2488 1159 1978 
L 1159 0 
L 581 0 
L 581 3500 
L 1159 3500 
L 1159 2956 
Q 1356 3278 1631 3431 
Q 1906 3584 2284 3584 
Q 2666 3584 2933 3390 
Q 3200 3197 3328 2828 
z
" transform="scale(0.015625)"/>
       <path id="DejaVuSans-61" d="M 2194 1759 
Q 1497 1759 1228 1600 
Q 959 1441 959 1056 
Q 959 750 1161 570 
Q 1363 391 1709 391 
Q 2188 391 2477 730 
Q 2766 1069 2766 1631 
L 2766 1759 
L 2194 1759 
z
M 3341 1997 
L 3341 0 
L 2766 0 
L 2766 531 
Q 2569 213 2275 61 
Q 1981 -91 1556 -91 
Q 1019 -91 701 211 
Q 384 513 384 1019 
Q 384 1609 779 1909 
Q 1175 2209 1959 2209 
L 2766 2209 
L 2766 2266 
Q 2766 2663 2505 2880 
Q 2244 3097 1772 3097 
Q 1472 3097 1187 3025 
Q 903 2953 641 2809 
L 641 3341 
Q 956 3463 1253 3523 
Q 1550 3584 1831 3584 
Q 2591 3584 2966 3190 
Q 3341 2797 3341 1997 
z
" transform="scale(0.015625)"/>
       <path id="DejaVuSans-28" d="M 1984 4856 
Q 1566 4138 1362 3434 
Q 1159 2731 1159 2009 
Q 1159 1288 1364 580 
Q 1569 -128 1984 -844 
L 1484 -844 
Q 1016 -109 783 600 
Q 550 1309 550 2009 
Q 550 2706 781 3412 
Q 1013 4119 1484 4856 
L 1984 4856 
z
" transform="scale(0.015625)"/>
       <path id="DejaVuSans-64" d="M 2906 2969 
L 2906 4863 
L 3481 4863 
L 3481 0 
L 2906 0 
L 2906 525 
Q 2725 213 2448 61 
Q 2172 -91 1784 -91 
Q 1150 -91 751 415 
Q 353 922 353 1747 
Q 353 2572 751 3078 
Q 1150 3584 1784 3584 
Q 2172 3584 2448 3432 
Q 2725 3281 2906 2969 
z
M 947 1747 
Q 947 1113 1208 752 
Q 1469 391 1925 391 
Q 2381 391 2643 752 
Q 2906 1113 2906 1747 
Q 2906 2381 2643 2742 
Q 2381 3103 1925 3103 
Q 1469 3103 1208 2742 
Q 947 2381 947 1747 
z
" transform="scale(0.015625)"/>
       <path id="DejaVuSans-29" d="M 513 4856 
L 1013 4856 
Q 1481 4119 1714 3412 
Q 1947 2706 1947 2009 
Q 1947 1309 1714 600 
Q 1481 -109 1013 -844 
L 513 -844 
Q 928 -128 1133 580 
Q 1338 1288 1338 2009 
Q 1338 2731 1133 3434 
Q 928 4138 513 4856 
z
" transform="scale(0.015625)"/>
      </defs>
      <use xlink:href="#DejaVuSans-41"/>
      <use xlink:href="#DejaVuSans-6e" x="68.408203"/>
      <use xlink:href="#DejaVuSans-67" x="131.787109"/>
      <use xlink:href="#DejaVuSans-6c" x="195.263672"/>
      <use xlink:href="#DejaVuSans-65" x="223.046875"/>
      <use xlink:href="#DejaVuSans-20" x="284.570312"/>
      <use xlink:href="#DejaVuSans-77" x="316.357422"/>
      <use xlink:href="#DejaVuSans-69" x="398.144531"/>
      <use xlink:href="#DejaVuSans-74" x="425.927734"/>
      <use xlink:href="#DejaVuSans-68" x="465.136719"/>
      <use xlink:href="#DejaVuSans-20" x="528.515625"/>
      <use xlink:href="#DejaVuSans-6e" x="560.302734"/>
      <use xlink:href="#DejaVuSans-6f" x="623.681641"/>
      <use xlink:href="#DejaVuSans-72" x="684.863281"/>
      <use xlink:href="#DejaVuSans-6d" x="724.226562"/>
      <use xlink:href="#DejaVuSans-61" x="821.638672"/>
      <use xlink:href="#DejaVuSans-6c" x="882.917969"/>
      <use xlink:href="#DejaVuSans-20" x="910.701172"/>
      <use xlink:href="#DejaVuSans-28" x="942.488281"/>
      <use xlink:href="#DejaVuSans-72" x="981.501953"/>
      <use xlink:href="#DejaVuSans-61" x="1022.615234"/>
      <use xlink:href="#DejaVuSans-64" x="1083.894531"/>
      <use xlink:href="#DejaVuSans-29" x="1147.371094"/>
     </g>
    </g>
   </g>
   <g id="matplotlib.axis_2">
    <g id="ytick_1">
     <g id="line2d_10">
      <defs>
       <path id="m60178107ce" d="M 0 0 
L -3.5 0 
" style="stroke: #000000; stroke-width: 0.8"/>
      </defs>
      <g>
       <use xlink:href="#m60178107ce" x="43.78125" y="273.312" style="stroke: #000000; stroke-width: 0.8"/>
      </g>
     </g>
     <g id="text_11">
      <!-- 0.0 -->
      <g transform="translate(20.878125 277.111219)scale(0.1 -0.1)">
       <use xlink:href="#DejaVuSans-30"/>
       <use xlink:href="#DejaVuSans-2e" x="63.623047"/>
       <use xlink:href="#DejaVuSans-30" x="95.410156"/>
      </g>
     </g>
    </g>
    <g id="ytick_2">
     <g id="line2d_11">
      <g>
       <use xlink:href="#m60178107ce" x="43.78125" y="227.147561" style="stroke: #000000; stroke-width: 0.8"/>
      </g>
     </g>
     <g id="text_12">
      <!-- 0.2 -->
      <g transform="translate(20.878125 230.94678)scale(0.1 -0.1)">
       <use xlink:href="#DejaVuSans-30"/>
       <use xlink:href="#DejaVuSans-2e" x="63.623047"/>
       <use xlink:href="#DejaVuSans-32" x="95.410156"/>
      </g>
     </g>
    </g>
    <g id="ytick_3">
     <g id="line2d_12">
      <g>
       <use xlink:href="#m60178107ce" x="43.78125" y="180.983123" style="stroke: #000000; stroke-width: 0.8"/>
      </g>
     </g>
     <g id="text_13">
      <!-- 0.4 -->
      <g transform="translate(20.878125 184.782342)scale(0.1 -0.1)">
       <use xlink:href="#DejaVuSans-30"/>
       <use xlink:href="#DejaVuSans-2e" x="63.623047"/>
       <use xlink:href="#DejaVuSans-34" x="95.410156"/>
      </g>
     </g>
    </g>
    <g id="ytick_4">
     <g id="line2d_13">
      <g>
       <use xlink:href="#m60178107ce" x="43.78125" y="134.818684" style="stroke: #000000; stroke-width: 0.8"/>
      </g>
     </g>
     <g id="text_14">
      <!-- 0.6 -->
      <g transform="translate(20.878125 138.617903)scale(0.1 -0.1)">
       <use xlink:href="#DejaVuSans-30"/>
       <use xlink:href="#DejaVuSans-2e" x="63.623047"/>
       <use xlink:href="#DejaVuSans-36" x="95.410156"/>
      </g>
     </g>
    </g>
    <g id="ytick_5">
     <g id="line2d_14">
      <g>
       <use xlink:href="#m60178107ce" x="43.78125" y="88.654246" style="stroke: #000000; stroke-width: 0.8"/>
      </g>
     </g>
     <g id="text_15">
      <!-- 0.8 -->
      <g transform="translate(20.878125 92.453465)scale(0.1 -0.1)">
       <use xlink:href="#DejaVuSans-30"/>
       <use xlink:href="#DejaVuSans-2e" x="63.623047"/>
       <use xlink:href="#DejaVuSans-38" x="95.410156"/>
      </g>
     </g>
    </g>
    <g id="ytick_6">
     <g id="line2d_15">
      <g>
       <use xlink:href="#m60178107ce" x="43.78125" y="42.489807" style="stroke: #000000; stroke-width: 0.8"/>
      </g>
     </g>
     <g id="text_16">
      <!-- 1.0 -->
      <g transform="translate(20.878125 46.289026)scale(0.1 -0.1)">
       <use xlink:href="#DejaVuSans-31"/>
       <use xlink:href="#DejaVuSans-2e" x="63.623047"/>
       <use xlink:href="#DejaVuSans-30" x="95.410156"/>
      </g>
     </g>
    </g>
    <g id="text_17">
     <!-- Probability density -->
     <g transform="translate(14.798438 186.606781)rotate(-90)scale(0.1 -0.1)">
      <defs>
       <path id="DejaVuSans-50" d="M 1259 4147 
L 1259 2394 
L 2053 2394 
Q 2494 2394 2734 2622 
Q 2975 2850 2975 3272 
Q 2975 3691 2734 3919 
Q 2494 4147 2053 4147 
L 1259 4147 
z
M 628 4666 
L 2053 4666 
Q 2838 4666 3239 4311 
Q 3641 3956 3641 3272 
Q 3641 2581 3239 2228 
Q 2838 1875 2053 1875 
L 1259 1875 
L 1259 0 
L 628 0 
L 628 4666 
z
" transform="scale(0.015625)"/>
       <path id="DejaVuSans-62" d="M 3116 1747 
Q 3116 2381 2855 2742 
Q 2594 3103 2138 3103 
Q 1681 3103 1420 2742 
Q 1159 2381 1159 1747 
Q 1159 1113 1420 752 
Q 1681 391 2138 391 
Q 2594 391 2855 752 
Q 3116 1113 3116 1747 
z
M 1159 2969 
Q 1341 3281 1617 3432 
Q 1894 3584 2278 3584 
Q 2916 3584 3314 3078 
Q 3713 2572 3713 1747 
Q 3713 922 3314 415 
Q 2916 -91 2278 -91 
Q 1894 -91 1617 61 
Q 1341 213 1159 525 
L 1159 0 
L 581 0 
L 581 4863 
L 1159 4863 
L 1159 2969 
z
" transform="scale(0.015625)"/>
       <path id="DejaVuSans-79" d="M 2059 -325 
Q 1816 -950 1584 -1140 
Q 1353 -1331 966 -1331 
L 506 -1331 
L 506 -850 
L 844 -850 
Q 1081 -850 1212 -737 
Q 1344 -625 1503 -206 
L 1606 56 
L 191 3500 
L 800 3500 
L 1894 763 
L 2988 3500 
L 3597 3500 
L 2059 -325 
z
" transform="scale(0.015625)"/>
       <path id="DejaVuSans-73" d="M 2834 3397 
L 2834 2853 
Q 2591 2978 2328 3040 
Q 2066 3103 1784 3103 
Q 1356 3103 1142 2972 
Q 928 2841 928 2578 
Q 928 2378 1081 2264 
Q 1234 2150 1697 2047 
L 1894 2003 
Q 2506 1872 2764 1633 
Q 3022 1394 3022 966 
Q 3022 478 2636 193 
Q 2250 -91 1575 -91 
Q 1294 -91 989 -36 
Q 684 19 347 128 
L 347 722 
Q 666 556 975 473 
Q 1284 391 1588 391 
Q 1994 391 2212 530 
Q 2431 669 2431 922 
Q 2431 1156 2273 1281 
Q 2116 1406 1581 1522 
L 1381 1569 
Q 847 1681 609 1914 
Q 372 2147 372 2553 
Q 372 3047 722 3315 
Q 1072 3584 1716 3584 
Q 2034 3584 2315 3537 
Q 2597 3491 2834 3397 
z
" transform="scale(0.015625)"/>
      </defs>
      <use xlink:href="#DejaVuSans-50"/>
      <use xlink:href="#DejaVuSans-72" x="58.552734"/>
      <use xlink:href="#DejaVuSans-6f" x="97.416016"/>
      <use xlink:href="#DejaVuSans-62" x="158.597656"/>
      <use xlink:href="#DejaVuSans-61" x="222.074219"/>
      <use xlink:href="#DejaVuSans-62" x="283.353516"/>
      <use xlink:href="#DejaVuSans-69" x="346.830078"/>
      <use xlink:href="#DejaVuSans-6c" x="374.613281"/>
      <use xlink:href="#DejaVuSans-69" x="402.396484"/>
      <use xlink:href="#DejaVuSans-74" x="430.179688"/>
      <use xlink:href="#DejaVuSans-79" x="469.388672"/>
      <use xlink:href="#DejaVuSans-20" x="528.568359"/>
      <use xlink:href="#DejaVuSans-64" x="560.355469"/>
      <use xlink:href="#DejaVuSans-65" x="623.832031"/>
      <use xlink:href="#DejaVuSans-6e" x="685.355469"/>
      <use xlink:href="#DejaVuSans-73" x="748.734375"/>
      <use xlink:href="#DejaVuSans-69" x="800.833984"/>
      <use xlink:href="#DejaVuSans-74" x="828.617188"/>
      <use xlink:href="#DejaVuSans-79" x="867.826172"/>
     </g>
    </g>
   </g>
   <g id="line2d_16">
    <path d="M 60.013977 273.312 
L 79.837728 229.304677 
L 90.237073 206.763841 
L 99.01152 188.259701 
L 106.811029 172.321979 
L 113.960578 158.215359 
L 120.460169 145.867301 
L 126.63478 134.602719 
L 132.484411 124.387036 
L 138.009063 115.176387 
L 143.208736 106.919848 
L 148.408408 99.084471 
L 153.283101 92.138959 
L 157.832814 86.019829 
L 162.382528 80.263672 
L 166.607261 75.253441 
L 170.831995 70.574179 
L 175.056729 66.233707 
L 178.956483 62.5341 
L 182.856238 59.13462 
L 186.755992 56.040107 
L 190.330767 53.475147 
L 193.905542 51.173221 
L 197.480316 49.137082 
L 201.055091 47.369167 
L 204.304886 45.996515 
L 207.554682 44.848645 
L 210.804477 43.926692 
L 214.054272 43.231568 
L 217.304067 42.763961 
L 220.553863 42.524332 
L 223.803658 42.512919 
L 227.053453 42.729733 
L 230.303248 43.17456 
L 233.553044 43.846959 
L 236.802839 44.746267 
L 240.052634 45.871592 
L 243.302429 47.221824 
L 246.552225 48.795626 
L 250.126999 50.783169 
L 253.701774 53.036966 
L 257.276549 55.554321 
L 260.851324 58.332222 
L 264.751078 61.655897 
L 268.650832 65.280949 
L 272.550587 69.202217 
L 276.77532 73.778043 
L 281.000054 78.687304 
L 285.549768 84.337674 
L 290.099481 90.354277 
L 294.974174 97.193782 
L 299.848867 104.425097 
L 305.048539 112.552219 
L 310.248212 121.086247 
L 315.772863 130.575323 
L 321.622495 141.066521 
L 327.797106 152.599445 
L 334.296696 165.203994 
L 341.446246 179.560799 
L 349.245755 195.731912 
L 358.020202 214.447707 
L 368.419546 237.167607 
L 383.693584 271.134407 
L 384.668523 273.312 
L 384.668523 273.312 
" clip-path="url(#pbc1eb20167)" style="fill: none; stroke: #ff7f0e; stroke-width: 1.5; stroke-linecap: square"/>
   </g>
   <g id="patch_203">
    <path d="M 43.78125 273.312 
L 43.78125 7.2 
" style="fill: none; stroke: #000000; stroke-width: 0.8; stroke-linejoin: miter; stroke-linecap: square"/>
   </g>
   <g id="patch_204">
    <path d="M 400.90125 273.312 
L 400.90125 7.2 
" style="fill: none; stroke: #000000; stroke-width: 0.8; stroke-linejoin: miter; stroke-linecap: square"/>
   </g>
   <g id="patch_205">
    <path d="M 43.78125 273.312 
L 400.90125 273.312 
" style="fill: none; stroke: #000000; stroke-width: 0.8; stroke-linejoin: miter; stroke-linecap: square"/>
   </g>
   <g id="patch_206">
    <path d="M 43.78125 7.2 
L 400.90125 7.2 
" style="fill: none; stroke: #000000; stroke-width: 0.8; stroke-linejoin: miter; stroke-linecap: square"/>
   </g>
  </g>
 </g>
 <defs>
  <clipPath id="pbc1eb20167">
   <rect x="43.78125" y="7.2" width="357.12" height="266.112"/>
  </clipPath>
 </defs>
</svg>
