<?xml version="1.0" encoding="utf-8" standalone="no"?>
<!DOCTYPE svg PUBLIC "-//W3C//DTD SVG 1.1//EN"
  "http://www.w3.org/Graphics/SVG/1.1/DTD/svg11.dtd">
<svg xmlns:xlink="http://www.w3.org/1999/xlink" width="408.10125pt" height="310.86825pt" viewBox="0 0 408.10125 310.86825" xmlns="http://www.w3.org/2000/svg" version="1.1">
 <metadata>
  <rdf:RDF xmlns:dc="http://purl.org/dc/elements/1.1/" xmlns:cc="http://creativecommons.org/ns#" xmlns:rdf="http://www.w3.org/1999/02/22-rdf-syntax-ns#">
   <cc:Work>
    <dc:type rdf:resource="http://purl.org/dc/dcmitype/StillImage"/>
    <dc:date>2022-05-16T21:09:23.118773</dc:date>
    <dc:format>image/svg+xml</dc:format>
    <dc:creator>
     <cc:Agent>
      <dc:title>Matplotlib v3.5.2, https://matplotlib.org/</dc:title>
     </cc:Agent>
    </dc:creator>
   </cc:Work>
  </rdf:RDF>
 </metadata>
 <defs>
  <style type="text/css">*{stroke-linejoin: round; stroke-linecap: butt}</style>
 </defs>
 <g id="figure_1">
  <g id="patch_1">
   <path d="M 0 310.86825 
L 408.10125 310.86825 
L 408.10125 0 
L 0 0 
z
" style="fill: #ffffff"/>
  </g>
  <g id="axes_1">
   <g id="patch_2">
    <path d="M 43.78125 273.312 
L 400.90125 273.312 
L 400.90125 7.2 
L 43.78125 7.2 
z
" style="fill: #ffffff"/>
   </g>
   <g id="patch_3">
    <path d="M 60.453026 273.312 
L 62.074097 273.312 
L 62.074097 271.556065 
L 60.453026 271.556065 
z
" clip-path="url(#p0d4e4b5e54)" style="fill: #1f77b4"/>
   </g>
   <g id="patch_4">
    <path d="M 62.074097 273.312 
L 63.695168 273.312 
L 63.695168 270.970753 
L 62.074097 270.970753 
z
" clip-path="url(#p0d4e4b5e54)" style="fill: #1f77b4"/>
   </g>
   <g id="patch_5">
    <path d="M 63.695168 273.312 
L 65.316239 273.312 
L 65.316239 270.385441 
L 63.695168 270.385441 
z
" clip-path="url(#p0d4e4b5e54)" style="fill: #1f77b4"/>
   </g>
   <g id="patch_6">
    <path d="M 65.316239 273.312 
L 66.93731 273.312 
L 66.93731 269.214818 
L 65.316239 269.214818 
z
" clip-path="url(#p0d4e4b5e54)" style="fill: #1f77b4"/>
   </g>
   <g id="patch_7">
    <path d="M 66.93731 273.312 
L 68.558381 273.312 
L 68.558381 270.385441 
L 66.93731 270.385441 
z
" clip-path="url(#p0d4e4b5e54)" style="fill: #1f77b4"/>
   </g>
   <g id="patch_8">
    <path d="M 68.558381 273.312 
L 70.179452 273.312 
L 70.179452 268.044194 
L 68.558381 268.044194 
z
" clip-path="url(#p0d4e4b5e54)" style="fill: #1f77b4"/>
   </g>
   <g id="patch_9">
    <path d="M 70.179452 273.312 
L 71.800523 273.312 
L 71.800523 268.044194 
L 70.179452 268.044194 
z
" clip-path="url(#p0d4e4b5e54)" style="fill: #1f77b4"/>
   </g>
   <g id="patch_10">
    <path d="M 71.800523 273.312 
L 73.421594 273.312 
L 73.421594 265.117635 
L 71.800523 265.117635 
z
" clip-path="url(#p0d4e4b5e54)" style="fill: #1f77b4"/>
   </g>
   <g id="patch_11">
    <path d="M 73.421594 273.312 
L 75.042666 273.312 
L 75.042666 260.435141 
L 73.421594 260.435141 
z
" clip-path="url(#p0d4e4b5e54)" style="fill: #1f77b4"/>
   </g>
   <g id="patch_12">
    <path d="M 75.042666 273.312 
L 76.663737 273.312 
L 76.663737 263.947012 
L 75.042666 263.947012 
z
" clip-path="url(#p0d4e4b5e54)" style="fill: #1f77b4"/>
   </g>
   <g id="patch_13">
    <path d="M 76.663737 273.312 
L 78.284808 273.312 
L 78.284808 259.264517 
L 76.663737 259.264517 
z
" clip-path="url(#p0d4e4b5e54)" style="fill: #1f77b4"/>
   </g>
   <g id="patch_14">
    <path d="M 78.284808 273.312 
L 79.905879 273.312 
L 79.905879 253.996711 
L 78.284808 253.996711 
z
" clip-path="url(#p0d4e4b5e54)" style="fill: #1f77b4"/>
   </g>
   <g id="patch_15">
    <path d="M 79.905879 273.312 
L 81.52695 273.312 
L 81.52695 255.752647 
L 79.905879 255.752647 
z
" clip-path="url(#p0d4e4b5e54)" style="fill: #1f77b4"/>
   </g>
   <g id="patch_16">
    <path d="M 81.52695 273.312 
L 83.148021 273.312 
L 83.148021 255.167335 
L 81.52695 255.167335 
z
" clip-path="url(#p0d4e4b5e54)" style="fill: #1f77b4"/>
   </g>
   <g id="patch_17">
    <path d="M 83.148021 273.312 
L 84.769092 273.312 
L 84.769092 257.508582 
L 83.148021 257.508582 
z
" clip-path="url(#p0d4e4b5e54)" style="fill: #1f77b4"/>
   </g>
   <g id="patch_18">
    <path d="M 84.769092 273.312 
L 86.390163 273.312 
L 86.390163 254.582023 
L 84.769092 254.582023 
z
" clip-path="url(#p0d4e4b5e54)" style="fill: #1f77b4"/>
   </g>
   <g id="patch_19">
    <path d="M 86.390163 273.312 
L 88.011234 273.312 
L 88.011234 251.070152 
L 86.390163 251.070152 
z
" clip-path="url(#p0d4e4b5e54)" style="fill: #1f77b4"/>
   </g>
   <g id="patch_20">
    <path d="M 88.011234 273.312 
L 89.632305 273.312 
L 89.632305 253.996711 
L 88.011234 253.996711 
z
" clip-path="url(#p0d4e4b5e54)" style="fill: #1f77b4"/>
   </g>
   <g id="patch_21">
    <path d="M 89.632305 273.312 
L 91.253376 273.312 
L 91.253376 248.728905 
L 89.632305 248.728905 
z
" clip-path="url(#p0d4e4b5e54)" style="fill: #1f77b4"/>
   </g>
   <g id="patch_22">
    <path d="M 91.253376 273.312 
L 92.874447 273.312 
L 92.874447 251.070152 
L 91.253376 251.070152 
z
" clip-path="url(#p0d4e4b5e54)" style="fill: #1f77b4"/>
   </g>
   <g id="patch_23">
    <path d="M 92.874447 273.312 
L 94.495518 273.312 
L 94.495518 245.217035 
L 92.874447 245.217035 
z
" clip-path="url(#p0d4e4b5e54)" style="fill: #1f77b4"/>
   </g>
   <g id="patch_24">
    <path d="M 94.495518 273.312 
L 96.116589 273.312 
L 96.116589 244.631723 
L 94.495518 244.631723 
z
" clip-path="url(#p0d4e4b5e54)" style="fill: #1f77b4"/>
   </g>
   <g id="patch_25">
    <path d="M 96.116589 273.312 
L 97.73766 273.312 
L 97.73766 252.826088 
L 96.116589 252.826088 
z
" clip-path="url(#p0d4e4b5e54)" style="fill: #1f77b4"/>
   </g>
   <g id="patch_26">
    <path d="M 97.73766 273.312 
L 99.358731 273.312 
L 99.358731 247.558282 
L 97.73766 247.558282 
z
" clip-path="url(#p0d4e4b5e54)" style="fill: #1f77b4"/>
   </g>
   <g id="patch_27">
    <path d="M 99.358731 273.312 
L 100.979802 273.312 
L 100.979802 245.217035 
L 99.358731 245.217035 
z
" clip-path="url(#p0d4e4b5e54)" style="fill: #1f77b4"/>
   </g>
   <g id="patch_28">
    <path d="M 100.979802 273.312 
L 102.600873 273.312 
L 102.600873 242.875788 
L 100.979802 242.875788 
z
" clip-path="url(#p0d4e4b5e54)" style="fill: #1f77b4"/>
   </g>
   <g id="patch_29">
    <path d="M 102.600873 273.312 
L 104.221944 273.312 
L 104.221944 239.949229 
L 102.600873 239.949229 
z
" clip-path="url(#p0d4e4b5e54)" style="fill: #1f77b4"/>
   </g>
   <g id="patch_30">
    <path d="M 104.221944 273.312 
L 105.843015 273.312 
L 105.843015 235.266734 
L 104.221944 235.266734 
z
" clip-path="url(#p0d4e4b5e54)" style="fill: #1f77b4"/>
   </g>
   <g id="patch_31">
    <path d="M 105.843015 273.312 
L 107.464086 273.312 
L 107.464086 231.169552 
L 105.843015 231.169552 
z
" clip-path="url(#p0d4e4b5e54)" style="fill: #1f77b4"/>
   </g>
   <g id="patch_32">
    <path d="M 107.464086 273.312 
L 109.085157 273.312 
L 109.085157 234.096111 
L 107.464086 234.096111 
z
" clip-path="url(#p0d4e4b5e54)" style="fill: #1f77b4"/>
   </g>
   <g id="patch_33">
    <path d="M 109.085157 273.312 
L 110.706228 273.312 
L 110.706228 232.340176 
L 109.085157 232.340176 
z
" clip-path="url(#p0d4e4b5e54)" style="fill: #1f77b4"/>
   </g>
   <g id="patch_34">
    <path d="M 110.706228 273.312 
L 112.327299 273.312 
L 112.327299 226.487058 
L 110.706228 226.487058 
z
" clip-path="url(#p0d4e4b5e54)" style="fill: #1f77b4"/>
   </g>
   <g id="patch_35">
    <path d="M 112.327299 273.312 
L 113.94837 273.312 
L 113.94837 227.07237 
L 112.327299 227.07237 
z
" clip-path="url(#p0d4e4b5e54)" style="fill: #1f77b4"/>
   </g>
   <g id="patch_36">
    <path d="M 113.94837 273.312 
L 115.569441 273.312 
L 115.569441 231.754864 
L 113.94837 231.754864 
z
" clip-path="url(#p0d4e4b5e54)" style="fill: #1f77b4"/>
   </g>
   <g id="patch_37">
    <path d="M 115.569441 273.312 
L 117.190512 273.312 
L 117.190512 228.828305 
L 115.569441 228.828305 
z
" clip-path="url(#p0d4e4b5e54)" style="fill: #1f77b4"/>
   </g>
   <g id="patch_38">
    <path d="M 117.190512 273.312 
L 118.811583 273.312 
L 118.811583 233.510799 
L 117.190512 233.510799 
z
" clip-path="url(#p0d4e4b5e54)" style="fill: #1f77b4"/>
   </g>
   <g id="patch_39">
    <path d="M 118.811583 273.312 
L 120.432654 273.312 
L 120.432654 234.681423 
L 118.811583 234.681423 
z
" clip-path="url(#p0d4e4b5e54)" style="fill: #1f77b4"/>
   </g>
   <g id="patch_40">
    <path d="M 120.432654 273.312 
L 122.053725 273.312 
L 122.053725 234.681423 
L 120.432654 234.681423 
z
" clip-path="url(#p0d4e4b5e54)" style="fill: #1f77b4"/>
   </g>
   <g id="patch_41">
    <path d="M 122.053725 273.312 
L 123.674796 273.312 
L 123.674796 224.731122 
L 122.053725 224.731122 
z
" clip-path="url(#p0d4e4b5e54)" style="fill: #1f77b4"/>
   </g>
   <g id="patch_42">
    <path d="M 123.674796 273.312 
L 125.295867 273.312 
L 125.295867 224.145811 
L 123.674796 224.145811 
z
" clip-path="url(#p0d4e4b5e54)" style="fill: #1f77b4"/>
   </g>
   <g id="patch_43">
    <path d="M 125.295867 273.312 
L 126.916938 273.312 
L 126.916938 219.463316 
L 125.295867 219.463316 
z
" clip-path="url(#p0d4e4b5e54)" style="fill: #1f77b4"/>
   </g>
   <g id="patch_44">
    <path d="M 126.916938 273.312 
L 128.538009 273.312 
L 128.538009 223.560499 
L 126.916938 223.560499 
z
" clip-path="url(#p0d4e4b5e54)" style="fill: #1f77b4"/>
   </g>
   <g id="patch_45">
    <path d="M 128.538009 273.312 
L 130.15908 273.312 
L 130.15908 219.463316 
L 128.538009 219.463316 
z
" clip-path="url(#p0d4e4b5e54)" style="fill: #1f77b4"/>
   </g>
   <g id="patch_46">
    <path d="M 130.15908 273.312 
L 131.780151 273.312 
L 131.780151 209.513016 
L 130.15908 209.513016 
z
" clip-path="url(#p0d4e4b5e54)" style="fill: #1f77b4"/>
   </g>
   <g id="patch_47">
    <path d="M 131.780151 273.312 
L 133.401222 273.312 
L 133.401222 222.975187 
L 131.780151 222.975187 
z
" clip-path="url(#p0d4e4b5e54)" style="fill: #1f77b4"/>
   </g>
   <g id="patch_48">
    <path d="M 133.401222 273.312 
L 135.022293 273.312 
L 135.022293 214.19551 
L 133.401222 214.19551 
z
" clip-path="url(#p0d4e4b5e54)" style="fill: #1f77b4"/>
   </g>
   <g id="patch_49">
    <path d="M 135.022293 273.312 
L 136.643364 273.312 
L 136.643364 224.731122 
L 135.022293 224.731122 
z
" clip-path="url(#p0d4e4b5e54)" style="fill: #1f77b4"/>
   </g>
   <g id="patch_50">
    <path d="M 136.643364 273.312 
L 138.264435 273.312 
L 138.264435 203.659898 
L 136.643364 203.659898 
z
" clip-path="url(#p0d4e4b5e54)" style="fill: #1f77b4"/>
   </g>
   <g id="patch_51">
    <path d="M 138.264435 273.312 
L 139.885506 273.312 
L 139.885506 214.780822 
L 138.264435 214.780822 
z
" clip-path="url(#p0d4e4b5e54)" style="fill: #1f77b4"/>
   </g>
   <g id="patch_52">
    <path d="M 139.885506 273.312 
L 141.506577 273.312 
L 141.506577 203.074587 
L 139.885506 203.074587 
z
" clip-path="url(#p0d4e4b5e54)" style="fill: #1f77b4"/>
   </g>
   <g id="patch_53">
    <path d="M 141.506577 273.312 
L 143.127648 273.312 
L 143.127648 221.219252 
L 141.506577 221.219252 
z
" clip-path="url(#p0d4e4b5e54)" style="fill: #1f77b4"/>
   </g>
   <g id="patch_54">
    <path d="M 143.127648 273.312 
L 144.748719 273.312 
L 144.748719 221.804564 
L 143.127648 221.804564 
z
" clip-path="url(#p0d4e4b5e54)" style="fill: #1f77b4"/>
   </g>
   <g id="patch_55">
    <path d="M 144.748719 273.312 
L 146.36979 273.312 
L 146.36979 214.780822 
L 144.748719 214.780822 
z
" clip-path="url(#p0d4e4b5e54)" style="fill: #1f77b4"/>
   </g>
   <g id="patch_56">
    <path d="M 146.36979 273.312 
L 147.990861 273.312 
L 147.990861 204.830522 
L 146.36979 204.830522 
z
" clip-path="url(#p0d4e4b5e54)" style="fill: #1f77b4"/>
   </g>
   <g id="patch_57">
    <path d="M 147.990861 273.312 
L 149.611932 273.312 
L 149.611932 221.804564 
L 147.990861 221.804564 
z
" clip-path="url(#p0d4e4b5e54)" style="fill: #1f77b4"/>
   </g>
   <g id="patch_58">
    <path d="M 149.611932 273.312 
L 151.233003 273.312 
L 151.233003 216.536758 
L 149.611932 216.536758 
z
" clip-path="url(#p0d4e4b5e54)" style="fill: #1f77b4"/>
   </g>
   <g id="patch_59">
    <path d="M 151.233003 273.312 
L 152.854074 273.312 
L 152.854074 196.636157 
L 151.233003 196.636157 
z
" clip-path="url(#p0d4e4b5e54)" style="fill: #1f77b4"/>
   </g>
   <g id="patch_60">
    <path d="M 152.854074 273.312 
L 154.475145 273.312 
L 154.475145 208.342393 
L 152.854074 208.342393 
z
" clip-path="url(#p0d4e4b5e54)" style="fill: #1f77b4"/>
   </g>
   <g id="patch_61">
    <path d="M 154.475145 273.312 
L 156.096216 273.312 
L 156.096216 198.392092 
L 154.475145 198.392092 
z
" clip-path="url(#p0d4e4b5e54)" style="fill: #1f77b4"/>
   </g>
   <g id="patch_62">
    <path d="M 156.096216 273.312 
L 157.717287 273.312 
L 157.717287 197.221469 
L 156.096216 197.221469 
z
" clip-path="url(#p0d4e4b5e54)" style="fill: #1f77b4"/>
   </g>
   <g id="patch_63">
    <path d="M 157.717287 273.312 
L 159.338359 273.312 
L 159.338359 205.415834 
L 157.717287 205.415834 
z
" clip-path="url(#p0d4e4b5e54)" style="fill: #1f77b4"/>
   </g>
   <g id="patch_64">
    <path d="M 159.338359 273.312 
L 160.95943 273.312 
L 160.95943 207.757081 
L 159.338359 207.757081 
z
" clip-path="url(#p0d4e4b5e54)" style="fill: #1f77b4"/>
   </g>
   <g id="patch_65">
    <path d="M 160.95943 273.312 
L 162.580501 273.312 
L 162.580501 200.148028 
L 160.95943 200.148028 
z
" clip-path="url(#p0d4e4b5e54)" style="fill: #1f77b4"/>
   </g>
   <g id="patch_66">
    <path d="M 162.580501 273.312 
L 164.201572 273.312 
L 164.201572 197.221469 
L 162.580501 197.221469 
z
" clip-path="url(#p0d4e4b5e54)" style="fill: #1f77b4"/>
   </g>
   <g id="patch_67">
    <path d="M 164.201572 273.312 
L 165.822643 273.312 
L 165.822643 200.148028 
L 164.201572 200.148028 
z
" clip-path="url(#p0d4e4b5e54)" style="fill: #1f77b4"/>
   </g>
   <g id="patch_68">
    <path d="M 165.822643 273.312 
L 167.443714 273.312 
L 167.443714 198.977404 
L 165.822643 198.977404 
z
" clip-path="url(#p0d4e4b5e54)" style="fill: #1f77b4"/>
   </g>
   <g id="patch_69">
    <path d="M 167.443714 273.312 
L 169.064785 273.312 
L 169.064785 198.977404 
L 167.443714 198.977404 
z
" clip-path="url(#p0d4e4b5e54)" style="fill: #1f77b4"/>
   </g>
   <g id="patch_70">
    <path d="M 169.064785 273.312 
L 170.685856 273.312 
L 170.685856 186.685857 
L 169.064785 186.685857 
z
" clip-path="url(#p0d4e4b5e54)" style="fill: #1f77b4"/>
   </g>
   <g id="patch_71">
    <path d="M 170.685856 273.312 
L 172.306927 273.312 
L 172.306927 190.783039 
L 170.685856 190.783039 
z
" clip-path="url(#p0d4e4b5e54)" style="fill: #1f77b4"/>
   </g>
   <g id="patch_72">
    <path d="M 172.306927 273.312 
L 173.927998 273.312 
L 173.927998 194.29491 
L 172.306927 194.29491 
z
" clip-path="url(#p0d4e4b5e54)" style="fill: #1f77b4"/>
   </g>
   <g id="patch_73">
    <path d="M 173.927998 273.312 
L 175.549069 273.312 
L 175.549069 193.124286 
L 173.927998 193.124286 
z
" clip-path="url(#p0d4e4b5e54)" style="fill: #1f77b4"/>
   </g>
   <g id="patch_74">
    <path d="M 175.549069 273.312 
L 177.17014 273.312 
L 177.17014 197.806781 
L 175.549069 197.806781 
z
" clip-path="url(#p0d4e4b5e54)" style="fill: #1f77b4"/>
   </g>
   <g id="patch_75">
    <path d="M 177.17014 273.312 
L 178.791211 273.312 
L 178.791211 179.662115 
L 177.17014 179.662115 
z
" clip-path="url(#p0d4e4b5e54)" style="fill: #1f77b4"/>
   </g>
   <g id="patch_76">
    <path d="M 178.791211 273.312 
L 180.412282 273.312 
L 180.412282 184.34461 
L 178.791211 184.34461 
z
" clip-path="url(#p0d4e4b5e54)" style="fill: #1f77b4"/>
   </g>
   <g id="patch_77">
    <path d="M 180.412282 273.312 
L 182.033353 273.312 
L 182.033353 182.588674 
L 180.412282 182.588674 
z
" clip-path="url(#p0d4e4b5e54)" style="fill: #1f77b4"/>
   </g>
   <g id="patch_78">
    <path d="M 182.033353 273.312 
L 183.654424 273.312 
L 183.654424 190.783039 
L 182.033353 190.783039 
z
" clip-path="url(#p0d4e4b5e54)" style="fill: #1f77b4"/>
   </g>
   <g id="patch_79">
    <path d="M 183.654424 273.312 
L 185.275495 273.312 
L 185.275495 176.150245 
L 183.654424 176.150245 
z
" clip-path="url(#p0d4e4b5e54)" style="fill: #1f77b4"/>
   </g>
   <g id="patch_80">
    <path d="M 185.275495 273.312 
L 186.896566 273.312 
L 186.896566 193.124286 
L 185.275495 193.124286 
z
" clip-path="url(#p0d4e4b5e54)" style="fill: #1f77b4"/>
   </g>
   <g id="patch_81">
    <path d="M 186.896566 273.312 
L 188.517637 273.312 
L 188.517637 173.223686 
L 186.896566 173.223686 
z
" clip-path="url(#p0d4e4b5e54)" style="fill: #1f77b4"/>
   </g>
   <g id="patch_82">
    <path d="M 188.517637 273.312 
L 190.138708 273.312 
L 190.138708 173.223686 
L 188.517637 173.223686 
z
" clip-path="url(#p0d4e4b5e54)" style="fill: #1f77b4"/>
   </g>
   <g id="patch_83">
    <path d="M 190.138708 273.312 
L 191.759779 273.312 
L 191.759779 175.564933 
L 190.138708 175.564933 
z
" clip-path="url(#p0d4e4b5e54)" style="fill: #1f77b4"/>
   </g>
   <g id="patch_84">
    <path d="M 191.759779 273.312 
L 193.38085 273.312 
L 193.38085 187.271169 
L 191.759779 187.271169 
z
" clip-path="url(#p0d4e4b5e54)" style="fill: #1f77b4"/>
   </g>
   <g id="patch_85">
    <path d="M 193.38085 273.312 
L 195.001921 273.312 
L 195.001921 184.34461 
L 193.38085 184.34461 
z
" clip-path="url(#p0d4e4b5e54)" style="fill: #1f77b4"/>
   </g>
   <g id="patch_86">
    <path d="M 195.001921 273.312 
L 196.622992 273.312 
L 196.622992 178.491492 
L 195.001921 178.491492 
z
" clip-path="url(#p0d4e4b5e54)" style="fill: #1f77b4"/>
   </g>
   <g id="patch_87">
    <path d="M 196.622992 273.312 
L 198.244063 273.312 
L 198.244063 173.223686 
L 196.622992 173.223686 
z
" clip-path="url(#p0d4e4b5e54)" style="fill: #1f77b4"/>
   </g>
   <g id="patch_88">
    <path d="M 198.244063 273.312 
L 199.865134 273.312 
L 199.865134 183.759298 
L 198.244063 183.759298 
z
" clip-path="url(#p0d4e4b5e54)" style="fill: #1f77b4"/>
   </g>
   <g id="patch_89">
    <path d="M 199.865134 273.312 
L 201.486205 273.312 
L 201.486205 174.979621 
L 199.865134 174.979621 
z
" clip-path="url(#p0d4e4b5e54)" style="fill: #1f77b4"/>
   </g>
   <g id="patch_90">
    <path d="M 201.486205 273.312 
L 203.107276 273.312 
L 203.107276 166.785256 
L 201.486205 166.785256 
z
" clip-path="url(#p0d4e4b5e54)" style="fill: #1f77b4"/>
   </g>
   <g id="patch_91">
    <path d="M 203.107276 273.312 
L 204.728347 273.312 
L 204.728347 172.638374 
L 203.107276 172.638374 
z
" clip-path="url(#p0d4e4b5e54)" style="fill: #1f77b4"/>
   </g>
   <g id="patch_92">
    <path d="M 204.728347 273.312 
L 206.349418 273.312 
L 206.349418 173.808998 
L 204.728347 173.808998 
z
" clip-path="url(#p0d4e4b5e54)" style="fill: #1f77b4"/>
   </g>
   <g id="patch_93">
    <path d="M 206.349418 273.312 
L 207.970489 273.312 
L 207.970489 168.541192 
L 206.349418 168.541192 
z
" clip-path="url(#p0d4e4b5e54)" style="fill: #1f77b4"/>
   </g>
   <g id="patch_94">
    <path d="M 207.970489 273.312 
L 209.59156 273.312 
L 209.59156 171.467751 
L 207.970489 171.467751 
z
" clip-path="url(#p0d4e4b5e54)" style="fill: #1f77b4"/>
   </g>
   <g id="patch_95">
    <path d="M 209.59156 273.312 
L 211.212631 273.312 
L 211.212631 179.076804 
L 209.59156 179.076804 
z
" clip-path="url(#p0d4e4b5e54)" style="fill: #1f77b4"/>
   </g>
   <g id="patch_96">
    <path d="M 211.212631 273.312 
L 212.833702 273.312 
L 212.833702 163.858697 
L 211.212631 163.858697 
z
" clip-path="url(#p0d4e4b5e54)" style="fill: #1f77b4"/>
   </g>
   <g id="patch_97">
    <path d="M 212.833702 273.312 
L 214.454773 273.312 
L 214.454773 177.320868 
L 212.833702 177.320868 
z
" clip-path="url(#p0d4e4b5e54)" style="fill: #1f77b4"/>
   </g>
   <g id="patch_98">
    <path d="M 214.454773 273.312 
L 216.075844 273.312 
L 216.075844 164.444009 
L 214.454773 164.444009 
z
" clip-path="url(#p0d4e4b5e54)" style="fill: #1f77b4"/>
   </g>
   <g id="patch_99">
    <path d="M 216.075844 273.312 
L 217.696915 273.312 
L 217.696915 153.323085 
L 216.075844 153.323085 
z
" clip-path="url(#p0d4e4b5e54)" style="fill: #1f77b4"/>
   </g>
   <g id="patch_100">
    <path d="M 217.696915 273.312 
L 219.317986 273.312 
L 219.317986 164.444009 
L 217.696915 164.444009 
z
" clip-path="url(#p0d4e4b5e54)" style="fill: #1f77b4"/>
   </g>
   <g id="patch_101">
    <path d="M 219.317986 273.312 
L 220.939057 273.312 
L 220.939057 146.884656 
L 219.317986 146.884656 
z
" clip-path="url(#p0d4e4b5e54)" style="fill: #1f77b4"/>
   </g>
   <g id="patch_102">
    <path d="M 220.939057 273.312 
L 222.560128 273.312 
L 222.560128 165.029321 
L 220.939057 165.029321 
z
" clip-path="url(#p0d4e4b5e54)" style="fill: #1f77b4"/>
   </g>
   <g id="patch_103">
    <path d="M 222.560128 273.312 
L 224.181199 273.312 
L 224.181199 158.590891 
L 222.560128 158.590891 
z
" clip-path="url(#p0d4e4b5e54)" style="fill: #1f77b4"/>
   </g>
   <g id="patch_104">
    <path d="M 224.181199 273.312 
L 225.80227 273.312 
L 225.80227 152.152462 
L 224.181199 152.152462 
z
" clip-path="url(#p0d4e4b5e54)" style="fill: #1f77b4"/>
   </g>
   <g id="patch_105">
    <path d="M 225.80227 273.312 
L 227.423341 273.312 
L 227.423341 147.469968 
L 225.80227 147.469968 
z
" clip-path="url(#p0d4e4b5e54)" style="fill: #1f77b4"/>
   </g>
   <g id="patch_106">
    <path d="M 227.423341 273.312 
L 229.044412 273.312 
L 229.044412 162.102762 
L 227.423341 162.102762 
z
" clip-path="url(#p0d4e4b5e54)" style="fill: #1f77b4"/>
   </g>
   <g id="patch_107">
    <path d="M 229.044412 273.312 
L 230.665483 273.312 
L 230.665483 166.785256 
L 229.044412 166.785256 
z
" clip-path="url(#p0d4e4b5e54)" style="fill: #1f77b4"/>
   </g>
   <g id="patch_108">
    <path d="M 230.665483 273.312 
L 232.286554 273.312 
L 232.286554 159.176203 
L 230.665483 159.176203 
z
" clip-path="url(#p0d4e4b5e54)" style="fill: #1f77b4"/>
   </g>
   <g id="patch_109">
    <path d="M 232.286554 273.312 
L 233.907625 273.312 
L 233.907625 139.860915 
L 232.286554 139.860915 
z
" clip-path="url(#p0d4e4b5e54)" style="fill: #1f77b4"/>
   </g>
   <g id="patch_110">
    <path d="M 233.907625 273.312 
L 235.528696 273.312 
L 235.528696 157.420268 
L 233.907625 157.420268 
z
" clip-path="url(#p0d4e4b5e54)" style="fill: #1f77b4"/>
   </g>
   <g id="patch_111">
    <path d="M 235.528696 273.312 
L 237.149767 273.312 
L 237.149767 143.372785 
L 235.528696 143.372785 
z
" clip-path="url(#p0d4e4b5e54)" style="fill: #1f77b4"/>
   </g>
   <g id="patch_112">
    <path d="M 237.149767 273.312 
L 238.770838 273.312 
L 238.770838 158.590891 
L 237.149767 158.590891 
z
" clip-path="url(#p0d4e4b5e54)" style="fill: #1f77b4"/>
   </g>
   <g id="patch_113">
    <path d="M 238.770838 273.312 
L 240.391909 273.312 
L 240.391909 146.299344 
L 238.770838 146.299344 
z
" clip-path="url(#p0d4e4b5e54)" style="fill: #1f77b4"/>
   </g>
   <g id="patch_114">
    <path d="M 240.391909 273.312 
L 242.01298 273.312 
L 242.01298 140.446226 
L 240.391909 140.446226 
z
" clip-path="url(#p0d4e4b5e54)" style="fill: #1f77b4"/>
   </g>
   <g id="patch_115">
    <path d="M 242.01298 273.312 
L 243.634052 273.312 
L 243.634052 143.372785 
L 242.01298 143.372785 
z
" clip-path="url(#p0d4e4b5e54)" style="fill: #1f77b4"/>
   </g>
   <g id="patch_116">
    <path d="M 243.634052 273.312 
L 245.255123 273.312 
L 245.255123 124.057497 
L 243.634052 124.057497 
z
" clip-path="url(#p0d4e4b5e54)" style="fill: #1f77b4"/>
   </g>
   <g id="patch_117">
    <path d="M 245.255123 273.312 
L 246.876194 273.312 
L 246.876194 155.664333 
L 245.255123 155.664333 
z
" clip-path="url(#p0d4e4b5e54)" style="fill: #1f77b4"/>
   </g>
   <g id="patch_118">
    <path d="M 246.876194 273.312 
L 248.497265 273.312 
L 248.497265 128.154679 
L 246.876194 128.154679 
z
" clip-path="url(#p0d4e4b5e54)" style="fill: #1f77b4"/>
   </g>
   <g id="patch_119">
    <path d="M 248.497265 273.312 
L 250.118336 273.312 
L 250.118336 146.299344 
L 248.497265 146.299344 
z
" clip-path="url(#p0d4e4b5e54)" style="fill: #1f77b4"/>
   </g>
   <g id="patch_120">
    <path d="M 250.118336 273.312 
L 251.739407 273.312 
L 251.739407 149.225903 
L 250.118336 149.225903 
z
" clip-path="url(#p0d4e4b5e54)" style="fill: #1f77b4"/>
   </g>
   <g id="patch_121">
    <path d="M 251.739407 273.312 
L 253.360478 273.312 
L 253.360478 132.251861 
L 251.739407 132.251861 
z
" clip-path="url(#p0d4e4b5e54)" style="fill: #1f77b4"/>
   </g>
   <g id="patch_122">
    <path d="M 253.360478 273.312 
L 254.981549 273.312 
L 254.981549 121.130938 
L 253.360478 121.130938 
z
" clip-path="url(#p0d4e4b5e54)" style="fill: #1f77b4"/>
   </g>
   <g id="patch_123">
    <path d="M 254.981549 273.312 
L 256.60262 273.312 
L 256.60262 132.251861 
L 254.981549 132.251861 
z
" clip-path="url(#p0d4e4b5e54)" style="fill: #1f77b4"/>
   </g>
   <g id="patch_124">
    <path d="M 256.60262 273.312 
L 258.223691 273.312 
L 258.223691 107.668767 
L 256.60262 107.668767 
z
" clip-path="url(#p0d4e4b5e54)" style="fill: #1f77b4"/>
   </g>
   <g id="patch_125">
    <path d="M 258.223691 273.312 
L 259.844762 273.312 
L 259.844762 134.007797 
L 258.223691 134.007797 
z
" clip-path="url(#p0d4e4b5e54)" style="fill: #1f77b4"/>
   </g>
   <g id="patch_126">
    <path d="M 259.844762 273.312 
L 261.465833 273.312 
L 261.465833 143.958097 
L 259.844762 143.958097 
z
" clip-path="url(#p0d4e4b5e54)" style="fill: #1f77b4"/>
   </g>
   <g id="patch_127">
    <path d="M 261.465833 273.312 
L 263.086904 273.312 
L 263.086904 127.569367 
L 261.465833 127.569367 
z
" clip-path="url(#p0d4e4b5e54)" style="fill: #1f77b4"/>
   </g>
   <g id="patch_128">
    <path d="M 263.086904 273.312 
L 264.707975 273.312 
L 264.707975 141.031538 
L 263.086904 141.031538 
z
" clip-path="url(#p0d4e4b5e54)" style="fill: #1f77b4"/>
   </g>
   <g id="patch_129">
    <path d="M 264.707975 273.312 
L 266.329046 273.312 
L 266.329046 131.081238 
L 264.707975 131.081238 
z
" clip-path="url(#p0d4e4b5e54)" style="fill: #1f77b4"/>
   </g>
   <g id="patch_130">
    <path d="M 266.329046 273.312 
L 267.950117 273.312 
L 267.950117 119.960314 
L 266.329046 119.960314 
z
" clip-path="url(#p0d4e4b5e54)" style="fill: #1f77b4"/>
   </g>
   <g id="patch_131">
    <path d="M 267.950117 273.312 
L 269.571188 273.312 
L 269.571188 122.301561 
L 267.950117 122.301561 
z
" clip-path="url(#p0d4e4b5e54)" style="fill: #1f77b4"/>
   </g>
   <g id="patch_132">
    <path d="M 269.571188 273.312 
L 271.192259 273.312 
L 271.192259 100.059714 
L 269.571188 100.059714 
z
" clip-path="url(#p0d4e4b5e54)" style="fill: #1f77b4"/>
   </g>
   <g id="patch_133">
    <path d="M 271.192259 273.312 
L 272.81333 273.312 
L 272.81333 122.886873 
L 271.192259 122.886873 
z
" clip-path="url(#p0d4e4b5e54)" style="fill: #1f77b4"/>
   </g>
   <g id="patch_134">
    <path d="M 272.81333 273.312 
L 274.434401 273.312 
L 274.434401 105.32752 
L 272.81333 105.32752 
z
" clip-path="url(#p0d4e4b5e54)" style="fill: #1f77b4"/>
   </g>
   <g id="patch_135">
    <path d="M 274.434401 273.312 
L 276.055472 273.312 
L 276.055472 132.837173 
L 274.434401 132.837173 
z
" clip-path="url(#p0d4e4b5e54)" style="fill: #1f77b4"/>
   </g>
   <g id="patch_136">
    <path d="M 276.055472 273.312 
L 277.676543 273.312 
L 277.676543 127.569367 
L 276.055472 127.569367 
z
" clip-path="url(#p0d4e4b5e54)" style="fill: #1f77b4"/>
   </g>
   <g id="patch_137">
    <path d="M 277.676543 273.312 
L 279.297614 273.312 
L 279.297614 111.180637 
L 277.676543 111.180637 
z
" clip-path="url(#p0d4e4b5e54)" style="fill: #1f77b4"/>
   </g>
   <g id="patch_138">
    <path d="M 279.297614 273.312 
L 280.918685 273.312 
L 280.918685 128.154679 
L 279.297614 128.154679 
z
" clip-path="url(#p0d4e4b5e54)" style="fill: #1f77b4"/>
   </g>
   <g id="patch_139">
    <path d="M 280.918685 273.312 
L 282.539756 273.312 
L 282.539756 113.521885 
L 280.918685 113.521885 
z
" clip-path="url(#p0d4e4b5e54)" style="fill: #1f77b4"/>
   </g>
   <g id="patch_140">
    <path d="M 282.539756 273.312 
L 284.160827 273.312 
L 284.160827 116.448443 
L 282.539756 116.448443 
z
" clip-path="url(#p0d4e4b5e54)" style="fill: #1f77b4"/>
   </g>
   <g id="patch_141">
    <path d="M 284.160827 273.312 
L 285.781898 273.312 
L 285.781898 115.27782 
L 284.160827 115.27782 
z
" clip-path="url(#p0d4e4b5e54)" style="fill: #1f77b4"/>
   </g>
   <g id="patch_142">
    <path d="M 285.781898 273.312 
L 287.402969 273.312 
L 287.402969 97.133155 
L 285.781898 97.133155 
z
" clip-path="url(#p0d4e4b5e54)" style="fill: #1f77b4"/>
   </g>
   <g id="patch_143">
    <path d="M 287.402969 273.312 
L 289.02404 273.312 
L 289.02404 102.986273 
L 287.402969 102.986273 
z
" clip-path="url(#p0d4e4b5e54)" style="fill: #1f77b4"/>
   </g>
   <g id="patch_144">
    <path d="M 289.02404 273.312 
L 290.645111 273.312 
L 290.645111 105.912831 
L 289.02404 105.912831 
z
" clip-path="url(#p0d4e4b5e54)" style="fill: #1f77b4"/>
   </g>
   <g id="patch_145">
    <path d="M 290.645111 273.312 
L 292.266182 273.312 
L 292.266182 105.32752 
L 290.645111 105.32752 
z
" clip-path="url(#p0d4e4b5e54)" style="fill: #1f77b4"/>
   </g>
   <g id="patch_146">
    <path d="M 292.266182 273.312 
L 293.887253 273.312 
L 293.887253 105.32752 
L 292.266182 105.32752 
z
" clip-path="url(#p0d4e4b5e54)" style="fill: #1f77b4"/>
   </g>
   <g id="patch_147">
    <path d="M 293.887253 273.312 
L 295.508324 273.312 
L 295.508324 101.230337 
L 293.887253 101.230337 
z
" clip-path="url(#p0d4e4b5e54)" style="fill: #1f77b4"/>
   </g>
   <g id="patch_148">
    <path d="M 295.508324 273.312 
L 297.129395 273.312 
L 297.129395 97.718467 
L 295.508324 97.718467 
z
" clip-path="url(#p0d4e4b5e54)" style="fill: #1f77b4"/>
   </g>
   <g id="patch_149">
    <path d="M 297.129395 273.312 
L 298.750466 273.312 
L 298.750466 88.353478 
L 297.129395 88.353478 
z
" clip-path="url(#p0d4e4b5e54)" style="fill: #1f77b4"/>
   </g>
   <g id="patch_150">
    <path d="M 298.750466 273.312 
L 300.371537 273.312 
L 300.371537 106.498143 
L 298.750466 106.498143 
z
" clip-path="url(#p0d4e4b5e54)" style="fill: #1f77b4"/>
   </g>
   <g id="patch_151">
    <path d="M 300.371537 273.312 
L 301.992608 273.312 
L 301.992608 98.88909 
L 300.371537 98.88909 
z
" clip-path="url(#p0d4e4b5e54)" style="fill: #1f77b4"/>
   </g>
   <g id="patch_152">
    <path d="M 301.992608 273.312 
L 303.613679 273.312 
L 303.613679 112.351261 
L 301.992608 112.351261 
z
" clip-path="url(#p0d4e4b5e54)" style="fill: #1f77b4"/>
   </g>
   <g id="patch_153">
    <path d="M 303.613679 273.312 
L 305.23475 273.312 
L 305.23475 90.694725 
L 303.613679 90.694725 
z
" clip-path="url(#p0d4e4b5e54)" style="fill: #1f77b4"/>
   </g>
   <g id="patch_154">
    <path d="M 305.23475 273.312 
L 306.855821 273.312 
L 306.855821 94.791908 
L 305.23475 94.791908 
z
" clip-path="url(#p0d4e4b5e54)" style="fill: #1f77b4"/>
   </g>
   <g id="patch_155">
    <path d="M 306.855821 273.312 
L 308.476892 273.312 
L 308.476892 97.133155 
L 306.855821 97.133155 
z
" clip-path="url(#p0d4e4b5e54)" style="fill: #1f77b4"/>
   </g>
   <g id="patch_156">
    <path d="M 308.476892 273.312 
L 310.097963 273.312 
L 310.097963 90.109413 
L 308.476892 90.109413 
z
" clip-path="url(#p0d4e4b5e54)" style="fill: #1f77b4"/>
   </g>
   <g id="patch_157">
    <path d="M 310.097963 273.312 
L 311.719034 273.312 
L 311.719034 74.891307 
L 310.097963 74.891307 
z
" clip-path="url(#p0d4e4b5e54)" style="fill: #1f77b4"/>
   </g>
   <g id="patch_158">
    <path d="M 311.719034 273.312 
L 313.340105 273.312 
L 313.340105 105.32752 
L 311.719034 105.32752 
z
" clip-path="url(#p0d4e4b5e54)" style="fill: #1f77b4"/>
   </g>
   <g id="patch_159">
    <path d="M 313.340105 273.312 
L 314.961176 273.312 
L 314.961176 85.426919 
L 313.340105 85.426919 
z
" clip-path="url(#p0d4e4b5e54)" style="fill: #1f77b4"/>
   </g>
   <g id="patch_160">
    <path d="M 314.961176 273.312 
L 316.582247 273.312 
L 316.582247 77.817866 
L 314.961176 77.817866 
z
" clip-path="url(#p0d4e4b5e54)" style="fill: #1f77b4"/>
   </g>
   <g id="patch_161">
    <path d="M 316.582247 273.312 
L 318.203318 273.312 
L 318.203318 96.547843 
L 316.582247 96.547843 
z
" clip-path="url(#p0d4e4b5e54)" style="fill: #1f77b4"/>
   </g>
   <g id="patch_162">
    <path d="M 318.203318 273.312 
L 319.824389 273.312 
L 319.824389 94.791908 
L 318.203318 94.791908 
z
" clip-path="url(#p0d4e4b5e54)" style="fill: #1f77b4"/>
   </g>
   <g id="patch_163">
    <path d="M 319.824389 273.312 
L 321.44546 273.312 
L 321.44546 91.280037 
L 319.824389 91.280037 
z
" clip-path="url(#p0d4e4b5e54)" style="fill: #1f77b4"/>
   </g>
   <g id="patch_164">
    <path d="M 321.44546 273.312 
L 323.066531 273.312 
L 323.066531 86.597543 
L 321.44546 86.597543 
z
" clip-path="url(#p0d4e4b5e54)" style="fill: #1f77b4"/>
   </g>
   <g id="patch_165">
    <path d="M 323.066531 273.312 
L 324.687602 273.312 
L 324.687602 84.841607 
L 323.066531 84.841607 
z
" clip-path="url(#p0d4e4b5e54)" style="fill: #1f77b4"/>
   </g>
   <g id="patch_166">
    <path d="M 324.687602 273.312 
L 326.308673 273.312 
L 326.308673 69.623501 
L 324.687602 69.623501 
z
" clip-path="url(#p0d4e4b5e54)" style="fill: #1f77b4"/>
   </g>
   <g id="patch_167">
    <path d="M 326.308673 273.312 
L 327.929745 273.312 
L 327.929745 70.208813 
L 326.308673 70.208813 
z
" clip-path="url(#p0d4e4b5e54)" style="fill: #1f77b4"/>
   </g>
   <g id="patch_168">
    <path d="M 327.929745 273.312 
L 329.550816 273.312 
L 329.550816 81.915048 
L 327.929745 81.915048 
z
" clip-path="url(#p0d4e4b5e54)" style="fill: #1f77b4"/>
   </g>
   <g id="patch_169">
    <path d="M 329.550816 273.312 
L 331.171887 273.312 
L 331.171887 97.133155 
L 329.550816 97.133155 
z
" clip-path="url(#p0d4e4b5e54)" style="fill: #1f77b4"/>
   </g>
   <g id="patch_170">
    <path d="M 331.171887 273.312 
L 332.792958 273.312 
L 332.792958 80.159113 
L 331.171887 80.159113 
z
" clip-path="url(#p0d4e4b5e54)" style="fill: #1f77b4"/>
   </g>
   <g id="patch_171">
    <path d="M 332.792958 273.312 
L 334.414029 273.312 
L 334.414029 81.915048 
L 332.792958 81.915048 
z
" clip-path="url(#p0d4e4b5e54)" style="fill: #1f77b4"/>
   </g>
   <g id="patch_172">
    <path d="M 334.414029 273.312 
L 336.0351 273.312 
L 336.0351 83.670984 
L 334.414029 83.670984 
z
" clip-path="url(#p0d4e4b5e54)" style="fill: #1f77b4"/>
   </g>
   <g id="patch_173">
    <path d="M 336.0351 273.312 
L 337.656171 273.312 
L 337.656171 63.185072 
L 336.0351 63.185072 
z
" clip-path="url(#p0d4e4b5e54)" style="fill: #1f77b4"/>
   </g>
   <g id="patch_174">
    <path d="M 337.656171 273.312 
L 339.277242 273.312 
L 339.277242 71.379436 
L 337.656171 71.379436 
z
" clip-path="url(#p0d4e4b5e54)" style="fill: #1f77b4"/>
   </g>
   <g id="patch_175">
    <path d="M 339.277242 273.312 
L 340.898313 273.312 
L 340.898313 68.452878 
L 339.277242 68.452878 
z
" clip-path="url(#p0d4e4b5e54)" style="fill: #1f77b4"/>
   </g>
   <g id="patch_176">
    <path d="M 340.898313 273.312 
L 342.519384 273.312 
L 342.519384 64.941007 
L 340.898313 64.941007 
z
" clip-path="url(#p0d4e4b5e54)" style="fill: #1f77b4"/>
   </g>
   <g id="patch_177">
    <path d="M 342.519384 273.312 
L 344.140455 273.312 
L 344.140455 69.038189 
L 342.519384 69.038189 
z
" clip-path="url(#p0d4e4b5e54)" style="fill: #1f77b4"/>
   </g>
   <g id="patch_178">
    <path d="M 344.140455 273.312 
L 345.761526 273.312 
L 345.761526 73.135372 
L 344.140455 73.135372 
z
" clip-path="url(#p0d4e4b5e54)" style="fill: #1f77b4"/>
   </g>
   <g id="patch_179">
    <path d="M 345.761526 273.312 
L 347.382597 273.312 
L 347.382597 81.329737 
L 345.761526 81.329737 
z
" clip-path="url(#p0d4e4b5e54)" style="fill: #1f77b4"/>
   </g>
   <g id="patch_180">
    <path d="M 347.382597 273.312 
L 349.003668 273.312 
L 349.003668 66.696942 
L 347.382597 66.696942 
z
" clip-path="url(#p0d4e4b5e54)" style="fill: #1f77b4"/>
   </g>
   <g id="patch_181">
    <path d="M 349.003668 273.312 
L 350.624739 273.312 
L 350.624739 43.284471 
L 349.003668 43.284471 
z
" clip-path="url(#p0d4e4b5e54)" style="fill: #1f77b4"/>
   </g>
   <g id="patch_182">
    <path d="M 350.624739 273.312 
L 352.24581 273.312 
L 352.24581 67.282254 
L 350.624739 67.282254 
z
" clip-path="url(#p0d4e4b5e54)" style="fill: #1f77b4"/>
   </g>
   <g id="patch_183">
    <path d="M 352.24581 273.312 
L 353.866881 273.312 
L 353.866881 53.234771 
L 352.24581 53.234771 
z
" clip-path="url(#p0d4e4b5e54)" style="fill: #1f77b4"/>
   </g>
   <g id="patch_184">
    <path d="M 353.866881 273.312 
L 355.487952 273.312 
L 355.487952 88.93879 
L 353.866881 88.93879 
z
" clip-path="url(#p0d4e4b5e54)" style="fill: #1f77b4"/>
   </g>
   <g id="patch_185">
    <path d="M 355.487952 273.312 
L 357.109023 273.312 
L 357.109023 49.722901 
L 355.487952 49.722901 
z
" clip-path="url(#p0d4e4b5e54)" style="fill: #1f77b4"/>
   </g>
   <g id="patch_186">
    <path d="M 357.109023 273.312 
L 358.730094 273.312 
L 358.730094 54.405395 
L 357.109023 54.405395 
z
" clip-path="url(#p0d4e4b5e54)" style="fill: #1f77b4"/>
   </g>
   <g id="patch_187">
    <path d="M 358.730094 273.312 
L 360.351165 273.312 
L 360.351165 45.625718 
L 358.730094 45.625718 
z
" clip-path="url(#p0d4e4b5e54)" style="fill: #1f77b4"/>
   </g>
   <g id="patch_188">
    <path d="M 360.351165 273.312 
L 361.972236 273.312 
L 361.972236 51.478836 
L 360.351165 51.478836 
z
" clip-path="url(#p0d4e4b5e54)" style="fill: #1f77b4"/>
   </g>
   <g id="patch_189">
    <path d="M 361.972236 273.312 
L 363.593307 273.312 
L 363.593307 69.623501 
L 361.972236 69.623501 
z
" clip-path="url(#p0d4e4b5e54)" style="fill: #1f77b4"/>
   </g>
   <g id="patch_190">
    <path d="M 363.593307 273.312 
L 365.214378 273.312 
L 365.214378 40.943224 
L 363.593307 40.943224 
z
" clip-path="url(#p0d4e4b5e54)" style="fill: #1f77b4"/>
   </g>
   <g id="patch_191">
    <path d="M 365.214378 273.312 
L 366.835449 273.312 
L 366.835449 49.137589 
L 365.214378 49.137589 
z
" clip-path="url(#p0d4e4b5e54)" style="fill: #1f77b4"/>
   </g>
   <g id="patch_192">
    <path d="M 366.835449 273.312 
L 368.45652 273.312 
L 368.45652 52.064148 
L 366.835449 52.064148 
z
" clip-path="url(#p0d4e4b5e54)" style="fill: #1f77b4"/>
   </g>
   <g id="patch_193">
    <path d="M 368.45652 273.312 
L 370.077591 273.312 
L 370.077591 50.308212 
L 368.45652 50.308212 
z
" clip-path="url(#p0d4e4b5e54)" style="fill: #1f77b4"/>
   </g>
   <g id="patch_194">
    <path d="M 370.077591 273.312 
L 371.698662 273.312 
L 371.698662 69.623501 
L 370.077591 69.623501 
z
" clip-path="url(#p0d4e4b5e54)" style="fill: #1f77b4"/>
   </g>
   <g id="patch_195">
    <path d="M 371.698662 273.312 
L 373.319733 273.312 
L 373.319733 45.040406 
L 371.698662 45.040406 
z
" clip-path="url(#p0d4e4b5e54)" style="fill: #1f77b4"/>
   </g>
   <g id="patch_196">
    <path d="M 373.319733 273.312 
L 374.940804 273.312 
L 374.940804 57.331954 
L 373.319733 57.331954 
z
" clip-path="url(#p0d4e4b5e54)" style="fill: #1f77b4"/>
   </g>
   <g id="patch_197">
    <path d="M 374.940804 273.312 
L 376.561875 273.312 
L 376.561875 19.872 
L 374.940804 19.872 
z
" clip-path="url(#p0d4e4b5e54)" style="fill: #1f77b4"/>
   </g>
   <g id="patch_198">
    <path d="M 376.561875 273.312 
L 378.182946 273.312 
L 378.182946 42.699159 
L 376.561875 42.699159 
z
" clip-path="url(#p0d4e4b5e54)" style="fill: #1f77b4"/>
   </g>
   <g id="patch_199">
    <path d="M 378.182946 273.312 
L 379.804017 273.312 
L 379.804017 36.26073 
L 378.182946 36.26073 
z
" clip-path="url(#p0d4e4b5e54)" style="fill: #1f77b4"/>
   </g>
   <g id="patch_200">
    <path d="M 379.804017 273.312 
L 381.425088 273.312 
L 381.425088 54.990707 
L 379.804017 54.990707 
z
" clip-path="url(#p0d4e4b5e54)" style="fill: #1f77b4"/>
   </g>
   <g id="patch_201">
    <path d="M 381.425088 273.312 
L 383.046159 273.312 
L 383.046159 43.284471 
L 381.425088 43.284471 
z
" clip-path="url(#p0d4e4b5e54)" style="fill: #1f77b4"/>
   </g>
   <g id="patch_202">
    <path d="M 383.046159 273.312 
L 384.66723 273.312 
L 384.66723 41.528536 
L 383.046159 41.528536 
z
" clip-path="url(#p0d4e4b5e54)" style="fill: #1f77b4"/>
   </g>
   <g id="matplotlib.axis_1">
    <g id="xtick_1">
     <g id="line2d_1">
      <defs>
       <path id="m04ccc1198e" d="M 0 0 
L 0 3.5 
" style="stroke: #000000; stroke-width: 0.8"/>
      </defs>
      <g>
       <use xlink:href="#m04ccc1198e" x="60.013977" y="273.312" style="stroke: #000000; stroke-width: 0.8"/>
      </g>
     </g>
     <g id="text_1">
      <!-- 0.0 -->
      <g transform="translate(52.062415 287.910437)scale(0.1 -0.1)">
       <defs>
        <path id="DejaVuSans-30" d="M 2034 4250 
Q 1547 4250 1301 3770 
Q 1056 3291 1056 2328 
Q 1056 1369 1301 889 
Q 1547 409 2034 409 
Q 2525 409 2770 889 
Q 3016 1369 3016 2328 
Q 3016 3291 2770 3770 
Q 2525 4250 2034 4250 
z
M 2034 4750 
Q 2819 4750 3233 4129 
Q 3647 3509 3647 2328 
Q 3647 1150 3233 529 
Q 2819 -91 2034 -91 
Q 1250 -91 836 529 
Q 422 1150 422 2328 
Q 422 3509 836 4129 
Q 1250 4750 2034 4750 
z
" transform="scale(0.015625)"/>
        <path id="DejaVuSans-2e" d="M 684 794 
L 1344 794 
L 1344 0 
L 684 0 
L 684 794 
z
" transform="scale(0.015625)"/>
       </defs>
       <use xlink:href="#DejaVuSans-30"/>
       <use xlink:href="#DejaVuSans-2e" x="63.623047"/>
       <use xlink:href="#DejaVuSans-30" x="95.410156"/>
      </g>
     </g>
    </g>
    <g id="xtick_2">
     <g id="line2d_2">
      <g>
       <use xlink:href="#m04ccc1198e" x="124.944886" y="273.312" style="stroke: #000000; stroke-width: 0.8"/>
      </g>
     </g>
     <g id="text_2">
      <!-- 0.2 -->
      <g transform="translate(116.993324 287.910437)scale(0.1 -0.1)">
       <defs>
        <path id="DejaVuSans-32" d="M 1228 531 
L 3431 531 
L 3431 0 
L 469 0 
L 469 531 
Q 828 903 1448 1529 
Q 2069 2156 2228 2338 
Q 2531 2678 2651 2914 
Q 2772 3150 2772 3378 
Q 2772 3750 2511 3984 
Q 2250 4219 1831 4219 
Q 1534 4219 1204 4116 
Q 875 4013 500 3803 
L 500 4441 
Q 881 4594 1212 4672 
Q 1544 4750 1819 4750 
Q 2544 4750 2975 4387 
Q 3406 4025 3406 3419 
Q 3406 3131 3298 2873 
Q 3191 2616 2906 2266 
Q 2828 2175 2409 1742 
Q 1991 1309 1228 531 
z
" transform="scale(0.015625)"/>
       </defs>
       <use xlink:href="#DejaVuSans-30"/>
       <use xlink:href="#DejaVuSans-2e" x="63.623047"/>
       <use xlink:href="#DejaVuSans-32" x="95.410156"/>
      </g>
     </g>
    </g>
    <g id="xtick_3">
     <g id="line2d_3">
      <g>
       <use xlink:href="#m04ccc1198e" x="189.875795" y="273.312" style="stroke: #000000; stroke-width: 0.8"/>
      </g>
     </g>
     <g id="text_3">
      <!-- 0.4 -->
      <g transform="translate(181.924233 287.910437)scale(0.1 -0.1)">
       <defs>
        <path id="DejaVuSans-34" d="M 2419 4116 
L 825 1625 
L 2419 1625 
L 2419 4116 
z
M 2253 4666 
L 3047 4666 
L 3047 1625 
L 3713 1625 
L 3713 1100 
L 3047 1100 
L 3047 0 
L 2419 0 
L 2419 1100 
L 313 1100 
L 313 1709 
L 2253 4666 
z
" transform="scale(0.015625)"/>
       </defs>
       <use xlink:href="#DejaVuSans-30"/>
       <use xlink:href="#DejaVuSans-2e" x="63.623047"/>
       <use xlink:href="#DejaVuSans-34" x="95.410156"/>
      </g>
     </g>
    </g>
    <g id="xtick_4">
     <g id="line2d_4">
      <g>
       <use xlink:href="#m04ccc1198e" x="254.806705" y="273.312" style="stroke: #000000; stroke-width: 0.8"/>
      </g>
     </g>
     <g id="text_4">
      <!-- 0.6 -->
      <g transform="translate(246.855142 287.910437)scale(0.1 -0.1)">
       <defs>
        <path id="DejaVuSans-36" d="M 2113 2584 
Q 1688 2584 1439 2293 
Q 1191 2003 1191 1497 
Q 1191 994 1439 701 
Q 1688 409 2113 409 
Q 2538 409 2786 701 
Q 3034 994 3034 1497 
Q 3034 2003 2786 2293 
Q 2538 2584 2113 2584 
z
M 3366 4563 
L 3366 3988 
Q 3128 4100 2886 4159 
Q 2644 4219 2406 4219 
Q 1781 4219 1451 3797 
Q 1122 3375 1075 2522 
Q 1259 2794 1537 2939 
Q 1816 3084 2150 3084 
Q 2853 3084 3261 2657 
Q 3669 2231 3669 1497 
Q 3669 778 3244 343 
Q 2819 -91 2113 -91 
Q 1303 -91 875 529 
Q 447 1150 447 2328 
Q 447 3434 972 4092 
Q 1497 4750 2381 4750 
Q 2619 4750 2861 4703 
Q 3103 4656 3366 4563 
z
" transform="scale(0.015625)"/>
       </defs>
       <use xlink:href="#DejaVuSans-30"/>
       <use xlink:href="#DejaVuSans-2e" x="63.623047"/>
       <use xlink:href="#DejaVuSans-36" x="95.410156"/>
      </g>
     </g>
    </g>
    <g id="xtick_5">
     <g id="line2d_5">
      <g>
       <use xlink:href="#m04ccc1198e" x="319.737614" y="273.312" style="stroke: #000000; stroke-width: 0.8"/>
      </g>
     </g>
     <g id="text_5">
      <!-- 0.8 -->
      <g transform="translate(311.786051 287.910437)scale(0.1 -0.1)">
       <defs>
        <path id="DejaVuSans-38" d="M 2034 2216 
Q 1584 2216 1326 1975 
Q 1069 1734 1069 1313 
Q 1069 891 1326 650 
Q 1584 409 2034 409 
Q 2484 409 2743 651 
Q 3003 894 3003 1313 
Q 3003 1734 2745 1975 
Q 2488 2216 2034 2216 
z
M 1403 2484 
Q 997 2584 770 2862 
Q 544 3141 544 3541 
Q 544 4100 942 4425 
Q 1341 4750 2034 4750 
Q 2731 4750 3128 4425 
Q 3525 4100 3525 3541 
Q 3525 3141 3298 2862 
Q 3072 2584 2669 2484 
Q 3125 2378 3379 2068 
Q 3634 1759 3634 1313 
Q 3634 634 3220 271 
Q 2806 -91 2034 -91 
Q 1263 -91 848 271 
Q 434 634 434 1313 
Q 434 1759 690 2068 
Q 947 2378 1403 2484 
z
M 1172 3481 
Q 1172 3119 1398 2916 
Q 1625 2713 2034 2713 
Q 2441 2713 2670 2916 
Q 2900 3119 2900 3481 
Q 2900 3844 2670 4047 
Q 2441 4250 2034 4250 
Q 1625 4250 1398 4047 
Q 1172 3844 1172 3481 
z
" transform="scale(0.015625)"/>
       </defs>
       <use xlink:href="#DejaVuSans-30"/>
       <use xlink:href="#DejaVuSans-2e" x="63.623047"/>
       <use xlink:href="#DejaVuSans-38" x="95.410156"/>
      </g>
     </g>
    </g>
    <g id="xtick_6">
     <g id="line2d_6">
      <g>
       <use xlink:href="#m04ccc1198e" x="384.668523" y="273.312" style="stroke: #000000; stroke-width: 0.8"/>
      </g>
     </g>
     <g id="text_6">
      <!-- 1.0 -->
      <g transform="translate(376.71696 287.910437)scale(0.1 -0.1)">
       <defs>
        <path id="DejaVuSans-31" d="M 794 531 
L 1825 531 
L 1825 4091 
L 703 3866 
L 703 4441 
L 1819 4666 
L 2450 4666 
L 2450 531 
L 3481 531 
L 3481 0 
L 794 0 
L 794 531 
z
" transform="scale(0.015625)"/>
       </defs>
       <use xlink:href="#DejaVuSans-31"/>
       <use xlink:href="#DejaVuSans-2e" x="63.623047"/>
       <use xlink:href="#DejaVuSans-30" x="95.410156"/>
      </g>
     </g>
    </g>
    <g id="text_7">
     <!-- Propagation direction -->
     <g transform="translate(168.859219 301.588562)scale(0.1 -0.1)">
      <defs>
       <path id="DejaVuSans-50" d="M 1259 4147 
L 1259 2394 
L 2053 2394 
Q 2494 2394 2734 2622 
Q 2975 2850 2975 3272 
Q 2975 3691 2734 3919 
Q 2494 4147 2053 4147 
L 1259 4147 
z
M 628 4666 
L 2053 4666 
Q 2838 4666 3239 4311 
Q 3641 3956 3641 3272 
Q 3641 2581 3239 2228 
Q 2838 1875 2053 1875 
L 1259 1875 
L 1259 0 
L 628 0 
L 628 4666 
z
" transform="scale(0.015625)"/>
       <path id="DejaVuSans-72" d="M 2631 2963 
Q 2534 3019 2420 3045 
Q 2306 3072 2169 3072 
Q 1681 3072 1420 2755 
Q 1159 2438 1159 1844 
L 1159 0 
L 581 0 
L 581 3500 
L 1159 3500 
L 1159 2956 
Q 1341 3275 1631 3429 
Q 1922 3584 2338 3584 
Q 2397 3584 2469 3576 
Q 2541 3569 2628 3553 
L 2631 2963 
z
" transform="scale(0.015625)"/>
       <path id="DejaVuSans-6f" d="M 1959 3097 
Q 1497 3097 1228 2736 
Q 959 2375 959 1747 
Q 959 1119 1226 758 
Q 1494 397 1959 397 
Q 2419 397 2687 759 
Q 2956 1122 2956 1747 
Q 2956 2369 2687 2733 
Q 2419 3097 1959 3097 
z
M 1959 3584 
Q 2709 3584 3137 3096 
Q 3566 2609 3566 1747 
Q 3566 888 3137 398 
Q 2709 -91 1959 -91 
Q 1206 -91 779 398 
Q 353 888 353 1747 
Q 353 2609 779 3096 
Q 1206 3584 1959 3584 
z
" transform="scale(0.015625)"/>
       <path id="DejaVuSans-70" d="M 1159 525 
L 1159 -1331 
L 581 -1331 
L 581 3500 
L 1159 3500 
L 1159 2969 
Q 1341 3281 1617 3432 
Q 1894 3584 2278 3584 
Q 2916 3584 3314 3078 
Q 3713 2572 3713 1747 
Q 3713 922 3314 415 
Q 2916 -91 2278 -91 
Q 1894 -91 1617 61 
Q 1341 213 1159 525 
z
M 3116 1747 
Q 3116 2381 2855 2742 
Q 2594 3103 2138 3103 
Q 1681 3103 1420 2742 
Q 1159 2381 1159 1747 
Q 1159 1113 1420 752 
Q 1681 391 2138 391 
Q 2594 391 2855 752 
Q 3116 1113 3116 1747 
z
" transform="scale(0.015625)"/>
       <path id="DejaVuSans-61" d="M 2194 1759 
Q 1497 1759 1228 1600 
Q 959 1441 959 1056 
Q 959 750 1161 570 
Q 1363 391 1709 391 
Q 2188 391 2477 730 
Q 2766 1069 2766 1631 
L 2766 1759 
L 2194 1759 
z
M 3341 1997 
L 3341 0 
L 2766 0 
L 2766 531 
Q 2569 213 2275 61 
Q 1981 -91 1556 -91 
Q 1019 -91 701 211 
Q 384 513 384 1019 
Q 384 1609 779 1909 
Q 1175 2209 1959 2209 
L 2766 2209 
L 2766 2266 
Q 2766 2663 2505 2880 
Q 2244 3097 1772 3097 
Q 1472 3097 1187 3025 
Q 903 2953 641 2809 
L 641 3341 
Q 956 3463 1253 3523 
Q 1550 3584 1831 3584 
Q 2591 3584 2966 3190 
Q 3341 2797 3341 1997 
z
" transform="scale(0.015625)"/>
       <path id="DejaVuSans-67" d="M 2906 1791 
Q 2906 2416 2648 2759 
Q 2391 3103 1925 3103 
Q 1463 3103 1205 2759 
Q 947 2416 947 1791 
Q 947 1169 1205 825 
Q 1463 481 1925 481 
Q 2391 481 2648 825 
Q 2906 1169 2906 1791 
z
M 3481 434 
Q 3481 -459 3084 -895 
Q 2688 -1331 1869 -1331 
Q 1566 -1331 1297 -1286 
Q 1028 -1241 775 -1147 
L 775 -588 
Q 1028 -725 1275 -790 
Q 1522 -856 1778 -856 
Q 2344 -856 2625 -561 
Q 2906 -266 2906 331 
L 2906 616 
Q 2728 306 2450 153 
Q 2172 0 1784 0 
Q 1141 0 747 490 
Q 353 981 353 1791 
Q 353 2603 747 3093 
Q 1141 3584 1784 3584 
Q 2172 3584 2450 3431 
Q 2728 3278 2906 2969 
L 2906 3500 
L 3481 3500 
L 3481 434 
z
" transform="scale(0.015625)"/>
       <path id="DejaVuSans-74" d="M 1172 4494 
L 1172 3500 
L 2356 3500 
L 2356 3053 
L 1172 3053 
L 1172 1153 
Q 1172 725 1289 603 
Q 1406 481 1766 481 
L 2356 481 
L 2356 0 
L 1766 0 
Q 1100 0 847 248 
Q 594 497 594 1153 
L 594 3053 
L 172 3053 
L 172 3500 
L 594 3500 
L 594 4494 
L 1172 4494 
z
" transform="scale(0.015625)"/>
       <path id="DejaVuSans-69" d="M 603 3500 
L 1178 3500 
L 1178 0 
L 603 0 
L 603 3500 
z
M 603 4863 
L 1178 4863 
L 1178 4134 
L 603 4134 
L 603 4863 
z
" transform="scale(0.015625)"/>
       <path id="DejaVuSans-6e" d="M 3513 2113 
L 3513 0 
L 2938 0 
L 2938 2094 
Q 2938 2591 2744 2837 
Q 2550 3084 2163 3084 
Q 1697 3084 1428 2787 
Q 1159 2491 1159 1978 
L 1159 0 
L 581 0 
L 581 3500 
L 1159 3500 
L 1159 2956 
Q 1366 3272 1645 3428 
Q 1925 3584 2291 3584 
Q 2894 3584 3203 3211 
Q 3513 2838 3513 2113 
z
" transform="scale(0.015625)"/>
       <path id="DejaVuSans-20" transform="scale(0.015625)"/>
       <path id="DejaVuSans-64" d="M 2906 2969 
L 2906 4863 
L 3481 4863 
L 3481 0 
L 2906 0 
L 2906 525 
Q 2725 213 2448 61 
Q 2172 -91 1784 -91 
Q 1150 -91 751 415 
Q 353 922 353 1747 
Q 353 2572 751 3078 
Q 1150 3584 1784 3584 
Q 2172 3584 2448 3432 
Q 2725 3281 2906 2969 
z
M 947 1747 
Q 947 1113 1208 752 
Q 1469 391 1925 391 
Q 2381 391 2643 752 
Q 2906 1113 2906 1747 
Q 2906 2381 2643 2742 
Q 2381 3103 1925 3103 
Q 1469 3103 1208 2742 
Q 947 2381 947 1747 
z
" transform="scale(0.015625)"/>
       <path id="DejaVuSans-65" d="M 3597 1894 
L 3597 1613 
L 953 1613 
Q 991 1019 1311 708 
Q 1631 397 2203 397 
Q 2534 397 2845 478 
Q 3156 559 3463 722 
L 3463 178 
Q 3153 47 2828 -22 
Q 2503 -91 2169 -91 
Q 1331 -91 842 396 
Q 353 884 353 1716 
Q 353 2575 817 3079 
Q 1281 3584 2069 3584 
Q 2775 3584 3186 3129 
Q 3597 2675 3597 1894 
z
M 3022 2063 
Q 3016 2534 2758 2815 
Q 2500 3097 2075 3097 
Q 1594 3097 1305 2825 
Q 1016 2553 972 2059 
L 3022 2063 
z
" transform="scale(0.015625)"/>
       <path id="DejaVuSans-63" d="M 3122 3366 
L 3122 2828 
Q 2878 2963 2633 3030 
Q 2388 3097 2138 3097 
Q 1578 3097 1268 2742 
Q 959 2388 959 1747 
Q 959 1106 1268 751 
Q 1578 397 2138 397 
Q 2388 397 2633 464 
Q 2878 531 3122 666 
L 3122 134 
Q 2881 22 2623 -34 
Q 2366 -91 2075 -91 
Q 1284 -91 818 406 
Q 353 903 353 1747 
Q 353 2603 823 3093 
Q 1294 3584 2113 3584 
Q 2378 3584 2631 3529 
Q 2884 3475 3122 3366 
z
" transform="scale(0.015625)"/>
      </defs>
      <use xlink:href="#DejaVuSans-50"/>
      <use xlink:href="#DejaVuSans-72" x="58.552734"/>
      <use xlink:href="#DejaVuSans-6f" x="97.416016"/>
      <use xlink:href="#DejaVuSans-70" x="158.597656"/>
      <use xlink:href="#DejaVuSans-61" x="222.074219"/>
      <use xlink:href="#DejaVuSans-67" x="283.353516"/>
      <use xlink:href="#DejaVuSans-61" x="346.830078"/>
      <use xlink:href="#DejaVuSans-74" x="408.109375"/>
      <use xlink:href="#DejaVuSans-69" x="447.318359"/>
      <use xlink:href="#DejaVuSans-6f" x="475.101562"/>
      <use xlink:href="#DejaVuSans-6e" x="536.283203"/>
      <use xlink:href="#DejaVuSans-20" x="599.662109"/>
      <use xlink:href="#DejaVuSans-64" x="631.449219"/>
      <use xlink:href="#DejaVuSans-69" x="694.925781"/>
      <use xlink:href="#DejaVuSans-72" x="722.708984"/>
      <use xlink:href="#DejaVuSans-65" x="761.572266"/>
      <use xlink:href="#DejaVuSans-63" x="823.095703"/>
      <use xlink:href="#DejaVuSans-74" x="878.076172"/>
      <use xlink:href="#DejaVuSans-69" x="917.285156"/>
      <use xlink:href="#DejaVuSans-6f" x="945.068359"/>
      <use xlink:href="#DejaVuSans-6e" x="1006.25"/>
     </g>
    </g>
   </g>
   <g id="matplotlib.axis_2">
    <g id="ytick_1">
     <g id="line2d_7">
      <defs>
       <path id="m977a2727f7" d="M 0 0 
L -3.5 0 
" style="stroke: #000000; stroke-width: 0.8"/>
      </defs>
      <g>
       <use xlink:href="#m977a2727f7" x="43.78125" y="273.312" style="stroke: #000000; stroke-width: 0.8"/>
      </g>
     </g>
     <g id="text_8">
      <!-- 0.0 -->
      <g transform="translate(20.878125 277.111219)scale(0.1 -0.1)">
       <use xlink:href="#DejaVuSans-30"/>
       <use xlink:href="#DejaVuSans-2e" x="63.623047"/>
       <use xlink:href="#DejaVuSans-30" x="95.410156"/>
      </g>
     </g>
    </g>
    <g id="ytick_2">
     <g id="line2d_8">
      <g>
       <use xlink:href="#m977a2727f7" x="43.78125" y="214.86021" style="stroke: #000000; stroke-width: 0.8"/>
      </g>
     </g>
     <g id="text_9">
      <!-- 0.5 -->
      <g transform="translate(20.878125 218.659429)scale(0.1 -0.1)">
       <defs>
        <path id="DejaVuSans-35" d="M 691 4666 
L 3169 4666 
L 3169 4134 
L 1269 4134 
L 1269 2991 
Q 1406 3038 1543 3061 
Q 1681 3084 1819 3084 
Q 2600 3084 3056 2656 
Q 3513 2228 3513 1497 
Q 3513 744 3044 326 
Q 2575 -91 1722 -91 
Q 1428 -91 1123 -41 
Q 819 9 494 109 
L 494 744 
Q 775 591 1075 516 
Q 1375 441 1709 441 
Q 2250 441 2565 725 
Q 2881 1009 2881 1497 
Q 2881 1984 2565 2268 
Q 2250 2553 1709 2553 
Q 1456 2553 1204 2497 
Q 953 2441 691 2322 
L 691 4666 
z
" transform="scale(0.015625)"/>
       </defs>
       <use xlink:href="#DejaVuSans-30"/>
       <use xlink:href="#DejaVuSans-2e" x="63.623047"/>
       <use xlink:href="#DejaVuSans-35" x="95.410156"/>
      </g>
     </g>
    </g>
    <g id="ytick_3">
     <g id="line2d_9">
      <g>
       <use xlink:href="#m977a2727f7" x="43.78125" y="156.408421" style="stroke: #000000; stroke-width: 0.8"/>
      </g>
     </g>
     <g id="text_10">
      <!-- 1.0 -->
      <g transform="translate(20.878125 160.207639)scale(0.1 -0.1)">
       <use xlink:href="#DejaVuSans-31"/>
       <use xlink:href="#DejaVuSans-2e" x="63.623047"/>
       <use xlink:href="#DejaVuSans-30" x="95.410156"/>
      </g>
     </g>
    </g>
    <g id="ytick_4">
     <g id="line2d_10">
      <g>
       <use xlink:href="#m977a2727f7" x="43.78125" y="97.956631" style="stroke: #000000; stroke-width: 0.8"/>
      </g>
     </g>
     <g id="text_11">
      <!-- 1.5 -->
      <g transform="translate(20.878125 101.75585)scale(0.1 -0.1)">
       <use xlink:href="#DejaVuSans-31"/>
       <use xlink:href="#DejaVuSans-2e" x="63.623047"/>
       <use xlink:href="#DejaVuSans-35" x="95.410156"/>
      </g>
     </g>
    </g>
    <g id="ytick_5">
     <g id="line2d_11">
      <g>
       <use xlink:href="#m977a2727f7" x="43.78125" y="39.504841" style="stroke: #000000; stroke-width: 0.8"/>
      </g>
     </g>
     <g id="text_12">
      <!-- 2.0 -->
      <g transform="translate(20.878125 43.30406)scale(0.1 -0.1)">
       <use xlink:href="#DejaVuSans-32"/>
       <use xlink:href="#DejaVuSans-2e" x="63.623047"/>
       <use xlink:href="#DejaVuSans-30" x="95.410156"/>
      </g>
     </g>
    </g>
    <g id="text_13">
     <!-- Probability density -->
     <g transform="translate(14.798438 186.606781)rotate(-90)scale(0.1 -0.1)">
      <defs>
       <path id="DejaVuSans-62" d="M 3116 1747 
Q 3116 2381 2855 2742 
Q 2594 3103 2138 3103 
Q 1681 3103 1420 2742 
Q 1159 2381 1159 1747 
Q 1159 1113 1420 752 
Q 1681 391 2138 391 
Q 2594 391 2855 752 
Q 3116 1113 3116 1747 
z
M 1159 2969 
Q 1341 3281 1617 3432 
Q 1894 3584 2278 3584 
Q 2916 3584 3314 3078 
Q 3713 2572 3713 1747 
Q 3713 922 3314 415 
Q 2916 -91 2278 -91 
Q 1894 -91 1617 61 
Q 1341 213 1159 525 
L 1159 0 
L 581 0 
L 581 4863 
L 1159 4863 
L 1159 2969 
z
" transform="scale(0.015625)"/>
       <path id="DejaVuSans-6c" d="M 603 4863 
L 1178 4863 
L 1178 0 
L 603 0 
L 603 4863 
z
" transform="scale(0.015625)"/>
       <path id="DejaVuSans-79" d="M 2059 -325 
Q 1816 -950 1584 -1140 
Q 1353 -1331 966 -1331 
L 506 -1331 
L 506 -850 
L 844 -850 
Q 1081 -850 1212 -737 
Q 1344 -625 1503 -206 
L 1606 56 
L 191 3500 
L 800 3500 
L 1894 763 
L 2988 3500 
L 3597 3500 
L 2059 -325 
z
" transform="scale(0.015625)"/>
       <path id="DejaVuSans-73" d="M 2834 3397 
L 2834 2853 
Q 2591 2978 2328 3040 
Q 2066 3103 1784 3103 
Q 1356 3103 1142 2972 
Q 928 2841 928 2578 
Q 928 2378 1081 2264 
Q 1234 2150 1697 2047 
L 1894 2003 
Q 2506 1872 2764 1633 
Q 3022 1394 3022 966 
Q 3022 478 2636 193 
Q 2250 -91 1575 -91 
Q 1294 -91 989 -36 
Q 684 19 347 128 
L 347 722 
Q 666 556 975 473 
Q 1284 391 1588 391 
Q 1994 391 2212 530 
Q 2431 669 2431 922 
Q 2431 1156 2273 1281 
Q 2116 1406 1581 1522 
L 1381 1569 
Q 847 1681 609 1914 
Q 372 2147 372 2553 
Q 372 3047 722 3315 
Q 1072 3584 1716 3584 
Q 2034 3584 2315 3537 
Q 2597 3491 2834 3397 
z
" transform="scale(0.015625)"/>
      </defs>
      <use xlink:href="#DejaVuSans-50"/>
      <use xlink:href="#DejaVuSans-72" x="58.552734"/>
      <use xlink:href="#DejaVuSans-6f" x="97.416016"/>
      <use xlink:href="#DejaVuSans-62" x="158.597656"/>
      <use xlink:href="#DejaVuSans-61" x="222.074219"/>
      <use xlink:href="#DejaVuSans-62" x="283.353516"/>
      <use xlink:href="#DejaVuSans-69" x="346.830078"/>
      <use xlink:href="#DejaVuSans-6c" x="374.613281"/>
      <use xlink:href="#DejaVuSans-69" x="402.396484"/>
      <use xlink:href="#DejaVuSans-74" x="430.179688"/>
      <use xlink:href="#DejaVuSans-79" x="469.388672"/>
      <use xlink:href="#DejaVuSans-20" x="528.568359"/>
      <use xlink:href="#DejaVuSans-64" x="560.355469"/>
      <use xlink:href="#DejaVuSans-65" x="623.832031"/>
      <use xlink:href="#DejaVuSans-6e" x="685.355469"/>
      <use xlink:href="#DejaVuSans-73" x="748.734375"/>
      <use xlink:href="#DejaVuSans-69" x="800.833984"/>
      <use xlink:href="#DejaVuSans-74" x="828.617188"/>
      <use xlink:href="#DejaVuSans-79" x="867.826172"/>
     </g>
    </g>
   </g>
   <g id="line2d_12">
    <path d="M 60.013977 273.312 
L 384.668523 39.504841 
L 384.668523 39.504841 
" clip-path="url(#p0d4e4b5e54)" style="fill: none; stroke: #ff7f0e; stroke-width: 1.5; stroke-linecap: square"/>
   </g>
   <g id="patch_203">
    <path d="M 43.78125 273.312 
L 43.78125 7.2 
" style="fill: none; stroke: #000000; stroke-width: 0.8; stroke-linejoin: miter; stroke-linecap: square"/>
   </g>
   <g id="patch_204">
    <path d="M 400.90125 273.312 
L 400.90125 7.2 
" style="fill: none; stroke: #000000; stroke-width: 0.8; stroke-linejoin: miter; stroke-linecap: square"/>
   </g>
   <g id="patch_205">
    <path d="M 43.78125 273.312 
L 400.90125 273.312 
" style="fill: none; stroke: #000000; stroke-width: 0.8; stroke-linejoin: miter; stroke-linecap: square"/>
   </g>
   <g id="patch_206">
    <path d="M 43.78125 7.2 
L 400.90125 7.2 
" style="fill: none; stroke: #000000; stroke-width: 0.8; stroke-linejoin: miter; stroke-linecap: square"/>
   </g>
  </g>
 </g>
 <defs>
  <clipPath id="p0d4e4b5e54">
   <rect x="43.78125" y="7.2" width="357.12" height="266.112"/>
  </clipPath>
 </defs>
</svg>
