<?xml version="1.0" encoding="utf-8" standalone="no"?>
<!DOCTYPE svg PUBLIC "-//W3C//DTD SVG 1.1//EN"
  "http://www.w3.org/Graphics/SVG/1.1/DTD/svg11.dtd">
<svg xmlns:xlink="http://www.w3.org/1999/xlink" width="408.10125pt" height="310.86825pt" viewBox="0 0 408.10125 310.86825" xmlns="http://www.w3.org/2000/svg" version="1.1">
 <metadata>
  <rdf:RDF xmlns:dc="http://purl.org/dc/elements/1.1/" xmlns:cc="http://creativecommons.org/ns#" xmlns:rdf="http://www.w3.org/1999/02/22-rdf-syntax-ns#">
   <cc:Work>
    <dc:type rdf:resource="http://purl.org/dc/dcmitype/StillImage"/>
    <dc:date>2022-05-16T21:09:24.265867</dc:date>
    <dc:format>image/svg+xml</dc:format>
    <dc:creator>
     <cc:Agent>
      <dc:title>Matplotlib v3.5.2, https://matplotlib.org/</dc:title>
     </cc:Agent>
    </dc:creator>
   </cc:Work>
  </rdf:RDF>
 </metadata>
 <defs>
  <style type="text/css">*{stroke-linejoin: round; stroke-linecap: butt}</style>
 </defs>
 <g id="figure_1">
  <g id="patch_1">
   <path d="M 0 310.86825 
L 408.10125 310.86825 
L 408.10125 0 
L 0 0 
z
" style="fill: #ffffff"/>
  </g>
  <g id="axes_1">
   <g id="patch_2">
    <path d="M 43.78125 273.312 
L 400.90125 273.312 
L 400.90125 7.2 
L 43.78125 7.2 
z
" style="fill: #ffffff"/>
   </g>
   <g id="patch_3">
    <path d="M 60.59719 273.312 
L 62.216149 273.312 
L 62.216149 271.114543 
L 60.59719 271.114543 
z
" clip-path="url(#p4149274c76)" style="fill: #1f77b4"/>
   </g>
   <g id="patch_4">
    <path d="M 62.216149 273.312 
L 63.835108 273.312 
L 63.835108 265.254659 
L 62.216149 265.254659 
z
" clip-path="url(#p4149274c76)" style="fill: #1f77b4"/>
   </g>
   <g id="patch_5">
    <path d="M 63.835108 273.312 
L 65.454068 273.312 
L 65.454068 265.254659 
L 63.835108 265.254659 
z
" clip-path="url(#p4149274c76)" style="fill: #1f77b4"/>
   </g>
   <g id="patch_6">
    <path d="M 65.454068 273.312 
L 67.073027 273.312 
L 67.073027 254.999861 
L 65.454068 254.999861 
z
" clip-path="url(#p4149274c76)" style="fill: #1f77b4"/>
   </g>
   <g id="patch_7">
    <path d="M 67.073027 273.312 
L 68.691986 273.312 
L 68.691986 260.12726 
L 67.073027 260.12726 
z
" clip-path="url(#p4149274c76)" style="fill: #1f77b4"/>
   </g>
   <g id="patch_8">
    <path d="M 68.691986 273.312 
L 70.310945 273.312 
L 70.310945 251.337434 
L 68.691986 251.337434 
z
" clip-path="url(#p4149274c76)" style="fill: #1f77b4"/>
   </g>
   <g id="patch_9">
    <path d="M 70.310945 273.312 
L 71.929904 273.312 
L 71.929904 252.069919 
L 70.310945 252.069919 
z
" clip-path="url(#p4149274c76)" style="fill: #1f77b4"/>
   </g>
   <g id="patch_10">
    <path d="M 71.929904 273.312 
L 73.548863 273.312 
L 73.548863 244.745064 
L 71.929904 244.745064 
z
" clip-path="url(#p4149274c76)" style="fill: #1f77b4"/>
   </g>
   <g id="patch_11">
    <path d="M 73.548863 273.312 
L 75.167822 273.312 
L 75.167822 238.885179 
L 73.548863 238.885179 
z
" clip-path="url(#p4149274c76)" style="fill: #1f77b4"/>
   </g>
   <g id="patch_12">
    <path d="M 75.167822 273.312 
L 76.786781 273.312 
L 76.786781 233.025295 
L 75.167822 233.025295 
z
" clip-path="url(#p4149274c76)" style="fill: #1f77b4"/>
   </g>
   <g id="patch_13">
    <path d="M 76.786781 273.312 
L 78.405741 273.312 
L 78.405741 244.012578 
L 76.786781 244.012578 
z
" clip-path="url(#p4149274c76)" style="fill: #1f77b4"/>
   </g>
   <g id="patch_14">
    <path d="M 78.405741 273.312 
L 80.0247 273.312 
L 80.0247 230.827838 
L 78.405741 230.827838 
z
" clip-path="url(#p4149274c76)" style="fill: #1f77b4"/>
   </g>
   <g id="patch_15">
    <path d="M 80.0247 273.312 
L 81.643659 273.312 
L 81.643659 227.897896 
L 80.0247 227.897896 
z
" clip-path="url(#p4149274c76)" style="fill: #1f77b4"/>
   </g>
   <g id="patch_16">
    <path d="M 81.643659 273.312 
L 83.262618 273.312 
L 83.262618 224.235468 
L 81.643659 224.235468 
z
" clip-path="url(#p4149274c76)" style="fill: #1f77b4"/>
   </g>
   <g id="patch_17">
    <path d="M 83.262618 273.312 
L 84.881577 273.312 
L 84.881577 209.585757 
L 83.262618 209.585757 
z
" clip-path="url(#p4149274c76)" style="fill: #1f77b4"/>
   </g>
   <g id="patch_18">
    <path d="M 84.881577 273.312 
L 86.500536 273.312 
L 86.500536 219.108069 
L 84.881577 219.108069 
z
" clip-path="url(#p4149274c76)" style="fill: #1f77b4"/>
   </g>
   <g id="patch_19">
    <path d="M 86.500536 273.312 
L 88.119495 273.312 
L 88.119495 217.643098 
L 86.500536 217.643098 
z
" clip-path="url(#p4149274c76)" style="fill: #1f77b4"/>
   </g>
   <g id="patch_20">
    <path d="M 88.119495 273.312 
L 89.738454 273.312 
L 89.738454 211.783214 
L 88.119495 211.783214 
z
" clip-path="url(#p4149274c76)" style="fill: #1f77b4"/>
   </g>
   <g id="patch_21">
    <path d="M 89.738454 273.312 
L 91.357414 273.312 
L 91.357414 201.528416 
L 89.738454 201.528416 
z
" clip-path="url(#p4149274c76)" style="fill: #1f77b4"/>
   </g>
   <g id="patch_22">
    <path d="M 91.357414 273.312 
L 92.976373 273.312 
L 92.976373 219.108069 
L 91.357414 219.108069 
z
" clip-path="url(#p4149274c76)" style="fill: #1f77b4"/>
   </g>
   <g id="patch_23">
    <path d="M 92.976373 273.312 
L 94.595332 273.312 
L 94.595332 200.063445 
L 92.976373 200.063445 
z
" clip-path="url(#p4149274c76)" style="fill: #1f77b4"/>
   </g>
   <g id="patch_24">
    <path d="M 94.595332 273.312 
L 96.214291 273.312 
L 96.214291 205.923329 
L 94.595332 205.923329 
z
" clip-path="url(#p4149274c76)" style="fill: #1f77b4"/>
   </g>
   <g id="patch_25">
    <path d="M 96.214291 273.312 
L 97.83325 273.312 
L 97.83325 182.483792 
L 96.214291 182.483792 
z
" clip-path="url(#p4149274c76)" style="fill: #1f77b4"/>
   </g>
   <g id="patch_26">
    <path d="M 97.83325 273.312 
L 99.452209 273.312 
L 99.452209 181.018821 
L 97.83325 181.018821 
z
" clip-path="url(#p4149274c76)" style="fill: #1f77b4"/>
   </g>
   <g id="patch_27">
    <path d="M 99.452209 273.312 
L 101.071168 273.312 
L 101.071168 185.413734 
L 99.452209 185.413734 
z
" clip-path="url(#p4149274c76)" style="fill: #1f77b4"/>
   </g>
   <g id="patch_28">
    <path d="M 101.071168 273.312 
L 102.690127 273.312 
L 102.690127 184.681249 
L 101.071168 184.681249 
z
" clip-path="url(#p4149274c76)" style="fill: #1f77b4"/>
   </g>
   <g id="patch_29">
    <path d="M 102.690127 273.312 
L 104.309087 273.312 
L 104.309087 188.343676 
L 102.690127 188.343676 
z
" clip-path="url(#p4149274c76)" style="fill: #1f77b4"/>
   </g>
   <g id="patch_30">
    <path d="M 104.309087 273.312 
L 105.928046 273.312 
L 105.928046 175.158936 
L 104.309087 175.158936 
z
" clip-path="url(#p4149274c76)" style="fill: #1f77b4"/>
   </g>
   <g id="patch_31">
    <path d="M 105.928046 273.312 
L 107.547005 273.312 
L 107.547005 151.719399 
L 105.928046 151.719399 
z
" clip-path="url(#p4149274c76)" style="fill: #1f77b4"/>
   </g>
   <g id="patch_32">
    <path d="M 107.547005 273.312 
L 109.165964 273.312 
L 109.165964 166.36911 
L 107.547005 166.36911 
z
" clip-path="url(#p4149274c76)" style="fill: #1f77b4"/>
   </g>
   <g id="patch_33">
    <path d="M 109.165964 273.312 
L 110.784923 273.312 
L 110.784923 148.789457 
L 109.165964 148.789457 
z
" clip-path="url(#p4149274c76)" style="fill: #1f77b4"/>
   </g>
   <g id="patch_34">
    <path d="M 110.784923 273.312 
L 112.403882 273.312 
L 112.403882 172.96148 
L 110.784923 172.96148 
z
" clip-path="url(#p4149274c76)" style="fill: #1f77b4"/>
   </g>
   <g id="patch_35">
    <path d="M 112.403882 273.312 
L 114.022841 273.312 
L 114.022841 156.846798 
L 112.403882 156.846798 
z
" clip-path="url(#p4149274c76)" style="fill: #1f77b4"/>
   </g>
   <g id="patch_36">
    <path d="M 114.022841 273.312 
L 115.6418 273.312 
L 115.6418 173.693965 
L 114.022841 173.693965 
z
" clip-path="url(#p4149274c76)" style="fill: #1f77b4"/>
   </g>
   <g id="patch_37">
    <path d="M 115.6418 273.312 
L 117.26076 273.312 
L 117.26076 153.18437 
L 115.6418 153.18437 
z
" clip-path="url(#p4149274c76)" style="fill: #1f77b4"/>
   </g>
   <g id="patch_38">
    <path d="M 117.26076 273.312 
L 118.879719 273.312 
L 118.879719 139.99963 
L 117.26076 139.99963 
z
" clip-path="url(#p4149274c76)" style="fill: #1f77b4"/>
   </g>
   <g id="patch_39">
    <path d="M 118.879719 273.312 
L 120.498678 273.312 
L 120.498678 151.719399 
L 118.879719 151.719399 
z
" clip-path="url(#p4149274c76)" style="fill: #1f77b4"/>
   </g>
   <g id="patch_40">
    <path d="M 120.498678 273.312 
L 122.117637 273.312 
L 122.117637 166.36911 
L 120.498678 166.36911 
z
" clip-path="url(#p4149274c76)" style="fill: #1f77b4"/>
   </g>
   <g id="patch_41">
    <path d="M 122.117637 273.312 
L 123.736596 273.312 
L 123.736596 150.254428 
L 122.117637 150.254428 
z
" clip-path="url(#p4149274c76)" style="fill: #1f77b4"/>
   </g>
   <g id="patch_42">
    <path d="M 123.736596 273.312 
L 125.355555 273.312 
L 125.355555 124.617434 
L 123.736596 124.617434 
z
" clip-path="url(#p4149274c76)" style="fill: #1f77b4"/>
   </g>
   <g id="patch_43">
    <path d="M 125.355555 273.312 
L 126.974514 273.312 
L 126.974514 147.324486 
L 125.355555 147.324486 
z
" clip-path="url(#p4149274c76)" style="fill: #1f77b4"/>
   </g>
   <g id="patch_44">
    <path d="M 126.974514 273.312 
L 128.593473 273.312 
L 128.593473 134.139746 
L 126.974514 134.139746 
z
" clip-path="url(#p4149274c76)" style="fill: #1f77b4"/>
   </g>
   <g id="patch_45">
    <path d="M 128.593473 273.312 
L 130.212433 273.312 
L 130.212433 134.139746 
L 128.593473 134.139746 
z
" clip-path="url(#p4149274c76)" style="fill: #1f77b4"/>
   </g>
   <g id="patch_46">
    <path d="M 130.212433 273.312 
L 131.831392 273.312 
L 131.831392 121.687491 
L 130.212433 121.687491 
z
" clip-path="url(#p4149274c76)" style="fill: #1f77b4"/>
   </g>
   <g id="patch_47">
    <path d="M 131.831392 273.312 
L 133.450351 273.312 
L 133.450351 112.897665 
L 131.831392 112.897665 
z
" clip-path="url(#p4149274c76)" style="fill: #1f77b4"/>
   </g>
   <g id="patch_48">
    <path d="M 133.450351 273.312 
L 135.06931 273.312 
L 135.06931 113.63015 
L 133.450351 113.63015 
z
" clip-path="url(#p4149274c76)" style="fill: #1f77b4"/>
   </g>
   <g id="patch_49">
    <path d="M 135.06931 273.312 
L 136.688269 273.312 
L 136.688269 131.942289 
L 135.06931 131.942289 
z
" clip-path="url(#p4149274c76)" style="fill: #1f77b4"/>
   </g>
   <g id="patch_50">
    <path d="M 136.688269 273.312 
L 138.307228 273.312 
L 138.307228 118.025064 
L 136.688269 118.025064 
z
" clip-path="url(#p4149274c76)" style="fill: #1f77b4"/>
   </g>
   <g id="patch_51">
    <path d="M 138.307228 273.312 
L 139.926187 273.312 
L 139.926187 107.03778 
L 138.307228 107.03778 
z
" clip-path="url(#p4149274c76)" style="fill: #1f77b4"/>
   </g>
   <g id="patch_52">
    <path d="M 139.926187 273.312 
L 141.545146 273.312 
L 141.545146 98.247954 
L 139.926187 98.247954 
z
" clip-path="url(#p4149274c76)" style="fill: #1f77b4"/>
   </g>
   <g id="patch_53">
    <path d="M 141.545146 273.312 
L 143.164106 273.312 
L 143.164106 109.967723 
L 141.545146 109.967723 
z
" clip-path="url(#p4149274c76)" style="fill: #1f77b4"/>
   </g>
   <g id="patch_54">
    <path d="M 143.164106 273.312 
L 144.783065 273.312 
L 144.783065 98.247954 
L 143.164106 98.247954 
z
" clip-path="url(#p4149274c76)" style="fill: #1f77b4"/>
   </g>
   <g id="patch_55">
    <path d="M 144.783065 273.312 
L 146.402024 273.312 
L 146.402024 92.388069 
L 144.783065 92.388069 
z
" clip-path="url(#p4149274c76)" style="fill: #1f77b4"/>
   </g>
   <g id="patch_56">
    <path d="M 146.402024 273.312 
L 148.020983 273.312 
L 148.020983 101.910382 
L 146.402024 101.910382 
z
" clip-path="url(#p4149274c76)" style="fill: #1f77b4"/>
   </g>
   <g id="patch_57">
    <path d="M 148.020983 273.312 
L 149.639942 273.312 
L 149.639942 116.560092 
L 148.020983 116.560092 
z
" clip-path="url(#p4149274c76)" style="fill: #1f77b4"/>
   </g>
   <g id="patch_58">
    <path d="M 149.639942 273.312 
L 151.258901 273.312 
L 151.258901 121.687491 
L 149.639942 121.687491 
z
" clip-path="url(#p4149274c76)" style="fill: #1f77b4"/>
   </g>
   <g id="patch_59">
    <path d="M 151.258901 273.312 
L 152.87786 273.312 
L 152.87786 83.598243 
L 151.258901 83.598243 
z
" clip-path="url(#p4149274c76)" style="fill: #1f77b4"/>
   </g>
   <g id="patch_60">
    <path d="M 152.87786 273.312 
L 154.496819 273.312 
L 154.496819 104.107838 
L 152.87786 104.107838 
z
" clip-path="url(#p4149274c76)" style="fill: #1f77b4"/>
   </g>
   <g id="patch_61">
    <path d="M 154.496819 273.312 
L 156.115779 273.312 
L 156.115779 78.470844 
L 154.496819 78.470844 
z
" clip-path="url(#p4149274c76)" style="fill: #1f77b4"/>
   </g>
   <g id="patch_62">
    <path d="M 156.115779 273.312 
L 157.734738 273.312 
L 157.734738 63.821133 
L 156.115779 63.821133 
z
" clip-path="url(#p4149274c76)" style="fill: #1f77b4"/>
   </g>
   <g id="patch_63">
    <path d="M 157.734738 273.312 
L 159.353697 273.312 
L 159.353697 89.458127 
L 157.734738 89.458127 
z
" clip-path="url(#p4149274c76)" style="fill: #1f77b4"/>
   </g>
   <g id="patch_64">
    <path d="M 159.353697 273.312 
L 160.972656 273.312 
L 160.972656 83.598243 
L 159.353697 83.598243 
z
" clip-path="url(#p4149274c76)" style="fill: #1f77b4"/>
   </g>
   <g id="patch_65">
    <path d="M 160.972656 273.312 
L 162.591615 273.312 
L 162.591615 100.44541 
L 160.972656 100.44541 
z
" clip-path="url(#p4149274c76)" style="fill: #1f77b4"/>
   </g>
   <g id="patch_66">
    <path d="M 162.591615 273.312 
L 164.210574 273.312 
L 164.210574 77.005873 
L 162.591615 77.005873 
z
" clip-path="url(#p4149274c76)" style="fill: #1f77b4"/>
   </g>
   <g id="patch_67">
    <path d="M 164.210574 273.312 
L 165.829533 273.312 
L 165.829533 77.738358 
L 164.210574 77.738358 
z
" clip-path="url(#p4149274c76)" style="fill: #1f77b4"/>
   </g>
   <g id="patch_68">
    <path d="M 165.829533 273.312 
L 167.448492 273.312 
L 167.448492 73.343445 
L 165.829533 73.343445 
z
" clip-path="url(#p4149274c76)" style="fill: #1f77b4"/>
   </g>
   <g id="patch_69">
    <path d="M 167.448492 273.312 
L 169.067452 273.312 
L 169.067452 74.075931 
L 167.448492 74.075931 
z
" clip-path="url(#p4149274c76)" style="fill: #1f77b4"/>
   </g>
   <g id="patch_70">
    <path d="M 169.067452 273.312 
L 170.686411 273.312 
L 170.686411 67.483561 
L 169.067452 67.483561 
z
" clip-path="url(#p4149274c76)" style="fill: #1f77b4"/>
   </g>
   <g id="patch_71">
    <path d="M 170.686411 273.312 
L 172.30537 273.312 
L 172.30537 77.005873 
L 170.686411 77.005873 
z
" clip-path="url(#p4149274c76)" style="fill: #1f77b4"/>
   </g>
   <g id="patch_72">
    <path d="M 172.30537 273.312 
L 173.924329 273.312 
L 173.924329 65.286104 
L 172.30537 65.286104 
z
" clip-path="url(#p4149274c76)" style="fill: #1f77b4"/>
   </g>
   <g id="patch_73">
    <path d="M 173.924329 273.312 
L 175.543288 273.312 
L 175.543288 64.553618 
L 173.924329 64.553618 
z
" clip-path="url(#p4149274c76)" style="fill: #1f77b4"/>
   </g>
   <g id="patch_74">
    <path d="M 175.543288 273.312 
L 177.162247 273.312 
L 177.162247 76.273387 
L 175.543288 76.273387 
z
" clip-path="url(#p4149274c76)" style="fill: #1f77b4"/>
   </g>
   <g id="patch_75">
    <path d="M 177.162247 273.312 
L 178.781206 273.312 
L 178.781206 71.145988 
L 177.162247 71.145988 
z
" clip-path="url(#p4149274c76)" style="fill: #1f77b4"/>
   </g>
   <g id="patch_76">
    <path d="M 178.781206 273.312 
L 180.400165 273.312 
L 180.400165 62.356162 
L 178.781206 62.356162 
z
" clip-path="url(#p4149274c76)" style="fill: #1f77b4"/>
   </g>
   <g id="patch_77">
    <path d="M 180.400165 273.312 
L 182.019125 273.312 
L 182.019125 81.400786 
L 180.400165 81.400786 
z
" clip-path="url(#p4149274c76)" style="fill: #1f77b4"/>
   </g>
   <g id="patch_78">
    <path d="M 182.019125 273.312 
L 183.638084 273.312 
L 183.638084 60.158705 
L 182.019125 60.158705 
z
" clip-path="url(#p4149274c76)" style="fill: #1f77b4"/>
   </g>
   <g id="patch_79">
    <path d="M 183.638084 273.312 
L 185.257043 273.312 
L 185.257043 54.298821 
L 183.638084 54.298821 
z
" clip-path="url(#p4149274c76)" style="fill: #1f77b4"/>
   </g>
   <g id="patch_80">
    <path d="M 185.257043 273.312 
L 186.876002 273.312 
L 186.876002 39.64911 
L 185.257043 39.64911 
z
" clip-path="url(#p4149274c76)" style="fill: #1f77b4"/>
   </g>
   <g id="patch_81">
    <path d="M 186.876002 273.312 
L 188.494961 273.312 
L 188.494961 49.171422 
L 186.876002 49.171422 
z
" clip-path="url(#p4149274c76)" style="fill: #1f77b4"/>
   </g>
   <g id="patch_82">
    <path d="M 188.494961 273.312 
L 190.11392 273.312 
L 190.11392 51.368879 
L 188.494961 51.368879 
z
" clip-path="url(#p4149274c76)" style="fill: #1f77b4"/>
   </g>
   <g id="patch_83">
    <path d="M 190.11392 273.312 
L 191.732879 273.312 
L 191.732879 66.751075 
L 190.11392 66.751075 
z
" clip-path="url(#p4149274c76)" style="fill: #1f77b4"/>
   </g>
   <g id="patch_84">
    <path d="M 191.732879 273.312 
L 193.351838 273.312 
L 193.351838 63.088647 
L 191.732879 63.088647 
z
" clip-path="url(#p4149274c76)" style="fill: #1f77b4"/>
   </g>
   <g id="patch_85">
    <path d="M 193.351838 273.312 
L 194.970798 273.312 
L 194.970798 64.553618 
L 193.351838 64.553618 
z
" clip-path="url(#p4149274c76)" style="fill: #1f77b4"/>
   </g>
   <g id="patch_86">
    <path d="M 194.970798 273.312 
L 196.589757 273.312 
L 196.589757 62.356162 
L 194.970798 62.356162 
z
" clip-path="url(#p4149274c76)" style="fill: #1f77b4"/>
   </g>
   <g id="patch_87">
    <path d="M 196.589757 273.312 
L 198.208716 273.312 
L 198.208716 30.126798 
L 196.589757 30.126798 
z
" clip-path="url(#p4149274c76)" style="fill: #1f77b4"/>
   </g>
   <g id="patch_88">
    <path d="M 198.208716 273.312 
L 199.827675 273.312 
L 199.827675 48.438936 
L 198.208716 48.438936 
z
" clip-path="url(#p4149274c76)" style="fill: #1f77b4"/>
   </g>
   <g id="patch_89">
    <path d="M 199.827675 273.312 
L 201.446634 273.312 
L 201.446634 65.286104 
L 199.827675 65.286104 
z
" clip-path="url(#p4149274c76)" style="fill: #1f77b4"/>
   </g>
   <g id="patch_90">
    <path d="M 201.446634 273.312 
L 203.065593 273.312 
L 203.065593 19.872 
L 201.446634 19.872 
z
" clip-path="url(#p4149274c76)" style="fill: #1f77b4"/>
   </g>
   <g id="patch_91">
    <path d="M 203.065593 273.312 
L 204.684552 273.312 
L 204.684552 47.706451 
L 203.065593 47.706451 
z
" clip-path="url(#p4149274c76)" style="fill: #1f77b4"/>
   </g>
   <g id="patch_92">
    <path d="M 204.684552 273.312 
L 206.303511 273.312 
L 206.303511 54.298821 
L 204.684552 54.298821 
z
" clip-path="url(#p4149274c76)" style="fill: #1f77b4"/>
   </g>
   <g id="patch_93">
    <path d="M 206.303511 273.312 
L 207.922471 273.312 
L 207.922471 44.044023 
L 206.303511 44.044023 
z
" clip-path="url(#p4149274c76)" style="fill: #1f77b4"/>
   </g>
   <g id="patch_94">
    <path d="M 207.922471 273.312 
L 209.54143 273.312 
L 209.54143 30.859283 
L 207.922471 30.859283 
z
" clip-path="url(#p4149274c76)" style="fill: #1f77b4"/>
   </g>
   <g id="patch_95">
    <path d="M 209.54143 273.312 
L 211.160389 273.312 
L 211.160389 66.751075 
L 209.54143 66.751075 
z
" clip-path="url(#p4149274c76)" style="fill: #1f77b4"/>
   </g>
   <g id="patch_96">
    <path d="M 211.160389 273.312 
L 212.779348 273.312 
L 212.779348 46.24148 
L 211.160389 46.24148 
z
" clip-path="url(#p4149274c76)" style="fill: #1f77b4"/>
   </g>
   <g id="patch_97">
    <path d="M 212.779348 273.312 
L 214.398307 273.312 
L 214.398307 40.381595 
L 212.779348 40.381595 
z
" clip-path="url(#p4149274c76)" style="fill: #1f77b4"/>
   </g>
   <g id="patch_98">
    <path d="M 214.398307 273.312 
L 216.017266 273.312 
L 216.017266 30.859283 
L 214.398307 30.859283 
z
" clip-path="url(#p4149274c76)" style="fill: #1f77b4"/>
   </g>
   <g id="patch_99">
    <path d="M 216.017266 273.312 
L 217.636225 273.312 
L 217.636225 22.801942 
L 216.017266 22.801942 
z
" clip-path="url(#p4149274c76)" style="fill: #1f77b4"/>
   </g>
   <g id="patch_100">
    <path d="M 217.636225 273.312 
L 219.255184 273.312 
L 219.255184 54.298821 
L 217.636225 54.298821 
z
" clip-path="url(#p4149274c76)" style="fill: #1f77b4"/>
   </g>
   <g id="patch_101">
    <path d="M 219.255184 273.312 
L 220.874144 273.312 
L 220.874144 33.05674 
L 219.255184 33.05674 
z
" clip-path="url(#p4149274c76)" style="fill: #1f77b4"/>
   </g>
   <g id="patch_102">
    <path d="M 220.874144 273.312 
L 222.493103 273.312 
L 222.493103 49.171422 
L 220.874144 49.171422 
z
" clip-path="url(#p4149274c76)" style="fill: #1f77b4"/>
   </g>
   <g id="patch_103">
    <path d="M 222.493103 273.312 
L 224.112062 273.312 
L 224.112062 40.381595 
L 222.493103 40.381595 
z
" clip-path="url(#p4149274c76)" style="fill: #1f77b4"/>
   </g>
   <g id="patch_104">
    <path d="M 224.112062 273.312 
L 225.731021 273.312 
L 225.731021 27.929341 
L 224.112062 27.929341 
z
" clip-path="url(#p4149274c76)" style="fill: #1f77b4"/>
   </g>
   <g id="patch_105">
    <path d="M 225.731021 273.312 
L 227.34998 273.312 
L 227.34998 45.508994 
L 225.731021 45.508994 
z
" clip-path="url(#p4149274c76)" style="fill: #1f77b4"/>
   </g>
   <g id="patch_106">
    <path d="M 227.34998 273.312 
L 228.968939 273.312 
L 228.968939 41.846566 
L 227.34998 41.846566 
z
" clip-path="url(#p4149274c76)" style="fill: #1f77b4"/>
   </g>
   <g id="patch_107">
    <path d="M 228.968939 273.312 
L 230.587898 273.312 
L 230.587898 70.413503 
L 228.968939 70.413503 
z
" clip-path="url(#p4149274c76)" style="fill: #1f77b4"/>
   </g>
   <g id="patch_108">
    <path d="M 230.587898 273.312 
L 232.206857 273.312 
L 232.206857 46.24148 
L 230.587898 46.24148 
z
" clip-path="url(#p4149274c76)" style="fill: #1f77b4"/>
   </g>
   <g id="patch_109">
    <path d="M 232.206857 273.312 
L 233.825817 273.312 
L 233.825817 50.636393 
L 232.206857 50.636393 
z
" clip-path="url(#p4149274c76)" style="fill: #1f77b4"/>
   </g>
   <g id="patch_110">
    <path d="M 233.825817 273.312 
L 235.444776 273.312 
L 235.444776 67.483561 
L 233.825817 67.483561 
z
" clip-path="url(#p4149274c76)" style="fill: #1f77b4"/>
   </g>
   <g id="patch_111">
    <path d="M 235.444776 273.312 
L 237.063735 273.312 
L 237.063735 21.336971 
L 235.444776 21.336971 
z
" clip-path="url(#p4149274c76)" style="fill: #1f77b4"/>
   </g>
   <g id="patch_112">
    <path d="M 237.063735 273.312 
L 238.682694 273.312 
L 238.682694 44.776509 
L 237.063735 44.776509 
z
" clip-path="url(#p4149274c76)" style="fill: #1f77b4"/>
   </g>
   <g id="patch_113">
    <path d="M 238.682694 273.312 
L 240.301653 273.312 
L 240.301653 27.196855 
L 238.682694 27.196855 
z
" clip-path="url(#p4149274c76)" style="fill: #1f77b4"/>
   </g>
   <g id="patch_114">
    <path d="M 240.301653 273.312 
L 241.920612 273.312 
L 241.920612 45.508994 
L 240.301653 45.508994 
z
" clip-path="url(#p4149274c76)" style="fill: #1f77b4"/>
   </g>
   <g id="patch_115">
    <path d="M 241.920612 273.312 
L 243.539571 273.312 
L 243.539571 55.031306 
L 241.920612 55.031306 
z
" clip-path="url(#p4149274c76)" style="fill: #1f77b4"/>
   </g>
   <g id="patch_116">
    <path d="M 243.539571 273.312 
L 245.15853 273.312 
L 245.15853 67.483561 
L 243.539571 67.483561 
z
" clip-path="url(#p4149274c76)" style="fill: #1f77b4"/>
   </g>
   <g id="patch_117">
    <path d="M 245.15853 273.312 
L 246.77749 273.312 
L 246.77749 43.311538 
L 245.15853 43.311538 
z
" clip-path="url(#p4149274c76)" style="fill: #1f77b4"/>
   </g>
   <g id="patch_118">
    <path d="M 246.77749 273.312 
L 248.396449 273.312 
L 248.396449 82.865757 
L 246.77749 82.865757 
z
" clip-path="url(#p4149274c76)" style="fill: #1f77b4"/>
   </g>
   <g id="patch_119">
    <path d="M 248.396449 273.312 
L 250.015408 273.312 
L 250.015408 24.266913 
L 248.396449 24.266913 
z
" clip-path="url(#p4149274c76)" style="fill: #1f77b4"/>
   </g>
   <g id="patch_120">
    <path d="M 250.015408 273.312 
L 251.634367 273.312 
L 251.634367 38.916624 
L 250.015408 38.916624 
z
" clip-path="url(#p4149274c76)" style="fill: #1f77b4"/>
   </g>
   <g id="patch_121">
    <path d="M 251.634367 273.312 
L 253.253326 273.312 
L 253.253326 45.508994 
L 251.634367 45.508994 
z
" clip-path="url(#p4149274c76)" style="fill: #1f77b4"/>
   </g>
   <g id="patch_122">
    <path d="M 253.253326 273.312 
L 254.872285 273.312 
L 254.872285 56.496277 
L 253.253326 56.496277 
z
" clip-path="url(#p4149274c76)" style="fill: #1f77b4"/>
   </g>
   <g id="patch_123">
    <path d="M 254.872285 273.312 
L 256.491244 273.312 
L 256.491244 86.528185 
L 254.872285 86.528185 
z
" clip-path="url(#p4149274c76)" style="fill: #1f77b4"/>
   </g>
   <g id="patch_124">
    <path d="M 256.491244 273.312 
L 258.110204 273.312 
L 258.110204 40.381595 
L 256.491244 40.381595 
z
" clip-path="url(#p4149274c76)" style="fill: #1f77b4"/>
   </g>
   <g id="patch_125">
    <path d="M 258.110204 273.312 
L 259.729163 273.312 
L 259.729163 63.088647 
L 258.110204 63.088647 
z
" clip-path="url(#p4149274c76)" style="fill: #1f77b4"/>
   </g>
   <g id="patch_126">
    <path d="M 259.729163 273.312 
L 261.348122 273.312 
L 261.348122 46.973965 
L 259.729163 46.973965 
z
" clip-path="url(#p4149274c76)" style="fill: #1f77b4"/>
   </g>
   <g id="patch_127">
    <path d="M 261.348122 273.312 
L 262.967081 273.312 
L 262.967081 60.158705 
L 261.348122 60.158705 
z
" clip-path="url(#p4149274c76)" style="fill: #1f77b4"/>
   </g>
   <g id="patch_128">
    <path d="M 262.967081 273.312 
L 264.58604 273.312 
L 264.58604 73.343445 
L 262.967081 73.343445 
z
" clip-path="url(#p4149274c76)" style="fill: #1f77b4"/>
   </g>
   <g id="patch_129">
    <path d="M 264.58604 273.312 
L 266.204999 273.312 
L 266.204999 78.470844 
L 264.58604 78.470844 
z
" clip-path="url(#p4149274c76)" style="fill: #1f77b4"/>
   </g>
   <g id="patch_130">
    <path d="M 266.204999 273.312 
L 267.823958 273.312 
L 267.823958 70.413503 
L 266.204999 70.413503 
z
" clip-path="url(#p4149274c76)" style="fill: #1f77b4"/>
   </g>
   <g id="patch_131">
    <path d="M 267.823958 273.312 
L 269.442917 273.312 
L 269.442917 46.24148 
L 267.823958 46.24148 
z
" clip-path="url(#p4149274c76)" style="fill: #1f77b4"/>
   </g>
   <g id="patch_132">
    <path d="M 269.442917 273.312 
L 271.061877 273.312 
L 271.061877 105.572809 
L 269.442917 105.572809 
z
" clip-path="url(#p4149274c76)" style="fill: #1f77b4"/>
   </g>
   <g id="patch_133">
    <path d="M 271.061877 273.312 
L 272.680836 273.312 
L 272.680836 83.598243 
L 271.061877 83.598243 
z
" clip-path="url(#p4149274c76)" style="fill: #1f77b4"/>
   </g>
   <g id="patch_134">
    <path d="M 272.680836 273.312 
L 274.299795 273.312 
L 274.299795 66.01859 
L 272.680836 66.01859 
z
" clip-path="url(#p4149274c76)" style="fill: #1f77b4"/>
   </g>
   <g id="patch_135">
    <path d="M 274.299795 273.312 
L 275.918754 273.312 
L 275.918754 72.61096 
L 274.299795 72.61096 
z
" clip-path="url(#p4149274c76)" style="fill: #1f77b4"/>
   </g>
   <g id="patch_136">
    <path d="M 275.918754 273.312 
L 277.537713 273.312 
L 277.537713 82.133272 
L 275.918754 82.133272 
z
" clip-path="url(#p4149274c76)" style="fill: #1f77b4"/>
   </g>
   <g id="patch_137">
    <path d="M 277.537713 273.312 
L 279.156672 273.312 
L 279.156672 59.42622 
L 277.537713 59.42622 
z
" clip-path="url(#p4149274c76)" style="fill: #1f77b4"/>
   </g>
   <g id="patch_138">
    <path d="M 279.156672 273.312 
L 280.775631 273.312 
L 280.775631 93.85304 
L 279.156672 93.85304 
z
" clip-path="url(#p4149274c76)" style="fill: #1f77b4"/>
   </g>
   <g id="patch_139">
    <path d="M 280.775631 273.312 
L 282.39459 273.312 
L 282.39459 77.738358 
L 280.775631 77.738358 
z
" clip-path="url(#p4149274c76)" style="fill: #1f77b4"/>
   </g>
   <g id="patch_140">
    <path d="M 282.39459 273.312 
L 284.01355 273.312 
L 284.01355 100.44541 
L 282.39459 100.44541 
z
" clip-path="url(#p4149274c76)" style="fill: #1f77b4"/>
   </g>
   <g id="patch_141">
    <path d="M 284.01355 273.312 
L 285.632509 273.312 
L 285.632509 96.050497 
L 284.01355 96.050497 
z
" clip-path="url(#p4149274c76)" style="fill: #1f77b4"/>
   </g>
   <g id="patch_142">
    <path d="M 285.632509 273.312 
L 287.251468 273.312 
L 287.251468 90.923098 
L 285.632509 90.923098 
z
" clip-path="url(#p4149274c76)" style="fill: #1f77b4"/>
   </g>
   <g id="patch_143">
    <path d="M 287.251468 273.312 
L 288.870427 273.312 
L 288.870427 95.318012 
L 287.251468 95.318012 
z
" clip-path="url(#p4149274c76)" style="fill: #1f77b4"/>
   </g>
   <g id="patch_144">
    <path d="M 288.870427 273.312 
L 290.489386 273.312 
L 290.489386 102.642867 
L 288.870427 102.642867 
z
" clip-path="url(#p4149274c76)" style="fill: #1f77b4"/>
   </g>
   <g id="patch_145">
    <path d="M 290.489386 273.312 
L 292.108345 273.312 
L 292.108345 79.203329 
L 290.489386 79.203329 
z
" clip-path="url(#p4149274c76)" style="fill: #1f77b4"/>
   </g>
   <g id="patch_146">
    <path d="M 292.108345 273.312 
L 293.727304 273.312 
L 293.727304 118.757549 
L 292.108345 118.757549 
z
" clip-path="url(#p4149274c76)" style="fill: #1f77b4"/>
   </g>
   <g id="patch_147">
    <path d="M 293.727304 273.312 
L 295.346263 273.312 
L 295.346263 101.910382 
L 293.727304 101.910382 
z
" clip-path="url(#p4149274c76)" style="fill: #1f77b4"/>
   </g>
   <g id="patch_148">
    <path d="M 295.346263 273.312 
L 296.965223 273.312 
L 296.965223 102.642867 
L 295.346263 102.642867 
z
" clip-path="url(#p4149274c76)" style="fill: #1f77b4"/>
   </g>
   <g id="patch_149">
    <path d="M 296.965223 273.312 
L 298.584182 273.312 
L 298.584182 113.63015 
L 296.965223 113.63015 
z
" clip-path="url(#p4149274c76)" style="fill: #1f77b4"/>
   </g>
   <g id="patch_150">
    <path d="M 298.584182 273.312 
L 300.203141 273.312 
L 300.203141 98.247954 
L 298.584182 98.247954 
z
" clip-path="url(#p4149274c76)" style="fill: #1f77b4"/>
   </g>
   <g id="patch_151">
    <path d="M 300.203141 273.312 
L 301.8221 273.312 
L 301.8221 95.318012 
L 300.203141 95.318012 
z
" clip-path="url(#p4149274c76)" style="fill: #1f77b4"/>
   </g>
   <g id="patch_152">
    <path d="M 301.8221 273.312 
L 303.441059 273.312 
L 303.441059 116.560092 
L 301.8221 116.560092 
z
" clip-path="url(#p4149274c76)" style="fill: #1f77b4"/>
   </g>
   <g id="patch_153">
    <path d="M 303.441059 273.312 
L 305.060018 273.312 
L 305.060018 118.757549 
L 303.441059 118.757549 
z
" clip-path="url(#p4149274c76)" style="fill: #1f77b4"/>
   </g>
   <g id="patch_154">
    <path d="M 305.060018 273.312 
L 306.678977 273.312 
L 306.678977 109.967723 
L 305.060018 109.967723 
z
" clip-path="url(#p4149274c76)" style="fill: #1f77b4"/>
   </g>
   <g id="patch_155">
    <path d="M 306.678977 273.312 
L 308.297936 273.312 
L 308.297936 104.840324 
L 306.678977 104.840324 
z
" clip-path="url(#p4149274c76)" style="fill: #1f77b4"/>
   </g>
   <g id="patch_156">
    <path d="M 308.297936 273.312 
L 309.916896 273.312 
L 309.916896 122.419977 
L 308.297936 122.419977 
z
" clip-path="url(#p4149274c76)" style="fill: #1f77b4"/>
   </g>
   <g id="patch_157">
    <path d="M 309.916896 273.312 
L 311.535855 273.312 
L 311.535855 138.534659 
L 309.916896 138.534659 
z
" clip-path="url(#p4149274c76)" style="fill: #1f77b4"/>
   </g>
   <g id="patch_158">
    <path d="M 311.535855 273.312 
L 313.154814 273.312 
L 313.154814 118.025064 
L 311.535855 118.025064 
z
" clip-path="url(#p4149274c76)" style="fill: #1f77b4"/>
   </g>
   <g id="patch_159">
    <path d="M 313.154814 273.312 
L 314.773773 273.312 
L 314.773773 125.349919 
L 313.154814 125.349919 
z
" clip-path="url(#p4149274c76)" style="fill: #1f77b4"/>
   </g>
   <g id="patch_160">
    <path d="M 314.773773 273.312 
L 316.392732 273.312 
L 316.392732 133.40726 
L 314.773773 133.40726 
z
" clip-path="url(#p4149274c76)" style="fill: #1f77b4"/>
   </g>
   <g id="patch_161">
    <path d="M 316.392732 273.312 
L 318.011691 273.312 
L 318.011691 138.534659 
L 316.392732 138.534659 
z
" clip-path="url(#p4149274c76)" style="fill: #1f77b4"/>
   </g>
   <g id="patch_162">
    <path d="M 318.011691 273.312 
L 319.63065 273.312 
L 319.63065 137.069688 
L 318.011691 137.069688 
z
" clip-path="url(#p4149274c76)" style="fill: #1f77b4"/>
   </g>
   <g id="patch_163">
    <path d="M 319.63065 273.312 
L 321.249609 273.312 
L 321.249609 146.592 
L 319.63065 146.592 
z
" clip-path="url(#p4149274c76)" style="fill: #1f77b4"/>
   </g>
   <g id="patch_164">
    <path d="M 321.249609 273.312 
L 322.868569 273.312 
L 322.868569 126.81489 
L 321.249609 126.81489 
z
" clip-path="url(#p4149274c76)" style="fill: #1f77b4"/>
   </g>
   <g id="patch_165">
    <path d="M 322.868569 273.312 
L 324.487528 273.312 
L 324.487528 148.056971 
L 322.868569 148.056971 
z
" clip-path="url(#p4149274c76)" style="fill: #1f77b4"/>
   </g>
   <g id="patch_166">
    <path d="M 324.487528 273.312 
L 326.106487 273.312 
L 326.106487 138.534659 
L 324.487528 138.534659 
z
" clip-path="url(#p4149274c76)" style="fill: #1f77b4"/>
   </g>
   <g id="patch_167">
    <path d="M 326.106487 273.312 
L 327.725446 273.312 
L 327.725446 180.286335 
L 326.106487 180.286335 
z
" clip-path="url(#p4149274c76)" style="fill: #1f77b4"/>
   </g>
   <g id="patch_168">
    <path d="M 327.725446 273.312 
L 329.344405 273.312 
L 329.344405 143.662058 
L 327.725446 143.662058 
z
" clip-path="url(#p4149274c76)" style="fill: #1f77b4"/>
   </g>
   <g id="patch_169">
    <path d="M 329.344405 273.312 
L 330.963364 273.312 
L 330.963364 167.834081 
L 329.344405 167.834081 
z
" clip-path="url(#p4149274c76)" style="fill: #1f77b4"/>
   </g>
   <g id="patch_170">
    <path d="M 330.963364 273.312 
L 332.582323 273.312 
L 332.582323 170.031538 
L 330.963364 170.031538 
z
" clip-path="url(#p4149274c76)" style="fill: #1f77b4"/>
   </g>
   <g id="patch_171">
    <path d="M 332.582323 273.312 
L 334.201282 273.312 
L 334.201282 147.324486 
L 332.582323 147.324486 
z
" clip-path="url(#p4149274c76)" style="fill: #1f77b4"/>
   </g>
   <g id="patch_172">
    <path d="M 334.201282 273.312 
L 335.820242 273.312 
L 335.820242 158.311769 
L 334.201282 158.311769 
z
" clip-path="url(#p4149274c76)" style="fill: #1f77b4"/>
   </g>
   <g id="patch_173">
    <path d="M 335.820242 273.312 
L 337.439201 273.312 
L 337.439201 163.439168 
L 335.820242 163.439168 
z
" clip-path="url(#p4149274c76)" style="fill: #1f77b4"/>
   </g>
   <g id="patch_174">
    <path d="M 337.439201 273.312 
L 339.05816 273.312 
L 339.05816 178.088879 
L 337.439201 178.088879 
z
" clip-path="url(#p4149274c76)" style="fill: #1f77b4"/>
   </g>
   <g id="patch_175">
    <path d="M 339.05816 273.312 
L 340.677119 273.312 
L 340.677119 159.77674 
L 339.05816 159.77674 
z
" clip-path="url(#p4149274c76)" style="fill: #1f77b4"/>
   </g>
   <g id="patch_176">
    <path d="M 340.677119 273.312 
L 342.296078 273.312 
L 342.296078 161.241711 
L 340.677119 161.241711 
z
" clip-path="url(#p4149274c76)" style="fill: #1f77b4"/>
   </g>
   <g id="patch_177">
    <path d="M 342.296078 273.312 
L 343.915037 273.312 
L 343.915037 187.611191 
L 342.296078 187.611191 
z
" clip-path="url(#p4149274c76)" style="fill: #1f77b4"/>
   </g>
   <g id="patch_178">
    <path d="M 343.915037 273.312 
L 345.533996 273.312 
L 345.533996 183.216277 
L 343.915037 183.216277 
z
" clip-path="url(#p4149274c76)" style="fill: #1f77b4"/>
   </g>
   <g id="patch_179">
    <path d="M 345.533996 273.312 
L 347.152955 273.312 
L 347.152955 202.993387 
L 345.533996 202.993387 
z
" clip-path="url(#p4149274c76)" style="fill: #1f77b4"/>
   </g>
   <g id="patch_180">
    <path d="M 347.152955 273.312 
L 348.771915 273.312 
L 348.771915 188.343676 
L 347.152955 188.343676 
z
" clip-path="url(#p4149274c76)" style="fill: #1f77b4"/>
   </g>
   <g id="patch_181">
    <path d="M 348.771915 273.312 
L 350.390874 273.312 
L 350.390874 194.203561 
L 348.771915 194.203561 
z
" clip-path="url(#p4149274c76)" style="fill: #1f77b4"/>
   </g>
   <g id="patch_182">
    <path d="M 350.390874 273.312 
L 352.009833 273.312 
L 352.009833 181.751306 
L 350.390874 181.751306 
z
" clip-path="url(#p4149274c76)" style="fill: #1f77b4"/>
   </g>
   <g id="patch_183">
    <path d="M 352.009833 273.312 
L 353.628792 273.312 
L 353.628792 196.401017 
L 352.009833 196.401017 
z
" clip-path="url(#p4149274c76)" style="fill: #1f77b4"/>
   </g>
   <g id="patch_184">
    <path d="M 353.628792 273.312 
L 355.247751 273.312 
L 355.247751 186.878705 
L 353.628792 186.878705 
z
" clip-path="url(#p4149274c76)" style="fill: #1f77b4"/>
   </g>
   <g id="patch_185">
    <path d="M 355.247751 273.312 
L 356.86671 273.312 
L 356.86671 206.655815 
L 355.247751 206.655815 
z
" clip-path="url(#p4149274c76)" style="fill: #1f77b4"/>
   </g>
   <g id="patch_186">
    <path d="M 356.86671 273.312 
L 358.485669 273.312 
L 358.485669 209.585757 
L 356.86671 209.585757 
z
" clip-path="url(#p4149274c76)" style="fill: #1f77b4"/>
   </g>
   <g id="patch_187">
    <path d="M 358.485669 273.312 
L 360.104628 273.312 
L 360.104628 219.840555 
L 358.485669 219.840555 
z
" clip-path="url(#p4149274c76)" style="fill: #1f77b4"/>
   </g>
   <g id="patch_188">
    <path d="M 360.104628 273.312 
L 361.723588 273.312 
L 361.723588 228.630382 
L 360.104628 228.630382 
z
" clip-path="url(#p4149274c76)" style="fill: #1f77b4"/>
   </g>
   <g id="patch_189">
    <path d="M 361.723588 273.312 
L 363.342547 273.312 
L 363.342547 218.375584 
L 361.723588 218.375584 
z
" clip-path="url(#p4149274c76)" style="fill: #1f77b4"/>
   </g>
   <g id="patch_190">
    <path d="M 363.342547 273.312 
L 364.961506 273.312 
L 364.961506 226.432925 
L 363.342547 226.432925 
z
" clip-path="url(#p4149274c76)" style="fill: #1f77b4"/>
   </g>
   <g id="patch_191">
    <path d="M 364.961506 273.312 
L 366.580465 273.312 
L 366.580465 233.025295 
L 364.961506 233.025295 
z
" clip-path="url(#p4149274c76)" style="fill: #1f77b4"/>
   </g>
   <g id="patch_192">
    <path d="M 366.580465 273.312 
L 368.199424 273.312 
L 368.199424 230.095353 
L 366.580465 230.095353 
z
" clip-path="url(#p4149274c76)" style="fill: #1f77b4"/>
   </g>
   <g id="patch_193">
    <path d="M 368.199424 273.312 
L 369.818383 273.312 
L 369.818383 239.617665 
L 368.199424 239.617665 
z
" clip-path="url(#p4149274c76)" style="fill: #1f77b4"/>
   </g>
   <g id="patch_194">
    <path d="M 369.818383 273.312 
L 371.437342 273.312 
L 371.437342 235.955237 
L 369.818383 235.955237 
z
" clip-path="url(#p4149274c76)" style="fill: #1f77b4"/>
   </g>
   <g id="patch_195">
    <path d="M 371.437342 273.312 
L 373.056301 273.312 
L 373.056301 238.885179 
L 371.437342 238.885179 
z
" clip-path="url(#p4149274c76)" style="fill: #1f77b4"/>
   </g>
   <g id="patch_196">
    <path d="M 373.056301 273.312 
L 374.675261 273.312 
L 374.675261 247.675006 
L 373.056301 247.675006 
z
" clip-path="url(#p4149274c76)" style="fill: #1f77b4"/>
   </g>
   <g id="patch_197">
    <path d="M 374.675261 273.312 
L 376.29422 273.312 
L 376.29422 254.267376 
L 374.675261 254.267376 
z
" clip-path="url(#p4149274c76)" style="fill: #1f77b4"/>
   </g>
   <g id="patch_198">
    <path d="M 376.29422 273.312 
L 377.913179 273.312 
L 377.913179 257.929803 
L 376.29422 257.929803 
z
" clip-path="url(#p4149274c76)" style="fill: #1f77b4"/>
   </g>
   <g id="patch_199">
    <path d="M 377.913179 273.312 
L 379.532138 273.312 
L 379.532138 264.522173 
L 377.913179 264.522173 
z
" clip-path="url(#p4149274c76)" style="fill: #1f77b4"/>
   </g>
   <g id="patch_200">
    <path d="M 379.532138 273.312 
L 381.151097 273.312 
L 381.151097 265.254659 
L 379.532138 265.254659 
z
" clip-path="url(#p4149274c76)" style="fill: #1f77b4"/>
   </g>
   <g id="patch_201">
    <path d="M 381.151097 273.312 
L 382.770056 273.312 
L 382.770056 268.184601 
L 381.151097 268.184601 
z
" clip-path="url(#p4149274c76)" style="fill: #1f77b4"/>
   </g>
   <g id="patch_202">
    <path d="M 382.770056 273.312 
L 384.389015 273.312 
L 384.389015 269.649572 
L 382.770056 269.649572 
z
" clip-path="url(#p4149274c76)" style="fill: #1f77b4"/>
   </g>
   <g id="matplotlib.axis_1">
    <g id="xtick_1">
     <g id="line2d_1">
      <defs>
       <path id="m547cfc15b8" d="M 0 0 
L 0 3.5 
" style="stroke: #000000; stroke-width: 0.8"/>
      </defs>
      <g>
       <use xlink:href="#m547cfc15b8" x="60.013977" y="273.312" style="stroke: #000000; stroke-width: 0.8"/>
      </g>
     </g>
     <g id="text_1">
      <!-- 0.0 -->
      <g transform="translate(52.062415 287.910437)scale(0.1 -0.1)">
       <defs>
        <path id="DejaVuSans-30" d="M 2034 4250 
Q 1547 4250 1301 3770 
Q 1056 3291 1056 2328 
Q 1056 1369 1301 889 
Q 1547 409 2034 409 
Q 2525 409 2770 889 
Q 3016 1369 3016 2328 
Q 3016 3291 2770 3770 
Q 2525 4250 2034 4250 
z
M 2034 4750 
Q 2819 4750 3233 4129 
Q 3647 3509 3647 2328 
Q 3647 1150 3233 529 
Q 2819 -91 2034 -91 
Q 1250 -91 836 529 
Q 422 1150 422 2328 
Q 422 3509 836 4129 
Q 1250 4750 2034 4750 
z
" transform="scale(0.015625)"/>
        <path id="DejaVuSans-2e" d="M 684 794 
L 1344 794 
L 1344 0 
L 684 0 
L 684 794 
z
" transform="scale(0.015625)"/>
       </defs>
       <use xlink:href="#DejaVuSans-30"/>
       <use xlink:href="#DejaVuSans-2e" x="63.623047"/>
       <use xlink:href="#DejaVuSans-30" x="95.410156"/>
      </g>
     </g>
    </g>
    <g id="xtick_2">
     <g id="line2d_2">
      <g>
       <use xlink:href="#m547cfc15b8" x="101.350278" y="273.312" style="stroke: #000000; stroke-width: 0.8"/>
      </g>
     </g>
     <g id="text_2">
      <!-- 0.2 -->
      <g transform="translate(93.398715 287.910437)scale(0.1 -0.1)">
       <defs>
        <path id="DejaVuSans-32" d="M 1228 531 
L 3431 531 
L 3431 0 
L 469 0 
L 469 531 
Q 828 903 1448 1529 
Q 2069 2156 2228 2338 
Q 2531 2678 2651 2914 
Q 2772 3150 2772 3378 
Q 2772 3750 2511 3984 
Q 2250 4219 1831 4219 
Q 1534 4219 1204 4116 
Q 875 4013 500 3803 
L 500 4441 
Q 881 4594 1212 4672 
Q 1544 4750 1819 4750 
Q 2544 4750 2975 4387 
Q 3406 4025 3406 3419 
Q 3406 3131 3298 2873 
Q 3191 2616 2906 2266 
Q 2828 2175 2409 1742 
Q 1991 1309 1228 531 
z
" transform="scale(0.015625)"/>
       </defs>
       <use xlink:href="#DejaVuSans-30"/>
       <use xlink:href="#DejaVuSans-2e" x="63.623047"/>
       <use xlink:href="#DejaVuSans-32" x="95.410156"/>
      </g>
     </g>
    </g>
    <g id="xtick_3">
     <g id="line2d_3">
      <g>
       <use xlink:href="#m547cfc15b8" x="142.686578" y="273.312" style="stroke: #000000; stroke-width: 0.8"/>
      </g>
     </g>
     <g id="text_3">
      <!-- 0.4 -->
      <g transform="translate(134.735016 287.910437)scale(0.1 -0.1)">
       <defs>
        <path id="DejaVuSans-34" d="M 2419 4116 
L 825 1625 
L 2419 1625 
L 2419 4116 
z
M 2253 4666 
L 3047 4666 
L 3047 1625 
L 3713 1625 
L 3713 1100 
L 3047 1100 
L 3047 0 
L 2419 0 
L 2419 1100 
L 313 1100 
L 313 1709 
L 2253 4666 
z
" transform="scale(0.015625)"/>
       </defs>
       <use xlink:href="#DejaVuSans-30"/>
       <use xlink:href="#DejaVuSans-2e" x="63.623047"/>
       <use xlink:href="#DejaVuSans-34" x="95.410156"/>
      </g>
     </g>
    </g>
    <g id="xtick_4">
     <g id="line2d_4">
      <g>
       <use xlink:href="#m547cfc15b8" x="184.022879" y="273.312" style="stroke: #000000; stroke-width: 0.8"/>
      </g>
     </g>
     <g id="text_4">
      <!-- 0.6 -->
      <g transform="translate(176.071316 287.910437)scale(0.1 -0.1)">
       <defs>
        <path id="DejaVuSans-36" d="M 2113 2584 
Q 1688 2584 1439 2293 
Q 1191 2003 1191 1497 
Q 1191 994 1439 701 
Q 1688 409 2113 409 
Q 2538 409 2786 701 
Q 3034 994 3034 1497 
Q 3034 2003 2786 2293 
Q 2538 2584 2113 2584 
z
M 3366 4563 
L 3366 3988 
Q 3128 4100 2886 4159 
Q 2644 4219 2406 4219 
Q 1781 4219 1451 3797 
Q 1122 3375 1075 2522 
Q 1259 2794 1537 2939 
Q 1816 3084 2150 3084 
Q 2853 3084 3261 2657 
Q 3669 2231 3669 1497 
Q 3669 778 3244 343 
Q 2819 -91 2113 -91 
Q 1303 -91 875 529 
Q 447 1150 447 2328 
Q 447 3434 972 4092 
Q 1497 4750 2381 4750 
Q 2619 4750 2861 4703 
Q 3103 4656 3366 4563 
z
" transform="scale(0.015625)"/>
       </defs>
       <use xlink:href="#DejaVuSans-30"/>
       <use xlink:href="#DejaVuSans-2e" x="63.623047"/>
       <use xlink:href="#DejaVuSans-36" x="95.410156"/>
      </g>
     </g>
    </g>
    <g id="xtick_5">
     <g id="line2d_5">
      <g>
       <use xlink:href="#m547cfc15b8" x="225.35918" y="273.312" style="stroke: #000000; stroke-width: 0.8"/>
      </g>
     </g>
     <g id="text_5">
      <!-- 0.8 -->
      <g transform="translate(217.407617 287.910437)scale(0.1 -0.1)">
       <defs>
        <path id="DejaVuSans-38" d="M 2034 2216 
Q 1584 2216 1326 1975 
Q 1069 1734 1069 1313 
Q 1069 891 1326 650 
Q 1584 409 2034 409 
Q 2484 409 2743 651 
Q 3003 894 3003 1313 
Q 3003 1734 2745 1975 
Q 2488 2216 2034 2216 
z
M 1403 2484 
Q 997 2584 770 2862 
Q 544 3141 544 3541 
Q 544 4100 942 4425 
Q 1341 4750 2034 4750 
Q 2731 4750 3128 4425 
Q 3525 4100 3525 3541 
Q 3525 3141 3298 2862 
Q 3072 2584 2669 2484 
Q 3125 2378 3379 2068 
Q 3634 1759 3634 1313 
Q 3634 634 3220 271 
Q 2806 -91 2034 -91 
Q 1263 -91 848 271 
Q 434 634 434 1313 
Q 434 1759 690 2068 
Q 947 2378 1403 2484 
z
M 1172 3481 
Q 1172 3119 1398 2916 
Q 1625 2713 2034 2713 
Q 2441 2713 2670 2916 
Q 2900 3119 2900 3481 
Q 2900 3844 2670 4047 
Q 2441 4250 2034 4250 
Q 1625 4250 1398 4047 
Q 1172 3844 1172 3481 
z
" transform="scale(0.015625)"/>
       </defs>
       <use xlink:href="#DejaVuSans-30"/>
       <use xlink:href="#DejaVuSans-2e" x="63.623047"/>
       <use xlink:href="#DejaVuSans-38" x="95.410156"/>
      </g>
     </g>
    </g>
    <g id="xtick_6">
     <g id="line2d_6">
      <g>
       <use xlink:href="#m547cfc15b8" x="266.69548" y="273.312" style="stroke: #000000; stroke-width: 0.8"/>
      </g>
     </g>
     <g id="text_6">
      <!-- 1.0 -->
      <g transform="translate(258.743918 287.910437)scale(0.1 -0.1)">
       <defs>
        <path id="DejaVuSans-31" d="M 794 531 
L 1825 531 
L 1825 4091 
L 703 3866 
L 703 4441 
L 1819 4666 
L 2450 4666 
L 2450 531 
L 3481 531 
L 3481 0 
L 794 0 
L 794 531 
z
" transform="scale(0.015625)"/>
       </defs>
       <use xlink:href="#DejaVuSans-31"/>
       <use xlink:href="#DejaVuSans-2e" x="63.623047"/>
       <use xlink:href="#DejaVuSans-30" x="95.410156"/>
      </g>
     </g>
    </g>
    <g id="xtick_7">
     <g id="line2d_7">
      <g>
       <use xlink:href="#m547cfc15b8" x="308.031781" y="273.312" style="stroke: #000000; stroke-width: 0.8"/>
      </g>
     </g>
     <g id="text_7">
      <!-- 1.2 -->
      <g transform="translate(300.080218 287.910437)scale(0.1 -0.1)">
       <use xlink:href="#DejaVuSans-31"/>
       <use xlink:href="#DejaVuSans-2e" x="63.623047"/>
       <use xlink:href="#DejaVuSans-32" x="95.410156"/>
      </g>
     </g>
    </g>
    <g id="xtick_8">
     <g id="line2d_8">
      <g>
       <use xlink:href="#m547cfc15b8" x="349.368081" y="273.312" style="stroke: #000000; stroke-width: 0.8"/>
      </g>
     </g>
     <g id="text_8">
      <!-- 1.4 -->
      <g transform="translate(341.416519 287.910437)scale(0.1 -0.1)">
       <use xlink:href="#DejaVuSans-31"/>
       <use xlink:href="#DejaVuSans-2e" x="63.623047"/>
       <use xlink:href="#DejaVuSans-34" x="95.410156"/>
      </g>
     </g>
    </g>
    <g id="xtick_9">
     <g id="line2d_9">
      <g>
       <use xlink:href="#m547cfc15b8" x="390.704382" y="273.312" style="stroke: #000000; stroke-width: 0.8"/>
      </g>
     </g>
     <g id="text_9">
      <!-- 1.6 -->
      <g transform="translate(382.752819 287.910437)scale(0.1 -0.1)">
       <use xlink:href="#DejaVuSans-31"/>
       <use xlink:href="#DejaVuSans-2e" x="63.623047"/>
       <use xlink:href="#DejaVuSans-36" x="95.410156"/>
      </g>
     </g>
    </g>
    <g id="text_10">
     <!-- Angle with normal (rad) -->
     <g transform="translate(163.023281 301.588562)scale(0.1 -0.1)">
      <defs>
       <path id="DejaVuSans-41" d="M 2188 4044 
L 1331 1722 
L 3047 1722 
L 2188 4044 
z
M 1831 4666 
L 2547 4666 
L 4325 0 
L 3669 0 
L 3244 1197 
L 1141 1197 
L 716 0 
L 50 0 
L 1831 4666 
z
" transform="scale(0.015625)"/>
       <path id="DejaVuSans-6e" d="M 3513 2113 
L 3513 0 
L 2938 0 
L 2938 2094 
Q 2938 2591 2744 2837 
Q 2550 3084 2163 3084 
Q 1697 3084 1428 2787 
Q 1159 2491 1159 1978 
L 1159 0 
L 581 0 
L 581 3500 
L 1159 3500 
L 1159 2956 
Q 1366 3272 1645 3428 
Q 1925 3584 2291 3584 
Q 2894 3584 3203 3211 
Q 3513 2838 3513 2113 
z
" transform="scale(0.015625)"/>
       <path id="DejaVuSans-67" d="M 2906 1791 
Q 2906 2416 2648 2759 
Q 2391 3103 1925 3103 
Q 1463 3103 1205 2759 
Q 947 2416 947 1791 
Q 947 1169 1205 825 
Q 1463 481 1925 481 
Q 2391 481 2648 825 
Q 2906 1169 2906 1791 
z
M 3481 434 
Q 3481 -459 3084 -895 
Q 2688 -1331 1869 -1331 
Q 1566 -1331 1297 -1286 
Q 1028 -1241 775 -1147 
L 775 -588 
Q 1028 -725 1275 -790 
Q 1522 -856 1778 -856 
Q 2344 -856 2625 -561 
Q 2906 -266 2906 331 
L 2906 616 
Q 2728 306 2450 153 
Q 2172 0 1784 0 
Q 1141 0 747 490 
Q 353 981 353 1791 
Q 353 2603 747 3093 
Q 1141 3584 1784 3584 
Q 2172 3584 2450 3431 
Q 2728 3278 2906 2969 
L 2906 3500 
L 3481 3500 
L 3481 434 
z
" transform="scale(0.015625)"/>
       <path id="DejaVuSans-6c" d="M 603 4863 
L 1178 4863 
L 1178 0 
L 603 0 
L 603 4863 
z
" transform="scale(0.015625)"/>
       <path id="DejaVuSans-65" d="M 3597 1894 
L 3597 1613 
L 953 1613 
Q 991 1019 1311 708 
Q 1631 397 2203 397 
Q 2534 397 2845 478 
Q 3156 559 3463 722 
L 3463 178 
Q 3153 47 2828 -22 
Q 2503 -91 2169 -91 
Q 1331 -91 842 396 
Q 353 884 353 1716 
Q 353 2575 817 3079 
Q 1281 3584 2069 3584 
Q 2775 3584 3186 3129 
Q 3597 2675 3597 1894 
z
M 3022 2063 
Q 3016 2534 2758 2815 
Q 2500 3097 2075 3097 
Q 1594 3097 1305 2825 
Q 1016 2553 972 2059 
L 3022 2063 
z
" transform="scale(0.015625)"/>
       <path id="DejaVuSans-20" transform="scale(0.015625)"/>
       <path id="DejaVuSans-77" d="M 269 3500 
L 844 3500 
L 1563 769 
L 2278 3500 
L 2956 3500 
L 3675 769 
L 4391 3500 
L 4966 3500 
L 4050 0 
L 3372 0 
L 2619 2869 
L 1863 0 
L 1184 0 
L 269 3500 
z
" transform="scale(0.015625)"/>
       <path id="DejaVuSans-69" d="M 603 3500 
L 1178 3500 
L 1178 0 
L 603 0 
L 603 3500 
z
M 603 4863 
L 1178 4863 
L 1178 4134 
L 603 4134 
L 603 4863 
z
" transform="scale(0.015625)"/>
       <path id="DejaVuSans-74" d="M 1172 4494 
L 1172 3500 
L 2356 3500 
L 2356 3053 
L 1172 3053 
L 1172 1153 
Q 1172 725 1289 603 
Q 1406 481 1766 481 
L 2356 481 
L 2356 0 
L 1766 0 
Q 1100 0 847 248 
Q 594 497 594 1153 
L 594 3053 
L 172 3053 
L 172 3500 
L 594 3500 
L 594 4494 
L 1172 4494 
z
" transform="scale(0.015625)"/>
       <path id="DejaVuSans-68" d="M 3513 2113 
L 3513 0 
L 2938 0 
L 2938 2094 
Q 2938 2591 2744 2837 
Q 2550 3084 2163 3084 
Q 1697 3084 1428 2787 
Q 1159 2491 1159 1978 
L 1159 0 
L 581 0 
L 581 4863 
L 1159 4863 
L 1159 2956 
Q 1366 3272 1645 3428 
Q 1925 3584 2291 3584 
Q 2894 3584 3203 3211 
Q 3513 2838 3513 2113 
z
" transform="scale(0.015625)"/>
       <path id="DejaVuSans-6f" d="M 1959 3097 
Q 1497 3097 1228 2736 
Q 959 2375 959 1747 
Q 959 1119 1226 758 
Q 1494 397 1959 397 
Q 2419 397 2687 759 
Q 2956 1122 2956 1747 
Q 2956 2369 2687 2733 
Q 2419 3097 1959 3097 
z
M 1959 3584 
Q 2709 3584 3137 3096 
Q 3566 2609 3566 1747 
Q 3566 888 3137 398 
Q 2709 -91 1959 -91 
Q 1206 -91 779 398 
Q 353 888 353 1747 
Q 353 2609 779 3096 
Q 1206 3584 1959 3584 
z
" transform="scale(0.015625)"/>
       <path id="DejaVuSans-72" d="M 2631 2963 
Q 2534 3019 2420 3045 
Q 2306 3072 2169 3072 
Q 1681 3072 1420 2755 
Q 1159 2438 1159 1844 
L 1159 0 
L 581 0 
L 581 3500 
L 1159 3500 
L 1159 2956 
Q 1341 3275 1631 3429 
Q 1922 3584 2338 3584 
Q 2397 3584 2469 3576 
Q 2541 3569 2628 3553 
L 2631 2963 
z
" transform="scale(0.015625)"/>
       <path id="DejaVuSans-6d" d="M 3328 2828 
Q 3544 3216 3844 3400 
Q 4144 3584 4550 3584 
Q 5097 3584 5394 3201 
Q 5691 2819 5691 2113 
L 5691 0 
L 5113 0 
L 5113 2094 
Q 5113 2597 4934 2840 
Q 4756 3084 4391 3084 
Q 3944 3084 3684 2787 
Q 3425 2491 3425 1978 
L 3425 0 
L 2847 0 
L 2847 2094 
Q 2847 2600 2669 2842 
Q 2491 3084 2119 3084 
Q 1678 3084 1418 2786 
Q 1159 2488 1159 1978 
L 1159 0 
L 581 0 
L 581 3500 
L 1159 3500 
L 1159 2956 
Q 1356 3278 1631 3431 
Q 1906 3584 2284 3584 
Q 2666 3584 2933 3390 
Q 3200 3197 3328 2828 
z
" transform="scale(0.015625)"/>
       <path id="DejaVuSans-61" d="M 2194 1759 
Q 1497 1759 1228 1600 
Q 959 1441 959 1056 
Q 959 750 1161 570 
Q 1363 391 1709 391 
Q 2188 391 2477 730 
Q 2766 1069 2766 1631 
L 2766 1759 
L 2194 1759 
z
M 3341 1997 
L 3341 0 
L 2766 0 
L 2766 531 
Q 2569 213 2275 61 
Q 1981 -91 1556 -91 
Q 1019 -91 701 211 
Q 384 513 384 1019 
Q 384 1609 779 1909 
Q 1175 2209 1959 2209 
L 2766 2209 
L 2766 2266 
Q 2766 2663 2505 2880 
Q 2244 3097 1772 3097 
Q 1472 3097 1187 3025 
Q 903 2953 641 2809 
L 641 3341 
Q 956 3463 1253 3523 
Q 1550 3584 1831 3584 
Q 2591 3584 2966 3190 
Q 3341 2797 3341 1997 
z
" transform="scale(0.015625)"/>
       <path id="DejaVuSans-28" d="M 1984 4856 
Q 1566 4138 1362 3434 
Q 1159 2731 1159 2009 
Q 1159 1288 1364 580 
Q 1569 -128 1984 -844 
L 1484 -844 
Q 1016 -109 783 600 
Q 550 1309 550 2009 
Q 550 2706 781 3412 
Q 1013 4119 1484 4856 
L 1984 4856 
z
" transform="scale(0.015625)"/>
       <path id="DejaVuSans-64" d="M 2906 2969 
L 2906 4863 
L 3481 4863 
L 3481 0 
L 2906 0 
L 2906 525 
Q 2725 213 2448 61 
Q 2172 -91 1784 -91 
Q 1150 -91 751 415 
Q 353 922 353 1747 
Q 353 2572 751 3078 
Q 1150 3584 1784 3584 
Q 2172 3584 2448 3432 
Q 2725 3281 2906 2969 
z
M 947 1747 
Q 947 1113 1208 752 
Q 1469 391 1925 391 
Q 2381 391 2643 752 
Q 2906 1113 2906 1747 
Q 2906 2381 2643 2742 
Q 2381 3103 1925 3103 
Q 1469 3103 1208 2742 
Q 947 2381 947 1747 
z
" transform="scale(0.015625)"/>
       <path id="DejaVuSans-29" d="M 513 4856 
L 1013 4856 
Q 1481 4119 1714 3412 
Q 1947 2706 1947 2009 
Q 1947 1309 1714 600 
Q 1481 -109 1013 -844 
L 513 -844 
Q 928 -128 1133 580 
Q 1338 1288 1338 2009 
Q 1338 2731 1133 3434 
Q 928 4138 513 4856 
z
" transform="scale(0.015625)"/>
      </defs>
      <use xlink:href="#DejaVuSans-41"/>
      <use xlink:href="#DejaVuSans-6e" x="68.408203"/>
      <use xlink:href="#DejaVuSans-67" x="131.787109"/>
      <use xlink:href="#DejaVuSans-6c" x="195.263672"/>
      <use xlink:href="#DejaVuSans-65" x="223.046875"/>
      <use xlink:href="#DejaVuSans-20" x="284.570312"/>
      <use xlink:href="#DejaVuSans-77" x="316.357422"/>
      <use xlink:href="#DejaVuSans-69" x="398.144531"/>
      <use xlink:href="#DejaVuSans-74" x="425.927734"/>
      <use xlink:href="#DejaVuSans-68" x="465.136719"/>
      <use xlink:href="#DejaVuSans-20" x="528.515625"/>
      <use xlink:href="#DejaVuSans-6e" x="560.302734"/>
      <use xlink:href="#DejaVuSans-6f" x="623.681641"/>
      <use xlink:href="#DejaVuSans-72" x="684.863281"/>
      <use xlink:href="#DejaVuSans-6d" x="724.226562"/>
      <use xlink:href="#DejaVuSans-61" x="821.638672"/>
      <use xlink:href="#DejaVuSans-6c" x="882.917969"/>
      <use xlink:href="#DejaVuSans-20" x="910.701172"/>
      <use xlink:href="#DejaVuSans-28" x="942.488281"/>
      <use xlink:href="#DejaVuSans-72" x="981.501953"/>
      <use xlink:href="#DejaVuSans-61" x="1022.615234"/>
      <use xlink:href="#DejaVuSans-64" x="1083.894531"/>
      <use xlink:href="#DejaVuSans-29" x="1147.371094"/>
     </g>
    </g>
   </g>
   <g id="matplotlib.axis_2">
    <g id="ytick_1">
     <g id="line2d_10">
      <defs>
       <path id="mc9a21827e8" d="M 0 0 
L -3.5 0 
" style="stroke: #000000; stroke-width: 0.8"/>
      </defs>
      <g>
       <use xlink:href="#mc9a21827e8" x="43.78125" y="273.312" style="stroke: #000000; stroke-width: 0.8"/>
      </g>
     </g>
     <g id="text_11">
      <!-- 0.0 -->
      <g transform="translate(20.878125 277.111219)scale(0.1 -0.1)">
       <use xlink:href="#DejaVuSans-30"/>
       <use xlink:href="#DejaVuSans-2e" x="63.623047"/>
       <use xlink:href="#DejaVuSans-30" x="95.410156"/>
      </g>
     </g>
    </g>
    <g id="ytick_2">
     <g id="line2d_11">
      <g>
       <use xlink:href="#mc9a21827e8" x="43.78125" y="227.410876" style="stroke: #000000; stroke-width: 0.8"/>
      </g>
     </g>
     <g id="text_12">
      <!-- 0.2 -->
      <g transform="translate(20.878125 231.210095)scale(0.1 -0.1)">
       <use xlink:href="#DejaVuSans-30"/>
       <use xlink:href="#DejaVuSans-2e" x="63.623047"/>
       <use xlink:href="#DejaVuSans-32" x="95.410156"/>
      </g>
     </g>
    </g>
    <g id="ytick_3">
     <g id="line2d_12">
      <g>
       <use xlink:href="#mc9a21827e8" x="43.78125" y="181.509752" style="stroke: #000000; stroke-width: 0.8"/>
      </g>
     </g>
     <g id="text_13">
      <!-- 0.4 -->
      <g transform="translate(20.878125 185.308971)scale(0.1 -0.1)">
       <use xlink:href="#DejaVuSans-30"/>
       <use xlink:href="#DejaVuSans-2e" x="63.623047"/>
       <use xlink:href="#DejaVuSans-34" x="95.410156"/>
      </g>
     </g>
    </g>
    <g id="ytick_4">
     <g id="line2d_13">
      <g>
       <use xlink:href="#mc9a21827e8" x="43.78125" y="135.608628" style="stroke: #000000; stroke-width: 0.8"/>
      </g>
     </g>
     <g id="text_14">
      <!-- 0.6 -->
      <g transform="translate(20.878125 139.407846)scale(0.1 -0.1)">
       <use xlink:href="#DejaVuSans-30"/>
       <use xlink:href="#DejaVuSans-2e" x="63.623047"/>
       <use xlink:href="#DejaVuSans-36" x="95.410156"/>
      </g>
     </g>
    </g>
    <g id="ytick_5">
     <g id="line2d_14">
      <g>
       <use xlink:href="#mc9a21827e8" x="43.78125" y="89.707504" style="stroke: #000000; stroke-width: 0.8"/>
      </g>
     </g>
     <g id="text_15">
      <!-- 0.8 -->
      <g transform="translate(20.878125 93.506722)scale(0.1 -0.1)">
       <use xlink:href="#DejaVuSans-30"/>
       <use xlink:href="#DejaVuSans-2e" x="63.623047"/>
       <use xlink:href="#DejaVuSans-38" x="95.410156"/>
      </g>
     </g>
    </g>
    <g id="ytick_6">
     <g id="line2d_15">
      <g>
       <use xlink:href="#mc9a21827e8" x="43.78125" y="43.806379" style="stroke: #000000; stroke-width: 0.8"/>
      </g>
     </g>
     <g id="text_16">
      <!-- 1.0 -->
      <g transform="translate(20.878125 47.605598)scale(0.1 -0.1)">
       <use xlink:href="#DejaVuSans-31"/>
       <use xlink:href="#DejaVuSans-2e" x="63.623047"/>
       <use xlink:href="#DejaVuSans-30" x="95.410156"/>
      </g>
     </g>
    </g>
    <g id="text_17">
     <!-- Probability density -->
     <g transform="translate(14.798438 186.606781)rotate(-90)scale(0.1 -0.1)">
      <defs>
       <path id="DejaVuSans-50" d="M 1259 4147 
L 1259 2394 
L 2053 2394 
Q 2494 2394 2734 2622 
Q 2975 2850 2975 3272 
Q 2975 3691 2734 3919 
Q 2494 4147 2053 4147 
L 1259 4147 
z
M 628 4666 
L 2053 4666 
Q 2838 4666 3239 4311 
Q 3641 3956 3641 3272 
Q 3641 2581 3239 2228 
Q 2838 1875 2053 1875 
L 1259 1875 
L 1259 0 
L 628 0 
L 628 4666 
z
" transform="scale(0.015625)"/>
       <path id="DejaVuSans-62" d="M 3116 1747 
Q 3116 2381 2855 2742 
Q 2594 3103 2138 3103 
Q 1681 3103 1420 2742 
Q 1159 2381 1159 1747 
Q 1159 1113 1420 752 
Q 1681 391 2138 391 
Q 2594 391 2855 752 
Q 3116 1113 3116 1747 
z
M 1159 2969 
Q 1341 3281 1617 3432 
Q 1894 3584 2278 3584 
Q 2916 3584 3314 3078 
Q 3713 2572 3713 1747 
Q 3713 922 3314 415 
Q 2916 -91 2278 -91 
Q 1894 -91 1617 61 
Q 1341 213 1159 525 
L 1159 0 
L 581 0 
L 581 4863 
L 1159 4863 
L 1159 2969 
z
" transform="scale(0.015625)"/>
       <path id="DejaVuSans-79" d="M 2059 -325 
Q 1816 -950 1584 -1140 
Q 1353 -1331 966 -1331 
L 506 -1331 
L 506 -850 
L 844 -850 
Q 1081 -850 1212 -737 
Q 1344 -625 1503 -206 
L 1606 56 
L 191 3500 
L 800 3500 
L 1894 763 
L 2988 3500 
L 3597 3500 
L 2059 -325 
z
" transform="scale(0.015625)"/>
       <path id="DejaVuSans-73" d="M 2834 3397 
L 2834 2853 
Q 2591 2978 2328 3040 
Q 2066 3103 1784 3103 
Q 1356 3103 1142 2972 
Q 928 2841 928 2578 
Q 928 2378 1081 2264 
Q 1234 2150 1697 2047 
L 1894 2003 
Q 2506 1872 2764 1633 
Q 3022 1394 3022 966 
Q 3022 478 2636 193 
Q 2250 -91 1575 -91 
Q 1294 -91 989 -36 
Q 684 19 347 128 
L 347 722 
Q 666 556 975 473 
Q 1284 391 1588 391 
Q 1994 391 2212 530 
Q 2431 669 2431 922 
Q 2431 1156 2273 1281 
Q 2116 1406 1581 1522 
L 1381 1569 
Q 847 1681 609 1914 
Q 372 2147 372 2553 
Q 372 3047 722 3315 
Q 1072 3584 1716 3584 
Q 2034 3584 2315 3537 
Q 2597 3491 2834 3397 
z
" transform="scale(0.015625)"/>
      </defs>
      <use xlink:href="#DejaVuSans-50"/>
      <use xlink:href="#DejaVuSans-72" x="58.552734"/>
      <use xlink:href="#DejaVuSans-6f" x="97.416016"/>
      <use xlink:href="#DejaVuSans-62" x="158.597656"/>
      <use xlink:href="#DejaVuSans-61" x="222.074219"/>
      <use xlink:href="#DejaVuSans-62" x="283.353516"/>
      <use xlink:href="#DejaVuSans-69" x="346.830078"/>
      <use xlink:href="#DejaVuSans-6c" x="374.613281"/>
      <use xlink:href="#DejaVuSans-69" x="402.396484"/>
      <use xlink:href="#DejaVuSans-74" x="430.179688"/>
      <use xlink:href="#DejaVuSans-79" x="469.388672"/>
      <use xlink:href="#DejaVuSans-20" x="528.568359"/>
      <use xlink:href="#DejaVuSans-64" x="560.355469"/>
      <use xlink:href="#DejaVuSans-65" x="623.832031"/>
      <use xlink:href="#DejaVuSans-6e" x="685.355469"/>
      <use xlink:href="#DejaVuSans-73" x="748.734375"/>
      <use xlink:href="#DejaVuSans-69" x="800.833984"/>
      <use xlink:href="#DejaVuSans-74" x="828.617188"/>
      <use xlink:href="#DejaVuSans-79" x="867.826172"/>
     </g>
    </g>
   </g>
   <g id="line2d_16">
    <path d="M 60.013977 273.312 
L 79.837728 229.555687 
L 90.237073 207.14342 
L 99.01152 188.744826 
L 106.811029 172.89801 
L 113.960578 158.871852 
L 120.460169 146.594225 
L 126.63478 135.393894 
L 132.484411 125.23648 
L 138.009063 116.078367 
L 143.208736 107.868922 
L 148.408408 100.078237 
L 153.283101 93.17234 
L 157.832814 87.088113 
L 162.382528 81.364789 
L 166.932241 76.013458 
L 171.156975 71.38653 
L 175.381709 67.097033 
L 179.281463 63.443202 
L 183.181217 60.088203 
L 187.080972 57.036813 
L 190.655746 54.510138 
L 194.230521 52.245257 
L 197.805296 50.244882 
L 201.380071 48.511405 
L 204.629866 47.168875 
L 207.879661 46.049968 
L 211.129456 45.15579 
L 214.379252 44.487226 
L 217.629047 44.044937 
L 220.878842 43.829359 
L 224.128637 43.840707 
L 227.378433 44.078969 
L 230.628228 44.543909 
L 233.878023 45.235068 
L 237.127818 46.151763 
L 240.377614 47.293085 
L 243.627409 48.657908 
L 247.202184 50.415739 
L 250.776958 52.440264 
L 254.351733 54.729061 
L 257.926508 57.279391 
L 261.501283 60.088203 
L 265.401037 63.443202 
L 269.300791 67.097033 
L 273.200546 71.044494 
L 277.425279 75.645734 
L 281.650013 80.577288 
L 286.199727 86.248133 
L 290.74944 92.281508 
L 295.624133 99.134839 
L 300.498826 106.375661 
L 305.698498 114.50814 
L 311.22315 123.588836 
L 316.747802 133.097343 
L 322.597433 143.60126 
L 328.772044 155.138801 
L 335.596614 168.37978 
L 342.746164 182.740934 
L 350.870652 199.582552 
L 359.970079 218.980857 
L 371.019383 243.087191 
L 384.668523 273.312 
L 384.668523 273.312 
" clip-path="url(#p4149274c76)" style="fill: none; stroke: #ff7f0e; stroke-width: 1.5; stroke-linecap: square"/>
   </g>
   <g id="patch_203">
    <path d="M 43.78125 273.312 
L 43.78125 7.2 
" style="fill: none; stroke: #000000; stroke-width: 0.8; stroke-linejoin: miter; stroke-linecap: square"/>
   </g>
   <g id="patch_204">
    <path d="M 400.90125 273.312 
L 400.90125 7.2 
" style="fill: none; stroke: #000000; stroke-width: 0.8; stroke-linejoin: miter; stroke-linecap: square"/>
   </g>
   <g id="patch_205">
    <path d="M 43.78125 273.312 
L 400.90125 273.312 
" style="fill: none; stroke: #000000; stroke-width: 0.8; stroke-linejoin: miter; stroke-linecap: square"/>
   </g>
   <g id="patch_206">
    <path d="M 43.78125 7.2 
L 400.90125 7.2 
" style="fill: none; stroke: #000000; stroke-width: 0.8; stroke-linejoin: miter; stroke-linecap: square"/>
   </g>
  </g>
 </g>
 <defs>
  <clipPath id="p4149274c76">
   <rect x="43.78125" y="7.2" width="357.12" height="266.112"/>
  </clipPath>
 </defs>
</svg>
