<?xml version="1.0" encoding="utf-8" standalone="no"?>
<!DOCTYPE svg PUBLIC "-//W3C//DTD SVG 1.1//EN"
  "http://www.w3.org/Graphics/SVG/1.1/DTD/svg11.dtd">
<svg xmlns:xlink="http://www.w3.org/1999/xlink" width="408.10125pt" height="310.86825pt" viewBox="0 0 408.10125 310.86825" xmlns="http://www.w3.org/2000/svg" version="1.1">
 <metadata>
  <rdf:RDF xmlns:dc="http://purl.org/dc/elements/1.1/" xmlns:cc="http://creativecommons.org/ns#" xmlns:rdf="http://www.w3.org/1999/02/22-rdf-syntax-ns#">
   <cc:Work>
    <dc:type rdf:resource="http://purl.org/dc/dcmitype/StillImage"/>
    <dc:date>2022-05-02T19:42:22.897351</dc:date>
    <dc:format>image/svg+xml</dc:format>
    <dc:creator>
     <cc:Agent>
      <dc:title>Matplotlib v3.5.1, https://matplotlib.org/</dc:title>
     </cc:Agent>
    </dc:creator>
   </cc:Work>
  </rdf:RDF>
 </metadata>
 <defs>
  <style type="text/css">*{stroke-linejoin: round; stroke-linecap: butt}</style>
 </defs>
 <g id="figure_1">
  <g id="patch_1">
   <path d="M 0 310.86825 
L 408.10125 310.86825 
L 408.10125 0 
L 0 0 
z
" style="fill: #ffffff"/>
  </g>
  <g id="axes_1">
   <g id="patch_2">
    <path d="M 43.78125 273.312 
L 400.90125 273.312 
L 400.90125 7.2 
L 43.78125 7.2 
z
" style="fill: #ffffff"/>
   </g>
   <g id="patch_3">
    <path d="M 60.387951 273.312 
L 62.007202 273.312 
L 62.007202 270.330353 
L 60.387951 270.330353 
z
" clip-path="url(#pdd87156c02)" style="fill: #1f77b4"/>
   </g>
   <g id="patch_4">
    <path d="M 62.007202 273.312 
L 63.626454 273.312 
L 63.626454 261.385412 
L 62.007202 261.385412 
z
" clip-path="url(#pdd87156c02)" style="fill: #1f77b4"/>
   </g>
   <g id="patch_5">
    <path d="M 63.626454 273.312 
L 65.245705 273.312 
L 65.245705 266.603294 
L 63.626454 266.603294 
z
" clip-path="url(#pdd87156c02)" style="fill: #1f77b4"/>
   </g>
   <g id="patch_6">
    <path d="M 65.245705 273.312 
L 66.864956 273.312 
L 66.864956 256.167529 
L 65.245705 256.167529 
z
" clip-path="url(#pdd87156c02)" style="fill: #1f77b4"/>
   </g>
   <g id="patch_7">
    <path d="M 66.864956 273.312 
L 68.484208 273.312 
L 68.484208 255.422118 
L 66.864956 255.422118 
z
" clip-path="url(#pdd87156c02)" style="fill: #1f77b4"/>
   </g>
   <g id="patch_8">
    <path d="M 68.484208 273.312 
L 70.103459 273.312 
L 70.103459 247.968 
L 68.484208 247.968 
z
" clip-path="url(#pdd87156c02)" style="fill: #1f77b4"/>
   </g>
   <g id="patch_9">
    <path d="M 70.103459 273.312 
L 71.722711 273.312 
L 71.722711 240.513882 
L 70.103459 240.513882 
z
" clip-path="url(#pdd87156c02)" style="fill: #1f77b4"/>
   </g>
   <g id="patch_10">
    <path d="M 71.722711 273.312 
L 73.341962 273.312 
L 73.341962 250.204235 
L 71.722711 250.204235 
z
" clip-path="url(#pdd87156c02)" style="fill: #1f77b4"/>
   </g>
   <g id="patch_11">
    <path d="M 73.341962 273.312 
L 74.961214 273.312 
L 74.961214 239.768471 
L 73.341962 239.768471 
z
" clip-path="url(#pdd87156c02)" style="fill: #1f77b4"/>
   </g>
   <g id="patch_12">
    <path d="M 74.961214 273.312 
L 76.580465 273.312 
L 76.580465 239.023059 
L 74.961214 239.023059 
z
" clip-path="url(#pdd87156c02)" style="fill: #1f77b4"/>
   </g>
   <g id="patch_13">
    <path d="M 76.580465 273.312 
L 78.199716 273.312 
L 78.199716 244.240941 
L 76.580465 244.240941 
z
" clip-path="url(#pdd87156c02)" style="fill: #1f77b4"/>
   </g>
   <g id="patch_14">
    <path d="M 78.199716 273.312 
L 79.818968 273.312 
L 79.818968 233.805176 
L 78.199716 233.805176 
z
" clip-path="url(#pdd87156c02)" style="fill: #1f77b4"/>
   </g>
   <g id="patch_15">
    <path d="M 79.818968 273.312 
L 81.438219 273.312 
L 81.438219 234.550588 
L 79.818968 234.550588 
z
" clip-path="url(#pdd87156c02)" style="fill: #1f77b4"/>
   </g>
   <g id="patch_16">
    <path d="M 81.438219 273.312 
L 83.057471 273.312 
L 83.057471 213.679059 
L 81.438219 213.679059 
z
" clip-path="url(#pdd87156c02)" style="fill: #1f77b4"/>
   </g>
   <g id="patch_17">
    <path d="M 83.057471 273.312 
L 84.676722 273.312 
L 84.676722 221.133176 
L 83.057471 221.133176 
z
" clip-path="url(#pdd87156c02)" style="fill: #1f77b4"/>
   </g>
   <g id="patch_18">
    <path d="M 84.676722 273.312 
L 86.295974 273.312 
L 86.295974 201.752471 
L 84.676722 201.752471 
z
" clip-path="url(#pdd87156c02)" style="fill: #1f77b4"/>
   </g>
   <g id="patch_19">
    <path d="M 86.295974 273.312 
L 87.915225 273.312 
L 87.915225 201.752471 
L 86.295974 201.752471 
z
" clip-path="url(#pdd87156c02)" style="fill: #1f77b4"/>
   </g>
   <g id="patch_20">
    <path d="M 87.915225 273.312 
L 89.534476 273.312 
L 89.534476 222.624 
L 87.915225 222.624 
z
" clip-path="url(#pdd87156c02)" style="fill: #1f77b4"/>
   </g>
   <g id="patch_21">
    <path d="M 89.534476 273.312 
L 91.153728 273.312 
L 91.153728 206.224941 
L 89.534476 206.224941 
z
" clip-path="url(#pdd87156c02)" style="fill: #1f77b4"/>
   </g>
   <g id="patch_22">
    <path d="M 91.153728 273.312 
L 92.772979 273.312 
L 92.772979 200.261647 
L 91.153728 200.261647 
z
" clip-path="url(#pdd87156c02)" style="fill: #1f77b4"/>
   </g>
   <g id="patch_23">
    <path d="M 92.772979 273.312 
L 94.392231 273.312 
L 94.392231 197.28 
L 92.772979 197.28 
z
" clip-path="url(#pdd87156c02)" style="fill: #1f77b4"/>
   </g>
   <g id="patch_24">
    <path d="M 94.392231 273.312 
L 96.011482 273.312 
L 96.011482 208.461176 
L 94.392231 208.461176 
z
" clip-path="url(#pdd87156c02)" style="fill: #1f77b4"/>
   </g>
   <g id="patch_25">
    <path d="M 96.011482 273.312 
L 97.630734 273.312 
L 97.630734 174.917647 
L 96.011482 174.917647 
z
" clip-path="url(#pdd87156c02)" style="fill: #1f77b4"/>
   </g>
   <g id="patch_26">
    <path d="M 97.630734 273.312 
L 99.249985 273.312 
L 99.249985 189.825882 
L 97.630734 189.825882 
z
" clip-path="url(#pdd87156c02)" style="fill: #1f77b4"/>
   </g>
   <g id="patch_27">
    <path d="M 99.249985 273.312 
L 100.869236 273.312 
L 100.869236 184.608 
L 99.249985 184.608 
z
" clip-path="url(#pdd87156c02)" style="fill: #1f77b4"/>
   </g>
   <g id="patch_28">
    <path d="M 100.869236 273.312 
L 102.488488 273.312 
L 102.488488 180.880941 
L 100.869236 180.880941 
z
" clip-path="url(#pdd87156c02)" style="fill: #1f77b4"/>
   </g>
   <g id="patch_29">
    <path d="M 102.488488 273.312 
L 104.107739 273.312 
L 104.107739 174.917647 
L 102.488488 174.917647 
z
" clip-path="url(#pdd87156c02)" style="fill: #1f77b4"/>
   </g>
   <g id="patch_30">
    <path d="M 104.107739 273.312 
L 105.726991 273.312 
L 105.726991 187.589647 
L 104.107739 187.589647 
z
" clip-path="url(#pdd87156c02)" style="fill: #1f77b4"/>
   </g>
   <g id="patch_31">
    <path d="M 105.726991 273.312 
L 107.346242 273.312 
L 107.346242 174.917647 
L 105.726991 174.917647 
z
" clip-path="url(#pdd87156c02)" style="fill: #1f77b4"/>
   </g>
   <g id="patch_32">
    <path d="M 107.346242 273.312 
L 108.965494 273.312 
L 108.965494 168.954353 
L 107.346242 168.954353 
z
" clip-path="url(#pdd87156c02)" style="fill: #1f77b4"/>
   </g>
   <g id="patch_33">
    <path d="M 108.965494 273.312 
L 110.584745 273.312 
L 110.584745 153.300706 
L 108.965494 153.300706 
z
" clip-path="url(#pdd87156c02)" style="fill: #1f77b4"/>
   </g>
   <g id="patch_34">
    <path d="M 110.584745 273.312 
L 112.203996 273.312 
L 112.203996 162.245647 
L 110.584745 162.245647 
z
" clip-path="url(#pdd87156c02)" style="fill: #1f77b4"/>
   </g>
   <g id="patch_35">
    <path d="M 112.203996 273.312 
L 113.823248 273.312 
L 113.823248 165.227294 
L 112.203996 165.227294 
z
" clip-path="url(#pdd87156c02)" style="fill: #1f77b4"/>
   </g>
   <g id="patch_36">
    <path d="M 113.823248 273.312 
L 115.442499 273.312 
L 115.442499 149.573647 
L 113.823248 149.573647 
z
" clip-path="url(#pdd87156c02)" style="fill: #1f77b4"/>
   </g>
   <g id="patch_37">
    <path d="M 115.442499 273.312 
L 117.061751 273.312 
L 117.061751 161.500235 
L 115.442499 161.500235 
z
" clip-path="url(#pdd87156c02)" style="fill: #1f77b4"/>
   </g>
   <g id="patch_38">
    <path d="M 117.061751 273.312 
L 118.681002 273.312 
L 118.681002 151.809882 
L 117.061751 151.809882 
z
" clip-path="url(#pdd87156c02)" style="fill: #1f77b4"/>
   </g>
   <g id="patch_39">
    <path d="M 118.681002 273.312 
L 120.300253 273.312 
L 120.300253 158.518588 
L 118.681002 158.518588 
z
" clip-path="url(#pdd87156c02)" style="fill: #1f77b4"/>
   </g>
   <g id="patch_40">
    <path d="M 120.300253 273.312 
L 121.919505 273.312 
L 121.919505 160.754824 
L 120.300253 160.754824 
z
" clip-path="url(#pdd87156c02)" style="fill: #1f77b4"/>
   </g>
   <g id="patch_41">
    <path d="M 121.919505 273.312 
L 123.538756 273.312 
L 123.538756 136.901647 
L 121.919505 136.901647 
z
" clip-path="url(#pdd87156c02)" style="fill: #1f77b4"/>
   </g>
   <g id="patch_42">
    <path d="M 123.538756 273.312 
L 125.158008 273.312 
L 125.158008 124.975059 
L 123.538756 124.975059 
z
" clip-path="url(#pdd87156c02)" style="fill: #1f77b4"/>
   </g>
   <g id="patch_43">
    <path d="M 125.158008 273.312 
L 126.777259 273.312 
L 126.777259 142.864941 
L 125.158008 142.864941 
z
" clip-path="url(#pdd87156c02)" style="fill: #1f77b4"/>
   </g>
   <g id="patch_44">
    <path d="M 126.777259 273.312 
L 128.396511 273.312 
L 128.396511 137.647059 
L 126.777259 137.647059 
z
" clip-path="url(#pdd87156c02)" style="fill: #1f77b4"/>
   </g>
   <g id="patch_45">
    <path d="M 128.396511 273.312 
L 130.015762 273.312 
L 130.015762 127.211294 
L 128.396511 127.211294 
z
" clip-path="url(#pdd87156c02)" style="fill: #1f77b4"/>
   </g>
   <g id="patch_46">
    <path d="M 130.015762 273.312 
L 131.635013 273.312 
L 131.635013 132.429176 
L 130.015762 132.429176 
z
" clip-path="url(#pdd87156c02)" style="fill: #1f77b4"/>
   </g>
   <g id="patch_47">
    <path d="M 131.635013 273.312 
L 133.254265 273.312 
L 133.254265 147.337412 
L 131.635013 147.337412 
z
" clip-path="url(#pdd87156c02)" style="fill: #1f77b4"/>
   </g>
   <g id="patch_48">
    <path d="M 133.254265 273.312 
L 134.873516 273.312 
L 134.873516 110.066824 
L 133.254265 110.066824 
z
" clip-path="url(#pdd87156c02)" style="fill: #1f77b4"/>
   </g>
   <g id="patch_49">
    <path d="M 134.873516 273.312 
L 136.492768 273.312 
L 136.492768 107.085176 
L 134.873516 107.085176 
z
" clip-path="url(#pdd87156c02)" style="fill: #1f77b4"/>
   </g>
   <g id="patch_50">
    <path d="M 136.492768 273.312 
L 138.112019 273.312 
L 138.112019 100.376471 
L 136.492768 100.376471 
z
" clip-path="url(#pdd87156c02)" style="fill: #1f77b4"/>
   </g>
   <g id="patch_51">
    <path d="M 138.112019 273.312 
L 139.731271 273.312 
L 139.731271 98.140235 
L 138.112019 98.140235 
z
" clip-path="url(#pdd87156c02)" style="fill: #1f77b4"/>
   </g>
   <g id="patch_52">
    <path d="M 139.731271 273.312 
L 141.350522 273.312 
L 141.350522 110.812235 
L 139.731271 110.812235 
z
" clip-path="url(#pdd87156c02)" style="fill: #1f77b4"/>
   </g>
   <g id="patch_53">
    <path d="M 141.350522 273.312 
L 142.969773 273.312 
L 142.969773 101.121882 
L 141.350522 101.121882 
z
" clip-path="url(#pdd87156c02)" style="fill: #1f77b4"/>
   </g>
   <g id="patch_54">
    <path d="M 142.969773 273.312 
L 144.589025 273.312 
L 144.589025 104.848941 
L 142.969773 104.848941 
z
" clip-path="url(#pdd87156c02)" style="fill: #1f77b4"/>
   </g>
   <g id="patch_55">
    <path d="M 144.589025 273.312 
L 146.208276 273.312 
L 146.208276 101.867294 
L 144.589025 101.867294 
z
" clip-path="url(#pdd87156c02)" style="fill: #1f77b4"/>
   </g>
   <g id="patch_56">
    <path d="M 146.208276 273.312 
L 147.827528 273.312 
L 147.827528 103.358118 
L 146.208276 103.358118 
z
" clip-path="url(#pdd87156c02)" style="fill: #1f77b4"/>
   </g>
   <g id="patch_57">
    <path d="M 147.827528 273.312 
L 149.446779 273.312 
L 149.446779 98.140235 
L 147.827528 98.140235 
z
" clip-path="url(#pdd87156c02)" style="fill: #1f77b4"/>
   </g>
   <g id="patch_58">
    <path d="M 149.446779 273.312 
L 151.066031 273.312 
L 151.066031 79.504941 
L 149.446779 79.504941 
z
" clip-path="url(#pdd87156c02)" style="fill: #1f77b4"/>
   </g>
   <g id="patch_59">
    <path d="M 151.066031 273.312 
L 152.685282 273.312 
L 152.685282 84.722824 
L 151.066031 84.722824 
z
" clip-path="url(#pdd87156c02)" style="fill: #1f77b4"/>
   </g>
   <g id="patch_60">
    <path d="M 152.685282 273.312 
L 154.304533 273.312 
L 154.304533 89.195294 
L 152.685282 89.195294 
z
" clip-path="url(#pdd87156c02)" style="fill: #1f77b4"/>
   </g>
   <g id="patch_61">
    <path d="M 154.304533 273.312 
L 155.923785 273.312 
L 155.923785 82.486588 
L 154.304533 82.486588 
z
" clip-path="url(#pdd87156c02)" style="fill: #1f77b4"/>
   </g>
   <g id="patch_62">
    <path d="M 155.923785 273.312 
L 157.543036 273.312 
L 157.543036 98.885647 
L 155.923785 98.885647 
z
" clip-path="url(#pdd87156c02)" style="fill: #1f77b4"/>
   </g>
   <g id="patch_63">
    <path d="M 157.543036 273.312 
L 159.162288 273.312 
L 159.162288 88.449882 
L 157.543036 88.449882 
z
" clip-path="url(#pdd87156c02)" style="fill: #1f77b4"/>
   </g>
   <g id="patch_64">
    <path d="M 159.162288 273.312 
L 160.781539 273.312 
L 160.781539 68.323765 
L 159.162288 68.323765 
z
" clip-path="url(#pdd87156c02)" style="fill: #1f77b4"/>
   </g>
   <g id="patch_65">
    <path d="M 160.781539 273.312 
L 162.400791 273.312 
L 162.400791 111.557647 
L 160.781539 111.557647 
z
" clip-path="url(#pdd87156c02)" style="fill: #1f77b4"/>
   </g>
   <g id="patch_66">
    <path d="M 162.400791 273.312 
L 164.020042 273.312 
L 164.020042 62.360471 
L 162.400791 62.360471 
z
" clip-path="url(#pdd87156c02)" style="fill: #1f77b4"/>
   </g>
   <g id="patch_67">
    <path d="M 164.020042 273.312 
L 165.639293 273.312 
L 165.639293 80.250353 
L 164.020042 80.250353 
z
" clip-path="url(#pdd87156c02)" style="fill: #1f77b4"/>
   </g>
   <g id="patch_68">
    <path d="M 165.639293 273.312 
L 167.258545 273.312 
L 167.258545 77.268706 
L 165.639293 77.268706 
z
" clip-path="url(#pdd87156c02)" style="fill: #1f77b4"/>
   </g>
   <g id="patch_69">
    <path d="M 167.258545 273.312 
L 168.877796 273.312 
L 168.877796 79.504941 
L 167.258545 79.504941 
z
" clip-path="url(#pdd87156c02)" style="fill: #1f77b4"/>
   </g>
   <g id="patch_70">
    <path d="M 168.877796 273.312 
L 170.497048 273.312 
L 170.497048 60.869647 
L 168.877796 60.869647 
z
" clip-path="url(#pdd87156c02)" style="fill: #1f77b4"/>
   </g>
   <g id="patch_71">
    <path d="M 170.497048 273.312 
L 172.116299 273.312 
L 172.116299 75.777882 
L 170.497048 75.777882 
z
" clip-path="url(#pdd87156c02)" style="fill: #1f77b4"/>
   </g>
   <g id="patch_72">
    <path d="M 172.116299 273.312 
L 173.735551 273.312 
L 173.735551 60.869647 
L 172.116299 60.869647 
z
" clip-path="url(#pdd87156c02)" style="fill: #1f77b4"/>
   </g>
   <g id="patch_73">
    <path d="M 173.735551 273.312 
L 175.354802 273.312 
L 175.354802 54.160941 
L 173.735551 54.160941 
z
" clip-path="url(#pdd87156c02)" style="fill: #1f77b4"/>
   </g>
   <g id="patch_74">
    <path d="M 175.354802 273.312 
L 176.974053 273.312 
L 176.974053 55.651765 
L 175.354802 55.651765 
z
" clip-path="url(#pdd87156c02)" style="fill: #1f77b4"/>
   </g>
   <g id="patch_75">
    <path d="M 176.974053 273.312 
L 178.593305 273.312 
L 178.593305 58.633412 
L 176.974053 58.633412 
z
" clip-path="url(#pdd87156c02)" style="fill: #1f77b4"/>
   </g>
   <g id="patch_76">
    <path d="M 178.593305 273.312 
L 180.212556 273.312 
L 180.212556 63.851294 
L 178.593305 63.851294 
z
" clip-path="url(#pdd87156c02)" style="fill: #1f77b4"/>
   </g>
   <g id="patch_77">
    <path d="M 180.212556 273.312 
L 181.831808 273.312 
L 181.831808 51.924706 
L 180.212556 51.924706 
z
" clip-path="url(#pdd87156c02)" style="fill: #1f77b4"/>
   </g>
   <g id="patch_78">
    <path d="M 181.831808 273.312 
L 183.451059 273.312 
L 183.451059 36.271059 
L 181.831808 36.271059 
z
" clip-path="url(#pdd87156c02)" style="fill: #1f77b4"/>
   </g>
   <g id="patch_79">
    <path d="M 183.451059 273.312 
L 185.070311 273.312 
L 185.070311 54.160941 
L 183.451059 54.160941 
z
" clip-path="url(#pdd87156c02)" style="fill: #1f77b4"/>
   </g>
   <g id="patch_80">
    <path d="M 185.070311 273.312 
L 186.689562 273.312 
L 186.689562 66.087529 
L 185.070311 66.087529 
z
" clip-path="url(#pdd87156c02)" style="fill: #1f77b4"/>
   </g>
   <g id="patch_81">
    <path d="M 186.689562 273.312 
L 188.308813 273.312 
L 188.308813 42.979765 
L 186.689562 42.979765 
z
" clip-path="url(#pdd87156c02)" style="fill: #1f77b4"/>
   </g>
   <g id="patch_82">
    <path d="M 188.308813 273.312 
L 189.928065 273.312 
L 189.928065 28.071529 
L 188.308813 28.071529 
z
" clip-path="url(#pdd87156c02)" style="fill: #1f77b4"/>
   </g>
   <g id="patch_83">
    <path d="M 189.928065 273.312 
L 191.547316 273.312 
L 191.547316 42.234353 
L 189.928065 42.234353 
z
" clip-path="url(#pdd87156c02)" style="fill: #1f77b4"/>
   </g>
   <g id="patch_84">
    <path d="M 191.547316 273.312 
L 193.166568 273.312 
L 193.166568 72.050824 
L 191.547316 72.050824 
z
" clip-path="url(#pdd87156c02)" style="fill: #1f77b4"/>
   </g>
   <g id="patch_85">
    <path d="M 193.166568 273.312 
L 194.785819 273.312 
L 194.785819 48.197647 
L 193.166568 48.197647 
z
" clip-path="url(#pdd87156c02)" style="fill: #1f77b4"/>
   </g>
   <g id="patch_86">
    <path d="M 194.785819 273.312 
L 196.40507 273.312 
L 196.40507 57.142588 
L 194.785819 57.142588 
z
" clip-path="url(#pdd87156c02)" style="fill: #1f77b4"/>
   </g>
   <g id="patch_87">
    <path d="M 196.40507 273.312 
L 198.024322 273.312 
L 198.024322 46.706824 
L 196.40507 46.706824 
z
" clip-path="url(#pdd87156c02)" style="fill: #1f77b4"/>
   </g>
   <g id="patch_88">
    <path d="M 198.024322 273.312 
L 199.643573 273.312 
L 199.643573 57.142588 
L 198.024322 57.142588 
z
" clip-path="url(#pdd87156c02)" style="fill: #1f77b4"/>
   </g>
   <g id="patch_89">
    <path d="M 199.643573 273.312 
L 201.262825 273.312 
L 201.262825 41.488941 
L 199.643573 41.488941 
z
" clip-path="url(#pdd87156c02)" style="fill: #1f77b4"/>
   </g>
   <g id="patch_90">
    <path d="M 201.262825 273.312 
L 202.882076 273.312 
L 202.882076 47.452235 
L 201.262825 47.452235 
z
" clip-path="url(#pdd87156c02)" style="fill: #1f77b4"/>
   </g>
   <g id="patch_91">
    <path d="M 202.882076 273.312 
L 204.501328 273.312 
L 204.501328 40.743529 
L 202.882076 40.743529 
z
" clip-path="url(#pdd87156c02)" style="fill: #1f77b4"/>
   </g>
   <g id="patch_92">
    <path d="M 204.501328 273.312 
L 206.120579 273.312 
L 206.120579 39.998118 
L 204.501328 39.998118 
z
" clip-path="url(#pdd87156c02)" style="fill: #1f77b4"/>
   </g>
   <g id="patch_93">
    <path d="M 206.120579 273.312 
L 207.73983 273.312 
L 207.73983 40.743529 
L 206.120579 40.743529 
z
" clip-path="url(#pdd87156c02)" style="fill: #1f77b4"/>
   </g>
   <g id="patch_94">
    <path d="M 207.73983 273.312 
L 209.359082 273.312 
L 209.359082 54.160941 
L 207.73983 54.160941 
z
" clip-path="url(#pdd87156c02)" style="fill: #1f77b4"/>
   </g>
   <g id="patch_95">
    <path d="M 209.359082 273.312 
L 210.978333 273.312 
L 210.978333 39.998118 
L 209.359082 39.998118 
z
" clip-path="url(#pdd87156c02)" style="fill: #1f77b4"/>
   </g>
   <g id="patch_96">
    <path d="M 210.978333 273.312 
L 212.597585 273.312 
L 212.597585 21.362824 
L 210.978333 21.362824 
z
" clip-path="url(#pdd87156c02)" style="fill: #1f77b4"/>
   </g>
   <g id="patch_97">
    <path d="M 212.597585 273.312 
L 214.216836 273.312 
L 214.216836 36.271059 
L 212.597585 36.271059 
z
" clip-path="url(#pdd87156c02)" style="fill: #1f77b4"/>
   </g>
   <g id="patch_98">
    <path d="M 214.216836 273.312 
L 215.836088 273.312 
L 215.836088 61.615059 
L 214.216836 61.615059 
z
" clip-path="url(#pdd87156c02)" style="fill: #1f77b4"/>
   </g>
   <g id="patch_99">
    <path d="M 215.836088 273.312 
L 217.455339 273.312 
L 217.455339 62.360471 
L 215.836088 62.360471 
z
" clip-path="url(#pdd87156c02)" style="fill: #1f77b4"/>
   </g>
   <g id="patch_100">
    <path d="M 217.455339 273.312 
L 219.07459 273.312 
L 219.07459 28.816941 
L 217.455339 28.816941 
z
" clip-path="url(#pdd87156c02)" style="fill: #1f77b4"/>
   </g>
   <g id="patch_101">
    <path d="M 219.07459 273.312 
L 220.693842 273.312 
L 220.693842 57.142588 
L 219.07459 57.142588 
z
" clip-path="url(#pdd87156c02)" style="fill: #1f77b4"/>
   </g>
   <g id="patch_102">
    <path d="M 220.693842 273.312 
L 222.313093 273.312 
L 222.313093 54.160941 
L 220.693842 54.160941 
z
" clip-path="url(#pdd87156c02)" style="fill: #1f77b4"/>
   </g>
   <g id="patch_103">
    <path d="M 222.313093 273.312 
L 223.932345 273.312 
L 223.932345 24.344471 
L 222.313093 24.344471 
z
" clip-path="url(#pdd87156c02)" style="fill: #1f77b4"/>
   </g>
   <g id="patch_104">
    <path d="M 223.932345 273.312 
L 225.551596 273.312 
L 225.551596 45.216 
L 223.932345 45.216 
z
" clip-path="url(#pdd87156c02)" style="fill: #1f77b4"/>
   </g>
   <g id="patch_105">
    <path d="M 225.551596 273.312 
L 227.170848 273.312 
L 227.170848 19.872 
L 225.551596 19.872 
z
" clip-path="url(#pdd87156c02)" style="fill: #1f77b4"/>
   </g>
   <g id="patch_106">
    <path d="M 227.170848 273.312 
L 228.790099 273.312 
L 228.790099 39.998118 
L 227.170848 39.998118 
z
" clip-path="url(#pdd87156c02)" style="fill: #1f77b4"/>
   </g>
   <g id="patch_107">
    <path d="M 228.790099 273.312 
L 230.40935 273.312 
L 230.40935 35.525647 
L 228.790099 35.525647 
z
" clip-path="url(#pdd87156c02)" style="fill: #1f77b4"/>
   </g>
   <g id="patch_108">
    <path d="M 230.40935 273.312 
L 232.028602 273.312 
L 232.028602 39.998118 
L 230.40935 39.998118 
z
" clip-path="url(#pdd87156c02)" style="fill: #1f77b4"/>
   </g>
   <g id="patch_109">
    <path d="M 232.028602 273.312 
L 233.647853 273.312 
L 233.647853 45.216 
L 232.028602 45.216 
z
" clip-path="url(#pdd87156c02)" style="fill: #1f77b4"/>
   </g>
   <g id="patch_110">
    <path d="M 233.647853 273.312 
L 235.267105 273.312 
L 235.267105 36.271059 
L 233.647853 36.271059 
z
" clip-path="url(#pdd87156c02)" style="fill: #1f77b4"/>
   </g>
   <g id="patch_111">
    <path d="M 235.267105 273.312 
L 236.886356 273.312 
L 236.886356 37.016471 
L 235.267105 37.016471 
z
" clip-path="url(#pdd87156c02)" style="fill: #1f77b4"/>
   </g>
   <g id="patch_112">
    <path d="M 236.886356 273.312 
L 238.505608 273.312 
L 238.505608 49.688471 
L 236.886356 49.688471 
z
" clip-path="url(#pdd87156c02)" style="fill: #1f77b4"/>
   </g>
   <g id="patch_113">
    <path d="M 238.505608 273.312 
L 240.124859 273.312 
L 240.124859 29.562353 
L 238.505608 29.562353 
z
" clip-path="url(#pdd87156c02)" style="fill: #1f77b4"/>
   </g>
   <g id="patch_114">
    <path d="M 240.124859 273.312 
L 241.74411 273.312 
L 241.74411 36.271059 
L 240.124859 36.271059 
z
" clip-path="url(#pdd87156c02)" style="fill: #1f77b4"/>
   </g>
   <g id="patch_115">
    <path d="M 241.74411 273.312 
L 243.363362 273.312 
L 243.363362 45.961412 
L 241.74411 45.961412 
z
" clip-path="url(#pdd87156c02)" style="fill: #1f77b4"/>
   </g>
   <g id="patch_116">
    <path d="M 243.363362 273.312 
L 244.982613 273.312 
L 244.982613 52.670118 
L 243.363362 52.670118 
z
" clip-path="url(#pdd87156c02)" style="fill: #1f77b4"/>
   </g>
   <g id="patch_117">
    <path d="M 244.982613 273.312 
L 246.601865 273.312 
L 246.601865 47.452235 
L 244.982613 47.452235 
z
" clip-path="url(#pdd87156c02)" style="fill: #1f77b4"/>
   </g>
   <g id="patch_118">
    <path d="M 246.601865 273.312 
L 248.221116 273.312 
L 248.221116 54.906353 
L 246.601865 54.906353 
z
" clip-path="url(#pdd87156c02)" style="fill: #1f77b4"/>
   </g>
   <g id="patch_119">
    <path d="M 248.221116 273.312 
L 249.840368 273.312 
L 249.840368 44.470588 
L 248.221116 44.470588 
z
" clip-path="url(#pdd87156c02)" style="fill: #1f77b4"/>
   </g>
   <g id="patch_120">
    <path d="M 249.840368 273.312 
L 251.459619 273.312 
L 251.459619 43.725176 
L 249.840368 43.725176 
z
" clip-path="url(#pdd87156c02)" style="fill: #1f77b4"/>
   </g>
   <g id="patch_121">
    <path d="M 251.459619 273.312 
L 253.07887 273.312 
L 253.07887 51.924706 
L 251.459619 51.924706 
z
" clip-path="url(#pdd87156c02)" style="fill: #1f77b4"/>
   </g>
   <g id="patch_122">
    <path d="M 253.07887 273.312 
L 254.698122 273.312 
L 254.698122 34.034824 
L 253.07887 34.034824 
z
" clip-path="url(#pdd87156c02)" style="fill: #1f77b4"/>
   </g>
   <g id="patch_123">
    <path d="M 254.698122 273.312 
L 256.317373 273.312 
L 256.317373 58.633412 
L 254.698122 58.633412 
z
" clip-path="url(#pdd87156c02)" style="fill: #1f77b4"/>
   </g>
   <g id="patch_124">
    <path d="M 256.317373 273.312 
L 257.936625 273.312 
L 257.936625 57.142588 
L 256.317373 57.142588 
z
" clip-path="url(#pdd87156c02)" style="fill: #1f77b4"/>
   </g>
   <g id="patch_125">
    <path d="M 257.936625 273.312 
L 259.555876 273.312 
L 259.555876 54.160941 
L 257.936625 54.160941 
z
" clip-path="url(#pdd87156c02)" style="fill: #1f77b4"/>
   </g>
   <g id="patch_126">
    <path d="M 259.555876 273.312 
L 261.175128 273.312 
L 261.175128 55.651765 
L 259.555876 55.651765 
z
" clip-path="url(#pdd87156c02)" style="fill: #1f77b4"/>
   </g>
   <g id="patch_127">
    <path d="M 261.175128 273.312 
L 262.794379 273.312 
L 262.794379 48.197647 
L 261.175128 48.197647 
z
" clip-path="url(#pdd87156c02)" style="fill: #1f77b4"/>
   </g>
   <g id="patch_128">
    <path d="M 262.794379 273.312 
L 264.41363 273.312 
L 264.41363 48.943059 
L 262.794379 48.943059 
z
" clip-path="url(#pdd87156c02)" style="fill: #1f77b4"/>
   </g>
   <g id="patch_129">
    <path d="M 264.41363 273.312 
L 266.032882 273.312 
L 266.032882 54.160941 
L 264.41363 54.160941 
z
" clip-path="url(#pdd87156c02)" style="fill: #1f77b4"/>
   </g>
   <g id="patch_130">
    <path d="M 266.032882 273.312 
L 267.652133 273.312 
L 267.652133 46.706824 
L 266.032882 46.706824 
z
" clip-path="url(#pdd87156c02)" style="fill: #1f77b4"/>
   </g>
   <g id="patch_131">
    <path d="M 267.652133 273.312 
L 269.271385 273.312 
L 269.271385 59.378824 
L 267.652133 59.378824 
z
" clip-path="url(#pdd87156c02)" style="fill: #1f77b4"/>
   </g>
   <g id="patch_132">
    <path d="M 269.271385 273.312 
L 270.890636 273.312 
L 270.890636 43.725176 
L 269.271385 43.725176 
z
" clip-path="url(#pdd87156c02)" style="fill: #1f77b4"/>
   </g>
   <g id="patch_133">
    <path d="M 270.890636 273.312 
L 272.509887 273.312 
L 272.509887 75.032471 
L 270.890636 75.032471 
z
" clip-path="url(#pdd87156c02)" style="fill: #1f77b4"/>
   </g>
   <g id="patch_134">
    <path d="M 272.509887 273.312 
L 274.129139 273.312 
L 274.129139 81.741176 
L 272.509887 81.741176 
z
" clip-path="url(#pdd87156c02)" style="fill: #1f77b4"/>
   </g>
   <g id="patch_135">
    <path d="M 274.129139 273.312 
L 275.74839 273.312 
L 275.74839 66.832941 
L 274.129139 66.832941 
z
" clip-path="url(#pdd87156c02)" style="fill: #1f77b4"/>
   </g>
   <g id="patch_136">
    <path d="M 275.74839 273.312 
L 277.367642 273.312 
L 277.367642 55.651765 
L 275.74839 55.651765 
z
" clip-path="url(#pdd87156c02)" style="fill: #1f77b4"/>
   </g>
   <g id="patch_137">
    <path d="M 277.367642 273.312 
L 278.986893 273.312 
L 278.986893 64.596706 
L 277.367642 64.596706 
z
" clip-path="url(#pdd87156c02)" style="fill: #1f77b4"/>
   </g>
   <g id="patch_138">
    <path d="M 278.986893 273.312 
L 280.606145 273.312 
L 280.606145 70.56 
L 278.986893 70.56 
z
" clip-path="url(#pdd87156c02)" style="fill: #1f77b4"/>
   </g>
   <g id="patch_139">
    <path d="M 280.606145 273.312 
L 282.225396 273.312 
L 282.225396 80.995765 
L 280.606145 80.995765 
z
" clip-path="url(#pdd87156c02)" style="fill: #1f77b4"/>
   </g>
   <g id="patch_140">
    <path d="M 282.225396 273.312 
L 283.844647 273.312 
L 283.844647 89.195294 
L 282.225396 89.195294 
z
" clip-path="url(#pdd87156c02)" style="fill: #1f77b4"/>
   </g>
   <g id="patch_141">
    <path d="M 283.844647 273.312 
L 285.463899 273.312 
L 285.463899 73.541647 
L 283.844647 73.541647 
z
" clip-path="url(#pdd87156c02)" style="fill: #1f77b4"/>
   </g>
   <g id="patch_142">
    <path d="M 285.463899 273.312 
L 287.08315 273.312 
L 287.08315 92.922353 
L 285.463899 92.922353 
z
" clip-path="url(#pdd87156c02)" style="fill: #1f77b4"/>
   </g>
   <g id="patch_143">
    <path d="M 287.08315 273.312 
L 288.702402 273.312 
L 288.702402 83.977412 
L 287.08315 83.977412 
z
" clip-path="url(#pdd87156c02)" style="fill: #1f77b4"/>
   </g>
   <g id="patch_144">
    <path d="M 288.702402 273.312 
L 290.321653 273.312 
L 290.321653 63.851294 
L 288.702402 63.851294 
z
" clip-path="url(#pdd87156c02)" style="fill: #1f77b4"/>
   </g>
   <g id="patch_145">
    <path d="M 290.321653 273.312 
L 291.940905 273.312 
L 291.940905 86.213647 
L 290.321653 86.213647 
z
" clip-path="url(#pdd87156c02)" style="fill: #1f77b4"/>
   </g>
   <g id="patch_146">
    <path d="M 291.940905 273.312 
L 293.560156 273.312 
L 293.560156 96.649412 
L 291.940905 96.649412 
z
" clip-path="url(#pdd87156c02)" style="fill: #1f77b4"/>
   </g>
   <g id="patch_147">
    <path d="M 293.560156 273.312 
L 295.179407 273.312 
L 295.179407 113.793882 
L 293.560156 113.793882 
z
" clip-path="url(#pdd87156c02)" style="fill: #1f77b4"/>
   </g>
   <g id="patch_148">
    <path d="M 295.179407 273.312 
L 296.798659 273.312 
L 296.798659 103.358118 
L 295.179407 103.358118 
z
" clip-path="url(#pdd87156c02)" style="fill: #1f77b4"/>
   </g>
   <g id="patch_149">
    <path d="M 296.798659 273.312 
L 298.41791 273.312 
L 298.41791 91.431529 
L 296.798659 91.431529 
z
" clip-path="url(#pdd87156c02)" style="fill: #1f77b4"/>
   </g>
   <g id="patch_150">
    <path d="M 298.41791 273.312 
L 300.037162 273.312 
L 300.037162 99.631059 
L 298.41791 99.631059 
z
" clip-path="url(#pdd87156c02)" style="fill: #1f77b4"/>
   </g>
   <g id="patch_151">
    <path d="M 300.037162 273.312 
L 301.656413 273.312 
L 301.656413 112.303059 
L 300.037162 112.303059 
z
" clip-path="url(#pdd87156c02)" style="fill: #1f77b4"/>
   </g>
   <g id="patch_152">
    <path d="M 301.656413 273.312 
L 303.275665 273.312 
L 303.275665 92.176941 
L 301.656413 92.176941 
z
" clip-path="url(#pdd87156c02)" style="fill: #1f77b4"/>
   </g>
   <g id="patch_153">
    <path d="M 303.275665 273.312 
L 304.894916 273.312 
L 304.894916 110.066824 
L 303.275665 110.066824 
z
" clip-path="url(#pdd87156c02)" style="fill: #1f77b4"/>
   </g>
   <g id="patch_154">
    <path d="M 304.894916 273.312 
L 306.514167 273.312 
L 306.514167 112.303059 
L 304.894916 112.303059 
z
" clip-path="url(#pdd87156c02)" style="fill: #1f77b4"/>
   </g>
   <g id="patch_155">
    <path d="M 306.514167 273.312 
L 308.133419 273.312 
L 308.133419 133.174588 
L 306.514167 133.174588 
z
" clip-path="url(#pdd87156c02)" style="fill: #1f77b4"/>
   </g>
   <g id="patch_156">
    <path d="M 308.133419 273.312 
L 309.75267 273.312 
L 309.75267 107.830588 
L 308.133419 107.830588 
z
" clip-path="url(#pdd87156c02)" style="fill: #1f77b4"/>
   </g>
   <g id="patch_157">
    <path d="M 309.75267 273.312 
L 311.371922 273.312 
L 311.371922 144.355765 
L 309.75267 144.355765 
z
" clip-path="url(#pdd87156c02)" style="fill: #1f77b4"/>
   </g>
   <g id="patch_158">
    <path d="M 311.371922 273.312 
L 312.991173 273.312 
L 312.991173 109.321412 
L 311.371922 109.321412 
z
" clip-path="url(#pdd87156c02)" style="fill: #1f77b4"/>
   </g>
   <g id="patch_159">
    <path d="M 312.991173 273.312 
L 314.610425 273.312 
L 314.610425 127.211294 
L 312.991173 127.211294 
z
" clip-path="url(#pdd87156c02)" style="fill: #1f77b4"/>
   </g>
   <g id="patch_160">
    <path d="M 314.610425 273.312 
L 316.229676 273.312 
L 316.229676 135.410824 
L 314.610425 135.410824 
z
" clip-path="url(#pdd87156c02)" style="fill: #1f77b4"/>
   </g>
   <g id="patch_161">
    <path d="M 316.229676 273.312 
L 317.848927 273.312 
L 317.848927 136.156235 
L 316.229676 136.156235 
z
" clip-path="url(#pdd87156c02)" style="fill: #1f77b4"/>
   </g>
   <g id="patch_162">
    <path d="M 317.848927 273.312 
L 319.468179 273.312 
L 319.468179 142.119529 
L 317.848927 142.119529 
z
" clip-path="url(#pdd87156c02)" style="fill: #1f77b4"/>
   </g>
   <g id="patch_163">
    <path d="M 319.468179 273.312 
L 321.08743 273.312 
L 321.08743 144.355765 
L 319.468179 144.355765 
z
" clip-path="url(#pdd87156c02)" style="fill: #1f77b4"/>
   </g>
   <g id="patch_164">
    <path d="M 321.08743 273.312 
L 322.706682 273.312 
L 322.706682 135.410824 
L 321.08743 135.410824 
z
" clip-path="url(#pdd87156c02)" style="fill: #1f77b4"/>
   </g>
   <g id="patch_165">
    <path d="M 322.706682 273.312 
L 324.325933 273.312 
L 324.325933 142.864941 
L 322.706682 142.864941 
z
" clip-path="url(#pdd87156c02)" style="fill: #1f77b4"/>
   </g>
   <g id="patch_166">
    <path d="M 324.325933 273.312 
L 325.945185 273.312 
L 325.945185 152.555294 
L 324.325933 152.555294 
z
" clip-path="url(#pdd87156c02)" style="fill: #1f77b4"/>
   </g>
   <g id="patch_167">
    <path d="M 325.945185 273.312 
L 327.564436 273.312 
L 327.564436 141.374118 
L 325.945185 141.374118 
z
" clip-path="url(#pdd87156c02)" style="fill: #1f77b4"/>
   </g>
   <g id="patch_168">
    <path d="M 327.564436 273.312 
L 329.183687 273.312 
L 329.183687 153.300706 
L 327.564436 153.300706 
z
" clip-path="url(#pdd87156c02)" style="fill: #1f77b4"/>
   </g>
   <g id="patch_169">
    <path d="M 329.183687 273.312 
L 330.802939 273.312 
L 330.802939 151.809882 
L 329.183687 151.809882 
z
" clip-path="url(#pdd87156c02)" style="fill: #1f77b4"/>
   </g>
   <g id="patch_170">
    <path d="M 330.802939 273.312 
L 332.42219 273.312 
L 332.42219 162.991059 
L 330.802939 162.991059 
z
" clip-path="url(#pdd87156c02)" style="fill: #1f77b4"/>
   </g>
   <g id="patch_171">
    <path d="M 332.42219 273.312 
L 334.041442 273.312 
L 334.041442 166.718118 
L 332.42219 166.718118 
z
" clip-path="url(#pdd87156c02)" style="fill: #1f77b4"/>
   </g>
   <g id="patch_172">
    <path d="M 334.041442 273.312 
L 335.660693 273.312 
L 335.660693 180.135529 
L 334.041442 180.135529 
z
" clip-path="url(#pdd87156c02)" style="fill: #1f77b4"/>
   </g>
   <g id="patch_173">
    <path d="M 335.660693 273.312 
L 337.279945 273.312 
L 337.279945 175.663059 
L 335.660693 175.663059 
z
" clip-path="url(#pdd87156c02)" style="fill: #1f77b4"/>
   </g>
   <g id="patch_174">
    <path d="M 337.279945 273.312 
L 338.899196 273.312 
L 338.899196 160.754824 
L 337.279945 160.754824 
z
" clip-path="url(#pdd87156c02)" style="fill: #1f77b4"/>
   </g>
   <g id="patch_175">
    <path d="M 338.899196 273.312 
L 340.518447 273.312 
L 340.518447 181.626353 
L 338.899196 181.626353 
z
" clip-path="url(#pdd87156c02)" style="fill: #1f77b4"/>
   </g>
   <g id="patch_176">
    <path d="M 340.518447 273.312 
L 342.137699 273.312 
L 342.137699 186.844235 
L 340.518447 186.844235 
z
" clip-path="url(#pdd87156c02)" style="fill: #1f77b4"/>
   </g>
   <g id="patch_177">
    <path d="M 342.137699 273.312 
L 343.75695 273.312 
L 343.75695 168.954353 
L 342.137699 168.954353 
z
" clip-path="url(#pdd87156c02)" style="fill: #1f77b4"/>
   </g>
   <g id="patch_178">
    <path d="M 343.75695 273.312 
L 345.376202 273.312 
L 345.376202 176.408471 
L 343.75695 176.408471 
z
" clip-path="url(#pdd87156c02)" style="fill: #1f77b4"/>
   </g>
   <g id="patch_179">
    <path d="M 345.376202 273.312 
L 346.995453 273.312 
L 346.995453 186.098824 
L 345.376202 186.098824 
z
" clip-path="url(#pdd87156c02)" style="fill: #1f77b4"/>
   </g>
   <g id="patch_180">
    <path d="M 346.995453 273.312 
L 348.614704 273.312 
L 348.614704 179.390118 
L 346.995453 179.390118 
z
" clip-path="url(#pdd87156c02)" style="fill: #1f77b4"/>
   </g>
   <g id="patch_181">
    <path d="M 348.614704 273.312 
L 350.233956 273.312 
L 350.233956 193.552941 
L 348.614704 193.552941 
z
" clip-path="url(#pdd87156c02)" style="fill: #1f77b4"/>
   </g>
   <g id="patch_182">
    <path d="M 350.233956 273.312 
L 351.853207 273.312 
L 351.853207 204.734118 
L 350.233956 204.734118 
z
" clip-path="url(#pdd87156c02)" style="fill: #1f77b4"/>
   </g>
   <g id="patch_183">
    <path d="M 351.853207 273.312 
L 353.472459 273.312 
L 353.472459 203.988706 
L 351.853207 203.988706 
z
" clip-path="url(#pdd87156c02)" style="fill: #1f77b4"/>
   </g>
   <g id="patch_184">
    <path d="M 353.472459 273.312 
L 355.09171 273.312 
L 355.09171 211.442824 
L 353.472459 211.442824 
z
" clip-path="url(#pdd87156c02)" style="fill: #1f77b4"/>
   </g>
   <g id="patch_185">
    <path d="M 355.09171 273.312 
L 356.710962 273.312 
L 356.710962 220.387765 
L 355.09171 220.387765 
z
" clip-path="url(#pdd87156c02)" style="fill: #1f77b4"/>
   </g>
   <g id="patch_186">
    <path d="M 356.710962 273.312 
L 358.330213 273.312 
L 358.330213 205.479529 
L 356.710962 205.479529 
z
" clip-path="url(#pdd87156c02)" style="fill: #1f77b4"/>
   </g>
   <g id="patch_187">
    <path d="M 358.330213 273.312 
L 359.949464 273.312 
L 359.949464 224.114824 
L 358.330213 224.114824 
z
" clip-path="url(#pdd87156c02)" style="fill: #1f77b4"/>
   </g>
   <g id="patch_188">
    <path d="M 359.949464 273.312 
L 361.568716 273.312 
L 361.568716 223.369412 
L 359.949464 223.369412 
z
" clip-path="url(#pdd87156c02)" style="fill: #1f77b4"/>
   </g>
   <g id="patch_189">
    <path d="M 361.568716 273.312 
L 363.187967 273.312 
L 363.187967 227.096471 
L 361.568716 227.096471 
z
" clip-path="url(#pdd87156c02)" style="fill: #1f77b4"/>
   </g>
   <g id="patch_190">
    <path d="M 363.187967 273.312 
L 364.807219 273.312 
L 364.807219 232.314353 
L 363.187967 232.314353 
z
" clip-path="url(#pdd87156c02)" style="fill: #1f77b4"/>
   </g>
   <g id="patch_191">
    <path d="M 364.807219 273.312 
L 366.42647 273.312 
L 366.42647 229.332706 
L 364.807219 229.332706 
z
" clip-path="url(#pdd87156c02)" style="fill: #1f77b4"/>
   </g>
   <g id="patch_192">
    <path d="M 366.42647 273.312 
L 368.045722 273.312 
L 368.045722 236.786824 
L 366.42647 236.786824 
z
" clip-path="url(#pdd87156c02)" style="fill: #1f77b4"/>
   </g>
   <g id="patch_193">
    <path d="M 368.045722 273.312 
L 369.664973 273.312 
L 369.664973 232.314353 
L 368.045722 232.314353 
z
" clip-path="url(#pdd87156c02)" style="fill: #1f77b4"/>
   </g>
   <g id="patch_194">
    <path d="M 369.664973 273.312 
L 371.284224 273.312 
L 371.284224 240.513882 
L 369.664973 240.513882 
z
" clip-path="url(#pdd87156c02)" style="fill: #1f77b4"/>
   </g>
   <g id="patch_195">
    <path d="M 371.284224 273.312 
L 372.903476 273.312 
L 372.903476 239.768471 
L 371.284224 239.768471 
z
" clip-path="url(#pdd87156c02)" style="fill: #1f77b4"/>
   </g>
   <g id="patch_196">
    <path d="M 372.903476 273.312 
L 374.522727 273.312 
L 374.522727 252.440471 
L 372.903476 252.440471 
z
" clip-path="url(#pdd87156c02)" style="fill: #1f77b4"/>
   </g>
   <g id="patch_197">
    <path d="M 374.522727 273.312 
L 376.141979 273.312 
L 376.141979 250.204235 
L 374.522727 250.204235 
z
" clip-path="url(#pdd87156c02)" style="fill: #1f77b4"/>
   </g>
   <g id="patch_198">
    <path d="M 376.141979 273.312 
L 377.76123 273.312 
L 377.76123 253.931294 
L 376.141979 253.931294 
z
" clip-path="url(#pdd87156c02)" style="fill: #1f77b4"/>
   </g>
   <g id="patch_199">
    <path d="M 377.76123 273.312 
L 379.380482 273.312 
L 379.380482 263.621647 
L 377.76123 263.621647 
z
" clip-path="url(#pdd87156c02)" style="fill: #1f77b4"/>
   </g>
   <g id="patch_200">
    <path d="M 379.380482 273.312 
L 380.999733 273.312 
L 380.999733 262.130824 
L 379.380482 262.130824 
z
" clip-path="url(#pdd87156c02)" style="fill: #1f77b4"/>
   </g>
   <g id="patch_201">
    <path d="M 380.999733 273.312 
L 382.618984 273.312 
L 382.618984 268.839529 
L 380.999733 268.839529 
z
" clip-path="url(#pdd87156c02)" style="fill: #1f77b4"/>
   </g>
   <g id="patch_202">
    <path d="M 382.618984 273.312 
L 384.238236 273.312 
L 384.238236 269.584941 
L 382.618984 269.584941 
z
" clip-path="url(#pdd87156c02)" style="fill: #1f77b4"/>
   </g>
   <g id="matplotlib.axis_1">
    <g id="xtick_1">
     <g id="line2d_1">
      <defs>
       <path id="m3e66a56afc" d="M 0 0 
L 0 3.5 
" style="stroke: #000000; stroke-width: 0.8"/>
      </defs>
      <g>
       <use xlink:href="#m3e66a56afc" x="60.013977" y="273.312" style="stroke: #000000; stroke-width: 0.8"/>
      </g>
     </g>
     <g id="text_1">
      <!-- 0.0 -->
      <g transform="translate(52.062415 287.910437)scale(0.1 -0.1)">
       <defs>
        <path id="DejaVuSans-30" d="M 2034 4250 
Q 1547 4250 1301 3770 
Q 1056 3291 1056 2328 
Q 1056 1369 1301 889 
Q 1547 409 2034 409 
Q 2525 409 2770 889 
Q 3016 1369 3016 2328 
Q 3016 3291 2770 3770 
Q 2525 4250 2034 4250 
z
M 2034 4750 
Q 2819 4750 3233 4129 
Q 3647 3509 3647 2328 
Q 3647 1150 3233 529 
Q 2819 -91 2034 -91 
Q 1250 -91 836 529 
Q 422 1150 422 2328 
Q 422 3509 836 4129 
Q 1250 4750 2034 4750 
z
" transform="scale(0.015625)"/>
        <path id="DejaVuSans-2e" d="M 684 794 
L 1344 794 
L 1344 0 
L 684 0 
L 684 794 
z
" transform="scale(0.015625)"/>
       </defs>
       <use xlink:href="#DejaVuSans-30"/>
       <use xlink:href="#DejaVuSans-2e" x="63.623047"/>
       <use xlink:href="#DejaVuSans-30" x="95.410156"/>
      </g>
     </g>
    </g>
    <g id="xtick_2">
     <g id="line2d_2">
      <g>
       <use xlink:href="#m3e66a56afc" x="101.350278" y="273.312" style="stroke: #000000; stroke-width: 0.8"/>
      </g>
     </g>
     <g id="text_2">
      <!-- 0.2 -->
      <g transform="translate(93.398715 287.910437)scale(0.1 -0.1)">
       <defs>
        <path id="DejaVuSans-32" d="M 1228 531 
L 3431 531 
L 3431 0 
L 469 0 
L 469 531 
Q 828 903 1448 1529 
Q 2069 2156 2228 2338 
Q 2531 2678 2651 2914 
Q 2772 3150 2772 3378 
Q 2772 3750 2511 3984 
Q 2250 4219 1831 4219 
Q 1534 4219 1204 4116 
Q 875 4013 500 3803 
L 500 4441 
Q 881 4594 1212 4672 
Q 1544 4750 1819 4750 
Q 2544 4750 2975 4387 
Q 3406 4025 3406 3419 
Q 3406 3131 3298 2873 
Q 3191 2616 2906 2266 
Q 2828 2175 2409 1742 
Q 1991 1309 1228 531 
z
" transform="scale(0.015625)"/>
       </defs>
       <use xlink:href="#DejaVuSans-30"/>
       <use xlink:href="#DejaVuSans-2e" x="63.623047"/>
       <use xlink:href="#DejaVuSans-32" x="95.410156"/>
      </g>
     </g>
    </g>
    <g id="xtick_3">
     <g id="line2d_3">
      <g>
       <use xlink:href="#m3e66a56afc" x="142.686578" y="273.312" style="stroke: #000000; stroke-width: 0.8"/>
      </g>
     </g>
     <g id="text_3">
      <!-- 0.4 -->
      <g transform="translate(134.735016 287.910437)scale(0.1 -0.1)">
       <defs>
        <path id="DejaVuSans-34" d="M 2419 4116 
L 825 1625 
L 2419 1625 
L 2419 4116 
z
M 2253 4666 
L 3047 4666 
L 3047 1625 
L 3713 1625 
L 3713 1100 
L 3047 1100 
L 3047 0 
L 2419 0 
L 2419 1100 
L 313 1100 
L 313 1709 
L 2253 4666 
z
" transform="scale(0.015625)"/>
       </defs>
       <use xlink:href="#DejaVuSans-30"/>
       <use xlink:href="#DejaVuSans-2e" x="63.623047"/>
       <use xlink:href="#DejaVuSans-34" x="95.410156"/>
      </g>
     </g>
    </g>
    <g id="xtick_4">
     <g id="line2d_4">
      <g>
       <use xlink:href="#m3e66a56afc" x="184.022879" y="273.312" style="stroke: #000000; stroke-width: 0.8"/>
      </g>
     </g>
     <g id="text_4">
      <!-- 0.6 -->
      <g transform="translate(176.071316 287.910437)scale(0.1 -0.1)">
       <defs>
        <path id="DejaVuSans-36" d="M 2113 2584 
Q 1688 2584 1439 2293 
Q 1191 2003 1191 1497 
Q 1191 994 1439 701 
Q 1688 409 2113 409 
Q 2538 409 2786 701 
Q 3034 994 3034 1497 
Q 3034 2003 2786 2293 
Q 2538 2584 2113 2584 
z
M 3366 4563 
L 3366 3988 
Q 3128 4100 2886 4159 
Q 2644 4219 2406 4219 
Q 1781 4219 1451 3797 
Q 1122 3375 1075 2522 
Q 1259 2794 1537 2939 
Q 1816 3084 2150 3084 
Q 2853 3084 3261 2657 
Q 3669 2231 3669 1497 
Q 3669 778 3244 343 
Q 2819 -91 2113 -91 
Q 1303 -91 875 529 
Q 447 1150 447 2328 
Q 447 3434 972 4092 
Q 1497 4750 2381 4750 
Q 2619 4750 2861 4703 
Q 3103 4656 3366 4563 
z
" transform="scale(0.015625)"/>
       </defs>
       <use xlink:href="#DejaVuSans-30"/>
       <use xlink:href="#DejaVuSans-2e" x="63.623047"/>
       <use xlink:href="#DejaVuSans-36" x="95.410156"/>
      </g>
     </g>
    </g>
    <g id="xtick_5">
     <g id="line2d_5">
      <g>
       <use xlink:href="#m3e66a56afc" x="225.35918" y="273.312" style="stroke: #000000; stroke-width: 0.8"/>
      </g>
     </g>
     <g id="text_5">
      <!-- 0.8 -->
      <g transform="translate(217.407617 287.910437)scale(0.1 -0.1)">
       <defs>
        <path id="DejaVuSans-38" d="M 2034 2216 
Q 1584 2216 1326 1975 
Q 1069 1734 1069 1313 
Q 1069 891 1326 650 
Q 1584 409 2034 409 
Q 2484 409 2743 651 
Q 3003 894 3003 1313 
Q 3003 1734 2745 1975 
Q 2488 2216 2034 2216 
z
M 1403 2484 
Q 997 2584 770 2862 
Q 544 3141 544 3541 
Q 544 4100 942 4425 
Q 1341 4750 2034 4750 
Q 2731 4750 3128 4425 
Q 3525 4100 3525 3541 
Q 3525 3141 3298 2862 
Q 3072 2584 2669 2484 
Q 3125 2378 3379 2068 
Q 3634 1759 3634 1313 
Q 3634 634 3220 271 
Q 2806 -91 2034 -91 
Q 1263 -91 848 271 
Q 434 634 434 1313 
Q 434 1759 690 2068 
Q 947 2378 1403 2484 
z
M 1172 3481 
Q 1172 3119 1398 2916 
Q 1625 2713 2034 2713 
Q 2441 2713 2670 2916 
Q 2900 3119 2900 3481 
Q 2900 3844 2670 4047 
Q 2441 4250 2034 4250 
Q 1625 4250 1398 4047 
Q 1172 3844 1172 3481 
z
" transform="scale(0.015625)"/>
       </defs>
       <use xlink:href="#DejaVuSans-30"/>
       <use xlink:href="#DejaVuSans-2e" x="63.623047"/>
       <use xlink:href="#DejaVuSans-38" x="95.410156"/>
      </g>
     </g>
    </g>
    <g id="xtick_6">
     <g id="line2d_6">
      <g>
       <use xlink:href="#m3e66a56afc" x="266.69548" y="273.312" style="stroke: #000000; stroke-width: 0.8"/>
      </g>
     </g>
     <g id="text_6">
      <!-- 1.0 -->
      <g transform="translate(258.743918 287.910437)scale(0.1 -0.1)">
       <defs>
        <path id="DejaVuSans-31" d="M 794 531 
L 1825 531 
L 1825 4091 
L 703 3866 
L 703 4441 
L 1819 4666 
L 2450 4666 
L 2450 531 
L 3481 531 
L 3481 0 
L 794 0 
L 794 531 
z
" transform="scale(0.015625)"/>
       </defs>
       <use xlink:href="#DejaVuSans-31"/>
       <use xlink:href="#DejaVuSans-2e" x="63.623047"/>
       <use xlink:href="#DejaVuSans-30" x="95.410156"/>
      </g>
     </g>
    </g>
    <g id="xtick_7">
     <g id="line2d_7">
      <g>
       <use xlink:href="#m3e66a56afc" x="308.031781" y="273.312" style="stroke: #000000; stroke-width: 0.8"/>
      </g>
     </g>
     <g id="text_7">
      <!-- 1.2 -->
      <g transform="translate(300.080218 287.910437)scale(0.1 -0.1)">
       <use xlink:href="#DejaVuSans-31"/>
       <use xlink:href="#DejaVuSans-2e" x="63.623047"/>
       <use xlink:href="#DejaVuSans-32" x="95.410156"/>
      </g>
     </g>
    </g>
    <g id="xtick_8">
     <g id="line2d_8">
      <g>
       <use xlink:href="#m3e66a56afc" x="349.368081" y="273.312" style="stroke: #000000; stroke-width: 0.8"/>
      </g>
     </g>
     <g id="text_8">
      <!-- 1.4 -->
      <g transform="translate(341.416519 287.910437)scale(0.1 -0.1)">
       <use xlink:href="#DejaVuSans-31"/>
       <use xlink:href="#DejaVuSans-2e" x="63.623047"/>
       <use xlink:href="#DejaVuSans-34" x="95.410156"/>
      </g>
     </g>
    </g>
    <g id="xtick_9">
     <g id="line2d_9">
      <g>
       <use xlink:href="#m3e66a56afc" x="390.704382" y="273.312" style="stroke: #000000; stroke-width: 0.8"/>
      </g>
     </g>
     <g id="text_9">
      <!-- 1.6 -->
      <g transform="translate(382.752819 287.910437)scale(0.1 -0.1)">
       <use xlink:href="#DejaVuSans-31"/>
       <use xlink:href="#DejaVuSans-2e" x="63.623047"/>
       <use xlink:href="#DejaVuSans-36" x="95.410156"/>
      </g>
     </g>
    </g>
    <g id="text_10">
     <!-- Angle with normal (rad) -->
     <g transform="translate(163.023281 301.588562)scale(0.1 -0.1)">
      <defs>
       <path id="DejaVuSans-41" d="M 2188 4044 
L 1331 1722 
L 3047 1722 
L 2188 4044 
z
M 1831 4666 
L 2547 4666 
L 4325 0 
L 3669 0 
L 3244 1197 
L 1141 1197 
L 716 0 
L 50 0 
L 1831 4666 
z
" transform="scale(0.015625)"/>
       <path id="DejaVuSans-6e" d="M 3513 2113 
L 3513 0 
L 2938 0 
L 2938 2094 
Q 2938 2591 2744 2837 
Q 2550 3084 2163 3084 
Q 1697 3084 1428 2787 
Q 1159 2491 1159 1978 
L 1159 0 
L 581 0 
L 581 3500 
L 1159 3500 
L 1159 2956 
Q 1366 3272 1645 3428 
Q 1925 3584 2291 3584 
Q 2894 3584 3203 3211 
Q 3513 2838 3513 2113 
z
" transform="scale(0.015625)"/>
       <path id="DejaVuSans-67" d="M 2906 1791 
Q 2906 2416 2648 2759 
Q 2391 3103 1925 3103 
Q 1463 3103 1205 2759 
Q 947 2416 947 1791 
Q 947 1169 1205 825 
Q 1463 481 1925 481 
Q 2391 481 2648 825 
Q 2906 1169 2906 1791 
z
M 3481 434 
Q 3481 -459 3084 -895 
Q 2688 -1331 1869 -1331 
Q 1566 -1331 1297 -1286 
Q 1028 -1241 775 -1147 
L 775 -588 
Q 1028 -725 1275 -790 
Q 1522 -856 1778 -856 
Q 2344 -856 2625 -561 
Q 2906 -266 2906 331 
L 2906 616 
Q 2728 306 2450 153 
Q 2172 0 1784 0 
Q 1141 0 747 490 
Q 353 981 353 1791 
Q 353 2603 747 3093 
Q 1141 3584 1784 3584 
Q 2172 3584 2450 3431 
Q 2728 3278 2906 2969 
L 2906 3500 
L 3481 3500 
L 3481 434 
z
" transform="scale(0.015625)"/>
       <path id="DejaVuSans-6c" d="M 603 4863 
L 1178 4863 
L 1178 0 
L 603 0 
L 603 4863 
z
" transform="scale(0.015625)"/>
       <path id="DejaVuSans-65" d="M 3597 1894 
L 3597 1613 
L 953 1613 
Q 991 1019 1311 708 
Q 1631 397 2203 397 
Q 2534 397 2845 478 
Q 3156 559 3463 722 
L 3463 178 
Q 3153 47 2828 -22 
Q 2503 -91 2169 -91 
Q 1331 -91 842 396 
Q 353 884 353 1716 
Q 353 2575 817 3079 
Q 1281 3584 2069 3584 
Q 2775 3584 3186 3129 
Q 3597 2675 3597 1894 
z
M 3022 2063 
Q 3016 2534 2758 2815 
Q 2500 3097 2075 3097 
Q 1594 3097 1305 2825 
Q 1016 2553 972 2059 
L 3022 2063 
z
" transform="scale(0.015625)"/>
       <path id="DejaVuSans-20" transform="scale(0.015625)"/>
       <path id="DejaVuSans-77" d="M 269 3500 
L 844 3500 
L 1563 769 
L 2278 3500 
L 2956 3500 
L 3675 769 
L 4391 3500 
L 4966 3500 
L 4050 0 
L 3372 0 
L 2619 2869 
L 1863 0 
L 1184 0 
L 269 3500 
z
" transform="scale(0.015625)"/>
       <path id="DejaVuSans-69" d="M 603 3500 
L 1178 3500 
L 1178 0 
L 603 0 
L 603 3500 
z
M 603 4863 
L 1178 4863 
L 1178 4134 
L 603 4134 
L 603 4863 
z
" transform="scale(0.015625)"/>
       <path id="DejaVuSans-74" d="M 1172 4494 
L 1172 3500 
L 2356 3500 
L 2356 3053 
L 1172 3053 
L 1172 1153 
Q 1172 725 1289 603 
Q 1406 481 1766 481 
L 2356 481 
L 2356 0 
L 1766 0 
Q 1100 0 847 248 
Q 594 497 594 1153 
L 594 3053 
L 172 3053 
L 172 3500 
L 594 3500 
L 594 4494 
L 1172 4494 
z
" transform="scale(0.015625)"/>
       <path id="DejaVuSans-68" d="M 3513 2113 
L 3513 0 
L 2938 0 
L 2938 2094 
Q 2938 2591 2744 2837 
Q 2550 3084 2163 3084 
Q 1697 3084 1428 2787 
Q 1159 2491 1159 1978 
L 1159 0 
L 581 0 
L 581 4863 
L 1159 4863 
L 1159 2956 
Q 1366 3272 1645 3428 
Q 1925 3584 2291 3584 
Q 2894 3584 3203 3211 
Q 3513 2838 3513 2113 
z
" transform="scale(0.015625)"/>
       <path id="DejaVuSans-6f" d="M 1959 3097 
Q 1497 3097 1228 2736 
Q 959 2375 959 1747 
Q 959 1119 1226 758 
Q 1494 397 1959 397 
Q 2419 397 2687 759 
Q 2956 1122 2956 1747 
Q 2956 2369 2687 2733 
Q 2419 3097 1959 3097 
z
M 1959 3584 
Q 2709 3584 3137 3096 
Q 3566 2609 3566 1747 
Q 3566 888 3137 398 
Q 2709 -91 1959 -91 
Q 1206 -91 779 398 
Q 353 888 353 1747 
Q 353 2609 779 3096 
Q 1206 3584 1959 3584 
z
" transform="scale(0.015625)"/>
       <path id="DejaVuSans-72" d="M 2631 2963 
Q 2534 3019 2420 3045 
Q 2306 3072 2169 3072 
Q 1681 3072 1420 2755 
Q 1159 2438 1159 1844 
L 1159 0 
L 581 0 
L 581 3500 
L 1159 3500 
L 1159 2956 
Q 1341 3275 1631 3429 
Q 1922 3584 2338 3584 
Q 2397 3584 2469 3576 
Q 2541 3569 2628 3553 
L 2631 2963 
z
" transform="scale(0.015625)"/>
       <path id="DejaVuSans-6d" d="M 3328 2828 
Q 3544 3216 3844 3400 
Q 4144 3584 4550 3584 
Q 5097 3584 5394 3201 
Q 5691 2819 5691 2113 
L 5691 0 
L 5113 0 
L 5113 2094 
Q 5113 2597 4934 2840 
Q 4756 3084 4391 3084 
Q 3944 3084 3684 2787 
Q 3425 2491 3425 1978 
L 3425 0 
L 2847 0 
L 2847 2094 
Q 2847 2600 2669 2842 
Q 2491 3084 2119 3084 
Q 1678 3084 1418 2786 
Q 1159 2488 1159 1978 
L 1159 0 
L 581 0 
L 581 3500 
L 1159 3500 
L 1159 2956 
Q 1356 3278 1631 3431 
Q 1906 3584 2284 3584 
Q 2666 3584 2933 3390 
Q 3200 3197 3328 2828 
z
" transform="scale(0.015625)"/>
       <path id="DejaVuSans-61" d="M 2194 1759 
Q 1497 1759 1228 1600 
Q 959 1441 959 1056 
Q 959 750 1161 570 
Q 1363 391 1709 391 
Q 2188 391 2477 730 
Q 2766 1069 2766 1631 
L 2766 1759 
L 2194 1759 
z
M 3341 1997 
L 3341 0 
L 2766 0 
L 2766 531 
Q 2569 213 2275 61 
Q 1981 -91 1556 -91 
Q 1019 -91 701 211 
Q 384 513 384 1019 
Q 384 1609 779 1909 
Q 1175 2209 1959 2209 
L 2766 2209 
L 2766 2266 
Q 2766 2663 2505 2880 
Q 2244 3097 1772 3097 
Q 1472 3097 1187 3025 
Q 903 2953 641 2809 
L 641 3341 
Q 956 3463 1253 3523 
Q 1550 3584 1831 3584 
Q 2591 3584 2966 3190 
Q 3341 2797 3341 1997 
z
" transform="scale(0.015625)"/>
       <path id="DejaVuSans-28" d="M 1984 4856 
Q 1566 4138 1362 3434 
Q 1159 2731 1159 2009 
Q 1159 1288 1364 580 
Q 1569 -128 1984 -844 
L 1484 -844 
Q 1016 -109 783 600 
Q 550 1309 550 2009 
Q 550 2706 781 3412 
Q 1013 4119 1484 4856 
L 1984 4856 
z
" transform="scale(0.015625)"/>
       <path id="DejaVuSans-64" d="M 2906 2969 
L 2906 4863 
L 3481 4863 
L 3481 0 
L 2906 0 
L 2906 525 
Q 2725 213 2448 61 
Q 2172 -91 1784 -91 
Q 1150 -91 751 415 
Q 353 922 353 1747 
Q 353 2572 751 3078 
Q 1150 3584 1784 3584 
Q 2172 3584 2448 3432 
Q 2725 3281 2906 2969 
z
M 947 1747 
Q 947 1113 1208 752 
Q 1469 391 1925 391 
Q 2381 391 2643 752 
Q 2906 1113 2906 1747 
Q 2906 2381 2643 2742 
Q 2381 3103 1925 3103 
Q 1469 3103 1208 2742 
Q 947 2381 947 1747 
z
" transform="scale(0.015625)"/>
       <path id="DejaVuSans-29" d="M 513 4856 
L 1013 4856 
Q 1481 4119 1714 3412 
Q 1947 2706 1947 2009 
Q 1947 1309 1714 600 
Q 1481 -109 1013 -844 
L 513 -844 
Q 928 -128 1133 580 
Q 1338 1288 1338 2009 
Q 1338 2731 1133 3434 
Q 928 4138 513 4856 
z
" transform="scale(0.015625)"/>
      </defs>
      <use xlink:href="#DejaVuSans-41"/>
      <use xlink:href="#DejaVuSans-6e" x="68.408203"/>
      <use xlink:href="#DejaVuSans-67" x="131.787109"/>
      <use xlink:href="#DejaVuSans-6c" x="195.263672"/>
      <use xlink:href="#DejaVuSans-65" x="223.046875"/>
      <use xlink:href="#DejaVuSans-20" x="284.570312"/>
      <use xlink:href="#DejaVuSans-77" x="316.357422"/>
      <use xlink:href="#DejaVuSans-69" x="398.144531"/>
      <use xlink:href="#DejaVuSans-74" x="425.927734"/>
      <use xlink:href="#DejaVuSans-68" x="465.136719"/>
      <use xlink:href="#DejaVuSans-20" x="528.515625"/>
      <use xlink:href="#DejaVuSans-6e" x="560.302734"/>
      <use xlink:href="#DejaVuSans-6f" x="623.681641"/>
      <use xlink:href="#DejaVuSans-72" x="684.863281"/>
      <use xlink:href="#DejaVuSans-6d" x="724.226562"/>
      <use xlink:href="#DejaVuSans-61" x="821.638672"/>
      <use xlink:href="#DejaVuSans-6c" x="882.917969"/>
      <use xlink:href="#DejaVuSans-20" x="910.701172"/>
      <use xlink:href="#DejaVuSans-28" x="942.488281"/>
      <use xlink:href="#DejaVuSans-72" x="981.501953"/>
      <use xlink:href="#DejaVuSans-61" x="1022.615234"/>
      <use xlink:href="#DejaVuSans-64" x="1083.894531"/>
      <use xlink:href="#DejaVuSans-29" x="1147.371094"/>
     </g>
    </g>
   </g>
   <g id="matplotlib.axis_2">
    <g id="ytick_1">
     <g id="line2d_10">
      <defs>
       <path id="m4a74c74b53" d="M 0 0 
L -3.5 0 
" style="stroke: #000000; stroke-width: 0.8"/>
      </defs>
      <g>
       <use xlink:href="#m4a74c74b53" x="43.78125" y="273.312" style="stroke: #000000; stroke-width: 0.8"/>
      </g>
     </g>
     <g id="text_11">
      <!-- 0.0 -->
      <g transform="translate(20.878125 277.111219)scale(0.1 -0.1)">
       <use xlink:href="#DejaVuSans-30"/>
       <use xlink:href="#DejaVuSans-2e" x="63.623047"/>
       <use xlink:href="#DejaVuSans-30" x="95.410156"/>
      </g>
     </g>
    </g>
    <g id="ytick_2">
     <g id="line2d_11">
      <g>
       <use xlink:href="#m4a74c74b53" x="43.78125" y="226.592422" style="stroke: #000000; stroke-width: 0.8"/>
      </g>
     </g>
     <g id="text_12">
      <!-- 0.2 -->
      <g transform="translate(20.878125 230.391641)scale(0.1 -0.1)">
       <use xlink:href="#DejaVuSans-30"/>
       <use xlink:href="#DejaVuSans-2e" x="63.623047"/>
       <use xlink:href="#DejaVuSans-32" x="95.410156"/>
      </g>
     </g>
    </g>
    <g id="ytick_3">
     <g id="line2d_12">
      <g>
       <use xlink:href="#m4a74c74b53" x="43.78125" y="179.872845" style="stroke: #000000; stroke-width: 0.8"/>
      </g>
     </g>
     <g id="text_13">
      <!-- 0.4 -->
      <g transform="translate(20.878125 183.672064)scale(0.1 -0.1)">
       <use xlink:href="#DejaVuSans-30"/>
       <use xlink:href="#DejaVuSans-2e" x="63.623047"/>
       <use xlink:href="#DejaVuSans-34" x="95.410156"/>
      </g>
     </g>
    </g>
    <g id="ytick_4">
     <g id="line2d_13">
      <g>
       <use xlink:href="#m4a74c74b53" x="43.78125" y="133.153267" style="stroke: #000000; stroke-width: 0.8"/>
      </g>
     </g>
     <g id="text_14">
      <!-- 0.6 -->
      <g transform="translate(20.878125 136.952486)scale(0.1 -0.1)">
       <use xlink:href="#DejaVuSans-30"/>
       <use xlink:href="#DejaVuSans-2e" x="63.623047"/>
       <use xlink:href="#DejaVuSans-36" x="95.410156"/>
      </g>
     </g>
    </g>
    <g id="ytick_5">
     <g id="line2d_14">
      <g>
       <use xlink:href="#m4a74c74b53" x="43.78125" y="86.43369" style="stroke: #000000; stroke-width: 0.8"/>
      </g>
     </g>
     <g id="text_15">
      <!-- 0.8 -->
      <g transform="translate(20.878125 90.232909)scale(0.1 -0.1)">
       <use xlink:href="#DejaVuSans-30"/>
       <use xlink:href="#DejaVuSans-2e" x="63.623047"/>
       <use xlink:href="#DejaVuSans-38" x="95.410156"/>
      </g>
     </g>
    </g>
    <g id="ytick_6">
     <g id="line2d_15">
      <g>
       <use xlink:href="#m4a74c74b53" x="43.78125" y="39.714112" style="stroke: #000000; stroke-width: 0.8"/>
      </g>
     </g>
     <g id="text_16">
      <!-- 1.0 -->
      <g transform="translate(20.878125 43.513331)scale(0.1 -0.1)">
       <use xlink:href="#DejaVuSans-31"/>
       <use xlink:href="#DejaVuSans-2e" x="63.623047"/>
       <use xlink:href="#DejaVuSans-30" x="95.410156"/>
      </g>
     </g>
    </g>
    <g id="text_17">
     <!-- Probability density -->
     <g transform="translate(14.798438 186.606781)rotate(-90)scale(0.1 -0.1)">
      <defs>
       <path id="DejaVuSans-50" d="M 1259 4147 
L 1259 2394 
L 2053 2394 
Q 2494 2394 2734 2622 
Q 2975 2850 2975 3272 
Q 2975 3691 2734 3919 
Q 2494 4147 2053 4147 
L 1259 4147 
z
M 628 4666 
L 2053 4666 
Q 2838 4666 3239 4311 
Q 3641 3956 3641 3272 
Q 3641 2581 3239 2228 
Q 2838 1875 2053 1875 
L 1259 1875 
L 1259 0 
L 628 0 
L 628 4666 
z
" transform="scale(0.015625)"/>
       <path id="DejaVuSans-62" d="M 3116 1747 
Q 3116 2381 2855 2742 
Q 2594 3103 2138 3103 
Q 1681 3103 1420 2742 
Q 1159 2381 1159 1747 
Q 1159 1113 1420 752 
Q 1681 391 2138 391 
Q 2594 391 2855 752 
Q 3116 1113 3116 1747 
z
M 1159 2969 
Q 1341 3281 1617 3432 
Q 1894 3584 2278 3584 
Q 2916 3584 3314 3078 
Q 3713 2572 3713 1747 
Q 3713 922 3314 415 
Q 2916 -91 2278 -91 
Q 1894 -91 1617 61 
Q 1341 213 1159 525 
L 1159 0 
L 581 0 
L 581 4863 
L 1159 4863 
L 1159 2969 
z
" transform="scale(0.015625)"/>
       <path id="DejaVuSans-79" d="M 2059 -325 
Q 1816 -950 1584 -1140 
Q 1353 -1331 966 -1331 
L 506 -1331 
L 506 -850 
L 844 -850 
Q 1081 -850 1212 -737 
Q 1344 -625 1503 -206 
L 1606 56 
L 191 3500 
L 800 3500 
L 1894 763 
L 2988 3500 
L 3597 3500 
L 2059 -325 
z
" transform="scale(0.015625)"/>
       <path id="DejaVuSans-73" d="M 2834 3397 
L 2834 2853 
Q 2591 2978 2328 3040 
Q 2066 3103 1784 3103 
Q 1356 3103 1142 2972 
Q 928 2841 928 2578 
Q 928 2378 1081 2264 
Q 1234 2150 1697 2047 
L 1894 2003 
Q 2506 1872 2764 1633 
Q 3022 1394 3022 966 
Q 3022 478 2636 193 
Q 2250 -91 1575 -91 
Q 1294 -91 989 -36 
Q 684 19 347 128 
L 347 722 
Q 666 556 975 473 
Q 1284 391 1588 391 
Q 1994 391 2212 530 
Q 2431 669 2431 922 
Q 2431 1156 2273 1281 
Q 2116 1406 1581 1522 
L 1381 1569 
Q 847 1681 609 1914 
Q 372 2147 372 2553 
Q 372 3047 722 3315 
Q 1072 3584 1716 3584 
Q 2034 3584 2315 3537 
Q 2597 3491 2834 3397 
z
" transform="scale(0.015625)"/>
      </defs>
      <use xlink:href="#DejaVuSans-50"/>
      <use xlink:href="#DejaVuSans-72" x="58.552734"/>
      <use xlink:href="#DejaVuSans-6f" x="97.416016"/>
      <use xlink:href="#DejaVuSans-62" x="158.597656"/>
      <use xlink:href="#DejaVuSans-61" x="222.074219"/>
      <use xlink:href="#DejaVuSans-62" x="283.353516"/>
      <use xlink:href="#DejaVuSans-69" x="346.830078"/>
      <use xlink:href="#DejaVuSans-6c" x="374.613281"/>
      <use xlink:href="#DejaVuSans-69" x="402.396484"/>
      <use xlink:href="#DejaVuSans-74" x="430.179688"/>
      <use xlink:href="#DejaVuSans-79" x="469.388672"/>
      <use xlink:href="#DejaVuSans-20" x="528.568359"/>
      <use xlink:href="#DejaVuSans-64" x="560.355469"/>
      <use xlink:href="#DejaVuSans-65" x="623.832031"/>
      <use xlink:href="#DejaVuSans-6e" x="685.355469"/>
      <use xlink:href="#DejaVuSans-73" x="748.734375"/>
      <use xlink:href="#DejaVuSans-69" x="800.833984"/>
      <use xlink:href="#DejaVuSans-74" x="828.617188"/>
      <use xlink:href="#DejaVuSans-79" x="867.826172"/>
     </g>
    </g>
   </g>
   <g id="line2d_16">
    <path d="M 60.013977 273.312 
L 79.837728 228.775478 
L 90.237073 205.963582 
L 99.01152 187.236926 
L 106.811029 171.107549 
L 113.960578 156.831293 
L 120.460169 144.334746 
L 126.63478 132.934705 
L 132.484411 122.596176 
L 138.009063 113.274767 
L 143.208736 104.91894 
L 148.408408 96.989341 
L 153.283101 89.960307 
L 157.832814 83.767594 
L 162.382528 77.942218 
L 166.607261 72.871737 
L 170.831995 68.136206 
L 175.056729 63.743538 
L 178.956483 59.999443 
L 182.856238 56.559083 
L 186.755992 53.427358 
L 190.330767 50.831554 
L 193.905542 48.501946 
L 197.480316 46.441322 
L 201.055091 44.652148 
L 204.304886 43.262989 
L 207.554682 42.101315 
L 210.804477 41.168276 
L 214.054272 40.464793 
L 217.304067 39.991562 
L 220.553863 39.749052 
L 223.803658 39.737502 
L 227.053453 39.956923 
L 230.303248 40.407099 
L 233.553044 41.087584 
L 236.802839 41.997706 
L 240.052634 43.136564 
L 243.302429 44.503033 
L 246.552225 46.09576 
L 250.126999 48.107203 
L 253.701774 50.388103 
L 257.276549 52.93573 
L 260.851324 55.747036 
L 264.751078 59.110679 
L 268.650832 62.779323 
L 272.550587 66.747746 
L 276.77532 71.378597 
L 281.000054 76.346893 
L 285.224788 81.644332 
L 289.774501 87.707194 
L 294.324215 94.12976 
L 299.198908 101.396086 
L 304.39858 109.567978 
L 309.598252 118.15433 
L 315.122904 127.707127 
L 320.972536 138.274724 
L 327.147147 149.897987 
L 333.646737 162.60804 
L 340.796287 177.092738 
L 348.595795 193.416817 
L 357.370243 212.320407 
L 367.769587 235.282611 
L 382.393666 268.170187 
L 384.668523 273.312 
L 384.668523 273.312 
" clip-path="url(#pdd87156c02)" style="fill: none; stroke: #ff7f0e; stroke-width: 1.5; stroke-linecap: square"/>
   </g>
   <g id="patch_203">
    <path d="M 43.78125 273.312 
L 43.78125 7.2 
" style="fill: none; stroke: #000000; stroke-width: 0.8; stroke-linejoin: miter; stroke-linecap: square"/>
   </g>
   <g id="patch_204">
    <path d="M 400.90125 273.312 
L 400.90125 7.2 
" style="fill: none; stroke: #000000; stroke-width: 0.8; stroke-linejoin: miter; stroke-linecap: square"/>
   </g>
   <g id="patch_205">
    <path d="M 43.78125 273.312 
L 400.90125 273.312 
" style="fill: none; stroke: #000000; stroke-width: 0.8; stroke-linejoin: miter; stroke-linecap: square"/>
   </g>
   <g id="patch_206">
    <path d="M 43.78125 7.2 
L 400.90125 7.2 
" style="fill: none; stroke: #000000; stroke-width: 0.8; stroke-linejoin: miter; stroke-linecap: square"/>
   </g>
  </g>
 </g>
 <defs>
  <clipPath id="pdd87156c02">
   <rect x="43.78125" y="7.2" width="357.12" height="266.112"/>
  </clipPath>
 </defs>
</svg>
