<?xml version="1.0" encoding="utf-8" standalone="no"?>
<!DOCTYPE svg PUBLIC "-//W3C//DTD SVG 1.1//EN"
  "http://www.w3.org/Graphics/SVG/1.1/DTD/svg11.dtd">
<svg xmlns:xlink="http://www.w3.org/1999/xlink" width="414.46375pt" height="310.86825pt" viewBox="0 0 414.46375 310.86825" xmlns="http://www.w3.org/2000/svg" version="1.1">
 <metadata>
  <rdf:RDF xmlns:dc="http://purl.org/dc/elements/1.1/" xmlns:cc="http://creativecommons.org/ns#" xmlns:rdf="http://www.w3.org/1999/02/22-rdf-syntax-ns#">
   <cc:Work>
    <dc:type rdf:resource="http://purl.org/dc/dcmitype/StillImage"/>
    <dc:date>2022-05-02T19:42:21.891246</dc:date>
    <dc:format>image/svg+xml</dc:format>
    <dc:creator>
     <cc:Agent>
      <dc:title>Matplotlib v3.5.1, https://matplotlib.org/</dc:title>
     </cc:Agent>
    </dc:creator>
   </cc:Work>
  </rdf:RDF>
 </metadata>
 <defs>
  <style type="text/css">*{stroke-linejoin: round; stroke-linecap: butt}</style>
 </defs>
 <g id="figure_1">
  <g id="patch_1">
   <path d="M 0 310.86825 
L 414.46375 310.86825 
L 414.46375 0 
L 0 0 
z
" style="fill: #ffffff"/>
  </g>
  <g id="axes_1">
   <g id="patch_2">
    <path d="M 50.14375 273.312 
L 407.26375 273.312 
L 407.26375 7.2 
L 50.14375 7.2 
z
" style="fill: #ffffff"/>
   </g>
   <g id="patch_3">
    <path d="M 67.05237 273.312 
L 68.67226 273.312 
L 68.67226 272.09646 
L 67.05237 272.09646 
z
" clip-path="url(#pe9085f9504)" style="fill: #1f77b4"/>
   </g>
   <g id="patch_4">
    <path d="M 68.67226 273.312 
L 70.292151 273.312 
L 70.292151 270.880921 
L 68.67226 270.880921 
z
" clip-path="url(#pe9085f9504)" style="fill: #1f77b4"/>
   </g>
   <g id="patch_5">
    <path d="M 70.292151 273.312 
L 71.912042 273.312 
L 71.912042 271.488691 
L 70.292151 271.488691 
z
" clip-path="url(#pe9085f9504)" style="fill: #1f77b4"/>
   </g>
   <g id="patch_6">
    <path d="M 71.912042 273.312 
L 73.531932 273.312 
L 73.531932 267.842072 
L 71.912042 267.842072 
z
" clip-path="url(#pe9085f9504)" style="fill: #1f77b4"/>
   </g>
   <g id="patch_7">
    <path d="M 73.531932 273.312 
L 75.151823 273.312 
L 75.151823 267.842072 
L 73.531932 267.842072 
z
" clip-path="url(#pe9085f9504)" style="fill: #1f77b4"/>
   </g>
   <g id="patch_8">
    <path d="M 75.151823 273.312 
L 76.771713 273.312 
L 76.771713 267.234302 
L 75.151823 267.234302 
z
" clip-path="url(#pe9085f9504)" style="fill: #1f77b4"/>
   </g>
   <g id="patch_9">
    <path d="M 76.771713 273.312 
L 78.391604 273.312 
L 78.391604 266.626532 
L 76.771713 266.626532 
z
" clip-path="url(#pe9085f9504)" style="fill: #1f77b4"/>
   </g>
   <g id="patch_10">
    <path d="M 78.391604 273.312 
L 80.011495 273.312 
L 80.011495 262.372144 
L 78.391604 262.372144 
z
" clip-path="url(#pe9085f9504)" style="fill: #1f77b4"/>
   </g>
   <g id="patch_11">
    <path d="M 80.011495 273.312 
L 81.631385 273.312 
L 81.631385 257.509986 
L 80.011495 257.509986 
z
" clip-path="url(#pe9085f9504)" style="fill: #1f77b4"/>
   </g>
   <g id="patch_12">
    <path d="M 81.631385 273.312 
L 83.251276 273.312 
L 83.251276 267.234302 
L 81.631385 267.234302 
z
" clip-path="url(#pe9085f9504)" style="fill: #1f77b4"/>
   </g>
   <g id="patch_13">
    <path d="M 83.251276 273.312 
L 84.871167 273.312 
L 84.871167 259.941065 
L 83.251276 259.941065 
z
" clip-path="url(#pe9085f9504)" style="fill: #1f77b4"/>
   </g>
   <g id="patch_14">
    <path d="M 84.871167 273.312 
L 86.491057 273.312 
L 86.491057 258.117755 
L 84.871167 258.117755 
z
" clip-path="url(#pe9085f9504)" style="fill: #1f77b4"/>
   </g>
   <g id="patch_15">
    <path d="M 86.491057 273.312 
L 88.110948 273.312 
L 88.110948 254.471137 
L 86.491057 254.471137 
z
" clip-path="url(#pe9085f9504)" style="fill: #1f77b4"/>
   </g>
   <g id="patch_16">
    <path d="M 88.110948 273.312 
L 89.730838 273.312 
L 89.730838 255.078906 
L 88.110948 255.078906 
z
" clip-path="url(#pe9085f9504)" style="fill: #1f77b4"/>
   </g>
   <g id="patch_17">
    <path d="M 89.730838 273.312 
L 91.350729 273.312 
L 91.350729 250.824518 
L 89.730838 250.824518 
z
" clip-path="url(#pe9085f9504)" style="fill: #1f77b4"/>
   </g>
   <g id="patch_18">
    <path d="M 91.350729 273.312 
L 92.97062 273.312 
L 92.97062 255.078906 
L 91.350729 255.078906 
z
" clip-path="url(#pe9085f9504)" style="fill: #1f77b4"/>
   </g>
   <g id="patch_19">
    <path d="M 92.97062 273.312 
L 94.59051 273.312 
L 94.59051 253.255597 
L 92.97062 253.255597 
z
" clip-path="url(#pe9085f9504)" style="fill: #1f77b4"/>
   </g>
   <g id="patch_20">
    <path d="M 94.59051 273.312 
L 96.210401 273.312 
L 96.210401 253.863367 
L 94.59051 253.863367 
z
" clip-path="url(#pe9085f9504)" style="fill: #1f77b4"/>
   </g>
   <g id="patch_21">
    <path d="M 96.210401 273.312 
L 97.830291 273.312 
L 97.830291 250.216748 
L 96.210401 250.216748 
z
" clip-path="url(#pe9085f9504)" style="fill: #1f77b4"/>
   </g>
   <g id="patch_22">
    <path d="M 97.830291 273.312 
L 99.450182 273.312 
L 99.450182 251.432288 
L 97.830291 251.432288 
z
" clip-path="url(#pe9085f9504)" style="fill: #1f77b4"/>
   </g>
   <g id="patch_23">
    <path d="M 99.450182 273.312 
L 101.070073 273.312 
L 101.070073 247.177899 
L 99.450182 247.177899 
z
" clip-path="url(#pe9085f9504)" style="fill: #1f77b4"/>
   </g>
   <g id="patch_24">
    <path d="M 101.070073 273.312 
L 102.689963 273.312 
L 102.689963 252.040058 
L 101.070073 252.040058 
z
" clip-path="url(#pe9085f9504)" style="fill: #1f77b4"/>
   </g>
   <g id="patch_25">
    <path d="M 102.689963 273.312 
L 104.309854 273.312 
L 104.309854 245.35459 
L 102.689963 245.35459 
z
" clip-path="url(#pe9085f9504)" style="fill: #1f77b4"/>
   </g>
   <g id="patch_26">
    <path d="M 104.309854 273.312 
L 105.929744 273.312 
L 105.929744 251.432288 
L 104.309854 251.432288 
z
" clip-path="url(#pe9085f9504)" style="fill: #1f77b4"/>
   </g>
   <g id="patch_27">
    <path d="M 105.929744 273.312 
L 107.549635 273.312 
L 107.549635 245.35459 
L 105.929744 245.35459 
z
" clip-path="url(#pe9085f9504)" style="fill: #1f77b4"/>
   </g>
   <g id="patch_28">
    <path d="M 107.549635 273.312 
L 109.169526 273.312 
L 109.169526 233.199194 
L 107.549635 233.199194 
z
" clip-path="url(#pe9085f9504)" style="fill: #1f77b4"/>
   </g>
   <g id="patch_29">
    <path d="M 109.169526 273.312 
L 110.789416 273.312 
L 110.789416 244.74682 
L 109.169526 244.74682 
z
" clip-path="url(#pe9085f9504)" style="fill: #1f77b4"/>
   </g>
   <g id="patch_30">
    <path d="M 110.789416 273.312 
L 112.409307 273.312 
L 112.409307 244.74682 
L 110.789416 244.74682 
z
" clip-path="url(#pe9085f9504)" style="fill: #1f77b4"/>
   </g>
   <g id="patch_31">
    <path d="M 112.409307 273.312 
L 114.029197 273.312 
L 114.029197 245.96236 
L 112.409307 245.96236 
z
" clip-path="url(#pe9085f9504)" style="fill: #1f77b4"/>
   </g>
   <g id="patch_32">
    <path d="M 114.029197 273.312 
L 115.649088 273.312 
L 115.649088 232.591424 
L 114.029197 232.591424 
z
" clip-path="url(#pe9085f9504)" style="fill: #1f77b4"/>
   </g>
   <g id="patch_33">
    <path d="M 115.649088 273.312 
L 117.268979 273.312 
L 117.268979 239.276892 
L 115.649088 239.276892 
z
" clip-path="url(#pe9085f9504)" style="fill: #1f77b4"/>
   </g>
   <g id="patch_34">
    <path d="M 117.268979 273.312 
L 118.888869 273.312 
L 118.888869 236.238043 
L 117.268979 236.238043 
z
" clip-path="url(#pe9085f9504)" style="fill: #1f77b4"/>
   </g>
   <g id="patch_35">
    <path d="M 118.888869 273.312 
L 120.50876 273.312 
L 120.50876 238.669122 
L 118.888869 238.669122 
z
" clip-path="url(#pe9085f9504)" style="fill: #1f77b4"/>
   </g>
   <g id="patch_36">
    <path d="M 120.50876 273.312 
L 122.12865 273.312 
L 122.12865 230.160345 
L 120.50876 230.160345 
z
" clip-path="url(#pe9085f9504)" style="fill: #1f77b4"/>
   </g>
   <g id="patch_37">
    <path d="M 122.12865 273.312 
L 123.748541 273.312 
L 123.748541 222.867108 
L 122.12865 222.867108 
z
" clip-path="url(#pe9085f9504)" style="fill: #1f77b4"/>
   </g>
   <g id="patch_38">
    <path d="M 123.748541 273.312 
L 125.368432 273.312 
L 125.368432 228.337036 
L 123.748541 228.337036 
z
" clip-path="url(#pe9085f9504)" style="fill: #1f77b4"/>
   </g>
   <g id="patch_39">
    <path d="M 125.368432 273.312 
L 126.988322 273.312 
L 126.988322 231.375885 
L 125.368432 231.375885 
z
" clip-path="url(#pe9085f9504)" style="fill: #1f77b4"/>
   </g>
   <g id="patch_40">
    <path d="M 126.988322 273.312 
L 128.608213 273.312 
L 128.608213 214.358331 
L 126.988322 214.358331 
z
" clip-path="url(#pe9085f9504)" style="fill: #1f77b4"/>
   </g>
   <g id="patch_41">
    <path d="M 128.608213 273.312 
L 130.228104 273.312 
L 130.228104 227.729266 
L 128.608213 227.729266 
z
" clip-path="url(#pe9085f9504)" style="fill: #1f77b4"/>
   </g>
   <g id="patch_42">
    <path d="M 130.228104 273.312 
L 131.847994 273.312 
L 131.847994 211.927252 
L 130.228104 211.927252 
z
" clip-path="url(#pe9085f9504)" style="fill: #1f77b4"/>
   </g>
   <g id="patch_43">
    <path d="M 131.847994 273.312 
L 133.467885 273.312 
L 133.467885 230.160345 
L 131.847994 230.160345 
z
" clip-path="url(#pe9085f9504)" style="fill: #1f77b4"/>
   </g>
   <g id="patch_44">
    <path d="M 133.467885 273.312 
L 135.087775 273.312 
L 135.087775 224.082647 
L 133.467885 224.082647 
z
" clip-path="url(#pe9085f9504)" style="fill: #1f77b4"/>
   </g>
   <g id="patch_45">
    <path d="M 135.087775 273.312 
L 136.707666 273.312 
L 136.707666 227.121496 
L 135.087775 227.121496 
z
" clip-path="url(#pe9085f9504)" style="fill: #1f77b4"/>
   </g>
   <g id="patch_46">
    <path d="M 136.707666 273.312 
L 138.327557 273.312 
L 138.327557 217.39718 
L 136.707666 217.39718 
z
" clip-path="url(#pe9085f9504)" style="fill: #1f77b4"/>
   </g>
   <g id="patch_47">
    <path d="M 138.327557 273.312 
L 139.947447 273.312 
L 139.947447 217.39718 
L 138.327557 217.39718 
z
" clip-path="url(#pe9085f9504)" style="fill: #1f77b4"/>
   </g>
   <g id="patch_48">
    <path d="M 139.947447 273.312 
L 141.567338 273.312 
L 141.567338 215.573871 
L 139.947447 215.573871 
z
" clip-path="url(#pe9085f9504)" style="fill: #1f77b4"/>
   </g>
   <g id="patch_49">
    <path d="M 141.567338 273.312 
L 143.187228 273.312 
L 143.187228 225.905957 
L 141.567338 225.905957 
z
" clip-path="url(#pe9085f9504)" style="fill: #1f77b4"/>
   </g>
   <g id="patch_50">
    <path d="M 143.187228 273.312 
L 144.807119 273.312 
L 144.807119 221.043799 
L 143.187228 221.043799 
z
" clip-path="url(#pe9085f9504)" style="fill: #1f77b4"/>
   </g>
   <g id="patch_51">
    <path d="M 144.807119 273.312 
L 146.42701 273.312 
L 146.42701 215.573871 
L 144.807119 215.573871 
z
" clip-path="url(#pe9085f9504)" style="fill: #1f77b4"/>
   </g>
   <g id="patch_52">
    <path d="M 146.42701 273.312 
L 148.0469 273.312 
L 148.0469 219.828259 
L 146.42701 219.828259 
z
" clip-path="url(#pe9085f9504)" style="fill: #1f77b4"/>
   </g>
   <g id="patch_53">
    <path d="M 148.0469 273.312 
L 149.666791 273.312 
L 149.666791 213.142791 
L 148.0469 213.142791 
z
" clip-path="url(#pe9085f9504)" style="fill: #1f77b4"/>
   </g>
   <g id="patch_54">
    <path d="M 149.666791 273.312 
L 151.286681 273.312 
L 151.286681 209.496173 
L 149.666791 209.496173 
z
" clip-path="url(#pe9085f9504)" style="fill: #1f77b4"/>
   </g>
   <g id="patch_55">
    <path d="M 151.286681 273.312 
L 152.906572 273.312 
L 152.906572 210.711712 
L 151.286681 210.711712 
z
" clip-path="url(#pe9085f9504)" style="fill: #1f77b4"/>
   </g>
   <g id="patch_56">
    <path d="M 152.906572 273.312 
L 154.526463 273.312 
L 154.526463 209.496173 
L 152.906572 209.496173 
z
" clip-path="url(#pe9085f9504)" style="fill: #1f77b4"/>
   </g>
   <g id="patch_57">
    <path d="M 154.526463 273.312 
L 156.146353 273.312 
L 156.146353 197.340777 
L 154.526463 197.340777 
z
" clip-path="url(#pe9085f9504)" style="fill: #1f77b4"/>
   </g>
   <g id="patch_58">
    <path d="M 156.146353 273.312 
L 157.766244 273.312 
L 157.766244 203.418475 
L 156.146353 203.418475 
z
" clip-path="url(#pe9085f9504)" style="fill: #1f77b4"/>
   </g>
   <g id="patch_59">
    <path d="M 157.766244 273.312 
L 159.386134 273.312 
L 159.386134 207.065094 
L 157.766244 207.065094 
z
" clip-path="url(#pe9085f9504)" style="fill: #1f77b4"/>
   </g>
   <g id="patch_60">
    <path d="M 159.386134 273.312 
L 161.006025 273.312 
L 161.006025 208.888403 
L 159.386134 208.888403 
z
" clip-path="url(#pe9085f9504)" style="fill: #1f77b4"/>
   </g>
   <g id="patch_61">
    <path d="M 161.006025 273.312 
L 162.625916 273.312 
L 162.625916 202.810705 
L 161.006025 202.810705 
z
" clip-path="url(#pe9085f9504)" style="fill: #1f77b4"/>
   </g>
   <g id="patch_62">
    <path d="M 162.625916 273.312 
L 164.245806 273.312 
L 164.245806 195.517468 
L 162.625916 195.517468 
z
" clip-path="url(#pe9085f9504)" style="fill: #1f77b4"/>
   </g>
   <g id="patch_63">
    <path d="M 164.245806 273.312 
L 165.865697 273.312 
L 165.865697 201.595165 
L 164.245806 201.595165 
z
" clip-path="url(#pe9085f9504)" style="fill: #1f77b4"/>
   </g>
   <g id="patch_64">
    <path d="M 165.865697 273.312 
L 167.485587 273.312 
L 167.485587 199.771856 
L 165.865697 199.771856 
z
" clip-path="url(#pe9085f9504)" style="fill: #1f77b4"/>
   </g>
   <g id="patch_65">
    <path d="M 167.485587 273.312 
L 169.105478 273.312 
L 169.105478 202.810705 
L 167.485587 202.810705 
z
" clip-path="url(#pe9085f9504)" style="fill: #1f77b4"/>
   </g>
   <g id="patch_66">
    <path d="M 169.105478 273.312 
L 170.725369 273.312 
L 170.725369 205.849554 
L 169.105478 205.849554 
z
" clip-path="url(#pe9085f9504)" style="fill: #1f77b4"/>
   </g>
   <g id="patch_67">
    <path d="M 170.725369 273.312 
L 172.345259 273.312 
L 172.345259 192.478619 
L 170.725369 192.478619 
z
" clip-path="url(#pe9085f9504)" style="fill: #1f77b4"/>
   </g>
   <g id="patch_68">
    <path d="M 172.345259 273.312 
L 173.96515 273.312 
L 173.96515 199.164086 
L 172.345259 199.164086 
z
" clip-path="url(#pe9085f9504)" style="fill: #1f77b4"/>
   </g>
   <g id="patch_69">
    <path d="M 173.96515 273.312 
L 175.585041 273.312 
L 175.585041 193.694158 
L 173.96515 193.694158 
z
" clip-path="url(#pe9085f9504)" style="fill: #1f77b4"/>
   </g>
   <g id="patch_70">
    <path d="M 175.585041 273.312 
L 177.204931 273.312 
L 177.204931 188.22423 
L 175.585041 188.22423 
z
" clip-path="url(#pe9085f9504)" style="fill: #1f77b4"/>
   </g>
   <g id="patch_71">
    <path d="M 177.204931 273.312 
L 178.824822 273.312 
L 178.824822 182.146532 
L 177.204931 182.146532 
z
" clip-path="url(#pe9085f9504)" style="fill: #1f77b4"/>
   </g>
   <g id="patch_72">
    <path d="M 178.824822 273.312 
L 180.444712 273.312 
L 180.444712 200.987396 
L 178.824822 200.987396 
z
" clip-path="url(#pe9085f9504)" style="fill: #1f77b4"/>
   </g>
   <g id="patch_73">
    <path d="M 180.444712 273.312 
L 182.064603 273.312 
L 182.064603 198.556317 
L 180.444712 198.556317 
z
" clip-path="url(#pe9085f9504)" style="fill: #1f77b4"/>
   </g>
   <g id="patch_74">
    <path d="M 182.064603 273.312 
L 183.684494 273.312 
L 183.684494 178.499914 
L 182.064603 178.499914 
z
" clip-path="url(#pe9085f9504)" style="fill: #1f77b4"/>
   </g>
   <g id="patch_75">
    <path d="M 183.684494 273.312 
L 185.304384 273.312 
L 185.304384 193.086388 
L 183.684494 193.086388 
z
" clip-path="url(#pe9085f9504)" style="fill: #1f77b4"/>
   </g>
   <g id="patch_76">
    <path d="M 185.304384 273.312 
L 186.924275 273.312 
L 186.924275 187.61646 
L 185.304384 187.61646 
z
" clip-path="url(#pe9085f9504)" style="fill: #1f77b4"/>
   </g>
   <g id="patch_77">
    <path d="M 186.924275 273.312 
L 188.544165 273.312 
L 188.544165 185.793151 
L 186.924275 185.793151 
z
" clip-path="url(#pe9085f9504)" style="fill: #1f77b4"/>
   </g>
   <g id="patch_78">
    <path d="M 188.544165 273.312 
L 190.164056 273.312 
L 190.164056 177.284374 
L 188.544165 177.284374 
z
" clip-path="url(#pe9085f9504)" style="fill: #1f77b4"/>
   </g>
   <g id="patch_79">
    <path d="M 190.164056 273.312 
L 191.783947 273.312 
L 191.783947 185.793151 
L 190.164056 185.793151 
z
" clip-path="url(#pe9085f9504)" style="fill: #1f77b4"/>
   </g>
   <g id="patch_80">
    <path d="M 191.783947 273.312 
L 193.403837 273.312 
L 193.403837 163.305669 
L 191.783947 163.305669 
z
" clip-path="url(#pe9085f9504)" style="fill: #1f77b4"/>
   </g>
   <g id="patch_81">
    <path d="M 193.403837 273.312 
L 195.023728 273.312 
L 195.023728 176.068835 
L 193.403837 176.068835 
z
" clip-path="url(#pe9085f9504)" style="fill: #1f77b4"/>
   </g>
   <g id="patch_82">
    <path d="M 195.023728 273.312 
L 196.643618 273.312 
L 196.643618 174.853295 
L 195.023728 174.853295 
z
" clip-path="url(#pe9085f9504)" style="fill: #1f77b4"/>
   </g>
   <g id="patch_83">
    <path d="M 196.643618 273.312 
L 198.263509 273.312 
L 198.263509 183.362072 
L 196.643618 183.362072 
z
" clip-path="url(#pe9085f9504)" style="fill: #1f77b4"/>
   </g>
   <g id="patch_84">
    <path d="M 198.263509 273.312 
L 199.8834 273.312 
L 199.8834 162.090129 
L 198.263509 162.090129 
z
" clip-path="url(#pe9085f9504)" style="fill: #1f77b4"/>
   </g>
   <g id="patch_85">
    <path d="M 199.8834 273.312 
L 201.50329 273.312 
L 201.50329 183.362072 
L 199.8834 183.362072 
z
" clip-path="url(#pe9085f9504)" style="fill: #1f77b4"/>
   </g>
   <g id="patch_86">
    <path d="M 201.50329 273.312 
L 203.123181 273.312 
L 203.123181 176.676604 
L 201.50329 176.676604 
z
" clip-path="url(#pe9085f9504)" style="fill: #1f77b4"/>
   </g>
   <g id="patch_87">
    <path d="M 203.123181 273.312 
L 204.743071 273.312 
L 204.743071 181.538763 
L 203.123181 181.538763 
z
" clip-path="url(#pe9085f9504)" style="fill: #1f77b4"/>
   </g>
   <g id="patch_88">
    <path d="M 204.743071 273.312 
L 206.362962 273.312 
L 206.362962 169.991137 
L 204.743071 169.991137 
z
" clip-path="url(#pe9085f9504)" style="fill: #1f77b4"/>
   </g>
   <g id="patch_89">
    <path d="M 206.362962 273.312 
L 207.982853 273.312 
L 207.982853 169.991137 
L 206.362962 169.991137 
z
" clip-path="url(#pe9085f9504)" style="fill: #1f77b4"/>
   </g>
   <g id="patch_90">
    <path d="M 207.982853 273.312 
L 209.602743 273.312 
L 209.602743 166.344518 
L 207.982853 166.344518 
z
" clip-path="url(#pe9085f9504)" style="fill: #1f77b4"/>
   </g>
   <g id="patch_91">
    <path d="M 209.602743 273.312 
L 211.222634 273.312 
L 211.222634 157.835741 
L 209.602743 157.835741 
z
" clip-path="url(#pe9085f9504)" style="fill: #1f77b4"/>
   </g>
   <g id="patch_92">
    <path d="M 211.222634 273.312 
L 212.842524 273.312 
L 212.842524 156.620201 
L 211.222634 156.620201 
z
" clip-path="url(#pe9085f9504)" style="fill: #1f77b4"/>
   </g>
   <g id="patch_93">
    <path d="M 212.842524 273.312 
L 214.462415 273.312 
L 214.462415 162.090129 
L 212.842524 162.090129 
z
" clip-path="url(#pe9085f9504)" style="fill: #1f77b4"/>
   </g>
   <g id="patch_94">
    <path d="M 214.462415 273.312 
L 216.082306 273.312 
L 216.082306 171.206676 
L 214.462415 171.206676 
z
" clip-path="url(#pe9085f9504)" style="fill: #1f77b4"/>
   </g>
   <g id="patch_95">
    <path d="M 216.082306 273.312 
L 217.702196 273.312 
L 217.702196 151.150273 
L 216.082306 151.150273 
z
" clip-path="url(#pe9085f9504)" style="fill: #1f77b4"/>
   </g>
   <g id="patch_96">
    <path d="M 217.702196 273.312 
L 219.322087 273.312 
L 219.322087 160.87459 
L 217.702196 160.87459 
z
" clip-path="url(#pe9085f9504)" style="fill: #1f77b4"/>
   </g>
   <g id="patch_97">
    <path d="M 219.322087 273.312 
L 220.941978 273.312 
L 220.941978 168.167827 
L 219.322087 168.167827 
z
" clip-path="url(#pe9085f9504)" style="fill: #1f77b4"/>
   </g>
   <g id="patch_98">
    <path d="M 220.941978 273.312 
L 222.561868 273.312 
L 222.561868 157.227971 
L 220.941978 157.227971 
z
" clip-path="url(#pe9085f9504)" style="fill: #1f77b4"/>
   </g>
   <g id="patch_99">
    <path d="M 222.561868 273.312 
L 224.181759 273.312 
L 224.181759 157.227971 
L 222.561868 157.227971 
z
" clip-path="url(#pe9085f9504)" style="fill: #1f77b4"/>
   </g>
   <g id="patch_100">
    <path d="M 224.181759 273.312 
L 225.801649 273.312 
L 225.801649 151.758043 
L 224.181759 151.758043 
z
" clip-path="url(#pe9085f9504)" style="fill: #1f77b4"/>
   </g>
   <g id="patch_101">
    <path d="M 225.801649 273.312 
L 227.42154 273.312 
L 227.42154 146.895885 
L 225.801649 146.895885 
z
" clip-path="url(#pe9085f9504)" style="fill: #1f77b4"/>
   </g>
   <g id="patch_102">
    <path d="M 227.42154 273.312 
L 229.041431 273.312 
L 229.041431 148.111424 
L 227.42154 148.111424 
z
" clip-path="url(#pe9085f9504)" style="fill: #1f77b4"/>
   </g>
   <g id="patch_103">
    <path d="M 229.041431 273.312 
L 230.661321 273.312 
L 230.661321 135.956029 
L 229.041431 135.956029 
z
" clip-path="url(#pe9085f9504)" style="fill: #1f77b4"/>
   </g>
   <g id="patch_104">
    <path d="M 230.661321 273.312 
L 232.281212 273.312 
L 232.281212 156.012432 
L 230.661321 156.012432 
z
" clip-path="url(#pe9085f9504)" style="fill: #1f77b4"/>
   </g>
   <g id="patch_105">
    <path d="M 232.281212 273.312 
L 233.901102 273.312 
L 233.901102 160.26682 
L 232.281212 160.26682 
z
" clip-path="url(#pe9085f9504)" style="fill: #1f77b4"/>
   </g>
   <g id="patch_106">
    <path d="M 233.901102 273.312 
L 235.520993 273.312 
L 235.520993 158.443511 
L 233.901102 158.443511 
z
" clip-path="url(#pe9085f9504)" style="fill: #1f77b4"/>
   </g>
   <g id="patch_107">
    <path d="M 235.520993 273.312 
L 237.140884 273.312 
L 237.140884 137.171568 
L 235.520993 137.171568 
z
" clip-path="url(#pe9085f9504)" style="fill: #1f77b4"/>
   </g>
   <g id="patch_108">
    <path d="M 237.140884 273.312 
L 238.760774 273.312 
L 238.760774 135.348259 
L 237.140884 135.348259 
z
" clip-path="url(#pe9085f9504)" style="fill: #1f77b4"/>
   </g>
   <g id="patch_109">
    <path d="M 238.760774 273.312 
L 240.380665 273.312 
L 240.380665 136.563799 
L 238.760774 136.563799 
z
" clip-path="url(#pe9085f9504)" style="fill: #1f77b4"/>
   </g>
   <g id="patch_110">
    <path d="M 240.380665 273.312 
L 242.000555 273.312 
L 242.000555 140.210417 
L 240.380665 140.210417 
z
" clip-path="url(#pe9085f9504)" style="fill: #1f77b4"/>
   </g>
   <g id="patch_111">
    <path d="M 242.000555 273.312 
L 243.620446 273.312 
L 243.620446 129.270561 
L 242.000555 129.270561 
z
" clip-path="url(#pe9085f9504)" style="fill: #1f77b4"/>
   </g>
   <g id="patch_112">
    <path d="M 243.620446 273.312 
L 245.240337 273.312 
L 245.240337 132.91718 
L 243.620446 132.91718 
z
" clip-path="url(#pe9085f9504)" style="fill: #1f77b4"/>
   </g>
   <g id="patch_113">
    <path d="M 245.240337 273.312 
L 246.860227 273.312 
L 246.860227 138.387108 
L 245.240337 138.387108 
z
" clip-path="url(#pe9085f9504)" style="fill: #1f77b4"/>
   </g>
   <g id="patch_114">
    <path d="M 246.860227 273.312 
L 248.480118 273.312 
L 248.480118 134.132719 
L 246.860227 134.132719 
z
" clip-path="url(#pe9085f9504)" style="fill: #1f77b4"/>
   </g>
   <g id="patch_115">
    <path d="M 248.480118 273.312 
L 250.100008 273.312 
L 250.100008 132.30941 
L 248.480118 132.30941 
z
" clip-path="url(#pe9085f9504)" style="fill: #1f77b4"/>
   </g>
   <g id="patch_116">
    <path d="M 250.100008 273.312 
L 251.719899 273.312 
L 251.719899 140.818187 
L 250.100008 140.818187 
z
" clip-path="url(#pe9085f9504)" style="fill: #1f77b4"/>
   </g>
   <g id="patch_117">
    <path d="M 251.719899 273.312 
L 253.33979 273.312 
L 253.33979 133.52495 
L 251.719899 133.52495 
z
" clip-path="url(#pe9085f9504)" style="fill: #1f77b4"/>
   </g>
   <g id="patch_118">
    <path d="M 253.33979 273.312 
L 254.95968 273.312 
L 254.95968 128.662791 
L 253.33979 128.662791 
z
" clip-path="url(#pe9085f9504)" style="fill: #1f77b4"/>
   </g>
   <g id="patch_119">
    <path d="M 254.95968 273.312 
L 256.579571 273.312 
L 256.579571 151.758043 
L 254.95968 151.758043 
z
" clip-path="url(#pe9085f9504)" style="fill: #1f77b4"/>
   </g>
   <g id="patch_120">
    <path d="M 256.579571 273.312 
L 258.199461 273.312 
L 258.199461 120.154014 
L 256.579571 120.154014 
z
" clip-path="url(#pe9085f9504)" style="fill: #1f77b4"/>
   </g>
   <g id="patch_121">
    <path d="M 258.199461 273.312 
L 259.819352 273.312 
L 259.819352 116.507396 
L 258.199461 116.507396 
z
" clip-path="url(#pe9085f9504)" style="fill: #1f77b4"/>
   </g>
   <g id="patch_122">
    <path d="M 259.819352 273.312 
L 261.439243 273.312 
L 261.439243 131.093871 
L 259.819352 131.093871 
z
" clip-path="url(#pe9085f9504)" style="fill: #1f77b4"/>
   </g>
   <g id="patch_123">
    <path d="M 261.439243 273.312 
L 263.059133 273.312 
L 263.059133 129.270561 
L 261.439243 129.270561 
z
" clip-path="url(#pe9085f9504)" style="fill: #1f77b4"/>
   </g>
   <g id="patch_124">
    <path d="M 263.059133 273.312 
L 264.679024 273.312 
L 264.679024 117.722935 
L 263.059133 117.722935 
z
" clip-path="url(#pe9085f9504)" style="fill: #1f77b4"/>
   </g>
   <g id="patch_125">
    <path d="M 264.679024 273.312 
L 266.298915 273.312 
L 266.298915 128.055022 
L 264.679024 128.055022 
z
" clip-path="url(#pe9085f9504)" style="fill: #1f77b4"/>
   </g>
   <g id="patch_126">
    <path d="M 266.298915 273.312 
L 267.918805 273.312 
L 267.918805 123.800633 
L 266.298915 123.800633 
z
" clip-path="url(#pe9085f9504)" style="fill: #1f77b4"/>
   </g>
   <g id="patch_127">
    <path d="M 267.918805 273.312 
L 269.538696 273.312 
L 269.538696 126.231712 
L 267.918805 126.231712 
z
" clip-path="url(#pe9085f9504)" style="fill: #1f77b4"/>
   </g>
   <g id="patch_128">
    <path d="M 269.538696 273.312 
L 271.158586 273.312 
L 271.158586 128.055022 
L 269.538696 128.055022 
z
" clip-path="url(#pe9085f9504)" style="fill: #1f77b4"/>
   </g>
   <g id="patch_129">
    <path d="M 271.158586 273.312 
L 272.778477 273.312 
L 272.778477 117.722935 
L 271.158586 117.722935 
z
" clip-path="url(#pe9085f9504)" style="fill: #1f77b4"/>
   </g>
   <g id="patch_130">
    <path d="M 272.778477 273.312 
L 274.398368 273.312 
L 274.398368 112.253007 
L 272.778477 112.253007 
z
" clip-path="url(#pe9085f9504)" style="fill: #1f77b4"/>
   </g>
   <g id="patch_131">
    <path d="M 274.398368 273.312 
L 276.018258 273.312 
L 276.018258 120.761784 
L 274.398368 120.761784 
z
" clip-path="url(#pe9085f9504)" style="fill: #1f77b4"/>
   </g>
   <g id="patch_132">
    <path d="M 276.018258 273.312 
L 277.638149 273.312 
L 277.638149 102.528691 
L 276.018258 102.528691 
z
" clip-path="url(#pe9085f9504)" style="fill: #1f77b4"/>
   </g>
   <g id="patch_133">
    <path d="M 277.638149 273.312 
L 279.258039 273.312 
L 279.258039 121.369554 
L 277.638149 121.369554 
z
" clip-path="url(#pe9085f9504)" style="fill: #1f77b4"/>
   </g>
   <g id="patch_134">
    <path d="M 279.258039 273.312 
L 280.87793 273.312 
L 280.87793 109.821928 
L 279.258039 109.821928 
z
" clip-path="url(#pe9085f9504)" style="fill: #1f77b4"/>
   </g>
   <g id="patch_135">
    <path d="M 280.87793 273.312 
L 282.497821 273.312 
L 282.497821 114.684086 
L 280.87793 114.684086 
z
" clip-path="url(#pe9085f9504)" style="fill: #1f77b4"/>
   </g>
   <g id="patch_136">
    <path d="M 282.497821 273.312 
L 284.117711 273.312 
L 284.117711 111.037468 
L 282.497821 111.037468 
z
" clip-path="url(#pe9085f9504)" style="fill: #1f77b4"/>
   </g>
   <g id="patch_137">
    <path d="M 284.117711 273.312 
L 285.737602 273.312 
L 285.737602 109.821928 
L 284.117711 109.821928 
z
" clip-path="url(#pe9085f9504)" style="fill: #1f77b4"/>
   </g>
   <g id="patch_138">
    <path d="M 285.737602 273.312 
L 287.357492 273.312 
L 287.357492 104.95977 
L 285.737602 104.95977 
z
" clip-path="url(#pe9085f9504)" style="fill: #1f77b4"/>
   </g>
   <g id="patch_139">
    <path d="M 287.357492 273.312 
L 288.977383 273.312 
L 288.977383 112.860777 
L 287.357492 112.860777 
z
" clip-path="url(#pe9085f9504)" style="fill: #1f77b4"/>
   </g>
   <g id="patch_140">
    <path d="M 288.977383 273.312 
L 290.597274 273.312 
L 290.597274 100.097612 
L 288.977383 100.097612 
z
" clip-path="url(#pe9085f9504)" style="fill: #1f77b4"/>
   </g>
   <g id="patch_141">
    <path d="M 290.597274 273.312 
L 292.217164 273.312 
L 292.217164 89.157755 
L 290.597274 89.157755 
z
" clip-path="url(#pe9085f9504)" style="fill: #1f77b4"/>
   </g>
   <g id="patch_142">
    <path d="M 292.217164 273.312 
L 293.837055 273.312 
L 293.837055 107.998619 
L 292.217164 107.998619 
z
" clip-path="url(#pe9085f9504)" style="fill: #1f77b4"/>
   </g>
   <g id="patch_143">
    <path d="M 293.837055 273.312 
L 295.456945 273.312 
L 295.456945 103.74423 
L 293.837055 103.74423 
z
" clip-path="url(#pe9085f9504)" style="fill: #1f77b4"/>
   </g>
   <g id="patch_144">
    <path d="M 295.456945 273.312 
L 297.076836 273.312 
L 297.076836 99.489842 
L 295.456945 99.489842 
z
" clip-path="url(#pe9085f9504)" style="fill: #1f77b4"/>
   </g>
   <g id="patch_145">
    <path d="M 297.076836 273.312 
L 298.696727 273.312 
L 298.696727 112.253007 
L 297.076836 112.253007 
z
" clip-path="url(#pe9085f9504)" style="fill: #1f77b4"/>
   </g>
   <g id="patch_146">
    <path d="M 298.696727 273.312 
L 300.316617 273.312 
L 300.316617 103.13646 
L 298.696727 103.13646 
z
" clip-path="url(#pe9085f9504)" style="fill: #1f77b4"/>
   </g>
   <g id="patch_147">
    <path d="M 300.316617 273.312 
L 301.936508 273.312 
L 301.936508 89.765525 
L 300.316617 89.765525 
z
" clip-path="url(#pe9085f9504)" style="fill: #1f77b4"/>
   </g>
   <g id="patch_148">
    <path d="M 301.936508 273.312 
L 303.556398 273.312 
L 303.556398 120.761784 
L 301.936508 120.761784 
z
" clip-path="url(#pe9085f9504)" style="fill: #1f77b4"/>
   </g>
   <g id="patch_149">
    <path d="M 303.556398 273.312 
L 305.176289 273.312 
L 305.176289 103.74423 
L 303.556398 103.74423 
z
" clip-path="url(#pe9085f9504)" style="fill: #1f77b4"/>
   </g>
   <g id="patch_150">
    <path d="M 305.176289 273.312 
L 306.79618 273.312 
L 306.79618 89.157755 
L 305.176289 89.157755 
z
" clip-path="url(#pe9085f9504)" style="fill: #1f77b4"/>
   </g>
   <g id="patch_151">
    <path d="M 306.79618 273.312 
L 308.41607 273.312 
L 308.41607 78.217899 
L 306.79618 78.217899 
z
" clip-path="url(#pe9085f9504)" style="fill: #1f77b4"/>
   </g>
   <g id="patch_152">
    <path d="M 308.41607 273.312 
L 310.035961 273.312 
L 310.035961 86.726676 
L 308.41607 86.726676 
z
" clip-path="url(#pe9085f9504)" style="fill: #1f77b4"/>
   </g>
   <g id="patch_153">
    <path d="M 310.035961 273.312 
L 311.655852 273.312 
L 311.655852 104.352 
L 310.035961 104.352 
z
" clip-path="url(#pe9085f9504)" style="fill: #1f77b4"/>
   </g>
   <g id="patch_154">
    <path d="M 311.655852 273.312 
L 313.275742 273.312 
L 313.275742 88.549986 
L 311.655852 88.549986 
z
" clip-path="url(#pe9085f9504)" style="fill: #1f77b4"/>
   </g>
   <g id="patch_155">
    <path d="M 313.275742 273.312 
L 314.895633 273.312 
L 314.895633 87.942216 
L 313.275742 87.942216 
z
" clip-path="url(#pe9085f9504)" style="fill: #1f77b4"/>
   </g>
   <g id="patch_156">
    <path d="M 314.895633 273.312 
L 316.515523 273.312 
L 316.515523 83.080058 
L 314.895633 83.080058 
z
" clip-path="url(#pe9085f9504)" style="fill: #1f77b4"/>
   </g>
   <g id="patch_157">
    <path d="M 316.515523 273.312 
L 318.135414 273.312 
L 318.135414 89.157755 
L 316.515523 89.157755 
z
" clip-path="url(#pe9085f9504)" style="fill: #1f77b4"/>
   </g>
   <g id="patch_158">
    <path d="M 318.135414 273.312 
L 319.755305 273.312 
L 319.755305 83.687827 
L 318.135414 83.687827 
z
" clip-path="url(#pe9085f9504)" style="fill: #1f77b4"/>
   </g>
   <g id="patch_159">
    <path d="M 319.755305 273.312 
L 321.375195 273.312 
L 321.375195 88.549986 
L 319.755305 88.549986 
z
" clip-path="url(#pe9085f9504)" style="fill: #1f77b4"/>
   </g>
   <g id="patch_160">
    <path d="M 321.375195 273.312 
L 322.995086 273.312 
L 322.995086 86.118906 
L 321.375195 86.118906 
z
" clip-path="url(#pe9085f9504)" style="fill: #1f77b4"/>
   </g>
   <g id="patch_161">
    <path d="M 322.995086 273.312 
L 324.614976 273.312 
L 324.614976 90.981065 
L 322.995086 90.981065 
z
" clip-path="url(#pe9085f9504)" style="fill: #1f77b4"/>
   </g>
   <g id="patch_162">
    <path d="M 324.614976 273.312 
L 326.234867 273.312 
L 326.234867 79.433439 
L 324.614976 79.433439 
z
" clip-path="url(#pe9085f9504)" style="fill: #1f77b4"/>
   </g>
   <g id="patch_163">
    <path d="M 326.234867 273.312 
L 327.854758 273.312 
L 327.854758 80.648978 
L 326.234867 80.648978 
z
" clip-path="url(#pe9085f9504)" style="fill: #1f77b4"/>
   </g>
   <g id="patch_164">
    <path d="M 327.854758 273.312 
L 329.474648 273.312 
L 329.474648 72.140201 
L 327.854758 72.140201 
z
" clip-path="url(#pe9085f9504)" style="fill: #1f77b4"/>
   </g>
   <g id="patch_165">
    <path d="M 329.474648 273.312 
L 331.094539 273.312 
L 331.094539 73.963511 
L 329.474648 73.963511 
z
" clip-path="url(#pe9085f9504)" style="fill: #1f77b4"/>
   </g>
   <g id="patch_166">
    <path d="M 331.094539 273.312 
L 332.714429 273.312 
L 332.714429 61.200345 
L 331.094539 61.200345 
z
" clip-path="url(#pe9085f9504)" style="fill: #1f77b4"/>
   </g>
   <g id="patch_167">
    <path d="M 332.714429 273.312 
L 334.33432 273.312 
L 334.33432 75.17905 
L 332.714429 75.17905 
z
" clip-path="url(#pe9085f9504)" style="fill: #1f77b4"/>
   </g>
   <g id="patch_168">
    <path d="M 334.33432 273.312 
L 335.954211 273.312 
L 335.954211 67.885813 
L 334.33432 67.885813 
z
" clip-path="url(#pe9085f9504)" style="fill: #1f77b4"/>
   </g>
   <g id="patch_169">
    <path d="M 335.954211 273.312 
L 337.574101 273.312 
L 337.574101 63.631424 
L 335.954211 63.631424 
z
" clip-path="url(#pe9085f9504)" style="fill: #1f77b4"/>
   </g>
   <g id="patch_170">
    <path d="M 337.574101 273.312 
L 339.193992 273.312 
L 339.193992 72.747971 
L 337.574101 72.747971 
z
" clip-path="url(#pe9085f9504)" style="fill: #1f77b4"/>
   </g>
   <g id="patch_171">
    <path d="M 339.193992 273.312 
L 340.813882 273.312 
L 340.813882 67.278043 
L 339.193992 67.278043 
z
" clip-path="url(#pe9085f9504)" style="fill: #1f77b4"/>
   </g>
   <g id="patch_172">
    <path d="M 340.813882 273.312 
L 342.433773 273.312 
L 342.433773 63.023655 
L 340.813882 63.023655 
z
" clip-path="url(#pe9085f9504)" style="fill: #1f77b4"/>
   </g>
   <g id="patch_173">
    <path d="M 342.433773 273.312 
L 344.053664 273.312 
L 344.053664 56.945957 
L 342.433773 56.945957 
z
" clip-path="url(#pe9085f9504)" style="fill: #1f77b4"/>
   </g>
   <g id="patch_174">
    <path d="M 344.053664 273.312 
L 345.673554 273.312 
L 345.673554 66.062504 
L 344.053664 66.062504 
z
" clip-path="url(#pe9085f9504)" style="fill: #1f77b4"/>
   </g>
   <g id="patch_175">
    <path d="M 345.673554 273.312 
L 347.293445 273.312 
L 347.293445 55.122647 
L 345.673554 55.122647 
z
" clip-path="url(#pe9085f9504)" style="fill: #1f77b4"/>
   </g>
   <g id="patch_176">
    <path d="M 347.293445 273.312 
L 348.913335 273.312 
L 348.913335 69.709122 
L 347.293445 69.709122 
z
" clip-path="url(#pe9085f9504)" style="fill: #1f77b4"/>
   </g>
   <g id="patch_177">
    <path d="M 348.913335 273.312 
L 350.533226 273.312 
L 350.533226 66.062504 
L 348.913335 66.062504 
z
" clip-path="url(#pe9085f9504)" style="fill: #1f77b4"/>
   </g>
   <g id="patch_178">
    <path d="M 350.533226 273.312 
L 352.153117 273.312 
L 352.153117 57.553727 
L 350.533226 57.553727 
z
" clip-path="url(#pe9085f9504)" style="fill: #1f77b4"/>
   </g>
   <g id="patch_179">
    <path d="M 352.153117 273.312 
L 353.773007 273.312 
L 353.773007 71.532432 
L 352.153117 71.532432 
z
" clip-path="url(#pe9085f9504)" style="fill: #1f77b4"/>
   </g>
   <g id="patch_180">
    <path d="M 353.773007 273.312 
L 355.392898 273.312 
L 355.392898 61.200345 
L 353.773007 61.200345 
z
" clip-path="url(#pe9085f9504)" style="fill: #1f77b4"/>
   </g>
   <g id="patch_181">
    <path d="M 355.392898 273.312 
L 357.012789 273.312 
L 357.012789 68.493583 
L 355.392898 68.493583 
z
" clip-path="url(#pe9085f9504)" style="fill: #1f77b4"/>
   </g>
   <g id="patch_182">
    <path d="M 357.012789 273.312 
L 358.632679 273.312 
L 358.632679 52.691568 
L 357.012789 52.691568 
z
" clip-path="url(#pe9085f9504)" style="fill: #1f77b4"/>
   </g>
   <g id="patch_183">
    <path d="M 358.632679 273.312 
L 360.25257 273.312 
L 360.25257 39.928403 
L 358.632679 39.928403 
z
" clip-path="url(#pe9085f9504)" style="fill: #1f77b4"/>
   </g>
   <g id="patch_184">
    <path d="M 360.25257 273.312 
L 361.87246 273.312 
L 361.87246 46.006101 
L 360.25257 46.006101 
z
" clip-path="url(#pe9085f9504)" style="fill: #1f77b4"/>
   </g>
   <g id="patch_185">
    <path d="M 361.87246 273.312 
L 363.492351 273.312 
L 363.492351 60.592576 
L 361.87246 60.592576 
z
" clip-path="url(#pe9085f9504)" style="fill: #1f77b4"/>
   </g>
   <g id="patch_186">
    <path d="M 363.492351 273.312 
L 365.112242 273.312 
L 365.112242 46.006101 
L 363.492351 46.006101 
z
" clip-path="url(#pe9085f9504)" style="fill: #1f77b4"/>
   </g>
   <g id="patch_187">
    <path d="M 365.112242 273.312 
L 366.732132 273.312 
L 366.732132 46.006101 
L 365.112242 46.006101 
z
" clip-path="url(#pe9085f9504)" style="fill: #1f77b4"/>
   </g>
   <g id="patch_188">
    <path d="M 366.732132 273.312 
L 368.352023 273.312 
L 368.352023 41.751712 
L 366.732132 41.751712 
z
" clip-path="url(#pe9085f9504)" style="fill: #1f77b4"/>
   </g>
   <g id="patch_189">
    <path d="M 368.352023 273.312 
L 369.971913 273.312 
L 369.971913 25.341928 
L 368.352023 25.341928 
z
" clip-path="url(#pe9085f9504)" style="fill: #1f77b4"/>
   </g>
   <g id="patch_190">
    <path d="M 369.971913 273.312 
L 371.591804 273.312 
L 371.591804 59.377036 
L 369.971913 59.377036 
z
" clip-path="url(#pe9085f9504)" style="fill: #1f77b4"/>
   </g>
   <g id="patch_191">
    <path d="M 371.591804 273.312 
L 373.211695 273.312 
L 373.211695 48.43718 
L 371.591804 48.43718 
z
" clip-path="url(#pe9085f9504)" style="fill: #1f77b4"/>
   </g>
   <g id="patch_192">
    <path d="M 373.211695 273.312 
L 374.831585 273.312 
L 374.831585 56.945957 
L 373.211695 56.945957 
z
" clip-path="url(#pe9085f9504)" style="fill: #1f77b4"/>
   </g>
   <g id="patch_193">
    <path d="M 374.831585 273.312 
L 376.451476 273.312 
L 376.451476 28.988547 
L 374.831585 28.988547 
z
" clip-path="url(#pe9085f9504)" style="fill: #1f77b4"/>
   </g>
   <g id="patch_194">
    <path d="M 376.451476 273.312 
L 378.071366 273.312 
L 378.071366 66.062504 
L 376.451476 66.062504 
z
" clip-path="url(#pe9085f9504)" style="fill: #1f77b4"/>
   </g>
   <g id="patch_195">
    <path d="M 378.071366 273.312 
L 379.691257 273.312 
L 379.691257 47.22164 
L 378.071366 47.22164 
z
" clip-path="url(#pe9085f9504)" style="fill: #1f77b4"/>
   </g>
   <g id="patch_196">
    <path d="M 379.691257 273.312 
L 381.311148 273.312 
L 381.311148 40.536173 
L 379.691257 40.536173 
z
" clip-path="url(#pe9085f9504)" style="fill: #1f77b4"/>
   </g>
   <g id="patch_197">
    <path d="M 381.311148 273.312 
L 382.931038 273.312 
L 382.931038 30.811856 
L 381.311148 30.811856 
z
" clip-path="url(#pe9085f9504)" style="fill: #1f77b4"/>
   </g>
   <g id="patch_198">
    <path d="M 382.931038 273.312 
L 384.550929 273.312 
L 384.550929 46.613871 
L 382.931038 46.613871 
z
" clip-path="url(#pe9085f9504)" style="fill: #1f77b4"/>
   </g>
   <g id="patch_199">
    <path d="M 384.550929 273.312 
L 386.170819 273.312 
L 386.170819 21.08754 
L 384.550929 21.08754 
z
" clip-path="url(#pe9085f9504)" style="fill: #1f77b4"/>
   </g>
   <g id="patch_200">
    <path d="M 386.170819 273.312 
L 387.79071 273.312 
L 387.79071 40.536173 
L 386.170819 40.536173 
z
" clip-path="url(#pe9085f9504)" style="fill: #1f77b4"/>
   </g>
   <g id="patch_201">
    <path d="M 387.79071 273.312 
L 389.410601 273.312 
L 389.410601 19.872 
L 387.79071 19.872 
z
" clip-path="url(#pe9085f9504)" style="fill: #1f77b4"/>
   </g>
   <g id="patch_202">
    <path d="M 389.410601 273.312 
L 391.030491 273.312 
L 391.030491 30.811856 
L 389.410601 30.811856 
z
" clip-path="url(#pe9085f9504)" style="fill: #1f77b4"/>
   </g>
   <g id="matplotlib.axis_1">
    <g id="xtick_1">
     <g id="line2d_1">
      <defs>
       <path id="m189a441be2" d="M 0 0 
L 0 3.5 
" style="stroke: #000000; stroke-width: 0.8"/>
      </defs>
      <g>
       <use xlink:href="#m189a441be2" x="66.376477" y="273.312" style="stroke: #000000; stroke-width: 0.8"/>
      </g>
     </g>
     <g id="text_1">
      <!-- 0.0 -->
      <g transform="translate(58.424915 287.910437)scale(0.1 -0.1)">
       <defs>
        <path id="DejaVuSans-30" d="M 2034 4250 
Q 1547 4250 1301 3770 
Q 1056 3291 1056 2328 
Q 1056 1369 1301 889 
Q 1547 409 2034 409 
Q 2525 409 2770 889 
Q 3016 1369 3016 2328 
Q 3016 3291 2770 3770 
Q 2525 4250 2034 4250 
z
M 2034 4750 
Q 2819 4750 3233 4129 
Q 3647 3509 3647 2328 
Q 3647 1150 3233 529 
Q 2819 -91 2034 -91 
Q 1250 -91 836 529 
Q 422 1150 422 2328 
Q 422 3509 836 4129 
Q 1250 4750 2034 4750 
z
" transform="scale(0.015625)"/>
        <path id="DejaVuSans-2e" d="M 684 794 
L 1344 794 
L 1344 0 
L 684 0 
L 684 794 
z
" transform="scale(0.015625)"/>
       </defs>
       <use xlink:href="#DejaVuSans-30"/>
       <use xlink:href="#DejaVuSans-2e" x="63.623047"/>
       <use xlink:href="#DejaVuSans-30" x="95.410156"/>
      </g>
     </g>
    </g>
    <g id="xtick_2">
     <g id="line2d_2">
      <g>
       <use xlink:href="#m189a441be2" x="131.307386" y="273.312" style="stroke: #000000; stroke-width: 0.8"/>
      </g>
     </g>
     <g id="text_2">
      <!-- 0.2 -->
      <g transform="translate(123.355824 287.910437)scale(0.1 -0.1)">
       <defs>
        <path id="DejaVuSans-32" d="M 1228 531 
L 3431 531 
L 3431 0 
L 469 0 
L 469 531 
Q 828 903 1448 1529 
Q 2069 2156 2228 2338 
Q 2531 2678 2651 2914 
Q 2772 3150 2772 3378 
Q 2772 3750 2511 3984 
Q 2250 4219 1831 4219 
Q 1534 4219 1204 4116 
Q 875 4013 500 3803 
L 500 4441 
Q 881 4594 1212 4672 
Q 1544 4750 1819 4750 
Q 2544 4750 2975 4387 
Q 3406 4025 3406 3419 
Q 3406 3131 3298 2873 
Q 3191 2616 2906 2266 
Q 2828 2175 2409 1742 
Q 1991 1309 1228 531 
z
" transform="scale(0.015625)"/>
       </defs>
       <use xlink:href="#DejaVuSans-30"/>
       <use xlink:href="#DejaVuSans-2e" x="63.623047"/>
       <use xlink:href="#DejaVuSans-32" x="95.410156"/>
      </g>
     </g>
    </g>
    <g id="xtick_3">
     <g id="line2d_3">
      <g>
       <use xlink:href="#m189a441be2" x="196.238295" y="273.312" style="stroke: #000000; stroke-width: 0.8"/>
      </g>
     </g>
     <g id="text_3">
      <!-- 0.4 -->
      <g transform="translate(188.286733 287.910437)scale(0.1 -0.1)">
       <defs>
        <path id="DejaVuSans-34" d="M 2419 4116 
L 825 1625 
L 2419 1625 
L 2419 4116 
z
M 2253 4666 
L 3047 4666 
L 3047 1625 
L 3713 1625 
L 3713 1100 
L 3047 1100 
L 3047 0 
L 2419 0 
L 2419 1100 
L 313 1100 
L 313 1709 
L 2253 4666 
z
" transform="scale(0.015625)"/>
       </defs>
       <use xlink:href="#DejaVuSans-30"/>
       <use xlink:href="#DejaVuSans-2e" x="63.623047"/>
       <use xlink:href="#DejaVuSans-34" x="95.410156"/>
      </g>
     </g>
    </g>
    <g id="xtick_4">
     <g id="line2d_4">
      <g>
       <use xlink:href="#m189a441be2" x="261.169205" y="273.312" style="stroke: #000000; stroke-width: 0.8"/>
      </g>
     </g>
     <g id="text_4">
      <!-- 0.6 -->
      <g transform="translate(253.217642 287.910437)scale(0.1 -0.1)">
       <defs>
        <path id="DejaVuSans-36" d="M 2113 2584 
Q 1688 2584 1439 2293 
Q 1191 2003 1191 1497 
Q 1191 994 1439 701 
Q 1688 409 2113 409 
Q 2538 409 2786 701 
Q 3034 994 3034 1497 
Q 3034 2003 2786 2293 
Q 2538 2584 2113 2584 
z
M 3366 4563 
L 3366 3988 
Q 3128 4100 2886 4159 
Q 2644 4219 2406 4219 
Q 1781 4219 1451 3797 
Q 1122 3375 1075 2522 
Q 1259 2794 1537 2939 
Q 1816 3084 2150 3084 
Q 2853 3084 3261 2657 
Q 3669 2231 3669 1497 
Q 3669 778 3244 343 
Q 2819 -91 2113 -91 
Q 1303 -91 875 529 
Q 447 1150 447 2328 
Q 447 3434 972 4092 
Q 1497 4750 2381 4750 
Q 2619 4750 2861 4703 
Q 3103 4656 3366 4563 
z
" transform="scale(0.015625)"/>
       </defs>
       <use xlink:href="#DejaVuSans-30"/>
       <use xlink:href="#DejaVuSans-2e" x="63.623047"/>
       <use xlink:href="#DejaVuSans-36" x="95.410156"/>
      </g>
     </g>
    </g>
    <g id="xtick_5">
     <g id="line2d_5">
      <g>
       <use xlink:href="#m189a441be2" x="326.100114" y="273.312" style="stroke: #000000; stroke-width: 0.8"/>
      </g>
     </g>
     <g id="text_5">
      <!-- 0.8 -->
      <g transform="translate(318.148551 287.910437)scale(0.1 -0.1)">
       <defs>
        <path id="DejaVuSans-38" d="M 2034 2216 
Q 1584 2216 1326 1975 
Q 1069 1734 1069 1313 
Q 1069 891 1326 650 
Q 1584 409 2034 409 
Q 2484 409 2743 651 
Q 3003 894 3003 1313 
Q 3003 1734 2745 1975 
Q 2488 2216 2034 2216 
z
M 1403 2484 
Q 997 2584 770 2862 
Q 544 3141 544 3541 
Q 544 4100 942 4425 
Q 1341 4750 2034 4750 
Q 2731 4750 3128 4425 
Q 3525 4100 3525 3541 
Q 3525 3141 3298 2862 
Q 3072 2584 2669 2484 
Q 3125 2378 3379 2068 
Q 3634 1759 3634 1313 
Q 3634 634 3220 271 
Q 2806 -91 2034 -91 
Q 1263 -91 848 271 
Q 434 634 434 1313 
Q 434 1759 690 2068 
Q 947 2378 1403 2484 
z
M 1172 3481 
Q 1172 3119 1398 2916 
Q 1625 2713 2034 2713 
Q 2441 2713 2670 2916 
Q 2900 3119 2900 3481 
Q 2900 3844 2670 4047 
Q 2441 4250 2034 4250 
Q 1625 4250 1398 4047 
Q 1172 3844 1172 3481 
z
" transform="scale(0.015625)"/>
       </defs>
       <use xlink:href="#DejaVuSans-30"/>
       <use xlink:href="#DejaVuSans-2e" x="63.623047"/>
       <use xlink:href="#DejaVuSans-38" x="95.410156"/>
      </g>
     </g>
    </g>
    <g id="xtick_6">
     <g id="line2d_6">
      <g>
       <use xlink:href="#m189a441be2" x="391.031023" y="273.312" style="stroke: #000000; stroke-width: 0.8"/>
      </g>
     </g>
     <g id="text_6">
      <!-- 1.0 -->
      <g transform="translate(383.07946 287.910437)scale(0.1 -0.1)">
       <defs>
        <path id="DejaVuSans-31" d="M 794 531 
L 1825 531 
L 1825 4091 
L 703 3866 
L 703 4441 
L 1819 4666 
L 2450 4666 
L 2450 531 
L 3481 531 
L 3481 0 
L 794 0 
L 794 531 
z
" transform="scale(0.015625)"/>
       </defs>
       <use xlink:href="#DejaVuSans-31"/>
       <use xlink:href="#DejaVuSans-2e" x="63.623047"/>
       <use xlink:href="#DejaVuSans-30" x="95.410156"/>
      </g>
     </g>
    </g>
    <g id="text_7">
     <!-- Propagation direction -->
     <g transform="translate(175.221719 301.588562)scale(0.1 -0.1)">
      <defs>
       <path id="DejaVuSans-50" d="M 1259 4147 
L 1259 2394 
L 2053 2394 
Q 2494 2394 2734 2622 
Q 2975 2850 2975 3272 
Q 2975 3691 2734 3919 
Q 2494 4147 2053 4147 
L 1259 4147 
z
M 628 4666 
L 2053 4666 
Q 2838 4666 3239 4311 
Q 3641 3956 3641 3272 
Q 3641 2581 3239 2228 
Q 2838 1875 2053 1875 
L 1259 1875 
L 1259 0 
L 628 0 
L 628 4666 
z
" transform="scale(0.015625)"/>
       <path id="DejaVuSans-72" d="M 2631 2963 
Q 2534 3019 2420 3045 
Q 2306 3072 2169 3072 
Q 1681 3072 1420 2755 
Q 1159 2438 1159 1844 
L 1159 0 
L 581 0 
L 581 3500 
L 1159 3500 
L 1159 2956 
Q 1341 3275 1631 3429 
Q 1922 3584 2338 3584 
Q 2397 3584 2469 3576 
Q 2541 3569 2628 3553 
L 2631 2963 
z
" transform="scale(0.015625)"/>
       <path id="DejaVuSans-6f" d="M 1959 3097 
Q 1497 3097 1228 2736 
Q 959 2375 959 1747 
Q 959 1119 1226 758 
Q 1494 397 1959 397 
Q 2419 397 2687 759 
Q 2956 1122 2956 1747 
Q 2956 2369 2687 2733 
Q 2419 3097 1959 3097 
z
M 1959 3584 
Q 2709 3584 3137 3096 
Q 3566 2609 3566 1747 
Q 3566 888 3137 398 
Q 2709 -91 1959 -91 
Q 1206 -91 779 398 
Q 353 888 353 1747 
Q 353 2609 779 3096 
Q 1206 3584 1959 3584 
z
" transform="scale(0.015625)"/>
       <path id="DejaVuSans-70" d="M 1159 525 
L 1159 -1331 
L 581 -1331 
L 581 3500 
L 1159 3500 
L 1159 2969 
Q 1341 3281 1617 3432 
Q 1894 3584 2278 3584 
Q 2916 3584 3314 3078 
Q 3713 2572 3713 1747 
Q 3713 922 3314 415 
Q 2916 -91 2278 -91 
Q 1894 -91 1617 61 
Q 1341 213 1159 525 
z
M 3116 1747 
Q 3116 2381 2855 2742 
Q 2594 3103 2138 3103 
Q 1681 3103 1420 2742 
Q 1159 2381 1159 1747 
Q 1159 1113 1420 752 
Q 1681 391 2138 391 
Q 2594 391 2855 752 
Q 3116 1113 3116 1747 
z
" transform="scale(0.015625)"/>
       <path id="DejaVuSans-61" d="M 2194 1759 
Q 1497 1759 1228 1600 
Q 959 1441 959 1056 
Q 959 750 1161 570 
Q 1363 391 1709 391 
Q 2188 391 2477 730 
Q 2766 1069 2766 1631 
L 2766 1759 
L 2194 1759 
z
M 3341 1997 
L 3341 0 
L 2766 0 
L 2766 531 
Q 2569 213 2275 61 
Q 1981 -91 1556 -91 
Q 1019 -91 701 211 
Q 384 513 384 1019 
Q 384 1609 779 1909 
Q 1175 2209 1959 2209 
L 2766 2209 
L 2766 2266 
Q 2766 2663 2505 2880 
Q 2244 3097 1772 3097 
Q 1472 3097 1187 3025 
Q 903 2953 641 2809 
L 641 3341 
Q 956 3463 1253 3523 
Q 1550 3584 1831 3584 
Q 2591 3584 2966 3190 
Q 3341 2797 3341 1997 
z
" transform="scale(0.015625)"/>
       <path id="DejaVuSans-67" d="M 2906 1791 
Q 2906 2416 2648 2759 
Q 2391 3103 1925 3103 
Q 1463 3103 1205 2759 
Q 947 2416 947 1791 
Q 947 1169 1205 825 
Q 1463 481 1925 481 
Q 2391 481 2648 825 
Q 2906 1169 2906 1791 
z
M 3481 434 
Q 3481 -459 3084 -895 
Q 2688 -1331 1869 -1331 
Q 1566 -1331 1297 -1286 
Q 1028 -1241 775 -1147 
L 775 -588 
Q 1028 -725 1275 -790 
Q 1522 -856 1778 -856 
Q 2344 -856 2625 -561 
Q 2906 -266 2906 331 
L 2906 616 
Q 2728 306 2450 153 
Q 2172 0 1784 0 
Q 1141 0 747 490 
Q 353 981 353 1791 
Q 353 2603 747 3093 
Q 1141 3584 1784 3584 
Q 2172 3584 2450 3431 
Q 2728 3278 2906 2969 
L 2906 3500 
L 3481 3500 
L 3481 434 
z
" transform="scale(0.015625)"/>
       <path id="DejaVuSans-74" d="M 1172 4494 
L 1172 3500 
L 2356 3500 
L 2356 3053 
L 1172 3053 
L 1172 1153 
Q 1172 725 1289 603 
Q 1406 481 1766 481 
L 2356 481 
L 2356 0 
L 1766 0 
Q 1100 0 847 248 
Q 594 497 594 1153 
L 594 3053 
L 172 3053 
L 172 3500 
L 594 3500 
L 594 4494 
L 1172 4494 
z
" transform="scale(0.015625)"/>
       <path id="DejaVuSans-69" d="M 603 3500 
L 1178 3500 
L 1178 0 
L 603 0 
L 603 3500 
z
M 603 4863 
L 1178 4863 
L 1178 4134 
L 603 4134 
L 603 4863 
z
" transform="scale(0.015625)"/>
       <path id="DejaVuSans-6e" d="M 3513 2113 
L 3513 0 
L 2938 0 
L 2938 2094 
Q 2938 2591 2744 2837 
Q 2550 3084 2163 3084 
Q 1697 3084 1428 2787 
Q 1159 2491 1159 1978 
L 1159 0 
L 581 0 
L 581 3500 
L 1159 3500 
L 1159 2956 
Q 1366 3272 1645 3428 
Q 1925 3584 2291 3584 
Q 2894 3584 3203 3211 
Q 3513 2838 3513 2113 
z
" transform="scale(0.015625)"/>
       <path id="DejaVuSans-20" transform="scale(0.015625)"/>
       <path id="DejaVuSans-64" d="M 2906 2969 
L 2906 4863 
L 3481 4863 
L 3481 0 
L 2906 0 
L 2906 525 
Q 2725 213 2448 61 
Q 2172 -91 1784 -91 
Q 1150 -91 751 415 
Q 353 922 353 1747 
Q 353 2572 751 3078 
Q 1150 3584 1784 3584 
Q 2172 3584 2448 3432 
Q 2725 3281 2906 2969 
z
M 947 1747 
Q 947 1113 1208 752 
Q 1469 391 1925 391 
Q 2381 391 2643 752 
Q 2906 1113 2906 1747 
Q 2906 2381 2643 2742 
Q 2381 3103 1925 3103 
Q 1469 3103 1208 2742 
Q 947 2381 947 1747 
z
" transform="scale(0.015625)"/>
       <path id="DejaVuSans-65" d="M 3597 1894 
L 3597 1613 
L 953 1613 
Q 991 1019 1311 708 
Q 1631 397 2203 397 
Q 2534 397 2845 478 
Q 3156 559 3463 722 
L 3463 178 
Q 3153 47 2828 -22 
Q 2503 -91 2169 -91 
Q 1331 -91 842 396 
Q 353 884 353 1716 
Q 353 2575 817 3079 
Q 1281 3584 2069 3584 
Q 2775 3584 3186 3129 
Q 3597 2675 3597 1894 
z
M 3022 2063 
Q 3016 2534 2758 2815 
Q 2500 3097 2075 3097 
Q 1594 3097 1305 2825 
Q 1016 2553 972 2059 
L 3022 2063 
z
" transform="scale(0.015625)"/>
       <path id="DejaVuSans-63" d="M 3122 3366 
L 3122 2828 
Q 2878 2963 2633 3030 
Q 2388 3097 2138 3097 
Q 1578 3097 1268 2742 
Q 959 2388 959 1747 
Q 959 1106 1268 751 
Q 1578 397 2138 397 
Q 2388 397 2633 464 
Q 2878 531 3122 666 
L 3122 134 
Q 2881 22 2623 -34 
Q 2366 -91 2075 -91 
Q 1284 -91 818 406 
Q 353 903 353 1747 
Q 353 2603 823 3093 
Q 1294 3584 2113 3584 
Q 2378 3584 2631 3529 
Q 2884 3475 3122 3366 
z
" transform="scale(0.015625)"/>
      </defs>
      <use xlink:href="#DejaVuSans-50"/>
      <use xlink:href="#DejaVuSans-72" x="58.552734"/>
      <use xlink:href="#DejaVuSans-6f" x="97.416016"/>
      <use xlink:href="#DejaVuSans-70" x="158.597656"/>
      <use xlink:href="#DejaVuSans-61" x="222.074219"/>
      <use xlink:href="#DejaVuSans-67" x="283.353516"/>
      <use xlink:href="#DejaVuSans-61" x="346.830078"/>
      <use xlink:href="#DejaVuSans-74" x="408.109375"/>
      <use xlink:href="#DejaVuSans-69" x="447.318359"/>
      <use xlink:href="#DejaVuSans-6f" x="475.101562"/>
      <use xlink:href="#DejaVuSans-6e" x="536.283203"/>
      <use xlink:href="#DejaVuSans-20" x="599.662109"/>
      <use xlink:href="#DejaVuSans-64" x="631.449219"/>
      <use xlink:href="#DejaVuSans-69" x="694.925781"/>
      <use xlink:href="#DejaVuSans-72" x="722.708984"/>
      <use xlink:href="#DejaVuSans-65" x="761.572266"/>
      <use xlink:href="#DejaVuSans-63" x="823.095703"/>
      <use xlink:href="#DejaVuSans-74" x="878.076172"/>
      <use xlink:href="#DejaVuSans-69" x="917.285156"/>
      <use xlink:href="#DejaVuSans-6f" x="945.068359"/>
      <use xlink:href="#DejaVuSans-6e" x="1006.25"/>
     </g>
    </g>
   </g>
   <g id="matplotlib.axis_2">
    <g id="ytick_1">
     <g id="line2d_7">
      <defs>
       <path id="m19e16301a2" d="M 0 0 
L -3.5 0 
" style="stroke: #000000; stroke-width: 0.8"/>
      </defs>
      <g>
       <use xlink:href="#m19e16301a2" x="50.14375" y="273.312" style="stroke: #000000; stroke-width: 0.8"/>
      </g>
     </g>
     <g id="text_8">
      <!-- 0.00 -->
      <g transform="translate(20.878125 277.111219)scale(0.1 -0.1)">
       <use xlink:href="#DejaVuSans-30"/>
       <use xlink:href="#DejaVuSans-2e" x="63.623047"/>
       <use xlink:href="#DejaVuSans-30" x="95.410156"/>
       <use xlink:href="#DejaVuSans-30" x="159.033203"/>
      </g>
     </g>
    </g>
    <g id="ytick_2">
     <g id="line2d_8">
      <g>
       <use xlink:href="#m19e16301a2" x="50.14375" y="242.986826" style="stroke: #000000; stroke-width: 0.8"/>
      </g>
     </g>
     <g id="text_9">
      <!-- 0.25 -->
      <g transform="translate(20.878125 246.786045)scale(0.1 -0.1)">
       <defs>
        <path id="DejaVuSans-35" d="M 691 4666 
L 3169 4666 
L 3169 4134 
L 1269 4134 
L 1269 2991 
Q 1406 3038 1543 3061 
Q 1681 3084 1819 3084 
Q 2600 3084 3056 2656 
Q 3513 2228 3513 1497 
Q 3513 744 3044 326 
Q 2575 -91 1722 -91 
Q 1428 -91 1123 -41 
Q 819 9 494 109 
L 494 744 
Q 775 591 1075 516 
Q 1375 441 1709 441 
Q 2250 441 2565 725 
Q 2881 1009 2881 1497 
Q 2881 1984 2565 2268 
Q 2250 2553 1709 2553 
Q 1456 2553 1204 2497 
Q 953 2441 691 2322 
L 691 4666 
z
" transform="scale(0.015625)"/>
       </defs>
       <use xlink:href="#DejaVuSans-30"/>
       <use xlink:href="#DejaVuSans-2e" x="63.623047"/>
       <use xlink:href="#DejaVuSans-32" x="95.410156"/>
       <use xlink:href="#DejaVuSans-35" x="159.033203"/>
      </g>
     </g>
    </g>
    <g id="ytick_3">
     <g id="line2d_9">
      <g>
       <use xlink:href="#m19e16301a2" x="50.14375" y="212.661652" style="stroke: #000000; stroke-width: 0.8"/>
      </g>
     </g>
     <g id="text_10">
      <!-- 0.50 -->
      <g transform="translate(20.878125 216.46087)scale(0.1 -0.1)">
       <use xlink:href="#DejaVuSans-30"/>
       <use xlink:href="#DejaVuSans-2e" x="63.623047"/>
       <use xlink:href="#DejaVuSans-35" x="95.410156"/>
       <use xlink:href="#DejaVuSans-30" x="159.033203"/>
      </g>
     </g>
    </g>
    <g id="ytick_4">
     <g id="line2d_10">
      <g>
       <use xlink:href="#m19e16301a2" x="50.14375" y="182.336477" style="stroke: #000000; stroke-width: 0.8"/>
      </g>
     </g>
     <g id="text_11">
      <!-- 0.75 -->
      <g transform="translate(20.878125 186.135696)scale(0.1 -0.1)">
       <defs>
        <path id="DejaVuSans-37" d="M 525 4666 
L 3525 4666 
L 3525 4397 
L 1831 0 
L 1172 0 
L 2766 4134 
L 525 4134 
L 525 4666 
z
" transform="scale(0.015625)"/>
       </defs>
       <use xlink:href="#DejaVuSans-30"/>
       <use xlink:href="#DejaVuSans-2e" x="63.623047"/>
       <use xlink:href="#DejaVuSans-37" x="95.410156"/>
       <use xlink:href="#DejaVuSans-35" x="159.033203"/>
      </g>
     </g>
    </g>
    <g id="ytick_5">
     <g id="line2d_11">
      <g>
       <use xlink:href="#m19e16301a2" x="50.14375" y="152.011303" style="stroke: #000000; stroke-width: 0.8"/>
      </g>
     </g>
     <g id="text_12">
      <!-- 1.00 -->
      <g transform="translate(20.878125 155.810522)scale(0.1 -0.1)">
       <use xlink:href="#DejaVuSans-31"/>
       <use xlink:href="#DejaVuSans-2e" x="63.623047"/>
       <use xlink:href="#DejaVuSans-30" x="95.410156"/>
       <use xlink:href="#DejaVuSans-30" x="159.033203"/>
      </g>
     </g>
    </g>
    <g id="ytick_6">
     <g id="line2d_12">
      <g>
       <use xlink:href="#m19e16301a2" x="50.14375" y="121.686129" style="stroke: #000000; stroke-width: 0.8"/>
      </g>
     </g>
     <g id="text_13">
      <!-- 1.25 -->
      <g transform="translate(20.878125 125.485348)scale(0.1 -0.1)">
       <use xlink:href="#DejaVuSans-31"/>
       <use xlink:href="#DejaVuSans-2e" x="63.623047"/>
       <use xlink:href="#DejaVuSans-32" x="95.410156"/>
       <use xlink:href="#DejaVuSans-35" x="159.033203"/>
      </g>
     </g>
    </g>
    <g id="ytick_7">
     <g id="line2d_13">
      <g>
       <use xlink:href="#m19e16301a2" x="50.14375" y="91.360955" style="stroke: #000000; stroke-width: 0.8"/>
      </g>
     </g>
     <g id="text_14">
      <!-- 1.50 -->
      <g transform="translate(20.878125 95.160174)scale(0.1 -0.1)">
       <use xlink:href="#DejaVuSans-31"/>
       <use xlink:href="#DejaVuSans-2e" x="63.623047"/>
       <use xlink:href="#DejaVuSans-35" x="95.410156"/>
       <use xlink:href="#DejaVuSans-30" x="159.033203"/>
      </g>
     </g>
    </g>
    <g id="ytick_8">
     <g id="line2d_14">
      <g>
       <use xlink:href="#m19e16301a2" x="50.14375" y="61.035781" style="stroke: #000000; stroke-width: 0.8"/>
      </g>
     </g>
     <g id="text_15">
      <!-- 1.75 -->
      <g transform="translate(20.878125 64.834999)scale(0.1 -0.1)">
       <use xlink:href="#DejaVuSans-31"/>
       <use xlink:href="#DejaVuSans-2e" x="63.623047"/>
       <use xlink:href="#DejaVuSans-37" x="95.410156"/>
       <use xlink:href="#DejaVuSans-35" x="159.033203"/>
      </g>
     </g>
    </g>
    <g id="ytick_9">
     <g id="line2d_15">
      <g>
       <use xlink:href="#m19e16301a2" x="50.14375" y="30.710606" style="stroke: #000000; stroke-width: 0.8"/>
      </g>
     </g>
     <g id="text_16">
      <!-- 2.00 -->
      <g transform="translate(20.878125 34.509825)scale(0.1 -0.1)">
       <use xlink:href="#DejaVuSans-32"/>
       <use xlink:href="#DejaVuSans-2e" x="63.623047"/>
       <use xlink:href="#DejaVuSans-30" x="95.410156"/>
       <use xlink:href="#DejaVuSans-30" x="159.033203"/>
      </g>
     </g>
    </g>
    <g id="text_17">
     <!-- Probability density -->
     <g transform="translate(14.798438 186.606781)rotate(-90)scale(0.1 -0.1)">
      <defs>
       <path id="DejaVuSans-62" d="M 3116 1747 
Q 3116 2381 2855 2742 
Q 2594 3103 2138 3103 
Q 1681 3103 1420 2742 
Q 1159 2381 1159 1747 
Q 1159 1113 1420 752 
Q 1681 391 2138 391 
Q 2594 391 2855 752 
Q 3116 1113 3116 1747 
z
M 1159 2969 
Q 1341 3281 1617 3432 
Q 1894 3584 2278 3584 
Q 2916 3584 3314 3078 
Q 3713 2572 3713 1747 
Q 3713 922 3314 415 
Q 2916 -91 2278 -91 
Q 1894 -91 1617 61 
Q 1341 213 1159 525 
L 1159 0 
L 581 0 
L 581 4863 
L 1159 4863 
L 1159 2969 
z
" transform="scale(0.015625)"/>
       <path id="DejaVuSans-6c" d="M 603 4863 
L 1178 4863 
L 1178 0 
L 603 0 
L 603 4863 
z
" transform="scale(0.015625)"/>
       <path id="DejaVuSans-79" d="M 2059 -325 
Q 1816 -950 1584 -1140 
Q 1353 -1331 966 -1331 
L 506 -1331 
L 506 -850 
L 844 -850 
Q 1081 -850 1212 -737 
Q 1344 -625 1503 -206 
L 1606 56 
L 191 3500 
L 800 3500 
L 1894 763 
L 2988 3500 
L 3597 3500 
L 2059 -325 
z
" transform="scale(0.015625)"/>
       <path id="DejaVuSans-73" d="M 2834 3397 
L 2834 2853 
Q 2591 2978 2328 3040 
Q 2066 3103 1784 3103 
Q 1356 3103 1142 2972 
Q 928 2841 928 2578 
Q 928 2378 1081 2264 
Q 1234 2150 1697 2047 
L 1894 2003 
Q 2506 1872 2764 1633 
Q 3022 1394 3022 966 
Q 3022 478 2636 193 
Q 2250 -91 1575 -91 
Q 1294 -91 989 -36 
Q 684 19 347 128 
L 347 722 
Q 666 556 975 473 
Q 1284 391 1588 391 
Q 1994 391 2212 530 
Q 2431 669 2431 922 
Q 2431 1156 2273 1281 
Q 2116 1406 1581 1522 
L 1381 1569 
Q 847 1681 609 1914 
Q 372 2147 372 2553 
Q 372 3047 722 3315 
Q 1072 3584 1716 3584 
Q 2034 3584 2315 3537 
Q 2597 3491 2834 3397 
z
" transform="scale(0.015625)"/>
      </defs>
      <use xlink:href="#DejaVuSans-50"/>
      <use xlink:href="#DejaVuSans-72" x="58.552734"/>
      <use xlink:href="#DejaVuSans-6f" x="97.416016"/>
      <use xlink:href="#DejaVuSans-62" x="158.597656"/>
      <use xlink:href="#DejaVuSans-61" x="222.074219"/>
      <use xlink:href="#DejaVuSans-62" x="283.353516"/>
      <use xlink:href="#DejaVuSans-69" x="346.830078"/>
      <use xlink:href="#DejaVuSans-6c" x="374.613281"/>
      <use xlink:href="#DejaVuSans-69" x="402.396484"/>
      <use xlink:href="#DejaVuSans-74" x="430.179688"/>
      <use xlink:href="#DejaVuSans-79" x="469.388672"/>
      <use xlink:href="#DejaVuSans-20" x="528.568359"/>
      <use xlink:href="#DejaVuSans-64" x="560.355469"/>
      <use xlink:href="#DejaVuSans-65" x="623.832031"/>
      <use xlink:href="#DejaVuSans-6e" x="685.355469"/>
      <use xlink:href="#DejaVuSans-73" x="748.734375"/>
      <use xlink:href="#DejaVuSans-69" x="800.833984"/>
      <use xlink:href="#DejaVuSans-74" x="828.617188"/>
      <use xlink:href="#DejaVuSans-79" x="867.826172"/>
     </g>
    </g>
   </g>
   <g id="line2d_16">
    <path d="M 66.376477 273.312 
L 391.031023 30.710606 
L 391.031023 30.710606 
" clip-path="url(#pe9085f9504)" style="fill: none; stroke: #ff7f0e; stroke-width: 1.5; stroke-linecap: square"/>
   </g>
   <g id="patch_203">
    <path d="M 50.14375 273.312 
L 50.14375 7.2 
" style="fill: none; stroke: #000000; stroke-width: 0.8; stroke-linejoin: miter; stroke-linecap: square"/>
   </g>
   <g id="patch_204">
    <path d="M 407.26375 273.312 
L 407.26375 7.2 
" style="fill: none; stroke: #000000; stroke-width: 0.8; stroke-linejoin: miter; stroke-linecap: square"/>
   </g>
   <g id="patch_205">
    <path d="M 50.14375 273.312 
L 407.26375 273.312 
" style="fill: none; stroke: #000000; stroke-width: 0.8; stroke-linejoin: miter; stroke-linecap: square"/>
   </g>
   <g id="patch_206">
    <path d="M 50.14375 7.2 
L 407.26375 7.2 
" style="fill: none; stroke: #000000; stroke-width: 0.8; stroke-linejoin: miter; stroke-linecap: square"/>
   </g>
  </g>
 </g>
 <defs>
  <clipPath id="pe9085f9504">
   <rect x="50.14375" y="7.2" width="357.12" height="266.112"/>
  </clipPath>
 </defs>
</svg>
