<?xml version="1.0" encoding="utf-8" standalone="no"?>
<!DOCTYPE svg PUBLIC "-//W3C//DTD SVG 1.1//EN"
  "http://www.w3.org/Graphics/SVG/1.1/DTD/svg11.dtd">
<svg xmlns:xlink="http://www.w3.org/1999/xlink" width="408.10125pt" height="310.86825pt" viewBox="0 0 408.10125 310.86825" xmlns="http://www.w3.org/2000/svg" version="1.1">
 <metadata>
  <rdf:RDF xmlns:dc="http://purl.org/dc/elements/1.1/" xmlns:cc="http://creativecommons.org/ns#" xmlns:rdf="http://www.w3.org/1999/02/22-rdf-syntax-ns#">
   <cc:Work>
    <dc:type rdf:resource="http://purl.org/dc/dcmitype/StillImage"/>
    <dc:date>2022-05-11T15:28:33.680475</dc:date>
    <dc:format>image/svg+xml</dc:format>
    <dc:creator>
     <cc:Agent>
      <dc:title>Matplotlib v3.5.2, https://matplotlib.org/</dc:title>
     </cc:Agent>
    </dc:creator>
   </cc:Work>
  </rdf:RDF>
 </metadata>
 <defs>
  <style type="text/css">*{stroke-linejoin: round; stroke-linecap: butt}</style>
 </defs>
 <g id="figure_1">
  <g id="patch_1">
   <path d="M 0 310.86825 
L 408.10125 310.86825 
L 408.10125 0 
L 0 0 
z
" style="fill: #ffffff"/>
  </g>
  <g id="axes_1">
   <g id="patch_2">
    <path d="M 43.78125 273.312 
L 400.90125 273.312 
L 400.90125 7.2 
L 43.78125 7.2 
z
" style="fill: #ffffff"/>
   </g>
   <g id="patch_3">
    <path d="M 60.895296 273.312 
L 62.50961 273.312 
L 62.50961 268.772776 
L 60.895296 268.772776 
z
" clip-path="url(#pf02908c222)" style="fill: #1f77b4"/>
   </g>
   <g id="patch_4">
    <path d="M 62.50961 273.312 
L 64.123924 273.312 
L 64.123924 266.503164 
L 62.50961 266.503164 
z
" clip-path="url(#pf02908c222)" style="fill: #1f77b4"/>
   </g>
   <g id="patch_5">
    <path d="M 64.123924 273.312 
L 65.738238 273.312 
L 65.738238 266.503164 
L 64.123924 266.503164 
z
" clip-path="url(#pf02908c222)" style="fill: #1f77b4"/>
   </g>
   <g id="patch_6">
    <path d="M 65.738238 273.312 
L 67.352552 273.312 
L 67.352552 255.155104 
L 65.738238 255.155104 
z
" clip-path="url(#pf02908c222)" style="fill: #1f77b4"/>
   </g>
   <g id="patch_7">
    <path d="M 67.352552 273.312 
L 68.966866 273.312 
L 68.966866 255.911642 
L 67.352552 255.911642 
z
" clip-path="url(#pf02908c222)" style="fill: #1f77b4"/>
   </g>
   <g id="patch_8">
    <path d="M 68.966866 273.312 
L 70.58118 273.312 
L 70.58118 247.589731 
L 68.966866 247.589731 
z
" clip-path="url(#pf02908c222)" style="fill: #1f77b4"/>
   </g>
   <g id="patch_9">
    <path d="M 70.58118 273.312 
L 72.195494 273.312 
L 72.195494 246.833194 
L 70.58118 246.833194 
z
" clip-path="url(#pf02908c222)" style="fill: #1f77b4"/>
   </g>
   <g id="patch_10">
    <path d="M 72.195494 273.312 
L 73.809808 273.312 
L 73.809808 240.024358 
L 72.195494 240.024358 
z
" clip-path="url(#pf02908c222)" style="fill: #1f77b4"/>
   </g>
   <g id="patch_11">
    <path d="M 73.809808 273.312 
L 75.424121 273.312 
L 75.424121 239.267821 
L 73.809808 239.267821 
z
" clip-path="url(#pf02908c222)" style="fill: #1f77b4"/>
   </g>
   <g id="patch_12">
    <path d="M 75.424121 273.312 
L 77.038435 273.312 
L 77.038435 243.050507 
L 75.424121 243.050507 
z
" clip-path="url(#pf02908c222)" style="fill: #1f77b4"/>
   </g>
   <g id="patch_13">
    <path d="M 77.038435 273.312 
L 78.652749 273.312 
L 78.652749 226.406687 
L 77.038435 226.406687 
z
" clip-path="url(#pf02908c222)" style="fill: #1f77b4"/>
   </g>
   <g id="patch_14">
    <path d="M 78.652749 273.312 
L 80.267063 273.312 
L 80.267063 226.406687 
L 78.652749 226.406687 
z
" clip-path="url(#pf02908c222)" style="fill: #1f77b4"/>
   </g>
   <g id="patch_15">
    <path d="M 80.267063 273.312 
L 81.881377 273.312 
L 81.881377 227.163224 
L 80.267063 227.163224 
z
" clip-path="url(#pf02908c222)" style="fill: #1f77b4"/>
   </g>
   <g id="patch_16">
    <path d="M 81.881377 273.312 
L 83.495691 273.312 
L 83.495691 221.110925 
L 81.881377 221.110925 
z
" clip-path="url(#pf02908c222)" style="fill: #1f77b4"/>
   </g>
   <g id="patch_17">
    <path d="M 83.495691 273.312 
L 85.110005 273.312 
L 85.110005 218.841313 
L 83.495691 218.841313 
z
" clip-path="url(#pf02908c222)" style="fill: #1f77b4"/>
   </g>
   <g id="patch_18">
    <path d="M 85.110005 273.312 
L 86.724319 273.312 
L 86.724319 221.867463 
L 85.110005 221.867463 
z
" clip-path="url(#pf02908c222)" style="fill: #1f77b4"/>
   </g>
   <g id="patch_19">
    <path d="M 86.724319 273.312 
L 88.338633 273.312 
L 88.338633 207.493254 
L 86.724319 207.493254 
z
" clip-path="url(#pf02908c222)" style="fill: #1f77b4"/>
   </g>
   <g id="patch_20">
    <path d="M 88.338633 273.312 
L 89.952947 273.312 
L 89.952947 204.467104 
L 88.338633 204.467104 
z
" clip-path="url(#pf02908c222)" style="fill: #1f77b4"/>
   </g>
   <g id="patch_21">
    <path d="M 89.952947 273.312 
L 91.567261 273.312 
L 91.567261 202.197493 
L 89.952947 202.197493 
z
" clip-path="url(#pf02908c222)" style="fill: #1f77b4"/>
   </g>
   <g id="patch_22">
    <path d="M 91.567261 273.312 
L 93.181574 273.312 
L 93.181574 197.658269 
L 91.567261 197.658269 
z
" clip-path="url(#pf02908c222)" style="fill: #1f77b4"/>
   </g>
   <g id="patch_23">
    <path d="M 93.181574 273.312 
L 94.795888 273.312 
L 94.795888 202.197493 
L 93.181574 202.197493 
z
" clip-path="url(#pf02908c222)" style="fill: #1f77b4"/>
   </g>
   <g id="patch_24">
    <path d="M 94.795888 273.312 
L 96.410202 273.312 
L 96.410202 190.849433 
L 94.795888 190.849433 
z
" clip-path="url(#pf02908c222)" style="fill: #1f77b4"/>
   </g>
   <g id="patch_25">
    <path d="M 96.410202 273.312 
L 98.024516 273.312 
L 98.024516 194.632119 
L 96.410202 194.632119 
z
" clip-path="url(#pf02908c222)" style="fill: #1f77b4"/>
   </g>
   <g id="patch_26">
    <path d="M 98.024516 273.312 
L 99.63883 273.312 
L 99.63883 191.60597 
L 98.024516 191.60597 
z
" clip-path="url(#pf02908c222)" style="fill: #1f77b4"/>
   </g>
   <g id="patch_27">
    <path d="M 99.63883 273.312 
L 101.253144 273.312 
L 101.253144 181.770985 
L 99.63883 181.770985 
z
" clip-path="url(#pf02908c222)" style="fill: #1f77b4"/>
   </g>
   <g id="patch_28">
    <path d="M 101.253144 273.312 
L 102.867458 273.312 
L 102.867458 180.25791 
L 101.253144 180.25791 
z
" clip-path="url(#pf02908c222)" style="fill: #1f77b4"/>
   </g>
   <g id="patch_29">
    <path d="M 102.867458 273.312 
L 104.481772 273.312 
L 104.481772 163.61409 
L 102.867458 163.61409 
z
" clip-path="url(#pf02908c222)" style="fill: #1f77b4"/>
   </g>
   <g id="patch_30">
    <path d="M 104.481772 273.312 
L 106.096086 273.312 
L 106.096086 181.770985 
L 104.481772 181.770985 
z
" clip-path="url(#pf02908c222)" style="fill: #1f77b4"/>
   </g>
   <g id="patch_31">
    <path d="M 106.096086 273.312 
L 107.7104 273.312 
L 107.7104 168.909851 
L 106.096086 168.909851 
z
" clip-path="url(#pf02908c222)" style="fill: #1f77b4"/>
   </g>
   <g id="patch_32">
    <path d="M 107.7104 273.312 
L 109.324714 273.312 
L 109.324714 162.857552 
L 107.7104 162.857552 
z
" clip-path="url(#pf02908c222)" style="fill: #1f77b4"/>
   </g>
   <g id="patch_33">
    <path d="M 109.324714 273.312 
L 110.939028 273.312 
L 110.939028 152.26603 
L 109.324714 152.26603 
z
" clip-path="url(#pf02908c222)" style="fill: #1f77b4"/>
   </g>
   <g id="patch_34">
    <path d="M 110.939028 273.312 
L 112.553341 273.312 
L 112.553341 153.022567 
L 110.939028 153.022567 
z
" clip-path="url(#pf02908c222)" style="fill: #1f77b4"/>
   </g>
   <g id="patch_35">
    <path d="M 112.553341 273.312 
L 114.167655 273.312 
L 114.167655 150.752955 
L 112.553341 150.752955 
z
" clip-path="url(#pf02908c222)" style="fill: #1f77b4"/>
   </g>
   <g id="patch_36">
    <path d="M 114.167655 273.312 
L 115.781969 273.312 
L 115.781969 154.535642 
L 114.167655 154.535642 
z
" clip-path="url(#pf02908c222)" style="fill: #1f77b4"/>
   </g>
   <g id="patch_37">
    <path d="M 115.781969 273.312 
L 117.396283 273.312 
L 117.396283 143.187582 
L 115.781969 143.187582 
z
" clip-path="url(#pf02908c222)" style="fill: #1f77b4"/>
   </g>
   <g id="patch_38">
    <path d="M 117.396283 273.312 
L 119.010597 273.312 
L 119.010597 154.535642 
L 117.396283 154.535642 
z
" clip-path="url(#pf02908c222)" style="fill: #1f77b4"/>
   </g>
   <g id="patch_39">
    <path d="M 119.010597 273.312 
L 120.624911 273.312 
L 120.624911 146.970269 
L 119.010597 146.970269 
z
" clip-path="url(#pf02908c222)" style="fill: #1f77b4"/>
   </g>
   <g id="patch_40">
    <path d="M 120.624911 273.312 
L 122.239225 273.312 
L 122.239225 121.248 
L 120.624911 121.248 
z
" clip-path="url(#pf02908c222)" style="fill: #1f77b4"/>
   </g>
   <g id="patch_41">
    <path d="M 122.239225 273.312 
L 123.853539 273.312 
L 123.853539 124.274149 
L 122.239225 124.274149 
z
" clip-path="url(#pf02908c222)" style="fill: #1f77b4"/>
   </g>
   <g id="patch_42">
    <path d="M 123.853539 273.312 
L 125.467853 273.312 
L 125.467853 140.161433 
L 123.853539 140.161433 
z
" clip-path="url(#pf02908c222)" style="fill: #1f77b4"/>
   </g>
   <g id="patch_43">
    <path d="M 125.467853 273.312 
L 127.082167 273.312 
L 127.082167 122.004537 
L 125.467853 122.004537 
z
" clip-path="url(#pf02908c222)" style="fill: #1f77b4"/>
   </g>
   <g id="patch_44">
    <path d="M 127.082167 273.312 
L 128.696481 273.312 
L 128.696481 126.543761 
L 127.082167 126.543761 
z
" clip-path="url(#pf02908c222)" style="fill: #1f77b4"/>
   </g>
   <g id="patch_45">
    <path d="M 128.696481 273.312 
L 130.310794 273.312 
L 130.310794 131.082985 
L 128.696481 131.082985 
z
" clip-path="url(#pf02908c222)" style="fill: #1f77b4"/>
   </g>
   <g id="patch_46">
    <path d="M 130.310794 273.312 
L 131.925108 273.312 
L 131.925108 117.465313 
L 130.310794 117.465313 
z
" clip-path="url(#pf02908c222)" style="fill: #1f77b4"/>
   </g>
   <g id="patch_47">
    <path d="M 131.925108 273.312 
L 133.539422 273.312 
L 133.539422 128.056836 
L 131.925108 128.056836 
z
" clip-path="url(#pf02908c222)" style="fill: #1f77b4"/>
   </g>
   <g id="patch_48">
    <path d="M 133.539422 273.312 
L 135.153736 273.312 
L 135.153736 112.169552 
L 133.539422 112.169552 
z
" clip-path="url(#pf02908c222)" style="fill: #1f77b4"/>
   </g>
   <g id="patch_49">
    <path d="M 135.153736 273.312 
L 136.76805 273.312 
L 136.76805 98.551881 
L 135.153736 98.551881 
z
" clip-path="url(#pf02908c222)" style="fill: #1f77b4"/>
   </g>
   <g id="patch_50">
    <path d="M 136.76805 273.312 
L 138.382364 273.312 
L 138.382364 98.551881 
L 136.76805 98.551881 
z
" clip-path="url(#pf02908c222)" style="fill: #1f77b4"/>
   </g>
   <g id="patch_51">
    <path d="M 138.382364 273.312 
L 139.996678 273.312 
L 139.996678 118.978388 
L 138.382364 118.978388 
z
" clip-path="url(#pf02908c222)" style="fill: #1f77b4"/>
   </g>
   <g id="patch_52">
    <path d="M 139.996678 273.312 
L 141.610992 273.312 
L 141.610992 116.708776 
L 139.996678 116.708776 
z
" clip-path="url(#pf02908c222)" style="fill: #1f77b4"/>
   </g>
   <g id="patch_53">
    <path d="M 141.610992 273.312 
L 143.225306 273.312 
L 143.225306 108.386866 
L 141.610992 108.386866 
z
" clip-path="url(#pf02908c222)" style="fill: #1f77b4"/>
   </g>
   <g id="patch_54">
    <path d="M 143.225306 273.312 
L 144.83962 273.312 
L 144.83962 109.143403 
L 143.225306 109.143403 
z
" clip-path="url(#pf02908c222)" style="fill: #1f77b4"/>
   </g>
   <g id="patch_55">
    <path d="M 144.83962 273.312 
L 146.453934 273.312 
L 146.453934 113.682627 
L 144.83962 113.682627 
z
" clip-path="url(#pf02908c222)" style="fill: #1f77b4"/>
   </g>
   <g id="patch_56">
    <path d="M 146.453934 273.312 
L 148.068247 273.312 
L 148.068247 82.664597 
L 146.453934 82.664597 
z
" clip-path="url(#pf02908c222)" style="fill: #1f77b4"/>
   </g>
   <g id="patch_57">
    <path d="M 148.068247 273.312 
L 149.682561 273.312 
L 149.682561 87.203821 
L 148.068247 87.203821 
z
" clip-path="url(#pf02908c222)" style="fill: #1f77b4"/>
   </g>
   <g id="patch_58">
    <path d="M 149.682561 273.312 
L 151.296875 273.312 
L 151.296875 97.795343 
L 149.682561 97.795343 
z
" clip-path="url(#pf02908c222)" style="fill: #1f77b4"/>
   </g>
   <g id="patch_59">
    <path d="M 151.296875 273.312 
L 152.911189 273.312 
L 152.911189 100.821493 
L 151.296875 100.821493 
z
" clip-path="url(#pf02908c222)" style="fill: #1f77b4"/>
   </g>
   <g id="patch_60">
    <path d="M 152.911189 273.312 
L 154.525503 273.312 
L 154.525503 94.769194 
L 152.911189 94.769194 
z
" clip-path="url(#pf02908c222)" style="fill: #1f77b4"/>
   </g>
   <g id="patch_61">
    <path d="M 154.525503 273.312 
L 156.139817 273.312 
L 156.139817 66.020776 
L 154.525503 66.020776 
z
" clip-path="url(#pf02908c222)" style="fill: #1f77b4"/>
   </g>
   <g id="patch_62">
    <path d="M 156.139817 273.312 
L 157.754131 273.312 
L 157.754131 97.795343 
L 156.139817 97.795343 
z
" clip-path="url(#pf02908c222)" style="fill: #1f77b4"/>
   </g>
   <g id="patch_63">
    <path d="M 157.754131 273.312 
L 159.368445 273.312 
L 159.368445 94.769194 
L 157.754131 94.769194 
z
" clip-path="url(#pf02908c222)" style="fill: #1f77b4"/>
   </g>
   <g id="patch_64">
    <path d="M 159.368445 273.312 
L 160.982759 273.312 
L 160.982759 77.368836 
L 159.368445 77.368836 
z
" clip-path="url(#pf02908c222)" style="fill: #1f77b4"/>
   </g>
   <g id="patch_65">
    <path d="M 160.982759 273.312 
L 162.597073 273.312 
L 162.597073 72.073075 
L 160.982759 72.073075 
z
" clip-path="url(#pf02908c222)" style="fill: #1f77b4"/>
   </g>
   <g id="patch_66">
    <path d="M 162.597073 273.312 
L 164.211387 273.312 
L 164.211387 52.403104 
L 162.597073 52.403104 
z
" clip-path="url(#pf02908c222)" style="fill: #1f77b4"/>
   </g>
   <g id="patch_67">
    <path d="M 164.211387 273.312 
L 165.8257 273.312 
L 165.8257 79.638448 
L 164.211387 79.638448 
z
" clip-path="url(#pf02908c222)" style="fill: #1f77b4"/>
   </g>
   <g id="patch_68">
    <path d="M 165.8257 273.312 
L 167.440014 273.312 
L 167.440014 64.507701 
L 165.8257 64.507701 
z
" clip-path="url(#pf02908c222)" style="fill: #1f77b4"/>
   </g>
   <g id="patch_69">
    <path d="M 167.440014 273.312 
L 169.054328 273.312 
L 169.054328 77.368836 
L 167.440014 77.368836 
z
" clip-path="url(#pf02908c222)" style="fill: #1f77b4"/>
   </g>
   <g id="patch_70">
    <path d="M 169.054328 273.312 
L 170.668642 273.312 
L 170.668642 35.002746 
L 169.054328 35.002746 
z
" clip-path="url(#pf02908c222)" style="fill: #1f77b4"/>
   </g>
   <g id="patch_71">
    <path d="M 170.668642 273.312 
L 172.282956 273.312 
L 172.282956 67.533851 
L 170.668642 67.533851 
z
" clip-path="url(#pf02908c222)" style="fill: #1f77b4"/>
   </g>
   <g id="patch_72">
    <path d="M 172.282956 273.312 
L 173.89727 273.312 
L 173.89727 61.481552 
L 172.282956 61.481552 
z
" clip-path="url(#pf02908c222)" style="fill: #1f77b4"/>
   </g>
   <g id="patch_73">
    <path d="M 173.89727 273.312 
L 175.511584 273.312 
L 175.511584 63.751164 
L 173.89727 63.751164 
z
" clip-path="url(#pf02908c222)" style="fill: #1f77b4"/>
   </g>
   <g id="patch_74">
    <path d="M 175.511584 273.312 
L 177.125898 273.312 
L 177.125898 63.751164 
L 175.511584 63.751164 
z
" clip-path="url(#pf02908c222)" style="fill: #1f77b4"/>
   </g>
   <g id="patch_75">
    <path d="M 177.125898 273.312 
L 178.740212 273.312 
L 178.740212 53.159642 
L 177.125898 53.159642 
z
" clip-path="url(#pf02908c222)" style="fill: #1f77b4"/>
   </g>
   <g id="patch_76">
    <path d="M 178.740212 273.312 
L 180.354526 273.312 
L 180.354526 44.081194 
L 178.740212 44.081194 
z
" clip-path="url(#pf02908c222)" style="fill: #1f77b4"/>
   </g>
   <g id="patch_77">
    <path d="M 180.354526 273.312 
L 181.96884 273.312 
L 181.96884 58.455403 
L 180.354526 58.455403 
z
" clip-path="url(#pf02908c222)" style="fill: #1f77b4"/>
   </g>
   <g id="patch_78">
    <path d="M 181.96884 273.312 
L 183.583153 273.312 
L 183.583153 81.151522 
L 181.96884 81.151522 
z
" clip-path="url(#pf02908c222)" style="fill: #1f77b4"/>
   </g>
   <g id="patch_79">
    <path d="M 183.583153 273.312 
L 185.197467 273.312 
L 185.197467 71.316537 
L 183.583153 71.316537 
z
" clip-path="url(#pf02908c222)" style="fill: #1f77b4"/>
   </g>
   <g id="patch_80">
    <path d="M 185.197467 273.312 
L 186.811781 273.312 
L 186.811781 34.246209 
L 185.197467 34.246209 
z
" clip-path="url(#pf02908c222)" style="fill: #1f77b4"/>
   </g>
   <g id="patch_81">
    <path d="M 186.811781 273.312 
L 188.426095 273.312 
L 188.426095 45.594269 
L 186.811781 45.594269 
z
" clip-path="url(#pf02908c222)" style="fill: #1f77b4"/>
   </g>
   <g id="patch_82">
    <path d="M 188.426095 273.312 
L 190.040409 273.312 
L 190.040409 42.568119 
L 188.426095 42.568119 
z
" clip-path="url(#pf02908c222)" style="fill: #1f77b4"/>
   </g>
   <g id="patch_83">
    <path d="M 190.040409 273.312 
L 191.654723 273.312 
L 191.654723 66.777313 
L 190.040409 66.777313 
z
" clip-path="url(#pf02908c222)" style="fill: #1f77b4"/>
   </g>
   <g id="patch_84">
    <path d="M 191.654723 273.312 
L 193.269037 273.312 
L 193.269037 38.028896 
L 191.654723 38.028896 
z
" clip-path="url(#pf02908c222)" style="fill: #1f77b4"/>
   </g>
   <g id="patch_85">
    <path d="M 193.269037 273.312 
L 194.883351 273.312 
L 194.883351 30.463522 
L 193.269037 30.463522 
z
" clip-path="url(#pf02908c222)" style="fill: #1f77b4"/>
   </g>
   <g id="patch_86">
    <path d="M 194.883351 273.312 
L 196.497665 273.312 
L 196.497665 64.507701 
L 194.883351 64.507701 
z
" clip-path="url(#pf02908c222)" style="fill: #1f77b4"/>
   </g>
   <g id="patch_87">
    <path d="M 196.497665 273.312 
L 198.111979 273.312 
L 198.111979 57.698866 
L 196.497665 57.698866 
z
" clip-path="url(#pf02908c222)" style="fill: #1f77b4"/>
   </g>
   <g id="patch_88">
    <path d="M 198.111979 273.312 
L 199.726293 273.312 
L 199.726293 38.785433 
L 198.111979 38.785433 
z
" clip-path="url(#pf02908c222)" style="fill: #1f77b4"/>
   </g>
   <g id="patch_89">
    <path d="M 199.726293 273.312 
L 201.340606 273.312 
L 201.340606 51.646567 
L 199.726293 51.646567 
z
" clip-path="url(#pf02908c222)" style="fill: #1f77b4"/>
   </g>
   <g id="patch_90">
    <path d="M 201.340606 273.312 
L 202.95492 273.312 
L 202.95492 37.272358 
L 201.340606 37.272358 
z
" clip-path="url(#pf02908c222)" style="fill: #1f77b4"/>
   </g>
   <g id="patch_91">
    <path d="M 202.95492 273.312 
L 204.569234 273.312 
L 204.569234 65.264239 
L 202.95492 65.264239 
z
" clip-path="url(#pf02908c222)" style="fill: #1f77b4"/>
   </g>
   <g id="patch_92">
    <path d="M 204.569234 273.312 
L 206.183548 273.312 
L 206.183548 35.002746 
L 204.569234 35.002746 
z
" clip-path="url(#pf02908c222)" style="fill: #1f77b4"/>
   </g>
   <g id="patch_93">
    <path d="M 206.183548 273.312 
L 207.797862 273.312 
L 207.797862 56.185791 
L 206.183548 56.185791 
z
" clip-path="url(#pf02908c222)" style="fill: #1f77b4"/>
   </g>
   <g id="patch_94">
    <path d="M 207.797862 273.312 
L 209.412176 273.312 
L 209.412176 22.141612 
L 207.797862 22.141612 
z
" clip-path="url(#pf02908c222)" style="fill: #1f77b4"/>
   </g>
   <g id="patch_95">
    <path d="M 209.412176 273.312 
L 211.02649 273.312 
L 211.02649 42.568119 
L 209.412176 42.568119 
z
" clip-path="url(#pf02908c222)" style="fill: #1f77b4"/>
   </g>
   <g id="patch_96">
    <path d="M 211.02649 273.312 
L 212.640804 273.312 
L 212.640804 49.376955 
L 211.02649 49.376955 
z
" clip-path="url(#pf02908c222)" style="fill: #1f77b4"/>
   </g>
   <g id="patch_97">
    <path d="M 212.640804 273.312 
L 214.255118 273.312 
L 214.255118 55.429254 
L 212.640804 55.429254 
z
" clip-path="url(#pf02908c222)" style="fill: #1f77b4"/>
   </g>
   <g id="patch_98">
    <path d="M 214.255118 273.312 
L 215.869432 273.312 
L 215.869432 53.916179 
L 214.255118 53.916179 
z
" clip-path="url(#pf02908c222)" style="fill: #1f77b4"/>
   </g>
   <g id="patch_99">
    <path d="M 215.869432 273.312 
L 217.483746 273.312 
L 217.483746 50.133493 
L 215.869432 50.133493 
z
" clip-path="url(#pf02908c222)" style="fill: #1f77b4"/>
   </g>
   <g id="patch_100">
    <path d="M 217.483746 273.312 
L 219.09806 273.312 
L 219.09806 45.594269 
L 217.483746 45.594269 
z
" clip-path="url(#pf02908c222)" style="fill: #1f77b4"/>
   </g>
   <g id="patch_101">
    <path d="M 219.09806 273.312 
L 220.712373 273.312 
L 220.712373 28.19391 
L 219.09806 28.19391 
z
" clip-path="url(#pf02908c222)" style="fill: #1f77b4"/>
   </g>
   <g id="patch_102">
    <path d="M 220.712373 273.312 
L 222.326687 273.312 
L 222.326687 44.081194 
L 220.712373 44.081194 
z
" clip-path="url(#pf02908c222)" style="fill: #1f77b4"/>
   </g>
   <g id="patch_103">
    <path d="M 222.326687 273.312 
L 223.941001 273.312 
L 223.941001 61.481552 
L 222.326687 61.481552 
z
" clip-path="url(#pf02908c222)" style="fill: #1f77b4"/>
   </g>
   <g id="patch_104">
    <path d="M 223.941001 273.312 
L 225.555315 273.312 
L 225.555315 40.298507 
L 223.941001 40.298507 
z
" clip-path="url(#pf02908c222)" style="fill: #1f77b4"/>
   </g>
   <g id="patch_105">
    <path d="M 225.555315 273.312 
L 227.169629 273.312 
L 227.169629 41.055045 
L 225.555315 41.055045 
z
" clip-path="url(#pf02908c222)" style="fill: #1f77b4"/>
   </g>
   <g id="patch_106">
    <path d="M 227.169629 273.312 
L 228.783943 273.312 
L 228.783943 54.672716 
L 227.169629 54.672716 
z
" clip-path="url(#pf02908c222)" style="fill: #1f77b4"/>
   </g>
   <g id="patch_107">
    <path d="M 228.783943 273.312 
L 230.398257 273.312 
L 230.398257 40.298507 
L 228.783943 40.298507 
z
" clip-path="url(#pf02908c222)" style="fill: #1f77b4"/>
   </g>
   <g id="patch_108">
    <path d="M 230.398257 273.312 
L 232.012571 273.312 
L 232.012571 22.141612 
L 230.398257 22.141612 
z
" clip-path="url(#pf02908c222)" style="fill: #1f77b4"/>
   </g>
   <g id="patch_109">
    <path d="M 232.012571 273.312 
L 233.626885 273.312 
L 233.626885 19.872 
L 232.012571 19.872 
z
" clip-path="url(#pf02908c222)" style="fill: #1f77b4"/>
   </g>
   <g id="patch_110">
    <path d="M 233.626885 273.312 
L 235.241199 273.312 
L 235.241199 49.376955 
L 233.626885 49.376955 
z
" clip-path="url(#pf02908c222)" style="fill: #1f77b4"/>
   </g>
   <g id="patch_111">
    <path d="M 235.241199 273.312 
L 236.855513 273.312 
L 236.855513 41.811582 
L 235.241199 41.811582 
z
" clip-path="url(#pf02908c222)" style="fill: #1f77b4"/>
   </g>
   <g id="patch_112">
    <path d="M 236.855513 273.312 
L 238.469826 273.312 
L 238.469826 46.350806 
L 236.855513 46.350806 
z
" clip-path="url(#pf02908c222)" style="fill: #1f77b4"/>
   </g>
   <g id="patch_113">
    <path d="M 238.469826 273.312 
L 240.08414 273.312 
L 240.08414 45.594269 
L 238.469826 45.594269 
z
" clip-path="url(#pf02908c222)" style="fill: #1f77b4"/>
   </g>
   <g id="patch_114">
    <path d="M 240.08414 273.312 
L 241.698454 273.312 
L 241.698454 47.107343 
L 240.08414 47.107343 
z
" clip-path="url(#pf02908c222)" style="fill: #1f77b4"/>
   </g>
   <g id="patch_115">
    <path d="M 241.698454 273.312 
L 243.312768 273.312 
L 243.312768 62.23809 
L 241.698454 62.23809 
z
" clip-path="url(#pf02908c222)" style="fill: #1f77b4"/>
   </g>
   <g id="patch_116">
    <path d="M 243.312768 273.312 
L 244.927082 273.312 
L 244.927082 38.785433 
L 243.312768 38.785433 
z
" clip-path="url(#pf02908c222)" style="fill: #1f77b4"/>
   </g>
   <g id="patch_117">
    <path d="M 244.927082 273.312 
L 246.541396 273.312 
L 246.541396 50.133493 
L 244.927082 50.133493 
z
" clip-path="url(#pf02908c222)" style="fill: #1f77b4"/>
   </g>
   <g id="patch_118">
    <path d="M 246.541396 273.312 
L 248.15571 273.312 
L 248.15571 48.620418 
L 246.541396 48.620418 
z
" clip-path="url(#pf02908c222)" style="fill: #1f77b4"/>
   </g>
   <g id="patch_119">
    <path d="M 248.15571 273.312 
L 249.770024 273.312 
L 249.770024 38.785433 
L 248.15571 38.785433 
z
" clip-path="url(#pf02908c222)" style="fill: #1f77b4"/>
   </g>
   <g id="patch_120">
    <path d="M 249.770024 273.312 
L 251.384338 273.312 
L 251.384338 53.916179 
L 249.770024 53.916179 
z
" clip-path="url(#pf02908c222)" style="fill: #1f77b4"/>
   </g>
   <g id="patch_121">
    <path d="M 251.384338 273.312 
L 252.998652 273.312 
L 252.998652 44.081194 
L 251.384338 44.081194 
z
" clip-path="url(#pf02908c222)" style="fill: #1f77b4"/>
   </g>
   <g id="patch_122">
    <path d="M 252.998652 273.312 
L 254.612966 273.312 
L 254.612966 42.568119 
L 252.998652 42.568119 
z
" clip-path="url(#pf02908c222)" style="fill: #1f77b4"/>
   </g>
   <g id="patch_123">
    <path d="M 254.612966 273.312 
L 256.227279 273.312 
L 256.227279 37.272358 
L 254.612966 37.272358 
z
" clip-path="url(#pf02908c222)" style="fill: #1f77b4"/>
   </g>
   <g id="patch_124">
    <path d="M 256.227279 273.312 
L 257.841593 273.312 
L 257.841593 38.028896 
L 256.227279 38.028896 
z
" clip-path="url(#pf02908c222)" style="fill: #1f77b4"/>
   </g>
   <g id="patch_125">
    <path d="M 257.841593 273.312 
L 259.455907 273.312 
L 259.455907 30.463522 
L 257.841593 30.463522 
z
" clip-path="url(#pf02908c222)" style="fill: #1f77b4"/>
   </g>
   <g id="patch_126">
    <path d="M 259.455907 273.312 
L 261.070221 273.312 
L 261.070221 28.19391 
L 259.455907 28.19391 
z
" clip-path="url(#pf02908c222)" style="fill: #1f77b4"/>
   </g>
   <g id="patch_127">
    <path d="M 261.070221 273.312 
L 262.684535 273.312 
L 262.684535 70.56 
L 261.070221 70.56 
z
" clip-path="url(#pf02908c222)" style="fill: #1f77b4"/>
   </g>
   <g id="patch_128">
    <path d="M 262.684535 273.312 
L 264.298849 273.312 
L 264.298849 50.133493 
L 262.684535 50.133493 
z
" clip-path="url(#pf02908c222)" style="fill: #1f77b4"/>
   </g>
   <g id="patch_129">
    <path d="M 264.298849 273.312 
L 265.913163 273.312 
L 265.913163 52.403104 
L 264.298849 52.403104 
z
" clip-path="url(#pf02908c222)" style="fill: #1f77b4"/>
   </g>
   <g id="patch_130">
    <path d="M 265.913163 273.312 
L 267.527477 273.312 
L 267.527477 73.586149 
L 265.913163 73.586149 
z
" clip-path="url(#pf02908c222)" style="fill: #1f77b4"/>
   </g>
   <g id="patch_131">
    <path d="M 267.527477 273.312 
L 269.141791 273.312 
L 269.141791 46.350806 
L 267.527477 46.350806 
z
" clip-path="url(#pf02908c222)" style="fill: #1f77b4"/>
   </g>
   <g id="patch_132">
    <path d="M 269.141791 273.312 
L 270.756105 273.312 
L 270.756105 83.421134 
L 269.141791 83.421134 
z
" clip-path="url(#pf02908c222)" style="fill: #1f77b4"/>
   </g>
   <g id="patch_133">
    <path d="M 270.756105 273.312 
L 272.370419 273.312 
L 272.370419 62.994627 
L 270.756105 62.994627 
z
" clip-path="url(#pf02908c222)" style="fill: #1f77b4"/>
   </g>
   <g id="patch_134">
    <path d="M 272.370419 273.312 
L 273.984732 273.312 
L 273.984732 69.046925 
L 272.370419 69.046925 
z
" clip-path="url(#pf02908c222)" style="fill: #1f77b4"/>
   </g>
   <g id="patch_135">
    <path d="M 273.984732 273.312 
L 275.599046 273.312 
L 275.599046 66.777313 
L 273.984732 66.777313 
z
" clip-path="url(#pf02908c222)" style="fill: #1f77b4"/>
   </g>
   <g id="patch_136">
    <path d="M 275.599046 273.312 
L 277.21336 273.312 
L 277.21336 51.646567 
L 275.599046 51.646567 
z
" clip-path="url(#pf02908c222)" style="fill: #1f77b4"/>
   </g>
   <g id="patch_137">
    <path d="M 277.21336 273.312 
L 278.827674 273.312 
L 278.827674 61.481552 
L 277.21336 61.481552 
z
" clip-path="url(#pf02908c222)" style="fill: #1f77b4"/>
   </g>
   <g id="patch_138">
    <path d="M 278.827674 273.312 
L 280.441988 273.312 
L 280.441988 81.151522 
L 278.827674 81.151522 
z
" clip-path="url(#pf02908c222)" style="fill: #1f77b4"/>
   </g>
   <g id="patch_139">
    <path d="M 280.441988 273.312 
L 282.056302 273.312 
L 282.056302 63.751164 
L 280.441988 63.751164 
z
" clip-path="url(#pf02908c222)" style="fill: #1f77b4"/>
   </g>
   <g id="patch_140">
    <path d="M 282.056302 273.312 
L 283.670616 273.312 
L 283.670616 73.586149 
L 282.056302 73.586149 
z
" clip-path="url(#pf02908c222)" style="fill: #1f77b4"/>
   </g>
   <g id="patch_141">
    <path d="M 283.670616 273.312 
L 285.28493 273.312 
L 285.28493 103.091104 
L 283.670616 103.091104 
z
" clip-path="url(#pf02908c222)" style="fill: #1f77b4"/>
   </g>
   <g id="patch_142">
    <path d="M 285.28493 273.312 
L 286.899244 273.312 
L 286.899244 72.829612 
L 285.28493 72.829612 
z
" clip-path="url(#pf02908c222)" style="fill: #1f77b4"/>
   </g>
   <g id="patch_143">
    <path d="M 286.899244 273.312 
L 288.513558 273.312 
L 288.513558 77.368836 
L 286.899244 77.368836 
z
" clip-path="url(#pf02908c222)" style="fill: #1f77b4"/>
   </g>
   <g id="patch_144">
    <path d="M 288.513558 273.312 
L 290.127872 273.312 
L 290.127872 84.934209 
L 288.513558 84.934209 
z
" clip-path="url(#pf02908c222)" style="fill: #1f77b4"/>
   </g>
   <g id="patch_145">
    <path d="M 290.127872 273.312 
L 291.742185 273.312 
L 291.742185 94.769194 
L 290.127872 94.769194 
z
" clip-path="url(#pf02908c222)" style="fill: #1f77b4"/>
   </g>
   <g id="patch_146">
    <path d="M 291.742185 273.312 
L 293.356499 273.312 
L 293.356499 68.290388 
L 291.742185 68.290388 
z
" clip-path="url(#pf02908c222)" style="fill: #1f77b4"/>
   </g>
   <g id="patch_147">
    <path d="M 293.356499 273.312 
L 294.970813 273.312 
L 294.970813 92.499582 
L 293.356499 92.499582 
z
" clip-path="url(#pf02908c222)" style="fill: #1f77b4"/>
   </g>
   <g id="patch_148">
    <path d="M 294.970813 273.312 
L 296.585127 273.312 
L 296.585127 88.716896 
L 294.970813 88.716896 
z
" clip-path="url(#pf02908c222)" style="fill: #1f77b4"/>
   </g>
   <g id="patch_149">
    <path d="M 296.585127 273.312 
L 298.199441 273.312 
L 298.199441 110.656478 
L 296.585127 110.656478 
z
" clip-path="url(#pf02908c222)" style="fill: #1f77b4"/>
   </g>
   <g id="patch_150">
    <path d="M 298.199441 273.312 
L 299.813755 273.312 
L 299.813755 103.091104 
L 298.199441 103.091104 
z
" clip-path="url(#pf02908c222)" style="fill: #1f77b4"/>
   </g>
   <g id="patch_151">
    <path d="M 299.813755 273.312 
L 301.428069 273.312 
L 301.428069 94.012657 
L 299.813755 94.012657 
z
" clip-path="url(#pf02908c222)" style="fill: #1f77b4"/>
   </g>
   <g id="patch_152">
    <path d="M 301.428069 273.312 
L 303.042383 273.312 
L 303.042383 108.386866 
L 301.428069 108.386866 
z
" clip-path="url(#pf02908c222)" style="fill: #1f77b4"/>
   </g>
   <g id="patch_153">
    <path d="M 303.042383 273.312 
L 304.656697 273.312 
L 304.656697 90.22997 
L 303.042383 90.22997 
z
" clip-path="url(#pf02908c222)" style="fill: #1f77b4"/>
   </g>
   <g id="patch_154">
    <path d="M 304.656697 273.312 
L 306.271011 273.312 
L 306.271011 94.012657 
L 304.656697 94.012657 
z
" clip-path="url(#pf02908c222)" style="fill: #1f77b4"/>
   </g>
   <g id="patch_155">
    <path d="M 306.271011 273.312 
L 307.885325 273.312 
L 307.885325 117.465313 
L 306.271011 117.465313 
z
" clip-path="url(#pf02908c222)" style="fill: #1f77b4"/>
   </g>
   <g id="patch_156">
    <path d="M 307.885325 273.312 
L 309.499638 273.312 
L 309.499638 106.873791 
L 307.885325 106.873791 
z
" clip-path="url(#pf02908c222)" style="fill: #1f77b4"/>
   </g>
   <g id="patch_157">
    <path d="M 309.499638 273.312 
L 311.113952 273.312 
L 311.113952 113.682627 
L 309.499638 113.682627 
z
" clip-path="url(#pf02908c222)" style="fill: #1f77b4"/>
   </g>
   <g id="patch_158">
    <path d="M 311.113952 273.312 
L 312.728266 273.312 
L 312.728266 123.517612 
L 311.113952 123.517612 
z
" clip-path="url(#pf02908c222)" style="fill: #1f77b4"/>
   </g>
   <g id="patch_159">
    <path d="M 312.728266 273.312 
L 314.34258 273.312 
L 314.34258 126.543761 
L 312.728266 126.543761 
z
" clip-path="url(#pf02908c222)" style="fill: #1f77b4"/>
   </g>
   <g id="patch_160">
    <path d="M 314.34258 273.312 
L 315.956894 273.312 
L 315.956894 128.056836 
L 314.34258 128.056836 
z
" clip-path="url(#pf02908c222)" style="fill: #1f77b4"/>
   </g>
   <g id="patch_161">
    <path d="M 315.956894 273.312 
L 317.571208 273.312 
L 317.571208 125.030687 
L 315.956894 125.030687 
z
" clip-path="url(#pf02908c222)" style="fill: #1f77b4"/>
   </g>
   <g id="patch_162">
    <path d="M 317.571208 273.312 
L 319.185522 273.312 
L 319.185522 124.274149 
L 317.571208 124.274149 
z
" clip-path="url(#pf02908c222)" style="fill: #1f77b4"/>
   </g>
   <g id="patch_163">
    <path d="M 319.185522 273.312 
L 320.799836 273.312 
L 320.799836 109.89994 
L 319.185522 109.89994 
z
" clip-path="url(#pf02908c222)" style="fill: #1f77b4"/>
   </g>
   <g id="patch_164">
    <path d="M 320.799836 273.312 
L 322.41415 273.312 
L 322.41415 160.58794 
L 320.799836 160.58794 
z
" clip-path="url(#pf02908c222)" style="fill: #1f77b4"/>
   </g>
   <g id="patch_165">
    <path d="M 322.41415 273.312 
L 324.028464 273.312 
L 324.028464 144.700657 
L 322.41415 144.700657 
z
" clip-path="url(#pf02908c222)" style="fill: #1f77b4"/>
   </g>
   <g id="patch_166">
    <path d="M 324.028464 273.312 
L 325.642778 273.312 
L 325.642778 138.648358 
L 324.028464 138.648358 
z
" clip-path="url(#pf02908c222)" style="fill: #1f77b4"/>
   </g>
   <g id="patch_167">
    <path d="M 325.642778 273.312 
L 327.257092 273.312 
L 327.257092 137.891821 
L 325.642778 137.891821 
z
" clip-path="url(#pf02908c222)" style="fill: #1f77b4"/>
   </g>
   <g id="patch_168">
    <path d="M 327.257092 273.312 
L 328.871405 273.312 
L 328.871405 144.700657 
L 327.257092 144.700657 
z
" clip-path="url(#pf02908c222)" style="fill: #1f77b4"/>
   </g>
   <g id="patch_169">
    <path d="M 328.871405 273.312 
L 330.485719 273.312 
L 330.485719 138.648358 
L 328.871405 138.648358 
z
" clip-path="url(#pf02908c222)" style="fill: #1f77b4"/>
   </g>
   <g id="patch_170">
    <path d="M 330.485719 273.312 
L 332.100033 273.312 
L 332.100033 147.726806 
L 330.485719 147.726806 
z
" clip-path="url(#pf02908c222)" style="fill: #1f77b4"/>
   </g>
   <g id="patch_171">
    <path d="M 332.100033 273.312 
L 333.714347 273.312 
L 333.714347 146.970269 
L 332.100033 146.970269 
z
" clip-path="url(#pf02908c222)" style="fill: #1f77b4"/>
   </g>
   <g id="patch_172">
    <path d="M 333.714347 273.312 
L 335.328661 273.312 
L 335.328661 139.404896 
L 333.714347 139.404896 
z
" clip-path="url(#pf02908c222)" style="fill: #1f77b4"/>
   </g>
   <g id="patch_173">
    <path d="M 335.328661 273.312 
L 336.942975 273.312 
L 336.942975 171.936 
L 335.328661 171.936 
z
" clip-path="url(#pf02908c222)" style="fill: #1f77b4"/>
   </g>
   <g id="patch_174">
    <path d="M 336.942975 273.312 
L 338.557289 273.312 
L 338.557289 176.475224 
L 336.942975 176.475224 
z
" clip-path="url(#pf02908c222)" style="fill: #1f77b4"/>
   </g>
   <g id="patch_175">
    <path d="M 338.557289 273.312 
L 340.171603 273.312 
L 340.171603 174.962149 
L 338.557289 174.962149 
z
" clip-path="url(#pf02908c222)" style="fill: #1f77b4"/>
   </g>
   <g id="patch_176">
    <path d="M 340.171603 273.312 
L 341.785917 273.312 
L 341.785917 187.823284 
L 340.171603 187.823284 
z
" clip-path="url(#pf02908c222)" style="fill: #1f77b4"/>
   </g>
   <g id="patch_177">
    <path d="M 341.785917 273.312 
L 343.400231 273.312 
L 343.400231 178.744836 
L 341.785917 178.744836 
z
" clip-path="url(#pf02908c222)" style="fill: #1f77b4"/>
   </g>
   <g id="patch_178">
    <path d="M 343.400231 273.312 
L 345.014545 273.312 
L 345.014545 177.988299 
L 343.400231 177.988299 
z
" clip-path="url(#pf02908c222)" style="fill: #1f77b4"/>
   </g>
   <g id="patch_179">
    <path d="M 345.014545 273.312 
L 346.628858 273.312 
L 346.628858 195.388657 
L 345.014545 195.388657 
z
" clip-path="url(#pf02908c222)" style="fill: #1f77b4"/>
   </g>
   <g id="patch_180">
    <path d="M 346.628858 273.312 
L 348.243172 273.312 
L 348.243172 201.440955 
L 346.628858 201.440955 
z
" clip-path="url(#pf02908c222)" style="fill: #1f77b4"/>
   </g>
   <g id="patch_181">
    <path d="M 348.243172 273.312 
L 349.857486 273.312 
L 349.857486 202.197493 
L 348.243172 202.197493 
z
" clip-path="url(#pf02908c222)" style="fill: #1f77b4"/>
   </g>
   <g id="patch_182">
    <path d="M 349.857486 273.312 
L 351.4718 273.312 
L 351.4718 204.467104 
L 349.857486 204.467104 
z
" clip-path="url(#pf02908c222)" style="fill: #1f77b4"/>
   </g>
   <g id="patch_183">
    <path d="M 351.4718 273.312 
L 353.086114 273.312 
L 353.086114 212.789015 
L 351.4718 212.789015 
z
" clip-path="url(#pf02908c222)" style="fill: #1f77b4"/>
   </g>
   <g id="patch_184">
    <path d="M 353.086114 273.312 
L 354.700428 273.312 
L 354.700428 200.684418 
L 353.086114 200.684418 
z
" clip-path="url(#pf02908c222)" style="fill: #1f77b4"/>
   </g>
   <g id="patch_185">
    <path d="M 354.700428 273.312 
L 356.314742 273.312 
L 356.314742 207.493254 
L 354.700428 207.493254 
z
" clip-path="url(#pf02908c222)" style="fill: #1f77b4"/>
   </g>
   <g id="patch_186">
    <path d="M 356.314742 273.312 
L 357.929056 273.312 
L 357.929056 207.493254 
L 356.314742 207.493254 
z
" clip-path="url(#pf02908c222)" style="fill: #1f77b4"/>
   </g>
   <g id="patch_187">
    <path d="M 357.929056 273.312 
L 359.54337 273.312 
L 359.54337 202.95403 
L 357.929056 202.95403 
z
" clip-path="url(#pf02908c222)" style="fill: #1f77b4"/>
   </g>
   <g id="patch_188">
    <path d="M 359.54337 273.312 
L 361.157684 273.312 
L 361.157684 224.893612 
L 359.54337 224.893612 
z
" clip-path="url(#pf02908c222)" style="fill: #1f77b4"/>
   </g>
   <g id="patch_189">
    <path d="M 361.157684 273.312 
L 362.771998 273.312 
L 362.771998 221.110925 
L 361.157684 221.110925 
z
" clip-path="url(#pf02908c222)" style="fill: #1f77b4"/>
   </g>
   <g id="patch_190">
    <path d="M 362.771998 273.312 
L 364.386311 273.312 
L 364.386311 240.780896 
L 362.771998 240.780896 
z
" clip-path="url(#pf02908c222)" style="fill: #1f77b4"/>
   </g>
   <g id="patch_191">
    <path d="M 364.386311 273.312 
L 366.000625 273.312 
L 366.000625 229.432836 
L 364.386311 229.432836 
z
" clip-path="url(#pf02908c222)" style="fill: #1f77b4"/>
   </g>
   <g id="patch_192">
    <path d="M 366.000625 273.312 
L 367.614939 273.312 
L 367.614939 229.432836 
L 366.000625 229.432836 
z
" clip-path="url(#pf02908c222)" style="fill: #1f77b4"/>
   </g>
   <g id="patch_193">
    <path d="M 367.614939 273.312 
L 369.229253 273.312 
L 369.229253 236.241672 
L 367.614939 236.241672 
z
" clip-path="url(#pf02908c222)" style="fill: #1f77b4"/>
   </g>
   <g id="patch_194">
    <path d="M 369.229253 273.312 
L 370.843567 273.312 
L 370.843567 230.189373 
L 369.229253 230.189373 
z
" clip-path="url(#pf02908c222)" style="fill: #1f77b4"/>
   </g>
   <g id="patch_195">
    <path d="M 370.843567 273.312 
L 372.457881 273.312 
L 372.457881 247.589731 
L 370.843567 247.589731 
z
" clip-path="url(#pf02908c222)" style="fill: #1f77b4"/>
   </g>
   <g id="patch_196">
    <path d="M 372.457881 273.312 
L 374.072195 273.312 
L 374.072195 240.780896 
L 372.457881 240.780896 
z
" clip-path="url(#pf02908c222)" style="fill: #1f77b4"/>
   </g>
   <g id="patch_197">
    <path d="M 374.072195 273.312 
L 375.686509 273.312 
L 375.686509 254.398567 
L 374.072195 254.398567 
z
" clip-path="url(#pf02908c222)" style="fill: #1f77b4"/>
   </g>
   <g id="patch_198">
    <path d="M 375.686509 273.312 
L 377.300823 273.312 
L 377.300823 259.694328 
L 375.686509 259.694328 
z
" clip-path="url(#pf02908c222)" style="fill: #1f77b4"/>
   </g>
   <g id="patch_199">
    <path d="M 377.300823 273.312 
L 378.915137 273.312 
L 378.915137 258.937791 
L 377.300823 258.937791 
z
" clip-path="url(#pf02908c222)" style="fill: #1f77b4"/>
   </g>
   <g id="patch_200">
    <path d="M 378.915137 273.312 
L 380.529451 273.312 
L 380.529451 261.207403 
L 378.915137 261.207403 
z
" clip-path="url(#pf02908c222)" style="fill: #1f77b4"/>
   </g>
   <g id="patch_201">
    <path d="M 380.529451 273.312 
L 382.143764 273.312 
L 382.143764 266.503164 
L 380.529451 266.503164 
z
" clip-path="url(#pf02908c222)" style="fill: #1f77b4"/>
   </g>
   <g id="patch_202">
    <path d="M 382.143764 273.312 
L 383.758078 273.312 
L 383.758078 264.99009 
L 382.143764 264.99009 
z
" clip-path="url(#pf02908c222)" style="fill: #1f77b4"/>
   </g>
   <g id="matplotlib.axis_1">
    <g id="xtick_1">
     <g id="line2d_1">
      <defs>
       <path id="m5c47576984" d="M 0 0 
L 0 3.5 
" style="stroke: #000000; stroke-width: 0.8"/>
      </defs>
      <g>
       <use xlink:href="#m5c47576984" x="60.013977" y="273.312" style="stroke: #000000; stroke-width: 0.8"/>
      </g>
     </g>
     <g id="text_1">
      <!-- 0.0 -->
      <g transform="translate(52.062415 287.910437)scale(0.1 -0.1)">
       <defs>
        <path id="DejaVuSans-30" d="M 2034 4250 
Q 1547 4250 1301 3770 
Q 1056 3291 1056 2328 
Q 1056 1369 1301 889 
Q 1547 409 2034 409 
Q 2525 409 2770 889 
Q 3016 1369 3016 2328 
Q 3016 3291 2770 3770 
Q 2525 4250 2034 4250 
z
M 2034 4750 
Q 2819 4750 3233 4129 
Q 3647 3509 3647 2328 
Q 3647 1150 3233 529 
Q 2819 -91 2034 -91 
Q 1250 -91 836 529 
Q 422 1150 422 2328 
Q 422 3509 836 4129 
Q 1250 4750 2034 4750 
z
" transform="scale(0.015625)"/>
        <path id="DejaVuSans-2e" d="M 684 794 
L 1344 794 
L 1344 0 
L 684 0 
L 684 794 
z
" transform="scale(0.015625)"/>
       </defs>
       <use xlink:href="#DejaVuSans-30"/>
       <use xlink:href="#DejaVuSans-2e" x="63.623047"/>
       <use xlink:href="#DejaVuSans-30" x="95.410156"/>
      </g>
     </g>
    </g>
    <g id="xtick_2">
     <g id="line2d_2">
      <g>
       <use xlink:href="#m5c47576984" x="101.350278" y="273.312" style="stroke: #000000; stroke-width: 0.8"/>
      </g>
     </g>
     <g id="text_2">
      <!-- 0.2 -->
      <g transform="translate(93.398715 287.910437)scale(0.1 -0.1)">
       <defs>
        <path id="DejaVuSans-32" d="M 1228 531 
L 3431 531 
L 3431 0 
L 469 0 
L 469 531 
Q 828 903 1448 1529 
Q 2069 2156 2228 2338 
Q 2531 2678 2651 2914 
Q 2772 3150 2772 3378 
Q 2772 3750 2511 3984 
Q 2250 4219 1831 4219 
Q 1534 4219 1204 4116 
Q 875 4013 500 3803 
L 500 4441 
Q 881 4594 1212 4672 
Q 1544 4750 1819 4750 
Q 2544 4750 2975 4387 
Q 3406 4025 3406 3419 
Q 3406 3131 3298 2873 
Q 3191 2616 2906 2266 
Q 2828 2175 2409 1742 
Q 1991 1309 1228 531 
z
" transform="scale(0.015625)"/>
       </defs>
       <use xlink:href="#DejaVuSans-30"/>
       <use xlink:href="#DejaVuSans-2e" x="63.623047"/>
       <use xlink:href="#DejaVuSans-32" x="95.410156"/>
      </g>
     </g>
    </g>
    <g id="xtick_3">
     <g id="line2d_3">
      <g>
       <use xlink:href="#m5c47576984" x="142.686578" y="273.312" style="stroke: #000000; stroke-width: 0.8"/>
      </g>
     </g>
     <g id="text_3">
      <!-- 0.4 -->
      <g transform="translate(134.735016 287.910437)scale(0.1 -0.1)">
       <defs>
        <path id="DejaVuSans-34" d="M 2419 4116 
L 825 1625 
L 2419 1625 
L 2419 4116 
z
M 2253 4666 
L 3047 4666 
L 3047 1625 
L 3713 1625 
L 3713 1100 
L 3047 1100 
L 3047 0 
L 2419 0 
L 2419 1100 
L 313 1100 
L 313 1709 
L 2253 4666 
z
" transform="scale(0.015625)"/>
       </defs>
       <use xlink:href="#DejaVuSans-30"/>
       <use xlink:href="#DejaVuSans-2e" x="63.623047"/>
       <use xlink:href="#DejaVuSans-34" x="95.410156"/>
      </g>
     </g>
    </g>
    <g id="xtick_4">
     <g id="line2d_4">
      <g>
       <use xlink:href="#m5c47576984" x="184.022879" y="273.312" style="stroke: #000000; stroke-width: 0.8"/>
      </g>
     </g>
     <g id="text_4">
      <!-- 0.6 -->
      <g transform="translate(176.071316 287.910437)scale(0.1 -0.1)">
       <defs>
        <path id="DejaVuSans-36" d="M 2113 2584 
Q 1688 2584 1439 2293 
Q 1191 2003 1191 1497 
Q 1191 994 1439 701 
Q 1688 409 2113 409 
Q 2538 409 2786 701 
Q 3034 994 3034 1497 
Q 3034 2003 2786 2293 
Q 2538 2584 2113 2584 
z
M 3366 4563 
L 3366 3988 
Q 3128 4100 2886 4159 
Q 2644 4219 2406 4219 
Q 1781 4219 1451 3797 
Q 1122 3375 1075 2522 
Q 1259 2794 1537 2939 
Q 1816 3084 2150 3084 
Q 2853 3084 3261 2657 
Q 3669 2231 3669 1497 
Q 3669 778 3244 343 
Q 2819 -91 2113 -91 
Q 1303 -91 875 529 
Q 447 1150 447 2328 
Q 447 3434 972 4092 
Q 1497 4750 2381 4750 
Q 2619 4750 2861 4703 
Q 3103 4656 3366 4563 
z
" transform="scale(0.015625)"/>
       </defs>
       <use xlink:href="#DejaVuSans-30"/>
       <use xlink:href="#DejaVuSans-2e" x="63.623047"/>
       <use xlink:href="#DejaVuSans-36" x="95.410156"/>
      </g>
     </g>
    </g>
    <g id="xtick_5">
     <g id="line2d_5">
      <g>
       <use xlink:href="#m5c47576984" x="225.35918" y="273.312" style="stroke: #000000; stroke-width: 0.8"/>
      </g>
     </g>
     <g id="text_5">
      <!-- 0.8 -->
      <g transform="translate(217.407617 287.910437)scale(0.1 -0.1)">
       <defs>
        <path id="DejaVuSans-38" d="M 2034 2216 
Q 1584 2216 1326 1975 
Q 1069 1734 1069 1313 
Q 1069 891 1326 650 
Q 1584 409 2034 409 
Q 2484 409 2743 651 
Q 3003 894 3003 1313 
Q 3003 1734 2745 1975 
Q 2488 2216 2034 2216 
z
M 1403 2484 
Q 997 2584 770 2862 
Q 544 3141 544 3541 
Q 544 4100 942 4425 
Q 1341 4750 2034 4750 
Q 2731 4750 3128 4425 
Q 3525 4100 3525 3541 
Q 3525 3141 3298 2862 
Q 3072 2584 2669 2484 
Q 3125 2378 3379 2068 
Q 3634 1759 3634 1313 
Q 3634 634 3220 271 
Q 2806 -91 2034 -91 
Q 1263 -91 848 271 
Q 434 634 434 1313 
Q 434 1759 690 2068 
Q 947 2378 1403 2484 
z
M 1172 3481 
Q 1172 3119 1398 2916 
Q 1625 2713 2034 2713 
Q 2441 2713 2670 2916 
Q 2900 3119 2900 3481 
Q 2900 3844 2670 4047 
Q 2441 4250 2034 4250 
Q 1625 4250 1398 4047 
Q 1172 3844 1172 3481 
z
" transform="scale(0.015625)"/>
       </defs>
       <use xlink:href="#DejaVuSans-30"/>
       <use xlink:href="#DejaVuSans-2e" x="63.623047"/>
       <use xlink:href="#DejaVuSans-38" x="95.410156"/>
      </g>
     </g>
    </g>
    <g id="xtick_6">
     <g id="line2d_6">
      <g>
       <use xlink:href="#m5c47576984" x="266.69548" y="273.312" style="stroke: #000000; stroke-width: 0.8"/>
      </g>
     </g>
     <g id="text_6">
      <!-- 1.0 -->
      <g transform="translate(258.743918 287.910437)scale(0.1 -0.1)">
       <defs>
        <path id="DejaVuSans-31" d="M 794 531 
L 1825 531 
L 1825 4091 
L 703 3866 
L 703 4441 
L 1819 4666 
L 2450 4666 
L 2450 531 
L 3481 531 
L 3481 0 
L 794 0 
L 794 531 
z
" transform="scale(0.015625)"/>
       </defs>
       <use xlink:href="#DejaVuSans-31"/>
       <use xlink:href="#DejaVuSans-2e" x="63.623047"/>
       <use xlink:href="#DejaVuSans-30" x="95.410156"/>
      </g>
     </g>
    </g>
    <g id="xtick_7">
     <g id="line2d_7">
      <g>
       <use xlink:href="#m5c47576984" x="308.031781" y="273.312" style="stroke: #000000; stroke-width: 0.8"/>
      </g>
     </g>
     <g id="text_7">
      <!-- 1.2 -->
      <g transform="translate(300.080218 287.910437)scale(0.1 -0.1)">
       <use xlink:href="#DejaVuSans-31"/>
       <use xlink:href="#DejaVuSans-2e" x="63.623047"/>
       <use xlink:href="#DejaVuSans-32" x="95.410156"/>
      </g>
     </g>
    </g>
    <g id="xtick_8">
     <g id="line2d_8">
      <g>
       <use xlink:href="#m5c47576984" x="349.368081" y="273.312" style="stroke: #000000; stroke-width: 0.8"/>
      </g>
     </g>
     <g id="text_8">
      <!-- 1.4 -->
      <g transform="translate(341.416519 287.910437)scale(0.1 -0.1)">
       <use xlink:href="#DejaVuSans-31"/>
       <use xlink:href="#DejaVuSans-2e" x="63.623047"/>
       <use xlink:href="#DejaVuSans-34" x="95.410156"/>
      </g>
     </g>
    </g>
    <g id="xtick_9">
     <g id="line2d_9">
      <g>
       <use xlink:href="#m5c47576984" x="390.704382" y="273.312" style="stroke: #000000; stroke-width: 0.8"/>
      </g>
     </g>
     <g id="text_9">
      <!-- 1.6 -->
      <g transform="translate(382.752819 287.910437)scale(0.1 -0.1)">
       <use xlink:href="#DejaVuSans-31"/>
       <use xlink:href="#DejaVuSans-2e" x="63.623047"/>
       <use xlink:href="#DejaVuSans-36" x="95.410156"/>
      </g>
     </g>
    </g>
    <g id="text_10">
     <!-- Angle with normal (rad) -->
     <g transform="translate(163.023281 301.588562)scale(0.1 -0.1)">
      <defs>
       <path id="DejaVuSans-41" d="M 2188 4044 
L 1331 1722 
L 3047 1722 
L 2188 4044 
z
M 1831 4666 
L 2547 4666 
L 4325 0 
L 3669 0 
L 3244 1197 
L 1141 1197 
L 716 0 
L 50 0 
L 1831 4666 
z
" transform="scale(0.015625)"/>
       <path id="DejaVuSans-6e" d="M 3513 2113 
L 3513 0 
L 2938 0 
L 2938 2094 
Q 2938 2591 2744 2837 
Q 2550 3084 2163 3084 
Q 1697 3084 1428 2787 
Q 1159 2491 1159 1978 
L 1159 0 
L 581 0 
L 581 3500 
L 1159 3500 
L 1159 2956 
Q 1366 3272 1645 3428 
Q 1925 3584 2291 3584 
Q 2894 3584 3203 3211 
Q 3513 2838 3513 2113 
z
" transform="scale(0.015625)"/>
       <path id="DejaVuSans-67" d="M 2906 1791 
Q 2906 2416 2648 2759 
Q 2391 3103 1925 3103 
Q 1463 3103 1205 2759 
Q 947 2416 947 1791 
Q 947 1169 1205 825 
Q 1463 481 1925 481 
Q 2391 481 2648 825 
Q 2906 1169 2906 1791 
z
M 3481 434 
Q 3481 -459 3084 -895 
Q 2688 -1331 1869 -1331 
Q 1566 -1331 1297 -1286 
Q 1028 -1241 775 -1147 
L 775 -588 
Q 1028 -725 1275 -790 
Q 1522 -856 1778 -856 
Q 2344 -856 2625 -561 
Q 2906 -266 2906 331 
L 2906 616 
Q 2728 306 2450 153 
Q 2172 0 1784 0 
Q 1141 0 747 490 
Q 353 981 353 1791 
Q 353 2603 747 3093 
Q 1141 3584 1784 3584 
Q 2172 3584 2450 3431 
Q 2728 3278 2906 2969 
L 2906 3500 
L 3481 3500 
L 3481 434 
z
" transform="scale(0.015625)"/>
       <path id="DejaVuSans-6c" d="M 603 4863 
L 1178 4863 
L 1178 0 
L 603 0 
L 603 4863 
z
" transform="scale(0.015625)"/>
       <path id="DejaVuSans-65" d="M 3597 1894 
L 3597 1613 
L 953 1613 
Q 991 1019 1311 708 
Q 1631 397 2203 397 
Q 2534 397 2845 478 
Q 3156 559 3463 722 
L 3463 178 
Q 3153 47 2828 -22 
Q 2503 -91 2169 -91 
Q 1331 -91 842 396 
Q 353 884 353 1716 
Q 353 2575 817 3079 
Q 1281 3584 2069 3584 
Q 2775 3584 3186 3129 
Q 3597 2675 3597 1894 
z
M 3022 2063 
Q 3016 2534 2758 2815 
Q 2500 3097 2075 3097 
Q 1594 3097 1305 2825 
Q 1016 2553 972 2059 
L 3022 2063 
z
" transform="scale(0.015625)"/>
       <path id="DejaVuSans-20" transform="scale(0.015625)"/>
       <path id="DejaVuSans-77" d="M 269 3500 
L 844 3500 
L 1563 769 
L 2278 3500 
L 2956 3500 
L 3675 769 
L 4391 3500 
L 4966 3500 
L 4050 0 
L 3372 0 
L 2619 2869 
L 1863 0 
L 1184 0 
L 269 3500 
z
" transform="scale(0.015625)"/>
       <path id="DejaVuSans-69" d="M 603 3500 
L 1178 3500 
L 1178 0 
L 603 0 
L 603 3500 
z
M 603 4863 
L 1178 4863 
L 1178 4134 
L 603 4134 
L 603 4863 
z
" transform="scale(0.015625)"/>
       <path id="DejaVuSans-74" d="M 1172 4494 
L 1172 3500 
L 2356 3500 
L 2356 3053 
L 1172 3053 
L 1172 1153 
Q 1172 725 1289 603 
Q 1406 481 1766 481 
L 2356 481 
L 2356 0 
L 1766 0 
Q 1100 0 847 248 
Q 594 497 594 1153 
L 594 3053 
L 172 3053 
L 172 3500 
L 594 3500 
L 594 4494 
L 1172 4494 
z
" transform="scale(0.015625)"/>
       <path id="DejaVuSans-68" d="M 3513 2113 
L 3513 0 
L 2938 0 
L 2938 2094 
Q 2938 2591 2744 2837 
Q 2550 3084 2163 3084 
Q 1697 3084 1428 2787 
Q 1159 2491 1159 1978 
L 1159 0 
L 581 0 
L 581 4863 
L 1159 4863 
L 1159 2956 
Q 1366 3272 1645 3428 
Q 1925 3584 2291 3584 
Q 2894 3584 3203 3211 
Q 3513 2838 3513 2113 
z
" transform="scale(0.015625)"/>
       <path id="DejaVuSans-6f" d="M 1959 3097 
Q 1497 3097 1228 2736 
Q 959 2375 959 1747 
Q 959 1119 1226 758 
Q 1494 397 1959 397 
Q 2419 397 2687 759 
Q 2956 1122 2956 1747 
Q 2956 2369 2687 2733 
Q 2419 3097 1959 3097 
z
M 1959 3584 
Q 2709 3584 3137 3096 
Q 3566 2609 3566 1747 
Q 3566 888 3137 398 
Q 2709 -91 1959 -91 
Q 1206 -91 779 398 
Q 353 888 353 1747 
Q 353 2609 779 3096 
Q 1206 3584 1959 3584 
z
" transform="scale(0.015625)"/>
       <path id="DejaVuSans-72" d="M 2631 2963 
Q 2534 3019 2420 3045 
Q 2306 3072 2169 3072 
Q 1681 3072 1420 2755 
Q 1159 2438 1159 1844 
L 1159 0 
L 581 0 
L 581 3500 
L 1159 3500 
L 1159 2956 
Q 1341 3275 1631 3429 
Q 1922 3584 2338 3584 
Q 2397 3584 2469 3576 
Q 2541 3569 2628 3553 
L 2631 2963 
z
" transform="scale(0.015625)"/>
       <path id="DejaVuSans-6d" d="M 3328 2828 
Q 3544 3216 3844 3400 
Q 4144 3584 4550 3584 
Q 5097 3584 5394 3201 
Q 5691 2819 5691 2113 
L 5691 0 
L 5113 0 
L 5113 2094 
Q 5113 2597 4934 2840 
Q 4756 3084 4391 3084 
Q 3944 3084 3684 2787 
Q 3425 2491 3425 1978 
L 3425 0 
L 2847 0 
L 2847 2094 
Q 2847 2600 2669 2842 
Q 2491 3084 2119 3084 
Q 1678 3084 1418 2786 
Q 1159 2488 1159 1978 
L 1159 0 
L 581 0 
L 581 3500 
L 1159 3500 
L 1159 2956 
Q 1356 3278 1631 3431 
Q 1906 3584 2284 3584 
Q 2666 3584 2933 3390 
Q 3200 3197 3328 2828 
z
" transform="scale(0.015625)"/>
       <path id="DejaVuSans-61" d="M 2194 1759 
Q 1497 1759 1228 1600 
Q 959 1441 959 1056 
Q 959 750 1161 570 
Q 1363 391 1709 391 
Q 2188 391 2477 730 
Q 2766 1069 2766 1631 
L 2766 1759 
L 2194 1759 
z
M 3341 1997 
L 3341 0 
L 2766 0 
L 2766 531 
Q 2569 213 2275 61 
Q 1981 -91 1556 -91 
Q 1019 -91 701 211 
Q 384 513 384 1019 
Q 384 1609 779 1909 
Q 1175 2209 1959 2209 
L 2766 2209 
L 2766 2266 
Q 2766 2663 2505 2880 
Q 2244 3097 1772 3097 
Q 1472 3097 1187 3025 
Q 903 2953 641 2809 
L 641 3341 
Q 956 3463 1253 3523 
Q 1550 3584 1831 3584 
Q 2591 3584 2966 3190 
Q 3341 2797 3341 1997 
z
" transform="scale(0.015625)"/>
       <path id="DejaVuSans-28" d="M 1984 4856 
Q 1566 4138 1362 3434 
Q 1159 2731 1159 2009 
Q 1159 1288 1364 580 
Q 1569 -128 1984 -844 
L 1484 -844 
Q 1016 -109 783 600 
Q 550 1309 550 2009 
Q 550 2706 781 3412 
Q 1013 4119 1484 4856 
L 1984 4856 
z
" transform="scale(0.015625)"/>
       <path id="DejaVuSans-64" d="M 2906 2969 
L 2906 4863 
L 3481 4863 
L 3481 0 
L 2906 0 
L 2906 525 
Q 2725 213 2448 61 
Q 2172 -91 1784 -91 
Q 1150 -91 751 415 
Q 353 922 353 1747 
Q 353 2572 751 3078 
Q 1150 3584 1784 3584 
Q 2172 3584 2448 3432 
Q 2725 3281 2906 2969 
z
M 947 1747 
Q 947 1113 1208 752 
Q 1469 391 1925 391 
Q 2381 391 2643 752 
Q 2906 1113 2906 1747 
Q 2906 2381 2643 2742 
Q 2381 3103 1925 3103 
Q 1469 3103 1208 2742 
Q 947 2381 947 1747 
z
" transform="scale(0.015625)"/>
       <path id="DejaVuSans-29" d="M 513 4856 
L 1013 4856 
Q 1481 4119 1714 3412 
Q 1947 2706 1947 2009 
Q 1947 1309 1714 600 
Q 1481 -109 1013 -844 
L 513 -844 
Q 928 -128 1133 580 
Q 1338 1288 1338 2009 
Q 1338 2731 1133 3434 
Q 928 4138 513 4856 
z
" transform="scale(0.015625)"/>
      </defs>
      <use xlink:href="#DejaVuSans-41"/>
      <use xlink:href="#DejaVuSans-6e" x="68.408203"/>
      <use xlink:href="#DejaVuSans-67" x="131.787109"/>
      <use xlink:href="#DejaVuSans-6c" x="195.263672"/>
      <use xlink:href="#DejaVuSans-65" x="223.046875"/>
      <use xlink:href="#DejaVuSans-20" x="284.570312"/>
      <use xlink:href="#DejaVuSans-77" x="316.357422"/>
      <use xlink:href="#DejaVuSans-69" x="398.144531"/>
      <use xlink:href="#DejaVuSans-74" x="425.927734"/>
      <use xlink:href="#DejaVuSans-68" x="465.136719"/>
      <use xlink:href="#DejaVuSans-20" x="528.515625"/>
      <use xlink:href="#DejaVuSans-6e" x="560.302734"/>
      <use xlink:href="#DejaVuSans-6f" x="623.681641"/>
      <use xlink:href="#DejaVuSans-72" x="684.863281"/>
      <use xlink:href="#DejaVuSans-6d" x="724.226562"/>
      <use xlink:href="#DejaVuSans-61" x="821.638672"/>
      <use xlink:href="#DejaVuSans-6c" x="882.917969"/>
      <use xlink:href="#DejaVuSans-20" x="910.701172"/>
      <use xlink:href="#DejaVuSans-28" x="942.488281"/>
      <use xlink:href="#DejaVuSans-72" x="981.501953"/>
      <use xlink:href="#DejaVuSans-61" x="1022.615234"/>
      <use xlink:href="#DejaVuSans-64" x="1083.894531"/>
      <use xlink:href="#DejaVuSans-29" x="1147.371094"/>
     </g>
    </g>
   </g>
   <g id="matplotlib.axis_2">
    <g id="ytick_1">
     <g id="line2d_10">
      <defs>
       <path id="mdbc599e210" d="M 0 0 
L -3.5 0 
" style="stroke: #000000; stroke-width: 0.8"/>
      </defs>
      <g>
       <use xlink:href="#mdbc599e210" x="43.78125" y="273.312" style="stroke: #000000; stroke-width: 0.8"/>
      </g>
     </g>
     <g id="text_11">
      <!-- 0.0 -->
      <g transform="translate(20.878125 277.111219)scale(0.1 -0.1)">
       <use xlink:href="#DejaVuSans-30"/>
       <use xlink:href="#DejaVuSans-2e" x="63.623047"/>
       <use xlink:href="#DejaVuSans-30" x="95.410156"/>
      </g>
     </g>
    </g>
    <g id="ytick_2">
     <g id="line2d_11">
      <g>
       <use xlink:href="#mdbc599e210" x="43.78125" y="226.039702" style="stroke: #000000; stroke-width: 0.8"/>
      </g>
     </g>
     <g id="text_12">
      <!-- 0.2 -->
      <g transform="translate(20.878125 229.83892)scale(0.1 -0.1)">
       <use xlink:href="#DejaVuSans-30"/>
       <use xlink:href="#DejaVuSans-2e" x="63.623047"/>
       <use xlink:href="#DejaVuSans-32" x="95.410156"/>
      </g>
     </g>
    </g>
    <g id="ytick_3">
     <g id="line2d_12">
      <g>
       <use xlink:href="#mdbc599e210" x="43.78125" y="178.767403" style="stroke: #000000; stroke-width: 0.8"/>
      </g>
     </g>
     <g id="text_13">
      <!-- 0.4 -->
      <g transform="translate(20.878125 182.566622)scale(0.1 -0.1)">
       <use xlink:href="#DejaVuSans-30"/>
       <use xlink:href="#DejaVuSans-2e" x="63.623047"/>
       <use xlink:href="#DejaVuSans-34" x="95.410156"/>
      </g>
     </g>
    </g>
    <g id="ytick_4">
     <g id="line2d_13">
      <g>
       <use xlink:href="#mdbc599e210" x="43.78125" y="131.495105" style="stroke: #000000; stroke-width: 0.8"/>
      </g>
     </g>
     <g id="text_14">
      <!-- 0.6 -->
      <g transform="translate(20.878125 135.294324)scale(0.1 -0.1)">
       <use xlink:href="#DejaVuSans-30"/>
       <use xlink:href="#DejaVuSans-2e" x="63.623047"/>
       <use xlink:href="#DejaVuSans-36" x="95.410156"/>
      </g>
     </g>
    </g>
    <g id="ytick_5">
     <g id="line2d_14">
      <g>
       <use xlink:href="#mdbc599e210" x="43.78125" y="84.222806" style="stroke: #000000; stroke-width: 0.8"/>
      </g>
     </g>
     <g id="text_15">
      <!-- 0.8 -->
      <g transform="translate(20.878125 88.022025)scale(0.1 -0.1)">
       <use xlink:href="#DejaVuSans-30"/>
       <use xlink:href="#DejaVuSans-2e" x="63.623047"/>
       <use xlink:href="#DejaVuSans-38" x="95.410156"/>
      </g>
     </g>
    </g>
    <g id="ytick_6">
     <g id="line2d_15">
      <g>
       <use xlink:href="#mdbc599e210" x="43.78125" y="36.950508" style="stroke: #000000; stroke-width: 0.8"/>
      </g>
     </g>
     <g id="text_16">
      <!-- 1.0 -->
      <g transform="translate(20.878125 40.749727)scale(0.1 -0.1)">
       <use xlink:href="#DejaVuSans-31"/>
       <use xlink:href="#DejaVuSans-2e" x="63.623047"/>
       <use xlink:href="#DejaVuSans-30" x="95.410156"/>
      </g>
     </g>
    </g>
    <g id="text_17">
     <!-- Probability density -->
     <g transform="translate(14.798438 186.606781)rotate(-90)scale(0.1 -0.1)">
      <defs>
       <path id="DejaVuSans-50" d="M 1259 4147 
L 1259 2394 
L 2053 2394 
Q 2494 2394 2734 2622 
Q 2975 2850 2975 3272 
Q 2975 3691 2734 3919 
Q 2494 4147 2053 4147 
L 1259 4147 
z
M 628 4666 
L 2053 4666 
Q 2838 4666 3239 4311 
Q 3641 3956 3641 3272 
Q 3641 2581 3239 2228 
Q 2838 1875 2053 1875 
L 1259 1875 
L 1259 0 
L 628 0 
L 628 4666 
z
" transform="scale(0.015625)"/>
       <path id="DejaVuSans-62" d="M 3116 1747 
Q 3116 2381 2855 2742 
Q 2594 3103 2138 3103 
Q 1681 3103 1420 2742 
Q 1159 2381 1159 1747 
Q 1159 1113 1420 752 
Q 1681 391 2138 391 
Q 2594 391 2855 752 
Q 3116 1113 3116 1747 
z
M 1159 2969 
Q 1341 3281 1617 3432 
Q 1894 3584 2278 3584 
Q 2916 3584 3314 3078 
Q 3713 2572 3713 1747 
Q 3713 922 3314 415 
Q 2916 -91 2278 -91 
Q 1894 -91 1617 61 
Q 1341 213 1159 525 
L 1159 0 
L 581 0 
L 581 4863 
L 1159 4863 
L 1159 2969 
z
" transform="scale(0.015625)"/>
       <path id="DejaVuSans-79" d="M 2059 -325 
Q 1816 -950 1584 -1140 
Q 1353 -1331 966 -1331 
L 506 -1331 
L 506 -850 
L 844 -850 
Q 1081 -850 1212 -737 
Q 1344 -625 1503 -206 
L 1606 56 
L 191 3500 
L 800 3500 
L 1894 763 
L 2988 3500 
L 3597 3500 
L 2059 -325 
z
" transform="scale(0.015625)"/>
       <path id="DejaVuSans-73" d="M 2834 3397 
L 2834 2853 
Q 2591 2978 2328 3040 
Q 2066 3103 1784 3103 
Q 1356 3103 1142 2972 
Q 928 2841 928 2578 
Q 928 2378 1081 2264 
Q 1234 2150 1697 2047 
L 1894 2003 
Q 2506 1872 2764 1633 
Q 3022 1394 3022 966 
Q 3022 478 2636 193 
Q 2250 -91 1575 -91 
Q 1294 -91 989 -36 
Q 684 19 347 128 
L 347 722 
Q 666 556 975 473 
Q 1284 391 1588 391 
Q 1994 391 2212 530 
Q 2431 669 2431 922 
Q 2431 1156 2273 1281 
Q 2116 1406 1581 1522 
L 1381 1569 
Q 847 1681 609 1914 
Q 372 2147 372 2553 
Q 372 3047 722 3315 
Q 1072 3584 1716 3584 
Q 2034 3584 2315 3537 
Q 2597 3491 2834 3397 
z
" transform="scale(0.015625)"/>
      </defs>
      <use xlink:href="#DejaVuSans-50"/>
      <use xlink:href="#DejaVuSans-72" x="58.552734"/>
      <use xlink:href="#DejaVuSans-6f" x="97.416016"/>
      <use xlink:href="#DejaVuSans-62" x="158.597656"/>
      <use xlink:href="#DejaVuSans-61" x="222.074219"/>
      <use xlink:href="#DejaVuSans-62" x="283.353516"/>
      <use xlink:href="#DejaVuSans-69" x="346.830078"/>
      <use xlink:href="#DejaVuSans-6c" x="374.613281"/>
      <use xlink:href="#DejaVuSans-69" x="402.396484"/>
      <use xlink:href="#DejaVuSans-74" x="430.179688"/>
      <use xlink:href="#DejaVuSans-79" x="469.388672"/>
      <use xlink:href="#DejaVuSans-20" x="528.568359"/>
      <use xlink:href="#DejaVuSans-64" x="560.355469"/>
      <use xlink:href="#DejaVuSans-65" x="623.832031"/>
      <use xlink:href="#DejaVuSans-6e" x="685.355469"/>
      <use xlink:href="#DejaVuSans-73" x="748.734375"/>
      <use xlink:href="#DejaVuSans-69" x="800.833984"/>
      <use xlink:href="#DejaVuSans-74" x="828.617188"/>
      <use xlink:href="#DejaVuSans-79" x="867.826172"/>
     </g>
    </g>
   </g>
   <g id="line2d_16">
    <path d="M 60.013977 273.312 
L 79.512749 228.978466 
L 89.912094 205.878878 
L 98.686541 186.91003 
L 106.486049 170.567295 
L 113.635599 156.098134 
L 120.135189 143.429238 
L 126.3098 131.868772 
L 132.159432 121.381762 
L 137.684084 111.923684 
L 142.883756 103.442748 
L 148.083429 95.391776 
L 152.958121 88.252622 
L 157.507835 81.960552 
L 162.057548 76.039322 
L 166.282282 70.883132 
L 170.507016 66.065215 
L 174.73175 61.593623 
L 178.631504 57.779859 
L 182.531258 54.272991 
L 186.431012 51.078014 
L 190.005787 48.427165 
L 193.580562 46.045389 
L 197.155337 43.935536 
L 200.730112 42.100131 
L 203.979907 40.671593 
L 207.229702 39.473102 
L 210.479497 38.505845 
L 213.729293 37.770776 
L 216.979088 37.268624 
L 220.228883 36.999885 
L 223.478678 36.964825 
L 226.728474 37.163478 
L 229.978269 37.595647 
L 233.228064 38.260907 
L 236.477859 39.158597 
L 239.727655 40.287832 
L 242.97745 41.647494 
L 246.227245 43.236239 
L 249.80202 45.246568 
L 253.376795 47.529775 
L 256.951569 50.083129 
L 260.526344 52.903576 
L 264.426098 56.281071 
L 268.325853 59.967596 
L 272.225607 63.957903 
L 276.450341 68.616944 
L 280.675075 73.618044 
L 284.899809 78.952848 
L 289.449522 85.060978 
L 293.999235 91.533939 
L 298.873928 98.859839 
L 304.073601 107.101493 
L 309.273273 115.76385 
L 314.797925 125.404027 
L 320.647556 136.071312 
L 326.822167 147.807451 
L 333.321758 160.644374 
L 340.471307 175.277578 
L 348.270816 191.773541 
L 357.045263 210.881634 
L 367.444608 234.099513 
L 382.068687 267.366269 
L 384.668523 273.312 
L 384.668523 273.312 
" clip-path="url(#pf02908c222)" style="fill: none; stroke: #ff7f0e; stroke-width: 1.5; stroke-linecap: square"/>
   </g>
   <g id="patch_203">
    <path d="M 43.78125 273.312 
L 43.78125 7.2 
" style="fill: none; stroke: #000000; stroke-width: 0.8; stroke-linejoin: miter; stroke-linecap: square"/>
   </g>
   <g id="patch_204">
    <path d="M 400.90125 273.312 
L 400.90125 7.2 
" style="fill: none; stroke: #000000; stroke-width: 0.8; stroke-linejoin: miter; stroke-linecap: square"/>
   </g>
   <g id="patch_205">
    <path d="M 43.78125 273.312 
L 400.90125 273.312 
" style="fill: none; stroke: #000000; stroke-width: 0.8; stroke-linejoin: miter; stroke-linecap: square"/>
   </g>
   <g id="patch_206">
    <path d="M 43.78125 7.2 
L 400.90125 7.2 
" style="fill: none; stroke: #000000; stroke-width: 0.8; stroke-linejoin: miter; stroke-linecap: square"/>
   </g>
  </g>
 </g>
 <defs>
  <clipPath id="pf02908c222">
   <rect x="43.78125" y="7.2" width="357.12" height="266.112"/>
  </clipPath>
 </defs>
</svg>
