<?xml version="1.0" encoding="utf-8" standalone="no"?>
<!DOCTYPE svg PUBLIC "-//W3C//DTD SVG 1.1//EN"
  "http://www.w3.org/Graphics/SVG/1.1/DTD/svg11.dtd">
<svg xmlns:xlink="http://www.w3.org/1999/xlink" width="408.10125pt" height="310.86825pt" viewBox="0 0 408.10125 310.86825" xmlns="http://www.w3.org/2000/svg" version="1.1">
 <metadata>
  <rdf:RDF xmlns:dc="http://purl.org/dc/elements/1.1/" xmlns:cc="http://creativecommons.org/ns#" xmlns:rdf="http://www.w3.org/1999/02/22-rdf-syntax-ns#">
   <cc:Work>
    <dc:type rdf:resource="http://purl.org/dc/dcmitype/StillImage"/>
    <dc:date>2022-05-08T00:31:59.992332</dc:date>
    <dc:format>image/svg+xml</dc:format>
    <dc:creator>
     <cc:Agent>
      <dc:title>Matplotlib v3.5.2, https://matplotlib.org/</dc:title>
     </cc:Agent>
    </dc:creator>
   </cc:Work>
  </rdf:RDF>
 </metadata>
 <defs>
  <style type="text/css">*{stroke-linejoin: round; stroke-linecap: butt}</style>
 </defs>
 <g id="figure_1">
  <g id="patch_1">
   <path d="M 0 310.86825 
L 408.10125 310.86825 
L 408.10125 0 
L 0 0 
z
" style="fill: #ffffff"/>
  </g>
  <g id="axes_1">
   <g id="patch_2">
    <path d="M 43.78125 273.312 
L 400.90125 273.312 
L 400.90125 7.2 
L 43.78125 7.2 
z
" style="fill: #ffffff"/>
   </g>
   <g id="patch_3">
    <path d="M 61.100534 273.312 
L 62.714003 273.312 
L 62.714003 263.650065 
L 61.100534 263.650065 
z
" clip-path="url(#pd5af7c63ab)" style="fill: #1f77b4"/>
   </g>
   <g id="patch_4">
    <path d="M 62.714003 273.312 
L 64.327473 273.312 
L 64.327473 269.595871 
L 62.714003 269.595871 
z
" clip-path="url(#pd5af7c63ab)" style="fill: #1f77b4"/>
   </g>
   <g id="patch_5">
    <path d="M 64.327473 273.312 
L 65.940942 273.312 
L 65.940942 259.933935 
L 64.327473 259.933935 
z
" clip-path="url(#pd5af7c63ab)" style="fill: #1f77b4"/>
   </g>
   <g id="patch_6">
    <path d="M 65.940942 273.312 
L 67.554411 273.312 
L 67.554411 257.704258 
L 65.940942 257.704258 
z
" clip-path="url(#pd5af7c63ab)" style="fill: #1f77b4"/>
   </g>
   <g id="patch_7">
    <path d="M 67.554411 273.312 
L 69.167881 273.312 
L 69.167881 253.244903 
L 67.554411 253.244903 
z
" clip-path="url(#pd5af7c63ab)" style="fill: #1f77b4"/>
   </g>
   <g id="patch_8">
    <path d="M 69.167881 273.312 
L 70.78135 273.312 
L 70.78135 251.758452 
L 69.167881 251.758452 
z
" clip-path="url(#pd5af7c63ab)" style="fill: #1f77b4"/>
   </g>
   <g id="patch_9">
    <path d="M 70.78135 273.312 
L 72.394819 273.312 
L 72.394819 246.555871 
L 70.78135 246.555871 
z
" clip-path="url(#pd5af7c63ab)" style="fill: #1f77b4"/>
   </g>
   <g id="patch_10">
    <path d="M 72.394819 273.312 
L 74.008289 273.312 
L 74.008289 251.758452 
L 72.394819 251.758452 
z
" clip-path="url(#pd5af7c63ab)" style="fill: #1f77b4"/>
   </g>
   <g id="patch_11">
    <path d="M 74.008289 273.312 
L 75.621758 273.312 
L 75.621758 242.096516 
L 74.008289 242.096516 
z
" clip-path="url(#pd5af7c63ab)" style="fill: #1f77b4"/>
   </g>
   <g id="patch_12">
    <path d="M 75.621758 273.312 
L 77.235228 273.312 
L 77.235228 242.096516 
L 75.621758 242.096516 
z
" clip-path="url(#pd5af7c63ab)" style="fill: #1f77b4"/>
   </g>
   <g id="patch_13">
    <path d="M 77.235228 273.312 
L 78.848697 273.312 
L 78.848697 239.123613 
L 77.235228 239.123613 
z
" clip-path="url(#pd5af7c63ab)" style="fill: #1f77b4"/>
   </g>
   <g id="patch_14">
    <path d="M 78.848697 273.312 
L 80.462166 273.312 
L 80.462166 220.542968 
L 78.848697 220.542968 
z
" clip-path="url(#pd5af7c63ab)" style="fill: #1f77b4"/>
   </g>
   <g id="patch_15">
    <path d="M 80.462166 273.312 
L 82.075636 273.312 
L 82.075636 222.772645 
L 80.462166 222.772645 
z
" clip-path="url(#pd5af7c63ab)" style="fill: #1f77b4"/>
   </g>
   <g id="patch_16">
    <path d="M 82.075636 273.312 
L 83.689105 273.312 
L 83.689105 214.597161 
L 82.075636 214.597161 
z
" clip-path="url(#pd5af7c63ab)" style="fill: #1f77b4"/>
   </g>
   <g id="patch_17">
    <path d="M 83.689105 273.312 
L 85.302574 273.312 
L 85.302574 213.11071 
L 83.689105 213.11071 
z
" clip-path="url(#pd5af7c63ab)" style="fill: #1f77b4"/>
   </g>
   <g id="patch_18">
    <path d="M 85.302574 273.312 
L 86.916044 273.312 
L 86.916044 212.367484 
L 85.302574 212.367484 
z
" clip-path="url(#pd5af7c63ab)" style="fill: #1f77b4"/>
   </g>
   <g id="patch_19">
    <path d="M 86.916044 273.312 
L 88.529513 273.312 
L 88.529513 203.448774 
L 86.916044 203.448774 
z
" clip-path="url(#pd5af7c63ab)" style="fill: #1f77b4"/>
   </g>
   <g id="patch_20">
    <path d="M 88.529513 273.312 
L 90.142982 273.312 
L 90.142982 216.826839 
L 88.529513 216.826839 
z
" clip-path="url(#pd5af7c63ab)" style="fill: #1f77b4"/>
   </g>
   <g id="patch_21">
    <path d="M 90.142982 273.312 
L 91.756452 273.312 
L 91.756452 193.786839 
L 90.142982 193.786839 
z
" clip-path="url(#pd5af7c63ab)" style="fill: #1f77b4"/>
   </g>
   <g id="patch_22">
    <path d="M 91.756452 273.312 
L 93.369921 273.312 
L 93.369921 204.192 
L 91.756452 204.192 
z
" clip-path="url(#pd5af7c63ab)" style="fill: #1f77b4"/>
   </g>
   <g id="patch_23">
    <path d="M 93.369921 273.312 
L 94.98339 273.312 
L 94.98339 193.043613 
L 93.369921 193.043613 
z
" clip-path="url(#pd5af7c63ab)" style="fill: #1f77b4"/>
   </g>
   <g id="patch_24">
    <path d="M 94.98339 273.312 
L 96.59686 273.312 
L 96.59686 193.786839 
L 94.98339 193.786839 
z
" clip-path="url(#pd5af7c63ab)" style="fill: #1f77b4"/>
   </g>
   <g id="patch_25">
    <path d="M 96.59686 273.312 
L 98.210329 273.312 
L 98.210329 181.895226 
L 96.59686 181.895226 
z
" clip-path="url(#pd5af7c63ab)" style="fill: #1f77b4"/>
   </g>
   <g id="patch_26">
    <path d="M 98.210329 273.312 
L 99.823799 273.312 
L 99.823799 193.786839 
L 98.210329 193.786839 
z
" clip-path="url(#pd5af7c63ab)" style="fill: #1f77b4"/>
   </g>
   <g id="patch_27">
    <path d="M 99.823799 273.312 
L 101.437268 273.312 
L 101.437268 184.868129 
L 99.823799 184.868129 
z
" clip-path="url(#pd5af7c63ab)" style="fill: #1f77b4"/>
   </g>
   <g id="patch_28">
    <path d="M 101.437268 273.312 
L 103.050737 273.312 
L 103.050737 190.07071 
L 101.437268 190.07071 
z
" clip-path="url(#pd5af7c63ab)" style="fill: #1f77b4"/>
   </g>
   <g id="patch_29">
    <path d="M 103.050737 273.312 
L 104.664207 273.312 
L 104.664207 180.408774 
L 103.050737 180.408774 
z
" clip-path="url(#pd5af7c63ab)" style="fill: #1f77b4"/>
   </g>
   <g id="patch_30">
    <path d="M 104.664207 273.312 
L 106.277676 273.312 
L 106.277676 160.341677 
L 104.664207 160.341677 
z
" clip-path="url(#pd5af7c63ab)" style="fill: #1f77b4"/>
   </g>
   <g id="patch_31">
    <path d="M 106.277676 273.312 
L 107.891145 273.312 
L 107.891145 187.841032 
L 106.277676 187.841032 
z
" clip-path="url(#pd5af7c63ab)" style="fill: #1f77b4"/>
   </g>
   <g id="patch_32">
    <path d="M 107.891145 273.312 
L 109.504615 273.312 
L 109.504615 181.895226 
L 107.891145 181.895226 
z
" clip-path="url(#pd5af7c63ab)" style="fill: #1f77b4"/>
   </g>
   <g id="patch_33">
    <path d="M 109.504615 273.312 
L 111.118084 273.312 
L 111.118084 150.679742 
L 109.504615 150.679742 
z
" clip-path="url(#pd5af7c63ab)" style="fill: #1f77b4"/>
   </g>
   <g id="patch_34">
    <path d="M 111.118084 273.312 
L 112.731553 273.312 
L 112.731553 155.882323 
L 111.118084 155.882323 
z
" clip-path="url(#pd5af7c63ab)" style="fill: #1f77b4"/>
   </g>
   <g id="patch_35">
    <path d="M 112.731553 273.312 
L 114.345023 273.312 
L 114.345023 149.936516 
L 112.731553 149.936516 
z
" clip-path="url(#pd5af7c63ab)" style="fill: #1f77b4"/>
   </g>
   <g id="patch_36">
    <path d="M 114.345023 273.312 
L 115.958492 273.312 
L 115.958492 163.314581 
L 114.345023 163.314581 
z
" clip-path="url(#pd5af7c63ab)" style="fill: #1f77b4"/>
   </g>
   <g id="patch_37">
    <path d="M 115.958492 273.312 
L 117.571961 273.312 
L 117.571961 161.828129 
L 115.958492 161.828129 
z
" clip-path="url(#pd5af7c63ab)" style="fill: #1f77b4"/>
   </g>
   <g id="patch_38">
    <path d="M 117.571961 273.312 
L 119.185431 273.312 
L 119.185431 144.733935 
L 117.571961 144.733935 
z
" clip-path="url(#pd5af7c63ab)" style="fill: #1f77b4"/>
   </g>
   <g id="patch_39">
    <path d="M 119.185431 273.312 
L 120.7989 273.312 
L 120.7989 147.706839 
L 119.185431 147.706839 
z
" clip-path="url(#pd5af7c63ab)" style="fill: #1f77b4"/>
   </g>
   <g id="patch_40">
    <path d="M 120.7989 273.312 
L 122.41237 273.312 
L 122.41237 136.558452 
L 120.7989 136.558452 
z
" clip-path="url(#pd5af7c63ab)" style="fill: #1f77b4"/>
   </g>
   <g id="patch_41">
    <path d="M 122.41237 273.312 
L 124.025839 273.312 
L 124.025839 135.815226 
L 122.41237 135.815226 
z
" clip-path="url(#pd5af7c63ab)" style="fill: #1f77b4"/>
   </g>
   <g id="patch_42">
    <path d="M 124.025839 273.312 
L 125.639308 273.312 
L 125.639308 135.815226 
L 124.025839 135.815226 
z
" clip-path="url(#pd5af7c63ab)" style="fill: #1f77b4"/>
   </g>
   <g id="patch_43">
    <path d="M 125.639308 273.312 
L 127.252778 273.312 
L 127.252778 129.126194 
L 125.639308 129.126194 
z
" clip-path="url(#pd5af7c63ab)" style="fill: #1f77b4"/>
   </g>
   <g id="patch_44">
    <path d="M 127.252778 273.312 
L 128.866247 273.312 
L 128.866247 119.464258 
L 127.252778 119.464258 
z
" clip-path="url(#pd5af7c63ab)" style="fill: #1f77b4"/>
   </g>
   <g id="patch_45">
    <path d="M 128.866247 273.312 
L 130.479716 273.312 
L 130.479716 114.261677 
L 128.866247 114.261677 
z
" clip-path="url(#pd5af7c63ab)" style="fill: #1f77b4"/>
   </g>
   <g id="patch_46">
    <path d="M 130.479716 273.312 
L 132.093186 273.312 
L 132.093186 140.274581 
L 130.479716 140.274581 
z
" clip-path="url(#pd5af7c63ab)" style="fill: #1f77b4"/>
   </g>
   <g id="patch_47">
    <path d="M 132.093186 273.312 
L 133.706655 273.312 
L 133.706655 118.721032 
L 132.093186 118.721032 
z
" clip-path="url(#pd5af7c63ab)" style="fill: #1f77b4"/>
   </g>
   <g id="patch_48">
    <path d="M 133.706655 273.312 
L 135.320124 273.312 
L 135.320124 123.180387 
L 133.706655 123.180387 
z
" clip-path="url(#pd5af7c63ab)" style="fill: #1f77b4"/>
   </g>
   <g id="patch_49">
    <path d="M 135.320124 273.312 
L 136.933594 273.312 
L 136.933594 129.869419 
L 135.320124 129.869419 
z
" clip-path="url(#pd5af7c63ab)" style="fill: #1f77b4"/>
   </g>
   <g id="patch_50">
    <path d="M 136.933594 273.312 
L 138.547063 273.312 
L 138.547063 112.775226 
L 136.933594 112.775226 
z
" clip-path="url(#pd5af7c63ab)" style="fill: #1f77b4"/>
   </g>
   <g id="patch_51">
    <path d="M 138.547063 273.312 
L 140.160532 273.312 
L 140.160532 82.302968 
L 138.547063 82.302968 
z
" clip-path="url(#pd5af7c63ab)" style="fill: #1f77b4"/>
   </g>
   <g id="patch_52">
    <path d="M 140.160532 273.312 
L 141.774002 273.312 
L 141.774002 117.234581 
L 140.160532 117.234581 
z
" clip-path="url(#pd5af7c63ab)" style="fill: #1f77b4"/>
   </g>
   <g id="patch_53">
    <path d="M 141.774002 273.312 
L 143.387471 273.312 
L 143.387471 85.275871 
L 141.774002 85.275871 
z
" clip-path="url(#pd5af7c63ab)" style="fill: #1f77b4"/>
   </g>
   <g id="patch_54">
    <path d="M 143.387471 273.312 
L 145.00094 273.312 
L 145.00094 114.261677 
L 143.387471 114.261677 
z
" clip-path="url(#pd5af7c63ab)" style="fill: #1f77b4"/>
   </g>
   <g id="patch_55">
    <path d="M 145.00094 273.312 
L 146.61441 273.312 
L 146.61441 112.032 
L 145.00094 112.032 
z
" clip-path="url(#pd5af7c63ab)" style="fill: #1f77b4"/>
   </g>
   <g id="patch_56">
    <path d="M 146.61441 273.312 
L 148.227879 273.312 
L 148.227879 99.397161 
L 146.61441 99.397161 
z
" clip-path="url(#pd5af7c63ab)" style="fill: #1f77b4"/>
   </g>
   <g id="patch_57">
    <path d="M 148.227879 273.312 
L 149.841349 273.312 
L 149.841349 109.802323 
L 148.227879 109.802323 
z
" clip-path="url(#pd5af7c63ab)" style="fill: #1f77b4"/>
   </g>
   <g id="patch_58">
    <path d="M 149.841349 273.312 
L 151.454818 273.312 
L 151.454818 103.11329 
L 149.841349 103.11329 
z
" clip-path="url(#pd5af7c63ab)" style="fill: #1f77b4"/>
   </g>
   <g id="patch_59">
    <path d="M 151.454818 273.312 
L 153.068287 273.312 
L 153.068287 112.775226 
L 151.454818 112.775226 
z
" clip-path="url(#pd5af7c63ab)" style="fill: #1f77b4"/>
   </g>
   <g id="patch_60">
    <path d="M 153.068287 273.312 
L 154.681757 273.312 
L 154.681757 86.762323 
L 153.068287 86.762323 
z
" clip-path="url(#pd5af7c63ab)" style="fill: #1f77b4"/>
   </g>
   <g id="patch_61">
    <path d="M 154.681757 273.312 
L 156.295226 273.312 
L 156.295226 74.127484 
L 154.681757 74.127484 
z
" clip-path="url(#pd5af7c63ab)" style="fill: #1f77b4"/>
   </g>
   <g id="patch_62">
    <path d="M 156.295226 273.312 
L 157.908695 273.312 
L 157.908695 81.559742 
L 156.295226 81.559742 
z
" clip-path="url(#pd5af7c63ab)" style="fill: #1f77b4"/>
   </g>
   <g id="patch_63">
    <path d="M 157.908695 273.312 
L 159.522165 273.312 
L 159.522165 89.735226 
L 157.908695 89.735226 
z
" clip-path="url(#pd5af7c63ab)" style="fill: #1f77b4"/>
   </g>
   <g id="patch_64">
    <path d="M 159.522165 273.312 
L 161.135634 273.312 
L 161.135634 80.816516 
L 159.522165 80.816516 
z
" clip-path="url(#pd5af7c63ab)" style="fill: #1f77b4"/>
   </g>
   <g id="patch_65">
    <path d="M 161.135634 273.312 
L 162.749103 273.312 
L 162.749103 88.992 
L 161.135634 88.992 
z
" clip-path="url(#pd5af7c63ab)" style="fill: #1f77b4"/>
   </g>
   <g id="patch_66">
    <path d="M 162.749103 273.312 
L 164.362573 273.312 
L 164.362573 59.262968 
L 162.749103 59.262968 
z
" clip-path="url(#pd5af7c63ab)" style="fill: #1f77b4"/>
   </g>
   <g id="patch_67">
    <path d="M 164.362573 273.312 
L 165.976042 273.312 
L 165.976042 83.789419 
L 164.362573 83.789419 
z
" clip-path="url(#pd5af7c63ab)" style="fill: #1f77b4"/>
   </g>
   <g id="patch_68">
    <path d="M 165.976042 273.312 
L 167.589511 273.312 
L 167.589511 71.897806 
L 165.976042 71.897806 
z
" clip-path="url(#pd5af7c63ab)" style="fill: #1f77b4"/>
   </g>
   <g id="patch_69">
    <path d="M 167.589511 273.312 
L 169.202981 273.312 
L 169.202981 62.235871 
L 167.589511 62.235871 
z
" clip-path="url(#pd5af7c63ab)" style="fill: #1f77b4"/>
   </g>
   <g id="patch_70">
    <path d="M 169.202981 273.312 
L 170.81645 273.312 
L 170.81645 66.695226 
L 169.202981 66.695226 
z
" clip-path="url(#pd5af7c63ab)" style="fill: #1f77b4"/>
   </g>
   <g id="patch_71">
    <path d="M 170.81645 273.312 
L 172.42992 273.312 
L 172.42992 72.641032 
L 170.81645 72.641032 
z
" clip-path="url(#pd5af7c63ab)" style="fill: #1f77b4"/>
   </g>
   <g id="patch_72">
    <path d="M 172.42992 273.312 
L 174.043389 273.312 
L 174.043389 87.505548 
L 172.42992 87.505548 
z
" clip-path="url(#pd5af7c63ab)" style="fill: #1f77b4"/>
   </g>
   <g id="patch_73">
    <path d="M 174.043389 273.312 
L 175.656858 273.312 
L 175.656858 65.952 
L 174.043389 65.952 
z
" clip-path="url(#pd5af7c63ab)" style="fill: #1f77b4"/>
   </g>
   <g id="patch_74">
    <path d="M 175.656858 273.312 
L 177.270328 273.312 
L 177.270328 69.668129 
L 175.656858 69.668129 
z
" clip-path="url(#pd5af7c63ab)" style="fill: #1f77b4"/>
   </g>
   <g id="patch_75">
    <path d="M 177.270328 273.312 
L 178.883797 273.312 
L 178.883797 86.019097 
L 177.270328 86.019097 
z
" clip-path="url(#pd5af7c63ab)" style="fill: #1f77b4"/>
   </g>
   <g id="patch_76">
    <path d="M 178.883797 273.312 
L 180.497266 273.312 
L 180.497266 71.154581 
L 178.883797 71.154581 
z
" clip-path="url(#pd5af7c63ab)" style="fill: #1f77b4"/>
   </g>
   <g id="patch_77">
    <path d="M 180.497266 273.312 
L 182.110736 273.312 
L 182.110736 42.168774 
L 180.497266 42.168774 
z
" clip-path="url(#pd5af7c63ab)" style="fill: #1f77b4"/>
   </g>
   <g id="patch_78">
    <path d="M 182.110736 273.312 
L 183.724205 273.312 
L 183.724205 68.924903 
L 182.110736 68.924903 
z
" clip-path="url(#pd5af7c63ab)" style="fill: #1f77b4"/>
   </g>
   <g id="patch_79">
    <path d="M 183.724205 273.312 
L 185.337674 273.312 
L 185.337674 51.83071 
L 183.724205 51.83071 
z
" clip-path="url(#pd5af7c63ab)" style="fill: #1f77b4"/>
   </g>
   <g id="patch_80">
    <path d="M 185.337674 273.312 
L 186.951144 273.312 
L 186.951144 48.114581 
L 185.337674 48.114581 
z
" clip-path="url(#pd5af7c63ab)" style="fill: #1f77b4"/>
   </g>
   <g id="patch_81">
    <path d="M 186.951144 273.312 
L 188.564613 273.312 
L 188.564613 62.979097 
L 186.951144 62.979097 
z
" clip-path="url(#pd5af7c63ab)" style="fill: #1f77b4"/>
   </g>
   <g id="patch_82">
    <path d="M 188.564613 273.312 
L 190.178082 273.312 
L 190.178082 64.465548 
L 188.564613 64.465548 
z
" clip-path="url(#pd5af7c63ab)" style="fill: #1f77b4"/>
   </g>
   <g id="patch_83">
    <path d="M 190.178082 273.312 
L 191.791552 273.312 
L 191.791552 28.79071 
L 190.178082 28.79071 
z
" clip-path="url(#pd5af7c63ab)" style="fill: #1f77b4"/>
   </g>
   <g id="patch_84">
    <path d="M 191.791552 273.312 
L 193.405021 273.312 
L 193.405021 51.087484 
L 191.791552 51.087484 
z
" clip-path="url(#pd5af7c63ab)" style="fill: #1f77b4"/>
   </g>
   <g id="patch_85">
    <path d="M 193.405021 273.312 
L 195.01849 273.312 
L 195.01849 71.897806 
L 193.405021 71.897806 
z
" clip-path="url(#pd5af7c63ab)" style="fill: #1f77b4"/>
   </g>
   <g id="patch_86">
    <path d="M 195.01849 273.312 
L 196.63196 273.312 
L 196.63196 44.398452 
L 195.01849 44.398452 
z
" clip-path="url(#pd5af7c63ab)" style="fill: #1f77b4"/>
   </g>
   <g id="patch_87">
    <path d="M 196.63196 273.312 
L 198.245429 273.312 
L 198.245429 60.006194 
L 196.63196 60.006194 
z
" clip-path="url(#pd5af7c63ab)" style="fill: #1f77b4"/>
   </g>
   <g id="patch_88">
    <path d="M 198.245429 273.312 
L 199.858899 273.312 
L 199.858899 59.262968 
L 198.245429 59.262968 
z
" clip-path="url(#pd5af7c63ab)" style="fill: #1f77b4"/>
   </g>
   <g id="patch_89">
    <path d="M 199.858899 273.312 
L 201.472368 273.312 
L 201.472368 53.317161 
L 199.858899 53.317161 
z
" clip-path="url(#pd5af7c63ab)" style="fill: #1f77b4"/>
   </g>
   <g id="patch_90">
    <path d="M 201.472368 273.312 
L 203.085837 273.312 
L 203.085837 44.398452 
L 201.472368 44.398452 
z
" clip-path="url(#pd5af7c63ab)" style="fill: #1f77b4"/>
   </g>
   <g id="patch_91">
    <path d="M 203.085837 273.312 
L 204.699307 273.312 
L 204.699307 31.763613 
L 203.085837 31.763613 
z
" clip-path="url(#pd5af7c63ab)" style="fill: #1f77b4"/>
   </g>
   <g id="patch_92">
    <path d="M 204.699307 273.312 
L 206.312776 273.312 
L 206.312776 23.588129 
L 204.699307 23.588129 
z
" clip-path="url(#pd5af7c63ab)" style="fill: #1f77b4"/>
   </g>
   <g id="patch_93">
    <path d="M 206.312776 273.312 
L 207.926245 273.312 
L 207.926245 37.709419 
L 206.312776 37.709419 
z
" clip-path="url(#pd5af7c63ab)" style="fill: #1f77b4"/>
   </g>
   <g id="patch_94">
    <path d="M 207.926245 273.312 
L 209.539715 273.312 
L 209.539715 42.168774 
L 207.926245 42.168774 
z
" clip-path="url(#pd5af7c63ab)" style="fill: #1f77b4"/>
   </g>
   <g id="patch_95">
    <path d="M 209.539715 273.312 
L 211.153184 273.312 
L 211.153184 36.966194 
L 209.539715 36.966194 
z
" clip-path="url(#pd5af7c63ab)" style="fill: #1f77b4"/>
   </g>
   <g id="patch_96">
    <path d="M 211.153184 273.312 
L 212.766653 273.312 
L 212.766653 51.83071 
L 211.153184 51.83071 
z
" clip-path="url(#pd5af7c63ab)" style="fill: #1f77b4"/>
   </g>
   <g id="patch_97">
    <path d="M 212.766653 273.312 
L 214.380123 273.312 
L 214.380123 39.195871 
L 212.766653 39.195871 
z
" clip-path="url(#pd5af7c63ab)" style="fill: #1f77b4"/>
   </g>
   <g id="patch_98">
    <path d="M 214.380123 273.312 
L 215.993592 273.312 
L 215.993592 28.047484 
L 214.380123 28.047484 
z
" clip-path="url(#pd5af7c63ab)" style="fill: #1f77b4"/>
   </g>
   <g id="patch_99">
    <path d="M 215.993592 273.312 
L 217.607061 273.312 
L 217.607061 42.168774 
L 215.993592 42.168774 
z
" clip-path="url(#pd5af7c63ab)" style="fill: #1f77b4"/>
   </g>
   <g id="patch_100">
    <path d="M 217.607061 273.312 
L 219.220531 273.312 
L 219.220531 48.114581 
L 217.607061 48.114581 
z
" clip-path="url(#pd5af7c63ab)" style="fill: #1f77b4"/>
   </g>
   <g id="patch_101">
    <path d="M 219.220531 273.312 
L 220.834 273.312 
L 220.834 55.546839 
L 219.220531 55.546839 
z
" clip-path="url(#pd5af7c63ab)" style="fill: #1f77b4"/>
   </g>
   <g id="patch_102">
    <path d="M 220.834 273.312 
L 222.44747 273.312 
L 222.44747 45.141677 
L 220.834 45.141677 
z
" clip-path="url(#pd5af7c63ab)" style="fill: #1f77b4"/>
   </g>
   <g id="patch_103">
    <path d="M 222.44747 273.312 
L 224.060939 273.312 
L 224.060939 44.398452 
L 222.44747 44.398452 
z
" clip-path="url(#pd5af7c63ab)" style="fill: #1f77b4"/>
   </g>
   <g id="patch_104">
    <path d="M 224.060939 273.312 
L 225.674408 273.312 
L 225.674408 28.79071 
L 224.060939 28.79071 
z
" clip-path="url(#pd5af7c63ab)" style="fill: #1f77b4"/>
   </g>
   <g id="patch_105">
    <path d="M 225.674408 273.312 
L 227.287878 273.312 
L 227.287878 29.533935 
L 225.674408 29.533935 
z
" clip-path="url(#pd5af7c63ab)" style="fill: #1f77b4"/>
   </g>
   <g id="patch_106">
    <path d="M 227.287878 273.312 
L 228.901347 273.312 
L 228.901347 51.087484 
L 227.287878 51.087484 
z
" clip-path="url(#pd5af7c63ab)" style="fill: #1f77b4"/>
   </g>
   <g id="patch_107">
    <path d="M 228.901347 273.312 
L 230.514816 273.312 
L 230.514816 53.317161 
L 228.901347 53.317161 
z
" clip-path="url(#pd5af7c63ab)" style="fill: #1f77b4"/>
   </g>
   <g id="patch_108">
    <path d="M 230.514816 273.312 
L 232.128286 273.312 
L 232.128286 65.952 
L 230.514816 65.952 
z
" clip-path="url(#pd5af7c63ab)" style="fill: #1f77b4"/>
   </g>
   <g id="patch_109">
    <path d="M 232.128286 273.312 
L 233.741755 273.312 
L 233.741755 54.803613 
L 232.128286 54.803613 
z
" clip-path="url(#pd5af7c63ab)" style="fill: #1f77b4"/>
   </g>
   <g id="patch_110">
    <path d="M 233.741755 273.312 
L 235.355224 273.312 
L 235.355224 19.872 
L 233.741755 19.872 
z
" clip-path="url(#pd5af7c63ab)" style="fill: #1f77b4"/>
   </g>
   <g id="patch_111">
    <path d="M 235.355224 273.312 
L 236.968694 273.312 
L 236.968694 25.817806 
L 235.355224 25.817806 
z
" clip-path="url(#pd5af7c63ab)" style="fill: #1f77b4"/>
   </g>
   <g id="patch_112">
    <path d="M 236.968694 273.312 
L 238.582163 273.312 
L 238.582163 61.492645 
L 236.968694 61.492645 
z
" clip-path="url(#pd5af7c63ab)" style="fill: #1f77b4"/>
   </g>
   <g id="patch_113">
    <path d="M 238.582163 273.312 
L 240.195632 273.312 
L 240.195632 43.655226 
L 238.582163 43.655226 
z
" clip-path="url(#pd5af7c63ab)" style="fill: #1f77b4"/>
   </g>
   <g id="patch_114">
    <path d="M 240.195632 273.312 
L 241.809102 273.312 
L 241.809102 63.722323 
L 240.195632 63.722323 
z
" clip-path="url(#pd5af7c63ab)" style="fill: #1f77b4"/>
   </g>
   <g id="patch_115">
    <path d="M 241.809102 273.312 
L 243.422571 273.312 
L 243.422571 59.262968 
L 241.809102 59.262968 
z
" clip-path="url(#pd5af7c63ab)" style="fill: #1f77b4"/>
   </g>
   <g id="patch_116">
    <path d="M 243.422571 273.312 
L 245.036041 273.312 
L 245.036041 56.290065 
L 243.422571 56.290065 
z
" clip-path="url(#pd5af7c63ab)" style="fill: #1f77b4"/>
   </g>
   <g id="patch_117">
    <path d="M 245.036041 273.312 
L 246.64951 273.312 
L 246.64951 62.235871 
L 245.036041 62.235871 
z
" clip-path="url(#pd5af7c63ab)" style="fill: #1f77b4"/>
   </g>
   <g id="patch_118">
    <path d="M 246.64951 273.312 
L 248.262979 273.312 
L 248.262979 42.912 
L 246.64951 42.912 
z
" clip-path="url(#pd5af7c63ab)" style="fill: #1f77b4"/>
   </g>
   <g id="patch_119">
    <path d="M 248.262979 273.312 
L 249.876449 273.312 
L 249.876449 41.425548 
L 248.262979 41.425548 
z
" clip-path="url(#pd5af7c63ab)" style="fill: #1f77b4"/>
   </g>
   <g id="patch_120">
    <path d="M 249.876449 273.312 
L 251.489918 273.312 
L 251.489918 42.912 
L 249.876449 42.912 
z
" clip-path="url(#pd5af7c63ab)" style="fill: #1f77b4"/>
   </g>
   <g id="patch_121">
    <path d="M 251.489918 273.312 
L 253.103387 273.312 
L 253.103387 61.492645 
L 251.489918 61.492645 
z
" clip-path="url(#pd5af7c63ab)" style="fill: #1f77b4"/>
   </g>
   <g id="patch_122">
    <path d="M 253.103387 273.312 
L 254.716857 273.312 
L 254.716857 62.235871 
L 253.103387 62.235871 
z
" clip-path="url(#pd5af7c63ab)" style="fill: #1f77b4"/>
   </g>
   <g id="patch_123">
    <path d="M 254.716857 273.312 
L 256.330326 273.312 
L 256.330326 56.290065 
L 254.716857 56.290065 
z
" clip-path="url(#pd5af7c63ab)" style="fill: #1f77b4"/>
   </g>
   <g id="patch_124">
    <path d="M 256.330326 273.312 
L 257.943795 273.312 
L 257.943795 57.776516 
L 256.330326 57.776516 
z
" clip-path="url(#pd5af7c63ab)" style="fill: #1f77b4"/>
   </g>
   <g id="patch_125">
    <path d="M 257.943795 273.312 
L 259.557265 273.312 
L 259.557265 40.682323 
L 257.943795 40.682323 
z
" clip-path="url(#pd5af7c63ab)" style="fill: #1f77b4"/>
   </g>
   <g id="patch_126">
    <path d="M 259.557265 273.312 
L 261.170734 273.312 
L 261.170734 60.006194 
L 259.557265 60.006194 
z
" clip-path="url(#pd5af7c63ab)" style="fill: #1f77b4"/>
   </g>
   <g id="patch_127">
    <path d="M 261.170734 273.312 
L 262.784203 273.312 
L 262.784203 63.722323 
L 261.170734 63.722323 
z
" clip-path="url(#pd5af7c63ab)" style="fill: #1f77b4"/>
   </g>
   <g id="patch_128">
    <path d="M 262.784203 273.312 
L 264.397673 273.312 
L 264.397673 57.776516 
L 262.784203 57.776516 
z
" clip-path="url(#pd5af7c63ab)" style="fill: #1f77b4"/>
   </g>
   <g id="patch_129">
    <path d="M 264.397673 273.312 
L 266.011142 273.312 
L 266.011142 62.235871 
L 264.397673 62.235871 
z
" clip-path="url(#pd5af7c63ab)" style="fill: #1f77b4"/>
   </g>
   <g id="patch_130">
    <path d="M 266.011142 273.312 
L 267.624611 273.312 
L 267.624611 52.573935 
L 266.011142 52.573935 
z
" clip-path="url(#pd5af7c63ab)" style="fill: #1f77b4"/>
   </g>
   <g id="patch_131">
    <path d="M 267.624611 273.312 
L 269.238081 273.312 
L 269.238081 69.668129 
L 267.624611 69.668129 
z
" clip-path="url(#pd5af7c63ab)" style="fill: #1f77b4"/>
   </g>
   <g id="patch_132">
    <path d="M 269.238081 273.312 
L 270.85155 273.312 
L 270.85155 56.290065 
L 269.238081 56.290065 
z
" clip-path="url(#pd5af7c63ab)" style="fill: #1f77b4"/>
   </g>
   <g id="patch_133">
    <path d="M 270.85155 273.312 
L 272.46502 273.312 
L 272.46502 58.519742 
L 270.85155 58.519742 
z
" clip-path="url(#pd5af7c63ab)" style="fill: #1f77b4"/>
   </g>
   <g id="patch_134">
    <path d="M 272.46502 273.312 
L 274.078489 273.312 
L 274.078489 67.438452 
L 272.46502 67.438452 
z
" clip-path="url(#pd5af7c63ab)" style="fill: #1f77b4"/>
   </g>
   <g id="patch_135">
    <path d="M 274.078489 273.312 
L 275.691958 273.312 
L 275.691958 61.492645 
L 274.078489 61.492645 
z
" clip-path="url(#pd5af7c63ab)" style="fill: #1f77b4"/>
   </g>
   <g id="patch_136">
    <path d="M 275.691958 273.312 
L 277.305428 273.312 
L 277.305428 91.964903 
L 275.691958 91.964903 
z
" clip-path="url(#pd5af7c63ab)" style="fill: #1f77b4"/>
   </g>
   <g id="patch_137">
    <path d="M 277.305428 273.312 
L 278.918897 273.312 
L 278.918897 83.789419 
L 277.305428 83.789419 
z
" clip-path="url(#pd5af7c63ab)" style="fill: #1f77b4"/>
   </g>
   <g id="patch_138">
    <path d="M 278.918897 273.312 
L 280.532366 273.312 
L 280.532366 94.937806 
L 278.918897 94.937806 
z
" clip-path="url(#pd5af7c63ab)" style="fill: #1f77b4"/>
   </g>
   <g id="patch_139">
    <path d="M 280.532366 273.312 
L 282.145836 273.312 
L 282.145836 81.559742 
L 280.532366 81.559742 
z
" clip-path="url(#pd5af7c63ab)" style="fill: #1f77b4"/>
   </g>
   <g id="patch_140">
    <path d="M 282.145836 273.312 
L 283.759305 273.312 
L 283.759305 65.208774 
L 282.145836 65.208774 
z
" clip-path="url(#pd5af7c63ab)" style="fill: #1f77b4"/>
   </g>
   <g id="patch_141">
    <path d="M 283.759305 273.312 
L 285.372774 273.312 
L 285.372774 91.964903 
L 283.759305 91.964903 
z
" clip-path="url(#pd5af7c63ab)" style="fill: #1f77b4"/>
   </g>
   <g id="patch_142">
    <path d="M 285.372774 273.312 
L 286.986244 273.312 
L 286.986244 79.330065 
L 285.372774 79.330065 
z
" clip-path="url(#pd5af7c63ab)" style="fill: #1f77b4"/>
   </g>
   <g id="patch_143">
    <path d="M 286.986244 273.312 
L 288.599713 273.312 
L 288.599713 87.505548 
L 286.986244 87.505548 
z
" clip-path="url(#pd5af7c63ab)" style="fill: #1f77b4"/>
   </g>
   <g id="patch_144">
    <path d="M 288.599713 273.312 
L 290.213182 273.312 
L 290.213182 91.221677 
L 288.599713 91.221677 
z
" clip-path="url(#pd5af7c63ab)" style="fill: #1f77b4"/>
   </g>
   <g id="patch_145">
    <path d="M 290.213182 273.312 
L 291.826652 273.312 
L 291.826652 81.559742 
L 290.213182 81.559742 
z
" clip-path="url(#pd5af7c63ab)" style="fill: #1f77b4"/>
   </g>
   <g id="patch_146">
    <path d="M 291.826652 273.312 
L 293.440121 273.312 
L 293.440121 74.87071 
L 291.826652 74.87071 
z
" clip-path="url(#pd5af7c63ab)" style="fill: #1f77b4"/>
   </g>
   <g id="patch_147">
    <path d="M 293.440121 273.312 
L 295.053591 273.312 
L 295.053591 100.140387 
L 293.440121 100.140387 
z
" clip-path="url(#pd5af7c63ab)" style="fill: #1f77b4"/>
   </g>
   <g id="patch_148">
    <path d="M 295.053591 273.312 
L 296.66706 273.312 
L 296.66706 98.653935 
L 295.053591 98.653935 
z
" clip-path="url(#pd5af7c63ab)" style="fill: #1f77b4"/>
   </g>
   <g id="patch_149">
    <path d="M 296.66706 273.312 
L 298.280529 273.312 
L 298.280529 92.708129 
L 296.66706 92.708129 
z
" clip-path="url(#pd5af7c63ab)" style="fill: #1f77b4"/>
   </g>
   <g id="patch_150">
    <path d="M 298.280529 273.312 
L 299.893999 273.312 
L 299.893999 104.599742 
L 298.280529 104.599742 
z
" clip-path="url(#pd5af7c63ab)" style="fill: #1f77b4"/>
   </g>
   <g id="patch_151">
    <path d="M 299.893999 273.312 
L 301.507468 273.312 
L 301.507468 106.829419 
L 299.893999 106.829419 
z
" clip-path="url(#pd5af7c63ab)" style="fill: #1f77b4"/>
   </g>
   <g id="patch_152">
    <path d="M 301.507468 273.312 
L 303.120937 273.312 
L 303.120937 106.829419 
L 301.507468 106.829419 
z
" clip-path="url(#pd5af7c63ab)" style="fill: #1f77b4"/>
   </g>
   <g id="patch_153">
    <path d="M 303.120937 273.312 
L 304.734407 273.312 
L 304.734407 99.397161 
L 303.120937 99.397161 
z
" clip-path="url(#pd5af7c63ab)" style="fill: #1f77b4"/>
   </g>
   <g id="patch_154">
    <path d="M 304.734407 273.312 
L 306.347876 273.312 
L 306.347876 102.370065 
L 304.734407 102.370065 
z
" clip-path="url(#pd5af7c63ab)" style="fill: #1f77b4"/>
   </g>
   <g id="patch_155">
    <path d="M 306.347876 273.312 
L 307.961345 273.312 
L 307.961345 122.437161 
L 306.347876 122.437161 
z
" clip-path="url(#pd5af7c63ab)" style="fill: #1f77b4"/>
   </g>
   <g id="patch_156">
    <path d="M 307.961345 273.312 
L 309.574815 273.312 
L 309.574815 115.004903 
L 307.961345 115.004903 
z
" clip-path="url(#pd5af7c63ab)" style="fill: #1f77b4"/>
   </g>
   <g id="patch_157">
    <path d="M 309.574815 273.312 
L 311.188284 273.312 
L 311.188284 115.748129 
L 309.574815 115.748129 
z
" clip-path="url(#pd5af7c63ab)" style="fill: #1f77b4"/>
   </g>
   <g id="patch_158">
    <path d="M 311.188284 273.312 
L 312.801753 273.312 
L 312.801753 124.666839 
L 311.188284 124.666839 
z
" clip-path="url(#pd5af7c63ab)" style="fill: #1f77b4"/>
   </g>
   <g id="patch_159">
    <path d="M 312.801753 273.312 
L 314.415223 273.312 
L 314.415223 134.328774 
L 312.801753 134.328774 
z
" clip-path="url(#pd5af7c63ab)" style="fill: #1f77b4"/>
   </g>
   <g id="patch_160">
    <path d="M 314.415223 273.312 
L 316.028692 273.312 
L 316.028692 115.004903 
L 314.415223 115.004903 
z
" clip-path="url(#pd5af7c63ab)" style="fill: #1f77b4"/>
   </g>
   <g id="patch_161">
    <path d="M 316.028692 273.312 
L 317.642161 273.312 
L 317.642161 143.99071 
L 316.028692 143.99071 
z
" clip-path="url(#pd5af7c63ab)" style="fill: #1f77b4"/>
   </g>
   <g id="patch_162">
    <path d="M 317.642161 273.312 
L 319.255631 273.312 
L 319.255631 132.842323 
L 317.642161 132.842323 
z
" clip-path="url(#pd5af7c63ab)" style="fill: #1f77b4"/>
   </g>
   <g id="patch_163">
    <path d="M 319.255631 273.312 
L 320.8691 273.312 
L 320.8691 142.504258 
L 319.255631 142.504258 
z
" clip-path="url(#pd5af7c63ab)" style="fill: #1f77b4"/>
   </g>
   <g id="patch_164">
    <path d="M 320.8691 273.312 
L 322.48257 273.312 
L 322.48257 126.15329 
L 320.8691 126.15329 
z
" clip-path="url(#pd5af7c63ab)" style="fill: #1f77b4"/>
   </g>
   <g id="patch_165">
    <path d="M 322.48257 273.312 
L 324.096039 273.312 
L 324.096039 139.531355 
L 322.48257 139.531355 
z
" clip-path="url(#pd5af7c63ab)" style="fill: #1f77b4"/>
   </g>
   <g id="patch_166">
    <path d="M 324.096039 273.312 
L 325.709508 273.312 
L 325.709508 143.247484 
L 324.096039 143.247484 
z
" clip-path="url(#pd5af7c63ab)" style="fill: #1f77b4"/>
   </g>
   <g id="patch_167">
    <path d="M 325.709508 273.312 
L 327.322978 273.312 
L 327.322978 143.99071 
L 325.709508 143.99071 
z
" clip-path="url(#pd5af7c63ab)" style="fill: #1f77b4"/>
   </g>
   <g id="patch_168">
    <path d="M 327.322978 273.312 
L 328.936447 273.312 
L 328.936447 137.301677 
L 327.322978 137.301677 
z
" clip-path="url(#pd5af7c63ab)" style="fill: #1f77b4"/>
   </g>
   <g id="patch_169">
    <path d="M 328.936447 273.312 
L 330.549916 273.312 
L 330.549916 141.761032 
L 328.936447 141.761032 
z
" clip-path="url(#pd5af7c63ab)" style="fill: #1f77b4"/>
   </g>
   <g id="patch_170">
    <path d="M 330.549916 273.312 
L 332.163386 273.312 
L 332.163386 156.625548 
L 330.549916 156.625548 
z
" clip-path="url(#pd5af7c63ab)" style="fill: #1f77b4"/>
   </g>
   <g id="patch_171">
    <path d="M 332.163386 273.312 
L 333.776855 273.312 
L 333.776855 175.206194 
L 332.163386 175.206194 
z
" clip-path="url(#pd5af7c63ab)" style="fill: #1f77b4"/>
   </g>
   <g id="patch_172">
    <path d="M 333.776855 273.312 
L 335.390324 273.312 
L 335.390324 170.746839 
L 333.776855 170.746839 
z
" clip-path="url(#pd5af7c63ab)" style="fill: #1f77b4"/>
   </g>
   <g id="patch_173">
    <path d="M 335.390324 273.312 
L 337.003794 273.312 
L 337.003794 160.341677 
L 335.390324 160.341677 
z
" clip-path="url(#pd5af7c63ab)" style="fill: #1f77b4"/>
   </g>
   <g id="patch_174">
    <path d="M 337.003794 273.312 
L 338.617263 273.312 
L 338.617263 175.206194 
L 337.003794 175.206194 
z
" clip-path="url(#pd5af7c63ab)" style="fill: #1f77b4"/>
   </g>
   <g id="patch_175">
    <path d="M 338.617263 273.312 
L 340.230732 273.312 
L 340.230732 167.773935 
L 338.617263 167.773935 
z
" clip-path="url(#pd5af7c63ab)" style="fill: #1f77b4"/>
   </g>
   <g id="patch_176">
    <path d="M 340.230732 273.312 
L 341.844202 273.312 
L 341.844202 157.368774 
L 340.230732 157.368774 
z
" clip-path="url(#pd5af7c63ab)" style="fill: #1f77b4"/>
   </g>
   <g id="patch_177">
    <path d="M 341.844202 273.312 
L 343.457671 273.312 
L 343.457671 179.665548 
L 341.844202 179.665548 
z
" clip-path="url(#pd5af7c63ab)" style="fill: #1f77b4"/>
   </g>
   <g id="patch_178">
    <path d="M 343.457671 273.312 
L 345.071141 273.312 
L 345.071141 175.949419 
L 343.457671 175.949419 
z
" clip-path="url(#pd5af7c63ab)" style="fill: #1f77b4"/>
   </g>
   <g id="patch_179">
    <path d="M 345.071141 273.312 
L 346.68461 273.312 
L 346.68461 193.786839 
L 345.071141 193.786839 
z
" clip-path="url(#pd5af7c63ab)" style="fill: #1f77b4"/>
   </g>
   <g id="patch_180">
    <path d="M 346.68461 273.312 
L 348.298079 273.312 
L 348.298079 195.27329 
L 346.68461 195.27329 
z
" clip-path="url(#pd5af7c63ab)" style="fill: #1f77b4"/>
   </g>
   <g id="patch_181">
    <path d="M 348.298079 273.312 
L 349.911549 273.312 
L 349.911549 193.043613 
L 348.298079 193.043613 
z
" clip-path="url(#pd5af7c63ab)" style="fill: #1f77b4"/>
   </g>
   <g id="patch_182">
    <path d="M 349.911549 273.312 
L 351.525018 273.312 
L 351.525018 199.732645 
L 349.911549 199.732645 
z
" clip-path="url(#pd5af7c63ab)" style="fill: #1f77b4"/>
   </g>
   <g id="patch_183">
    <path d="M 351.525018 273.312 
L 353.138487 273.312 
L 353.138487 202.705548 
L 351.525018 202.705548 
z
" clip-path="url(#pd5af7c63ab)" style="fill: #1f77b4"/>
   </g>
   <g id="patch_184">
    <path d="M 353.138487 273.312 
L 354.751957 273.312 
L 354.751957 200.475871 
L 353.138487 200.475871 
z
" clip-path="url(#pd5af7c63ab)" style="fill: #1f77b4"/>
   </g>
   <g id="patch_185">
    <path d="M 354.751957 273.312 
L 356.365426 273.312 
L 356.365426 211.624258 
L 354.751957 211.624258 
z
" clip-path="url(#pd5af7c63ab)" style="fill: #1f77b4"/>
   </g>
   <g id="patch_186">
    <path d="M 356.365426 273.312 
L 357.978895 273.312 
L 357.978895 211.624258 
L 356.365426 211.624258 
z
" clip-path="url(#pd5af7c63ab)" style="fill: #1f77b4"/>
   </g>
   <g id="patch_187">
    <path d="M 357.978895 273.312 
L 359.592365 273.312 
L 359.592365 225.745548 
L 357.978895 225.745548 
z
" clip-path="url(#pd5af7c63ab)" style="fill: #1f77b4"/>
   </g>
   <g id="patch_188">
    <path d="M 359.592365 273.312 
L 361.205834 273.312 
L 361.205834 225.002323 
L 359.592365 225.002323 
z
" clip-path="url(#pd5af7c63ab)" style="fill: #1f77b4"/>
   </g>
   <g id="patch_189">
    <path d="M 361.205834 273.312 
L 362.819303 273.312 
L 362.819303 224.259097 
L 361.205834 224.259097 
z
" clip-path="url(#pd5af7c63ab)" style="fill: #1f77b4"/>
   </g>
   <g id="patch_190">
    <path d="M 362.819303 273.312 
L 364.432773 273.312 
L 364.432773 236.893935 
L 362.819303 236.893935 
z
" clip-path="url(#pd5af7c63ab)" style="fill: #1f77b4"/>
   </g>
   <g id="patch_191">
    <path d="M 364.432773 273.312 
L 366.046242 273.312 
L 366.046242 223.515871 
L 364.432773 223.515871 
z
" clip-path="url(#pd5af7c63ab)" style="fill: #1f77b4"/>
   </g>
   <g id="patch_192">
    <path d="M 366.046242 273.312 
L 367.659712 273.312 
L 367.659712 228.718452 
L 366.046242 228.718452 
z
" clip-path="url(#pd5af7c63ab)" style="fill: #1f77b4"/>
   </g>
   <g id="patch_193">
    <path d="M 367.659712 273.312 
L 369.273181 273.312 
L 369.273181 242.096516 
L 367.659712 242.096516 
z
" clip-path="url(#pd5af7c63ab)" style="fill: #1f77b4"/>
   </g>
   <g id="patch_194">
    <path d="M 369.273181 273.312 
L 370.88665 273.312 
L 370.88665 239.123613 
L 369.273181 239.123613 
z
" clip-path="url(#pd5af7c63ab)" style="fill: #1f77b4"/>
   </g>
   <g id="patch_195">
    <path d="M 370.88665 273.312 
L 372.50012 273.312 
L 372.50012 239.123613 
L 370.88665 239.123613 
z
" clip-path="url(#pd5af7c63ab)" style="fill: #1f77b4"/>
   </g>
   <g id="patch_196">
    <path d="M 372.50012 273.312 
L 374.113589 273.312 
L 374.113589 247.299097 
L 372.50012 247.299097 
z
" clip-path="url(#pd5af7c63ab)" style="fill: #1f77b4"/>
   </g>
   <g id="patch_197">
    <path d="M 374.113589 273.312 
L 375.727058 273.312 
L 375.727058 249.528774 
L 374.113589 249.528774 
z
" clip-path="url(#pd5af7c63ab)" style="fill: #1f77b4"/>
   </g>
   <g id="patch_198">
    <path d="M 375.727058 273.312 
L 377.340528 273.312 
L 377.340528 253.988129 
L 375.727058 253.988129 
z
" clip-path="url(#pd5af7c63ab)" style="fill: #1f77b4"/>
   </g>
   <g id="patch_199">
    <path d="M 377.340528 273.312 
L 378.953997 273.312 
L 378.953997 259.19071 
L 377.340528 259.19071 
z
" clip-path="url(#pd5af7c63ab)" style="fill: #1f77b4"/>
   </g>
   <g id="patch_200">
    <path d="M 378.953997 273.312 
L 380.567466 273.312 
L 380.567466 260.677161 
L 378.953997 260.677161 
z
" clip-path="url(#pd5af7c63ab)" style="fill: #1f77b4"/>
   </g>
   <g id="patch_201">
    <path d="M 380.567466 273.312 
L 382.180936 273.312 
L 382.180936 266.622968 
L 380.567466 266.622968 
z
" clip-path="url(#pd5af7c63ab)" style="fill: #1f77b4"/>
   </g>
   <g id="patch_202">
    <path d="M 382.180936 273.312 
L 383.794405 273.312 
L 383.794405 268.852645 
L 382.180936 268.852645 
z
" clip-path="url(#pd5af7c63ab)" style="fill: #1f77b4"/>
   </g>
   <g id="matplotlib.axis_1">
    <g id="xtick_1">
     <g id="line2d_1">
      <defs>
       <path id="m1645a17ffe" d="M 0 0 
L 0 3.5 
" style="stroke: #000000; stroke-width: 0.8"/>
      </defs>
      <g>
       <use xlink:href="#m1645a17ffe" x="60.013977" y="273.312" style="stroke: #000000; stroke-width: 0.8"/>
      </g>
     </g>
     <g id="text_1">
      <!-- 0.0 -->
      <g transform="translate(52.062415 287.910437)scale(0.1 -0.1)">
       <defs>
        <path id="DejaVuSans-30" d="M 2034 4250 
Q 1547 4250 1301 3770 
Q 1056 3291 1056 2328 
Q 1056 1369 1301 889 
Q 1547 409 2034 409 
Q 2525 409 2770 889 
Q 3016 1369 3016 2328 
Q 3016 3291 2770 3770 
Q 2525 4250 2034 4250 
z
M 2034 4750 
Q 2819 4750 3233 4129 
Q 3647 3509 3647 2328 
Q 3647 1150 3233 529 
Q 2819 -91 2034 -91 
Q 1250 -91 836 529 
Q 422 1150 422 2328 
Q 422 3509 836 4129 
Q 1250 4750 2034 4750 
z
" transform="scale(0.015625)"/>
        <path id="DejaVuSans-2e" d="M 684 794 
L 1344 794 
L 1344 0 
L 684 0 
L 684 794 
z
" transform="scale(0.015625)"/>
       </defs>
       <use xlink:href="#DejaVuSans-30"/>
       <use xlink:href="#DejaVuSans-2e" x="63.623047"/>
       <use xlink:href="#DejaVuSans-30" x="95.410156"/>
      </g>
     </g>
    </g>
    <g id="xtick_2">
     <g id="line2d_2">
      <g>
       <use xlink:href="#m1645a17ffe" x="101.350278" y="273.312" style="stroke: #000000; stroke-width: 0.8"/>
      </g>
     </g>
     <g id="text_2">
      <!-- 0.2 -->
      <g transform="translate(93.398715 287.910437)scale(0.1 -0.1)">
       <defs>
        <path id="DejaVuSans-32" d="M 1228 531 
L 3431 531 
L 3431 0 
L 469 0 
L 469 531 
Q 828 903 1448 1529 
Q 2069 2156 2228 2338 
Q 2531 2678 2651 2914 
Q 2772 3150 2772 3378 
Q 2772 3750 2511 3984 
Q 2250 4219 1831 4219 
Q 1534 4219 1204 4116 
Q 875 4013 500 3803 
L 500 4441 
Q 881 4594 1212 4672 
Q 1544 4750 1819 4750 
Q 2544 4750 2975 4387 
Q 3406 4025 3406 3419 
Q 3406 3131 3298 2873 
Q 3191 2616 2906 2266 
Q 2828 2175 2409 1742 
Q 1991 1309 1228 531 
z
" transform="scale(0.015625)"/>
       </defs>
       <use xlink:href="#DejaVuSans-30"/>
       <use xlink:href="#DejaVuSans-2e" x="63.623047"/>
       <use xlink:href="#DejaVuSans-32" x="95.410156"/>
      </g>
     </g>
    </g>
    <g id="xtick_3">
     <g id="line2d_3">
      <g>
       <use xlink:href="#m1645a17ffe" x="142.686578" y="273.312" style="stroke: #000000; stroke-width: 0.8"/>
      </g>
     </g>
     <g id="text_3">
      <!-- 0.4 -->
      <g transform="translate(134.735016 287.910437)scale(0.1 -0.1)">
       <defs>
        <path id="DejaVuSans-34" d="M 2419 4116 
L 825 1625 
L 2419 1625 
L 2419 4116 
z
M 2253 4666 
L 3047 4666 
L 3047 1625 
L 3713 1625 
L 3713 1100 
L 3047 1100 
L 3047 0 
L 2419 0 
L 2419 1100 
L 313 1100 
L 313 1709 
L 2253 4666 
z
" transform="scale(0.015625)"/>
       </defs>
       <use xlink:href="#DejaVuSans-30"/>
       <use xlink:href="#DejaVuSans-2e" x="63.623047"/>
       <use xlink:href="#DejaVuSans-34" x="95.410156"/>
      </g>
     </g>
    </g>
    <g id="xtick_4">
     <g id="line2d_4">
      <g>
       <use xlink:href="#m1645a17ffe" x="184.022879" y="273.312" style="stroke: #000000; stroke-width: 0.8"/>
      </g>
     </g>
     <g id="text_4">
      <!-- 0.6 -->
      <g transform="translate(176.071316 287.910437)scale(0.1 -0.1)">
       <defs>
        <path id="DejaVuSans-36" d="M 2113 2584 
Q 1688 2584 1439 2293 
Q 1191 2003 1191 1497 
Q 1191 994 1439 701 
Q 1688 409 2113 409 
Q 2538 409 2786 701 
Q 3034 994 3034 1497 
Q 3034 2003 2786 2293 
Q 2538 2584 2113 2584 
z
M 3366 4563 
L 3366 3988 
Q 3128 4100 2886 4159 
Q 2644 4219 2406 4219 
Q 1781 4219 1451 3797 
Q 1122 3375 1075 2522 
Q 1259 2794 1537 2939 
Q 1816 3084 2150 3084 
Q 2853 3084 3261 2657 
Q 3669 2231 3669 1497 
Q 3669 778 3244 343 
Q 2819 -91 2113 -91 
Q 1303 -91 875 529 
Q 447 1150 447 2328 
Q 447 3434 972 4092 
Q 1497 4750 2381 4750 
Q 2619 4750 2861 4703 
Q 3103 4656 3366 4563 
z
" transform="scale(0.015625)"/>
       </defs>
       <use xlink:href="#DejaVuSans-30"/>
       <use xlink:href="#DejaVuSans-2e" x="63.623047"/>
       <use xlink:href="#DejaVuSans-36" x="95.410156"/>
      </g>
     </g>
    </g>
    <g id="xtick_5">
     <g id="line2d_5">
      <g>
       <use xlink:href="#m1645a17ffe" x="225.35918" y="273.312" style="stroke: #000000; stroke-width: 0.8"/>
      </g>
     </g>
     <g id="text_5">
      <!-- 0.8 -->
      <g transform="translate(217.407617 287.910437)scale(0.1 -0.1)">
       <defs>
        <path id="DejaVuSans-38" d="M 2034 2216 
Q 1584 2216 1326 1975 
Q 1069 1734 1069 1313 
Q 1069 891 1326 650 
Q 1584 409 2034 409 
Q 2484 409 2743 651 
Q 3003 894 3003 1313 
Q 3003 1734 2745 1975 
Q 2488 2216 2034 2216 
z
M 1403 2484 
Q 997 2584 770 2862 
Q 544 3141 544 3541 
Q 544 4100 942 4425 
Q 1341 4750 2034 4750 
Q 2731 4750 3128 4425 
Q 3525 4100 3525 3541 
Q 3525 3141 3298 2862 
Q 3072 2584 2669 2484 
Q 3125 2378 3379 2068 
Q 3634 1759 3634 1313 
Q 3634 634 3220 271 
Q 2806 -91 2034 -91 
Q 1263 -91 848 271 
Q 434 634 434 1313 
Q 434 1759 690 2068 
Q 947 2378 1403 2484 
z
M 1172 3481 
Q 1172 3119 1398 2916 
Q 1625 2713 2034 2713 
Q 2441 2713 2670 2916 
Q 2900 3119 2900 3481 
Q 2900 3844 2670 4047 
Q 2441 4250 2034 4250 
Q 1625 4250 1398 4047 
Q 1172 3844 1172 3481 
z
" transform="scale(0.015625)"/>
       </defs>
       <use xlink:href="#DejaVuSans-30"/>
       <use xlink:href="#DejaVuSans-2e" x="63.623047"/>
       <use xlink:href="#DejaVuSans-38" x="95.410156"/>
      </g>
     </g>
    </g>
    <g id="xtick_6">
     <g id="line2d_6">
      <g>
       <use xlink:href="#m1645a17ffe" x="266.69548" y="273.312" style="stroke: #000000; stroke-width: 0.8"/>
      </g>
     </g>
     <g id="text_6">
      <!-- 1.0 -->
      <g transform="translate(258.743918 287.910437)scale(0.1 -0.1)">
       <defs>
        <path id="DejaVuSans-31" d="M 794 531 
L 1825 531 
L 1825 4091 
L 703 3866 
L 703 4441 
L 1819 4666 
L 2450 4666 
L 2450 531 
L 3481 531 
L 3481 0 
L 794 0 
L 794 531 
z
" transform="scale(0.015625)"/>
       </defs>
       <use xlink:href="#DejaVuSans-31"/>
       <use xlink:href="#DejaVuSans-2e" x="63.623047"/>
       <use xlink:href="#DejaVuSans-30" x="95.410156"/>
      </g>
     </g>
    </g>
    <g id="xtick_7">
     <g id="line2d_7">
      <g>
       <use xlink:href="#m1645a17ffe" x="308.031781" y="273.312" style="stroke: #000000; stroke-width: 0.8"/>
      </g>
     </g>
     <g id="text_7">
      <!-- 1.2 -->
      <g transform="translate(300.080218 287.910437)scale(0.1 -0.1)">
       <use xlink:href="#DejaVuSans-31"/>
       <use xlink:href="#DejaVuSans-2e" x="63.623047"/>
       <use xlink:href="#DejaVuSans-32" x="95.410156"/>
      </g>
     </g>
    </g>
    <g id="xtick_8">
     <g id="line2d_8">
      <g>
       <use xlink:href="#m1645a17ffe" x="349.368081" y="273.312" style="stroke: #000000; stroke-width: 0.8"/>
      </g>
     </g>
     <g id="text_8">
      <!-- 1.4 -->
      <g transform="translate(341.416519 287.910437)scale(0.1 -0.1)">
       <use xlink:href="#DejaVuSans-31"/>
       <use xlink:href="#DejaVuSans-2e" x="63.623047"/>
       <use xlink:href="#DejaVuSans-34" x="95.410156"/>
      </g>
     </g>
    </g>
    <g id="xtick_9">
     <g id="line2d_9">
      <g>
       <use xlink:href="#m1645a17ffe" x="390.704382" y="273.312" style="stroke: #000000; stroke-width: 0.8"/>
      </g>
     </g>
     <g id="text_9">
      <!-- 1.6 -->
      <g transform="translate(382.752819 287.910437)scale(0.1 -0.1)">
       <use xlink:href="#DejaVuSans-31"/>
       <use xlink:href="#DejaVuSans-2e" x="63.623047"/>
       <use xlink:href="#DejaVuSans-36" x="95.410156"/>
      </g>
     </g>
    </g>
    <g id="text_10">
     <!-- Angle with normal (rad) -->
     <g transform="translate(163.023281 301.588562)scale(0.1 -0.1)">
      <defs>
       <path id="DejaVuSans-41" d="M 2188 4044 
L 1331 1722 
L 3047 1722 
L 2188 4044 
z
M 1831 4666 
L 2547 4666 
L 4325 0 
L 3669 0 
L 3244 1197 
L 1141 1197 
L 716 0 
L 50 0 
L 1831 4666 
z
" transform="scale(0.015625)"/>
       <path id="DejaVuSans-6e" d="M 3513 2113 
L 3513 0 
L 2938 0 
L 2938 2094 
Q 2938 2591 2744 2837 
Q 2550 3084 2163 3084 
Q 1697 3084 1428 2787 
Q 1159 2491 1159 1978 
L 1159 0 
L 581 0 
L 581 3500 
L 1159 3500 
L 1159 2956 
Q 1366 3272 1645 3428 
Q 1925 3584 2291 3584 
Q 2894 3584 3203 3211 
Q 3513 2838 3513 2113 
z
" transform="scale(0.015625)"/>
       <path id="DejaVuSans-67" d="M 2906 1791 
Q 2906 2416 2648 2759 
Q 2391 3103 1925 3103 
Q 1463 3103 1205 2759 
Q 947 2416 947 1791 
Q 947 1169 1205 825 
Q 1463 481 1925 481 
Q 2391 481 2648 825 
Q 2906 1169 2906 1791 
z
M 3481 434 
Q 3481 -459 3084 -895 
Q 2688 -1331 1869 -1331 
Q 1566 -1331 1297 -1286 
Q 1028 -1241 775 -1147 
L 775 -588 
Q 1028 -725 1275 -790 
Q 1522 -856 1778 -856 
Q 2344 -856 2625 -561 
Q 2906 -266 2906 331 
L 2906 616 
Q 2728 306 2450 153 
Q 2172 0 1784 0 
Q 1141 0 747 490 
Q 353 981 353 1791 
Q 353 2603 747 3093 
Q 1141 3584 1784 3584 
Q 2172 3584 2450 3431 
Q 2728 3278 2906 2969 
L 2906 3500 
L 3481 3500 
L 3481 434 
z
" transform="scale(0.015625)"/>
       <path id="DejaVuSans-6c" d="M 603 4863 
L 1178 4863 
L 1178 0 
L 603 0 
L 603 4863 
z
" transform="scale(0.015625)"/>
       <path id="DejaVuSans-65" d="M 3597 1894 
L 3597 1613 
L 953 1613 
Q 991 1019 1311 708 
Q 1631 397 2203 397 
Q 2534 397 2845 478 
Q 3156 559 3463 722 
L 3463 178 
Q 3153 47 2828 -22 
Q 2503 -91 2169 -91 
Q 1331 -91 842 396 
Q 353 884 353 1716 
Q 353 2575 817 3079 
Q 1281 3584 2069 3584 
Q 2775 3584 3186 3129 
Q 3597 2675 3597 1894 
z
M 3022 2063 
Q 3016 2534 2758 2815 
Q 2500 3097 2075 3097 
Q 1594 3097 1305 2825 
Q 1016 2553 972 2059 
L 3022 2063 
z
" transform="scale(0.015625)"/>
       <path id="DejaVuSans-20" transform="scale(0.015625)"/>
       <path id="DejaVuSans-77" d="M 269 3500 
L 844 3500 
L 1563 769 
L 2278 3500 
L 2956 3500 
L 3675 769 
L 4391 3500 
L 4966 3500 
L 4050 0 
L 3372 0 
L 2619 2869 
L 1863 0 
L 1184 0 
L 269 3500 
z
" transform="scale(0.015625)"/>
       <path id="DejaVuSans-69" d="M 603 3500 
L 1178 3500 
L 1178 0 
L 603 0 
L 603 3500 
z
M 603 4863 
L 1178 4863 
L 1178 4134 
L 603 4134 
L 603 4863 
z
" transform="scale(0.015625)"/>
       <path id="DejaVuSans-74" d="M 1172 4494 
L 1172 3500 
L 2356 3500 
L 2356 3053 
L 1172 3053 
L 1172 1153 
Q 1172 725 1289 603 
Q 1406 481 1766 481 
L 2356 481 
L 2356 0 
L 1766 0 
Q 1100 0 847 248 
Q 594 497 594 1153 
L 594 3053 
L 172 3053 
L 172 3500 
L 594 3500 
L 594 4494 
L 1172 4494 
z
" transform="scale(0.015625)"/>
       <path id="DejaVuSans-68" d="M 3513 2113 
L 3513 0 
L 2938 0 
L 2938 2094 
Q 2938 2591 2744 2837 
Q 2550 3084 2163 3084 
Q 1697 3084 1428 2787 
Q 1159 2491 1159 1978 
L 1159 0 
L 581 0 
L 581 4863 
L 1159 4863 
L 1159 2956 
Q 1366 3272 1645 3428 
Q 1925 3584 2291 3584 
Q 2894 3584 3203 3211 
Q 3513 2838 3513 2113 
z
" transform="scale(0.015625)"/>
       <path id="DejaVuSans-6f" d="M 1959 3097 
Q 1497 3097 1228 2736 
Q 959 2375 959 1747 
Q 959 1119 1226 758 
Q 1494 397 1959 397 
Q 2419 397 2687 759 
Q 2956 1122 2956 1747 
Q 2956 2369 2687 2733 
Q 2419 3097 1959 3097 
z
M 1959 3584 
Q 2709 3584 3137 3096 
Q 3566 2609 3566 1747 
Q 3566 888 3137 398 
Q 2709 -91 1959 -91 
Q 1206 -91 779 398 
Q 353 888 353 1747 
Q 353 2609 779 3096 
Q 1206 3584 1959 3584 
z
" transform="scale(0.015625)"/>
       <path id="DejaVuSans-72" d="M 2631 2963 
Q 2534 3019 2420 3045 
Q 2306 3072 2169 3072 
Q 1681 3072 1420 2755 
Q 1159 2438 1159 1844 
L 1159 0 
L 581 0 
L 581 3500 
L 1159 3500 
L 1159 2956 
Q 1341 3275 1631 3429 
Q 1922 3584 2338 3584 
Q 2397 3584 2469 3576 
Q 2541 3569 2628 3553 
L 2631 2963 
z
" transform="scale(0.015625)"/>
       <path id="DejaVuSans-6d" d="M 3328 2828 
Q 3544 3216 3844 3400 
Q 4144 3584 4550 3584 
Q 5097 3584 5394 3201 
Q 5691 2819 5691 2113 
L 5691 0 
L 5113 0 
L 5113 2094 
Q 5113 2597 4934 2840 
Q 4756 3084 4391 3084 
Q 3944 3084 3684 2787 
Q 3425 2491 3425 1978 
L 3425 0 
L 2847 0 
L 2847 2094 
Q 2847 2600 2669 2842 
Q 2491 3084 2119 3084 
Q 1678 3084 1418 2786 
Q 1159 2488 1159 1978 
L 1159 0 
L 581 0 
L 581 3500 
L 1159 3500 
L 1159 2956 
Q 1356 3278 1631 3431 
Q 1906 3584 2284 3584 
Q 2666 3584 2933 3390 
Q 3200 3197 3328 2828 
z
" transform="scale(0.015625)"/>
       <path id="DejaVuSans-61" d="M 2194 1759 
Q 1497 1759 1228 1600 
Q 959 1441 959 1056 
Q 959 750 1161 570 
Q 1363 391 1709 391 
Q 2188 391 2477 730 
Q 2766 1069 2766 1631 
L 2766 1759 
L 2194 1759 
z
M 3341 1997 
L 3341 0 
L 2766 0 
L 2766 531 
Q 2569 213 2275 61 
Q 1981 -91 1556 -91 
Q 1019 -91 701 211 
Q 384 513 384 1019 
Q 384 1609 779 1909 
Q 1175 2209 1959 2209 
L 2766 2209 
L 2766 2266 
Q 2766 2663 2505 2880 
Q 2244 3097 1772 3097 
Q 1472 3097 1187 3025 
Q 903 2953 641 2809 
L 641 3341 
Q 956 3463 1253 3523 
Q 1550 3584 1831 3584 
Q 2591 3584 2966 3190 
Q 3341 2797 3341 1997 
z
" transform="scale(0.015625)"/>
       <path id="DejaVuSans-28" d="M 1984 4856 
Q 1566 4138 1362 3434 
Q 1159 2731 1159 2009 
Q 1159 1288 1364 580 
Q 1569 -128 1984 -844 
L 1484 -844 
Q 1016 -109 783 600 
Q 550 1309 550 2009 
Q 550 2706 781 3412 
Q 1013 4119 1484 4856 
L 1984 4856 
z
" transform="scale(0.015625)"/>
       <path id="DejaVuSans-64" d="M 2906 2969 
L 2906 4863 
L 3481 4863 
L 3481 0 
L 2906 0 
L 2906 525 
Q 2725 213 2448 61 
Q 2172 -91 1784 -91 
Q 1150 -91 751 415 
Q 353 922 353 1747 
Q 353 2572 751 3078 
Q 1150 3584 1784 3584 
Q 2172 3584 2448 3432 
Q 2725 3281 2906 2969 
z
M 947 1747 
Q 947 1113 1208 752 
Q 1469 391 1925 391 
Q 2381 391 2643 752 
Q 2906 1113 2906 1747 
Q 2906 2381 2643 2742 
Q 2381 3103 1925 3103 
Q 1469 3103 1208 2742 
Q 947 2381 947 1747 
z
" transform="scale(0.015625)"/>
       <path id="DejaVuSans-29" d="M 513 4856 
L 1013 4856 
Q 1481 4119 1714 3412 
Q 1947 2706 1947 2009 
Q 1947 1309 1714 600 
Q 1481 -109 1013 -844 
L 513 -844 
Q 928 -128 1133 580 
Q 1338 1288 1338 2009 
Q 1338 2731 1133 3434 
Q 928 4138 513 4856 
z
" transform="scale(0.015625)"/>
      </defs>
      <use xlink:href="#DejaVuSans-41"/>
      <use xlink:href="#DejaVuSans-6e" x="68.408203"/>
      <use xlink:href="#DejaVuSans-67" x="131.787109"/>
      <use xlink:href="#DejaVuSans-6c" x="195.263672"/>
      <use xlink:href="#DejaVuSans-65" x="223.046875"/>
      <use xlink:href="#DejaVuSans-20" x="284.570312"/>
      <use xlink:href="#DejaVuSans-77" x="316.357422"/>
      <use xlink:href="#DejaVuSans-69" x="398.144531"/>
      <use xlink:href="#DejaVuSans-74" x="425.927734"/>
      <use xlink:href="#DejaVuSans-68" x="465.136719"/>
      <use xlink:href="#DejaVuSans-20" x="528.515625"/>
      <use xlink:href="#DejaVuSans-6e" x="560.302734"/>
      <use xlink:href="#DejaVuSans-6f" x="623.681641"/>
      <use xlink:href="#DejaVuSans-72" x="684.863281"/>
      <use xlink:href="#DejaVuSans-6d" x="724.226562"/>
      <use xlink:href="#DejaVuSans-61" x="821.638672"/>
      <use xlink:href="#DejaVuSans-6c" x="882.917969"/>
      <use xlink:href="#DejaVuSans-20" x="910.701172"/>
      <use xlink:href="#DejaVuSans-28" x="942.488281"/>
      <use xlink:href="#DejaVuSans-72" x="981.501953"/>
      <use xlink:href="#DejaVuSans-61" x="1022.615234"/>
      <use xlink:href="#DejaVuSans-64" x="1083.894531"/>
      <use xlink:href="#DejaVuSans-29" x="1147.371094"/>
     </g>
    </g>
   </g>
   <g id="matplotlib.axis_2">
    <g id="ytick_1">
     <g id="line2d_10">
      <defs>
       <path id="mb2679a598e" d="M 0 0 
L -3.5 0 
" style="stroke: #000000; stroke-width: 0.8"/>
      </defs>
      <g>
       <use xlink:href="#mb2679a598e" x="43.78125" y="273.312" style="stroke: #000000; stroke-width: 0.8"/>
      </g>
     </g>
     <g id="text_11">
      <!-- 0.0 -->
      <g transform="translate(20.878125 277.111219)scale(0.1 -0.1)">
       <use xlink:href="#DejaVuSans-30"/>
       <use xlink:href="#DejaVuSans-2e" x="63.623047"/>
       <use xlink:href="#DejaVuSans-30" x="95.410156"/>
      </g>
     </g>
    </g>
    <g id="ytick_2">
     <g id="line2d_11">
      <g>
       <use xlink:href="#mb2679a598e" x="43.78125" y="226.895768" style="stroke: #000000; stroke-width: 0.8"/>
      </g>
     </g>
     <g id="text_12">
      <!-- 0.2 -->
      <g transform="translate(20.878125 230.694987)scale(0.1 -0.1)">
       <use xlink:href="#DejaVuSans-30"/>
       <use xlink:href="#DejaVuSans-2e" x="63.623047"/>
       <use xlink:href="#DejaVuSans-32" x="95.410156"/>
      </g>
     </g>
    </g>
    <g id="ytick_3">
     <g id="line2d_12">
      <g>
       <use xlink:href="#mb2679a598e" x="43.78125" y="180.479537" style="stroke: #000000; stroke-width: 0.8"/>
      </g>
     </g>
     <g id="text_13">
      <!-- 0.4 -->
      <g transform="translate(20.878125 184.278756)scale(0.1 -0.1)">
       <use xlink:href="#DejaVuSans-30"/>
       <use xlink:href="#DejaVuSans-2e" x="63.623047"/>
       <use xlink:href="#DejaVuSans-34" x="95.410156"/>
      </g>
     </g>
    </g>
    <g id="ytick_4">
     <g id="line2d_13">
      <g>
       <use xlink:href="#mb2679a598e" x="43.78125" y="134.063305" style="stroke: #000000; stroke-width: 0.8"/>
      </g>
     </g>
     <g id="text_14">
      <!-- 0.6 -->
      <g transform="translate(20.878125 137.862524)scale(0.1 -0.1)">
       <use xlink:href="#DejaVuSans-30"/>
       <use xlink:href="#DejaVuSans-2e" x="63.623047"/>
       <use xlink:href="#DejaVuSans-36" x="95.410156"/>
      </g>
     </g>
    </g>
    <g id="ytick_5">
     <g id="line2d_14">
      <g>
       <use xlink:href="#mb2679a598e" x="43.78125" y="87.647074" style="stroke: #000000; stroke-width: 0.8"/>
      </g>
     </g>
     <g id="text_15">
      <!-- 0.8 -->
      <g transform="translate(20.878125 91.446292)scale(0.1 -0.1)">
       <use xlink:href="#DejaVuSans-30"/>
       <use xlink:href="#DejaVuSans-2e" x="63.623047"/>
       <use xlink:href="#DejaVuSans-38" x="95.410156"/>
      </g>
     </g>
    </g>
    <g id="ytick_6">
     <g id="line2d_15">
      <g>
       <use xlink:href="#mb2679a598e" x="43.78125" y="41.230842" style="stroke: #000000; stroke-width: 0.8"/>
      </g>
     </g>
     <g id="text_16">
      <!-- 1.0 -->
      <g transform="translate(20.878125 45.030061)scale(0.1 -0.1)">
       <use xlink:href="#DejaVuSans-31"/>
       <use xlink:href="#DejaVuSans-2e" x="63.623047"/>
       <use xlink:href="#DejaVuSans-30" x="95.410156"/>
      </g>
     </g>
    </g>
    <g id="text_17">
     <!-- Probability density -->
     <g transform="translate(14.798438 186.606781)rotate(-90)scale(0.1 -0.1)">
      <defs>
       <path id="DejaVuSans-50" d="M 1259 4147 
L 1259 2394 
L 2053 2394 
Q 2494 2394 2734 2622 
Q 2975 2850 2975 3272 
Q 2975 3691 2734 3919 
Q 2494 4147 2053 4147 
L 1259 4147 
z
M 628 4666 
L 2053 4666 
Q 2838 4666 3239 4311 
Q 3641 3956 3641 3272 
Q 3641 2581 3239 2228 
Q 2838 1875 2053 1875 
L 1259 1875 
L 1259 0 
L 628 0 
L 628 4666 
z
" transform="scale(0.015625)"/>
       <path id="DejaVuSans-62" d="M 3116 1747 
Q 3116 2381 2855 2742 
Q 2594 3103 2138 3103 
Q 1681 3103 1420 2742 
Q 1159 2381 1159 1747 
Q 1159 1113 1420 752 
Q 1681 391 2138 391 
Q 2594 391 2855 752 
Q 3116 1113 3116 1747 
z
M 1159 2969 
Q 1341 3281 1617 3432 
Q 1894 3584 2278 3584 
Q 2916 3584 3314 3078 
Q 3713 2572 3713 1747 
Q 3713 922 3314 415 
Q 2916 -91 2278 -91 
Q 1894 -91 1617 61 
Q 1341 213 1159 525 
L 1159 0 
L 581 0 
L 581 4863 
L 1159 4863 
L 1159 2969 
z
" transform="scale(0.015625)"/>
       <path id="DejaVuSans-79" d="M 2059 -325 
Q 1816 -950 1584 -1140 
Q 1353 -1331 966 -1331 
L 506 -1331 
L 506 -850 
L 844 -850 
Q 1081 -850 1212 -737 
Q 1344 -625 1503 -206 
L 1606 56 
L 191 3500 
L 800 3500 
L 1894 763 
L 2988 3500 
L 3597 3500 
L 2059 -325 
z
" transform="scale(0.015625)"/>
       <path id="DejaVuSans-73" d="M 2834 3397 
L 2834 2853 
Q 2591 2978 2328 3040 
Q 2066 3103 1784 3103 
Q 1356 3103 1142 2972 
Q 928 2841 928 2578 
Q 928 2378 1081 2264 
Q 1234 2150 1697 2047 
L 1894 2003 
Q 2506 1872 2764 1633 
Q 3022 1394 3022 966 
Q 3022 478 2636 193 
Q 2250 -91 1575 -91 
Q 1294 -91 989 -36 
Q 684 19 347 128 
L 347 722 
Q 666 556 975 473 
Q 1284 391 1588 391 
Q 1994 391 2212 530 
Q 2431 669 2431 922 
Q 2431 1156 2273 1281 
Q 2116 1406 1581 1522 
L 1381 1569 
Q 847 1681 609 1914 
Q 372 2147 372 2553 
Q 372 3047 722 3315 
Q 1072 3584 1716 3584 
Q 2034 3584 2315 3537 
Q 2597 3491 2834 3397 
z
" transform="scale(0.015625)"/>
      </defs>
      <use xlink:href="#DejaVuSans-50"/>
      <use xlink:href="#DejaVuSans-72" x="58.552734"/>
      <use xlink:href="#DejaVuSans-6f" x="97.416016"/>
      <use xlink:href="#DejaVuSans-62" x="158.597656"/>
      <use xlink:href="#DejaVuSans-61" x="222.074219"/>
      <use xlink:href="#DejaVuSans-62" x="283.353516"/>
      <use xlink:href="#DejaVuSans-69" x="346.830078"/>
      <use xlink:href="#DejaVuSans-6c" x="374.613281"/>
      <use xlink:href="#DejaVuSans-69" x="402.396484"/>
      <use xlink:href="#DejaVuSans-74" x="430.179688"/>
      <use xlink:href="#DejaVuSans-79" x="469.388672"/>
      <use xlink:href="#DejaVuSans-20" x="528.568359"/>
      <use xlink:href="#DejaVuSans-64" x="560.355469"/>
      <use xlink:href="#DejaVuSans-65" x="623.832031"/>
      <use xlink:href="#DejaVuSans-6e" x="685.355469"/>
      <use xlink:href="#DejaVuSans-73" x="748.734375"/>
      <use xlink:href="#DejaVuSans-69" x="800.833984"/>
      <use xlink:href="#DejaVuSans-74" x="828.617188"/>
      <use xlink:href="#DejaVuSans-79" x="867.826172"/>
     </g>
    </g>
   </g>
   <g id="line2d_16">
    <path d="M 60.013977 273.312 
L 79.837728 229.064649 
L 90.237073 206.400869 
L 99.01152 187.795804 
L 106.811029 171.771153 
L 113.960578 157.587592 
L 120.460169 145.172184 
L 126.63478 133.846162 
L 132.484411 123.57476 
L 138.009063 114.313874 
L 143.208736 106.012301 
L 148.408408 98.134188 
L 153.283101 91.150793 
L 157.832814 84.998288 
L 162.382528 79.210736 
L 166.607261 74.173177 
L 170.831995 69.468394 
L 175.056729 65.104247 
L 178.956483 61.384462 
L 182.856238 57.96644 
L 186.755992 54.855049 
L 190.330767 52.276099 
L 193.905542 49.961617 
L 197.480316 47.914373 
L 201.055091 46.136815 
L 204.304886 44.756676 
L 207.554682 43.602545 
L 210.804477 42.675564 
L 214.054272 41.976649 
L 217.304067 41.506491 
L 220.553863 41.265555 
L 223.803658 41.25408 
L 227.053453 41.472077 
L 230.303248 41.919329 
L 233.553044 42.595396 
L 236.802839 43.499609 
L 240.052634 44.631072 
L 243.302429 45.988668 
L 246.552225 47.571054 
L 250.126999 49.569438 
L 253.701774 51.835527 
L 257.276549 54.366613 
L 260.851324 57.159665 
L 264.751078 60.501468 
L 268.650832 64.146293 
L 272.550587 68.088949 
L 276.77532 72.689732 
L 281.000054 77.625769 
L 285.549768 83.306958 
L 290.099481 89.356377 
L 294.974174 96.233187 
L 299.848867 103.503943 
L 305.048539 111.675393 
L 310.248212 120.255968 
L 315.772863 129.796799 
L 321.622495 140.345219 
L 327.797106 151.941046 
L 334.296696 164.614344 
L 341.446246 179.049455 
L 349.245755 195.30877 
L 358.020202 214.126645 
L 368.419546 236.970466 
L 383.693584 271.12253 
L 384.668523 273.312 
L 384.668523 273.312 
" clip-path="url(#pd5af7c63ab)" style="fill: none; stroke: #ff7f0e; stroke-width: 1.5; stroke-linecap: square"/>
   </g>
   <g id="patch_203">
    <path d="M 43.78125 273.312 
L 43.78125 7.2 
" style="fill: none; stroke: #000000; stroke-width: 0.8; stroke-linejoin: miter; stroke-linecap: square"/>
   </g>
   <g id="patch_204">
    <path d="M 400.90125 273.312 
L 400.90125 7.2 
" style="fill: none; stroke: #000000; stroke-width: 0.8; stroke-linejoin: miter; stroke-linecap: square"/>
   </g>
   <g id="patch_205">
    <path d="M 43.78125 273.312 
L 400.90125 273.312 
" style="fill: none; stroke: #000000; stroke-width: 0.8; stroke-linejoin: miter; stroke-linecap: square"/>
   </g>
   <g id="patch_206">
    <path d="M 43.78125 7.2 
L 400.90125 7.2 
" style="fill: none; stroke: #000000; stroke-width: 0.8; stroke-linejoin: miter; stroke-linecap: square"/>
   </g>
  </g>
 </g>
 <defs>
  <clipPath id="pd5af7c63ab">
   <rect x="43.78125" y="7.2" width="357.12" height="266.112"/>
  </clipPath>
 </defs>
</svg>
