<?xml version="1.0" encoding="utf-8" standalone="no"?>
<!DOCTYPE svg PUBLIC "-//W3C//DTD SVG 1.1//EN"
  "http://www.w3.org/Graphics/SVG/1.1/DTD/svg11.dtd">
<svg xmlns:xlink="http://www.w3.org/1999/xlink" width="408.10125pt" height="310.86825pt" viewBox="0 0 408.10125 310.86825" xmlns="http://www.w3.org/2000/svg" version="1.1">
 <metadata>
  <rdf:RDF xmlns:dc="http://purl.org/dc/elements/1.1/" xmlns:cc="http://creativecommons.org/ns#" xmlns:rdf="http://www.w3.org/1999/02/22-rdf-syntax-ns#">
   <cc:Work>
    <dc:type rdf:resource="http://purl.org/dc/dcmitype/StillImage"/>
    <dc:date>2022-05-04T16:38:53.798138</dc:date>
    <dc:format>image/svg+xml</dc:format>
    <dc:creator>
     <cc:Agent>
      <dc:title>Matplotlib v3.5.2, https://matplotlib.org/</dc:title>
     </cc:Agent>
    </dc:creator>
   </cc:Work>
  </rdf:RDF>
 </metadata>
 <defs>
  <style type="text/css">*{stroke-linejoin: round; stroke-linecap: butt}</style>
 </defs>
 <g id="figure_1">
  <g id="patch_1">
   <path d="M 0 310.86825 
L 408.10125 310.86825 
L 408.10125 0 
L 0 0 
z
" style="fill: #ffffff"/>
  </g>
  <g id="axes_1">
   <g id="patch_2">
    <path d="M 43.78125 273.312 
L 400.90125 273.312 
L 400.90125 7.2 
L 43.78125 7.2 
z
" style="fill: #ffffff"/>
   </g>
   <g id="patch_3">
    <path d="M 60.587516 273.312 
L 62.201439 273.312 
L 62.201439 269.606737 
L 60.587516 269.606737 
z
" clip-path="url(#p0b6fc326e8)" style="fill: #1f77b4"/>
   </g>
   <g id="patch_4">
    <path d="M 62.201439 273.312 
L 63.815363 273.312 
L 63.815363 267.383579 
L 62.201439 267.383579 
z
" clip-path="url(#p0b6fc326e8)" style="fill: #1f77b4"/>
   </g>
   <g id="patch_5">
    <path d="M 63.815363 273.312 
L 65.429286 273.312 
L 65.429286 265.160421 
L 63.815363 265.160421 
z
" clip-path="url(#p0b6fc326e8)" style="fill: #1f77b4"/>
   </g>
   <g id="patch_6">
    <path d="M 65.429286 273.312 
L 67.04321 273.312 
L 67.04321 262.196211 
L 65.429286 262.196211 
z
" clip-path="url(#p0b6fc326e8)" style="fill: #1f77b4"/>
   </g>
   <g id="patch_7">
    <path d="M 67.04321 273.312 
L 68.657134 273.312 
L 68.657134 255.526737 
L 67.04321 255.526737 
z
" clip-path="url(#p0b6fc326e8)" style="fill: #1f77b4"/>
   </g>
   <g id="patch_8">
    <path d="M 68.657134 273.312 
L 70.271057 273.312 
L 70.271057 248.116211 
L 68.657134 248.116211 
z
" clip-path="url(#p0b6fc326e8)" style="fill: #1f77b4"/>
   </g>
   <g id="patch_9">
    <path d="M 70.271057 273.312 
L 71.884981 273.312 
L 71.884981 241.446737 
L 70.271057 241.446737 
z
" clip-path="url(#p0b6fc326e8)" style="fill: #1f77b4"/>
   </g>
   <g id="patch_10">
    <path d="M 71.884981 273.312 
L 73.498904 273.312 
L 73.498904 245.152 
L 71.884981 245.152 
z
" clip-path="url(#p0b6fc326e8)" style="fill: #1f77b4"/>
   </g>
   <g id="patch_11">
    <path d="M 73.498904 273.312 
L 75.112828 273.312 
L 75.112828 251.080421 
L 73.498904 251.080421 
z
" clip-path="url(#p0b6fc326e8)" style="fill: #1f77b4"/>
   </g>
   <g id="patch_12">
    <path d="M 75.112828 273.312 
L 76.726751 273.312 
L 76.726751 245.152 
L 75.112828 245.152 
z
" clip-path="url(#p0b6fc326e8)" style="fill: #1f77b4"/>
   </g>
   <g id="patch_13">
    <path d="M 76.726751 273.312 
L 78.340675 273.312 
L 78.340675 232.554105 
L 76.726751 232.554105 
z
" clip-path="url(#p0b6fc326e8)" style="fill: #1f77b4"/>
   </g>
   <g id="patch_14">
    <path d="M 78.340675 273.312 
L 79.954598 273.312 
L 79.954598 222.920421 
L 78.340675 222.920421 
z
" clip-path="url(#p0b6fc326e8)" style="fill: #1f77b4"/>
   </g>
   <g id="patch_15">
    <path d="M 79.954598 273.312 
L 81.568522 273.312 
L 81.568522 231.813053 
L 79.954598 231.813053 
z
" clip-path="url(#p0b6fc326e8)" style="fill: #1f77b4"/>
   </g>
   <g id="patch_16">
    <path d="M 81.568522 273.312 
L 83.182446 273.312 
L 83.182446 216.992 
L 81.568522 216.992 
z
" clip-path="url(#p0b6fc326e8)" style="fill: #1f77b4"/>
   </g>
   <g id="patch_17">
    <path d="M 83.182446 273.312 
L 84.796369 273.312 
L 84.796369 216.992 
L 83.182446 216.992 
z
" clip-path="url(#p0b6fc326e8)" style="fill: #1f77b4"/>
   </g>
   <g id="patch_18">
    <path d="M 84.796369 273.312 
L 86.410293 273.312 
L 86.410293 222.179368 
L 84.796369 222.179368 
z
" clip-path="url(#p0b6fc326e8)" style="fill: #1f77b4"/>
   </g>
   <g id="patch_19">
    <path d="M 86.410293 273.312 
L 88.024216 273.312 
L 88.024216 214.027789 
L 86.410293 214.027789 
z
" clip-path="url(#p0b6fc326e8)" style="fill: #1f77b4"/>
   </g>
   <g id="patch_20">
    <path d="M 88.024216 273.312 
L 89.63814 273.312 
L 89.63814 195.501474 
L 88.024216 195.501474 
z
" clip-path="url(#p0b6fc326e8)" style="fill: #1f77b4"/>
   </g>
   <g id="patch_21">
    <path d="M 89.63814 273.312 
L 91.252063 273.312 
L 91.252063 214.027789 
L 89.63814 214.027789 
z
" clip-path="url(#p0b6fc326e8)" style="fill: #1f77b4"/>
   </g>
   <g id="patch_22">
    <path d="M 91.252063 273.312 
L 92.865987 273.312 
L 92.865987 206.617263 
L 91.252063 206.617263 
z
" clip-path="url(#p0b6fc326e8)" style="fill: #1f77b4"/>
   </g>
   <g id="patch_23">
    <path d="M 92.865987 273.312 
L 94.47991 273.312 
L 94.47991 204.394105 
L 92.865987 204.394105 
z
" clip-path="url(#p0b6fc326e8)" style="fill: #1f77b4"/>
   </g>
   <g id="patch_24">
    <path d="M 94.47991 273.312 
L 96.093834 273.312 
L 96.093834 193.278316 
L 94.47991 193.278316 
z
" clip-path="url(#p0b6fc326e8)" style="fill: #1f77b4"/>
   </g>
   <g id="patch_25">
    <path d="M 96.093834 273.312 
L 97.707758 273.312 
L 97.707758 196.983579 
L 96.093834 196.983579 
z
" clip-path="url(#p0b6fc326e8)" style="fill: #1f77b4"/>
   </g>
   <g id="patch_26">
    <path d="M 97.707758 273.312 
L 99.321681 273.312 
L 99.321681 211.063579 
L 97.707758 211.063579 
z
" clip-path="url(#p0b6fc326e8)" style="fill: #1f77b4"/>
   </g>
   <g id="patch_27">
    <path d="M 99.321681 273.312 
L 100.935605 273.312 
L 100.935605 199.206737 
L 99.321681 199.206737 
z
" clip-path="url(#p0b6fc326e8)" style="fill: #1f77b4"/>
   </g>
   <g id="patch_28">
    <path d="M 100.935605 273.312 
L 102.549528 273.312 
L 102.549528 183.644632 
L 100.935605 183.644632 
z
" clip-path="url(#p0b6fc326e8)" style="fill: #1f77b4"/>
   </g>
   <g id="patch_29">
    <path d="M 102.549528 273.312 
L 104.163452 273.312 
L 104.163452 180.680421 
L 102.549528 180.680421 
z
" clip-path="url(#p0b6fc326e8)" style="fill: #1f77b4"/>
   </g>
   <g id="patch_30">
    <path d="M 104.163452 273.312 
L 105.777375 273.312 
L 105.777375 176.234105 
L 104.163452 176.234105 
z
" clip-path="url(#p0b6fc326e8)" style="fill: #1f77b4"/>
   </g>
   <g id="patch_31">
    <path d="M 105.777375 273.312 
L 107.391299 273.312 
L 107.391299 179.939368 
L 105.777375 179.939368 
z
" clip-path="url(#p0b6fc326e8)" style="fill: #1f77b4"/>
   </g>
   <g id="patch_32">
    <path d="M 107.391299 273.312 
L 109.005222 273.312 
L 109.005222 166.600421 
L 107.391299 166.600421 
z
" clip-path="url(#p0b6fc326e8)" style="fill: #1f77b4"/>
   </g>
   <g id="patch_33">
    <path d="M 109.005222 273.312 
L 110.619146 273.312 
L 110.619146 163.636211 
L 109.005222 163.636211 
z
" clip-path="url(#p0b6fc326e8)" style="fill: #1f77b4"/>
   </g>
   <g id="patch_34">
    <path d="M 110.619146 273.312 
L 112.233069 273.312 
L 112.233069 171.046737 
L 110.619146 171.046737 
z
" clip-path="url(#p0b6fc326e8)" style="fill: #1f77b4"/>
   </g>
   <g id="patch_35">
    <path d="M 112.233069 273.312 
L 113.846993 273.312 
L 113.846993 159.930947 
L 112.233069 159.930947 
z
" clip-path="url(#p0b6fc326e8)" style="fill: #1f77b4"/>
   </g>
   <g id="patch_36">
    <path d="M 113.846993 273.312 
L 115.460917 273.312 
L 115.460917 159.189895 
L 113.846993 159.189895 
z
" clip-path="url(#p0b6fc326e8)" style="fill: #1f77b4"/>
   </g>
   <g id="patch_37">
    <path d="M 115.460917 273.312 
L 117.07484 273.312 
L 117.07484 159.189895 
L 115.460917 159.189895 
z
" clip-path="url(#p0b6fc326e8)" style="fill: #1f77b4"/>
   </g>
   <g id="patch_38">
    <path d="M 117.07484 273.312 
L 118.688764 273.312 
L 118.688764 165.118316 
L 117.07484 165.118316 
z
" clip-path="url(#p0b6fc326e8)" style="fill: #1f77b4"/>
   </g>
   <g id="patch_39">
    <path d="M 118.688764 273.312 
L 120.302687 273.312 
L 120.302687 159.189895 
L 118.688764 159.189895 
z
" clip-path="url(#p0b6fc326e8)" style="fill: #1f77b4"/>
   </g>
   <g id="patch_40">
    <path d="M 120.302687 273.312 
L 121.916611 273.312 
L 121.916611 159.930947 
L 120.302687 159.930947 
z
" clip-path="url(#p0b6fc326e8)" style="fill: #1f77b4"/>
   </g>
   <g id="patch_41">
    <path d="M 121.916611 273.312 
L 123.530534 273.312 
L 123.530534 128.065684 
L 121.916611 128.065684 
z
" clip-path="url(#p0b6fc326e8)" style="fill: #1f77b4"/>
   </g>
   <g id="patch_42">
    <path d="M 123.530534 273.312 
L 125.144458 273.312 
L 125.144458 141.404632 
L 123.530534 141.404632 
z
" clip-path="url(#p0b6fc326e8)" style="fill: #1f77b4"/>
   </g>
   <g id="patch_43">
    <path d="M 125.144458 273.312 
L 126.758381 273.312 
L 126.758381 139.922526 
L 125.144458 139.922526 
z
" clip-path="url(#p0b6fc326e8)" style="fill: #1f77b4"/>
   </g>
   <g id="patch_44">
    <path d="M 126.758381 273.312 
L 128.372305 273.312 
L 128.372305 142.886737 
L 126.758381 142.886737 
z
" clip-path="url(#p0b6fc326e8)" style="fill: #1f77b4"/>
   </g>
   <g id="patch_45">
    <path d="M 128.372305 273.312 
L 129.986229 273.312 
L 129.986229 131.770947 
L 128.372305 131.770947 
z
" clip-path="url(#p0b6fc326e8)" style="fill: #1f77b4"/>
   </g>
   <g id="patch_46">
    <path d="M 129.986229 273.312 
L 131.600152 273.312 
L 131.600152 116.949895 
L 129.986229 116.949895 
z
" clip-path="url(#p0b6fc326e8)" style="fill: #1f77b4"/>
   </g>
   <g id="patch_47">
    <path d="M 131.600152 273.312 
L 133.214076 273.312 
L 133.214076 122.137263 
L 131.600152 122.137263 
z
" clip-path="url(#p0b6fc326e8)" style="fill: #1f77b4"/>
   </g>
   <g id="patch_48">
    <path d="M 133.214076 273.312 
L 134.827999 273.312 
L 134.827999 114.726737 
L 133.214076 114.726737 
z
" clip-path="url(#p0b6fc326e8)" style="fill: #1f77b4"/>
   </g>
   <g id="patch_49">
    <path d="M 134.827999 273.312 
L 136.441923 273.312 
L 136.441923 111.762526 
L 134.827999 111.762526 
z
" clip-path="url(#p0b6fc326e8)" style="fill: #1f77b4"/>
   </g>
   <g id="patch_50">
    <path d="M 136.441923 273.312 
L 138.055846 273.312 
L 138.055846 114.726737 
L 136.441923 114.726737 
z
" clip-path="url(#p0b6fc326e8)" style="fill: #1f77b4"/>
   </g>
   <g id="patch_51">
    <path d="M 138.055846 273.312 
L 139.66977 273.312 
L 139.66977 128.065684 
L 138.055846 128.065684 
z
" clip-path="url(#p0b6fc326e8)" style="fill: #1f77b4"/>
   </g>
   <g id="patch_52">
    <path d="M 139.66977 273.312 
L 141.283693 273.312 
L 141.283693 123.619368 
L 139.66977 123.619368 
z
" clip-path="url(#p0b6fc326e8)" style="fill: #1f77b4"/>
   </g>
   <g id="patch_53">
    <path d="M 141.283693 273.312 
L 142.897617 273.312 
L 142.897617 107.316211 
L 141.283693 107.316211 
z
" clip-path="url(#p0b6fc326e8)" style="fill: #1f77b4"/>
   </g>
   <g id="patch_54">
    <path d="M 142.897617 273.312 
L 144.511541 273.312 
L 144.511541 106.575158 
L 142.897617 106.575158 
z
" clip-path="url(#p0b6fc326e8)" style="fill: #1f77b4"/>
   </g>
   <g id="patch_55">
    <path d="M 144.511541 273.312 
L 146.125464 273.312 
L 146.125464 99.164632 
L 144.511541 99.164632 
z
" clip-path="url(#p0b6fc326e8)" style="fill: #1f77b4"/>
   </g>
   <g id="patch_56">
    <path d="M 146.125464 273.312 
L 147.739388 273.312 
L 147.739388 115.467789 
L 146.125464 115.467789 
z
" clip-path="url(#p0b6fc326e8)" style="fill: #1f77b4"/>
   </g>
   <g id="patch_57">
    <path d="M 147.739388 273.312 
L 149.353311 273.312 
L 149.353311 102.128842 
L 147.739388 102.128842 
z
" clip-path="url(#p0b6fc326e8)" style="fill: #1f77b4"/>
   </g>
   <g id="patch_58">
    <path d="M 149.353311 273.312 
L 150.967235 273.312 
L 150.967235 111.762526 
L 149.353311 111.762526 
z
" clip-path="url(#p0b6fc326e8)" style="fill: #1f77b4"/>
   </g>
   <g id="patch_59">
    <path d="M 150.967235 273.312 
L 152.581158 273.312 
L 152.581158 113.985684 
L 150.967235 113.985684 
z
" clip-path="url(#p0b6fc326e8)" style="fill: #1f77b4"/>
   </g>
   <g id="patch_60">
    <path d="M 152.581158 273.312 
L 154.195082 273.312 
L 154.195082 85.084632 
L 152.581158 85.084632 
z
" clip-path="url(#p0b6fc326e8)" style="fill: #1f77b4"/>
   </g>
   <g id="patch_61">
    <path d="M 154.195082 273.312 
L 155.809005 273.312 
L 155.809005 88.789895 
L 154.195082 88.789895 
z
" clip-path="url(#p0b6fc326e8)" style="fill: #1f77b4"/>
   </g>
   <g id="patch_62">
    <path d="M 155.809005 273.312 
L 157.422929 273.312 
L 157.422929 102.869895 
L 155.809005 102.869895 
z
" clip-path="url(#p0b6fc326e8)" style="fill: #1f77b4"/>
   </g>
   <g id="patch_63">
    <path d="M 157.422929 273.312 
L 159.036853 273.312 
L 159.036853 73.968842 
L 157.422929 73.968842 
z
" clip-path="url(#p0b6fc326e8)" style="fill: #1f77b4"/>
   </g>
   <g id="patch_64">
    <path d="M 159.036853 273.312 
L 160.650776 273.312 
L 160.650776 82.861474 
L 159.036853 82.861474 
z
" clip-path="url(#p0b6fc326e8)" style="fill: #1f77b4"/>
   </g>
   <g id="patch_65">
    <path d="M 160.650776 273.312 
L 162.2647 273.312 
L 162.2647 73.227789 
L 160.650776 73.227789 
z
" clip-path="url(#p0b6fc326e8)" style="fill: #1f77b4"/>
   </g>
   <g id="patch_66">
    <path d="M 162.2647 273.312 
L 163.878623 273.312 
L 163.878623 71.004632 
L 162.2647 71.004632 
z
" clip-path="url(#p0b6fc326e8)" style="fill: #1f77b4"/>
   </g>
   <g id="patch_67">
    <path d="M 163.878623 273.312 
L 165.492547 273.312 
L 165.492547 71.004632 
L 163.878623 71.004632 
z
" clip-path="url(#p0b6fc326e8)" style="fill: #1f77b4"/>
   </g>
   <g id="patch_68">
    <path d="M 165.492547 273.312 
L 167.10647 273.312 
L 167.10647 76.192 
L 165.492547 76.192 
z
" clip-path="url(#p0b6fc326e8)" style="fill: #1f77b4"/>
   </g>
   <g id="patch_69">
    <path d="M 167.10647 273.312 
L 168.720394 273.312 
L 168.720394 67.299368 
L 167.10647 67.299368 
z
" clip-path="url(#p0b6fc326e8)" style="fill: #1f77b4"/>
   </g>
   <g id="patch_70">
    <path d="M 168.720394 273.312 
L 170.334317 273.312 
L 170.334317 68.781474 
L 168.720394 68.781474 
z
" clip-path="url(#p0b6fc326e8)" style="fill: #1f77b4"/>
   </g>
   <g id="patch_71">
    <path d="M 170.334317 273.312 
L 171.948241 273.312 
L 171.948241 66.558316 
L 170.334317 66.558316 
z
" clip-path="url(#p0b6fc326e8)" style="fill: #1f77b4"/>
   </g>
   <g id="patch_72">
    <path d="M 171.948241 273.312 
L 173.562164 273.312 
L 173.562164 60.629895 
L 171.948241 60.629895 
z
" clip-path="url(#p0b6fc326e8)" style="fill: #1f77b4"/>
   </g>
   <g id="patch_73">
    <path d="M 173.562164 273.312 
L 175.176088 273.312 
L 175.176088 71.004632 
L 173.562164 71.004632 
z
" clip-path="url(#p0b6fc326e8)" style="fill: #1f77b4"/>
   </g>
   <g id="patch_74">
    <path d="M 175.176088 273.312 
L 176.790012 273.312 
L 176.790012 86.566737 
L 175.176088 86.566737 
z
" clip-path="url(#p0b6fc326e8)" style="fill: #1f77b4"/>
   </g>
   <g id="patch_75">
    <path d="M 176.790012 273.312 
L 178.403935 273.312 
L 178.403935 62.853053 
L 176.790012 62.853053 
z
" clip-path="url(#p0b6fc326e8)" style="fill: #1f77b4"/>
   </g>
   <g id="patch_76">
    <path d="M 178.403935 273.312 
L 180.017859 273.312 
L 180.017859 57.665684 
L 178.403935 57.665684 
z
" clip-path="url(#p0b6fc326e8)" style="fill: #1f77b4"/>
   </g>
   <g id="patch_77">
    <path d="M 180.017859 273.312 
L 181.631782 273.312 
L 181.631782 76.192 
L 180.017859 76.192 
z
" clip-path="url(#p0b6fc326e8)" style="fill: #1f77b4"/>
   </g>
   <g id="patch_78">
    <path d="M 181.631782 273.312 
L 183.245706 273.312 
L 183.245706 63.594105 
L 181.631782 63.594105 
z
" clip-path="url(#p0b6fc326e8)" style="fill: #1f77b4"/>
   </g>
   <g id="patch_79">
    <path d="M 183.245706 273.312 
L 184.859629 273.312 
L 184.859629 76.192 
L 183.245706 76.192 
z
" clip-path="url(#p0b6fc326e8)" style="fill: #1f77b4"/>
   </g>
   <g id="patch_80">
    <path d="M 184.859629 273.312 
L 186.473553 273.312 
L 186.473553 39.880421 
L 184.859629 39.880421 
z
" clip-path="url(#p0b6fc326e8)" style="fill: #1f77b4"/>
   </g>
   <g id="patch_81">
    <path d="M 186.473553 273.312 
L 188.087476 273.312 
L 188.087476 66.558316 
L 186.473553 66.558316 
z
" clip-path="url(#p0b6fc326e8)" style="fill: #1f77b4"/>
   </g>
   <g id="patch_82">
    <path d="M 188.087476 273.312 
L 189.7014 273.312 
L 189.7014 38.398316 
L 188.087476 38.398316 
z
" clip-path="url(#p0b6fc326e8)" style="fill: #1f77b4"/>
   </g>
   <g id="patch_83">
    <path d="M 189.7014 273.312 
L 191.315324 273.312 
L 191.315324 69.522526 
L 189.7014 69.522526 
z
" clip-path="url(#p0b6fc326e8)" style="fill: #1f77b4"/>
   </g>
   <g id="patch_84">
    <path d="M 191.315324 273.312 
L 192.929247 273.312 
L 192.929247 47.290947 
L 191.315324 47.290947 
z
" clip-path="url(#p0b6fc326e8)" style="fill: #1f77b4"/>
   </g>
   <g id="patch_85">
    <path d="M 192.929247 273.312 
L 194.543171 273.312 
L 194.543171 59.888842 
L 192.929247 59.888842 
z
" clip-path="url(#p0b6fc326e8)" style="fill: #1f77b4"/>
   </g>
   <g id="patch_86">
    <path d="M 194.543171 273.312 
L 196.157094 273.312 
L 196.157094 53.960421 
L 194.543171 53.960421 
z
" clip-path="url(#p0b6fc326e8)" style="fill: #1f77b4"/>
   </g>
   <g id="patch_87">
    <path d="M 196.157094 273.312 
L 197.771018 273.312 
L 197.771018 47.290947 
L 196.157094 47.290947 
z
" clip-path="url(#p0b6fc326e8)" style="fill: #1f77b4"/>
   </g>
   <g id="patch_88">
    <path d="M 197.771018 273.312 
L 199.384941 273.312 
L 199.384941 59.147789 
L 197.771018 59.147789 
z
" clip-path="url(#p0b6fc326e8)" style="fill: #1f77b4"/>
   </g>
   <g id="patch_89">
    <path d="M 199.384941 273.312 
L 200.998865 273.312 
L 200.998865 50.255158 
L 199.384941 50.255158 
z
" clip-path="url(#p0b6fc326e8)" style="fill: #1f77b4"/>
   </g>
   <g id="patch_90">
    <path d="M 200.998865 273.312 
L 202.612788 273.312 
L 202.612788 30.246737 
L 200.998865 30.246737 
z
" clip-path="url(#p0b6fc326e8)" style="fill: #1f77b4"/>
   </g>
   <g id="patch_91">
    <path d="M 202.612788 273.312 
L 204.226712 273.312 
L 204.226712 36.175158 
L 202.612788 36.175158 
z
" clip-path="url(#p0b6fc326e8)" style="fill: #1f77b4"/>
   </g>
   <g id="patch_92">
    <path d="M 204.226712 273.312 
L 205.840636 273.312 
L 205.840636 41.362526 
L 204.226712 41.362526 
z
" clip-path="url(#p0b6fc326e8)" style="fill: #1f77b4"/>
   </g>
   <g id="patch_93">
    <path d="M 205.840636 273.312 
L 207.454559 273.312 
L 207.454559 32.469895 
L 205.840636 32.469895 
z
" clip-path="url(#p0b6fc326e8)" style="fill: #1f77b4"/>
   </g>
   <g id="patch_94">
    <path d="M 207.454559 273.312 
L 209.068483 273.312 
L 209.068483 53.960421 
L 207.454559 53.960421 
z
" clip-path="url(#p0b6fc326e8)" style="fill: #1f77b4"/>
   </g>
   <g id="patch_95">
    <path d="M 209.068483 273.312 
L 210.682406 273.312 
L 210.682406 38.398316 
L 209.068483 38.398316 
z
" clip-path="url(#p0b6fc326e8)" style="fill: #1f77b4"/>
   </g>
   <g id="patch_96">
    <path d="M 210.682406 273.312 
L 212.29633 273.312 
L 212.29633 34.693053 
L 210.682406 34.693053 
z
" clip-path="url(#p0b6fc326e8)" style="fill: #1f77b4"/>
   </g>
   <g id="patch_97">
    <path d="M 212.29633 273.312 
L 213.910253 273.312 
L 213.910253 33.210947 
L 212.29633 33.210947 
z
" clip-path="url(#p0b6fc326e8)" style="fill: #1f77b4"/>
   </g>
   <g id="patch_98">
    <path d="M 213.910253 273.312 
L 215.524177 273.312 
L 215.524177 38.398316 
L 213.910253 38.398316 
z
" clip-path="url(#p0b6fc326e8)" style="fill: #1f77b4"/>
   </g>
   <g id="patch_99">
    <path d="M 215.524177 273.312 
L 217.1381 273.312 
L 217.1381 42.844632 
L 215.524177 42.844632 
z
" clip-path="url(#p0b6fc326e8)" style="fill: #1f77b4"/>
   </g>
   <g id="patch_100">
    <path d="M 217.1381 273.312 
L 218.752024 273.312 
L 218.752024 30.987789 
L 217.1381 30.987789 
z
" clip-path="url(#p0b6fc326e8)" style="fill: #1f77b4"/>
   </g>
   <g id="patch_101">
    <path d="M 218.752024 273.312 
L 220.365947 273.312 
L 220.365947 53.960421 
L 218.752024 53.960421 
z
" clip-path="url(#p0b6fc326e8)" style="fill: #1f77b4"/>
   </g>
   <g id="patch_102">
    <path d="M 220.365947 273.312 
L 221.979871 273.312 
L 221.979871 22.836211 
L 220.365947 22.836211 
z
" clip-path="url(#p0b6fc326e8)" style="fill: #1f77b4"/>
   </g>
   <g id="patch_103">
    <path d="M 221.979871 273.312 
L 223.593795 273.312 
L 223.593795 39.880421 
L 221.979871 39.880421 
z
" clip-path="url(#p0b6fc326e8)" style="fill: #1f77b4"/>
   </g>
   <g id="patch_104">
    <path d="M 223.593795 273.312 
L 225.207718 273.312 
L 225.207718 44.326737 
L 223.593795 44.326737 
z
" clip-path="url(#p0b6fc326e8)" style="fill: #1f77b4"/>
   </g>
   <g id="patch_105">
    <path d="M 225.207718 273.312 
L 226.821642 273.312 
L 226.821642 29.505684 
L 225.207718 29.505684 
z
" clip-path="url(#p0b6fc326e8)" style="fill: #1f77b4"/>
   </g>
   <g id="patch_106">
    <path d="M 226.821642 273.312 
L 228.435565 273.312 
L 228.435565 33.210947 
L 226.821642 33.210947 
z
" clip-path="url(#p0b6fc326e8)" style="fill: #1f77b4"/>
   </g>
   <g id="patch_107">
    <path d="M 228.435565 273.312 
L 230.049489 273.312 
L 230.049489 47.290947 
L 228.435565 47.290947 
z
" clip-path="url(#p0b6fc326e8)" style="fill: #1f77b4"/>
   </g>
   <g id="patch_108">
    <path d="M 230.049489 273.312 
L 231.663412 273.312 
L 231.663412 40.621474 
L 230.049489 40.621474 
z
" clip-path="url(#p0b6fc326e8)" style="fill: #1f77b4"/>
   </g>
   <g id="patch_109">
    <path d="M 231.663412 273.312 
L 233.277336 273.312 
L 233.277336 60.629895 
L 231.663412 60.629895 
z
" clip-path="url(#p0b6fc326e8)" style="fill: #1f77b4"/>
   </g>
   <g id="patch_110">
    <path d="M 233.277336 273.312 
L 234.891259 273.312 
L 234.891259 19.872 
L 233.277336 19.872 
z
" clip-path="url(#p0b6fc326e8)" style="fill: #1f77b4"/>
   </g>
   <g id="patch_111">
    <path d="M 234.891259 273.312 
L 236.505183 273.312 
L 236.505183 49.514105 
L 234.891259 49.514105 
z
" clip-path="url(#p0b6fc326e8)" style="fill: #1f77b4"/>
   </g>
   <g id="patch_112">
    <path d="M 236.505183 273.312 
L 238.119107 273.312 
L 238.119107 59.147789 
L 236.505183 59.147789 
z
" clip-path="url(#p0b6fc326e8)" style="fill: #1f77b4"/>
   </g>
   <g id="patch_113">
    <path d="M 238.119107 273.312 
L 239.73303 273.312 
L 239.73303 61.370947 
L 238.119107 61.370947 
z
" clip-path="url(#p0b6fc326e8)" style="fill: #1f77b4"/>
   </g>
   <g id="patch_114">
    <path d="M 239.73303 273.312 
L 241.346954 273.312 
L 241.346954 45.808842 
L 239.73303 45.808842 
z
" clip-path="url(#p0b6fc326e8)" style="fill: #1f77b4"/>
   </g>
   <g id="patch_115">
    <path d="M 241.346954 273.312 
L 242.960877 273.312 
L 242.960877 39.139368 
L 241.346954 39.139368 
z
" clip-path="url(#p0b6fc326e8)" style="fill: #1f77b4"/>
   </g>
   <g id="patch_116">
    <path d="M 242.960877 273.312 
L 244.574801 273.312 
L 244.574801 36.175158 
L 242.960877 36.175158 
z
" clip-path="url(#p0b6fc326e8)" style="fill: #1f77b4"/>
   </g>
   <g id="patch_117">
    <path d="M 244.574801 273.312 
L 246.188724 273.312 
L 246.188724 35.434105 
L 244.574801 35.434105 
z
" clip-path="url(#p0b6fc326e8)" style="fill: #1f77b4"/>
   </g>
   <g id="patch_118">
    <path d="M 246.188724 273.312 
L 247.802648 273.312 
L 247.802648 32.469895 
L 246.188724 32.469895 
z
" clip-path="url(#p0b6fc326e8)" style="fill: #1f77b4"/>
   </g>
   <g id="patch_119">
    <path d="M 247.802648 273.312 
L 249.416571 273.312 
L 249.416571 21.354105 
L 247.802648 21.354105 
z
" clip-path="url(#p0b6fc326e8)" style="fill: #1f77b4"/>
   </g>
   <g id="patch_120">
    <path d="M 249.416571 273.312 
L 251.030495 273.312 
L 251.030495 48.773053 
L 249.416571 48.773053 
z
" clip-path="url(#p0b6fc326e8)" style="fill: #1f77b4"/>
   </g>
   <g id="patch_121">
    <path d="M 251.030495 273.312 
L 252.644419 273.312 
L 252.644419 55.442526 
L 251.030495 55.442526 
z
" clip-path="url(#p0b6fc326e8)" style="fill: #1f77b4"/>
   </g>
   <g id="patch_122">
    <path d="M 252.644419 273.312 
L 254.258342 273.312 
L 254.258342 56.924632 
L 252.644419 56.924632 
z
" clip-path="url(#p0b6fc326e8)" style="fill: #1f77b4"/>
   </g>
   <g id="patch_123">
    <path d="M 254.258342 273.312 
L 255.872266 273.312 
L 255.872266 53.219368 
L 254.258342 53.219368 
z
" clip-path="url(#p0b6fc326e8)" style="fill: #1f77b4"/>
   </g>
   <g id="patch_124">
    <path d="M 255.872266 273.312 
L 257.486189 273.312 
L 257.486189 56.183579 
L 255.872266 56.183579 
z
" clip-path="url(#p0b6fc326e8)" style="fill: #1f77b4"/>
   </g>
   <g id="patch_125">
    <path d="M 257.486189 273.312 
L 259.100113 273.312 
L 259.100113 47.290947 
L 257.486189 47.290947 
z
" clip-path="url(#p0b6fc326e8)" style="fill: #1f77b4"/>
   </g>
   <g id="patch_126">
    <path d="M 259.100113 273.312 
L 260.714036 273.312 
L 260.714036 42.844632 
L 259.100113 42.844632 
z
" clip-path="url(#p0b6fc326e8)" style="fill: #1f77b4"/>
   </g>
   <g id="patch_127">
    <path d="M 260.714036 273.312 
L 262.32796 273.312 
L 262.32796 52.478316 
L 260.714036 52.478316 
z
" clip-path="url(#p0b6fc326e8)" style="fill: #1f77b4"/>
   </g>
   <g id="patch_128">
    <path d="M 262.32796 273.312 
L 263.941883 273.312 
L 263.941883 63.594105 
L 262.32796 63.594105 
z
" clip-path="url(#p0b6fc326e8)" style="fill: #1f77b4"/>
   </g>
   <g id="patch_129">
    <path d="M 263.941883 273.312 
L 265.555807 273.312 
L 265.555807 48.773053 
L 263.941883 48.773053 
z
" clip-path="url(#p0b6fc326e8)" style="fill: #1f77b4"/>
   </g>
   <g id="patch_130">
    <path d="M 265.555807 273.312 
L 267.169731 273.312 
L 267.169731 80.638316 
L 265.555807 80.638316 
z
" clip-path="url(#p0b6fc326e8)" style="fill: #1f77b4"/>
   </g>
   <g id="patch_131">
    <path d="M 267.169731 273.312 
L 268.783654 273.312 
L 268.783654 55.442526 
L 267.169731 55.442526 
z
" clip-path="url(#p0b6fc326e8)" style="fill: #1f77b4"/>
   </g>
   <g id="patch_132">
    <path d="M 268.783654 273.312 
L 270.397578 273.312 
L 270.397578 59.147789 
L 268.783654 59.147789 
z
" clip-path="url(#p0b6fc326e8)" style="fill: #1f77b4"/>
   </g>
   <g id="patch_133">
    <path d="M 270.397578 273.312 
L 272.011501 273.312 
L 272.011501 68.040421 
L 270.397578 68.040421 
z
" clip-path="url(#p0b6fc326e8)" style="fill: #1f77b4"/>
   </g>
   <g id="patch_134">
    <path d="M 272.011501 273.312 
L 273.625425 273.312 
L 273.625425 68.781474 
L 272.011501 68.781474 
z
" clip-path="url(#p0b6fc326e8)" style="fill: #1f77b4"/>
   </g>
   <g id="patch_135">
    <path d="M 273.625425 273.312 
L 275.239348 273.312 
L 275.239348 70.263579 
L 273.625425 70.263579 
z
" clip-path="url(#p0b6fc326e8)" style="fill: #1f77b4"/>
   </g>
   <g id="patch_136">
    <path d="M 275.239348 273.312 
L 276.853272 273.312 
L 276.853272 75.450947 
L 275.239348 75.450947 
z
" clip-path="url(#p0b6fc326e8)" style="fill: #1f77b4"/>
   </g>
   <g id="patch_137">
    <path d="M 276.853272 273.312 
L 278.467195 273.312 
L 278.467195 41.362526 
L 276.853272 41.362526 
z
" clip-path="url(#p0b6fc326e8)" style="fill: #1f77b4"/>
   </g>
   <g id="patch_138">
    <path d="M 278.467195 273.312 
L 280.081119 273.312 
L 280.081119 47.290947 
L 278.467195 47.290947 
z
" clip-path="url(#p0b6fc326e8)" style="fill: #1f77b4"/>
   </g>
   <g id="patch_139">
    <path d="M 280.081119 273.312 
L 281.695042 273.312 
L 281.695042 84.343579 
L 280.081119 84.343579 
z
" clip-path="url(#p0b6fc326e8)" style="fill: #1f77b4"/>
   </g>
   <g id="patch_140">
    <path d="M 281.695042 273.312 
L 283.308966 273.312 
L 283.308966 91.013053 
L 281.695042 91.013053 
z
" clip-path="url(#p0b6fc326e8)" style="fill: #1f77b4"/>
   </g>
   <g id="patch_141">
    <path d="M 283.308966 273.312 
L 284.92289 273.312 
L 284.92289 71.004632 
L 283.308966 71.004632 
z
" clip-path="url(#p0b6fc326e8)" style="fill: #1f77b4"/>
   </g>
   <g id="patch_142">
    <path d="M 284.92289 273.312 
L 286.536813 273.312 
L 286.536813 65.076211 
L 284.92289 65.076211 
z
" clip-path="url(#p0b6fc326e8)" style="fill: #1f77b4"/>
   </g>
   <g id="patch_143">
    <path d="M 286.536813 273.312 
L 288.150737 273.312 
L 288.150737 88.789895 
L 286.536813 88.789895 
z
" clip-path="url(#p0b6fc326e8)" style="fill: #1f77b4"/>
   </g>
   <g id="patch_144">
    <path d="M 288.150737 273.312 
L 289.76466 273.312 
L 289.76466 95.459368 
L 288.150737 95.459368 
z
" clip-path="url(#p0b6fc326e8)" style="fill: #1f77b4"/>
   </g>
   <g id="patch_145">
    <path d="M 289.76466 273.312 
L 291.378584 273.312 
L 291.378584 84.343579 
L 289.76466 84.343579 
z
" clip-path="url(#p0b6fc326e8)" style="fill: #1f77b4"/>
   </g>
   <g id="patch_146">
    <path d="M 291.378584 273.312 
L 292.992507 273.312 
L 292.992507 90.272 
L 291.378584 90.272 
z
" clip-path="url(#p0b6fc326e8)" style="fill: #1f77b4"/>
   </g>
   <g id="patch_147">
    <path d="M 292.992507 273.312 
L 294.606431 273.312 
L 294.606431 93.236211 
L 292.992507 93.236211 
z
" clip-path="url(#p0b6fc326e8)" style="fill: #1f77b4"/>
   </g>
   <g id="patch_148">
    <path d="M 294.606431 273.312 
L 296.220354 273.312 
L 296.220354 83.602526 
L 294.606431 83.602526 
z
" clip-path="url(#p0b6fc326e8)" style="fill: #1f77b4"/>
   </g>
   <g id="patch_149">
    <path d="M 296.220354 273.312 
L 297.834278 273.312 
L 297.834278 99.164632 
L 296.220354 99.164632 
z
" clip-path="url(#p0b6fc326e8)" style="fill: #1f77b4"/>
   </g>
   <g id="patch_150">
    <path d="M 297.834278 273.312 
L 299.448202 273.312 
L 299.448202 112.503579 
L 297.834278 112.503579 
z
" clip-path="url(#p0b6fc326e8)" style="fill: #1f77b4"/>
   </g>
   <g id="patch_151">
    <path d="M 299.448202 273.312 
L 301.062125 273.312 
L 301.062125 107.316211 
L 299.448202 107.316211 
z
" clip-path="url(#p0b6fc326e8)" style="fill: #1f77b4"/>
   </g>
   <g id="patch_152">
    <path d="M 301.062125 273.312 
L 302.676049 273.312 
L 302.676049 94.718316 
L 301.062125 94.718316 
z
" clip-path="url(#p0b6fc326e8)" style="fill: #1f77b4"/>
   </g>
   <g id="patch_153">
    <path d="M 302.676049 273.312 
L 304.289972 273.312 
L 304.289972 130.288842 
L 302.676049 130.288842 
z
" clip-path="url(#p0b6fc326e8)" style="fill: #1f77b4"/>
   </g>
   <g id="patch_154">
    <path d="M 304.289972 273.312 
L 305.903896 273.312 
L 305.903896 116.949895 
L 304.289972 116.949895 
z
" clip-path="url(#p0b6fc326e8)" style="fill: #1f77b4"/>
   </g>
   <g id="patch_155">
    <path d="M 305.903896 273.312 
L 307.517819 273.312 
L 307.517819 108.798316 
L 305.903896 108.798316 
z
" clip-path="url(#p0b6fc326e8)" style="fill: #1f77b4"/>
   </g>
   <g id="patch_156">
    <path d="M 307.517819 273.312 
L 309.131743 273.312 
L 309.131743 131.770947 
L 307.517819 131.770947 
z
" clip-path="url(#p0b6fc326e8)" style="fill: #1f77b4"/>
   </g>
   <g id="patch_157">
    <path d="M 309.131743 273.312 
L 310.745666 273.312 
L 310.745666 105.093053 
L 309.131743 105.093053 
z
" clip-path="url(#p0b6fc326e8)" style="fill: #1f77b4"/>
   </g>
   <g id="patch_158">
    <path d="M 310.745666 273.312 
L 312.35959 273.312 
L 312.35959 117.690947 
L 310.745666 117.690947 
z
" clip-path="url(#p0b6fc326e8)" style="fill: #1f77b4"/>
   </g>
   <g id="patch_159">
    <path d="M 312.35959 273.312 
L 313.973514 273.312 
L 313.973514 130.288842 
L 312.35959 130.288842 
z
" clip-path="url(#p0b6fc326e8)" style="fill: #1f77b4"/>
   </g>
   <g id="patch_160">
    <path d="M 313.973514 273.312 
L 315.587437 273.312 
L 315.587437 133.994105 
L 313.973514 133.994105 
z
" clip-path="url(#p0b6fc326e8)" style="fill: #1f77b4"/>
   </g>
   <g id="patch_161">
    <path d="M 315.587437 273.312 
L 317.201361 273.312 
L 317.201361 139.181474 
L 315.587437 139.181474 
z
" clip-path="url(#p0b6fc326e8)" style="fill: #1f77b4"/>
   </g>
   <g id="patch_162">
    <path d="M 317.201361 273.312 
L 318.815284 273.312 
L 318.815284 142.886737 
L 317.201361 142.886737 
z
" clip-path="url(#p0b6fc326e8)" style="fill: #1f77b4"/>
   </g>
   <g id="patch_163">
    <path d="M 318.815284 273.312 
L 320.429208 273.312 
L 320.429208 140.663579 
L 318.815284 140.663579 
z
" clip-path="url(#p0b6fc326e8)" style="fill: #1f77b4"/>
   </g>
   <g id="patch_164">
    <path d="M 320.429208 273.312 
L 322.043131 273.312 
L 322.043131 143.627789 
L 320.429208 143.627789 
z
" clip-path="url(#p0b6fc326e8)" style="fill: #1f77b4"/>
   </g>
   <g id="patch_165">
    <path d="M 322.043131 273.312 
L 323.657055 273.312 
L 323.657055 138.440421 
L 322.043131 138.440421 
z
" clip-path="url(#p0b6fc326e8)" style="fill: #1f77b4"/>
   </g>
   <g id="patch_166">
    <path d="M 323.657055 273.312 
L 325.270978 273.312 
L 325.270978 145.850947 
L 323.657055 145.850947 
z
" clip-path="url(#p0b6fc326e8)" style="fill: #1f77b4"/>
   </g>
   <g id="patch_167">
    <path d="M 325.270978 273.312 
L 326.884902 273.312 
L 326.884902 153.261474 
L 325.270978 153.261474 
z
" clip-path="url(#p0b6fc326e8)" style="fill: #1f77b4"/>
   </g>
   <g id="patch_168">
    <path d="M 326.884902 273.312 
L 328.498825 273.312 
L 328.498825 156.225684 
L 326.884902 156.225684 
z
" clip-path="url(#p0b6fc326e8)" style="fill: #1f77b4"/>
   </g>
   <g id="patch_169">
    <path d="M 328.498825 273.312 
L 330.112749 273.312 
L 330.112749 151.779368 
L 328.498825 151.779368 
z
" clip-path="url(#p0b6fc326e8)" style="fill: #1f77b4"/>
   </g>
   <g id="patch_170">
    <path d="M 330.112749 273.312 
L 331.726673 273.312 
L 331.726673 142.886737 
L 330.112749 142.886737 
z
" clip-path="url(#p0b6fc326e8)" style="fill: #1f77b4"/>
   </g>
   <g id="patch_171">
    <path d="M 331.726673 273.312 
L 333.340596 273.312 
L 333.340596 169.564632 
L 331.726673 169.564632 
z
" clip-path="url(#p0b6fc326e8)" style="fill: #1f77b4"/>
   </g>
   <g id="patch_172">
    <path d="M 333.340596 273.312 
L 334.95452 273.312 
L 334.95452 168.082526 
L 333.340596 168.082526 
z
" clip-path="url(#p0b6fc326e8)" style="fill: #1f77b4"/>
   </g>
   <g id="patch_173">
    <path d="M 334.95452 273.312 
L 336.568443 273.312 
L 336.568443 168.823579 
L 334.95452 168.823579 
z
" clip-path="url(#p0b6fc326e8)" style="fill: #1f77b4"/>
   </g>
   <g id="patch_174">
    <path d="M 336.568443 273.312 
L 338.182367 273.312 
L 338.182367 175.493053 
L 336.568443 175.493053 
z
" clip-path="url(#p0b6fc326e8)" style="fill: #1f77b4"/>
   </g>
   <g id="patch_175">
    <path d="M 338.182367 273.312 
L 339.79629 273.312 
L 339.79629 191.055158 
L 338.182367 191.055158 
z
" clip-path="url(#p0b6fc326e8)" style="fill: #1f77b4"/>
   </g>
   <g id="patch_176">
    <path d="M 339.79629 273.312 
L 341.410214 273.312 
L 341.410214 179.198316 
L 339.79629 179.198316 
z
" clip-path="url(#p0b6fc326e8)" style="fill: #1f77b4"/>
   </g>
   <g id="patch_177">
    <path d="M 341.410214 273.312 
L 343.024137 273.312 
L 343.024137 179.939368 
L 341.410214 179.939368 
z
" clip-path="url(#p0b6fc326e8)" style="fill: #1f77b4"/>
   </g>
   <g id="patch_178">
    <path d="M 343.024137 273.312 
L 344.638061 273.312 
L 344.638061 174.752 
L 343.024137 174.752 
z
" clip-path="url(#p0b6fc326e8)" style="fill: #1f77b4"/>
   </g>
   <g id="patch_179">
    <path d="M 344.638061 273.312 
L 346.251985 273.312 
L 346.251985 193.278316 
L 344.638061 193.278316 
z
" clip-path="url(#p0b6fc326e8)" style="fill: #1f77b4"/>
   </g>
   <g id="patch_180">
    <path d="M 346.251985 273.312 
L 347.865908 273.312 
L 347.865908 192.537263 
L 346.251985 192.537263 
z
" clip-path="url(#p0b6fc326e8)" style="fill: #1f77b4"/>
   </g>
   <g id="patch_181">
    <path d="M 347.865908 273.312 
L 349.479832 273.312 
L 349.479832 187.349895 
L 347.865908 187.349895 
z
" clip-path="url(#p0b6fc326e8)" style="fill: #1f77b4"/>
   </g>
   <g id="patch_182">
    <path d="M 349.479832 273.312 
L 351.093755 273.312 
L 351.093755 200.688842 
L 349.479832 200.688842 
z
" clip-path="url(#p0b6fc326e8)" style="fill: #1f77b4"/>
   </g>
   <g id="patch_183">
    <path d="M 351.093755 273.312 
L 352.707679 273.312 
L 352.707679 203.653053 
L 351.093755 203.653053 
z
" clip-path="url(#p0b6fc326e8)" style="fill: #1f77b4"/>
   </g>
   <g id="patch_184">
    <path d="M 352.707679 273.312 
L 354.321602 273.312 
L 354.321602 201.429895 
L 352.707679 201.429895 
z
" clip-path="url(#p0b6fc326e8)" style="fill: #1f77b4"/>
   </g>
   <g id="patch_185">
    <path d="M 354.321602 273.312 
L 355.935526 273.312 
L 355.935526 199.947789 
L 354.321602 199.947789 
z
" clip-path="url(#p0b6fc326e8)" style="fill: #1f77b4"/>
   </g>
   <g id="patch_186">
    <path d="M 355.935526 273.312 
L 357.549449 273.312 
L 357.549449 216.992 
L 355.935526 216.992 
z
" clip-path="url(#p0b6fc326e8)" style="fill: #1f77b4"/>
   </g>
   <g id="patch_187">
    <path d="M 357.549449 273.312 
L 359.163373 273.312 
L 359.163373 211.063579 
L 357.549449 211.063579 
z
" clip-path="url(#p0b6fc326e8)" style="fill: #1f77b4"/>
   </g>
   <g id="patch_188">
    <path d="M 359.163373 273.312 
L 360.777297 273.312 
L 360.777297 213.286737 
L 359.163373 213.286737 
z
" clip-path="url(#p0b6fc326e8)" style="fill: #1f77b4"/>
   </g>
   <g id="patch_189">
    <path d="M 360.777297 273.312 
L 362.39122 273.312 
L 362.39122 219.956211 
L 360.777297 219.956211 
z
" clip-path="url(#p0b6fc326e8)" style="fill: #1f77b4"/>
   </g>
   <g id="patch_190">
    <path d="M 362.39122 273.312 
L 364.005144 273.312 
L 364.005144 221.438316 
L 362.39122 221.438316 
z
" clip-path="url(#p0b6fc326e8)" style="fill: #1f77b4"/>
   </g>
   <g id="patch_191">
    <path d="M 364.005144 273.312 
L 365.619067 273.312 
L 365.619067 228.107789 
L 364.005144 228.107789 
z
" clip-path="url(#p0b6fc326e8)" style="fill: #1f77b4"/>
   </g>
   <g id="patch_192">
    <path d="M 365.619067 273.312 
L 367.232991 273.312 
L 367.232991 237.000421 
L 365.619067 237.000421 
z
" clip-path="url(#p0b6fc326e8)" style="fill: #1f77b4"/>
   </g>
   <g id="patch_193">
    <path d="M 367.232991 273.312 
L 368.846914 273.312 
L 368.846914 231.072 
L 367.232991 231.072 
z
" clip-path="url(#p0b6fc326e8)" style="fill: #1f77b4"/>
   </g>
   <g id="patch_194">
    <path d="M 368.846914 273.312 
L 370.460838 273.312 
L 370.460838 235.518316 
L 368.846914 235.518316 
z
" clip-path="url(#p0b6fc326e8)" style="fill: #1f77b4"/>
   </g>
   <g id="patch_195">
    <path d="M 370.460838 273.312 
L 372.074761 273.312 
L 372.074761 250.339368 
L 370.460838 250.339368 
z
" clip-path="url(#p0b6fc326e8)" style="fill: #1f77b4"/>
   </g>
   <g id="patch_196">
    <path d="M 372.074761 273.312 
L 373.688685 273.312 
L 373.688685 244.410947 
L 372.074761 244.410947 
z
" clip-path="url(#p0b6fc326e8)" style="fill: #1f77b4"/>
   </g>
   <g id="patch_197">
    <path d="M 373.688685 273.312 
L 375.302609 273.312 
L 375.302609 251.080421 
L 373.688685 251.080421 
z
" clip-path="url(#p0b6fc326e8)" style="fill: #1f77b4"/>
   </g>
   <g id="patch_198">
    <path d="M 375.302609 273.312 
L 376.916532 273.312 
L 376.916532 257.008842 
L 375.302609 257.008842 
z
" clip-path="url(#p0b6fc326e8)" style="fill: #1f77b4"/>
   </g>
   <g id="patch_199">
    <path d="M 376.916532 273.312 
L 378.530456 273.312 
L 378.530456 256.267789 
L 376.916532 256.267789 
z
" clip-path="url(#p0b6fc326e8)" style="fill: #1f77b4"/>
   </g>
   <g id="patch_200">
    <path d="M 378.530456 273.312 
L 380.144379 273.312 
L 380.144379 258.490947 
L 378.530456 258.490947 
z
" clip-path="url(#p0b6fc326e8)" style="fill: #1f77b4"/>
   </g>
   <g id="patch_201">
    <path d="M 380.144379 273.312 
L 381.758303 273.312 
L 381.758303 267.383579 
L 380.144379 267.383579 
z
" clip-path="url(#p0b6fc326e8)" style="fill: #1f77b4"/>
   </g>
   <g id="patch_202">
    <path d="M 381.758303 273.312 
L 383.372226 273.312 
L 383.372226 266.642526 
L 381.758303 266.642526 
z
" clip-path="url(#p0b6fc326e8)" style="fill: #1f77b4"/>
   </g>
   <g id="matplotlib.axis_1">
    <g id="xtick_1">
     <g id="line2d_1">
      <defs>
       <path id="mfd6582b40f" d="M 0 0 
L 0 3.5 
" style="stroke: #000000; stroke-width: 0.8"/>
      </defs>
      <g>
       <use xlink:href="#mfd6582b40f" x="60.013977" y="273.312" style="stroke: #000000; stroke-width: 0.8"/>
      </g>
     </g>
     <g id="text_1">
      <!-- 0.0 -->
      <g transform="translate(52.062415 287.910437)scale(0.1 -0.1)">
       <defs>
        <path id="DejaVuSans-30" d="M 2034 4250 
Q 1547 4250 1301 3770 
Q 1056 3291 1056 2328 
Q 1056 1369 1301 889 
Q 1547 409 2034 409 
Q 2525 409 2770 889 
Q 3016 1369 3016 2328 
Q 3016 3291 2770 3770 
Q 2525 4250 2034 4250 
z
M 2034 4750 
Q 2819 4750 3233 4129 
Q 3647 3509 3647 2328 
Q 3647 1150 3233 529 
Q 2819 -91 2034 -91 
Q 1250 -91 836 529 
Q 422 1150 422 2328 
Q 422 3509 836 4129 
Q 1250 4750 2034 4750 
z
" transform="scale(0.015625)"/>
        <path id="DejaVuSans-2e" d="M 684 794 
L 1344 794 
L 1344 0 
L 684 0 
L 684 794 
z
" transform="scale(0.015625)"/>
       </defs>
       <use xlink:href="#DejaVuSans-30"/>
       <use xlink:href="#DejaVuSans-2e" x="63.623047"/>
       <use xlink:href="#DejaVuSans-30" x="95.410156"/>
      </g>
     </g>
    </g>
    <g id="xtick_2">
     <g id="line2d_2">
      <g>
       <use xlink:href="#mfd6582b40f" x="101.350278" y="273.312" style="stroke: #000000; stroke-width: 0.8"/>
      </g>
     </g>
     <g id="text_2">
      <!-- 0.2 -->
      <g transform="translate(93.398715 287.910437)scale(0.1 -0.1)">
       <defs>
        <path id="DejaVuSans-32" d="M 1228 531 
L 3431 531 
L 3431 0 
L 469 0 
L 469 531 
Q 828 903 1448 1529 
Q 2069 2156 2228 2338 
Q 2531 2678 2651 2914 
Q 2772 3150 2772 3378 
Q 2772 3750 2511 3984 
Q 2250 4219 1831 4219 
Q 1534 4219 1204 4116 
Q 875 4013 500 3803 
L 500 4441 
Q 881 4594 1212 4672 
Q 1544 4750 1819 4750 
Q 2544 4750 2975 4387 
Q 3406 4025 3406 3419 
Q 3406 3131 3298 2873 
Q 3191 2616 2906 2266 
Q 2828 2175 2409 1742 
Q 1991 1309 1228 531 
z
" transform="scale(0.015625)"/>
       </defs>
       <use xlink:href="#DejaVuSans-30"/>
       <use xlink:href="#DejaVuSans-2e" x="63.623047"/>
       <use xlink:href="#DejaVuSans-32" x="95.410156"/>
      </g>
     </g>
    </g>
    <g id="xtick_3">
     <g id="line2d_3">
      <g>
       <use xlink:href="#mfd6582b40f" x="142.686578" y="273.312" style="stroke: #000000; stroke-width: 0.8"/>
      </g>
     </g>
     <g id="text_3">
      <!-- 0.4 -->
      <g transform="translate(134.735016 287.910437)scale(0.1 -0.1)">
       <defs>
        <path id="DejaVuSans-34" d="M 2419 4116 
L 825 1625 
L 2419 1625 
L 2419 4116 
z
M 2253 4666 
L 3047 4666 
L 3047 1625 
L 3713 1625 
L 3713 1100 
L 3047 1100 
L 3047 0 
L 2419 0 
L 2419 1100 
L 313 1100 
L 313 1709 
L 2253 4666 
z
" transform="scale(0.015625)"/>
       </defs>
       <use xlink:href="#DejaVuSans-30"/>
       <use xlink:href="#DejaVuSans-2e" x="63.623047"/>
       <use xlink:href="#DejaVuSans-34" x="95.410156"/>
      </g>
     </g>
    </g>
    <g id="xtick_4">
     <g id="line2d_4">
      <g>
       <use xlink:href="#mfd6582b40f" x="184.022879" y="273.312" style="stroke: #000000; stroke-width: 0.8"/>
      </g>
     </g>
     <g id="text_4">
      <!-- 0.6 -->
      <g transform="translate(176.071316 287.910437)scale(0.1 -0.1)">
       <defs>
        <path id="DejaVuSans-36" d="M 2113 2584 
Q 1688 2584 1439 2293 
Q 1191 2003 1191 1497 
Q 1191 994 1439 701 
Q 1688 409 2113 409 
Q 2538 409 2786 701 
Q 3034 994 3034 1497 
Q 3034 2003 2786 2293 
Q 2538 2584 2113 2584 
z
M 3366 4563 
L 3366 3988 
Q 3128 4100 2886 4159 
Q 2644 4219 2406 4219 
Q 1781 4219 1451 3797 
Q 1122 3375 1075 2522 
Q 1259 2794 1537 2939 
Q 1816 3084 2150 3084 
Q 2853 3084 3261 2657 
Q 3669 2231 3669 1497 
Q 3669 778 3244 343 
Q 2819 -91 2113 -91 
Q 1303 -91 875 529 
Q 447 1150 447 2328 
Q 447 3434 972 4092 
Q 1497 4750 2381 4750 
Q 2619 4750 2861 4703 
Q 3103 4656 3366 4563 
z
" transform="scale(0.015625)"/>
       </defs>
       <use xlink:href="#DejaVuSans-30"/>
       <use xlink:href="#DejaVuSans-2e" x="63.623047"/>
       <use xlink:href="#DejaVuSans-36" x="95.410156"/>
      </g>
     </g>
    </g>
    <g id="xtick_5">
     <g id="line2d_5">
      <g>
       <use xlink:href="#mfd6582b40f" x="225.35918" y="273.312" style="stroke: #000000; stroke-width: 0.8"/>
      </g>
     </g>
     <g id="text_5">
      <!-- 0.8 -->
      <g transform="translate(217.407617 287.910437)scale(0.1 -0.1)">
       <defs>
        <path id="DejaVuSans-38" d="M 2034 2216 
Q 1584 2216 1326 1975 
Q 1069 1734 1069 1313 
Q 1069 891 1326 650 
Q 1584 409 2034 409 
Q 2484 409 2743 651 
Q 3003 894 3003 1313 
Q 3003 1734 2745 1975 
Q 2488 2216 2034 2216 
z
M 1403 2484 
Q 997 2584 770 2862 
Q 544 3141 544 3541 
Q 544 4100 942 4425 
Q 1341 4750 2034 4750 
Q 2731 4750 3128 4425 
Q 3525 4100 3525 3541 
Q 3525 3141 3298 2862 
Q 3072 2584 2669 2484 
Q 3125 2378 3379 2068 
Q 3634 1759 3634 1313 
Q 3634 634 3220 271 
Q 2806 -91 2034 -91 
Q 1263 -91 848 271 
Q 434 634 434 1313 
Q 434 1759 690 2068 
Q 947 2378 1403 2484 
z
M 1172 3481 
Q 1172 3119 1398 2916 
Q 1625 2713 2034 2713 
Q 2441 2713 2670 2916 
Q 2900 3119 2900 3481 
Q 2900 3844 2670 4047 
Q 2441 4250 2034 4250 
Q 1625 4250 1398 4047 
Q 1172 3844 1172 3481 
z
" transform="scale(0.015625)"/>
       </defs>
       <use xlink:href="#DejaVuSans-30"/>
       <use xlink:href="#DejaVuSans-2e" x="63.623047"/>
       <use xlink:href="#DejaVuSans-38" x="95.410156"/>
      </g>
     </g>
    </g>
    <g id="xtick_6">
     <g id="line2d_6">
      <g>
       <use xlink:href="#mfd6582b40f" x="266.69548" y="273.312" style="stroke: #000000; stroke-width: 0.8"/>
      </g>
     </g>
     <g id="text_6">
      <!-- 1.0 -->
      <g transform="translate(258.743918 287.910437)scale(0.1 -0.1)">
       <defs>
        <path id="DejaVuSans-31" d="M 794 531 
L 1825 531 
L 1825 4091 
L 703 3866 
L 703 4441 
L 1819 4666 
L 2450 4666 
L 2450 531 
L 3481 531 
L 3481 0 
L 794 0 
L 794 531 
z
" transform="scale(0.015625)"/>
       </defs>
       <use xlink:href="#DejaVuSans-31"/>
       <use xlink:href="#DejaVuSans-2e" x="63.623047"/>
       <use xlink:href="#DejaVuSans-30" x="95.410156"/>
      </g>
     </g>
    </g>
    <g id="xtick_7">
     <g id="line2d_7">
      <g>
       <use xlink:href="#mfd6582b40f" x="308.031781" y="273.312" style="stroke: #000000; stroke-width: 0.8"/>
      </g>
     </g>
     <g id="text_7">
      <!-- 1.2 -->
      <g transform="translate(300.080218 287.910437)scale(0.1 -0.1)">
       <use xlink:href="#DejaVuSans-31"/>
       <use xlink:href="#DejaVuSans-2e" x="63.623047"/>
       <use xlink:href="#DejaVuSans-32" x="95.410156"/>
      </g>
     </g>
    </g>
    <g id="xtick_8">
     <g id="line2d_8">
      <g>
       <use xlink:href="#mfd6582b40f" x="349.368081" y="273.312" style="stroke: #000000; stroke-width: 0.8"/>
      </g>
     </g>
     <g id="text_8">
      <!-- 1.4 -->
      <g transform="translate(341.416519 287.910437)scale(0.1 -0.1)">
       <use xlink:href="#DejaVuSans-31"/>
       <use xlink:href="#DejaVuSans-2e" x="63.623047"/>
       <use xlink:href="#DejaVuSans-34" x="95.410156"/>
      </g>
     </g>
    </g>
    <g id="xtick_9">
     <g id="line2d_9">
      <g>
       <use xlink:href="#mfd6582b40f" x="390.704382" y="273.312" style="stroke: #000000; stroke-width: 0.8"/>
      </g>
     </g>
     <g id="text_9">
      <!-- 1.6 -->
      <g transform="translate(382.752819 287.910437)scale(0.1 -0.1)">
       <use xlink:href="#DejaVuSans-31"/>
       <use xlink:href="#DejaVuSans-2e" x="63.623047"/>
       <use xlink:href="#DejaVuSans-36" x="95.410156"/>
      </g>
     </g>
    </g>
    <g id="text_10">
     <!-- Angle with normal (rad) -->
     <g transform="translate(163.023281 301.588562)scale(0.1 -0.1)">
      <defs>
       <path id="DejaVuSans-41" d="M 2188 4044 
L 1331 1722 
L 3047 1722 
L 2188 4044 
z
M 1831 4666 
L 2547 4666 
L 4325 0 
L 3669 0 
L 3244 1197 
L 1141 1197 
L 716 0 
L 50 0 
L 1831 4666 
z
" transform="scale(0.015625)"/>
       <path id="DejaVuSans-6e" d="M 3513 2113 
L 3513 0 
L 2938 0 
L 2938 2094 
Q 2938 2591 2744 2837 
Q 2550 3084 2163 3084 
Q 1697 3084 1428 2787 
Q 1159 2491 1159 1978 
L 1159 0 
L 581 0 
L 581 3500 
L 1159 3500 
L 1159 2956 
Q 1366 3272 1645 3428 
Q 1925 3584 2291 3584 
Q 2894 3584 3203 3211 
Q 3513 2838 3513 2113 
z
" transform="scale(0.015625)"/>
       <path id="DejaVuSans-67" d="M 2906 1791 
Q 2906 2416 2648 2759 
Q 2391 3103 1925 3103 
Q 1463 3103 1205 2759 
Q 947 2416 947 1791 
Q 947 1169 1205 825 
Q 1463 481 1925 481 
Q 2391 481 2648 825 
Q 2906 1169 2906 1791 
z
M 3481 434 
Q 3481 -459 3084 -895 
Q 2688 -1331 1869 -1331 
Q 1566 -1331 1297 -1286 
Q 1028 -1241 775 -1147 
L 775 -588 
Q 1028 -725 1275 -790 
Q 1522 -856 1778 -856 
Q 2344 -856 2625 -561 
Q 2906 -266 2906 331 
L 2906 616 
Q 2728 306 2450 153 
Q 2172 0 1784 0 
Q 1141 0 747 490 
Q 353 981 353 1791 
Q 353 2603 747 3093 
Q 1141 3584 1784 3584 
Q 2172 3584 2450 3431 
Q 2728 3278 2906 2969 
L 2906 3500 
L 3481 3500 
L 3481 434 
z
" transform="scale(0.015625)"/>
       <path id="DejaVuSans-6c" d="M 603 4863 
L 1178 4863 
L 1178 0 
L 603 0 
L 603 4863 
z
" transform="scale(0.015625)"/>
       <path id="DejaVuSans-65" d="M 3597 1894 
L 3597 1613 
L 953 1613 
Q 991 1019 1311 708 
Q 1631 397 2203 397 
Q 2534 397 2845 478 
Q 3156 559 3463 722 
L 3463 178 
Q 3153 47 2828 -22 
Q 2503 -91 2169 -91 
Q 1331 -91 842 396 
Q 353 884 353 1716 
Q 353 2575 817 3079 
Q 1281 3584 2069 3584 
Q 2775 3584 3186 3129 
Q 3597 2675 3597 1894 
z
M 3022 2063 
Q 3016 2534 2758 2815 
Q 2500 3097 2075 3097 
Q 1594 3097 1305 2825 
Q 1016 2553 972 2059 
L 3022 2063 
z
" transform="scale(0.015625)"/>
       <path id="DejaVuSans-20" transform="scale(0.015625)"/>
       <path id="DejaVuSans-77" d="M 269 3500 
L 844 3500 
L 1563 769 
L 2278 3500 
L 2956 3500 
L 3675 769 
L 4391 3500 
L 4966 3500 
L 4050 0 
L 3372 0 
L 2619 2869 
L 1863 0 
L 1184 0 
L 269 3500 
z
" transform="scale(0.015625)"/>
       <path id="DejaVuSans-69" d="M 603 3500 
L 1178 3500 
L 1178 0 
L 603 0 
L 603 3500 
z
M 603 4863 
L 1178 4863 
L 1178 4134 
L 603 4134 
L 603 4863 
z
" transform="scale(0.015625)"/>
       <path id="DejaVuSans-74" d="M 1172 4494 
L 1172 3500 
L 2356 3500 
L 2356 3053 
L 1172 3053 
L 1172 1153 
Q 1172 725 1289 603 
Q 1406 481 1766 481 
L 2356 481 
L 2356 0 
L 1766 0 
Q 1100 0 847 248 
Q 594 497 594 1153 
L 594 3053 
L 172 3053 
L 172 3500 
L 594 3500 
L 594 4494 
L 1172 4494 
z
" transform="scale(0.015625)"/>
       <path id="DejaVuSans-68" d="M 3513 2113 
L 3513 0 
L 2938 0 
L 2938 2094 
Q 2938 2591 2744 2837 
Q 2550 3084 2163 3084 
Q 1697 3084 1428 2787 
Q 1159 2491 1159 1978 
L 1159 0 
L 581 0 
L 581 4863 
L 1159 4863 
L 1159 2956 
Q 1366 3272 1645 3428 
Q 1925 3584 2291 3584 
Q 2894 3584 3203 3211 
Q 3513 2838 3513 2113 
z
" transform="scale(0.015625)"/>
       <path id="DejaVuSans-6f" d="M 1959 3097 
Q 1497 3097 1228 2736 
Q 959 2375 959 1747 
Q 959 1119 1226 758 
Q 1494 397 1959 397 
Q 2419 397 2687 759 
Q 2956 1122 2956 1747 
Q 2956 2369 2687 2733 
Q 2419 3097 1959 3097 
z
M 1959 3584 
Q 2709 3584 3137 3096 
Q 3566 2609 3566 1747 
Q 3566 888 3137 398 
Q 2709 -91 1959 -91 
Q 1206 -91 779 398 
Q 353 888 353 1747 
Q 353 2609 779 3096 
Q 1206 3584 1959 3584 
z
" transform="scale(0.015625)"/>
       <path id="DejaVuSans-72" d="M 2631 2963 
Q 2534 3019 2420 3045 
Q 2306 3072 2169 3072 
Q 1681 3072 1420 2755 
Q 1159 2438 1159 1844 
L 1159 0 
L 581 0 
L 581 3500 
L 1159 3500 
L 1159 2956 
Q 1341 3275 1631 3429 
Q 1922 3584 2338 3584 
Q 2397 3584 2469 3576 
Q 2541 3569 2628 3553 
L 2631 2963 
z
" transform="scale(0.015625)"/>
       <path id="DejaVuSans-6d" d="M 3328 2828 
Q 3544 3216 3844 3400 
Q 4144 3584 4550 3584 
Q 5097 3584 5394 3201 
Q 5691 2819 5691 2113 
L 5691 0 
L 5113 0 
L 5113 2094 
Q 5113 2597 4934 2840 
Q 4756 3084 4391 3084 
Q 3944 3084 3684 2787 
Q 3425 2491 3425 1978 
L 3425 0 
L 2847 0 
L 2847 2094 
Q 2847 2600 2669 2842 
Q 2491 3084 2119 3084 
Q 1678 3084 1418 2786 
Q 1159 2488 1159 1978 
L 1159 0 
L 581 0 
L 581 3500 
L 1159 3500 
L 1159 2956 
Q 1356 3278 1631 3431 
Q 1906 3584 2284 3584 
Q 2666 3584 2933 3390 
Q 3200 3197 3328 2828 
z
" transform="scale(0.015625)"/>
       <path id="DejaVuSans-61" d="M 2194 1759 
Q 1497 1759 1228 1600 
Q 959 1441 959 1056 
Q 959 750 1161 570 
Q 1363 391 1709 391 
Q 2188 391 2477 730 
Q 2766 1069 2766 1631 
L 2766 1759 
L 2194 1759 
z
M 3341 1997 
L 3341 0 
L 2766 0 
L 2766 531 
Q 2569 213 2275 61 
Q 1981 -91 1556 -91 
Q 1019 -91 701 211 
Q 384 513 384 1019 
Q 384 1609 779 1909 
Q 1175 2209 1959 2209 
L 2766 2209 
L 2766 2266 
Q 2766 2663 2505 2880 
Q 2244 3097 1772 3097 
Q 1472 3097 1187 3025 
Q 903 2953 641 2809 
L 641 3341 
Q 956 3463 1253 3523 
Q 1550 3584 1831 3584 
Q 2591 3584 2966 3190 
Q 3341 2797 3341 1997 
z
" transform="scale(0.015625)"/>
       <path id="DejaVuSans-28" d="M 1984 4856 
Q 1566 4138 1362 3434 
Q 1159 2731 1159 2009 
Q 1159 1288 1364 580 
Q 1569 -128 1984 -844 
L 1484 -844 
Q 1016 -109 783 600 
Q 550 1309 550 2009 
Q 550 2706 781 3412 
Q 1013 4119 1484 4856 
L 1984 4856 
z
" transform="scale(0.015625)"/>
       <path id="DejaVuSans-64" d="M 2906 2969 
L 2906 4863 
L 3481 4863 
L 3481 0 
L 2906 0 
L 2906 525 
Q 2725 213 2448 61 
Q 2172 -91 1784 -91 
Q 1150 -91 751 415 
Q 353 922 353 1747 
Q 353 2572 751 3078 
Q 1150 3584 1784 3584 
Q 2172 3584 2448 3432 
Q 2725 3281 2906 2969 
z
M 947 1747 
Q 947 1113 1208 752 
Q 1469 391 1925 391 
Q 2381 391 2643 752 
Q 2906 1113 2906 1747 
Q 2906 2381 2643 2742 
Q 2381 3103 1925 3103 
Q 1469 3103 1208 2742 
Q 947 2381 947 1747 
z
" transform="scale(0.015625)"/>
       <path id="DejaVuSans-29" d="M 513 4856 
L 1013 4856 
Q 1481 4119 1714 3412 
Q 1947 2706 1947 2009 
Q 1947 1309 1714 600 
Q 1481 -109 1013 -844 
L 513 -844 
Q 928 -128 1133 580 
Q 1338 1288 1338 2009 
Q 1338 2731 1133 3434 
Q 928 4138 513 4856 
z
" transform="scale(0.015625)"/>
      </defs>
      <use xlink:href="#DejaVuSans-41"/>
      <use xlink:href="#DejaVuSans-6e" x="68.408203"/>
      <use xlink:href="#DejaVuSans-67" x="131.787109"/>
      <use xlink:href="#DejaVuSans-6c" x="195.263672"/>
      <use xlink:href="#DejaVuSans-65" x="223.046875"/>
      <use xlink:href="#DejaVuSans-20" x="284.570312"/>
      <use xlink:href="#DejaVuSans-77" x="316.357422"/>
      <use xlink:href="#DejaVuSans-69" x="398.144531"/>
      <use xlink:href="#DejaVuSans-74" x="425.927734"/>
      <use xlink:href="#DejaVuSans-68" x="465.136719"/>
      <use xlink:href="#DejaVuSans-20" x="528.515625"/>
      <use xlink:href="#DejaVuSans-6e" x="560.302734"/>
      <use xlink:href="#DejaVuSans-6f" x="623.681641"/>
      <use xlink:href="#DejaVuSans-72" x="684.863281"/>
      <use xlink:href="#DejaVuSans-6d" x="724.226562"/>
      <use xlink:href="#DejaVuSans-61" x="821.638672"/>
      <use xlink:href="#DejaVuSans-6c" x="882.917969"/>
      <use xlink:href="#DejaVuSans-20" x="910.701172"/>
      <use xlink:href="#DejaVuSans-28" x="942.488281"/>
      <use xlink:href="#DejaVuSans-72" x="981.501953"/>
      <use xlink:href="#DejaVuSans-61" x="1022.615234"/>
      <use xlink:href="#DejaVuSans-64" x="1083.894531"/>
      <use xlink:href="#DejaVuSans-29" x="1147.371094"/>
     </g>
    </g>
   </g>
   <g id="matplotlib.axis_2">
    <g id="ytick_1">
     <g id="line2d_10">
      <defs>
       <path id="mb323854785" d="M 0 0 
L -3.5 0 
" style="stroke: #000000; stroke-width: 0.8"/>
      </defs>
      <g>
       <use xlink:href="#mb323854785" x="43.78125" y="273.312" style="stroke: #000000; stroke-width: 0.8"/>
      </g>
     </g>
     <g id="text_11">
      <!-- 0.0 -->
      <g transform="translate(20.878125 277.111219)scale(0.1 -0.1)">
       <use xlink:href="#DejaVuSans-30"/>
       <use xlink:href="#DejaVuSans-2e" x="63.623047"/>
       <use xlink:href="#DejaVuSans-30" x="95.410156"/>
      </g>
     </g>
    </g>
    <g id="ytick_2">
     <g id="line2d_11">
      <g>
       <use xlink:href="#mb323854785" x="43.78125" y="227.01846" style="stroke: #000000; stroke-width: 0.8"/>
      </g>
     </g>
     <g id="text_12">
      <!-- 0.2 -->
      <g transform="translate(20.878125 230.817679)scale(0.1 -0.1)">
       <use xlink:href="#DejaVuSans-30"/>
       <use xlink:href="#DejaVuSans-2e" x="63.623047"/>
       <use xlink:href="#DejaVuSans-32" x="95.410156"/>
      </g>
     </g>
    </g>
    <g id="ytick_3">
     <g id="line2d_12">
      <g>
       <use xlink:href="#mb323854785" x="43.78125" y="180.724921" style="stroke: #000000; stroke-width: 0.8"/>
      </g>
     </g>
     <g id="text_13">
      <!-- 0.4 -->
      <g transform="translate(20.878125 184.524139)scale(0.1 -0.1)">
       <use xlink:href="#DejaVuSans-30"/>
       <use xlink:href="#DejaVuSans-2e" x="63.623047"/>
       <use xlink:href="#DejaVuSans-34" x="95.410156"/>
      </g>
     </g>
    </g>
    <g id="ytick_4">
     <g id="line2d_13">
      <g>
       <use xlink:href="#mb323854785" x="43.78125" y="134.431381" style="stroke: #000000; stroke-width: 0.8"/>
      </g>
     </g>
     <g id="text_14">
      <!-- 0.6 -->
      <g transform="translate(20.878125 138.2306)scale(0.1 -0.1)">
       <use xlink:href="#DejaVuSans-30"/>
       <use xlink:href="#DejaVuSans-2e" x="63.623047"/>
       <use xlink:href="#DejaVuSans-36" x="95.410156"/>
      </g>
     </g>
    </g>
    <g id="ytick_5">
     <g id="line2d_14">
      <g>
       <use xlink:href="#mb323854785" x="43.78125" y="88.137841" style="stroke: #000000; stroke-width: 0.8"/>
      </g>
     </g>
     <g id="text_15">
      <!-- 0.8 -->
      <g transform="translate(20.878125 91.93706)scale(0.1 -0.1)">
       <use xlink:href="#DejaVuSans-30"/>
       <use xlink:href="#DejaVuSans-2e" x="63.623047"/>
       <use xlink:href="#DejaVuSans-38" x="95.410156"/>
      </g>
     </g>
    </g>
    <g id="ytick_6">
     <g id="line2d_15">
      <g>
       <use xlink:href="#mb323854785" x="43.78125" y="41.844301" style="stroke: #000000; stroke-width: 0.8"/>
      </g>
     </g>
     <g id="text_16">
      <!-- 1.0 -->
      <g transform="translate(20.878125 45.64352)scale(0.1 -0.1)">
       <use xlink:href="#DejaVuSans-31"/>
       <use xlink:href="#DejaVuSans-2e" x="63.623047"/>
       <use xlink:href="#DejaVuSans-30" x="95.410156"/>
      </g>
     </g>
    </g>
    <g id="text_17">
     <!-- Probability density -->
     <g transform="translate(14.798438 186.606781)rotate(-90)scale(0.1 -0.1)">
      <defs>
       <path id="DejaVuSans-50" d="M 1259 4147 
L 1259 2394 
L 2053 2394 
Q 2494 2394 2734 2622 
Q 2975 2850 2975 3272 
Q 2975 3691 2734 3919 
Q 2494 4147 2053 4147 
L 1259 4147 
z
M 628 4666 
L 2053 4666 
Q 2838 4666 3239 4311 
Q 3641 3956 3641 3272 
Q 3641 2581 3239 2228 
Q 2838 1875 2053 1875 
L 1259 1875 
L 1259 0 
L 628 0 
L 628 4666 
z
" transform="scale(0.015625)"/>
       <path id="DejaVuSans-62" d="M 3116 1747 
Q 3116 2381 2855 2742 
Q 2594 3103 2138 3103 
Q 1681 3103 1420 2742 
Q 1159 2381 1159 1747 
Q 1159 1113 1420 752 
Q 1681 391 2138 391 
Q 2594 391 2855 752 
Q 3116 1113 3116 1747 
z
M 1159 2969 
Q 1341 3281 1617 3432 
Q 1894 3584 2278 3584 
Q 2916 3584 3314 3078 
Q 3713 2572 3713 1747 
Q 3713 922 3314 415 
Q 2916 -91 2278 -91 
Q 1894 -91 1617 61 
Q 1341 213 1159 525 
L 1159 0 
L 581 0 
L 581 4863 
L 1159 4863 
L 1159 2969 
z
" transform="scale(0.015625)"/>
       <path id="DejaVuSans-79" d="M 2059 -325 
Q 1816 -950 1584 -1140 
Q 1353 -1331 966 -1331 
L 506 -1331 
L 506 -850 
L 844 -850 
Q 1081 -850 1212 -737 
Q 1344 -625 1503 -206 
L 1606 56 
L 191 3500 
L 800 3500 
L 1894 763 
L 2988 3500 
L 3597 3500 
L 2059 -325 
z
" transform="scale(0.015625)"/>
       <path id="DejaVuSans-73" d="M 2834 3397 
L 2834 2853 
Q 2591 2978 2328 3040 
Q 2066 3103 1784 3103 
Q 1356 3103 1142 2972 
Q 928 2841 928 2578 
Q 928 2378 1081 2264 
Q 1234 2150 1697 2047 
L 1894 2003 
Q 2506 1872 2764 1633 
Q 3022 1394 3022 966 
Q 3022 478 2636 193 
Q 2250 -91 1575 -91 
Q 1294 -91 989 -36 
Q 684 19 347 128 
L 347 722 
Q 666 556 975 473 
Q 1284 391 1588 391 
Q 1994 391 2212 530 
Q 2431 669 2431 922 
Q 2431 1156 2273 1281 
Q 2116 1406 1581 1522 
L 1381 1569 
Q 847 1681 609 1914 
Q 372 2147 372 2553 
Q 372 3047 722 3315 
Q 1072 3584 1716 3584 
Q 2034 3584 2315 3537 
Q 2597 3491 2834 3397 
z
" transform="scale(0.015625)"/>
      </defs>
      <use xlink:href="#DejaVuSans-50"/>
      <use xlink:href="#DejaVuSans-72" x="58.552734"/>
      <use xlink:href="#DejaVuSans-6f" x="97.416016"/>
      <use xlink:href="#DejaVuSans-62" x="158.597656"/>
      <use xlink:href="#DejaVuSans-61" x="222.074219"/>
      <use xlink:href="#DejaVuSans-62" x="283.353516"/>
      <use xlink:href="#DejaVuSans-69" x="346.830078"/>
      <use xlink:href="#DejaVuSans-6c" x="374.613281"/>
      <use xlink:href="#DejaVuSans-69" x="402.396484"/>
      <use xlink:href="#DejaVuSans-74" x="430.179688"/>
      <use xlink:href="#DejaVuSans-79" x="469.388672"/>
      <use xlink:href="#DejaVuSans-20" x="528.568359"/>
      <use xlink:href="#DejaVuSans-64" x="560.355469"/>
      <use xlink:href="#DejaVuSans-65" x="623.832031"/>
      <use xlink:href="#DejaVuSans-6e" x="685.355469"/>
      <use xlink:href="#DejaVuSans-73" x="748.734375"/>
      <use xlink:href="#DejaVuSans-69" x="800.833984"/>
      <use xlink:href="#DejaVuSans-74" x="828.617188"/>
      <use xlink:href="#DejaVuSans-79" x="867.826172"/>
     </g>
    </g>
   </g>
   <g id="line2d_16">
    <path d="M 60.013977 273.312 
L 79.837728 229.181608 
L 90.237073 206.577735 
L 99.01152 188.021848 
L 106.811029 172.039556 
L 113.960578 157.893486 
L 120.460169 145.510896 
L 126.63478 134.214812 
L 132.484411 123.97056 
L 138.009063 114.734153 
L 143.208736 106.454524 
L 148.408408 98.597235 
L 153.283101 91.632299 
L 157.832814 85.496057 
L 162.382528 79.723803 
L 166.607261 74.69956 
L 170.831995 70.007213 
L 175.056729 65.654602 
L 178.956483 61.944649 
L 182.856238 58.535662 
L 186.755992 55.432496 
L 190.330767 52.860362 
L 193.905542 50.551998 
L 197.480316 48.510165 
L 201.055091 46.737307 
L 204.304886 45.360816 
L 207.554682 44.209736 
L 210.804477 43.285204 
L 214.054272 42.588137 
L 217.304067 42.119221 
L 220.553863 41.878923 
L 223.803658 41.867478 
L 227.053453 42.084898 
L 230.303248 42.530969 
L 233.553044 43.205249 
L 236.802839 44.107071 
L 240.052634 45.235544 
L 243.302429 46.589551 
L 246.552225 48.167755 
L 250.126999 50.160855 
L 253.701774 52.420955 
L 257.276549 54.94535 
L 260.851324 57.73102 
L 264.751078 61.06399 
L 268.650832 64.69918 
L 272.550587 68.631414 
L 276.77532 73.220036 
L 281.000054 78.143026 
L 285.549768 83.809197 
L 290.099481 89.842626 
L 294.974174 96.701258 
L 299.848867 103.952796 
L 305.048539 112.102646 
L 310.248212 120.66054 
L 315.772863 130.176152 
L 321.622495 140.69669 
L 327.797106 152.261866 
L 334.296696 164.901664 
L 341.446246 179.298619 
L 349.245755 195.514955 
L 358.020202 214.28309 
L 368.419546 237.066528 
L 383.693584 271.128317 
L 384.668523 273.312 
L 384.668523 273.312 
" clip-path="url(#p0b6fc326e8)" style="fill: none; stroke: #ff7f0e; stroke-width: 1.5; stroke-linecap: square"/>
   </g>
   <g id="patch_203">
    <path d="M 43.78125 273.312 
L 43.78125 7.2 
" style="fill: none; stroke: #000000; stroke-width: 0.8; stroke-linejoin: miter; stroke-linecap: square"/>
   </g>
   <g id="patch_204">
    <path d="M 400.90125 273.312 
L 400.90125 7.2 
" style="fill: none; stroke: #000000; stroke-width: 0.8; stroke-linejoin: miter; stroke-linecap: square"/>
   </g>
   <g id="patch_205">
    <path d="M 43.78125 273.312 
L 400.90125 273.312 
" style="fill: none; stroke: #000000; stroke-width: 0.8; stroke-linejoin: miter; stroke-linecap: square"/>
   </g>
   <g id="patch_206">
    <path d="M 43.78125 7.2 
L 400.90125 7.2 
" style="fill: none; stroke: #000000; stroke-width: 0.8; stroke-linejoin: miter; stroke-linecap: square"/>
   </g>
  </g>
 </g>
 <defs>
  <clipPath id="p0b6fc326e8">
   <rect x="43.78125" y="7.2" width="357.12" height="266.112"/>
  </clipPath>
 </defs>
</svg>
