<?xml version="1.0" encoding="utf-8" standalone="no"?>
<!DOCTYPE svg PUBLIC "-//W3C//DTD SVG 1.1//EN"
  "http://www.w3.org/Graphics/SVG/1.1/DTD/svg11.dtd">
<svg xmlns:xlink="http://www.w3.org/1999/xlink" width="414.46375pt" height="310.86825pt" viewBox="0 0 414.46375 310.86825" xmlns="http://www.w3.org/2000/svg" version="1.1">
 <metadata>
  <rdf:RDF xmlns:dc="http://purl.org/dc/elements/1.1/" xmlns:cc="http://creativecommons.org/ns#" xmlns:rdf="http://www.w3.org/1999/02/22-rdf-syntax-ns#">
   <cc:Work>
    <dc:type rdf:resource="http://purl.org/dc/dcmitype/StillImage"/>
    <dc:date>2022-05-05T19:45:10.532794</dc:date>
    <dc:format>image/svg+xml</dc:format>
    <dc:creator>
     <cc:Agent>
      <dc:title>Matplotlib v3.5.2, https://matplotlib.org/</dc:title>
     </cc:Agent>
    </dc:creator>
   </cc:Work>
  </rdf:RDF>
 </metadata>
 <defs>
  <style type="text/css">*{stroke-linejoin: round; stroke-linecap: butt}</style>
 </defs>
 <g id="figure_1">
  <g id="patch_1">
   <path d="M 0 310.86825 
L 414.46375 310.86825 
L 414.46375 0 
L 0 0 
z
" style="fill: #ffffff"/>
  </g>
  <g id="axes_1">
   <g id="patch_2">
    <path d="M 50.14375 273.312 
L 407.26375 273.312 
L 407.26375 7.2 
L 50.14375 7.2 
z
" style="fill: #ffffff"/>
   </g>
   <g id="patch_3">
    <path d="M 66.877145 273.312 
L 68.497911 273.312 
L 68.497911 272.078715 
L 66.877145 272.078715 
z
" clip-path="url(#pd4a298b0a8)" style="fill: #1f77b4"/>
   </g>
   <g id="patch_4">
    <path d="M 68.497911 273.312 
L 70.118678 273.312 
L 70.118678 270.228788 
L 68.497911 270.228788 
z
" clip-path="url(#pd4a298b0a8)" style="fill: #1f77b4"/>
   </g>
   <g id="patch_5">
    <path d="M 70.118678 273.312 
L 71.739445 273.312 
L 71.739445 267.762219 
L 70.118678 267.762219 
z
" clip-path="url(#pd4a298b0a8)" style="fill: #1f77b4"/>
   </g>
   <g id="patch_6">
    <path d="M 71.739445 273.312 
L 73.360212 273.312 
L 73.360212 269.612146 
L 71.739445 269.612146 
z
" clip-path="url(#pd4a298b0a8)" style="fill: #1f77b4"/>
   </g>
   <g id="patch_7">
    <path d="M 73.360212 273.312 
L 74.980978 273.312 
L 74.980978 267.762219 
L 73.360212 267.762219 
z
" clip-path="url(#pd4a298b0a8)" style="fill: #1f77b4"/>
   </g>
   <g id="patch_8">
    <path d="M 74.980978 273.312 
L 76.601745 273.312 
L 76.601745 266.528934 
L 74.980978 266.528934 
z
" clip-path="url(#pd4a298b0a8)" style="fill: #1f77b4"/>
   </g>
   <g id="patch_9">
    <path d="M 76.601745 273.312 
L 78.222512 273.312 
L 78.222512 267.762219 
L 76.601745 267.762219 
z
" clip-path="url(#pd4a298b0a8)" style="fill: #1f77b4"/>
   </g>
   <g id="patch_10">
    <path d="M 78.222512 273.312 
L 79.843279 273.312 
L 79.843279 266.528934 
L 78.222512 266.528934 
z
" clip-path="url(#pd4a298b0a8)" style="fill: #1f77b4"/>
   </g>
   <g id="patch_11">
    <path d="M 79.843279 273.312 
L 81.464045 273.312 
L 81.464045 261.595796 
L 79.843279 261.595796 
z
" clip-path="url(#pd4a298b0a8)" style="fill: #1f77b4"/>
   </g>
   <g id="patch_12">
    <path d="M 81.464045 273.312 
L 83.084812 273.312 
L 83.084812 264.062365 
L 81.464045 264.062365 
z
" clip-path="url(#pd4a298b0a8)" style="fill: #1f77b4"/>
   </g>
   <g id="patch_13">
    <path d="M 83.084812 273.312 
L 84.705579 273.312 
L 84.705579 262.82908 
L 83.084812 262.82908 
z
" clip-path="url(#pd4a298b0a8)" style="fill: #1f77b4"/>
   </g>
   <g id="patch_14">
    <path d="M 84.705579 273.312 
L 86.326345 273.312 
L 86.326345 252.962803 
L 84.705579 252.962803 
z
" clip-path="url(#pd4a298b0a8)" style="fill: #1f77b4"/>
   </g>
   <g id="patch_15">
    <path d="M 86.326345 273.312 
L 87.947112 273.312 
L 87.947112 255.429372 
L 86.326345 255.429372 
z
" clip-path="url(#pd4a298b0a8)" style="fill: #1f77b4"/>
   </g>
   <g id="patch_16">
    <path d="M 87.947112 273.312 
L 89.567879 273.312 
L 89.567879 257.279299 
L 87.947112 257.279299 
z
" clip-path="url(#pd4a298b0a8)" style="fill: #1f77b4"/>
   </g>
   <g id="patch_17">
    <path d="M 89.567879 273.312 
L 91.188646 273.312 
L 91.188646 256.662657 
L 89.567879 256.662657 
z
" clip-path="url(#pd4a298b0a8)" style="fill: #1f77b4"/>
   </g>
   <g id="patch_18">
    <path d="M 91.188646 273.312 
L 92.809412 273.312 
L 92.809412 251.729518 
L 91.188646 251.729518 
z
" clip-path="url(#pd4a298b0a8)" style="fill: #1f77b4"/>
   </g>
   <g id="patch_19">
    <path d="M 92.809412 273.312 
L 94.430179 273.312 
L 94.430179 246.179737 
L 92.809412 246.179737 
z
" clip-path="url(#pd4a298b0a8)" style="fill: #1f77b4"/>
   </g>
   <g id="patch_20">
    <path d="M 94.430179 273.312 
L 96.050946 273.312 
L 96.050946 247.413022 
L 94.430179 247.413022 
z
" clip-path="url(#pd4a298b0a8)" style="fill: #1f77b4"/>
   </g>
   <g id="patch_21">
    <path d="M 96.050946 273.312 
L 97.671713 273.312 
L 97.671713 249.262949 
L 96.050946 249.262949 
z
" clip-path="url(#pd4a298b0a8)" style="fill: #1f77b4"/>
   </g>
   <g id="patch_22">
    <path d="M 97.671713 273.312 
L 99.292479 273.312 
L 99.292479 246.179737 
L 97.671713 246.179737 
z
" clip-path="url(#pd4a298b0a8)" style="fill: #1f77b4"/>
   </g>
   <g id="patch_23">
    <path d="M 99.292479 273.312 
L 100.913246 273.312 
L 100.913246 242.479883 
L 99.292479 242.479883 
z
" clip-path="url(#pd4a298b0a8)" style="fill: #1f77b4"/>
   </g>
   <g id="patch_24">
    <path d="M 100.913246 273.312 
L 102.534013 273.312 
L 102.534013 244.946453 
L 100.913246 244.946453 
z
" clip-path="url(#pd4a298b0a8)" style="fill: #1f77b4"/>
   </g>
   <g id="patch_25">
    <path d="M 102.534013 273.312 
L 104.15478 273.312 
L 104.15478 250.496234 
L 102.534013 250.496234 
z
" clip-path="url(#pd4a298b0a8)" style="fill: #1f77b4"/>
   </g>
   <g id="patch_26">
    <path d="M 104.15478 273.312 
L 105.775546 273.312 
L 105.775546 247.413022 
L 104.15478 247.413022 
z
" clip-path="url(#pd4a298b0a8)" style="fill: #1f77b4"/>
   </g>
   <g id="patch_27">
    <path d="M 105.775546 273.312 
L 107.396313 273.312 
L 107.396313 242.479883 
L 105.775546 242.479883 
z
" clip-path="url(#pd4a298b0a8)" style="fill: #1f77b4"/>
   </g>
   <g id="patch_28">
    <path d="M 107.396313 273.312 
L 109.01708 273.312 
L 109.01708 251.112876 
L 107.396313 251.112876 
z
" clip-path="url(#pd4a298b0a8)" style="fill: #1f77b4"/>
   </g>
   <g id="patch_29">
    <path d="M 109.01708 273.312 
L 110.637846 273.312 
L 110.637846 241.246599 
L 109.01708 241.246599 
z
" clip-path="url(#pd4a298b0a8)" style="fill: #1f77b4"/>
   </g>
   <g id="patch_30">
    <path d="M 110.637846 273.312 
L 112.258613 273.312 
L 112.258613 232.613606 
L 110.637846 232.613606 
z
" clip-path="url(#pd4a298b0a8)" style="fill: #1f77b4"/>
   </g>
   <g id="patch_31">
    <path d="M 112.258613 273.312 
L 113.87938 273.312 
L 113.87938 234.463533 
L 112.258613 234.463533 
z
" clip-path="url(#pd4a298b0a8)" style="fill: #1f77b4"/>
   </g>
   <g id="patch_32">
    <path d="M 113.87938 273.312 
L 115.500147 273.312 
L 115.500147 242.479883 
L 113.87938 242.479883 
z
" clip-path="url(#pd4a298b0a8)" style="fill: #1f77b4"/>
   </g>
   <g id="patch_33">
    <path d="M 115.500147 273.312 
L 117.120913 273.312 
L 117.120913 226.447182 
L 115.500147 226.447182 
z
" clip-path="url(#pd4a298b0a8)" style="fill: #1f77b4"/>
   </g>
   <g id="patch_34">
    <path d="M 117.120913 273.312 
L 118.74168 273.312 
L 118.74168 235.080175 
L 117.120913 235.080175 
z
" clip-path="url(#pd4a298b0a8)" style="fill: #1f77b4"/>
   </g>
   <g id="patch_35">
    <path d="M 118.74168 273.312 
L 120.362447 273.312 
L 120.362447 238.163387 
L 118.74168 238.163387 
z
" clip-path="url(#pd4a298b0a8)" style="fill: #1f77b4"/>
   </g>
   <g id="patch_36">
    <path d="M 120.362447 273.312 
L 121.983214 273.312 
L 121.983214 231.380321 
L 120.362447 231.380321 
z
" clip-path="url(#pd4a298b0a8)" style="fill: #1f77b4"/>
   </g>
   <g id="patch_37">
    <path d="M 121.983214 273.312 
L 123.60398 273.312 
L 123.60398 231.380321 
L 121.983214 231.380321 
z
" clip-path="url(#pd4a298b0a8)" style="fill: #1f77b4"/>
   </g>
   <g id="patch_38">
    <path d="M 123.60398 273.312 
L 125.224747 273.312 
L 125.224747 229.530394 
L 123.60398 229.530394 
z
" clip-path="url(#pd4a298b0a8)" style="fill: #1f77b4"/>
   </g>
   <g id="patch_39">
    <path d="M 125.224747 273.312 
L 126.845514 273.312 
L 126.845514 222.747328 
L 125.224747 222.747328 
z
" clip-path="url(#pd4a298b0a8)" style="fill: #1f77b4"/>
   </g>
   <g id="patch_40">
    <path d="M 126.845514 273.312 
L 128.466281 273.312 
L 128.466281 217.81419 
L 126.845514 217.81419 
z
" clip-path="url(#pd4a298b0a8)" style="fill: #1f77b4"/>
   </g>
   <g id="patch_41">
    <path d="M 128.466281 273.312 
L 130.087047 273.312 
L 130.087047 220.280759 
L 128.466281 220.280759 
z
" clip-path="url(#pd4a298b0a8)" style="fill: #1f77b4"/>
   </g>
   <g id="patch_42">
    <path d="M 130.087047 273.312 
L 131.707814 273.312 
L 131.707814 227.063825 
L 130.087047 227.063825 
z
" clip-path="url(#pd4a298b0a8)" style="fill: #1f77b4"/>
   </g>
   <g id="patch_43">
    <path d="M 131.707814 273.312 
L 133.328581 273.312 
L 133.328581 213.497693 
L 131.707814 213.497693 
z
" clip-path="url(#pd4a298b0a8)" style="fill: #1f77b4"/>
   </g>
   <g id="patch_44">
    <path d="M 133.328581 273.312 
L 134.949347 273.312 
L 134.949347 227.063825 
L 133.328581 227.063825 
z
" clip-path="url(#pd4a298b0a8)" style="fill: #1f77b4"/>
   </g>
   <g id="patch_45">
    <path d="M 134.949347 273.312 
L 136.570114 273.312 
L 136.570114 215.34762 
L 134.949347 215.34762 
z
" clip-path="url(#pd4a298b0a8)" style="fill: #1f77b4"/>
   </g>
   <g id="patch_46">
    <path d="M 136.570114 273.312 
L 138.190881 273.312 
L 138.190881 214.730978 
L 136.570114 214.730978 
z
" clip-path="url(#pd4a298b0a8)" style="fill: #1f77b4"/>
   </g>
   <g id="patch_47">
    <path d="M 138.190881 273.312 
L 139.811648 273.312 
L 139.811648 212.881051 
L 138.190881 212.881051 
z
" clip-path="url(#pd4a298b0a8)" style="fill: #1f77b4"/>
   </g>
   <g id="patch_48">
    <path d="M 139.811648 273.312 
L 141.432414 273.312 
L 141.432414 211.031124 
L 139.811648 211.031124 
z
" clip-path="url(#pd4a298b0a8)" style="fill: #1f77b4"/>
   </g>
   <g id="patch_49">
    <path d="M 141.432414 273.312 
L 143.053181 273.312 
L 143.053181 208.564555 
L 141.432414 208.564555 
z
" clip-path="url(#pd4a298b0a8)" style="fill: #1f77b4"/>
   </g>
   <g id="patch_50">
    <path d="M 143.053181 273.312 
L 144.673948 273.312 
L 144.673948 222.747328 
L 143.053181 222.747328 
z
" clip-path="url(#pd4a298b0a8)" style="fill: #1f77b4"/>
   </g>
   <g id="patch_51">
    <path d="M 144.673948 273.312 
L 146.294715 273.312 
L 146.294715 204.864701 
L 144.673948 204.864701 
z
" clip-path="url(#pd4a298b0a8)" style="fill: #1f77b4"/>
   </g>
   <g id="patch_52">
    <path d="M 146.294715 273.312 
L 147.915481 273.312 
L 147.915481 201.781489 
L 146.294715 201.781489 
z
" clip-path="url(#pd4a298b0a8)" style="fill: #1f77b4"/>
   </g>
   <g id="patch_53">
    <path d="M 147.915481 273.312 
L 149.536248 273.312 
L 149.536248 219.047474 
L 147.915481 219.047474 
z
" clip-path="url(#pd4a298b0a8)" style="fill: #1f77b4"/>
   </g>
   <g id="patch_54">
    <path d="M 149.536248 273.312 
L 151.157015 273.312 
L 151.157015 210.414482 
L 149.536248 210.414482 
z
" clip-path="url(#pd4a298b0a8)" style="fill: #1f77b4"/>
   </g>
   <g id="patch_55">
    <path d="M 151.157015 273.312 
L 152.777782 273.312 
L 152.777782 217.197547 
L 151.157015 217.197547 
z
" clip-path="url(#pd4a298b0a8)" style="fill: #1f77b4"/>
   </g>
   <g id="patch_56">
    <path d="M 152.777782 273.312 
L 154.398548 273.312 
L 154.398548 206.097985 
L 152.777782 206.097985 
z
" clip-path="url(#pd4a298b0a8)" style="fill: #1f77b4"/>
   </g>
   <g id="patch_57">
    <path d="M 154.398548 273.312 
L 156.019315 273.312 
L 156.019315 208.564555 
L 154.398548 208.564555 
z
" clip-path="url(#pd4a298b0a8)" style="fill: #1f77b4"/>
   </g>
   <g id="patch_58">
    <path d="M 156.019315 273.312 
L 157.640082 273.312 
L 157.640082 208.564555 
L 156.019315 208.564555 
z
" clip-path="url(#pd4a298b0a8)" style="fill: #1f77b4"/>
   </g>
   <g id="patch_59">
    <path d="M 157.640082 273.312 
L 159.260848 273.312 
L 159.260848 199.931562 
L 157.640082 199.931562 
z
" clip-path="url(#pd4a298b0a8)" style="fill: #1f77b4"/>
   </g>
   <g id="patch_60">
    <path d="M 159.260848 273.312 
L 160.881615 273.312 
L 160.881615 201.164847 
L 159.260848 201.164847 
z
" clip-path="url(#pd4a298b0a8)" style="fill: #1f77b4"/>
   </g>
   <g id="patch_61">
    <path d="M 160.881615 273.312 
L 162.502382 273.312 
L 162.502382 198.698277 
L 160.881615 198.698277 
z
" clip-path="url(#pd4a298b0a8)" style="fill: #1f77b4"/>
   </g>
   <g id="patch_62">
    <path d="M 162.502382 273.312 
L 164.123149 273.312 
L 164.123149 205.481343 
L 162.502382 205.481343 
z
" clip-path="url(#pd4a298b0a8)" style="fill: #1f77b4"/>
   </g>
   <g id="patch_63">
    <path d="M 164.123149 273.312 
L 165.743915 273.312 
L 165.743915 188.215358 
L 164.123149 188.215358 
z
" clip-path="url(#pd4a298b0a8)" style="fill: #1f77b4"/>
   </g>
   <g id="patch_64">
    <path d="M 165.743915 273.312 
L 167.364682 273.312 
L 167.364682 194.998423 
L 165.743915 194.998423 
z
" clip-path="url(#pd4a298b0a8)" style="fill: #1f77b4"/>
   </g>
   <g id="patch_65">
    <path d="M 167.364682 273.312 
L 168.985449 273.312 
L 168.985449 198.081635 
L 167.364682 198.081635 
z
" clip-path="url(#pd4a298b0a8)" style="fill: #1f77b4"/>
   </g>
   <g id="patch_66">
    <path d="M 168.985449 273.312 
L 170.606216 273.312 
L 170.606216 190.681927 
L 168.985449 190.681927 
z
" clip-path="url(#pd4a298b0a8)" style="fill: #1f77b4"/>
   </g>
   <g id="patch_67">
    <path d="M 170.606216 273.312 
L 172.226982 273.312 
L 172.226982 201.164847 
L 170.606216 201.164847 
z
" clip-path="url(#pd4a298b0a8)" style="fill: #1f77b4"/>
   </g>
   <g id="patch_68">
    <path d="M 172.226982 273.312 
L 173.847749 273.312 
L 173.847749 204.864701 
L 172.226982 204.864701 
z
" clip-path="url(#pd4a298b0a8)" style="fill: #1f77b4"/>
   </g>
   <g id="patch_69">
    <path d="M 173.847749 273.312 
L 175.468516 273.312 
L 175.468516 204.864701 
L 173.847749 204.864701 
z
" clip-path="url(#pd4a298b0a8)" style="fill: #1f77b4"/>
   </g>
   <g id="patch_70">
    <path d="M 175.468516 273.312 
L 177.089283 273.312 
L 177.089283 178.965723 
L 175.468516 178.965723 
z
" clip-path="url(#pd4a298b0a8)" style="fill: #1f77b4"/>
   </g>
   <g id="patch_71">
    <path d="M 177.089283 273.312 
L 178.710049 273.312 
L 178.710049 192.531854 
L 177.089283 192.531854 
z
" clip-path="url(#pd4a298b0a8)" style="fill: #1f77b4"/>
   </g>
   <g id="patch_72">
    <path d="M 178.710049 273.312 
L 180.330816 273.312 
L 180.330816 186.982073 
L 178.710049 186.982073 
z
" clip-path="url(#pd4a298b0a8)" style="fill: #1f77b4"/>
   </g>
   <g id="patch_73">
    <path d="M 180.330816 273.312 
L 181.951583 273.312 
L 181.951583 177.732438 
L 180.330816 177.732438 
z
" clip-path="url(#pd4a298b0a8)" style="fill: #1f77b4"/>
   </g>
   <g id="patch_74">
    <path d="M 181.951583 273.312 
L 183.572349 273.312 
L 183.572349 198.081635 
L 181.951583 198.081635 
z
" clip-path="url(#pd4a298b0a8)" style="fill: #1f77b4"/>
   </g>
   <g id="patch_75">
    <path d="M 183.572349 273.312 
L 185.193116 273.312 
L 185.193116 174.032584 
L 183.572349 174.032584 
z
" clip-path="url(#pd4a298b0a8)" style="fill: #1f77b4"/>
   </g>
   <g id="patch_76">
    <path d="M 185.193116 273.312 
L 186.813883 273.312 
L 186.813883 183.282219 
L 185.193116 183.282219 
z
" clip-path="url(#pd4a298b0a8)" style="fill: #1f77b4"/>
   </g>
   <g id="patch_77">
    <path d="M 186.813883 273.312 
L 188.43465 273.312 
L 188.43465 181.432292 
L 186.813883 181.432292 
z
" clip-path="url(#pd4a298b0a8)" style="fill: #1f77b4"/>
   </g>
   <g id="patch_78">
    <path d="M 188.43465 273.312 
L 190.055416 273.312 
L 190.055416 186.982073 
L 188.43465 186.982073 
z
" clip-path="url(#pd4a298b0a8)" style="fill: #1f77b4"/>
   </g>
   <g id="patch_79">
    <path d="M 190.055416 273.312 
L 191.676183 273.312 
L 191.676183 177.115796 
L 190.055416 177.115796 
z
" clip-path="url(#pd4a298b0a8)" style="fill: #1f77b4"/>
   </g>
   <g id="patch_80">
    <path d="M 191.676183 273.312 
L 193.29695 273.312 
L 193.29695 174.649226 
L 191.676183 174.649226 
z
" clip-path="url(#pd4a298b0a8)" style="fill: #1f77b4"/>
   </g>
   <g id="patch_81">
    <path d="M 193.29695 273.312 
L 194.917717 273.312 
L 194.917717 163.549664 
L 193.29695 163.549664 
z
" clip-path="url(#pd4a298b0a8)" style="fill: #1f77b4"/>
   </g>
   <g id="patch_82">
    <path d="M 194.917717 273.312 
L 196.538483 273.312 
L 196.538483 185.132146 
L 194.917717 185.132146 
z
" clip-path="url(#pd4a298b0a8)" style="fill: #1f77b4"/>
   </g>
   <g id="patch_83">
    <path d="M 196.538483 273.312 
L 198.15925 273.312 
L 198.15925 169.716088 
L 196.538483 169.716088 
z
" clip-path="url(#pd4a298b0a8)" style="fill: #1f77b4"/>
   </g>
   <g id="patch_84">
    <path d="M 198.15925 273.312 
L 199.780017 273.312 
L 199.780017 174.032584 
L 198.15925 174.032584 
z
" clip-path="url(#pd4a298b0a8)" style="fill: #1f77b4"/>
   </g>
   <g id="patch_85">
    <path d="M 199.780017 273.312 
L 201.400783 273.312 
L 201.400783 176.499153 
L 199.780017 176.499153 
z
" clip-path="url(#pd4a298b0a8)" style="fill: #1f77b4"/>
   </g>
   <g id="patch_86">
    <path d="M 201.400783 273.312 
L 203.02155 273.312 
L 203.02155 162.933022 
L 201.400783 162.933022 
z
" clip-path="url(#pd4a298b0a8)" style="fill: #1f77b4"/>
   </g>
   <g id="patch_87">
    <path d="M 203.02155 273.312 
L 204.642317 273.312 
L 204.642317 169.099445 
L 203.02155 169.099445 
z
" clip-path="url(#pd4a298b0a8)" style="fill: #1f77b4"/>
   </g>
   <g id="patch_88">
    <path d="M 204.642317 273.312 
L 206.263084 273.312 
L 206.263084 160.466453 
L 204.642317 160.466453 
z
" clip-path="url(#pd4a298b0a8)" style="fill: #1f77b4"/>
   </g>
   <g id="patch_89">
    <path d="M 206.263084 273.312 
L 207.88385 273.312 
L 207.88385 162.31638 
L 206.263084 162.31638 
z
" clip-path="url(#pd4a298b0a8)" style="fill: #1f77b4"/>
   </g>
   <g id="patch_90">
    <path d="M 207.88385 273.312 
L 209.504617 273.312 
L 209.504617 162.933022 
L 207.88385 162.933022 
z
" clip-path="url(#pd4a298b0a8)" style="fill: #1f77b4"/>
   </g>
   <g id="patch_91">
    <path d="M 209.504617 273.312 
L 211.125384 273.312 
L 211.125384 159.233168 
L 209.504617 159.233168 
z
" clip-path="url(#pd4a298b0a8)" style="fill: #1f77b4"/>
   </g>
   <g id="patch_92">
    <path d="M 211.125384 273.312 
L 212.746151 273.312 
L 212.746151 172.182657 
L 211.125384 172.182657 
z
" clip-path="url(#pd4a298b0a8)" style="fill: #1f77b4"/>
   </g>
   <g id="patch_93">
    <path d="M 212.746151 273.312 
L 214.366917 273.312 
L 214.366917 165.399591 
L 212.746151 165.399591 
z
" clip-path="url(#pd4a298b0a8)" style="fill: #1f77b4"/>
   </g>
   <g id="patch_94">
    <path d="M 214.366917 273.312 
L 215.987684 273.312 
L 215.987684 158.616526 
L 214.366917 158.616526 
z
" clip-path="url(#pd4a298b0a8)" style="fill: #1f77b4"/>
   </g>
   <g id="patch_95">
    <path d="M 215.987684 273.312 
L 217.608451 273.312 
L 217.608451 146.900321 
L 215.987684 146.900321 
z
" clip-path="url(#pd4a298b0a8)" style="fill: #1f77b4"/>
   </g>
   <g id="patch_96">
    <path d="M 217.608451 273.312 
L 219.229218 273.312 
L 219.229218 159.233168 
L 217.608451 159.233168 
z
" clip-path="url(#pd4a298b0a8)" style="fill: #1f77b4"/>
   </g>
   <g id="patch_97">
    <path d="M 219.229218 273.312 
L 220.849984 273.312 
L 220.849984 148.750248 
L 219.229218 148.750248 
z
" clip-path="url(#pd4a298b0a8)" style="fill: #1f77b4"/>
   </g>
   <g id="patch_98">
    <path d="M 220.849984 273.312 
L 222.470751 273.312 
L 222.470751 167.249518 
L 220.849984 167.249518 
z
" clip-path="url(#pd4a298b0a8)" style="fill: #1f77b4"/>
   </g>
   <g id="patch_99">
    <path d="M 222.470751 273.312 
L 224.091518 273.312 
L 224.091518 143.817109 
L 222.470751 143.817109 
z
" clip-path="url(#pd4a298b0a8)" style="fill: #1f77b4"/>
   </g>
   <g id="patch_100">
    <path d="M 224.091518 273.312 
L 225.712284 273.312 
L 225.712284 145.050394 
L 224.091518 145.050394 
z
" clip-path="url(#pd4a298b0a8)" style="fill: #1f77b4"/>
   </g>
   <g id="patch_101">
    <path d="M 225.712284 273.312 
L 227.333051 273.312 
L 227.333051 141.967182 
L 225.712284 141.967182 
z
" clip-path="url(#pd4a298b0a8)" style="fill: #1f77b4"/>
   </g>
   <g id="patch_102">
    <path d="M 227.333051 273.312 
L 228.953818 273.312 
L 228.953818 155.533314 
L 227.333051 155.533314 
z
" clip-path="url(#pd4a298b0a8)" style="fill: #1f77b4"/>
   </g>
   <g id="patch_103">
    <path d="M 228.953818 273.312 
L 230.574585 273.312 
L 230.574585 143.200467 
L 228.953818 143.200467 
z
" clip-path="url(#pd4a298b0a8)" style="fill: #1f77b4"/>
   </g>
   <g id="patch_104">
    <path d="M 230.574585 273.312 
L 232.195351 273.312 
L 232.195351 146.283679 
L 230.574585 146.283679 
z
" clip-path="url(#pd4a298b0a8)" style="fill: #1f77b4"/>
   </g>
   <g id="patch_105">
    <path d="M 232.195351 273.312 
L 233.816118 273.312 
L 233.816118 145.050394 
L 232.195351 145.050394 
z
" clip-path="url(#pd4a298b0a8)" style="fill: #1f77b4"/>
   </g>
   <g id="patch_106">
    <path d="M 233.816118 273.312 
L 235.436885 273.312 
L 235.436885 143.200467 
L 233.816118 143.200467 
z
" clip-path="url(#pd4a298b0a8)" style="fill: #1f77b4"/>
   </g>
   <g id="patch_107">
    <path d="M 235.436885 273.312 
L 237.057652 273.312 
L 237.057652 146.283679 
L 235.436885 146.283679 
z
" clip-path="url(#pd4a298b0a8)" style="fill: #1f77b4"/>
   </g>
   <g id="patch_108">
    <path d="M 237.057652 273.312 
L 238.678418 273.312 
L 238.678418 140.733898 
L 237.057652 140.733898 
z
" clip-path="url(#pd4a298b0a8)" style="fill: #1f77b4"/>
   </g>
   <g id="patch_109">
    <path d="M 238.678418 273.312 
L 240.299185 273.312 
L 240.299185 139.500613 
L 238.678418 139.500613 
z
" clip-path="url(#pd4a298b0a8)" style="fill: #1f77b4"/>
   </g>
   <g id="patch_110">
    <path d="M 240.299185 273.312 
L 241.919952 273.312 
L 241.919952 139.500613 
L 240.299185 139.500613 
z
" clip-path="url(#pd4a298b0a8)" style="fill: #1f77b4"/>
   </g>
   <g id="patch_111">
    <path d="M 241.919952 273.312 
L 243.540719 273.312 
L 243.540719 140.733898 
L 241.919952 140.733898 
z
" clip-path="url(#pd4a298b0a8)" style="fill: #1f77b4"/>
   </g>
   <g id="patch_112">
    <path d="M 243.540719 273.312 
L 245.161485 273.312 
L 245.161485 129.634336 
L 243.540719 129.634336 
z
" clip-path="url(#pd4a298b0a8)" style="fill: #1f77b4"/>
   </g>
   <g id="patch_113">
    <path d="M 245.161485 273.312 
L 246.782252 273.312 
L 246.782252 131.484263 
L 245.161485 131.484263 
z
" clip-path="url(#pd4a298b0a8)" style="fill: #1f77b4"/>
   </g>
   <g id="patch_114">
    <path d="M 246.782252 273.312 
L 248.403019 273.312 
L 248.403019 138.267328 
L 246.782252 138.267328 
z
" clip-path="url(#pd4a298b0a8)" style="fill: #1f77b4"/>
   </g>
   <g id="patch_115">
    <path d="M 248.403019 273.312 
L 250.023785 273.312 
L 250.023785 134.567474 
L 248.403019 134.567474 
z
" clip-path="url(#pd4a298b0a8)" style="fill: #1f77b4"/>
   </g>
   <g id="patch_116">
    <path d="M 250.023785 273.312 
L 251.644552 273.312 
L 251.644552 138.883971 
L 250.023785 138.883971 
z
" clip-path="url(#pd4a298b0a8)" style="fill: #1f77b4"/>
   </g>
   <g id="patch_117">
    <path d="M 251.644552 273.312 
L 253.265319 273.312 
L 253.265319 127.167766 
L 251.644552 127.167766 
z
" clip-path="url(#pd4a298b0a8)" style="fill: #1f77b4"/>
   </g>
   <g id="patch_118">
    <path d="M 253.265319 273.312 
L 254.886086 273.312 
L 254.886086 132.717547 
L 253.265319 132.717547 
z
" clip-path="url(#pd4a298b0a8)" style="fill: #1f77b4"/>
   </g>
   <g id="patch_119">
    <path d="M 254.886086 273.312 
L 256.506852 273.312 
L 256.506852 111.751708 
L 254.886086 111.751708 
z
" clip-path="url(#pd4a298b0a8)" style="fill: #1f77b4"/>
   </g>
   <g id="patch_120">
    <path d="M 256.506852 273.312 
L 258.127619 273.312 
L 258.127619 118.534774 
L 256.506852 118.534774 
z
" clip-path="url(#pd4a298b0a8)" style="fill: #1f77b4"/>
   </g>
   <g id="patch_121">
    <path d="M 258.127619 273.312 
L 259.748386 273.312 
L 259.748386 117.918131 
L 258.127619 117.918131 
z
" clip-path="url(#pd4a298b0a8)" style="fill: #1f77b4"/>
   </g>
   <g id="patch_122">
    <path d="M 259.748386 273.312 
L 261.369153 273.312 
L 261.369153 121.001343 
L 259.748386 121.001343 
z
" clip-path="url(#pd4a298b0a8)" style="fill: #1f77b4"/>
   </g>
   <g id="patch_123">
    <path d="M 261.369153 273.312 
L 262.989919 273.312 
L 262.989919 102.502073 
L 261.369153 102.502073 
z
" clip-path="url(#pd4a298b0a8)" style="fill: #1f77b4"/>
   </g>
   <g id="patch_124">
    <path d="M 262.989919 273.312 
L 264.610686 273.312 
L 264.610686 145.050394 
L 262.989919 145.050394 
z
" clip-path="url(#pd4a298b0a8)" style="fill: #1f77b4"/>
   </g>
   <g id="patch_125">
    <path d="M 264.610686 273.312 
L 266.231453 273.312 
L 266.231453 121.617985 
L 264.610686 121.617985 
z
" clip-path="url(#pd4a298b0a8)" style="fill: #1f77b4"/>
   </g>
   <g id="patch_126">
    <path d="M 266.231453 273.312 
L 267.85222 273.312 
L 267.85222 132.717547 
L 266.231453 132.717547 
z
" clip-path="url(#pd4a298b0a8)" style="fill: #1f77b4"/>
   </g>
   <g id="patch_127">
    <path d="M 267.85222 273.312 
L 269.472986 273.312 
L 269.472986 120.384701 
L 267.85222 120.384701 
z
" clip-path="url(#pd4a298b0a8)" style="fill: #1f77b4"/>
   </g>
   <g id="patch_128">
    <path d="M 269.472986 273.312 
L 271.093753 273.312 
L 271.093753 131.484263 
L 269.472986 131.484263 
z
" clip-path="url(#pd4a298b0a8)" style="fill: #1f77b4"/>
   </g>
   <g id="patch_129">
    <path d="M 271.093753 273.312 
L 272.71452 273.312 
L 272.71452 112.36835 
L 271.093753 112.36835 
z
" clip-path="url(#pd4a298b0a8)" style="fill: #1f77b4"/>
   </g>
   <g id="patch_130">
    <path d="M 272.71452 273.312 
L 274.335286 273.312 
L 274.335286 113.601635 
L 272.71452 113.601635 
z
" clip-path="url(#pd4a298b0a8)" style="fill: #1f77b4"/>
   </g>
   <g id="patch_131">
    <path d="M 274.335286 273.312 
L 275.956053 273.312 
L 275.956053 92.635796 
L 274.335286 92.635796 
z
" clip-path="url(#pd4a298b0a8)" style="fill: #1f77b4"/>
   </g>
   <g id="patch_132">
    <path d="M 275.956053 273.312 
L 277.57682 273.312 
L 277.57682 100.035504 
L 275.956053 100.035504 
z
" clip-path="url(#pd4a298b0a8)" style="fill: #1f77b4"/>
   </g>
   <g id="patch_133">
    <path d="M 277.57682 273.312 
L 279.197587 273.312 
L 279.197587 110.518423 
L 277.57682 110.518423 
z
" clip-path="url(#pd4a298b0a8)" style="fill: #1f77b4"/>
   </g>
   <g id="patch_134">
    <path d="M 279.197587 273.312 
L 280.818353 273.312 
L 280.818353 93.252438 
L 279.197587 93.252438 
z
" clip-path="url(#pd4a298b0a8)" style="fill: #1f77b4"/>
   </g>
   <g id="patch_135">
    <path d="M 280.818353 273.312 
L 282.43912 273.312 
L 282.43912 114.218277 
L 280.818353 114.218277 
z
" clip-path="url(#pd4a298b0a8)" style="fill: #1f77b4"/>
   </g>
   <g id="patch_136">
    <path d="M 282.43912 273.312 
L 284.059887 273.312 
L 284.059887 121.617985 
L 282.43912 121.617985 
z
" clip-path="url(#pd4a298b0a8)" style="fill: #1f77b4"/>
   </g>
   <g id="patch_137">
    <path d="M 284.059887 273.312 
L 285.680654 273.312 
L 285.680654 101.885431 
L 284.059887 101.885431 
z
" clip-path="url(#pd4a298b0a8)" style="fill: #1f77b4"/>
   </g>
   <g id="patch_138">
    <path d="M 285.680654 273.312 
L 287.30142 273.312 
L 287.30142 117.301489 
L 285.680654 117.301489 
z
" clip-path="url(#pd4a298b0a8)" style="fill: #1f77b4"/>
   </g>
   <g id="patch_139">
    <path d="M 287.30142 273.312 
L 288.922187 273.312 
L 288.922187 116.068204 
L 287.30142 116.068204 
z
" clip-path="url(#pd4a298b0a8)" style="fill: #1f77b4"/>
   </g>
   <g id="patch_140">
    <path d="M 288.922187 273.312 
L 290.542954 273.312 
L 290.542954 96.952292 
L 288.922187 96.952292 
z
" clip-path="url(#pd4a298b0a8)" style="fill: #1f77b4"/>
   </g>
   <g id="patch_141">
    <path d="M 290.542954 273.312 
L 292.163721 273.312 
L 292.163721 110.518423 
L 290.542954 110.518423 
z
" clip-path="url(#pd4a298b0a8)" style="fill: #1f77b4"/>
   </g>
   <g id="patch_142">
    <path d="M 292.163721 273.312 
L 293.784487 273.312 
L 293.784487 104.352 
L 292.163721 104.352 
z
" clip-path="url(#pd4a298b0a8)" style="fill: #1f77b4"/>
   </g>
   <g id="patch_143">
    <path d="M 293.784487 273.312 
L 295.405254 273.312 
L 295.405254 124.084555 
L 293.784487 124.084555 
z
" clip-path="url(#pd4a298b0a8)" style="fill: #1f77b4"/>
   </g>
   <g id="patch_144">
    <path d="M 295.405254 273.312 
L 297.026021 273.312 
L 297.026021 92.635796 
L 295.405254 92.635796 
z
" clip-path="url(#pd4a298b0a8)" style="fill: #1f77b4"/>
   </g>
   <g id="patch_145">
    <path d="M 297.026021 273.312 
L 298.646787 273.312 
L 298.646787 104.352 
L 297.026021 104.352 
z
" clip-path="url(#pd4a298b0a8)" style="fill: #1f77b4"/>
   </g>
   <g id="patch_146">
    <path d="M 298.646787 273.312 
L 300.267554 273.312 
L 300.267554 100.652146 
L 298.646787 100.652146 
z
" clip-path="url(#pd4a298b0a8)" style="fill: #1f77b4"/>
   </g>
   <g id="patch_147">
    <path d="M 300.267554 273.312 
L 301.888321 273.312 
L 301.888321 81.536234 
L 300.267554 81.536234 
z
" clip-path="url(#pd4a298b0a8)" style="fill: #1f77b4"/>
   </g>
   <g id="patch_148">
    <path d="M 301.888321 273.312 
L 303.509088 273.312 
L 303.509088 103.118715 
L 301.888321 103.118715 
z
" clip-path="url(#pd4a298b0a8)" style="fill: #1f77b4"/>
   </g>
   <g id="patch_149">
    <path d="M 303.509088 273.312 
L 305.129854 273.312 
L 305.129854 103.735358 
L 303.509088 103.735358 
z
" clip-path="url(#pd4a298b0a8)" style="fill: #1f77b4"/>
   </g>
   <g id="patch_150">
    <path d="M 305.129854 273.312 
L 306.750621 273.312 
L 306.750621 74.753168 
L 305.129854 74.753168 
z
" clip-path="url(#pd4a298b0a8)" style="fill: #1f77b4"/>
   </g>
   <g id="patch_151">
    <path d="M 306.750621 273.312 
L 308.371388 273.312 
L 308.371388 86.469372 
L 306.750621 86.469372 
z
" clip-path="url(#pd4a298b0a8)" style="fill: #1f77b4"/>
   </g>
   <g id="patch_152">
    <path d="M 308.371388 273.312 
L 309.992155 273.312 
L 309.992155 91.402511 
L 308.371388 91.402511 
z
" clip-path="url(#pd4a298b0a8)" style="fill: #1f77b4"/>
   </g>
   <g id="patch_153">
    <path d="M 309.992155 273.312 
L 311.612921 273.312 
L 311.612921 88.935942 
L 309.992155 88.935942 
z
" clip-path="url(#pd4a298b0a8)" style="fill: #1f77b4"/>
   </g>
   <g id="patch_154">
    <path d="M 311.612921 273.312 
L 313.233688 273.312 
L 313.233688 92.635796 
L 311.612921 92.635796 
z
" clip-path="url(#pd4a298b0a8)" style="fill: #1f77b4"/>
   </g>
   <g id="patch_155">
    <path d="M 313.233688 273.312 
L 314.854455 273.312 
L 314.854455 103.118715 
L 313.233688 103.118715 
z
" clip-path="url(#pd4a298b0a8)" style="fill: #1f77b4"/>
   </g>
   <g id="patch_156">
    <path d="M 314.854455 273.312 
L 316.475221 273.312 
L 316.475221 100.035504 
L 314.854455 100.035504 
z
" clip-path="url(#pd4a298b0a8)" style="fill: #1f77b4"/>
   </g>
   <g id="patch_157">
    <path d="M 316.475221 273.312 
L 318.095988 273.312 
L 318.095988 87.086015 
L 316.475221 87.086015 
z
" clip-path="url(#pd4a298b0a8)" style="fill: #1f77b4"/>
   </g>
   <g id="patch_158">
    <path d="M 318.095988 273.312 
L 319.716755 273.312 
L 319.716755 76.603095 
L 318.095988 76.603095 
z
" clip-path="url(#pd4a298b0a8)" style="fill: #1f77b4"/>
   </g>
   <g id="patch_159">
    <path d="M 319.716755 273.312 
L 321.337522 273.312 
L 321.337522 93.252438 
L 319.716755 93.252438 
z
" clip-path="url(#pd4a298b0a8)" style="fill: #1f77b4"/>
   </g>
   <g id="patch_160">
    <path d="M 321.337522 273.312 
L 322.958288 273.312 
L 322.958288 79.069664 
L 321.337522 79.069664 
z
" clip-path="url(#pd4a298b0a8)" style="fill: #1f77b4"/>
   </g>
   <g id="patch_161">
    <path d="M 322.958288 273.312 
L 324.579055 273.312 
L 324.579055 72.903241 
L 322.958288 72.903241 
z
" clip-path="url(#pd4a298b0a8)" style="fill: #1f77b4"/>
   </g>
   <g id="patch_162">
    <path d="M 324.579055 273.312 
L 326.199822 273.312 
L 326.199822 64.886891 
L 324.579055 64.886891 
z
" clip-path="url(#pd4a298b0a8)" style="fill: #1f77b4"/>
   </g>
   <g id="patch_163">
    <path d="M 326.199822 273.312 
L 327.820589 273.312 
L 327.820589 82.152876 
L 326.199822 82.152876 
z
" clip-path="url(#pd4a298b0a8)" style="fill: #1f77b4"/>
   </g>
   <g id="patch_164">
    <path d="M 327.820589 273.312 
L 329.441355 273.312 
L 329.441355 73.519883 
L 327.820589 73.519883 
z
" clip-path="url(#pd4a298b0a8)" style="fill: #1f77b4"/>
   </g>
   <g id="patch_165">
    <path d="M 329.441355 273.312 
L 331.062122 273.312 
L 331.062122 71.053314 
L 329.441355 71.053314 
z
" clip-path="url(#pd4a298b0a8)" style="fill: #1f77b4"/>
   </g>
   <g id="patch_166">
    <path d="M 331.062122 273.312 
L 332.682889 273.312 
L 332.682889 73.519883 
L 331.062122 73.519883 
z
" clip-path="url(#pd4a298b0a8)" style="fill: #1f77b4"/>
   </g>
   <g id="patch_167">
    <path d="M 332.682889 273.312 
L 334.303656 273.312 
L 334.303656 74.753168 
L 332.682889 74.753168 
z
" clip-path="url(#pd4a298b0a8)" style="fill: #1f77b4"/>
   </g>
   <g id="patch_168">
    <path d="M 334.303656 273.312 
L 335.924422 273.312 
L 335.924422 72.286599 
L 334.303656 72.286599 
z
" clip-path="url(#pd4a298b0a8)" style="fill: #1f77b4"/>
   </g>
   <g id="patch_169">
    <path d="M 335.924422 273.312 
L 337.545189 273.312 
L 337.545189 61.187036 
L 335.924422 61.187036 
z
" clip-path="url(#pd4a298b0a8)" style="fill: #1f77b4"/>
   </g>
   <g id="patch_170">
    <path d="M 337.545189 273.312 
L 339.165956 273.312 
L 339.165956 75.986453 
L 337.545189 75.986453 
z
" clip-path="url(#pd4a298b0a8)" style="fill: #1f77b4"/>
   </g>
   <g id="patch_171">
    <path d="M 339.165956 273.312 
L 340.786722 273.312 
L 340.786722 79.686307 
L 339.165956 79.686307 
z
" clip-path="url(#pd4a298b0a8)" style="fill: #1f77b4"/>
   </g>
   <g id="patch_172">
    <path d="M 340.786722 273.312 
L 342.407489 273.312 
L 342.407489 65.503533 
L 340.786722 65.503533 
z
" clip-path="url(#pd4a298b0a8)" style="fill: #1f77b4"/>
   </g>
   <g id="patch_173">
    <path d="M 342.407489 273.312 
L 344.028256 273.312 
L 344.028256 71.053314 
L 342.407489 71.053314 
z
" clip-path="url(#pd4a298b0a8)" style="fill: #1f77b4"/>
   </g>
   <g id="patch_174">
    <path d="M 344.028256 273.312 
L 345.649023 273.312 
L 345.649023 53.787328 
L 344.028256 53.787328 
z
" clip-path="url(#pd4a298b0a8)" style="fill: #1f77b4"/>
   </g>
   <g id="patch_175">
    <path d="M 345.649023 273.312 
L 347.269789 273.312 
L 347.269789 64.270248 
L 345.649023 64.270248 
z
" clip-path="url(#pd4a298b0a8)" style="fill: #1f77b4"/>
   </g>
   <g id="patch_176">
    <path d="M 347.269789 273.312 
L 348.890556 273.312 
L 348.890556 77.83638 
L 347.269789 77.83638 
z
" clip-path="url(#pd4a298b0a8)" style="fill: #1f77b4"/>
   </g>
   <g id="patch_177">
    <path d="M 348.890556 273.312 
L 350.511323 273.312 
L 350.511323 68.586745 
L 348.890556 68.586745 
z
" clip-path="url(#pd4a298b0a8)" style="fill: #1f77b4"/>
   </g>
   <g id="patch_178">
    <path d="M 350.511323 273.312 
L 352.13209 273.312 
L 352.13209 45.770978 
L 350.511323 45.770978 
z
" clip-path="url(#pd4a298b0a8)" style="fill: #1f77b4"/>
   </g>
   <g id="patch_179">
    <path d="M 352.13209 273.312 
L 353.752856 273.312 
L 353.752856 71.053314 
L 352.13209 71.053314 
z
" clip-path="url(#pd4a298b0a8)" style="fill: #1f77b4"/>
   </g>
   <g id="patch_180">
    <path d="M 353.752856 273.312 
L 355.373623 273.312 
L 355.373623 53.787328 
L 353.752856 53.787328 
z
" clip-path="url(#pd4a298b0a8)" style="fill: #1f77b4"/>
   </g>
   <g id="patch_181">
    <path d="M 355.373623 273.312 
L 356.99439 273.312 
L 356.99439 75.986453 
L 355.373623 75.986453 
z
" clip-path="url(#pd4a298b0a8)" style="fill: #1f77b4"/>
   </g>
   <g id="patch_182">
    <path d="M 356.99439 273.312 
L 358.615157 273.312 
L 358.615157 45.770978 
L 356.99439 45.770978 
z
" clip-path="url(#pd4a298b0a8)" style="fill: #1f77b4"/>
   </g>
   <g id="patch_183">
    <path d="M 358.615157 273.312 
L 360.235923 273.312 
L 360.235923 69.203387 
L 358.615157 69.203387 
z
" clip-path="url(#pd4a298b0a8)" style="fill: #1f77b4"/>
   </g>
   <g id="patch_184">
    <path d="M 360.235923 273.312 
L 361.85669 273.312 
L 361.85669 46.38762 
L 360.235923 46.38762 
z
" clip-path="url(#pd4a298b0a8)" style="fill: #1f77b4"/>
   </g>
   <g id="patch_185">
    <path d="M 361.85669 273.312 
L 363.477457 273.312 
L 363.477457 31.588204 
L 361.85669 31.588204 
z
" clip-path="url(#pd4a298b0a8)" style="fill: #1f77b4"/>
   </g>
   <g id="patch_186">
    <path d="M 363.477457 273.312 
L 365.098223 273.312 
L 365.098223 56.253898 
L 363.477457 56.253898 
z
" clip-path="url(#pd4a298b0a8)" style="fill: #1f77b4"/>
   </g>
   <g id="patch_187">
    <path d="M 365.098223 273.312 
L 366.71899 273.312 
L 366.71899 64.270248 
L 365.098223 64.270248 
z
" clip-path="url(#pd4a298b0a8)" style="fill: #1f77b4"/>
   </g>
   <g id="patch_188">
    <path d="M 366.71899 273.312 
L 368.339757 273.312 
L 368.339757 35.904701 
L 366.71899 35.904701 
z
" clip-path="url(#pd4a298b0a8)" style="fill: #1f77b4"/>
   </g>
   <g id="patch_189">
    <path d="M 368.339757 273.312 
L 369.960524 273.312 
L 369.960524 55.637255 
L 368.339757 55.637255 
z
" clip-path="url(#pd4a298b0a8)" style="fill: #1f77b4"/>
   </g>
   <g id="patch_190">
    <path d="M 369.960524 273.312 
L 371.58129 273.312 
L 371.58129 34.054774 
L 369.960524 34.054774 
z
" clip-path="url(#pd4a298b0a8)" style="fill: #1f77b4"/>
   </g>
   <g id="patch_191">
    <path d="M 371.58129 273.312 
L 373.202057 273.312 
L 373.202057 49.470832 
L 371.58129 49.470832 
z
" clip-path="url(#pd4a298b0a8)" style="fill: #1f77b4"/>
   </g>
   <g id="patch_192">
    <path d="M 373.202057 273.312 
L 374.822824 273.312 
L 374.822824 45.770978 
L 373.202057 45.770978 
z
" clip-path="url(#pd4a298b0a8)" style="fill: #1f77b4"/>
   </g>
   <g id="patch_193">
    <path d="M 374.822824 273.312 
L 376.443591 273.312 
L 376.443591 42.071124 
L 374.822824 42.071124 
z
" clip-path="url(#pd4a298b0a8)" style="fill: #1f77b4"/>
   </g>
   <g id="patch_194">
    <path d="M 376.443591 273.312 
L 378.064357 273.312 
L 378.064357 51.320759 
L 376.443591 51.320759 
z
" clip-path="url(#pd4a298b0a8)" style="fill: #1f77b4"/>
   </g>
   <g id="patch_195">
    <path d="M 378.064357 273.312 
L 379.685124 273.312 
L 379.685124 36.521343 
L 378.064357 36.521343 
z
" clip-path="url(#pd4a298b0a8)" style="fill: #1f77b4"/>
   </g>
   <g id="patch_196">
    <path d="M 379.685124 273.312 
L 381.305891 273.312 
L 381.305891 30.971562 
L 379.685124 30.971562 
z
" clip-path="url(#pd4a298b0a8)" style="fill: #1f77b4"/>
   </g>
   <g id="patch_197">
    <path d="M 381.305891 273.312 
L 382.926658 273.312 
L 382.926658 19.872 
L 381.305891 19.872 
z
" clip-path="url(#pd4a298b0a8)" style="fill: #1f77b4"/>
   </g>
   <g id="patch_198">
    <path d="M 382.926658 273.312 
L 384.547424 273.312 
L 384.547424 39.604555 
L 382.926658 39.604555 
z
" clip-path="url(#pd4a298b0a8)" style="fill: #1f77b4"/>
   </g>
   <g id="patch_199">
    <path d="M 384.547424 273.312 
L 386.168191 273.312 
L 386.168191 22.338569 
L 384.547424 22.338569 
z
" clip-path="url(#pd4a298b0a8)" style="fill: #1f77b4"/>
   </g>
   <g id="patch_200">
    <path d="M 386.168191 273.312 
L 387.788958 273.312 
L 387.788958 28.504993 
L 386.168191 28.504993 
z
" clip-path="url(#pd4a298b0a8)" style="fill: #1f77b4"/>
   </g>
   <g id="patch_201">
    <path d="M 387.788958 273.312 
L 389.409724 273.312 
L 389.409724 20.488642 
L 387.788958 20.488642 
z
" clip-path="url(#pd4a298b0a8)" style="fill: #1f77b4"/>
   </g>
   <g id="patch_202">
    <path d="M 389.409724 273.312 
L 391.030491 273.312 
L 391.030491 29.738277 
L 389.409724 29.738277 
z
" clip-path="url(#pd4a298b0a8)" style="fill: #1f77b4"/>
   </g>
   <g id="matplotlib.axis_1">
    <g id="xtick_1">
     <g id="line2d_1">
      <defs>
       <path id="me80e67d159" d="M 0 0 
L 0 3.5 
" style="stroke: #000000; stroke-width: 0.8"/>
      </defs>
      <g>
       <use xlink:href="#me80e67d159" x="66.376477" y="273.312" style="stroke: #000000; stroke-width: 0.8"/>
      </g>
     </g>
     <g id="text_1">
      <!-- 0.0 -->
      <g transform="translate(58.424915 287.910437)scale(0.1 -0.1)">
       <defs>
        <path id="DejaVuSans-30" d="M 2034 4250 
Q 1547 4250 1301 3770 
Q 1056 3291 1056 2328 
Q 1056 1369 1301 889 
Q 1547 409 2034 409 
Q 2525 409 2770 889 
Q 3016 1369 3016 2328 
Q 3016 3291 2770 3770 
Q 2525 4250 2034 4250 
z
M 2034 4750 
Q 2819 4750 3233 4129 
Q 3647 3509 3647 2328 
Q 3647 1150 3233 529 
Q 2819 -91 2034 -91 
Q 1250 -91 836 529 
Q 422 1150 422 2328 
Q 422 3509 836 4129 
Q 1250 4750 2034 4750 
z
" transform="scale(0.015625)"/>
        <path id="DejaVuSans-2e" d="M 684 794 
L 1344 794 
L 1344 0 
L 684 0 
L 684 794 
z
" transform="scale(0.015625)"/>
       </defs>
       <use xlink:href="#DejaVuSans-30"/>
       <use xlink:href="#DejaVuSans-2e" x="63.623047"/>
       <use xlink:href="#DejaVuSans-30" x="95.410156"/>
      </g>
     </g>
    </g>
    <g id="xtick_2">
     <g id="line2d_2">
      <g>
       <use xlink:href="#me80e67d159" x="131.307386" y="273.312" style="stroke: #000000; stroke-width: 0.8"/>
      </g>
     </g>
     <g id="text_2">
      <!-- 0.2 -->
      <g transform="translate(123.355824 287.910437)scale(0.1 -0.1)">
       <defs>
        <path id="DejaVuSans-32" d="M 1228 531 
L 3431 531 
L 3431 0 
L 469 0 
L 469 531 
Q 828 903 1448 1529 
Q 2069 2156 2228 2338 
Q 2531 2678 2651 2914 
Q 2772 3150 2772 3378 
Q 2772 3750 2511 3984 
Q 2250 4219 1831 4219 
Q 1534 4219 1204 4116 
Q 875 4013 500 3803 
L 500 4441 
Q 881 4594 1212 4672 
Q 1544 4750 1819 4750 
Q 2544 4750 2975 4387 
Q 3406 4025 3406 3419 
Q 3406 3131 3298 2873 
Q 3191 2616 2906 2266 
Q 2828 2175 2409 1742 
Q 1991 1309 1228 531 
z
" transform="scale(0.015625)"/>
       </defs>
       <use xlink:href="#DejaVuSans-30"/>
       <use xlink:href="#DejaVuSans-2e" x="63.623047"/>
       <use xlink:href="#DejaVuSans-32" x="95.410156"/>
      </g>
     </g>
    </g>
    <g id="xtick_3">
     <g id="line2d_3">
      <g>
       <use xlink:href="#me80e67d159" x="196.238295" y="273.312" style="stroke: #000000; stroke-width: 0.8"/>
      </g>
     </g>
     <g id="text_3">
      <!-- 0.4 -->
      <g transform="translate(188.286733 287.910437)scale(0.1 -0.1)">
       <defs>
        <path id="DejaVuSans-34" d="M 2419 4116 
L 825 1625 
L 2419 1625 
L 2419 4116 
z
M 2253 4666 
L 3047 4666 
L 3047 1625 
L 3713 1625 
L 3713 1100 
L 3047 1100 
L 3047 0 
L 2419 0 
L 2419 1100 
L 313 1100 
L 313 1709 
L 2253 4666 
z
" transform="scale(0.015625)"/>
       </defs>
       <use xlink:href="#DejaVuSans-30"/>
       <use xlink:href="#DejaVuSans-2e" x="63.623047"/>
       <use xlink:href="#DejaVuSans-34" x="95.410156"/>
      </g>
     </g>
    </g>
    <g id="xtick_4">
     <g id="line2d_4">
      <g>
       <use xlink:href="#me80e67d159" x="261.169205" y="273.312" style="stroke: #000000; stroke-width: 0.8"/>
      </g>
     </g>
     <g id="text_4">
      <!-- 0.6 -->
      <g transform="translate(253.217642 287.910437)scale(0.1 -0.1)">
       <defs>
        <path id="DejaVuSans-36" d="M 2113 2584 
Q 1688 2584 1439 2293 
Q 1191 2003 1191 1497 
Q 1191 994 1439 701 
Q 1688 409 2113 409 
Q 2538 409 2786 701 
Q 3034 994 3034 1497 
Q 3034 2003 2786 2293 
Q 2538 2584 2113 2584 
z
M 3366 4563 
L 3366 3988 
Q 3128 4100 2886 4159 
Q 2644 4219 2406 4219 
Q 1781 4219 1451 3797 
Q 1122 3375 1075 2522 
Q 1259 2794 1537 2939 
Q 1816 3084 2150 3084 
Q 2853 3084 3261 2657 
Q 3669 2231 3669 1497 
Q 3669 778 3244 343 
Q 2819 -91 2113 -91 
Q 1303 -91 875 529 
Q 447 1150 447 2328 
Q 447 3434 972 4092 
Q 1497 4750 2381 4750 
Q 2619 4750 2861 4703 
Q 3103 4656 3366 4563 
z
" transform="scale(0.015625)"/>
       </defs>
       <use xlink:href="#DejaVuSans-30"/>
       <use xlink:href="#DejaVuSans-2e" x="63.623047"/>
       <use xlink:href="#DejaVuSans-36" x="95.410156"/>
      </g>
     </g>
    </g>
    <g id="xtick_5">
     <g id="line2d_5">
      <g>
       <use xlink:href="#me80e67d159" x="326.100114" y="273.312" style="stroke: #000000; stroke-width: 0.8"/>
      </g>
     </g>
     <g id="text_5">
      <!-- 0.8 -->
      <g transform="translate(318.148551 287.910437)scale(0.1 -0.1)">
       <defs>
        <path id="DejaVuSans-38" d="M 2034 2216 
Q 1584 2216 1326 1975 
Q 1069 1734 1069 1313 
Q 1069 891 1326 650 
Q 1584 409 2034 409 
Q 2484 409 2743 651 
Q 3003 894 3003 1313 
Q 3003 1734 2745 1975 
Q 2488 2216 2034 2216 
z
M 1403 2484 
Q 997 2584 770 2862 
Q 544 3141 544 3541 
Q 544 4100 942 4425 
Q 1341 4750 2034 4750 
Q 2731 4750 3128 4425 
Q 3525 4100 3525 3541 
Q 3525 3141 3298 2862 
Q 3072 2584 2669 2484 
Q 3125 2378 3379 2068 
Q 3634 1759 3634 1313 
Q 3634 634 3220 271 
Q 2806 -91 2034 -91 
Q 1263 -91 848 271 
Q 434 634 434 1313 
Q 434 1759 690 2068 
Q 947 2378 1403 2484 
z
M 1172 3481 
Q 1172 3119 1398 2916 
Q 1625 2713 2034 2713 
Q 2441 2713 2670 2916 
Q 2900 3119 2900 3481 
Q 2900 3844 2670 4047 
Q 2441 4250 2034 4250 
Q 1625 4250 1398 4047 
Q 1172 3844 1172 3481 
z
" transform="scale(0.015625)"/>
       </defs>
       <use xlink:href="#DejaVuSans-30"/>
       <use xlink:href="#DejaVuSans-2e" x="63.623047"/>
       <use xlink:href="#DejaVuSans-38" x="95.410156"/>
      </g>
     </g>
    </g>
    <g id="xtick_6">
     <g id="line2d_6">
      <g>
       <use xlink:href="#me80e67d159" x="391.031023" y="273.312" style="stroke: #000000; stroke-width: 0.8"/>
      </g>
     </g>
     <g id="text_6">
      <!-- 1.0 -->
      <g transform="translate(383.07946 287.910437)scale(0.1 -0.1)">
       <defs>
        <path id="DejaVuSans-31" d="M 794 531 
L 1825 531 
L 1825 4091 
L 703 3866 
L 703 4441 
L 1819 4666 
L 2450 4666 
L 2450 531 
L 3481 531 
L 3481 0 
L 794 0 
L 794 531 
z
" transform="scale(0.015625)"/>
       </defs>
       <use xlink:href="#DejaVuSans-31"/>
       <use xlink:href="#DejaVuSans-2e" x="63.623047"/>
       <use xlink:href="#DejaVuSans-30" x="95.410156"/>
      </g>
     </g>
    </g>
    <g id="text_7">
     <!-- Propagation direction -->
     <g transform="translate(175.221719 301.588562)scale(0.1 -0.1)">
      <defs>
       <path id="DejaVuSans-50" d="M 1259 4147 
L 1259 2394 
L 2053 2394 
Q 2494 2394 2734 2622 
Q 2975 2850 2975 3272 
Q 2975 3691 2734 3919 
Q 2494 4147 2053 4147 
L 1259 4147 
z
M 628 4666 
L 2053 4666 
Q 2838 4666 3239 4311 
Q 3641 3956 3641 3272 
Q 3641 2581 3239 2228 
Q 2838 1875 2053 1875 
L 1259 1875 
L 1259 0 
L 628 0 
L 628 4666 
z
" transform="scale(0.015625)"/>
       <path id="DejaVuSans-72" d="M 2631 2963 
Q 2534 3019 2420 3045 
Q 2306 3072 2169 3072 
Q 1681 3072 1420 2755 
Q 1159 2438 1159 1844 
L 1159 0 
L 581 0 
L 581 3500 
L 1159 3500 
L 1159 2956 
Q 1341 3275 1631 3429 
Q 1922 3584 2338 3584 
Q 2397 3584 2469 3576 
Q 2541 3569 2628 3553 
L 2631 2963 
z
" transform="scale(0.015625)"/>
       <path id="DejaVuSans-6f" d="M 1959 3097 
Q 1497 3097 1228 2736 
Q 959 2375 959 1747 
Q 959 1119 1226 758 
Q 1494 397 1959 397 
Q 2419 397 2687 759 
Q 2956 1122 2956 1747 
Q 2956 2369 2687 2733 
Q 2419 3097 1959 3097 
z
M 1959 3584 
Q 2709 3584 3137 3096 
Q 3566 2609 3566 1747 
Q 3566 888 3137 398 
Q 2709 -91 1959 -91 
Q 1206 -91 779 398 
Q 353 888 353 1747 
Q 353 2609 779 3096 
Q 1206 3584 1959 3584 
z
" transform="scale(0.015625)"/>
       <path id="DejaVuSans-70" d="M 1159 525 
L 1159 -1331 
L 581 -1331 
L 581 3500 
L 1159 3500 
L 1159 2969 
Q 1341 3281 1617 3432 
Q 1894 3584 2278 3584 
Q 2916 3584 3314 3078 
Q 3713 2572 3713 1747 
Q 3713 922 3314 415 
Q 2916 -91 2278 -91 
Q 1894 -91 1617 61 
Q 1341 213 1159 525 
z
M 3116 1747 
Q 3116 2381 2855 2742 
Q 2594 3103 2138 3103 
Q 1681 3103 1420 2742 
Q 1159 2381 1159 1747 
Q 1159 1113 1420 752 
Q 1681 391 2138 391 
Q 2594 391 2855 752 
Q 3116 1113 3116 1747 
z
" transform="scale(0.015625)"/>
       <path id="DejaVuSans-61" d="M 2194 1759 
Q 1497 1759 1228 1600 
Q 959 1441 959 1056 
Q 959 750 1161 570 
Q 1363 391 1709 391 
Q 2188 391 2477 730 
Q 2766 1069 2766 1631 
L 2766 1759 
L 2194 1759 
z
M 3341 1997 
L 3341 0 
L 2766 0 
L 2766 531 
Q 2569 213 2275 61 
Q 1981 -91 1556 -91 
Q 1019 -91 701 211 
Q 384 513 384 1019 
Q 384 1609 779 1909 
Q 1175 2209 1959 2209 
L 2766 2209 
L 2766 2266 
Q 2766 2663 2505 2880 
Q 2244 3097 1772 3097 
Q 1472 3097 1187 3025 
Q 903 2953 641 2809 
L 641 3341 
Q 956 3463 1253 3523 
Q 1550 3584 1831 3584 
Q 2591 3584 2966 3190 
Q 3341 2797 3341 1997 
z
" transform="scale(0.015625)"/>
       <path id="DejaVuSans-67" d="M 2906 1791 
Q 2906 2416 2648 2759 
Q 2391 3103 1925 3103 
Q 1463 3103 1205 2759 
Q 947 2416 947 1791 
Q 947 1169 1205 825 
Q 1463 481 1925 481 
Q 2391 481 2648 825 
Q 2906 1169 2906 1791 
z
M 3481 434 
Q 3481 -459 3084 -895 
Q 2688 -1331 1869 -1331 
Q 1566 -1331 1297 -1286 
Q 1028 -1241 775 -1147 
L 775 -588 
Q 1028 -725 1275 -790 
Q 1522 -856 1778 -856 
Q 2344 -856 2625 -561 
Q 2906 -266 2906 331 
L 2906 616 
Q 2728 306 2450 153 
Q 2172 0 1784 0 
Q 1141 0 747 490 
Q 353 981 353 1791 
Q 353 2603 747 3093 
Q 1141 3584 1784 3584 
Q 2172 3584 2450 3431 
Q 2728 3278 2906 2969 
L 2906 3500 
L 3481 3500 
L 3481 434 
z
" transform="scale(0.015625)"/>
       <path id="DejaVuSans-74" d="M 1172 4494 
L 1172 3500 
L 2356 3500 
L 2356 3053 
L 1172 3053 
L 1172 1153 
Q 1172 725 1289 603 
Q 1406 481 1766 481 
L 2356 481 
L 2356 0 
L 1766 0 
Q 1100 0 847 248 
Q 594 497 594 1153 
L 594 3053 
L 172 3053 
L 172 3500 
L 594 3500 
L 594 4494 
L 1172 4494 
z
" transform="scale(0.015625)"/>
       <path id="DejaVuSans-69" d="M 603 3500 
L 1178 3500 
L 1178 0 
L 603 0 
L 603 3500 
z
M 603 4863 
L 1178 4863 
L 1178 4134 
L 603 4134 
L 603 4863 
z
" transform="scale(0.015625)"/>
       <path id="DejaVuSans-6e" d="M 3513 2113 
L 3513 0 
L 2938 0 
L 2938 2094 
Q 2938 2591 2744 2837 
Q 2550 3084 2163 3084 
Q 1697 3084 1428 2787 
Q 1159 2491 1159 1978 
L 1159 0 
L 581 0 
L 581 3500 
L 1159 3500 
L 1159 2956 
Q 1366 3272 1645 3428 
Q 1925 3584 2291 3584 
Q 2894 3584 3203 3211 
Q 3513 2838 3513 2113 
z
" transform="scale(0.015625)"/>
       <path id="DejaVuSans-20" transform="scale(0.015625)"/>
       <path id="DejaVuSans-64" d="M 2906 2969 
L 2906 4863 
L 3481 4863 
L 3481 0 
L 2906 0 
L 2906 525 
Q 2725 213 2448 61 
Q 2172 -91 1784 -91 
Q 1150 -91 751 415 
Q 353 922 353 1747 
Q 353 2572 751 3078 
Q 1150 3584 1784 3584 
Q 2172 3584 2448 3432 
Q 2725 3281 2906 2969 
z
M 947 1747 
Q 947 1113 1208 752 
Q 1469 391 1925 391 
Q 2381 391 2643 752 
Q 2906 1113 2906 1747 
Q 2906 2381 2643 2742 
Q 2381 3103 1925 3103 
Q 1469 3103 1208 2742 
Q 947 2381 947 1747 
z
" transform="scale(0.015625)"/>
       <path id="DejaVuSans-65" d="M 3597 1894 
L 3597 1613 
L 953 1613 
Q 991 1019 1311 708 
Q 1631 397 2203 397 
Q 2534 397 2845 478 
Q 3156 559 3463 722 
L 3463 178 
Q 3153 47 2828 -22 
Q 2503 -91 2169 -91 
Q 1331 -91 842 396 
Q 353 884 353 1716 
Q 353 2575 817 3079 
Q 1281 3584 2069 3584 
Q 2775 3584 3186 3129 
Q 3597 2675 3597 1894 
z
M 3022 2063 
Q 3016 2534 2758 2815 
Q 2500 3097 2075 3097 
Q 1594 3097 1305 2825 
Q 1016 2553 972 2059 
L 3022 2063 
z
" transform="scale(0.015625)"/>
       <path id="DejaVuSans-63" d="M 3122 3366 
L 3122 2828 
Q 2878 2963 2633 3030 
Q 2388 3097 2138 3097 
Q 1578 3097 1268 2742 
Q 959 2388 959 1747 
Q 959 1106 1268 751 
Q 1578 397 2138 397 
Q 2388 397 2633 464 
Q 2878 531 3122 666 
L 3122 134 
Q 2881 22 2623 -34 
Q 2366 -91 2075 -91 
Q 1284 -91 818 406 
Q 353 903 353 1747 
Q 353 2603 823 3093 
Q 1294 3584 2113 3584 
Q 2378 3584 2631 3529 
Q 2884 3475 3122 3366 
z
" transform="scale(0.015625)"/>
      </defs>
      <use xlink:href="#DejaVuSans-50"/>
      <use xlink:href="#DejaVuSans-72" x="58.552734"/>
      <use xlink:href="#DejaVuSans-6f" x="97.416016"/>
      <use xlink:href="#DejaVuSans-70" x="158.597656"/>
      <use xlink:href="#DejaVuSans-61" x="222.074219"/>
      <use xlink:href="#DejaVuSans-67" x="283.353516"/>
      <use xlink:href="#DejaVuSans-61" x="346.830078"/>
      <use xlink:href="#DejaVuSans-74" x="408.109375"/>
      <use xlink:href="#DejaVuSans-69" x="447.318359"/>
      <use xlink:href="#DejaVuSans-6f" x="475.101562"/>
      <use xlink:href="#DejaVuSans-6e" x="536.283203"/>
      <use xlink:href="#DejaVuSans-20" x="599.662109"/>
      <use xlink:href="#DejaVuSans-64" x="631.449219"/>
      <use xlink:href="#DejaVuSans-69" x="694.925781"/>
      <use xlink:href="#DejaVuSans-72" x="722.708984"/>
      <use xlink:href="#DejaVuSans-65" x="761.572266"/>
      <use xlink:href="#DejaVuSans-63" x="823.095703"/>
      <use xlink:href="#DejaVuSans-74" x="878.076172"/>
      <use xlink:href="#DejaVuSans-69" x="917.285156"/>
      <use xlink:href="#DejaVuSans-6f" x="945.068359"/>
      <use xlink:href="#DejaVuSans-6e" x="1006.25"/>
     </g>
    </g>
   </g>
   <g id="matplotlib.axis_2">
    <g id="ytick_1">
     <g id="line2d_7">
      <defs>
       <path id="m3c8906a6e5" d="M 0 0 
L -3.5 0 
" style="stroke: #000000; stroke-width: 0.8"/>
      </defs>
      <g>
       <use xlink:href="#m3c8906a6e5" x="50.14375" y="273.312" style="stroke: #000000; stroke-width: 0.8"/>
      </g>
     </g>
     <g id="text_8">
      <!-- 0.00 -->
      <g transform="translate(20.878125 277.111219)scale(0.1 -0.1)">
       <use xlink:href="#DejaVuSans-30"/>
       <use xlink:href="#DejaVuSans-2e" x="63.623047"/>
       <use xlink:href="#DejaVuSans-30" x="95.410156"/>
       <use xlink:href="#DejaVuSans-30" x="159.033203"/>
      </g>
     </g>
    </g>
    <g id="ytick_2">
     <g id="line2d_8">
      <g>
       <use xlink:href="#m3c8906a6e5" x="50.14375" y="242.527482" style="stroke: #000000; stroke-width: 0.8"/>
      </g>
     </g>
     <g id="text_9">
      <!-- 0.25 -->
      <g transform="translate(20.878125 246.3267)scale(0.1 -0.1)">
       <defs>
        <path id="DejaVuSans-35" d="M 691 4666 
L 3169 4666 
L 3169 4134 
L 1269 4134 
L 1269 2991 
Q 1406 3038 1543 3061 
Q 1681 3084 1819 3084 
Q 2600 3084 3056 2656 
Q 3513 2228 3513 1497 
Q 3513 744 3044 326 
Q 2575 -91 1722 -91 
Q 1428 -91 1123 -41 
Q 819 9 494 109 
L 494 744 
Q 775 591 1075 516 
Q 1375 441 1709 441 
Q 2250 441 2565 725 
Q 2881 1009 2881 1497 
Q 2881 1984 2565 2268 
Q 2250 2553 1709 2553 
Q 1456 2553 1204 2497 
Q 953 2441 691 2322 
L 691 4666 
z
" transform="scale(0.015625)"/>
       </defs>
       <use xlink:href="#DejaVuSans-30"/>
       <use xlink:href="#DejaVuSans-2e" x="63.623047"/>
       <use xlink:href="#DejaVuSans-32" x="95.410156"/>
       <use xlink:href="#DejaVuSans-35" x="159.033203"/>
      </g>
     </g>
    </g>
    <g id="ytick_3">
     <g id="line2d_9">
      <g>
       <use xlink:href="#m3c8906a6e5" x="50.14375" y="211.742963" style="stroke: #000000; stroke-width: 0.8"/>
      </g>
     </g>
     <g id="text_10">
      <!-- 0.50 -->
      <g transform="translate(20.878125 215.542182)scale(0.1 -0.1)">
       <use xlink:href="#DejaVuSans-30"/>
       <use xlink:href="#DejaVuSans-2e" x="63.623047"/>
       <use xlink:href="#DejaVuSans-35" x="95.410156"/>
       <use xlink:href="#DejaVuSans-30" x="159.033203"/>
      </g>
     </g>
    </g>
    <g id="ytick_4">
     <g id="line2d_10">
      <g>
       <use xlink:href="#m3c8906a6e5" x="50.14375" y="180.958445" style="stroke: #000000; stroke-width: 0.8"/>
      </g>
     </g>
     <g id="text_11">
      <!-- 0.75 -->
      <g transform="translate(20.878125 184.757663)scale(0.1 -0.1)">
       <defs>
        <path id="DejaVuSans-37" d="M 525 4666 
L 3525 4666 
L 3525 4397 
L 1831 0 
L 1172 0 
L 2766 4134 
L 525 4134 
L 525 4666 
z
" transform="scale(0.015625)"/>
       </defs>
       <use xlink:href="#DejaVuSans-30"/>
       <use xlink:href="#DejaVuSans-2e" x="63.623047"/>
       <use xlink:href="#DejaVuSans-37" x="95.410156"/>
       <use xlink:href="#DejaVuSans-35" x="159.033203"/>
      </g>
     </g>
    </g>
    <g id="ytick_5">
     <g id="line2d_11">
      <g>
       <use xlink:href="#m3c8906a6e5" x="50.14375" y="150.173926" style="stroke: #000000; stroke-width: 0.8"/>
      </g>
     </g>
     <g id="text_12">
      <!-- 1.00 -->
      <g transform="translate(20.878125 153.973145)scale(0.1 -0.1)">
       <use xlink:href="#DejaVuSans-31"/>
       <use xlink:href="#DejaVuSans-2e" x="63.623047"/>
       <use xlink:href="#DejaVuSans-30" x="95.410156"/>
       <use xlink:href="#DejaVuSans-30" x="159.033203"/>
      </g>
     </g>
    </g>
    <g id="ytick_6">
     <g id="line2d_12">
      <g>
       <use xlink:href="#m3c8906a6e5" x="50.14375" y="119.389408" style="stroke: #000000; stroke-width: 0.8"/>
      </g>
     </g>
     <g id="text_13">
      <!-- 1.25 -->
      <g transform="translate(20.878125 123.188627)scale(0.1 -0.1)">
       <use xlink:href="#DejaVuSans-31"/>
       <use xlink:href="#DejaVuSans-2e" x="63.623047"/>
       <use xlink:href="#DejaVuSans-32" x="95.410156"/>
       <use xlink:href="#DejaVuSans-35" x="159.033203"/>
      </g>
     </g>
    </g>
    <g id="ytick_7">
     <g id="line2d_13">
      <g>
       <use xlink:href="#m3c8906a6e5" x="50.14375" y="88.604889" style="stroke: #000000; stroke-width: 0.8"/>
      </g>
     </g>
     <g id="text_14">
      <!-- 1.50 -->
      <g transform="translate(20.878125 92.404108)scale(0.1 -0.1)">
       <use xlink:href="#DejaVuSans-31"/>
       <use xlink:href="#DejaVuSans-2e" x="63.623047"/>
       <use xlink:href="#DejaVuSans-35" x="95.410156"/>
       <use xlink:href="#DejaVuSans-30" x="159.033203"/>
      </g>
     </g>
    </g>
    <g id="ytick_8">
     <g id="line2d_14">
      <g>
       <use xlink:href="#m3c8906a6e5" x="50.14375" y="57.820371" style="stroke: #000000; stroke-width: 0.8"/>
      </g>
     </g>
     <g id="text_15">
      <!-- 1.75 -->
      <g transform="translate(20.878125 61.61959)scale(0.1 -0.1)">
       <use xlink:href="#DejaVuSans-31"/>
       <use xlink:href="#DejaVuSans-2e" x="63.623047"/>
       <use xlink:href="#DejaVuSans-37" x="95.410156"/>
       <use xlink:href="#DejaVuSans-35" x="159.033203"/>
      </g>
     </g>
    </g>
    <g id="ytick_9">
     <g id="line2d_15">
      <g>
       <use xlink:href="#m3c8906a6e5" x="50.14375" y="27.035853" style="stroke: #000000; stroke-width: 0.8"/>
      </g>
     </g>
     <g id="text_16">
      <!-- 2.00 -->
      <g transform="translate(20.878125 30.835071)scale(0.1 -0.1)">
       <use xlink:href="#DejaVuSans-32"/>
       <use xlink:href="#DejaVuSans-2e" x="63.623047"/>
       <use xlink:href="#DejaVuSans-30" x="95.410156"/>
       <use xlink:href="#DejaVuSans-30" x="159.033203"/>
      </g>
     </g>
    </g>
    <g id="text_17">
     <!-- Probability density -->
     <g transform="translate(14.798438 186.606781)rotate(-90)scale(0.1 -0.1)">
      <defs>
       <path id="DejaVuSans-62" d="M 3116 1747 
Q 3116 2381 2855 2742 
Q 2594 3103 2138 3103 
Q 1681 3103 1420 2742 
Q 1159 2381 1159 1747 
Q 1159 1113 1420 752 
Q 1681 391 2138 391 
Q 2594 391 2855 752 
Q 3116 1113 3116 1747 
z
M 1159 2969 
Q 1341 3281 1617 3432 
Q 1894 3584 2278 3584 
Q 2916 3584 3314 3078 
Q 3713 2572 3713 1747 
Q 3713 922 3314 415 
Q 2916 -91 2278 -91 
Q 1894 -91 1617 61 
Q 1341 213 1159 525 
L 1159 0 
L 581 0 
L 581 4863 
L 1159 4863 
L 1159 2969 
z
" transform="scale(0.015625)"/>
       <path id="DejaVuSans-6c" d="M 603 4863 
L 1178 4863 
L 1178 0 
L 603 0 
L 603 4863 
z
" transform="scale(0.015625)"/>
       <path id="DejaVuSans-79" d="M 2059 -325 
Q 1816 -950 1584 -1140 
Q 1353 -1331 966 -1331 
L 506 -1331 
L 506 -850 
L 844 -850 
Q 1081 -850 1212 -737 
Q 1344 -625 1503 -206 
L 1606 56 
L 191 3500 
L 800 3500 
L 1894 763 
L 2988 3500 
L 3597 3500 
L 2059 -325 
z
" transform="scale(0.015625)"/>
       <path id="DejaVuSans-73" d="M 2834 3397 
L 2834 2853 
Q 2591 2978 2328 3040 
Q 2066 3103 1784 3103 
Q 1356 3103 1142 2972 
Q 928 2841 928 2578 
Q 928 2378 1081 2264 
Q 1234 2150 1697 2047 
L 1894 2003 
Q 2506 1872 2764 1633 
Q 3022 1394 3022 966 
Q 3022 478 2636 193 
Q 2250 -91 1575 -91 
Q 1294 -91 989 -36 
Q 684 19 347 128 
L 347 722 
Q 666 556 975 473 
Q 1284 391 1588 391 
Q 1994 391 2212 530 
Q 2431 669 2431 922 
Q 2431 1156 2273 1281 
Q 2116 1406 1581 1522 
L 1381 1569 
Q 847 1681 609 1914 
Q 372 2147 372 2553 
Q 372 3047 722 3315 
Q 1072 3584 1716 3584 
Q 2034 3584 2315 3537 
Q 2597 3491 2834 3397 
z
" transform="scale(0.015625)"/>
      </defs>
      <use xlink:href="#DejaVuSans-50"/>
      <use xlink:href="#DejaVuSans-72" x="58.552734"/>
      <use xlink:href="#DejaVuSans-6f" x="97.416016"/>
      <use xlink:href="#DejaVuSans-62" x="158.597656"/>
      <use xlink:href="#DejaVuSans-61" x="222.074219"/>
      <use xlink:href="#DejaVuSans-62" x="283.353516"/>
      <use xlink:href="#DejaVuSans-69" x="346.830078"/>
      <use xlink:href="#DejaVuSans-6c" x="374.613281"/>
      <use xlink:href="#DejaVuSans-69" x="402.396484"/>
      <use xlink:href="#DejaVuSans-74" x="430.179688"/>
      <use xlink:href="#DejaVuSans-79" x="469.388672"/>
      <use xlink:href="#DejaVuSans-20" x="528.568359"/>
      <use xlink:href="#DejaVuSans-64" x="560.355469"/>
      <use xlink:href="#DejaVuSans-65" x="623.832031"/>
      <use xlink:href="#DejaVuSans-6e" x="685.355469"/>
      <use xlink:href="#DejaVuSans-73" x="748.734375"/>
      <use xlink:href="#DejaVuSans-69" x="800.833984"/>
      <use xlink:href="#DejaVuSans-74" x="828.617188"/>
      <use xlink:href="#DejaVuSans-79" x="867.826172"/>
     </g>
    </g>
   </g>
   <g id="line2d_16">
    <path d="M 66.376477 273.312 
L 391.031023 27.035853 
L 391.031023 27.035853 
" clip-path="url(#pd4a298b0a8)" style="fill: none; stroke: #ff7f0e; stroke-width: 1.5; stroke-linecap: square"/>
   </g>
   <g id="patch_203">
    <path d="M 50.14375 273.312 
L 50.14375 7.2 
" style="fill: none; stroke: #000000; stroke-width: 0.8; stroke-linejoin: miter; stroke-linecap: square"/>
   </g>
   <g id="patch_204">
    <path d="M 407.26375 273.312 
L 407.26375 7.2 
" style="fill: none; stroke: #000000; stroke-width: 0.8; stroke-linejoin: miter; stroke-linecap: square"/>
   </g>
   <g id="patch_205">
    <path d="M 50.14375 273.312 
L 407.26375 273.312 
" style="fill: none; stroke: #000000; stroke-width: 0.8; stroke-linejoin: miter; stroke-linecap: square"/>
   </g>
   <g id="patch_206">
    <path d="M 50.14375 7.2 
L 407.26375 7.2 
" style="fill: none; stroke: #000000; stroke-width: 0.8; stroke-linejoin: miter; stroke-linecap: square"/>
   </g>
  </g>
 </g>
 <defs>
  <clipPath id="pd4a298b0a8">
   <rect x="50.14375" y="7.2" width="357.12" height="266.112"/>
  </clipPath>
 </defs>
</svg>
