<?xml version="1.0" encoding="utf-8" standalone="no"?>
<!DOCTYPE svg PUBLIC "-//W3C//DTD SVG 1.1//EN"
  "http://www.w3.org/Graphics/SVG/1.1/DTD/svg11.dtd">
<svg xmlns:xlink="http://www.w3.org/1999/xlink" width="408.10125pt" height="310.86825pt" viewBox="0 0 408.10125 310.86825" xmlns="http://www.w3.org/2000/svg" version="1.1">
 <metadata>
  <rdf:RDF xmlns:dc="http://purl.org/dc/elements/1.1/" xmlns:cc="http://creativecommons.org/ns#" xmlns:rdf="http://www.w3.org/1999/02/22-rdf-syntax-ns#">
   <cc:Work>
    <dc:type rdf:resource="http://purl.org/dc/dcmitype/StillImage"/>
    <dc:date>2022-05-05T19:45:11.545542</dc:date>
    <dc:format>image/svg+xml</dc:format>
    <dc:creator>
     <cc:Agent>
      <dc:title>Matplotlib v3.5.2, https://matplotlib.org/</dc:title>
     </cc:Agent>
    </dc:creator>
   </cc:Work>
  </rdf:RDF>
 </metadata>
 <defs>
  <style type="text/css">*{stroke-linejoin: round; stroke-linecap: butt}</style>
 </defs>
 <g id="figure_1">
  <g id="patch_1">
   <path d="M 0 310.86825 
L 408.10125 310.86825 
L 408.10125 0 
L 0 0 
z
" style="fill: #ffffff"/>
  </g>
  <g id="axes_1">
   <g id="patch_2">
    <path d="M 43.78125 273.312 
L 400.90125 273.312 
L 400.90125 7.2 
L 43.78125 7.2 
z
" style="fill: #ffffff"/>
   </g>
   <g id="patch_3">
    <path d="M 60.387979 273.312 
L 62.007788 273.312 
L 62.007788 270.390501 
L 60.387979 270.390501 
z
" clip-path="url(#p9a301c8d5f)" style="fill: #1f77b4"/>
   </g>
   <g id="patch_4">
    <path d="M 62.007788 273.312 
L 63.627597 273.312 
L 63.627597 266.008254 
L 62.007788 266.008254 
z
" clip-path="url(#p9a301c8d5f)" style="fill: #1f77b4"/>
   </g>
   <g id="patch_5">
    <path d="M 63.627597 273.312 
L 65.247406 273.312 
L 65.247406 262.35638 
L 63.627597 262.35638 
z
" clip-path="url(#p9a301c8d5f)" style="fill: #1f77b4"/>
   </g>
   <g id="patch_6">
    <path d="M 65.247406 273.312 
L 66.867215 273.312 
L 66.867215 260.165256 
L 65.247406 260.165256 
z
" clip-path="url(#p9a301c8d5f)" style="fill: #1f77b4"/>
   </g>
   <g id="patch_7">
    <path d="M 66.867215 273.312 
L 68.487024 273.312 
L 68.487024 257.243758 
L 66.867215 257.243758 
z
" clip-path="url(#p9a301c8d5f)" style="fill: #1f77b4"/>
   </g>
   <g id="patch_8">
    <path d="M 68.487024 273.312 
L 70.106833 273.312 
L 70.106833 252.131135 
L 68.487024 252.131135 
z
" clip-path="url(#p9a301c8d5f)" style="fill: #1f77b4"/>
   </g>
   <g id="patch_9">
    <path d="M 70.106833 273.312 
L 71.726642 273.312 
L 71.726642 248.479262 
L 70.106833 248.479262 
z
" clip-path="url(#p9a301c8d5f)" style="fill: #1f77b4"/>
   </g>
   <g id="patch_10">
    <path d="M 71.726642 273.312 
L 73.346451 273.312 
L 73.346451 249.209637 
L 71.726642 249.209637 
z
" clip-path="url(#p9a301c8d5f)" style="fill: #1f77b4"/>
   </g>
   <g id="patch_11">
    <path d="M 73.346451 273.312 
L 74.96626 273.312 
L 74.96626 244.827389 
L 73.346451 244.827389 
z
" clip-path="url(#p9a301c8d5f)" style="fill: #1f77b4"/>
   </g>
   <g id="patch_12">
    <path d="M 74.96626 273.312 
L 76.586069 273.312 
L 76.586069 241.175516 
L 74.96626 241.175516 
z
" clip-path="url(#p9a301c8d5f)" style="fill: #1f77b4"/>
   </g>
   <g id="patch_13">
    <path d="M 76.586069 273.312 
L 78.205878 273.312 
L 78.205878 235.332519 
L 76.586069 235.332519 
z
" clip-path="url(#p9a301c8d5f)" style="fill: #1f77b4"/>
   </g>
   <g id="patch_14">
    <path d="M 78.205878 273.312 
L 79.825687 273.312 
L 79.825687 226.568023 
L 78.205878 226.568023 
z
" clip-path="url(#p9a301c8d5f)" style="fill: #1f77b4"/>
   </g>
   <g id="patch_15">
    <path d="M 79.825687 273.312 
L 81.445496 273.312 
L 81.445496 227.298398 
L 79.825687 227.298398 
z
" clip-path="url(#p9a301c8d5f)" style="fill: #1f77b4"/>
   </g>
   <g id="patch_16">
    <path d="M 81.445496 273.312 
L 83.065305 273.312 
L 83.065305 214.151654 
L 81.445496 214.151654 
z
" clip-path="url(#p9a301c8d5f)" style="fill: #1f77b4"/>
   </g>
   <g id="patch_17">
    <path d="M 83.065305 273.312 
L 84.685114 273.312 
L 84.685114 223.646524 
L 83.065305 223.646524 
z
" clip-path="url(#p9a301c8d5f)" style="fill: #1f77b4"/>
   </g>
   <g id="patch_18">
    <path d="M 84.685114 273.312 
L 86.304923 273.312 
L 86.304923 217.073153 
L 84.685114 217.073153 
z
" clip-path="url(#p9a301c8d5f)" style="fill: #1f77b4"/>
   </g>
   <g id="patch_19">
    <path d="M 86.304923 273.312 
L 87.924732 273.312 
L 87.924732 211.96053 
L 86.304923 211.96053 
z
" clip-path="url(#p9a301c8d5f)" style="fill: #1f77b4"/>
   </g>
   <g id="patch_20">
    <path d="M 87.924732 273.312 
L 89.544541 273.312 
L 89.544541 212.690905 
L 87.924732 212.690905 
z
" clip-path="url(#p9a301c8d5f)" style="fill: #1f77b4"/>
   </g>
   <g id="patch_21">
    <path d="M 89.544541 273.312 
L 91.16435 273.312 
L 91.16435 212.690905 
L 89.544541 212.690905 
z
" clip-path="url(#p9a301c8d5f)" style="fill: #1f77b4"/>
   </g>
   <g id="patch_22">
    <path d="M 91.16435 273.312 
L 92.784159 273.312 
L 92.784159 206.117533 
L 91.16435 206.117533 
z
" clip-path="url(#p9a301c8d5f)" style="fill: #1f77b4"/>
   </g>
   <g id="patch_23">
    <path d="M 92.784159 273.312 
L 94.403969 273.312 
L 94.403969 191.51004 
L 92.784159 191.51004 
z
" clip-path="url(#p9a301c8d5f)" style="fill: #1f77b4"/>
   </g>
   <g id="patch_24">
    <path d="M 94.403969 273.312 
L 96.023778 273.312 
L 96.023778 195.892288 
L 94.403969 195.892288 
z
" clip-path="url(#p9a301c8d5f)" style="fill: #1f77b4"/>
   </g>
   <g id="patch_25">
    <path d="M 96.023778 273.312 
L 97.643587 273.312 
L 97.643587 176.902548 
L 96.023778 176.902548 
z
" clip-path="url(#p9a301c8d5f)" style="fill: #1f77b4"/>
   </g>
   <g id="patch_26">
    <path d="M 97.643587 273.312 
L 99.263396 273.312 
L 99.263396 190.779666 
L 97.643587 190.779666 
z
" clip-path="url(#p9a301c8d5f)" style="fill: #1f77b4"/>
   </g>
   <g id="patch_27">
    <path d="M 99.263396 273.312 
L 100.883205 273.312 
L 100.883205 192.240415 
L 99.263396 192.240415 
z
" clip-path="url(#p9a301c8d5f)" style="fill: #1f77b4"/>
   </g>
   <g id="patch_28">
    <path d="M 100.883205 273.312 
L 102.503014 273.312 
L 102.503014 181.284795 
L 100.883205 181.284795 
z
" clip-path="url(#p9a301c8d5f)" style="fill: #1f77b4"/>
   </g>
   <g id="patch_29">
    <path d="M 102.503014 273.312 
L 104.122823 273.312 
L 104.122823 181.284795 
L 102.503014 181.284795 
z
" clip-path="url(#p9a301c8d5f)" style="fill: #1f77b4"/>
   </g>
   <g id="patch_30">
    <path d="M 104.122823 273.312 
L 105.742632 273.312 
L 105.742632 179.093671 
L 104.122823 179.093671 
z
" clip-path="url(#p9a301c8d5f)" style="fill: #1f77b4"/>
   </g>
   <g id="patch_31">
    <path d="M 105.742632 273.312 
L 107.362441 273.312 
L 107.362441 168.138052 
L 105.742632 168.138052 
z
" clip-path="url(#p9a301c8d5f)" style="fill: #1f77b4"/>
   </g>
   <g id="patch_32">
    <path d="M 107.362441 273.312 
L 108.98225 273.312 
L 108.98225 168.138052 
L 107.362441 168.138052 
z
" clip-path="url(#p9a301c8d5f)" style="fill: #1f77b4"/>
   </g>
   <g id="patch_33">
    <path d="M 108.98225 273.312 
L 110.602059 273.312 
L 110.602059 164.486179 
L 108.98225 164.486179 
z
" clip-path="url(#p9a301c8d5f)" style="fill: #1f77b4"/>
   </g>
   <g id="patch_34">
    <path d="M 110.602059 273.312 
L 112.221868 273.312 
L 112.221868 159.373556 
L 110.602059 159.373556 
z
" clip-path="url(#p9a301c8d5f)" style="fill: #1f77b4"/>
   </g>
   <g id="patch_35">
    <path d="M 112.221868 273.312 
L 113.841677 273.312 
L 113.841677 161.56468 
L 112.221868 161.56468 
z
" clip-path="url(#p9a301c8d5f)" style="fill: #1f77b4"/>
   </g>
   <g id="patch_36">
    <path d="M 113.841677 273.312 
L 115.461486 273.312 
L 115.461486 151.339435 
L 113.841677 151.339435 
z
" clip-path="url(#p9a301c8d5f)" style="fill: #1f77b4"/>
   </g>
   <g id="patch_37">
    <path d="M 115.461486 273.312 
L 117.081295 273.312 
L 117.081295 168.138052 
L 115.461486 168.138052 
z
" clip-path="url(#p9a301c8d5f)" style="fill: #1f77b4"/>
   </g>
   <g id="patch_38">
    <path d="M 117.081295 273.312 
L 118.701104 273.312 
L 118.701104 146.226813 
L 117.081295 146.226813 
z
" clip-path="url(#p9a301c8d5f)" style="fill: #1f77b4"/>
   </g>
   <g id="patch_39">
    <path d="M 118.701104 273.312 
L 120.320913 273.312 
L 120.320913 160.103931 
L 118.701104 160.103931 
z
" clip-path="url(#p9a301c8d5f)" style="fill: #1f77b4"/>
   </g>
   <g id="patch_40">
    <path d="M 120.320913 273.312 
L 121.940722 273.312 
L 121.940722 146.957187 
L 120.320913 146.957187 
z
" clip-path="url(#p9a301c8d5f)" style="fill: #1f77b4"/>
   </g>
   <g id="patch_41">
    <path d="M 121.940722 273.312 
L 123.560531 273.312 
L 123.560531 149.878686 
L 121.940722 149.878686 
z
" clip-path="url(#p9a301c8d5f)" style="fill: #1f77b4"/>
   </g>
   <g id="patch_42">
    <path d="M 123.560531 273.312 
L 125.18034 273.312 
L 125.18034 138.923066 
L 123.560531 138.923066 
z
" clip-path="url(#p9a301c8d5f)" style="fill: #1f77b4"/>
   </g>
   <g id="patch_43">
    <path d="M 125.18034 273.312 
L 126.800149 273.312 
L 126.800149 120.6637 
L 125.18034 120.6637 
z
" clip-path="url(#p9a301c8d5f)" style="fill: #1f77b4"/>
   </g>
   <g id="patch_44">
    <path d="M 126.800149 273.312 
L 128.419959 273.312 
L 128.419959 151.339435 
L 126.800149 151.339435 
z
" clip-path="url(#p9a301c8d5f)" style="fill: #1f77b4"/>
   </g>
   <g id="patch_45">
    <path d="M 128.419959 273.312 
L 130.039768 273.312 
L 130.039768 138.192692 
L 128.419959 138.192692 
z
" clip-path="url(#p9a301c8d5f)" style="fill: #1f77b4"/>
   </g>
   <g id="patch_46">
    <path d="M 130.039768 273.312 
L 131.659577 273.312 
L 131.659577 131.61932 
L 130.039768 131.61932 
z
" clip-path="url(#p9a301c8d5f)" style="fill: #1f77b4"/>
   </g>
   <g id="patch_47">
    <path d="M 131.659577 273.312 
L 133.279386 273.312 
L 133.279386 135.271193 
L 131.659577 135.271193 
z
" clip-path="url(#p9a301c8d5f)" style="fill: #1f77b4"/>
   </g>
   <g id="patch_48">
    <path d="M 133.279386 273.312 
L 134.899195 273.312 
L 134.899195 108.247331 
L 133.279386 108.247331 
z
" clip-path="url(#p9a301c8d5f)" style="fill: #1f77b4"/>
   </g>
   <g id="patch_49">
    <path d="M 134.899195 273.312 
L 136.519004 273.312 
L 136.519004 125.776323 
L 134.899195 125.776323 
z
" clip-path="url(#p9a301c8d5f)" style="fill: #1f77b4"/>
   </g>
   <g id="patch_50">
    <path d="M 136.519004 273.312 
L 138.138813 273.312 
L 138.138813 126.506697 
L 136.519004 126.506697 
z
" clip-path="url(#p9a301c8d5f)" style="fill: #1f77b4"/>
   </g>
   <g id="patch_51">
    <path d="M 138.138813 273.312 
L 139.758622 273.312 
L 139.758622 105.325833 
L 138.138813 105.325833 
z
" clip-path="url(#p9a301c8d5f)" style="fill: #1f77b4"/>
   </g>
   <g id="patch_52">
    <path d="M 139.758622 273.312 
L 141.378431 273.312 
L 141.378431 129.428196 
L 139.758622 129.428196 
z
" clip-path="url(#p9a301c8d5f)" style="fill: #1f77b4"/>
   </g>
   <g id="patch_53">
    <path d="M 141.378431 273.312 
L 142.99824 273.312 
L 142.99824 112.629579 
L 141.378431 112.629579 
z
" clip-path="url(#p9a301c8d5f)" style="fill: #1f77b4"/>
   </g>
   <g id="patch_54">
    <path d="M 142.99824 273.312 
L 144.618049 273.312 
L 144.618049 114.820703 
L 142.99824 114.820703 
z
" clip-path="url(#p9a301c8d5f)" style="fill: #1f77b4"/>
   </g>
   <g id="patch_55">
    <path d="M 144.618049 273.312 
L 146.237858 273.312 
L 146.237858 102.404334 
L 144.618049 102.404334 
z
" clip-path="url(#p9a301c8d5f)" style="fill: #1f77b4"/>
   </g>
   <g id="patch_56">
    <path d="M 146.237858 273.312 
L 147.857667 273.312 
L 147.857667 91.448715 
L 146.237858 91.448715 
z
" clip-path="url(#p9a301c8d5f)" style="fill: #1f77b4"/>
   </g>
   <g id="patch_57">
    <path d="M 147.857667 273.312 
L 149.477476 273.312 
L 149.477476 95.830963 
L 147.857667 95.830963 
z
" clip-path="url(#p9a301c8d5f)" style="fill: #1f77b4"/>
   </g>
   <g id="patch_58">
    <path d="M 149.477476 273.312 
L 151.097285 273.312 
L 151.097285 101.67396 
L 149.477476 101.67396 
z
" clip-path="url(#p9a301c8d5f)" style="fill: #1f77b4"/>
   </g>
   <g id="patch_59">
    <path d="M 151.097285 273.312 
L 152.717094 273.312 
L 152.717094 101.67396 
L 151.097285 101.67396 
z
" clip-path="url(#p9a301c8d5f)" style="fill: #1f77b4"/>
   </g>
   <g id="patch_60">
    <path d="M 152.717094 273.312 
L 154.336903 273.312 
L 154.336903 95.830963 
L 152.717094 95.830963 
z
" clip-path="url(#p9a301c8d5f)" style="fill: #1f77b4"/>
   </g>
   <g id="patch_61">
    <path d="M 154.336903 273.312 
L 155.956712 273.312 
L 155.956712 84.144968 
L 154.336903 84.144968 
z
" clip-path="url(#p9a301c8d5f)" style="fill: #1f77b4"/>
   </g>
   <g id="patch_62">
    <path d="M 155.956712 273.312 
L 157.576521 273.312 
L 157.576521 115.551078 
L 155.956712 115.551078 
z
" clip-path="url(#p9a301c8d5f)" style="fill: #1f77b4"/>
   </g>
   <g id="patch_63">
    <path d="M 157.576521 273.312 
L 159.19633 273.312 
L 159.19633 88.527216 
L 157.576521 88.527216 
z
" clip-path="url(#p9a301c8d5f)" style="fill: #1f77b4"/>
   </g>
   <g id="patch_64">
    <path d="M 159.19633 273.312 
L 160.816139 273.312 
L 160.816139 95.100588 
L 159.19633 95.100588 
z
" clip-path="url(#p9a301c8d5f)" style="fill: #1f77b4"/>
   </g>
   <g id="patch_65">
    <path d="M 160.816139 273.312 
L 162.435948 273.312 
L 162.435948 96.561337 
L 160.816139 96.561337 
z
" clip-path="url(#p9a301c8d5f)" style="fill: #1f77b4"/>
   </g>
   <g id="patch_66">
    <path d="M 162.435948 273.312 
L 164.055758 273.312 
L 164.055758 73.189349 
L 162.435948 73.189349 
z
" clip-path="url(#p9a301c8d5f)" style="fill: #1f77b4"/>
   </g>
   <g id="patch_67">
    <path d="M 164.055758 273.312 
L 165.675567 273.312 
L 165.675567 75.380473 
L 164.055758 75.380473 
z
" clip-path="url(#p9a301c8d5f)" style="fill: #1f77b4"/>
   </g>
   <g id="patch_68">
    <path d="M 165.675567 273.312 
L 167.295376 273.312 
L 167.295376 92.179089 
L 165.675567 92.179089 
z
" clip-path="url(#p9a301c8d5f)" style="fill: #1f77b4"/>
   </g>
   <g id="patch_69">
    <path d="M 167.295376 273.312 
L 168.915185 273.312 
L 168.915185 89.257591 
L 167.295376 89.257591 
z
" clip-path="url(#p9a301c8d5f)" style="fill: #1f77b4"/>
   </g>
   <g id="patch_70">
    <path d="M 168.915185 273.312 
L 170.534994 273.312 
L 170.534994 76.841222 
L 168.915185 76.841222 
z
" clip-path="url(#p9a301c8d5f)" style="fill: #1f77b4"/>
   </g>
   <g id="patch_71">
    <path d="M 170.534994 273.312 
L 172.154803 273.312 
L 172.154803 68.076726 
L 170.534994 68.076726 
z
" clip-path="url(#p9a301c8d5f)" style="fill: #1f77b4"/>
   </g>
   <g id="patch_72">
    <path d="M 172.154803 273.312 
L 173.774612 273.312 
L 173.774612 68.076726 
L 172.154803 68.076726 
z
" clip-path="url(#p9a301c8d5f)" style="fill: #1f77b4"/>
   </g>
   <g id="patch_73">
    <path d="M 173.774612 273.312 
L 175.394421 273.312 
L 175.394421 71.728599 
L 173.774612 71.728599 
z
" clip-path="url(#p9a301c8d5f)" style="fill: #1f77b4"/>
   </g>
   <g id="patch_74">
    <path d="M 175.394421 273.312 
L 177.01423 273.312 
L 177.01423 67.346352 
L 175.394421 67.346352 
z
" clip-path="url(#p9a301c8d5f)" style="fill: #1f77b4"/>
   </g>
   <g id="patch_75">
    <path d="M 177.01423 273.312 
L 178.634039 273.312 
L 178.634039 85.605718 
L 177.01423 85.605718 
z
" clip-path="url(#p9a301c8d5f)" style="fill: #1f77b4"/>
   </g>
   <g id="patch_76">
    <path d="M 178.634039 273.312 
L 180.253848 273.312 
L 180.253848 73.189349 
L 178.634039 73.189349 
z
" clip-path="url(#p9a301c8d5f)" style="fill: #1f77b4"/>
   </g>
   <g id="patch_77">
    <path d="M 180.253848 273.312 
L 181.873657 273.312 
L 181.873657 41.783239 
L 180.253848 41.783239 
z
" clip-path="url(#p9a301c8d5f)" style="fill: #1f77b4"/>
   </g>
   <g id="patch_78">
    <path d="M 181.873657 273.312 
L 183.493466 273.312 
L 183.493466 79.76272 
L 181.873657 79.76272 
z
" clip-path="url(#p9a301c8d5f)" style="fill: #1f77b4"/>
   </g>
   <g id="patch_79">
    <path d="M 183.493466 273.312 
L 185.113275 273.312 
L 185.113275 65.885602 
L 183.493466 65.885602 
z
" clip-path="url(#p9a301c8d5f)" style="fill: #1f77b4"/>
   </g>
   <g id="patch_80">
    <path d="M 185.113275 273.312 
L 186.733084 273.312 
L 186.733084 54.929983 
L 185.113275 54.929983 
z
" clip-path="url(#p9a301c8d5f)" style="fill: #1f77b4"/>
   </g>
   <g id="patch_81">
    <path d="M 186.733084 273.312 
L 188.352893 273.312 
L 188.352893 52.738859 
L 186.733084 52.738859 
z
" clip-path="url(#p9a301c8d5f)" style="fill: #1f77b4"/>
   </g>
   <g id="patch_82">
    <path d="M 188.352893 273.312 
L 189.972702 273.312 
L 189.972702 60.77298 
L 188.352893 60.77298 
z
" clip-path="url(#p9a301c8d5f)" style="fill: #1f77b4"/>
   </g>
   <g id="patch_83">
    <path d="M 189.972702 273.312 
L 191.592511 273.312 
L 191.592511 47.626236 
L 189.972702 47.626236 
z
" clip-path="url(#p9a301c8d5f)" style="fill: #1f77b4"/>
   </g>
   <g id="patch_84">
    <path d="M 191.592511 273.312 
L 193.21232 273.312 
L 193.21232 57.851481 
L 191.592511 57.851481 
z
" clip-path="url(#p9a301c8d5f)" style="fill: #1f77b4"/>
   </g>
   <g id="patch_85">
    <path d="M 193.21232 273.312 
L 194.832129 273.312 
L 194.832129 46.895862 
L 193.21232 46.895862 
z
" clip-path="url(#p9a301c8d5f)" style="fill: #1f77b4"/>
   </g>
   <g id="patch_86">
    <path d="M 194.832129 273.312 
L 196.451938 273.312 
L 196.451938 43.974363 
L 194.832129 43.974363 
z
" clip-path="url(#p9a301c8d5f)" style="fill: #1f77b4"/>
   </g>
   <g id="patch_87">
    <path d="M 196.451938 273.312 
L 198.071747 273.312 
L 198.071747 46.895862 
L 196.451938 46.895862 
z
" clip-path="url(#p9a301c8d5f)" style="fill: #1f77b4"/>
   </g>
   <g id="patch_88">
    <path d="M 198.071747 273.312 
L 199.691557 273.312 
L 199.691557 69.537476 
L 198.071747 69.537476 
z
" clip-path="url(#p9a301c8d5f)" style="fill: #1f77b4"/>
   </g>
   <g id="patch_89">
    <path d="M 199.691557 273.312 
L 201.311366 273.312 
L 201.311366 42.513614 
L 199.691557 42.513614 
z
" clip-path="url(#p9a301c8d5f)" style="fill: #1f77b4"/>
   </g>
   <g id="patch_90">
    <path d="M 201.311366 273.312 
L 202.931175 273.312 
L 202.931175 54.199608 
L 201.311366 54.199608 
z
" clip-path="url(#p9a301c8d5f)" style="fill: #1f77b4"/>
   </g>
   <g id="patch_91">
    <path d="M 202.931175 273.312 
L 204.550984 273.312 
L 204.550984 68.076726 
L 202.931175 68.076726 
z
" clip-path="url(#p9a301c8d5f)" style="fill: #1f77b4"/>
   </g>
   <g id="patch_92">
    <path d="M 204.550984 273.312 
L 206.170793 273.312 
L 206.170793 68.807101 
L 204.550984 68.807101 
z
" clip-path="url(#p9a301c8d5f)" style="fill: #1f77b4"/>
   </g>
   <g id="patch_93">
    <path d="M 206.170793 273.312 
L 207.790602 273.312 
L 207.790602 51.27811 
L 206.170793 51.27811 
z
" clip-path="url(#p9a301c8d5f)" style="fill: #1f77b4"/>
   </g>
   <g id="patch_94">
    <path d="M 207.790602 273.312 
L 209.410411 273.312 
L 209.410411 52.008484 
L 207.790602 52.008484 
z
" clip-path="url(#p9a301c8d5f)" style="fill: #1f77b4"/>
   </g>
   <g id="patch_95">
    <path d="M 209.410411 273.312 
L 211.03022 273.312 
L 211.03022 41.783239 
L 209.410411 41.783239 
z
" clip-path="url(#p9a301c8d5f)" style="fill: #1f77b4"/>
   </g>
   <g id="patch_96">
    <path d="M 211.03022 273.312 
L 212.650029 273.312 
L 212.650029 39.592115 
L 211.03022 39.592115 
z
" clip-path="url(#p9a301c8d5f)" style="fill: #1f77b4"/>
   </g>
   <g id="patch_97">
    <path d="M 212.650029 273.312 
L 214.269838 273.312 
L 214.269838 33.018744 
L 212.650029 33.018744 
z
" clip-path="url(#p9a301c8d5f)" style="fill: #1f77b4"/>
   </g>
   <g id="patch_98">
    <path d="M 214.269838 273.312 
L 215.889647 273.312 
L 215.889647 61.503354 
L 214.269838 61.503354 
z
" clip-path="url(#p9a301c8d5f)" style="fill: #1f77b4"/>
   </g>
   <g id="patch_99">
    <path d="M 215.889647 273.312 
L 217.509456 273.312 
L 217.509456 44.704738 
L 215.889647 44.704738 
z
" clip-path="url(#p9a301c8d5f)" style="fill: #1f77b4"/>
   </g>
   <g id="patch_100">
    <path d="M 217.509456 273.312 
L 219.129265 273.312 
L 219.129265 38.861741 
L 217.509456 38.861741 
z
" clip-path="url(#p9a301c8d5f)" style="fill: #1f77b4"/>
   </g>
   <g id="patch_101">
    <path d="M 219.129265 273.312 
L 220.749074 273.312 
L 220.749074 49.81736 
L 219.129265 49.81736 
z
" clip-path="url(#p9a301c8d5f)" style="fill: #1f77b4"/>
   </g>
   <g id="patch_102">
    <path d="M 220.749074 273.312 
L 222.368883 273.312 
L 222.368883 39.592115 
L 220.749074 39.592115 
z
" clip-path="url(#p9a301c8d5f)" style="fill: #1f77b4"/>
   </g>
   <g id="patch_103">
    <path d="M 222.368883 273.312 
L 223.988692 273.312 
L 223.988692 67.346352 
L 222.368883 67.346352 
z
" clip-path="url(#p9a301c8d5f)" style="fill: #1f77b4"/>
   </g>
   <g id="patch_104">
    <path d="M 223.988692 273.312 
L 225.608501 273.312 
L 225.608501 48.356611 
L 223.988692 48.356611 
z
" clip-path="url(#p9a301c8d5f)" style="fill: #1f77b4"/>
   </g>
   <g id="patch_105">
    <path d="M 225.608501 273.312 
L 227.22831 273.312 
L 227.22831 57.121107 
L 225.608501 57.121107 
z
" clip-path="url(#p9a301c8d5f)" style="fill: #1f77b4"/>
   </g>
   <g id="patch_106">
    <path d="M 227.22831 273.312 
L 228.848119 273.312 
L 228.848119 43.243988 
L 227.22831 43.243988 
z
" clip-path="url(#p9a301c8d5f)" style="fill: #1f77b4"/>
   </g>
   <g id="patch_107">
    <path d="M 228.848119 273.312 
L 230.467928 273.312 
L 230.467928 54.929983 
L 228.848119 54.929983 
z
" clip-path="url(#p9a301c8d5f)" style="fill: #1f77b4"/>
   </g>
   <g id="patch_108">
    <path d="M 230.467928 273.312 
L 232.087737 273.312 
L 232.087737 49.81736 
L 230.467928 49.81736 
z
" clip-path="url(#p9a301c8d5f)" style="fill: #1f77b4"/>
   </g>
   <g id="patch_109">
    <path d="M 232.087737 273.312 
L 233.707547 273.312 
L 233.707547 61.503354 
L 232.087737 61.503354 
z
" clip-path="url(#p9a301c8d5f)" style="fill: #1f77b4"/>
   </g>
   <g id="patch_110">
    <path d="M 233.707547 273.312 
L 235.327356 273.312 
L 235.327356 45.435112 
L 233.707547 45.435112 
z
" clip-path="url(#p9a301c8d5f)" style="fill: #1f77b4"/>
   </g>
   <g id="patch_111">
    <path d="M 235.327356 273.312 
L 236.947165 273.312 
L 236.947165 27.175746 
L 235.327356 27.175746 
z
" clip-path="url(#p9a301c8d5f)" style="fill: #1f77b4"/>
   </g>
   <g id="patch_112">
    <path d="M 236.947165 273.312 
L 238.566974 273.312 
L 238.566974 46.165487 
L 236.947165 46.165487 
z
" clip-path="url(#p9a301c8d5f)" style="fill: #1f77b4"/>
   </g>
   <g id="patch_113">
    <path d="M 238.566974 273.312 
L 240.186783 273.312 
L 240.186783 19.872 
L 238.566974 19.872 
z
" clip-path="url(#p9a301c8d5f)" style="fill: #1f77b4"/>
   </g>
   <g id="patch_114">
    <path d="M 240.186783 273.312 
L 241.806592 273.312 
L 241.806592 32.288369 
L 240.186783 32.288369 
z
" clip-path="url(#p9a301c8d5f)" style="fill: #1f77b4"/>
   </g>
   <g id="patch_115">
    <path d="M 241.806592 273.312 
L 243.426401 273.312 
L 243.426401 35.209867 
L 241.806592 35.209867 
z
" clip-path="url(#p9a301c8d5f)" style="fill: #1f77b4"/>
   </g>
   <g id="patch_116">
    <path d="M 243.426401 273.312 
L 245.04621 273.312 
L 245.04621 70.998225 
L 243.426401 70.998225 
z
" clip-path="url(#p9a301c8d5f)" style="fill: #1f77b4"/>
   </g>
   <g id="patch_117">
    <path d="M 245.04621 273.312 
L 246.666019 273.312 
L 246.666019 52.008484 
L 245.04621 52.008484 
z
" clip-path="url(#p9a301c8d5f)" style="fill: #1f77b4"/>
   </g>
   <g id="patch_118">
    <path d="M 246.666019 273.312 
L 248.285828 273.312 
L 248.285828 58.581856 
L 246.666019 58.581856 
z
" clip-path="url(#p9a301c8d5f)" style="fill: #1f77b4"/>
   </g>
   <g id="patch_119">
    <path d="M 248.285828 273.312 
L 249.905637 273.312 
L 249.905637 68.076726 
L 248.285828 68.076726 
z
" clip-path="url(#p9a301c8d5f)" style="fill: #1f77b4"/>
   </g>
   <g id="patch_120">
    <path d="M 249.905637 273.312 
L 251.525446 273.312 
L 251.525446 39.592115 
L 249.905637 39.592115 
z
" clip-path="url(#p9a301c8d5f)" style="fill: #1f77b4"/>
   </g>
   <g id="patch_121">
    <path d="M 251.525446 273.312 
L 253.145255 273.312 
L 253.145255 35.940242 
L 251.525446 35.940242 
z
" clip-path="url(#p9a301c8d5f)" style="fill: #1f77b4"/>
   </g>
   <g id="patch_122">
    <path d="M 253.145255 273.312 
L 254.765064 273.312 
L 254.765064 33.018744 
L 253.145255 33.018744 
z
" clip-path="url(#p9a301c8d5f)" style="fill: #1f77b4"/>
   </g>
   <g id="patch_123">
    <path d="M 254.765064 273.312 
L 256.384873 273.312 
L 256.384873 51.27811 
L 254.765064 51.27811 
z
" clip-path="url(#p9a301c8d5f)" style="fill: #1f77b4"/>
   </g>
   <g id="patch_124">
    <path d="M 256.384873 273.312 
L 258.004682 273.312 
L 258.004682 51.27811 
L 256.384873 51.27811 
z
" clip-path="url(#p9a301c8d5f)" style="fill: #1f77b4"/>
   </g>
   <g id="patch_125">
    <path d="M 258.004682 273.312 
L 259.624491 273.312 
L 259.624491 56.390732 
L 258.004682 56.390732 
z
" clip-path="url(#p9a301c8d5f)" style="fill: #1f77b4"/>
   </g>
   <g id="patch_126">
    <path d="M 259.624491 273.312 
L 261.2443 273.312 
L 261.2443 53.469233 
L 259.624491 53.469233 
z
" clip-path="url(#p9a301c8d5f)" style="fill: #1f77b4"/>
   </g>
   <g id="patch_127">
    <path d="M 261.2443 273.312 
L 262.864109 273.312 
L 262.864109 73.189349 
L 261.2443 73.189349 
z
" clip-path="url(#p9a301c8d5f)" style="fill: #1f77b4"/>
   </g>
   <g id="patch_128">
    <path d="M 262.864109 273.312 
L 264.483918 273.312 
L 264.483918 46.165487 
L 262.864109 46.165487 
z
" clip-path="url(#p9a301c8d5f)" style="fill: #1f77b4"/>
   </g>
   <g id="patch_129">
    <path d="M 264.483918 273.312 
L 266.103727 273.312 
L 266.103727 62.964104 
L 264.483918 62.964104 
z
" clip-path="url(#p9a301c8d5f)" style="fill: #1f77b4"/>
   </g>
   <g id="patch_130">
    <path d="M 266.103727 273.312 
L 267.723536 273.312 
L 267.723536 67.346352 
L 266.103727 67.346352 
z
" clip-path="url(#p9a301c8d5f)" style="fill: #1f77b4"/>
   </g>
   <g id="patch_131">
    <path d="M 267.723536 273.312 
L 269.343346 273.312 
L 269.343346 62.233729 
L 267.723536 62.233729 
z
" clip-path="url(#p9a301c8d5f)" style="fill: #1f77b4"/>
   </g>
   <g id="patch_132">
    <path d="M 269.343346 273.312 
L 270.963155 273.312 
L 270.963155 68.807101 
L 269.343346 68.807101 
z
" clip-path="url(#p9a301c8d5f)" style="fill: #1f77b4"/>
   </g>
   <g id="patch_133">
    <path d="M 270.963155 273.312 
L 272.582964 273.312 
L 272.582964 65.155228 
L 270.963155 65.155228 
z
" clip-path="url(#p9a301c8d5f)" style="fill: #1f77b4"/>
   </g>
   <g id="patch_134">
    <path d="M 272.582964 273.312 
L 274.202773 273.312 
L 274.202773 70.26785 
L 272.582964 70.26785 
z
" clip-path="url(#p9a301c8d5f)" style="fill: #1f77b4"/>
   </g>
   <g id="patch_135">
    <path d="M 274.202773 273.312 
L 275.822582 273.312 
L 275.822582 62.964104 
L 274.202773 62.964104 
z
" clip-path="url(#p9a301c8d5f)" style="fill: #1f77b4"/>
   </g>
   <g id="patch_136">
    <path d="M 275.822582 273.312 
L 277.442391 273.312 
L 277.442391 82.684219 
L 275.822582 82.684219 
z
" clip-path="url(#p9a301c8d5f)" style="fill: #1f77b4"/>
   </g>
   <g id="patch_137">
    <path d="M 277.442391 273.312 
L 279.0622 273.312 
L 279.0622 61.503354 
L 277.442391 61.503354 
z
" clip-path="url(#p9a301c8d5f)" style="fill: #1f77b4"/>
   </g>
   <g id="patch_138">
    <path d="M 279.0622 273.312 
L 280.682009 273.312 
L 280.682009 63.694478 
L 279.0622 63.694478 
z
" clip-path="url(#p9a301c8d5f)" style="fill: #1f77b4"/>
   </g>
   <g id="patch_139">
    <path d="M 280.682009 273.312 
L 282.301818 273.312 
L 282.301818 91.448715 
L 280.682009 91.448715 
z
" clip-path="url(#p9a301c8d5f)" style="fill: #1f77b4"/>
   </g>
   <g id="patch_140">
    <path d="M 282.301818 273.312 
L 283.921627 273.312 
L 283.921627 72.458974 
L 282.301818 72.458974 
z
" clip-path="url(#p9a301c8d5f)" style="fill: #1f77b4"/>
   </g>
   <g id="patch_141">
    <path d="M 283.921627 273.312 
L 285.541436 273.312 
L 285.541436 78.301971 
L 283.921627 78.301971 
z
" clip-path="url(#p9a301c8d5f)" style="fill: #1f77b4"/>
   </g>
   <g id="patch_142">
    <path d="M 285.541436 273.312 
L 287.161245 273.312 
L 287.161245 81.22347 
L 285.541436 81.22347 
z
" clip-path="url(#p9a301c8d5f)" style="fill: #1f77b4"/>
   </g>
   <g id="patch_143">
    <path d="M 287.161245 273.312 
L 288.781054 273.312 
L 288.781054 92.909464 
L 287.161245 92.909464 
z
" clip-path="url(#p9a301c8d5f)" style="fill: #1f77b4"/>
   </g>
   <g id="patch_144">
    <path d="M 288.781054 273.312 
L 290.400863 273.312 
L 290.400863 98.022086 
L 288.781054 98.022086 
z
" clip-path="url(#p9a301c8d5f)" style="fill: #1f77b4"/>
   </g>
   <g id="patch_145">
    <path d="M 290.400863 273.312 
L 292.020672 273.312 
L 292.020672 81.953844 
L 290.400863 81.953844 
z
" clip-path="url(#p9a301c8d5f)" style="fill: #1f77b4"/>
   </g>
   <g id="patch_146">
    <path d="M 292.020672 273.312 
L 293.640481 273.312 
L 293.640481 89.987965 
L 292.020672 89.987965 
z
" clip-path="url(#p9a301c8d5f)" style="fill: #1f77b4"/>
   </g>
   <g id="patch_147">
    <path d="M 293.640481 273.312 
L 295.26029 273.312 
L 295.26029 96.561337 
L 293.640481 96.561337 
z
" clip-path="url(#p9a301c8d5f)" style="fill: #1f77b4"/>
   </g>
   <g id="patch_148">
    <path d="M 295.26029 273.312 
L 296.880099 273.312 
L 296.880099 86.336092 
L 295.26029 86.336092 
z
" clip-path="url(#p9a301c8d5f)" style="fill: #1f77b4"/>
   </g>
   <g id="patch_149">
    <path d="M 296.880099 273.312 
L 298.499908 273.312 
L 298.499908 118.472576 
L 296.880099 118.472576 
z
" clip-path="url(#p9a301c8d5f)" style="fill: #1f77b4"/>
   </g>
   <g id="patch_150">
    <path d="M 298.499908 273.312 
L 300.119717 273.312 
L 300.119717 101.67396 
L 298.499908 101.67396 
z
" clip-path="url(#p9a301c8d5f)" style="fill: #1f77b4"/>
   </g>
   <g id="patch_151">
    <path d="M 300.119717 273.312 
L 301.739526 273.312 
L 301.739526 91.448715 
L 300.119717 91.448715 
z
" clip-path="url(#p9a301c8d5f)" style="fill: #1f77b4"/>
   </g>
   <g id="patch_152">
    <path d="M 301.739526 273.312 
L 303.359336 273.312 
L 303.359336 114.820703 
L 301.739526 114.820703 
z
" clip-path="url(#p9a301c8d5f)" style="fill: #1f77b4"/>
   </g>
   <g id="patch_153">
    <path d="M 303.359336 273.312 
L 304.979145 273.312 
L 304.979145 113.359954 
L 303.359336 113.359954 
z
" clip-path="url(#p9a301c8d5f)" style="fill: #1f77b4"/>
   </g>
   <g id="patch_154">
    <path d="M 304.979145 273.312 
L 306.598954 273.312 
L 306.598954 119.202951 
L 304.979145 119.202951 
z
" clip-path="url(#p9a301c8d5f)" style="fill: #1f77b4"/>
   </g>
   <g id="patch_155">
    <path d="M 306.598954 273.312 
L 308.218763 273.312 
L 308.218763 106.786582 
L 306.598954 106.786582 
z
" clip-path="url(#p9a301c8d5f)" style="fill: #1f77b4"/>
   </g>
   <g id="patch_156">
    <path d="M 308.218763 273.312 
L 309.838572 273.312 
L 309.838572 131.61932 
L 308.218763 131.61932 
z
" clip-path="url(#p9a301c8d5f)" style="fill: #1f77b4"/>
   </g>
   <g id="patch_157">
    <path d="M 309.838572 273.312 
L 311.458381 273.312 
L 311.458381 116.281452 
L 309.838572 116.281452 
z
" clip-path="url(#p9a301c8d5f)" style="fill: #1f77b4"/>
   </g>
   <g id="patch_158">
    <path d="M 311.458381 273.312 
L 313.07819 273.312 
L 313.07819 133.080069 
L 311.458381 133.080069 
z
" clip-path="url(#p9a301c8d5f)" style="fill: #1f77b4"/>
   </g>
   <g id="patch_159">
    <path d="M 313.07819 273.312 
L 314.697999 273.312 
L 314.697999 127.237072 
L 313.07819 127.237072 
z
" clip-path="url(#p9a301c8d5f)" style="fill: #1f77b4"/>
   </g>
   <g id="patch_160">
    <path d="M 314.697999 273.312 
L 316.317808 273.312 
L 316.317808 146.957187 
L 314.697999 146.957187 
z
" clip-path="url(#p9a301c8d5f)" style="fill: #1f77b4"/>
   </g>
   <g id="patch_161">
    <path d="M 316.317808 273.312 
L 317.937617 273.312 
L 317.937617 141.844565 
L 316.317808 141.844565 
z
" clip-path="url(#p9a301c8d5f)" style="fill: #1f77b4"/>
   </g>
   <g id="patch_162">
    <path d="M 317.937617 273.312 
L 319.557426 273.312 
L 319.557426 136.731942 
L 317.937617 136.731942 
z
" clip-path="url(#p9a301c8d5f)" style="fill: #1f77b4"/>
   </g>
   <g id="patch_163">
    <path d="M 319.557426 273.312 
L 321.177235 273.312 
L 321.177235 127.237072 
L 319.557426 127.237072 
z
" clip-path="url(#p9a301c8d5f)" style="fill: #1f77b4"/>
   </g>
   <g id="patch_164">
    <path d="M 321.177235 273.312 
L 322.797044 273.312 
L 322.797044 141.844565 
L 321.177235 141.844565 
z
" clip-path="url(#p9a301c8d5f)" style="fill: #1f77b4"/>
   </g>
   <g id="patch_165">
    <path d="M 322.797044 273.312 
L 324.416853 273.312 
L 324.416853 148.417937 
L 322.797044 148.417937 
z
" clip-path="url(#p9a301c8d5f)" style="fill: #1f77b4"/>
   </g>
   <g id="patch_166">
    <path d="M 324.416853 273.312 
L 326.036662 273.312 
L 326.036662 141.11419 
L 324.416853 141.11419 
z
" clip-path="url(#p9a301c8d5f)" style="fill: #1f77b4"/>
   </g>
   <g id="patch_167">
    <path d="M 326.036662 273.312 
L 327.656471 273.312 
L 327.656471 158.643182 
L 326.036662 158.643182 
z
" clip-path="url(#p9a301c8d5f)" style="fill: #1f77b4"/>
   </g>
   <g id="patch_168">
    <path d="M 327.656471 273.312 
L 329.27628 273.312 
L 329.27628 164.486179 
L 327.656471 164.486179 
z
" clip-path="url(#p9a301c8d5f)" style="fill: #1f77b4"/>
   </g>
   <g id="patch_169">
    <path d="M 329.27628 273.312 
L 330.896089 273.312 
L 330.896089 159.373556 
L 329.27628 159.373556 
z
" clip-path="url(#p9a301c8d5f)" style="fill: #1f77b4"/>
   </g>
   <g id="patch_170">
    <path d="M 330.896089 273.312 
L 332.515898 273.312 
L 332.515898 168.868427 
L 330.896089 168.868427 
z
" clip-path="url(#p9a301c8d5f)" style="fill: #1f77b4"/>
   </g>
   <g id="patch_171">
    <path d="M 332.515898 273.312 
L 334.135707 273.312 
L 334.135707 147.687562 
L 332.515898 147.687562 
z
" clip-path="url(#p9a301c8d5f)" style="fill: #1f77b4"/>
   </g>
   <g id="patch_172">
    <path d="M 334.135707 273.312 
L 335.755516 273.312 
L 335.755516 171.05955 
L 334.135707 171.05955 
z
" clip-path="url(#p9a301c8d5f)" style="fill: #1f77b4"/>
   </g>
   <g id="patch_173">
    <path d="M 335.755516 273.312 
L 337.375325 273.312 
L 337.375325 160.103931 
L 335.755516 160.103931 
z
" clip-path="url(#p9a301c8d5f)" style="fill: #1f77b4"/>
   </g>
   <g id="patch_174">
    <path d="M 337.375325 273.312 
L 338.995135 273.312 
L 338.995135 162.295055 
L 337.375325 162.295055 
z
" clip-path="url(#p9a301c8d5f)" style="fill: #1f77b4"/>
   </g>
   <g id="patch_175">
    <path d="M 338.995135 273.312 
L 340.614944 273.312 
L 340.614944 165.946928 
L 338.995135 165.946928 
z
" clip-path="url(#p9a301c8d5f)" style="fill: #1f77b4"/>
   </g>
   <g id="patch_176">
    <path d="M 340.614944 273.312 
L 342.234753 273.312 
L 342.234753 182.745545 
L 340.614944 182.745545 
z
" clip-path="url(#p9a301c8d5f)" style="fill: #1f77b4"/>
   </g>
   <g id="patch_177">
    <path d="M 342.234753 273.312 
L 343.854562 273.312 
L 343.854562 181.284795 
L 342.234753 181.284795 
z
" clip-path="url(#p9a301c8d5f)" style="fill: #1f77b4"/>
   </g>
   <g id="patch_178">
    <path d="M 343.854562 273.312 
L 345.474371 273.312 
L 345.474371 175.441798 
L 343.854562 175.441798 
z
" clip-path="url(#p9a301c8d5f)" style="fill: #1f77b4"/>
   </g>
   <g id="patch_179">
    <path d="M 345.474371 273.312 
L 347.09418 273.312 
L 347.09418 176.902548 
L 345.474371 176.902548 
z
" clip-path="url(#p9a301c8d5f)" style="fill: #1f77b4"/>
   </g>
   <g id="patch_180">
    <path d="M 347.09418 273.312 
L 348.713989 273.312 
L 348.713989 191.51004 
L 347.09418 191.51004 
z
" clip-path="url(#p9a301c8d5f)" style="fill: #1f77b4"/>
   </g>
   <g id="patch_181">
    <path d="M 348.713989 273.312 
L 350.333798 273.312 
L 350.333798 204.656784 
L 348.713989 204.656784 
z
" clip-path="url(#p9a301c8d5f)" style="fill: #1f77b4"/>
   </g>
   <g id="patch_182">
    <path d="M 350.333798 273.312 
L 351.953607 273.312 
L 351.953607 207.578282 
L 350.333798 207.578282 
z
" clip-path="url(#p9a301c8d5f)" style="fill: #1f77b4"/>
   </g>
   <g id="patch_183">
    <path d="M 351.953607 273.312 
L 353.573416 273.312 
L 353.573416 190.049291 
L 351.953607 190.049291 
z
" clip-path="url(#p9a301c8d5f)" style="fill: #1f77b4"/>
   </g>
   <g id="patch_184">
    <path d="M 353.573416 273.312 
L 355.193225 273.312 
L 355.193225 208.308657 
L 353.573416 208.308657 
z
" clip-path="url(#p9a301c8d5f)" style="fill: #1f77b4"/>
   </g>
   <g id="patch_185">
    <path d="M 355.193225 273.312 
L 356.813034 273.312 
L 356.813034 206.847908 
L 355.193225 206.847908 
z
" clip-path="url(#p9a301c8d5f)" style="fill: #1f77b4"/>
   </g>
   <g id="patch_186">
    <path d="M 356.813034 273.312 
L 358.432843 273.312 
L 358.432843 222.185775 
L 356.813034 222.185775 
z
" clip-path="url(#p9a301c8d5f)" style="fill: #1f77b4"/>
   </g>
   <g id="patch_187">
    <path d="M 358.432843 273.312 
L 360.052652 273.312 
L 360.052652 222.185775 
L 358.432843 222.185775 
z
" clip-path="url(#p9a301c8d5f)" style="fill: #1f77b4"/>
   </g>
   <g id="patch_188">
    <path d="M 360.052652 273.312 
L 361.672461 273.312 
L 361.672461 228.028772 
L 360.052652 228.028772 
z
" clip-path="url(#p9a301c8d5f)" style="fill: #1f77b4"/>
   </g>
   <g id="patch_189">
    <path d="M 361.672461 273.312 
L 363.29227 273.312 
L 363.29227 214.151654 
L 361.672461 214.151654 
z
" clip-path="url(#p9a301c8d5f)" style="fill: #1f77b4"/>
   </g>
   <g id="patch_190">
    <path d="M 363.29227 273.312 
L 364.912079 273.312 
L 364.912079 225.837648 
L 363.29227 225.837648 
z
" clip-path="url(#p9a301c8d5f)" style="fill: #1f77b4"/>
   </g>
   <g id="patch_191">
    <path d="M 364.912079 273.312 
L 366.531888 273.312 
L 366.531888 225.107274 
L 364.912079 225.107274 
z
" clip-path="url(#p9a301c8d5f)" style="fill: #1f77b4"/>
   </g>
   <g id="patch_192">
    <path d="M 366.531888 273.312 
L 368.151697 273.312 
L 368.151697 230.950271 
L 366.531888 230.950271 
z
" clip-path="url(#p9a301c8d5f)" style="fill: #1f77b4"/>
   </g>
   <g id="patch_193">
    <path d="M 368.151697 273.312 
L 369.771506 273.312 
L 369.771506 234.602144 
L 368.151697 234.602144 
z
" clip-path="url(#p9a301c8d5f)" style="fill: #1f77b4"/>
   </g>
   <g id="patch_194">
    <path d="M 369.771506 273.312 
L 371.391315 273.312 
L 371.391315 241.90589 
L 369.771506 241.90589 
z
" clip-path="url(#p9a301c8d5f)" style="fill: #1f77b4"/>
   </g>
   <g id="patch_195">
    <path d="M 371.391315 273.312 
L 373.011124 273.312 
L 373.011124 238.984392 
L 371.391315 238.984392 
z
" clip-path="url(#p9a301c8d5f)" style="fill: #1f77b4"/>
   </g>
   <g id="patch_196">
    <path d="M 373.011124 273.312 
L 374.630934 273.312 
L 374.630934 254.322259 
L 373.011124 254.322259 
z
" clip-path="url(#p9a301c8d5f)" style="fill: #1f77b4"/>
   </g>
   <g id="patch_197">
    <path d="M 374.630934 273.312 
L 376.250743 273.312 
L 376.250743 254.322259 
L 374.630934 254.322259 
z
" clip-path="url(#p9a301c8d5f)" style="fill: #1f77b4"/>
   </g>
   <g id="patch_198">
    <path d="M 376.250743 273.312 
L 377.870552 273.312 
L 377.870552 260.165256 
L 376.250743 260.165256 
z
" clip-path="url(#p9a301c8d5f)" style="fill: #1f77b4"/>
   </g>
   <g id="patch_199">
    <path d="M 377.870552 273.312 
L 379.490361 273.312 
L 379.490361 264.547504 
L 377.870552 264.547504 
z
" clip-path="url(#p9a301c8d5f)" style="fill: #1f77b4"/>
   </g>
   <g id="patch_200">
    <path d="M 379.490361 273.312 
L 381.11017 273.312 
L 381.11017 263.81713 
L 379.490361 263.81713 
z
" clip-path="url(#p9a301c8d5f)" style="fill: #1f77b4"/>
   </g>
   <g id="patch_201">
    <path d="M 381.11017 273.312 
L 382.729979 273.312 
L 382.729979 264.547504 
L 381.11017 264.547504 
z
" clip-path="url(#p9a301c8d5f)" style="fill: #1f77b4"/>
   </g>
   <g id="patch_202">
    <path d="M 382.729979 273.312 
L 384.349788 273.312 
L 384.349788 268.929752 
L 382.729979 268.929752 
z
" clip-path="url(#p9a301c8d5f)" style="fill: #1f77b4"/>
   </g>
   <g id="matplotlib.axis_1">
    <g id="xtick_1">
     <g id="line2d_1">
      <defs>
       <path id="mb3be93d788" d="M 0 0 
L 0 3.5 
" style="stroke: #000000; stroke-width: 0.8"/>
      </defs>
      <g>
       <use xlink:href="#mb3be93d788" x="60.013977" y="273.312" style="stroke: #000000; stroke-width: 0.8"/>
      </g>
     </g>
     <g id="text_1">
      <!-- 0.0 -->
      <g transform="translate(52.062415 287.910437)scale(0.1 -0.1)">
       <defs>
        <path id="DejaVuSans-30" d="M 2034 4250 
Q 1547 4250 1301 3770 
Q 1056 3291 1056 2328 
Q 1056 1369 1301 889 
Q 1547 409 2034 409 
Q 2525 409 2770 889 
Q 3016 1369 3016 2328 
Q 3016 3291 2770 3770 
Q 2525 4250 2034 4250 
z
M 2034 4750 
Q 2819 4750 3233 4129 
Q 3647 3509 3647 2328 
Q 3647 1150 3233 529 
Q 2819 -91 2034 -91 
Q 1250 -91 836 529 
Q 422 1150 422 2328 
Q 422 3509 836 4129 
Q 1250 4750 2034 4750 
z
" transform="scale(0.015625)"/>
        <path id="DejaVuSans-2e" d="M 684 794 
L 1344 794 
L 1344 0 
L 684 0 
L 684 794 
z
" transform="scale(0.015625)"/>
       </defs>
       <use xlink:href="#DejaVuSans-30"/>
       <use xlink:href="#DejaVuSans-2e" x="63.623047"/>
       <use xlink:href="#DejaVuSans-30" x="95.410156"/>
      </g>
     </g>
    </g>
    <g id="xtick_2">
     <g id="line2d_2">
      <g>
       <use xlink:href="#mb3be93d788" x="101.350278" y="273.312" style="stroke: #000000; stroke-width: 0.8"/>
      </g>
     </g>
     <g id="text_2">
      <!-- 0.2 -->
      <g transform="translate(93.398715 287.910437)scale(0.1 -0.1)">
       <defs>
        <path id="DejaVuSans-32" d="M 1228 531 
L 3431 531 
L 3431 0 
L 469 0 
L 469 531 
Q 828 903 1448 1529 
Q 2069 2156 2228 2338 
Q 2531 2678 2651 2914 
Q 2772 3150 2772 3378 
Q 2772 3750 2511 3984 
Q 2250 4219 1831 4219 
Q 1534 4219 1204 4116 
Q 875 4013 500 3803 
L 500 4441 
Q 881 4594 1212 4672 
Q 1544 4750 1819 4750 
Q 2544 4750 2975 4387 
Q 3406 4025 3406 3419 
Q 3406 3131 3298 2873 
Q 3191 2616 2906 2266 
Q 2828 2175 2409 1742 
Q 1991 1309 1228 531 
z
" transform="scale(0.015625)"/>
       </defs>
       <use xlink:href="#DejaVuSans-30"/>
       <use xlink:href="#DejaVuSans-2e" x="63.623047"/>
       <use xlink:href="#DejaVuSans-32" x="95.410156"/>
      </g>
     </g>
    </g>
    <g id="xtick_3">
     <g id="line2d_3">
      <g>
       <use xlink:href="#mb3be93d788" x="142.686578" y="273.312" style="stroke: #000000; stroke-width: 0.8"/>
      </g>
     </g>
     <g id="text_3">
      <!-- 0.4 -->
      <g transform="translate(134.735016 287.910437)scale(0.1 -0.1)">
       <defs>
        <path id="DejaVuSans-34" d="M 2419 4116 
L 825 1625 
L 2419 1625 
L 2419 4116 
z
M 2253 4666 
L 3047 4666 
L 3047 1625 
L 3713 1625 
L 3713 1100 
L 3047 1100 
L 3047 0 
L 2419 0 
L 2419 1100 
L 313 1100 
L 313 1709 
L 2253 4666 
z
" transform="scale(0.015625)"/>
       </defs>
       <use xlink:href="#DejaVuSans-30"/>
       <use xlink:href="#DejaVuSans-2e" x="63.623047"/>
       <use xlink:href="#DejaVuSans-34" x="95.410156"/>
      </g>
     </g>
    </g>
    <g id="xtick_4">
     <g id="line2d_4">
      <g>
       <use xlink:href="#mb3be93d788" x="184.022879" y="273.312" style="stroke: #000000; stroke-width: 0.8"/>
      </g>
     </g>
     <g id="text_4">
      <!-- 0.6 -->
      <g transform="translate(176.071316 287.910437)scale(0.1 -0.1)">
       <defs>
        <path id="DejaVuSans-36" d="M 2113 2584 
Q 1688 2584 1439 2293 
Q 1191 2003 1191 1497 
Q 1191 994 1439 701 
Q 1688 409 2113 409 
Q 2538 409 2786 701 
Q 3034 994 3034 1497 
Q 3034 2003 2786 2293 
Q 2538 2584 2113 2584 
z
M 3366 4563 
L 3366 3988 
Q 3128 4100 2886 4159 
Q 2644 4219 2406 4219 
Q 1781 4219 1451 3797 
Q 1122 3375 1075 2522 
Q 1259 2794 1537 2939 
Q 1816 3084 2150 3084 
Q 2853 3084 3261 2657 
Q 3669 2231 3669 1497 
Q 3669 778 3244 343 
Q 2819 -91 2113 -91 
Q 1303 -91 875 529 
Q 447 1150 447 2328 
Q 447 3434 972 4092 
Q 1497 4750 2381 4750 
Q 2619 4750 2861 4703 
Q 3103 4656 3366 4563 
z
" transform="scale(0.015625)"/>
       </defs>
       <use xlink:href="#DejaVuSans-30"/>
       <use xlink:href="#DejaVuSans-2e" x="63.623047"/>
       <use xlink:href="#DejaVuSans-36" x="95.410156"/>
      </g>
     </g>
    </g>
    <g id="xtick_5">
     <g id="line2d_5">
      <g>
       <use xlink:href="#mb3be93d788" x="225.35918" y="273.312" style="stroke: #000000; stroke-width: 0.8"/>
      </g>
     </g>
     <g id="text_5">
      <!-- 0.8 -->
      <g transform="translate(217.407617 287.910437)scale(0.1 -0.1)">
       <defs>
        <path id="DejaVuSans-38" d="M 2034 2216 
Q 1584 2216 1326 1975 
Q 1069 1734 1069 1313 
Q 1069 891 1326 650 
Q 1584 409 2034 409 
Q 2484 409 2743 651 
Q 3003 894 3003 1313 
Q 3003 1734 2745 1975 
Q 2488 2216 2034 2216 
z
M 1403 2484 
Q 997 2584 770 2862 
Q 544 3141 544 3541 
Q 544 4100 942 4425 
Q 1341 4750 2034 4750 
Q 2731 4750 3128 4425 
Q 3525 4100 3525 3541 
Q 3525 3141 3298 2862 
Q 3072 2584 2669 2484 
Q 3125 2378 3379 2068 
Q 3634 1759 3634 1313 
Q 3634 634 3220 271 
Q 2806 -91 2034 -91 
Q 1263 -91 848 271 
Q 434 634 434 1313 
Q 434 1759 690 2068 
Q 947 2378 1403 2484 
z
M 1172 3481 
Q 1172 3119 1398 2916 
Q 1625 2713 2034 2713 
Q 2441 2713 2670 2916 
Q 2900 3119 2900 3481 
Q 2900 3844 2670 4047 
Q 2441 4250 2034 4250 
Q 1625 4250 1398 4047 
Q 1172 3844 1172 3481 
z
" transform="scale(0.015625)"/>
       </defs>
       <use xlink:href="#DejaVuSans-30"/>
       <use xlink:href="#DejaVuSans-2e" x="63.623047"/>
       <use xlink:href="#DejaVuSans-38" x="95.410156"/>
      </g>
     </g>
    </g>
    <g id="xtick_6">
     <g id="line2d_6">
      <g>
       <use xlink:href="#mb3be93d788" x="266.69548" y="273.312" style="stroke: #000000; stroke-width: 0.8"/>
      </g>
     </g>
     <g id="text_6">
      <!-- 1.0 -->
      <g transform="translate(258.743918 287.910437)scale(0.1 -0.1)">
       <defs>
        <path id="DejaVuSans-31" d="M 794 531 
L 1825 531 
L 1825 4091 
L 703 3866 
L 703 4441 
L 1819 4666 
L 2450 4666 
L 2450 531 
L 3481 531 
L 3481 0 
L 794 0 
L 794 531 
z
" transform="scale(0.015625)"/>
       </defs>
       <use xlink:href="#DejaVuSans-31"/>
       <use xlink:href="#DejaVuSans-2e" x="63.623047"/>
       <use xlink:href="#DejaVuSans-30" x="95.410156"/>
      </g>
     </g>
    </g>
    <g id="xtick_7">
     <g id="line2d_7">
      <g>
       <use xlink:href="#mb3be93d788" x="308.031781" y="273.312" style="stroke: #000000; stroke-width: 0.8"/>
      </g>
     </g>
     <g id="text_7">
      <!-- 1.2 -->
      <g transform="translate(300.080218 287.910437)scale(0.1 -0.1)">
       <use xlink:href="#DejaVuSans-31"/>
       <use xlink:href="#DejaVuSans-2e" x="63.623047"/>
       <use xlink:href="#DejaVuSans-32" x="95.410156"/>
      </g>
     </g>
    </g>
    <g id="xtick_8">
     <g id="line2d_8">
      <g>
       <use xlink:href="#mb3be93d788" x="349.368081" y="273.312" style="stroke: #000000; stroke-width: 0.8"/>
      </g>
     </g>
     <g id="text_8">
      <!-- 1.4 -->
      <g transform="translate(341.416519 287.910437)scale(0.1 -0.1)">
       <use xlink:href="#DejaVuSans-31"/>
       <use xlink:href="#DejaVuSans-2e" x="63.623047"/>
       <use xlink:href="#DejaVuSans-34" x="95.410156"/>
      </g>
     </g>
    </g>
    <g id="xtick_9">
     <g id="line2d_9">
      <g>
       <use xlink:href="#mb3be93d788" x="390.704382" y="273.312" style="stroke: #000000; stroke-width: 0.8"/>
      </g>
     </g>
     <g id="text_9">
      <!-- 1.6 -->
      <g transform="translate(382.752819 287.910437)scale(0.1 -0.1)">
       <use xlink:href="#DejaVuSans-31"/>
       <use xlink:href="#DejaVuSans-2e" x="63.623047"/>
       <use xlink:href="#DejaVuSans-36" x="95.410156"/>
      </g>
     </g>
    </g>
    <g id="text_10">
     <!-- Angle with normal (rad) -->
     <g transform="translate(163.023281 301.588562)scale(0.1 -0.1)">
      <defs>
       <path id="DejaVuSans-41" d="M 2188 4044 
L 1331 1722 
L 3047 1722 
L 2188 4044 
z
M 1831 4666 
L 2547 4666 
L 4325 0 
L 3669 0 
L 3244 1197 
L 1141 1197 
L 716 0 
L 50 0 
L 1831 4666 
z
" transform="scale(0.015625)"/>
       <path id="DejaVuSans-6e" d="M 3513 2113 
L 3513 0 
L 2938 0 
L 2938 2094 
Q 2938 2591 2744 2837 
Q 2550 3084 2163 3084 
Q 1697 3084 1428 2787 
Q 1159 2491 1159 1978 
L 1159 0 
L 581 0 
L 581 3500 
L 1159 3500 
L 1159 2956 
Q 1366 3272 1645 3428 
Q 1925 3584 2291 3584 
Q 2894 3584 3203 3211 
Q 3513 2838 3513 2113 
z
" transform="scale(0.015625)"/>
       <path id="DejaVuSans-67" d="M 2906 1791 
Q 2906 2416 2648 2759 
Q 2391 3103 1925 3103 
Q 1463 3103 1205 2759 
Q 947 2416 947 1791 
Q 947 1169 1205 825 
Q 1463 481 1925 481 
Q 2391 481 2648 825 
Q 2906 1169 2906 1791 
z
M 3481 434 
Q 3481 -459 3084 -895 
Q 2688 -1331 1869 -1331 
Q 1566 -1331 1297 -1286 
Q 1028 -1241 775 -1147 
L 775 -588 
Q 1028 -725 1275 -790 
Q 1522 -856 1778 -856 
Q 2344 -856 2625 -561 
Q 2906 -266 2906 331 
L 2906 616 
Q 2728 306 2450 153 
Q 2172 0 1784 0 
Q 1141 0 747 490 
Q 353 981 353 1791 
Q 353 2603 747 3093 
Q 1141 3584 1784 3584 
Q 2172 3584 2450 3431 
Q 2728 3278 2906 2969 
L 2906 3500 
L 3481 3500 
L 3481 434 
z
" transform="scale(0.015625)"/>
       <path id="DejaVuSans-6c" d="M 603 4863 
L 1178 4863 
L 1178 0 
L 603 0 
L 603 4863 
z
" transform="scale(0.015625)"/>
       <path id="DejaVuSans-65" d="M 3597 1894 
L 3597 1613 
L 953 1613 
Q 991 1019 1311 708 
Q 1631 397 2203 397 
Q 2534 397 2845 478 
Q 3156 559 3463 722 
L 3463 178 
Q 3153 47 2828 -22 
Q 2503 -91 2169 -91 
Q 1331 -91 842 396 
Q 353 884 353 1716 
Q 353 2575 817 3079 
Q 1281 3584 2069 3584 
Q 2775 3584 3186 3129 
Q 3597 2675 3597 1894 
z
M 3022 2063 
Q 3016 2534 2758 2815 
Q 2500 3097 2075 3097 
Q 1594 3097 1305 2825 
Q 1016 2553 972 2059 
L 3022 2063 
z
" transform="scale(0.015625)"/>
       <path id="DejaVuSans-20" transform="scale(0.015625)"/>
       <path id="DejaVuSans-77" d="M 269 3500 
L 844 3500 
L 1563 769 
L 2278 3500 
L 2956 3500 
L 3675 769 
L 4391 3500 
L 4966 3500 
L 4050 0 
L 3372 0 
L 2619 2869 
L 1863 0 
L 1184 0 
L 269 3500 
z
" transform="scale(0.015625)"/>
       <path id="DejaVuSans-69" d="M 603 3500 
L 1178 3500 
L 1178 0 
L 603 0 
L 603 3500 
z
M 603 4863 
L 1178 4863 
L 1178 4134 
L 603 4134 
L 603 4863 
z
" transform="scale(0.015625)"/>
       <path id="DejaVuSans-74" d="M 1172 4494 
L 1172 3500 
L 2356 3500 
L 2356 3053 
L 1172 3053 
L 1172 1153 
Q 1172 725 1289 603 
Q 1406 481 1766 481 
L 2356 481 
L 2356 0 
L 1766 0 
Q 1100 0 847 248 
Q 594 497 594 1153 
L 594 3053 
L 172 3053 
L 172 3500 
L 594 3500 
L 594 4494 
L 1172 4494 
z
" transform="scale(0.015625)"/>
       <path id="DejaVuSans-68" d="M 3513 2113 
L 3513 0 
L 2938 0 
L 2938 2094 
Q 2938 2591 2744 2837 
Q 2550 3084 2163 3084 
Q 1697 3084 1428 2787 
Q 1159 2491 1159 1978 
L 1159 0 
L 581 0 
L 581 4863 
L 1159 4863 
L 1159 2956 
Q 1366 3272 1645 3428 
Q 1925 3584 2291 3584 
Q 2894 3584 3203 3211 
Q 3513 2838 3513 2113 
z
" transform="scale(0.015625)"/>
       <path id="DejaVuSans-6f" d="M 1959 3097 
Q 1497 3097 1228 2736 
Q 959 2375 959 1747 
Q 959 1119 1226 758 
Q 1494 397 1959 397 
Q 2419 397 2687 759 
Q 2956 1122 2956 1747 
Q 2956 2369 2687 2733 
Q 2419 3097 1959 3097 
z
M 1959 3584 
Q 2709 3584 3137 3096 
Q 3566 2609 3566 1747 
Q 3566 888 3137 398 
Q 2709 -91 1959 -91 
Q 1206 -91 779 398 
Q 353 888 353 1747 
Q 353 2609 779 3096 
Q 1206 3584 1959 3584 
z
" transform="scale(0.015625)"/>
       <path id="DejaVuSans-72" d="M 2631 2963 
Q 2534 3019 2420 3045 
Q 2306 3072 2169 3072 
Q 1681 3072 1420 2755 
Q 1159 2438 1159 1844 
L 1159 0 
L 581 0 
L 581 3500 
L 1159 3500 
L 1159 2956 
Q 1341 3275 1631 3429 
Q 1922 3584 2338 3584 
Q 2397 3584 2469 3576 
Q 2541 3569 2628 3553 
L 2631 2963 
z
" transform="scale(0.015625)"/>
       <path id="DejaVuSans-6d" d="M 3328 2828 
Q 3544 3216 3844 3400 
Q 4144 3584 4550 3584 
Q 5097 3584 5394 3201 
Q 5691 2819 5691 2113 
L 5691 0 
L 5113 0 
L 5113 2094 
Q 5113 2597 4934 2840 
Q 4756 3084 4391 3084 
Q 3944 3084 3684 2787 
Q 3425 2491 3425 1978 
L 3425 0 
L 2847 0 
L 2847 2094 
Q 2847 2600 2669 2842 
Q 2491 3084 2119 3084 
Q 1678 3084 1418 2786 
Q 1159 2488 1159 1978 
L 1159 0 
L 581 0 
L 581 3500 
L 1159 3500 
L 1159 2956 
Q 1356 3278 1631 3431 
Q 1906 3584 2284 3584 
Q 2666 3584 2933 3390 
Q 3200 3197 3328 2828 
z
" transform="scale(0.015625)"/>
       <path id="DejaVuSans-61" d="M 2194 1759 
Q 1497 1759 1228 1600 
Q 959 1441 959 1056 
Q 959 750 1161 570 
Q 1363 391 1709 391 
Q 2188 391 2477 730 
Q 2766 1069 2766 1631 
L 2766 1759 
L 2194 1759 
z
M 3341 1997 
L 3341 0 
L 2766 0 
L 2766 531 
Q 2569 213 2275 61 
Q 1981 -91 1556 -91 
Q 1019 -91 701 211 
Q 384 513 384 1019 
Q 384 1609 779 1909 
Q 1175 2209 1959 2209 
L 2766 2209 
L 2766 2266 
Q 2766 2663 2505 2880 
Q 2244 3097 1772 3097 
Q 1472 3097 1187 3025 
Q 903 2953 641 2809 
L 641 3341 
Q 956 3463 1253 3523 
Q 1550 3584 1831 3584 
Q 2591 3584 2966 3190 
Q 3341 2797 3341 1997 
z
" transform="scale(0.015625)"/>
       <path id="DejaVuSans-28" d="M 1984 4856 
Q 1566 4138 1362 3434 
Q 1159 2731 1159 2009 
Q 1159 1288 1364 580 
Q 1569 -128 1984 -844 
L 1484 -844 
Q 1016 -109 783 600 
Q 550 1309 550 2009 
Q 550 2706 781 3412 
Q 1013 4119 1484 4856 
L 1984 4856 
z
" transform="scale(0.015625)"/>
       <path id="DejaVuSans-64" d="M 2906 2969 
L 2906 4863 
L 3481 4863 
L 3481 0 
L 2906 0 
L 2906 525 
Q 2725 213 2448 61 
Q 2172 -91 1784 -91 
Q 1150 -91 751 415 
Q 353 922 353 1747 
Q 353 2572 751 3078 
Q 1150 3584 1784 3584 
Q 2172 3584 2448 3432 
Q 2725 3281 2906 2969 
z
M 947 1747 
Q 947 1113 1208 752 
Q 1469 391 1925 391 
Q 2381 391 2643 752 
Q 2906 1113 2906 1747 
Q 2906 2381 2643 2742 
Q 2381 3103 1925 3103 
Q 1469 3103 1208 2742 
Q 947 2381 947 1747 
z
" transform="scale(0.015625)"/>
       <path id="DejaVuSans-29" d="M 513 4856 
L 1013 4856 
Q 1481 4119 1714 3412 
Q 1947 2706 1947 2009 
Q 1947 1309 1714 600 
Q 1481 -109 1013 -844 
L 513 -844 
Q 928 -128 1133 580 
Q 1338 1288 1338 2009 
Q 1338 2731 1133 3434 
Q 928 4138 513 4856 
z
" transform="scale(0.015625)"/>
      </defs>
      <use xlink:href="#DejaVuSans-41"/>
      <use xlink:href="#DejaVuSans-6e" x="68.408203"/>
      <use xlink:href="#DejaVuSans-67" x="131.787109"/>
      <use xlink:href="#DejaVuSans-6c" x="195.263672"/>
      <use xlink:href="#DejaVuSans-65" x="223.046875"/>
      <use xlink:href="#DejaVuSans-20" x="284.570312"/>
      <use xlink:href="#DejaVuSans-77" x="316.357422"/>
      <use xlink:href="#DejaVuSans-69" x="398.144531"/>
      <use xlink:href="#DejaVuSans-74" x="425.927734"/>
      <use xlink:href="#DejaVuSans-68" x="465.136719"/>
      <use xlink:href="#DejaVuSans-20" x="528.515625"/>
      <use xlink:href="#DejaVuSans-6e" x="560.302734"/>
      <use xlink:href="#DejaVuSans-6f" x="623.681641"/>
      <use xlink:href="#DejaVuSans-72" x="684.863281"/>
      <use xlink:href="#DejaVuSans-6d" x="724.226562"/>
      <use xlink:href="#DejaVuSans-61" x="821.638672"/>
      <use xlink:href="#DejaVuSans-6c" x="882.917969"/>
      <use xlink:href="#DejaVuSans-20" x="910.701172"/>
      <use xlink:href="#DejaVuSans-28" x="942.488281"/>
      <use xlink:href="#DejaVuSans-72" x="981.501953"/>
      <use xlink:href="#DejaVuSans-61" x="1022.615234"/>
      <use xlink:href="#DejaVuSans-64" x="1083.894531"/>
      <use xlink:href="#DejaVuSans-29" x="1147.371094"/>
     </g>
    </g>
   </g>
   <g id="matplotlib.axis_2">
    <g id="ytick_1">
     <g id="line2d_10">
      <defs>
       <path id="m0c4d103bc7" d="M 0 0 
L -3.5 0 
" style="stroke: #000000; stroke-width: 0.8"/>
      </defs>
      <g>
       <use xlink:href="#m0c4d103bc7" x="43.78125" y="273.312" style="stroke: #000000; stroke-width: 0.8"/>
      </g>
     </g>
     <g id="text_11">
      <!-- 0.0 -->
      <g transform="translate(20.878125 277.111219)scale(0.1 -0.1)">
       <use xlink:href="#DejaVuSans-30"/>
       <use xlink:href="#DejaVuSans-2e" x="63.623047"/>
       <use xlink:href="#DejaVuSans-30" x="95.410156"/>
      </g>
     </g>
    </g>
    <g id="ytick_2">
     <g id="line2d_11">
      <g>
       <use xlink:href="#m0c4d103bc7" x="43.78125" y="227.519128" style="stroke: #000000; stroke-width: 0.8"/>
      </g>
     </g>
     <g id="text_12">
      <!-- 0.2 -->
      <g transform="translate(20.878125 231.318347)scale(0.1 -0.1)">
       <use xlink:href="#DejaVuSans-30"/>
       <use xlink:href="#DejaVuSans-2e" x="63.623047"/>
       <use xlink:href="#DejaVuSans-32" x="95.410156"/>
      </g>
     </g>
    </g>
    <g id="ytick_3">
     <g id="line2d_12">
      <g>
       <use xlink:href="#m0c4d103bc7" x="43.78125" y="181.726256" style="stroke: #000000; stroke-width: 0.8"/>
      </g>
     </g>
     <g id="text_13">
      <!-- 0.4 -->
      <g transform="translate(20.878125 185.525475)scale(0.1 -0.1)">
       <use xlink:href="#DejaVuSans-30"/>
       <use xlink:href="#DejaVuSans-2e" x="63.623047"/>
       <use xlink:href="#DejaVuSans-34" x="95.410156"/>
      </g>
     </g>
    </g>
    <g id="ytick_4">
     <g id="line2d_13">
      <g>
       <use xlink:href="#m0c4d103bc7" x="43.78125" y="135.933384" style="stroke: #000000; stroke-width: 0.8"/>
      </g>
     </g>
     <g id="text_14">
      <!-- 0.6 -->
      <g transform="translate(20.878125 139.732603)scale(0.1 -0.1)">
       <use xlink:href="#DejaVuSans-30"/>
       <use xlink:href="#DejaVuSans-2e" x="63.623047"/>
       <use xlink:href="#DejaVuSans-36" x="95.410156"/>
      </g>
     </g>
    </g>
    <g id="ytick_5">
     <g id="line2d_14">
      <g>
       <use xlink:href="#m0c4d103bc7" x="43.78125" y="90.140512" style="stroke: #000000; stroke-width: 0.8"/>
      </g>
     </g>
     <g id="text_15">
      <!-- 0.8 -->
      <g transform="translate(20.878125 93.939731)scale(0.1 -0.1)">
       <use xlink:href="#DejaVuSans-30"/>
       <use xlink:href="#DejaVuSans-2e" x="63.623047"/>
       <use xlink:href="#DejaVuSans-38" x="95.410156"/>
      </g>
     </g>
    </g>
    <g id="ytick_6">
     <g id="line2d_15">
      <g>
       <use xlink:href="#m0c4d103bc7" x="43.78125" y="44.34764" style="stroke: #000000; stroke-width: 0.8"/>
      </g>
     </g>
     <g id="text_16">
      <!-- 1.0 -->
      <g transform="translate(20.878125 48.146859)scale(0.1 -0.1)">
       <use xlink:href="#DejaVuSans-31"/>
       <use xlink:href="#DejaVuSans-2e" x="63.623047"/>
       <use xlink:href="#DejaVuSans-30" x="95.410156"/>
      </g>
     </g>
    </g>
    <g id="text_17">
     <!-- Probability density -->
     <g transform="translate(14.798438 186.606781)rotate(-90)scale(0.1 -0.1)">
      <defs>
       <path id="DejaVuSans-50" d="M 1259 4147 
L 1259 2394 
L 2053 2394 
Q 2494 2394 2734 2622 
Q 2975 2850 2975 3272 
Q 2975 3691 2734 3919 
Q 2494 4147 2053 4147 
L 1259 4147 
z
M 628 4666 
L 2053 4666 
Q 2838 4666 3239 4311 
Q 3641 3956 3641 3272 
Q 3641 2581 3239 2228 
Q 2838 1875 2053 1875 
L 1259 1875 
L 1259 0 
L 628 0 
L 628 4666 
z
" transform="scale(0.015625)"/>
       <path id="DejaVuSans-62" d="M 3116 1747 
Q 3116 2381 2855 2742 
Q 2594 3103 2138 3103 
Q 1681 3103 1420 2742 
Q 1159 2381 1159 1747 
Q 1159 1113 1420 752 
Q 1681 391 2138 391 
Q 2594 391 2855 752 
Q 3116 1113 3116 1747 
z
M 1159 2969 
Q 1341 3281 1617 3432 
Q 1894 3584 2278 3584 
Q 2916 3584 3314 3078 
Q 3713 2572 3713 1747 
Q 3713 922 3314 415 
Q 2916 -91 2278 -91 
Q 1894 -91 1617 61 
Q 1341 213 1159 525 
L 1159 0 
L 581 0 
L 581 4863 
L 1159 4863 
L 1159 2969 
z
" transform="scale(0.015625)"/>
       <path id="DejaVuSans-79" d="M 2059 -325 
Q 1816 -950 1584 -1140 
Q 1353 -1331 966 -1331 
L 506 -1331 
L 506 -850 
L 844 -850 
Q 1081 -850 1212 -737 
Q 1344 -625 1503 -206 
L 1606 56 
L 191 3500 
L 800 3500 
L 1894 763 
L 2988 3500 
L 3597 3500 
L 2059 -325 
z
" transform="scale(0.015625)"/>
       <path id="DejaVuSans-73" d="M 2834 3397 
L 2834 2853 
Q 2591 2978 2328 3040 
Q 2066 3103 1784 3103 
Q 1356 3103 1142 2972 
Q 928 2841 928 2578 
Q 928 2378 1081 2264 
Q 1234 2150 1697 2047 
L 1894 2003 
Q 2506 1872 2764 1633 
Q 3022 1394 3022 966 
Q 3022 478 2636 193 
Q 2250 -91 1575 -91 
Q 1294 -91 989 -36 
Q 684 19 347 128 
L 347 722 
Q 666 556 975 473 
Q 1284 391 1588 391 
Q 1994 391 2212 530 
Q 2431 669 2431 922 
Q 2431 1156 2273 1281 
Q 2116 1406 1581 1522 
L 1381 1569 
Q 847 1681 609 1914 
Q 372 2147 372 2553 
Q 372 3047 722 3315 
Q 1072 3584 1716 3584 
Q 2034 3584 2315 3537 
Q 2597 3491 2834 3397 
z
" transform="scale(0.015625)"/>
      </defs>
      <use xlink:href="#DejaVuSans-50"/>
      <use xlink:href="#DejaVuSans-72" x="58.552734"/>
      <use xlink:href="#DejaVuSans-6f" x="97.416016"/>
      <use xlink:href="#DejaVuSans-62" x="158.597656"/>
      <use xlink:href="#DejaVuSans-61" x="222.074219"/>
      <use xlink:href="#DejaVuSans-62" x="283.353516"/>
      <use xlink:href="#DejaVuSans-69" x="346.830078"/>
      <use xlink:href="#DejaVuSans-6c" x="374.613281"/>
      <use xlink:href="#DejaVuSans-69" x="402.396484"/>
      <use xlink:href="#DejaVuSans-74" x="430.179688"/>
      <use xlink:href="#DejaVuSans-79" x="469.388672"/>
      <use xlink:href="#DejaVuSans-20" x="528.568359"/>
      <use xlink:href="#DejaVuSans-64" x="560.355469"/>
      <use xlink:href="#DejaVuSans-65" x="623.832031"/>
      <use xlink:href="#DejaVuSans-6e" x="685.355469"/>
      <use xlink:href="#DejaVuSans-73" x="748.734375"/>
      <use xlink:href="#DejaVuSans-69" x="800.833984"/>
      <use xlink:href="#DejaVuSans-74" x="828.617188"/>
      <use xlink:href="#DejaVuSans-79" x="867.826172"/>
     </g>
    </g>
   </g>
   <g id="line2d_16">
    <path d="M 60.013977 273.312 
L 79.837728 229.658881 
L 90.237073 207.299471 
L 99.01152 188.944267 
L 106.811029 173.134824 
L 113.960578 159.141745 
L 120.460169 146.893073 
L 126.63478 135.719157 
L 132.484411 125.585698 
L 138.009063 116.449183 
L 143.208736 108.259099 
L 148.408408 100.486787 
L 153.283101 93.597178 
L 157.832814 87.527299 
L 162.382528 81.817473 
L 166.932241 76.478763 
L 171.156975 71.862746 
L 175.381709 67.583366 
L 179.281463 63.938152 
L 183.181217 60.591065 
L 187.080972 57.546872 
L 190.655746 55.026155 
L 194.230521 52.766616 
L 197.805296 50.770959 
L 201.380071 49.04157 
L 204.629866 47.702206 
L 207.879661 46.585938 
L 211.129456 45.693869 
L 214.379252 45.026881 
L 217.629047 44.585635 
L 220.878842 44.370566 
L 224.128637 44.381887 
L 227.378433 44.619587 
L 230.628228 45.083431 
L 233.878023 45.77296 
L 237.127818 46.687492 
L 240.377614 47.826123 
L 243.627409 49.187728 
L 247.202184 50.941413 
L 250.776958 52.961163 
L 254.351733 55.244562 
L 257.926508 57.788877 
L 261.501283 60.591065 
L 265.401037 63.938152 
L 269.300791 67.583366 
L 273.200546 71.521517 
L 277.425279 76.111905 
L 281.650013 81.031829 
L 286.199727 86.6893 
L 290.74944 92.708447 
L 295.624133 99.545615 
L 300.498826 106.76936 
L 305.698498 114.88266 
L 311.22315 123.94194 
L 316.747802 133.428022 
L 322.597433 143.907167 
L 328.772044 155.417498 
L 335.596614 168.62725 
L 342.746164 182.954535 
L 350.870652 199.756434 
L 359.970079 219.10899 
L 371.019383 243.158473 
L 384.668523 273.312 
L 384.668523 273.312 
" clip-path="url(#p9a301c8d5f)" style="fill: none; stroke: #ff7f0e; stroke-width: 1.5; stroke-linecap: square"/>
   </g>
   <g id="patch_203">
    <path d="M 43.78125 273.312 
L 43.78125 7.2 
" style="fill: none; stroke: #000000; stroke-width: 0.8; stroke-linejoin: miter; stroke-linecap: square"/>
   </g>
   <g id="patch_204">
    <path d="M 400.90125 273.312 
L 400.90125 7.2 
" style="fill: none; stroke: #000000; stroke-width: 0.8; stroke-linejoin: miter; stroke-linecap: square"/>
   </g>
   <g id="patch_205">
    <path d="M 43.78125 273.312 
L 400.90125 273.312 
" style="fill: none; stroke: #000000; stroke-width: 0.8; stroke-linejoin: miter; stroke-linecap: square"/>
   </g>
   <g id="patch_206">
    <path d="M 43.78125 7.2 
L 400.90125 7.2 
" style="fill: none; stroke: #000000; stroke-width: 0.8; stroke-linejoin: miter; stroke-linecap: square"/>
   </g>
  </g>
 </g>
 <defs>
  <clipPath id="p9a301c8d5f">
   <rect x="43.78125" y="7.2" width="357.12" height="266.112"/>
  </clipPath>
 </defs>
</svg>
