<?xml version="1.0" encoding="utf-8" standalone="no"?>
<!DOCTYPE svg PUBLIC "-//W3C//DTD SVG 1.1//EN"
  "http://www.w3.org/Graphics/SVG/1.1/DTD/svg11.dtd">
<svg xmlns:xlink="http://www.w3.org/1999/xlink" width="408.10125pt" height="311.013104pt" viewBox="0 0 408.10125 311.013104" xmlns="http://www.w3.org/2000/svg" version="1.1">
 <metadata>
  <rdf:RDF xmlns:dc="http://purl.org/dc/elements/1.1/" xmlns:cc="http://creativecommons.org/ns#" xmlns:rdf="http://www.w3.org/1999/02/22-rdf-syntax-ns#">
   <cc:Work>
    <dc:type rdf:resource="http://purl.org/dc/dcmitype/StillImage"/>
    <dc:date>2022-05-02T20:14:58.063416</dc:date>
    <dc:format>image/svg+xml</dc:format>
    <dc:creator>
     <cc:Agent>
      <dc:title>Matplotlib v3.5.1, https://matplotlib.org/</dc:title>
     </cc:Agent>
    </dc:creator>
   </cc:Work>
  </rdf:RDF>
 </metadata>
 <defs>
  <style type="text/css">*{stroke-linejoin: round; stroke-linecap: butt}</style>
 </defs>
 <g id="figure_1">
  <g id="patch_1">
   <path d="M 0 311.013104 
L 408.10125 311.013104 
L 408.10125 0 
L 0 0 
z
" style="fill: #ffffff"/>
  </g>
  <g id="axes_1">
   <g id="patch_2">
    <path d="M 43.78125 273.456854 
L 400.90125 273.456854 
L 400.90125 7.344854 
L 43.78125 7.344854 
z
" style="fill: #ffffff"/>
   </g>
   <g id="patch_3">
    <path d="M 60.997454 273.456854 
L 62.607178 273.456854 
L 62.607178 269.946604 
L 60.997454 269.946604 
z
" clip-path="url(#p8fff589c92)" style="fill: #1f77b4"/>
   </g>
   <g id="patch_4">
    <path d="M 62.607178 273.456854 
L 64.216903 273.456854 
L 64.216903 266.436355 
L 62.607178 266.436355 
z
" clip-path="url(#p8fff589c92)" style="fill: #1f77b4"/>
   </g>
   <g id="patch_5">
    <path d="M 64.216903 273.456854 
L 65.826628 273.456854 
L 65.826628 263.628156 
L 64.216903 263.628156 
z
" clip-path="url(#p8fff589c92)" style="fill: #1f77b4"/>
   </g>
   <g id="patch_6">
    <path d="M 65.826628 273.456854 
L 67.436353 273.456854 
L 67.436353 256.607657 
L 65.826628 256.607657 
z
" clip-path="url(#p8fff589c92)" style="fill: #1f77b4"/>
   </g>
   <g id="patch_7">
    <path d="M 67.436353 273.456854 
L 69.046077 273.456854 
L 69.046077 256.607657 
L 67.436353 256.607657 
z
" clip-path="url(#p8fff589c92)" style="fill: #1f77b4"/>
   </g>
   <g id="patch_8">
    <path d="M 69.046077 273.456854 
L 70.655802 273.456854 
L 70.655802 250.991258 
L 69.046077 250.991258 
z
" clip-path="url(#p8fff589c92)" style="fill: #1f77b4"/>
   </g>
   <g id="patch_9">
    <path d="M 70.655802 273.456854 
L 72.265527 273.456854 
L 72.265527 243.97076 
L 70.655802 243.97076 
z
" clip-path="url(#p8fff589c92)" style="fill: #1f77b4"/>
   </g>
   <g id="patch_10">
    <path d="M 72.265527 273.456854 
L 73.875252 273.456854 
L 73.875252 247.481009 
L 72.265527 247.481009 
z
" clip-path="url(#p8fff589c92)" style="fill: #1f77b4"/>
   </g>
   <g id="patch_11">
    <path d="M 73.875252 273.456854 
L 75.484977 273.456854 
L 75.484977 243.26871 
L 73.875252 243.26871 
z
" clip-path="url(#p8fff589c92)" style="fill: #1f77b4"/>
   </g>
   <g id="patch_12">
    <path d="M 75.484977 273.456854 
L 77.094701 273.456854 
L 77.094701 248.885109 
L 75.484977 248.885109 
z
" clip-path="url(#p8fff589c92)" style="fill: #1f77b4"/>
   </g>
   <g id="patch_13">
    <path d="M 77.094701 273.456854 
L 78.704426 273.456854 
L 78.704426 234.142061 
L 77.094701 234.142061 
z
" clip-path="url(#p8fff589c92)" style="fill: #1f77b4"/>
   </g>
   <g id="patch_14">
    <path d="M 78.704426 273.456854 
L 80.314151 273.456854 
L 80.314151 228.525663 
L 78.704426 228.525663 
z
" clip-path="url(#p8fff589c92)" style="fill: #1f77b4"/>
   </g>
   <g id="patch_15">
    <path d="M 80.314151 273.456854 
L 81.923876 273.456854 
L 81.923876 239.05641 
L 80.314151 239.05641 
z
" clip-path="url(#p8fff589c92)" style="fill: #1f77b4"/>
   </g>
   <g id="patch_16">
    <path d="M 81.923876 273.456854 
L 83.5336 273.456854 
L 83.5336 222.909264 
L 81.923876 222.909264 
z
" clip-path="url(#p8fff589c92)" style="fill: #1f77b4"/>
   </g>
   <g id="patch_17">
    <path d="M 83.5336 273.456854 
L 85.143325 273.456854 
L 85.143325 218.696965 
L 83.5336 218.696965 
z
" clip-path="url(#p8fff589c92)" style="fill: #1f77b4"/>
   </g>
   <g id="patch_18">
    <path d="M 85.143325 273.456854 
L 86.75305 273.456854 
L 86.75305 215.888765 
L 85.143325 215.888765 
z
" clip-path="url(#p8fff589c92)" style="fill: #1f77b4"/>
   </g>
   <g id="patch_19">
    <path d="M 86.75305 273.456854 
L 88.362775 273.456854 
L 88.362775 208.166217 
L 86.75305 208.166217 
z
" clip-path="url(#p8fff589c92)" style="fill: #1f77b4"/>
   </g>
   <g id="patch_20">
    <path d="M 88.362775 273.456854 
L 89.972499 273.456854 
L 89.972499 213.080566 
L 88.362775 213.080566 
z
" clip-path="url(#p8fff589c92)" style="fill: #1f77b4"/>
   </g>
   <g id="patch_21">
    <path d="M 89.972499 273.456854 
L 91.582224 273.456854 
L 91.582224 210.974416 
L 89.972499 210.974416 
z
" clip-path="url(#p8fff589c92)" style="fill: #1f77b4"/>
   </g>
   <g id="patch_22">
    <path d="M 91.582224 273.456854 
L 93.191949 273.456854 
L 93.191949 198.337519 
L 91.582224 198.337519 
z
" clip-path="url(#p8fff589c92)" style="fill: #1f77b4"/>
   </g>
   <g id="patch_23">
    <path d="M 93.191949 273.456854 
L 94.801674 273.456854 
L 94.801674 201.145718 
L 93.191949 201.145718 
z
" clip-path="url(#p8fff589c92)" style="fill: #1f77b4"/>
   </g>
   <g id="patch_24">
    <path d="M 94.801674 273.456854 
L 96.411399 273.456854 
L 96.411399 197.635469 
L 94.801674 197.635469 
z
" clip-path="url(#p8fff589c92)" style="fill: #1f77b4"/>
   </g>
   <g id="patch_25">
    <path d="M 96.411399 273.456854 
L 98.021123 273.456854 
L 98.021123 192.01907 
L 96.411399 192.01907 
z
" clip-path="url(#p8fff589c92)" style="fill: #1f77b4"/>
   </g>
   <g id="patch_26">
    <path d="M 98.021123 273.456854 
L 99.630848 273.456854 
L 99.630848 181.488322 
L 98.021123 181.488322 
z
" clip-path="url(#p8fff589c92)" style="fill: #1f77b4"/>
   </g>
   <g id="patch_27">
    <path d="M 99.630848 273.456854 
L 101.240573 273.456854 
L 101.240573 184.998571 
L 99.630848 184.998571 
z
" clip-path="url(#p8fff589c92)" style="fill: #1f77b4"/>
   </g>
   <g id="patch_28">
    <path d="M 101.240573 273.456854 
L 102.850298 273.456854 
L 102.850298 184.296521 
L 101.240573 184.296521 
z
" clip-path="url(#p8fff589c92)" style="fill: #1f77b4"/>
   </g>
   <g id="patch_29">
    <path d="M 102.850298 273.456854 
L 104.460022 273.456854 
L 104.460022 184.296521 
L 102.850298 184.296521 
z
" clip-path="url(#p8fff589c92)" style="fill: #1f77b4"/>
   </g>
   <g id="patch_30">
    <path d="M 104.460022 273.456854 
L 106.069747 273.456854 
L 106.069747 184.998571 
L 104.460022 184.998571 
z
" clip-path="url(#p8fff589c92)" style="fill: #1f77b4"/>
   </g>
   <g id="patch_31">
    <path d="M 106.069747 273.456854 
L 107.679472 273.456854 
L 107.679472 175.169873 
L 106.069747 175.169873 
z
" clip-path="url(#p8fff589c92)" style="fill: #1f77b4"/>
   </g>
   <g id="patch_32">
    <path d="M 107.679472 273.456854 
L 109.289197 273.456854 
L 109.289197 170.255524 
L 107.679472 170.255524 
z
" clip-path="url(#p8fff589c92)" style="fill: #1f77b4"/>
   </g>
   <g id="patch_33">
    <path d="M 109.289197 273.456854 
L 110.898921 273.456854 
L 110.898921 168.851424 
L 109.289197 168.851424 
z
" clip-path="url(#p8fff589c92)" style="fill: #1f77b4"/>
   </g>
   <g id="patch_34">
    <path d="M 110.898921 273.456854 
L 112.508646 273.456854 
L 112.508646 170.255524 
L 110.898921 170.255524 
z
" clip-path="url(#p8fff589c92)" style="fill: #1f77b4"/>
   </g>
   <g id="patch_35">
    <path d="M 112.508646 273.456854 
L 114.118371 273.456854 
L 114.118371 166.745275 
L 112.508646 166.745275 
z
" clip-path="url(#p8fff589c92)" style="fill: #1f77b4"/>
   </g>
   <g id="patch_36">
    <path d="M 114.118371 273.456854 
L 115.728096 273.456854 
L 115.728096 156.214527 
L 114.118371 156.214527 
z
" clip-path="url(#p8fff589c92)" style="fill: #1f77b4"/>
   </g>
   <g id="patch_37">
    <path d="M 115.728096 273.456854 
L 117.337821 273.456854 
L 117.337821 163.937075 
L 115.728096 163.937075 
z
" clip-path="url(#p8fff589c92)" style="fill: #1f77b4"/>
   </g>
   <g id="patch_38">
    <path d="M 117.337821 273.456854 
L 118.947545 273.456854 
L 118.947545 159.022726 
L 117.337821 159.022726 
z
" clip-path="url(#p8fff589c92)" style="fill: #1f77b4"/>
   </g>
   <g id="patch_39">
    <path d="M 118.947545 273.456854 
L 120.55727 273.456854 
L 120.55727 167.447325 
L 118.947545 167.447325 
z
" clip-path="url(#p8fff589c92)" style="fill: #1f77b4"/>
   </g>
   <g id="patch_40">
    <path d="M 120.55727 273.456854 
L 122.166995 273.456854 
L 122.166995 162.532976 
L 120.55727 162.532976 
z
" clip-path="url(#p8fff589c92)" style="fill: #1f77b4"/>
   </g>
   <g id="patch_41">
    <path d="M 122.166995 273.456854 
L 123.77672 273.456854 
L 123.77672 157.618627 
L 122.166995 157.618627 
z
" clip-path="url(#p8fff589c92)" style="fill: #1f77b4"/>
   </g>
   <g id="patch_42">
    <path d="M 123.77672 273.456854 
L 125.386444 273.456854 
L 125.386444 144.279679 
L 123.77672 144.279679 
z
" clip-path="url(#p8fff589c92)" style="fill: #1f77b4"/>
   </g>
   <g id="patch_43">
    <path d="M 125.386444 273.456854 
L 126.996169 273.456854 
L 126.996169 142.17353 
L 125.386444 142.17353 
z
" clip-path="url(#p8fff589c92)" style="fill: #1f77b4"/>
   </g>
   <g id="patch_44">
    <path d="M 126.996169 273.456854 
L 128.605894 273.456854 
L 128.605894 150.598128 
L 126.996169 150.598128 
z
" clip-path="url(#p8fff589c92)" style="fill: #1f77b4"/>
   </g>
   <g id="patch_45">
    <path d="M 128.605894 273.456854 
L 130.215619 273.456854 
L 130.215619 127.430483 
L 128.605894 127.430483 
z
" clip-path="url(#p8fff589c92)" style="fill: #1f77b4"/>
   </g>
   <g id="patch_46">
    <path d="M 130.215619 273.456854 
L 131.825343 273.456854 
L 131.825343 138.66328 
L 130.215619 138.66328 
z
" clip-path="url(#p8fff589c92)" style="fill: #1f77b4"/>
   </g>
   <g id="patch_47">
    <path d="M 131.825343 273.456854 
L 133.435068 273.456854 
L 133.435068 126.728433 
L 131.825343 126.728433 
z
" clip-path="url(#p8fff589c92)" style="fill: #1f77b4"/>
   </g>
   <g id="patch_48">
    <path d="M 133.435068 273.456854 
L 135.044793 273.456854 
L 135.044793 130.940732 
L 133.435068 130.940732 
z
" clip-path="url(#p8fff589c92)" style="fill: #1f77b4"/>
   </g>
   <g id="patch_49">
    <path d="M 135.044793 273.456854 
L 136.654518 273.456854 
L 136.654518 130.238682 
L 135.044793 130.238682 
z
" clip-path="url(#p8fff589c92)" style="fill: #1f77b4"/>
   </g>
   <g id="patch_50">
    <path d="M 136.654518 273.456854 
L 138.264242 273.456854 
L 138.264242 129.536632 
L 136.654518 129.536632 
z
" clip-path="url(#p8fff589c92)" style="fill: #1f77b4"/>
   </g>
   <g id="patch_51">
    <path d="M 138.264242 273.456854 
L 139.873967 273.456854 
L 139.873967 137.259181 
L 138.264242 137.259181 
z
" clip-path="url(#p8fff589c92)" style="fill: #1f77b4"/>
   </g>
   <g id="patch_52">
    <path d="M 139.873967 273.456854 
L 141.483692 273.456854 
L 141.483692 126.026383 
L 139.873967 126.026383 
z
" clip-path="url(#p8fff589c92)" style="fill: #1f77b4"/>
   </g>
   <g id="patch_53">
    <path d="M 141.483692 273.456854 
L 143.093417 273.456854 
L 143.093417 123.218183 
L 141.483692 123.218183 
z
" clip-path="url(#p8fff589c92)" style="fill: #1f77b4"/>
   </g>
   <g id="patch_54">
    <path d="M 143.093417 273.456854 
L 144.703142 273.456854 
L 144.703142 105.666937 
L 143.093417 105.666937 
z
" clip-path="url(#p8fff589c92)" style="fill: #1f77b4"/>
   </g>
   <g id="patch_55">
    <path d="M 144.703142 273.456854 
L 146.312866 273.456854 
L 146.312866 119.707934 
L 144.703142 119.707934 
z
" clip-path="url(#p8fff589c92)" style="fill: #1f77b4"/>
   </g>
   <g id="patch_56">
    <path d="M 146.312866 273.456854 
L 147.922591 273.456854 
L 147.922591 90.22184 
L 146.312866 90.22184 
z
" clip-path="url(#p8fff589c92)" style="fill: #1f77b4"/>
   </g>
   <g id="patch_57">
    <path d="M 147.922591 273.456854 
L 149.532316 273.456854 
L 149.532316 104.964887 
L 147.922591 104.964887 
z
" clip-path="url(#p8fff589c92)" style="fill: #1f77b4"/>
   </g>
   <g id="patch_58">
    <path d="M 149.532316 273.456854 
L 151.142041 273.456854 
L 151.142041 110.581286 
L 149.532316 110.581286 
z
" clip-path="url(#p8fff589c92)" style="fill: #1f77b4"/>
   </g>
   <g id="patch_59">
    <path d="M 151.142041 273.456854 
L 152.751765 273.456854 
L 152.751765 95.838239 
L 151.142041 95.838239 
z
" clip-path="url(#p8fff589c92)" style="fill: #1f77b4"/>
   </g>
   <g id="patch_60">
    <path d="M 152.751765 273.456854 
L 154.36149 273.456854 
L 154.36149 92.327989 
L 152.751765 92.327989 
z
" clip-path="url(#p8fff589c92)" style="fill: #1f77b4"/>
   </g>
   <g id="patch_61">
    <path d="M 154.36149 273.456854 
L 155.971215 273.456854 
L 155.971215 111.985386 
L 154.36149 111.985386 
z
" clip-path="url(#p8fff589c92)" style="fill: #1f77b4"/>
   </g>
   <g id="patch_62">
    <path d="M 155.971215 273.456854 
L 157.58094 273.456854 
L 157.58094 125.324333 
L 155.971215 125.324333 
z
" clip-path="url(#p8fff589c92)" style="fill: #1f77b4"/>
   </g>
   <g id="patch_63">
    <path d="M 157.58094 273.456854 
L 159.190664 273.456854 
L 159.190664 104.262837 
L 157.58094 104.262837 
z
" clip-path="url(#p8fff589c92)" style="fill: #1f77b4"/>
   </g>
   <g id="patch_64">
    <path d="M 159.190664 273.456854 
L 160.800389 273.456854 
L 160.800389 97.242338 
L 159.190664 97.242338 
z
" clip-path="url(#p8fff589c92)" style="fill: #1f77b4"/>
   </g>
   <g id="patch_65">
    <path d="M 160.800389 273.456854 
L 162.410114 273.456854 
L 162.410114 102.858737 
L 160.800389 102.858737 
z
" clip-path="url(#p8fff589c92)" style="fill: #1f77b4"/>
   </g>
   <g id="patch_66">
    <path d="M 162.410114 273.456854 
L 164.019839 273.456854 
L 164.019839 78.286992 
L 162.410114 78.286992 
z
" clip-path="url(#p8fff589c92)" style="fill: #1f77b4"/>
   </g>
   <g id="patch_67">
    <path d="M 164.019839 273.456854 
L 165.629564 273.456854 
L 165.629564 89.51979 
L 164.019839 89.51979 
z
" clip-path="url(#p8fff589c92)" style="fill: #1f77b4"/>
   </g>
   <g id="patch_68">
    <path d="M 165.629564 273.456854 
L 167.239288 273.456854 
L 167.239288 98.646438 
L 165.629564 98.646438 
z
" clip-path="url(#p8fff589c92)" style="fill: #1f77b4"/>
   </g>
   <g id="patch_69">
    <path d="M 167.239288 273.456854 
L 168.849013 273.456854 
L 168.849013 87.41364 
L 167.239288 87.41364 
z
" clip-path="url(#p8fff589c92)" style="fill: #1f77b4"/>
   </g>
   <g id="patch_70">
    <path d="M 168.849013 273.456854 
L 170.458738 273.456854 
L 170.458738 83.201341 
L 168.849013 83.201341 
z
" clip-path="url(#p8fff589c92)" style="fill: #1f77b4"/>
   </g>
   <g id="patch_71">
    <path d="M 170.458738 273.456854 
L 172.068463 273.456854 
L 172.068463 87.41364 
L 170.458738 87.41364 
z
" clip-path="url(#p8fff589c92)" style="fill: #1f77b4"/>
   </g>
   <g id="patch_72">
    <path d="M 172.068463 273.456854 
L 173.678187 273.456854 
L 173.678187 74.776743 
L 172.068463 74.776743 
z
" clip-path="url(#p8fff589c92)" style="fill: #1f77b4"/>
   </g>
   <g id="patch_73">
    <path d="M 173.678187 273.456854 
L 175.287912 273.456854 
L 175.287912 84.605441 
L 173.678187 84.605441 
z
" clip-path="url(#p8fff589c92)" style="fill: #1f77b4"/>
   </g>
   <g id="patch_74">
    <path d="M 175.287912 273.456854 
L 176.897637 273.456854 
L 176.897637 70.564444 
L 175.287912 70.564444 
z
" clip-path="url(#p8fff589c92)" style="fill: #1f77b4"/>
   </g>
   <g id="patch_75">
    <path d="M 176.897637 273.456854 
L 178.507362 273.456854 
L 178.507362 63.543945 
L 176.897637 63.543945 
z
" clip-path="url(#p8fff589c92)" style="fill: #1f77b4"/>
   </g>
   <g id="patch_76">
    <path d="M 178.507362 273.456854 
L 180.117086 273.456854 
L 180.117086 76.882892 
L 178.507362 76.882892 
z
" clip-path="url(#p8fff589c92)" style="fill: #1f77b4"/>
   </g>
   <g id="patch_77">
    <path d="M 180.117086 273.456854 
L 181.726811 273.456854 
L 181.726811 75.478793 
L 180.117086 75.478793 
z
" clip-path="url(#p8fff589c92)" style="fill: #1f77b4"/>
   </g>
   <g id="patch_78">
    <path d="M 181.726811 273.456854 
L 183.336536 273.456854 
L 183.336536 52.311147 
L 181.726811 52.311147 
z
" clip-path="url(#p8fff589c92)" style="fill: #1f77b4"/>
   </g>
   <g id="patch_79">
    <path d="M 183.336536 273.456854 
L 184.946261 273.456854 
L 184.946261 86.711591 
L 183.336536 86.711591 
z
" clip-path="url(#p8fff589c92)" style="fill: #1f77b4"/>
   </g>
   <g id="patch_80">
    <path d="M 184.946261 273.456854 
L 186.555986 273.456854 
L 186.555986 53.013197 
L 184.946261 53.013197 
z
" clip-path="url(#p8fff589c92)" style="fill: #1f77b4"/>
   </g>
   <g id="patch_81">
    <path d="M 186.555986 273.456854 
L 188.16571 273.456854 
L 188.16571 61.437796 
L 186.555986 61.437796 
z
" clip-path="url(#p8fff589c92)" style="fill: #1f77b4"/>
   </g>
   <g id="patch_82">
    <path d="M 188.16571 273.456854 
L 189.775435 273.456854 
L 189.775435 69.160344 
L 188.16571 69.160344 
z
" clip-path="url(#p8fff589c92)" style="fill: #1f77b4"/>
   </g>
   <g id="patch_83">
    <path d="M 189.775435 273.456854 
L 191.38516 273.456854 
L 191.38516 69.160344 
L 189.775435 69.160344 
z
" clip-path="url(#p8fff589c92)" style="fill: #1f77b4"/>
   </g>
   <g id="patch_84">
    <path d="M 191.38516 273.456854 
L 192.994885 273.456854 
L 192.994885 71.266494 
L 191.38516 71.266494 
z
" clip-path="url(#p8fff589c92)" style="fill: #1f77b4"/>
   </g>
   <g id="patch_85">
    <path d="M 192.994885 273.456854 
L 194.604609 273.456854 
L 194.604609 74.074693 
L 192.994885 74.074693 
z
" clip-path="url(#p8fff589c92)" style="fill: #1f77b4"/>
   </g>
   <g id="patch_86">
    <path d="M 194.604609 273.456854 
L 196.214334 273.456854 
L 196.214334 97.944388 
L 194.604609 97.944388 
z
" clip-path="url(#p8fff589c92)" style="fill: #1f77b4"/>
   </g>
   <g id="patch_87">
    <path d="M 196.214334 273.456854 
L 197.824059 273.456854 
L 197.824059 57.225496 
L 196.214334 57.225496 
z
" clip-path="url(#p8fff589c92)" style="fill: #1f77b4"/>
   </g>
   <g id="patch_88">
    <path d="M 197.824059 273.456854 
L 199.433784 273.456854 
L 199.433784 55.821397 
L 197.824059 55.821397 
z
" clip-path="url(#p8fff589c92)" style="fill: #1f77b4"/>
   </g>
   <g id="patch_89">
    <path d="M 199.433784 273.456854 
L 201.043508 273.456854 
L 201.043508 65.650095 
L 199.433784 65.650095 
z
" clip-path="url(#p8fff589c92)" style="fill: #1f77b4"/>
   </g>
   <g id="patch_90">
    <path d="M 201.043508 273.456854 
L 202.653233 273.456854 
L 202.653233 57.927546 
L 201.043508 57.927546 
z
" clip-path="url(#p8fff589c92)" style="fill: #1f77b4"/>
   </g>
   <g id="patch_91">
    <path d="M 202.653233 273.456854 
L 204.262958 273.456854 
L 204.262958 49.502948 
L 202.653233 49.502948 
z
" clip-path="url(#p8fff589c92)" style="fill: #1f77b4"/>
   </g>
   <g id="patch_92">
    <path d="M 204.262958 273.456854 
L 205.872683 273.456854 
L 205.872683 71.968543 
L 204.262958 71.968543 
z
" clip-path="url(#p8fff589c92)" style="fill: #1f77b4"/>
   </g>
   <g id="patch_93">
    <path d="M 205.872683 273.456854 
L 207.482408 273.456854 
L 207.482408 48.800898 
L 205.872683 48.800898 
z
" clip-path="url(#p8fff589c92)" style="fill: #1f77b4"/>
   </g>
   <g id="patch_94">
    <path d="M 207.482408 273.456854 
L 209.092132 273.456854 
L 209.092132 61.437796 
L 207.482408 61.437796 
z
" clip-path="url(#p8fff589c92)" style="fill: #1f77b4"/>
   </g>
   <g id="patch_95">
    <path d="M 209.092132 273.456854 
L 210.701857 273.456854 
L 210.701857 72.670593 
L 209.092132 72.670593 
z
" clip-path="url(#p8fff589c92)" style="fill: #1f77b4"/>
   </g>
   <g id="patch_96">
    <path d="M 210.701857 273.456854 
L 212.311582 273.456854 
L 212.311582 50.204998 
L 210.701857 50.204998 
z
" clip-path="url(#p8fff589c92)" style="fill: #1f77b4"/>
   </g>
   <g id="patch_97">
    <path d="M 212.311582 273.456854 
L 213.921307 273.456854 
L 213.921307 20.016854 
L 212.311582 20.016854 
z
" clip-path="url(#p8fff589c92)" style="fill: #1f77b4"/>
   </g>
   <g id="patch_98">
    <path d="M 213.921307 273.456854 
L 215.531031 273.456854 
L 215.531031 50.204998 
L 213.921307 50.204998 
z
" clip-path="url(#p8fff589c92)" style="fill: #1f77b4"/>
   </g>
   <g id="patch_99">
    <path d="M 215.531031 273.456854 
L 217.140756 273.456854 
L 217.140756 43.184499 
L 215.531031 43.184499 
z
" clip-path="url(#p8fff589c92)" style="fill: #1f77b4"/>
   </g>
   <g id="patch_100">
    <path d="M 217.140756 273.456854 
L 218.750481 273.456854 
L 218.750481 85.307491 
L 217.140756 85.307491 
z
" clip-path="url(#p8fff589c92)" style="fill: #1f77b4"/>
   </g>
   <g id="patch_101">
    <path d="M 218.750481 273.456854 
L 220.360206 273.456854 
L 220.360206 45.290649 
L 218.750481 45.290649 
z
" clip-path="url(#p8fff589c92)" style="fill: #1f77b4"/>
   </g>
   <g id="patch_102">
    <path d="M 220.360206 273.456854 
L 221.96993 273.456854 
L 221.96993 45.290649 
L 220.360206 45.290649 
z
" clip-path="url(#p8fff589c92)" style="fill: #1f77b4"/>
   </g>
   <g id="patch_103">
    <path d="M 221.96993 273.456854 
L 223.579655 273.456854 
L 223.579655 67.054194 
L 221.96993 67.054194 
z
" clip-path="url(#p8fff589c92)" style="fill: #1f77b4"/>
   </g>
   <g id="patch_104">
    <path d="M 223.579655 273.456854 
L 225.18938 273.456854 
L 225.18938 67.054194 
L 223.579655 67.054194 
z
" clip-path="url(#p8fff589c92)" style="fill: #1f77b4"/>
   </g>
   <g id="patch_105">
    <path d="M 225.18938 273.456854 
L 226.799105 273.456854 
L 226.799105 56.523447 
L 225.18938 56.523447 
z
" clip-path="url(#p8fff589c92)" style="fill: #1f77b4"/>
   </g>
   <g id="patch_106">
    <path d="M 226.799105 273.456854 
L 228.408829 273.456854 
L 228.408829 68.458294 
L 226.799105 68.458294 
z
" clip-path="url(#p8fff589c92)" style="fill: #1f77b4"/>
   </g>
   <g id="patch_107">
    <path d="M 228.408829 273.456854 
L 230.018554 273.456854 
L 230.018554 36.164001 
L 228.408829 36.164001 
z
" clip-path="url(#p8fff589c92)" style="fill: #1f77b4"/>
   </g>
   <g id="patch_108">
    <path d="M 230.018554 273.456854 
L 231.628279 273.456854 
L 231.628279 45.290649 
L 230.018554 45.290649 
z
" clip-path="url(#p8fff589c92)" style="fill: #1f77b4"/>
   </g>
   <g id="patch_109">
    <path d="M 231.628279 273.456854 
L 233.238004 273.456854 
L 233.238004 38.27015 
L 231.628279 38.27015 
z
" clip-path="url(#p8fff589c92)" style="fill: #1f77b4"/>
   </g>
   <g id="patch_110">
    <path d="M 233.238004 273.456854 
L 234.847729 273.456854 
L 234.847729 74.074693 
L 233.238004 74.074693 
z
" clip-path="url(#p8fff589c92)" style="fill: #1f77b4"/>
   </g>
   <g id="patch_111">
    <path d="M 234.847729 273.456854 
L 236.457453 273.456854 
L 236.457453 70.564444 
L 234.847729 70.564444 
z
" clip-path="url(#p8fff589c92)" style="fill: #1f77b4"/>
   </g>
   <g id="patch_112">
    <path d="M 236.457453 273.456854 
L 238.067178 273.456854 
L 238.067178 40.3763 
L 236.457453 40.3763 
z
" clip-path="url(#p8fff589c92)" style="fill: #1f77b4"/>
   </g>
   <g id="patch_113">
    <path d="M 238.067178 273.456854 
L 239.676903 273.456854 
L 239.676903 71.968543 
L 238.067178 71.968543 
z
" clip-path="url(#p8fff589c92)" style="fill: #1f77b4"/>
   </g>
   <g id="patch_114">
    <path d="M 239.676903 273.456854 
L 241.286628 273.456854 
L 241.286628 59.331646 
L 239.676903 59.331646 
z
" clip-path="url(#p8fff589c92)" style="fill: #1f77b4"/>
   </g>
   <g id="patch_115">
    <path d="M 241.286628 273.456854 
L 242.896352 273.456854 
L 242.896352 60.033696 
L 241.286628 60.033696 
z
" clip-path="url(#p8fff589c92)" style="fill: #1f77b4"/>
   </g>
   <g id="patch_116">
    <path d="M 242.896352 273.456854 
L 244.506077 273.456854 
L 244.506077 68.458294 
L 242.896352 68.458294 
z
" clip-path="url(#p8fff589c92)" style="fill: #1f77b4"/>
   </g>
   <g id="patch_117">
    <path d="M 244.506077 273.456854 
L 246.115802 273.456854 
L 246.115802 64.948045 
L 244.506077 64.948045 
z
" clip-path="url(#p8fff589c92)" style="fill: #1f77b4"/>
   </g>
   <g id="patch_118">
    <path d="M 246.115802 273.456854 
L 247.725527 273.456854 
L 247.725527 60.033696 
L 246.115802 60.033696 
z
" clip-path="url(#p8fff589c92)" style="fill: #1f77b4"/>
   </g>
   <g id="patch_119">
    <path d="M 247.725527 273.456854 
L 249.335251 273.456854 
L 249.335251 56.523447 
L 247.725527 56.523447 
z
" clip-path="url(#p8fff589c92)" style="fill: #1f77b4"/>
   </g>
   <g id="patch_120">
    <path d="M 249.335251 273.456854 
L 250.944976 273.456854 
L 250.944976 57.225496 
L 249.335251 57.225496 
z
" clip-path="url(#p8fff589c92)" style="fill: #1f77b4"/>
   </g>
   <g id="patch_121">
    <path d="M 250.944976 273.456854 
L 252.554701 273.456854 
L 252.554701 68.458294 
L 250.944976 68.458294 
z
" clip-path="url(#p8fff589c92)" style="fill: #1f77b4"/>
   </g>
   <g id="patch_122">
    <path d="M 252.554701 273.456854 
L 254.164426 273.456854 
L 254.164426 60.735746 
L 252.554701 60.735746 
z
" clip-path="url(#p8fff589c92)" style="fill: #1f77b4"/>
   </g>
   <g id="patch_123">
    <path d="M 254.164426 273.456854 
L 255.774151 273.456854 
L 255.774151 60.033696 
L 254.164426 60.033696 
z
" clip-path="url(#p8fff589c92)" style="fill: #1f77b4"/>
   </g>
   <g id="patch_124">
    <path d="M 255.774151 273.456854 
L 257.383875 273.456854 
L 257.383875 53.715247 
L 255.774151 53.715247 
z
" clip-path="url(#p8fff589c92)" style="fill: #1f77b4"/>
   </g>
   <g id="patch_125">
    <path d="M 257.383875 273.456854 
L 258.9936 273.456854 
L 258.9936 69.862394 
L 257.383875 69.862394 
z
" clip-path="url(#p8fff589c92)" style="fill: #1f77b4"/>
   </g>
   <g id="patch_126">
    <path d="M 258.9936 273.456854 
L 260.603325 273.456854 
L 260.603325 76.180843 
L 258.9936 76.180843 
z
" clip-path="url(#p8fff589c92)" style="fill: #1f77b4"/>
   </g>
   <g id="patch_127">
    <path d="M 260.603325 273.456854 
L 262.21305 273.456854 
L 262.21305 78.989042 
L 260.603325 78.989042 
z
" clip-path="url(#p8fff589c92)" style="fill: #1f77b4"/>
   </g>
   <g id="patch_128">
    <path d="M 262.21305 273.456854 
L 263.822774 273.456854 
L 263.822774 68.458294 
L 262.21305 68.458294 
z
" clip-path="url(#p8fff589c92)" style="fill: #1f77b4"/>
   </g>
   <g id="patch_129">
    <path d="M 263.822774 273.456854 
L 265.432499 273.456854 
L 265.432499 67.054194 
L 263.822774 67.054194 
z
" clip-path="url(#p8fff589c92)" style="fill: #1f77b4"/>
   </g>
   <g id="patch_130">
    <path d="M 265.432499 273.456854 
L 267.042224 273.456854 
L 267.042224 87.41364 
L 265.432499 87.41364 
z
" clip-path="url(#p8fff589c92)" style="fill: #1f77b4"/>
   </g>
   <g id="patch_131">
    <path d="M 267.042224 273.456854 
L 268.651949 273.456854 
L 268.651949 47.396798 
L 267.042224 47.396798 
z
" clip-path="url(#p8fff589c92)" style="fill: #1f77b4"/>
   </g>
   <g id="patch_132">
    <path d="M 268.651949 273.456854 
L 270.261673 273.456854 
L 270.261673 94.434139 
L 268.651949 94.434139 
z
" clip-path="url(#p8fff589c92)" style="fill: #1f77b4"/>
   </g>
   <g id="patch_133">
    <path d="M 270.261673 273.456854 
L 271.871398 273.456854 
L 271.871398 92.327989 
L 270.261673 92.327989 
z
" clip-path="url(#p8fff589c92)" style="fill: #1f77b4"/>
   </g>
   <g id="patch_134">
    <path d="M 271.871398 273.456854 
L 273.481123 273.456854 
L 273.481123 70.564444 
L 271.871398 70.564444 
z
" clip-path="url(#p8fff589c92)" style="fill: #1f77b4"/>
   </g>
   <g id="patch_135">
    <path d="M 273.481123 273.456854 
L 275.090848 273.456854 
L 275.090848 92.327989 
L 273.481123 92.327989 
z
" clip-path="url(#p8fff589c92)" style="fill: #1f77b4"/>
   </g>
   <g id="patch_136">
    <path d="M 275.090848 273.456854 
L 276.700573 273.456854 
L 276.700573 96.540289 
L 275.090848 96.540289 
z
" clip-path="url(#p8fff589c92)" style="fill: #1f77b4"/>
   </g>
   <g id="patch_137">
    <path d="M 276.700573 273.456854 
L 278.310297 273.456854 
L 278.310297 76.882892 
L 276.700573 76.882892 
z
" clip-path="url(#p8fff589c92)" style="fill: #1f77b4"/>
   </g>
   <g id="patch_138">
    <path d="M 278.310297 273.456854 
L 279.920022 273.456854 
L 279.920022 93.732089 
L 278.310297 93.732089 
z
" clip-path="url(#p8fff589c92)" style="fill: #1f77b4"/>
   </g>
   <g id="patch_139">
    <path d="M 279.920022 273.456854 
L 281.529747 273.456854 
L 281.529747 83.903391 
L 279.920022 83.903391 
z
" clip-path="url(#p8fff589c92)" style="fill: #1f77b4"/>
   </g>
   <g id="patch_140">
    <path d="M 281.529747 273.456854 
L 283.139472 273.456854 
L 283.139472 100.050538 
L 281.529747 100.050538 
z
" clip-path="url(#p8fff589c92)" style="fill: #1f77b4"/>
   </g>
   <g id="patch_141">
    <path d="M 283.139472 273.456854 
L 284.749196 273.456854 
L 284.749196 75.478793 
L 283.139472 75.478793 
z
" clip-path="url(#p8fff589c92)" style="fill: #1f77b4"/>
   </g>
   <g id="patch_142">
    <path d="M 284.749196 273.456854 
L 286.358921 273.456854 
L 286.358921 87.41364 
L 284.749196 87.41364 
z
" clip-path="url(#p8fff589c92)" style="fill: #1f77b4"/>
   </g>
   <g id="patch_143">
    <path d="M 286.358921 273.456854 
L 287.968646 273.456854 
L 287.968646 105.666937 
L 286.358921 105.666937 
z
" clip-path="url(#p8fff589c92)" style="fill: #1f77b4"/>
   </g>
   <g id="patch_144">
    <path d="M 287.968646 273.456854 
L 289.578371 273.456854 
L 289.578371 91.62594 
L 287.968646 91.62594 
z
" clip-path="url(#p8fff589c92)" style="fill: #1f77b4"/>
   </g>
   <g id="patch_145">
    <path d="M 289.578371 273.456854 
L 291.188095 273.456854 
L 291.188095 101.454638 
L 289.578371 101.454638 
z
" clip-path="url(#p8fff589c92)" style="fill: #1f77b4"/>
   </g>
   <g id="patch_146">
    <path d="M 291.188095 273.456854 
L 292.79782 273.456854 
L 292.79782 118.303834 
L 291.188095 118.303834 
z
" clip-path="url(#p8fff589c92)" style="fill: #1f77b4"/>
   </g>
   <g id="patch_147">
    <path d="M 292.79782 273.456854 
L 294.407545 273.456854 
L 294.407545 102.156687 
L 292.79782 102.156687 
z
" clip-path="url(#p8fff589c92)" style="fill: #1f77b4"/>
   </g>
   <g id="patch_148">
    <path d="M 294.407545 273.456854 
L 296.01727 273.456854 
L 296.01727 109.879236 
L 294.407545 109.879236 
z
" clip-path="url(#p8fff589c92)" style="fill: #1f77b4"/>
   </g>
   <g id="patch_149">
    <path d="M 296.01727 273.456854 
L 297.626995 273.456854 
L 297.626995 100.752588 
L 296.01727 100.752588 
z
" clip-path="url(#p8fff589c92)" style="fill: #1f77b4"/>
   </g>
   <g id="patch_150">
    <path d="M 297.626995 273.456854 
L 299.236719 273.456854 
L 299.236719 103.560787 
L 297.626995 103.560787 
z
" clip-path="url(#p8fff589c92)" style="fill: #1f77b4"/>
   </g>
   <g id="patch_151">
    <path d="M 299.236719 273.456854 
L 300.846444 273.456854 
L 300.846444 127.430483 
L 299.236719 127.430483 
z
" clip-path="url(#p8fff589c92)" style="fill: #1f77b4"/>
   </g>
   <g id="patch_152">
    <path d="M 300.846444 273.456854 
L 302.456169 273.456854 
L 302.456169 98.646438 
L 300.846444 98.646438 
z
" clip-path="url(#p8fff589c92)" style="fill: #1f77b4"/>
   </g>
   <g id="patch_153">
    <path d="M 302.456169 273.456854 
L 304.065894 273.456854 
L 304.065894 104.964887 
L 302.456169 104.964887 
z
" clip-path="url(#p8fff589c92)" style="fill: #1f77b4"/>
   </g>
   <g id="patch_154">
    <path d="M 304.065894 273.456854 
L 305.675618 273.456854 
L 305.675618 88.81774 
L 304.065894 88.81774 
z
" clip-path="url(#p8fff589c92)" style="fill: #1f77b4"/>
   </g>
   <g id="patch_155">
    <path d="M 305.675618 273.456854 
L 307.285343 273.456854 
L 307.285343 112.687435 
L 305.675618 112.687435 
z
" clip-path="url(#p8fff589c92)" style="fill: #1f77b4"/>
   </g>
   <g id="patch_156">
    <path d="M 307.285343 273.456854 
L 308.895068 273.456854 
L 308.895068 123.920233 
L 307.285343 123.920233 
z
" clip-path="url(#p8fff589c92)" style="fill: #1f77b4"/>
   </g>
   <g id="patch_157">
    <path d="M 308.895068 273.456854 
L 310.504793 273.456854 
L 310.504793 141.47148 
L 308.895068 141.47148 
z
" clip-path="url(#p8fff589c92)" style="fill: #1f77b4"/>
   </g>
   <g id="patch_158">
    <path d="M 310.504793 273.456854 
L 312.114517 273.456854 
L 312.114517 128.834582 
L 310.504793 128.834582 
z
" clip-path="url(#p8fff589c92)" style="fill: #1f77b4"/>
   </g>
   <g id="patch_159">
    <path d="M 312.114517 273.456854 
L 313.724242 273.456854 
L 313.724242 126.728433 
L 312.114517 126.728433 
z
" clip-path="url(#p8fff589c92)" style="fill: #1f77b4"/>
   </g>
   <g id="patch_160">
    <path d="M 313.724242 273.456854 
L 315.333967 273.456854 
L 315.333967 127.430483 
L 313.724242 127.430483 
z
" clip-path="url(#p8fff589c92)" style="fill: #1f77b4"/>
   </g>
   <g id="patch_161">
    <path d="M 315.333967 273.456854 
L 316.943692 273.456854 
L 316.943692 137.96123 
L 315.333967 137.96123 
z
" clip-path="url(#p8fff589c92)" style="fill: #1f77b4"/>
   </g>
   <g id="patch_162">
    <path d="M 316.943692 273.456854 
L 318.553417 273.456854 
L 318.553417 143.577629 
L 316.943692 143.577629 
z
" clip-path="url(#p8fff589c92)" style="fill: #1f77b4"/>
   </g>
   <g id="patch_163">
    <path d="M 318.553417 273.456854 
L 320.163141 273.456854 
L 320.163141 147.087879 
L 318.553417 147.087879 
z
" clip-path="url(#p8fff589c92)" style="fill: #1f77b4"/>
   </g>
   <g id="patch_164">
    <path d="M 320.163141 273.456854 
L 321.772866 273.456854 
L 321.772866 149.194028 
L 320.163141 149.194028 
z
" clip-path="url(#p8fff589c92)" style="fill: #1f77b4"/>
   </g>
   <g id="patch_165">
    <path d="M 321.772866 273.456854 
L 323.382591 273.456854 
L 323.382591 159.724776 
L 321.772866 159.724776 
z
" clip-path="url(#p8fff589c92)" style="fill: #1f77b4"/>
   </g>
   <g id="patch_166">
    <path d="M 323.382591 273.456854 
L 324.992316 273.456854 
L 324.992316 149.896078 
L 323.382591 149.896078 
z
" clip-path="url(#p8fff589c92)" style="fill: #1f77b4"/>
   </g>
   <g id="patch_167">
    <path d="M 324.992316 273.456854 
L 326.60204 273.456854 
L 326.60204 140.06738 
L 324.992316 140.06738 
z
" clip-path="url(#p8fff589c92)" style="fill: #1f77b4"/>
   </g>
   <g id="patch_168">
    <path d="M 326.60204 273.456854 
L 328.211765 273.456854 
L 328.211765 152.704278 
L 326.60204 152.704278 
z
" clip-path="url(#p8fff589c92)" style="fill: #1f77b4"/>
   </g>
   <g id="patch_169">
    <path d="M 328.211765 273.456854 
L 329.82149 273.456854 
L 329.82149 164.639125 
L 328.211765 164.639125 
z
" clip-path="url(#p8fff589c92)" style="fill: #1f77b4"/>
   </g>
   <g id="patch_170">
    <path d="M 329.82149 273.456854 
L 331.431215 273.456854 
L 331.431215 162.532976 
L 329.82149 162.532976 
z
" clip-path="url(#p8fff589c92)" style="fill: #1f77b4"/>
   </g>
   <g id="patch_171">
    <path d="M 331.431215 273.456854 
L 333.040939 273.456854 
L 333.040939 168.149374 
L 331.431215 168.149374 
z
" clip-path="url(#p8fff589c92)" style="fill: #1f77b4"/>
   </g>
   <g id="patch_172">
    <path d="M 333.040939 273.456854 
L 334.650664 273.456854 
L 334.650664 172.361674 
L 333.040939 172.361674 
z
" clip-path="url(#p8fff589c92)" style="fill: #1f77b4"/>
   </g>
   <g id="patch_173">
    <path d="M 334.650664 273.456854 
L 336.260389 273.456854 
L 336.260389 175.871923 
L 334.650664 175.871923 
z
" clip-path="url(#p8fff589c92)" style="fill: #1f77b4"/>
   </g>
   <g id="patch_174">
    <path d="M 336.260389 273.456854 
L 337.870114 273.456854 
L 337.870114 178.680122 
L 336.260389 178.680122 
z
" clip-path="url(#p8fff589c92)" style="fill: #1f77b4"/>
   </g>
   <g id="patch_175">
    <path d="M 337.870114 273.456854 
L 339.479838 273.456854 
L 339.479838 175.169873 
L 337.870114 175.169873 
z
" clip-path="url(#p8fff589c92)" style="fill: #1f77b4"/>
   </g>
   <g id="patch_176">
    <path d="M 339.479838 273.456854 
L 341.089563 273.456854 
L 341.089563 173.063724 
L 339.479838 173.063724 
z
" clip-path="url(#p8fff589c92)" style="fill: #1f77b4"/>
   </g>
   <g id="patch_177">
    <path d="M 341.089563 273.456854 
L 342.699288 273.456854 
L 342.699288 185.700621 
L 341.089563 185.700621 
z
" clip-path="url(#p8fff589c92)" style="fill: #1f77b4"/>
   </g>
   <g id="patch_178">
    <path d="M 342.699288 273.456854 
L 344.309013 273.456854 
L 344.309013 179.382172 
L 342.699288 179.382172 
z
" clip-path="url(#p8fff589c92)" style="fill: #1f77b4"/>
   </g>
   <g id="patch_179">
    <path d="M 344.309013 273.456854 
L 345.918738 273.456854 
L 345.918738 199.039568 
L 344.309013 199.039568 
z
" clip-path="url(#p8fff589c92)" style="fill: #1f77b4"/>
   </g>
   <g id="patch_180">
    <path d="M 345.918738 273.456854 
L 347.528462 273.456854 
L 347.528462 188.50882 
L 345.918738 188.50882 
z
" clip-path="url(#p8fff589c92)" style="fill: #1f77b4"/>
   </g>
   <g id="patch_181">
    <path d="M 347.528462 273.456854 
L 349.138187 273.456854 
L 349.138187 208.868266 
L 347.528462 208.868266 
z
" clip-path="url(#p8fff589c92)" style="fill: #1f77b4"/>
   </g>
   <g id="patch_182">
    <path d="M 349.138187 273.456854 
L 350.747912 273.456854 
L 350.747912 199.039568 
L 349.138187 199.039568 
z
" clip-path="url(#p8fff589c92)" style="fill: #1f77b4"/>
   </g>
   <g id="patch_183">
    <path d="M 350.747912 273.456854 
L 352.357637 273.456854 
L 352.357637 210.974416 
L 350.747912 210.974416 
z
" clip-path="url(#p8fff589c92)" style="fill: #1f77b4"/>
   </g>
   <g id="patch_184">
    <path d="M 352.357637 273.456854 
L 353.967361 273.456854 
L 353.967361 210.974416 
L 352.357637 210.974416 
z
" clip-path="url(#p8fff589c92)" style="fill: #1f77b4"/>
   </g>
   <g id="patch_185">
    <path d="M 353.967361 273.456854 
L 355.577086 273.456854 
L 355.577086 217.292865 
L 353.967361 217.292865 
z
" clip-path="url(#p8fff589c92)" style="fill: #1f77b4"/>
   </g>
   <g id="patch_186">
    <path d="M 355.577086 273.456854 
L 357.186811 273.456854 
L 357.186811 210.974416 
L 355.577086 210.974416 
z
" clip-path="url(#p8fff589c92)" style="fill: #1f77b4"/>
   </g>
   <g id="patch_187">
    <path d="M 357.186811 273.456854 
L 358.796536 273.456854 
L 358.796536 214.484665 
L 357.186811 214.484665 
z
" clip-path="url(#p8fff589c92)" style="fill: #1f77b4"/>
   </g>
   <g id="patch_188">
    <path d="M 358.796536 273.456854 
L 360.40626 273.456854 
L 360.40626 217.994915 
L 358.796536 217.994915 
z
" clip-path="url(#p8fff589c92)" style="fill: #1f77b4"/>
   </g>
   <g id="patch_189">
    <path d="M 360.40626 273.456854 
L 362.015985 273.456854 
L 362.015985 222.207214 
L 360.40626 222.207214 
z
" clip-path="url(#p8fff589c92)" style="fill: #1f77b4"/>
   </g>
   <g id="patch_190">
    <path d="M 362.015985 273.456854 
L 363.62571 273.456854 
L 363.62571 229.227712 
L 362.015985 229.227712 
z
" clip-path="url(#p8fff589c92)" style="fill: #1f77b4"/>
   </g>
   <g id="patch_191">
    <path d="M 363.62571 273.456854 
L 365.235435 273.456854 
L 365.235435 232.737962 
L 363.62571 232.737962 
z
" clip-path="url(#p8fff589c92)" style="fill: #1f77b4"/>
   </g>
   <g id="patch_192">
    <path d="M 365.235435 273.456854 
L 366.84516 273.456854 
L 366.84516 222.207214 
L 365.235435 222.207214 
z
" clip-path="url(#p8fff589c92)" style="fill: #1f77b4"/>
   </g>
   <g id="patch_193">
    <path d="M 366.84516 273.456854 
L 368.454884 273.456854 
L 368.454884 237.652311 
L 366.84516 237.652311 
z
" clip-path="url(#p8fff589c92)" style="fill: #1f77b4"/>
   </g>
   <g id="patch_194">
    <path d="M 368.454884 273.456854 
L 370.064609 273.456854 
L 370.064609 227.121563 
L 368.454884 227.121563 
z
" clip-path="url(#p8fff589c92)" style="fill: #1f77b4"/>
   </g>
   <g id="patch_195">
    <path d="M 370.064609 273.456854 
L 371.674334 273.456854 
L 371.674334 239.75846 
L 370.064609 239.75846 
z
" clip-path="url(#p8fff589c92)" style="fill: #1f77b4"/>
   </g>
   <g id="patch_196">
    <path d="M 371.674334 273.456854 
L 373.284059 273.456854 
L 373.284059 245.374859 
L 371.674334 245.374859 
z
" clip-path="url(#p8fff589c92)" style="fill: #1f77b4"/>
   </g>
   <g id="patch_197">
    <path d="M 373.284059 273.456854 
L 374.893783 273.456854 
L 374.893783 255.905607 
L 373.284059 255.905607 
z
" clip-path="url(#p8fff589c92)" style="fill: #1f77b4"/>
   </g>
   <g id="patch_198">
    <path d="M 374.893783 273.456854 
L 376.503508 273.456854 
L 376.503508 253.097408 
L 374.893783 253.097408 
z
" clip-path="url(#p8fff589c92)" style="fill: #1f77b4"/>
   </g>
   <g id="patch_199">
    <path d="M 376.503508 273.456854 
L 378.113233 273.456854 
L 378.113233 258.011757 
L 376.503508 258.011757 
z
" clip-path="url(#p8fff589c92)" style="fill: #1f77b4"/>
   </g>
   <g id="patch_200">
    <path d="M 378.113233 273.456854 
L 379.722958 273.456854 
L 379.722958 262.224056 
L 378.113233 262.224056 
z
" clip-path="url(#p8fff589c92)" style="fill: #1f77b4"/>
   </g>
   <g id="patch_201">
    <path d="M 379.722958 273.456854 
L 381.332682 273.456854 
L 381.332682 265.734305 
L 379.722958 265.734305 
z
" clip-path="url(#p8fff589c92)" style="fill: #1f77b4"/>
   </g>
   <g id="patch_202">
    <path d="M 381.332682 273.456854 
L 382.942407 273.456854 
L 382.942407 265.032255 
L 381.332682 265.032255 
z
" clip-path="url(#p8fff589c92)" style="fill: #1f77b4"/>
   </g>
   <g id="matplotlib.axis_1">
    <g id="xtick_1">
     <g id="line2d_1">
      <defs>
       <path id="mc1fd654372" d="M 0 0 
L 0 3.5 
" style="stroke: #000000; stroke-width: 0.8"/>
      </defs>
      <g>
       <use xlink:href="#mc1fd654372" x="60.013977" y="273.456854" style="stroke: #000000; stroke-width: 0.8"/>
      </g>
     </g>
     <g id="text_1">
      <!-- 0.0 -->
      <g transform="translate(52.062415 288.055291)scale(0.1 -0.1)">
       <defs>
        <path id="DejaVuSans-30" d="M 2034 4250 
Q 1547 4250 1301 3770 
Q 1056 3291 1056 2328 
Q 1056 1369 1301 889 
Q 1547 409 2034 409 
Q 2525 409 2770 889 
Q 3016 1369 3016 2328 
Q 3016 3291 2770 3770 
Q 2525 4250 2034 4250 
z
M 2034 4750 
Q 2819 4750 3233 4129 
Q 3647 3509 3647 2328 
Q 3647 1150 3233 529 
Q 2819 -91 2034 -91 
Q 1250 -91 836 529 
Q 422 1150 422 2328 
Q 422 3509 836 4129 
Q 1250 4750 2034 4750 
z
" transform="scale(0.015625)"/>
        <path id="DejaVuSans-2e" d="M 684 794 
L 1344 794 
L 1344 0 
L 684 0 
L 684 794 
z
" transform="scale(0.015625)"/>
       </defs>
       <use xlink:href="#DejaVuSans-30"/>
       <use xlink:href="#DejaVuSans-2e" x="63.623047"/>
       <use xlink:href="#DejaVuSans-30" x="95.410156"/>
      </g>
     </g>
    </g>
    <g id="xtick_2">
     <g id="line2d_2">
      <g>
       <use xlink:href="#mc1fd654372" x="101.350278" y="273.456854" style="stroke: #000000; stroke-width: 0.8"/>
      </g>
     </g>
     <g id="text_2">
      <!-- 0.2 -->
      <g transform="translate(93.398715 288.055291)scale(0.1 -0.1)">
       <defs>
        <path id="DejaVuSans-32" d="M 1228 531 
L 3431 531 
L 3431 0 
L 469 0 
L 469 531 
Q 828 903 1448 1529 
Q 2069 2156 2228 2338 
Q 2531 2678 2651 2914 
Q 2772 3150 2772 3378 
Q 2772 3750 2511 3984 
Q 2250 4219 1831 4219 
Q 1534 4219 1204 4116 
Q 875 4013 500 3803 
L 500 4441 
Q 881 4594 1212 4672 
Q 1544 4750 1819 4750 
Q 2544 4750 2975 4387 
Q 3406 4025 3406 3419 
Q 3406 3131 3298 2873 
Q 3191 2616 2906 2266 
Q 2828 2175 2409 1742 
Q 1991 1309 1228 531 
z
" transform="scale(0.015625)"/>
       </defs>
       <use xlink:href="#DejaVuSans-30"/>
       <use xlink:href="#DejaVuSans-2e" x="63.623047"/>
       <use xlink:href="#DejaVuSans-32" x="95.410156"/>
      </g>
     </g>
    </g>
    <g id="xtick_3">
     <g id="line2d_3">
      <g>
       <use xlink:href="#mc1fd654372" x="142.686578" y="273.456854" style="stroke: #000000; stroke-width: 0.8"/>
      </g>
     </g>
     <g id="text_3">
      <!-- 0.4 -->
      <g transform="translate(134.735016 288.055291)scale(0.1 -0.1)">
       <defs>
        <path id="DejaVuSans-34" d="M 2419 4116 
L 825 1625 
L 2419 1625 
L 2419 4116 
z
M 2253 4666 
L 3047 4666 
L 3047 1625 
L 3713 1625 
L 3713 1100 
L 3047 1100 
L 3047 0 
L 2419 0 
L 2419 1100 
L 313 1100 
L 313 1709 
L 2253 4666 
z
" transform="scale(0.015625)"/>
       </defs>
       <use xlink:href="#DejaVuSans-30"/>
       <use xlink:href="#DejaVuSans-2e" x="63.623047"/>
       <use xlink:href="#DejaVuSans-34" x="95.410156"/>
      </g>
     </g>
    </g>
    <g id="xtick_4">
     <g id="line2d_4">
      <g>
       <use xlink:href="#mc1fd654372" x="184.022879" y="273.456854" style="stroke: #000000; stroke-width: 0.8"/>
      </g>
     </g>
     <g id="text_4">
      <!-- 0.6 -->
      <g transform="translate(176.071316 288.055291)scale(0.1 -0.1)">
       <defs>
        <path id="DejaVuSans-36" d="M 2113 2584 
Q 1688 2584 1439 2293 
Q 1191 2003 1191 1497 
Q 1191 994 1439 701 
Q 1688 409 2113 409 
Q 2538 409 2786 701 
Q 3034 994 3034 1497 
Q 3034 2003 2786 2293 
Q 2538 2584 2113 2584 
z
M 3366 4563 
L 3366 3988 
Q 3128 4100 2886 4159 
Q 2644 4219 2406 4219 
Q 1781 4219 1451 3797 
Q 1122 3375 1075 2522 
Q 1259 2794 1537 2939 
Q 1816 3084 2150 3084 
Q 2853 3084 3261 2657 
Q 3669 2231 3669 1497 
Q 3669 778 3244 343 
Q 2819 -91 2113 -91 
Q 1303 -91 875 529 
Q 447 1150 447 2328 
Q 447 3434 972 4092 
Q 1497 4750 2381 4750 
Q 2619 4750 2861 4703 
Q 3103 4656 3366 4563 
z
" transform="scale(0.015625)"/>
       </defs>
       <use xlink:href="#DejaVuSans-30"/>
       <use xlink:href="#DejaVuSans-2e" x="63.623047"/>
       <use xlink:href="#DejaVuSans-36" x="95.410156"/>
      </g>
     </g>
    </g>
    <g id="xtick_5">
     <g id="line2d_5">
      <g>
       <use xlink:href="#mc1fd654372" x="225.35918" y="273.456854" style="stroke: #000000; stroke-width: 0.8"/>
      </g>
     </g>
     <g id="text_5">
      <!-- 0.8 -->
      <g transform="translate(217.407617 288.055291)scale(0.1 -0.1)">
       <defs>
        <path id="DejaVuSans-38" d="M 2034 2216 
Q 1584 2216 1326 1975 
Q 1069 1734 1069 1313 
Q 1069 891 1326 650 
Q 1584 409 2034 409 
Q 2484 409 2743 651 
Q 3003 894 3003 1313 
Q 3003 1734 2745 1975 
Q 2488 2216 2034 2216 
z
M 1403 2484 
Q 997 2584 770 2862 
Q 544 3141 544 3541 
Q 544 4100 942 4425 
Q 1341 4750 2034 4750 
Q 2731 4750 3128 4425 
Q 3525 4100 3525 3541 
Q 3525 3141 3298 2862 
Q 3072 2584 2669 2484 
Q 3125 2378 3379 2068 
Q 3634 1759 3634 1313 
Q 3634 634 3220 271 
Q 2806 -91 2034 -91 
Q 1263 -91 848 271 
Q 434 634 434 1313 
Q 434 1759 690 2068 
Q 947 2378 1403 2484 
z
M 1172 3481 
Q 1172 3119 1398 2916 
Q 1625 2713 2034 2713 
Q 2441 2713 2670 2916 
Q 2900 3119 2900 3481 
Q 2900 3844 2670 4047 
Q 2441 4250 2034 4250 
Q 1625 4250 1398 4047 
Q 1172 3844 1172 3481 
z
" transform="scale(0.015625)"/>
       </defs>
       <use xlink:href="#DejaVuSans-30"/>
       <use xlink:href="#DejaVuSans-2e" x="63.623047"/>
       <use xlink:href="#DejaVuSans-38" x="95.410156"/>
      </g>
     </g>
    </g>
    <g id="xtick_6">
     <g id="line2d_6">
      <g>
       <use xlink:href="#mc1fd654372" x="266.69548" y="273.456854" style="stroke: #000000; stroke-width: 0.8"/>
      </g>
     </g>
     <g id="text_6">
      <!-- 1.0 -->
      <g transform="translate(258.743918 288.055291)scale(0.1 -0.1)">
       <defs>
        <path id="DejaVuSans-31" d="M 794 531 
L 1825 531 
L 1825 4091 
L 703 3866 
L 703 4441 
L 1819 4666 
L 2450 4666 
L 2450 531 
L 3481 531 
L 3481 0 
L 794 0 
L 794 531 
z
" transform="scale(0.015625)"/>
       </defs>
       <use xlink:href="#DejaVuSans-31"/>
       <use xlink:href="#DejaVuSans-2e" x="63.623047"/>
       <use xlink:href="#DejaVuSans-30" x="95.410156"/>
      </g>
     </g>
    </g>
    <g id="xtick_7">
     <g id="line2d_7">
      <g>
       <use xlink:href="#mc1fd654372" x="308.031781" y="273.456854" style="stroke: #000000; stroke-width: 0.8"/>
      </g>
     </g>
     <g id="text_7">
      <!-- 1.2 -->
      <g transform="translate(300.080218 288.055291)scale(0.1 -0.1)">
       <use xlink:href="#DejaVuSans-31"/>
       <use xlink:href="#DejaVuSans-2e" x="63.623047"/>
       <use xlink:href="#DejaVuSans-32" x="95.410156"/>
      </g>
     </g>
    </g>
    <g id="xtick_8">
     <g id="line2d_8">
      <g>
       <use xlink:href="#mc1fd654372" x="349.368081" y="273.456854" style="stroke: #000000; stroke-width: 0.8"/>
      </g>
     </g>
     <g id="text_8">
      <!-- 1.4 -->
      <g transform="translate(341.416519 288.055291)scale(0.1 -0.1)">
       <use xlink:href="#DejaVuSans-31"/>
       <use xlink:href="#DejaVuSans-2e" x="63.623047"/>
       <use xlink:href="#DejaVuSans-34" x="95.410156"/>
      </g>
     </g>
    </g>
    <g id="xtick_9">
     <g id="line2d_9">
      <g>
       <use xlink:href="#mc1fd654372" x="390.704382" y="273.456854" style="stroke: #000000; stroke-width: 0.8"/>
      </g>
     </g>
     <g id="text_9">
      <!-- 1.6 -->
      <g transform="translate(382.752819 288.055291)scale(0.1 -0.1)">
       <use xlink:href="#DejaVuSans-31"/>
       <use xlink:href="#DejaVuSans-2e" x="63.623047"/>
       <use xlink:href="#DejaVuSans-36" x="95.410156"/>
      </g>
     </g>
    </g>
    <g id="text_10">
     <!-- Angle with normal (rad) -->
     <g transform="translate(163.023281 301.733416)scale(0.1 -0.1)">
      <defs>
       <path id="DejaVuSans-41" d="M 2188 4044 
L 1331 1722 
L 3047 1722 
L 2188 4044 
z
M 1831 4666 
L 2547 4666 
L 4325 0 
L 3669 0 
L 3244 1197 
L 1141 1197 
L 716 0 
L 50 0 
L 1831 4666 
z
" transform="scale(0.015625)"/>
       <path id="DejaVuSans-6e" d="M 3513 2113 
L 3513 0 
L 2938 0 
L 2938 2094 
Q 2938 2591 2744 2837 
Q 2550 3084 2163 3084 
Q 1697 3084 1428 2787 
Q 1159 2491 1159 1978 
L 1159 0 
L 581 0 
L 581 3500 
L 1159 3500 
L 1159 2956 
Q 1366 3272 1645 3428 
Q 1925 3584 2291 3584 
Q 2894 3584 3203 3211 
Q 3513 2838 3513 2113 
z
" transform="scale(0.015625)"/>
       <path id="DejaVuSans-67" d="M 2906 1791 
Q 2906 2416 2648 2759 
Q 2391 3103 1925 3103 
Q 1463 3103 1205 2759 
Q 947 2416 947 1791 
Q 947 1169 1205 825 
Q 1463 481 1925 481 
Q 2391 481 2648 825 
Q 2906 1169 2906 1791 
z
M 3481 434 
Q 3481 -459 3084 -895 
Q 2688 -1331 1869 -1331 
Q 1566 -1331 1297 -1286 
Q 1028 -1241 775 -1147 
L 775 -588 
Q 1028 -725 1275 -790 
Q 1522 -856 1778 -856 
Q 2344 -856 2625 -561 
Q 2906 -266 2906 331 
L 2906 616 
Q 2728 306 2450 153 
Q 2172 0 1784 0 
Q 1141 0 747 490 
Q 353 981 353 1791 
Q 353 2603 747 3093 
Q 1141 3584 1784 3584 
Q 2172 3584 2450 3431 
Q 2728 3278 2906 2969 
L 2906 3500 
L 3481 3500 
L 3481 434 
z
" transform="scale(0.015625)"/>
       <path id="DejaVuSans-6c" d="M 603 4863 
L 1178 4863 
L 1178 0 
L 603 0 
L 603 4863 
z
" transform="scale(0.015625)"/>
       <path id="DejaVuSans-65" d="M 3597 1894 
L 3597 1613 
L 953 1613 
Q 991 1019 1311 708 
Q 1631 397 2203 397 
Q 2534 397 2845 478 
Q 3156 559 3463 722 
L 3463 178 
Q 3153 47 2828 -22 
Q 2503 -91 2169 -91 
Q 1331 -91 842 396 
Q 353 884 353 1716 
Q 353 2575 817 3079 
Q 1281 3584 2069 3584 
Q 2775 3584 3186 3129 
Q 3597 2675 3597 1894 
z
M 3022 2063 
Q 3016 2534 2758 2815 
Q 2500 3097 2075 3097 
Q 1594 3097 1305 2825 
Q 1016 2553 972 2059 
L 3022 2063 
z
" transform="scale(0.015625)"/>
       <path id="DejaVuSans-20" transform="scale(0.015625)"/>
       <path id="DejaVuSans-77" d="M 269 3500 
L 844 3500 
L 1563 769 
L 2278 3500 
L 2956 3500 
L 3675 769 
L 4391 3500 
L 4966 3500 
L 4050 0 
L 3372 0 
L 2619 2869 
L 1863 0 
L 1184 0 
L 269 3500 
z
" transform="scale(0.015625)"/>
       <path id="DejaVuSans-69" d="M 603 3500 
L 1178 3500 
L 1178 0 
L 603 0 
L 603 3500 
z
M 603 4863 
L 1178 4863 
L 1178 4134 
L 603 4134 
L 603 4863 
z
" transform="scale(0.015625)"/>
       <path id="DejaVuSans-74" d="M 1172 4494 
L 1172 3500 
L 2356 3500 
L 2356 3053 
L 1172 3053 
L 1172 1153 
Q 1172 725 1289 603 
Q 1406 481 1766 481 
L 2356 481 
L 2356 0 
L 1766 0 
Q 1100 0 847 248 
Q 594 497 594 1153 
L 594 3053 
L 172 3053 
L 172 3500 
L 594 3500 
L 594 4494 
L 1172 4494 
z
" transform="scale(0.015625)"/>
       <path id="DejaVuSans-68" d="M 3513 2113 
L 3513 0 
L 2938 0 
L 2938 2094 
Q 2938 2591 2744 2837 
Q 2550 3084 2163 3084 
Q 1697 3084 1428 2787 
Q 1159 2491 1159 1978 
L 1159 0 
L 581 0 
L 581 4863 
L 1159 4863 
L 1159 2956 
Q 1366 3272 1645 3428 
Q 1925 3584 2291 3584 
Q 2894 3584 3203 3211 
Q 3513 2838 3513 2113 
z
" transform="scale(0.015625)"/>
       <path id="DejaVuSans-6f" d="M 1959 3097 
Q 1497 3097 1228 2736 
Q 959 2375 959 1747 
Q 959 1119 1226 758 
Q 1494 397 1959 397 
Q 2419 397 2687 759 
Q 2956 1122 2956 1747 
Q 2956 2369 2687 2733 
Q 2419 3097 1959 3097 
z
M 1959 3584 
Q 2709 3584 3137 3096 
Q 3566 2609 3566 1747 
Q 3566 888 3137 398 
Q 2709 -91 1959 -91 
Q 1206 -91 779 398 
Q 353 888 353 1747 
Q 353 2609 779 3096 
Q 1206 3584 1959 3584 
z
" transform="scale(0.015625)"/>
       <path id="DejaVuSans-72" d="M 2631 2963 
Q 2534 3019 2420 3045 
Q 2306 3072 2169 3072 
Q 1681 3072 1420 2755 
Q 1159 2438 1159 1844 
L 1159 0 
L 581 0 
L 581 3500 
L 1159 3500 
L 1159 2956 
Q 1341 3275 1631 3429 
Q 1922 3584 2338 3584 
Q 2397 3584 2469 3576 
Q 2541 3569 2628 3553 
L 2631 2963 
z
" transform="scale(0.015625)"/>
       <path id="DejaVuSans-6d" d="M 3328 2828 
Q 3544 3216 3844 3400 
Q 4144 3584 4550 3584 
Q 5097 3584 5394 3201 
Q 5691 2819 5691 2113 
L 5691 0 
L 5113 0 
L 5113 2094 
Q 5113 2597 4934 2840 
Q 4756 3084 4391 3084 
Q 3944 3084 3684 2787 
Q 3425 2491 3425 1978 
L 3425 0 
L 2847 0 
L 2847 2094 
Q 2847 2600 2669 2842 
Q 2491 3084 2119 3084 
Q 1678 3084 1418 2786 
Q 1159 2488 1159 1978 
L 1159 0 
L 581 0 
L 581 3500 
L 1159 3500 
L 1159 2956 
Q 1356 3278 1631 3431 
Q 1906 3584 2284 3584 
Q 2666 3584 2933 3390 
Q 3200 3197 3328 2828 
z
" transform="scale(0.015625)"/>
       <path id="DejaVuSans-61" d="M 2194 1759 
Q 1497 1759 1228 1600 
Q 959 1441 959 1056 
Q 959 750 1161 570 
Q 1363 391 1709 391 
Q 2188 391 2477 730 
Q 2766 1069 2766 1631 
L 2766 1759 
L 2194 1759 
z
M 3341 1997 
L 3341 0 
L 2766 0 
L 2766 531 
Q 2569 213 2275 61 
Q 1981 -91 1556 -91 
Q 1019 -91 701 211 
Q 384 513 384 1019 
Q 384 1609 779 1909 
Q 1175 2209 1959 2209 
L 2766 2209 
L 2766 2266 
Q 2766 2663 2505 2880 
Q 2244 3097 1772 3097 
Q 1472 3097 1187 3025 
Q 903 2953 641 2809 
L 641 3341 
Q 956 3463 1253 3523 
Q 1550 3584 1831 3584 
Q 2591 3584 2966 3190 
Q 3341 2797 3341 1997 
z
" transform="scale(0.015625)"/>
       <path id="DejaVuSans-28" d="M 1984 4856 
Q 1566 4138 1362 3434 
Q 1159 2731 1159 2009 
Q 1159 1288 1364 580 
Q 1569 -128 1984 -844 
L 1484 -844 
Q 1016 -109 783 600 
Q 550 1309 550 2009 
Q 550 2706 781 3412 
Q 1013 4119 1484 4856 
L 1984 4856 
z
" transform="scale(0.015625)"/>
       <path id="DejaVuSans-64" d="M 2906 2969 
L 2906 4863 
L 3481 4863 
L 3481 0 
L 2906 0 
L 2906 525 
Q 2725 213 2448 61 
Q 2172 -91 1784 -91 
Q 1150 -91 751 415 
Q 353 922 353 1747 
Q 353 2572 751 3078 
Q 1150 3584 1784 3584 
Q 2172 3584 2448 3432 
Q 2725 3281 2906 2969 
z
M 947 1747 
Q 947 1113 1208 752 
Q 1469 391 1925 391 
Q 2381 391 2643 752 
Q 2906 1113 2906 1747 
Q 2906 2381 2643 2742 
Q 2381 3103 1925 3103 
Q 1469 3103 1208 2742 
Q 947 2381 947 1747 
z
" transform="scale(0.015625)"/>
       <path id="DejaVuSans-29" d="M 513 4856 
L 1013 4856 
Q 1481 4119 1714 3412 
Q 1947 2706 1947 2009 
Q 1947 1309 1714 600 
Q 1481 -109 1013 -844 
L 513 -844 
Q 928 -128 1133 580 
Q 1338 1288 1338 2009 
Q 1338 2731 1133 3434 
Q 928 4138 513 4856 
z
" transform="scale(0.015625)"/>
      </defs>
      <use xlink:href="#DejaVuSans-41"/>
      <use xlink:href="#DejaVuSans-6e" x="68.408203"/>
      <use xlink:href="#DejaVuSans-67" x="131.787109"/>
      <use xlink:href="#DejaVuSans-6c" x="195.263672"/>
      <use xlink:href="#DejaVuSans-65" x="223.046875"/>
      <use xlink:href="#DejaVuSans-20" x="284.570312"/>
      <use xlink:href="#DejaVuSans-77" x="316.357422"/>
      <use xlink:href="#DejaVuSans-69" x="398.144531"/>
      <use xlink:href="#DejaVuSans-74" x="425.927734"/>
      <use xlink:href="#DejaVuSans-68" x="465.136719"/>
      <use xlink:href="#DejaVuSans-20" x="528.515625"/>
      <use xlink:href="#DejaVuSans-6e" x="560.302734"/>
      <use xlink:href="#DejaVuSans-6f" x="623.681641"/>
      <use xlink:href="#DejaVuSans-72" x="684.863281"/>
      <use xlink:href="#DejaVuSans-6d" x="724.226562"/>
      <use xlink:href="#DejaVuSans-61" x="821.638672"/>
      <use xlink:href="#DejaVuSans-6c" x="882.917969"/>
      <use xlink:href="#DejaVuSans-20" x="910.701172"/>
      <use xlink:href="#DejaVuSans-28" x="942.488281"/>
      <use xlink:href="#DejaVuSans-72" x="981.501953"/>
      <use xlink:href="#DejaVuSans-61" x="1022.615234"/>
      <use xlink:href="#DejaVuSans-64" x="1083.894531"/>
      <use xlink:href="#DejaVuSans-29" x="1147.371094"/>
     </g>
    </g>
   </g>
   <g id="matplotlib.axis_2">
    <g id="ytick_1">
     <g id="line2d_10">
      <defs>
       <path id="m141aafc7df" d="M 0 0 
L -3.5 0 
" style="stroke: #000000; stroke-width: 0.8"/>
      </defs>
      <g>
       <use xlink:href="#m141aafc7df" x="43.78125" y="273.456854" style="stroke: #000000; stroke-width: 0.8"/>
      </g>
     </g>
     <g id="text_11">
      <!-- 0.0 -->
      <g transform="translate(20.878125 277.256072)scale(0.1 -0.1)">
       <use xlink:href="#DejaVuSans-30"/>
       <use xlink:href="#DejaVuSans-2e" x="63.623047"/>
       <use xlink:href="#DejaVuSans-30" x="95.410156"/>
      </g>
     </g>
    </g>
    <g id="ytick_2">
     <g id="line2d_11">
      <g>
       <use xlink:href="#m141aafc7df" x="43.78125" y="229.713915" style="stroke: #000000; stroke-width: 0.8"/>
      </g>
     </g>
     <g id="text_12">
      <!-- 0.2 -->
      <g transform="translate(20.878125 233.513133)scale(0.1 -0.1)">
       <use xlink:href="#DejaVuSans-30"/>
       <use xlink:href="#DejaVuSans-2e" x="63.623047"/>
       <use xlink:href="#DejaVuSans-32" x="95.410156"/>
      </g>
     </g>
    </g>
    <g id="ytick_3">
     <g id="line2d_12">
      <g>
       <use xlink:href="#m141aafc7df" x="43.78125" y="185.970975" style="stroke: #000000; stroke-width: 0.8"/>
      </g>
     </g>
     <g id="text_13">
      <!-- 0.4 -->
      <g transform="translate(20.878125 189.770194)scale(0.1 -0.1)">
       <use xlink:href="#DejaVuSans-30"/>
       <use xlink:href="#DejaVuSans-2e" x="63.623047"/>
       <use xlink:href="#DejaVuSans-34" x="95.410156"/>
      </g>
     </g>
    </g>
    <g id="ytick_4">
     <g id="line2d_13">
      <g>
       <use xlink:href="#m141aafc7df" x="43.78125" y="142.228036" style="stroke: #000000; stroke-width: 0.8"/>
      </g>
     </g>
     <g id="text_14">
      <!-- 0.6 -->
      <g transform="translate(20.878125 146.027255)scale(0.1 -0.1)">
       <use xlink:href="#DejaVuSans-30"/>
       <use xlink:href="#DejaVuSans-2e" x="63.623047"/>
       <use xlink:href="#DejaVuSans-36" x="95.410156"/>
      </g>
     </g>
    </g>
    <g id="ytick_5">
     <g id="line2d_14">
      <g>
       <use xlink:href="#m141aafc7df" x="43.78125" y="98.485097" style="stroke: #000000; stroke-width: 0.8"/>
      </g>
     </g>
     <g id="text_15">
      <!-- 0.8 -->
      <g transform="translate(20.878125 102.284316)scale(0.1 -0.1)">
       <use xlink:href="#DejaVuSans-30"/>
       <use xlink:href="#DejaVuSans-2e" x="63.623047"/>
       <use xlink:href="#DejaVuSans-38" x="95.410156"/>
      </g>
     </g>
    </g>
    <g id="ytick_6">
     <g id="line2d_15">
      <g>
       <use xlink:href="#m141aafc7df" x="43.78125" y="54.742158" style="stroke: #000000; stroke-width: 0.8"/>
      </g>
     </g>
     <g id="text_16">
      <!-- 1.0 -->
      <g transform="translate(20.878125 58.541377)scale(0.1 -0.1)">
       <use xlink:href="#DejaVuSans-31"/>
       <use xlink:href="#DejaVuSans-2e" x="63.623047"/>
       <use xlink:href="#DejaVuSans-30" x="95.410156"/>
      </g>
     </g>
    </g>
    <g id="ytick_7">
     <g id="line2d_16">
      <g>
       <use xlink:href="#m141aafc7df" x="43.78125" y="10.999219" style="stroke: #000000; stroke-width: 0.8"/>
      </g>
     </g>
     <g id="text_17">
      <!-- 1.2 -->
      <g transform="translate(20.878125 14.798437)scale(0.1 -0.1)">
       <use xlink:href="#DejaVuSans-31"/>
       <use xlink:href="#DejaVuSans-2e" x="63.623047"/>
       <use xlink:href="#DejaVuSans-32" x="95.410156"/>
      </g>
     </g>
    </g>
    <g id="text_18">
     <!-- Probability density -->
     <g transform="translate(14.798438 186.751635)rotate(-90)scale(0.1 -0.1)">
      <defs>
       <path id="DejaVuSans-50" d="M 1259 4147 
L 1259 2394 
L 2053 2394 
Q 2494 2394 2734 2622 
Q 2975 2850 2975 3272 
Q 2975 3691 2734 3919 
Q 2494 4147 2053 4147 
L 1259 4147 
z
M 628 4666 
L 2053 4666 
Q 2838 4666 3239 4311 
Q 3641 3956 3641 3272 
Q 3641 2581 3239 2228 
Q 2838 1875 2053 1875 
L 1259 1875 
L 1259 0 
L 628 0 
L 628 4666 
z
" transform="scale(0.015625)"/>
       <path id="DejaVuSans-62" d="M 3116 1747 
Q 3116 2381 2855 2742 
Q 2594 3103 2138 3103 
Q 1681 3103 1420 2742 
Q 1159 2381 1159 1747 
Q 1159 1113 1420 752 
Q 1681 391 2138 391 
Q 2594 391 2855 752 
Q 3116 1113 3116 1747 
z
M 1159 2969 
Q 1341 3281 1617 3432 
Q 1894 3584 2278 3584 
Q 2916 3584 3314 3078 
Q 3713 2572 3713 1747 
Q 3713 922 3314 415 
Q 2916 -91 2278 -91 
Q 1894 -91 1617 61 
Q 1341 213 1159 525 
L 1159 0 
L 581 0 
L 581 4863 
L 1159 4863 
L 1159 2969 
z
" transform="scale(0.015625)"/>
       <path id="DejaVuSans-79" d="M 2059 -325 
Q 1816 -950 1584 -1140 
Q 1353 -1331 966 -1331 
L 506 -1331 
L 506 -850 
L 844 -850 
Q 1081 -850 1212 -737 
Q 1344 -625 1503 -206 
L 1606 56 
L 191 3500 
L 800 3500 
L 1894 763 
L 2988 3500 
L 3597 3500 
L 2059 -325 
z
" transform="scale(0.015625)"/>
       <path id="DejaVuSans-73" d="M 2834 3397 
L 2834 2853 
Q 2591 2978 2328 3040 
Q 2066 3103 1784 3103 
Q 1356 3103 1142 2972 
Q 928 2841 928 2578 
Q 928 2378 1081 2264 
Q 1234 2150 1697 2047 
L 1894 2003 
Q 2506 1872 2764 1633 
Q 3022 1394 3022 966 
Q 3022 478 2636 193 
Q 2250 -91 1575 -91 
Q 1294 -91 989 -36 
Q 684 19 347 128 
L 347 722 
Q 666 556 975 473 
Q 1284 391 1588 391 
Q 1994 391 2212 530 
Q 2431 669 2431 922 
Q 2431 1156 2273 1281 
Q 2116 1406 1581 1522 
L 1381 1569 
Q 847 1681 609 1914 
Q 372 2147 372 2553 
Q 372 3047 722 3315 
Q 1072 3584 1716 3584 
Q 2034 3584 2315 3537 
Q 2597 3491 2834 3397 
z
" transform="scale(0.015625)"/>
      </defs>
      <use xlink:href="#DejaVuSans-50"/>
      <use xlink:href="#DejaVuSans-72" x="58.552734"/>
      <use xlink:href="#DejaVuSans-6f" x="97.416016"/>
      <use xlink:href="#DejaVuSans-62" x="158.597656"/>
      <use xlink:href="#DejaVuSans-61" x="222.074219"/>
      <use xlink:href="#DejaVuSans-62" x="283.353516"/>
      <use xlink:href="#DejaVuSans-69" x="346.830078"/>
      <use xlink:href="#DejaVuSans-6c" x="374.613281"/>
      <use xlink:href="#DejaVuSans-69" x="402.396484"/>
      <use xlink:href="#DejaVuSans-74" x="430.179688"/>
      <use xlink:href="#DejaVuSans-79" x="469.388672"/>
      <use xlink:href="#DejaVuSans-20" x="528.568359"/>
      <use xlink:href="#DejaVuSans-64" x="560.355469"/>
      <use xlink:href="#DejaVuSans-65" x="623.832031"/>
      <use xlink:href="#DejaVuSans-6e" x="685.355469"/>
      <use xlink:href="#DejaVuSans-73" x="748.734375"/>
      <use xlink:href="#DejaVuSans-69" x="800.833984"/>
      <use xlink:href="#DejaVuSans-74" x="828.617188"/>
      <use xlink:href="#DejaVuSans-79" x="867.826172"/>
     </g>
    </g>
   </g>
   <g id="line2d_17">
    <path d="M 60.013977 273.456854 
L 79.837728 231.757881 
L 90.237073 210.399397 
L 99.01152 192.86587 
L 106.811029 177.764142 
L 113.960578 164.397467 
L 120.460169 152.697111 
L 126.63478 142.023399 
L 132.484411 132.343568 
L 138.009063 123.616052 
L 143.208736 115.792599 
L 148.408408 108.368218 
L 153.283101 101.787024 
L 158.157794 95.587743 
L 162.707507 90.158498 
L 167.257221 85.084485 
L 171.481954 80.699587 
L 175.706688 76.6368 
L 179.606442 73.178313 
L 183.506197 70.005003 
L 187.405951 67.121388 
L 191.305705 64.531575 
L 194.88048 62.418832 
L 198.455255 60.558595 
L 202.03003 58.95309 
L 205.604804 57.604238 
L 208.8546 56.602087 
L 212.104395 55.814375 
L 215.35419 55.24188 
L 218.603985 54.885167 
L 221.853781 54.744591 
L 225.103576 54.82029 
L 228.353371 55.112189 
L 231.603166 55.619999 
L 234.852962 56.343218 
L 238.102757 57.281131 
L 241.352552 58.432811 
L 244.927327 59.945194 
L 248.502102 61.713043 
L 252.076877 63.734242 
L 255.651651 66.006373 
L 259.226426 68.526717 
L 263.12618 71.555719 
L 267.025935 74.872208 
L 270.925689 78.471462 
L 275.150423 82.683792 
L 279.375157 87.214917 
L 283.92487 92.442417 
L 288.474583 98.020724 
L 293.024297 103.939026 
L 297.89899 110.644312 
L 303.098662 118.19547 
L 308.298334 126.139618 
L 313.822986 134.988366 
L 319.672618 144.788318 
L 325.847229 155.579207 
L 332.346819 167.391788 
L 339.496369 180.868218 
L 347.295877 196.072725 
L 355.745345 213.038694 
L 365.81971 233.785259 
L 379.46885 262.456692 
L 384.668523 273.456854 
L 384.668523 273.456854 
" clip-path="url(#p8fff589c92)" style="fill: none; stroke: #ff7f0e; stroke-width: 1.5; stroke-linecap: square"/>
   </g>
   <g id="patch_203">
    <path d="M 43.78125 273.456854 
L 43.78125 7.344854 
" style="fill: none; stroke: #000000; stroke-width: 0.8; stroke-linejoin: miter; stroke-linecap: square"/>
   </g>
   <g id="patch_204">
    <path d="M 400.90125 273.456854 
L 400.90125 7.344854 
" style="fill: none; stroke: #000000; stroke-width: 0.8; stroke-linejoin: miter; stroke-linecap: square"/>
   </g>
   <g id="patch_205">
    <path d="M 43.78125 273.456854 
L 400.90125 273.456854 
" style="fill: none; stroke: #000000; stroke-width: 0.8; stroke-linejoin: miter; stroke-linecap: square"/>
   </g>
   <g id="patch_206">
    <path d="M 43.78125 7.344854 
L 400.90125 7.344854 
" style="fill: none; stroke: #000000; stroke-width: 0.8; stroke-linejoin: miter; stroke-linecap: square"/>
   </g>
  </g>
 </g>
 <defs>
  <clipPath id="p8fff589c92">
   <rect x="43.78125" y="7.344854" width="357.12" height="266.112"/>
  </clipPath>
 </defs>
</svg>
