<?xml version="1.0" encoding="utf-8" standalone="no"?>
<!DOCTYPE svg PUBLIC "-//W3C//DTD SVG 1.1//EN"
  "http://www.w3.org/Graphics/SVG/1.1/DTD/svg11.dtd">
<svg xmlns:xlink="http://www.w3.org/1999/xlink" width="408.10125pt" height="310.86825pt" viewBox="0 0 408.10125 310.86825" xmlns="http://www.w3.org/2000/svg" version="1.1">
 <metadata>
  <rdf:RDF xmlns:dc="http://purl.org/dc/elements/1.1/" xmlns:cc="http://creativecommons.org/ns#" xmlns:rdf="http://www.w3.org/1999/02/22-rdf-syntax-ns#">
   <cc:Work>
    <dc:type rdf:resource="http://purl.org/dc/dcmitype/StillImage"/>
    <dc:date>2022-05-06T13:27:41.517170</dc:date>
    <dc:format>image/svg+xml</dc:format>
    <dc:creator>
     <cc:Agent>
      <dc:title>Matplotlib v3.5.2, https://matplotlib.org/</dc:title>
     </cc:Agent>
    </dc:creator>
   </cc:Work>
  </rdf:RDF>
 </metadata>
 <defs>
  <style type="text/css">*{stroke-linejoin: round; stroke-linecap: butt}</style>
 </defs>
 <g id="figure_1">
  <g id="patch_1">
   <path d="M 0 310.86825 
L 408.10125 310.86825 
L 408.10125 0 
L 0 0 
z
" style="fill: #ffffff"/>
  </g>
  <g id="axes_1">
   <g id="patch_2">
    <path d="M 43.78125 273.312 
L 400.90125 273.312 
L 400.90125 7.2 
L 43.78125 7.2 
z
" style="fill: #ffffff"/>
   </g>
   <g id="patch_3">
    <path d="M 61.239075 273.312 
L 62.852219 273.312 
L 62.852219 265.160421 
L 61.239075 265.160421 
z
" clip-path="url(#p4bebd8eb93)" style="fill: #1f77b4"/>
   </g>
   <g id="patch_4">
    <path d="M 62.852219 273.312 
L 64.465364 273.312 
L 64.465364 267.383579 
L 62.852219 267.383579 
z
" clip-path="url(#p4bebd8eb93)" style="fill: #1f77b4"/>
   </g>
   <g id="patch_5">
    <path d="M 64.465364 273.312 
L 66.078509 273.312 
L 66.078509 261.455158 
L 64.465364 261.455158 
z
" clip-path="url(#p4bebd8eb93)" style="fill: #1f77b4"/>
   </g>
   <g id="patch_6">
    <path d="M 66.078509 273.312 
L 67.691654 273.312 
L 67.691654 259.232 
L 66.078509 259.232 
z
" clip-path="url(#p4bebd8eb93)" style="fill: #1f77b4"/>
   </g>
   <g id="patch_7">
    <path d="M 67.691654 273.312 
L 69.304799 273.312 
L 69.304799 251.080421 
L 67.691654 251.080421 
z
" clip-path="url(#p4bebd8eb93)" style="fill: #1f77b4"/>
   </g>
   <g id="patch_8">
    <path d="M 69.304799 273.312 
L 70.917943 273.312 
L 70.917943 254.785684 
L 69.304799 254.785684 
z
" clip-path="url(#p4bebd8eb93)" style="fill: #1f77b4"/>
   </g>
   <g id="patch_9">
    <path d="M 70.917943 273.312 
L 72.531088 273.312 
L 72.531088 244.410947 
L 70.917943 244.410947 
z
" clip-path="url(#p4bebd8eb93)" style="fill: #1f77b4"/>
   </g>
   <g id="patch_10">
    <path d="M 72.531088 273.312 
L 74.144233 273.312 
L 74.144233 250.339368 
L 72.531088 250.339368 
z
" clip-path="url(#p4bebd8eb93)" style="fill: #1f77b4"/>
   </g>
   <g id="patch_11">
    <path d="M 74.144233 273.312 
L 75.757378 273.312 
L 75.757378 240.705684 
L 74.144233 240.705684 
z
" clip-path="url(#p4bebd8eb93)" style="fill: #1f77b4"/>
   </g>
   <g id="patch_12">
    <path d="M 75.757378 273.312 
L 77.370522 273.312 
L 77.370522 235.518316 
L 75.757378 235.518316 
z
" clip-path="url(#p4bebd8eb93)" style="fill: #1f77b4"/>
   </g>
   <g id="patch_13">
    <path d="M 77.370522 273.312 
L 78.983667 273.312 
L 78.983667 226.625684 
L 77.370522 226.625684 
z
" clip-path="url(#p4bebd8eb93)" style="fill: #1f77b4"/>
   </g>
   <g id="patch_14">
    <path d="M 78.983667 273.312 
L 80.596812 273.312 
L 80.596812 239.964632 
L 78.983667 239.964632 
z
" clip-path="url(#p4bebd8eb93)" style="fill: #1f77b4"/>
   </g>
   <g id="patch_15">
    <path d="M 80.596812 273.312 
L 82.209957 273.312 
L 82.209957 228.107789 
L 80.596812 228.107789 
z
" clip-path="url(#p4bebd8eb93)" style="fill: #1f77b4"/>
   </g>
   <g id="patch_16">
    <path d="M 82.209957 273.312 
L 83.823102 273.312 
L 83.823102 226.625684 
L 82.209957 226.625684 
z
" clip-path="url(#p4bebd8eb93)" style="fill: #1f77b4"/>
   </g>
   <g id="patch_17">
    <path d="M 83.823102 273.312 
L 85.436246 273.312 
L 85.436246 212.545684 
L 83.823102 212.545684 
z
" clip-path="url(#p4bebd8eb93)" style="fill: #1f77b4"/>
   </g>
   <g id="patch_18">
    <path d="M 85.436246 273.312 
L 87.049391 273.312 
L 87.049391 213.286737 
L 85.436246 213.286737 
z
" clip-path="url(#p4bebd8eb93)" style="fill: #1f77b4"/>
   </g>
   <g id="patch_19">
    <path d="M 87.049391 273.312 
L 88.662536 273.312 
L 88.662536 217.733053 
L 87.049391 217.733053 
z
" clip-path="url(#p4bebd8eb93)" style="fill: #1f77b4"/>
   </g>
   <g id="patch_20">
    <path d="M 88.662536 273.312 
L 90.275681 273.312 
L 90.275681 201.429895 
L 88.662536 201.429895 
z
" clip-path="url(#p4bebd8eb93)" style="fill: #1f77b4"/>
   </g>
   <g id="patch_21">
    <path d="M 90.275681 273.312 
L 91.888826 273.312 
L 91.888826 194.019368 
L 90.275681 194.019368 
z
" clip-path="url(#p4bebd8eb93)" style="fill: #1f77b4"/>
   </g>
   <g id="patch_22">
    <path d="M 91.888826 273.312 
L 93.50197 273.312 
L 93.50197 197.724632 
L 91.888826 197.724632 
z
" clip-path="url(#p4bebd8eb93)" style="fill: #1f77b4"/>
   </g>
   <g id="patch_23">
    <path d="M 93.50197 273.312 
L 95.115115 273.312 
L 95.115115 203.653053 
L 93.50197 203.653053 
z
" clip-path="url(#p4bebd8eb93)" style="fill: #1f77b4"/>
   </g>
   <g id="patch_24">
    <path d="M 95.115115 273.312 
L 96.72826 273.312 
L 96.72826 200.688842 
L 95.115115 200.688842 
z
" clip-path="url(#p4bebd8eb93)" style="fill: #1f77b4"/>
   </g>
   <g id="patch_25">
    <path d="M 96.72826 273.312 
L 98.341405 273.312 
L 98.341405 191.796211 
L 96.72826 191.796211 
z
" clip-path="url(#p4bebd8eb93)" style="fill: #1f77b4"/>
   </g>
   <g id="patch_26">
    <path d="M 98.341405 273.312 
L 99.954549 273.312 
L 99.954549 192.537263 
L 98.341405 192.537263 
z
" clip-path="url(#p4bebd8eb93)" style="fill: #1f77b4"/>
   </g>
   <g id="patch_27">
    <path d="M 99.954549 273.312 
L 101.567694 273.312 
L 101.567694 179.939368 
L 99.954549 179.939368 
z
" clip-path="url(#p4bebd8eb93)" style="fill: #1f77b4"/>
   </g>
   <g id="patch_28">
    <path d="M 101.567694 273.312 
L 103.180839 273.312 
L 103.180839 179.198316 
L 101.567694 179.198316 
z
" clip-path="url(#p4bebd8eb93)" style="fill: #1f77b4"/>
   </g>
   <g id="patch_29">
    <path d="M 103.180839 273.312 
L 104.793984 273.312 
L 104.793984 170.305684 
L 103.180839 170.305684 
z
" clip-path="url(#p4bebd8eb93)" style="fill: #1f77b4"/>
   </g>
   <g id="patch_30">
    <path d="M 104.793984 273.312 
L 106.407129 273.312 
L 106.407129 173.269895 
L 104.793984 173.269895 
z
" clip-path="url(#p4bebd8eb93)" style="fill: #1f77b4"/>
   </g>
   <g id="patch_31">
    <path d="M 106.407129 273.312 
L 108.020273 273.312 
L 108.020273 178.457263 
L 106.407129 178.457263 
z
" clip-path="url(#p4bebd8eb93)" style="fill: #1f77b4"/>
   </g>
   <g id="patch_32">
    <path d="M 108.020273 273.312 
L 109.633418 273.312 
L 109.633418 174.752 
L 108.020273 174.752 
z
" clip-path="url(#p4bebd8eb93)" style="fill: #1f77b4"/>
   </g>
   <g id="patch_33">
    <path d="M 109.633418 273.312 
L 111.246563 273.312 
L 111.246563 151.038316 
L 109.633418 151.038316 
z
" clip-path="url(#p4bebd8eb93)" style="fill: #1f77b4"/>
   </g>
   <g id="patch_34">
    <path d="M 111.246563 273.312 
L 112.859708 273.312 
L 112.859708 179.198316 
L 111.246563 179.198316 
z
" clip-path="url(#p4bebd8eb93)" style="fill: #1f77b4"/>
   </g>
   <g id="patch_35">
    <path d="M 112.859708 273.312 
L 114.472853 273.312 
L 114.472853 156.966737 
L 112.859708 156.966737 
z
" clip-path="url(#p4bebd8eb93)" style="fill: #1f77b4"/>
   </g>
   <g id="patch_36">
    <path d="M 114.472853 273.312 
L 116.085997 273.312 
L 116.085997 162.154105 
L 114.472853 162.154105 
z
" clip-path="url(#p4bebd8eb93)" style="fill: #1f77b4"/>
   </g>
   <g id="patch_37">
    <path d="M 116.085997 273.312 
L 117.699142 273.312 
L 117.699142 162.154105 
L 116.085997 162.154105 
z
" clip-path="url(#p4bebd8eb93)" style="fill: #1f77b4"/>
   </g>
   <g id="patch_38">
    <path d="M 117.699142 273.312 
L 119.312287 273.312 
L 119.312287 160.672 
L 117.699142 160.672 
z
" clip-path="url(#p4bebd8eb93)" style="fill: #1f77b4"/>
   </g>
   <g id="patch_39">
    <path d="M 119.312287 273.312 
L 120.925432 273.312 
L 120.925432 148.815158 
L 119.312287 148.815158 
z
" clip-path="url(#p4bebd8eb93)" style="fill: #1f77b4"/>
   </g>
   <g id="patch_40">
    <path d="M 120.925432 273.312 
L 122.538577 273.312 
L 122.538577 132.512 
L 120.925432 132.512 
z
" clip-path="url(#p4bebd8eb93)" style="fill: #1f77b4"/>
   </g>
   <g id="patch_41">
    <path d="M 122.538577 273.312 
L 124.151721 273.312 
L 124.151721 136.958316 
L 122.538577 136.958316 
z
" clip-path="url(#p4bebd8eb93)" style="fill: #1f77b4"/>
   </g>
   <g id="patch_42">
    <path d="M 124.151721 273.312 
L 125.764866 273.312 
L 125.764866 145.109895 
L 124.151721 145.109895 
z
" clip-path="url(#p4bebd8eb93)" style="fill: #1f77b4"/>
   </g>
   <g id="patch_43">
    <path d="M 125.764866 273.312 
L 127.378011 273.312 
L 127.378011 119.173053 
L 125.764866 119.173053 
z
" clip-path="url(#p4bebd8eb93)" style="fill: #1f77b4"/>
   </g>
   <g id="patch_44">
    <path d="M 127.378011 273.312 
L 128.991156 273.312 
L 128.991156 110.280421 
L 127.378011 110.280421 
z
" clip-path="url(#p4bebd8eb93)" style="fill: #1f77b4"/>
   </g>
   <g id="patch_45">
    <path d="M 128.991156 273.312 
L 130.6043 273.312 
L 130.6043 128.806737 
L 128.991156 128.806737 
z
" clip-path="url(#p4bebd8eb93)" style="fill: #1f77b4"/>
   </g>
   <g id="patch_46">
    <path d="M 130.6043 273.312 
L 132.217445 273.312 
L 132.217445 136.958316 
L 130.6043 136.958316 
z
" clip-path="url(#p4bebd8eb93)" style="fill: #1f77b4"/>
   </g>
   <g id="patch_47">
    <path d="M 132.217445 273.312 
L 133.83059 273.312 
L 133.83059 136.958316 
L 132.217445 136.958316 
z
" clip-path="url(#p4bebd8eb93)" style="fill: #1f77b4"/>
   </g>
   <g id="patch_48">
    <path d="M 133.83059 273.312 
L 135.443735 273.312 
L 135.443735 128.065684 
L 133.83059 128.065684 
z
" clip-path="url(#p4bebd8eb93)" style="fill: #1f77b4"/>
   </g>
   <g id="patch_49">
    <path d="M 135.443735 273.312 
L 137.05688 273.312 
L 137.05688 117.690947 
L 135.443735 117.690947 
z
" clip-path="url(#p4bebd8eb93)" style="fill: #1f77b4"/>
   </g>
   <g id="patch_50">
    <path d="M 137.05688 273.312 
L 138.670024 273.312 
L 138.670024 106.575158 
L 137.05688 106.575158 
z
" clip-path="url(#p4bebd8eb93)" style="fill: #1f77b4"/>
   </g>
   <g id="patch_51">
    <path d="M 138.670024 273.312 
L 140.283169 273.312 
L 140.283169 101.387789 
L 138.670024 101.387789 
z
" clip-path="url(#p4bebd8eb93)" style="fill: #1f77b4"/>
   </g>
   <g id="patch_52">
    <path d="M 140.283169 273.312 
L 141.896314 273.312 
L 141.896314 103.610947 
L 140.283169 103.610947 
z
" clip-path="url(#p4bebd8eb93)" style="fill: #1f77b4"/>
   </g>
   <g id="patch_53">
    <path d="M 141.896314 273.312 
L 143.509459 273.312 
L 143.509459 98.423579 
L 141.896314 98.423579 
z
" clip-path="url(#p4bebd8eb93)" style="fill: #1f77b4"/>
   </g>
   <g id="patch_54">
    <path d="M 143.509459 273.312 
L 145.122604 273.312 
L 145.122604 107.316211 
L 143.509459 107.316211 
z
" clip-path="url(#p4bebd8eb93)" style="fill: #1f77b4"/>
   </g>
   <g id="patch_55">
    <path d="M 145.122604 273.312 
L 146.735748 273.312 
L 146.735748 88.048842 
L 145.122604 88.048842 
z
" clip-path="url(#p4bebd8eb93)" style="fill: #1f77b4"/>
   </g>
   <g id="patch_56">
    <path d="M 146.735748 273.312 
L 148.348893 273.312 
L 148.348893 108.057263 
L 146.735748 108.057263 
z
" clip-path="url(#p4bebd8eb93)" style="fill: #1f77b4"/>
   </g>
   <g id="patch_57">
    <path d="M 148.348893 273.312 
L 149.962038 273.312 
L 149.962038 91.754105 
L 148.348893 91.754105 
z
" clip-path="url(#p4bebd8eb93)" style="fill: #1f77b4"/>
   </g>
   <g id="patch_58">
    <path d="M 149.962038 273.312 
L 151.575183 273.312 
L 151.575183 88.048842 
L 149.962038 88.048842 
z
" clip-path="url(#p4bebd8eb93)" style="fill: #1f77b4"/>
   </g>
   <g id="patch_59">
    <path d="M 151.575183 273.312 
L 153.188327 273.312 
L 153.188327 91.013053 
L 151.575183 91.013053 
z
" clip-path="url(#p4bebd8eb93)" style="fill: #1f77b4"/>
   </g>
   <g id="patch_60">
    <path d="M 153.188327 273.312 
L 154.801472 273.312 
L 154.801472 119.173053 
L 153.188327 119.173053 
z
" clip-path="url(#p4bebd8eb93)" style="fill: #1f77b4"/>
   </g>
   <g id="patch_61">
    <path d="M 154.801472 273.312 
L 156.414617 273.312 
L 156.414617 82.120421 
L 154.801472 82.120421 
z
" clip-path="url(#p4bebd8eb93)" style="fill: #1f77b4"/>
   </g>
   <g id="patch_62">
    <path d="M 156.414617 273.312 
L 158.027762 273.312 
L 158.027762 74.709895 
L 156.414617 74.709895 
z
" clip-path="url(#p4bebd8eb93)" style="fill: #1f77b4"/>
   </g>
   <g id="patch_63">
    <path d="M 158.027762 273.312 
L 159.640907 273.312 
L 159.640907 79.897263 
L 158.027762 79.897263 
z
" clip-path="url(#p4bebd8eb93)" style="fill: #1f77b4"/>
   </g>
   <g id="patch_64">
    <path d="M 159.640907 273.312 
L 161.254051 273.312 
L 161.254051 71.004632 
L 159.640907 71.004632 
z
" clip-path="url(#p4bebd8eb93)" style="fill: #1f77b4"/>
   </g>
   <g id="patch_65">
    <path d="M 161.254051 273.312 
L 162.867196 273.312 
L 162.867196 82.120421 
L 161.254051 82.120421 
z
" clip-path="url(#p4bebd8eb93)" style="fill: #1f77b4"/>
   </g>
   <g id="patch_66">
    <path d="M 162.867196 273.312 
L 164.480341 273.312 
L 164.480341 76.192 
L 162.867196 76.192 
z
" clip-path="url(#p4bebd8eb93)" style="fill: #1f77b4"/>
   </g>
   <g id="patch_67">
    <path d="M 164.480341 273.312 
L 166.093486 273.312 
L 166.093486 64.335158 
L 164.480341 64.335158 
z
" clip-path="url(#p4bebd8eb93)" style="fill: #1f77b4"/>
   </g>
   <g id="patch_68">
    <path d="M 166.093486 273.312 
L 167.706631 273.312 
L 167.706631 79.897263 
L 166.093486 79.897263 
z
" clip-path="url(#p4bebd8eb93)" style="fill: #1f77b4"/>
   </g>
   <g id="patch_69">
    <path d="M 167.706631 273.312 
L 169.319775 273.312 
L 169.319775 64.335158 
L 167.706631 64.335158 
z
" clip-path="url(#p4bebd8eb93)" style="fill: #1f77b4"/>
   </g>
   <g id="patch_70">
    <path d="M 169.319775 273.312 
L 170.93292 273.312 
L 170.93292 70.263579 
L 169.319775 70.263579 
z
" clip-path="url(#p4bebd8eb93)" style="fill: #1f77b4"/>
   </g>
   <g id="patch_71">
    <path d="M 170.93292 273.312 
L 172.546065 273.312 
L 172.546065 59.888842 
L 170.93292 59.888842 
z
" clip-path="url(#p4bebd8eb93)" style="fill: #1f77b4"/>
   </g>
   <g id="patch_72">
    <path d="M 172.546065 273.312 
L 174.15921 273.312 
L 174.15921 54.701474 
L 172.546065 54.701474 
z
" clip-path="url(#p4bebd8eb93)" style="fill: #1f77b4"/>
   </g>
   <g id="patch_73">
    <path d="M 174.15921 273.312 
L 175.772354 273.312 
L 175.772354 56.183579 
L 174.15921 56.183579 
z
" clip-path="url(#p4bebd8eb93)" style="fill: #1f77b4"/>
   </g>
   <g id="patch_74">
    <path d="M 175.772354 273.312 
L 177.385499 273.312 
L 177.385499 66.558316 
L 175.772354 66.558316 
z
" clip-path="url(#p4bebd8eb93)" style="fill: #1f77b4"/>
   </g>
   <g id="patch_75">
    <path d="M 177.385499 273.312 
L 178.998644 273.312 
L 178.998644 59.147789 
L 177.385499 59.147789 
z
" clip-path="url(#p4bebd8eb93)" style="fill: #1f77b4"/>
   </g>
   <g id="patch_76">
    <path d="M 178.998644 273.312 
L 180.611789 273.312 
L 180.611789 75.450947 
L 178.998644 75.450947 
z
" clip-path="url(#p4bebd8eb93)" style="fill: #1f77b4"/>
   </g>
   <g id="patch_77">
    <path d="M 180.611789 273.312 
L 182.224934 273.312 
L 182.224934 50.255158 
L 180.611789 50.255158 
z
" clip-path="url(#p4bebd8eb93)" style="fill: #1f77b4"/>
   </g>
   <g id="patch_78">
    <path d="M 182.224934 273.312 
L 183.838078 273.312 
L 183.838078 65.076211 
L 182.224934 65.076211 
z
" clip-path="url(#p4bebd8eb93)" style="fill: #1f77b4"/>
   </g>
   <g id="patch_79">
    <path d="M 183.838078 273.312 
L 185.451223 273.312 
L 185.451223 36.175158 
L 183.838078 36.175158 
z
" clip-path="url(#p4bebd8eb93)" style="fill: #1f77b4"/>
   </g>
   <g id="patch_80">
    <path d="M 185.451223 273.312 
L 187.064368 273.312 
L 187.064368 66.558316 
L 185.451223 66.558316 
z
" clip-path="url(#p4bebd8eb93)" style="fill: #1f77b4"/>
   </g>
   <g id="patch_81">
    <path d="M 187.064368 273.312 
L 188.677513 273.312 
L 188.677513 49.514105 
L 187.064368 49.514105 
z
" clip-path="url(#p4bebd8eb93)" style="fill: #1f77b4"/>
   </g>
   <g id="patch_82">
    <path d="M 188.677513 273.312 
L 190.290658 273.312 
L 190.290658 70.263579 
L 188.677513 70.263579 
z
" clip-path="url(#p4bebd8eb93)" style="fill: #1f77b4"/>
   </g>
   <g id="patch_83">
    <path d="M 190.290658 273.312 
L 191.903802 273.312 
L 191.903802 68.040421 
L 190.290658 68.040421 
z
" clip-path="url(#p4bebd8eb93)" style="fill: #1f77b4"/>
   </g>
   <g id="patch_84">
    <path d="M 191.903802 273.312 
L 193.516947 273.312 
L 193.516947 48.773053 
L 191.903802 48.773053 
z
" clip-path="url(#p4bebd8eb93)" style="fill: #1f77b4"/>
   </g>
   <g id="patch_85">
    <path d="M 193.516947 273.312 
L 195.130092 273.312 
L 195.130092 42.844632 
L 193.516947 42.844632 
z
" clip-path="url(#p4bebd8eb93)" style="fill: #1f77b4"/>
   </g>
   <g id="patch_86">
    <path d="M 195.130092 273.312 
L 196.743237 273.312 
L 196.743237 39.139368 
L 195.130092 39.139368 
z
" clip-path="url(#p4bebd8eb93)" style="fill: #1f77b4"/>
   </g>
   <g id="patch_87">
    <path d="M 196.743237 273.312 
L 198.356381 273.312 
L 198.356381 59.888842 
L 196.743237 59.888842 
z
" clip-path="url(#p4bebd8eb93)" style="fill: #1f77b4"/>
   </g>
   <g id="patch_88">
    <path d="M 198.356381 273.312 
L 199.969526 273.312 
L 199.969526 50.255158 
L 198.356381 50.255158 
z
" clip-path="url(#p4bebd8eb93)" style="fill: #1f77b4"/>
   </g>
   <g id="patch_89">
    <path d="M 199.969526 273.312 
L 201.582671 273.312 
L 201.582671 44.326737 
L 199.969526 44.326737 
z
" clip-path="url(#p4bebd8eb93)" style="fill: #1f77b4"/>
   </g>
   <g id="patch_90">
    <path d="M 201.582671 273.312 
L 203.195816 273.312 
L 203.195816 45.808842 
L 201.582671 45.808842 
z
" clip-path="url(#p4bebd8eb93)" style="fill: #1f77b4"/>
   </g>
   <g id="patch_91">
    <path d="M 203.195816 273.312 
L 204.808961 273.312 
L 204.808961 33.952 
L 203.195816 33.952 
z
" clip-path="url(#p4bebd8eb93)" style="fill: #1f77b4"/>
   </g>
   <g id="patch_92">
    <path d="M 204.808961 273.312 
L 206.422105 273.312 
L 206.422105 52.478316 
L 204.808961 52.478316 
z
" clip-path="url(#p4bebd8eb93)" style="fill: #1f77b4"/>
   </g>
   <g id="patch_93">
    <path d="M 206.422105 273.312 
L 208.03525 273.312 
L 208.03525 40.621474 
L 206.422105 40.621474 
z
" clip-path="url(#p4bebd8eb93)" style="fill: #1f77b4"/>
   </g>
   <g id="patch_94">
    <path d="M 208.03525 273.312 
L 209.648395 273.312 
L 209.648395 45.067789 
L 208.03525 45.067789 
z
" clip-path="url(#p4bebd8eb93)" style="fill: #1f77b4"/>
   </g>
   <g id="patch_95">
    <path d="M 209.648395 273.312 
L 211.26154 273.312 
L 211.26154 28.023579 
L 209.648395 28.023579 
z
" clip-path="url(#p4bebd8eb93)" style="fill: #1f77b4"/>
   </g>
   <g id="patch_96">
    <path d="M 211.26154 273.312 
L 212.874685 273.312 
L 212.874685 50.996211 
L 211.26154 50.996211 
z
" clip-path="url(#p4bebd8eb93)" style="fill: #1f77b4"/>
   </g>
   <g id="patch_97">
    <path d="M 212.874685 273.312 
L 214.487829 273.312 
L 214.487829 72.486737 
L 212.874685 72.486737 
z
" clip-path="url(#p4bebd8eb93)" style="fill: #1f77b4"/>
   </g>
   <g id="patch_98">
    <path d="M 214.487829 273.312 
L 216.100974 273.312 
L 216.100974 53.960421 
L 214.487829 53.960421 
z
" clip-path="url(#p4bebd8eb93)" style="fill: #1f77b4"/>
   </g>
   <g id="patch_99">
    <path d="M 216.100974 273.312 
L 217.714119 273.312 
L 217.714119 37.657263 
L 216.100974 37.657263 
z
" clip-path="url(#p4bebd8eb93)" style="fill: #1f77b4"/>
   </g>
   <g id="patch_100">
    <path d="M 217.714119 273.312 
L 219.327264 273.312 
L 219.327264 46.549895 
L 217.714119 46.549895 
z
" clip-path="url(#p4bebd8eb93)" style="fill: #1f77b4"/>
   </g>
   <g id="patch_101">
    <path d="M 219.327264 273.312 
L 220.940408 273.312 
L 220.940408 30.246737 
L 219.327264 30.246737 
z
" clip-path="url(#p4bebd8eb93)" style="fill: #1f77b4"/>
   </g>
   <g id="patch_102">
    <path d="M 220.940408 273.312 
L 222.553553 273.312 
L 222.553553 53.960421 
L 220.940408 53.960421 
z
" clip-path="url(#p4bebd8eb93)" style="fill: #1f77b4"/>
   </g>
   <g id="patch_103">
    <path d="M 222.553553 273.312 
L 224.166698 273.312 
L 224.166698 36.175158 
L 222.553553 36.175158 
z
" clip-path="url(#p4bebd8eb93)" style="fill: #1f77b4"/>
   </g>
   <g id="patch_104">
    <path d="M 224.166698 273.312 
L 225.779843 273.312 
L 225.779843 39.880421 
L 224.166698 39.880421 
z
" clip-path="url(#p4bebd8eb93)" style="fill: #1f77b4"/>
   </g>
   <g id="patch_105">
    <path d="M 225.779843 273.312 
L 227.392988 273.312 
L 227.392988 59.147789 
L 225.779843 59.147789 
z
" clip-path="url(#p4bebd8eb93)" style="fill: #1f77b4"/>
   </g>
   <g id="patch_106">
    <path d="M 227.392988 273.312 
L 229.006132 273.312 
L 229.006132 68.781474 
L 227.392988 68.781474 
z
" clip-path="url(#p4bebd8eb93)" style="fill: #1f77b4"/>
   </g>
   <g id="patch_107">
    <path d="M 229.006132 273.312 
L 230.619277 273.312 
L 230.619277 44.326737 
L 229.006132 44.326737 
z
" clip-path="url(#p4bebd8eb93)" style="fill: #1f77b4"/>
   </g>
   <g id="patch_108">
    <path d="M 230.619277 273.312 
L 232.232422 273.312 
L 232.232422 53.960421 
L 230.619277 53.960421 
z
" clip-path="url(#p4bebd8eb93)" style="fill: #1f77b4"/>
   </g>
   <g id="patch_109">
    <path d="M 232.232422 273.312 
L 233.845567 273.312 
L 233.845567 41.362526 
L 232.232422 41.362526 
z
" clip-path="url(#p4bebd8eb93)" style="fill: #1f77b4"/>
   </g>
   <g id="patch_110">
    <path d="M 233.845567 273.312 
L 235.458712 273.312 
L 235.458712 25.800421 
L 233.845567 25.800421 
z
" clip-path="url(#p4bebd8eb93)" style="fill: #1f77b4"/>
   </g>
   <g id="patch_111">
    <path d="M 235.458712 273.312 
L 237.071856 273.312 
L 237.071856 40.621474 
L 235.458712 40.621474 
z
" clip-path="url(#p4bebd8eb93)" style="fill: #1f77b4"/>
   </g>
   <g id="patch_112">
    <path d="M 237.071856 273.312 
L 238.685001 273.312 
L 238.685001 19.872 
L 237.071856 19.872 
z
" clip-path="url(#p4bebd8eb93)" style="fill: #1f77b4"/>
   </g>
   <g id="patch_113">
    <path d="M 238.685001 273.312 
L 240.298146 273.312 
L 240.298146 56.924632 
L 238.685001 56.924632 
z
" clip-path="url(#p4bebd8eb93)" style="fill: #1f77b4"/>
   </g>
   <g id="patch_114">
    <path d="M 240.298146 273.312 
L 241.911291 273.312 
L 241.911291 70.263579 
L 240.298146 70.263579 
z
" clip-path="url(#p4bebd8eb93)" style="fill: #1f77b4"/>
   </g>
   <g id="patch_115">
    <path d="M 241.911291 273.312 
L 243.524435 273.312 
L 243.524435 62.853053 
L 241.911291 62.853053 
z
" clip-path="url(#p4bebd8eb93)" style="fill: #1f77b4"/>
   </g>
   <g id="patch_116">
    <path d="M 243.524435 273.312 
L 245.13758 273.312 
L 245.13758 49.514105 
L 243.524435 49.514105 
z
" clip-path="url(#p4bebd8eb93)" style="fill: #1f77b4"/>
   </g>
   <g id="patch_117">
    <path d="M 245.13758 273.312 
L 246.750725 273.312 
L 246.750725 53.960421 
L 245.13758 53.960421 
z
" clip-path="url(#p4bebd8eb93)" style="fill: #1f77b4"/>
   </g>
   <g id="patch_118">
    <path d="M 246.750725 273.312 
L 248.36387 273.312 
L 248.36387 58.406737 
L 246.750725 58.406737 
z
" clip-path="url(#p4bebd8eb93)" style="fill: #1f77b4"/>
   </g>
   <g id="patch_119">
    <path d="M 248.36387 273.312 
L 249.977015 273.312 
L 249.977015 63.594105 
L 248.36387 63.594105 
z
" clip-path="url(#p4bebd8eb93)" style="fill: #1f77b4"/>
   </g>
   <g id="patch_120">
    <path d="M 249.977015 273.312 
L 251.590159 273.312 
L 251.590159 55.442526 
L 249.977015 55.442526 
z
" clip-path="url(#p4bebd8eb93)" style="fill: #1f77b4"/>
   </g>
   <g id="patch_121">
    <path d="M 251.590159 273.312 
L 253.203304 273.312 
L 253.203304 39.880421 
L 251.590159 39.880421 
z
" clip-path="url(#p4bebd8eb93)" style="fill: #1f77b4"/>
   </g>
   <g id="patch_122">
    <path d="M 253.203304 273.312 
L 254.816449 273.312 
L 254.816449 65.076211 
L 253.203304 65.076211 
z
" clip-path="url(#p4bebd8eb93)" style="fill: #1f77b4"/>
   </g>
   <g id="patch_123">
    <path d="M 254.816449 273.312 
L 256.429594 273.312 
L 256.429594 48.773053 
L 254.816449 48.773053 
z
" clip-path="url(#p4bebd8eb93)" style="fill: #1f77b4"/>
   </g>
   <g id="patch_124">
    <path d="M 256.429594 273.312 
L 258.042739 273.312 
L 258.042739 24.318316 
L 256.429594 24.318316 
z
" clip-path="url(#p4bebd8eb93)" style="fill: #1f77b4"/>
   </g>
   <g id="patch_125">
    <path d="M 258.042739 273.312 
L 259.655883 273.312 
L 259.655883 65.076211 
L 258.042739 65.076211 
z
" clip-path="url(#p4bebd8eb93)" style="fill: #1f77b4"/>
   </g>
   <g id="patch_126">
    <path d="M 259.655883 273.312 
L 261.269028 273.312 
L 261.269028 63.594105 
L 259.655883 63.594105 
z
" clip-path="url(#p4bebd8eb93)" style="fill: #1f77b4"/>
   </g>
   <g id="patch_127">
    <path d="M 261.269028 273.312 
L 262.882173 273.312 
L 262.882173 67.299368 
L 261.269028 67.299368 
z
" clip-path="url(#p4bebd8eb93)" style="fill: #1f77b4"/>
   </g>
   <g id="patch_128">
    <path d="M 262.882173 273.312 
L 264.495318 273.312 
L 264.495318 57.665684 
L 262.882173 57.665684 
z
" clip-path="url(#p4bebd8eb93)" style="fill: #1f77b4"/>
   </g>
   <g id="patch_129">
    <path d="M 264.495318 273.312 
L 266.108463 273.312 
L 266.108463 69.522526 
L 264.495318 69.522526 
z
" clip-path="url(#p4bebd8eb93)" style="fill: #1f77b4"/>
   </g>
   <g id="patch_130">
    <path d="M 266.108463 273.312 
L 267.721607 273.312 
L 267.721607 37.657263 
L 266.108463 37.657263 
z
" clip-path="url(#p4bebd8eb93)" style="fill: #1f77b4"/>
   </g>
   <g id="patch_131">
    <path d="M 267.721607 273.312 
L 269.334752 273.312 
L 269.334752 74.709895 
L 267.721607 74.709895 
z
" clip-path="url(#p4bebd8eb93)" style="fill: #1f77b4"/>
   </g>
   <g id="patch_132">
    <path d="M 269.334752 273.312 
L 270.947897 273.312 
L 270.947897 61.370947 
L 269.334752 61.370947 
z
" clip-path="url(#p4bebd8eb93)" style="fill: #1f77b4"/>
   </g>
   <g id="patch_133">
    <path d="M 270.947897 273.312 
L 272.561042 273.312 
L 272.561042 87.307789 
L 270.947897 87.307789 
z
" clip-path="url(#p4bebd8eb93)" style="fill: #1f77b4"/>
   </g>
   <g id="patch_134">
    <path d="M 272.561042 273.312 
L 274.174186 273.312 
L 274.174186 77.674105 
L 272.561042 77.674105 
z
" clip-path="url(#p4bebd8eb93)" style="fill: #1f77b4"/>
   </g>
   <g id="patch_135">
    <path d="M 274.174186 273.312 
L 275.787331 273.312 
L 275.787331 76.192 
L 274.174186 76.192 
z
" clip-path="url(#p4bebd8eb93)" style="fill: #1f77b4"/>
   </g>
   <g id="patch_136">
    <path d="M 275.787331 273.312 
L 277.400476 273.312 
L 277.400476 98.423579 
L 275.787331 98.423579 
z
" clip-path="url(#p4bebd8eb93)" style="fill: #1f77b4"/>
   </g>
   <g id="patch_137">
    <path d="M 277.400476 273.312 
L 279.013621 273.312 
L 279.013621 62.853053 
L 277.400476 62.853053 
z
" clip-path="url(#p4bebd8eb93)" style="fill: #1f77b4"/>
   </g>
   <g id="patch_138">
    <path d="M 279.013621 273.312 
L 280.626766 273.312 
L 280.626766 59.888842 
L 279.013621 59.888842 
z
" clip-path="url(#p4bebd8eb93)" style="fill: #1f77b4"/>
   </g>
   <g id="patch_139">
    <path d="M 280.626766 273.312 
L 282.23991 273.312 
L 282.23991 71.745684 
L 280.626766 71.745684 
z
" clip-path="url(#p4bebd8eb93)" style="fill: #1f77b4"/>
   </g>
   <g id="patch_140">
    <path d="M 282.23991 273.312 
L 283.853055 273.312 
L 283.853055 96.941474 
L 282.23991 96.941474 
z
" clip-path="url(#p4bebd8eb93)" style="fill: #1f77b4"/>
   </g>
   <g id="patch_141">
    <path d="M 283.853055 273.312 
L 285.4662 273.312 
L 285.4662 85.084632 
L 283.853055 85.084632 
z
" clip-path="url(#p4bebd8eb93)" style="fill: #1f77b4"/>
   </g>
   <g id="patch_142">
    <path d="M 285.4662 273.312 
L 287.079345 273.312 
L 287.079345 93.977263 
L 285.4662 93.977263 
z
" clip-path="url(#p4bebd8eb93)" style="fill: #1f77b4"/>
   </g>
   <g id="patch_143">
    <path d="M 287.079345 273.312 
L 288.69249 273.312 
L 288.69249 108.057263 
L 287.079345 108.057263 
z
" clip-path="url(#p4bebd8eb93)" style="fill: #1f77b4"/>
   </g>
   <g id="patch_144">
    <path d="M 288.69249 273.312 
L 290.305634 273.312 
L 290.305634 87.307789 
L 288.69249 87.307789 
z
" clip-path="url(#p4bebd8eb93)" style="fill: #1f77b4"/>
   </g>
   <g id="patch_145">
    <path d="M 290.305634 273.312 
L 291.918779 273.312 
L 291.918779 91.754105 
L 290.305634 91.754105 
z
" clip-path="url(#p4bebd8eb93)" style="fill: #1f77b4"/>
   </g>
   <g id="patch_146">
    <path d="M 291.918779 273.312 
L 293.531924 273.312 
L 293.531924 78.415158 
L 291.918779 78.415158 
z
" clip-path="url(#p4bebd8eb93)" style="fill: #1f77b4"/>
   </g>
   <g id="patch_147">
    <path d="M 293.531924 273.312 
L 295.145069 273.312 
L 295.145069 86.566737 
L 293.531924 86.566737 
z
" clip-path="url(#p4bebd8eb93)" style="fill: #1f77b4"/>
   </g>
   <g id="patch_148">
    <path d="M 295.145069 273.312 
L 296.758213 273.312 
L 296.758213 86.566737 
L 295.145069 86.566737 
z
" clip-path="url(#p4bebd8eb93)" style="fill: #1f77b4"/>
   </g>
   <g id="patch_149">
    <path d="M 296.758213 273.312 
L 298.371358 273.312 
L 298.371358 91.754105 
L 296.758213 91.754105 
z
" clip-path="url(#p4bebd8eb93)" style="fill: #1f77b4"/>
   </g>
   <g id="patch_150">
    <path d="M 298.371358 273.312 
L 299.984503 273.312 
L 299.984503 105.093053 
L 298.371358 105.093053 
z
" clip-path="url(#p4bebd8eb93)" style="fill: #1f77b4"/>
   </g>
   <g id="patch_151">
    <path d="M 299.984503 273.312 
L 301.597648 273.312 
L 301.597648 90.272 
L 299.984503 90.272 
z
" clip-path="url(#p4bebd8eb93)" style="fill: #1f77b4"/>
   </g>
   <g id="patch_152">
    <path d="M 301.597648 273.312 
L 303.210793 273.312 
L 303.210793 113.985684 
L 301.597648 113.985684 
z
" clip-path="url(#p4bebd8eb93)" style="fill: #1f77b4"/>
   </g>
   <g id="patch_153">
    <path d="M 303.210793 273.312 
L 304.823937 273.312 
L 304.823937 103.610947 
L 303.210793 103.610947 
z
" clip-path="url(#p4bebd8eb93)" style="fill: #1f77b4"/>
   </g>
   <g id="patch_154">
    <path d="M 304.823937 273.312 
L 306.437082 273.312 
L 306.437082 119.914105 
L 304.823937 119.914105 
z
" clip-path="url(#p4bebd8eb93)" style="fill: #1f77b4"/>
   </g>
   <g id="patch_155">
    <path d="M 306.437082 273.312 
L 308.050227 273.312 
L 308.050227 102.869895 
L 306.437082 102.869895 
z
" clip-path="url(#p4bebd8eb93)" style="fill: #1f77b4"/>
   </g>
   <g id="patch_156">
    <path d="M 308.050227 273.312 
L 309.663372 273.312 
L 309.663372 122.878316 
L 308.050227 122.878316 
z
" clip-path="url(#p4bebd8eb93)" style="fill: #1f77b4"/>
   </g>
   <g id="patch_157">
    <path d="M 309.663372 273.312 
L 311.276517 273.312 
L 311.276517 108.057263 
L 309.663372 108.057263 
z
" clip-path="url(#p4bebd8eb93)" style="fill: #1f77b4"/>
   </g>
   <g id="patch_158">
    <path d="M 311.276517 273.312 
L 312.889661 273.312 
L 312.889661 129.547789 
L 311.276517 129.547789 
z
" clip-path="url(#p4bebd8eb93)" style="fill: #1f77b4"/>
   </g>
   <g id="patch_159">
    <path d="M 312.889661 273.312 
L 314.502806 273.312 
L 314.502806 139.181474 
L 312.889661 139.181474 
z
" clip-path="url(#p4bebd8eb93)" style="fill: #1f77b4"/>
   </g>
   <g id="patch_160">
    <path d="M 314.502806 273.312 
L 316.115951 273.312 
L 316.115951 114.726737 
L 314.502806 114.726737 
z
" clip-path="url(#p4bebd8eb93)" style="fill: #1f77b4"/>
   </g>
   <g id="patch_161">
    <path d="M 316.115951 273.312 
L 317.729096 273.312 
L 317.729096 134.735158 
L 316.115951 134.735158 
z
" clip-path="url(#p4bebd8eb93)" style="fill: #1f77b4"/>
   </g>
   <g id="patch_162">
    <path d="M 317.729096 273.312 
L 319.34224 273.312 
L 319.34224 142.886737 
L 317.729096 142.886737 
z
" clip-path="url(#p4bebd8eb93)" style="fill: #1f77b4"/>
   </g>
   <g id="patch_163">
    <path d="M 319.34224 273.312 
L 320.955385 273.312 
L 320.955385 124.360421 
L 319.34224 124.360421 
z
" clip-path="url(#p4bebd8eb93)" style="fill: #1f77b4"/>
   </g>
   <g id="patch_164">
    <path d="M 320.955385 273.312 
L 322.56853 273.312 
L 322.56853 145.850947 
L 320.955385 145.850947 
z
" clip-path="url(#p4bebd8eb93)" style="fill: #1f77b4"/>
   </g>
   <g id="patch_165">
    <path d="M 322.56853 273.312 
L 324.181675 273.312 
L 324.181675 129.547789 
L 322.56853 129.547789 
z
" clip-path="url(#p4bebd8eb93)" style="fill: #1f77b4"/>
   </g>
   <g id="patch_166">
    <path d="M 324.181675 273.312 
L 325.79482 273.312 
L 325.79482 159.189895 
L 324.181675 159.189895 
z
" clip-path="url(#p4bebd8eb93)" style="fill: #1f77b4"/>
   </g>
   <g id="patch_167">
    <path d="M 325.79482 273.312 
L 327.407964 273.312 
L 327.407964 152.520421 
L 325.79482 152.520421 
z
" clip-path="url(#p4bebd8eb93)" style="fill: #1f77b4"/>
   </g>
   <g id="patch_168">
    <path d="M 327.407964 273.312 
L 329.021109 273.312 
L 329.021109 161.413053 
L 327.407964 161.413053 
z
" clip-path="url(#p4bebd8eb93)" style="fill: #1f77b4"/>
   </g>
   <g id="patch_169">
    <path d="M 329.021109 273.312 
L 330.634254 273.312 
L 330.634254 156.225684 
L 329.021109 156.225684 
z
" clip-path="url(#p4bebd8eb93)" style="fill: #1f77b4"/>
   </g>
   <g id="patch_170">
    <path d="M 330.634254 273.312 
L 332.247399 273.312 
L 332.247399 161.413053 
L 330.634254 161.413053 
z
" clip-path="url(#p4bebd8eb93)" style="fill: #1f77b4"/>
   </g>
   <g id="patch_171">
    <path d="M 332.247399 273.312 
L 333.860544 273.312 
L 333.860544 151.779368 
L 332.247399 151.779368 
z
" clip-path="url(#p4bebd8eb93)" style="fill: #1f77b4"/>
   </g>
   <g id="patch_172">
    <path d="M 333.860544 273.312 
L 335.473688 273.312 
L 335.473688 173.269895 
L 333.860544 173.269895 
z
" clip-path="url(#p4bebd8eb93)" style="fill: #1f77b4"/>
   </g>
   <g id="patch_173">
    <path d="M 335.473688 273.312 
L 337.086833 273.312 
L 337.086833 181.421474 
L 335.473688 181.421474 
z
" clip-path="url(#p4bebd8eb93)" style="fill: #1f77b4"/>
   </g>
   <g id="patch_174">
    <path d="M 337.086833 273.312 
L 338.699978 273.312 
L 338.699978 169.564632 
L 337.086833 169.564632 
z
" clip-path="url(#p4bebd8eb93)" style="fill: #1f77b4"/>
   </g>
   <g id="patch_175">
    <path d="M 338.699978 273.312 
L 340.313123 273.312 
L 340.313123 162.895158 
L 338.699978 162.895158 
z
" clip-path="url(#p4bebd8eb93)" style="fill: #1f77b4"/>
   </g>
   <g id="patch_176">
    <path d="M 340.313123 273.312 
L 341.926267 273.312 
L 341.926267 186.608842 
L 340.313123 186.608842 
z
" clip-path="url(#p4bebd8eb93)" style="fill: #1f77b4"/>
   </g>
   <g id="patch_177">
    <path d="M 341.926267 273.312 
L 343.539412 273.312 
L 343.539412 192.537263 
L 341.926267 192.537263 
z
" clip-path="url(#p4bebd8eb93)" style="fill: #1f77b4"/>
   </g>
   <g id="patch_178">
    <path d="M 343.539412 273.312 
L 345.152557 273.312 
L 345.152557 180.680421 
L 343.539412 180.680421 
z
" clip-path="url(#p4bebd8eb93)" style="fill: #1f77b4"/>
   </g>
   <g id="patch_179">
    <path d="M 345.152557 273.312 
L 346.765702 273.312 
L 346.765702 181.421474 
L 345.152557 181.421474 
z
" clip-path="url(#p4bebd8eb93)" style="fill: #1f77b4"/>
   </g>
   <g id="patch_180">
    <path d="M 346.765702 273.312 
L 348.378847 273.312 
L 348.378847 186.608842 
L 346.765702 186.608842 
z
" clip-path="url(#p4bebd8eb93)" style="fill: #1f77b4"/>
   </g>
   <g id="patch_181">
    <path d="M 348.378847 273.312 
L 349.991991 273.312 
L 349.991991 208.840421 
L 348.378847 208.840421 
z
" clip-path="url(#p4bebd8eb93)" style="fill: #1f77b4"/>
   </g>
   <g id="patch_182">
    <path d="M 349.991991 273.312 
L 351.605136 273.312 
L 351.605136 213.286737 
L 349.991991 213.286737 
z
" clip-path="url(#p4bebd8eb93)" style="fill: #1f77b4"/>
   </g>
   <g id="patch_183">
    <path d="M 351.605136 273.312 
L 353.218281 273.312 
L 353.218281 182.903579 
L 351.605136 182.903579 
z
" clip-path="url(#p4bebd8eb93)" style="fill: #1f77b4"/>
   </g>
   <g id="patch_184">
    <path d="M 353.218281 273.312 
L 354.831426 273.312 
L 354.831426 205.876211 
L 353.218281 205.876211 
z
" clip-path="url(#p4bebd8eb93)" style="fill: #1f77b4"/>
   </g>
   <g id="patch_185">
    <path d="M 354.831426 273.312 
L 356.444571 273.312 
L 356.444571 197.724632 
L 354.831426 197.724632 
z
" clip-path="url(#p4bebd8eb93)" style="fill: #1f77b4"/>
   </g>
   <g id="patch_186">
    <path d="M 356.444571 273.312 
L 358.057715 273.312 
L 358.057715 205.876211 
L 356.444571 205.876211 
z
" clip-path="url(#p4bebd8eb93)" style="fill: #1f77b4"/>
   </g>
   <g id="patch_187">
    <path d="M 358.057715 273.312 
L 359.67086 273.312 
L 359.67086 205.876211 
L 358.057715 205.876211 
z
" clip-path="url(#p4bebd8eb93)" style="fill: #1f77b4"/>
   </g>
   <g id="patch_188">
    <path d="M 359.67086 273.312 
L 361.284005 273.312 
L 361.284005 222.179368 
L 359.67086 222.179368 
z
" clip-path="url(#p4bebd8eb93)" style="fill: #1f77b4"/>
   </g>
   <g id="patch_189">
    <path d="M 361.284005 273.312 
L 362.89715 273.312 
L 362.89715 228.848842 
L 361.284005 228.848842 
z
" clip-path="url(#p4bebd8eb93)" style="fill: #1f77b4"/>
   </g>
   <g id="patch_190">
    <path d="M 362.89715 273.312 
L 364.510294 273.312 
L 364.510294 213.286737 
L 362.89715 213.286737 
z
" clip-path="url(#p4bebd8eb93)" style="fill: #1f77b4"/>
   </g>
   <g id="patch_191">
    <path d="M 364.510294 273.312 
L 366.123439 273.312 
L 366.123439 237.000421 
L 364.510294 237.000421 
z
" clip-path="url(#p4bebd8eb93)" style="fill: #1f77b4"/>
   </g>
   <g id="patch_192">
    <path d="M 366.123439 273.312 
L 367.736584 273.312 
L 367.736584 234.036211 
L 366.123439 234.036211 
z
" clip-path="url(#p4bebd8eb93)" style="fill: #1f77b4"/>
   </g>
   <g id="patch_193">
    <path d="M 367.736584 273.312 
L 369.349729 273.312 
L 369.349729 232.554105 
L 367.736584 232.554105 
z
" clip-path="url(#p4bebd8eb93)" style="fill: #1f77b4"/>
   </g>
   <g id="patch_194">
    <path d="M 369.349729 273.312 
L 370.962874 273.312 
L 370.962874 241.446737 
L 369.349729 241.446737 
z
" clip-path="url(#p4bebd8eb93)" style="fill: #1f77b4"/>
   </g>
   <g id="patch_195">
    <path d="M 370.962874 273.312 
L 372.576018 273.312 
L 372.576018 244.410947 
L 370.962874 244.410947 
z
" clip-path="url(#p4bebd8eb93)" style="fill: #1f77b4"/>
   </g>
   <g id="patch_196">
    <path d="M 372.576018 273.312 
L 374.189163 273.312 
L 374.189163 241.446737 
L 372.576018 241.446737 
z
" clip-path="url(#p4bebd8eb93)" style="fill: #1f77b4"/>
   </g>
   <g id="patch_197">
    <path d="M 374.189163 273.312 
L 375.802308 273.312 
L 375.802308 251.821474 
L 374.189163 251.821474 
z
" clip-path="url(#p4bebd8eb93)" style="fill: #1f77b4"/>
   </g>
   <g id="patch_198">
    <path d="M 375.802308 273.312 
L 377.415453 273.312 
L 377.415453 251.080421 
L 375.802308 251.080421 
z
" clip-path="url(#p4bebd8eb93)" style="fill: #1f77b4"/>
   </g>
   <g id="patch_199">
    <path d="M 377.415453 273.312 
L 379.028598 273.312 
L 379.028598 254.044632 
L 377.415453 254.044632 
z
" clip-path="url(#p4bebd8eb93)" style="fill: #1f77b4"/>
   </g>
   <g id="patch_200">
    <path d="M 379.028598 273.312 
L 380.641742 273.312 
L 380.641742 261.455158 
L 379.028598 261.455158 
z
" clip-path="url(#p4bebd8eb93)" style="fill: #1f77b4"/>
   </g>
   <g id="patch_201">
    <path d="M 380.641742 273.312 
L 382.254887 273.312 
L 382.254887 265.160421 
L 380.641742 265.160421 
z
" clip-path="url(#p4bebd8eb93)" style="fill: #1f77b4"/>
   </g>
   <g id="patch_202">
    <path d="M 382.254887 273.312 
L 383.868032 273.312 
L 383.868032 270.347789 
L 382.254887 270.347789 
z
" clip-path="url(#p4bebd8eb93)" style="fill: #1f77b4"/>
   </g>
   <g id="matplotlib.axis_1">
    <g id="xtick_1">
     <g id="line2d_1">
      <defs>
       <path id="ma92eff4118" d="M 0 0 
L 0 3.5 
" style="stroke: #000000; stroke-width: 0.8"/>
      </defs>
      <g>
       <use xlink:href="#ma92eff4118" x="60.013977" y="273.312" style="stroke: #000000; stroke-width: 0.8"/>
      </g>
     </g>
     <g id="text_1">
      <!-- 0.0 -->
      <g transform="translate(52.062415 287.910437)scale(0.1 -0.1)">
       <defs>
        <path id="DejaVuSans-30" d="M 2034 4250 
Q 1547 4250 1301 3770 
Q 1056 3291 1056 2328 
Q 1056 1369 1301 889 
Q 1547 409 2034 409 
Q 2525 409 2770 889 
Q 3016 1369 3016 2328 
Q 3016 3291 2770 3770 
Q 2525 4250 2034 4250 
z
M 2034 4750 
Q 2819 4750 3233 4129 
Q 3647 3509 3647 2328 
Q 3647 1150 3233 529 
Q 2819 -91 2034 -91 
Q 1250 -91 836 529 
Q 422 1150 422 2328 
Q 422 3509 836 4129 
Q 1250 4750 2034 4750 
z
" transform="scale(0.015625)"/>
        <path id="DejaVuSans-2e" d="M 684 794 
L 1344 794 
L 1344 0 
L 684 0 
L 684 794 
z
" transform="scale(0.015625)"/>
       </defs>
       <use xlink:href="#DejaVuSans-30"/>
       <use xlink:href="#DejaVuSans-2e" x="63.623047"/>
       <use xlink:href="#DejaVuSans-30" x="95.410156"/>
      </g>
     </g>
    </g>
    <g id="xtick_2">
     <g id="line2d_2">
      <g>
       <use xlink:href="#ma92eff4118" x="101.350278" y="273.312" style="stroke: #000000; stroke-width: 0.8"/>
      </g>
     </g>
     <g id="text_2">
      <!-- 0.2 -->
      <g transform="translate(93.398715 287.910437)scale(0.1 -0.1)">
       <defs>
        <path id="DejaVuSans-32" d="M 1228 531 
L 3431 531 
L 3431 0 
L 469 0 
L 469 531 
Q 828 903 1448 1529 
Q 2069 2156 2228 2338 
Q 2531 2678 2651 2914 
Q 2772 3150 2772 3378 
Q 2772 3750 2511 3984 
Q 2250 4219 1831 4219 
Q 1534 4219 1204 4116 
Q 875 4013 500 3803 
L 500 4441 
Q 881 4594 1212 4672 
Q 1544 4750 1819 4750 
Q 2544 4750 2975 4387 
Q 3406 4025 3406 3419 
Q 3406 3131 3298 2873 
Q 3191 2616 2906 2266 
Q 2828 2175 2409 1742 
Q 1991 1309 1228 531 
z
" transform="scale(0.015625)"/>
       </defs>
       <use xlink:href="#DejaVuSans-30"/>
       <use xlink:href="#DejaVuSans-2e" x="63.623047"/>
       <use xlink:href="#DejaVuSans-32" x="95.410156"/>
      </g>
     </g>
    </g>
    <g id="xtick_3">
     <g id="line2d_3">
      <g>
       <use xlink:href="#ma92eff4118" x="142.686578" y="273.312" style="stroke: #000000; stroke-width: 0.8"/>
      </g>
     </g>
     <g id="text_3">
      <!-- 0.4 -->
      <g transform="translate(134.735016 287.910437)scale(0.1 -0.1)">
       <defs>
        <path id="DejaVuSans-34" d="M 2419 4116 
L 825 1625 
L 2419 1625 
L 2419 4116 
z
M 2253 4666 
L 3047 4666 
L 3047 1625 
L 3713 1625 
L 3713 1100 
L 3047 1100 
L 3047 0 
L 2419 0 
L 2419 1100 
L 313 1100 
L 313 1709 
L 2253 4666 
z
" transform="scale(0.015625)"/>
       </defs>
       <use xlink:href="#DejaVuSans-30"/>
       <use xlink:href="#DejaVuSans-2e" x="63.623047"/>
       <use xlink:href="#DejaVuSans-34" x="95.410156"/>
      </g>
     </g>
    </g>
    <g id="xtick_4">
     <g id="line2d_4">
      <g>
       <use xlink:href="#ma92eff4118" x="184.022879" y="273.312" style="stroke: #000000; stroke-width: 0.8"/>
      </g>
     </g>
     <g id="text_4">
      <!-- 0.6 -->
      <g transform="translate(176.071316 287.910437)scale(0.1 -0.1)">
       <defs>
        <path id="DejaVuSans-36" d="M 2113 2584 
Q 1688 2584 1439 2293 
Q 1191 2003 1191 1497 
Q 1191 994 1439 701 
Q 1688 409 2113 409 
Q 2538 409 2786 701 
Q 3034 994 3034 1497 
Q 3034 2003 2786 2293 
Q 2538 2584 2113 2584 
z
M 3366 4563 
L 3366 3988 
Q 3128 4100 2886 4159 
Q 2644 4219 2406 4219 
Q 1781 4219 1451 3797 
Q 1122 3375 1075 2522 
Q 1259 2794 1537 2939 
Q 1816 3084 2150 3084 
Q 2853 3084 3261 2657 
Q 3669 2231 3669 1497 
Q 3669 778 3244 343 
Q 2819 -91 2113 -91 
Q 1303 -91 875 529 
Q 447 1150 447 2328 
Q 447 3434 972 4092 
Q 1497 4750 2381 4750 
Q 2619 4750 2861 4703 
Q 3103 4656 3366 4563 
z
" transform="scale(0.015625)"/>
       </defs>
       <use xlink:href="#DejaVuSans-30"/>
       <use xlink:href="#DejaVuSans-2e" x="63.623047"/>
       <use xlink:href="#DejaVuSans-36" x="95.410156"/>
      </g>
     </g>
    </g>
    <g id="xtick_5">
     <g id="line2d_5">
      <g>
       <use xlink:href="#ma92eff4118" x="225.35918" y="273.312" style="stroke: #000000; stroke-width: 0.8"/>
      </g>
     </g>
     <g id="text_5">
      <!-- 0.8 -->
      <g transform="translate(217.407617 287.910437)scale(0.1 -0.1)">
       <defs>
        <path id="DejaVuSans-38" d="M 2034 2216 
Q 1584 2216 1326 1975 
Q 1069 1734 1069 1313 
Q 1069 891 1326 650 
Q 1584 409 2034 409 
Q 2484 409 2743 651 
Q 3003 894 3003 1313 
Q 3003 1734 2745 1975 
Q 2488 2216 2034 2216 
z
M 1403 2484 
Q 997 2584 770 2862 
Q 544 3141 544 3541 
Q 544 4100 942 4425 
Q 1341 4750 2034 4750 
Q 2731 4750 3128 4425 
Q 3525 4100 3525 3541 
Q 3525 3141 3298 2862 
Q 3072 2584 2669 2484 
Q 3125 2378 3379 2068 
Q 3634 1759 3634 1313 
Q 3634 634 3220 271 
Q 2806 -91 2034 -91 
Q 1263 -91 848 271 
Q 434 634 434 1313 
Q 434 1759 690 2068 
Q 947 2378 1403 2484 
z
M 1172 3481 
Q 1172 3119 1398 2916 
Q 1625 2713 2034 2713 
Q 2441 2713 2670 2916 
Q 2900 3119 2900 3481 
Q 2900 3844 2670 4047 
Q 2441 4250 2034 4250 
Q 1625 4250 1398 4047 
Q 1172 3844 1172 3481 
z
" transform="scale(0.015625)"/>
       </defs>
       <use xlink:href="#DejaVuSans-30"/>
       <use xlink:href="#DejaVuSans-2e" x="63.623047"/>
       <use xlink:href="#DejaVuSans-38" x="95.410156"/>
      </g>
     </g>
    </g>
    <g id="xtick_6">
     <g id="line2d_6">
      <g>
       <use xlink:href="#ma92eff4118" x="266.69548" y="273.312" style="stroke: #000000; stroke-width: 0.8"/>
      </g>
     </g>
     <g id="text_6">
      <!-- 1.0 -->
      <g transform="translate(258.743918 287.910437)scale(0.1 -0.1)">
       <defs>
        <path id="DejaVuSans-31" d="M 794 531 
L 1825 531 
L 1825 4091 
L 703 3866 
L 703 4441 
L 1819 4666 
L 2450 4666 
L 2450 531 
L 3481 531 
L 3481 0 
L 794 0 
L 794 531 
z
" transform="scale(0.015625)"/>
       </defs>
       <use xlink:href="#DejaVuSans-31"/>
       <use xlink:href="#DejaVuSans-2e" x="63.623047"/>
       <use xlink:href="#DejaVuSans-30" x="95.410156"/>
      </g>
     </g>
    </g>
    <g id="xtick_7">
     <g id="line2d_7">
      <g>
       <use xlink:href="#ma92eff4118" x="308.031781" y="273.312" style="stroke: #000000; stroke-width: 0.8"/>
      </g>
     </g>
     <g id="text_7">
      <!-- 1.2 -->
      <g transform="translate(300.080218 287.910437)scale(0.1 -0.1)">
       <use xlink:href="#DejaVuSans-31"/>
       <use xlink:href="#DejaVuSans-2e" x="63.623047"/>
       <use xlink:href="#DejaVuSans-32" x="95.410156"/>
      </g>
     </g>
    </g>
    <g id="xtick_8">
     <g id="line2d_8">
      <g>
       <use xlink:href="#ma92eff4118" x="349.368081" y="273.312" style="stroke: #000000; stroke-width: 0.8"/>
      </g>
     </g>
     <g id="text_8">
      <!-- 1.4 -->
      <g transform="translate(341.416519 287.910437)scale(0.1 -0.1)">
       <use xlink:href="#DejaVuSans-31"/>
       <use xlink:href="#DejaVuSans-2e" x="63.623047"/>
       <use xlink:href="#DejaVuSans-34" x="95.410156"/>
      </g>
     </g>
    </g>
    <g id="xtick_9">
     <g id="line2d_9">
      <g>
       <use xlink:href="#ma92eff4118" x="390.704382" y="273.312" style="stroke: #000000; stroke-width: 0.8"/>
      </g>
     </g>
     <g id="text_9">
      <!-- 1.6 -->
      <g transform="translate(382.752819 287.910437)scale(0.1 -0.1)">
       <use xlink:href="#DejaVuSans-31"/>
       <use xlink:href="#DejaVuSans-2e" x="63.623047"/>
       <use xlink:href="#DejaVuSans-36" x="95.410156"/>
      </g>
     </g>
    </g>
    <g id="text_10">
     <!-- Angle with normal (rad) -->
     <g transform="translate(163.023281 301.588562)scale(0.1 -0.1)">
      <defs>
       <path id="DejaVuSans-41" d="M 2188 4044 
L 1331 1722 
L 3047 1722 
L 2188 4044 
z
M 1831 4666 
L 2547 4666 
L 4325 0 
L 3669 0 
L 3244 1197 
L 1141 1197 
L 716 0 
L 50 0 
L 1831 4666 
z
" transform="scale(0.015625)"/>
       <path id="DejaVuSans-6e" d="M 3513 2113 
L 3513 0 
L 2938 0 
L 2938 2094 
Q 2938 2591 2744 2837 
Q 2550 3084 2163 3084 
Q 1697 3084 1428 2787 
Q 1159 2491 1159 1978 
L 1159 0 
L 581 0 
L 581 3500 
L 1159 3500 
L 1159 2956 
Q 1366 3272 1645 3428 
Q 1925 3584 2291 3584 
Q 2894 3584 3203 3211 
Q 3513 2838 3513 2113 
z
" transform="scale(0.015625)"/>
       <path id="DejaVuSans-67" d="M 2906 1791 
Q 2906 2416 2648 2759 
Q 2391 3103 1925 3103 
Q 1463 3103 1205 2759 
Q 947 2416 947 1791 
Q 947 1169 1205 825 
Q 1463 481 1925 481 
Q 2391 481 2648 825 
Q 2906 1169 2906 1791 
z
M 3481 434 
Q 3481 -459 3084 -895 
Q 2688 -1331 1869 -1331 
Q 1566 -1331 1297 -1286 
Q 1028 -1241 775 -1147 
L 775 -588 
Q 1028 -725 1275 -790 
Q 1522 -856 1778 -856 
Q 2344 -856 2625 -561 
Q 2906 -266 2906 331 
L 2906 616 
Q 2728 306 2450 153 
Q 2172 0 1784 0 
Q 1141 0 747 490 
Q 353 981 353 1791 
Q 353 2603 747 3093 
Q 1141 3584 1784 3584 
Q 2172 3584 2450 3431 
Q 2728 3278 2906 2969 
L 2906 3500 
L 3481 3500 
L 3481 434 
z
" transform="scale(0.015625)"/>
       <path id="DejaVuSans-6c" d="M 603 4863 
L 1178 4863 
L 1178 0 
L 603 0 
L 603 4863 
z
" transform="scale(0.015625)"/>
       <path id="DejaVuSans-65" d="M 3597 1894 
L 3597 1613 
L 953 1613 
Q 991 1019 1311 708 
Q 1631 397 2203 397 
Q 2534 397 2845 478 
Q 3156 559 3463 722 
L 3463 178 
Q 3153 47 2828 -22 
Q 2503 -91 2169 -91 
Q 1331 -91 842 396 
Q 353 884 353 1716 
Q 353 2575 817 3079 
Q 1281 3584 2069 3584 
Q 2775 3584 3186 3129 
Q 3597 2675 3597 1894 
z
M 3022 2063 
Q 3016 2534 2758 2815 
Q 2500 3097 2075 3097 
Q 1594 3097 1305 2825 
Q 1016 2553 972 2059 
L 3022 2063 
z
" transform="scale(0.015625)"/>
       <path id="DejaVuSans-20" transform="scale(0.015625)"/>
       <path id="DejaVuSans-77" d="M 269 3500 
L 844 3500 
L 1563 769 
L 2278 3500 
L 2956 3500 
L 3675 769 
L 4391 3500 
L 4966 3500 
L 4050 0 
L 3372 0 
L 2619 2869 
L 1863 0 
L 1184 0 
L 269 3500 
z
" transform="scale(0.015625)"/>
       <path id="DejaVuSans-69" d="M 603 3500 
L 1178 3500 
L 1178 0 
L 603 0 
L 603 3500 
z
M 603 4863 
L 1178 4863 
L 1178 4134 
L 603 4134 
L 603 4863 
z
" transform="scale(0.015625)"/>
       <path id="DejaVuSans-74" d="M 1172 4494 
L 1172 3500 
L 2356 3500 
L 2356 3053 
L 1172 3053 
L 1172 1153 
Q 1172 725 1289 603 
Q 1406 481 1766 481 
L 2356 481 
L 2356 0 
L 1766 0 
Q 1100 0 847 248 
Q 594 497 594 1153 
L 594 3053 
L 172 3053 
L 172 3500 
L 594 3500 
L 594 4494 
L 1172 4494 
z
" transform="scale(0.015625)"/>
       <path id="DejaVuSans-68" d="M 3513 2113 
L 3513 0 
L 2938 0 
L 2938 2094 
Q 2938 2591 2744 2837 
Q 2550 3084 2163 3084 
Q 1697 3084 1428 2787 
Q 1159 2491 1159 1978 
L 1159 0 
L 581 0 
L 581 4863 
L 1159 4863 
L 1159 2956 
Q 1366 3272 1645 3428 
Q 1925 3584 2291 3584 
Q 2894 3584 3203 3211 
Q 3513 2838 3513 2113 
z
" transform="scale(0.015625)"/>
       <path id="DejaVuSans-6f" d="M 1959 3097 
Q 1497 3097 1228 2736 
Q 959 2375 959 1747 
Q 959 1119 1226 758 
Q 1494 397 1959 397 
Q 2419 397 2687 759 
Q 2956 1122 2956 1747 
Q 2956 2369 2687 2733 
Q 2419 3097 1959 3097 
z
M 1959 3584 
Q 2709 3584 3137 3096 
Q 3566 2609 3566 1747 
Q 3566 888 3137 398 
Q 2709 -91 1959 -91 
Q 1206 -91 779 398 
Q 353 888 353 1747 
Q 353 2609 779 3096 
Q 1206 3584 1959 3584 
z
" transform="scale(0.015625)"/>
       <path id="DejaVuSans-72" d="M 2631 2963 
Q 2534 3019 2420 3045 
Q 2306 3072 2169 3072 
Q 1681 3072 1420 2755 
Q 1159 2438 1159 1844 
L 1159 0 
L 581 0 
L 581 3500 
L 1159 3500 
L 1159 2956 
Q 1341 3275 1631 3429 
Q 1922 3584 2338 3584 
Q 2397 3584 2469 3576 
Q 2541 3569 2628 3553 
L 2631 2963 
z
" transform="scale(0.015625)"/>
       <path id="DejaVuSans-6d" d="M 3328 2828 
Q 3544 3216 3844 3400 
Q 4144 3584 4550 3584 
Q 5097 3584 5394 3201 
Q 5691 2819 5691 2113 
L 5691 0 
L 5113 0 
L 5113 2094 
Q 5113 2597 4934 2840 
Q 4756 3084 4391 3084 
Q 3944 3084 3684 2787 
Q 3425 2491 3425 1978 
L 3425 0 
L 2847 0 
L 2847 2094 
Q 2847 2600 2669 2842 
Q 2491 3084 2119 3084 
Q 1678 3084 1418 2786 
Q 1159 2488 1159 1978 
L 1159 0 
L 581 0 
L 581 3500 
L 1159 3500 
L 1159 2956 
Q 1356 3278 1631 3431 
Q 1906 3584 2284 3584 
Q 2666 3584 2933 3390 
Q 3200 3197 3328 2828 
z
" transform="scale(0.015625)"/>
       <path id="DejaVuSans-61" d="M 2194 1759 
Q 1497 1759 1228 1600 
Q 959 1441 959 1056 
Q 959 750 1161 570 
Q 1363 391 1709 391 
Q 2188 391 2477 730 
Q 2766 1069 2766 1631 
L 2766 1759 
L 2194 1759 
z
M 3341 1997 
L 3341 0 
L 2766 0 
L 2766 531 
Q 2569 213 2275 61 
Q 1981 -91 1556 -91 
Q 1019 -91 701 211 
Q 384 513 384 1019 
Q 384 1609 779 1909 
Q 1175 2209 1959 2209 
L 2766 2209 
L 2766 2266 
Q 2766 2663 2505 2880 
Q 2244 3097 1772 3097 
Q 1472 3097 1187 3025 
Q 903 2953 641 2809 
L 641 3341 
Q 956 3463 1253 3523 
Q 1550 3584 1831 3584 
Q 2591 3584 2966 3190 
Q 3341 2797 3341 1997 
z
" transform="scale(0.015625)"/>
       <path id="DejaVuSans-28" d="M 1984 4856 
Q 1566 4138 1362 3434 
Q 1159 2731 1159 2009 
Q 1159 1288 1364 580 
Q 1569 -128 1984 -844 
L 1484 -844 
Q 1016 -109 783 600 
Q 550 1309 550 2009 
Q 550 2706 781 3412 
Q 1013 4119 1484 4856 
L 1984 4856 
z
" transform="scale(0.015625)"/>
       <path id="DejaVuSans-64" d="M 2906 2969 
L 2906 4863 
L 3481 4863 
L 3481 0 
L 2906 0 
L 2906 525 
Q 2725 213 2448 61 
Q 2172 -91 1784 -91 
Q 1150 -91 751 415 
Q 353 922 353 1747 
Q 353 2572 751 3078 
Q 1150 3584 1784 3584 
Q 2172 3584 2448 3432 
Q 2725 3281 2906 2969 
z
M 947 1747 
Q 947 1113 1208 752 
Q 1469 391 1925 391 
Q 2381 391 2643 752 
Q 2906 1113 2906 1747 
Q 2906 2381 2643 2742 
Q 2381 3103 1925 3103 
Q 1469 3103 1208 2742 
Q 947 2381 947 1747 
z
" transform="scale(0.015625)"/>
       <path id="DejaVuSans-29" d="M 513 4856 
L 1013 4856 
Q 1481 4119 1714 3412 
Q 1947 2706 1947 2009 
Q 1947 1309 1714 600 
Q 1481 -109 1013 -844 
L 513 -844 
Q 928 -128 1133 580 
Q 1338 1288 1338 2009 
Q 1338 2731 1133 3434 
Q 928 4138 513 4856 
z
" transform="scale(0.015625)"/>
      </defs>
      <use xlink:href="#DejaVuSans-41"/>
      <use xlink:href="#DejaVuSans-6e" x="68.408203"/>
      <use xlink:href="#DejaVuSans-67" x="131.787109"/>
      <use xlink:href="#DejaVuSans-6c" x="195.263672"/>
      <use xlink:href="#DejaVuSans-65" x="223.046875"/>
      <use xlink:href="#DejaVuSans-20" x="284.570312"/>
      <use xlink:href="#DejaVuSans-77" x="316.357422"/>
      <use xlink:href="#DejaVuSans-69" x="398.144531"/>
      <use xlink:href="#DejaVuSans-74" x="425.927734"/>
      <use xlink:href="#DejaVuSans-68" x="465.136719"/>
      <use xlink:href="#DejaVuSans-20" x="528.515625"/>
      <use xlink:href="#DejaVuSans-6e" x="560.302734"/>
      <use xlink:href="#DejaVuSans-6f" x="623.681641"/>
      <use xlink:href="#DejaVuSans-72" x="684.863281"/>
      <use xlink:href="#DejaVuSans-6d" x="724.226562"/>
      <use xlink:href="#DejaVuSans-61" x="821.638672"/>
      <use xlink:href="#DejaVuSans-6c" x="882.917969"/>
      <use xlink:href="#DejaVuSans-20" x="910.701172"/>
      <use xlink:href="#DejaVuSans-28" x="942.488281"/>
      <use xlink:href="#DejaVuSans-72" x="981.501953"/>
      <use xlink:href="#DejaVuSans-61" x="1022.615234"/>
      <use xlink:href="#DejaVuSans-64" x="1083.894531"/>
      <use xlink:href="#DejaVuSans-29" x="1147.371094"/>
     </g>
    </g>
   </g>
   <g id="matplotlib.axis_2">
    <g id="ytick_1">
     <g id="line2d_10">
      <defs>
       <path id="m2b15ab1801" d="M 0 0 
L -3.5 0 
" style="stroke: #000000; stroke-width: 0.8"/>
      </defs>
      <g>
       <use xlink:href="#m2b15ab1801" x="43.78125" y="273.312" style="stroke: #000000; stroke-width: 0.8"/>
      </g>
     </g>
     <g id="text_11">
      <!-- 0.0 -->
      <g transform="translate(20.878125 277.111219)scale(0.1 -0.1)">
       <use xlink:href="#DejaVuSans-30"/>
       <use xlink:href="#DejaVuSans-2e" x="63.623047"/>
       <use xlink:href="#DejaVuSans-30" x="95.410156"/>
      </g>
     </g>
    </g>
    <g id="ytick_2">
     <g id="line2d_11">
      <g>
       <use xlink:href="#m2b15ab1801" x="43.78125" y="227.040798" style="stroke: #000000; stroke-width: 0.8"/>
      </g>
     </g>
     <g id="text_12">
      <!-- 0.2 -->
      <g transform="translate(20.878125 230.840017)scale(0.1 -0.1)">
       <use xlink:href="#DejaVuSans-30"/>
       <use xlink:href="#DejaVuSans-2e" x="63.623047"/>
       <use xlink:href="#DejaVuSans-32" x="95.410156"/>
      </g>
     </g>
    </g>
    <g id="ytick_3">
     <g id="line2d_12">
      <g>
       <use xlink:href="#m2b15ab1801" x="43.78125" y="180.769597" style="stroke: #000000; stroke-width: 0.8"/>
      </g>
     </g>
     <g id="text_13">
      <!-- 0.4 -->
      <g transform="translate(20.878125 184.568815)scale(0.1 -0.1)">
       <use xlink:href="#DejaVuSans-30"/>
       <use xlink:href="#DejaVuSans-2e" x="63.623047"/>
       <use xlink:href="#DejaVuSans-34" x="95.410156"/>
      </g>
     </g>
    </g>
    <g id="ytick_4">
     <g id="line2d_13">
      <g>
       <use xlink:href="#m2b15ab1801" x="43.78125" y="134.498395" style="stroke: #000000; stroke-width: 0.8"/>
      </g>
     </g>
     <g id="text_14">
      <!-- 0.6 -->
      <g transform="translate(20.878125 138.297614)scale(0.1 -0.1)">
       <use xlink:href="#DejaVuSans-30"/>
       <use xlink:href="#DejaVuSans-2e" x="63.623047"/>
       <use xlink:href="#DejaVuSans-36" x="95.410156"/>
      </g>
     </g>
    </g>
    <g id="ytick_5">
     <g id="line2d_14">
      <g>
       <use xlink:href="#m2b15ab1801" x="43.78125" y="88.227193" style="stroke: #000000; stroke-width: 0.8"/>
      </g>
     </g>
     <g id="text_15">
      <!-- 0.8 -->
      <g transform="translate(20.878125 92.026412)scale(0.1 -0.1)">
       <use xlink:href="#DejaVuSans-30"/>
       <use xlink:href="#DejaVuSans-2e" x="63.623047"/>
       <use xlink:href="#DejaVuSans-38" x="95.410156"/>
      </g>
     </g>
    </g>
    <g id="ytick_6">
     <g id="line2d_15">
      <g>
       <use xlink:href="#m2b15ab1801" x="43.78125" y="41.955991" style="stroke: #000000; stroke-width: 0.8"/>
      </g>
     </g>
     <g id="text_16">
      <!-- 1.0 -->
      <g transform="translate(20.878125 45.75521)scale(0.1 -0.1)">
       <use xlink:href="#DejaVuSans-31"/>
       <use xlink:href="#DejaVuSans-2e" x="63.623047"/>
       <use xlink:href="#DejaVuSans-30" x="95.410156"/>
      </g>
     </g>
    </g>
    <g id="text_17">
     <!-- Probability density -->
     <g transform="translate(14.798438 186.606781)rotate(-90)scale(0.1 -0.1)">
      <defs>
       <path id="DejaVuSans-50" d="M 1259 4147 
L 1259 2394 
L 2053 2394 
Q 2494 2394 2734 2622 
Q 2975 2850 2975 3272 
Q 2975 3691 2734 3919 
Q 2494 4147 2053 4147 
L 1259 4147 
z
M 628 4666 
L 2053 4666 
Q 2838 4666 3239 4311 
Q 3641 3956 3641 3272 
Q 3641 2581 3239 2228 
Q 2838 1875 2053 1875 
L 1259 1875 
L 1259 0 
L 628 0 
L 628 4666 
z
" transform="scale(0.015625)"/>
       <path id="DejaVuSans-62" d="M 3116 1747 
Q 3116 2381 2855 2742 
Q 2594 3103 2138 3103 
Q 1681 3103 1420 2742 
Q 1159 2381 1159 1747 
Q 1159 1113 1420 752 
Q 1681 391 2138 391 
Q 2594 391 2855 752 
Q 3116 1113 3116 1747 
z
M 1159 2969 
Q 1341 3281 1617 3432 
Q 1894 3584 2278 3584 
Q 2916 3584 3314 3078 
Q 3713 2572 3713 1747 
Q 3713 922 3314 415 
Q 2916 -91 2278 -91 
Q 1894 -91 1617 61 
Q 1341 213 1159 525 
L 1159 0 
L 581 0 
L 581 4863 
L 1159 4863 
L 1159 2969 
z
" transform="scale(0.015625)"/>
       <path id="DejaVuSans-79" d="M 2059 -325 
Q 1816 -950 1584 -1140 
Q 1353 -1331 966 -1331 
L 506 -1331 
L 506 -850 
L 844 -850 
Q 1081 -850 1212 -737 
Q 1344 -625 1503 -206 
L 1606 56 
L 191 3500 
L 800 3500 
L 1894 763 
L 2988 3500 
L 3597 3500 
L 2059 -325 
z
" transform="scale(0.015625)"/>
       <path id="DejaVuSans-73" d="M 2834 3397 
L 2834 2853 
Q 2591 2978 2328 3040 
Q 2066 3103 1784 3103 
Q 1356 3103 1142 2972 
Q 928 2841 928 2578 
Q 928 2378 1081 2264 
Q 1234 2150 1697 2047 
L 1894 2003 
Q 2506 1872 2764 1633 
Q 3022 1394 3022 966 
Q 3022 478 2636 193 
Q 2250 -91 1575 -91 
Q 1294 -91 989 -36 
Q 684 19 347 128 
L 347 722 
Q 666 556 975 473 
Q 1284 391 1588 391 
Q 1994 391 2212 530 
Q 2431 669 2431 922 
Q 2431 1156 2273 1281 
Q 2116 1406 1581 1522 
L 1381 1569 
Q 847 1681 609 1914 
Q 372 2147 372 2553 
Q 372 3047 722 3315 
Q 1072 3584 1716 3584 
Q 2034 3584 2315 3537 
Q 2597 3491 2834 3397 
z
" transform="scale(0.015625)"/>
      </defs>
      <use xlink:href="#DejaVuSans-50"/>
      <use xlink:href="#DejaVuSans-72" x="58.552734"/>
      <use xlink:href="#DejaVuSans-6f" x="97.416016"/>
      <use xlink:href="#DejaVuSans-62" x="158.597656"/>
      <use xlink:href="#DejaVuSans-61" x="222.074219"/>
      <use xlink:href="#DejaVuSans-62" x="283.353516"/>
      <use xlink:href="#DejaVuSans-69" x="346.830078"/>
      <use xlink:href="#DejaVuSans-6c" x="374.613281"/>
      <use xlink:href="#DejaVuSans-69" x="402.396484"/>
      <use xlink:href="#DejaVuSans-74" x="430.179688"/>
      <use xlink:href="#DejaVuSans-79" x="469.388672"/>
      <use xlink:href="#DejaVuSans-20" x="528.568359"/>
      <use xlink:href="#DejaVuSans-64" x="560.355469"/>
      <use xlink:href="#DejaVuSans-65" x="623.832031"/>
      <use xlink:href="#DejaVuSans-6e" x="685.355469"/>
      <use xlink:href="#DejaVuSans-73" x="748.734375"/>
      <use xlink:href="#DejaVuSans-69" x="800.833984"/>
      <use xlink:href="#DejaVuSans-74" x="828.617188"/>
      <use xlink:href="#DejaVuSans-79" x="867.826172"/>
     </g>
    </g>
   </g>
   <g id="line2d_16">
    <path d="M 60.013977 273.312 
L 79.837728 229.202902 
L 90.237073 206.609936 
L 99.01152 188.063003 
L 106.811029 172.088423 
L 113.960578 157.949179 
L 120.460169 145.572563 
L 126.63478 134.28193 
L 132.484411 124.042622 
L 138.009063 114.810672 
L 143.208736 106.535037 
L 148.408408 98.68154 
L 153.283101 91.719965 
L 157.832814 85.586684 
L 162.382528 79.817215 
L 166.607261 74.795396 
L 170.831995 70.105313 
L 175.056729 65.754803 
L 178.956483 62.04664 
L 182.856238 58.639298 
L 186.755992 55.537629 
L 190.330767 52.966737 
L 193.905542 50.659487 
L 197.480316 48.618639 
L 201.055091 46.846636 
L 204.304886 45.470809 
L 207.554682 44.320284 
L 210.804477 43.396199 
L 214.054272 42.699468 
L 217.304067 42.230779 
L 220.553863 41.990596 
L 223.803658 41.979157 
L 227.053453 42.196472 
L 230.303248 42.642327 
L 233.553044 43.316282 
L 236.802839 44.217669 
L 240.052634 45.345597 
L 243.302429 46.698952 
L 246.552225 48.276393 
L 250.126999 50.268532 
L 253.701774 52.527542 
L 257.276549 55.050719 
L 260.851324 57.835044 
L 264.751078 61.166406 
L 268.650832 64.799842 
L 272.550587 68.730178 
L 276.77532 73.316586 
L 281.000054 78.237201 
L 285.549768 83.900638 
L 290.099481 89.931155 
L 294.974174 96.786478 
L 299.848867 104.034517 
L 305.048539 112.180434 
L 310.248212 120.734199 
L 315.772863 130.24522 
L 321.622495 140.76068 
L 327.797106 152.320276 
L 334.296696 164.953976 
L 341.446246 179.343983 
L 349.245755 195.552495 
L 358.020202 214.311573 
L 368.419546 237.084017 
L 383.693584 271.129371 
L 384.668523 273.312 
L 384.668523 273.312 
" clip-path="url(#p4bebd8eb93)" style="fill: none; stroke: #ff7f0e; stroke-width: 1.5; stroke-linecap: square"/>
   </g>
   <g id="patch_203">
    <path d="M 43.78125 273.312 
L 43.78125 7.2 
" style="fill: none; stroke: #000000; stroke-width: 0.8; stroke-linejoin: miter; stroke-linecap: square"/>
   </g>
   <g id="patch_204">
    <path d="M 400.90125 273.312 
L 400.90125 7.2 
" style="fill: none; stroke: #000000; stroke-width: 0.8; stroke-linejoin: miter; stroke-linecap: square"/>
   </g>
   <g id="patch_205">
    <path d="M 43.78125 273.312 
L 400.90125 273.312 
" style="fill: none; stroke: #000000; stroke-width: 0.8; stroke-linejoin: miter; stroke-linecap: square"/>
   </g>
   <g id="patch_206">
    <path d="M 43.78125 7.2 
L 400.90125 7.2 
" style="fill: none; stroke: #000000; stroke-width: 0.8; stroke-linejoin: miter; stroke-linecap: square"/>
   </g>
  </g>
 </g>
 <defs>
  <clipPath id="p4bebd8eb93">
   <rect x="43.78125" y="7.2" width="357.12" height="266.112"/>
  </clipPath>
 </defs>
</svg>
