<?xml version="1.0" encoding="utf-8" standalone="no"?>
<!DOCTYPE svg PUBLIC "-//W3C//DTD SVG 1.1//EN"
  "http://www.w3.org/Graphics/SVG/1.1/DTD/svg11.dtd">
<svg xmlns:xlink="http://www.w3.org/1999/xlink" width="408.10125pt" height="310.86825pt" viewBox="0 0 408.10125 310.86825" xmlns="http://www.w3.org/2000/svg" version="1.1">
 <metadata>
  <rdf:RDF xmlns:dc="http://purl.org/dc/elements/1.1/" xmlns:cc="http://creativecommons.org/ns#" xmlns:rdf="http://www.w3.org/1999/02/22-rdf-syntax-ns#">
   <cc:Work>
    <dc:type rdf:resource="http://purl.org/dc/dcmitype/StillImage"/>
    <dc:date>2022-05-05T13:32:50.651498</dc:date>
    <dc:format>image/svg+xml</dc:format>
    <dc:creator>
     <cc:Agent>
      <dc:title>Matplotlib v3.5.2, https://matplotlib.org/</dc:title>
     </cc:Agent>
    </dc:creator>
   </cc:Work>
  </rdf:RDF>
 </metadata>
 <defs>
  <style type="text/css">*{stroke-linejoin: round; stroke-linecap: butt}</style>
 </defs>
 <g id="figure_1">
  <g id="patch_1">
   <path d="M 0 310.86825 
L 408.10125 310.86825 
L 408.10125 0 
L 0 0 
z
" style="fill: #ffffff"/>
  </g>
  <g id="axes_1">
   <g id="patch_2">
    <path d="M 43.78125 273.312 
L 400.90125 273.312 
L 400.90125 7.2 
L 43.78125 7.2 
z
" style="fill: #ffffff"/>
   </g>
   <g id="patch_3">
    <path d="M 61.736463 273.312 
L 63.347007 273.312 
L 63.347007 265.944558 
L 61.736463 265.944558 
z
" clip-path="url(#p074c5cafbb)" style="fill: #1f77b4"/>
   </g>
   <g id="patch_4">
    <path d="M 63.347007 273.312 
L 64.957551 273.312 
L 64.957551 263.734326 
L 63.347007 263.734326 
z
" clip-path="url(#p074c5cafbb)" style="fill: #1f77b4"/>
   </g>
   <g id="patch_5">
    <path d="M 64.957551 273.312 
L 66.568095 273.312 
L 66.568095 260.050605 
L 64.957551 260.050605 
z
" clip-path="url(#p074c5cafbb)" style="fill: #1f77b4"/>
   </g>
   <g id="patch_6">
    <path d="M 66.568095 273.312 
L 68.178639 273.312 
L 68.178639 259.31386 
L 66.568095 259.31386 
z
" clip-path="url(#p074c5cafbb)" style="fill: #1f77b4"/>
   </g>
   <g id="patch_7">
    <path d="M 68.178639 273.312 
L 69.789182 273.312 
L 69.789182 254.893395 
L 68.178639 254.893395 
z
" clip-path="url(#p074c5cafbb)" style="fill: #1f77b4"/>
   </g>
   <g id="patch_8">
    <path d="M 69.789182 273.312 
L 71.399726 273.312 
L 71.399726 251.209674 
L 69.789182 251.209674 
z
" clip-path="url(#p074c5cafbb)" style="fill: #1f77b4"/>
   </g>
   <g id="patch_9">
    <path d="M 71.399726 273.312 
L 73.01027 273.312 
L 73.01027 248.262698 
L 71.399726 248.262698 
z
" clip-path="url(#p074c5cafbb)" style="fill: #1f77b4"/>
   </g>
   <g id="patch_10">
    <path d="M 73.01027 273.312 
L 74.620814 273.312 
L 74.620814 240.895256 
L 73.01027 240.895256 
z
" clip-path="url(#p074c5cafbb)" style="fill: #1f77b4"/>
   </g>
   <g id="patch_11">
    <path d="M 74.620814 273.312 
L 76.231358 273.312 
L 76.231358 240.158512 
L 74.620814 240.158512 
z
" clip-path="url(#p074c5cafbb)" style="fill: #1f77b4"/>
   </g>
   <g id="patch_12">
    <path d="M 76.231358 273.312 
L 77.841902 273.312 
L 77.841902 234.264558 
L 76.231358 234.264558 
z
" clip-path="url(#p074c5cafbb)" style="fill: #1f77b4"/>
   </g>
   <g id="patch_13">
    <path d="M 77.841902 273.312 
L 79.452446 273.312 
L 79.452446 231.317581 
L 77.841902 231.317581 
z
" clip-path="url(#p074c5cafbb)" style="fill: #1f77b4"/>
   </g>
   <g id="patch_14">
    <path d="M 79.452446 273.312 
L 81.06299 273.312 
L 81.06299 231.317581 
L 79.452446 231.317581 
z
" clip-path="url(#p074c5cafbb)" style="fill: #1f77b4"/>
   </g>
   <g id="patch_15">
    <path d="M 81.06299 273.312 
L 82.673533 273.312 
L 82.673533 230.580837 
L 81.06299 230.580837 
z
" clip-path="url(#p074c5cafbb)" style="fill: #1f77b4"/>
   </g>
   <g id="patch_16">
    <path d="M 82.673533 273.312 
L 84.284077 273.312 
L 84.284077 212.898977 
L 82.673533 212.898977 
z
" clip-path="url(#p074c5cafbb)" style="fill: #1f77b4"/>
   </g>
   <g id="patch_17">
    <path d="M 84.284077 273.312 
L 85.894621 273.312 
L 85.894621 212.898977 
L 84.284077 212.898977 
z
" clip-path="url(#p074c5cafbb)" style="fill: #1f77b4"/>
   </g>
   <g id="patch_18">
    <path d="M 85.894621 273.312 
L 87.505165 273.312 
L 87.505165 225.423628 
L 85.894621 225.423628 
z
" clip-path="url(#p074c5cafbb)" style="fill: #1f77b4"/>
   </g>
   <g id="patch_19">
    <path d="M 87.505165 273.312 
L 89.115709 273.312 
L 89.115709 218.056186 
L 87.505165 218.056186 
z
" clip-path="url(#p074c5cafbb)" style="fill: #1f77b4"/>
   </g>
   <g id="patch_20">
    <path d="M 89.115709 273.312 
L 90.726253 273.312 
L 90.726253 222.476651 
L 89.115709 222.476651 
z
" clip-path="url(#p074c5cafbb)" style="fill: #1f77b4"/>
   </g>
   <g id="patch_21">
    <path d="M 90.726253 273.312 
L 92.336797 273.312 
L 92.336797 199.637581 
L 90.726253 199.637581 
z
" clip-path="url(#p074c5cafbb)" style="fill: #1f77b4"/>
   </g>
   <g id="patch_22">
    <path d="M 92.336797 273.312 
L 93.947341 273.312 
L 93.947341 201.847814 
L 92.336797 201.847814 
z
" clip-path="url(#p074c5cafbb)" style="fill: #1f77b4"/>
   </g>
   <g id="patch_23">
    <path d="M 93.947341 273.312 
L 95.557885 273.312 
L 95.557885 198.164093 
L 93.947341 198.164093 
z
" clip-path="url(#p074c5cafbb)" style="fill: #1f77b4"/>
   </g>
   <g id="patch_24">
    <path d="M 95.557885 273.312 
L 97.168428 273.312 
L 97.168428 193.743628 
L 95.557885 193.743628 
z
" clip-path="url(#p074c5cafbb)" style="fill: #1f77b4"/>
   </g>
   <g id="patch_25">
    <path d="M 97.168428 273.312 
L 98.778972 273.312 
L 98.778972 195.95386 
L 97.168428 195.95386 
z
" clip-path="url(#p074c5cafbb)" style="fill: #1f77b4"/>
   </g>
   <g id="patch_26">
    <path d="M 98.778972 273.312 
L 100.389516 273.312 
L 100.389516 170.167814 
L 98.778972 170.167814 
z
" clip-path="url(#p074c5cafbb)" style="fill: #1f77b4"/>
   </g>
   <g id="patch_27">
    <path d="M 100.389516 273.312 
L 102.00006 273.312 
L 102.00006 181.218977 
L 100.389516 181.218977 
z
" clip-path="url(#p074c5cafbb)" style="fill: #1f77b4"/>
   </g>
   <g id="patch_28">
    <path d="M 102.00006 273.312 
L 103.610604 273.312 
L 103.610604 192.27014 
L 102.00006 192.27014 
z
" clip-path="url(#p074c5cafbb)" style="fill: #1f77b4"/>
   </g>
   <g id="patch_29">
    <path d="M 103.610604 273.312 
L 105.221148 273.312 
L 105.221148 193.743628 
L 103.610604 193.743628 
z
" clip-path="url(#p074c5cafbb)" style="fill: #1f77b4"/>
   </g>
   <g id="patch_30">
    <path d="M 105.221148 273.312 
L 106.831692 273.312 
L 106.831692 165.747349 
L 105.221148 165.747349 
z
" clip-path="url(#p074c5cafbb)" style="fill: #1f77b4"/>
   </g>
   <g id="patch_31">
    <path d="M 106.831692 273.312 
L 108.442236 273.312 
L 108.442236 174.588279 
L 106.831692 174.588279 
z
" clip-path="url(#p074c5cafbb)" style="fill: #1f77b4"/>
   </g>
   <g id="patch_32">
    <path d="M 108.442236 273.312 
L 110.052779 273.312 
L 110.052779 165.747349 
L 108.442236 165.747349 
z
" clip-path="url(#p074c5cafbb)" style="fill: #1f77b4"/>
   </g>
   <g id="patch_33">
    <path d="M 110.052779 273.312 
L 111.663323 273.312 
L 111.663323 163.537116 
L 110.052779 163.537116 
z
" clip-path="url(#p074c5cafbb)" style="fill: #1f77b4"/>
   </g>
   <g id="patch_34">
    <path d="M 111.663323 273.312 
L 113.273867 273.312 
L 113.273867 142.908279 
L 111.663323 142.908279 
z
" clip-path="url(#p074c5cafbb)" style="fill: #1f77b4"/>
   </g>
   <g id="patch_35">
    <path d="M 113.273867 273.312 
L 114.884411 273.312 
L 114.884411 170.904558 
L 113.273867 170.904558 
z
" clip-path="url(#p074c5cafbb)" style="fill: #1f77b4"/>
   </g>
   <g id="patch_36">
    <path d="M 114.884411 273.312 
L 116.494955 273.312 
L 116.494955 147.328744 
L 114.884411 147.328744 
z
" clip-path="url(#p074c5cafbb)" style="fill: #1f77b4"/>
   </g>
   <g id="patch_37">
    <path d="M 116.494955 273.312 
L 118.105499 273.312 
L 118.105499 171.641302 
L 116.494955 171.641302 
z
" clip-path="url(#p074c5cafbb)" style="fill: #1f77b4"/>
   </g>
   <g id="patch_38">
    <path d="M 118.105499 273.312 
L 119.716043 273.312 
L 119.716043 148.065488 
L 118.105499 148.065488 
z
" clip-path="url(#p074c5cafbb)" style="fill: #1f77b4"/>
   </g>
   <g id="patch_39">
    <path d="M 119.716043 273.312 
L 121.326587 273.312 
L 121.326587 152.485953 
L 119.716043 152.485953 
z
" clip-path="url(#p074c5cafbb)" style="fill: #1f77b4"/>
   </g>
   <g id="patch_40">
    <path d="M 121.326587 273.312 
L 122.937131 273.312 
L 122.937131 144.381767 
L 121.326587 144.381767 
z
" clip-path="url(#p074c5cafbb)" style="fill: #1f77b4"/>
   </g>
   <g id="patch_41">
    <path d="M 122.937131 273.312 
L 124.547674 273.312 
L 124.547674 138.487814 
L 122.937131 138.487814 
z
" clip-path="url(#p074c5cafbb)" style="fill: #1f77b4"/>
   </g>
   <g id="patch_42">
    <path d="M 124.547674 273.312 
L 126.158218 273.312 
L 126.158218 125.226419 
L 124.547674 125.226419 
z
" clip-path="url(#p074c5cafbb)" style="fill: #1f77b4"/>
   </g>
   <g id="patch_43">
    <path d="M 126.158218 273.312 
L 127.768762 273.312 
L 127.768762 145.118512 
L 126.158218 145.118512 
z
" clip-path="url(#p074c5cafbb)" style="fill: #1f77b4"/>
   </g>
   <g id="patch_44">
    <path d="M 127.768762 273.312 
L 129.379306 273.312 
L 129.379306 129.646884 
L 127.768762 129.646884 
z
" clip-path="url(#p074c5cafbb)" style="fill: #1f77b4"/>
   </g>
   <g id="patch_45">
    <path d="M 129.379306 273.312 
L 130.98985 273.312 
L 130.98985 123.016186 
L 129.379306 123.016186 
z
" clip-path="url(#p074c5cafbb)" style="fill: #1f77b4"/>
   </g>
   <g id="patch_46">
    <path d="M 130.98985 273.312 
L 132.600394 273.312 
L 132.600394 120.069209 
L 130.98985 120.069209 
z
" clip-path="url(#p074c5cafbb)" style="fill: #1f77b4"/>
   </g>
   <g id="patch_47">
    <path d="M 132.600394 273.312 
L 134.210938 273.312 
L 134.210938 103.860837 
L 132.600394 103.860837 
z
" clip-path="url(#p074c5cafbb)" style="fill: #1f77b4"/>
   </g>
   <g id="patch_48">
    <path d="M 134.210938 273.312 
L 135.821482 273.312 
L 135.821482 104.597581 
L 134.210938 104.597581 
z
" clip-path="url(#p074c5cafbb)" style="fill: #1f77b4"/>
   </g>
   <g id="patch_49">
    <path d="M 135.821482 273.312 
L 137.432025 273.312 
L 137.432025 114.175256 
L 135.821482 114.175256 
z
" clip-path="url(#p074c5cafbb)" style="fill: #1f77b4"/>
   </g>
   <g id="patch_50">
    <path d="M 137.432025 273.312 
L 139.042569 273.312 
L 139.042569 131.120372 
L 137.432025 131.120372 
z
" clip-path="url(#p074c5cafbb)" style="fill: #1f77b4"/>
   </g>
   <g id="patch_51">
    <path d="M 139.042569 273.312 
L 140.653113 273.312 
L 140.653113 105.334326 
L 139.042569 105.334326 
z
" clip-path="url(#p074c5cafbb)" style="fill: #1f77b4"/>
   </g>
   <g id="patch_52">
    <path d="M 140.653113 273.312 
L 142.263657 273.312 
L 142.263657 120.805953 
L 140.653113 120.805953 
z
" clip-path="url(#p074c5cafbb)" style="fill: #1f77b4"/>
   </g>
   <g id="patch_53">
    <path d="M 142.263657 273.312 
L 143.874201 273.312 
L 143.874201 103.124093 
L 142.263657 103.124093 
z
" clip-path="url(#p074c5cafbb)" style="fill: #1f77b4"/>
   </g>
   <g id="patch_54">
    <path d="M 143.874201 273.312 
L 145.484745 273.312 
L 145.484745 128.173395 
L 143.874201 128.173395 
z
" clip-path="url(#p074c5cafbb)" style="fill: #1f77b4"/>
   </g>
   <g id="patch_55">
    <path d="M 145.484745 273.312 
L 147.095289 273.312 
L 147.095289 107.544558 
L 145.484745 107.544558 
z
" clip-path="url(#p074c5cafbb)" style="fill: #1f77b4"/>
   </g>
   <g id="patch_56">
    <path d="M 147.095289 273.312 
L 148.705833 273.312 
L 148.705833 99.440372 
L 147.095289 99.440372 
z
" clip-path="url(#p074c5cafbb)" style="fill: #1f77b4"/>
   </g>
   <g id="patch_57">
    <path d="M 148.705833 273.312 
L 150.316376 273.312 
L 150.316376 100.177116 
L 148.705833 100.177116 
z
" clip-path="url(#p074c5cafbb)" style="fill: #1f77b4"/>
   </g>
   <g id="patch_58">
    <path d="M 150.316376 273.312 
L 151.92692 273.312 
L 151.92692 86.178977 
L 150.316376 86.178977 
z
" clip-path="url(#p074c5cafbb)" style="fill: #1f77b4"/>
   </g>
   <g id="patch_59">
    <path d="M 151.92692 273.312 
L 153.537464 273.312 
L 153.537464 108.281302 
L 151.92692 108.281302 
z
" clip-path="url(#p074c5cafbb)" style="fill: #1f77b4"/>
   </g>
   <g id="patch_60">
    <path d="M 153.537464 273.312 
L 155.148008 273.312 
L 155.148008 110.491535 
L 153.537464 110.491535 
z
" clip-path="url(#p074c5cafbb)" style="fill: #1f77b4"/>
   </g>
   <g id="patch_61">
    <path d="M 155.148008 273.312 
L 156.758552 273.312 
L 156.758552 94.283163 
L 155.148008 94.283163 
z
" clip-path="url(#p074c5cafbb)" style="fill: #1f77b4"/>
   </g>
   <g id="patch_62">
    <path d="M 156.758552 273.312 
L 158.369096 273.312 
L 158.369096 67.023628 
L 156.758552 67.023628 
z
" clip-path="url(#p074c5cafbb)" style="fill: #1f77b4"/>
   </g>
   <g id="patch_63">
    <path d="M 158.369096 273.312 
L 159.97964 273.312 
L 159.97964 55.235721 
L 158.369096 55.235721 
z
" clip-path="url(#p074c5cafbb)" style="fill: #1f77b4"/>
   </g>
   <g id="patch_64">
    <path d="M 159.97964 273.312 
L 161.590184 273.312 
L 161.590184 86.178977 
L 159.97964 86.178977 
z
" clip-path="url(#p074c5cafbb)" style="fill: #1f77b4"/>
   </g>
   <g id="patch_65">
    <path d="M 161.590184 273.312 
L 163.200728 273.312 
L 163.200728 86.178977 
L 161.590184 86.178977 
z
" clip-path="url(#p074c5cafbb)" style="fill: #1f77b4"/>
   </g>
   <g id="patch_66">
    <path d="M 163.200728 273.312 
L 164.811271 273.312 
L 164.811271 83.232 
L 163.200728 83.232 
z
" clip-path="url(#p074c5cafbb)" style="fill: #1f77b4"/>
   </g>
   <g id="patch_67">
    <path d="M 164.811271 273.312 
L 166.421815 273.312 
L 166.421815 85.442233 
L 164.811271 85.442233 
z
" clip-path="url(#p074c5cafbb)" style="fill: #1f77b4"/>
   </g>
   <g id="patch_68">
    <path d="M 166.421815 273.312 
L 168.032359 273.312 
L 168.032359 79.548279 
L 166.421815 79.548279 
z
" clip-path="url(#p074c5cafbb)" style="fill: #1f77b4"/>
   </g>
   <g id="patch_69">
    <path d="M 168.032359 273.312 
L 169.642903 273.312 
L 169.642903 77.338047 
L 168.032359 77.338047 
z
" clip-path="url(#p074c5cafbb)" style="fill: #1f77b4"/>
   </g>
   <g id="patch_70">
    <path d="M 169.642903 273.312 
L 171.253447 273.312 
L 171.253447 71.444093 
L 169.642903 71.444093 
z
" clip-path="url(#p074c5cafbb)" style="fill: #1f77b4"/>
   </g>
   <g id="patch_71">
    <path d="M 171.253447 273.312 
L 172.863991 273.312 
L 172.863991 72.180837 
L 171.253447 72.180837 
z
" clip-path="url(#p074c5cafbb)" style="fill: #1f77b4"/>
   </g>
   <g id="patch_72">
    <path d="M 172.863991 273.312 
L 174.474535 273.312 
L 174.474535 58.919442 
L 172.863991 58.919442 
z
" clip-path="url(#p074c5cafbb)" style="fill: #1f77b4"/>
   </g>
   <g id="patch_73">
    <path d="M 174.474535 273.312 
L 176.085079 273.312 
L 176.085079 76.601302 
L 174.474535 76.601302 
z
" clip-path="url(#p074c5cafbb)" style="fill: #1f77b4"/>
   </g>
   <g id="patch_74">
    <path d="M 176.085079 273.312 
L 177.695622 273.312 
L 177.695622 75.127814 
L 176.085079 75.127814 
z
" clip-path="url(#p074c5cafbb)" style="fill: #1f77b4"/>
   </g>
   <g id="patch_75">
    <path d="M 177.695622 273.312 
L 179.306166 273.312 
L 179.306166 52.288744 
L 177.695622 52.288744 
z
" clip-path="url(#p074c5cafbb)" style="fill: #1f77b4"/>
   </g>
   <g id="patch_76">
    <path d="M 179.306166 273.312 
L 180.91671 273.312 
L 180.91671 83.968744 
L 179.306166 83.968744 
z
" clip-path="url(#p074c5cafbb)" style="fill: #1f77b4"/>
   </g>
   <g id="patch_77">
    <path d="M 180.91671 273.312 
L 182.527254 273.312 
L 182.527254 39.764093 
L 180.91671 39.764093 
z
" clip-path="url(#p074c5cafbb)" style="fill: #1f77b4"/>
   </g>
   <g id="patch_78">
    <path d="M 182.527254 273.312 
L 184.137798 273.312 
L 184.137798 77.338047 
L 182.527254 77.338047 
z
" clip-path="url(#p074c5cafbb)" style="fill: #1f77b4"/>
   </g>
   <g id="patch_79">
    <path d="M 184.137798 273.312 
L 185.748342 273.312 
L 185.748342 46.394791 
L 184.137798 46.394791 
z
" clip-path="url(#p074c5cafbb)" style="fill: #1f77b4"/>
   </g>
   <g id="patch_80">
    <path d="M 185.748342 273.312 
L 187.358886 273.312 
L 187.358886 41.974326 
L 185.748342 41.974326 
z
" clip-path="url(#p074c5cafbb)" style="fill: #1f77b4"/>
   </g>
   <g id="patch_81">
    <path d="M 187.358886 273.312 
L 188.96943 273.312 
L 188.96943 58.919442 
L 187.358886 58.919442 
z
" clip-path="url(#p074c5cafbb)" style="fill: #1f77b4"/>
   </g>
   <g id="patch_82">
    <path d="M 188.96943 273.312 
L 190.579974 273.312 
L 190.579974 34.606884 
L 188.96943 34.606884 
z
" clip-path="url(#p074c5cafbb)" style="fill: #1f77b4"/>
   </g>
   <g id="patch_83">
    <path d="M 190.579974 273.312 
L 192.190517 273.312 
L 192.190517 63.339907 
L 190.579974 63.339907 
z
" clip-path="url(#p074c5cafbb)" style="fill: #1f77b4"/>
   </g>
   <g id="patch_84">
    <path d="M 192.190517 273.312 
L 193.801061 273.312 
L 193.801061 22.818977 
L 192.190517 22.818977 
z
" clip-path="url(#p074c5cafbb)" style="fill: #1f77b4"/>
   </g>
   <g id="patch_85">
    <path d="M 193.801061 273.312 
L 195.411605 273.312 
L 195.411605 59.656186 
L 193.801061 59.656186 
z
" clip-path="url(#p074c5cafbb)" style="fill: #1f77b4"/>
   </g>
   <g id="patch_86">
    <path d="M 195.411605 273.312 
L 197.022149 273.312 
L 197.022149 50.815256 
L 195.411605 50.815256 
z
" clip-path="url(#p074c5cafbb)" style="fill: #1f77b4"/>
   </g>
   <g id="patch_87">
    <path d="M 197.022149 273.312 
L 198.632693 273.312 
L 198.632693 52.288744 
L 197.022149 52.288744 
z
" clip-path="url(#p074c5cafbb)" style="fill: #1f77b4"/>
   </g>
   <g id="patch_88">
    <path d="M 198.632693 273.312 
L 200.243237 273.312 
L 200.243237 58.919442 
L 198.632693 58.919442 
z
" clip-path="url(#p074c5cafbb)" style="fill: #1f77b4"/>
   </g>
   <g id="patch_89">
    <path d="M 200.243237 273.312 
L 201.853781 273.312 
L 201.853781 37.55386 
L 200.243237 37.55386 
z
" clip-path="url(#p074c5cafbb)" style="fill: #1f77b4"/>
   </g>
   <g id="patch_90">
    <path d="M 201.853781 273.312 
L 203.464325 273.312 
L 203.464325 51.552 
L 201.853781 51.552 
z
" clip-path="url(#p074c5cafbb)" style="fill: #1f77b4"/>
   </g>
   <g id="patch_91">
    <path d="M 203.464325 273.312 
L 205.074868 273.312 
L 205.074868 53.762233 
L 203.464325 53.762233 
z
" clip-path="url(#p074c5cafbb)" style="fill: #1f77b4"/>
   </g>
   <g id="patch_92">
    <path d="M 205.074868 273.312 
L 206.685412 273.312 
L 206.685412 39.764093 
L 205.074868 39.764093 
z
" clip-path="url(#p074c5cafbb)" style="fill: #1f77b4"/>
   </g>
   <g id="patch_93">
    <path d="M 206.685412 273.312 
L 208.295956 273.312 
L 208.295956 62.603163 
L 206.685412 62.603163 
z
" clip-path="url(#p074c5cafbb)" style="fill: #1f77b4"/>
   </g>
   <g id="patch_94">
    <path d="M 208.295956 273.312 
L 209.9065 273.312 
L 209.9065 34.606884 
L 208.295956 34.606884 
z
" clip-path="url(#p074c5cafbb)" style="fill: #1f77b4"/>
   </g>
   <g id="patch_95">
    <path d="M 209.9065 273.312 
L 211.517044 273.312 
L 211.517044 55.972465 
L 209.9065 55.972465 
z
" clip-path="url(#p074c5cafbb)" style="fill: #1f77b4"/>
   </g>
   <g id="patch_96">
    <path d="M 211.517044 273.312 
L 213.127588 273.312 
L 213.127588 36.817116 
L 211.517044 36.817116 
z
" clip-path="url(#p074c5cafbb)" style="fill: #1f77b4"/>
   </g>
   <g id="patch_97">
    <path d="M 213.127588 273.312 
L 214.738132 273.312 
L 214.738132 64.076651 
L 213.127588 64.076651 
z
" clip-path="url(#p074c5cafbb)" style="fill: #1f77b4"/>
   </g>
   <g id="patch_98">
    <path d="M 214.738132 273.312 
L 216.348676 273.312 
L 216.348676 38.290605 
L 214.738132 38.290605 
z
" clip-path="url(#p074c5cafbb)" style="fill: #1f77b4"/>
   </g>
   <g id="patch_99">
    <path d="M 216.348676 273.312 
L 217.959219 273.312 
L 217.959219 58.182698 
L 216.348676 58.182698 
z
" clip-path="url(#p074c5cafbb)" style="fill: #1f77b4"/>
   </g>
   <g id="patch_100">
    <path d="M 217.959219 273.312 
L 219.569763 273.312 
L 219.569763 55.235721 
L 217.959219 55.235721 
z
" clip-path="url(#p074c5cafbb)" style="fill: #1f77b4"/>
   </g>
   <g id="patch_101">
    <path d="M 219.569763 273.312 
L 221.180307 273.312 
L 221.180307 36.080372 
L 219.569763 36.080372 
z
" clip-path="url(#p074c5cafbb)" style="fill: #1f77b4"/>
   </g>
   <g id="patch_102">
    <path d="M 221.180307 273.312 
L 222.790851 273.312 
L 222.790851 36.080372 
L 221.180307 36.080372 
z
" clip-path="url(#p074c5cafbb)" style="fill: #1f77b4"/>
   </g>
   <g id="patch_103">
    <path d="M 222.790851 273.312 
L 224.401395 273.312 
L 224.401395 44.184558 
L 222.790851 44.184558 
z
" clip-path="url(#p074c5cafbb)" style="fill: #1f77b4"/>
   </g>
   <g id="patch_104">
    <path d="M 224.401395 273.312 
L 226.011939 273.312 
L 226.011939 36.817116 
L 224.401395 36.817116 
z
" clip-path="url(#p074c5cafbb)" style="fill: #1f77b4"/>
   </g>
   <g id="patch_105">
    <path d="M 226.011939 273.312 
L 227.622483 273.312 
L 227.622483 39.764093 
L 226.011939 39.764093 
z
" clip-path="url(#p074c5cafbb)" style="fill: #1f77b4"/>
   </g>
   <g id="patch_106">
    <path d="M 227.622483 273.312 
L 229.233027 273.312 
L 229.233027 54.498977 
L 227.622483 54.498977 
z
" clip-path="url(#p074c5cafbb)" style="fill: #1f77b4"/>
   </g>
   <g id="patch_107">
    <path d="M 229.233027 273.312 
L 230.843571 273.312 
L 230.843571 27.239442 
L 229.233027 27.239442 
z
" clip-path="url(#p074c5cafbb)" style="fill: #1f77b4"/>
   </g>
   <g id="patch_108">
    <path d="M 230.843571 273.312 
L 232.454114 273.312 
L 232.454114 19.872 
L 230.843571 19.872 
z
" clip-path="url(#p074c5cafbb)" style="fill: #1f77b4"/>
   </g>
   <g id="patch_109">
    <path d="M 232.454114 273.312 
L 234.064658 273.312 
L 234.064658 44.921302 
L 232.454114 44.921302 
z
" clip-path="url(#p074c5cafbb)" style="fill: #1f77b4"/>
   </g>
   <g id="patch_110">
    <path d="M 234.064658 273.312 
L 235.675202 273.312 
L 235.675202 36.817116 
L 234.064658 36.817116 
z
" clip-path="url(#p074c5cafbb)" style="fill: #1f77b4"/>
   </g>
   <g id="patch_111">
    <path d="M 235.675202 273.312 
L 237.285746 273.312 
L 237.285746 39.764093 
L 235.675202 39.764093 
z
" clip-path="url(#p074c5cafbb)" style="fill: #1f77b4"/>
   </g>
   <g id="patch_112">
    <path d="M 237.285746 273.312 
L 238.89629 273.312 
L 238.89629 68.497116 
L 237.285746 68.497116 
z
" clip-path="url(#p074c5cafbb)" style="fill: #1f77b4"/>
   </g>
   <g id="patch_113">
    <path d="M 238.89629 273.312 
L 240.506834 273.312 
L 240.506834 22.082233 
L 238.89629 22.082233 
z
" clip-path="url(#p074c5cafbb)" style="fill: #1f77b4"/>
   </g>
   <g id="patch_114">
    <path d="M 240.506834 273.312 
L 242.117378 273.312 
L 242.117378 67.023628 
L 240.506834 67.023628 
z
" clip-path="url(#p074c5cafbb)" style="fill: #1f77b4"/>
   </g>
   <g id="patch_115">
    <path d="M 242.117378 273.312 
L 243.727922 273.312 
L 243.727922 55.235721 
L 242.117378 55.235721 
z
" clip-path="url(#p074c5cafbb)" style="fill: #1f77b4"/>
   </g>
   <g id="patch_116">
    <path d="M 243.727922 273.312 
L 245.338465 273.312 
L 245.338465 43.447814 
L 243.727922 43.447814 
z
" clip-path="url(#p074c5cafbb)" style="fill: #1f77b4"/>
   </g>
   <g id="patch_117">
    <path d="M 245.338465 273.312 
L 246.949009 273.312 
L 246.949009 55.972465 
L 245.338465 55.972465 
z
" clip-path="url(#p074c5cafbb)" style="fill: #1f77b4"/>
   </g>
   <g id="patch_118">
    <path d="M 246.949009 273.312 
L 248.559553 273.312 
L 248.559553 60.39293 
L 246.949009 60.39293 
z
" clip-path="url(#p074c5cafbb)" style="fill: #1f77b4"/>
   </g>
   <g id="patch_119">
    <path d="M 248.559553 273.312 
L 250.170097 273.312 
L 250.170097 55.235721 
L 248.559553 55.235721 
z
" clip-path="url(#p074c5cafbb)" style="fill: #1f77b4"/>
   </g>
   <g id="patch_120">
    <path d="M 250.170097 273.312 
L 251.780641 273.312 
L 251.780641 43.447814 
L 250.170097 43.447814 
z
" clip-path="url(#p074c5cafbb)" style="fill: #1f77b4"/>
   </g>
   <g id="patch_121">
    <path d="M 251.780641 273.312 
L 253.391185 273.312 
L 253.391185 51.552 
L 251.780641 51.552 
z
" clip-path="url(#p074c5cafbb)" style="fill: #1f77b4"/>
   </g>
   <g id="patch_122">
    <path d="M 253.391185 273.312 
L 255.001729 273.312 
L 255.001729 36.080372 
L 253.391185 36.080372 
z
" clip-path="url(#p074c5cafbb)" style="fill: #1f77b4"/>
   </g>
   <g id="patch_123">
    <path d="M 255.001729 273.312 
L 256.612273 273.312 
L 256.612273 38.290605 
L 255.001729 38.290605 
z
" clip-path="url(#p074c5cafbb)" style="fill: #1f77b4"/>
   </g>
   <g id="patch_124">
    <path d="M 256.612273 273.312 
L 258.222817 273.312 
L 258.222817 35.343628 
L 256.612273 35.343628 
z
" clip-path="url(#p074c5cafbb)" style="fill: #1f77b4"/>
   </g>
   <g id="patch_125">
    <path d="M 258.222817 273.312 
L 259.83336 273.312 
L 259.83336 54.498977 
L 258.222817 54.498977 
z
" clip-path="url(#p074c5cafbb)" style="fill: #1f77b4"/>
   </g>
   <g id="patch_126">
    <path d="M 259.83336 273.312 
L 261.443904 273.312 
L 261.443904 57.445953 
L 259.83336 57.445953 
z
" clip-path="url(#p074c5cafbb)" style="fill: #1f77b4"/>
   </g>
   <g id="patch_127">
    <path d="M 261.443904 273.312 
L 263.054448 273.312 
L 263.054448 78.811535 
L 261.443904 78.811535 
z
" clip-path="url(#p074c5cafbb)" style="fill: #1f77b4"/>
   </g>
   <g id="patch_128">
    <path d="M 263.054448 273.312 
L 264.664992 273.312 
L 264.664992 90.599442 
L 263.054448 90.599442 
z
" clip-path="url(#p074c5cafbb)" style="fill: #1f77b4"/>
   </g>
   <g id="patch_129">
    <path d="M 264.664992 273.312 
L 266.275536 273.312 
L 266.275536 81.758512 
L 264.664992 81.758512 
z
" clip-path="url(#p074c5cafbb)" style="fill: #1f77b4"/>
   </g>
   <g id="patch_130">
    <path d="M 266.275536 273.312 
L 267.88608 273.312 
L 267.88608 81.021767 
L 266.275536 81.021767 
z
" clip-path="url(#p074c5cafbb)" style="fill: #1f77b4"/>
   </g>
   <g id="patch_131">
    <path d="M 267.88608 273.312 
L 269.496624 273.312 
L 269.496624 80.285023 
L 267.88608 80.285023 
z
" clip-path="url(#p074c5cafbb)" style="fill: #1f77b4"/>
   </g>
   <g id="patch_132">
    <path d="M 269.496624 273.312 
L 271.107168 273.312 
L 271.107168 61.866419 
L 269.496624 61.866419 
z
" clip-path="url(#p074c5cafbb)" style="fill: #1f77b4"/>
   </g>
   <g id="patch_133">
    <path d="M 271.107168 273.312 
L 272.717711 273.312 
L 272.717711 75.864558 
L 271.107168 75.864558 
z
" clip-path="url(#p074c5cafbb)" style="fill: #1f77b4"/>
   </g>
   <g id="patch_134">
    <path d="M 272.717711 273.312 
L 274.328255 273.312 
L 274.328255 57.445953 
L 272.717711 57.445953 
z
" clip-path="url(#p074c5cafbb)" style="fill: #1f77b4"/>
   </g>
   <g id="patch_135">
    <path d="M 274.328255 273.312 
L 275.938799 273.312 
L 275.938799 84.705488 
L 274.328255 84.705488 
z
" clip-path="url(#p074c5cafbb)" style="fill: #1f77b4"/>
   </g>
   <g id="patch_136">
    <path d="M 275.938799 273.312 
L 277.549343 273.312 
L 277.549343 81.758512 
L 275.938799 81.758512 
z
" clip-path="url(#p074c5cafbb)" style="fill: #1f77b4"/>
   </g>
   <g id="patch_137">
    <path d="M 277.549343 273.312 
L 279.159887 273.312 
L 279.159887 55.972465 
L 277.549343 55.972465 
z
" clip-path="url(#p074c5cafbb)" style="fill: #1f77b4"/>
   </g>
   <g id="patch_138">
    <path d="M 279.159887 273.312 
L 280.770431 273.312 
L 280.770431 72.917581 
L 279.159887 72.917581 
z
" clip-path="url(#p074c5cafbb)" style="fill: #1f77b4"/>
   </g>
   <g id="patch_139">
    <path d="M 280.770431 273.312 
L 282.380975 273.312 
L 282.380975 82.495256 
L 280.770431 82.495256 
z
" clip-path="url(#p074c5cafbb)" style="fill: #1f77b4"/>
   </g>
   <g id="patch_140">
    <path d="M 282.380975 273.312 
L 283.991519 273.312 
L 283.991519 96.493395 
L 282.380975 96.493395 
z
" clip-path="url(#p074c5cafbb)" style="fill: #1f77b4"/>
   </g>
   <g id="patch_141">
    <path d="M 283.991519 273.312 
L 285.602062 273.312 
L 285.602062 69.23386 
L 283.991519 69.23386 
z
" clip-path="url(#p074c5cafbb)" style="fill: #1f77b4"/>
   </g>
   <g id="patch_142">
    <path d="M 285.602062 273.312 
L 287.212606 273.312 
L 287.212606 87.652465 
L 285.602062 87.652465 
z
" clip-path="url(#p074c5cafbb)" style="fill: #1f77b4"/>
   </g>
   <g id="patch_143">
    <path d="M 287.212606 273.312 
L 288.82315 273.312 
L 288.82315 95.019907 
L 287.212606 95.019907 
z
" clip-path="url(#p074c5cafbb)" style="fill: #1f77b4"/>
   </g>
   <g id="patch_144">
    <path d="M 288.82315 273.312 
L 290.433694 273.312 
L 290.433694 91.336186 
L 288.82315 91.336186 
z
" clip-path="url(#p074c5cafbb)" style="fill: #1f77b4"/>
   </g>
   <g id="patch_145">
    <path d="M 290.433694 273.312 
L 292.044238 273.312 
L 292.044238 81.758512 
L 290.433694 81.758512 
z
" clip-path="url(#p074c5cafbb)" style="fill: #1f77b4"/>
   </g>
   <g id="patch_146">
    <path d="M 292.044238 273.312 
L 293.654782 273.312 
L 293.654782 99.440372 
L 292.044238 99.440372 
z
" clip-path="url(#p074c5cafbb)" style="fill: #1f77b4"/>
   </g>
   <g id="patch_147">
    <path d="M 293.654782 273.312 
L 295.265326 273.312 
L 295.265326 120.805953 
L 293.654782 120.805953 
z
" clip-path="url(#p074c5cafbb)" style="fill: #1f77b4"/>
   </g>
   <g id="patch_148">
    <path d="M 295.265326 273.312 
L 296.87587 273.312 
L 296.87587 73.654326 
L 295.265326 73.654326 
z
" clip-path="url(#p074c5cafbb)" style="fill: #1f77b4"/>
   </g>
   <g id="patch_149">
    <path d="M 296.87587 273.312 
L 298.486414 273.312 
L 298.486414 108.281302 
L 296.87587 108.281302 
z
" clip-path="url(#p074c5cafbb)" style="fill: #1f77b4"/>
   </g>
   <g id="patch_150">
    <path d="M 298.486414 273.312 
L 300.096957 273.312 
L 300.096957 99.440372 
L 298.486414 99.440372 
z
" clip-path="url(#p074c5cafbb)" style="fill: #1f77b4"/>
   </g>
   <g id="patch_151">
    <path d="M 300.096957 273.312 
L 301.707501 273.312 
L 301.707501 97.23014 
L 300.096957 97.23014 
z
" clip-path="url(#p074c5cafbb)" style="fill: #1f77b4"/>
   </g>
   <g id="patch_152">
    <path d="M 301.707501 273.312 
L 303.318045 273.312 
L 303.318045 104.597581 
L 301.707501 104.597581 
z
" clip-path="url(#p074c5cafbb)" style="fill: #1f77b4"/>
   </g>
   <g id="patch_153">
    <path d="M 303.318045 273.312 
L 304.928589 273.312 
L 304.928589 114.175256 
L 303.318045 114.175256 
z
" clip-path="url(#p074c5cafbb)" style="fill: #1f77b4"/>
   </g>
   <g id="patch_154">
    <path d="M 304.928589 273.312 
L 306.539133 273.312 
L 306.539133 117.858977 
L 304.928589 117.858977 
z
" clip-path="url(#p074c5cafbb)" style="fill: #1f77b4"/>
   </g>
   <g id="patch_155">
    <path d="M 306.539133 273.312 
L 308.149677 273.312 
L 308.149677 109.018047 
L 306.539133 109.018047 
z
" clip-path="url(#p074c5cafbb)" style="fill: #1f77b4"/>
   </g>
   <g id="patch_156">
    <path d="M 308.149677 273.312 
L 309.760221 273.312 
L 309.760221 102.387349 
L 308.149677 102.387349 
z
" clip-path="url(#p074c5cafbb)" style="fill: #1f77b4"/>
   </g>
   <g id="patch_157">
    <path d="M 309.760221 273.312 
L 311.370765 273.312 
L 311.370765 110.491535 
L 309.760221 110.491535 
z
" clip-path="url(#p074c5cafbb)" style="fill: #1f77b4"/>
   </g>
   <g id="patch_158">
    <path d="M 311.370765 273.312 
L 312.981308 273.312 
L 312.981308 119.332465 
L 311.370765 119.332465 
z
" clip-path="url(#p074c5cafbb)" style="fill: #1f77b4"/>
   </g>
   <g id="patch_159">
    <path d="M 312.981308 273.312 
L 314.591852 273.312 
L 314.591852 136.277581 
L 312.981308 136.277581 
z
" clip-path="url(#p074c5cafbb)" style="fill: #1f77b4"/>
   </g>
   <g id="patch_160">
    <path d="M 314.591852 273.312 
L 316.202396 273.312 
L 316.202396 136.277581 
L 314.591852 136.277581 
z
" clip-path="url(#p074c5cafbb)" style="fill: #1f77b4"/>
   </g>
   <g id="patch_161">
    <path d="M 316.202396 273.312 
L 317.81294 273.312 
L 317.81294 152.485953 
L 316.202396 152.485953 
z
" clip-path="url(#p074c5cafbb)" style="fill: #1f77b4"/>
   </g>
   <g id="patch_162">
    <path d="M 317.81294 273.312 
L 319.423484 273.312 
L 319.423484 143.645023 
L 317.81294 143.645023 
z
" clip-path="url(#p074c5cafbb)" style="fill: #1f77b4"/>
   </g>
   <g id="patch_163">
    <path d="M 319.423484 273.312 
L 321.034028 273.312 
L 321.034028 134.067349 
L 319.423484 134.067349 
z
" clip-path="url(#p074c5cafbb)" style="fill: #1f77b4"/>
   </g>
   <g id="patch_164">
    <path d="M 321.034028 273.312 
L 322.644572 273.312 
L 322.644572 146.592 
L 321.034028 146.592 
z
" clip-path="url(#p074c5cafbb)" style="fill: #1f77b4"/>
   </g>
   <g id="patch_165">
    <path d="M 322.644572 273.312 
L 324.255116 273.312 
L 324.255116 139.961302 
L 322.644572 139.961302 
z
" clip-path="url(#p074c5cafbb)" style="fill: #1f77b4"/>
   </g>
   <g id="patch_166">
    <path d="M 324.255116 273.312 
L 325.86566 273.312 
L 325.86566 155.43293 
L 324.255116 155.43293 
z
" clip-path="url(#p074c5cafbb)" style="fill: #1f77b4"/>
   </g>
   <g id="patch_167">
    <path d="M 325.86566 273.312 
L 327.476203 273.312 
L 327.476203 140.698047 
L 325.86566 140.698047 
z
" clip-path="url(#p074c5cafbb)" style="fill: #1f77b4"/>
   </g>
   <g id="patch_168">
    <path d="M 327.476203 273.312 
L 329.086747 273.312 
L 329.086747 147.328744 
L 327.476203 147.328744 
z
" clip-path="url(#p074c5cafbb)" style="fill: #1f77b4"/>
   </g>
   <g id="patch_169">
    <path d="M 329.086747 273.312 
L 330.697291 273.312 
L 330.697291 161.326884 
L 329.086747 161.326884 
z
" clip-path="url(#p074c5cafbb)" style="fill: #1f77b4"/>
   </g>
   <g id="patch_170">
    <path d="M 330.697291 273.312 
L 332.307835 273.312 
L 332.307835 179.008744 
L 330.697291 179.008744 
z
" clip-path="url(#p074c5cafbb)" style="fill: #1f77b4"/>
   </g>
   <g id="patch_171">
    <path d="M 332.307835 273.312 
L 333.918379 273.312 
L 333.918379 172.378047 
L 332.307835 172.378047 
z
" clip-path="url(#p074c5cafbb)" style="fill: #1f77b4"/>
   </g>
   <g id="patch_172">
    <path d="M 333.918379 273.312 
L 335.528923 273.312 
L 335.528923 167.957581 
L 333.918379 167.957581 
z
" clip-path="url(#p074c5cafbb)" style="fill: #1f77b4"/>
   </g>
   <g id="patch_173">
    <path d="M 335.528923 273.312 
L 337.139467 273.312 
L 337.139467 154.696186 
L 335.528923 154.696186 
z
" clip-path="url(#p074c5cafbb)" style="fill: #1f77b4"/>
   </g>
   <g id="patch_174">
    <path d="M 337.139467 273.312 
L 338.750011 273.312 
L 338.750011 181.218977 
L 337.139467 181.218977 
z
" clip-path="url(#p074c5cafbb)" style="fill: #1f77b4"/>
   </g>
   <g id="patch_175">
    <path d="M 338.750011 273.312 
L 340.360554 273.312 
L 340.360554 155.43293 
L 338.750011 155.43293 
z
" clip-path="url(#p074c5cafbb)" style="fill: #1f77b4"/>
   </g>
   <g id="patch_176">
    <path d="M 340.360554 273.312 
L 341.971098 273.312 
L 341.971098 184.165953 
L 340.360554 184.165953 
z
" clip-path="url(#p074c5cafbb)" style="fill: #1f77b4"/>
   </g>
   <g id="patch_177">
    <path d="M 341.971098 273.312 
L 343.581642 273.312 
L 343.581642 181.218977 
L 341.971098 181.218977 
z
" clip-path="url(#p074c5cafbb)" style="fill: #1f77b4"/>
   </g>
   <g id="patch_178">
    <path d="M 343.581642 273.312 
L 345.192186 273.312 
L 345.192186 180.482233 
L 343.581642 180.482233 
z
" clip-path="url(#p074c5cafbb)" style="fill: #1f77b4"/>
   </g>
   <g id="patch_179">
    <path d="M 345.192186 273.312 
L 346.80273 273.312 
L 346.80273 195.95386 
L 345.192186 195.95386 
z
" clip-path="url(#p074c5cafbb)" style="fill: #1f77b4"/>
   </g>
   <g id="patch_180">
    <path d="M 346.80273 273.312 
L 348.413274 273.312 
L 348.413274 202.584558 
L 346.80273 202.584558 
z
" clip-path="url(#p074c5cafbb)" style="fill: #1f77b4"/>
   </g>
   <g id="patch_181">
    <path d="M 348.413274 273.312 
L 350.023818 273.312 
L 350.023818 187.11293 
L 348.413274 187.11293 
z
" clip-path="url(#p074c5cafbb)" style="fill: #1f77b4"/>
   </g>
   <g id="patch_182">
    <path d="M 350.023818 273.312 
L 351.634362 273.312 
L 351.634362 207.741767 
L 350.023818 207.741767 
z
" clip-path="url(#p074c5cafbb)" style="fill: #1f77b4"/>
   </g>
   <g id="patch_183">
    <path d="M 351.634362 273.312 
L 353.244905 273.312 
L 353.244905 204.794791 
L 351.634362 204.794791 
z
" clip-path="url(#p074c5cafbb)" style="fill: #1f77b4"/>
   </g>
   <g id="patch_184">
    <path d="M 353.244905 273.312 
L 354.855449 273.312 
L 354.855449 199.637581 
L 353.244905 199.637581 
z
" clip-path="url(#p074c5cafbb)" style="fill: #1f77b4"/>
   </g>
   <g id="patch_185">
    <path d="M 354.855449 273.312 
L 356.465993 273.312 
L 356.465993 217.319442 
L 354.855449 217.319442 
z
" clip-path="url(#p074c5cafbb)" style="fill: #1f77b4"/>
   </g>
   <g id="patch_186">
    <path d="M 356.465993 273.312 
L 358.076537 273.312 
L 358.076537 219.529674 
L 356.465993 219.529674 
z
" clip-path="url(#p074c5cafbb)" style="fill: #1f77b4"/>
   </g>
   <g id="patch_187">
    <path d="M 358.076537 273.312 
L 359.687081 273.312 
L 359.687081 212.162233 
L 358.076537 212.162233 
z
" clip-path="url(#p074c5cafbb)" style="fill: #1f77b4"/>
   </g>
   <g id="patch_188">
    <path d="M 359.687081 273.312 
L 361.297625 273.312 
L 361.297625 224.686884 
L 359.687081 224.686884 
z
" clip-path="url(#p074c5cafbb)" style="fill: #1f77b4"/>
   </g>
   <g id="patch_189">
    <path d="M 361.297625 273.312 
L 362.908169 273.312 
L 362.908169 212.162233 
L 361.297625 212.162233 
z
" clip-path="url(#p074c5cafbb)" style="fill: #1f77b4"/>
   </g>
   <g id="patch_190">
    <path d="M 362.908169 273.312 
L 364.518713 273.312 
L 364.518713 225.423628 
L 362.908169 225.423628 
z
" clip-path="url(#p074c5cafbb)" style="fill: #1f77b4"/>
   </g>
   <g id="patch_191">
    <path d="M 364.518713 273.312 
L 366.129257 273.312 
L 366.129257 233.527814 
L 364.518713 233.527814 
z
" clip-path="url(#p074c5cafbb)" style="fill: #1f77b4"/>
   </g>
   <g id="patch_192">
    <path d="M 366.129257 273.312 
L 367.7398 273.312 
L 367.7398 235.001302 
L 366.129257 235.001302 
z
" clip-path="url(#p074c5cafbb)" style="fill: #1f77b4"/>
   </g>
   <g id="patch_193">
    <path d="M 367.7398 273.312 
L 369.350344 273.312 
L 369.350344 236.474791 
L 367.7398 236.474791 
z
" clip-path="url(#p074c5cafbb)" style="fill: #1f77b4"/>
   </g>
   <g id="patch_194">
    <path d="M 369.350344 273.312 
L 370.960888 273.312 
L 370.960888 237.211535 
L 369.350344 237.211535 
z
" clip-path="url(#p074c5cafbb)" style="fill: #1f77b4"/>
   </g>
   <g id="patch_195">
    <path d="M 370.960888 273.312 
L 372.571432 273.312 
L 372.571432 253.419907 
L 370.960888 253.419907 
z
" clip-path="url(#p074c5cafbb)" style="fill: #1f77b4"/>
   </g>
   <g id="patch_196">
    <path d="M 372.571432 273.312 
L 374.181976 273.312 
L 374.181976 243.105488 
L 372.571432 243.105488 
z
" clip-path="url(#p074c5cafbb)" style="fill: #1f77b4"/>
   </g>
   <g id="patch_197">
    <path d="M 374.181976 273.312 
L 375.79252 273.312 
L 375.79252 260.050605 
L 374.181976 260.050605 
z
" clip-path="url(#p074c5cafbb)" style="fill: #1f77b4"/>
   </g>
   <g id="patch_198">
    <path d="M 375.79252 273.312 
L 377.403064 273.312 
L 377.403064 260.050605 
L 375.79252 260.050605 
z
" clip-path="url(#p074c5cafbb)" style="fill: #1f77b4"/>
   </g>
   <g id="patch_199">
    <path d="M 377.403064 273.312 
L 379.013608 273.312 
L 379.013608 254.893395 
L 377.403064 254.893395 
z
" clip-path="url(#p074c5cafbb)" style="fill: #1f77b4"/>
   </g>
   <g id="patch_200">
    <path d="M 379.013608 273.312 
L 380.624151 273.312 
L 380.624151 259.31386 
L 379.013608 259.31386 
z
" clip-path="url(#p074c5cafbb)" style="fill: #1f77b4"/>
   </g>
   <g id="patch_201">
    <path d="M 380.624151 273.312 
L 382.234695 273.312 
L 382.234695 262.260837 
L 380.624151 262.260837 
z
" clip-path="url(#p074c5cafbb)" style="fill: #1f77b4"/>
   </g>
   <g id="patch_202">
    <path d="M 382.234695 273.312 
L 383.845239 273.312 
L 383.845239 270.365023 
L 382.234695 270.365023 
z
" clip-path="url(#p074c5cafbb)" style="fill: #1f77b4"/>
   </g>
   <g id="matplotlib.axis_1">
    <g id="xtick_1">
     <g id="line2d_1">
      <defs>
       <path id="m99027af018" d="M 0 0 
L 0 3.5 
" style="stroke: #000000; stroke-width: 0.8"/>
      </defs>
      <g>
       <use xlink:href="#m99027af018" x="60.013977" y="273.312" style="stroke: #000000; stroke-width: 0.8"/>
      </g>
     </g>
     <g id="text_1">
      <!-- 0.0 -->
      <g transform="translate(52.062415 287.910437)scale(0.1 -0.1)">
       <defs>
        <path id="DejaVuSans-30" d="M 2034 4250 
Q 1547 4250 1301 3770 
Q 1056 3291 1056 2328 
Q 1056 1369 1301 889 
Q 1547 409 2034 409 
Q 2525 409 2770 889 
Q 3016 1369 3016 2328 
Q 3016 3291 2770 3770 
Q 2525 4250 2034 4250 
z
M 2034 4750 
Q 2819 4750 3233 4129 
Q 3647 3509 3647 2328 
Q 3647 1150 3233 529 
Q 2819 -91 2034 -91 
Q 1250 -91 836 529 
Q 422 1150 422 2328 
Q 422 3509 836 4129 
Q 1250 4750 2034 4750 
z
" transform="scale(0.015625)"/>
        <path id="DejaVuSans-2e" d="M 684 794 
L 1344 794 
L 1344 0 
L 684 0 
L 684 794 
z
" transform="scale(0.015625)"/>
       </defs>
       <use xlink:href="#DejaVuSans-30"/>
       <use xlink:href="#DejaVuSans-2e" x="63.623047"/>
       <use xlink:href="#DejaVuSans-30" x="95.410156"/>
      </g>
     </g>
    </g>
    <g id="xtick_2">
     <g id="line2d_2">
      <g>
       <use xlink:href="#m99027af018" x="101.350278" y="273.312" style="stroke: #000000; stroke-width: 0.8"/>
      </g>
     </g>
     <g id="text_2">
      <!-- 0.2 -->
      <g transform="translate(93.398715 287.910437)scale(0.1 -0.1)">
       <defs>
        <path id="DejaVuSans-32" d="M 1228 531 
L 3431 531 
L 3431 0 
L 469 0 
L 469 531 
Q 828 903 1448 1529 
Q 2069 2156 2228 2338 
Q 2531 2678 2651 2914 
Q 2772 3150 2772 3378 
Q 2772 3750 2511 3984 
Q 2250 4219 1831 4219 
Q 1534 4219 1204 4116 
Q 875 4013 500 3803 
L 500 4441 
Q 881 4594 1212 4672 
Q 1544 4750 1819 4750 
Q 2544 4750 2975 4387 
Q 3406 4025 3406 3419 
Q 3406 3131 3298 2873 
Q 3191 2616 2906 2266 
Q 2828 2175 2409 1742 
Q 1991 1309 1228 531 
z
" transform="scale(0.015625)"/>
       </defs>
       <use xlink:href="#DejaVuSans-30"/>
       <use xlink:href="#DejaVuSans-2e" x="63.623047"/>
       <use xlink:href="#DejaVuSans-32" x="95.410156"/>
      </g>
     </g>
    </g>
    <g id="xtick_3">
     <g id="line2d_3">
      <g>
       <use xlink:href="#m99027af018" x="142.686578" y="273.312" style="stroke: #000000; stroke-width: 0.8"/>
      </g>
     </g>
     <g id="text_3">
      <!-- 0.4 -->
      <g transform="translate(134.735016 287.910437)scale(0.1 -0.1)">
       <defs>
        <path id="DejaVuSans-34" d="M 2419 4116 
L 825 1625 
L 2419 1625 
L 2419 4116 
z
M 2253 4666 
L 3047 4666 
L 3047 1625 
L 3713 1625 
L 3713 1100 
L 3047 1100 
L 3047 0 
L 2419 0 
L 2419 1100 
L 313 1100 
L 313 1709 
L 2253 4666 
z
" transform="scale(0.015625)"/>
       </defs>
       <use xlink:href="#DejaVuSans-30"/>
       <use xlink:href="#DejaVuSans-2e" x="63.623047"/>
       <use xlink:href="#DejaVuSans-34" x="95.410156"/>
      </g>
     </g>
    </g>
    <g id="xtick_4">
     <g id="line2d_4">
      <g>
       <use xlink:href="#m99027af018" x="184.022879" y="273.312" style="stroke: #000000; stroke-width: 0.8"/>
      </g>
     </g>
     <g id="text_4">
      <!-- 0.6 -->
      <g transform="translate(176.071316 287.910437)scale(0.1 -0.1)">
       <defs>
        <path id="DejaVuSans-36" d="M 2113 2584 
Q 1688 2584 1439 2293 
Q 1191 2003 1191 1497 
Q 1191 994 1439 701 
Q 1688 409 2113 409 
Q 2538 409 2786 701 
Q 3034 994 3034 1497 
Q 3034 2003 2786 2293 
Q 2538 2584 2113 2584 
z
M 3366 4563 
L 3366 3988 
Q 3128 4100 2886 4159 
Q 2644 4219 2406 4219 
Q 1781 4219 1451 3797 
Q 1122 3375 1075 2522 
Q 1259 2794 1537 2939 
Q 1816 3084 2150 3084 
Q 2853 3084 3261 2657 
Q 3669 2231 3669 1497 
Q 3669 778 3244 343 
Q 2819 -91 2113 -91 
Q 1303 -91 875 529 
Q 447 1150 447 2328 
Q 447 3434 972 4092 
Q 1497 4750 2381 4750 
Q 2619 4750 2861 4703 
Q 3103 4656 3366 4563 
z
" transform="scale(0.015625)"/>
       </defs>
       <use xlink:href="#DejaVuSans-30"/>
       <use xlink:href="#DejaVuSans-2e" x="63.623047"/>
       <use xlink:href="#DejaVuSans-36" x="95.410156"/>
      </g>
     </g>
    </g>
    <g id="xtick_5">
     <g id="line2d_5">
      <g>
       <use xlink:href="#m99027af018" x="225.35918" y="273.312" style="stroke: #000000; stroke-width: 0.8"/>
      </g>
     </g>
     <g id="text_5">
      <!-- 0.8 -->
      <g transform="translate(217.407617 287.910437)scale(0.1 -0.1)">
       <defs>
        <path id="DejaVuSans-38" d="M 2034 2216 
Q 1584 2216 1326 1975 
Q 1069 1734 1069 1313 
Q 1069 891 1326 650 
Q 1584 409 2034 409 
Q 2484 409 2743 651 
Q 3003 894 3003 1313 
Q 3003 1734 2745 1975 
Q 2488 2216 2034 2216 
z
M 1403 2484 
Q 997 2584 770 2862 
Q 544 3141 544 3541 
Q 544 4100 942 4425 
Q 1341 4750 2034 4750 
Q 2731 4750 3128 4425 
Q 3525 4100 3525 3541 
Q 3525 3141 3298 2862 
Q 3072 2584 2669 2484 
Q 3125 2378 3379 2068 
Q 3634 1759 3634 1313 
Q 3634 634 3220 271 
Q 2806 -91 2034 -91 
Q 1263 -91 848 271 
Q 434 634 434 1313 
Q 434 1759 690 2068 
Q 947 2378 1403 2484 
z
M 1172 3481 
Q 1172 3119 1398 2916 
Q 1625 2713 2034 2713 
Q 2441 2713 2670 2916 
Q 2900 3119 2900 3481 
Q 2900 3844 2670 4047 
Q 2441 4250 2034 4250 
Q 1625 4250 1398 4047 
Q 1172 3844 1172 3481 
z
" transform="scale(0.015625)"/>
       </defs>
       <use xlink:href="#DejaVuSans-30"/>
       <use xlink:href="#DejaVuSans-2e" x="63.623047"/>
       <use xlink:href="#DejaVuSans-38" x="95.410156"/>
      </g>
     </g>
    </g>
    <g id="xtick_6">
     <g id="line2d_6">
      <g>
       <use xlink:href="#m99027af018" x="266.69548" y="273.312" style="stroke: #000000; stroke-width: 0.8"/>
      </g>
     </g>
     <g id="text_6">
      <!-- 1.0 -->
      <g transform="translate(258.743918 287.910437)scale(0.1 -0.1)">
       <defs>
        <path id="DejaVuSans-31" d="M 794 531 
L 1825 531 
L 1825 4091 
L 703 3866 
L 703 4441 
L 1819 4666 
L 2450 4666 
L 2450 531 
L 3481 531 
L 3481 0 
L 794 0 
L 794 531 
z
" transform="scale(0.015625)"/>
       </defs>
       <use xlink:href="#DejaVuSans-31"/>
       <use xlink:href="#DejaVuSans-2e" x="63.623047"/>
       <use xlink:href="#DejaVuSans-30" x="95.410156"/>
      </g>
     </g>
    </g>
    <g id="xtick_7">
     <g id="line2d_7">
      <g>
       <use xlink:href="#m99027af018" x="308.031781" y="273.312" style="stroke: #000000; stroke-width: 0.8"/>
      </g>
     </g>
     <g id="text_7">
      <!-- 1.2 -->
      <g transform="translate(300.080218 287.910437)scale(0.1 -0.1)">
       <use xlink:href="#DejaVuSans-31"/>
       <use xlink:href="#DejaVuSans-2e" x="63.623047"/>
       <use xlink:href="#DejaVuSans-32" x="95.410156"/>
      </g>
     </g>
    </g>
    <g id="xtick_8">
     <g id="line2d_8">
      <g>
       <use xlink:href="#m99027af018" x="349.368081" y="273.312" style="stroke: #000000; stroke-width: 0.8"/>
      </g>
     </g>
     <g id="text_8">
      <!-- 1.4 -->
      <g transform="translate(341.416519 287.910437)scale(0.1 -0.1)">
       <use xlink:href="#DejaVuSans-31"/>
       <use xlink:href="#DejaVuSans-2e" x="63.623047"/>
       <use xlink:href="#DejaVuSans-34" x="95.410156"/>
      </g>
     </g>
    </g>
    <g id="xtick_9">
     <g id="line2d_9">
      <g>
       <use xlink:href="#m99027af018" x="390.704382" y="273.312" style="stroke: #000000; stroke-width: 0.8"/>
      </g>
     </g>
     <g id="text_9">
      <!-- 1.6 -->
      <g transform="translate(382.752819 287.910437)scale(0.1 -0.1)">
       <use xlink:href="#DejaVuSans-31"/>
       <use xlink:href="#DejaVuSans-2e" x="63.623047"/>
       <use xlink:href="#DejaVuSans-36" x="95.410156"/>
      </g>
     </g>
    </g>
    <g id="text_10">
     <!-- Angle with normal (rad) -->
     <g transform="translate(163.023281 301.588562)scale(0.1 -0.1)">
      <defs>
       <path id="DejaVuSans-41" d="M 2188 4044 
L 1331 1722 
L 3047 1722 
L 2188 4044 
z
M 1831 4666 
L 2547 4666 
L 4325 0 
L 3669 0 
L 3244 1197 
L 1141 1197 
L 716 0 
L 50 0 
L 1831 4666 
z
" transform="scale(0.015625)"/>
       <path id="DejaVuSans-6e" d="M 3513 2113 
L 3513 0 
L 2938 0 
L 2938 2094 
Q 2938 2591 2744 2837 
Q 2550 3084 2163 3084 
Q 1697 3084 1428 2787 
Q 1159 2491 1159 1978 
L 1159 0 
L 581 0 
L 581 3500 
L 1159 3500 
L 1159 2956 
Q 1366 3272 1645 3428 
Q 1925 3584 2291 3584 
Q 2894 3584 3203 3211 
Q 3513 2838 3513 2113 
z
" transform="scale(0.015625)"/>
       <path id="DejaVuSans-67" d="M 2906 1791 
Q 2906 2416 2648 2759 
Q 2391 3103 1925 3103 
Q 1463 3103 1205 2759 
Q 947 2416 947 1791 
Q 947 1169 1205 825 
Q 1463 481 1925 481 
Q 2391 481 2648 825 
Q 2906 1169 2906 1791 
z
M 3481 434 
Q 3481 -459 3084 -895 
Q 2688 -1331 1869 -1331 
Q 1566 -1331 1297 -1286 
Q 1028 -1241 775 -1147 
L 775 -588 
Q 1028 -725 1275 -790 
Q 1522 -856 1778 -856 
Q 2344 -856 2625 -561 
Q 2906 -266 2906 331 
L 2906 616 
Q 2728 306 2450 153 
Q 2172 0 1784 0 
Q 1141 0 747 490 
Q 353 981 353 1791 
Q 353 2603 747 3093 
Q 1141 3584 1784 3584 
Q 2172 3584 2450 3431 
Q 2728 3278 2906 2969 
L 2906 3500 
L 3481 3500 
L 3481 434 
z
" transform="scale(0.015625)"/>
       <path id="DejaVuSans-6c" d="M 603 4863 
L 1178 4863 
L 1178 0 
L 603 0 
L 603 4863 
z
" transform="scale(0.015625)"/>
       <path id="DejaVuSans-65" d="M 3597 1894 
L 3597 1613 
L 953 1613 
Q 991 1019 1311 708 
Q 1631 397 2203 397 
Q 2534 397 2845 478 
Q 3156 559 3463 722 
L 3463 178 
Q 3153 47 2828 -22 
Q 2503 -91 2169 -91 
Q 1331 -91 842 396 
Q 353 884 353 1716 
Q 353 2575 817 3079 
Q 1281 3584 2069 3584 
Q 2775 3584 3186 3129 
Q 3597 2675 3597 1894 
z
M 3022 2063 
Q 3016 2534 2758 2815 
Q 2500 3097 2075 3097 
Q 1594 3097 1305 2825 
Q 1016 2553 972 2059 
L 3022 2063 
z
" transform="scale(0.015625)"/>
       <path id="DejaVuSans-20" transform="scale(0.015625)"/>
       <path id="DejaVuSans-77" d="M 269 3500 
L 844 3500 
L 1563 769 
L 2278 3500 
L 2956 3500 
L 3675 769 
L 4391 3500 
L 4966 3500 
L 4050 0 
L 3372 0 
L 2619 2869 
L 1863 0 
L 1184 0 
L 269 3500 
z
" transform="scale(0.015625)"/>
       <path id="DejaVuSans-69" d="M 603 3500 
L 1178 3500 
L 1178 0 
L 603 0 
L 603 3500 
z
M 603 4863 
L 1178 4863 
L 1178 4134 
L 603 4134 
L 603 4863 
z
" transform="scale(0.015625)"/>
       <path id="DejaVuSans-74" d="M 1172 4494 
L 1172 3500 
L 2356 3500 
L 2356 3053 
L 1172 3053 
L 1172 1153 
Q 1172 725 1289 603 
Q 1406 481 1766 481 
L 2356 481 
L 2356 0 
L 1766 0 
Q 1100 0 847 248 
Q 594 497 594 1153 
L 594 3053 
L 172 3053 
L 172 3500 
L 594 3500 
L 594 4494 
L 1172 4494 
z
" transform="scale(0.015625)"/>
       <path id="DejaVuSans-68" d="M 3513 2113 
L 3513 0 
L 2938 0 
L 2938 2094 
Q 2938 2591 2744 2837 
Q 2550 3084 2163 3084 
Q 1697 3084 1428 2787 
Q 1159 2491 1159 1978 
L 1159 0 
L 581 0 
L 581 4863 
L 1159 4863 
L 1159 2956 
Q 1366 3272 1645 3428 
Q 1925 3584 2291 3584 
Q 2894 3584 3203 3211 
Q 3513 2838 3513 2113 
z
" transform="scale(0.015625)"/>
       <path id="DejaVuSans-6f" d="M 1959 3097 
Q 1497 3097 1228 2736 
Q 959 2375 959 1747 
Q 959 1119 1226 758 
Q 1494 397 1959 397 
Q 2419 397 2687 759 
Q 2956 1122 2956 1747 
Q 2956 2369 2687 2733 
Q 2419 3097 1959 3097 
z
M 1959 3584 
Q 2709 3584 3137 3096 
Q 3566 2609 3566 1747 
Q 3566 888 3137 398 
Q 2709 -91 1959 -91 
Q 1206 -91 779 398 
Q 353 888 353 1747 
Q 353 2609 779 3096 
Q 1206 3584 1959 3584 
z
" transform="scale(0.015625)"/>
       <path id="DejaVuSans-72" d="M 2631 2963 
Q 2534 3019 2420 3045 
Q 2306 3072 2169 3072 
Q 1681 3072 1420 2755 
Q 1159 2438 1159 1844 
L 1159 0 
L 581 0 
L 581 3500 
L 1159 3500 
L 1159 2956 
Q 1341 3275 1631 3429 
Q 1922 3584 2338 3584 
Q 2397 3584 2469 3576 
Q 2541 3569 2628 3553 
L 2631 2963 
z
" transform="scale(0.015625)"/>
       <path id="DejaVuSans-6d" d="M 3328 2828 
Q 3544 3216 3844 3400 
Q 4144 3584 4550 3584 
Q 5097 3584 5394 3201 
Q 5691 2819 5691 2113 
L 5691 0 
L 5113 0 
L 5113 2094 
Q 5113 2597 4934 2840 
Q 4756 3084 4391 3084 
Q 3944 3084 3684 2787 
Q 3425 2491 3425 1978 
L 3425 0 
L 2847 0 
L 2847 2094 
Q 2847 2600 2669 2842 
Q 2491 3084 2119 3084 
Q 1678 3084 1418 2786 
Q 1159 2488 1159 1978 
L 1159 0 
L 581 0 
L 581 3500 
L 1159 3500 
L 1159 2956 
Q 1356 3278 1631 3431 
Q 1906 3584 2284 3584 
Q 2666 3584 2933 3390 
Q 3200 3197 3328 2828 
z
" transform="scale(0.015625)"/>
       <path id="DejaVuSans-61" d="M 2194 1759 
Q 1497 1759 1228 1600 
Q 959 1441 959 1056 
Q 959 750 1161 570 
Q 1363 391 1709 391 
Q 2188 391 2477 730 
Q 2766 1069 2766 1631 
L 2766 1759 
L 2194 1759 
z
M 3341 1997 
L 3341 0 
L 2766 0 
L 2766 531 
Q 2569 213 2275 61 
Q 1981 -91 1556 -91 
Q 1019 -91 701 211 
Q 384 513 384 1019 
Q 384 1609 779 1909 
Q 1175 2209 1959 2209 
L 2766 2209 
L 2766 2266 
Q 2766 2663 2505 2880 
Q 2244 3097 1772 3097 
Q 1472 3097 1187 3025 
Q 903 2953 641 2809 
L 641 3341 
Q 956 3463 1253 3523 
Q 1550 3584 1831 3584 
Q 2591 3584 2966 3190 
Q 3341 2797 3341 1997 
z
" transform="scale(0.015625)"/>
       <path id="DejaVuSans-28" d="M 1984 4856 
Q 1566 4138 1362 3434 
Q 1159 2731 1159 2009 
Q 1159 1288 1364 580 
Q 1569 -128 1984 -844 
L 1484 -844 
Q 1016 -109 783 600 
Q 550 1309 550 2009 
Q 550 2706 781 3412 
Q 1013 4119 1484 4856 
L 1984 4856 
z
" transform="scale(0.015625)"/>
       <path id="DejaVuSans-64" d="M 2906 2969 
L 2906 4863 
L 3481 4863 
L 3481 0 
L 2906 0 
L 2906 525 
Q 2725 213 2448 61 
Q 2172 -91 1784 -91 
Q 1150 -91 751 415 
Q 353 922 353 1747 
Q 353 2572 751 3078 
Q 1150 3584 1784 3584 
Q 2172 3584 2448 3432 
Q 2725 3281 2906 2969 
z
M 947 1747 
Q 947 1113 1208 752 
Q 1469 391 1925 391 
Q 2381 391 2643 752 
Q 2906 1113 2906 1747 
Q 2906 2381 2643 2742 
Q 2381 3103 1925 3103 
Q 1469 3103 1208 2742 
Q 947 2381 947 1747 
z
" transform="scale(0.015625)"/>
       <path id="DejaVuSans-29" d="M 513 4856 
L 1013 4856 
Q 1481 4119 1714 3412 
Q 1947 2706 1947 2009 
Q 1947 1309 1714 600 
Q 1481 -109 1013 -844 
L 513 -844 
Q 928 -128 1133 580 
Q 1338 1288 1338 2009 
Q 1338 2731 1133 3434 
Q 928 4138 513 4856 
z
" transform="scale(0.015625)"/>
      </defs>
      <use xlink:href="#DejaVuSans-41"/>
      <use xlink:href="#DejaVuSans-6e" x="68.408203"/>
      <use xlink:href="#DejaVuSans-67" x="131.787109"/>
      <use xlink:href="#DejaVuSans-6c" x="195.263672"/>
      <use xlink:href="#DejaVuSans-65" x="223.046875"/>
      <use xlink:href="#DejaVuSans-20" x="284.570312"/>
      <use xlink:href="#DejaVuSans-77" x="316.357422"/>
      <use xlink:href="#DejaVuSans-69" x="398.144531"/>
      <use xlink:href="#DejaVuSans-74" x="425.927734"/>
      <use xlink:href="#DejaVuSans-68" x="465.136719"/>
      <use xlink:href="#DejaVuSans-20" x="528.515625"/>
      <use xlink:href="#DejaVuSans-6e" x="560.302734"/>
      <use xlink:href="#DejaVuSans-6f" x="623.681641"/>
      <use xlink:href="#DejaVuSans-72" x="684.863281"/>
      <use xlink:href="#DejaVuSans-6d" x="724.226562"/>
      <use xlink:href="#DejaVuSans-61" x="821.638672"/>
      <use xlink:href="#DejaVuSans-6c" x="882.917969"/>
      <use xlink:href="#DejaVuSans-20" x="910.701172"/>
      <use xlink:href="#DejaVuSans-28" x="942.488281"/>
      <use xlink:href="#DejaVuSans-72" x="981.501953"/>
      <use xlink:href="#DejaVuSans-61" x="1022.615234"/>
      <use xlink:href="#DejaVuSans-64" x="1083.894531"/>
      <use xlink:href="#DejaVuSans-29" x="1147.371094"/>
     </g>
    </g>
   </g>
   <g id="matplotlib.axis_2">
    <g id="ytick_1">
     <g id="line2d_10">
      <defs>
       <path id="m6d318a5975" d="M 0 0 
L -3.5 0 
" style="stroke: #000000; stroke-width: 0.8"/>
      </defs>
      <g>
       <use xlink:href="#m6d318a5975" x="43.78125" y="273.312" style="stroke: #000000; stroke-width: 0.8"/>
      </g>
     </g>
     <g id="text_11">
      <!-- 0.0 -->
      <g transform="translate(20.878125 277.111219)scale(0.1 -0.1)">
       <use xlink:href="#DejaVuSans-30"/>
       <use xlink:href="#DejaVuSans-2e" x="63.623047"/>
       <use xlink:href="#DejaVuSans-30" x="95.410156"/>
      </g>
     </g>
    </g>
    <g id="ytick_2">
     <g id="line2d_11">
      <g>
       <use xlink:href="#m6d318a5975" x="43.78125" y="227.383987" style="stroke: #000000; stroke-width: 0.8"/>
      </g>
     </g>
     <g id="text_12">
      <!-- 0.2 -->
      <g transform="translate(20.878125 231.183206)scale(0.1 -0.1)">
       <use xlink:href="#DejaVuSans-30"/>
       <use xlink:href="#DejaVuSans-2e" x="63.623047"/>
       <use xlink:href="#DejaVuSans-32" x="95.410156"/>
      </g>
     </g>
    </g>
    <g id="ytick_3">
     <g id="line2d_12">
      <g>
       <use xlink:href="#m6d318a5975" x="43.78125" y="181.455974" style="stroke: #000000; stroke-width: 0.8"/>
      </g>
     </g>
     <g id="text_13">
      <!-- 0.4 -->
      <g transform="translate(20.878125 185.255193)scale(0.1 -0.1)">
       <use xlink:href="#DejaVuSans-30"/>
       <use xlink:href="#DejaVuSans-2e" x="63.623047"/>
       <use xlink:href="#DejaVuSans-34" x="95.410156"/>
      </g>
     </g>
    </g>
    <g id="ytick_4">
     <g id="line2d_13">
      <g>
       <use xlink:href="#m6d318a5975" x="43.78125" y="135.527961" style="stroke: #000000; stroke-width: 0.8"/>
      </g>
     </g>
     <g id="text_14">
      <!-- 0.6 -->
      <g transform="translate(20.878125 139.32718)scale(0.1 -0.1)">
       <use xlink:href="#DejaVuSans-30"/>
       <use xlink:href="#DejaVuSans-2e" x="63.623047"/>
       <use xlink:href="#DejaVuSans-36" x="95.410156"/>
      </g>
     </g>
    </g>
    <g id="ytick_5">
     <g id="line2d_14">
      <g>
       <use xlink:href="#m6d318a5975" x="43.78125" y="89.599948" style="stroke: #000000; stroke-width: 0.8"/>
      </g>
     </g>
     <g id="text_15">
      <!-- 0.8 -->
      <g transform="translate(20.878125 93.399167)scale(0.1 -0.1)">
       <use xlink:href="#DejaVuSans-30"/>
       <use xlink:href="#DejaVuSans-2e" x="63.623047"/>
       <use xlink:href="#DejaVuSans-38" x="95.410156"/>
      </g>
     </g>
    </g>
    <g id="ytick_6">
     <g id="line2d_15">
      <g>
       <use xlink:href="#m6d318a5975" x="43.78125" y="43.671936" style="stroke: #000000; stroke-width: 0.8"/>
      </g>
     </g>
     <g id="text_16">
      <!-- 1.0 -->
      <g transform="translate(20.878125 47.471154)scale(0.1 -0.1)">
       <use xlink:href="#DejaVuSans-31"/>
       <use xlink:href="#DejaVuSans-2e" x="63.623047"/>
       <use xlink:href="#DejaVuSans-30" x="95.410156"/>
      </g>
     </g>
    </g>
    <g id="text_17">
     <!-- Probability density -->
     <g transform="translate(14.798438 186.606781)rotate(-90)scale(0.1 -0.1)">
      <defs>
       <path id="DejaVuSans-50" d="M 1259 4147 
L 1259 2394 
L 2053 2394 
Q 2494 2394 2734 2622 
Q 2975 2850 2975 3272 
Q 2975 3691 2734 3919 
Q 2494 4147 2053 4147 
L 1259 4147 
z
M 628 4666 
L 2053 4666 
Q 2838 4666 3239 4311 
Q 3641 3956 3641 3272 
Q 3641 2581 3239 2228 
Q 2838 1875 2053 1875 
L 1259 1875 
L 1259 0 
L 628 0 
L 628 4666 
z
" transform="scale(0.015625)"/>
       <path id="DejaVuSans-62" d="M 3116 1747 
Q 3116 2381 2855 2742 
Q 2594 3103 2138 3103 
Q 1681 3103 1420 2742 
Q 1159 2381 1159 1747 
Q 1159 1113 1420 752 
Q 1681 391 2138 391 
Q 2594 391 2855 752 
Q 3116 1113 3116 1747 
z
M 1159 2969 
Q 1341 3281 1617 3432 
Q 1894 3584 2278 3584 
Q 2916 3584 3314 3078 
Q 3713 2572 3713 1747 
Q 3713 922 3314 415 
Q 2916 -91 2278 -91 
Q 1894 -91 1617 61 
Q 1341 213 1159 525 
L 1159 0 
L 581 0 
L 581 4863 
L 1159 4863 
L 1159 2969 
z
" transform="scale(0.015625)"/>
       <path id="DejaVuSans-79" d="M 2059 -325 
Q 1816 -950 1584 -1140 
Q 1353 -1331 966 -1331 
L 506 -1331 
L 506 -850 
L 844 -850 
Q 1081 -850 1212 -737 
Q 1344 -625 1503 -206 
L 1606 56 
L 191 3500 
L 800 3500 
L 1894 763 
L 2988 3500 
L 3597 3500 
L 2059 -325 
z
" transform="scale(0.015625)"/>
       <path id="DejaVuSans-73" d="M 2834 3397 
L 2834 2853 
Q 2591 2978 2328 3040 
Q 2066 3103 1784 3103 
Q 1356 3103 1142 2972 
Q 928 2841 928 2578 
Q 928 2378 1081 2264 
Q 1234 2150 1697 2047 
L 1894 2003 
Q 2506 1872 2764 1633 
Q 3022 1394 3022 966 
Q 3022 478 2636 193 
Q 2250 -91 1575 -91 
Q 1294 -91 989 -36 
Q 684 19 347 128 
L 347 722 
Q 666 556 975 473 
Q 1284 391 1588 391 
Q 1994 391 2212 530 
Q 2431 669 2431 922 
Q 2431 1156 2273 1281 
Q 2116 1406 1581 1522 
L 1381 1569 
Q 847 1681 609 1914 
Q 372 2147 372 2553 
Q 372 3047 722 3315 
Q 1072 3584 1716 3584 
Q 2034 3584 2315 3537 
Q 2597 3491 2834 3397 
z
" transform="scale(0.015625)"/>
      </defs>
      <use xlink:href="#DejaVuSans-50"/>
      <use xlink:href="#DejaVuSans-72" x="58.552734"/>
      <use xlink:href="#DejaVuSans-6f" x="97.416016"/>
      <use xlink:href="#DejaVuSans-62" x="158.597656"/>
      <use xlink:href="#DejaVuSans-61" x="222.074219"/>
      <use xlink:href="#DejaVuSans-62" x="283.353516"/>
      <use xlink:href="#DejaVuSans-69" x="346.830078"/>
      <use xlink:href="#DejaVuSans-6c" x="374.613281"/>
      <use xlink:href="#DejaVuSans-69" x="402.396484"/>
      <use xlink:href="#DejaVuSans-74" x="430.179688"/>
      <use xlink:href="#DejaVuSans-79" x="469.388672"/>
      <use xlink:href="#DejaVuSans-20" x="528.568359"/>
      <use xlink:href="#DejaVuSans-64" x="560.355469"/>
      <use xlink:href="#DejaVuSans-65" x="623.832031"/>
      <use xlink:href="#DejaVuSans-6e" x="685.355469"/>
      <use xlink:href="#DejaVuSans-73" x="748.734375"/>
      <use xlink:href="#DejaVuSans-69" x="800.833984"/>
      <use xlink:href="#DejaVuSans-74" x="828.617188"/>
      <use xlink:href="#DejaVuSans-79" x="867.826172"/>
     </g>
    </g>
   </g>
   <g id="line2d_16">
    <path d="M 60.013977 273.312 
L 79.837728 229.530055 
L 90.237073 207.104659 
L 99.01152 188.695287 
L 106.811029 172.839188 
L 113.960578 158.804813 
L 120.460169 146.519994 
L 126.63478 135.313102 
L 132.484411 125.149738 
L 138.009063 115.98626 
L 143.208736 107.772005 
L 148.408408 99.976757 
L 153.283101 93.066815 
L 157.832814 86.979024 
L 162.382528 81.252346 
L 166.932241 75.897881 
L 171.156975 71.268242 
L 175.381709 66.976233 
L 179.281463 63.320261 
L 183.181217 59.963297 
L 187.080972 56.91012 
L 190.655746 54.381964 
L 194.230521 52.115757 
L 197.805296 50.11421 
L 201.380071 48.379718 
L 204.629866 47.036401 
L 207.879661 45.916839 
L 211.129456 45.022137 
L 214.379252 44.353181 
L 217.629047 43.910633 
L 220.878842 43.694929 
L 224.128637 43.706284 
L 227.378433 43.944685 
L 230.628228 44.409898 
L 233.878023 45.101461 
L 237.127818 46.018693 
L 240.377614 47.160684 
L 243.627409 48.526307 
L 247.202184 50.285167 
L 250.776958 52.310878 
L 254.351733 54.601015 
L 257.926508 57.152839 
L 261.501283 59.963297 
L 265.401037 63.320261 
L 269.300791 66.976233 
L 273.200546 70.926006 
L 277.425279 75.529941 
L 281.650013 80.464384 
L 286.199727 86.138551 
L 290.74944 92.175461 
L 295.624133 99.032806 
L 300.498826 106.27787 
L 305.698498 114.415114 
L 311.22315 123.501129 
L 316.747802 133.015206 
L 322.597433 143.525276 
L 328.772044 155.069575 
L 335.596614 168.318311 
L 342.746164 182.687878 
L 350.870652 199.539361 
L 359.970079 218.94903 
L 371.019383 243.069485 
L 384.668523 273.312 
L 384.668523 273.312 
" clip-path="url(#p074c5cafbb)" style="fill: none; stroke: #ff7f0e; stroke-width: 1.5; stroke-linecap: square"/>
   </g>
   <g id="patch_203">
    <path d="M 43.78125 273.312 
L 43.78125 7.2 
" style="fill: none; stroke: #000000; stroke-width: 0.8; stroke-linejoin: miter; stroke-linecap: square"/>
   </g>
   <g id="patch_204">
    <path d="M 400.90125 273.312 
L 400.90125 7.2 
" style="fill: none; stroke: #000000; stroke-width: 0.8; stroke-linejoin: miter; stroke-linecap: square"/>
   </g>
   <g id="patch_205">
    <path d="M 43.78125 273.312 
L 400.90125 273.312 
" style="fill: none; stroke: #000000; stroke-width: 0.8; stroke-linejoin: miter; stroke-linecap: square"/>
   </g>
   <g id="patch_206">
    <path d="M 43.78125 7.2 
L 400.90125 7.2 
" style="fill: none; stroke: #000000; stroke-width: 0.8; stroke-linejoin: miter; stroke-linecap: square"/>
   </g>
  </g>
 </g>
 <defs>
  <clipPath id="p074c5cafbb">
   <rect x="43.78125" y="7.2" width="357.12" height="266.112"/>
  </clipPath>
 </defs>
</svg>
