<?xml version="1.0" encoding="utf-8" standalone="no"?>
<!DOCTYPE svg PUBLIC "-//W3C//DTD SVG 1.1//EN"
  "http://www.w3.org/Graphics/SVG/1.1/DTD/svg11.dtd">
<svg xmlns:xlink="http://www.w3.org/1999/xlink" width="408.10125pt" height="310.86825pt" viewBox="0 0 408.10125 310.86825" xmlns="http://www.w3.org/2000/svg" version="1.1">
 <metadata>
  <rdf:RDF xmlns:dc="http://purl.org/dc/elements/1.1/" xmlns:cc="http://creativecommons.org/ns#" xmlns:rdf="http://www.w3.org/1999/02/22-rdf-syntax-ns#">
   <cc:Work>
    <dc:type rdf:resource="http://purl.org/dc/dcmitype/StillImage"/>
    <dc:date>2022-05-02T21:30:31.148833</dc:date>
    <dc:format>image/svg+xml</dc:format>
    <dc:creator>
     <cc:Agent>
      <dc:title>Matplotlib v3.5.1, https://matplotlib.org/</dc:title>
     </cc:Agent>
    </dc:creator>
   </cc:Work>
  </rdf:RDF>
 </metadata>
 <defs>
  <style type="text/css">*{stroke-linejoin: round; stroke-linecap: butt}</style>
 </defs>
 <g id="figure_1">
  <g id="patch_1">
   <path d="M 0 310.86825 
L 408.10125 310.86825 
L 408.10125 0 
L 0 0 
z
" style="fill: #ffffff"/>
  </g>
  <g id="axes_1">
   <g id="patch_2">
    <path d="M 43.78125 273.312 
L 400.90125 273.312 
L 400.90125 7.2 
L 43.78125 7.2 
z
" style="fill: #ffffff"/>
   </g>
   <g id="patch_3">
    <path d="M 62.374899 273.312 
L 63.986351 273.312 
L 63.986351 270.970753 
L 62.374899 270.970753 
z
" clip-path="url(#pd4e4fe257a)" style="fill: #1f77b4"/>
   </g>
   <g id="patch_4">
    <path d="M 63.986351 273.312 
L 65.597802 273.312 
L 65.597802 271.556065 
L 63.986351 271.556065 
z
" clip-path="url(#pd4e4fe257a)" style="fill: #1f77b4"/>
   </g>
   <g id="patch_5">
    <path d="M 65.597802 273.312 
L 67.209254 273.312 
L 67.209254 270.970753 
L 65.597802 270.970753 
z
" clip-path="url(#pd4e4fe257a)" style="fill: #1f77b4"/>
   </g>
   <g id="patch_6">
    <path d="M 67.209254 273.312 
L 68.820706 273.312 
L 68.820706 268.044194 
L 67.209254 268.044194 
z
" clip-path="url(#pd4e4fe257a)" style="fill: #1f77b4"/>
   </g>
   <g id="patch_7">
    <path d="M 68.820706 273.312 
L 70.432157 273.312 
L 70.432157 263.3617 
L 68.820706 263.3617 
z
" clip-path="url(#pd4e4fe257a)" style="fill: #1f77b4"/>
   </g>
   <g id="patch_8">
    <path d="M 70.432157 273.312 
L 72.043609 273.312 
L 72.043609 265.702947 
L 70.432157 265.702947 
z
" clip-path="url(#pd4e4fe257a)" style="fill: #1f77b4"/>
   </g>
   <g id="patch_9">
    <path d="M 72.043609 273.312 
L 73.655061 273.312 
L 73.655061 263.947012 
L 72.043609 263.947012 
z
" clip-path="url(#pd4e4fe257a)" style="fill: #1f77b4"/>
   </g>
   <g id="patch_10">
    <path d="M 73.655061 273.312 
L 75.266512 273.312 
L 75.266512 263.947012 
L 73.655061 263.947012 
z
" clip-path="url(#pd4e4fe257a)" style="fill: #1f77b4"/>
   </g>
   <g id="patch_11">
    <path d="M 75.266512 273.312 
L 76.877964 273.312 
L 76.877964 256.337958 
L 75.266512 256.337958 
z
" clip-path="url(#pd4e4fe257a)" style="fill: #1f77b4"/>
   </g>
   <g id="patch_12">
    <path d="M 76.877964 273.312 
L 78.489416 273.312 
L 78.489416 263.947012 
L 76.877964 263.947012 
z
" clip-path="url(#pd4e4fe257a)" style="fill: #1f77b4"/>
   </g>
   <g id="patch_13">
    <path d="M 78.489416 273.312 
L 80.100867 273.312 
L 80.100867 255.167335 
L 78.489416 255.167335 
z
" clip-path="url(#pd4e4fe257a)" style="fill: #1f77b4"/>
   </g>
   <g id="patch_14">
    <path d="M 80.100867 273.312 
L 81.712319 273.312 
L 81.712319 259.849829 
L 80.100867 259.849829 
z
" clip-path="url(#pd4e4fe257a)" style="fill: #1f77b4"/>
   </g>
   <g id="patch_15">
    <path d="M 81.712319 273.312 
L 83.323771 273.312 
L 83.323771 258.679206 
L 81.712319 258.679206 
z
" clip-path="url(#pd4e4fe257a)" style="fill: #1f77b4"/>
   </g>
   <g id="patch_16">
    <path d="M 83.323771 273.312 
L 84.935222 273.312 
L 84.935222 255.167335 
L 83.323771 255.167335 
z
" clip-path="url(#pd4e4fe257a)" style="fill: #1f77b4"/>
   </g>
   <g id="patch_17">
    <path d="M 84.935222 273.312 
L 86.546674 273.312 
L 86.546674 254.582023 
L 84.935222 254.582023 
z
" clip-path="url(#pd4e4fe257a)" style="fill: #1f77b4"/>
   </g>
   <g id="patch_18">
    <path d="M 86.546674 273.312 
L 88.158126 273.312 
L 88.158126 252.826088 
L 86.546674 252.826088 
z
" clip-path="url(#pd4e4fe257a)" style="fill: #1f77b4"/>
   </g>
   <g id="patch_19">
    <path d="M 88.158126 273.312 
L 89.769577 273.312 
L 89.769577 252.826088 
L 88.158126 252.826088 
z
" clip-path="url(#pd4e4fe257a)" style="fill: #1f77b4"/>
   </g>
   <g id="patch_20">
    <path d="M 89.769577 273.312 
L 91.381029 273.312 
L 91.381029 251.070152 
L 89.769577 251.070152 
z
" clip-path="url(#pd4e4fe257a)" style="fill: #1f77b4"/>
   </g>
   <g id="patch_21">
    <path d="M 91.381029 273.312 
L 92.99248 273.312 
L 92.99248 252.240776 
L 91.381029 252.240776 
z
" clip-path="url(#pd4e4fe257a)" style="fill: #1f77b4"/>
   </g>
   <g id="patch_22">
    <path d="M 92.99248 273.312 
L 94.603932 273.312 
L 94.603932 252.826088 
L 92.99248 252.826088 
z
" clip-path="url(#pd4e4fe257a)" style="fill: #1f77b4"/>
   </g>
   <g id="patch_23">
    <path d="M 94.603932 273.312 
L 96.215384 273.312 
L 96.215384 249.899529 
L 94.603932 249.899529 
z
" clip-path="url(#pd4e4fe257a)" style="fill: #1f77b4"/>
   </g>
   <g id="patch_24">
    <path d="M 96.215384 273.312 
L 97.826835 273.312 
L 97.826835 246.387658 
L 96.215384 246.387658 
z
" clip-path="url(#pd4e4fe257a)" style="fill: #1f77b4"/>
   </g>
   <g id="patch_25">
    <path d="M 97.826835 273.312 
L 99.438287 273.312 
L 99.438287 251.655464 
L 97.826835 251.655464 
z
" clip-path="url(#pd4e4fe257a)" style="fill: #1f77b4"/>
   </g>
   <g id="patch_26">
    <path d="M 99.438287 273.312 
L 101.049739 273.312 
L 101.049739 242.875788 
L 99.438287 242.875788 
z
" clip-path="url(#pd4e4fe257a)" style="fill: #1f77b4"/>
   </g>
   <g id="patch_27">
    <path d="M 101.049739 273.312 
L 102.66119 273.312 
L 102.66119 245.217035 
L 101.049739 245.217035 
z
" clip-path="url(#pd4e4fe257a)" style="fill: #1f77b4"/>
   </g>
   <g id="patch_28">
    <path d="M 102.66119 273.312 
L 104.272642 273.312 
L 104.272642 243.461099 
L 102.66119 243.461099 
z
" clip-path="url(#pd4e4fe257a)" style="fill: #1f77b4"/>
   </g>
   <g id="patch_29">
    <path d="M 104.272642 273.312 
L 105.884094 273.312 
L 105.884094 249.899529 
L 104.272642 249.899529 
z
" clip-path="url(#pd4e4fe257a)" style="fill: #1f77b4"/>
   </g>
   <g id="patch_30">
    <path d="M 105.884094 273.312 
L 107.495545 273.312 
L 107.495545 239.363917 
L 105.884094 239.363917 
z
" clip-path="url(#pd4e4fe257a)" style="fill: #1f77b4"/>
   </g>
   <g id="patch_31">
    <path d="M 107.495545 273.312 
L 109.106997 273.312 
L 109.106997 238.193293 
L 107.495545 238.193293 
z
" clip-path="url(#pd4e4fe257a)" style="fill: #1f77b4"/>
   </g>
   <g id="patch_32">
    <path d="M 109.106997 273.312 
L 110.718449 273.312 
L 110.718449 235.266734 
L 109.106997 235.266734 
z
" clip-path="url(#pd4e4fe257a)" style="fill: #1f77b4"/>
   </g>
   <g id="patch_33">
    <path d="M 110.718449 273.312 
L 112.3299 273.312 
L 112.3299 228.828305 
L 110.718449 228.828305 
z
" clip-path="url(#pd4e4fe257a)" style="fill: #1f77b4"/>
   </g>
   <g id="patch_34">
    <path d="M 112.3299 273.312 
L 113.941352 273.312 
L 113.941352 238.193293 
L 112.3299 238.193293 
z
" clip-path="url(#pd4e4fe257a)" style="fill: #1f77b4"/>
   </g>
   <g id="patch_35">
    <path d="M 113.941352 273.312 
L 115.552804 273.312 
L 115.552804 231.169552 
L 113.941352 231.169552 
z
" clip-path="url(#pd4e4fe257a)" style="fill: #1f77b4"/>
   </g>
   <g id="patch_36">
    <path d="M 115.552804 273.312 
L 117.164255 273.312 
L 117.164255 218.878005 
L 115.552804 218.878005 
z
" clip-path="url(#pd4e4fe257a)" style="fill: #1f77b4"/>
   </g>
   <g id="patch_37">
    <path d="M 117.164255 273.312 
L 118.775707 273.312 
L 118.775707 234.681423 
L 117.164255 234.681423 
z
" clip-path="url(#pd4e4fe257a)" style="fill: #1f77b4"/>
   </g>
   <g id="patch_38">
    <path d="M 118.775707 273.312 
L 120.387159 273.312 
L 120.387159 232.925487 
L 118.775707 232.925487 
z
" clip-path="url(#pd4e4fe257a)" style="fill: #1f77b4"/>
   </g>
   <g id="patch_39">
    <path d="M 120.387159 273.312 
L 121.99861 273.312 
L 121.99861 231.169552 
L 120.387159 231.169552 
z
" clip-path="url(#pd4e4fe257a)" style="fill: #1f77b4"/>
   </g>
   <g id="patch_40">
    <path d="M 121.99861 273.312 
L 123.610062 273.312 
L 123.610062 229.998928 
L 121.99861 229.998928 
z
" clip-path="url(#pd4e4fe257a)" style="fill: #1f77b4"/>
   </g>
   <g id="patch_41">
    <path d="M 123.610062 273.312 
L 125.221514 273.312 
L 125.221514 238.778605 
L 123.610062 238.778605 
z
" clip-path="url(#pd4e4fe257a)" style="fill: #1f77b4"/>
   </g>
   <g id="patch_42">
    <path d="M 125.221514 273.312 
L 126.832965 273.312 
L 126.832965 218.292693 
L 125.221514 218.292693 
z
" clip-path="url(#pd4e4fe257a)" style="fill: #1f77b4"/>
   </g>
   <g id="patch_43">
    <path d="M 126.832965 273.312 
L 128.444417 273.312 
L 128.444417 237.607982 
L 126.832965 237.607982 
z
" clip-path="url(#pd4e4fe257a)" style="fill: #1f77b4"/>
   </g>
   <g id="patch_44">
    <path d="M 128.444417 273.312 
L 130.055869 273.312 
L 130.055869 222.389875 
L 128.444417 222.389875 
z
" clip-path="url(#pd4e4fe257a)" style="fill: #1f77b4"/>
   </g>
   <g id="patch_45">
    <path d="M 130.055869 273.312 
L 131.66732 273.312 
L 131.66732 220.63394 
L 130.055869 220.63394 
z
" clip-path="url(#pd4e4fe257a)" style="fill: #1f77b4"/>
   </g>
   <g id="patch_46">
    <path d="M 131.66732 273.312 
L 133.278772 273.312 
L 133.278772 218.878005 
L 131.66732 218.878005 
z
" clip-path="url(#pd4e4fe257a)" style="fill: #1f77b4"/>
   </g>
   <g id="patch_47">
    <path d="M 133.278772 273.312 
L 134.890224 273.312 
L 134.890224 226.487058 
L 133.278772 226.487058 
z
" clip-path="url(#pd4e4fe257a)" style="fill: #1f77b4"/>
   </g>
   <g id="patch_48">
    <path d="M 134.890224 273.312 
L 136.501675 273.312 
L 136.501675 228.242993 
L 134.890224 228.242993 
z
" clip-path="url(#pd4e4fe257a)" style="fill: #1f77b4"/>
   </g>
   <g id="patch_49">
    <path d="M 136.501675 273.312 
L 138.113127 273.312 
L 138.113127 223.560499 
L 136.501675 223.560499 
z
" clip-path="url(#pd4e4fe257a)" style="fill: #1f77b4"/>
   </g>
   <g id="patch_50">
    <path d="M 138.113127 273.312 
L 139.724579 273.312 
L 139.724579 211.268952 
L 138.113127 211.268952 
z
" clip-path="url(#pd4e4fe257a)" style="fill: #1f77b4"/>
   </g>
   <g id="patch_51">
    <path d="M 139.724579 273.312 
L 141.33603 273.312 
L 141.33603 217.707381 
L 139.724579 217.707381 
z
" clip-path="url(#pd4e4fe257a)" style="fill: #1f77b4"/>
   </g>
   <g id="patch_52">
    <path d="M 141.33603 273.312 
L 142.947482 273.312 
L 142.947482 213.024887 
L 141.33603 213.024887 
z
" clip-path="url(#pd4e4fe257a)" style="fill: #1f77b4"/>
   </g>
   <g id="patch_53">
    <path d="M 142.947482 273.312 
L 144.558934 273.312 
L 144.558934 206.001145 
L 142.947482 206.001145 
z
" clip-path="url(#pd4e4fe257a)" style="fill: #1f77b4"/>
   </g>
   <g id="patch_54">
    <path d="M 144.558934 273.312 
L 146.170385 273.312 
L 146.170385 221.804564 
L 144.558934 221.804564 
z
" clip-path="url(#pd4e4fe257a)" style="fill: #1f77b4"/>
   </g>
   <g id="patch_55">
    <path d="M 146.170385 273.312 
L 147.781837 273.312 
L 147.781837 219.463316 
L 146.170385 219.463316 
z
" clip-path="url(#pd4e4fe257a)" style="fill: #1f77b4"/>
   </g>
   <g id="patch_56">
    <path d="M 147.781837 273.312 
L 149.393289 273.312 
L 149.393289 213.024887 
L 147.781837 213.024887 
z
" clip-path="url(#pd4e4fe257a)" style="fill: #1f77b4"/>
   </g>
   <g id="patch_57">
    <path d="M 149.393289 273.312 
L 151.00474 273.312 
L 151.00474 215.366134 
L 149.393289 215.366134 
z
" clip-path="url(#pd4e4fe257a)" style="fill: #1f77b4"/>
   </g>
   <g id="patch_58">
    <path d="M 151.00474 273.312 
L 152.616192 273.312 
L 152.616192 213.024887 
L 151.00474 213.024887 
z
" clip-path="url(#pd4e4fe257a)" style="fill: #1f77b4"/>
   </g>
   <g id="patch_59">
    <path d="M 152.616192 273.312 
L 154.227644 273.312 
L 154.227644 207.171769 
L 152.616192 207.171769 
z
" clip-path="url(#pd4e4fe257a)" style="fill: #1f77b4"/>
   </g>
   <g id="patch_60">
    <path d="M 154.227644 273.312 
L 155.839095 273.312 
L 155.839095 209.513016 
L 154.227644 209.513016 
z
" clip-path="url(#pd4e4fe257a)" style="fill: #1f77b4"/>
   </g>
   <g id="patch_61">
    <path d="M 155.839095 273.312 
L 157.450547 273.312 
L 157.450547 196.050845 
L 155.839095 196.050845 
z
" clip-path="url(#pd4e4fe257a)" style="fill: #1f77b4"/>
   </g>
   <g id="patch_62">
    <path d="M 157.450547 273.312 
L 159.061999 273.312 
L 159.061999 198.977404 
L 157.450547 198.977404 
z
" clip-path="url(#pd4e4fe257a)" style="fill: #1f77b4"/>
   </g>
   <g id="patch_63">
    <path d="M 159.061999 273.312 
L 160.67345 273.312 
L 160.67345 203.074587 
L 159.061999 203.074587 
z
" clip-path="url(#pd4e4fe257a)" style="fill: #1f77b4"/>
   </g>
   <g id="patch_64">
    <path d="M 160.67345 273.312 
L 162.284902 273.312 
L 162.284902 220.048628 
L 160.67345 220.048628 
z
" clip-path="url(#pd4e4fe257a)" style="fill: #1f77b4"/>
   </g>
   <g id="patch_65">
    <path d="M 162.284902 273.312 
L 163.896354 273.312 
L 163.896354 201.318651 
L 162.284902 201.318651 
z
" clip-path="url(#pd4e4fe257a)" style="fill: #1f77b4"/>
   </g>
   <g id="patch_66">
    <path d="M 163.896354 273.312 
L 165.507805 273.312 
L 165.507805 199.562716 
L 163.896354 199.562716 
z
" clip-path="url(#pd4e4fe257a)" style="fill: #1f77b4"/>
   </g>
   <g id="patch_67">
    <path d="M 165.507805 273.312 
L 167.119257 273.312 
L 167.119257 198.392092 
L 165.507805 198.392092 
z
" clip-path="url(#pd4e4fe257a)" style="fill: #1f77b4"/>
   </g>
   <g id="patch_68">
    <path d="M 167.119257 273.312 
L 168.730708 273.312 
L 168.730708 199.562716 
L 167.119257 199.562716 
z
" clip-path="url(#pd4e4fe257a)" style="fill: #1f77b4"/>
   </g>
   <g id="patch_69">
    <path d="M 168.730708 273.312 
L 170.34216 273.312 
L 170.34216 192.538975 
L 168.730708 192.538975 
z
" clip-path="url(#pd4e4fe257a)" style="fill: #1f77b4"/>
   </g>
   <g id="patch_70">
    <path d="M 170.34216 273.312 
L 171.953612 273.312 
L 171.953612 192.538975 
L 170.34216 192.538975 
z
" clip-path="url(#pd4e4fe257a)" style="fill: #1f77b4"/>
   </g>
   <g id="patch_71">
    <path d="M 171.953612 273.312 
L 173.565063 273.312 
L 173.565063 184.34461 
L 171.953612 184.34461 
z
" clip-path="url(#pd4e4fe257a)" style="fill: #1f77b4"/>
   </g>
   <g id="patch_72">
    <path d="M 173.565063 273.312 
L 175.176515 273.312 
L 175.176515 171.467751 
L 173.565063 171.467751 
z
" clip-path="url(#pd4e4fe257a)" style="fill: #1f77b4"/>
   </g>
   <g id="patch_73">
    <path d="M 175.176515 273.312 
L 176.787967 273.312 
L 176.787967 187.85648 
L 175.176515 187.85648 
z
" clip-path="url(#pd4e4fe257a)" style="fill: #1f77b4"/>
   </g>
   <g id="patch_74">
    <path d="M 176.787967 273.312 
L 178.399418 273.312 
L 178.399418 177.90618 
L 176.787967 177.90618 
z
" clip-path="url(#pd4e4fe257a)" style="fill: #1f77b4"/>
   </g>
   <g id="patch_75">
    <path d="M 178.399418 273.312 
L 180.01087 273.312 
L 180.01087 188.441792 
L 178.399418 188.441792 
z
" clip-path="url(#pd4e4fe257a)" style="fill: #1f77b4"/>
   </g>
   <g id="patch_76">
    <path d="M 180.01087 273.312 
L 181.622322 273.312 
L 181.622322 186.685857 
L 180.01087 186.685857 
z
" clip-path="url(#pd4e4fe257a)" style="fill: #1f77b4"/>
   </g>
   <g id="patch_77">
    <path d="M 181.622322 273.312 
L 183.233773 273.312 
L 183.233773 208.342393 
L 181.622322 208.342393 
z
" clip-path="url(#pd4e4fe257a)" style="fill: #1f77b4"/>
   </g>
   <g id="patch_78">
    <path d="M 183.233773 273.312 
L 184.845225 273.312 
L 184.845225 193.124286 
L 183.233773 193.124286 
z
" clip-path="url(#pd4e4fe257a)" style="fill: #1f77b4"/>
   </g>
   <g id="patch_79">
    <path d="M 184.845225 273.312 
L 186.456677 273.312 
L 186.456677 174.394309 
L 184.845225 174.394309 
z
" clip-path="url(#pd4e4fe257a)" style="fill: #1f77b4"/>
   </g>
   <g id="patch_80">
    <path d="M 186.456677 273.312 
L 188.068128 273.312 
L 188.068128 180.832739 
L 186.456677 180.832739 
z
" clip-path="url(#pd4e4fe257a)" style="fill: #1f77b4"/>
   </g>
   <g id="patch_81">
    <path d="M 188.068128 273.312 
L 189.67958 273.312 
L 189.67958 182.588674 
L 188.068128 182.588674 
z
" clip-path="url(#pd4e4fe257a)" style="fill: #1f77b4"/>
   </g>
   <g id="patch_82">
    <path d="M 189.67958 273.312 
L 191.291032 273.312 
L 191.291032 188.441792 
L 189.67958 188.441792 
z
" clip-path="url(#pd4e4fe257a)" style="fill: #1f77b4"/>
   </g>
   <g id="patch_83">
    <path d="M 191.291032 273.312 
L 192.902483 273.312 
L 192.902483 163.273386 
L 191.291032 163.273386 
z
" clip-path="url(#pd4e4fe257a)" style="fill: #1f77b4"/>
   </g>
   <g id="patch_84">
    <path d="M 192.902483 273.312 
L 194.513935 273.312 
L 194.513935 177.320868 
L 192.902483 177.320868 
z
" clip-path="url(#pd4e4fe257a)" style="fill: #1f77b4"/>
   </g>
   <g id="patch_85">
    <path d="M 194.513935 273.312 
L 196.125387 273.312 
L 196.125387 179.662115 
L 194.513935 179.662115 
z
" clip-path="url(#pd4e4fe257a)" style="fill: #1f77b4"/>
   </g>
   <g id="patch_86">
    <path d="M 196.125387 273.312 
L 197.736838 273.312 
L 197.736838 170.297127 
L 196.125387 170.297127 
z
" clip-path="url(#pd4e4fe257a)" style="fill: #1f77b4"/>
   </g>
   <g id="patch_87">
    <path d="M 197.736838 273.312 
L 199.34829 273.312 
L 199.34829 175.564933 
L 197.736838 175.564933 
z
" clip-path="url(#pd4e4fe257a)" style="fill: #1f77b4"/>
   </g>
   <g id="patch_88">
    <path d="M 199.34829 273.312 
L 200.959742 273.312 
L 200.959742 179.076804 
L 199.34829 179.076804 
z
" clip-path="url(#pd4e4fe257a)" style="fill: #1f77b4"/>
   </g>
   <g id="patch_89">
    <path d="M 200.959742 273.312 
L 202.571193 273.312 
L 202.571193 174.394309 
L 200.959742 174.394309 
z
" clip-path="url(#pd4e4fe257a)" style="fill: #1f77b4"/>
   </g>
   <g id="patch_90">
    <path d="M 202.571193 273.312 
L 204.182645 273.312 
L 204.182645 174.979621 
L 202.571193 174.979621 
z
" clip-path="url(#pd4e4fe257a)" style="fill: #1f77b4"/>
   </g>
   <g id="patch_91">
    <path d="M 204.182645 273.312 
L 205.794097 273.312 
L 205.794097 174.394309 
L 204.182645 174.394309 
z
" clip-path="url(#pd4e4fe257a)" style="fill: #1f77b4"/>
   </g>
   <g id="patch_92">
    <path d="M 205.794097 273.312 
L 207.405548 273.312 
L 207.405548 167.370568 
L 205.794097 167.370568 
z
" clip-path="url(#pd4e4fe257a)" style="fill: #1f77b4"/>
   </g>
   <g id="patch_93">
    <path d="M 207.405548 273.312 
L 209.017 273.312 
L 209.017 178.491492 
L 207.405548 178.491492 
z
" clip-path="url(#pd4e4fe257a)" style="fill: #1f77b4"/>
   </g>
   <g id="patch_94">
    <path d="M 209.017 273.312 
L 210.628452 273.312 
L 210.628452 163.273386 
L 209.017 163.273386 
z
" clip-path="url(#pd4e4fe257a)" style="fill: #1f77b4"/>
   </g>
   <g id="patch_95">
    <path d="M 210.628452 273.312 
L 212.239903 273.312 
L 212.239903 165.029321 
L 210.628452 165.029321 
z
" clip-path="url(#pd4e4fe257a)" style="fill: #1f77b4"/>
   </g>
   <g id="patch_96">
    <path d="M 212.239903 273.312 
L 213.851355 273.312 
L 213.851355 167.370568 
L 212.239903 167.370568 
z
" clip-path="url(#pd4e4fe257a)" style="fill: #1f77b4"/>
   </g>
   <g id="patch_97">
    <path d="M 213.851355 273.312 
L 215.462807 273.312 
L 215.462807 171.467751 
L 213.851355 171.467751 
z
" clip-path="url(#pd4e4fe257a)" style="fill: #1f77b4"/>
   </g>
   <g id="patch_98">
    <path d="M 215.462807 273.312 
L 217.074258 273.312 
L 217.074258 166.199945 
L 215.462807 166.199945 
z
" clip-path="url(#pd4e4fe257a)" style="fill: #1f77b4"/>
   </g>
   <g id="patch_99">
    <path d="M 217.074258 273.312 
L 218.68571 273.312 
L 218.68571 148.055279 
L 217.074258 148.055279 
z
" clip-path="url(#pd4e4fe257a)" style="fill: #1f77b4"/>
   </g>
   <g id="patch_100">
    <path d="M 218.68571 273.312 
L 220.297162 273.312 
L 220.297162 149.225903 
L 218.68571 149.225903 
z
" clip-path="url(#pd4e4fe257a)" style="fill: #1f77b4"/>
   </g>
   <g id="patch_101">
    <path d="M 220.297162 273.312 
L 221.908613 273.312 
L 221.908613 152.152462 
L 220.297162 152.152462 
z
" clip-path="url(#pd4e4fe257a)" style="fill: #1f77b4"/>
   </g>
   <g id="patch_102">
    <path d="M 221.908613 273.312 
L 223.520065 273.312 
L 223.520065 154.493709 
L 221.908613 154.493709 
z
" clip-path="url(#pd4e4fe257a)" style="fill: #1f77b4"/>
   </g>
   <g id="patch_103">
    <path d="M 223.520065 273.312 
L 225.131517 273.312 
L 225.131517 142.787473 
L 223.520065 142.787473 
z
" clip-path="url(#pd4e4fe257a)" style="fill: #1f77b4"/>
   </g>
   <g id="patch_104">
    <path d="M 225.131517 273.312 
L 226.742968 273.312 
L 226.742968 134.593109 
L 225.131517 134.593109 
z
" clip-path="url(#pd4e4fe257a)" style="fill: #1f77b4"/>
   </g>
   <g id="patch_105">
    <path d="M 226.742968 273.312 
L 228.35442 273.312 
L 228.35442 161.51745 
L 226.742968 161.51745 
z
" clip-path="url(#pd4e4fe257a)" style="fill: #1f77b4"/>
   </g>
   <g id="patch_106">
    <path d="M 228.35442 273.312 
L 229.965872 273.312 
L 229.965872 156.834956 
L 228.35442 156.834956 
z
" clip-path="url(#pd4e4fe257a)" style="fill: #1f77b4"/>
   </g>
   <g id="patch_107">
    <path d="M 229.965872 273.312 
L 231.577323 273.312 
L 231.577323 155.079021 
L 229.965872 155.079021 
z
" clip-path="url(#pd4e4fe257a)" style="fill: #1f77b4"/>
   </g>
   <g id="patch_108">
    <path d="M 231.577323 273.312 
L 233.188775 273.312 
L 233.188775 141.61685 
L 231.577323 141.61685 
z
" clip-path="url(#pd4e4fe257a)" style="fill: #1f77b4"/>
   </g>
   <g id="patch_109">
    <path d="M 233.188775 273.312 
L 234.800227 273.312 
L 234.800227 138.690291 
L 233.188775 138.690291 
z
" clip-path="url(#pd4e4fe257a)" style="fill: #1f77b4"/>
   </g>
   <g id="patch_110">
    <path d="M 234.800227 273.312 
L 236.411678 273.312 
L 236.411678 152.737774 
L 234.800227 152.737774 
z
" clip-path="url(#pd4e4fe257a)" style="fill: #1f77b4"/>
   </g>
   <g id="patch_111">
    <path d="M 236.411678 273.312 
L 238.02313 273.312 
L 238.02313 138.104979 
L 236.411678 138.104979 
z
" clip-path="url(#pd4e4fe257a)" style="fill: #1f77b4"/>
   </g>
   <g id="patch_112">
    <path d="M 238.02313 273.312 
L 239.634582 273.312 
L 239.634582 149.811215 
L 238.02313 149.811215 
z
" clip-path="url(#pd4e4fe257a)" style="fill: #1f77b4"/>
   </g>
   <g id="patch_113">
    <path d="M 239.634582 273.312 
L 241.246033 273.312 
L 241.246033 136.934356 
L 239.634582 136.934356 
z
" clip-path="url(#pd4e4fe257a)" style="fill: #1f77b4"/>
   </g>
   <g id="patch_114">
    <path d="M 241.246033 273.312 
L 242.857485 273.312 
L 242.857485 137.519667 
L 241.246033 137.519667 
z
" clip-path="url(#pd4e4fe257a)" style="fill: #1f77b4"/>
   </g>
   <g id="patch_115">
    <path d="M 242.857485 273.312 
L 244.468936 273.312 
L 244.468936 150.981838 
L 242.857485 150.981838 
z
" clip-path="url(#pd4e4fe257a)" style="fill: #1f77b4"/>
   </g>
   <g id="patch_116">
    <path d="M 244.468936 273.312 
L 246.080388 273.312 
L 246.080388 134.007797 
L 244.468936 134.007797 
z
" clip-path="url(#pd4e4fe257a)" style="fill: #1f77b4"/>
   </g>
   <g id="patch_117">
    <path d="M 246.080388 273.312 
L 247.69184 273.312 
L 247.69184 150.396527 
L 246.080388 150.396527 
z
" clip-path="url(#pd4e4fe257a)" style="fill: #1f77b4"/>
   </g>
   <g id="patch_118">
    <path d="M 247.69184 273.312 
L 249.303291 273.312 
L 249.303291 128.739991 
L 247.69184 128.739991 
z
" clip-path="url(#pd4e4fe257a)" style="fill: #1f77b4"/>
   </g>
   <g id="patch_119">
    <path d="M 249.303291 273.312 
L 250.914743 273.312 
L 250.914743 139.275603 
L 249.303291 139.275603 
z
" clip-path="url(#pd4e4fe257a)" style="fill: #1f77b4"/>
   </g>
   <g id="patch_120">
    <path d="M 250.914743 273.312 
L 252.526195 273.312 
L 252.526195 124.642808 
L 250.914743 124.642808 
z
" clip-path="url(#pd4e4fe257a)" style="fill: #1f77b4"/>
   </g>
   <g id="patch_121">
    <path d="M 252.526195 273.312 
L 254.137646 273.312 
L 254.137646 139.860915 
L 252.526195 139.860915 
z
" clip-path="url(#pd4e4fe257a)" style="fill: #1f77b4"/>
   </g>
   <g id="patch_122">
    <path d="M 254.137646 273.312 
L 255.749098 273.312 
L 255.749098 131.66655 
L 254.137646 131.66655 
z
" clip-path="url(#pd4e4fe257a)" style="fill: #1f77b4"/>
   </g>
   <g id="patch_123">
    <path d="M 255.749098 273.312 
L 257.36055 273.312 
L 257.36055 130.495926 
L 255.749098 130.495926 
z
" clip-path="url(#pd4e4fe257a)" style="fill: #1f77b4"/>
   </g>
   <g id="patch_124">
    <path d="M 257.36055 273.312 
L 258.972001 273.312 
L 258.972001 128.154679 
L 257.36055 128.154679 
z
" clip-path="url(#pd4e4fe257a)" style="fill: #1f77b4"/>
   </g>
   <g id="patch_125">
    <path d="M 258.972001 273.312 
L 260.583453 273.312 
L 260.583453 134.593109 
L 258.972001 134.593109 
z
" clip-path="url(#pd4e4fe257a)" style="fill: #1f77b4"/>
   </g>
   <g id="patch_126">
    <path d="M 260.583453 273.312 
L 262.194905 273.312 
L 262.194905 121.130938 
L 260.583453 121.130938 
z
" clip-path="url(#pd4e4fe257a)" style="fill: #1f77b4"/>
   </g>
   <g id="patch_127">
    <path d="M 262.194905 273.312 
L 263.806356 273.312 
L 263.806356 134.593109 
L 262.194905 134.593109 
z
" clip-path="url(#pd4e4fe257a)" style="fill: #1f77b4"/>
   </g>
   <g id="patch_128">
    <path d="M 263.806356 273.312 
L 265.417808 273.312 
L 265.417808 145.128721 
L 263.806356 145.128721 
z
" clip-path="url(#pd4e4fe257a)" style="fill: #1f77b4"/>
   </g>
   <g id="patch_129">
    <path d="M 265.417808 273.312 
L 267.02926 273.312 
L 267.02926 128.154679 
L 265.417808 128.154679 
z
" clip-path="url(#pd4e4fe257a)" style="fill: #1f77b4"/>
   </g>
   <g id="patch_130">
    <path d="M 267.02926 273.312 
L 268.640711 273.312 
L 268.640711 138.104979 
L 267.02926 138.104979 
z
" clip-path="url(#pd4e4fe257a)" style="fill: #1f77b4"/>
   </g>
   <g id="patch_131">
    <path d="M 268.640711 273.312 
L 270.252163 273.312 
L 270.252163 126.984055 
L 268.640711 126.984055 
z
" clip-path="url(#pd4e4fe257a)" style="fill: #1f77b4"/>
   </g>
   <g id="patch_132">
    <path d="M 270.252163 273.312 
L 271.863615 273.312 
L 271.863615 97.718467 
L 270.252163 97.718467 
z
" clip-path="url(#pd4e4fe257a)" style="fill: #1f77b4"/>
   </g>
   <g id="patch_133">
    <path d="M 271.863615 273.312 
L 273.475066 273.312 
L 273.475066 118.204379 
L 271.863615 118.204379 
z
" clip-path="url(#pd4e4fe257a)" style="fill: #1f77b4"/>
   </g>
   <g id="patch_134">
    <path d="M 273.475066 273.312 
L 275.086518 273.312 
L 275.086518 119.375002 
L 273.475066 119.375002 
z
" clip-path="url(#pd4e4fe257a)" style="fill: #1f77b4"/>
   </g>
   <g id="patch_135">
    <path d="M 275.086518 273.312 
L 276.69797 273.312 
L 276.69797 118.789691 
L 275.086518 118.789691 
z
" clip-path="url(#pd4e4fe257a)" style="fill: #1f77b4"/>
   </g>
   <g id="patch_136">
    <path d="M 276.69797 273.312 
L 278.309421 273.312 
L 278.309421 118.204379 
L 276.69797 118.204379 
z
" clip-path="url(#pd4e4fe257a)" style="fill: #1f77b4"/>
   </g>
   <g id="patch_137">
    <path d="M 278.309421 273.312 
L 279.920873 273.312 
L 279.920873 101.815649 
L 278.309421 101.815649 
z
" clip-path="url(#pd4e4fe257a)" style="fill: #1f77b4"/>
   </g>
   <g id="patch_138">
    <path d="M 279.920873 273.312 
L 281.532325 273.312 
L 281.532325 136.349044 
L 279.920873 136.349044 
z
" clip-path="url(#pd4e4fe257a)" style="fill: #1f77b4"/>
   </g>
   <g id="patch_139">
    <path d="M 281.532325 273.312 
L 283.143776 273.312 
L 283.143776 121.716249 
L 281.532325 121.716249 
z
" clip-path="url(#pd4e4fe257a)" style="fill: #1f77b4"/>
   </g>
   <g id="patch_140">
    <path d="M 283.143776 273.312 
L 284.755228 273.312 
L 284.755228 116.448443 
L 283.143776 116.448443 
z
" clip-path="url(#pd4e4fe257a)" style="fill: #1f77b4"/>
   </g>
   <g id="patch_141">
    <path d="M 284.755228 273.312 
L 286.36668 273.312 
L 286.36668 110.010014 
L 284.755228 110.010014 
z
" clip-path="url(#pd4e4fe257a)" style="fill: #1f77b4"/>
   </g>
   <g id="patch_142">
    <path d="M 286.36668 273.312 
L 287.978131 273.312 
L 287.978131 107.668767 
L 286.36668 107.668767 
z
" clip-path="url(#pd4e4fe257a)" style="fill: #1f77b4"/>
   </g>
   <g id="patch_143">
    <path d="M 287.978131 273.312 
L 289.589583 273.312 
L 289.589583 107.083455 
L 287.978131 107.083455 
z
" clip-path="url(#pd4e4fe257a)" style="fill: #1f77b4"/>
   </g>
   <g id="patch_144">
    <path d="M 289.589583 273.312 
L 291.201035 273.312 
L 291.201035 116.448443 
L 289.589583 116.448443 
z
" clip-path="url(#pd4e4fe257a)" style="fill: #1f77b4"/>
   </g>
   <g id="patch_145">
    <path d="M 291.201035 273.312 
L 292.812486 273.312 
L 292.812486 116.448443 
L 291.201035 116.448443 
z
" clip-path="url(#pd4e4fe257a)" style="fill: #1f77b4"/>
   </g>
   <g id="patch_146">
    <path d="M 292.812486 273.312 
L 294.423938 273.312 
L 294.423938 106.498143 
L 292.812486 106.498143 
z
" clip-path="url(#pd4e4fe257a)" style="fill: #1f77b4"/>
   </g>
   <g id="patch_147">
    <path d="M 294.423938 273.312 
L 296.03539 273.312 
L 296.03539 97.718467 
L 294.423938 97.718467 
z
" clip-path="url(#pd4e4fe257a)" style="fill: #1f77b4"/>
   </g>
   <g id="patch_148">
    <path d="M 296.03539 273.312 
L 297.646841 273.312 
L 297.646841 104.156896 
L 296.03539 104.156896 
z
" clip-path="url(#pd4e4fe257a)" style="fill: #1f77b4"/>
   </g>
   <g id="patch_149">
    <path d="M 297.646841 273.312 
L 299.258293 273.312 
L 299.258293 104.156896 
L 297.646841 104.156896 
z
" clip-path="url(#pd4e4fe257a)" style="fill: #1f77b4"/>
   </g>
   <g id="patch_150">
    <path d="M 299.258293 273.312 
L 300.869745 273.312 
L 300.869745 106.498143 
L 299.258293 106.498143 
z
" clip-path="url(#pd4e4fe257a)" style="fill: #1f77b4"/>
   </g>
   <g id="patch_151">
    <path d="M 300.869745 273.312 
L 302.481196 273.312 
L 302.481196 91.280037 
L 300.869745 91.280037 
z
" clip-path="url(#pd4e4fe257a)" style="fill: #1f77b4"/>
   </g>
   <g id="patch_152">
    <path d="M 302.481196 273.312 
L 304.092648 273.312 
L 304.092648 102.986273 
L 302.481196 102.986273 
z
" clip-path="url(#pd4e4fe257a)" style="fill: #1f77b4"/>
   </g>
   <g id="patch_153">
    <path d="M 304.092648 273.312 
L 305.7041 273.312 
L 305.7041 101.230337 
L 304.092648 101.230337 
z
" clip-path="url(#pd4e4fe257a)" style="fill: #1f77b4"/>
   </g>
   <g id="patch_154">
    <path d="M 305.7041 273.312 
L 307.315551 273.312 
L 307.315551 101.230337 
L 305.7041 101.230337 
z
" clip-path="url(#pd4e4fe257a)" style="fill: #1f77b4"/>
   </g>
   <g id="patch_155">
    <path d="M 307.315551 273.312 
L 308.927003 273.312 
L 308.927003 101.815649 
L 307.315551 101.815649 
z
" clip-path="url(#pd4e4fe257a)" style="fill: #1f77b4"/>
   </g>
   <g id="patch_156">
    <path d="M 308.927003 273.312 
L 310.538455 273.312 
L 310.538455 108.83939 
L 308.927003 108.83939 
z
" clip-path="url(#pd4e4fe257a)" style="fill: #1f77b4"/>
   </g>
   <g id="patch_157">
    <path d="M 310.538455 273.312 
L 312.149906 273.312 
L 312.149906 100.059714 
L 310.538455 100.059714 
z
" clip-path="url(#pd4e4fe257a)" style="fill: #1f77b4"/>
   </g>
   <g id="patch_158">
    <path d="M 312.149906 273.312 
L 313.761358 273.312 
L 313.761358 97.718467 
L 312.149906 97.718467 
z
" clip-path="url(#pd4e4fe257a)" style="fill: #1f77b4"/>
   </g>
   <g id="patch_159">
    <path d="M 313.761358 273.312 
L 315.37281 273.312 
L 315.37281 107.083455 
L 313.761358 107.083455 
z
" clip-path="url(#pd4e4fe257a)" style="fill: #1f77b4"/>
   </g>
   <g id="patch_160">
    <path d="M 315.37281 273.312 
L 316.984261 273.312 
L 316.984261 84.256296 
L 315.37281 84.256296 
z
" clip-path="url(#pd4e4fe257a)" style="fill: #1f77b4"/>
   </g>
   <g id="patch_161">
    <path d="M 316.984261 273.312 
L 318.595713 273.312 
L 318.595713 95.377219 
L 316.984261 95.377219 
z
" clip-path="url(#pd4e4fe257a)" style="fill: #1f77b4"/>
   </g>
   <g id="patch_162">
    <path d="M 318.595713 273.312 
L 320.207164 273.312 
L 320.207164 63.185072 
L 318.595713 63.185072 
z
" clip-path="url(#pd4e4fe257a)" style="fill: #1f77b4"/>
   </g>
   <g id="patch_163">
    <path d="M 320.207164 273.312 
L 321.818616 273.312 
L 321.818616 96.547843 
L 320.207164 96.547843 
z
" clip-path="url(#pd4e4fe257a)" style="fill: #1f77b4"/>
   </g>
   <g id="patch_164">
    <path d="M 321.818616 273.312 
L 323.430068 273.312 
L 323.430068 86.597543 
L 321.818616 86.597543 
z
" clip-path="url(#pd4e4fe257a)" style="fill: #1f77b4"/>
   </g>
   <g id="patch_165">
    <path d="M 323.430068 273.312 
L 325.041519 273.312 
L 325.041519 92.450661 
L 323.430068 92.450661 
z
" clip-path="url(#pd4e4fe257a)" style="fill: #1f77b4"/>
   </g>
   <g id="patch_166">
    <path d="M 325.041519 273.312 
L 326.652971 273.312 
L 326.652971 87.768166 
L 325.041519 87.768166 
z
" clip-path="url(#pd4e4fe257a)" style="fill: #1f77b4"/>
   </g>
   <g id="patch_167">
    <path d="M 326.652971 273.312 
L 328.264423 273.312 
L 328.264423 67.867566 
L 326.652971 67.867566 
z
" clip-path="url(#pd4e4fe257a)" style="fill: #1f77b4"/>
   </g>
   <g id="patch_168">
    <path d="M 328.264423 273.312 
L 329.875874 273.312 
L 329.875874 90.694725 
L 328.264423 90.694725 
z
" clip-path="url(#pd4e4fe257a)" style="fill: #1f77b4"/>
   </g>
   <g id="patch_169">
    <path d="M 329.875874 273.312 
L 331.487326 273.312 
L 331.487326 62.014448 
L 329.875874 62.014448 
z
" clip-path="url(#pd4e4fe257a)" style="fill: #1f77b4"/>
   </g>
   <g id="patch_170">
    <path d="M 331.487326 273.312 
L 333.098778 273.312 
L 333.098778 64.941007 
L 331.487326 64.941007 
z
" clip-path="url(#pd4e4fe257a)" style="fill: #1f77b4"/>
   </g>
   <g id="patch_171">
    <path d="M 333.098778 273.312 
L 334.710229 273.312 
L 334.710229 72.55006 
L 333.098778 72.55006 
z
" clip-path="url(#pd4e4fe257a)" style="fill: #1f77b4"/>
   </g>
   <g id="patch_172">
    <path d="M 334.710229 273.312 
L 336.321681 273.312 
L 336.321681 85.426919 
L 334.710229 85.426919 
z
" clip-path="url(#pd4e4fe257a)" style="fill: #1f77b4"/>
   </g>
   <g id="patch_173">
    <path d="M 336.321681 273.312 
L 337.933133 273.312 
L 337.933133 81.915048 
L 336.321681 81.915048 
z
" clip-path="url(#pd4e4fe257a)" style="fill: #1f77b4"/>
   </g>
   <g id="patch_174">
    <path d="M 337.933133 273.312 
L 339.544584 273.312 
L 339.544584 76.061931 
L 337.933133 76.061931 
z
" clip-path="url(#pd4e4fe257a)" style="fill: #1f77b4"/>
   </g>
   <g id="patch_175">
    <path d="M 339.544584 273.312 
L 341.156036 273.312 
L 341.156036 76.061931 
L 339.544584 76.061931 
z
" clip-path="url(#pd4e4fe257a)" style="fill: #1f77b4"/>
   </g>
   <g id="patch_176">
    <path d="M 341.156036 273.312 
L 342.767488 273.312 
L 342.767488 56.746642 
L 341.156036 56.746642 
z
" clip-path="url(#pd4e4fe257a)" style="fill: #1f77b4"/>
   </g>
   <g id="patch_177">
    <path d="M 342.767488 273.312 
L 344.378939 273.312 
L 344.378939 90.109413 
L 342.767488 90.109413 
z
" clip-path="url(#pd4e4fe257a)" style="fill: #1f77b4"/>
   </g>
   <g id="patch_178">
    <path d="M 344.378939 273.312 
L 345.990391 273.312 
L 345.990391 60.258513 
L 344.378939 60.258513 
z
" clip-path="url(#pd4e4fe257a)" style="fill: #1f77b4"/>
   </g>
   <g id="patch_179">
    <path d="M 345.990391 273.312 
L 347.601843 273.312 
L 347.601843 70.794125 
L 345.990391 70.794125 
z
" clip-path="url(#pd4e4fe257a)" style="fill: #1f77b4"/>
   </g>
   <g id="patch_180">
    <path d="M 347.601843 273.312 
L 349.213294 273.312 
L 349.213294 64.355695 
L 347.601843 64.355695 
z
" clip-path="url(#pd4e4fe257a)" style="fill: #1f77b4"/>
   </g>
   <g id="patch_181">
    <path d="M 349.213294 273.312 
L 350.824746 273.312 
L 350.824746 53.234771 
L 349.213294 53.234771 
z
" clip-path="url(#pd4e4fe257a)" style="fill: #1f77b4"/>
   </g>
   <g id="patch_182">
    <path d="M 350.824746 273.312 
L 352.436198 273.312 
L 352.436198 73.720684 
L 350.824746 73.720684 
z
" clip-path="url(#pd4e4fe257a)" style="fill: #1f77b4"/>
   </g>
   <g id="patch_183">
    <path d="M 352.436198 273.312 
L 354.047649 273.312 
L 354.047649 54.405395 
L 352.436198 54.405395 
z
" clip-path="url(#pd4e4fe257a)" style="fill: #1f77b4"/>
   </g>
   <g id="patch_184">
    <path d="M 354.047649 273.312 
L 355.659101 273.312 
L 355.659101 63.185072 
L 354.047649 63.185072 
z
" clip-path="url(#pd4e4fe257a)" style="fill: #1f77b4"/>
   </g>
   <g id="patch_185">
    <path d="M 355.659101 273.312 
L 357.270553 273.312 
L 357.270553 47.966965 
L 355.659101 47.966965 
z
" clip-path="url(#pd4e4fe257a)" style="fill: #1f77b4"/>
   </g>
   <g id="patch_186">
    <path d="M 357.270553 273.312 
L 358.882004 273.312 
L 358.882004 45.625718 
L 357.270553 45.625718 
z
" clip-path="url(#pd4e4fe257a)" style="fill: #1f77b4"/>
   </g>
   <g id="patch_187">
    <path d="M 358.882004 273.312 
L 360.493456 273.312 
L 360.493456 57.917266 
L 358.882004 57.917266 
z
" clip-path="url(#pd4e4fe257a)" style="fill: #1f77b4"/>
   </g>
   <g id="patch_188">
    <path d="M 360.493456 273.312 
L 362.104908 273.312 
L 362.104908 27.481053 
L 360.493456 27.481053 
z
" clip-path="url(#pd4e4fe257a)" style="fill: #1f77b4"/>
   </g>
   <g id="patch_189">
    <path d="M 362.104908 273.312 
L 363.716359 273.312 
L 363.716359 45.625718 
L 362.104908 45.625718 
z
" clip-path="url(#pd4e4fe257a)" style="fill: #1f77b4"/>
   </g>
   <g id="patch_190">
    <path d="M 363.716359 273.312 
L 365.327811 273.312 
L 365.327811 67.867566 
L 363.716359 67.867566 
z
" clip-path="url(#pd4e4fe257a)" style="fill: #1f77b4"/>
   </g>
   <g id="patch_191">
    <path d="M 365.327811 273.312 
L 366.939263 273.312 
L 366.939263 50.893524 
L 365.327811 50.893524 
z
" clip-path="url(#pd4e4fe257a)" style="fill: #1f77b4"/>
   </g>
   <g id="patch_192">
    <path d="M 366.939263 273.312 
L 368.550714 273.312 
L 368.550714 84.256296 
L 366.939263 84.256296 
z
" clip-path="url(#pd4e4fe257a)" style="fill: #1f77b4"/>
   </g>
   <g id="patch_193">
    <path d="M 368.550714 273.312 
L 370.162166 273.312 
L 370.162166 40.357912 
L 368.550714 40.357912 
z
" clip-path="url(#pd4e4fe257a)" style="fill: #1f77b4"/>
   </g>
   <g id="patch_194">
    <path d="M 370.162166 273.312 
L 371.773618 273.312 
L 371.773618 19.872 
L 370.162166 19.872 
z
" clip-path="url(#pd4e4fe257a)" style="fill: #1f77b4"/>
   </g>
   <g id="patch_195">
    <path d="M 371.773618 273.312 
L 373.385069 273.312 
L 373.385069 55.576018 
L 371.773618 55.576018 
z
" clip-path="url(#pd4e4fe257a)" style="fill: #1f77b4"/>
   </g>
   <g id="patch_196">
    <path d="M 373.385069 273.312 
L 374.996521 273.312 
L 374.996521 54.405395 
L 373.385069 54.405395 
z
" clip-path="url(#pd4e4fe257a)" style="fill: #1f77b4"/>
   </g>
   <g id="patch_197">
    <path d="M 374.996521 273.312 
L 376.607973 273.312 
L 376.607973 66.696942 
L 374.996521 66.696942 
z
" clip-path="url(#pd4e4fe257a)" style="fill: #1f77b4"/>
   </g>
   <g id="patch_198">
    <path d="M 376.607973 273.312 
L 378.219424 273.312 
L 378.219424 27.481053 
L 376.607973 27.481053 
z
" clip-path="url(#pd4e4fe257a)" style="fill: #1f77b4"/>
   </g>
   <g id="patch_199">
    <path d="M 378.219424 273.312 
L 379.830876 273.312 
L 379.830876 55.576018 
L 378.219424 55.576018 
z
" clip-path="url(#pd4e4fe257a)" style="fill: #1f77b4"/>
   </g>
   <g id="patch_200">
    <path d="M 379.830876 273.312 
L 381.442328 273.312 
L 381.442328 43.869783 
L 379.830876 43.869783 
z
" clip-path="url(#pd4e4fe257a)" style="fill: #1f77b4"/>
   </g>
   <g id="patch_201">
    <path d="M 381.442328 273.312 
L 383.053779 273.312 
L 383.053779 22.798559 
L 381.442328 22.798559 
z
" clip-path="url(#pd4e4fe257a)" style="fill: #1f77b4"/>
   </g>
   <g id="patch_202">
    <path d="M 383.053779 273.312 
L 384.665231 273.312 
L 384.665231 41.528536 
L 383.053779 41.528536 
z
" clip-path="url(#pd4e4fe257a)" style="fill: #1f77b4"/>
   </g>
   <g id="matplotlib.axis_1">
    <g id="xtick_1">
     <g id="line2d_1">
      <defs>
       <path id="m6157537e5d" d="M 0 0 
L 0 3.5 
" style="stroke: #000000; stroke-width: 0.8"/>
      </defs>
      <g>
       <use xlink:href="#m6157537e5d" x="60.013977" y="273.312" style="stroke: #000000; stroke-width: 0.8"/>
      </g>
     </g>
     <g id="text_1">
      <!-- 0.0 -->
      <g transform="translate(52.062415 287.910437)scale(0.1 -0.1)">
       <defs>
        <path id="DejaVuSans-30" d="M 2034 4250 
Q 1547 4250 1301 3770 
Q 1056 3291 1056 2328 
Q 1056 1369 1301 889 
Q 1547 409 2034 409 
Q 2525 409 2770 889 
Q 3016 1369 3016 2328 
Q 3016 3291 2770 3770 
Q 2525 4250 2034 4250 
z
M 2034 4750 
Q 2819 4750 3233 4129 
Q 3647 3509 3647 2328 
Q 3647 1150 3233 529 
Q 2819 -91 2034 -91 
Q 1250 -91 836 529 
Q 422 1150 422 2328 
Q 422 3509 836 4129 
Q 1250 4750 2034 4750 
z
" transform="scale(0.015625)"/>
        <path id="DejaVuSans-2e" d="M 684 794 
L 1344 794 
L 1344 0 
L 684 0 
L 684 794 
z
" transform="scale(0.015625)"/>
       </defs>
       <use xlink:href="#DejaVuSans-30"/>
       <use xlink:href="#DejaVuSans-2e" x="63.623047"/>
       <use xlink:href="#DejaVuSans-30" x="95.410156"/>
      </g>
     </g>
    </g>
    <g id="xtick_2">
     <g id="line2d_2">
      <g>
       <use xlink:href="#m6157537e5d" x="124.944886" y="273.312" style="stroke: #000000; stroke-width: 0.8"/>
      </g>
     </g>
     <g id="text_2">
      <!-- 0.2 -->
      <g transform="translate(116.993324 287.910437)scale(0.1 -0.1)">
       <defs>
        <path id="DejaVuSans-32" d="M 1228 531 
L 3431 531 
L 3431 0 
L 469 0 
L 469 531 
Q 828 903 1448 1529 
Q 2069 2156 2228 2338 
Q 2531 2678 2651 2914 
Q 2772 3150 2772 3378 
Q 2772 3750 2511 3984 
Q 2250 4219 1831 4219 
Q 1534 4219 1204 4116 
Q 875 4013 500 3803 
L 500 4441 
Q 881 4594 1212 4672 
Q 1544 4750 1819 4750 
Q 2544 4750 2975 4387 
Q 3406 4025 3406 3419 
Q 3406 3131 3298 2873 
Q 3191 2616 2906 2266 
Q 2828 2175 2409 1742 
Q 1991 1309 1228 531 
z
" transform="scale(0.015625)"/>
       </defs>
       <use xlink:href="#DejaVuSans-30"/>
       <use xlink:href="#DejaVuSans-2e" x="63.623047"/>
       <use xlink:href="#DejaVuSans-32" x="95.410156"/>
      </g>
     </g>
    </g>
    <g id="xtick_3">
     <g id="line2d_3">
      <g>
       <use xlink:href="#m6157537e5d" x="189.875795" y="273.312" style="stroke: #000000; stroke-width: 0.8"/>
      </g>
     </g>
     <g id="text_3">
      <!-- 0.4 -->
      <g transform="translate(181.924233 287.910437)scale(0.1 -0.1)">
       <defs>
        <path id="DejaVuSans-34" d="M 2419 4116 
L 825 1625 
L 2419 1625 
L 2419 4116 
z
M 2253 4666 
L 3047 4666 
L 3047 1625 
L 3713 1625 
L 3713 1100 
L 3047 1100 
L 3047 0 
L 2419 0 
L 2419 1100 
L 313 1100 
L 313 1709 
L 2253 4666 
z
" transform="scale(0.015625)"/>
       </defs>
       <use xlink:href="#DejaVuSans-30"/>
       <use xlink:href="#DejaVuSans-2e" x="63.623047"/>
       <use xlink:href="#DejaVuSans-34" x="95.410156"/>
      </g>
     </g>
    </g>
    <g id="xtick_4">
     <g id="line2d_4">
      <g>
       <use xlink:href="#m6157537e5d" x="254.806705" y="273.312" style="stroke: #000000; stroke-width: 0.8"/>
      </g>
     </g>
     <g id="text_4">
      <!-- 0.6 -->
      <g transform="translate(246.855142 287.910437)scale(0.1 -0.1)">
       <defs>
        <path id="DejaVuSans-36" d="M 2113 2584 
Q 1688 2584 1439 2293 
Q 1191 2003 1191 1497 
Q 1191 994 1439 701 
Q 1688 409 2113 409 
Q 2538 409 2786 701 
Q 3034 994 3034 1497 
Q 3034 2003 2786 2293 
Q 2538 2584 2113 2584 
z
M 3366 4563 
L 3366 3988 
Q 3128 4100 2886 4159 
Q 2644 4219 2406 4219 
Q 1781 4219 1451 3797 
Q 1122 3375 1075 2522 
Q 1259 2794 1537 2939 
Q 1816 3084 2150 3084 
Q 2853 3084 3261 2657 
Q 3669 2231 3669 1497 
Q 3669 778 3244 343 
Q 2819 -91 2113 -91 
Q 1303 -91 875 529 
Q 447 1150 447 2328 
Q 447 3434 972 4092 
Q 1497 4750 2381 4750 
Q 2619 4750 2861 4703 
Q 3103 4656 3366 4563 
z
" transform="scale(0.015625)"/>
       </defs>
       <use xlink:href="#DejaVuSans-30"/>
       <use xlink:href="#DejaVuSans-2e" x="63.623047"/>
       <use xlink:href="#DejaVuSans-36" x="95.410156"/>
      </g>
     </g>
    </g>
    <g id="xtick_5">
     <g id="line2d_5">
      <g>
       <use xlink:href="#m6157537e5d" x="319.737614" y="273.312" style="stroke: #000000; stroke-width: 0.8"/>
      </g>
     </g>
     <g id="text_5">
      <!-- 0.8 -->
      <g transform="translate(311.786051 287.910437)scale(0.1 -0.1)">
       <defs>
        <path id="DejaVuSans-38" d="M 2034 2216 
Q 1584 2216 1326 1975 
Q 1069 1734 1069 1313 
Q 1069 891 1326 650 
Q 1584 409 2034 409 
Q 2484 409 2743 651 
Q 3003 894 3003 1313 
Q 3003 1734 2745 1975 
Q 2488 2216 2034 2216 
z
M 1403 2484 
Q 997 2584 770 2862 
Q 544 3141 544 3541 
Q 544 4100 942 4425 
Q 1341 4750 2034 4750 
Q 2731 4750 3128 4425 
Q 3525 4100 3525 3541 
Q 3525 3141 3298 2862 
Q 3072 2584 2669 2484 
Q 3125 2378 3379 2068 
Q 3634 1759 3634 1313 
Q 3634 634 3220 271 
Q 2806 -91 2034 -91 
Q 1263 -91 848 271 
Q 434 634 434 1313 
Q 434 1759 690 2068 
Q 947 2378 1403 2484 
z
M 1172 3481 
Q 1172 3119 1398 2916 
Q 1625 2713 2034 2713 
Q 2441 2713 2670 2916 
Q 2900 3119 2900 3481 
Q 2900 3844 2670 4047 
Q 2441 4250 2034 4250 
Q 1625 4250 1398 4047 
Q 1172 3844 1172 3481 
z
" transform="scale(0.015625)"/>
       </defs>
       <use xlink:href="#DejaVuSans-30"/>
       <use xlink:href="#DejaVuSans-2e" x="63.623047"/>
       <use xlink:href="#DejaVuSans-38" x="95.410156"/>
      </g>
     </g>
    </g>
    <g id="xtick_6">
     <g id="line2d_6">
      <g>
       <use xlink:href="#m6157537e5d" x="384.668523" y="273.312" style="stroke: #000000; stroke-width: 0.8"/>
      </g>
     </g>
     <g id="text_6">
      <!-- 1.0 -->
      <g transform="translate(376.71696 287.910437)scale(0.1 -0.1)">
       <defs>
        <path id="DejaVuSans-31" d="M 794 531 
L 1825 531 
L 1825 4091 
L 703 3866 
L 703 4441 
L 1819 4666 
L 2450 4666 
L 2450 531 
L 3481 531 
L 3481 0 
L 794 0 
L 794 531 
z
" transform="scale(0.015625)"/>
       </defs>
       <use xlink:href="#DejaVuSans-31"/>
       <use xlink:href="#DejaVuSans-2e" x="63.623047"/>
       <use xlink:href="#DejaVuSans-30" x="95.410156"/>
      </g>
     </g>
    </g>
    <g id="text_7">
     <!-- Propagation direction -->
     <g transform="translate(168.859219 301.588562)scale(0.1 -0.1)">
      <defs>
       <path id="DejaVuSans-50" d="M 1259 4147 
L 1259 2394 
L 2053 2394 
Q 2494 2394 2734 2622 
Q 2975 2850 2975 3272 
Q 2975 3691 2734 3919 
Q 2494 4147 2053 4147 
L 1259 4147 
z
M 628 4666 
L 2053 4666 
Q 2838 4666 3239 4311 
Q 3641 3956 3641 3272 
Q 3641 2581 3239 2228 
Q 2838 1875 2053 1875 
L 1259 1875 
L 1259 0 
L 628 0 
L 628 4666 
z
" transform="scale(0.015625)"/>
       <path id="DejaVuSans-72" d="M 2631 2963 
Q 2534 3019 2420 3045 
Q 2306 3072 2169 3072 
Q 1681 3072 1420 2755 
Q 1159 2438 1159 1844 
L 1159 0 
L 581 0 
L 581 3500 
L 1159 3500 
L 1159 2956 
Q 1341 3275 1631 3429 
Q 1922 3584 2338 3584 
Q 2397 3584 2469 3576 
Q 2541 3569 2628 3553 
L 2631 2963 
z
" transform="scale(0.015625)"/>
       <path id="DejaVuSans-6f" d="M 1959 3097 
Q 1497 3097 1228 2736 
Q 959 2375 959 1747 
Q 959 1119 1226 758 
Q 1494 397 1959 397 
Q 2419 397 2687 759 
Q 2956 1122 2956 1747 
Q 2956 2369 2687 2733 
Q 2419 3097 1959 3097 
z
M 1959 3584 
Q 2709 3584 3137 3096 
Q 3566 2609 3566 1747 
Q 3566 888 3137 398 
Q 2709 -91 1959 -91 
Q 1206 -91 779 398 
Q 353 888 353 1747 
Q 353 2609 779 3096 
Q 1206 3584 1959 3584 
z
" transform="scale(0.015625)"/>
       <path id="DejaVuSans-70" d="M 1159 525 
L 1159 -1331 
L 581 -1331 
L 581 3500 
L 1159 3500 
L 1159 2969 
Q 1341 3281 1617 3432 
Q 1894 3584 2278 3584 
Q 2916 3584 3314 3078 
Q 3713 2572 3713 1747 
Q 3713 922 3314 415 
Q 2916 -91 2278 -91 
Q 1894 -91 1617 61 
Q 1341 213 1159 525 
z
M 3116 1747 
Q 3116 2381 2855 2742 
Q 2594 3103 2138 3103 
Q 1681 3103 1420 2742 
Q 1159 2381 1159 1747 
Q 1159 1113 1420 752 
Q 1681 391 2138 391 
Q 2594 391 2855 752 
Q 3116 1113 3116 1747 
z
" transform="scale(0.015625)"/>
       <path id="DejaVuSans-61" d="M 2194 1759 
Q 1497 1759 1228 1600 
Q 959 1441 959 1056 
Q 959 750 1161 570 
Q 1363 391 1709 391 
Q 2188 391 2477 730 
Q 2766 1069 2766 1631 
L 2766 1759 
L 2194 1759 
z
M 3341 1997 
L 3341 0 
L 2766 0 
L 2766 531 
Q 2569 213 2275 61 
Q 1981 -91 1556 -91 
Q 1019 -91 701 211 
Q 384 513 384 1019 
Q 384 1609 779 1909 
Q 1175 2209 1959 2209 
L 2766 2209 
L 2766 2266 
Q 2766 2663 2505 2880 
Q 2244 3097 1772 3097 
Q 1472 3097 1187 3025 
Q 903 2953 641 2809 
L 641 3341 
Q 956 3463 1253 3523 
Q 1550 3584 1831 3584 
Q 2591 3584 2966 3190 
Q 3341 2797 3341 1997 
z
" transform="scale(0.015625)"/>
       <path id="DejaVuSans-67" d="M 2906 1791 
Q 2906 2416 2648 2759 
Q 2391 3103 1925 3103 
Q 1463 3103 1205 2759 
Q 947 2416 947 1791 
Q 947 1169 1205 825 
Q 1463 481 1925 481 
Q 2391 481 2648 825 
Q 2906 1169 2906 1791 
z
M 3481 434 
Q 3481 -459 3084 -895 
Q 2688 -1331 1869 -1331 
Q 1566 -1331 1297 -1286 
Q 1028 -1241 775 -1147 
L 775 -588 
Q 1028 -725 1275 -790 
Q 1522 -856 1778 -856 
Q 2344 -856 2625 -561 
Q 2906 -266 2906 331 
L 2906 616 
Q 2728 306 2450 153 
Q 2172 0 1784 0 
Q 1141 0 747 490 
Q 353 981 353 1791 
Q 353 2603 747 3093 
Q 1141 3584 1784 3584 
Q 2172 3584 2450 3431 
Q 2728 3278 2906 2969 
L 2906 3500 
L 3481 3500 
L 3481 434 
z
" transform="scale(0.015625)"/>
       <path id="DejaVuSans-74" d="M 1172 4494 
L 1172 3500 
L 2356 3500 
L 2356 3053 
L 1172 3053 
L 1172 1153 
Q 1172 725 1289 603 
Q 1406 481 1766 481 
L 2356 481 
L 2356 0 
L 1766 0 
Q 1100 0 847 248 
Q 594 497 594 1153 
L 594 3053 
L 172 3053 
L 172 3500 
L 594 3500 
L 594 4494 
L 1172 4494 
z
" transform="scale(0.015625)"/>
       <path id="DejaVuSans-69" d="M 603 3500 
L 1178 3500 
L 1178 0 
L 603 0 
L 603 3500 
z
M 603 4863 
L 1178 4863 
L 1178 4134 
L 603 4134 
L 603 4863 
z
" transform="scale(0.015625)"/>
       <path id="DejaVuSans-6e" d="M 3513 2113 
L 3513 0 
L 2938 0 
L 2938 2094 
Q 2938 2591 2744 2837 
Q 2550 3084 2163 3084 
Q 1697 3084 1428 2787 
Q 1159 2491 1159 1978 
L 1159 0 
L 581 0 
L 581 3500 
L 1159 3500 
L 1159 2956 
Q 1366 3272 1645 3428 
Q 1925 3584 2291 3584 
Q 2894 3584 3203 3211 
Q 3513 2838 3513 2113 
z
" transform="scale(0.015625)"/>
       <path id="DejaVuSans-20" transform="scale(0.015625)"/>
       <path id="DejaVuSans-64" d="M 2906 2969 
L 2906 4863 
L 3481 4863 
L 3481 0 
L 2906 0 
L 2906 525 
Q 2725 213 2448 61 
Q 2172 -91 1784 -91 
Q 1150 -91 751 415 
Q 353 922 353 1747 
Q 353 2572 751 3078 
Q 1150 3584 1784 3584 
Q 2172 3584 2448 3432 
Q 2725 3281 2906 2969 
z
M 947 1747 
Q 947 1113 1208 752 
Q 1469 391 1925 391 
Q 2381 391 2643 752 
Q 2906 1113 2906 1747 
Q 2906 2381 2643 2742 
Q 2381 3103 1925 3103 
Q 1469 3103 1208 2742 
Q 947 2381 947 1747 
z
" transform="scale(0.015625)"/>
       <path id="DejaVuSans-65" d="M 3597 1894 
L 3597 1613 
L 953 1613 
Q 991 1019 1311 708 
Q 1631 397 2203 397 
Q 2534 397 2845 478 
Q 3156 559 3463 722 
L 3463 178 
Q 3153 47 2828 -22 
Q 2503 -91 2169 -91 
Q 1331 -91 842 396 
Q 353 884 353 1716 
Q 353 2575 817 3079 
Q 1281 3584 2069 3584 
Q 2775 3584 3186 3129 
Q 3597 2675 3597 1894 
z
M 3022 2063 
Q 3016 2534 2758 2815 
Q 2500 3097 2075 3097 
Q 1594 3097 1305 2825 
Q 1016 2553 972 2059 
L 3022 2063 
z
" transform="scale(0.015625)"/>
       <path id="DejaVuSans-63" d="M 3122 3366 
L 3122 2828 
Q 2878 2963 2633 3030 
Q 2388 3097 2138 3097 
Q 1578 3097 1268 2742 
Q 959 2388 959 1747 
Q 959 1106 1268 751 
Q 1578 397 2138 397 
Q 2388 397 2633 464 
Q 2878 531 3122 666 
L 3122 134 
Q 2881 22 2623 -34 
Q 2366 -91 2075 -91 
Q 1284 -91 818 406 
Q 353 903 353 1747 
Q 353 2603 823 3093 
Q 1294 3584 2113 3584 
Q 2378 3584 2631 3529 
Q 2884 3475 3122 3366 
z
" transform="scale(0.015625)"/>
      </defs>
      <use xlink:href="#DejaVuSans-50"/>
      <use xlink:href="#DejaVuSans-72" x="58.552734"/>
      <use xlink:href="#DejaVuSans-6f" x="97.416016"/>
      <use xlink:href="#DejaVuSans-70" x="158.597656"/>
      <use xlink:href="#DejaVuSans-61" x="222.074219"/>
      <use xlink:href="#DejaVuSans-67" x="283.353516"/>
      <use xlink:href="#DejaVuSans-61" x="346.830078"/>
      <use xlink:href="#DejaVuSans-74" x="408.109375"/>
      <use xlink:href="#DejaVuSans-69" x="447.318359"/>
      <use xlink:href="#DejaVuSans-6f" x="475.101562"/>
      <use xlink:href="#DejaVuSans-6e" x="536.283203"/>
      <use xlink:href="#DejaVuSans-20" x="599.662109"/>
      <use xlink:href="#DejaVuSans-64" x="631.449219"/>
      <use xlink:href="#DejaVuSans-69" x="694.925781"/>
      <use xlink:href="#DejaVuSans-72" x="722.708984"/>
      <use xlink:href="#DejaVuSans-65" x="761.572266"/>
      <use xlink:href="#DejaVuSans-63" x="823.095703"/>
      <use xlink:href="#DejaVuSans-74" x="878.076172"/>
      <use xlink:href="#DejaVuSans-69" x="917.285156"/>
      <use xlink:href="#DejaVuSans-6f" x="945.068359"/>
      <use xlink:href="#DejaVuSans-6e" x="1006.25"/>
     </g>
    </g>
   </g>
   <g id="matplotlib.axis_2">
    <g id="ytick_1">
     <g id="line2d_7">
      <defs>
       <path id="mf2762697b1" d="M 0 0 
L -3.5 0 
" style="stroke: #000000; stroke-width: 0.8"/>
      </defs>
      <g>
       <use xlink:href="#mf2762697b1" x="43.78125" y="273.312" style="stroke: #000000; stroke-width: 0.8"/>
      </g>
     </g>
     <g id="text_8">
      <!-- 0.0 -->
      <g transform="translate(20.878125 277.111219)scale(0.1 -0.1)">
       <use xlink:href="#DejaVuSans-30"/>
       <use xlink:href="#DejaVuSans-2e" x="63.623047"/>
       <use xlink:href="#DejaVuSans-30" x="95.410156"/>
      </g>
     </g>
    </g>
    <g id="ytick_2">
     <g id="line2d_8">
      <g>
       <use xlink:href="#mf2762697b1" x="43.78125" y="215.20706" style="stroke: #000000; stroke-width: 0.8"/>
      </g>
     </g>
     <g id="text_9">
      <!-- 0.5 -->
      <g transform="translate(20.878125 219.006279)scale(0.1 -0.1)">
       <defs>
        <path id="DejaVuSans-35" d="M 691 4666 
L 3169 4666 
L 3169 4134 
L 1269 4134 
L 1269 2991 
Q 1406 3038 1543 3061 
Q 1681 3084 1819 3084 
Q 2600 3084 3056 2656 
Q 3513 2228 3513 1497 
Q 3513 744 3044 326 
Q 2575 -91 1722 -91 
Q 1428 -91 1123 -41 
Q 819 9 494 109 
L 494 744 
Q 775 591 1075 516 
Q 1375 441 1709 441 
Q 2250 441 2565 725 
Q 2881 1009 2881 1497 
Q 2881 1984 2565 2268 
Q 2250 2553 1709 2553 
Q 1456 2553 1204 2497 
Q 953 2441 691 2322 
L 691 4666 
z
" transform="scale(0.015625)"/>
       </defs>
       <use xlink:href="#DejaVuSans-30"/>
       <use xlink:href="#DejaVuSans-2e" x="63.623047"/>
       <use xlink:href="#DejaVuSans-35" x="95.410156"/>
      </g>
     </g>
    </g>
    <g id="ytick_3">
     <g id="line2d_9">
      <g>
       <use xlink:href="#mf2762697b1" x="43.78125" y="157.102121" style="stroke: #000000; stroke-width: 0.8"/>
      </g>
     </g>
     <g id="text_10">
      <!-- 1.0 -->
      <g transform="translate(20.878125 160.90134)scale(0.1 -0.1)">
       <use xlink:href="#DejaVuSans-31"/>
       <use xlink:href="#DejaVuSans-2e" x="63.623047"/>
       <use xlink:href="#DejaVuSans-30" x="95.410156"/>
      </g>
     </g>
    </g>
    <g id="ytick_4">
     <g id="line2d_10">
      <g>
       <use xlink:href="#mf2762697b1" x="43.78125" y="98.997181" style="stroke: #000000; stroke-width: 0.8"/>
      </g>
     </g>
     <g id="text_11">
      <!-- 1.5 -->
      <g transform="translate(20.878125 102.7964)scale(0.1 -0.1)">
       <use xlink:href="#DejaVuSans-31"/>
       <use xlink:href="#DejaVuSans-2e" x="63.623047"/>
       <use xlink:href="#DejaVuSans-35" x="95.410156"/>
      </g>
     </g>
    </g>
    <g id="ytick_5">
     <g id="line2d_11">
      <g>
       <use xlink:href="#mf2762697b1" x="43.78125" y="40.892242" style="stroke: #000000; stroke-width: 0.8"/>
      </g>
     </g>
     <g id="text_12">
      <!-- 2.0 -->
      <g transform="translate(20.878125 44.691461)scale(0.1 -0.1)">
       <use xlink:href="#DejaVuSans-32"/>
       <use xlink:href="#DejaVuSans-2e" x="63.623047"/>
       <use xlink:href="#DejaVuSans-30" x="95.410156"/>
      </g>
     </g>
    </g>
    <g id="text_13">
     <!-- Probability density -->
     <g transform="translate(14.798438 186.606781)rotate(-90)scale(0.1 -0.1)">
      <defs>
       <path id="DejaVuSans-62" d="M 3116 1747 
Q 3116 2381 2855 2742 
Q 2594 3103 2138 3103 
Q 1681 3103 1420 2742 
Q 1159 2381 1159 1747 
Q 1159 1113 1420 752 
Q 1681 391 2138 391 
Q 2594 391 2855 752 
Q 3116 1113 3116 1747 
z
M 1159 2969 
Q 1341 3281 1617 3432 
Q 1894 3584 2278 3584 
Q 2916 3584 3314 3078 
Q 3713 2572 3713 1747 
Q 3713 922 3314 415 
Q 2916 -91 2278 -91 
Q 1894 -91 1617 61 
Q 1341 213 1159 525 
L 1159 0 
L 581 0 
L 581 4863 
L 1159 4863 
L 1159 2969 
z
" transform="scale(0.015625)"/>
       <path id="DejaVuSans-6c" d="M 603 4863 
L 1178 4863 
L 1178 0 
L 603 0 
L 603 4863 
z
" transform="scale(0.015625)"/>
       <path id="DejaVuSans-79" d="M 2059 -325 
Q 1816 -950 1584 -1140 
Q 1353 -1331 966 -1331 
L 506 -1331 
L 506 -850 
L 844 -850 
Q 1081 -850 1212 -737 
Q 1344 -625 1503 -206 
L 1606 56 
L 191 3500 
L 800 3500 
L 1894 763 
L 2988 3500 
L 3597 3500 
L 2059 -325 
z
" transform="scale(0.015625)"/>
       <path id="DejaVuSans-73" d="M 2834 3397 
L 2834 2853 
Q 2591 2978 2328 3040 
Q 2066 3103 1784 3103 
Q 1356 3103 1142 2972 
Q 928 2841 928 2578 
Q 928 2378 1081 2264 
Q 1234 2150 1697 2047 
L 1894 2003 
Q 2506 1872 2764 1633 
Q 3022 1394 3022 966 
Q 3022 478 2636 193 
Q 2250 -91 1575 -91 
Q 1294 -91 989 -36 
Q 684 19 347 128 
L 347 722 
Q 666 556 975 473 
Q 1284 391 1588 391 
Q 1994 391 2212 530 
Q 2431 669 2431 922 
Q 2431 1156 2273 1281 
Q 2116 1406 1581 1522 
L 1381 1569 
Q 847 1681 609 1914 
Q 372 2147 372 2553 
Q 372 3047 722 3315 
Q 1072 3584 1716 3584 
Q 2034 3584 2315 3537 
Q 2597 3491 2834 3397 
z
" transform="scale(0.015625)"/>
      </defs>
      <use xlink:href="#DejaVuSans-50"/>
      <use xlink:href="#DejaVuSans-72" x="58.552734"/>
      <use xlink:href="#DejaVuSans-6f" x="97.416016"/>
      <use xlink:href="#DejaVuSans-62" x="158.597656"/>
      <use xlink:href="#DejaVuSans-61" x="222.074219"/>
      <use xlink:href="#DejaVuSans-62" x="283.353516"/>
      <use xlink:href="#DejaVuSans-69" x="346.830078"/>
      <use xlink:href="#DejaVuSans-6c" x="374.613281"/>
      <use xlink:href="#DejaVuSans-69" x="402.396484"/>
      <use xlink:href="#DejaVuSans-74" x="430.179688"/>
      <use xlink:href="#DejaVuSans-79" x="469.388672"/>
      <use xlink:href="#DejaVuSans-20" x="528.568359"/>
      <use xlink:href="#DejaVuSans-64" x="560.355469"/>
      <use xlink:href="#DejaVuSans-65" x="623.832031"/>
      <use xlink:href="#DejaVuSans-6e" x="685.355469"/>
      <use xlink:href="#DejaVuSans-73" x="748.734375"/>
      <use xlink:href="#DejaVuSans-69" x="800.833984"/>
      <use xlink:href="#DejaVuSans-74" x="828.617188"/>
      <use xlink:href="#DejaVuSans-79" x="867.826172"/>
     </g>
    </g>
   </g>
   <g id="line2d_12">
    <path d="M 60.013977 273.312 
L 384.668523 40.892242 
L 384.668523 40.892242 
" clip-path="url(#pd4e4fe257a)" style="fill: none; stroke: #ff7f0e; stroke-width: 1.5; stroke-linecap: square"/>
   </g>
   <g id="patch_203">
    <path d="M 43.78125 273.312 
L 43.78125 7.2 
" style="fill: none; stroke: #000000; stroke-width: 0.8; stroke-linejoin: miter; stroke-linecap: square"/>
   </g>
   <g id="patch_204">
    <path d="M 400.90125 273.312 
L 400.90125 7.2 
" style="fill: none; stroke: #000000; stroke-width: 0.8; stroke-linejoin: miter; stroke-linecap: square"/>
   </g>
   <g id="patch_205">
    <path d="M 43.78125 273.312 
L 400.90125 273.312 
" style="fill: none; stroke: #000000; stroke-width: 0.8; stroke-linejoin: miter; stroke-linecap: square"/>
   </g>
   <g id="patch_206">
    <path d="M 43.78125 7.2 
L 400.90125 7.2 
" style="fill: none; stroke: #000000; stroke-width: 0.8; stroke-linejoin: miter; stroke-linecap: square"/>
   </g>
  </g>
 </g>
 <defs>
  <clipPath id="pd4e4fe257a">
   <rect x="43.78125" y="7.2" width="357.12" height="266.112"/>
  </clipPath>
 </defs>
</svg>
