<?xml version="1.0" encoding="utf-8" standalone="no"?>
<!DOCTYPE svg PUBLIC "-//W3C//DTD SVG 1.1//EN"
  "http://www.w3.org/Graphics/SVG/1.1/DTD/svg11.dtd">
<svg xmlns:xlink="http://www.w3.org/1999/xlink" width="408.10125pt" height="310.86825pt" viewBox="0 0 408.10125 310.86825" xmlns="http://www.w3.org/2000/svg" version="1.1">
 <metadata>
  <rdf:RDF xmlns:dc="http://purl.org/dc/elements/1.1/" xmlns:cc="http://creativecommons.org/ns#" xmlns:rdf="http://www.w3.org/1999/02/22-rdf-syntax-ns#">
   <cc:Work>
    <dc:type rdf:resource="http://purl.org/dc/dcmitype/StillImage"/>
    <dc:date>2022-05-10T17:03:54.519504</dc:date>
    <dc:format>image/svg+xml</dc:format>
    <dc:creator>
     <cc:Agent>
      <dc:title>Matplotlib v3.5.2, https://matplotlib.org/</dc:title>
     </cc:Agent>
    </dc:creator>
   </cc:Work>
  </rdf:RDF>
 </metadata>
 <defs>
  <style type="text/css">*{stroke-linejoin: round; stroke-linecap: butt}</style>
 </defs>
 <g id="figure_1">
  <g id="patch_1">
   <path d="M 0 310.86825 
L 408.10125 310.86825 
L 408.10125 0 
L 0 0 
z
" style="fill: #ffffff"/>
  </g>
  <g id="axes_1">
   <g id="patch_2">
    <path d="M 43.78125 273.312 
L 400.90125 273.312 
L 400.90125 7.2 
L 43.78125 7.2 
z
" style="fill: #ffffff"/>
   </g>
   <g id="patch_3">
    <path d="M 61.489334 273.312 
L 63.098479 273.312 
L 63.098479 262.96751 
L 61.489334 262.96751 
z
" clip-path="url(#pf8af06a0da)" style="fill: #1f77b4"/>
   </g>
   <g id="patch_4">
    <path d="M 63.098479 273.312 
L 64.707624 273.312 
L 64.707624 263.706402 
L 63.098479 263.706402 
z
" clip-path="url(#pf8af06a0da)" style="fill: #1f77b4"/>
   </g>
   <g id="patch_5">
    <path d="M 64.707624 273.312 
L 66.316769 273.312 
L 66.316769 262.228618 
L 64.707624 262.228618 
z
" clip-path="url(#pf8af06a0da)" style="fill: #1f77b4"/>
   </g>
   <g id="patch_6">
    <path d="M 66.316769 273.312 
L 67.925914 273.312 
L 67.925914 251.884128 
L 66.316769 251.884128 
z
" clip-path="url(#pf8af06a0da)" style="fill: #1f77b4"/>
   </g>
   <g id="patch_7">
    <path d="M 67.925914 273.312 
L 69.535059 273.312 
L 69.535059 256.317481 
L 67.925914 256.317481 
z
" clip-path="url(#pf8af06a0da)" style="fill: #1f77b4"/>
   </g>
   <g id="patch_8">
    <path d="M 69.535059 273.312 
L 71.144204 273.312 
L 71.144204 252.62302 
L 69.535059 252.62302 
z
" clip-path="url(#pf8af06a0da)" style="fill: #1f77b4"/>
   </g>
   <g id="patch_9">
    <path d="M 71.144204 273.312 
L 72.753349 273.312 
L 72.753349 248.189668 
L 71.144204 248.189668 
z
" clip-path="url(#pf8af06a0da)" style="fill: #1f77b4"/>
   </g>
   <g id="patch_10">
    <path d="M 72.753349 273.312 
L 74.362495 273.312 
L 74.362495 249.667452 
L 72.753349 249.667452 
z
" clip-path="url(#pf8af06a0da)" style="fill: #1f77b4"/>
   </g>
   <g id="patch_11">
    <path d="M 74.362495 273.312 
L 75.97164 273.312 
L 75.97164 236.367394 
L 74.362495 236.367394 
z
" clip-path="url(#pf8af06a0da)" style="fill: #1f77b4"/>
   </g>
   <g id="patch_12">
    <path d="M 75.97164 273.312 
L 77.580785 273.312 
L 77.580785 237.106286 
L 75.97164 237.106286 
z
" clip-path="url(#pf8af06a0da)" style="fill: #1f77b4"/>
   </g>
   <g id="patch_13">
    <path d="M 77.580785 273.312 
L 79.18993 273.312 
L 79.18993 232.672933 
L 77.580785 232.672933 
z
" clip-path="url(#pf8af06a0da)" style="fill: #1f77b4"/>
   </g>
   <g id="patch_14">
    <path d="M 79.18993 273.312 
L 80.799075 273.312 
L 80.799075 226.761796 
L 79.18993 226.761796 
z
" clip-path="url(#pf8af06a0da)" style="fill: #1f77b4"/>
   </g>
   <g id="patch_15">
    <path d="M 80.799075 273.312 
L 82.40822 273.312 
L 82.40822 225.284012 
L 80.799075 225.284012 
z
" clip-path="url(#pf8af06a0da)" style="fill: #1f77b4"/>
   </g>
   <g id="patch_16">
    <path d="M 82.40822 273.312 
L 84.017365 273.312 
L 84.017365 211.245061 
L 82.40822 211.245061 
z
" clip-path="url(#pf8af06a0da)" style="fill: #1f77b4"/>
   </g>
   <g id="patch_17">
    <path d="M 84.017365 273.312 
L 85.62651 273.312 
L 85.62651 226.761796 
L 84.017365 226.761796 
z
" clip-path="url(#pf8af06a0da)" style="fill: #1f77b4"/>
   </g>
   <g id="patch_18">
    <path d="M 85.62651 273.312 
L 87.235655 273.312 
L 87.235655 215.678414 
L 85.62651 215.678414 
z
" clip-path="url(#pf8af06a0da)" style="fill: #1f77b4"/>
   </g>
   <g id="patch_19">
    <path d="M 87.235655 273.312 
L 88.844801 273.312 
L 88.844801 208.289493 
L 87.235655 208.289493 
z
" clip-path="url(#pf8af06a0da)" style="fill: #1f77b4"/>
   </g>
   <g id="patch_20">
    <path d="M 88.844801 273.312 
L 90.453946 273.312 
L 90.453946 211.245061 
L 88.844801 211.245061 
z
" clip-path="url(#pf8af06a0da)" style="fill: #1f77b4"/>
   </g>
   <g id="patch_21">
    <path d="M 90.453946 273.312 
L 92.063091 273.312 
L 92.063091 206.072816 
L 90.453946 206.072816 
z
" clip-path="url(#pf8af06a0da)" style="fill: #1f77b4"/>
   </g>
   <g id="patch_22">
    <path d="M 92.063091 273.312 
L 93.672236 273.312 
L 93.672236 211.245061 
L 92.063091 211.245061 
z
" clip-path="url(#pf8af06a0da)" style="fill: #1f77b4"/>
   </g>
   <g id="patch_23">
    <path d="M 93.672236 273.312 
L 95.281381 273.312 
L 95.281381 200.161679 
L 93.672236 200.161679 
z
" clip-path="url(#pf8af06a0da)" style="fill: #1f77b4"/>
   </g>
   <g id="patch_24">
    <path d="M 95.281381 273.312 
L 96.890526 273.312 
L 96.890526 199.422787 
L 95.281381 199.422787 
z
" clip-path="url(#pf8af06a0da)" style="fill: #1f77b4"/>
   </g>
   <g id="patch_25">
    <path d="M 96.890526 273.312 
L 98.499671 273.312 
L 98.499671 192.772758 
L 96.890526 192.772758 
z
" clip-path="url(#pf8af06a0da)" style="fill: #1f77b4"/>
   </g>
   <g id="patch_26">
    <path d="M 98.499671 273.312 
L 100.108816 273.312 
L 100.108816 177.256023 
L 98.499671 177.256023 
z
" clip-path="url(#pf8af06a0da)" style="fill: #1f77b4"/>
   </g>
   <g id="patch_27">
    <path d="M 100.108816 273.312 
L 101.717961 273.312 
L 101.717961 173.561563 
L 100.108816 173.561563 
z
" clip-path="url(#pf8af06a0da)" style="fill: #1f77b4"/>
   </g>
   <g id="patch_28">
    <path d="M 101.717961 273.312 
L 103.327107 273.312 
L 103.327107 201.639464 
L 101.717961 201.639464 
z
" clip-path="url(#pf8af06a0da)" style="fill: #1f77b4"/>
   </g>
   <g id="patch_29">
    <path d="M 103.327107 273.312 
L 104.936252 273.312 
L 104.936252 177.994915 
L 103.327107 177.994915 
z
" clip-path="url(#pf8af06a0da)" style="fill: #1f77b4"/>
   </g>
   <g id="patch_30">
    <path d="M 104.936252 273.312 
L 106.545397 273.312 
L 106.545397 168.389318 
L 104.936252 168.389318 
z
" clip-path="url(#pf8af06a0da)" style="fill: #1f77b4"/>
   </g>
   <g id="patch_31">
    <path d="M 106.545397 273.312 
L 108.154542 273.312 
L 108.154542 175.039347 
L 106.545397 175.039347 
z
" clip-path="url(#pf8af06a0da)" style="fill: #1f77b4"/>
   </g>
   <g id="patch_32">
    <path d="M 108.154542 273.312 
L 109.763687 273.312 
L 109.763687 166.911534 
L 108.154542 166.911534 
z
" clip-path="url(#pf8af06a0da)" style="fill: #1f77b4"/>
   </g>
   <g id="patch_33">
    <path d="M 109.763687 273.312 
L 111.372832 273.312 
L 111.372832 170.605994 
L 109.763687 170.605994 
z
" clip-path="url(#pf8af06a0da)" style="fill: #1f77b4"/>
   </g>
   <g id="patch_34">
    <path d="M 111.372832 273.312 
L 112.981977 273.312 
L 112.981977 146.222554 
L 111.372832 146.222554 
z
" clip-path="url(#pf8af06a0da)" style="fill: #1f77b4"/>
   </g>
   <g id="patch_35">
    <path d="M 112.981977 273.312 
L 114.591122 273.312 
L 114.591122 164.694857 
L 112.981977 164.694857 
z
" clip-path="url(#pf8af06a0da)" style="fill: #1f77b4"/>
   </g>
   <g id="patch_36">
    <path d="M 114.591122 273.312 
L 116.200267 273.312 
L 116.200267 144.005878 
L 114.591122 144.005878 
z
" clip-path="url(#pf8af06a0da)" style="fill: #1f77b4"/>
   </g>
   <g id="patch_37">
    <path d="M 116.200267 273.312 
L 117.809413 273.312 
L 117.809413 145.483662 
L 116.200267 145.483662 
z
" clip-path="url(#pf8af06a0da)" style="fill: #1f77b4"/>
   </g>
   <g id="patch_38">
    <path d="M 117.809413 273.312 
L 119.418558 273.312 
L 119.418558 173.561563 
L 117.809413 173.561563 
z
" clip-path="url(#pf8af06a0da)" style="fill: #1f77b4"/>
   </g>
   <g id="patch_39">
    <path d="M 119.418558 273.312 
L 121.027703 273.312 
L 121.027703 147.700338 
L 119.418558 147.700338 
z
" clip-path="url(#pf8af06a0da)" style="fill: #1f77b4"/>
   </g>
   <g id="patch_40">
    <path d="M 121.027703 273.312 
L 122.636848 273.312 
L 122.636848 142.528093 
L 121.027703 142.528093 
z
" clip-path="url(#pf8af06a0da)" style="fill: #1f77b4"/>
   </g>
   <g id="patch_41">
    <path d="M 122.636848 273.312 
L 124.245993 273.312 
L 124.245993 149.917015 
L 122.636848 149.917015 
z
" clip-path="url(#pf8af06a0da)" style="fill: #1f77b4"/>
   </g>
   <g id="patch_42">
    <path d="M 124.245993 273.312 
L 125.855138 273.312 
L 125.855138 130.705819 
L 124.245993 130.705819 
z
" clip-path="url(#pf8af06a0da)" style="fill: #1f77b4"/>
   </g>
   <g id="patch_43">
    <path d="M 125.855138 273.312 
L 127.464283 273.312 
L 127.464283 111.494624 
L 125.855138 111.494624 
z
" clip-path="url(#pf8af06a0da)" style="fill: #1f77b4"/>
   </g>
   <g id="patch_44">
    <path d="M 127.464283 273.312 
L 129.073428 273.312 
L 129.073428 146.222554 
L 127.464283 146.222554 
z
" clip-path="url(#pf8af06a0da)" style="fill: #1f77b4"/>
   </g>
   <g id="patch_45">
    <path d="M 129.073428 273.312 
L 130.682573 273.312 
L 130.682573 122.578006 
L 129.073428 122.578006 
z
" clip-path="url(#pf8af06a0da)" style="fill: #1f77b4"/>
   </g>
   <g id="patch_46">
    <path d="M 130.682573 273.312 
L 132.291719 273.312 
L 132.291719 132.922496 
L 130.682573 132.922496 
z
" clip-path="url(#pf8af06a0da)" style="fill: #1f77b4"/>
   </g>
   <g id="patch_47">
    <path d="M 132.291719 273.312 
L 133.900864 273.312 
L 133.900864 120.361329 
L 132.291719 120.361329 
z
" clip-path="url(#pf8af06a0da)" style="fill: #1f77b4"/>
   </g>
   <g id="patch_48">
    <path d="M 133.900864 273.312 
L 135.510009 273.312 
L 135.510009 125.533574 
L 133.900864 125.533574 
z
" clip-path="url(#pf8af06a0da)" style="fill: #1f77b4"/>
   </g>
   <g id="patch_49">
    <path d="M 135.510009 273.312 
L 137.119154 273.312 
L 137.119154 122.578006 
L 135.510009 122.578006 
z
" clip-path="url(#pf8af06a0da)" style="fill: #1f77b4"/>
   </g>
   <g id="patch_50">
    <path d="M 137.119154 273.312 
L 138.728299 273.312 
L 138.728299 105.583487 
L 137.119154 105.583487 
z
" clip-path="url(#pf8af06a0da)" style="fill: #1f77b4"/>
   </g>
   <g id="patch_51">
    <path d="M 138.728299 273.312 
L 140.337444 273.312 
L 140.337444 132.922496 
L 138.728299 132.922496 
z
" clip-path="url(#pf8af06a0da)" style="fill: #1f77b4"/>
   </g>
   <g id="patch_52">
    <path d="M 140.337444 273.312 
L 141.946589 273.312 
L 141.946589 118.144653 
L 140.337444 118.144653 
z
" clip-path="url(#pf8af06a0da)" style="fill: #1f77b4"/>
   </g>
   <g id="patch_53">
    <path d="M 141.946589 273.312 
L 143.555734 273.312 
L 143.555734 112.233516 
L 141.946589 112.233516 
z
" clip-path="url(#pf8af06a0da)" style="fill: #1f77b4"/>
   </g>
   <g id="patch_54">
    <path d="M 143.555734 273.312 
L 145.164879 273.312 
L 145.164879 99.67235 
L 143.555734 99.67235 
z
" clip-path="url(#pf8af06a0da)" style="fill: #1f77b4"/>
   </g>
   <g id="patch_55">
    <path d="M 145.164879 273.312 
L 146.774025 273.312 
L 146.774025 105.583487 
L 145.164879 105.583487 
z
" clip-path="url(#pf8af06a0da)" style="fill: #1f77b4"/>
   </g>
   <g id="patch_56">
    <path d="M 146.774025 273.312 
L 148.38317 273.312 
L 148.38317 111.494624 
L 146.774025 111.494624 
z
" clip-path="url(#pf8af06a0da)" style="fill: #1f77b4"/>
   </g>
   <g id="patch_57">
    <path d="M 148.38317 273.312 
L 149.992315 273.312 
L 149.992315 112.972408 
L 148.38317 112.972408 
z
" clip-path="url(#pf8af06a0da)" style="fill: #1f77b4"/>
   </g>
   <g id="patch_58">
    <path d="M 149.992315 273.312 
L 151.60146 273.312 
L 151.60146 86.372292 
L 149.992315 86.372292 
z
" clip-path="url(#pf8af06a0da)" style="fill: #1f77b4"/>
   </g>
   <g id="patch_59">
    <path d="M 151.60146 273.312 
L 153.210605 273.312 
L 153.210605 90.066752 
L 151.60146 90.066752 
z
" clip-path="url(#pf8af06a0da)" style="fill: #1f77b4"/>
   </g>
   <g id="patch_60">
    <path d="M 153.210605 273.312 
L 154.81975 273.312 
L 154.81975 121.100222 
L 153.210605 121.100222 
z
" clip-path="url(#pf8af06a0da)" style="fill: #1f77b4"/>
   </g>
   <g id="patch_61">
    <path d="M 154.81975 273.312 
L 156.428895 273.312 
L 156.428895 94.500105 
L 154.81975 94.500105 
z
" clip-path="url(#pf8af06a0da)" style="fill: #1f77b4"/>
   </g>
   <g id="patch_62">
    <path d="M 156.428895 273.312 
L 158.03804 273.312 
L 158.03804 92.283429 
L 156.428895 92.283429 
z
" clip-path="url(#pf8af06a0da)" style="fill: #1f77b4"/>
   </g>
   <g id="patch_63">
    <path d="M 158.03804 273.312 
L 159.647185 273.312 
L 159.647185 84.894507 
L 158.03804 84.894507 
z
" clip-path="url(#pf8af06a0da)" style="fill: #1f77b4"/>
   </g>
   <g id="patch_64">
    <path d="M 159.647185 273.312 
L 161.256331 273.312 
L 161.256331 70.855557 
L 159.647185 70.855557 
z
" clip-path="url(#pf8af06a0da)" style="fill: #1f77b4"/>
   </g>
   <g id="patch_65">
    <path d="M 161.256331 273.312 
L 162.865476 273.312 
L 162.865476 44.994332 
L 161.256331 44.994332 
z
" clip-path="url(#pf8af06a0da)" style="fill: #1f77b4"/>
   </g>
   <g id="patch_66">
    <path d="M 162.865476 273.312 
L 164.474621 273.312 
L 164.474621 50.905469 
L 162.865476 50.905469 
z
" clip-path="url(#pf8af06a0da)" style="fill: #1f77b4"/>
   </g>
   <g id="patch_67">
    <path d="M 164.474621 273.312 
L 166.083766 273.312 
L 166.083766 96.716781 
L 164.474621 96.716781 
z
" clip-path="url(#pf8af06a0da)" style="fill: #1f77b4"/>
   </g>
   <g id="patch_68">
    <path d="M 166.083766 273.312 
L 167.692911 273.312 
L 167.692911 70.116665 
L 166.083766 70.116665 
z
" clip-path="url(#pf8af06a0da)" style="fill: #1f77b4"/>
   </g>
   <g id="patch_69">
    <path d="M 167.692911 273.312 
L 169.302056 273.312 
L 169.302056 78.244478 
L 167.692911 78.244478 
z
" clip-path="url(#pf8af06a0da)" style="fill: #1f77b4"/>
   </g>
   <g id="patch_70">
    <path d="M 169.302056 273.312 
L 170.911201 273.312 
L 170.911201 66.422204 
L 169.302056 66.422204 
z
" clip-path="url(#pf8af06a0da)" style="fill: #1f77b4"/>
   </g>
   <g id="patch_71">
    <path d="M 170.911201 273.312 
L 172.520346 273.312 
L 172.520346 78.244478 
L 170.911201 78.244478 
z
" clip-path="url(#pf8af06a0da)" style="fill: #1f77b4"/>
   </g>
   <g id="patch_72">
    <path d="M 172.520346 273.312 
L 174.129491 273.312 
L 174.129491 59.772175 
L 172.520346 59.772175 
z
" clip-path="url(#pf8af06a0da)" style="fill: #1f77b4"/>
   </g>
   <g id="patch_73">
    <path d="M 174.129491 273.312 
L 175.738637 273.312 
L 175.738637 62.727743 
L 174.129491 62.727743 
z
" clip-path="url(#pf8af06a0da)" style="fill: #1f77b4"/>
   </g>
   <g id="patch_74">
    <path d="M 175.738637 273.312 
L 177.347782 273.312 
L 177.347782 69.377773 
L 175.738637 69.377773 
z
" clip-path="url(#pf8af06a0da)" style="fill: #1f77b4"/>
   </g>
   <g id="patch_75">
    <path d="M 177.347782 273.312 
L 178.956927 273.312 
L 178.956927 47.949901 
L 177.347782 47.949901 
z
" clip-path="url(#pf8af06a0da)" style="fill: #1f77b4"/>
   </g>
   <g id="patch_76">
    <path d="M 178.956927 273.312 
L 180.566072 273.312 
L 180.566072 60.511067 
L 178.956927 60.511067 
z
" clip-path="url(#pf8af06a0da)" style="fill: #1f77b4"/>
   </g>
   <g id="patch_77">
    <path d="M 180.566072 273.312 
L 182.175217 273.312 
L 182.175217 58.294391 
L 180.566072 58.294391 
z
" clip-path="url(#pf8af06a0da)" style="fill: #1f77b4"/>
   </g>
   <g id="patch_78">
    <path d="M 182.175217 273.312 
L 183.784362 273.312 
L 183.784362 36.866519 
L 182.175217 36.866519 
z
" clip-path="url(#pf8af06a0da)" style="fill: #1f77b4"/>
   </g>
   <g id="patch_79">
    <path d="M 183.784362 273.312 
L 185.393507 273.312 
L 185.393507 47.211009 
L 183.784362 47.211009 
z
" clip-path="url(#pf8af06a0da)" style="fill: #1f77b4"/>
   </g>
   <g id="patch_80">
    <path d="M 185.393507 273.312 
L 187.002652 273.312 
L 187.002652 55.338822 
L 185.393507 55.338822 
z
" clip-path="url(#pf8af06a0da)" style="fill: #1f77b4"/>
   </g>
   <g id="patch_81">
    <path d="M 187.002652 273.312 
L 188.611797 273.312 
L 188.611797 33.172058 
L 187.002652 33.172058 
z
" clip-path="url(#pf8af06a0da)" style="fill: #1f77b4"/>
   </g>
   <g id="patch_82">
    <path d="M 188.611797 273.312 
L 190.220943 273.312 
L 190.220943 53.122146 
L 188.611797 53.122146 
z
" clip-path="url(#pf8af06a0da)" style="fill: #1f77b4"/>
   </g>
   <g id="patch_83">
    <path d="M 190.220943 273.312 
L 191.830088 273.312 
L 191.830088 31.694274 
L 190.220943 31.694274 
z
" clip-path="url(#pf8af06a0da)" style="fill: #1f77b4"/>
   </g>
   <g id="patch_84">
    <path d="M 191.830088 273.312 
L 193.439233 273.312 
L 193.439233 55.338822 
L 191.830088 55.338822 
z
" clip-path="url(#pf8af06a0da)" style="fill: #1f77b4"/>
   </g>
   <g id="patch_85">
    <path d="M 193.439233 273.312 
L 195.048378 273.312 
L 195.048378 48.688793 
L 193.439233 48.688793 
z
" clip-path="url(#pf8af06a0da)" style="fill: #1f77b4"/>
   </g>
   <g id="patch_86">
    <path d="M 195.048378 273.312 
L 196.657523 273.312 
L 196.657523 58.294391 
L 195.048378 58.294391 
z
" clip-path="url(#pf8af06a0da)" style="fill: #1f77b4"/>
   </g>
   <g id="patch_87">
    <path d="M 196.657523 273.312 
L 198.266668 273.312 
L 198.266668 65.683312 
L 196.657523 65.683312 
z
" clip-path="url(#pf8af06a0da)" style="fill: #1f77b4"/>
   </g>
   <g id="patch_88">
    <path d="M 198.266668 273.312 
L 199.875813 273.312 
L 199.875813 50.166577 
L 198.266668 50.166577 
z
" clip-path="url(#pf8af06a0da)" style="fill: #1f77b4"/>
   </g>
   <g id="patch_89">
    <path d="M 199.875813 273.312 
L 201.484958 273.312 
L 201.484958 52.383254 
L 199.875813 52.383254 
z
" clip-path="url(#pf8af06a0da)" style="fill: #1f77b4"/>
   </g>
   <g id="patch_90">
    <path d="M 201.484958 273.312 
L 203.094103 273.312 
L 203.094103 74.550017 
L 201.484958 74.550017 
z
" clip-path="url(#pf8af06a0da)" style="fill: #1f77b4"/>
   </g>
   <g id="patch_91">
    <path d="M 203.094103 273.312 
L 204.703249 273.312 
L 204.703249 39.083195 
L 203.094103 39.083195 
z
" clip-path="url(#pf8af06a0da)" style="fill: #1f77b4"/>
   </g>
   <g id="patch_92">
    <path d="M 204.703249 273.312 
L 206.312394 273.312 
L 206.312394 55.338822 
L 204.703249 55.338822 
z
" clip-path="url(#pf8af06a0da)" style="fill: #1f77b4"/>
   </g>
   <g id="patch_93">
    <path d="M 206.312394 273.312 
L 207.921539 273.312 
L 207.921539 65.683312 
L 206.312394 65.683312 
z
" clip-path="url(#pf8af06a0da)" style="fill: #1f77b4"/>
   </g>
   <g id="patch_94">
    <path d="M 207.921539 273.312 
L 209.530684 273.312 
L 209.530684 38.344303 
L 207.921539 38.344303 
z
" clip-path="url(#pf8af06a0da)" style="fill: #1f77b4"/>
   </g>
   <g id="patch_95">
    <path d="M 209.530684 273.312 
L 211.139829 273.312 
L 211.139829 56.077714 
L 209.530684 56.077714 
z
" clip-path="url(#pf8af06a0da)" style="fill: #1f77b4"/>
   </g>
   <g id="patch_96">
    <path d="M 211.139829 273.312 
L 212.748974 273.312 
L 212.748974 34.649843 
L 211.139829 34.649843 
z
" clip-path="url(#pf8af06a0da)" style="fill: #1f77b4"/>
   </g>
   <g id="patch_97">
    <path d="M 212.748974 273.312 
L 214.358119 273.312 
L 214.358119 51.644362 
L 212.748974 51.644362 
z
" clip-path="url(#pf8af06a0da)" style="fill: #1f77b4"/>
   </g>
   <g id="patch_98">
    <path d="M 214.358119 273.312 
L 215.967264 273.312 
L 215.967264 37.605411 
L 214.358119 37.605411 
z
" clip-path="url(#pf8af06a0da)" style="fill: #1f77b4"/>
   </g>
   <g id="patch_99">
    <path d="M 215.967264 273.312 
L 217.576409 273.312 
L 217.576409 26.522029 
L 215.967264 26.522029 
z
" clip-path="url(#pf8af06a0da)" style="fill: #1f77b4"/>
   </g>
   <g id="patch_100">
    <path d="M 217.576409 273.312 
L 219.185555 273.312 
L 219.185555 61.988851 
L 217.576409 61.988851 
z
" clip-path="url(#pf8af06a0da)" style="fill: #1f77b4"/>
   </g>
   <g id="patch_101">
    <path d="M 219.185555 273.312 
L 220.7947 273.312 
L 220.7947 30.955382 
L 219.185555 30.955382 
z
" clip-path="url(#pf8af06a0da)" style="fill: #1f77b4"/>
   </g>
   <g id="patch_102">
    <path d="M 220.7947 273.312 
L 222.403845 273.312 
L 222.403845 42.038764 
L 220.7947 42.038764 
z
" clip-path="url(#pf8af06a0da)" style="fill: #1f77b4"/>
   </g>
   <g id="patch_103">
    <path d="M 222.403845 273.312 
L 224.01299 273.312 
L 224.01299 38.344303 
L 222.403845 38.344303 
z
" clip-path="url(#pf8af06a0da)" style="fill: #1f77b4"/>
   </g>
   <g id="patch_104">
    <path d="M 224.01299 273.312 
L 225.622135 273.312 
L 225.622135 20.610892 
L 224.01299 20.610892 
z
" clip-path="url(#pf8af06a0da)" style="fill: #1f77b4"/>
   </g>
   <g id="patch_105">
    <path d="M 225.622135 273.312 
L 227.23128 273.312 
L 227.23128 19.872 
L 225.622135 19.872 
z
" clip-path="url(#pf8af06a0da)" style="fill: #1f77b4"/>
   </g>
   <g id="patch_106">
    <path d="M 227.23128 273.312 
L 228.840425 273.312 
L 228.840425 70.116665 
L 227.23128 70.116665 
z
" clip-path="url(#pf8af06a0da)" style="fill: #1f77b4"/>
   </g>
   <g id="patch_107">
    <path d="M 228.840425 273.312 
L 230.44957 273.312 
L 230.44957 26.522029 
L 228.840425 26.522029 
z
" clip-path="url(#pf8af06a0da)" style="fill: #1f77b4"/>
   </g>
   <g id="patch_108">
    <path d="M 230.44957 273.312 
L 232.058715 273.312 
L 232.058715 19.872 
L 230.44957 19.872 
z
" clip-path="url(#pf8af06a0da)" style="fill: #1f77b4"/>
   </g>
   <g id="patch_109">
    <path d="M 232.058715 273.312 
L 233.667861 273.312 
L 233.667861 58.294391 
L 232.058715 58.294391 
z
" clip-path="url(#pf8af06a0da)" style="fill: #1f77b4"/>
   </g>
   <g id="patch_110">
    <path d="M 233.667861 273.312 
L 235.277006 273.312 
L 235.277006 44.994332 
L 233.667861 44.994332 
z
" clip-path="url(#pf8af06a0da)" style="fill: #1f77b4"/>
   </g>
   <g id="patch_111">
    <path d="M 235.277006 273.312 
L 236.886151 273.312 
L 236.886151 36.127627 
L 235.277006 36.127627 
z
" clip-path="url(#pf8af06a0da)" style="fill: #1f77b4"/>
   </g>
   <g id="patch_112">
    <path d="M 236.886151 273.312 
L 238.495296 273.312 
L 238.495296 55.338822 
L 236.886151 55.338822 
z
" clip-path="url(#pf8af06a0da)" style="fill: #1f77b4"/>
   </g>
   <g id="patch_113">
    <path d="M 238.495296 273.312 
L 240.104441 273.312 
L 240.104441 45.733224 
L 238.495296 45.733224 
z
" clip-path="url(#pf8af06a0da)" style="fill: #1f77b4"/>
   </g>
   <g id="patch_114">
    <path d="M 240.104441 273.312 
L 241.713586 273.312 
L 241.713586 25.044245 
L 240.104441 25.044245 
z
" clip-path="url(#pf8af06a0da)" style="fill: #1f77b4"/>
   </g>
   <g id="patch_115">
    <path d="M 241.713586 273.312 
L 243.322731 273.312 
L 243.322731 60.511067 
L 241.713586 60.511067 
z
" clip-path="url(#pf8af06a0da)" style="fill: #1f77b4"/>
   </g>
   <g id="patch_116">
    <path d="M 243.322731 273.312 
L 244.931876 273.312 
L 244.931876 53.122146 
L 243.322731 53.122146 
z
" clip-path="url(#pf8af06a0da)" style="fill: #1f77b4"/>
   </g>
   <g id="patch_117">
    <path d="M 244.931876 273.312 
L 246.541021 273.312 
L 246.541021 44.25544 
L 244.931876 44.25544 
z
" clip-path="url(#pf8af06a0da)" style="fill: #1f77b4"/>
   </g>
   <g id="patch_118">
    <path d="M 246.541021 273.312 
L 248.150167 273.312 
L 248.150167 61.988851 
L 246.541021 61.988851 
z
" clip-path="url(#pf8af06a0da)" style="fill: #1f77b4"/>
   </g>
   <g id="patch_119">
    <path d="M 248.150167 273.312 
L 249.759312 273.312 
L 249.759312 30.21649 
L 248.150167 30.21649 
z
" clip-path="url(#pf8af06a0da)" style="fill: #1f77b4"/>
   </g>
   <g id="patch_120">
    <path d="M 249.759312 273.312 
L 251.368457 273.312 
L 251.368457 43.516548 
L 249.759312 43.516548 
z
" clip-path="url(#pf8af06a0da)" style="fill: #1f77b4"/>
   </g>
   <g id="patch_121">
    <path d="M 251.368457 273.312 
L 252.977602 273.312 
L 252.977602 53.861038 
L 251.368457 53.861038 
z
" clip-path="url(#pf8af06a0da)" style="fill: #1f77b4"/>
   </g>
   <g id="patch_122">
    <path d="M 252.977602 273.312 
L 254.586747 273.312 
L 254.586747 65.683312 
L 252.977602 65.683312 
z
" clip-path="url(#pf8af06a0da)" style="fill: #1f77b4"/>
   </g>
   <g id="patch_123">
    <path d="M 254.586747 273.312 
L 256.195892 273.312 
L 256.195892 53.861038 
L 254.586747 53.861038 
z
" clip-path="url(#pf8af06a0da)" style="fill: #1f77b4"/>
   </g>
   <g id="patch_124">
    <path d="M 256.195892 273.312 
L 257.805037 273.312 
L 257.805037 85.633399 
L 256.195892 85.633399 
z
" clip-path="url(#pf8af06a0da)" style="fill: #1f77b4"/>
   </g>
   <g id="patch_125">
    <path d="M 257.805037 273.312 
L 259.414182 273.312 
L 259.414182 64.205528 
L 257.805037 64.205528 
z
" clip-path="url(#pf8af06a0da)" style="fill: #1f77b4"/>
   </g>
   <g id="patch_126">
    <path d="M 259.414182 273.312 
L 261.023327 273.312 
L 261.023327 61.988851 
L 259.414182 61.988851 
z
" clip-path="url(#pf8af06a0da)" style="fill: #1f77b4"/>
   </g>
   <g id="patch_127">
    <path d="M 261.023327 273.312 
L 262.632473 273.312 
L 262.632473 68.63888 
L 261.023327 68.63888 
z
" clip-path="url(#pf8af06a0da)" style="fill: #1f77b4"/>
   </g>
   <g id="patch_128">
    <path d="M 262.632473 273.312 
L 264.241618 273.312 
L 264.241618 42.777656 
L 262.632473 42.777656 
z
" clip-path="url(#pf8af06a0da)" style="fill: #1f77b4"/>
   </g>
   <g id="patch_129">
    <path d="M 264.241618 273.312 
L 265.850763 273.312 
L 265.850763 60.511067 
L 264.241618 60.511067 
z
" clip-path="url(#pf8af06a0da)" style="fill: #1f77b4"/>
   </g>
   <g id="patch_130">
    <path d="M 265.850763 273.312 
L 267.459908 273.312 
L 267.459908 52.383254 
L 265.850763 52.383254 
z
" clip-path="url(#pf8af06a0da)" style="fill: #1f77b4"/>
   </g>
   <g id="patch_131">
    <path d="M 267.459908 273.312 
L 269.069053 273.312 
L 269.069053 76.027802 
L 267.459908 76.027802 
z
" clip-path="url(#pf8af06a0da)" style="fill: #1f77b4"/>
   </g>
   <g id="patch_132">
    <path d="M 269.069053 273.312 
L 270.678198 273.312 
L 270.678198 72.333341 
L 269.069053 72.333341 
z
" clip-path="url(#pf8af06a0da)" style="fill: #1f77b4"/>
   </g>
   <g id="patch_133">
    <path d="M 270.678198 273.312 
L 272.287343 273.312 
L 272.287343 61.249959 
L 270.678198 61.249959 
z
" clip-path="url(#pf8af06a0da)" style="fill: #1f77b4"/>
   </g>
   <g id="patch_134">
    <path d="M 272.287343 273.312 
L 273.896488 273.312 
L 273.896488 78.98337 
L 272.287343 78.98337 
z
" clip-path="url(#pf8af06a0da)" style="fill: #1f77b4"/>
   </g>
   <g id="patch_135">
    <path d="M 273.896488 273.312 
L 275.505633 273.312 
L 275.505633 53.861038 
L 273.896488 53.861038 
z
" clip-path="url(#pf8af06a0da)" style="fill: #1f77b4"/>
   </g>
   <g id="patch_136">
    <path d="M 275.505633 273.312 
L 277.114779 273.312 
L 277.114779 84.894507 
L 275.505633 84.894507 
z
" clip-path="url(#pf8af06a0da)" style="fill: #1f77b4"/>
   </g>
   <g id="patch_137">
    <path d="M 277.114779 273.312 
L 278.723924 273.312 
L 278.723924 56.816606 
L 277.114779 56.816606 
z
" clip-path="url(#pf8af06a0da)" style="fill: #1f77b4"/>
   </g>
   <g id="patch_138">
    <path d="M 278.723924 273.312 
L 280.333069 273.312 
L 280.333069 73.072233 
L 278.723924 73.072233 
z
" clip-path="url(#pf8af06a0da)" style="fill: #1f77b4"/>
   </g>
   <g id="patch_139">
    <path d="M 280.333069 273.312 
L 281.942214 273.312 
L 281.942214 70.855557 
L 280.333069 70.855557 
z
" clip-path="url(#pf8af06a0da)" style="fill: #1f77b4"/>
   </g>
   <g id="patch_140">
    <path d="M 281.942214 273.312 
L 283.551359 273.312 
L 283.551359 91.544536 
L 281.942214 91.544536 
z
" clip-path="url(#pf8af06a0da)" style="fill: #1f77b4"/>
   </g>
   <g id="patch_141">
    <path d="M 283.551359 273.312 
L 285.160504 273.312 
L 285.160504 73.811125 
L 283.551359 73.811125 
z
" clip-path="url(#pf8af06a0da)" style="fill: #1f77b4"/>
   </g>
   <g id="patch_142">
    <path d="M 285.160504 273.312 
L 286.769649 273.312 
L 286.769649 100.411242 
L 285.160504 100.411242 
z
" clip-path="url(#pf8af06a0da)" style="fill: #1f77b4"/>
   </g>
   <g id="patch_143">
    <path d="M 286.769649 273.312 
L 288.378794 273.312 
L 288.378794 110.755732 
L 286.769649 110.755732 
z
" clip-path="url(#pf8af06a0da)" style="fill: #1f77b4"/>
   </g>
   <g id="patch_144">
    <path d="M 288.378794 273.312 
L 289.987939 273.312 
L 289.987939 95.238997 
L 288.378794 95.238997 
z
" clip-path="url(#pf8af06a0da)" style="fill: #1f77b4"/>
   </g>
   <g id="patch_145">
    <path d="M 289.987939 273.312 
L 291.597085 273.312 
L 291.597085 77.505586 
L 289.987939 77.505586 
z
" clip-path="url(#pf8af06a0da)" style="fill: #1f77b4"/>
   </g>
   <g id="patch_146">
    <path d="M 291.597085 273.312 
L 293.20623 273.312 
L 293.20623 108.539055 
L 291.597085 108.539055 
z
" clip-path="url(#pf8af06a0da)" style="fill: #1f77b4"/>
   </g>
   <g id="patch_147">
    <path d="M 293.20623 273.312 
L 294.815375 273.312 
L 294.815375 98.194566 
L 293.20623 98.194566 
z
" clip-path="url(#pf8af06a0da)" style="fill: #1f77b4"/>
   </g>
   <g id="patch_148">
    <path d="M 294.815375 273.312 
L 296.42452 273.312 
L 296.42452 116.666869 
L 294.815375 116.666869 
z
" clip-path="url(#pf8af06a0da)" style="fill: #1f77b4"/>
   </g>
   <g id="patch_149">
    <path d="M 296.42452 273.312 
L 298.033665 273.312 
L 298.033665 84.894507 
L 296.42452 84.894507 
z
" clip-path="url(#pf8af06a0da)" style="fill: #1f77b4"/>
   </g>
   <g id="patch_150">
    <path d="M 298.033665 273.312 
L 299.64281 273.312 
L 299.64281 114.450192 
L 298.033665 114.450192 
z
" clip-path="url(#pf8af06a0da)" style="fill: #1f77b4"/>
   </g>
   <g id="patch_151">
    <path d="M 299.64281 273.312 
L 301.251955 273.312 
L 301.251955 103.36681 
L 299.64281 103.36681 
z
" clip-path="url(#pf8af06a0da)" style="fill: #1f77b4"/>
   </g>
   <g id="patch_152">
    <path d="M 301.251955 273.312 
L 302.8611 273.312 
L 302.8611 105.583487 
L 301.251955 105.583487 
z
" clip-path="url(#pf8af06a0da)" style="fill: #1f77b4"/>
   </g>
   <g id="patch_153">
    <path d="M 302.8611 273.312 
L 304.470245 273.312 
L 304.470245 111.494624 
L 302.8611 111.494624 
z
" clip-path="url(#pf8af06a0da)" style="fill: #1f77b4"/>
   </g>
   <g id="patch_154">
    <path d="M 304.470245 273.312 
L 306.079391 273.312 
L 306.079391 118.144653 
L 304.470245 118.144653 
z
" clip-path="url(#pf8af06a0da)" style="fill: #1f77b4"/>
   </g>
   <g id="patch_155">
    <path d="M 306.079391 273.312 
L 307.688536 273.312 
L 307.688536 101.889026 
L 306.079391 101.889026 
z
" clip-path="url(#pf8af06a0da)" style="fill: #1f77b4"/>
   </g>
   <g id="patch_156">
    <path d="M 307.688536 273.312 
L 309.297681 273.312 
L 309.297681 115.189085 
L 307.688536 115.189085 
z
" clip-path="url(#pf8af06a0da)" style="fill: #1f77b4"/>
   </g>
   <g id="patch_157">
    <path d="M 309.297681 273.312 
L 310.906826 273.312 
L 310.906826 116.666869 
L 309.297681 116.666869 
z
" clip-path="url(#pf8af06a0da)" style="fill: #1f77b4"/>
   </g>
   <g id="patch_158">
    <path d="M 310.906826 273.312 
L 312.515971 273.312 
L 312.515971 115.927977 
L 310.906826 115.927977 
z
" clip-path="url(#pf8af06a0da)" style="fill: #1f77b4"/>
   </g>
   <g id="patch_159">
    <path d="M 312.515971 273.312 
L 314.125116 273.312 
L 314.125116 148.43923 
L 312.515971 148.43923 
z
" clip-path="url(#pf8af06a0da)" style="fill: #1f77b4"/>
   </g>
   <g id="patch_160">
    <path d="M 314.125116 273.312 
L 315.734261 273.312 
L 315.734261 134.40028 
L 314.125116 134.40028 
z
" clip-path="url(#pf8af06a0da)" style="fill: #1f77b4"/>
   </g>
   <g id="patch_161">
    <path d="M 315.734261 273.312 
L 317.343406 273.312 
L 317.343406 143.266985 
L 315.734261 143.266985 
z
" clip-path="url(#pf8af06a0da)" style="fill: #1f77b4"/>
   </g>
   <g id="patch_162">
    <path d="M 317.343406 273.312 
L 318.952551 273.312 
L 318.952551 135.878064 
L 317.343406 135.878064 
z
" clip-path="url(#pf8af06a0da)" style="fill: #1f77b4"/>
   </g>
   <g id="patch_163">
    <path d="M 318.952551 273.312 
L 320.561697 273.312 
L 320.561697 128.489143 
L 318.952551 128.489143 
z
" clip-path="url(#pf8af06a0da)" style="fill: #1f77b4"/>
   </g>
   <g id="patch_164">
    <path d="M 320.561697 273.312 
L 322.170842 273.312 
L 322.170842 151.394799 
L 320.561697 151.394799 
z
" clip-path="url(#pf8af06a0da)" style="fill: #1f77b4"/>
   </g>
   <g id="patch_165">
    <path d="M 322.170842 273.312 
L 323.779987 273.312 
L 323.779987 161.739289 
L 322.170842 161.739289 
z
" clip-path="url(#pf8af06a0da)" style="fill: #1f77b4"/>
   </g>
   <g id="patch_166">
    <path d="M 323.779987 273.312 
L 325.389132 273.312 
L 325.389132 144.74477 
L 323.779987 144.74477 
z
" clip-path="url(#pf8af06a0da)" style="fill: #1f77b4"/>
   </g>
   <g id="patch_167">
    <path d="M 325.389132 273.312 
L 326.998277 273.312 
L 326.998277 147.700338 
L 325.389132 147.700338 
z
" clip-path="url(#pf8af06a0da)" style="fill: #1f77b4"/>
   </g>
   <g id="patch_168">
    <path d="M 326.998277 273.312 
L 328.607422 273.312 
L 328.607422 127.750251 
L 326.998277 127.750251 
z
" clip-path="url(#pf8af06a0da)" style="fill: #1f77b4"/>
   </g>
   <g id="patch_169">
    <path d="M 328.607422 273.312 
L 330.216567 273.312 
L 330.216567 153.611475 
L 328.607422 153.611475 
z
" clip-path="url(#pf8af06a0da)" style="fill: #1f77b4"/>
   </g>
   <g id="patch_170">
    <path d="M 330.216567 273.312 
L 331.825712 273.312 
L 331.825712 159.522612 
L 330.216567 159.522612 
z
" clip-path="url(#pf8af06a0da)" style="fill: #1f77b4"/>
   </g>
   <g id="patch_171">
    <path d="M 331.825712 273.312 
L 333.434857 273.312 
L 333.434857 166.172641 
L 331.825712 166.172641 
z
" clip-path="url(#pf8af06a0da)" style="fill: #1f77b4"/>
   </g>
   <g id="patch_172">
    <path d="M 333.434857 273.312 
L 335.044003 273.312 
L 335.044003 161.000397 
L 333.434857 161.000397 
z
" clip-path="url(#pf8af06a0da)" style="fill: #1f77b4"/>
   </g>
   <g id="patch_173">
    <path d="M 335.044003 273.312 
L 336.653148 273.312 
L 336.653148 176.517131 
L 335.044003 176.517131 
z
" clip-path="url(#pf8af06a0da)" style="fill: #1f77b4"/>
   </g>
   <g id="patch_174">
    <path d="M 336.653148 273.312 
L 338.262293 273.312 
L 338.262293 169.867102 
L 336.653148 169.867102 
z
" clip-path="url(#pf8af06a0da)" style="fill: #1f77b4"/>
   </g>
   <g id="patch_175">
    <path d="M 338.262293 273.312 
L 339.871438 273.312 
L 339.871438 182.428268 
L 338.262293 182.428268 
z
" clip-path="url(#pf8af06a0da)" style="fill: #1f77b4"/>
   </g>
   <g id="patch_176">
    <path d="M 339.871438 273.312 
L 341.480583 273.312 
L 341.480583 182.428268 
L 339.871438 182.428268 
z
" clip-path="url(#pf8af06a0da)" style="fill: #1f77b4"/>
   </g>
   <g id="patch_177">
    <path d="M 341.480583 273.312 
L 343.089728 273.312 
L 343.089728 187.600513 
L 341.480583 187.600513 
z
" clip-path="url(#pf8af06a0da)" style="fill: #1f77b4"/>
   </g>
   <g id="patch_178">
    <path d="M 343.089728 273.312 
L 344.698873 273.312 
L 344.698873 170.605994 
L 343.089728 170.605994 
z
" clip-path="url(#pf8af06a0da)" style="fill: #1f77b4"/>
   </g>
   <g id="patch_179">
    <path d="M 344.698873 273.312 
L 346.308018 273.312 
L 346.308018 193.51165 
L 344.698873 193.51165 
z
" clip-path="url(#pf8af06a0da)" style="fill: #1f77b4"/>
   </g>
   <g id="patch_180">
    <path d="M 346.308018 273.312 
L 347.917163 273.312 
L 347.917163 190.556082 
L 346.308018 190.556082 
z
" clip-path="url(#pf8af06a0da)" style="fill: #1f77b4"/>
   </g>
   <g id="patch_181">
    <path d="M 347.917163 273.312 
L 349.526309 273.312 
L 349.526309 203.117248 
L 347.917163 203.117248 
z
" clip-path="url(#pf8af06a0da)" style="fill: #1f77b4"/>
   </g>
   <g id="patch_182">
    <path d="M 349.526309 273.312 
L 351.135454 273.312 
L 351.135454 199.422787 
L 349.526309 199.422787 
z
" clip-path="url(#pf8af06a0da)" style="fill: #1f77b4"/>
   </g>
   <g id="patch_183">
    <path d="M 351.135454 273.312 
L 352.744599 273.312 
L 352.744599 197.206111 
L 351.135454 197.206111 
z
" clip-path="url(#pf8af06a0da)" style="fill: #1f77b4"/>
   </g>
   <g id="patch_184">
    <path d="M 352.744599 273.312 
L 354.353744 273.312 
L 354.353744 204.595032 
L 352.744599 204.595032 
z
" clip-path="url(#pf8af06a0da)" style="fill: #1f77b4"/>
   </g>
   <g id="patch_185">
    <path d="M 354.353744 273.312 
L 355.962889 273.312 
L 355.962889 215.678414 
L 354.353744 215.678414 
z
" clip-path="url(#pf8af06a0da)" style="fill: #1f77b4"/>
   </g>
   <g id="patch_186">
    <path d="M 355.962889 273.312 
L 357.572034 273.312 
L 357.572034 214.20063 
L 355.962889 214.20063 
z
" clip-path="url(#pf8af06a0da)" style="fill: #1f77b4"/>
   </g>
   <g id="patch_187">
    <path d="M 357.572034 273.312 
L 359.181179 273.312 
L 359.181179 205.333924 
L 357.572034 205.333924 
z
" clip-path="url(#pf8af06a0da)" style="fill: #1f77b4"/>
   </g>
   <g id="patch_188">
    <path d="M 359.181179 273.312 
L 360.790324 273.312 
L 360.790324 228.978472 
L 359.181179 228.978472 
z
" clip-path="url(#pf8af06a0da)" style="fill: #1f77b4"/>
   </g>
   <g id="patch_189">
    <path d="M 360.790324 273.312 
L 362.399469 273.312 
L 362.399469 230.456257 
L 360.790324 230.456257 
z
" clip-path="url(#pf8af06a0da)" style="fill: #1f77b4"/>
   </g>
   <g id="patch_190">
    <path d="M 362.399469 273.312 
L 364.008615 273.312 
L 364.008615 229.717364 
L 362.399469 229.717364 
z
" clip-path="url(#pf8af06a0da)" style="fill: #1f77b4"/>
   </g>
   <g id="patch_191">
    <path d="M 364.008615 273.312 
L 365.61776 273.312 
L 365.61776 228.978472 
L 364.008615 228.978472 
z
" clip-path="url(#pf8af06a0da)" style="fill: #1f77b4"/>
   </g>
   <g id="patch_192">
    <path d="M 365.61776 273.312 
L 367.226905 273.312 
L 367.226905 233.411825 
L 365.61776 233.411825 
z
" clip-path="url(#pf8af06a0da)" style="fill: #1f77b4"/>
   </g>
   <g id="patch_193">
    <path d="M 367.226905 273.312 
L 368.83605 273.312 
L 368.83605 240.061854 
L 367.226905 240.061854 
z
" clip-path="url(#pf8af06a0da)" style="fill: #1f77b4"/>
   </g>
   <g id="patch_194">
    <path d="M 368.83605 273.312 
L 370.445195 273.312 
L 370.445195 246.711883 
L 368.83605 246.711883 
z
" clip-path="url(#pf8af06a0da)" style="fill: #1f77b4"/>
   </g>
   <g id="patch_195">
    <path d="M 370.445195 273.312 
L 372.05434 273.312 
L 372.05434 241.539638 
L 370.445195 241.539638 
z
" clip-path="url(#pf8af06a0da)" style="fill: #1f77b4"/>
   </g>
   <g id="patch_196">
    <path d="M 372.05434 273.312 
L 373.663485 273.312 
L 373.663485 246.711883 
L 372.05434 246.711883 
z
" clip-path="url(#pf8af06a0da)" style="fill: #1f77b4"/>
   </g>
   <g id="patch_197">
    <path d="M 373.663485 273.312 
L 375.27263 273.312 
L 375.27263 247.450776 
L 373.663485 247.450776 
z
" clip-path="url(#pf8af06a0da)" style="fill: #1f77b4"/>
   </g>
   <g id="patch_198">
    <path d="M 375.27263 273.312 
L 376.881775 273.312 
L 376.881775 257.056373 
L 375.27263 257.056373 
z
" clip-path="url(#pf8af06a0da)" style="fill: #1f77b4"/>
   </g>
   <g id="patch_199">
    <path d="M 376.881775 273.312 
L 378.490921 273.312 
L 378.490921 258.534157 
L 376.881775 258.534157 
z
" clip-path="url(#pf8af06a0da)" style="fill: #1f77b4"/>
   </g>
   <g id="patch_200">
    <path d="M 378.490921 273.312 
L 380.100066 273.312 
L 380.100066 262.228618 
L 378.490921 262.228618 
z
" clip-path="url(#pf8af06a0da)" style="fill: #1f77b4"/>
   </g>
   <g id="patch_201">
    <path d="M 380.100066 273.312 
L 381.709211 273.312 
L 381.709211 265.184187 
L 380.100066 265.184187 
z
" clip-path="url(#pf8af06a0da)" style="fill: #1f77b4"/>
   </g>
   <g id="patch_202">
    <path d="M 381.709211 273.312 
L 383.318356 273.312 
L 383.318356 268.139755 
L 381.709211 268.139755 
z
" clip-path="url(#pf8af06a0da)" style="fill: #1f77b4"/>
   </g>
   <g id="matplotlib.axis_1">
    <g id="xtick_1">
     <g id="line2d_1">
      <defs>
       <path id="m3af30f9865" d="M 0 0 
L 0 3.5 
" style="stroke: #000000; stroke-width: 0.8"/>
      </defs>
      <g>
       <use xlink:href="#m3af30f9865" x="60.013977" y="273.312" style="stroke: #000000; stroke-width: 0.8"/>
      </g>
     </g>
     <g id="text_1">
      <!-- 0.0 -->
      <g transform="translate(52.062415 287.910437)scale(0.1 -0.1)">
       <defs>
        <path id="DejaVuSans-30" d="M 2034 4250 
Q 1547 4250 1301 3770 
Q 1056 3291 1056 2328 
Q 1056 1369 1301 889 
Q 1547 409 2034 409 
Q 2525 409 2770 889 
Q 3016 1369 3016 2328 
Q 3016 3291 2770 3770 
Q 2525 4250 2034 4250 
z
M 2034 4750 
Q 2819 4750 3233 4129 
Q 3647 3509 3647 2328 
Q 3647 1150 3233 529 
Q 2819 -91 2034 -91 
Q 1250 -91 836 529 
Q 422 1150 422 2328 
Q 422 3509 836 4129 
Q 1250 4750 2034 4750 
z
" transform="scale(0.015625)"/>
        <path id="DejaVuSans-2e" d="M 684 794 
L 1344 794 
L 1344 0 
L 684 0 
L 684 794 
z
" transform="scale(0.015625)"/>
       </defs>
       <use xlink:href="#DejaVuSans-30"/>
       <use xlink:href="#DejaVuSans-2e" x="63.623047"/>
       <use xlink:href="#DejaVuSans-30" x="95.410156"/>
      </g>
     </g>
    </g>
    <g id="xtick_2">
     <g id="line2d_2">
      <g>
       <use xlink:href="#m3af30f9865" x="101.350278" y="273.312" style="stroke: #000000; stroke-width: 0.8"/>
      </g>
     </g>
     <g id="text_2">
      <!-- 0.2 -->
      <g transform="translate(93.398715 287.910437)scale(0.1 -0.1)">
       <defs>
        <path id="DejaVuSans-32" d="M 1228 531 
L 3431 531 
L 3431 0 
L 469 0 
L 469 531 
Q 828 903 1448 1529 
Q 2069 2156 2228 2338 
Q 2531 2678 2651 2914 
Q 2772 3150 2772 3378 
Q 2772 3750 2511 3984 
Q 2250 4219 1831 4219 
Q 1534 4219 1204 4116 
Q 875 4013 500 3803 
L 500 4441 
Q 881 4594 1212 4672 
Q 1544 4750 1819 4750 
Q 2544 4750 2975 4387 
Q 3406 4025 3406 3419 
Q 3406 3131 3298 2873 
Q 3191 2616 2906 2266 
Q 2828 2175 2409 1742 
Q 1991 1309 1228 531 
z
" transform="scale(0.015625)"/>
       </defs>
       <use xlink:href="#DejaVuSans-30"/>
       <use xlink:href="#DejaVuSans-2e" x="63.623047"/>
       <use xlink:href="#DejaVuSans-32" x="95.410156"/>
      </g>
     </g>
    </g>
    <g id="xtick_3">
     <g id="line2d_3">
      <g>
       <use xlink:href="#m3af30f9865" x="142.686578" y="273.312" style="stroke: #000000; stroke-width: 0.8"/>
      </g>
     </g>
     <g id="text_3">
      <!-- 0.4 -->
      <g transform="translate(134.735016 287.910437)scale(0.1 -0.1)">
       <defs>
        <path id="DejaVuSans-34" d="M 2419 4116 
L 825 1625 
L 2419 1625 
L 2419 4116 
z
M 2253 4666 
L 3047 4666 
L 3047 1625 
L 3713 1625 
L 3713 1100 
L 3047 1100 
L 3047 0 
L 2419 0 
L 2419 1100 
L 313 1100 
L 313 1709 
L 2253 4666 
z
" transform="scale(0.015625)"/>
       </defs>
       <use xlink:href="#DejaVuSans-30"/>
       <use xlink:href="#DejaVuSans-2e" x="63.623047"/>
       <use xlink:href="#DejaVuSans-34" x="95.410156"/>
      </g>
     </g>
    </g>
    <g id="xtick_4">
     <g id="line2d_4">
      <g>
       <use xlink:href="#m3af30f9865" x="184.022879" y="273.312" style="stroke: #000000; stroke-width: 0.8"/>
      </g>
     </g>
     <g id="text_4">
      <!-- 0.6 -->
      <g transform="translate(176.071316 287.910437)scale(0.1 -0.1)">
       <defs>
        <path id="DejaVuSans-36" d="M 2113 2584 
Q 1688 2584 1439 2293 
Q 1191 2003 1191 1497 
Q 1191 994 1439 701 
Q 1688 409 2113 409 
Q 2538 409 2786 701 
Q 3034 994 3034 1497 
Q 3034 2003 2786 2293 
Q 2538 2584 2113 2584 
z
M 3366 4563 
L 3366 3988 
Q 3128 4100 2886 4159 
Q 2644 4219 2406 4219 
Q 1781 4219 1451 3797 
Q 1122 3375 1075 2522 
Q 1259 2794 1537 2939 
Q 1816 3084 2150 3084 
Q 2853 3084 3261 2657 
Q 3669 2231 3669 1497 
Q 3669 778 3244 343 
Q 2819 -91 2113 -91 
Q 1303 -91 875 529 
Q 447 1150 447 2328 
Q 447 3434 972 4092 
Q 1497 4750 2381 4750 
Q 2619 4750 2861 4703 
Q 3103 4656 3366 4563 
z
" transform="scale(0.015625)"/>
       </defs>
       <use xlink:href="#DejaVuSans-30"/>
       <use xlink:href="#DejaVuSans-2e" x="63.623047"/>
       <use xlink:href="#DejaVuSans-36" x="95.410156"/>
      </g>
     </g>
    </g>
    <g id="xtick_5">
     <g id="line2d_5">
      <g>
       <use xlink:href="#m3af30f9865" x="225.35918" y="273.312" style="stroke: #000000; stroke-width: 0.8"/>
      </g>
     </g>
     <g id="text_5">
      <!-- 0.8 -->
      <g transform="translate(217.407617 287.910437)scale(0.1 -0.1)">
       <defs>
        <path id="DejaVuSans-38" d="M 2034 2216 
Q 1584 2216 1326 1975 
Q 1069 1734 1069 1313 
Q 1069 891 1326 650 
Q 1584 409 2034 409 
Q 2484 409 2743 651 
Q 3003 894 3003 1313 
Q 3003 1734 2745 1975 
Q 2488 2216 2034 2216 
z
M 1403 2484 
Q 997 2584 770 2862 
Q 544 3141 544 3541 
Q 544 4100 942 4425 
Q 1341 4750 2034 4750 
Q 2731 4750 3128 4425 
Q 3525 4100 3525 3541 
Q 3525 3141 3298 2862 
Q 3072 2584 2669 2484 
Q 3125 2378 3379 2068 
Q 3634 1759 3634 1313 
Q 3634 634 3220 271 
Q 2806 -91 2034 -91 
Q 1263 -91 848 271 
Q 434 634 434 1313 
Q 434 1759 690 2068 
Q 947 2378 1403 2484 
z
M 1172 3481 
Q 1172 3119 1398 2916 
Q 1625 2713 2034 2713 
Q 2441 2713 2670 2916 
Q 2900 3119 2900 3481 
Q 2900 3844 2670 4047 
Q 2441 4250 2034 4250 
Q 1625 4250 1398 4047 
Q 1172 3844 1172 3481 
z
" transform="scale(0.015625)"/>
       </defs>
       <use xlink:href="#DejaVuSans-30"/>
       <use xlink:href="#DejaVuSans-2e" x="63.623047"/>
       <use xlink:href="#DejaVuSans-38" x="95.410156"/>
      </g>
     </g>
    </g>
    <g id="xtick_6">
     <g id="line2d_6">
      <g>
       <use xlink:href="#m3af30f9865" x="266.69548" y="273.312" style="stroke: #000000; stroke-width: 0.8"/>
      </g>
     </g>
     <g id="text_6">
      <!-- 1.0 -->
      <g transform="translate(258.743918 287.910437)scale(0.1 -0.1)">
       <defs>
        <path id="DejaVuSans-31" d="M 794 531 
L 1825 531 
L 1825 4091 
L 703 3866 
L 703 4441 
L 1819 4666 
L 2450 4666 
L 2450 531 
L 3481 531 
L 3481 0 
L 794 0 
L 794 531 
z
" transform="scale(0.015625)"/>
       </defs>
       <use xlink:href="#DejaVuSans-31"/>
       <use xlink:href="#DejaVuSans-2e" x="63.623047"/>
       <use xlink:href="#DejaVuSans-30" x="95.410156"/>
      </g>
     </g>
    </g>
    <g id="xtick_7">
     <g id="line2d_7">
      <g>
       <use xlink:href="#m3af30f9865" x="308.031781" y="273.312" style="stroke: #000000; stroke-width: 0.8"/>
      </g>
     </g>
     <g id="text_7">
      <!-- 1.2 -->
      <g transform="translate(300.080218 287.910437)scale(0.1 -0.1)">
       <use xlink:href="#DejaVuSans-31"/>
       <use xlink:href="#DejaVuSans-2e" x="63.623047"/>
       <use xlink:href="#DejaVuSans-32" x="95.410156"/>
      </g>
     </g>
    </g>
    <g id="xtick_8">
     <g id="line2d_8">
      <g>
       <use xlink:href="#m3af30f9865" x="349.368081" y="273.312" style="stroke: #000000; stroke-width: 0.8"/>
      </g>
     </g>
     <g id="text_8">
      <!-- 1.4 -->
      <g transform="translate(341.416519 287.910437)scale(0.1 -0.1)">
       <use xlink:href="#DejaVuSans-31"/>
       <use xlink:href="#DejaVuSans-2e" x="63.623047"/>
       <use xlink:href="#DejaVuSans-34" x="95.410156"/>
      </g>
     </g>
    </g>
    <g id="xtick_9">
     <g id="line2d_9">
      <g>
       <use xlink:href="#m3af30f9865" x="390.704382" y="273.312" style="stroke: #000000; stroke-width: 0.8"/>
      </g>
     </g>
     <g id="text_9">
      <!-- 1.6 -->
      <g transform="translate(382.752819 287.910437)scale(0.1 -0.1)">
       <use xlink:href="#DejaVuSans-31"/>
       <use xlink:href="#DejaVuSans-2e" x="63.623047"/>
       <use xlink:href="#DejaVuSans-36" x="95.410156"/>
      </g>
     </g>
    </g>
    <g id="text_10">
     <!-- Angle with normal (rad) -->
     <g transform="translate(163.023281 301.588562)scale(0.1 -0.1)">
      <defs>
       <path id="DejaVuSans-41" d="M 2188 4044 
L 1331 1722 
L 3047 1722 
L 2188 4044 
z
M 1831 4666 
L 2547 4666 
L 4325 0 
L 3669 0 
L 3244 1197 
L 1141 1197 
L 716 0 
L 50 0 
L 1831 4666 
z
" transform="scale(0.015625)"/>
       <path id="DejaVuSans-6e" d="M 3513 2113 
L 3513 0 
L 2938 0 
L 2938 2094 
Q 2938 2591 2744 2837 
Q 2550 3084 2163 3084 
Q 1697 3084 1428 2787 
Q 1159 2491 1159 1978 
L 1159 0 
L 581 0 
L 581 3500 
L 1159 3500 
L 1159 2956 
Q 1366 3272 1645 3428 
Q 1925 3584 2291 3584 
Q 2894 3584 3203 3211 
Q 3513 2838 3513 2113 
z
" transform="scale(0.015625)"/>
       <path id="DejaVuSans-67" d="M 2906 1791 
Q 2906 2416 2648 2759 
Q 2391 3103 1925 3103 
Q 1463 3103 1205 2759 
Q 947 2416 947 1791 
Q 947 1169 1205 825 
Q 1463 481 1925 481 
Q 2391 481 2648 825 
Q 2906 1169 2906 1791 
z
M 3481 434 
Q 3481 -459 3084 -895 
Q 2688 -1331 1869 -1331 
Q 1566 -1331 1297 -1286 
Q 1028 -1241 775 -1147 
L 775 -588 
Q 1028 -725 1275 -790 
Q 1522 -856 1778 -856 
Q 2344 -856 2625 -561 
Q 2906 -266 2906 331 
L 2906 616 
Q 2728 306 2450 153 
Q 2172 0 1784 0 
Q 1141 0 747 490 
Q 353 981 353 1791 
Q 353 2603 747 3093 
Q 1141 3584 1784 3584 
Q 2172 3584 2450 3431 
Q 2728 3278 2906 2969 
L 2906 3500 
L 3481 3500 
L 3481 434 
z
" transform="scale(0.015625)"/>
       <path id="DejaVuSans-6c" d="M 603 4863 
L 1178 4863 
L 1178 0 
L 603 0 
L 603 4863 
z
" transform="scale(0.015625)"/>
       <path id="DejaVuSans-65" d="M 3597 1894 
L 3597 1613 
L 953 1613 
Q 991 1019 1311 708 
Q 1631 397 2203 397 
Q 2534 397 2845 478 
Q 3156 559 3463 722 
L 3463 178 
Q 3153 47 2828 -22 
Q 2503 -91 2169 -91 
Q 1331 -91 842 396 
Q 353 884 353 1716 
Q 353 2575 817 3079 
Q 1281 3584 2069 3584 
Q 2775 3584 3186 3129 
Q 3597 2675 3597 1894 
z
M 3022 2063 
Q 3016 2534 2758 2815 
Q 2500 3097 2075 3097 
Q 1594 3097 1305 2825 
Q 1016 2553 972 2059 
L 3022 2063 
z
" transform="scale(0.015625)"/>
       <path id="DejaVuSans-20" transform="scale(0.015625)"/>
       <path id="DejaVuSans-77" d="M 269 3500 
L 844 3500 
L 1563 769 
L 2278 3500 
L 2956 3500 
L 3675 769 
L 4391 3500 
L 4966 3500 
L 4050 0 
L 3372 0 
L 2619 2869 
L 1863 0 
L 1184 0 
L 269 3500 
z
" transform="scale(0.015625)"/>
       <path id="DejaVuSans-69" d="M 603 3500 
L 1178 3500 
L 1178 0 
L 603 0 
L 603 3500 
z
M 603 4863 
L 1178 4863 
L 1178 4134 
L 603 4134 
L 603 4863 
z
" transform="scale(0.015625)"/>
       <path id="DejaVuSans-74" d="M 1172 4494 
L 1172 3500 
L 2356 3500 
L 2356 3053 
L 1172 3053 
L 1172 1153 
Q 1172 725 1289 603 
Q 1406 481 1766 481 
L 2356 481 
L 2356 0 
L 1766 0 
Q 1100 0 847 248 
Q 594 497 594 1153 
L 594 3053 
L 172 3053 
L 172 3500 
L 594 3500 
L 594 4494 
L 1172 4494 
z
" transform="scale(0.015625)"/>
       <path id="DejaVuSans-68" d="M 3513 2113 
L 3513 0 
L 2938 0 
L 2938 2094 
Q 2938 2591 2744 2837 
Q 2550 3084 2163 3084 
Q 1697 3084 1428 2787 
Q 1159 2491 1159 1978 
L 1159 0 
L 581 0 
L 581 4863 
L 1159 4863 
L 1159 2956 
Q 1366 3272 1645 3428 
Q 1925 3584 2291 3584 
Q 2894 3584 3203 3211 
Q 3513 2838 3513 2113 
z
" transform="scale(0.015625)"/>
       <path id="DejaVuSans-6f" d="M 1959 3097 
Q 1497 3097 1228 2736 
Q 959 2375 959 1747 
Q 959 1119 1226 758 
Q 1494 397 1959 397 
Q 2419 397 2687 759 
Q 2956 1122 2956 1747 
Q 2956 2369 2687 2733 
Q 2419 3097 1959 3097 
z
M 1959 3584 
Q 2709 3584 3137 3096 
Q 3566 2609 3566 1747 
Q 3566 888 3137 398 
Q 2709 -91 1959 -91 
Q 1206 -91 779 398 
Q 353 888 353 1747 
Q 353 2609 779 3096 
Q 1206 3584 1959 3584 
z
" transform="scale(0.015625)"/>
       <path id="DejaVuSans-72" d="M 2631 2963 
Q 2534 3019 2420 3045 
Q 2306 3072 2169 3072 
Q 1681 3072 1420 2755 
Q 1159 2438 1159 1844 
L 1159 0 
L 581 0 
L 581 3500 
L 1159 3500 
L 1159 2956 
Q 1341 3275 1631 3429 
Q 1922 3584 2338 3584 
Q 2397 3584 2469 3576 
Q 2541 3569 2628 3553 
L 2631 2963 
z
" transform="scale(0.015625)"/>
       <path id="DejaVuSans-6d" d="M 3328 2828 
Q 3544 3216 3844 3400 
Q 4144 3584 4550 3584 
Q 5097 3584 5394 3201 
Q 5691 2819 5691 2113 
L 5691 0 
L 5113 0 
L 5113 2094 
Q 5113 2597 4934 2840 
Q 4756 3084 4391 3084 
Q 3944 3084 3684 2787 
Q 3425 2491 3425 1978 
L 3425 0 
L 2847 0 
L 2847 2094 
Q 2847 2600 2669 2842 
Q 2491 3084 2119 3084 
Q 1678 3084 1418 2786 
Q 1159 2488 1159 1978 
L 1159 0 
L 581 0 
L 581 3500 
L 1159 3500 
L 1159 2956 
Q 1356 3278 1631 3431 
Q 1906 3584 2284 3584 
Q 2666 3584 2933 3390 
Q 3200 3197 3328 2828 
z
" transform="scale(0.015625)"/>
       <path id="DejaVuSans-61" d="M 2194 1759 
Q 1497 1759 1228 1600 
Q 959 1441 959 1056 
Q 959 750 1161 570 
Q 1363 391 1709 391 
Q 2188 391 2477 730 
Q 2766 1069 2766 1631 
L 2766 1759 
L 2194 1759 
z
M 3341 1997 
L 3341 0 
L 2766 0 
L 2766 531 
Q 2569 213 2275 61 
Q 1981 -91 1556 -91 
Q 1019 -91 701 211 
Q 384 513 384 1019 
Q 384 1609 779 1909 
Q 1175 2209 1959 2209 
L 2766 2209 
L 2766 2266 
Q 2766 2663 2505 2880 
Q 2244 3097 1772 3097 
Q 1472 3097 1187 3025 
Q 903 2953 641 2809 
L 641 3341 
Q 956 3463 1253 3523 
Q 1550 3584 1831 3584 
Q 2591 3584 2966 3190 
Q 3341 2797 3341 1997 
z
" transform="scale(0.015625)"/>
       <path id="DejaVuSans-28" d="M 1984 4856 
Q 1566 4138 1362 3434 
Q 1159 2731 1159 2009 
Q 1159 1288 1364 580 
Q 1569 -128 1984 -844 
L 1484 -844 
Q 1016 -109 783 600 
Q 550 1309 550 2009 
Q 550 2706 781 3412 
Q 1013 4119 1484 4856 
L 1984 4856 
z
" transform="scale(0.015625)"/>
       <path id="DejaVuSans-64" d="M 2906 2969 
L 2906 4863 
L 3481 4863 
L 3481 0 
L 2906 0 
L 2906 525 
Q 2725 213 2448 61 
Q 2172 -91 1784 -91 
Q 1150 -91 751 415 
Q 353 922 353 1747 
Q 353 2572 751 3078 
Q 1150 3584 1784 3584 
Q 2172 3584 2448 3432 
Q 2725 3281 2906 2969 
z
M 947 1747 
Q 947 1113 1208 752 
Q 1469 391 1925 391 
Q 2381 391 2643 752 
Q 2906 1113 2906 1747 
Q 2906 2381 2643 2742 
Q 2381 3103 1925 3103 
Q 1469 3103 1208 2742 
Q 947 2381 947 1747 
z
" transform="scale(0.015625)"/>
       <path id="DejaVuSans-29" d="M 513 4856 
L 1013 4856 
Q 1481 4119 1714 3412 
Q 1947 2706 1947 2009 
Q 1947 1309 1714 600 
Q 1481 -109 1013 -844 
L 513 -844 
Q 928 -128 1133 580 
Q 1338 1288 1338 2009 
Q 1338 2731 1133 3434 
Q 928 4138 513 4856 
z
" transform="scale(0.015625)"/>
      </defs>
      <use xlink:href="#DejaVuSans-41"/>
      <use xlink:href="#DejaVuSans-6e" x="68.408203"/>
      <use xlink:href="#DejaVuSans-67" x="131.787109"/>
      <use xlink:href="#DejaVuSans-6c" x="195.263672"/>
      <use xlink:href="#DejaVuSans-65" x="223.046875"/>
      <use xlink:href="#DejaVuSans-20" x="284.570312"/>
      <use xlink:href="#DejaVuSans-77" x="316.357422"/>
      <use xlink:href="#DejaVuSans-69" x="398.144531"/>
      <use xlink:href="#DejaVuSans-74" x="425.927734"/>
      <use xlink:href="#DejaVuSans-68" x="465.136719"/>
      <use xlink:href="#DejaVuSans-20" x="528.515625"/>
      <use xlink:href="#DejaVuSans-6e" x="560.302734"/>
      <use xlink:href="#DejaVuSans-6f" x="623.681641"/>
      <use xlink:href="#DejaVuSans-72" x="684.863281"/>
      <use xlink:href="#DejaVuSans-6d" x="724.226562"/>
      <use xlink:href="#DejaVuSans-61" x="821.638672"/>
      <use xlink:href="#DejaVuSans-6c" x="882.917969"/>
      <use xlink:href="#DejaVuSans-20" x="910.701172"/>
      <use xlink:href="#DejaVuSans-28" x="942.488281"/>
      <use xlink:href="#DejaVuSans-72" x="981.501953"/>
      <use xlink:href="#DejaVuSans-61" x="1022.615234"/>
      <use xlink:href="#DejaVuSans-64" x="1083.894531"/>
      <use xlink:href="#DejaVuSans-29" x="1147.371094"/>
     </g>
    </g>
   </g>
   <g id="matplotlib.axis_2">
    <g id="ytick_1">
     <g id="line2d_10">
      <defs>
       <path id="m4d003a2348" d="M 0 0 
L -3.5 0 
" style="stroke: #000000; stroke-width: 0.8"/>
      </defs>
      <g>
       <use xlink:href="#m4d003a2348" x="43.78125" y="273.312" style="stroke: #000000; stroke-width: 0.8"/>
      </g>
     </g>
     <g id="text_11">
      <!-- 0.0 -->
      <g transform="translate(20.878125 277.111219)scale(0.1 -0.1)">
       <use xlink:href="#DejaVuSans-30"/>
       <use xlink:href="#DejaVuSans-2e" x="63.623047"/>
       <use xlink:href="#DejaVuSans-30" x="95.410156"/>
      </g>
     </g>
    </g>
    <g id="ytick_2">
     <g id="line2d_11">
      <g>
       <use xlink:href="#m4d003a2348" x="43.78125" y="227.290091" style="stroke: #000000; stroke-width: 0.8"/>
      </g>
     </g>
     <g id="text_12">
      <!-- 0.2 -->
      <g transform="translate(20.878125 231.08931)scale(0.1 -0.1)">
       <use xlink:href="#DejaVuSans-30"/>
       <use xlink:href="#DejaVuSans-2e" x="63.623047"/>
       <use xlink:href="#DejaVuSans-32" x="95.410156"/>
      </g>
     </g>
    </g>
    <g id="ytick_3">
     <g id="line2d_12">
      <g>
       <use xlink:href="#m4d003a2348" x="43.78125" y="181.268183" style="stroke: #000000; stroke-width: 0.8"/>
      </g>
     </g>
     <g id="text_13">
      <!-- 0.4 -->
      <g transform="translate(20.878125 185.067401)scale(0.1 -0.1)">
       <use xlink:href="#DejaVuSans-30"/>
       <use xlink:href="#DejaVuSans-2e" x="63.623047"/>
       <use xlink:href="#DejaVuSans-34" x="95.410156"/>
      </g>
     </g>
    </g>
    <g id="ytick_4">
     <g id="line2d_13">
      <g>
       <use xlink:href="#m4d003a2348" x="43.78125" y="135.246274" style="stroke: #000000; stroke-width: 0.8"/>
      </g>
     </g>
     <g id="text_14">
      <!-- 0.6 -->
      <g transform="translate(20.878125 139.045493)scale(0.1 -0.1)">
       <use xlink:href="#DejaVuSans-30"/>
       <use xlink:href="#DejaVuSans-2e" x="63.623047"/>
       <use xlink:href="#DejaVuSans-36" x="95.410156"/>
      </g>
     </g>
    </g>
    <g id="ytick_5">
     <g id="line2d_14">
      <g>
       <use xlink:href="#m4d003a2348" x="43.78125" y="89.224365" style="stroke: #000000; stroke-width: 0.8"/>
      </g>
     </g>
     <g id="text_15">
      <!-- 0.8 -->
      <g transform="translate(20.878125 93.023584)scale(0.1 -0.1)">
       <use xlink:href="#DejaVuSans-30"/>
       <use xlink:href="#DejaVuSans-2e" x="63.623047"/>
       <use xlink:href="#DejaVuSans-38" x="95.410156"/>
      </g>
     </g>
    </g>
    <g id="ytick_6">
     <g id="line2d_15">
      <g>
       <use xlink:href="#m4d003a2348" x="43.78125" y="43.202457" style="stroke: #000000; stroke-width: 0.8"/>
      </g>
     </g>
     <g id="text_16">
      <!-- 1.0 -->
      <g transform="translate(20.878125 47.001675)scale(0.1 -0.1)">
       <use xlink:href="#DejaVuSans-31"/>
       <use xlink:href="#DejaVuSans-2e" x="63.623047"/>
       <use xlink:href="#DejaVuSans-30" x="95.410156"/>
      </g>
     </g>
    </g>
    <g id="text_17">
     <!-- Probability density -->
     <g transform="translate(14.798438 186.606781)rotate(-90)scale(0.1 -0.1)">
      <defs>
       <path id="DejaVuSans-50" d="M 1259 4147 
L 1259 2394 
L 2053 2394 
Q 2494 2394 2734 2622 
Q 2975 2850 2975 3272 
Q 2975 3691 2734 3919 
Q 2494 4147 2053 4147 
L 1259 4147 
z
M 628 4666 
L 2053 4666 
Q 2838 4666 3239 4311 
Q 3641 3956 3641 3272 
Q 3641 2581 3239 2228 
Q 2838 1875 2053 1875 
L 1259 1875 
L 1259 0 
L 628 0 
L 628 4666 
z
" transform="scale(0.015625)"/>
       <path id="DejaVuSans-62" d="M 3116 1747 
Q 3116 2381 2855 2742 
Q 2594 3103 2138 3103 
Q 1681 3103 1420 2742 
Q 1159 2381 1159 1747 
Q 1159 1113 1420 752 
Q 1681 391 2138 391 
Q 2594 391 2855 752 
Q 3116 1113 3116 1747 
z
M 1159 2969 
Q 1341 3281 1617 3432 
Q 1894 3584 2278 3584 
Q 2916 3584 3314 3078 
Q 3713 2572 3713 1747 
Q 3713 922 3314 415 
Q 2916 -91 2278 -91 
Q 1894 -91 1617 61 
Q 1341 213 1159 525 
L 1159 0 
L 581 0 
L 581 4863 
L 1159 4863 
L 1159 2969 
z
" transform="scale(0.015625)"/>
       <path id="DejaVuSans-79" d="M 2059 -325 
Q 1816 -950 1584 -1140 
Q 1353 -1331 966 -1331 
L 506 -1331 
L 506 -850 
L 844 -850 
Q 1081 -850 1212 -737 
Q 1344 -625 1503 -206 
L 1606 56 
L 191 3500 
L 800 3500 
L 1894 763 
L 2988 3500 
L 3597 3500 
L 2059 -325 
z
" transform="scale(0.015625)"/>
       <path id="DejaVuSans-73" d="M 2834 3397 
L 2834 2853 
Q 2591 2978 2328 3040 
Q 2066 3103 1784 3103 
Q 1356 3103 1142 2972 
Q 928 2841 928 2578 
Q 928 2378 1081 2264 
Q 1234 2150 1697 2047 
L 1894 2003 
Q 2506 1872 2764 1633 
Q 3022 1394 3022 966 
Q 3022 478 2636 193 
Q 2250 -91 1575 -91 
Q 1294 -91 989 -36 
Q 684 19 347 128 
L 347 722 
Q 666 556 975 473 
Q 1284 391 1588 391 
Q 1994 391 2212 530 
Q 2431 669 2431 922 
Q 2431 1156 2273 1281 
Q 2116 1406 1581 1522 
L 1381 1569 
Q 847 1681 609 1914 
Q 372 2147 372 2553 
Q 372 3047 722 3315 
Q 1072 3584 1716 3584 
Q 2034 3584 2315 3537 
Q 2597 3491 2834 3397 
z
" transform="scale(0.015625)"/>
      </defs>
      <use xlink:href="#DejaVuSans-50"/>
      <use xlink:href="#DejaVuSans-72" x="58.552734"/>
      <use xlink:href="#DejaVuSans-6f" x="97.416016"/>
      <use xlink:href="#DejaVuSans-62" x="158.597656"/>
      <use xlink:href="#DejaVuSans-61" x="222.074219"/>
      <use xlink:href="#DejaVuSans-62" x="283.353516"/>
      <use xlink:href="#DejaVuSans-69" x="346.830078"/>
      <use xlink:href="#DejaVuSans-6c" x="374.613281"/>
      <use xlink:href="#DejaVuSans-69" x="402.396484"/>
      <use xlink:href="#DejaVuSans-74" x="430.179688"/>
      <use xlink:href="#DejaVuSans-79" x="469.388672"/>
      <use xlink:href="#DejaVuSans-20" x="528.568359"/>
      <use xlink:href="#DejaVuSans-64" x="560.355469"/>
      <use xlink:href="#DejaVuSans-65" x="623.832031"/>
      <use xlink:href="#DejaVuSans-6e" x="685.355469"/>
      <use xlink:href="#DejaVuSans-73" x="748.734375"/>
      <use xlink:href="#DejaVuSans-69" x="800.833984"/>
      <use xlink:href="#DejaVuSans-74" x="828.617188"/>
      <use xlink:href="#DejaVuSans-79" x="867.826172"/>
     </g>
    </g>
   </g>
   <g id="line2d_16">
    <path d="M 60.013977 273.312 
L 79.837728 229.440547 
L 90.237073 206.969304 
L 99.01152 188.522295 
L 106.811029 172.63378 
L 113.960578 158.570713 
L 120.460169 146.260779 
L 126.63478 135.030976 
L 132.484411 124.846833 
L 138.009063 115.664621 
L 143.208736 107.433573 
L 148.408408 99.622388 
L 153.283101 92.698319 
L 157.832814 86.598082 
L 162.382528 80.859697 
L 166.932241 75.494286 
L 171.156975 70.855182 
L 175.381709 66.554397 
L 179.281463 62.890951 
L 183.181217 59.527124 
L 187.080972 56.467705 
L 190.655746 53.934381 
L 194.230521 51.663541 
L 197.805296 49.657902 
L 201.380071 47.919864 
L 204.629866 46.573801 
L 207.879661 45.451949 
L 211.129456 44.555419 
L 214.379252 43.885095 
L 217.629047 43.441642 
L 220.878842 43.225497 
L 224.128637 43.236875 
L 227.378433 43.475764 
L 230.628228 43.941927 
L 233.878023 44.634905 
L 237.127818 45.554012 
L 240.377614 46.698338 
L 243.627409 48.066752 
L 247.202184 49.829208 
L 250.776958 51.859061 
L 254.351733 54.15388 
L 257.926508 56.710921 
L 261.501283 59.527124 
L 265.401037 62.890951 
L 269.300791 66.554397 
L 273.200546 70.512246 
L 277.425279 75.125593 
L 281.650013 80.070124 
L 286.199727 85.755892 
L 290.74944 91.805143 
L 295.624133 98.676508 
L 300.498826 105.936384 
L 305.698498 114.090263 
L 311.22315 123.194854 
L 316.747802 132.728381 
L 322.597433 143.259939 
L 328.772044 154.827839 
L 335.596614 168.103661 
L 342.746164 182.502605 
L 350.870652 199.38854 
L 359.970079 218.837889 
L 371.019383 243.007657 
L 384.668523 273.312 
L 384.668523 273.312 
" clip-path="url(#pf8af06a0da)" style="fill: none; stroke: #ff7f0e; stroke-width: 1.5; stroke-linecap: square"/>
   </g>
   <g id="patch_203">
    <path d="M 43.78125 273.312 
L 43.78125 7.2 
" style="fill: none; stroke: #000000; stroke-width: 0.8; stroke-linejoin: miter; stroke-linecap: square"/>
   </g>
   <g id="patch_204">
    <path d="M 400.90125 273.312 
L 400.90125 7.2 
" style="fill: none; stroke: #000000; stroke-width: 0.8; stroke-linejoin: miter; stroke-linecap: square"/>
   </g>
   <g id="patch_205">
    <path d="M 43.78125 273.312 
L 400.90125 273.312 
" style="fill: none; stroke: #000000; stroke-width: 0.8; stroke-linejoin: miter; stroke-linecap: square"/>
   </g>
   <g id="patch_206">
    <path d="M 43.78125 7.2 
L 400.90125 7.2 
" style="fill: none; stroke: #000000; stroke-width: 0.8; stroke-linejoin: miter; stroke-linecap: square"/>
   </g>
  </g>
 </g>
 <defs>
  <clipPath id="pf8af06a0da">
   <rect x="43.78125" y="7.2" width="357.12" height="266.112"/>
  </clipPath>
 </defs>
</svg>
