<?xml version="1.0" encoding="utf-8" standalone="no"?>
<!DOCTYPE svg PUBLIC "-//W3C//DTD SVG 1.1//EN"
  "http://www.w3.org/Graphics/SVG/1.1/DTD/svg11.dtd">
<svg xmlns:xlink="http://www.w3.org/1999/xlink" width="408.10125pt" height="310.86825pt" viewBox="0 0 408.10125 310.86825" xmlns="http://www.w3.org/2000/svg" version="1.1">
 <metadata>
  <rdf:RDF xmlns:dc="http://purl.org/dc/elements/1.1/" xmlns:cc="http://creativecommons.org/ns#" xmlns:rdf="http://www.w3.org/1999/02/22-rdf-syntax-ns#">
   <cc:Work>
    <dc:type rdf:resource="http://purl.org/dc/dcmitype/StillImage"/>
    <dc:date>2022-05-03T13:54:51.067695</dc:date>
    <dc:format>image/svg+xml</dc:format>
    <dc:creator>
     <cc:Agent>
      <dc:title>Matplotlib v3.5.1, https://matplotlib.org/</dc:title>
     </cc:Agent>
    </dc:creator>
   </cc:Work>
  </rdf:RDF>
 </metadata>
 <defs>
  <style type="text/css">*{stroke-linejoin: round; stroke-linecap: butt}</style>
 </defs>
 <g id="figure_1">
  <g id="patch_1">
   <path d="M 0 310.86825 
L 408.10125 310.86825 
L 408.10125 0 
L 0 0 
z
" style="fill: #ffffff"/>
  </g>
  <g id="axes_1">
   <g id="patch_2">
    <path d="M 43.78125 273.312 
L 400.90125 273.312 
L 400.90125 7.2 
L 43.78125 7.2 
z
" style="fill: #ffffff"/>
   </g>
   <g id="patch_3">
    <path d="M 60.770604 273.312 
L 62.379789 273.312 
L 62.379789 269.584941 
L 60.770604 269.584941 
z
" clip-path="url(#p6b1c5192a7)" style="fill: #1f77b4"/>
   </g>
   <g id="patch_4">
    <path d="M 62.379789 273.312 
L 63.988974 273.312 
L 63.988974 262.876235 
L 62.379789 262.876235 
z
" clip-path="url(#p6b1c5192a7)" style="fill: #1f77b4"/>
   </g>
   <g id="patch_5">
    <path d="M 63.988974 273.312 
L 65.598159 273.312 
L 65.598159 267.348706 
L 63.988974 267.348706 
z
" clip-path="url(#p6b1c5192a7)" style="fill: #1f77b4"/>
   </g>
   <g id="patch_6">
    <path d="M 65.598159 273.312 
L 67.207345 273.312 
L 67.207345 262.130824 
L 65.598159 262.130824 
z
" clip-path="url(#p6b1c5192a7)" style="fill: #1f77b4"/>
   </g>
   <g id="patch_7">
    <path d="M 67.207345 273.312 
L 68.81653 273.312 
L 68.81653 252.440471 
L 67.207345 252.440471 
z
" clip-path="url(#p6b1c5192a7)" style="fill: #1f77b4"/>
   </g>
   <g id="patch_8">
    <path d="M 68.81653 273.312 
L 70.425715 273.312 
L 70.425715 256.167529 
L 68.81653 256.167529 
z
" clip-path="url(#p6b1c5192a7)" style="fill: #1f77b4"/>
   </g>
   <g id="patch_9">
    <path d="M 70.425715 273.312 
L 72.0349 273.312 
L 72.0349 254.676706 
L 70.425715 254.676706 
z
" clip-path="url(#p6b1c5192a7)" style="fill: #1f77b4"/>
   </g>
   <g id="patch_10">
    <path d="M 72.0349 273.312 
L 73.644085 273.312 
L 73.644085 243.495529 
L 72.0349 243.495529 
z
" clip-path="url(#p6b1c5192a7)" style="fill: #1f77b4"/>
   </g>
   <g id="patch_11">
    <path d="M 73.644085 273.312 
L 75.25327 273.312 
L 75.25327 246.477176 
L 73.644085 246.477176 
z
" clip-path="url(#p6b1c5192a7)" style="fill: #1f77b4"/>
   </g>
   <g id="patch_12">
    <path d="M 75.25327 273.312 
L 76.862455 273.312 
L 76.862455 239.768471 
L 75.25327 239.768471 
z
" clip-path="url(#p6b1c5192a7)" style="fill: #1f77b4"/>
   </g>
   <g id="patch_13">
    <path d="M 76.862455 273.312 
L 78.47164 273.312 
L 78.47164 234.550588 
L 76.862455 234.550588 
z
" clip-path="url(#p6b1c5192a7)" style="fill: #1f77b4"/>
   </g>
   <g id="patch_14">
    <path d="M 78.47164 273.312 
L 80.080825 273.312 
L 80.080825 226.351059 
L 78.47164 226.351059 
z
" clip-path="url(#p6b1c5192a7)" style="fill: #1f77b4"/>
   </g>
   <g id="patch_15">
    <path d="M 80.080825 273.312 
L 81.69001 273.312 
L 81.69001 218.896941 
L 80.080825 218.896941 
z
" clip-path="url(#p6b1c5192a7)" style="fill: #1f77b4"/>
   </g>
   <g id="patch_16">
    <path d="M 81.69001 273.312 
L 83.299195 273.312 
L 83.299195 230.078118 
L 81.69001 230.078118 
z
" clip-path="url(#p6b1c5192a7)" style="fill: #1f77b4"/>
   </g>
   <g id="patch_17">
    <path d="M 83.299195 273.312 
L 84.90838 273.312 
L 84.90838 220.387765 
L 83.299195 220.387765 
z
" clip-path="url(#p6b1c5192a7)" style="fill: #1f77b4"/>
   </g>
   <g id="patch_18">
    <path d="M 84.90838 273.312 
L 86.517565 273.312 
L 86.517565 219.642353 
L 84.90838 219.642353 
z
" clip-path="url(#p6b1c5192a7)" style="fill: #1f77b4"/>
   </g>
   <g id="patch_19">
    <path d="M 86.517565 273.312 
L 88.12675 273.312 
L 88.12675 202.497882 
L 86.517565 202.497882 
z
" clip-path="url(#p6b1c5192a7)" style="fill: #1f77b4"/>
   </g>
   <g id="patch_20">
    <path d="M 88.12675 273.312 
L 89.735935 273.312 
L 89.735935 209.952 
L 88.12675 209.952 
z
" clip-path="url(#p6b1c5192a7)" style="fill: #1f77b4"/>
   </g>
   <g id="patch_21">
    <path d="M 89.735935 273.312 
L 91.34512 273.312 
L 91.34512 212.188235 
L 89.735935 212.188235 
z
" clip-path="url(#p6b1c5192a7)" style="fill: #1f77b4"/>
   </g>
   <g id="patch_22">
    <path d="M 91.34512 273.312 
L 92.954306 273.312 
L 92.954306 210.697412 
L 91.34512 210.697412 
z
" clip-path="url(#p6b1c5192a7)" style="fill: #1f77b4"/>
   </g>
   <g id="patch_23">
    <path d="M 92.954306 273.312 
L 94.563491 273.312 
L 94.563491 198.025412 
L 92.954306 198.025412 
z
" clip-path="url(#p6b1c5192a7)" style="fill: #1f77b4"/>
   </g>
   <g id="patch_24">
    <path d="M 94.563491 273.312 
L 96.172676 273.312 
L 96.172676 201.752471 
L 94.563491 201.752471 
z
" clip-path="url(#p6b1c5192a7)" style="fill: #1f77b4"/>
   </g>
   <g id="patch_25">
    <path d="M 96.172676 273.312 
L 97.781861 273.312 
L 97.781861 196.534588 
L 96.172676 196.534588 
z
" clip-path="url(#p6b1c5192a7)" style="fill: #1f77b4"/>
   </g>
   <g id="patch_26">
    <path d="M 97.781861 273.312 
L 99.391046 273.312 
L 99.391046 186.098824 
L 97.781861 186.098824 
z
" clip-path="url(#p6b1c5192a7)" style="fill: #1f77b4"/>
   </g>
   <g id="patch_27">
    <path d="M 99.391046 273.312 
L 101.000231 273.312 
L 101.000231 169.699765 
L 99.391046 169.699765 
z
" clip-path="url(#p6b1c5192a7)" style="fill: #1f77b4"/>
   </g>
   <g id="patch_28">
    <path d="M 101.000231 273.312 
L 102.609416 273.312 
L 102.609416 186.098824 
L 101.000231 186.098824 
z
" clip-path="url(#p6b1c5192a7)" style="fill: #1f77b4"/>
   </g>
   <g id="patch_29">
    <path d="M 102.609416 273.312 
L 104.218601 273.312 
L 104.218601 175.663059 
L 102.609416 175.663059 
z
" clip-path="url(#p6b1c5192a7)" style="fill: #1f77b4"/>
   </g>
   <g id="patch_30">
    <path d="M 104.218601 273.312 
L 105.827786 273.312 
L 105.827786 170.445176 
L 104.218601 170.445176 
z
" clip-path="url(#p6b1c5192a7)" style="fill: #1f77b4"/>
   </g>
   <g id="patch_31">
    <path d="M 105.827786 273.312 
L 107.436971 273.312 
L 107.436971 180.135529 
L 105.827786 180.135529 
z
" clip-path="url(#p6b1c5192a7)" style="fill: #1f77b4"/>
   </g>
   <g id="patch_32">
    <path d="M 107.436971 273.312 
L 109.046156 273.312 
L 109.046156 167.463529 
L 107.436971 167.463529 
z
" clip-path="url(#p6b1c5192a7)" style="fill: #1f77b4"/>
   </g>
   <g id="patch_33">
    <path d="M 109.046156 273.312 
L 110.655341 273.312 
L 110.655341 153.300706 
L 109.046156 153.300706 
z
" clip-path="url(#p6b1c5192a7)" style="fill: #1f77b4"/>
   </g>
   <g id="patch_34">
    <path d="M 110.655341 273.312 
L 112.264526 273.312 
L 112.264526 162.991059 
L 110.655341 162.991059 
z
" clip-path="url(#p6b1c5192a7)" style="fill: #1f77b4"/>
   </g>
   <g id="patch_35">
    <path d="M 112.264526 273.312 
L 113.873711 273.312 
L 113.873711 154.791529 
L 112.264526 154.791529 
z
" clip-path="url(#p6b1c5192a7)" style="fill: #1f77b4"/>
   </g>
   <g id="patch_36">
    <path d="M 113.873711 273.312 
L 115.482896 273.312 
L 115.482896 168.208941 
L 113.873711 168.208941 
z
" clip-path="url(#p6b1c5192a7)" style="fill: #1f77b4"/>
   </g>
   <g id="patch_37">
    <path d="M 115.482896 273.312 
L 117.092081 273.312 
L 117.092081 161.500235 
L 115.482896 161.500235 
z
" clip-path="url(#p6b1c5192a7)" style="fill: #1f77b4"/>
   </g>
   <g id="patch_38">
    <path d="M 117.092081 273.312 
L 118.701267 273.312 
L 118.701267 138.392471 
L 117.092081 138.392471 
z
" clip-path="url(#p6b1c5192a7)" style="fill: #1f77b4"/>
   </g>
   <g id="patch_39">
    <path d="M 118.701267 273.312 
L 120.310452 273.312 
L 120.310452 133.174588 
L 118.701267 133.174588 
z
" clip-path="url(#p6b1c5192a7)" style="fill: #1f77b4"/>
   </g>
   <g id="patch_40">
    <path d="M 120.310452 273.312 
L 121.919637 273.312 
L 121.919637 130.192941 
L 120.310452 130.192941 
z
" clip-path="url(#p6b1c5192a7)" style="fill: #1f77b4"/>
   </g>
   <g id="patch_41">
    <path d="M 121.919637 273.312 
L 123.528822 273.312 
L 123.528822 139.883294 
L 121.919637 139.883294 
z
" clip-path="url(#p6b1c5192a7)" style="fill: #1f77b4"/>
   </g>
   <g id="patch_42">
    <path d="M 123.528822 273.312 
L 125.138007 273.312 
L 125.138007 127.211294 
L 123.528822 127.211294 
z
" clip-path="url(#p6b1c5192a7)" style="fill: #1f77b4"/>
   </g>
   <g id="patch_43">
    <path d="M 125.138007 273.312 
L 126.747192 273.312 
L 126.747192 133.92 
L 125.138007 133.92 
z
" clip-path="url(#p6b1c5192a7)" style="fill: #1f77b4"/>
   </g>
   <g id="patch_44">
    <path d="M 126.747192 273.312 
L 128.356377 273.312 
L 128.356377 137.647059 
L 126.747192 137.647059 
z
" clip-path="url(#p6b1c5192a7)" style="fill: #1f77b4"/>
   </g>
   <g id="patch_45">
    <path d="M 128.356377 273.312 
L 129.965562 273.312 
L 129.965562 140.628706 
L 128.356377 140.628706 
z
" clip-path="url(#p6b1c5192a7)" style="fill: #1f77b4"/>
   </g>
   <g id="patch_46">
    <path d="M 129.965562 273.312 
L 131.574747 273.312 
L 131.574747 142.864941 
L 129.965562 142.864941 
z
" clip-path="url(#p6b1c5192a7)" style="fill: #1f77b4"/>
   </g>
   <g id="patch_47">
    <path d="M 131.574747 273.312 
L 133.183932 273.312 
L 133.183932 128.702118 
L 131.574747 128.702118 
z
" clip-path="url(#p6b1c5192a7)" style="fill: #1f77b4"/>
   </g>
   <g id="patch_48">
    <path d="M 133.183932 273.312 
L 134.793117 273.312 
L 134.793117 119.757176 
L 133.183932 119.757176 
z
" clip-path="url(#p6b1c5192a7)" style="fill: #1f77b4"/>
   </g>
   <g id="patch_49">
    <path d="M 134.793117 273.312 
L 136.402302 273.312 
L 136.402302 134.665412 
L 134.793117 134.665412 
z
" clip-path="url(#p6b1c5192a7)" style="fill: #1f77b4"/>
   </g>
   <g id="patch_50">
    <path d="M 136.402302 273.312 
L 138.011487 273.312 
L 138.011487 95.158588 
L 136.402302 95.158588 
z
" clip-path="url(#p6b1c5192a7)" style="fill: #1f77b4"/>
   </g>
   <g id="patch_51">
    <path d="M 138.011487 273.312 
L 139.620672 273.312 
L 139.620672 110.066824 
L 138.011487 110.066824 
z
" clip-path="url(#p6b1c5192a7)" style="fill: #1f77b4"/>
   </g>
   <g id="patch_52">
    <path d="M 139.620672 273.312 
L 141.229857 273.312 
L 141.229857 105.594353 
L 139.620672 105.594353 
z
" clip-path="url(#p6b1c5192a7)" style="fill: #1f77b4"/>
   </g>
   <g id="patch_53">
    <path d="M 141.229857 273.312 
L 142.839042 273.312 
L 142.839042 107.085176 
L 141.229857 107.085176 
z
" clip-path="url(#p6b1c5192a7)" style="fill: #1f77b4"/>
   </g>
   <g id="patch_54">
    <path d="M 142.839042 273.312 
L 144.448228 273.312 
L 144.448228 103.358118 
L 142.839042 103.358118 
z
" clip-path="url(#p6b1c5192a7)" style="fill: #1f77b4"/>
   </g>
   <g id="patch_55">
    <path d="M 144.448228 273.312 
L 146.057413 273.312 
L 146.057413 109.321412 
L 144.448228 109.321412 
z
" clip-path="url(#p6b1c5192a7)" style="fill: #1f77b4"/>
   </g>
   <g id="patch_56">
    <path d="M 146.057413 273.312 
L 147.666598 273.312 
L 147.666598 92.176941 
L 146.057413 92.176941 
z
" clip-path="url(#p6b1c5192a7)" style="fill: #1f77b4"/>
   </g>
   <g id="patch_57">
    <path d="M 147.666598 273.312 
L 149.275783 273.312 
L 149.275783 140.628706 
L 147.666598 140.628706 
z
" clip-path="url(#p6b1c5192a7)" style="fill: #1f77b4"/>
   </g>
   <g id="patch_58">
    <path d="M 149.275783 273.312 
L 150.884968 273.312 
L 150.884968 104.103529 
L 149.275783 104.103529 
z
" clip-path="url(#p6b1c5192a7)" style="fill: #1f77b4"/>
   </g>
   <g id="patch_59">
    <path d="M 150.884968 273.312 
L 152.494153 273.312 
L 152.494153 92.922353 
L 150.884968 92.922353 
z
" clip-path="url(#p6b1c5192a7)" style="fill: #1f77b4"/>
   </g>
   <g id="patch_60">
    <path d="M 152.494153 273.312 
L 154.103338 273.312 
L 154.103338 86.959059 
L 152.494153 86.959059 
z
" clip-path="url(#p6b1c5192a7)" style="fill: #1f77b4"/>
   </g>
   <g id="patch_61">
    <path d="M 154.103338 273.312 
L 155.712523 273.312 
L 155.712523 104.848941 
L 154.103338 104.848941 
z
" clip-path="url(#p6b1c5192a7)" style="fill: #1f77b4"/>
   </g>
   <g id="patch_62">
    <path d="M 155.712523 273.312 
L 157.321708 273.312 
L 157.321708 92.176941 
L 155.712523 92.176941 
z
" clip-path="url(#p6b1c5192a7)" style="fill: #1f77b4"/>
   </g>
   <g id="patch_63">
    <path d="M 157.321708 273.312 
L 158.930893 273.312 
L 158.930893 75.032471 
L 157.321708 75.032471 
z
" clip-path="url(#p6b1c5192a7)" style="fill: #1f77b4"/>
   </g>
   <g id="patch_64">
    <path d="M 158.930893 273.312 
L 160.540078 273.312 
L 160.540078 73.541647 
L 158.930893 73.541647 
z
" clip-path="url(#p6b1c5192a7)" style="fill: #1f77b4"/>
   </g>
   <g id="patch_65">
    <path d="M 160.540078 273.312 
L 162.149263 273.312 
L 162.149263 72.796235 
L 160.540078 72.796235 
z
" clip-path="url(#p6b1c5192a7)" style="fill: #1f77b4"/>
   </g>
   <g id="patch_66">
    <path d="M 162.149263 273.312 
L 163.758448 273.312 
L 163.758448 79.504941 
L 162.149263 79.504941 
z
" clip-path="url(#p6b1c5192a7)" style="fill: #1f77b4"/>
   </g>
   <g id="patch_67">
    <path d="M 163.758448 273.312 
L 165.367633 273.312 
L 165.367633 46.706824 
L 163.758448 46.706824 
z
" clip-path="url(#p6b1c5192a7)" style="fill: #1f77b4"/>
   </g>
   <g id="patch_68">
    <path d="M 165.367633 273.312 
L 166.976818 273.312 
L 166.976818 76.523294 
L 165.367633 76.523294 
z
" clip-path="url(#p6b1c5192a7)" style="fill: #1f77b4"/>
   </g>
   <g id="patch_69">
    <path d="M 166.976818 273.312 
L 168.586003 273.312 
L 168.586003 98.140235 
L 166.976818 98.140235 
z
" clip-path="url(#p6b1c5192a7)" style="fill: #1f77b4"/>
   </g>
   <g id="patch_70">
    <path d="M 168.586003 273.312 
L 170.195189 273.312 
L 170.195189 51.179294 
L 168.586003 51.179294 
z
" clip-path="url(#p6b1c5192a7)" style="fill: #1f77b4"/>
   </g>
   <g id="patch_71">
    <path d="M 170.195189 273.312 
L 171.804374 273.312 
L 171.804374 69.814588 
L 170.195189 69.814588 
z
" clip-path="url(#p6b1c5192a7)" style="fill: #1f77b4"/>
   </g>
   <g id="patch_72">
    <path d="M 171.804374 273.312 
L 173.413559 273.312 
L 173.413559 69.069176 
L 171.804374 69.069176 
z
" clip-path="url(#p6b1c5192a7)" style="fill: #1f77b4"/>
   </g>
   <g id="patch_73">
    <path d="M 173.413559 273.312 
L 175.022744 273.312 
L 175.022744 58.633412 
L 173.413559 58.633412 
z
" clip-path="url(#p6b1c5192a7)" style="fill: #1f77b4"/>
   </g>
   <g id="patch_74">
    <path d="M 175.022744 273.312 
L 176.631929 273.312 
L 176.631929 71.305412 
L 175.022744 71.305412 
z
" clip-path="url(#p6b1c5192a7)" style="fill: #1f77b4"/>
   </g>
   <g id="patch_75">
    <path d="M 176.631929 273.312 
L 178.241114 273.312 
L 178.241114 66.087529 
L 176.631929 66.087529 
z
" clip-path="url(#p6b1c5192a7)" style="fill: #1f77b4"/>
   </g>
   <g id="patch_76">
    <path d="M 178.241114 273.312 
L 179.850299 273.312 
L 179.850299 52.670118 
L 178.241114 52.670118 
z
" clip-path="url(#p6b1c5192a7)" style="fill: #1f77b4"/>
   </g>
   <g id="patch_77">
    <path d="M 179.850299 273.312 
L 181.459484 273.312 
L 181.459484 47.452235 
L 179.850299 47.452235 
z
" clip-path="url(#p6b1c5192a7)" style="fill: #1f77b4"/>
   </g>
   <g id="patch_78">
    <path d="M 181.459484 273.312 
L 183.068669 273.312 
L 183.068669 44.470588 
L 181.459484 44.470588 
z
" clip-path="url(#p6b1c5192a7)" style="fill: #1f77b4"/>
   </g>
   <g id="patch_79">
    <path d="M 183.068669 273.312 
L 184.677854 273.312 
L 184.677854 45.216 
L 183.068669 45.216 
z
" clip-path="url(#p6b1c5192a7)" style="fill: #1f77b4"/>
   </g>
   <g id="patch_80">
    <path d="M 184.677854 273.312 
L 186.287039 273.312 
L 186.287039 42.979765 
L 184.677854 42.979765 
z
" clip-path="url(#p6b1c5192a7)" style="fill: #1f77b4"/>
   </g>
   <g id="patch_81">
    <path d="M 186.287039 273.312 
L 187.896224 273.312 
L 187.896224 49.688471 
L 186.287039 49.688471 
z
" clip-path="url(#p6b1c5192a7)" style="fill: #1f77b4"/>
   </g>
   <g id="patch_82">
    <path d="M 187.896224 273.312 
L 189.505409 273.312 
L 189.505409 39.252706 
L 187.896224 39.252706 
z
" clip-path="url(#p6b1c5192a7)" style="fill: #1f77b4"/>
   </g>
   <g id="patch_83">
    <path d="M 189.505409 273.312 
L 191.114594 273.312 
L 191.114594 68.323765 
L 189.505409 68.323765 
z
" clip-path="url(#p6b1c5192a7)" style="fill: #1f77b4"/>
   </g>
   <g id="patch_84">
    <path d="M 191.114594 273.312 
L 192.723779 273.312 
L 192.723779 46.706824 
L 191.114594 46.706824 
z
" clip-path="url(#p6b1c5192a7)" style="fill: #1f77b4"/>
   </g>
   <g id="patch_85">
    <path d="M 192.723779 273.312 
L 194.332965 273.312 
L 194.332965 48.197647 
L 192.723779 48.197647 
z
" clip-path="url(#p6b1c5192a7)" style="fill: #1f77b4"/>
   </g>
   <g id="patch_86">
    <path d="M 194.332965 273.312 
L 195.94215 273.312 
L 195.94215 29.562353 
L 194.332965 29.562353 
z
" clip-path="url(#p6b1c5192a7)" style="fill: #1f77b4"/>
   </g>
   <g id="patch_87">
    <path d="M 195.94215 273.312 
L 197.551335 273.312 
L 197.551335 27.326118 
L 195.94215 27.326118 
z
" clip-path="url(#p6b1c5192a7)" style="fill: #1f77b4"/>
   </g>
   <g id="patch_88">
    <path d="M 197.551335 273.312 
L 199.16052 273.312 
L 199.16052 75.777882 
L 197.551335 75.777882 
z
" clip-path="url(#p6b1c5192a7)" style="fill: #1f77b4"/>
   </g>
   <g id="patch_89">
    <path d="M 199.16052 273.312 
L 200.769705 273.312 
L 200.769705 72.050824 
L 199.16052 72.050824 
z
" clip-path="url(#p6b1c5192a7)" style="fill: #1f77b4"/>
   </g>
   <g id="patch_90">
    <path d="M 200.769705 273.312 
L 202.37889 273.312 
L 202.37889 69.069176 
L 200.769705 69.069176 
z
" clip-path="url(#p6b1c5192a7)" style="fill: #1f77b4"/>
   </g>
   <g id="patch_91">
    <path d="M 202.37889 273.312 
L 203.988075 273.312 
L 203.988075 41.488941 
L 202.37889 41.488941 
z
" clip-path="url(#p6b1c5192a7)" style="fill: #1f77b4"/>
   </g>
   <g id="patch_92">
    <path d="M 203.988075 273.312 
L 205.59726 273.312 
L 205.59726 37.761882 
L 203.988075 37.761882 
z
" clip-path="url(#p6b1c5192a7)" style="fill: #1f77b4"/>
   </g>
   <g id="patch_93">
    <path d="M 205.59726 273.312 
L 207.206445 273.312 
L 207.206445 51.924706 
L 205.59726 51.924706 
z
" clip-path="url(#p6b1c5192a7)" style="fill: #1f77b4"/>
   </g>
   <g id="patch_94">
    <path d="M 207.206445 273.312 
L 208.81563 273.312 
L 208.81563 34.034824 
L 207.206445 34.034824 
z
" clip-path="url(#p6b1c5192a7)" style="fill: #1f77b4"/>
   </g>
   <g id="patch_95">
    <path d="M 208.81563 273.312 
L 210.424815 273.312 
L 210.424815 45.961412 
L 208.81563 45.961412 
z
" clip-path="url(#p6b1c5192a7)" style="fill: #1f77b4"/>
   </g>
   <g id="patch_96">
    <path d="M 210.424815 273.312 
L 212.034 273.312 
L 212.034 35.525647 
L 210.424815 35.525647 
z
" clip-path="url(#p6b1c5192a7)" style="fill: #1f77b4"/>
   </g>
   <g id="patch_97">
    <path d="M 212.034 273.312 
L 213.643185 273.312 
L 213.643185 39.252706 
L 212.034 39.252706 
z
" clip-path="url(#p6b1c5192a7)" style="fill: #1f77b4"/>
   </g>
   <g id="patch_98">
    <path d="M 213.643185 273.312 
L 215.25237 273.312 
L 215.25237 52.670118 
L 213.643185 52.670118 
z
" clip-path="url(#p6b1c5192a7)" style="fill: #1f77b4"/>
   </g>
   <g id="patch_99">
    <path d="M 215.25237 273.312 
L 216.861555 273.312 
L 216.861555 53.415529 
L 215.25237 53.415529 
z
" clip-path="url(#p6b1c5192a7)" style="fill: #1f77b4"/>
   </g>
   <g id="patch_100">
    <path d="M 216.861555 273.312 
L 218.47074 273.312 
L 218.47074 38.507294 
L 216.861555 38.507294 
z
" clip-path="url(#p6b1c5192a7)" style="fill: #1f77b4"/>
   </g>
   <g id="patch_101">
    <path d="M 218.47074 273.312 
L 220.079926 273.312 
L 220.079926 19.872 
L 218.47074 19.872 
z
" clip-path="url(#p6b1c5192a7)" style="fill: #1f77b4"/>
   </g>
   <g id="patch_102">
    <path d="M 220.079926 273.312 
L 221.689111 273.312 
L 221.689111 42.234353 
L 220.079926 42.234353 
z
" clip-path="url(#p6b1c5192a7)" style="fill: #1f77b4"/>
   </g>
   <g id="patch_103">
    <path d="M 221.689111 273.312 
L 223.298296 273.312 
L 223.298296 39.252706 
L 221.689111 39.252706 
z
" clip-path="url(#p6b1c5192a7)" style="fill: #1f77b4"/>
   </g>
   <g id="patch_104">
    <path d="M 223.298296 273.312 
L 224.907481 273.312 
L 224.907481 61.615059 
L 223.298296 61.615059 
z
" clip-path="url(#p6b1c5192a7)" style="fill: #1f77b4"/>
   </g>
   <g id="patch_105">
    <path d="M 224.907481 273.312 
L 226.516666 273.312 
L 226.516666 37.761882 
L 224.907481 37.761882 
z
" clip-path="url(#p6b1c5192a7)" style="fill: #1f77b4"/>
   </g>
   <g id="patch_106">
    <path d="M 226.516666 273.312 
L 228.125851 273.312 
L 228.125851 32.544 
L 226.516666 32.544 
z
" clip-path="url(#p6b1c5192a7)" style="fill: #1f77b4"/>
   </g>
   <g id="patch_107">
    <path d="M 228.125851 273.312 
L 229.735036 273.312 
L 229.735036 40.743529 
L 228.125851 40.743529 
z
" clip-path="url(#p6b1c5192a7)" style="fill: #1f77b4"/>
   </g>
   <g id="patch_108">
    <path d="M 229.735036 273.312 
L 231.344221 273.312 
L 231.344221 60.869647 
L 229.735036 60.869647 
z
" clip-path="url(#p6b1c5192a7)" style="fill: #1f77b4"/>
   </g>
   <g id="patch_109">
    <path d="M 231.344221 273.312 
L 232.953406 273.312 
L 232.953406 27.326118 
L 231.344221 27.326118 
z
" clip-path="url(#p6b1c5192a7)" style="fill: #1f77b4"/>
   </g>
   <g id="patch_110">
    <path d="M 232.953406 273.312 
L 234.562591 273.312 
L 234.562591 53.415529 
L 232.953406 53.415529 
z
" clip-path="url(#p6b1c5192a7)" style="fill: #1f77b4"/>
   </g>
   <g id="patch_111">
    <path d="M 234.562591 273.312 
L 236.171776 273.312 
L 236.171776 25.835294 
L 234.562591 25.835294 
z
" clip-path="url(#p6b1c5192a7)" style="fill: #1f77b4"/>
   </g>
   <g id="patch_112">
    <path d="M 236.171776 273.312 
L 237.780961 273.312 
L 237.780961 67.578353 
L 236.171776 67.578353 
z
" clip-path="url(#p6b1c5192a7)" style="fill: #1f77b4"/>
   </g>
   <g id="patch_113">
    <path d="M 237.780961 273.312 
L 239.390146 273.312 
L 239.390146 48.943059 
L 237.780961 48.943059 
z
" clip-path="url(#p6b1c5192a7)" style="fill: #1f77b4"/>
   </g>
   <g id="patch_114">
    <path d="M 239.390146 273.312 
L 240.999331 273.312 
L 240.999331 31.798588 
L 239.390146 31.798588 
z
" clip-path="url(#p6b1c5192a7)" style="fill: #1f77b4"/>
   </g>
   <g id="patch_115">
    <path d="M 240.999331 273.312 
L 242.608516 273.312 
L 242.608516 61.615059 
L 240.999331 61.615059 
z
" clip-path="url(#p6b1c5192a7)" style="fill: #1f77b4"/>
   </g>
   <g id="patch_116">
    <path d="M 242.608516 273.312 
L 244.217701 273.312 
L 244.217701 45.216 
L 242.608516 45.216 
z
" clip-path="url(#p6b1c5192a7)" style="fill: #1f77b4"/>
   </g>
   <g id="patch_117">
    <path d="M 244.217701 273.312 
L 245.826887 273.312 
L 245.826887 42.979765 
L 244.217701 42.979765 
z
" clip-path="url(#p6b1c5192a7)" style="fill: #1f77b4"/>
   </g>
   <g id="patch_118">
    <path d="M 245.826887 273.312 
L 247.436072 273.312 
L 247.436072 53.415529 
L 245.826887 53.415529 
z
" clip-path="url(#p6b1c5192a7)" style="fill: #1f77b4"/>
   </g>
   <g id="patch_119">
    <path d="M 247.436072 273.312 
L 249.045257 273.312 
L 249.045257 54.160941 
L 247.436072 54.160941 
z
" clip-path="url(#p6b1c5192a7)" style="fill: #1f77b4"/>
   </g>
   <g id="patch_120">
    <path d="M 249.045257 273.312 
L 250.654442 273.312 
L 250.654442 49.688471 
L 249.045257 49.688471 
z
" clip-path="url(#p6b1c5192a7)" style="fill: #1f77b4"/>
   </g>
   <g id="patch_121">
    <path d="M 250.654442 273.312 
L 252.263627 273.312 
L 252.263627 34.780235 
L 250.654442 34.780235 
z
" clip-path="url(#p6b1c5192a7)" style="fill: #1f77b4"/>
   </g>
   <g id="patch_122">
    <path d="M 252.263627 273.312 
L 253.872812 273.312 
L 253.872812 53.415529 
L 252.263627 53.415529 
z
" clip-path="url(#p6b1c5192a7)" style="fill: #1f77b4"/>
   </g>
   <g id="patch_123">
    <path d="M 253.872812 273.312 
L 255.481997 273.312 
L 255.481997 45.961412 
L 253.872812 45.961412 
z
" clip-path="url(#p6b1c5192a7)" style="fill: #1f77b4"/>
   </g>
   <g id="patch_124">
    <path d="M 255.481997 273.312 
L 257.091182 273.312 
L 257.091182 46.706824 
L 255.481997 46.706824 
z
" clip-path="url(#p6b1c5192a7)" style="fill: #1f77b4"/>
   </g>
   <g id="patch_125">
    <path d="M 257.091182 273.312 
L 258.700367 273.312 
L 258.700367 28.816941 
L 257.091182 28.816941 
z
" clip-path="url(#p6b1c5192a7)" style="fill: #1f77b4"/>
   </g>
   <g id="patch_126">
    <path d="M 258.700367 273.312 
L 260.309552 273.312 
L 260.309552 72.796235 
L 258.700367 72.796235 
z
" clip-path="url(#p6b1c5192a7)" style="fill: #1f77b4"/>
   </g>
   <g id="patch_127">
    <path d="M 260.309552 273.312 
L 261.918737 273.312 
L 261.918737 48.197647 
L 260.309552 48.197647 
z
" clip-path="url(#p6b1c5192a7)" style="fill: #1f77b4"/>
   </g>
   <g id="patch_128">
    <path d="M 261.918737 273.312 
L 263.527922 273.312 
L 263.527922 54.160941 
L 261.918737 54.160941 
z
" clip-path="url(#p6b1c5192a7)" style="fill: #1f77b4"/>
   </g>
   <g id="patch_129">
    <path d="M 263.527922 273.312 
L 265.137107 273.312 
L 265.137107 82.486588 
L 263.527922 82.486588 
z
" clip-path="url(#p6b1c5192a7)" style="fill: #1f77b4"/>
   </g>
   <g id="patch_130">
    <path d="M 265.137107 273.312 
L 266.746292 273.312 
L 266.746292 54.906353 
L 265.137107 54.906353 
z
" clip-path="url(#p6b1c5192a7)" style="fill: #1f77b4"/>
   </g>
   <g id="patch_131">
    <path d="M 266.746292 273.312 
L 268.355477 273.312 
L 268.355477 63.105882 
L 266.746292 63.105882 
z
" clip-path="url(#p6b1c5192a7)" style="fill: #1f77b4"/>
   </g>
   <g id="patch_132">
    <path d="M 268.355477 273.312 
L 269.964662 273.312 
L 269.964662 72.050824 
L 268.355477 72.050824 
z
" clip-path="url(#p6b1c5192a7)" style="fill: #1f77b4"/>
   </g>
   <g id="patch_133">
    <path d="M 269.964662 273.312 
L 271.573848 273.312 
L 271.573848 39.998118 
L 269.964662 39.998118 
z
" clip-path="url(#p6b1c5192a7)" style="fill: #1f77b4"/>
   </g>
   <g id="patch_134">
    <path d="M 271.573848 273.312 
L 273.183033 273.312 
L 273.183033 74.287059 
L 271.573848 74.287059 
z
" clip-path="url(#p6b1c5192a7)" style="fill: #1f77b4"/>
   </g>
   <g id="patch_135">
    <path d="M 273.183033 273.312 
L 274.792218 273.312 
L 274.792218 73.541647 
L 273.183033 73.541647 
z
" clip-path="url(#p6b1c5192a7)" style="fill: #1f77b4"/>
   </g>
   <g id="patch_136">
    <path d="M 274.792218 273.312 
L 276.401403 273.312 
L 276.401403 75.032471 
L 274.792218 75.032471 
z
" clip-path="url(#p6b1c5192a7)" style="fill: #1f77b4"/>
   </g>
   <g id="patch_137">
    <path d="M 276.401403 273.312 
L 278.010588 273.312 
L 278.010588 72.050824 
L 276.401403 72.050824 
z
" clip-path="url(#p6b1c5192a7)" style="fill: #1f77b4"/>
   </g>
   <g id="patch_138">
    <path d="M 278.010588 273.312 
L 279.619773 273.312 
L 279.619773 76.523294 
L 278.010588 76.523294 
z
" clip-path="url(#p6b1c5192a7)" style="fill: #1f77b4"/>
   </g>
   <g id="patch_139">
    <path d="M 279.619773 273.312 
L 281.228958 273.312 
L 281.228958 86.959059 
L 279.619773 86.959059 
z
" clip-path="url(#p6b1c5192a7)" style="fill: #1f77b4"/>
   </g>
   <g id="patch_140">
    <path d="M 281.228958 273.312 
L 282.838143 273.312 
L 282.838143 94.413176 
L 281.228958 94.413176 
z
" clip-path="url(#p6b1c5192a7)" style="fill: #1f77b4"/>
   </g>
   <g id="patch_141">
    <path d="M 282.838143 273.312 
L 284.447328 273.312 
L 284.447328 60.869647 
L 282.838143 60.869647 
z
" clip-path="url(#p6b1c5192a7)" style="fill: #1f77b4"/>
   </g>
   <g id="patch_142">
    <path d="M 284.447328 273.312 
L 286.056513 273.312 
L 286.056513 79.504941 
L 284.447328 79.504941 
z
" clip-path="url(#p6b1c5192a7)" style="fill: #1f77b4"/>
   </g>
   <g id="patch_143">
    <path d="M 286.056513 273.312 
L 287.665698 273.312 
L 287.665698 98.140235 
L 286.056513 98.140235 
z
" clip-path="url(#p6b1c5192a7)" style="fill: #1f77b4"/>
   </g>
   <g id="patch_144">
    <path d="M 287.665698 273.312 
L 289.274883 273.312 
L 289.274883 82.486588 
L 287.665698 82.486588 
z
" clip-path="url(#p6b1c5192a7)" style="fill: #1f77b4"/>
   </g>
   <g id="patch_145">
    <path d="M 289.274883 273.312 
L 290.884068 273.312 
L 290.884068 102.612706 
L 289.274883 102.612706 
z
" clip-path="url(#p6b1c5192a7)" style="fill: #1f77b4"/>
   </g>
   <g id="patch_146">
    <path d="M 290.884068 273.312 
L 292.493253 273.312 
L 292.493253 111.557647 
L 290.884068 111.557647 
z
" clip-path="url(#p6b1c5192a7)" style="fill: #1f77b4"/>
   </g>
   <g id="patch_147">
    <path d="M 292.493253 273.312 
L 294.102438 273.312 
L 294.102438 96.649412 
L 292.493253 96.649412 
z
" clip-path="url(#p6b1c5192a7)" style="fill: #1f77b4"/>
   </g>
   <g id="patch_148">
    <path d="M 294.102438 273.312 
L 295.711623 273.312 
L 295.711623 95.158588 
L 294.102438 95.158588 
z
" clip-path="url(#p6b1c5192a7)" style="fill: #1f77b4"/>
   </g>
   <g id="patch_149">
    <path d="M 295.711623 273.312 
L 297.320809 273.312 
L 297.320809 102.612706 
L 295.711623 102.612706 
z
" clip-path="url(#p6b1c5192a7)" style="fill: #1f77b4"/>
   </g>
   <g id="patch_150">
    <path d="M 297.320809 273.312 
L 298.929994 273.312 
L 298.929994 105.594353 
L 297.320809 105.594353 
z
" clip-path="url(#p6b1c5192a7)" style="fill: #1f77b4"/>
   </g>
   <g id="patch_151">
    <path d="M 298.929994 273.312 
L 300.539179 273.312 
L 300.539179 99.631059 
L 298.929994 99.631059 
z
" clip-path="url(#p6b1c5192a7)" style="fill: #1f77b4"/>
   </g>
   <g id="patch_152">
    <path d="M 300.539179 273.312 
L 302.148364 273.312 
L 302.148364 113.793882 
L 300.539179 113.793882 
z
" clip-path="url(#p6b1c5192a7)" style="fill: #1f77b4"/>
   </g>
   <g id="patch_153">
    <path d="M 302.148364 273.312 
L 303.757549 273.312 
L 303.757549 121.248 
L 302.148364 121.248 
z
" clip-path="url(#p6b1c5192a7)" style="fill: #1f77b4"/>
   </g>
   <g id="patch_154">
    <path d="M 303.757549 273.312 
L 305.366734 273.312 
L 305.366734 106.339765 
L 303.757549 106.339765 
z
" clip-path="url(#p6b1c5192a7)" style="fill: #1f77b4"/>
   </g>
   <g id="patch_155">
    <path d="M 305.366734 273.312 
L 306.975919 273.312 
L 306.975919 124.975059 
L 305.366734 124.975059 
z
" clip-path="url(#p6b1c5192a7)" style="fill: #1f77b4"/>
   </g>
   <g id="patch_156">
    <path d="M 306.975919 273.312 
L 308.585104 273.312 
L 308.585104 110.812235 
L 306.975919 110.812235 
z
" clip-path="url(#p6b1c5192a7)" style="fill: #1f77b4"/>
   </g>
   <g id="patch_157">
    <path d="M 308.585104 273.312 
L 310.194289 273.312 
L 310.194289 96.649412 
L 308.585104 96.649412 
z
" clip-path="url(#p6b1c5192a7)" style="fill: #1f77b4"/>
   </g>
   <g id="patch_158">
    <path d="M 310.194289 273.312 
L 311.803474 273.312 
L 311.803474 92.176941 
L 310.194289 92.176941 
z
" clip-path="url(#p6b1c5192a7)" style="fill: #1f77b4"/>
   </g>
   <g id="patch_159">
    <path d="M 311.803474 273.312 
L 313.412659 273.312 
L 313.412659 138.392471 
L 311.803474 138.392471 
z
" clip-path="url(#p6b1c5192a7)" style="fill: #1f77b4"/>
   </g>
   <g id="patch_160">
    <path d="M 313.412659 273.312 
L 315.021844 273.312 
L 315.021844 121.248 
L 313.412659 121.248 
z
" clip-path="url(#p6b1c5192a7)" style="fill: #1f77b4"/>
   </g>
   <g id="patch_161">
    <path d="M 315.021844 273.312 
L 316.631029 273.312 
L 316.631029 119.011765 
L 315.021844 119.011765 
z
" clip-path="url(#p6b1c5192a7)" style="fill: #1f77b4"/>
   </g>
   <g id="patch_162">
    <path d="M 316.631029 273.312 
L 318.240214 273.312 
L 318.240214 126.465882 
L 316.631029 126.465882 
z
" clip-path="url(#p6b1c5192a7)" style="fill: #1f77b4"/>
   </g>
   <g id="patch_163">
    <path d="M 318.240214 273.312 
L 319.849399 273.312 
L 319.849399 118.266353 
L 318.240214 118.266353 
z
" clip-path="url(#p6b1c5192a7)" style="fill: #1f77b4"/>
   </g>
   <g id="patch_164">
    <path d="M 319.849399 273.312 
L 321.458584 273.312 
L 321.458584 138.392471 
L 319.849399 138.392471 
z
" clip-path="url(#p6b1c5192a7)" style="fill: #1f77b4"/>
   </g>
   <g id="patch_165">
    <path d="M 321.458584 273.312 
L 323.06777 273.312 
L 323.06777 141.374118 
L 321.458584 141.374118 
z
" clip-path="url(#p6b1c5192a7)" style="fill: #1f77b4"/>
   </g>
   <g id="patch_166">
    <path d="M 323.06777 273.312 
L 324.676955 273.312 
L 324.676955 142.119529 
L 323.06777 142.119529 
z
" clip-path="url(#p6b1c5192a7)" style="fill: #1f77b4"/>
   </g>
   <g id="patch_167">
    <path d="M 324.676955 273.312 
L 326.28614 273.312 
L 326.28614 157.027765 
L 324.676955 157.027765 
z
" clip-path="url(#p6b1c5192a7)" style="fill: #1f77b4"/>
   </g>
   <g id="patch_168">
    <path d="M 326.28614 273.312 
L 327.895325 273.312 
L 327.895325 138.392471 
L 326.28614 138.392471 
z
" clip-path="url(#p6b1c5192a7)" style="fill: #1f77b4"/>
   </g>
   <g id="patch_169">
    <path d="M 327.895325 273.312 
L 329.50451 273.312 
L 329.50451 163.736471 
L 327.895325 163.736471 
z
" clip-path="url(#p6b1c5192a7)" style="fill: #1f77b4"/>
   </g>
   <g id="patch_170">
    <path d="M 329.50451 273.312 
L 331.113695 273.312 
L 331.113695 148.082824 
L 329.50451 148.082824 
z
" clip-path="url(#p6b1c5192a7)" style="fill: #1f77b4"/>
   </g>
   <g id="patch_171">
    <path d="M 331.113695 273.312 
L 332.72288 273.312 
L 332.72288 158.518588 
L 331.113695 158.518588 
z
" clip-path="url(#p6b1c5192a7)" style="fill: #1f77b4"/>
   </g>
   <g id="patch_172">
    <path d="M 332.72288 273.312 
L 334.332065 273.312 
L 334.332065 164.481882 
L 332.72288 164.481882 
z
" clip-path="url(#p6b1c5192a7)" style="fill: #1f77b4"/>
   </g>
   <g id="patch_173">
    <path d="M 334.332065 273.312 
L 335.94125 273.312 
L 335.94125 174.917647 
L 334.332065 174.917647 
z
" clip-path="url(#p6b1c5192a7)" style="fill: #1f77b4"/>
   </g>
   <g id="patch_174">
    <path d="M 335.94125 273.312 
L 337.550435 273.312 
L 337.550435 171.190588 
L 335.94125 171.190588 
z
" clip-path="url(#p6b1c5192a7)" style="fill: #1f77b4"/>
   </g>
   <g id="patch_175">
    <path d="M 337.550435 273.312 
L 339.15962 273.312 
L 339.15962 162.991059 
L 337.550435 162.991059 
z
" clip-path="url(#p6b1c5192a7)" style="fill: #1f77b4"/>
   </g>
   <g id="patch_176">
    <path d="M 339.15962 273.312 
L 340.768805 273.312 
L 340.768805 181.626353 
L 339.15962 181.626353 
z
" clip-path="url(#p6b1c5192a7)" style="fill: #1f77b4"/>
   </g>
   <g id="patch_177">
    <path d="M 340.768805 273.312 
L 342.37799 273.312 
L 342.37799 178.644706 
L 340.768805 178.644706 
z
" clip-path="url(#p6b1c5192a7)" style="fill: #1f77b4"/>
   </g>
   <g id="patch_178">
    <path d="M 342.37799 273.312 
L 343.987175 273.312 
L 343.987175 182.371765 
L 342.37799 182.371765 
z
" clip-path="url(#p6b1c5192a7)" style="fill: #1f77b4"/>
   </g>
   <g id="patch_179">
    <path d="M 343.987175 273.312 
L 345.59636 273.312 
L 345.59636 189.825882 
L 343.987175 189.825882 
z
" clip-path="url(#p6b1c5192a7)" style="fill: #1f77b4"/>
   </g>
   <g id="patch_180">
    <path d="M 345.59636 273.312 
L 347.205545 273.312 
L 347.205545 183.862588 
L 345.59636 183.862588 
z
" clip-path="url(#p6b1c5192a7)" style="fill: #1f77b4"/>
   </g>
   <g id="patch_181">
    <path d="M 347.205545 273.312 
L 348.814731 273.312 
L 348.814731 200.261647 
L 347.205545 200.261647 
z
" clip-path="url(#p6b1c5192a7)" style="fill: #1f77b4"/>
   </g>
   <g id="patch_182">
    <path d="M 348.814731 273.312 
L 350.423916 273.312 
L 350.423916 195.789176 
L 348.814731 195.789176 
z
" clip-path="url(#p6b1c5192a7)" style="fill: #1f77b4"/>
   </g>
   <g id="patch_183">
    <path d="M 350.423916 273.312 
L 352.033101 273.312 
L 352.033101 209.952 
L 350.423916 209.952 
z
" clip-path="url(#p6b1c5192a7)" style="fill: #1f77b4"/>
   </g>
   <g id="patch_184">
    <path d="M 352.033101 273.312 
L 353.642286 273.312 
L 353.642286 204.734118 
L 352.033101 204.734118 
z
" clip-path="url(#p6b1c5192a7)" style="fill: #1f77b4"/>
   </g>
   <g id="patch_185">
    <path d="M 353.642286 273.312 
L 355.251471 273.312 
L 355.251471 208.461176 
L 353.642286 208.461176 
z
" clip-path="url(#p6b1c5192a7)" style="fill: #1f77b4"/>
   </g>
   <g id="patch_186">
    <path d="M 355.251471 273.312 
L 356.860656 273.312 
L 356.860656 218.896941 
L 355.251471 218.896941 
z
" clip-path="url(#p6b1c5192a7)" style="fill: #1f77b4"/>
   </g>
   <g id="patch_187">
    <path d="M 356.860656 273.312 
L 358.469841 273.312 
L 358.469841 214.424471 
L 356.860656 214.424471 
z
" clip-path="url(#p6b1c5192a7)" style="fill: #1f77b4"/>
   </g>
   <g id="patch_188">
    <path d="M 358.469841 273.312 
L 360.079026 273.312 
L 360.079026 212.188235 
L 358.469841 212.188235 
z
" clip-path="url(#p6b1c5192a7)" style="fill: #1f77b4"/>
   </g>
   <g id="patch_189">
    <path d="M 360.079026 273.312 
L 361.688211 273.312 
L 361.688211 222.624 
L 360.079026 222.624 
z
" clip-path="url(#p6b1c5192a7)" style="fill: #1f77b4"/>
   </g>
   <g id="patch_190">
    <path d="M 361.688211 273.312 
L 363.297396 273.312 
L 363.297396 220.387765 
L 361.688211 220.387765 
z
" clip-path="url(#p6b1c5192a7)" style="fill: #1f77b4"/>
   </g>
   <g id="patch_191">
    <path d="M 363.297396 273.312 
L 364.906581 273.312 
L 364.906581 222.624 
L 363.297396 222.624 
z
" clip-path="url(#p6b1c5192a7)" style="fill: #1f77b4"/>
   </g>
   <g id="patch_192">
    <path d="M 364.906581 273.312 
L 366.515766 273.312 
L 366.515766 238.277647 
L 364.906581 238.277647 
z
" clip-path="url(#p6b1c5192a7)" style="fill: #1f77b4"/>
   </g>
   <g id="patch_193">
    <path d="M 366.515766 273.312 
L 368.124951 273.312 
L 368.124951 236.041412 
L 366.515766 236.041412 
z
" clip-path="url(#p6b1c5192a7)" style="fill: #1f77b4"/>
   </g>
   <g id="patch_194">
    <path d="M 368.124951 273.312 
L 369.734136 273.312 
L 369.734136 236.041412 
L 368.124951 236.041412 
z
" clip-path="url(#p6b1c5192a7)" style="fill: #1f77b4"/>
   </g>
   <g id="patch_195">
    <path d="M 369.734136 273.312 
L 371.343321 273.312 
L 371.343321 245.731765 
L 369.734136 245.731765 
z
" clip-path="url(#p6b1c5192a7)" style="fill: #1f77b4"/>
   </g>
   <g id="patch_196">
    <path d="M 371.343321 273.312 
L 372.952507 273.312 
L 372.952507 246.477176 
L 371.343321 246.477176 
z
" clip-path="url(#p6b1c5192a7)" style="fill: #1f77b4"/>
   </g>
   <g id="patch_197">
    <path d="M 372.952507 273.312 
L 374.561692 273.312 
L 374.561692 247.968 
L 372.952507 247.968 
z
" clip-path="url(#p6b1c5192a7)" style="fill: #1f77b4"/>
   </g>
   <g id="patch_198">
    <path d="M 374.561692 273.312 
L 376.170877 273.312 
L 376.170877 248.713412 
L 374.561692 248.713412 
z
" clip-path="url(#p6b1c5192a7)" style="fill: #1f77b4"/>
   </g>
   <g id="patch_199">
    <path d="M 376.170877 273.312 
L 377.780062 273.312 
L 377.780062 259.894588 
L 376.170877 259.894588 
z
" clip-path="url(#p6b1c5192a7)" style="fill: #1f77b4"/>
   </g>
   <g id="patch_200">
    <path d="M 377.780062 273.312 
L 379.389247 273.312 
L 379.389247 253.931294 
L 377.780062 253.931294 
z
" clip-path="url(#p6b1c5192a7)" style="fill: #1f77b4"/>
   </g>
   <g id="patch_201">
    <path d="M 379.389247 273.312 
L 380.998432 273.312 
L 380.998432 266.603294 
L 379.389247 266.603294 
z
" clip-path="url(#p6b1c5192a7)" style="fill: #1f77b4"/>
   </g>
   <g id="patch_202">
    <path d="M 380.998432 273.312 
L 382.607617 273.312 
L 382.607617 265.112471 
L 380.998432 265.112471 
z
" clip-path="url(#p6b1c5192a7)" style="fill: #1f77b4"/>
   </g>
   <g id="matplotlib.axis_1">
    <g id="xtick_1">
     <g id="line2d_1">
      <defs>
       <path id="m8c36c57ad3" d="M 0 0 
L 0 3.5 
" style="stroke: #000000; stroke-width: 0.8"/>
      </defs>
      <g>
       <use xlink:href="#m8c36c57ad3" x="60.013977" y="273.312" style="stroke: #000000; stroke-width: 0.8"/>
      </g>
     </g>
     <g id="text_1">
      <!-- 0.0 -->
      <g transform="translate(52.062415 287.910437)scale(0.1 -0.1)">
       <defs>
        <path id="DejaVuSans-30" d="M 2034 4250 
Q 1547 4250 1301 3770 
Q 1056 3291 1056 2328 
Q 1056 1369 1301 889 
Q 1547 409 2034 409 
Q 2525 409 2770 889 
Q 3016 1369 3016 2328 
Q 3016 3291 2770 3770 
Q 2525 4250 2034 4250 
z
M 2034 4750 
Q 2819 4750 3233 4129 
Q 3647 3509 3647 2328 
Q 3647 1150 3233 529 
Q 2819 -91 2034 -91 
Q 1250 -91 836 529 
Q 422 1150 422 2328 
Q 422 3509 836 4129 
Q 1250 4750 2034 4750 
z
" transform="scale(0.015625)"/>
        <path id="DejaVuSans-2e" d="M 684 794 
L 1344 794 
L 1344 0 
L 684 0 
L 684 794 
z
" transform="scale(0.015625)"/>
       </defs>
       <use xlink:href="#DejaVuSans-30"/>
       <use xlink:href="#DejaVuSans-2e" x="63.623047"/>
       <use xlink:href="#DejaVuSans-30" x="95.410156"/>
      </g>
     </g>
    </g>
    <g id="xtick_2">
     <g id="line2d_2">
      <g>
       <use xlink:href="#m8c36c57ad3" x="101.350278" y="273.312" style="stroke: #000000; stroke-width: 0.8"/>
      </g>
     </g>
     <g id="text_2">
      <!-- 0.2 -->
      <g transform="translate(93.398715 287.910437)scale(0.1 -0.1)">
       <defs>
        <path id="DejaVuSans-32" d="M 1228 531 
L 3431 531 
L 3431 0 
L 469 0 
L 469 531 
Q 828 903 1448 1529 
Q 2069 2156 2228 2338 
Q 2531 2678 2651 2914 
Q 2772 3150 2772 3378 
Q 2772 3750 2511 3984 
Q 2250 4219 1831 4219 
Q 1534 4219 1204 4116 
Q 875 4013 500 3803 
L 500 4441 
Q 881 4594 1212 4672 
Q 1544 4750 1819 4750 
Q 2544 4750 2975 4387 
Q 3406 4025 3406 3419 
Q 3406 3131 3298 2873 
Q 3191 2616 2906 2266 
Q 2828 2175 2409 1742 
Q 1991 1309 1228 531 
z
" transform="scale(0.015625)"/>
       </defs>
       <use xlink:href="#DejaVuSans-30"/>
       <use xlink:href="#DejaVuSans-2e" x="63.623047"/>
       <use xlink:href="#DejaVuSans-32" x="95.410156"/>
      </g>
     </g>
    </g>
    <g id="xtick_3">
     <g id="line2d_3">
      <g>
       <use xlink:href="#m8c36c57ad3" x="142.686578" y="273.312" style="stroke: #000000; stroke-width: 0.8"/>
      </g>
     </g>
     <g id="text_3">
      <!-- 0.4 -->
      <g transform="translate(134.735016 287.910437)scale(0.1 -0.1)">
       <defs>
        <path id="DejaVuSans-34" d="M 2419 4116 
L 825 1625 
L 2419 1625 
L 2419 4116 
z
M 2253 4666 
L 3047 4666 
L 3047 1625 
L 3713 1625 
L 3713 1100 
L 3047 1100 
L 3047 0 
L 2419 0 
L 2419 1100 
L 313 1100 
L 313 1709 
L 2253 4666 
z
" transform="scale(0.015625)"/>
       </defs>
       <use xlink:href="#DejaVuSans-30"/>
       <use xlink:href="#DejaVuSans-2e" x="63.623047"/>
       <use xlink:href="#DejaVuSans-34" x="95.410156"/>
      </g>
     </g>
    </g>
    <g id="xtick_4">
     <g id="line2d_4">
      <g>
       <use xlink:href="#m8c36c57ad3" x="184.022879" y="273.312" style="stroke: #000000; stroke-width: 0.8"/>
      </g>
     </g>
     <g id="text_4">
      <!-- 0.6 -->
      <g transform="translate(176.071316 287.910437)scale(0.1 -0.1)">
       <defs>
        <path id="DejaVuSans-36" d="M 2113 2584 
Q 1688 2584 1439 2293 
Q 1191 2003 1191 1497 
Q 1191 994 1439 701 
Q 1688 409 2113 409 
Q 2538 409 2786 701 
Q 3034 994 3034 1497 
Q 3034 2003 2786 2293 
Q 2538 2584 2113 2584 
z
M 3366 4563 
L 3366 3988 
Q 3128 4100 2886 4159 
Q 2644 4219 2406 4219 
Q 1781 4219 1451 3797 
Q 1122 3375 1075 2522 
Q 1259 2794 1537 2939 
Q 1816 3084 2150 3084 
Q 2853 3084 3261 2657 
Q 3669 2231 3669 1497 
Q 3669 778 3244 343 
Q 2819 -91 2113 -91 
Q 1303 -91 875 529 
Q 447 1150 447 2328 
Q 447 3434 972 4092 
Q 1497 4750 2381 4750 
Q 2619 4750 2861 4703 
Q 3103 4656 3366 4563 
z
" transform="scale(0.015625)"/>
       </defs>
       <use xlink:href="#DejaVuSans-30"/>
       <use xlink:href="#DejaVuSans-2e" x="63.623047"/>
       <use xlink:href="#DejaVuSans-36" x="95.410156"/>
      </g>
     </g>
    </g>
    <g id="xtick_5">
     <g id="line2d_5">
      <g>
       <use xlink:href="#m8c36c57ad3" x="225.35918" y="273.312" style="stroke: #000000; stroke-width: 0.8"/>
      </g>
     </g>
     <g id="text_5">
      <!-- 0.8 -->
      <g transform="translate(217.407617 287.910437)scale(0.1 -0.1)">
       <defs>
        <path id="DejaVuSans-38" d="M 2034 2216 
Q 1584 2216 1326 1975 
Q 1069 1734 1069 1313 
Q 1069 891 1326 650 
Q 1584 409 2034 409 
Q 2484 409 2743 651 
Q 3003 894 3003 1313 
Q 3003 1734 2745 1975 
Q 2488 2216 2034 2216 
z
M 1403 2484 
Q 997 2584 770 2862 
Q 544 3141 544 3541 
Q 544 4100 942 4425 
Q 1341 4750 2034 4750 
Q 2731 4750 3128 4425 
Q 3525 4100 3525 3541 
Q 3525 3141 3298 2862 
Q 3072 2584 2669 2484 
Q 3125 2378 3379 2068 
Q 3634 1759 3634 1313 
Q 3634 634 3220 271 
Q 2806 -91 2034 -91 
Q 1263 -91 848 271 
Q 434 634 434 1313 
Q 434 1759 690 2068 
Q 947 2378 1403 2484 
z
M 1172 3481 
Q 1172 3119 1398 2916 
Q 1625 2713 2034 2713 
Q 2441 2713 2670 2916 
Q 2900 3119 2900 3481 
Q 2900 3844 2670 4047 
Q 2441 4250 2034 4250 
Q 1625 4250 1398 4047 
Q 1172 3844 1172 3481 
z
" transform="scale(0.015625)"/>
       </defs>
       <use xlink:href="#DejaVuSans-30"/>
       <use xlink:href="#DejaVuSans-2e" x="63.623047"/>
       <use xlink:href="#DejaVuSans-38" x="95.410156"/>
      </g>
     </g>
    </g>
    <g id="xtick_6">
     <g id="line2d_6">
      <g>
       <use xlink:href="#m8c36c57ad3" x="266.69548" y="273.312" style="stroke: #000000; stroke-width: 0.8"/>
      </g>
     </g>
     <g id="text_6">
      <!-- 1.0 -->
      <g transform="translate(258.743918 287.910437)scale(0.1 -0.1)">
       <defs>
        <path id="DejaVuSans-31" d="M 794 531 
L 1825 531 
L 1825 4091 
L 703 3866 
L 703 4441 
L 1819 4666 
L 2450 4666 
L 2450 531 
L 3481 531 
L 3481 0 
L 794 0 
L 794 531 
z
" transform="scale(0.015625)"/>
       </defs>
       <use xlink:href="#DejaVuSans-31"/>
       <use xlink:href="#DejaVuSans-2e" x="63.623047"/>
       <use xlink:href="#DejaVuSans-30" x="95.410156"/>
      </g>
     </g>
    </g>
    <g id="xtick_7">
     <g id="line2d_7">
      <g>
       <use xlink:href="#m8c36c57ad3" x="308.031781" y="273.312" style="stroke: #000000; stroke-width: 0.8"/>
      </g>
     </g>
     <g id="text_7">
      <!-- 1.2 -->
      <g transform="translate(300.080218 287.910437)scale(0.1 -0.1)">
       <use xlink:href="#DejaVuSans-31"/>
       <use xlink:href="#DejaVuSans-2e" x="63.623047"/>
       <use xlink:href="#DejaVuSans-32" x="95.410156"/>
      </g>
     </g>
    </g>
    <g id="xtick_8">
     <g id="line2d_8">
      <g>
       <use xlink:href="#m8c36c57ad3" x="349.368081" y="273.312" style="stroke: #000000; stroke-width: 0.8"/>
      </g>
     </g>
     <g id="text_8">
      <!-- 1.4 -->
      <g transform="translate(341.416519 287.910437)scale(0.1 -0.1)">
       <use xlink:href="#DejaVuSans-31"/>
       <use xlink:href="#DejaVuSans-2e" x="63.623047"/>
       <use xlink:href="#DejaVuSans-34" x="95.410156"/>
      </g>
     </g>
    </g>
    <g id="xtick_9">
     <g id="line2d_9">
      <g>
       <use xlink:href="#m8c36c57ad3" x="390.704382" y="273.312" style="stroke: #000000; stroke-width: 0.8"/>
      </g>
     </g>
     <g id="text_9">
      <!-- 1.6 -->
      <g transform="translate(382.752819 287.910437)scale(0.1 -0.1)">
       <use xlink:href="#DejaVuSans-31"/>
       <use xlink:href="#DejaVuSans-2e" x="63.623047"/>
       <use xlink:href="#DejaVuSans-36" x="95.410156"/>
      </g>
     </g>
    </g>
    <g id="text_10">
     <!-- Angle with normal (rad) -->
     <g transform="translate(163.023281 301.588562)scale(0.1 -0.1)">
      <defs>
       <path id="DejaVuSans-41" d="M 2188 4044 
L 1331 1722 
L 3047 1722 
L 2188 4044 
z
M 1831 4666 
L 2547 4666 
L 4325 0 
L 3669 0 
L 3244 1197 
L 1141 1197 
L 716 0 
L 50 0 
L 1831 4666 
z
" transform="scale(0.015625)"/>
       <path id="DejaVuSans-6e" d="M 3513 2113 
L 3513 0 
L 2938 0 
L 2938 2094 
Q 2938 2591 2744 2837 
Q 2550 3084 2163 3084 
Q 1697 3084 1428 2787 
Q 1159 2491 1159 1978 
L 1159 0 
L 581 0 
L 581 3500 
L 1159 3500 
L 1159 2956 
Q 1366 3272 1645 3428 
Q 1925 3584 2291 3584 
Q 2894 3584 3203 3211 
Q 3513 2838 3513 2113 
z
" transform="scale(0.015625)"/>
       <path id="DejaVuSans-67" d="M 2906 1791 
Q 2906 2416 2648 2759 
Q 2391 3103 1925 3103 
Q 1463 3103 1205 2759 
Q 947 2416 947 1791 
Q 947 1169 1205 825 
Q 1463 481 1925 481 
Q 2391 481 2648 825 
Q 2906 1169 2906 1791 
z
M 3481 434 
Q 3481 -459 3084 -895 
Q 2688 -1331 1869 -1331 
Q 1566 -1331 1297 -1286 
Q 1028 -1241 775 -1147 
L 775 -588 
Q 1028 -725 1275 -790 
Q 1522 -856 1778 -856 
Q 2344 -856 2625 -561 
Q 2906 -266 2906 331 
L 2906 616 
Q 2728 306 2450 153 
Q 2172 0 1784 0 
Q 1141 0 747 490 
Q 353 981 353 1791 
Q 353 2603 747 3093 
Q 1141 3584 1784 3584 
Q 2172 3584 2450 3431 
Q 2728 3278 2906 2969 
L 2906 3500 
L 3481 3500 
L 3481 434 
z
" transform="scale(0.015625)"/>
       <path id="DejaVuSans-6c" d="M 603 4863 
L 1178 4863 
L 1178 0 
L 603 0 
L 603 4863 
z
" transform="scale(0.015625)"/>
       <path id="DejaVuSans-65" d="M 3597 1894 
L 3597 1613 
L 953 1613 
Q 991 1019 1311 708 
Q 1631 397 2203 397 
Q 2534 397 2845 478 
Q 3156 559 3463 722 
L 3463 178 
Q 3153 47 2828 -22 
Q 2503 -91 2169 -91 
Q 1331 -91 842 396 
Q 353 884 353 1716 
Q 353 2575 817 3079 
Q 1281 3584 2069 3584 
Q 2775 3584 3186 3129 
Q 3597 2675 3597 1894 
z
M 3022 2063 
Q 3016 2534 2758 2815 
Q 2500 3097 2075 3097 
Q 1594 3097 1305 2825 
Q 1016 2553 972 2059 
L 3022 2063 
z
" transform="scale(0.015625)"/>
       <path id="DejaVuSans-20" transform="scale(0.015625)"/>
       <path id="DejaVuSans-77" d="M 269 3500 
L 844 3500 
L 1563 769 
L 2278 3500 
L 2956 3500 
L 3675 769 
L 4391 3500 
L 4966 3500 
L 4050 0 
L 3372 0 
L 2619 2869 
L 1863 0 
L 1184 0 
L 269 3500 
z
" transform="scale(0.015625)"/>
       <path id="DejaVuSans-69" d="M 603 3500 
L 1178 3500 
L 1178 0 
L 603 0 
L 603 3500 
z
M 603 4863 
L 1178 4863 
L 1178 4134 
L 603 4134 
L 603 4863 
z
" transform="scale(0.015625)"/>
       <path id="DejaVuSans-74" d="M 1172 4494 
L 1172 3500 
L 2356 3500 
L 2356 3053 
L 1172 3053 
L 1172 1153 
Q 1172 725 1289 603 
Q 1406 481 1766 481 
L 2356 481 
L 2356 0 
L 1766 0 
Q 1100 0 847 248 
Q 594 497 594 1153 
L 594 3053 
L 172 3053 
L 172 3500 
L 594 3500 
L 594 4494 
L 1172 4494 
z
" transform="scale(0.015625)"/>
       <path id="DejaVuSans-68" d="M 3513 2113 
L 3513 0 
L 2938 0 
L 2938 2094 
Q 2938 2591 2744 2837 
Q 2550 3084 2163 3084 
Q 1697 3084 1428 2787 
Q 1159 2491 1159 1978 
L 1159 0 
L 581 0 
L 581 4863 
L 1159 4863 
L 1159 2956 
Q 1366 3272 1645 3428 
Q 1925 3584 2291 3584 
Q 2894 3584 3203 3211 
Q 3513 2838 3513 2113 
z
" transform="scale(0.015625)"/>
       <path id="DejaVuSans-6f" d="M 1959 3097 
Q 1497 3097 1228 2736 
Q 959 2375 959 1747 
Q 959 1119 1226 758 
Q 1494 397 1959 397 
Q 2419 397 2687 759 
Q 2956 1122 2956 1747 
Q 2956 2369 2687 2733 
Q 2419 3097 1959 3097 
z
M 1959 3584 
Q 2709 3584 3137 3096 
Q 3566 2609 3566 1747 
Q 3566 888 3137 398 
Q 2709 -91 1959 -91 
Q 1206 -91 779 398 
Q 353 888 353 1747 
Q 353 2609 779 3096 
Q 1206 3584 1959 3584 
z
" transform="scale(0.015625)"/>
       <path id="DejaVuSans-72" d="M 2631 2963 
Q 2534 3019 2420 3045 
Q 2306 3072 2169 3072 
Q 1681 3072 1420 2755 
Q 1159 2438 1159 1844 
L 1159 0 
L 581 0 
L 581 3500 
L 1159 3500 
L 1159 2956 
Q 1341 3275 1631 3429 
Q 1922 3584 2338 3584 
Q 2397 3584 2469 3576 
Q 2541 3569 2628 3553 
L 2631 2963 
z
" transform="scale(0.015625)"/>
       <path id="DejaVuSans-6d" d="M 3328 2828 
Q 3544 3216 3844 3400 
Q 4144 3584 4550 3584 
Q 5097 3584 5394 3201 
Q 5691 2819 5691 2113 
L 5691 0 
L 5113 0 
L 5113 2094 
Q 5113 2597 4934 2840 
Q 4756 3084 4391 3084 
Q 3944 3084 3684 2787 
Q 3425 2491 3425 1978 
L 3425 0 
L 2847 0 
L 2847 2094 
Q 2847 2600 2669 2842 
Q 2491 3084 2119 3084 
Q 1678 3084 1418 2786 
Q 1159 2488 1159 1978 
L 1159 0 
L 581 0 
L 581 3500 
L 1159 3500 
L 1159 2956 
Q 1356 3278 1631 3431 
Q 1906 3584 2284 3584 
Q 2666 3584 2933 3390 
Q 3200 3197 3328 2828 
z
" transform="scale(0.015625)"/>
       <path id="DejaVuSans-61" d="M 2194 1759 
Q 1497 1759 1228 1600 
Q 959 1441 959 1056 
Q 959 750 1161 570 
Q 1363 391 1709 391 
Q 2188 391 2477 730 
Q 2766 1069 2766 1631 
L 2766 1759 
L 2194 1759 
z
M 3341 1997 
L 3341 0 
L 2766 0 
L 2766 531 
Q 2569 213 2275 61 
Q 1981 -91 1556 -91 
Q 1019 -91 701 211 
Q 384 513 384 1019 
Q 384 1609 779 1909 
Q 1175 2209 1959 2209 
L 2766 2209 
L 2766 2266 
Q 2766 2663 2505 2880 
Q 2244 3097 1772 3097 
Q 1472 3097 1187 3025 
Q 903 2953 641 2809 
L 641 3341 
Q 956 3463 1253 3523 
Q 1550 3584 1831 3584 
Q 2591 3584 2966 3190 
Q 3341 2797 3341 1997 
z
" transform="scale(0.015625)"/>
       <path id="DejaVuSans-28" d="M 1984 4856 
Q 1566 4138 1362 3434 
Q 1159 2731 1159 2009 
Q 1159 1288 1364 580 
Q 1569 -128 1984 -844 
L 1484 -844 
Q 1016 -109 783 600 
Q 550 1309 550 2009 
Q 550 2706 781 3412 
Q 1013 4119 1484 4856 
L 1984 4856 
z
" transform="scale(0.015625)"/>
       <path id="DejaVuSans-64" d="M 2906 2969 
L 2906 4863 
L 3481 4863 
L 3481 0 
L 2906 0 
L 2906 525 
Q 2725 213 2448 61 
Q 2172 -91 1784 -91 
Q 1150 -91 751 415 
Q 353 922 353 1747 
Q 353 2572 751 3078 
Q 1150 3584 1784 3584 
Q 2172 3584 2448 3432 
Q 2725 3281 2906 2969 
z
M 947 1747 
Q 947 1113 1208 752 
Q 1469 391 1925 391 
Q 2381 391 2643 752 
Q 2906 1113 2906 1747 
Q 2906 2381 2643 2742 
Q 2381 3103 1925 3103 
Q 1469 3103 1208 2742 
Q 947 2381 947 1747 
z
" transform="scale(0.015625)"/>
       <path id="DejaVuSans-29" d="M 513 4856 
L 1013 4856 
Q 1481 4119 1714 3412 
Q 1947 2706 1947 2009 
Q 1947 1309 1714 600 
Q 1481 -109 1013 -844 
L 513 -844 
Q 928 -128 1133 580 
Q 1338 1288 1338 2009 
Q 1338 2731 1133 3434 
Q 928 4138 513 4856 
z
" transform="scale(0.015625)"/>
      </defs>
      <use xlink:href="#DejaVuSans-41"/>
      <use xlink:href="#DejaVuSans-6e" x="68.408203"/>
      <use xlink:href="#DejaVuSans-67" x="131.787109"/>
      <use xlink:href="#DejaVuSans-6c" x="195.263672"/>
      <use xlink:href="#DejaVuSans-65" x="223.046875"/>
      <use xlink:href="#DejaVuSans-20" x="284.570312"/>
      <use xlink:href="#DejaVuSans-77" x="316.357422"/>
      <use xlink:href="#DejaVuSans-69" x="398.144531"/>
      <use xlink:href="#DejaVuSans-74" x="425.927734"/>
      <use xlink:href="#DejaVuSans-68" x="465.136719"/>
      <use xlink:href="#DejaVuSans-20" x="528.515625"/>
      <use xlink:href="#DejaVuSans-6e" x="560.302734"/>
      <use xlink:href="#DejaVuSans-6f" x="623.681641"/>
      <use xlink:href="#DejaVuSans-72" x="684.863281"/>
      <use xlink:href="#DejaVuSans-6d" x="724.226562"/>
      <use xlink:href="#DejaVuSans-61" x="821.638672"/>
      <use xlink:href="#DejaVuSans-6c" x="882.917969"/>
      <use xlink:href="#DejaVuSans-20" x="910.701172"/>
      <use xlink:href="#DejaVuSans-28" x="942.488281"/>
      <use xlink:href="#DejaVuSans-72" x="981.501953"/>
      <use xlink:href="#DejaVuSans-61" x="1022.615234"/>
      <use xlink:href="#DejaVuSans-64" x="1083.894531"/>
      <use xlink:href="#DejaVuSans-29" x="1147.371094"/>
     </g>
    </g>
   </g>
   <g id="matplotlib.axis_2">
    <g id="ytick_1">
     <g id="line2d_10">
      <defs>
       <path id="m05f736d0e1" d="M 0 0 
L -3.5 0 
" style="stroke: #000000; stroke-width: 0.8"/>
      </defs>
      <g>
       <use xlink:href="#m05f736d0e1" x="43.78125" y="273.312" style="stroke: #000000; stroke-width: 0.8"/>
      </g>
     </g>
     <g id="text_11">
      <!-- 0.0 -->
      <g transform="translate(20.878125 277.111219)scale(0.1 -0.1)">
       <use xlink:href="#DejaVuSans-30"/>
       <use xlink:href="#DejaVuSans-2e" x="63.623047"/>
       <use xlink:href="#DejaVuSans-30" x="95.410156"/>
      </g>
     </g>
    </g>
    <g id="ytick_2">
     <g id="line2d_11">
      <g>
       <use xlink:href="#m05f736d0e1" x="43.78125" y="226.882863" style="stroke: #000000; stroke-width: 0.8"/>
      </g>
     </g>
     <g id="text_12">
      <!-- 0.2 -->
      <g transform="translate(20.878125 230.682082)scale(0.1 -0.1)">
       <use xlink:href="#DejaVuSans-30"/>
       <use xlink:href="#DejaVuSans-2e" x="63.623047"/>
       <use xlink:href="#DejaVuSans-32" x="95.410156"/>
      </g>
     </g>
    </g>
    <g id="ytick_3">
     <g id="line2d_12">
      <g>
       <use xlink:href="#m05f736d0e1" x="43.78125" y="180.453726" style="stroke: #000000; stroke-width: 0.8"/>
      </g>
     </g>
     <g id="text_13">
      <!-- 0.4 -->
      <g transform="translate(20.878125 184.252945)scale(0.1 -0.1)">
       <use xlink:href="#DejaVuSans-30"/>
       <use xlink:href="#DejaVuSans-2e" x="63.623047"/>
       <use xlink:href="#DejaVuSans-34" x="95.410156"/>
      </g>
     </g>
    </g>
    <g id="ytick_4">
     <g id="line2d_13">
      <g>
       <use xlink:href="#m05f736d0e1" x="43.78125" y="134.024589" style="stroke: #000000; stroke-width: 0.8"/>
      </g>
     </g>
     <g id="text_14">
      <!-- 0.6 -->
      <g transform="translate(20.878125 137.823808)scale(0.1 -0.1)">
       <use xlink:href="#DejaVuSans-30"/>
       <use xlink:href="#DejaVuSans-2e" x="63.623047"/>
       <use xlink:href="#DejaVuSans-36" x="95.410156"/>
      </g>
     </g>
    </g>
    <g id="ytick_5">
     <g id="line2d_14">
      <g>
       <use xlink:href="#m05f736d0e1" x="43.78125" y="87.595452" style="stroke: #000000; stroke-width: 0.8"/>
      </g>
     </g>
     <g id="text_15">
      <!-- 0.8 -->
      <g transform="translate(20.878125 91.394671)scale(0.1 -0.1)">
       <use xlink:href="#DejaVuSans-30"/>
       <use xlink:href="#DejaVuSans-2e" x="63.623047"/>
       <use xlink:href="#DejaVuSans-38" x="95.410156"/>
      </g>
     </g>
    </g>
    <g id="ytick_6">
     <g id="line2d_15">
      <g>
       <use xlink:href="#m05f736d0e1" x="43.78125" y="41.166315" style="stroke: #000000; stroke-width: 0.8"/>
      </g>
     </g>
     <g id="text_16">
      <!-- 1.0 -->
      <g transform="translate(20.878125 44.965533)scale(0.1 -0.1)">
       <use xlink:href="#DejaVuSans-31"/>
       <use xlink:href="#DejaVuSans-2e" x="63.623047"/>
       <use xlink:href="#DejaVuSans-30" x="95.410156"/>
      </g>
     </g>
    </g>
    <g id="text_17">
     <!-- Probability density -->
     <g transform="translate(14.798438 186.606781)rotate(-90)scale(0.1 -0.1)">
      <defs>
       <path id="DejaVuSans-50" d="M 1259 4147 
L 1259 2394 
L 2053 2394 
Q 2494 2394 2734 2622 
Q 2975 2850 2975 3272 
Q 2975 3691 2734 3919 
Q 2494 4147 2053 4147 
L 1259 4147 
z
M 628 4666 
L 2053 4666 
Q 2838 4666 3239 4311 
Q 3641 3956 3641 3272 
Q 3641 2581 3239 2228 
Q 2838 1875 2053 1875 
L 1259 1875 
L 1259 0 
L 628 0 
L 628 4666 
z
" transform="scale(0.015625)"/>
       <path id="DejaVuSans-62" d="M 3116 1747 
Q 3116 2381 2855 2742 
Q 2594 3103 2138 3103 
Q 1681 3103 1420 2742 
Q 1159 2381 1159 1747 
Q 1159 1113 1420 752 
Q 1681 391 2138 391 
Q 2594 391 2855 752 
Q 3116 1113 3116 1747 
z
M 1159 2969 
Q 1341 3281 1617 3432 
Q 1894 3584 2278 3584 
Q 2916 3584 3314 3078 
Q 3713 2572 3713 1747 
Q 3713 922 3314 415 
Q 2916 -91 2278 -91 
Q 1894 -91 1617 61 
Q 1341 213 1159 525 
L 1159 0 
L 581 0 
L 581 4863 
L 1159 4863 
L 1159 2969 
z
" transform="scale(0.015625)"/>
       <path id="DejaVuSans-79" d="M 2059 -325 
Q 1816 -950 1584 -1140 
Q 1353 -1331 966 -1331 
L 506 -1331 
L 506 -850 
L 844 -850 
Q 1081 -850 1212 -737 
Q 1344 -625 1503 -206 
L 1606 56 
L 191 3500 
L 800 3500 
L 1894 763 
L 2988 3500 
L 3597 3500 
L 2059 -325 
z
" transform="scale(0.015625)"/>
       <path id="DejaVuSans-73" d="M 2834 3397 
L 2834 2853 
Q 2591 2978 2328 3040 
Q 2066 3103 1784 3103 
Q 1356 3103 1142 2972 
Q 928 2841 928 2578 
Q 928 2378 1081 2264 
Q 1234 2150 1697 2047 
L 1894 2003 
Q 2506 1872 2764 1633 
Q 3022 1394 3022 966 
Q 3022 478 2636 193 
Q 2250 -91 1575 -91 
Q 1294 -91 989 -36 
Q 684 19 347 128 
L 347 722 
Q 666 556 975 473 
Q 1284 391 1588 391 
Q 1994 391 2212 530 
Q 2431 669 2431 922 
Q 2431 1156 2273 1281 
Q 2116 1406 1581 1522 
L 1381 1569 
Q 847 1681 609 1914 
Q 372 2147 372 2553 
Q 372 3047 722 3315 
Q 1072 3584 1716 3584 
Q 2034 3584 2315 3537 
Q 2597 3491 2834 3397 
z
" transform="scale(0.015625)"/>
      </defs>
      <use xlink:href="#DejaVuSans-50"/>
      <use xlink:href="#DejaVuSans-72" x="58.552734"/>
      <use xlink:href="#DejaVuSans-6f" x="97.416016"/>
      <use xlink:href="#DejaVuSans-62" x="158.597656"/>
      <use xlink:href="#DejaVuSans-61" x="222.074219"/>
      <use xlink:href="#DejaVuSans-62" x="283.353516"/>
      <use xlink:href="#DejaVuSans-69" x="346.830078"/>
      <use xlink:href="#DejaVuSans-6c" x="374.613281"/>
      <use xlink:href="#DejaVuSans-69" x="402.396484"/>
      <use xlink:href="#DejaVuSans-74" x="430.179688"/>
      <use xlink:href="#DejaVuSans-79" x="469.388672"/>
      <use xlink:href="#DejaVuSans-20" x="528.568359"/>
      <use xlink:href="#DejaVuSans-64" x="560.355469"/>
      <use xlink:href="#DejaVuSans-65" x="623.832031"/>
      <use xlink:href="#DejaVuSans-6e" x="685.355469"/>
      <use xlink:href="#DejaVuSans-73" x="748.734375"/>
      <use xlink:href="#DejaVuSans-69" x="800.833984"/>
      <use xlink:href="#DejaVuSans-74" x="828.617188"/>
      <use xlink:href="#DejaVuSans-79" x="867.826172"/>
     </g>
    </g>
   </g>
   <g id="line2d_16">
    <path d="M 60.013977 273.312 
L 79.837728 229.052347 
L 90.237073 206.382265 
L 99.01152 187.772027 
L 106.811029 171.742921 
L 113.960578 157.555416 
L 120.460169 145.136556 
L 126.63478 133.807385 
L 132.484411 123.533128 
L 138.009063 114.269666 
L 143.208736 105.965785 
L 148.408408 98.085482 
L 153.283101 91.100145 
L 157.832814 84.94593 
L 162.382528 79.156768 
L 166.607261 74.117809 
L 170.831995 69.411717 
L 175.056729 65.046358 
L 178.956483 61.325538 
L 182.856238 57.906566 
L 186.755992 54.79431 
L 190.330767 52.214643 
L 193.905542 49.899517 
L 197.480316 47.851704 
L 201.055091 46.073652 
L 204.304886 44.693129 
L 207.554682 43.538677 
L 210.804477 42.611438 
L 214.054272 41.912329 
L 217.304067 41.44204 
L 220.553863 41.201037 
L 223.803658 41.189559 
L 227.053453 41.407616 
L 230.303248 41.854994 
L 233.553044 42.531248 
L 236.802839 43.435712 
L 240.052634 44.56749 
L 243.302429 45.925464 
L 246.552225 47.50829 
L 250.126999 49.507229 
L 253.701774 51.773949 
L 257.276549 54.305738 
L 260.851324 57.099567 
L 264.751078 60.442299 
L 268.650832 64.088137 
L 272.550587 68.031889 
L 276.77532 72.633951 
L 281.000054 77.571361 
L 285.549768 83.254129 
L 290.099481 89.30523 
L 294.974174 96.183952 
L 299.848867 103.45673 
L 305.048539 111.630451 
L 310.248212 120.213412 
L 315.772863 129.756896 
L 321.622495 140.308249 
L 327.797106 151.907301 
L 334.296696 164.584122 
L 341.446246 179.023246 
L 349.245755 195.287082 
L 358.020202 214.11019 
L 368.419546 236.960362 
L 383.693584 271.121921 
L 384.668523 273.312 
L 384.668523 273.312 
" clip-path="url(#p6b1c5192a7)" style="fill: none; stroke: #ff7f0e; stroke-width: 1.5; stroke-linecap: square"/>
   </g>
   <g id="patch_203">
    <path d="M 43.78125 273.312 
L 43.78125 7.2 
" style="fill: none; stroke: #000000; stroke-width: 0.8; stroke-linejoin: miter; stroke-linecap: square"/>
   </g>
   <g id="patch_204">
    <path d="M 400.90125 273.312 
L 400.90125 7.2 
" style="fill: none; stroke: #000000; stroke-width: 0.8; stroke-linejoin: miter; stroke-linecap: square"/>
   </g>
   <g id="patch_205">
    <path d="M 43.78125 273.312 
L 400.90125 273.312 
" style="fill: none; stroke: #000000; stroke-width: 0.8; stroke-linejoin: miter; stroke-linecap: square"/>
   </g>
   <g id="patch_206">
    <path d="M 43.78125 7.2 
L 400.90125 7.2 
" style="fill: none; stroke: #000000; stroke-width: 0.8; stroke-linejoin: miter; stroke-linecap: square"/>
   </g>
  </g>
 </g>
 <defs>
  <clipPath id="p6b1c5192a7">
   <rect x="43.78125" y="7.2" width="357.12" height="266.112"/>
  </clipPath>
 </defs>
</svg>
