<?xml version="1.0" encoding="utf-8" standalone="no"?>
<!DOCTYPE svg PUBLIC "-//W3C//DTD SVG 1.1//EN"
  "http://www.w3.org/Graphics/SVG/1.1/DTD/svg11.dtd">
<svg xmlns:xlink="http://www.w3.org/1999/xlink" width="408.10125pt" height="310.86825pt" viewBox="0 0 408.10125 310.86825" xmlns="http://www.w3.org/2000/svg" version="1.1">
 <metadata>
  <rdf:RDF xmlns:dc="http://purl.org/dc/elements/1.1/" xmlns:cc="http://creativecommons.org/ns#" xmlns:rdf="http://www.w3.org/1999/02/22-rdf-syntax-ns#">
   <cc:Work>
    <dc:type rdf:resource="http://purl.org/dc/dcmitype/StillImage"/>
    <dc:date>2022-05-04T20:18:37.626482</dc:date>
    <dc:format>image/svg+xml</dc:format>
    <dc:creator>
     <cc:Agent>
      <dc:title>Matplotlib v3.5.2, https://matplotlib.org/</dc:title>
     </cc:Agent>
    </dc:creator>
   </cc:Work>
  </rdf:RDF>
 </metadata>
 <defs>
  <style type="text/css">*{stroke-linejoin: round; stroke-linecap: butt}</style>
 </defs>
 <g id="figure_1">
  <g id="patch_1">
   <path d="M 0 310.86825 
L 408.10125 310.86825 
L 408.10125 0 
L 0 0 
z
" style="fill: #ffffff"/>
  </g>
  <g id="axes_1">
   <g id="patch_2">
    <path d="M 43.78125 273.312 
L 400.90125 273.312 
L 400.90125 7.2 
L 43.78125 7.2 
z
" style="fill: #ffffff"/>
   </g>
   <g id="patch_3">
    <path d="M 61.604078 273.312 
L 63.213664 273.312 
L 63.213664 269.722198 
L 61.604078 269.722198 
z
" clip-path="url(#pcf667277a6)" style="fill: #1f77b4"/>
   </g>
   <g id="patch_4">
    <path d="M 63.213664 273.312 
L 64.823249 273.312 
L 64.823249 267.568317 
L 63.213664 267.568317 
z
" clip-path="url(#pcf667277a6)" style="fill: #1f77b4"/>
   </g>
   <g id="patch_5">
    <path d="M 64.823249 273.312 
L 66.432835 273.312 
L 66.432835 258.952793 
L 64.823249 258.952793 
z
" clip-path="url(#pcf667277a6)" style="fill: #1f77b4"/>
   </g>
   <g id="patch_6">
    <path d="M 66.432835 273.312 
L 68.04242 273.312 
L 68.04242 257.516873 
L 66.432835 257.516873 
z
" clip-path="url(#pcf667277a6)" style="fill: #1f77b4"/>
   </g>
   <g id="patch_7">
    <path d="M 68.04242 273.312 
L 69.652006 273.312 
L 69.652006 248.183388 
L 68.04242 248.183388 
z
" clip-path="url(#pcf667277a6)" style="fill: #1f77b4"/>
   </g>
   <g id="patch_8">
    <path d="M 69.652006 273.312 
L 71.261591 273.312 
L 71.261591 247.465428 
L 69.652006 247.465428 
z
" clip-path="url(#pcf667277a6)" style="fill: #1f77b4"/>
   </g>
   <g id="patch_9">
    <path d="M 71.261591 273.312 
L 72.871176 273.312 
L 72.871176 240.285824 
L 71.261591 240.285824 
z
" clip-path="url(#pcf667277a6)" style="fill: #1f77b4"/>
   </g>
   <g id="patch_10">
    <path d="M 72.871176 273.312 
L 74.480762 273.312 
L 74.480762 247.465428 
L 72.871176 247.465428 
z
" clip-path="url(#pcf667277a6)" style="fill: #1f77b4"/>
   </g>
   <g id="patch_11">
    <path d="M 74.480762 273.312 
L 76.090347 273.312 
L 76.090347 242.439705 
L 74.480762 242.439705 
z
" clip-path="url(#pcf667277a6)" style="fill: #1f77b4"/>
   </g>
   <g id="patch_12">
    <path d="M 76.090347 273.312 
L 77.699933 273.312 
L 77.699933 240.285824 
L 76.090347 240.285824 
z
" clip-path="url(#pcf667277a6)" style="fill: #1f77b4"/>
   </g>
   <g id="patch_13">
    <path d="M 77.699933 273.312 
L 79.309518 273.312 
L 79.309518 247.465428 
L 77.699933 247.465428 
z
" clip-path="url(#pcf667277a6)" style="fill: #1f77b4"/>
   </g>
   <g id="patch_14">
    <path d="M 79.309518 273.312 
L 80.919104 273.312 
L 80.919104 235.260102 
L 79.309518 235.260102 
z
" clip-path="url(#pcf667277a6)" style="fill: #1f77b4"/>
   </g>
   <g id="patch_15">
    <path d="M 80.919104 273.312 
L 82.528689 273.312 
L 82.528689 223.772737 
L 80.919104 223.772737 
z
" clip-path="url(#pcf667277a6)" style="fill: #1f77b4"/>
   </g>
   <g id="patch_16">
    <path d="M 82.528689 273.312 
L 84.138275 273.312 
L 84.138275 207.259649 
L 82.528689 207.259649 
z
" clip-path="url(#pcf667277a6)" style="fill: #1f77b4"/>
   </g>
   <g id="patch_17">
    <path d="M 84.138275 273.312 
L 85.74786 273.312 
L 85.74786 217.311093 
L 84.138275 217.311093 
z
" clip-path="url(#pcf667277a6)" style="fill: #1f77b4"/>
   </g>
   <g id="patch_18">
    <path d="M 85.74786 273.312 
L 87.357445 273.312 
L 87.357445 207.977609 
L 85.74786 207.977609 
z
" clip-path="url(#pcf667277a6)" style="fill: #1f77b4"/>
   </g>
   <g id="patch_19">
    <path d="M 87.357445 273.312 
L 88.967031 273.312 
L 88.967031 206.541688 
L 87.357445 206.541688 
z
" clip-path="url(#pcf667277a6)" style="fill: #1f77b4"/>
   </g>
   <g id="patch_20">
    <path d="M 88.967031 273.312 
L 90.576616 273.312 
L 90.576616 211.567411 
L 88.967031 211.567411 
z
" clip-path="url(#pcf667277a6)" style="fill: #1f77b4"/>
   </g>
   <g id="patch_21">
    <path d="M 90.576616 273.312 
L 92.186202 273.312 
L 92.186202 207.977609 
L 90.576616 207.977609 
z
" clip-path="url(#pcf667277a6)" style="fill: #1f77b4"/>
   </g>
   <g id="patch_22">
    <path d="M 92.186202 273.312 
L 93.795787 273.312 
L 93.795787 202.233926 
L 92.186202 202.233926 
z
" clip-path="url(#pcf667277a6)" style="fill: #1f77b4"/>
   </g>
   <g id="patch_23">
    <path d="M 93.795787 273.312 
L 95.405373 273.312 
L 95.405373 197.926164 
L 93.795787 197.926164 
z
" clip-path="url(#pcf667277a6)" style="fill: #1f77b4"/>
   </g>
   <g id="patch_24">
    <path d="M 95.405373 273.312 
L 97.014958 273.312 
L 97.014958 198.644125 
L 95.405373 198.644125 
z
" clip-path="url(#pcf667277a6)" style="fill: #1f77b4"/>
   </g>
   <g id="patch_25">
    <path d="M 97.014958 273.312 
L 98.624543 273.312 
L 98.624543 187.156759 
L 97.014958 187.156759 
z
" clip-path="url(#pcf667277a6)" style="fill: #1f77b4"/>
   </g>
   <g id="patch_26">
    <path d="M 98.624543 273.312 
L 100.234129 273.312 
L 100.234129 190.028601 
L 98.624543 190.028601 
z
" clip-path="url(#pcf667277a6)" style="fill: #1f77b4"/>
   </g>
   <g id="patch_27">
    <path d="M 100.234129 273.312 
L 101.843714 273.312 
L 101.843714 187.87472 
L 100.234129 187.87472 
z
" clip-path="url(#pcf667277a6)" style="fill: #1f77b4"/>
   </g>
   <g id="patch_28">
    <path d="M 101.843714 273.312 
L 103.4533 273.312 
L 103.4533 184.284918 
L 101.843714 184.284918 
z
" clip-path="url(#pcf667277a6)" style="fill: #1f77b4"/>
   </g>
   <g id="patch_29">
    <path d="M 103.4533 273.312 
L 105.062885 273.312 
L 105.062885 171.361632 
L 103.4533 171.361632 
z
" clip-path="url(#pcf667277a6)" style="fill: #1f77b4"/>
   </g>
   <g id="patch_30">
    <path d="M 105.062885 273.312 
L 106.672471 273.312 
L 106.672471 167.77183 
L 105.062885 167.77183 
z
" clip-path="url(#pcf667277a6)" style="fill: #1f77b4"/>
   </g>
   <g id="patch_31">
    <path d="M 106.672471 273.312 
L 108.282056 273.312 
L 108.282056 179.977156 
L 106.672471 179.977156 
z
" clip-path="url(#pcf667277a6)" style="fill: #1f77b4"/>
   </g>
   <g id="patch_32">
    <path d="M 108.282056 273.312 
L 109.891642 273.312 
L 109.891642 177.105314 
L 108.282056 177.105314 
z
" clip-path="url(#pcf667277a6)" style="fill: #1f77b4"/>
   </g>
   <g id="patch_33">
    <path d="M 109.891642 273.312 
L 111.501227 273.312 
L 111.501227 161.310187 
L 109.891642 161.310187 
z
" clip-path="url(#pcf667277a6)" style="fill: #1f77b4"/>
   </g>
   <g id="patch_34">
    <path d="M 111.501227 273.312 
L 113.110812 273.312 
L 113.110812 173.515513 
L 111.501227 173.515513 
z
" clip-path="url(#pcf667277a6)" style="fill: #1f77b4"/>
   </g>
   <g id="patch_35">
    <path d="M 113.110812 273.312 
L 114.720398 273.312 
L 114.720398 167.77183 
L 113.110812 167.77183 
z
" clip-path="url(#pcf667277a6)" style="fill: #1f77b4"/>
   </g>
   <g id="patch_36">
    <path d="M 114.720398 273.312 
L 116.329983 273.312 
L 116.329983 159.874266 
L 114.720398 159.874266 
z
" clip-path="url(#pcf667277a6)" style="fill: #1f77b4"/>
   </g>
   <g id="patch_37">
    <path d="M 116.329983 273.312 
L 117.939569 273.312 
L 117.939569 149.822822 
L 116.329983 149.822822 
z
" clip-path="url(#pcf667277a6)" style="fill: #1f77b4"/>
   </g>
   <g id="patch_38">
    <path d="M 117.939569 273.312 
L 119.549154 273.312 
L 119.549154 146.23302 
L 117.939569 146.23302 
z
" clip-path="url(#pcf667277a6)" style="fill: #1f77b4"/>
   </g>
   <g id="patch_39">
    <path d="M 119.549154 273.312 
L 121.15874 273.312 
L 121.15874 160.592227 
L 119.549154 160.592227 
z
" clip-path="url(#pcf667277a6)" style="fill: #1f77b4"/>
   </g>
   <g id="patch_40">
    <path d="M 121.15874 273.312 
L 122.768325 273.312 
L 122.768325 158.438346 
L 121.15874 158.438346 
z
" clip-path="url(#pcf667277a6)" style="fill: #1f77b4"/>
   </g>
   <g id="patch_41">
    <path d="M 122.768325 273.312 
L 124.377911 273.312 
L 124.377911 144.797099 
L 122.768325 144.797099 
z
" clip-path="url(#pcf667277a6)" style="fill: #1f77b4"/>
   </g>
   <g id="patch_42">
    <path d="M 124.377911 273.312 
L 125.987496 273.312 
L 125.987496 146.95098 
L 124.377911 146.95098 
z
" clip-path="url(#pcf667277a6)" style="fill: #1f77b4"/>
   </g>
   <g id="patch_43">
    <path d="M 125.987496 273.312 
L 127.597081 273.312 
L 127.597081 138.335456 
L 125.987496 138.335456 
z
" clip-path="url(#pcf667277a6)" style="fill: #1f77b4"/>
   </g>
   <g id="patch_44">
    <path d="M 127.597081 273.312 
L 129.206667 273.312 
L 129.206667 148.386901 
L 127.597081 148.386901 
z
" clip-path="url(#pcf667277a6)" style="fill: #1f77b4"/>
   </g>
   <g id="patch_45">
    <path d="M 129.206667 273.312 
L 130.816252 273.312 
L 130.816252 154.848544 
L 129.206667 154.848544 
z
" clip-path="url(#pcf667277a6)" style="fill: #1f77b4"/>
   </g>
   <g id="patch_46">
    <path d="M 130.816252 273.312 
L 132.425838 273.312 
L 132.425838 131.155853 
L 130.816252 131.155853 
z
" clip-path="url(#pcf667277a6)" style="fill: #1f77b4"/>
   </g>
   <g id="patch_47">
    <path d="M 132.425838 273.312 
L 134.035423 273.312 
L 134.035423 139.771377 
L 132.425838 139.771377 
z
" clip-path="url(#pcf667277a6)" style="fill: #1f77b4"/>
   </g>
   <g id="patch_48">
    <path d="M 134.035423 273.312 
L 135.645009 273.312 
L 135.645009 117.514606 
L 134.035423 117.514606 
z
" clip-path="url(#pcf667277a6)" style="fill: #1f77b4"/>
   </g>
   <g id="patch_49">
    <path d="M 135.645009 273.312 
L 137.254594 273.312 
L 137.254594 126.13013 
L 135.645009 126.13013 
z
" clip-path="url(#pcf667277a6)" style="fill: #1f77b4"/>
   </g>
   <g id="patch_50">
    <path d="M 137.254594 273.312 
L 138.864179 273.312 
L 138.864179 136.899535 
L 137.254594 136.899535 
z
" clip-path="url(#pcf667277a6)" style="fill: #1f77b4"/>
   </g>
   <g id="patch_51">
    <path d="M 138.864179 273.312 
L 140.473765 273.312 
L 140.473765 115.360725 
L 138.864179 115.360725 
z
" clip-path="url(#pcf667277a6)" style="fill: #1f77b4"/>
   </g>
   <g id="patch_52">
    <path d="M 140.473765 273.312 
L 142.08335 273.312 
L 142.08335 121.822368 
L 140.473765 121.822368 
z
" clip-path="url(#pcf667277a6)" style="fill: #1f77b4"/>
   </g>
   <g id="patch_53">
    <path d="M 142.08335 273.312 
L 143.692936 273.312 
L 143.692936 114.642765 
L 142.08335 114.642765 
z
" clip-path="url(#pcf667277a6)" style="fill: #1f77b4"/>
   </g>
   <g id="patch_54">
    <path d="M 143.692936 273.312 
L 145.302521 273.312 
L 145.302521 95.975796 
L 143.692936 95.975796 
z
" clip-path="url(#pcf667277a6)" style="fill: #1f77b4"/>
   </g>
   <g id="patch_55">
    <path d="M 145.302521 273.312 
L 146.912107 273.312 
L 146.912107 104.59132 
L 145.302521 104.59132 
z
" clip-path="url(#pcf667277a6)" style="fill: #1f77b4"/>
   </g>
   <g id="patch_56">
    <path d="M 146.912107 273.312 
L 148.521692 273.312 
L 148.521692 101.001518 
L 146.912107 101.001518 
z
" clip-path="url(#pcf667277a6)" style="fill: #1f77b4"/>
   </g>
   <g id="patch_57">
    <path d="M 148.521692 273.312 
L 150.131278 273.312 
L 150.131278 103.87336 
L 148.521692 103.87336 
z
" clip-path="url(#pcf667277a6)" style="fill: #1f77b4"/>
   </g>
   <g id="patch_58">
    <path d="M 150.131278 273.312 
L 151.740863 273.312 
L 151.740863 95.257836 
L 150.131278 95.257836 
z
" clip-path="url(#pcf667277a6)" style="fill: #1f77b4"/>
   </g>
   <g id="patch_59">
    <path d="M 151.740863 273.312 
L 153.350448 273.312 
L 153.350448 113.206844 
L 151.740863 113.206844 
z
" clip-path="url(#pcf667277a6)" style="fill: #1f77b4"/>
   </g>
   <g id="patch_60">
    <path d="M 153.350448 273.312 
L 154.960034 273.312 
L 154.960034 90.232113 
L 153.350448 90.232113 
z
" clip-path="url(#pcf667277a6)" style="fill: #1f77b4"/>
   </g>
   <g id="patch_61">
    <path d="M 154.960034 273.312 
L 156.569619 273.312 
L 156.569619 82.33455 
L 154.960034 82.33455 
z
" clip-path="url(#pcf667277a6)" style="fill: #1f77b4"/>
   </g>
   <g id="patch_62">
    <path d="M 156.569619 273.312 
L 158.179205 273.312 
L 158.179205 93.821915 
L 156.569619 93.821915 
z
" clip-path="url(#pcf667277a6)" style="fill: #1f77b4"/>
   </g>
   <g id="patch_63">
    <path d="M 158.179205 273.312 
L 159.78879 273.312 
L 159.78879 99.565598 
L 158.179205 99.565598 
z
" clip-path="url(#pcf667277a6)" style="fill: #1f77b4"/>
   </g>
   <g id="patch_64">
    <path d="M 159.78879 273.312 
L 161.398376 273.312 
L 161.398376 69.411263 
L 159.78879 69.411263 
z
" clip-path="url(#pcf667277a6)" style="fill: #1f77b4"/>
   </g>
   <g id="patch_65">
    <path d="M 161.398376 273.312 
L 163.007961 273.312 
L 163.007961 92.385994 
L 161.398376 92.385994 
z
" clip-path="url(#pcf667277a6)" style="fill: #1f77b4"/>
   </g>
   <g id="patch_66">
    <path d="M 163.007961 273.312 
L 164.617546 273.312 
L 164.617546 113.206844 
L 163.007961 113.206844 
z
" clip-path="url(#pcf667277a6)" style="fill: #1f77b4"/>
   </g>
   <g id="patch_67">
    <path d="M 164.617546 273.312 
L 166.227132 273.312 
L 166.227132 88.796193 
L 164.617546 88.796193 
z
" clip-path="url(#pcf667277a6)" style="fill: #1f77b4"/>
   </g>
   <g id="patch_68">
    <path d="M 166.227132 273.312 
L 167.836717 273.312 
L 167.836717 90.950074 
L 166.227132 90.950074 
z
" clip-path="url(#pcf667277a6)" style="fill: #1f77b4"/>
   </g>
   <g id="patch_69">
    <path d="M 167.836717 273.312 
L 169.446303 273.312 
L 169.446303 100.283558 
L 167.836717 100.283558 
z
" clip-path="url(#pcf667277a6)" style="fill: #1f77b4"/>
   </g>
   <g id="patch_70">
    <path d="M 169.446303 273.312 
L 171.055888 273.312 
L 171.055888 71.565144 
L 169.446303 71.565144 
z
" clip-path="url(#pcf667277a6)" style="fill: #1f77b4"/>
   </g>
   <g id="patch_71">
    <path d="M 171.055888 273.312 
L 172.665474 273.312 
L 172.665474 77.308827 
L 171.055888 77.308827 
z
" clip-path="url(#pcf667277a6)" style="fill: #1f77b4"/>
   </g>
   <g id="patch_72">
    <path d="M 172.665474 273.312 
L 174.275059 273.312 
L 174.275059 82.33455 
L 172.665474 82.33455 
z
" clip-path="url(#pcf667277a6)" style="fill: #1f77b4"/>
   </g>
   <g id="patch_73">
    <path d="M 174.275059 273.312 
L 175.884645 273.312 
L 175.884645 63.667581 
L 174.275059 63.667581 
z
" clip-path="url(#pcf667277a6)" style="fill: #1f77b4"/>
   </g>
   <g id="patch_74">
    <path d="M 175.884645 273.312 
L 177.49423 273.312 
L 177.49423 60.795739 
L 175.884645 60.795739 
z
" clip-path="url(#pcf667277a6)" style="fill: #1f77b4"/>
   </g>
   <g id="patch_75">
    <path d="M 177.49423 273.312 
L 179.103815 273.312 
L 179.103815 74.436986 
L 177.49423 74.436986 
z
" clip-path="url(#pcf667277a6)" style="fill: #1f77b4"/>
   </g>
   <g id="patch_76">
    <path d="M 179.103815 273.312 
L 180.713401 273.312 
L 180.713401 67.257382 
L 179.103815 67.257382 
z
" clip-path="url(#pcf667277a6)" style="fill: #1f77b4"/>
   </g>
   <g id="patch_77">
    <path d="M 180.713401 273.312 
L 182.322986 273.312 
L 182.322986 62.94962 
L 180.713401 62.94962 
z
" clip-path="url(#pcf667277a6)" style="fill: #1f77b4"/>
   </g>
   <g id="patch_78">
    <path d="M 182.322986 273.312 
L 183.932572 273.312 
L 183.932572 73.719025 
L 182.322986 73.719025 
z
" clip-path="url(#pcf667277a6)" style="fill: #1f77b4"/>
   </g>
   <g id="patch_79">
    <path d="M 183.932572 273.312 
L 185.542157 273.312 
L 185.542157 53.616136 
L 183.932572 53.616136 
z
" clip-path="url(#pcf667277a6)" style="fill: #1f77b4"/>
   </g>
   <g id="patch_80">
    <path d="M 185.542157 273.312 
L 187.151743 273.312 
L 187.151743 55.770017 
L 185.542157 55.770017 
z
" clip-path="url(#pcf667277a6)" style="fill: #1f77b4"/>
   </g>
   <g id="patch_81">
    <path d="M 187.151743 273.312 
L 188.761328 273.312 
L 188.761328 57.205938 
L 187.151743 57.205938 
z
" clip-path="url(#pcf667277a6)" style="fill: #1f77b4"/>
   </g>
   <g id="patch_82">
    <path d="M 188.761328 273.312 
L 190.370914 273.312 
L 190.370914 58.641858 
L 188.761328 58.641858 
z
" clip-path="url(#pcf667277a6)" style="fill: #1f77b4"/>
   </g>
   <g id="patch_83">
    <path d="M 190.370914 273.312 
L 191.980499 273.312 
L 191.980499 62.94962 
L 190.370914 62.94962 
z
" clip-path="url(#pcf667277a6)" style="fill: #1f77b4"/>
   </g>
   <g id="patch_84">
    <path d="M 191.980499 273.312 
L 193.590084 273.312 
L 193.590084 60.795739 
L 191.980499 60.795739 
z
" clip-path="url(#pcf667277a6)" style="fill: #1f77b4"/>
   </g>
   <g id="patch_85">
    <path d="M 193.590084 273.312 
L 195.19967 273.312 
L 195.19967 68.693303 
L 193.590084 68.693303 
z
" clip-path="url(#pcf667277a6)" style="fill: #1f77b4"/>
   </g>
   <g id="patch_86">
    <path d="M 195.19967 273.312 
L 196.809255 273.312 
L 196.809255 67.257382 
L 195.19967 67.257382 
z
" clip-path="url(#pcf667277a6)" style="fill: #1f77b4"/>
   </g>
   <g id="patch_87">
    <path d="M 196.809255 273.312 
L 198.418841 273.312 
L 198.418841 50.744295 
L 196.809255 50.744295 
z
" clip-path="url(#pcf667277a6)" style="fill: #1f77b4"/>
   </g>
   <g id="patch_88">
    <path d="M 198.418841 273.312 
L 200.028426 273.312 
L 200.028426 52.180215 
L 198.418841 52.180215 
z
" clip-path="url(#pcf667277a6)" style="fill: #1f77b4"/>
   </g>
   <g id="patch_89">
    <path d="M 200.028426 273.312 
L 201.638012 273.312 
L 201.638012 38.538969 
L 200.028426 38.538969 
z
" clip-path="url(#pcf667277a6)" style="fill: #1f77b4"/>
   </g>
   <g id="patch_90">
    <path d="M 201.638012 273.312 
L 203.247597 273.312 
L 203.247597 46.436533 
L 201.638012 46.436533 
z
" clip-path="url(#pcf667277a6)" style="fill: #1f77b4"/>
   </g>
   <g id="patch_91">
    <path d="M 203.247597 273.312 
L 204.857182 273.312 
L 204.857182 51.462255 
L 203.247597 51.462255 
z
" clip-path="url(#pcf667277a6)" style="fill: #1f77b4"/>
   </g>
   <g id="patch_92">
    <path d="M 204.857182 273.312 
L 206.466768 273.312 
L 206.466768 33.513246 
L 204.857182 33.513246 
z
" clip-path="url(#pcf667277a6)" style="fill: #1f77b4"/>
   </g>
   <g id="patch_93">
    <path d="M 206.466768 273.312 
L 208.076353 273.312 
L 208.076353 47.872453 
L 206.466768 47.872453 
z
" clip-path="url(#pcf667277a6)" style="fill: #1f77b4"/>
   </g>
   <g id="patch_94">
    <path d="M 208.076353 273.312 
L 209.685939 273.312 
L 209.685939 76.590867 
L 208.076353 76.590867 
z
" clip-path="url(#pcf667277a6)" style="fill: #1f77b4"/>
   </g>
   <g id="patch_95">
    <path d="M 209.685939 273.312 
L 211.295524 273.312 
L 211.295524 34.949167 
L 209.685939 34.949167 
z
" clip-path="url(#pcf667277a6)" style="fill: #1f77b4"/>
   </g>
   <g id="patch_96">
    <path d="M 211.295524 273.312 
L 212.90511 273.312 
L 212.90511 60.077779 
L 211.295524 60.077779 
z
" clip-path="url(#pcf667277a6)" style="fill: #1f77b4"/>
   </g>
   <g id="patch_97">
    <path d="M 212.90511 273.312 
L 214.514695 273.312 
L 214.514695 39.256929 
L 212.90511 39.256929 
z
" clip-path="url(#pcf667277a6)" style="fill: #1f77b4"/>
   </g>
   <g id="patch_98">
    <path d="M 214.514695 273.312 
L 216.124281 273.312 
L 216.124281 52.180215 
L 214.514695 52.180215 
z
" clip-path="url(#pcf667277a6)" style="fill: #1f77b4"/>
   </g>
   <g id="patch_99">
    <path d="M 216.124281 273.312 
L 217.733866 273.312 
L 217.733866 53.616136 
L 216.124281 53.616136 
z
" clip-path="url(#pcf667277a6)" style="fill: #1f77b4"/>
   </g>
   <g id="patch_100">
    <path d="M 217.733866 273.312 
L 219.343451 273.312 
L 219.343451 59.359819 
L 217.733866 59.359819 
z
" clip-path="url(#pcf667277a6)" style="fill: #1f77b4"/>
   </g>
   <g id="patch_101">
    <path d="M 219.343451 273.312 
L 220.953037 273.312 
L 220.953037 19.872 
L 219.343451 19.872 
z
" clip-path="url(#pcf667277a6)" style="fill: #1f77b4"/>
   </g>
   <g id="patch_102">
    <path d="M 220.953037 273.312 
L 222.562622 273.312 
L 222.562622 50.026334 
L 220.953037 50.026334 
z
" clip-path="url(#pcf667277a6)" style="fill: #1f77b4"/>
   </g>
   <g id="patch_103">
    <path d="M 222.562622 273.312 
L 224.172208 273.312 
L 224.172208 38.538969 
L 222.562622 38.538969 
z
" clip-path="url(#pcf667277a6)" style="fill: #1f77b4"/>
   </g>
   <g id="patch_104">
    <path d="M 224.172208 273.312 
L 225.781793 273.312 
L 225.781793 57.205938 
L 224.172208 57.205938 
z
" clip-path="url(#pcf667277a6)" style="fill: #1f77b4"/>
   </g>
   <g id="patch_105">
    <path d="M 225.781793 273.312 
L 227.391379 273.312 
L 227.391379 60.795739 
L 225.781793 60.795739 
z
" clip-path="url(#pcf667277a6)" style="fill: #1f77b4"/>
   </g>
   <g id="patch_106">
    <path d="M 227.391379 273.312 
L 229.000964 273.312 
L 229.000964 63.667581 
L 227.391379 63.667581 
z
" clip-path="url(#pcf667277a6)" style="fill: #1f77b4"/>
   </g>
   <g id="patch_107">
    <path d="M 229.000964 273.312 
L 230.610549 273.312 
L 230.610549 61.5137 
L 229.000964 61.5137 
z
" clip-path="url(#pcf667277a6)" style="fill: #1f77b4"/>
   </g>
   <g id="patch_108">
    <path d="M 230.610549 273.312 
L 232.220135 273.312 
L 232.220135 56.487977 
L 230.610549 56.487977 
z
" clip-path="url(#pcf667277a6)" style="fill: #1f77b4"/>
   </g>
   <g id="patch_109">
    <path d="M 232.220135 273.312 
L 233.82972 273.312 
L 233.82972 66.539422 
L 232.220135 66.539422 
z
" clip-path="url(#pcf667277a6)" style="fill: #1f77b4"/>
   </g>
   <g id="patch_110">
    <path d="M 233.82972 273.312 
L 235.439306 273.312 
L 235.439306 57.205938 
L 233.82972 57.205938 
z
" clip-path="url(#pcf667277a6)" style="fill: #1f77b4"/>
   </g>
   <g id="patch_111">
    <path d="M 235.439306 273.312 
L 237.048891 273.312 
L 237.048891 46.436533 
L 235.439306 46.436533 
z
" clip-path="url(#pcf667277a6)" style="fill: #1f77b4"/>
   </g>
   <g id="patch_112">
    <path d="M 237.048891 273.312 
L 238.658477 273.312 
L 238.658477 62.94962 
L 237.048891 62.94962 
z
" clip-path="url(#pcf667277a6)" style="fill: #1f77b4"/>
   </g>
   <g id="patch_113">
    <path d="M 238.658477 273.312 
L 240.268062 273.312 
L 240.268062 62.94962 
L 238.658477 62.94962 
z
" clip-path="url(#pcf667277a6)" style="fill: #1f77b4"/>
   </g>
   <g id="patch_114">
    <path d="M 240.268062 273.312 
L 241.877648 273.312 
L 241.877648 50.026334 
L 240.268062 50.026334 
z
" clip-path="url(#pcf667277a6)" style="fill: #1f77b4"/>
   </g>
   <g id="patch_115">
    <path d="M 241.877648 273.312 
L 243.487233 273.312 
L 243.487233 70.847184 
L 241.877648 70.847184 
z
" clip-path="url(#pcf667277a6)" style="fill: #1f77b4"/>
   </g>
   <g id="patch_116">
    <path d="M 243.487233 273.312 
L 245.096818 273.312 
L 245.096818 47.154493 
L 243.487233 47.154493 
z
" clip-path="url(#pcf667277a6)" style="fill: #1f77b4"/>
   </g>
   <g id="patch_117">
    <path d="M 245.096818 273.312 
L 246.706404 273.312 
L 246.706404 47.872453 
L 245.096818 47.872453 
z
" clip-path="url(#pcf667277a6)" style="fill: #1f77b4"/>
   </g>
   <g id="patch_118">
    <path d="M 246.706404 273.312 
L 248.315989 273.312 
L 248.315989 61.5137 
L 246.706404 61.5137 
z
" clip-path="url(#pcf667277a6)" style="fill: #1f77b4"/>
   </g>
   <g id="patch_119">
    <path d="M 248.315989 273.312 
L 249.925575 273.312 
L 249.925575 56.487977 
L 248.315989 56.487977 
z
" clip-path="url(#pcf667277a6)" style="fill: #1f77b4"/>
   </g>
   <g id="patch_120">
    <path d="M 249.925575 273.312 
L 251.53516 273.312 
L 251.53516 48.590414 
L 249.925575 48.590414 
z
" clip-path="url(#pcf667277a6)" style="fill: #1f77b4"/>
   </g>
   <g id="patch_121">
    <path d="M 251.53516 273.312 
L 253.144746 273.312 
L 253.144746 57.205938 
L 251.53516 57.205938 
z
" clip-path="url(#pcf667277a6)" style="fill: #1f77b4"/>
   </g>
   <g id="patch_122">
    <path d="M 253.144746 273.312 
L 254.754331 273.312 
L 254.754331 75.872907 
L 253.144746 75.872907 
z
" clip-path="url(#pcf667277a6)" style="fill: #1f77b4"/>
   </g>
   <g id="patch_123">
    <path d="M 254.754331 273.312 
L 256.363917 273.312 
L 256.363917 79.462708 
L 254.754331 79.462708 
z
" clip-path="url(#pcf667277a6)" style="fill: #1f77b4"/>
   </g>
   <g id="patch_124">
    <path d="M 256.363917 273.312 
L 257.973502 273.312 
L 257.973502 38.538969 
L 256.363917 38.538969 
z
" clip-path="url(#pcf667277a6)" style="fill: #1f77b4"/>
   </g>
   <g id="patch_125">
    <path d="M 257.973502 273.312 
L 259.583087 273.312 
L 259.583087 62.94962 
L 257.973502 62.94962 
z
" clip-path="url(#pcf667277a6)" style="fill: #1f77b4"/>
   </g>
   <g id="patch_126">
    <path d="M 259.583087 273.312 
L 261.192673 273.312 
L 261.192673 60.077779 
L 259.583087 60.077779 
z
" clip-path="url(#pcf667277a6)" style="fill: #1f77b4"/>
   </g>
   <g id="patch_127">
    <path d="M 261.192673 273.312 
L 262.802258 273.312 
L 262.802258 60.795739 
L 261.192673 60.795739 
z
" clip-path="url(#pcf667277a6)" style="fill: #1f77b4"/>
   </g>
   <g id="patch_128">
    <path d="M 262.802258 273.312 
L 264.411844 273.312 
L 264.411844 85.206391 
L 262.802258 85.206391 
z
" clip-path="url(#pcf667277a6)" style="fill: #1f77b4"/>
   </g>
   <g id="patch_129">
    <path d="M 264.411844 273.312 
L 266.021429 273.312 
L 266.021429 70.847184 
L 264.411844 70.847184 
z
" clip-path="url(#pcf667277a6)" style="fill: #1f77b4"/>
   </g>
   <g id="patch_130">
    <path d="M 266.021429 273.312 
L 267.631015 273.312 
L 267.631015 61.5137 
L 266.021429 61.5137 
z
" clip-path="url(#pcf667277a6)" style="fill: #1f77b4"/>
   </g>
   <g id="patch_131">
    <path d="M 267.631015 273.312 
L 269.2406 273.312 
L 269.2406 65.821462 
L 267.631015 65.821462 
z
" clip-path="url(#pcf667277a6)" style="fill: #1f77b4"/>
   </g>
   <g id="patch_132">
    <path d="M 269.2406 273.312 
L 270.850185 273.312 
L 270.850185 70.847184 
L 269.2406 70.847184 
z
" clip-path="url(#pcf667277a6)" style="fill: #1f77b4"/>
   </g>
   <g id="patch_133">
    <path d="M 270.850185 273.312 
L 272.459771 273.312 
L 272.459771 66.539422 
L 270.850185 66.539422 
z
" clip-path="url(#pcf667277a6)" style="fill: #1f77b4"/>
   </g>
   <g id="patch_134">
    <path d="M 272.459771 273.312 
L 274.069356 273.312 
L 274.069356 83.77047 
L 272.459771 83.77047 
z
" clip-path="url(#pcf667277a6)" style="fill: #1f77b4"/>
   </g>
   <g id="patch_135">
    <path d="M 274.069356 273.312 
L 275.678942 273.312 
L 275.678942 88.078232 
L 274.069356 88.078232 
z
" clip-path="url(#pcf667277a6)" style="fill: #1f77b4"/>
   </g>
   <g id="patch_136">
    <path d="M 275.678942 273.312 
L 277.288527 273.312 
L 277.288527 60.077779 
L 275.678942 60.077779 
z
" clip-path="url(#pcf667277a6)" style="fill: #1f77b4"/>
   </g>
   <g id="patch_137">
    <path d="M 277.288527 273.312 
L 278.898113 273.312 
L 278.898113 85.924351 
L 277.288527 85.924351 
z
" clip-path="url(#pcf667277a6)" style="fill: #1f77b4"/>
   </g>
   <g id="patch_138">
    <path d="M 278.898113 273.312 
L 280.507698 273.312 
L 280.507698 73.719025 
L 278.898113 73.719025 
z
" clip-path="url(#pcf667277a6)" style="fill: #1f77b4"/>
   </g>
   <g id="patch_139">
    <path d="M 280.507698 273.312 
L 282.117284 273.312 
L 282.117284 73.719025 
L 280.507698 73.719025 
z
" clip-path="url(#pcf667277a6)" style="fill: #1f77b4"/>
   </g>
   <g id="patch_140">
    <path d="M 282.117284 273.312 
L 283.726869 273.312 
L 283.726869 98.129677 
L 282.117284 98.129677 
z
" clip-path="url(#pcf667277a6)" style="fill: #1f77b4"/>
   </g>
   <g id="patch_141">
    <path d="M 283.726869 273.312 
L 285.336454 273.312 
L 285.336454 76.590867 
L 283.726869 76.590867 
z
" clip-path="url(#pcf667277a6)" style="fill: #1f77b4"/>
   </g>
   <g id="patch_142">
    <path d="M 285.336454 273.312 
L 286.94604 273.312 
L 286.94604 88.078232 
L 285.336454 88.078232 
z
" clip-path="url(#pcf667277a6)" style="fill: #1f77b4"/>
   </g>
   <g id="patch_143">
    <path d="M 286.94604 273.312 
L 288.555625 273.312 
L 288.555625 85.924351 
L 286.94604 85.924351 
z
" clip-path="url(#pcf667277a6)" style="fill: #1f77b4"/>
   </g>
   <g id="patch_144">
    <path d="M 288.555625 273.312 
L 290.165211 273.312 
L 290.165211 89.514153 
L 288.555625 89.514153 
z
" clip-path="url(#pcf667277a6)" style="fill: #1f77b4"/>
   </g>
   <g id="patch_145">
    <path d="M 290.165211 273.312 
L 291.774796 273.312 
L 291.774796 101.719479 
L 290.165211 101.719479 
z
" clip-path="url(#pcf667277a6)" style="fill: #1f77b4"/>
   </g>
   <g id="patch_146">
    <path d="M 291.774796 273.312 
L 293.384382 273.312 
L 293.384382 116.796646 
L 291.774796 116.796646 
z
" clip-path="url(#pcf667277a6)" style="fill: #1f77b4"/>
   </g>
   <g id="patch_147">
    <path d="M 293.384382 273.312 
L 294.993967 273.312 
L 294.993967 91.668034 
L 293.384382 91.668034 
z
" clip-path="url(#pcf667277a6)" style="fill: #1f77b4"/>
   </g>
   <g id="patch_148">
    <path d="M 294.993967 273.312 
L 296.603552 273.312 
L 296.603552 131.873813 
L 294.993967 131.873813 
z
" clip-path="url(#pcf667277a6)" style="fill: #1f77b4"/>
   </g>
   <g id="patch_149">
    <path d="M 296.603552 273.312 
L 298.213138 273.312 
L 298.213138 85.924351 
L 296.603552 85.924351 
z
" clip-path="url(#pcf667277a6)" style="fill: #1f77b4"/>
   </g>
   <g id="patch_150">
    <path d="M 298.213138 273.312 
L 299.822723 273.312 
L 299.822723 121.104408 
L 298.213138 121.104408 
z
" clip-path="url(#pcf667277a6)" style="fill: #1f77b4"/>
   </g>
   <g id="patch_151">
    <path d="M 299.822723 273.312 
L 301.432309 273.312 
L 301.432309 105.30928 
L 299.822723 105.30928 
z
" clip-path="url(#pcf667277a6)" style="fill: #1f77b4"/>
   </g>
   <g id="patch_152">
    <path d="M 301.432309 273.312 
L 303.041894 273.312 
L 303.041894 109.617042 
L 301.432309 109.617042 
z
" clip-path="url(#pcf667277a6)" style="fill: #1f77b4"/>
   </g>
   <g id="patch_153">
    <path d="M 303.041894 273.312 
L 304.65148 273.312 
L 304.65148 119.668487 
L 303.041894 119.668487 
z
" clip-path="url(#pcf667277a6)" style="fill: #1f77b4"/>
   </g>
   <g id="patch_154">
    <path d="M 304.65148 273.312 
L 306.261065 273.312 
L 306.261065 125.41217 
L 304.65148 125.41217 
z
" clip-path="url(#pcf667277a6)" style="fill: #1f77b4"/>
   </g>
   <g id="patch_155">
    <path d="M 306.261065 273.312 
L 307.870651 273.312 
L 307.870651 104.59132 
L 306.261065 104.59132 
z
" clip-path="url(#pcf667277a6)" style="fill: #1f77b4"/>
   </g>
   <g id="patch_156">
    <path d="M 307.870651 273.312 
L 309.480236 273.312 
L 309.480236 110.335003 
L 307.870651 110.335003 
z
" clip-path="url(#pcf667277a6)" style="fill: #1f77b4"/>
   </g>
   <g id="patch_157">
    <path d="M 309.480236 273.312 
L 311.089821 273.312 
L 311.089821 114.642765 
L 309.480236 114.642765 
z
" clip-path="url(#pcf667277a6)" style="fill: #1f77b4"/>
   </g>
   <g id="patch_158">
    <path d="M 311.089821 273.312 
L 312.699407 273.312 
L 312.699407 118.950527 
L 311.089821 118.950527 
z
" clip-path="url(#pcf667277a6)" style="fill: #1f77b4"/>
   </g>
   <g id="patch_159">
    <path d="M 312.699407 273.312 
L 314.308992 273.312 
L 314.308992 126.13013 
L 312.699407 126.13013 
z
" clip-path="url(#pcf667277a6)" style="fill: #1f77b4"/>
   </g>
   <g id="patch_160">
    <path d="M 314.308992 273.312 
L 315.918578 273.312 
L 315.918578 134.745654 
L 314.308992 134.745654 
z
" clip-path="url(#pcf667277a6)" style="fill: #1f77b4"/>
   </g>
   <g id="patch_161">
    <path d="M 315.918578 273.312 
L 317.528163 273.312 
L 317.528163 138.335456 
L 315.918578 138.335456 
z
" clip-path="url(#pcf667277a6)" style="fill: #1f77b4"/>
   </g>
   <g id="patch_162">
    <path d="M 317.528163 273.312 
L 319.137749 273.312 
L 319.137749 141.207297 
L 317.528163 141.207297 
z
" clip-path="url(#pcf667277a6)" style="fill: #1f77b4"/>
   </g>
   <g id="patch_163">
    <path d="M 319.137749 273.312 
L 320.747334 273.312 
L 320.747334 160.592227 
L 319.137749 160.592227 
z
" clip-path="url(#pcf667277a6)" style="fill: #1f77b4"/>
   </g>
   <g id="patch_164">
    <path d="M 320.747334 273.312 
L 322.35692 273.312 
L 322.35692 152.694663 
L 320.747334 152.694663 
z
" clip-path="url(#pcf667277a6)" style="fill: #1f77b4"/>
   </g>
   <g id="patch_165">
    <path d="M 322.35692 273.312 
L 323.966505 273.312 
L 323.966505 149.104861 
L 322.35692 149.104861 
z
" clip-path="url(#pcf667277a6)" style="fill: #1f77b4"/>
   </g>
   <g id="patch_166">
    <path d="M 323.966505 273.312 
L 325.57609 273.312 
L 325.57609 144.797099 
L 323.966505 144.797099 
z
" clip-path="url(#pcf667277a6)" style="fill: #1f77b4"/>
   </g>
   <g id="patch_167">
    <path d="M 325.57609 273.312 
L 327.185676 273.312 
L 327.185676 156.284465 
L 325.57609 156.284465 
z
" clip-path="url(#pcf667277a6)" style="fill: #1f77b4"/>
   </g>
   <g id="patch_168">
    <path d="M 327.185676 273.312 
L 328.795261 273.312 
L 328.795261 156.284465 
L 327.185676 156.284465 
z
" clip-path="url(#pcf667277a6)" style="fill: #1f77b4"/>
   </g>
   <g id="patch_169">
    <path d="M 328.795261 273.312 
L 330.404847 273.312 
L 330.404847 154.130584 
L 328.795261 154.130584 
z
" clip-path="url(#pcf667277a6)" style="fill: #1f77b4"/>
   </g>
   <g id="patch_170">
    <path d="M 330.404847 273.312 
L 332.014432 273.312 
L 332.014432 160.592227 
L 330.404847 160.592227 
z
" clip-path="url(#pcf667277a6)" style="fill: #1f77b4"/>
   </g>
   <g id="patch_171">
    <path d="M 332.014432 273.312 
L 333.624018 273.312 
L 333.624018 171.361632 
L 332.014432 171.361632 
z
" clip-path="url(#pcf667277a6)" style="fill: #1f77b4"/>
   </g>
   <g id="patch_172">
    <path d="M 333.624018 273.312 
L 335.233603 273.312 
L 335.233603 167.05387 
L 333.624018 167.05387 
z
" clip-path="url(#pcf667277a6)" style="fill: #1f77b4"/>
   </g>
   <g id="patch_173">
    <path d="M 335.233603 273.312 
L 336.843188 273.312 
L 336.843188 182.131037 
L 335.233603 182.131037 
z
" clip-path="url(#pcf667277a6)" style="fill: #1f77b4"/>
   </g>
   <g id="patch_174">
    <path d="M 336.843188 273.312 
L 338.452774 273.312 
L 338.452774 175.669394 
L 336.843188 175.669394 
z
" clip-path="url(#pcf667277a6)" style="fill: #1f77b4"/>
   </g>
   <g id="patch_175">
    <path d="M 338.452774 273.312 
L 340.062359 273.312 
L 340.062359 176.387354 
L 338.452774 176.387354 
z
" clip-path="url(#pcf667277a6)" style="fill: #1f77b4"/>
   </g>
   <g id="patch_176">
    <path d="M 340.062359 273.312 
L 341.671945 273.312 
L 341.671945 187.87472 
L 340.062359 187.87472 
z
" clip-path="url(#pcf667277a6)" style="fill: #1f77b4"/>
   </g>
   <g id="patch_177">
    <path d="M 341.671945 273.312 
L 343.28153 273.312 
L 343.28153 177.105314 
L 341.671945 177.105314 
z
" clip-path="url(#pcf667277a6)" style="fill: #1f77b4"/>
   </g>
   <g id="patch_178">
    <path d="M 343.28153 273.312 
L 344.891116 273.312 
L 344.891116 182.848997 
L 343.28153 182.848997 
z
" clip-path="url(#pcf667277a6)" style="fill: #1f77b4"/>
   </g>
   <g id="patch_179">
    <path d="M 344.891116 273.312 
L 346.500701 273.312 
L 346.500701 196.490244 
L 344.891116 196.490244 
z
" clip-path="url(#pcf667277a6)" style="fill: #1f77b4"/>
   </g>
   <g id="patch_180">
    <path d="M 346.500701 273.312 
L 348.110287 273.312 
L 348.110287 182.848997 
L 346.500701 182.848997 
z
" clip-path="url(#pcf667277a6)" style="fill: #1f77b4"/>
   </g>
   <g id="patch_181">
    <path d="M 348.110287 273.312 
L 349.719872 273.312 
L 349.719872 201.515966 
L 348.110287 201.515966 
z
" clip-path="url(#pcf667277a6)" style="fill: #1f77b4"/>
   </g>
   <g id="patch_182">
    <path d="M 349.719872 273.312 
L 351.329457 273.312 
L 351.329457 211.567411 
L 349.719872 211.567411 
z
" clip-path="url(#pcf667277a6)" style="fill: #1f77b4"/>
   </g>
   <g id="patch_183">
    <path d="M 351.329457 273.312 
L 352.939043 273.312 
L 352.939043 199.362085 
L 351.329457 199.362085 
z
" clip-path="url(#pcf667277a6)" style="fill: #1f77b4"/>
   </g>
   <g id="patch_184">
    <path d="M 352.939043 273.312 
L 354.548628 273.312 
L 354.548628 195.772283 
L 352.939043 195.772283 
z
" clip-path="url(#pcf667277a6)" style="fill: #1f77b4"/>
   </g>
   <g id="patch_185">
    <path d="M 354.548628 273.312 
L 356.158214 273.312 
L 356.158214 205.823728 
L 354.548628 205.823728 
z
" clip-path="url(#pcf667277a6)" style="fill: #1f77b4"/>
   </g>
   <g id="patch_186">
    <path d="M 356.158214 273.312 
L 357.767799 273.312 
L 357.767799 204.387807 
L 356.158214 204.387807 
z
" clip-path="url(#pcf667277a6)" style="fill: #1f77b4"/>
   </g>
   <g id="patch_187">
    <path d="M 357.767799 273.312 
L 359.377385 273.312 
L 359.377385 220.900895 
L 357.767799 220.900895 
z
" clip-path="url(#pcf667277a6)" style="fill: #1f77b4"/>
   </g>
   <g id="patch_188">
    <path d="M 359.377385 273.312 
L 360.98697 273.312 
L 360.98697 217.311093 
L 359.377385 217.311093 
z
" clip-path="url(#pcf667277a6)" style="fill: #1f77b4"/>
   </g>
   <g id="patch_189">
    <path d="M 360.98697 273.312 
L 362.596555 273.312 
L 362.596555 220.182935 
L 360.98697 220.182935 
z
" clip-path="url(#pcf667277a6)" style="fill: #1f77b4"/>
   </g>
   <g id="patch_190">
    <path d="M 362.596555 273.312 
L 364.206141 273.312 
L 364.206141 227.362538 
L 362.596555 227.362538 
z
" clip-path="url(#pcf667277a6)" style="fill: #1f77b4"/>
   </g>
   <g id="patch_191">
    <path d="M 364.206141 273.312 
L 365.815726 273.312 
L 365.815726 220.182935 
L 364.206141 220.182935 
z
" clip-path="url(#pcf667277a6)" style="fill: #1f77b4"/>
   </g>
   <g id="patch_192">
    <path d="M 365.815726 273.312 
L 367.425312 273.312 
L 367.425312 233.824181 
L 365.815726 233.824181 
z
" clip-path="url(#pcf667277a6)" style="fill: #1f77b4"/>
   </g>
   <g id="patch_193">
    <path d="M 367.425312 273.312 
L 369.034897 273.312 
L 369.034897 238.131943 
L 367.425312 238.131943 
z
" clip-path="url(#pcf667277a6)" style="fill: #1f77b4"/>
   </g>
   <g id="patch_194">
    <path d="M 369.034897 273.312 
L 370.644483 273.312 
L 370.644483 231.6703 
L 369.034897 231.6703 
z
" clip-path="url(#pcf667277a6)" style="fill: #1f77b4"/>
   </g>
   <g id="patch_195">
    <path d="M 370.644483 273.312 
L 372.254068 273.312 
L 372.254068 240.285824 
L 370.644483 240.285824 
z
" clip-path="url(#pcf667277a6)" style="fill: #1f77b4"/>
   </g>
   <g id="patch_196">
    <path d="M 372.254068 273.312 
L 373.863654 273.312 
L 373.863654 251.77319 
L 372.254068 251.77319 
z
" clip-path="url(#pcf667277a6)" style="fill: #1f77b4"/>
   </g>
   <g id="patch_197">
    <path d="M 373.863654 273.312 
L 375.473239 273.312 
L 375.473239 242.439705 
L 373.863654 242.439705 
z
" clip-path="url(#pcf667277a6)" style="fill: #1f77b4"/>
   </g>
   <g id="patch_198">
    <path d="M 375.473239 273.312 
L 377.082824 273.312 
L 377.082824 257.516873 
L 375.473239 257.516873 
z
" clip-path="url(#pcf667277a6)" style="fill: #1f77b4"/>
   </g>
   <g id="patch_199">
    <path d="M 377.082824 273.312 
L 378.69241 273.312 
L 378.69241 252.49115 
L 377.082824 252.49115 
z
" clip-path="url(#pcf667277a6)" style="fill: #1f77b4"/>
   </g>
   <g id="patch_200">
    <path d="M 378.69241 273.312 
L 380.301995 273.312 
L 380.301995 263.260555 
L 378.69241 263.260555 
z
" clip-path="url(#pcf667277a6)" style="fill: #1f77b4"/>
   </g>
   <g id="patch_201">
    <path d="M 380.301995 273.312 
L 381.911581 273.312 
L 381.911581 267.568317 
L 380.301995 267.568317 
z
" clip-path="url(#pcf667277a6)" style="fill: #1f77b4"/>
   </g>
   <g id="patch_202">
    <path d="M 381.911581 273.312 
L 383.521166 273.312 
L 383.521166 268.286278 
L 381.911581 268.286278 
z
" clip-path="url(#pcf667277a6)" style="fill: #1f77b4"/>
   </g>
   <g id="matplotlib.axis_1">
    <g id="xtick_1">
     <g id="line2d_1">
      <defs>
       <path id="mc318513674" d="M 0 0 
L 0 3.5 
" style="stroke: #000000; stroke-width: 0.8"/>
      </defs>
      <g>
       <use xlink:href="#mc318513674" x="60.013977" y="273.312" style="stroke: #000000; stroke-width: 0.8"/>
      </g>
     </g>
     <g id="text_1">
      <!-- 0.0 -->
      <g transform="translate(52.062415 287.910437)scale(0.1 -0.1)">
       <defs>
        <path id="DejaVuSans-30" d="M 2034 4250 
Q 1547 4250 1301 3770 
Q 1056 3291 1056 2328 
Q 1056 1369 1301 889 
Q 1547 409 2034 409 
Q 2525 409 2770 889 
Q 3016 1369 3016 2328 
Q 3016 3291 2770 3770 
Q 2525 4250 2034 4250 
z
M 2034 4750 
Q 2819 4750 3233 4129 
Q 3647 3509 3647 2328 
Q 3647 1150 3233 529 
Q 2819 -91 2034 -91 
Q 1250 -91 836 529 
Q 422 1150 422 2328 
Q 422 3509 836 4129 
Q 1250 4750 2034 4750 
z
" transform="scale(0.015625)"/>
        <path id="DejaVuSans-2e" d="M 684 794 
L 1344 794 
L 1344 0 
L 684 0 
L 684 794 
z
" transform="scale(0.015625)"/>
       </defs>
       <use xlink:href="#DejaVuSans-30"/>
       <use xlink:href="#DejaVuSans-2e" x="63.623047"/>
       <use xlink:href="#DejaVuSans-30" x="95.410156"/>
      </g>
     </g>
    </g>
    <g id="xtick_2">
     <g id="line2d_2">
      <g>
       <use xlink:href="#mc318513674" x="101.350278" y="273.312" style="stroke: #000000; stroke-width: 0.8"/>
      </g>
     </g>
     <g id="text_2">
      <!-- 0.2 -->
      <g transform="translate(93.398715 287.910437)scale(0.1 -0.1)">
       <defs>
        <path id="DejaVuSans-32" d="M 1228 531 
L 3431 531 
L 3431 0 
L 469 0 
L 469 531 
Q 828 903 1448 1529 
Q 2069 2156 2228 2338 
Q 2531 2678 2651 2914 
Q 2772 3150 2772 3378 
Q 2772 3750 2511 3984 
Q 2250 4219 1831 4219 
Q 1534 4219 1204 4116 
Q 875 4013 500 3803 
L 500 4441 
Q 881 4594 1212 4672 
Q 1544 4750 1819 4750 
Q 2544 4750 2975 4387 
Q 3406 4025 3406 3419 
Q 3406 3131 3298 2873 
Q 3191 2616 2906 2266 
Q 2828 2175 2409 1742 
Q 1991 1309 1228 531 
z
" transform="scale(0.015625)"/>
       </defs>
       <use xlink:href="#DejaVuSans-30"/>
       <use xlink:href="#DejaVuSans-2e" x="63.623047"/>
       <use xlink:href="#DejaVuSans-32" x="95.410156"/>
      </g>
     </g>
    </g>
    <g id="xtick_3">
     <g id="line2d_3">
      <g>
       <use xlink:href="#mc318513674" x="142.686578" y="273.312" style="stroke: #000000; stroke-width: 0.8"/>
      </g>
     </g>
     <g id="text_3">
      <!-- 0.4 -->
      <g transform="translate(134.735016 287.910437)scale(0.1 -0.1)">
       <defs>
        <path id="DejaVuSans-34" d="M 2419 4116 
L 825 1625 
L 2419 1625 
L 2419 4116 
z
M 2253 4666 
L 3047 4666 
L 3047 1625 
L 3713 1625 
L 3713 1100 
L 3047 1100 
L 3047 0 
L 2419 0 
L 2419 1100 
L 313 1100 
L 313 1709 
L 2253 4666 
z
" transform="scale(0.015625)"/>
       </defs>
       <use xlink:href="#DejaVuSans-30"/>
       <use xlink:href="#DejaVuSans-2e" x="63.623047"/>
       <use xlink:href="#DejaVuSans-34" x="95.410156"/>
      </g>
     </g>
    </g>
    <g id="xtick_4">
     <g id="line2d_4">
      <g>
       <use xlink:href="#mc318513674" x="184.022879" y="273.312" style="stroke: #000000; stroke-width: 0.8"/>
      </g>
     </g>
     <g id="text_4">
      <!-- 0.6 -->
      <g transform="translate(176.071316 287.910437)scale(0.1 -0.1)">
       <defs>
        <path id="DejaVuSans-36" d="M 2113 2584 
Q 1688 2584 1439 2293 
Q 1191 2003 1191 1497 
Q 1191 994 1439 701 
Q 1688 409 2113 409 
Q 2538 409 2786 701 
Q 3034 994 3034 1497 
Q 3034 2003 2786 2293 
Q 2538 2584 2113 2584 
z
M 3366 4563 
L 3366 3988 
Q 3128 4100 2886 4159 
Q 2644 4219 2406 4219 
Q 1781 4219 1451 3797 
Q 1122 3375 1075 2522 
Q 1259 2794 1537 2939 
Q 1816 3084 2150 3084 
Q 2853 3084 3261 2657 
Q 3669 2231 3669 1497 
Q 3669 778 3244 343 
Q 2819 -91 2113 -91 
Q 1303 -91 875 529 
Q 447 1150 447 2328 
Q 447 3434 972 4092 
Q 1497 4750 2381 4750 
Q 2619 4750 2861 4703 
Q 3103 4656 3366 4563 
z
" transform="scale(0.015625)"/>
       </defs>
       <use xlink:href="#DejaVuSans-30"/>
       <use xlink:href="#DejaVuSans-2e" x="63.623047"/>
       <use xlink:href="#DejaVuSans-36" x="95.410156"/>
      </g>
     </g>
    </g>
    <g id="xtick_5">
     <g id="line2d_5">
      <g>
       <use xlink:href="#mc318513674" x="225.35918" y="273.312" style="stroke: #000000; stroke-width: 0.8"/>
      </g>
     </g>
     <g id="text_5">
      <!-- 0.8 -->
      <g transform="translate(217.407617 287.910437)scale(0.1 -0.1)">
       <defs>
        <path id="DejaVuSans-38" d="M 2034 2216 
Q 1584 2216 1326 1975 
Q 1069 1734 1069 1313 
Q 1069 891 1326 650 
Q 1584 409 2034 409 
Q 2484 409 2743 651 
Q 3003 894 3003 1313 
Q 3003 1734 2745 1975 
Q 2488 2216 2034 2216 
z
M 1403 2484 
Q 997 2584 770 2862 
Q 544 3141 544 3541 
Q 544 4100 942 4425 
Q 1341 4750 2034 4750 
Q 2731 4750 3128 4425 
Q 3525 4100 3525 3541 
Q 3525 3141 3298 2862 
Q 3072 2584 2669 2484 
Q 3125 2378 3379 2068 
Q 3634 1759 3634 1313 
Q 3634 634 3220 271 
Q 2806 -91 2034 -91 
Q 1263 -91 848 271 
Q 434 634 434 1313 
Q 434 1759 690 2068 
Q 947 2378 1403 2484 
z
M 1172 3481 
Q 1172 3119 1398 2916 
Q 1625 2713 2034 2713 
Q 2441 2713 2670 2916 
Q 2900 3119 2900 3481 
Q 2900 3844 2670 4047 
Q 2441 4250 2034 4250 
Q 1625 4250 1398 4047 
Q 1172 3844 1172 3481 
z
" transform="scale(0.015625)"/>
       </defs>
       <use xlink:href="#DejaVuSans-30"/>
       <use xlink:href="#DejaVuSans-2e" x="63.623047"/>
       <use xlink:href="#DejaVuSans-38" x="95.410156"/>
      </g>
     </g>
    </g>
    <g id="xtick_6">
     <g id="line2d_6">
      <g>
       <use xlink:href="#mc318513674" x="266.69548" y="273.312" style="stroke: #000000; stroke-width: 0.8"/>
      </g>
     </g>
     <g id="text_6">
      <!-- 1.0 -->
      <g transform="translate(258.743918 287.910437)scale(0.1 -0.1)">
       <defs>
        <path id="DejaVuSans-31" d="M 794 531 
L 1825 531 
L 1825 4091 
L 703 3866 
L 703 4441 
L 1819 4666 
L 2450 4666 
L 2450 531 
L 3481 531 
L 3481 0 
L 794 0 
L 794 531 
z
" transform="scale(0.015625)"/>
       </defs>
       <use xlink:href="#DejaVuSans-31"/>
       <use xlink:href="#DejaVuSans-2e" x="63.623047"/>
       <use xlink:href="#DejaVuSans-30" x="95.410156"/>
      </g>
     </g>
    </g>
    <g id="xtick_7">
     <g id="line2d_7">
      <g>
       <use xlink:href="#mc318513674" x="308.031781" y="273.312" style="stroke: #000000; stroke-width: 0.8"/>
      </g>
     </g>
     <g id="text_7">
      <!-- 1.2 -->
      <g transform="translate(300.080218 287.910437)scale(0.1 -0.1)">
       <use xlink:href="#DejaVuSans-31"/>
       <use xlink:href="#DejaVuSans-2e" x="63.623047"/>
       <use xlink:href="#DejaVuSans-32" x="95.410156"/>
      </g>
     </g>
    </g>
    <g id="xtick_8">
     <g id="line2d_8">
      <g>
       <use xlink:href="#mc318513674" x="349.368081" y="273.312" style="stroke: #000000; stroke-width: 0.8"/>
      </g>
     </g>
     <g id="text_8">
      <!-- 1.4 -->
      <g transform="translate(341.416519 287.910437)scale(0.1 -0.1)">
       <use xlink:href="#DejaVuSans-31"/>
       <use xlink:href="#DejaVuSans-2e" x="63.623047"/>
       <use xlink:href="#DejaVuSans-34" x="95.410156"/>
      </g>
     </g>
    </g>
    <g id="xtick_9">
     <g id="line2d_9">
      <g>
       <use xlink:href="#mc318513674" x="390.704382" y="273.312" style="stroke: #000000; stroke-width: 0.8"/>
      </g>
     </g>
     <g id="text_9">
      <!-- 1.6 -->
      <g transform="translate(382.752819 287.910437)scale(0.1 -0.1)">
       <use xlink:href="#DejaVuSans-31"/>
       <use xlink:href="#DejaVuSans-2e" x="63.623047"/>
       <use xlink:href="#DejaVuSans-36" x="95.410156"/>
      </g>
     </g>
    </g>
    <g id="text_10">
     <!-- Angle with normal (rad) -->
     <g transform="translate(163.023281 301.588562)scale(0.1 -0.1)">
      <defs>
       <path id="DejaVuSans-41" d="M 2188 4044 
L 1331 1722 
L 3047 1722 
L 2188 4044 
z
M 1831 4666 
L 2547 4666 
L 4325 0 
L 3669 0 
L 3244 1197 
L 1141 1197 
L 716 0 
L 50 0 
L 1831 4666 
z
" transform="scale(0.015625)"/>
       <path id="DejaVuSans-6e" d="M 3513 2113 
L 3513 0 
L 2938 0 
L 2938 2094 
Q 2938 2591 2744 2837 
Q 2550 3084 2163 3084 
Q 1697 3084 1428 2787 
Q 1159 2491 1159 1978 
L 1159 0 
L 581 0 
L 581 3500 
L 1159 3500 
L 1159 2956 
Q 1366 3272 1645 3428 
Q 1925 3584 2291 3584 
Q 2894 3584 3203 3211 
Q 3513 2838 3513 2113 
z
" transform="scale(0.015625)"/>
       <path id="DejaVuSans-67" d="M 2906 1791 
Q 2906 2416 2648 2759 
Q 2391 3103 1925 3103 
Q 1463 3103 1205 2759 
Q 947 2416 947 1791 
Q 947 1169 1205 825 
Q 1463 481 1925 481 
Q 2391 481 2648 825 
Q 2906 1169 2906 1791 
z
M 3481 434 
Q 3481 -459 3084 -895 
Q 2688 -1331 1869 -1331 
Q 1566 -1331 1297 -1286 
Q 1028 -1241 775 -1147 
L 775 -588 
Q 1028 -725 1275 -790 
Q 1522 -856 1778 -856 
Q 2344 -856 2625 -561 
Q 2906 -266 2906 331 
L 2906 616 
Q 2728 306 2450 153 
Q 2172 0 1784 0 
Q 1141 0 747 490 
Q 353 981 353 1791 
Q 353 2603 747 3093 
Q 1141 3584 1784 3584 
Q 2172 3584 2450 3431 
Q 2728 3278 2906 2969 
L 2906 3500 
L 3481 3500 
L 3481 434 
z
" transform="scale(0.015625)"/>
       <path id="DejaVuSans-6c" d="M 603 4863 
L 1178 4863 
L 1178 0 
L 603 0 
L 603 4863 
z
" transform="scale(0.015625)"/>
       <path id="DejaVuSans-65" d="M 3597 1894 
L 3597 1613 
L 953 1613 
Q 991 1019 1311 708 
Q 1631 397 2203 397 
Q 2534 397 2845 478 
Q 3156 559 3463 722 
L 3463 178 
Q 3153 47 2828 -22 
Q 2503 -91 2169 -91 
Q 1331 -91 842 396 
Q 353 884 353 1716 
Q 353 2575 817 3079 
Q 1281 3584 2069 3584 
Q 2775 3584 3186 3129 
Q 3597 2675 3597 1894 
z
M 3022 2063 
Q 3016 2534 2758 2815 
Q 2500 3097 2075 3097 
Q 1594 3097 1305 2825 
Q 1016 2553 972 2059 
L 3022 2063 
z
" transform="scale(0.015625)"/>
       <path id="DejaVuSans-20" transform="scale(0.015625)"/>
       <path id="DejaVuSans-77" d="M 269 3500 
L 844 3500 
L 1563 769 
L 2278 3500 
L 2956 3500 
L 3675 769 
L 4391 3500 
L 4966 3500 
L 4050 0 
L 3372 0 
L 2619 2869 
L 1863 0 
L 1184 0 
L 269 3500 
z
" transform="scale(0.015625)"/>
       <path id="DejaVuSans-69" d="M 603 3500 
L 1178 3500 
L 1178 0 
L 603 0 
L 603 3500 
z
M 603 4863 
L 1178 4863 
L 1178 4134 
L 603 4134 
L 603 4863 
z
" transform="scale(0.015625)"/>
       <path id="DejaVuSans-74" d="M 1172 4494 
L 1172 3500 
L 2356 3500 
L 2356 3053 
L 1172 3053 
L 1172 1153 
Q 1172 725 1289 603 
Q 1406 481 1766 481 
L 2356 481 
L 2356 0 
L 1766 0 
Q 1100 0 847 248 
Q 594 497 594 1153 
L 594 3053 
L 172 3053 
L 172 3500 
L 594 3500 
L 594 4494 
L 1172 4494 
z
" transform="scale(0.015625)"/>
       <path id="DejaVuSans-68" d="M 3513 2113 
L 3513 0 
L 2938 0 
L 2938 2094 
Q 2938 2591 2744 2837 
Q 2550 3084 2163 3084 
Q 1697 3084 1428 2787 
Q 1159 2491 1159 1978 
L 1159 0 
L 581 0 
L 581 4863 
L 1159 4863 
L 1159 2956 
Q 1366 3272 1645 3428 
Q 1925 3584 2291 3584 
Q 2894 3584 3203 3211 
Q 3513 2838 3513 2113 
z
" transform="scale(0.015625)"/>
       <path id="DejaVuSans-6f" d="M 1959 3097 
Q 1497 3097 1228 2736 
Q 959 2375 959 1747 
Q 959 1119 1226 758 
Q 1494 397 1959 397 
Q 2419 397 2687 759 
Q 2956 1122 2956 1747 
Q 2956 2369 2687 2733 
Q 2419 3097 1959 3097 
z
M 1959 3584 
Q 2709 3584 3137 3096 
Q 3566 2609 3566 1747 
Q 3566 888 3137 398 
Q 2709 -91 1959 -91 
Q 1206 -91 779 398 
Q 353 888 353 1747 
Q 353 2609 779 3096 
Q 1206 3584 1959 3584 
z
" transform="scale(0.015625)"/>
       <path id="DejaVuSans-72" d="M 2631 2963 
Q 2534 3019 2420 3045 
Q 2306 3072 2169 3072 
Q 1681 3072 1420 2755 
Q 1159 2438 1159 1844 
L 1159 0 
L 581 0 
L 581 3500 
L 1159 3500 
L 1159 2956 
Q 1341 3275 1631 3429 
Q 1922 3584 2338 3584 
Q 2397 3584 2469 3576 
Q 2541 3569 2628 3553 
L 2631 2963 
z
" transform="scale(0.015625)"/>
       <path id="DejaVuSans-6d" d="M 3328 2828 
Q 3544 3216 3844 3400 
Q 4144 3584 4550 3584 
Q 5097 3584 5394 3201 
Q 5691 2819 5691 2113 
L 5691 0 
L 5113 0 
L 5113 2094 
Q 5113 2597 4934 2840 
Q 4756 3084 4391 3084 
Q 3944 3084 3684 2787 
Q 3425 2491 3425 1978 
L 3425 0 
L 2847 0 
L 2847 2094 
Q 2847 2600 2669 2842 
Q 2491 3084 2119 3084 
Q 1678 3084 1418 2786 
Q 1159 2488 1159 1978 
L 1159 0 
L 581 0 
L 581 3500 
L 1159 3500 
L 1159 2956 
Q 1356 3278 1631 3431 
Q 1906 3584 2284 3584 
Q 2666 3584 2933 3390 
Q 3200 3197 3328 2828 
z
" transform="scale(0.015625)"/>
       <path id="DejaVuSans-61" d="M 2194 1759 
Q 1497 1759 1228 1600 
Q 959 1441 959 1056 
Q 959 750 1161 570 
Q 1363 391 1709 391 
Q 2188 391 2477 730 
Q 2766 1069 2766 1631 
L 2766 1759 
L 2194 1759 
z
M 3341 1997 
L 3341 0 
L 2766 0 
L 2766 531 
Q 2569 213 2275 61 
Q 1981 -91 1556 -91 
Q 1019 -91 701 211 
Q 384 513 384 1019 
Q 384 1609 779 1909 
Q 1175 2209 1959 2209 
L 2766 2209 
L 2766 2266 
Q 2766 2663 2505 2880 
Q 2244 3097 1772 3097 
Q 1472 3097 1187 3025 
Q 903 2953 641 2809 
L 641 3341 
Q 956 3463 1253 3523 
Q 1550 3584 1831 3584 
Q 2591 3584 2966 3190 
Q 3341 2797 3341 1997 
z
" transform="scale(0.015625)"/>
       <path id="DejaVuSans-28" d="M 1984 4856 
Q 1566 4138 1362 3434 
Q 1159 2731 1159 2009 
Q 1159 1288 1364 580 
Q 1569 -128 1984 -844 
L 1484 -844 
Q 1016 -109 783 600 
Q 550 1309 550 2009 
Q 550 2706 781 3412 
Q 1013 4119 1484 4856 
L 1984 4856 
z
" transform="scale(0.015625)"/>
       <path id="DejaVuSans-64" d="M 2906 2969 
L 2906 4863 
L 3481 4863 
L 3481 0 
L 2906 0 
L 2906 525 
Q 2725 213 2448 61 
Q 2172 -91 1784 -91 
Q 1150 -91 751 415 
Q 353 922 353 1747 
Q 353 2572 751 3078 
Q 1150 3584 1784 3584 
Q 2172 3584 2448 3432 
Q 2725 3281 2906 2969 
z
M 947 1747 
Q 947 1113 1208 752 
Q 1469 391 1925 391 
Q 2381 391 2643 752 
Q 2906 1113 2906 1747 
Q 2906 2381 2643 2742 
Q 2381 3103 1925 3103 
Q 1469 3103 1208 2742 
Q 947 2381 947 1747 
z
" transform="scale(0.015625)"/>
       <path id="DejaVuSans-29" d="M 513 4856 
L 1013 4856 
Q 1481 4119 1714 3412 
Q 1947 2706 1947 2009 
Q 1947 1309 1714 600 
Q 1481 -109 1013 -844 
L 513 -844 
Q 928 -128 1133 580 
Q 1338 1288 1338 2009 
Q 1338 2731 1133 3434 
Q 928 4138 513 4856 
z
" transform="scale(0.015625)"/>
      </defs>
      <use xlink:href="#DejaVuSans-41"/>
      <use xlink:href="#DejaVuSans-6e" x="68.408203"/>
      <use xlink:href="#DejaVuSans-67" x="131.787109"/>
      <use xlink:href="#DejaVuSans-6c" x="195.263672"/>
      <use xlink:href="#DejaVuSans-65" x="223.046875"/>
      <use xlink:href="#DejaVuSans-20" x="284.570312"/>
      <use xlink:href="#DejaVuSans-77" x="316.357422"/>
      <use xlink:href="#DejaVuSans-69" x="398.144531"/>
      <use xlink:href="#DejaVuSans-74" x="425.927734"/>
      <use xlink:href="#DejaVuSans-68" x="465.136719"/>
      <use xlink:href="#DejaVuSans-20" x="528.515625"/>
      <use xlink:href="#DejaVuSans-6e" x="560.302734"/>
      <use xlink:href="#DejaVuSans-6f" x="623.681641"/>
      <use xlink:href="#DejaVuSans-72" x="684.863281"/>
      <use xlink:href="#DejaVuSans-6d" x="724.226562"/>
      <use xlink:href="#DejaVuSans-61" x="821.638672"/>
      <use xlink:href="#DejaVuSans-6c" x="882.917969"/>
      <use xlink:href="#DejaVuSans-20" x="910.701172"/>
      <use xlink:href="#DejaVuSans-28" x="942.488281"/>
      <use xlink:href="#DejaVuSans-72" x="981.501953"/>
      <use xlink:href="#DejaVuSans-61" x="1022.615234"/>
      <use xlink:href="#DejaVuSans-64" x="1083.894531"/>
      <use xlink:href="#DejaVuSans-29" x="1147.371094"/>
     </g>
    </g>
   </g>
   <g id="matplotlib.axis_2">
    <g id="ytick_1">
     <g id="line2d_10">
      <defs>
       <path id="m64823bac4c" d="M 0 0 
L -3.5 0 
" style="stroke: #000000; stroke-width: 0.8"/>
      </defs>
      <g>
       <use xlink:href="#m64823bac4c" x="43.78125" y="273.312" style="stroke: #000000; stroke-width: 0.8"/>
      </g>
     </g>
     <g id="text_11">
      <!-- 0.0 -->
      <g transform="translate(20.878125 277.111219)scale(0.1 -0.1)">
       <use xlink:href="#DejaVuSans-30"/>
       <use xlink:href="#DejaVuSans-2e" x="63.623047"/>
       <use xlink:href="#DejaVuSans-30" x="95.410156"/>
      </g>
     </g>
    </g>
    <g id="ytick_2">
     <g id="line2d_11">
      <g>
       <use xlink:href="#m64823bac4c" x="43.78125" y="228.581591" style="stroke: #000000; stroke-width: 0.8"/>
      </g>
     </g>
     <g id="text_12">
      <!-- 0.2 -->
      <g transform="translate(20.878125 232.38081)scale(0.1 -0.1)">
       <use xlink:href="#DejaVuSans-30"/>
       <use xlink:href="#DejaVuSans-2e" x="63.623047"/>
       <use xlink:href="#DejaVuSans-32" x="95.410156"/>
      </g>
     </g>
    </g>
    <g id="ytick_3">
     <g id="line2d_12">
      <g>
       <use xlink:href="#m64823bac4c" x="43.78125" y="183.851183" style="stroke: #000000; stroke-width: 0.8"/>
      </g>
     </g>
     <g id="text_13">
      <!-- 0.4 -->
      <g transform="translate(20.878125 187.650402)scale(0.1 -0.1)">
       <use xlink:href="#DejaVuSans-30"/>
       <use xlink:href="#DejaVuSans-2e" x="63.623047"/>
       <use xlink:href="#DejaVuSans-34" x="95.410156"/>
      </g>
     </g>
    </g>
    <g id="ytick_4">
     <g id="line2d_13">
      <g>
       <use xlink:href="#m64823bac4c" x="43.78125" y="139.120774" style="stroke: #000000; stroke-width: 0.8"/>
      </g>
     </g>
     <g id="text_14">
      <!-- 0.6 -->
      <g transform="translate(20.878125 142.919993)scale(0.1 -0.1)">
       <use xlink:href="#DejaVuSans-30"/>
       <use xlink:href="#DejaVuSans-2e" x="63.623047"/>
       <use xlink:href="#DejaVuSans-36" x="95.410156"/>
      </g>
     </g>
    </g>
    <g id="ytick_5">
     <g id="line2d_14">
      <g>
       <use xlink:href="#m64823bac4c" x="43.78125" y="94.390366" style="stroke: #000000; stroke-width: 0.8"/>
      </g>
     </g>
     <g id="text_15">
      <!-- 0.8 -->
      <g transform="translate(20.878125 98.189584)scale(0.1 -0.1)">
       <use xlink:href="#DejaVuSans-30"/>
       <use xlink:href="#DejaVuSans-2e" x="63.623047"/>
       <use xlink:href="#DejaVuSans-38" x="95.410156"/>
      </g>
     </g>
    </g>
    <g id="ytick_6">
     <g id="line2d_15">
      <g>
       <use xlink:href="#m64823bac4c" x="43.78125" y="49.659957" style="stroke: #000000; stroke-width: 0.8"/>
      </g>
     </g>
     <g id="text_16">
      <!-- 1.0 -->
      <g transform="translate(20.878125 53.459176)scale(0.1 -0.1)">
       <use xlink:href="#DejaVuSans-31"/>
       <use xlink:href="#DejaVuSans-2e" x="63.623047"/>
       <use xlink:href="#DejaVuSans-30" x="95.410156"/>
      </g>
     </g>
    </g>
    <g id="text_17">
     <!-- Probability density -->
     <g transform="translate(14.798438 186.606781)rotate(-90)scale(0.1 -0.1)">
      <defs>
       <path id="DejaVuSans-50" d="M 1259 4147 
L 1259 2394 
L 2053 2394 
Q 2494 2394 2734 2622 
Q 2975 2850 2975 3272 
Q 2975 3691 2734 3919 
Q 2494 4147 2053 4147 
L 1259 4147 
z
M 628 4666 
L 2053 4666 
Q 2838 4666 3239 4311 
Q 3641 3956 3641 3272 
Q 3641 2581 3239 2228 
Q 2838 1875 2053 1875 
L 1259 1875 
L 1259 0 
L 628 0 
L 628 4666 
z
" transform="scale(0.015625)"/>
       <path id="DejaVuSans-62" d="M 3116 1747 
Q 3116 2381 2855 2742 
Q 2594 3103 2138 3103 
Q 1681 3103 1420 2742 
Q 1159 2381 1159 1747 
Q 1159 1113 1420 752 
Q 1681 391 2138 391 
Q 2594 391 2855 752 
Q 3116 1113 3116 1747 
z
M 1159 2969 
Q 1341 3281 1617 3432 
Q 1894 3584 2278 3584 
Q 2916 3584 3314 3078 
Q 3713 2572 3713 1747 
Q 3713 922 3314 415 
Q 2916 -91 2278 -91 
Q 1894 -91 1617 61 
Q 1341 213 1159 525 
L 1159 0 
L 581 0 
L 581 4863 
L 1159 4863 
L 1159 2969 
z
" transform="scale(0.015625)"/>
       <path id="DejaVuSans-79" d="M 2059 -325 
Q 1816 -950 1584 -1140 
Q 1353 -1331 966 -1331 
L 506 -1331 
L 506 -850 
L 844 -850 
Q 1081 -850 1212 -737 
Q 1344 -625 1503 -206 
L 1606 56 
L 191 3500 
L 800 3500 
L 1894 763 
L 2988 3500 
L 3597 3500 
L 2059 -325 
z
" transform="scale(0.015625)"/>
       <path id="DejaVuSans-73" d="M 2834 3397 
L 2834 2853 
Q 2591 2978 2328 3040 
Q 2066 3103 1784 3103 
Q 1356 3103 1142 2972 
Q 928 2841 928 2578 
Q 928 2378 1081 2264 
Q 1234 2150 1697 2047 
L 1894 2003 
Q 2506 1872 2764 1633 
Q 3022 1394 3022 966 
Q 3022 478 2636 193 
Q 2250 -91 1575 -91 
Q 1294 -91 989 -36 
Q 684 19 347 128 
L 347 722 
Q 666 556 975 473 
Q 1284 391 1588 391 
Q 1994 391 2212 530 
Q 2431 669 2431 922 
Q 2431 1156 2273 1281 
Q 2116 1406 1581 1522 
L 1381 1569 
Q 847 1681 609 1914 
Q 372 2147 372 2553 
Q 372 3047 722 3315 
Q 1072 3584 1716 3584 
Q 2034 3584 2315 3537 
Q 2597 3491 2834 3397 
z
" transform="scale(0.015625)"/>
      </defs>
      <use xlink:href="#DejaVuSans-50"/>
      <use xlink:href="#DejaVuSans-72" x="58.552734"/>
      <use xlink:href="#DejaVuSans-6f" x="97.416016"/>
      <use xlink:href="#DejaVuSans-62" x="158.597656"/>
      <use xlink:href="#DejaVuSans-61" x="222.074219"/>
      <use xlink:href="#DejaVuSans-62" x="283.353516"/>
      <use xlink:href="#DejaVuSans-69" x="346.830078"/>
      <use xlink:href="#DejaVuSans-6c" x="374.613281"/>
      <use xlink:href="#DejaVuSans-69" x="402.396484"/>
      <use xlink:href="#DejaVuSans-74" x="430.179688"/>
      <use xlink:href="#DejaVuSans-79" x="469.388672"/>
      <use xlink:href="#DejaVuSans-20" x="528.568359"/>
      <use xlink:href="#DejaVuSans-64" x="560.355469"/>
      <use xlink:href="#DejaVuSans-65" x="623.832031"/>
      <use xlink:href="#DejaVuSans-6e" x="685.355469"/>
      <use xlink:href="#DejaVuSans-73" x="748.734375"/>
      <use xlink:href="#DejaVuSans-69" x="800.833984"/>
      <use xlink:href="#DejaVuSans-74" x="828.617188"/>
      <use xlink:href="#DejaVuSans-79" x="867.826172"/>
     </g>
    </g>
   </g>
   <g id="line2d_16">
    <path d="M 60.013977 273.312 
L 79.837728 230.671699 
L 90.237073 208.831061 
L 99.01152 190.901725 
L 106.811029 175.459085 
L 113.960578 161.790666 
L 120.460169 149.826182 
L 126.63478 138.911518 
L 132.484411 129.01317 
L 138.009063 120.088636 
L 143.208736 112.088574 
L 148.408408 104.496591 
L 153.283101 97.766831 
L 158.157794 91.427606 
L 162.707507 85.875798 
L 167.257221 80.687243 
L 171.481954 76.203359 
L 175.706688 72.048857 
L 179.606442 68.512297 
L 183.506197 65.267351 
L 187.405951 62.318641 
L 190.980726 59.879484 
L 194.555501 57.695697 
L 198.130275 55.769895 
L 201.70505 54.104381 
L 205.279825 52.701147 
L 208.52962 51.654498 
L 211.779415 50.827036 
L 215.029211 50.21958 
L 218.279006 49.83273 
L 221.528801 49.666869 
L 224.778596 49.72216 
L 228.028392 49.99855 
L 231.278187 50.495765 
L 234.527982 51.213312 
L 237.777777 52.150484 
L 241.027573 53.306352 
L 244.277368 54.679774 
L 247.852143 56.440185 
L 251.426917 58.460083 
L 255.001692 60.73705 
L 258.576467 63.268361 
L 262.476221 66.316304 
L 266.375976 69.658989 
L 270.27573 73.291655 
L 274.500464 77.548271 
L 278.725198 82.132021 
L 282.949931 87.035248 
L 287.499645 92.663518 
L 292.049358 98.641886 
L 296.924051 105.422605 
L 301.798744 112.576827 
L 306.998416 120.601733 
L 312.523068 129.551238 
L 318.3727 139.474349 
L 324.547311 150.413194 
L 331.046901 162.400868 
L 337.871471 175.459085 
L 345.346 190.248295 
L 353.795468 207.485421 
L 363.544854 227.913442 
L 375.894076 254.344982 
L 384.668523 273.312 
L 384.668523 273.312 
" clip-path="url(#pcf667277a6)" style="fill: none; stroke: #ff7f0e; stroke-width: 1.5; stroke-linecap: square"/>
   </g>
   <g id="patch_203">
    <path d="M 43.78125 273.312 
L 43.78125 7.2 
" style="fill: none; stroke: #000000; stroke-width: 0.8; stroke-linejoin: miter; stroke-linecap: square"/>
   </g>
   <g id="patch_204">
    <path d="M 400.90125 273.312 
L 400.90125 7.2 
" style="fill: none; stroke: #000000; stroke-width: 0.8; stroke-linejoin: miter; stroke-linecap: square"/>
   </g>
   <g id="patch_205">
    <path d="M 43.78125 273.312 
L 400.90125 273.312 
" style="fill: none; stroke: #000000; stroke-width: 0.8; stroke-linejoin: miter; stroke-linecap: square"/>
   </g>
   <g id="patch_206">
    <path d="M 43.78125 7.2 
L 400.90125 7.2 
" style="fill: none; stroke: #000000; stroke-width: 0.8; stroke-linejoin: miter; stroke-linecap: square"/>
   </g>
  </g>
 </g>
 <defs>
  <clipPath id="pcf667277a6">
   <rect x="43.78125" y="7.2" width="357.12" height="266.112"/>
  </clipPath>
 </defs>
</svg>
