<?xml version="1.0" encoding="utf-8" standalone="no"?>
<!DOCTYPE svg PUBLIC "-//W3C//DTD SVG 1.1//EN"
  "http://www.w3.org/Graphics/SVG/1.1/DTD/svg11.dtd">
<svg xmlns:xlink="http://www.w3.org/1999/xlink" width="414.46375pt" height="310.86825pt" viewBox="0 0 414.46375 310.86825" xmlns="http://www.w3.org/2000/svg" version="1.1">
 <metadata>
  <rdf:RDF xmlns:dc="http://purl.org/dc/elements/1.1/" xmlns:cc="http://creativecommons.org/ns#" xmlns:rdf="http://www.w3.org/1999/02/22-rdf-syntax-ns#">
   <cc:Work>
    <dc:type rdf:resource="http://purl.org/dc/dcmitype/StillImage"/>
    <dc:date>2022-05-03T13:54:49.972483</dc:date>
    <dc:format>image/svg+xml</dc:format>
    <dc:creator>
     <cc:Agent>
      <dc:title>Matplotlib v3.5.1, https://matplotlib.org/</dc:title>
     </cc:Agent>
    </dc:creator>
   </cc:Work>
  </rdf:RDF>
 </metadata>
 <defs>
  <style type="text/css">*{stroke-linejoin: round; stroke-linecap: butt}</style>
 </defs>
 <g id="figure_1">
  <g id="patch_1">
   <path d="M 0 310.86825 
L 414.46375 310.86825 
L 414.46375 0 
L 0 0 
z
" style="fill: #ffffff"/>
  </g>
  <g id="axes_1">
   <g id="patch_2">
    <path d="M 50.14375 273.312 
L 407.26375 273.312 
L 407.26375 7.2 
L 50.14375 7.2 
z
" style="fill: #ffffff"/>
   </g>
   <g id="patch_3">
    <path d="M 69.613687 273.312 
L 71.220763 273.312 
L 71.220763 270.280421 
L 69.613687 270.280421 
z
" clip-path="url(#peec692f53a)" style="fill: #1f77b4"/>
   </g>
   <g id="patch_4">
    <path d="M 71.220763 273.312 
L 72.827839 273.312 
L 72.827839 268.461474 
L 71.220763 268.461474 
z
" clip-path="url(#peec692f53a)" style="fill: #1f77b4"/>
   </g>
   <g id="patch_5">
    <path d="M 72.827839 273.312 
L 74.434914 273.312 
L 74.434914 270.280421 
L 72.827839 270.280421 
z
" clip-path="url(#peec692f53a)" style="fill: #1f77b4"/>
   </g>
   <g id="patch_6">
    <path d="M 74.434914 273.312 
L 76.04199 273.312 
L 76.04199 264.217263 
L 74.434914 264.217263 
z
" clip-path="url(#peec692f53a)" style="fill: #1f77b4"/>
   </g>
   <g id="patch_7">
    <path d="M 76.04199 273.312 
L 77.649066 273.312 
L 77.649066 262.398316 
L 76.04199 262.398316 
z
" clip-path="url(#peec692f53a)" style="fill: #1f77b4"/>
   </g>
   <g id="patch_8">
    <path d="M 77.649066 273.312 
L 79.256142 273.312 
L 79.256142 266.036211 
L 77.649066 266.036211 
z
" clip-path="url(#peec692f53a)" style="fill: #1f77b4"/>
   </g>
   <g id="patch_9">
    <path d="M 79.256142 273.312 
L 80.863218 273.312 
L 80.863218 265.429895 
L 79.256142 265.429895 
z
" clip-path="url(#peec692f53a)" style="fill: #1f77b4"/>
   </g>
   <g id="patch_10">
    <path d="M 80.863218 273.312 
L 82.470293 273.312 
L 82.470293 259.366737 
L 80.863218 259.366737 
z
" clip-path="url(#peec692f53a)" style="fill: #1f77b4"/>
   </g>
   <g id="patch_11">
    <path d="M 82.470293 273.312 
L 84.077369 273.312 
L 84.077369 261.792 
L 82.470293 261.792 
z
" clip-path="url(#peec692f53a)" style="fill: #1f77b4"/>
   </g>
   <g id="patch_12">
    <path d="M 84.077369 273.312 
L 85.684445 273.312 
L 85.684445 258.154105 
L 84.077369 258.154105 
z
" clip-path="url(#peec692f53a)" style="fill: #1f77b4"/>
   </g>
   <g id="patch_13">
    <path d="M 85.684445 273.312 
L 87.291521 273.312 
L 87.291521 258.760421 
L 85.684445 258.760421 
z
" clip-path="url(#peec692f53a)" style="fill: #1f77b4"/>
   </g>
   <g id="patch_14">
    <path d="M 87.291521 273.312 
L 88.898597 273.312 
L 88.898597 260.579368 
L 87.291521 260.579368 
z
" clip-path="url(#peec692f53a)" style="fill: #1f77b4"/>
   </g>
   <g id="patch_15">
    <path d="M 88.898597 273.312 
L 90.505672 273.312 
L 90.505672 257.547789 
L 88.898597 257.547789 
z
" clip-path="url(#peec692f53a)" style="fill: #1f77b4"/>
   </g>
   <g id="patch_16">
    <path d="M 90.505672 273.312 
L 92.112748 273.312 
L 92.112748 252.697263 
L 90.505672 252.697263 
z
" clip-path="url(#peec692f53a)" style="fill: #1f77b4"/>
   </g>
   <g id="patch_17">
    <path d="M 92.112748 273.312 
L 93.719824 273.312 
L 93.719824 253.303579 
L 92.112748 253.303579 
z
" clip-path="url(#peec692f53a)" style="fill: #1f77b4"/>
   </g>
   <g id="patch_18">
    <path d="M 93.719824 273.312 
L 95.3269 273.312 
L 95.3269 255.728842 
L 93.719824 255.728842 
z
" clip-path="url(#peec692f53a)" style="fill: #1f77b4"/>
   </g>
   <g id="patch_19">
    <path d="M 95.3269 273.312 
L 96.933976 273.312 
L 96.933976 257.547789 
L 95.3269 257.547789 
z
" clip-path="url(#peec692f53a)" style="fill: #1f77b4"/>
   </g>
   <g id="patch_20">
    <path d="M 96.933976 273.312 
L 98.541051 273.312 
L 98.541051 245.421474 
L 96.933976 245.421474 
z
" clip-path="url(#peec692f53a)" style="fill: #1f77b4"/>
   </g>
   <g id="patch_21">
    <path d="M 98.541051 273.312 
L 100.148127 273.312 
L 100.148127 243.602526 
L 98.541051 243.602526 
z
" clip-path="url(#peec692f53a)" style="fill: #1f77b4"/>
   </g>
   <g id="patch_22">
    <path d="M 100.148127 273.312 
L 101.755203 273.312 
L 101.755203 246.027789 
L 100.148127 246.027789 
z
" clip-path="url(#peec692f53a)" style="fill: #1f77b4"/>
   </g>
   <g id="patch_23">
    <path d="M 101.755203 273.312 
L 103.362279 273.312 
L 103.362279 253.303579 
L 101.755203 253.303579 
z
" clip-path="url(#peec692f53a)" style="fill: #1f77b4"/>
   </g>
   <g id="patch_24">
    <path d="M 103.362279 273.312 
L 104.969355 273.312 
L 104.969355 242.389895 
L 103.362279 242.389895 
z
" clip-path="url(#peec692f53a)" style="fill: #1f77b4"/>
   </g>
   <g id="patch_25">
    <path d="M 104.969355 273.312 
L 106.57643 273.312 
L 106.57643 239.358316 
L 104.969355 239.358316 
z
" clip-path="url(#peec692f53a)" style="fill: #1f77b4"/>
   </g>
   <g id="patch_26">
    <path d="M 106.57643 273.312 
L 108.183506 273.312 
L 108.183506 241.177263 
L 106.57643 241.177263 
z
" clip-path="url(#peec692f53a)" style="fill: #1f77b4"/>
   </g>
   <g id="patch_27">
    <path d="M 108.183506 273.312 
L 109.790582 273.312 
L 109.790582 247.846737 
L 108.183506 247.846737 
z
" clip-path="url(#peec692f53a)" style="fill: #1f77b4"/>
   </g>
   <g id="patch_28">
    <path d="M 109.790582 273.312 
L 111.397658 273.312 
L 111.397658 238.145684 
L 109.790582 238.145684 
z
" clip-path="url(#peec692f53a)" style="fill: #1f77b4"/>
   </g>
   <g id="patch_29">
    <path d="M 111.397658 273.312 
L 113.004734 273.312 
L 113.004734 246.027789 
L 111.397658 246.027789 
z
" clip-path="url(#peec692f53a)" style="fill: #1f77b4"/>
   </g>
   <g id="patch_30">
    <path d="M 113.004734 273.312 
L 114.611809 273.312 
L 114.611809 237.539368 
L 113.004734 237.539368 
z
" clip-path="url(#peec692f53a)" style="fill: #1f77b4"/>
   </g>
   <g id="patch_31">
    <path d="M 114.611809 273.312 
L 116.218885 273.312 
L 116.218885 242.389895 
L 114.611809 242.389895 
z
" clip-path="url(#peec692f53a)" style="fill: #1f77b4"/>
   </g>
   <g id="patch_32">
    <path d="M 116.218885 273.312 
L 117.825961 273.312 
L 117.825961 229.050947 
L 116.218885 229.050947 
z
" clip-path="url(#peec692f53a)" style="fill: #1f77b4"/>
   </g>
   <g id="patch_33">
    <path d="M 117.825961 273.312 
L 119.433037 273.312 
L 119.433037 244.208842 
L 117.825961 244.208842 
z
" clip-path="url(#peec692f53a)" style="fill: #1f77b4"/>
   </g>
   <g id="patch_34">
    <path d="M 119.433037 273.312 
L 121.040113 273.312 
L 121.040113 232.688842 
L 119.433037 232.688842 
z
" clip-path="url(#peec692f53a)" style="fill: #1f77b4"/>
   </g>
   <g id="patch_35">
    <path d="M 121.040113 273.312 
L 122.647188 273.312 
L 122.647188 239.964632 
L 121.040113 239.964632 
z
" clip-path="url(#peec692f53a)" style="fill: #1f77b4"/>
   </g>
   <g id="patch_36">
    <path d="M 122.647188 273.312 
L 124.254264 273.312 
L 124.254264 234.507789 
L 122.647188 234.507789 
z
" clip-path="url(#peec692f53a)" style="fill: #1f77b4"/>
   </g>
   <g id="patch_37">
    <path d="M 124.254264 273.312 
L 125.86134 273.312 
L 125.86134 229.657263 
L 124.254264 229.657263 
z
" clip-path="url(#peec692f53a)" style="fill: #1f77b4"/>
   </g>
   <g id="patch_38">
    <path d="M 125.86134 273.312 
L 127.468416 273.312 
L 127.468416 226.625684 
L 125.86134 226.625684 
z
" clip-path="url(#peec692f53a)" style="fill: #1f77b4"/>
   </g>
   <g id="patch_39">
    <path d="M 127.468416 273.312 
L 129.075492 273.312 
L 129.075492 227.838316 
L 127.468416 227.838316 
z
" clip-path="url(#peec692f53a)" style="fill: #1f77b4"/>
   </g>
   <g id="patch_40">
    <path d="M 129.075492 273.312 
L 130.682567 273.312 
L 130.682567 226.625684 
L 129.075492 226.625684 
z
" clip-path="url(#peec692f53a)" style="fill: #1f77b4"/>
   </g>
   <g id="patch_41">
    <path d="M 130.682567 273.312 
L 132.289643 273.312 
L 132.289643 225.413053 
L 130.682567 225.413053 
z
" clip-path="url(#peec692f53a)" style="fill: #1f77b4"/>
   </g>
   <g id="patch_42">
    <path d="M 132.289643 273.312 
L 133.896719 273.312 
L 133.896719 230.263579 
L 132.289643 230.263579 
z
" clip-path="url(#peec692f53a)" style="fill: #1f77b4"/>
   </g>
   <g id="patch_43">
    <path d="M 133.896719 273.312 
L 135.503795 273.312 
L 135.503795 217.530947 
L 133.896719 217.530947 
z
" clip-path="url(#peec692f53a)" style="fill: #1f77b4"/>
   </g>
   <g id="patch_44">
    <path d="M 135.503795 273.312 
L 137.110871 273.312 
L 137.110871 224.806737 
L 135.503795 224.806737 
z
" clip-path="url(#peec692f53a)" style="fill: #1f77b4"/>
   </g>
   <g id="patch_45">
    <path d="M 137.110871 273.312 
L 138.717946 273.312 
L 138.717946 219.349895 
L 137.110871 219.349895 
z
" clip-path="url(#peec692f53a)" style="fill: #1f77b4"/>
   </g>
   <g id="patch_46">
    <path d="M 138.717946 273.312 
L 140.325022 273.312 
L 140.325022 215.712 
L 138.717946 215.712 
z
" clip-path="url(#peec692f53a)" style="fill: #1f77b4"/>
   </g>
   <g id="patch_47">
    <path d="M 140.325022 273.312 
L 141.932098 273.312 
L 141.932098 213.893053 
L 140.325022 213.893053 
z
" clip-path="url(#peec692f53a)" style="fill: #1f77b4"/>
   </g>
   <g id="patch_48">
    <path d="M 141.932098 273.312 
L 143.539174 273.312 
L 143.539174 224.200421 
L 141.932098 224.200421 
z
" clip-path="url(#peec692f53a)" style="fill: #1f77b4"/>
   </g>
   <g id="patch_49">
    <path d="M 143.539174 273.312 
L 145.14625 273.312 
L 145.14625 213.893053 
L 143.539174 213.893053 
z
" clip-path="url(#peec692f53a)" style="fill: #1f77b4"/>
   </g>
   <g id="patch_50">
    <path d="M 145.14625 273.312 
L 146.753325 273.312 
L 146.753325 221.775158 
L 145.14625 221.775158 
z
" clip-path="url(#peec692f53a)" style="fill: #1f77b4"/>
   </g>
   <g id="patch_51">
    <path d="M 146.753325 273.312 
L 148.360401 273.312 
L 148.360401 213.893053 
L 146.753325 213.893053 
z
" clip-path="url(#peec692f53a)" style="fill: #1f77b4"/>
   </g>
   <g id="patch_52">
    <path d="M 148.360401 273.312 
L 149.967477 273.312 
L 149.967477 204.798316 
L 148.360401 204.798316 
z
" clip-path="url(#peec692f53a)" style="fill: #1f77b4"/>
   </g>
   <g id="patch_53">
    <path d="M 149.967477 273.312 
L 151.574553 273.312 
L 151.574553 209.648842 
L 149.967477 209.648842 
z
" clip-path="url(#peec692f53a)" style="fill: #1f77b4"/>
   </g>
   <g id="patch_54">
    <path d="M 151.574553 273.312 
L 153.181629 273.312 
L 153.181629 213.286737 
L 151.574553 213.286737 
z
" clip-path="url(#peec692f53a)" style="fill: #1f77b4"/>
   </g>
   <g id="patch_55">
    <path d="M 153.181629 273.312 
L 154.788704 273.312 
L 154.788704 212.074105 
L 153.181629 212.074105 
z
" clip-path="url(#peec692f53a)" style="fill: #1f77b4"/>
   </g>
   <g id="patch_56">
    <path d="M 154.788704 273.312 
L 156.39578 273.312 
L 156.39578 198.128842 
L 154.788704 198.128842 
z
" clip-path="url(#peec692f53a)" style="fill: #1f77b4"/>
   </g>
   <g id="patch_57">
    <path d="M 156.39578 273.312 
L 158.002856 273.312 
L 158.002856 206.010947 
L 156.39578 206.010947 
z
" clip-path="url(#peec692f53a)" style="fill: #1f77b4"/>
   </g>
   <g id="patch_58">
    <path d="M 158.002856 273.312 
L 159.609932 273.312 
L 159.609932 211.467789 
L 158.002856 211.467789 
z
" clip-path="url(#peec692f53a)" style="fill: #1f77b4"/>
   </g>
   <g id="patch_59">
    <path d="M 159.609932 273.312 
L 161.217008 273.312 
L 161.217008 202.979368 
L 159.609932 202.979368 
z
" clip-path="url(#peec692f53a)" style="fill: #1f77b4"/>
   </g>
   <g id="patch_60">
    <path d="M 161.217008 273.312 
L 162.824083 273.312 
L 162.824083 199.947789 
L 161.217008 199.947789 
z
" clip-path="url(#peec692f53a)" style="fill: #1f77b4"/>
   </g>
   <g id="patch_61">
    <path d="M 162.824083 273.312 
L 164.431159 273.312 
L 164.431159 204.798316 
L 162.824083 204.798316 
z
" clip-path="url(#peec692f53a)" style="fill: #1f77b4"/>
   </g>
   <g id="patch_62">
    <path d="M 164.431159 273.312 
L 166.038235 273.312 
L 166.038235 196.309895 
L 164.431159 196.309895 
z
" clip-path="url(#peec692f53a)" style="fill: #1f77b4"/>
   </g>
   <g id="patch_63">
    <path d="M 166.038235 273.312 
L 167.645311 273.312 
L 167.645311 196.309895 
L 166.038235 196.309895 
z
" clip-path="url(#peec692f53a)" style="fill: #1f77b4"/>
   </g>
   <g id="patch_64">
    <path d="M 167.645311 273.312 
L 169.252387 273.312 
L 169.252387 192.672 
L 167.645311 192.672 
z
" clip-path="url(#peec692f53a)" style="fill: #1f77b4"/>
   </g>
   <g id="patch_65">
    <path d="M 169.252387 273.312 
L 170.859462 273.312 
L 170.859462 187.215158 
L 169.252387 187.215158 
z
" clip-path="url(#peec692f53a)" style="fill: #1f77b4"/>
   </g>
   <g id="patch_66">
    <path d="M 170.859462 273.312 
L 172.466538 273.312 
L 172.466538 191.459368 
L 170.859462 191.459368 
z
" clip-path="url(#peec692f53a)" style="fill: #1f77b4"/>
   </g>
   <g id="patch_67">
    <path d="M 172.466538 273.312 
L 174.073614 273.312 
L 174.073614 191.459368 
L 172.466538 191.459368 
z
" clip-path="url(#peec692f53a)" style="fill: #1f77b4"/>
   </g>
   <g id="patch_68">
    <path d="M 174.073614 273.312 
L 175.68069 273.312 
L 175.68069 190.853053 
L 174.073614 190.853053 
z
" clip-path="url(#peec692f53a)" style="fill: #1f77b4"/>
   </g>
   <g id="patch_69">
    <path d="M 175.68069 273.312 
L 177.287766 273.312 
L 177.287766 188.427789 
L 175.68069 188.427789 
z
" clip-path="url(#peec692f53a)" style="fill: #1f77b4"/>
   </g>
   <g id="patch_70">
    <path d="M 177.287766 273.312 
L 178.894841 273.312 
L 178.894841 195.703579 
L 177.287766 195.703579 
z
" clip-path="url(#peec692f53a)" style="fill: #1f77b4"/>
   </g>
   <g id="patch_71">
    <path d="M 178.894841 273.312 
L 180.501917 273.312 
L 180.501917 170.238316 
L 178.894841 170.238316 
z
" clip-path="url(#peec692f53a)" style="fill: #1f77b4"/>
   </g>
   <g id="patch_72">
    <path d="M 180.501917 273.312 
L 182.108993 273.312 
L 182.108993 174.482526 
L 180.501917 174.482526 
z
" clip-path="url(#peec692f53a)" style="fill: #1f77b4"/>
   </g>
   <g id="patch_73">
    <path d="M 182.108993 273.312 
L 183.716069 273.312 
L 183.716069 178.726737 
L 182.108993 178.726737 
z
" clip-path="url(#peec692f53a)" style="fill: #1f77b4"/>
   </g>
   <g id="patch_74">
    <path d="M 183.716069 273.312 
L 185.323145 273.312 
L 185.323145 187.821474 
L 183.716069 187.821474 
z
" clip-path="url(#peec692f53a)" style="fill: #1f77b4"/>
   </g>
   <g id="patch_75">
    <path d="M 185.323145 273.312 
L 186.93022 273.312 
L 186.93022 184.183579 
L 185.323145 184.183579 
z
" clip-path="url(#peec692f53a)" style="fill: #1f77b4"/>
   </g>
   <g id="patch_76">
    <path d="M 186.93022 273.312 
L 188.537296 273.312 
L 188.537296 189.640421 
L 186.93022 189.640421 
z
" clip-path="url(#peec692f53a)" style="fill: #1f77b4"/>
   </g>
   <g id="patch_77">
    <path d="M 188.537296 273.312 
L 190.144372 273.312 
L 190.144372 179.939368 
L 188.537296 179.939368 
z
" clip-path="url(#peec692f53a)" style="fill: #1f77b4"/>
   </g>
   <g id="patch_78">
    <path d="M 190.144372 273.312 
L 191.751448 273.312 
L 191.751448 190.246737 
L 190.144372 190.246737 
z
" clip-path="url(#peec692f53a)" style="fill: #1f77b4"/>
   </g>
   <g id="patch_79">
    <path d="M 191.751448 273.312 
L 193.358524 273.312 
L 193.358524 187.821474 
L 191.751448 187.821474 
z
" clip-path="url(#peec692f53a)" style="fill: #1f77b4"/>
   </g>
   <g id="patch_80">
    <path d="M 193.358524 273.312 
L 194.965599 273.312 
L 194.965599 178.726737 
L 193.358524 178.726737 
z
" clip-path="url(#peec692f53a)" style="fill: #1f77b4"/>
   </g>
   <g id="patch_81">
    <path d="M 194.965599 273.312 
L 196.572675 273.312 
L 196.572675 170.238316 
L 194.965599 170.238316 
z
" clip-path="url(#peec692f53a)" style="fill: #1f77b4"/>
   </g>
   <g id="patch_82">
    <path d="M 196.572675 273.312 
L 198.179751 273.312 
L 198.179751 181.152 
L 196.572675 181.152 
z
" clip-path="url(#peec692f53a)" style="fill: #1f77b4"/>
   </g>
   <g id="patch_83">
    <path d="M 198.179751 273.312 
L 199.786827 273.312 
L 199.786827 175.695158 
L 198.179751 175.695158 
z
" clip-path="url(#peec692f53a)" style="fill: #1f77b4"/>
   </g>
   <g id="patch_84">
    <path d="M 199.786827 273.312 
L 201.393903 273.312 
L 201.393903 179.333053 
L 199.786827 179.333053 
z
" clip-path="url(#peec692f53a)" style="fill: #1f77b4"/>
   </g>
   <g id="patch_85">
    <path d="M 201.393903 273.312 
L 203.000978 273.312 
L 203.000978 170.238316 
L 201.393903 170.238316 
z
" clip-path="url(#peec692f53a)" style="fill: #1f77b4"/>
   </g>
   <g id="patch_86">
    <path d="M 203.000978 273.312 
L 204.608054 273.312 
L 204.608054 173.269895 
L 203.000978 173.269895 
z
" clip-path="url(#peec692f53a)" style="fill: #1f77b4"/>
   </g>
   <g id="patch_87">
    <path d="M 204.608054 273.312 
L 206.21513 273.312 
L 206.21513 176.907789 
L 204.608054 176.907789 
z
" clip-path="url(#peec692f53a)" style="fill: #1f77b4"/>
   </g>
   <g id="patch_88">
    <path d="M 206.21513 273.312 
L 207.822206 273.312 
L 207.822206 180.545684 
L 206.21513 180.545684 
z
" clip-path="url(#peec692f53a)" style="fill: #1f77b4"/>
   </g>
   <g id="patch_89">
    <path d="M 207.822206 273.312 
L 209.429282 273.312 
L 209.429282 176.907789 
L 207.822206 176.907789 
z
" clip-path="url(#peec692f53a)" style="fill: #1f77b4"/>
   </g>
   <g id="patch_90">
    <path d="M 209.429282 273.312 
L 211.036357 273.312 
L 211.036357 173.269895 
L 209.429282 173.269895 
z
" clip-path="url(#peec692f53a)" style="fill: #1f77b4"/>
   </g>
   <g id="patch_91">
    <path d="M 211.036357 273.312 
L 212.643433 273.312 
L 212.643433 159.930947 
L 211.036357 159.930947 
z
" clip-path="url(#peec692f53a)" style="fill: #1f77b4"/>
   </g>
   <g id="patch_92">
    <path d="M 212.643433 273.312 
L 214.250509 273.312 
L 214.250509 169.632 
L 212.643433 169.632 
z
" clip-path="url(#peec692f53a)" style="fill: #1f77b4"/>
   </g>
   <g id="patch_93">
    <path d="M 214.250509 273.312 
L 215.857585 273.312 
L 215.857585 168.419368 
L 214.250509 168.419368 
z
" clip-path="url(#peec692f53a)" style="fill: #1f77b4"/>
   </g>
   <g id="patch_94">
    <path d="M 215.857585 273.312 
L 217.464661 273.312 
L 217.464661 164.175158 
L 215.857585 164.175158 
z
" clip-path="url(#peec692f53a)" style="fill: #1f77b4"/>
   </g>
   <g id="patch_95">
    <path d="M 217.464661 273.312 
L 219.071737 273.312 
L 219.071737 155.080421 
L 217.464661 155.080421 
z
" clip-path="url(#peec692f53a)" style="fill: #1f77b4"/>
   </g>
   <g id="patch_96">
    <path d="M 219.071737 273.312 
L 220.678812 273.312 
L 220.678812 146.592 
L 219.071737 146.592 
z
" clip-path="url(#peec692f53a)" style="fill: #1f77b4"/>
   </g>
   <g id="patch_97">
    <path d="M 220.678812 273.312 
L 222.285888 273.312 
L 222.285888 174.482526 
L 220.678812 174.482526 
z
" clip-path="url(#peec692f53a)" style="fill: #1f77b4"/>
   </g>
   <g id="patch_98">
    <path d="M 222.285888 273.312 
L 223.892964 273.312 
L 223.892964 164.175158 
L 222.285888 164.175158 
z
" clip-path="url(#peec692f53a)" style="fill: #1f77b4"/>
   </g>
   <g id="patch_99">
    <path d="M 223.892964 273.312 
L 225.50004 273.312 
L 225.50004 156.293053 
L 223.892964 156.293053 
z
" clip-path="url(#peec692f53a)" style="fill: #1f77b4"/>
   </g>
   <g id="patch_100">
    <path d="M 225.50004 273.312 
L 227.107116 273.312 
L 227.107116 153.867789 
L 225.50004 153.867789 
z
" clip-path="url(#peec692f53a)" style="fill: #1f77b4"/>
   </g>
   <g id="patch_101">
    <path d="M 227.107116 273.312 
L 228.714191 273.312 
L 228.714191 153.261474 
L 227.107116 153.261474 
z
" clip-path="url(#peec692f53a)" style="fill: #1f77b4"/>
   </g>
   <g id="patch_102">
    <path d="M 228.714191 273.312 
L 230.321267 273.312 
L 230.321267 159.324632 
L 228.714191 159.324632 
z
" clip-path="url(#peec692f53a)" style="fill: #1f77b4"/>
   </g>
   <g id="patch_103">
    <path d="M 230.321267 273.312 
L 231.928343 273.312 
L 231.928343 156.293053 
L 230.321267 156.293053 
z
" clip-path="url(#peec692f53a)" style="fill: #1f77b4"/>
   </g>
   <g id="patch_104">
    <path d="M 231.928343 273.312 
L 233.535419 273.312 
L 233.535419 147.198316 
L 231.928343 147.198316 
z
" clip-path="url(#peec692f53a)" style="fill: #1f77b4"/>
   </g>
   <g id="patch_105">
    <path d="M 233.535419 273.312 
L 235.142495 273.312 
L 235.142495 153.261474 
L 233.535419 153.261474 
z
" clip-path="url(#peec692f53a)" style="fill: #1f77b4"/>
   </g>
   <g id="patch_106">
    <path d="M 235.142495 273.312 
L 236.74957 273.312 
L 236.74957 130.221474 
L 235.142495 130.221474 
z
" clip-path="url(#peec692f53a)" style="fill: #1f77b4"/>
   </g>
   <g id="patch_107">
    <path d="M 236.74957 273.312 
L 238.356646 273.312 
L 238.356646 141.135158 
L 236.74957 141.135158 
z
" clip-path="url(#peec692f53a)" style="fill: #1f77b4"/>
   </g>
   <g id="patch_108">
    <path d="M 238.356646 273.312 
L 239.963722 273.312 
L 239.963722 149.017263 
L 238.356646 149.017263 
z
" clip-path="url(#peec692f53a)" style="fill: #1f77b4"/>
   </g>
   <g id="patch_109">
    <path d="M 239.963722 273.312 
L 241.570798 273.312 
L 241.570798 147.804632 
L 239.963722 147.804632 
z
" clip-path="url(#peec692f53a)" style="fill: #1f77b4"/>
   </g>
   <g id="patch_110">
    <path d="M 241.570798 273.312 
L 243.177874 273.312 
L 243.177874 147.198316 
L 241.570798 147.198316 
z
" clip-path="url(#peec692f53a)" style="fill: #1f77b4"/>
   </g>
   <g id="patch_111">
    <path d="M 243.177874 273.312 
L 244.784949 273.312 
L 244.784949 141.741474 
L 243.177874 141.741474 
z
" clip-path="url(#peec692f53a)" style="fill: #1f77b4"/>
   </g>
   <g id="patch_112">
    <path d="M 244.784949 273.312 
L 246.392025 273.312 
L 246.392025 149.623579 
L 244.784949 149.623579 
z
" clip-path="url(#peec692f53a)" style="fill: #1f77b4"/>
   </g>
   <g id="patch_113">
    <path d="M 246.392025 273.312 
L 247.999101 273.312 
L 247.999101 138.709895 
L 246.392025 138.709895 
z
" clip-path="url(#peec692f53a)" style="fill: #1f77b4"/>
   </g>
   <g id="patch_114">
    <path d="M 247.999101 273.312 
L 249.606177 273.312 
L 249.606177 119.307789 
L 247.999101 119.307789 
z
" clip-path="url(#peec692f53a)" style="fill: #1f77b4"/>
   </g>
   <g id="patch_115">
    <path d="M 249.606177 273.312 
L 251.213253 273.312 
L 251.213253 149.623579 
L 249.606177 149.623579 
z
" clip-path="url(#peec692f53a)" style="fill: #1f77b4"/>
   </g>
   <g id="patch_116">
    <path d="M 251.213253 273.312 
L 252.820328 273.312 
L 252.820328 141.741474 
L 251.213253 141.741474 
z
" clip-path="url(#peec692f53a)" style="fill: #1f77b4"/>
   </g>
   <g id="patch_117">
    <path d="M 252.820328 273.312 
L 254.427404 273.312 
L 254.427404 114.457263 
L 252.820328 114.457263 
z
" clip-path="url(#peec692f53a)" style="fill: #1f77b4"/>
   </g>
   <g id="patch_118">
    <path d="M 254.427404 273.312 
L 256.03448 273.312 
L 256.03448 135.072 
L 254.427404 135.072 
z
" clip-path="url(#peec692f53a)" style="fill: #1f77b4"/>
   </g>
   <g id="patch_119">
    <path d="M 256.03448 273.312 
L 257.641556 273.312 
L 257.641556 133.253053 
L 256.03448 133.253053 
z
" clip-path="url(#peec692f53a)" style="fill: #1f77b4"/>
   </g>
   <g id="patch_120">
    <path d="M 257.641556 273.312 
L 259.248632 273.312 
L 259.248632 125.977263 
L 257.641556 125.977263 
z
" clip-path="url(#peec692f53a)" style="fill: #1f77b4"/>
   </g>
   <g id="patch_121">
    <path d="M 259.248632 273.312 
L 260.855707 273.312 
L 260.855707 125.977263 
L 259.248632 125.977263 
z
" clip-path="url(#peec692f53a)" style="fill: #1f77b4"/>
   </g>
   <g id="patch_122">
    <path d="M 260.855707 273.312 
L 262.462783 273.312 
L 262.462783 118.095158 
L 260.855707 118.095158 
z
" clip-path="url(#peec692f53a)" style="fill: #1f77b4"/>
   </g>
   <g id="patch_123">
    <path d="M 262.462783 273.312 
L 264.069859 273.312 
L 264.069859 121.733053 
L 262.462783 121.733053 
z
" clip-path="url(#peec692f53a)" style="fill: #1f77b4"/>
   </g>
   <g id="patch_124">
    <path d="M 264.069859 273.312 
L 265.676935 273.312 
L 265.676935 140.528842 
L 264.069859 140.528842 
z
" clip-path="url(#peec692f53a)" style="fill: #1f77b4"/>
   </g>
   <g id="patch_125">
    <path d="M 265.676935 273.312 
L 267.284011 273.312 
L 267.284011 118.701474 
L 265.676935 118.701474 
z
" clip-path="url(#peec692f53a)" style="fill: #1f77b4"/>
   </g>
   <g id="patch_126">
    <path d="M 267.284011 273.312 
L 268.891086 273.312 
L 268.891086 130.221474 
L 267.284011 130.221474 
z
" clip-path="url(#peec692f53a)" style="fill: #1f77b4"/>
   </g>
   <g id="patch_127">
    <path d="M 268.891086 273.312 
L 270.498162 273.312 
L 270.498162 124.764632 
L 268.891086 124.764632 
z
" clip-path="url(#peec692f53a)" style="fill: #1f77b4"/>
   </g>
   <g id="patch_128">
    <path d="M 270.498162 273.312 
L 272.105238 273.312 
L 272.105238 114.457263 
L 270.498162 114.457263 
z
" clip-path="url(#peec692f53a)" style="fill: #1f77b4"/>
   </g>
   <g id="patch_129">
    <path d="M 272.105238 273.312 
L 273.712314 273.312 
L 273.712314 128.402526 
L 272.105238 128.402526 
z
" clip-path="url(#peec692f53a)" style="fill: #1f77b4"/>
   </g>
   <g id="patch_130">
    <path d="M 273.712314 273.312 
L 275.31939 273.312 
L 275.31939 129.615158 
L 273.712314 129.615158 
z
" clip-path="url(#peec692f53a)" style="fill: #1f77b4"/>
   </g>
   <g id="patch_131">
    <path d="M 275.31939 273.312 
L 276.926465 273.312 
L 276.926465 110.213053 
L 275.31939 110.213053 
z
" clip-path="url(#peec692f53a)" style="fill: #1f77b4"/>
   </g>
   <g id="patch_132">
    <path d="M 276.926465 273.312 
L 278.533541 273.312 
L 278.533541 121.733053 
L 276.926465 121.733053 
z
" clip-path="url(#peec692f53a)" style="fill: #1f77b4"/>
   </g>
   <g id="patch_133">
    <path d="M 278.533541 273.312 
L 280.140617 273.312 
L 280.140617 127.796211 
L 278.533541 127.796211 
z
" clip-path="url(#peec692f53a)" style="fill: #1f77b4"/>
   </g>
   <g id="patch_134">
    <path d="M 280.140617 273.312 
L 281.747693 273.312 
L 281.747693 109.606737 
L 280.140617 109.606737 
z
" clip-path="url(#peec692f53a)" style="fill: #1f77b4"/>
   </g>
   <g id="patch_135">
    <path d="M 281.747693 273.312 
L 283.354769 273.312 
L 283.354769 115.063579 
L 281.747693 115.063579 
z
" clip-path="url(#peec692f53a)" style="fill: #1f77b4"/>
   </g>
   <g id="patch_136">
    <path d="M 283.354769 273.312 
L 284.961844 273.312 
L 284.961844 120.520421 
L 283.354769 120.520421 
z
" clip-path="url(#peec692f53a)" style="fill: #1f77b4"/>
   </g>
   <g id="patch_137">
    <path d="M 284.961844 273.312 
L 286.56892 273.312 
L 286.56892 97.480421 
L 284.961844 97.480421 
z
" clip-path="url(#peec692f53a)" style="fill: #1f77b4"/>
   </g>
   <g id="patch_138">
    <path d="M 286.56892 273.312 
L 288.175996 273.312 
L 288.175996 109.000421 
L 286.56892 109.000421 
z
" clip-path="url(#peec692f53a)" style="fill: #1f77b4"/>
   </g>
   <g id="patch_139">
    <path d="M 288.175996 273.312 
L 289.783072 273.312 
L 289.783072 115.063579 
L 288.175996 115.063579 
z
" clip-path="url(#peec692f53a)" style="fill: #1f77b4"/>
   </g>
   <g id="patch_140">
    <path d="M 289.783072 273.312 
L 291.390148 273.312 
L 291.390148 107.181474 
L 289.783072 107.181474 
z
" clip-path="url(#peec692f53a)" style="fill: #1f77b4"/>
   </g>
   <g id="patch_141">
    <path d="M 291.390148 273.312 
L 292.997223 273.312 
L 292.997223 102.330947 
L 291.390148 102.330947 
z
" clip-path="url(#peec692f53a)" style="fill: #1f77b4"/>
   </g>
   <g id="patch_142">
    <path d="M 292.997223 273.312 
L 294.604299 273.312 
L 294.604299 115.669895 
L 292.997223 115.669895 
z
" clip-path="url(#peec692f53a)" style="fill: #1f77b4"/>
   </g>
   <g id="patch_143">
    <path d="M 294.604299 273.312 
L 296.211375 273.312 
L 296.211375 109.000421 
L 294.604299 109.000421 
z
" clip-path="url(#peec692f53a)" style="fill: #1f77b4"/>
   </g>
   <g id="patch_144">
    <path d="M 296.211375 273.312 
L 297.818451 273.312 
L 297.818451 99.299368 
L 296.211375 99.299368 
z
" clip-path="url(#peec692f53a)" style="fill: #1f77b4"/>
   </g>
   <g id="patch_145">
    <path d="M 297.818451 273.312 
L 299.425527 273.312 
L 299.425527 89.598316 
L 297.818451 89.598316 
z
" clip-path="url(#peec692f53a)" style="fill: #1f77b4"/>
   </g>
   <g id="patch_146">
    <path d="M 299.425527 273.312 
L 301.032602 273.312 
L 301.032602 105.968842 
L 299.425527 105.968842 
z
" clip-path="url(#peec692f53a)" style="fill: #1f77b4"/>
   </g>
   <g id="patch_147">
    <path d="M 301.032602 273.312 
L 302.639678 273.312 
L 302.639678 96.267789 
L 301.032602 96.267789 
z
" clip-path="url(#peec692f53a)" style="fill: #1f77b4"/>
   </g>
   <g id="patch_148">
    <path d="M 302.639678 273.312 
L 304.246754 273.312 
L 304.246754 105.968842 
L 302.639678 105.968842 
z
" clip-path="url(#peec692f53a)" style="fill: #1f77b4"/>
   </g>
   <g id="patch_149">
    <path d="M 304.246754 273.312 
L 305.85383 273.312 
L 305.85383 100.512 
L 304.246754 100.512 
z
" clip-path="url(#peec692f53a)" style="fill: #1f77b4"/>
   </g>
   <g id="patch_150">
    <path d="M 305.85383 273.312 
L 307.460906 273.312 
L 307.460906 90.810947 
L 305.85383 90.810947 
z
" clip-path="url(#peec692f53a)" style="fill: #1f77b4"/>
   </g>
   <g id="patch_151">
    <path d="M 307.460906 273.312 
L 309.067981 273.312 
L 309.067981 75.046737 
L 307.460906 75.046737 
z
" clip-path="url(#peec692f53a)" style="fill: #1f77b4"/>
   </g>
   <g id="patch_152">
    <path d="M 309.067981 273.312 
L 310.675057 273.312 
L 310.675057 109.606737 
L 309.067981 109.606737 
z
" clip-path="url(#peec692f53a)" style="fill: #1f77b4"/>
   </g>
   <g id="patch_153">
    <path d="M 310.675057 273.312 
L 312.282133 273.312 
L 312.282133 86.566737 
L 310.675057 86.566737 
z
" clip-path="url(#peec692f53a)" style="fill: #1f77b4"/>
   </g>
   <g id="patch_154">
    <path d="M 312.282133 273.312 
L 313.889209 273.312 
L 313.889209 93.842526 
L 312.282133 93.842526 
z
" clip-path="url(#peec692f53a)" style="fill: #1f77b4"/>
   </g>
   <g id="patch_155">
    <path d="M 313.889209 273.312 
L 315.496285 273.312 
L 315.496285 88.385684 
L 313.889209 88.385684 
z
" clip-path="url(#peec692f53a)" style="fill: #1f77b4"/>
   </g>
   <g id="patch_156">
    <path d="M 315.496285 273.312 
L 317.10336 273.312 
L 317.10336 86.566737 
L 315.496285 86.566737 
z
" clip-path="url(#peec692f53a)" style="fill: #1f77b4"/>
   </g>
   <g id="patch_157">
    <path d="M 317.10336 273.312 
L 318.710436 273.312 
L 318.710436 104.756211 
L 317.10336 104.756211 
z
" clip-path="url(#peec692f53a)" style="fill: #1f77b4"/>
   </g>
   <g id="patch_158">
    <path d="M 318.710436 273.312 
L 320.317512 273.312 
L 320.317512 105.362526 
L 318.710436 105.362526 
z
" clip-path="url(#peec692f53a)" style="fill: #1f77b4"/>
   </g>
   <g id="patch_159">
    <path d="M 320.317512 273.312 
L 321.924588 273.312 
L 321.924588 102.330947 
L 320.317512 102.330947 
z
" clip-path="url(#peec692f53a)" style="fill: #1f77b4"/>
   </g>
   <g id="patch_160">
    <path d="M 321.924588 273.312 
L 323.531664 273.312 
L 323.531664 72.621474 
L 321.924588 72.621474 
z
" clip-path="url(#peec692f53a)" style="fill: #1f77b4"/>
   </g>
   <g id="patch_161">
    <path d="M 323.531664 273.312 
L 325.138739 273.312 
L 325.138739 68.377263 
L 323.531664 68.377263 
z
" clip-path="url(#peec692f53a)" style="fill: #1f77b4"/>
   </g>
   <g id="patch_162">
    <path d="M 325.138739 273.312 
L 326.745815 273.312 
L 326.745815 78.078316 
L 325.138739 78.078316 
z
" clip-path="url(#peec692f53a)" style="fill: #1f77b4"/>
   </g>
   <g id="patch_163">
    <path d="M 326.745815 273.312 
L 328.352891 273.312 
L 328.352891 75.653053 
L 326.745815 75.653053 
z
" clip-path="url(#peec692f53a)" style="fill: #1f77b4"/>
   </g>
   <g id="patch_164">
    <path d="M 328.352891 273.312 
L 329.959967 273.312 
L 329.959967 79.290947 
L 328.352891 79.290947 
z
" clip-path="url(#peec692f53a)" style="fill: #1f77b4"/>
   </g>
   <g id="patch_165">
    <path d="M 329.959967 273.312 
L 331.567043 273.312 
L 331.567043 81.716211 
L 329.959967 81.716211 
z
" clip-path="url(#peec692f53a)" style="fill: #1f77b4"/>
   </g>
   <g id="patch_166">
    <path d="M 331.567043 273.312 
L 333.174118 273.312 
L 333.174118 61.101474 
L 331.567043 61.101474 
z
" clip-path="url(#peec692f53a)" style="fill: #1f77b4"/>
   </g>
   <g id="patch_167">
    <path d="M 333.174118 273.312 
L 334.781194 273.312 
L 334.781194 60.495158 
L 333.174118 60.495158 
z
" clip-path="url(#peec692f53a)" style="fill: #1f77b4"/>
   </g>
   <g id="patch_168">
    <path d="M 334.781194 273.312 
L 336.38827 273.312 
L 336.38827 70.802526 
L 334.781194 70.802526 
z
" clip-path="url(#peec692f53a)" style="fill: #1f77b4"/>
   </g>
   <g id="patch_169">
    <path d="M 336.38827 273.312 
L 337.995346 273.312 
L 337.995346 57.463579 
L 336.38827 57.463579 
z
" clip-path="url(#peec692f53a)" style="fill: #1f77b4"/>
   </g>
   <g id="patch_170">
    <path d="M 337.995346 273.312 
L 339.602422 273.312 
L 339.602422 68.377263 
L 337.995346 68.377263 
z
" clip-path="url(#peec692f53a)" style="fill: #1f77b4"/>
   </g>
   <g id="patch_171">
    <path d="M 339.602422 273.312 
L 341.209497 273.312 
L 341.209497 75.653053 
L 339.602422 75.653053 
z
" clip-path="url(#peec692f53a)" style="fill: #1f77b4"/>
   </g>
   <g id="patch_172">
    <path d="M 341.209497 273.312 
L 342.816573 273.312 
L 342.816573 69.589895 
L 341.209497 69.589895 
z
" clip-path="url(#peec692f53a)" style="fill: #1f77b4"/>
   </g>
   <g id="patch_173">
    <path d="M 342.816573 273.312 
L 344.423649 273.312 
L 344.423649 70.196211 
L 342.816573 70.196211 
z
" clip-path="url(#peec692f53a)" style="fill: #1f77b4"/>
   </g>
   <g id="patch_174">
    <path d="M 344.423649 273.312 
L 346.030725 273.312 
L 346.030725 61.101474 
L 344.423649 61.101474 
z
" clip-path="url(#peec692f53a)" style="fill: #1f77b4"/>
   </g>
   <g id="patch_175">
    <path d="M 346.030725 273.312 
L 347.637801 273.312 
L 347.637801 51.400421 
L 346.030725 51.400421 
z
" clip-path="url(#peec692f53a)" style="fill: #1f77b4"/>
   </g>
   <g id="patch_176">
    <path d="M 347.637801 273.312 
L 349.244876 273.312 
L 349.244876 82.322526 
L 347.637801 82.322526 
z
" clip-path="url(#peec692f53a)" style="fill: #1f77b4"/>
   </g>
   <g id="patch_177">
    <path d="M 349.244876 273.312 
L 350.851952 273.312 
L 350.851952 42.912 
L 349.244876 42.912 
z
" clip-path="url(#peec692f53a)" style="fill: #1f77b4"/>
   </g>
   <g id="patch_178">
    <path d="M 350.851952 273.312 
L 352.459028 273.312 
L 352.459028 61.707789 
L 350.851952 61.707789 
z
" clip-path="url(#peec692f53a)" style="fill: #1f77b4"/>
   </g>
   <g id="patch_179">
    <path d="M 352.459028 273.312 
L 354.066104 273.312 
L 354.066104 62.920421 
L 352.459028 62.920421 
z
" clip-path="url(#peec692f53a)" style="fill: #1f77b4"/>
   </g>
   <g id="patch_180">
    <path d="M 354.066104 273.312 
L 355.67318 273.312 
L 355.67318 38.667789 
L 354.066104 38.667789 
z
" clip-path="url(#peec692f53a)" style="fill: #1f77b4"/>
   </g>
   <g id="patch_181">
    <path d="M 355.67318 273.312 
L 357.280255 273.312 
L 357.280255 79.290947 
L 355.67318 79.290947 
z
" clip-path="url(#peec692f53a)" style="fill: #1f77b4"/>
   </g>
   <g id="patch_182">
    <path d="M 357.280255 273.312 
L 358.887331 273.312 
L 358.887331 46.549895 
L 357.280255 46.549895 
z
" clip-path="url(#peec692f53a)" style="fill: #1f77b4"/>
   </g>
   <g id="patch_183">
    <path d="M 358.887331 273.312 
L 360.494407 273.312 
L 360.494407 59.888842 
L 358.887331 59.888842 
z
" clip-path="url(#peec692f53a)" style="fill: #1f77b4"/>
   </g>
   <g id="patch_184">
    <path d="M 360.494407 273.312 
L 362.101483 273.312 
L 362.101483 91.417263 
L 360.494407 91.417263 
z
" clip-path="url(#peec692f53a)" style="fill: #1f77b4"/>
   </g>
   <g id="patch_185">
    <path d="M 362.101483 273.312 
L 363.708559 273.312 
L 363.708559 52.006737 
L 362.101483 52.006737 
z
" clip-path="url(#peec692f53a)" style="fill: #1f77b4"/>
   </g>
   <g id="patch_186">
    <path d="M 363.708559 273.312 
L 365.315634 273.312 
L 365.315634 59.282526 
L 363.708559 59.282526 
z
" clip-path="url(#peec692f53a)" style="fill: #1f77b4"/>
   </g>
   <g id="patch_187">
    <path d="M 365.315634 273.312 
L 366.92271 273.312 
L 366.92271 55.644632 
L 365.315634 55.644632 
z
" clip-path="url(#peec692f53a)" style="fill: #1f77b4"/>
   </g>
   <g id="patch_188">
    <path d="M 366.92271 273.312 
L 368.529786 273.312 
L 368.529786 33.817263 
L 366.92271 33.817263 
z
" clip-path="url(#peec692f53a)" style="fill: #1f77b4"/>
   </g>
   <g id="patch_189">
    <path d="M 368.529786 273.312 
L 370.136862 273.312 
L 370.136862 55.038316 
L 368.529786 55.038316 
z
" clip-path="url(#peec692f53a)" style="fill: #1f77b4"/>
   </g>
   <g id="patch_190">
    <path d="M 370.136862 273.312 
L 371.743938 273.312 
L 371.743938 46.549895 
L 370.136862 46.549895 
z
" clip-path="url(#peec692f53a)" style="fill: #1f77b4"/>
   </g>
   <g id="patch_191">
    <path d="M 371.743938 273.312 
L 373.351013 273.312 
L 373.351013 68.377263 
L 371.743938 68.377263 
z
" clip-path="url(#peec692f53a)" style="fill: #1f77b4"/>
   </g>
   <g id="patch_192">
    <path d="M 373.351013 273.312 
L 374.958089 273.312 
L 374.958089 49.581474 
L 373.351013 49.581474 
z
" clip-path="url(#peec692f53a)" style="fill: #1f77b4"/>
   </g>
   <g id="patch_193">
    <path d="M 374.958089 273.312 
L 376.565165 273.312 
L 376.565165 35.636211 
L 374.958089 35.636211 
z
" clip-path="url(#peec692f53a)" style="fill: #1f77b4"/>
   </g>
   <g id="patch_194">
    <path d="M 376.565165 273.312 
L 378.172241 273.312 
L 378.172241 19.872 
L 376.565165 19.872 
z
" clip-path="url(#peec692f53a)" style="fill: #1f77b4"/>
   </g>
   <g id="patch_195">
    <path d="M 378.172241 273.312 
L 379.779317 273.312 
L 379.779317 44.124632 
L 378.172241 44.124632 
z
" clip-path="url(#peec692f53a)" style="fill: #1f77b4"/>
   </g>
   <g id="patch_196">
    <path d="M 379.779317 273.312 
L 381.386392 273.312 
L 381.386392 44.124632 
L 379.779317 44.124632 
z
" clip-path="url(#peec692f53a)" style="fill: #1f77b4"/>
   </g>
   <g id="patch_197">
    <path d="M 381.386392 273.312 
L 382.993468 273.312 
L 382.993468 33.817263 
L 381.386392 33.817263 
z
" clip-path="url(#peec692f53a)" style="fill: #1f77b4"/>
   </g>
   <g id="patch_198">
    <path d="M 382.993468 273.312 
L 384.600544 273.312 
L 384.600544 38.667789 
L 382.993468 38.667789 
z
" clip-path="url(#peec692f53a)" style="fill: #1f77b4"/>
   </g>
   <g id="patch_199">
    <path d="M 384.600544 273.312 
L 386.20762 273.312 
L 386.20762 25.935158 
L 384.600544 25.935158 
z
" clip-path="url(#peec692f53a)" style="fill: #1f77b4"/>
   </g>
   <g id="patch_200">
    <path d="M 386.20762 273.312 
L 387.814696 273.312 
L 387.814696 50.187789 
L 386.20762 50.187789 
z
" clip-path="url(#peec692f53a)" style="fill: #1f77b4"/>
   </g>
   <g id="patch_201">
    <path d="M 387.814696 273.312 
L 389.421771 273.312 
L 389.421771 35.029895 
L 387.814696 35.029895 
z
" clip-path="url(#peec692f53a)" style="fill: #1f77b4"/>
   </g>
   <g id="patch_202">
    <path d="M 389.421771 273.312 
L 391.028847 273.312 
L 391.028847 42.912 
L 389.421771 42.912 
z
" clip-path="url(#peec692f53a)" style="fill: #1f77b4"/>
   </g>
   <g id="matplotlib.axis_1">
    <g id="xtick_1">
     <g id="line2d_1">
      <defs>
       <path id="mb6bb19d251" d="M 0 0 
L 0 3.5 
" style="stroke: #000000; stroke-width: 0.8"/>
      </defs>
      <g>
       <use xlink:href="#mb6bb19d251" x="66.376477" y="273.312" style="stroke: #000000; stroke-width: 0.8"/>
      </g>
     </g>
     <g id="text_1">
      <!-- 0.0 -->
      <g transform="translate(58.424915 287.910437)scale(0.1 -0.1)">
       <defs>
        <path id="DejaVuSans-30" d="M 2034 4250 
Q 1547 4250 1301 3770 
Q 1056 3291 1056 2328 
Q 1056 1369 1301 889 
Q 1547 409 2034 409 
Q 2525 409 2770 889 
Q 3016 1369 3016 2328 
Q 3016 3291 2770 3770 
Q 2525 4250 2034 4250 
z
M 2034 4750 
Q 2819 4750 3233 4129 
Q 3647 3509 3647 2328 
Q 3647 1150 3233 529 
Q 2819 -91 2034 -91 
Q 1250 -91 836 529 
Q 422 1150 422 2328 
Q 422 3509 836 4129 
Q 1250 4750 2034 4750 
z
" transform="scale(0.015625)"/>
        <path id="DejaVuSans-2e" d="M 684 794 
L 1344 794 
L 1344 0 
L 684 0 
L 684 794 
z
" transform="scale(0.015625)"/>
       </defs>
       <use xlink:href="#DejaVuSans-30"/>
       <use xlink:href="#DejaVuSans-2e" x="63.623047"/>
       <use xlink:href="#DejaVuSans-30" x="95.410156"/>
      </g>
     </g>
    </g>
    <g id="xtick_2">
     <g id="line2d_2">
      <g>
       <use xlink:href="#mb6bb19d251" x="131.307386" y="273.312" style="stroke: #000000; stroke-width: 0.8"/>
      </g>
     </g>
     <g id="text_2">
      <!-- 0.2 -->
      <g transform="translate(123.355824 287.910437)scale(0.1 -0.1)">
       <defs>
        <path id="DejaVuSans-32" d="M 1228 531 
L 3431 531 
L 3431 0 
L 469 0 
L 469 531 
Q 828 903 1448 1529 
Q 2069 2156 2228 2338 
Q 2531 2678 2651 2914 
Q 2772 3150 2772 3378 
Q 2772 3750 2511 3984 
Q 2250 4219 1831 4219 
Q 1534 4219 1204 4116 
Q 875 4013 500 3803 
L 500 4441 
Q 881 4594 1212 4672 
Q 1544 4750 1819 4750 
Q 2544 4750 2975 4387 
Q 3406 4025 3406 3419 
Q 3406 3131 3298 2873 
Q 3191 2616 2906 2266 
Q 2828 2175 2409 1742 
Q 1991 1309 1228 531 
z
" transform="scale(0.015625)"/>
       </defs>
       <use xlink:href="#DejaVuSans-30"/>
       <use xlink:href="#DejaVuSans-2e" x="63.623047"/>
       <use xlink:href="#DejaVuSans-32" x="95.410156"/>
      </g>
     </g>
    </g>
    <g id="xtick_3">
     <g id="line2d_3">
      <g>
       <use xlink:href="#mb6bb19d251" x="196.238295" y="273.312" style="stroke: #000000; stroke-width: 0.8"/>
      </g>
     </g>
     <g id="text_3">
      <!-- 0.4 -->
      <g transform="translate(188.286733 287.910437)scale(0.1 -0.1)">
       <defs>
        <path id="DejaVuSans-34" d="M 2419 4116 
L 825 1625 
L 2419 1625 
L 2419 4116 
z
M 2253 4666 
L 3047 4666 
L 3047 1625 
L 3713 1625 
L 3713 1100 
L 3047 1100 
L 3047 0 
L 2419 0 
L 2419 1100 
L 313 1100 
L 313 1709 
L 2253 4666 
z
" transform="scale(0.015625)"/>
       </defs>
       <use xlink:href="#DejaVuSans-30"/>
       <use xlink:href="#DejaVuSans-2e" x="63.623047"/>
       <use xlink:href="#DejaVuSans-34" x="95.410156"/>
      </g>
     </g>
    </g>
    <g id="xtick_4">
     <g id="line2d_4">
      <g>
       <use xlink:href="#mb6bb19d251" x="261.169205" y="273.312" style="stroke: #000000; stroke-width: 0.8"/>
      </g>
     </g>
     <g id="text_4">
      <!-- 0.6 -->
      <g transform="translate(253.217642 287.910437)scale(0.1 -0.1)">
       <defs>
        <path id="DejaVuSans-36" d="M 2113 2584 
Q 1688 2584 1439 2293 
Q 1191 2003 1191 1497 
Q 1191 994 1439 701 
Q 1688 409 2113 409 
Q 2538 409 2786 701 
Q 3034 994 3034 1497 
Q 3034 2003 2786 2293 
Q 2538 2584 2113 2584 
z
M 3366 4563 
L 3366 3988 
Q 3128 4100 2886 4159 
Q 2644 4219 2406 4219 
Q 1781 4219 1451 3797 
Q 1122 3375 1075 2522 
Q 1259 2794 1537 2939 
Q 1816 3084 2150 3084 
Q 2853 3084 3261 2657 
Q 3669 2231 3669 1497 
Q 3669 778 3244 343 
Q 2819 -91 2113 -91 
Q 1303 -91 875 529 
Q 447 1150 447 2328 
Q 447 3434 972 4092 
Q 1497 4750 2381 4750 
Q 2619 4750 2861 4703 
Q 3103 4656 3366 4563 
z
" transform="scale(0.015625)"/>
       </defs>
       <use xlink:href="#DejaVuSans-30"/>
       <use xlink:href="#DejaVuSans-2e" x="63.623047"/>
       <use xlink:href="#DejaVuSans-36" x="95.410156"/>
      </g>
     </g>
    </g>
    <g id="xtick_5">
     <g id="line2d_5">
      <g>
       <use xlink:href="#mb6bb19d251" x="326.100114" y="273.312" style="stroke: #000000; stroke-width: 0.8"/>
      </g>
     </g>
     <g id="text_5">
      <!-- 0.8 -->
      <g transform="translate(318.148551 287.910437)scale(0.1 -0.1)">
       <defs>
        <path id="DejaVuSans-38" d="M 2034 2216 
Q 1584 2216 1326 1975 
Q 1069 1734 1069 1313 
Q 1069 891 1326 650 
Q 1584 409 2034 409 
Q 2484 409 2743 651 
Q 3003 894 3003 1313 
Q 3003 1734 2745 1975 
Q 2488 2216 2034 2216 
z
M 1403 2484 
Q 997 2584 770 2862 
Q 544 3141 544 3541 
Q 544 4100 942 4425 
Q 1341 4750 2034 4750 
Q 2731 4750 3128 4425 
Q 3525 4100 3525 3541 
Q 3525 3141 3298 2862 
Q 3072 2584 2669 2484 
Q 3125 2378 3379 2068 
Q 3634 1759 3634 1313 
Q 3634 634 3220 271 
Q 2806 -91 2034 -91 
Q 1263 -91 848 271 
Q 434 634 434 1313 
Q 434 1759 690 2068 
Q 947 2378 1403 2484 
z
M 1172 3481 
Q 1172 3119 1398 2916 
Q 1625 2713 2034 2713 
Q 2441 2713 2670 2916 
Q 2900 3119 2900 3481 
Q 2900 3844 2670 4047 
Q 2441 4250 2034 4250 
Q 1625 4250 1398 4047 
Q 1172 3844 1172 3481 
z
" transform="scale(0.015625)"/>
       </defs>
       <use xlink:href="#DejaVuSans-30"/>
       <use xlink:href="#DejaVuSans-2e" x="63.623047"/>
       <use xlink:href="#DejaVuSans-38" x="95.410156"/>
      </g>
     </g>
    </g>
    <g id="xtick_6">
     <g id="line2d_6">
      <g>
       <use xlink:href="#mb6bb19d251" x="391.031023" y="273.312" style="stroke: #000000; stroke-width: 0.8"/>
      </g>
     </g>
     <g id="text_6">
      <!-- 1.0 -->
      <g transform="translate(383.07946 287.910437)scale(0.1 -0.1)">
       <defs>
        <path id="DejaVuSans-31" d="M 794 531 
L 1825 531 
L 1825 4091 
L 703 3866 
L 703 4441 
L 1819 4666 
L 2450 4666 
L 2450 531 
L 3481 531 
L 3481 0 
L 794 0 
L 794 531 
z
" transform="scale(0.015625)"/>
       </defs>
       <use xlink:href="#DejaVuSans-31"/>
       <use xlink:href="#DejaVuSans-2e" x="63.623047"/>
       <use xlink:href="#DejaVuSans-30" x="95.410156"/>
      </g>
     </g>
    </g>
    <g id="text_7">
     <!-- Propagation direction -->
     <g transform="translate(175.221719 301.588562)scale(0.1 -0.1)">
      <defs>
       <path id="DejaVuSans-50" d="M 1259 4147 
L 1259 2394 
L 2053 2394 
Q 2494 2394 2734 2622 
Q 2975 2850 2975 3272 
Q 2975 3691 2734 3919 
Q 2494 4147 2053 4147 
L 1259 4147 
z
M 628 4666 
L 2053 4666 
Q 2838 4666 3239 4311 
Q 3641 3956 3641 3272 
Q 3641 2581 3239 2228 
Q 2838 1875 2053 1875 
L 1259 1875 
L 1259 0 
L 628 0 
L 628 4666 
z
" transform="scale(0.015625)"/>
       <path id="DejaVuSans-72" d="M 2631 2963 
Q 2534 3019 2420 3045 
Q 2306 3072 2169 3072 
Q 1681 3072 1420 2755 
Q 1159 2438 1159 1844 
L 1159 0 
L 581 0 
L 581 3500 
L 1159 3500 
L 1159 2956 
Q 1341 3275 1631 3429 
Q 1922 3584 2338 3584 
Q 2397 3584 2469 3576 
Q 2541 3569 2628 3553 
L 2631 2963 
z
" transform="scale(0.015625)"/>
       <path id="DejaVuSans-6f" d="M 1959 3097 
Q 1497 3097 1228 2736 
Q 959 2375 959 1747 
Q 959 1119 1226 758 
Q 1494 397 1959 397 
Q 2419 397 2687 759 
Q 2956 1122 2956 1747 
Q 2956 2369 2687 2733 
Q 2419 3097 1959 3097 
z
M 1959 3584 
Q 2709 3584 3137 3096 
Q 3566 2609 3566 1747 
Q 3566 888 3137 398 
Q 2709 -91 1959 -91 
Q 1206 -91 779 398 
Q 353 888 353 1747 
Q 353 2609 779 3096 
Q 1206 3584 1959 3584 
z
" transform="scale(0.015625)"/>
       <path id="DejaVuSans-70" d="M 1159 525 
L 1159 -1331 
L 581 -1331 
L 581 3500 
L 1159 3500 
L 1159 2969 
Q 1341 3281 1617 3432 
Q 1894 3584 2278 3584 
Q 2916 3584 3314 3078 
Q 3713 2572 3713 1747 
Q 3713 922 3314 415 
Q 2916 -91 2278 -91 
Q 1894 -91 1617 61 
Q 1341 213 1159 525 
z
M 3116 1747 
Q 3116 2381 2855 2742 
Q 2594 3103 2138 3103 
Q 1681 3103 1420 2742 
Q 1159 2381 1159 1747 
Q 1159 1113 1420 752 
Q 1681 391 2138 391 
Q 2594 391 2855 752 
Q 3116 1113 3116 1747 
z
" transform="scale(0.015625)"/>
       <path id="DejaVuSans-61" d="M 2194 1759 
Q 1497 1759 1228 1600 
Q 959 1441 959 1056 
Q 959 750 1161 570 
Q 1363 391 1709 391 
Q 2188 391 2477 730 
Q 2766 1069 2766 1631 
L 2766 1759 
L 2194 1759 
z
M 3341 1997 
L 3341 0 
L 2766 0 
L 2766 531 
Q 2569 213 2275 61 
Q 1981 -91 1556 -91 
Q 1019 -91 701 211 
Q 384 513 384 1019 
Q 384 1609 779 1909 
Q 1175 2209 1959 2209 
L 2766 2209 
L 2766 2266 
Q 2766 2663 2505 2880 
Q 2244 3097 1772 3097 
Q 1472 3097 1187 3025 
Q 903 2953 641 2809 
L 641 3341 
Q 956 3463 1253 3523 
Q 1550 3584 1831 3584 
Q 2591 3584 2966 3190 
Q 3341 2797 3341 1997 
z
" transform="scale(0.015625)"/>
       <path id="DejaVuSans-67" d="M 2906 1791 
Q 2906 2416 2648 2759 
Q 2391 3103 1925 3103 
Q 1463 3103 1205 2759 
Q 947 2416 947 1791 
Q 947 1169 1205 825 
Q 1463 481 1925 481 
Q 2391 481 2648 825 
Q 2906 1169 2906 1791 
z
M 3481 434 
Q 3481 -459 3084 -895 
Q 2688 -1331 1869 -1331 
Q 1566 -1331 1297 -1286 
Q 1028 -1241 775 -1147 
L 775 -588 
Q 1028 -725 1275 -790 
Q 1522 -856 1778 -856 
Q 2344 -856 2625 -561 
Q 2906 -266 2906 331 
L 2906 616 
Q 2728 306 2450 153 
Q 2172 0 1784 0 
Q 1141 0 747 490 
Q 353 981 353 1791 
Q 353 2603 747 3093 
Q 1141 3584 1784 3584 
Q 2172 3584 2450 3431 
Q 2728 3278 2906 2969 
L 2906 3500 
L 3481 3500 
L 3481 434 
z
" transform="scale(0.015625)"/>
       <path id="DejaVuSans-74" d="M 1172 4494 
L 1172 3500 
L 2356 3500 
L 2356 3053 
L 1172 3053 
L 1172 1153 
Q 1172 725 1289 603 
Q 1406 481 1766 481 
L 2356 481 
L 2356 0 
L 1766 0 
Q 1100 0 847 248 
Q 594 497 594 1153 
L 594 3053 
L 172 3053 
L 172 3500 
L 594 3500 
L 594 4494 
L 1172 4494 
z
" transform="scale(0.015625)"/>
       <path id="DejaVuSans-69" d="M 603 3500 
L 1178 3500 
L 1178 0 
L 603 0 
L 603 3500 
z
M 603 4863 
L 1178 4863 
L 1178 4134 
L 603 4134 
L 603 4863 
z
" transform="scale(0.015625)"/>
       <path id="DejaVuSans-6e" d="M 3513 2113 
L 3513 0 
L 2938 0 
L 2938 2094 
Q 2938 2591 2744 2837 
Q 2550 3084 2163 3084 
Q 1697 3084 1428 2787 
Q 1159 2491 1159 1978 
L 1159 0 
L 581 0 
L 581 3500 
L 1159 3500 
L 1159 2956 
Q 1366 3272 1645 3428 
Q 1925 3584 2291 3584 
Q 2894 3584 3203 3211 
Q 3513 2838 3513 2113 
z
" transform="scale(0.015625)"/>
       <path id="DejaVuSans-20" transform="scale(0.015625)"/>
       <path id="DejaVuSans-64" d="M 2906 2969 
L 2906 4863 
L 3481 4863 
L 3481 0 
L 2906 0 
L 2906 525 
Q 2725 213 2448 61 
Q 2172 -91 1784 -91 
Q 1150 -91 751 415 
Q 353 922 353 1747 
Q 353 2572 751 3078 
Q 1150 3584 1784 3584 
Q 2172 3584 2448 3432 
Q 2725 3281 2906 2969 
z
M 947 1747 
Q 947 1113 1208 752 
Q 1469 391 1925 391 
Q 2381 391 2643 752 
Q 2906 1113 2906 1747 
Q 2906 2381 2643 2742 
Q 2381 3103 1925 3103 
Q 1469 3103 1208 2742 
Q 947 2381 947 1747 
z
" transform="scale(0.015625)"/>
       <path id="DejaVuSans-65" d="M 3597 1894 
L 3597 1613 
L 953 1613 
Q 991 1019 1311 708 
Q 1631 397 2203 397 
Q 2534 397 2845 478 
Q 3156 559 3463 722 
L 3463 178 
Q 3153 47 2828 -22 
Q 2503 -91 2169 -91 
Q 1331 -91 842 396 
Q 353 884 353 1716 
Q 353 2575 817 3079 
Q 1281 3584 2069 3584 
Q 2775 3584 3186 3129 
Q 3597 2675 3597 1894 
z
M 3022 2063 
Q 3016 2534 2758 2815 
Q 2500 3097 2075 3097 
Q 1594 3097 1305 2825 
Q 1016 2553 972 2059 
L 3022 2063 
z
" transform="scale(0.015625)"/>
       <path id="DejaVuSans-63" d="M 3122 3366 
L 3122 2828 
Q 2878 2963 2633 3030 
Q 2388 3097 2138 3097 
Q 1578 3097 1268 2742 
Q 959 2388 959 1747 
Q 959 1106 1268 751 
Q 1578 397 2138 397 
Q 2388 397 2633 464 
Q 2878 531 3122 666 
L 3122 134 
Q 2881 22 2623 -34 
Q 2366 -91 2075 -91 
Q 1284 -91 818 406 
Q 353 903 353 1747 
Q 353 2603 823 3093 
Q 1294 3584 2113 3584 
Q 2378 3584 2631 3529 
Q 2884 3475 3122 3366 
z
" transform="scale(0.015625)"/>
      </defs>
      <use xlink:href="#DejaVuSans-50"/>
      <use xlink:href="#DejaVuSans-72" x="58.552734"/>
      <use xlink:href="#DejaVuSans-6f" x="97.416016"/>
      <use xlink:href="#DejaVuSans-70" x="158.597656"/>
      <use xlink:href="#DejaVuSans-61" x="222.074219"/>
      <use xlink:href="#DejaVuSans-67" x="283.353516"/>
      <use xlink:href="#DejaVuSans-61" x="346.830078"/>
      <use xlink:href="#DejaVuSans-74" x="408.109375"/>
      <use xlink:href="#DejaVuSans-69" x="447.318359"/>
      <use xlink:href="#DejaVuSans-6f" x="475.101562"/>
      <use xlink:href="#DejaVuSans-6e" x="536.283203"/>
      <use xlink:href="#DejaVuSans-20" x="599.662109"/>
      <use xlink:href="#DejaVuSans-64" x="631.449219"/>
      <use xlink:href="#DejaVuSans-69" x="694.925781"/>
      <use xlink:href="#DejaVuSans-72" x="722.708984"/>
      <use xlink:href="#DejaVuSans-65" x="761.572266"/>
      <use xlink:href="#DejaVuSans-63" x="823.095703"/>
      <use xlink:href="#DejaVuSans-74" x="878.076172"/>
      <use xlink:href="#DejaVuSans-69" x="917.285156"/>
      <use xlink:href="#DejaVuSans-6f" x="945.068359"/>
      <use xlink:href="#DejaVuSans-6e" x="1006.25"/>
     </g>
    </g>
   </g>
   <g id="matplotlib.axis_2">
    <g id="ytick_1">
     <g id="line2d_7">
      <defs>
       <path id="m5070a473e4" d="M 0 0 
L -3.5 0 
" style="stroke: #000000; stroke-width: 0.8"/>
      </defs>
      <g>
       <use xlink:href="#m5070a473e4" x="50.14375" y="273.312" style="stroke: #000000; stroke-width: 0.8"/>
      </g>
     </g>
     <g id="text_8">
      <!-- 0.00 -->
      <g transform="translate(20.878125 277.111219)scale(0.1 -0.1)">
       <use xlink:href="#DejaVuSans-30"/>
       <use xlink:href="#DejaVuSans-2e" x="63.623047"/>
       <use xlink:href="#DejaVuSans-30" x="95.410156"/>
       <use xlink:href="#DejaVuSans-30" x="159.033203"/>
      </g>
     </g>
    </g>
    <g id="ytick_2">
     <g id="line2d_8">
      <g>
       <use xlink:href="#m5070a473e4" x="50.14375" y="243.2987" style="stroke: #000000; stroke-width: 0.8"/>
      </g>
     </g>
     <g id="text_9">
      <!-- 0.25 -->
      <g transform="translate(20.878125 247.097919)scale(0.1 -0.1)">
       <defs>
        <path id="DejaVuSans-35" d="M 691 4666 
L 3169 4666 
L 3169 4134 
L 1269 4134 
L 1269 2991 
Q 1406 3038 1543 3061 
Q 1681 3084 1819 3084 
Q 2600 3084 3056 2656 
Q 3513 2228 3513 1497 
Q 3513 744 3044 326 
Q 2575 -91 1722 -91 
Q 1428 -91 1123 -41 
Q 819 9 494 109 
L 494 744 
Q 775 591 1075 516 
Q 1375 441 1709 441 
Q 2250 441 2565 725 
Q 2881 1009 2881 1497 
Q 2881 1984 2565 2268 
Q 2250 2553 1709 2553 
Q 1456 2553 1204 2497 
Q 953 2441 691 2322 
L 691 4666 
z
" transform="scale(0.015625)"/>
       </defs>
       <use xlink:href="#DejaVuSans-30"/>
       <use xlink:href="#DejaVuSans-2e" x="63.623047"/>
       <use xlink:href="#DejaVuSans-32" x="95.410156"/>
       <use xlink:href="#DejaVuSans-35" x="159.033203"/>
      </g>
     </g>
    </g>
    <g id="ytick_3">
     <g id="line2d_9">
      <g>
       <use xlink:href="#m5070a473e4" x="50.14375" y="213.2854" style="stroke: #000000; stroke-width: 0.8"/>
      </g>
     </g>
     <g id="text_10">
      <!-- 0.50 -->
      <g transform="translate(20.878125 217.084618)scale(0.1 -0.1)">
       <use xlink:href="#DejaVuSans-30"/>
       <use xlink:href="#DejaVuSans-2e" x="63.623047"/>
       <use xlink:href="#DejaVuSans-35" x="95.410156"/>
       <use xlink:href="#DejaVuSans-30" x="159.033203"/>
      </g>
     </g>
    </g>
    <g id="ytick_4">
     <g id="line2d_10">
      <g>
       <use xlink:href="#m5070a473e4" x="50.14375" y="183.272099" style="stroke: #000000; stroke-width: 0.8"/>
      </g>
     </g>
     <g id="text_11">
      <!-- 0.75 -->
      <g transform="translate(20.878125 187.071318)scale(0.1 -0.1)">
       <defs>
        <path id="DejaVuSans-37" d="M 525 4666 
L 3525 4666 
L 3525 4397 
L 1831 0 
L 1172 0 
L 2766 4134 
L 525 4134 
L 525 4666 
z
" transform="scale(0.015625)"/>
       </defs>
       <use xlink:href="#DejaVuSans-30"/>
       <use xlink:href="#DejaVuSans-2e" x="63.623047"/>
       <use xlink:href="#DejaVuSans-37" x="95.410156"/>
       <use xlink:href="#DejaVuSans-35" x="159.033203"/>
      </g>
     </g>
    </g>
    <g id="ytick_5">
     <g id="line2d_11">
      <g>
       <use xlink:href="#m5070a473e4" x="50.14375" y="153.258799" style="stroke: #000000; stroke-width: 0.8"/>
      </g>
     </g>
     <g id="text_12">
      <!-- 1.00 -->
      <g transform="translate(20.878125 157.058018)scale(0.1 -0.1)">
       <use xlink:href="#DejaVuSans-31"/>
       <use xlink:href="#DejaVuSans-2e" x="63.623047"/>
       <use xlink:href="#DejaVuSans-30" x="95.410156"/>
       <use xlink:href="#DejaVuSans-30" x="159.033203"/>
      </g>
     </g>
    </g>
    <g id="ytick_6">
     <g id="line2d_12">
      <g>
       <use xlink:href="#m5070a473e4" x="50.14375" y="123.245499" style="stroke: #000000; stroke-width: 0.8"/>
      </g>
     </g>
     <g id="text_13">
      <!-- 1.25 -->
      <g transform="translate(20.878125 127.044718)scale(0.1 -0.1)">
       <use xlink:href="#DejaVuSans-31"/>
       <use xlink:href="#DejaVuSans-2e" x="63.623047"/>
       <use xlink:href="#DejaVuSans-32" x="95.410156"/>
       <use xlink:href="#DejaVuSans-35" x="159.033203"/>
      </g>
     </g>
    </g>
    <g id="ytick_7">
     <g id="line2d_13">
      <g>
       <use xlink:href="#m5070a473e4" x="50.14375" y="93.232199" style="stroke: #000000; stroke-width: 0.8"/>
      </g>
     </g>
     <g id="text_14">
      <!-- 1.50 -->
      <g transform="translate(20.878125 97.031418)scale(0.1 -0.1)">
       <use xlink:href="#DejaVuSans-31"/>
       <use xlink:href="#DejaVuSans-2e" x="63.623047"/>
       <use xlink:href="#DejaVuSans-35" x="95.410156"/>
       <use xlink:href="#DejaVuSans-30" x="159.033203"/>
      </g>
     </g>
    </g>
    <g id="ytick_8">
     <g id="line2d_14">
      <g>
       <use xlink:href="#m5070a473e4" x="50.14375" y="63.218899" style="stroke: #000000; stroke-width: 0.8"/>
      </g>
     </g>
     <g id="text_15">
      <!-- 1.75 -->
      <g transform="translate(20.878125 67.018117)scale(0.1 -0.1)">
       <use xlink:href="#DejaVuSans-31"/>
       <use xlink:href="#DejaVuSans-2e" x="63.623047"/>
       <use xlink:href="#DejaVuSans-37" x="95.410156"/>
       <use xlink:href="#DejaVuSans-35" x="159.033203"/>
      </g>
     </g>
    </g>
    <g id="ytick_9">
     <g id="line2d_15">
      <g>
       <use xlink:href="#m5070a473e4" x="50.14375" y="33.205598" style="stroke: #000000; stroke-width: 0.8"/>
      </g>
     </g>
     <g id="text_16">
      <!-- 2.00 -->
      <g transform="translate(20.878125 37.004817)scale(0.1 -0.1)">
       <use xlink:href="#DejaVuSans-32"/>
       <use xlink:href="#DejaVuSans-2e" x="63.623047"/>
       <use xlink:href="#DejaVuSans-30" x="95.410156"/>
       <use xlink:href="#DejaVuSans-30" x="159.033203"/>
      </g>
     </g>
    </g>
    <g id="text_17">
     <!-- Probability density -->
     <g transform="translate(14.798438 186.606781)rotate(-90)scale(0.1 -0.1)">
      <defs>
       <path id="DejaVuSans-62" d="M 3116 1747 
Q 3116 2381 2855 2742 
Q 2594 3103 2138 3103 
Q 1681 3103 1420 2742 
Q 1159 2381 1159 1747 
Q 1159 1113 1420 752 
Q 1681 391 2138 391 
Q 2594 391 2855 752 
Q 3116 1113 3116 1747 
z
M 1159 2969 
Q 1341 3281 1617 3432 
Q 1894 3584 2278 3584 
Q 2916 3584 3314 3078 
Q 3713 2572 3713 1747 
Q 3713 922 3314 415 
Q 2916 -91 2278 -91 
Q 1894 -91 1617 61 
Q 1341 213 1159 525 
L 1159 0 
L 581 0 
L 581 4863 
L 1159 4863 
L 1159 2969 
z
" transform="scale(0.015625)"/>
       <path id="DejaVuSans-6c" d="M 603 4863 
L 1178 4863 
L 1178 0 
L 603 0 
L 603 4863 
z
" transform="scale(0.015625)"/>
       <path id="DejaVuSans-79" d="M 2059 -325 
Q 1816 -950 1584 -1140 
Q 1353 -1331 966 -1331 
L 506 -1331 
L 506 -850 
L 844 -850 
Q 1081 -850 1212 -737 
Q 1344 -625 1503 -206 
L 1606 56 
L 191 3500 
L 800 3500 
L 1894 763 
L 2988 3500 
L 3597 3500 
L 2059 -325 
z
" transform="scale(0.015625)"/>
       <path id="DejaVuSans-73" d="M 2834 3397 
L 2834 2853 
Q 2591 2978 2328 3040 
Q 2066 3103 1784 3103 
Q 1356 3103 1142 2972 
Q 928 2841 928 2578 
Q 928 2378 1081 2264 
Q 1234 2150 1697 2047 
L 1894 2003 
Q 2506 1872 2764 1633 
Q 3022 1394 3022 966 
Q 3022 478 2636 193 
Q 2250 -91 1575 -91 
Q 1294 -91 989 -36 
Q 684 19 347 128 
L 347 722 
Q 666 556 975 473 
Q 1284 391 1588 391 
Q 1994 391 2212 530 
Q 2431 669 2431 922 
Q 2431 1156 2273 1281 
Q 2116 1406 1581 1522 
L 1381 1569 
Q 847 1681 609 1914 
Q 372 2147 372 2553 
Q 372 3047 722 3315 
Q 1072 3584 1716 3584 
Q 2034 3584 2315 3537 
Q 2597 3491 2834 3397 
z
" transform="scale(0.015625)"/>
      </defs>
      <use xlink:href="#DejaVuSans-50"/>
      <use xlink:href="#DejaVuSans-72" x="58.552734"/>
      <use xlink:href="#DejaVuSans-6f" x="97.416016"/>
      <use xlink:href="#DejaVuSans-62" x="158.597656"/>
      <use xlink:href="#DejaVuSans-61" x="222.074219"/>
      <use xlink:href="#DejaVuSans-62" x="283.353516"/>
      <use xlink:href="#DejaVuSans-69" x="346.830078"/>
      <use xlink:href="#DejaVuSans-6c" x="374.613281"/>
      <use xlink:href="#DejaVuSans-69" x="402.396484"/>
      <use xlink:href="#DejaVuSans-74" x="430.179688"/>
      <use xlink:href="#DejaVuSans-79" x="469.388672"/>
      <use xlink:href="#DejaVuSans-20" x="528.568359"/>
      <use xlink:href="#DejaVuSans-64" x="560.355469"/>
      <use xlink:href="#DejaVuSans-65" x="623.832031"/>
      <use xlink:href="#DejaVuSans-6e" x="685.355469"/>
      <use xlink:href="#DejaVuSans-73" x="748.734375"/>
      <use xlink:href="#DejaVuSans-69" x="800.833984"/>
      <use xlink:href="#DejaVuSans-74" x="828.617188"/>
      <use xlink:href="#DejaVuSans-79" x="867.826172"/>
     </g>
    </g>
   </g>
   <g id="line2d_16">
    <path d="M 66.376477 273.312 
L 391.031023 33.205598 
L 391.031023 33.205598 
" clip-path="url(#peec692f53a)" style="fill: none; stroke: #ff7f0e; stroke-width: 1.5; stroke-linecap: square"/>
   </g>
   <g id="patch_203">
    <path d="M 50.14375 273.312 
L 50.14375 7.2 
" style="fill: none; stroke: #000000; stroke-width: 0.8; stroke-linejoin: miter; stroke-linecap: square"/>
   </g>
   <g id="patch_204">
    <path d="M 407.26375 273.312 
L 407.26375 7.2 
" style="fill: none; stroke: #000000; stroke-width: 0.8; stroke-linejoin: miter; stroke-linecap: square"/>
   </g>
   <g id="patch_205">
    <path d="M 50.14375 273.312 
L 407.26375 273.312 
" style="fill: none; stroke: #000000; stroke-width: 0.8; stroke-linejoin: miter; stroke-linecap: square"/>
   </g>
   <g id="patch_206">
    <path d="M 50.14375 7.2 
L 407.26375 7.2 
" style="fill: none; stroke: #000000; stroke-width: 0.8; stroke-linejoin: miter; stroke-linecap: square"/>
   </g>
  </g>
 </g>
 <defs>
  <clipPath id="peec692f53a">
   <rect x="50.14375" y="7.2" width="357.12" height="266.112"/>
  </clipPath>
 </defs>
</svg>
