<?xml version="1.0" encoding="utf-8" standalone="no"?>
<!DOCTYPE svg PUBLIC "-//W3C//DTD SVG 1.1//EN"
  "http://www.w3.org/Graphics/SVG/1.1/DTD/svg11.dtd">
<svg xmlns:xlink="http://www.w3.org/1999/xlink" width="414.46375pt" height="310.86825pt" viewBox="0 0 414.46375 310.86825" xmlns="http://www.w3.org/2000/svg" version="1.1">
 <metadata>
  <rdf:RDF xmlns:dc="http://purl.org/dc/elements/1.1/" xmlns:cc="http://creativecommons.org/ns#" xmlns:rdf="http://www.w3.org/1999/02/22-rdf-syntax-ns#">
   <cc:Work>
    <dc:type rdf:resource="http://purl.org/dc/dcmitype/StillImage"/>
    <dc:date>2022-05-16T15:20:16.448109</dc:date>
    <dc:format>image/svg+xml</dc:format>
    <dc:creator>
     <cc:Agent>
      <dc:title>Matplotlib v3.5.2, https://matplotlib.org/</dc:title>
     </cc:Agent>
    </dc:creator>
   </cc:Work>
  </rdf:RDF>
 </metadata>
 <defs>
  <style type="text/css">*{stroke-linejoin: round; stroke-linecap: butt}</style>
 </defs>
 <g id="figure_1">
  <g id="patch_1">
   <path d="M 0 310.86825 
L 414.46375 310.86825 
L 414.46375 0 
L 0 0 
z
" style="fill: #ffffff"/>
  </g>
  <g id="axes_1">
   <g id="patch_2">
    <path d="M 50.14375 273.312 
L 407.26375 273.312 
L 407.26375 7.2 
L 50.14375 7.2 
z
" style="fill: #ffffff"/>
   </g>
   <g id="patch_3">
    <path d="M 66.921644 273.312 
L 68.542139 273.312 
L 68.542139 272.09646 
L 66.921644 272.09646 
z
" clip-path="url(#p22faa57792)" style="fill: #1f77b4"/>
   </g>
   <g id="patch_4">
    <path d="M 68.542139 273.312 
L 70.162633 273.312 
L 70.162633 270.880921 
L 68.542139 270.880921 
z
" clip-path="url(#p22faa57792)" style="fill: #1f77b4"/>
   </g>
   <g id="patch_5">
    <path d="M 70.162633 273.312 
L 71.783127 273.312 
L 71.783127 269.665381 
L 70.162633 269.665381 
z
" clip-path="url(#p22faa57792)" style="fill: #1f77b4"/>
   </g>
   <g id="patch_6">
    <path d="M 71.783127 273.312 
L 73.403621 273.312 
L 73.403621 269.057612 
L 71.783127 269.057612 
z
" clip-path="url(#p22faa57792)" style="fill: #1f77b4"/>
   </g>
   <g id="patch_7">
    <path d="M 73.403621 273.312 
L 75.024115 273.312 
L 75.024115 269.057612 
L 73.403621 269.057612 
z
" clip-path="url(#p22faa57792)" style="fill: #1f77b4"/>
   </g>
   <g id="patch_8">
    <path d="M 75.024115 273.312 
L 76.64461 273.312 
L 76.64461 266.626532 
L 75.024115 266.626532 
z
" clip-path="url(#p22faa57792)" style="fill: #1f77b4"/>
   </g>
   <g id="patch_9">
    <path d="M 76.64461 273.312 
L 78.265104 273.312 
L 78.265104 264.195453 
L 76.64461 264.195453 
z
" clip-path="url(#p22faa57792)" style="fill: #1f77b4"/>
   </g>
   <g id="patch_10">
    <path d="M 78.265104 273.312 
L 79.885598 273.312 
L 79.885598 264.803223 
L 78.265104 264.803223 
z
" clip-path="url(#p22faa57792)" style="fill: #1f77b4"/>
   </g>
   <g id="patch_11">
    <path d="M 79.885598 273.312 
L 81.506092 273.312 
L 81.506092 266.626532 
L 79.885598 266.626532 
z
" clip-path="url(#p22faa57792)" style="fill: #1f77b4"/>
   </g>
   <g id="patch_12">
    <path d="M 81.506092 273.312 
L 83.126587 273.312 
L 83.126587 260.548835 
L 81.506092 260.548835 
z
" clip-path="url(#p22faa57792)" style="fill: #1f77b4"/>
   </g>
   <g id="patch_13">
    <path d="M 83.126587 273.312 
L 84.747081 273.312 
L 84.747081 259.941065 
L 83.126587 259.941065 
z
" clip-path="url(#p22faa57792)" style="fill: #1f77b4"/>
   </g>
   <g id="patch_14">
    <path d="M 84.747081 273.312 
L 86.367575 273.312 
L 86.367575 261.764374 
L 84.747081 261.764374 
z
" clip-path="url(#p22faa57792)" style="fill: #1f77b4"/>
   </g>
   <g id="patch_15">
    <path d="M 86.367575 273.312 
L 87.988069 273.312 
L 87.988069 260.548835 
L 86.367575 260.548835 
z
" clip-path="url(#p22faa57792)" style="fill: #1f77b4"/>
   </g>
   <g id="patch_16">
    <path d="M 87.988069 273.312 
L 89.608563 273.312 
L 89.608563 260.548835 
L 87.988069 260.548835 
z
" clip-path="url(#p22faa57792)" style="fill: #1f77b4"/>
   </g>
   <g id="patch_17">
    <path d="M 89.608563 273.312 
L 91.229058 273.312 
L 91.229058 258.725525 
L 89.608563 258.725525 
z
" clip-path="url(#p22faa57792)" style="fill: #1f77b4"/>
   </g>
   <g id="patch_18">
    <path d="M 91.229058 273.312 
L 92.849552 273.312 
L 92.849552 255.078906 
L 91.229058 255.078906 
z
" clip-path="url(#p22faa57792)" style="fill: #1f77b4"/>
   </g>
   <g id="patch_19">
    <path d="M 92.849552 273.312 
L 94.470046 273.312 
L 94.470046 255.686676 
L 92.849552 255.686676 
z
" clip-path="url(#p22faa57792)" style="fill: #1f77b4"/>
   </g>
   <g id="patch_20">
    <path d="M 94.470046 273.312 
L 96.09054 273.312 
L 96.09054 247.785669 
L 94.470046 247.785669 
z
" clip-path="url(#p22faa57792)" style="fill: #1f77b4"/>
   </g>
   <g id="patch_21">
    <path d="M 96.09054 273.312 
L 97.711034 273.312 
L 97.711034 242.923511 
L 96.09054 242.923511 
z
" clip-path="url(#p22faa57792)" style="fill: #1f77b4"/>
   </g>
   <g id="patch_22">
    <path d="M 97.711034 273.312 
L 99.331529 273.312 
L 99.331529 245.35459 
L 97.711034 245.35459 
z
" clip-path="url(#p22faa57792)" style="fill: #1f77b4"/>
   </g>
   <g id="patch_23">
    <path d="M 99.331529 273.312 
L 100.952023 273.312 
L 100.952023 251.432288 
L 99.331529 251.432288 
z
" clip-path="url(#p22faa57792)" style="fill: #1f77b4"/>
   </g>
   <g id="patch_24">
    <path d="M 100.952023 273.312 
L 102.572517 273.312 
L 102.572517 249.001209 
L 100.952023 249.001209 
z
" clip-path="url(#p22faa57792)" style="fill: #1f77b4"/>
   </g>
   <g id="patch_25">
    <path d="M 102.572517 273.312 
L 104.193011 273.312 
L 104.193011 246.570129 
L 102.572517 246.570129 
z
" clip-path="url(#p22faa57792)" style="fill: #1f77b4"/>
   </g>
   <g id="patch_26">
    <path d="M 104.193011 273.312 
L 105.813505 273.312 
L 105.813505 247.177899 
L 104.193011 247.177899 
z
" clip-path="url(#p22faa57792)" style="fill: #1f77b4"/>
   </g>
   <g id="patch_27">
    <path d="M 105.813505 273.312 
L 107.434 273.312 
L 107.434 243.531281 
L 105.813505 243.531281 
z
" clip-path="url(#p22faa57792)" style="fill: #1f77b4"/>
   </g>
   <g id="patch_28">
    <path d="M 107.434 273.312 
L 109.054494 273.312 
L 109.054494 243.531281 
L 107.434 243.531281 
z
" clip-path="url(#p22faa57792)" style="fill: #1f77b4"/>
   </g>
   <g id="patch_29">
    <path d="M 109.054494 273.312 
L 110.674988 273.312 
L 110.674988 249.001209 
L 109.054494 249.001209 
z
" clip-path="url(#p22faa57792)" style="fill: #1f77b4"/>
   </g>
   <g id="patch_30">
    <path d="M 110.674988 273.312 
L 112.295482 273.312 
L 112.295482 241.707971 
L 110.674988 241.707971 
z
" clip-path="url(#p22faa57792)" style="fill: #1f77b4"/>
   </g>
   <g id="patch_31">
    <path d="M 112.295482 273.312 
L 113.915977 273.312 
L 113.915977 238.061353 
L 112.295482 238.061353 
z
" clip-path="url(#p22faa57792)" style="fill: #1f77b4"/>
   </g>
   <g id="patch_32">
    <path d="M 113.915977 273.312 
L 115.536471 273.312 
L 115.536471 231.375885 
L 113.915977 231.375885 
z
" clip-path="url(#p22faa57792)" style="fill: #1f77b4"/>
   </g>
   <g id="patch_33">
    <path d="M 115.536471 273.312 
L 117.156965 273.312 
L 117.156965 231.983655 
L 115.536471 231.983655 
z
" clip-path="url(#p22faa57792)" style="fill: #1f77b4"/>
   </g>
   <g id="patch_34">
    <path d="M 117.156965 273.312 
L 118.777459 273.312 
L 118.777459 238.669122 
L 117.156965 238.669122 
z
" clip-path="url(#p22faa57792)" style="fill: #1f77b4"/>
   </g>
   <g id="patch_35">
    <path d="M 118.777459 273.312 
L 120.397953 273.312 
L 120.397953 244.74682 
L 118.777459 244.74682 
z
" clip-path="url(#p22faa57792)" style="fill: #1f77b4"/>
   </g>
   <g id="patch_36">
    <path d="M 120.397953 273.312 
L 122.018448 273.312 
L 122.018448 233.806964 
L 120.397953 233.806964 
z
" clip-path="url(#p22faa57792)" style="fill: #1f77b4"/>
   </g>
   <g id="patch_37">
    <path d="M 122.018448 273.312 
L 123.638942 273.312 
L 123.638942 226.513727 
L 122.018448 226.513727 
z
" clip-path="url(#p22faa57792)" style="fill: #1f77b4"/>
   </g>
   <g id="patch_38">
    <path d="M 123.638942 273.312 
L 125.259436 273.312 
L 125.259436 230.160345 
L 123.638942 230.160345 
z
" clip-path="url(#p22faa57792)" style="fill: #1f77b4"/>
   </g>
   <g id="patch_39">
    <path d="M 125.259436 273.312 
L 126.87993 273.312 
L 126.87993 222.867108 
L 125.259436 222.867108 
z
" clip-path="url(#p22faa57792)" style="fill: #1f77b4"/>
   </g>
   <g id="patch_40">
    <path d="M 126.87993 273.312 
L 128.500424 273.312 
L 128.500424 228.944806 
L 126.87993 228.944806 
z
" clip-path="url(#p22faa57792)" style="fill: #1f77b4"/>
   </g>
   <g id="patch_41">
    <path d="M 128.500424 273.312 
L 130.120919 273.312 
L 130.120919 218.00495 
L 128.500424 218.00495 
z
" clip-path="url(#p22faa57792)" style="fill: #1f77b4"/>
   </g>
   <g id="patch_42">
    <path d="M 130.120919 273.312 
L 131.741413 273.312 
L 131.741413 224.082647 
L 130.120919 224.082647 
z
" clip-path="url(#p22faa57792)" style="fill: #1f77b4"/>
   </g>
   <g id="patch_43">
    <path d="M 131.741413 273.312 
L 133.361907 273.312 
L 133.361907 215.573871 
L 131.741413 215.573871 
z
" clip-path="url(#p22faa57792)" style="fill: #1f77b4"/>
   </g>
   <g id="patch_44">
    <path d="M 133.361907 273.312 
L 134.982401 273.312 
L 134.982401 218.00495 
L 133.361907 218.00495 
z
" clip-path="url(#p22faa57792)" style="fill: #1f77b4"/>
   </g>
   <g id="patch_45">
    <path d="M 134.982401 273.312 
L 136.602895 273.312 
L 136.602895 224.690417 
L 134.982401 224.690417 
z
" clip-path="url(#p22faa57792)" style="fill: #1f77b4"/>
   </g>
   <g id="patch_46">
    <path d="M 136.602895 273.312 
L 138.22339 273.312 
L 138.22339 222.259338 
L 136.602895 222.259338 
z
" clip-path="url(#p22faa57792)" style="fill: #1f77b4"/>
   </g>
   <g id="patch_47">
    <path d="M 138.22339 273.312 
L 139.843884 273.312 
L 139.843884 213.142791 
L 138.22339 213.142791 
z
" clip-path="url(#p22faa57792)" style="fill: #1f77b4"/>
   </g>
   <g id="patch_48">
    <path d="M 139.843884 273.312 
L 141.464378 273.312 
L 141.464378 214.966101 
L 139.843884 214.966101 
z
" clip-path="url(#p22faa57792)" style="fill: #1f77b4"/>
   </g>
   <g id="patch_49">
    <path d="M 141.464378 273.312 
L 143.084872 273.312 
L 143.084872 228.337036 
L 141.464378 228.337036 
z
" clip-path="url(#p22faa57792)" style="fill: #1f77b4"/>
   </g>
   <g id="patch_50">
    <path d="M 143.084872 273.312 
L 144.705366 273.312 
L 144.705366 211.927252 
L 143.084872 211.927252 
z
" clip-path="url(#p22faa57792)" style="fill: #1f77b4"/>
   </g>
   <g id="patch_51">
    <path d="M 144.705366 273.312 
L 146.325861 273.312 
L 146.325861 224.082647 
L 144.705366 224.082647 
z
" clip-path="url(#p22faa57792)" style="fill: #1f77b4"/>
   </g>
   <g id="patch_52">
    <path d="M 146.325861 273.312 
L 147.946355 273.312 
L 147.946355 205.849554 
L 146.325861 205.849554 
z
" clip-path="url(#p22faa57792)" style="fill: #1f77b4"/>
   </g>
   <g id="patch_53">
    <path d="M 147.946355 273.312 
L 149.566849 273.312 
L 149.566849 215.573871 
L 147.946355 215.573871 
z
" clip-path="url(#p22faa57792)" style="fill: #1f77b4"/>
   </g>
   <g id="patch_54">
    <path d="M 149.566849 273.312 
L 151.187343 273.312 
L 151.187343 213.142791 
L 149.566849 213.142791 
z
" clip-path="url(#p22faa57792)" style="fill: #1f77b4"/>
   </g>
   <g id="patch_55">
    <path d="M 151.187343 273.312 
L 152.807838 273.312 
L 152.807838 210.711712 
L 151.187343 210.711712 
z
" clip-path="url(#p22faa57792)" style="fill: #1f77b4"/>
   </g>
   <g id="patch_56">
    <path d="M 152.807838 273.312 
L 154.428332 273.312 
L 154.428332 217.39718 
L 152.807838 217.39718 
z
" clip-path="url(#p22faa57792)" style="fill: #1f77b4"/>
   </g>
   <g id="patch_57">
    <path d="M 154.428332 273.312 
L 156.048826 273.312 
L 156.048826 221.651568 
L 154.428332 221.651568 
z
" clip-path="url(#p22faa57792)" style="fill: #1f77b4"/>
   </g>
   <g id="patch_58">
    <path d="M 156.048826 273.312 
L 157.66932 273.312 
L 157.66932 197.948547 
L 156.048826 197.948547 
z
" clip-path="url(#p22faa57792)" style="fill: #1f77b4"/>
   </g>
   <g id="patch_59">
    <path d="M 157.66932 273.312 
L 159.289814 273.312 
L 159.289814 204.634014 
L 157.66932 204.634014 
z
" clip-path="url(#p22faa57792)" style="fill: #1f77b4"/>
   </g>
   <g id="patch_60">
    <path d="M 159.289814 273.312 
L 160.910309 273.312 
L 160.910309 200.379626 
L 159.289814 200.379626 
z
" clip-path="url(#p22faa57792)" style="fill: #1f77b4"/>
   </g>
   <g id="patch_61">
    <path d="M 160.910309 273.312 
L 162.530803 273.312 
L 162.530803 195.517468 
L 160.910309 195.517468 
z
" clip-path="url(#p22faa57792)" style="fill: #1f77b4"/>
   </g>
   <g id="patch_62">
    <path d="M 162.530803 273.312 
L 164.151297 273.312 
L 164.151297 194.301928 
L 162.530803 194.301928 
z
" clip-path="url(#p22faa57792)" style="fill: #1f77b4"/>
   </g>
   <g id="patch_63">
    <path d="M 164.151297 273.312 
L 165.771791 273.312 
L 165.771791 202.810705 
L 164.151297 202.810705 
z
" clip-path="url(#p22faa57792)" style="fill: #1f77b4"/>
   </g>
   <g id="patch_64">
    <path d="M 165.771791 273.312 
L 167.392285 273.312 
L 167.392285 200.987396 
L 165.771791 200.987396 
z
" clip-path="url(#p22faa57792)" style="fill: #1f77b4"/>
   </g>
   <g id="patch_65">
    <path d="M 167.392285 273.312 
L 169.01278 273.312 
L 169.01278 188.832 
L 167.392285 188.832 
z
" clip-path="url(#p22faa57792)" style="fill: #1f77b4"/>
   </g>
   <g id="patch_66">
    <path d="M 169.01278 273.312 
L 170.633274 273.312 
L 170.633274 200.379626 
L 169.01278 200.379626 
z
" clip-path="url(#p22faa57792)" style="fill: #1f77b4"/>
   </g>
   <g id="patch_67">
    <path d="M 170.633274 273.312 
L 172.253768 273.312 
L 172.253768 193.086388 
L 170.633274 193.086388 
z
" clip-path="url(#p22faa57792)" style="fill: #1f77b4"/>
   </g>
   <g id="patch_68">
    <path d="M 172.253768 273.312 
L 173.874262 273.312 
L 173.874262 194.301928 
L 172.253768 194.301928 
z
" clip-path="url(#p22faa57792)" style="fill: #1f77b4"/>
   </g>
   <g id="patch_69">
    <path d="M 173.874262 273.312 
L 175.494756 273.312 
L 175.494756 196.733007 
L 173.874262 196.733007 
z
" clip-path="url(#p22faa57792)" style="fill: #1f77b4"/>
   </g>
   <g id="patch_70">
    <path d="M 175.494756 273.312 
L 177.115251 273.312 
L 177.115251 185.793151 
L 175.494756 185.793151 
z
" clip-path="url(#p22faa57792)" style="fill: #1f77b4"/>
   </g>
   <g id="patch_71">
    <path d="M 177.115251 273.312 
L 178.735745 273.312 
L 178.735745 192.478619 
L 177.115251 192.478619 
z
" clip-path="url(#p22faa57792)" style="fill: #1f77b4"/>
   </g>
   <g id="patch_72">
    <path d="M 178.735745 273.312 
L 180.356239 273.312 
L 180.356239 180.930993 
L 178.735745 180.930993 
z
" clip-path="url(#p22faa57792)" style="fill: #1f77b4"/>
   </g>
   <g id="patch_73">
    <path d="M 180.356239 273.312 
L 181.976733 273.312 
L 181.976733 203.418475 
L 180.356239 203.418475 
z
" clip-path="url(#p22faa57792)" style="fill: #1f77b4"/>
   </g>
   <g id="patch_74">
    <path d="M 181.976733 273.312 
L 183.597227 273.312 
L 183.597227 172.422216 
L 181.976733 172.422216 
z
" clip-path="url(#p22faa57792)" style="fill: #1f77b4"/>
   </g>
   <g id="patch_75">
    <path d="M 183.597227 273.312 
L 185.217722 273.312 
L 185.217722 185.793151 
L 183.597227 185.793151 
z
" clip-path="url(#p22faa57792)" style="fill: #1f77b4"/>
   </g>
   <g id="patch_76">
    <path d="M 185.217722 273.312 
L 186.838216 273.312 
L 186.838216 202.810705 
L 185.217722 202.810705 
z
" clip-path="url(#p22faa57792)" style="fill: #1f77b4"/>
   </g>
   <g id="patch_77">
    <path d="M 186.838216 273.312 
L 188.45871 273.312 
L 188.45871 176.068835 
L 186.838216 176.068835 
z
" clip-path="url(#p22faa57792)" style="fill: #1f77b4"/>
   </g>
   <g id="patch_78">
    <path d="M 188.45871 273.312 
L 190.079204 273.312 
L 190.079204 179.107683 
L 188.45871 179.107683 
z
" clip-path="url(#p22faa57792)" style="fill: #1f77b4"/>
   </g>
   <g id="patch_79">
    <path d="M 190.079204 273.312 
L 191.699699 273.312 
L 191.699699 178.499914 
L 190.079204 178.499914 
z
" clip-path="url(#p22faa57792)" style="fill: #1f77b4"/>
   </g>
   <g id="patch_80">
    <path d="M 191.699699 273.312 
L 193.320193 273.312 
L 193.320193 163.913439 
L 191.699699 163.913439 
z
" clip-path="url(#p22faa57792)" style="fill: #1f77b4"/>
   </g>
   <g id="patch_81">
    <path d="M 193.320193 273.312 
L 194.940687 273.312 
L 194.940687 177.892144 
L 193.320193 177.892144 
z
" clip-path="url(#p22faa57792)" style="fill: #1f77b4"/>
   </g>
   <g id="patch_82">
    <path d="M 194.940687 273.312 
L 196.561181 273.312 
L 196.561181 166.344518 
L 194.940687 166.344518 
z
" clip-path="url(#p22faa57792)" style="fill: #1f77b4"/>
   </g>
   <g id="patch_83">
    <path d="M 196.561181 273.312 
L 198.181675 273.312 
L 198.181675 171.206676 
L 196.561181 171.206676 
z
" clip-path="url(#p22faa57792)" style="fill: #1f77b4"/>
   </g>
   <g id="patch_84">
    <path d="M 198.181675 273.312 
L 199.80217 273.312 
L 199.80217 179.715453 
L 198.181675 179.715453 
z
" clip-path="url(#p22faa57792)" style="fill: #1f77b4"/>
   </g>
   <g id="patch_85">
    <path d="M 199.80217 273.312 
L 201.422664 273.312 
L 201.422664 169.991137 
L 199.80217 169.991137 
z
" clip-path="url(#p22faa57792)" style="fill: #1f77b4"/>
   </g>
   <g id="patch_86">
    <path d="M 201.422664 273.312 
L 203.043158 273.312 
L 203.043158 173.029986 
L 201.422664 173.029986 
z
" clip-path="url(#p22faa57792)" style="fill: #1f77b4"/>
   </g>
   <g id="patch_87">
    <path d="M 203.043158 273.312 
L 204.663652 273.312 
L 204.663652 163.305669 
L 203.043158 163.305669 
z
" clip-path="url(#p22faa57792)" style="fill: #1f77b4"/>
   </g>
   <g id="patch_88">
    <path d="M 204.663652 273.312 
L 206.284146 273.312 
L 206.284146 176.676604 
L 204.663652 176.676604 
z
" clip-path="url(#p22faa57792)" style="fill: #1f77b4"/>
   </g>
   <g id="patch_89">
    <path d="M 206.284146 273.312 
L 207.904641 273.312 
L 207.904641 167.560058 
L 206.284146 167.560058 
z
" clip-path="url(#p22faa57792)" style="fill: #1f77b4"/>
   </g>
   <g id="patch_90">
    <path d="M 207.904641 273.312 
L 209.525135 273.312 
L 209.525135 163.305669 
L 207.904641 163.305669 
z
" clip-path="url(#p22faa57792)" style="fill: #1f77b4"/>
   </g>
   <g id="patch_91">
    <path d="M 209.525135 273.312 
L 211.145629 273.312 
L 211.145629 181.538763 
L 209.525135 181.538763 
z
" clip-path="url(#p22faa57792)" style="fill: #1f77b4"/>
   </g>
   <g id="patch_92">
    <path d="M 211.145629 273.312 
L 212.766123 273.312 
L 212.766123 170.598906 
L 211.145629 170.598906 
z
" clip-path="url(#p22faa57792)" style="fill: #1f77b4"/>
   </g>
   <g id="patch_93">
    <path d="M 212.766123 273.312 
L 214.386617 273.312 
L 214.386617 163.913439 
L 212.766123 163.913439 
z
" clip-path="url(#p22faa57792)" style="fill: #1f77b4"/>
   </g>
   <g id="patch_94">
    <path d="M 214.386617 273.312 
L 216.007112 273.312 
L 216.007112 173.637755 
L 214.386617 173.637755 
z
" clip-path="url(#p22faa57792)" style="fill: #1f77b4"/>
   </g>
   <g id="patch_95">
    <path d="M 216.007112 273.312 
L 217.627606 273.312 
L 217.627606 155.404662 
L 216.007112 155.404662 
z
" clip-path="url(#p22faa57792)" style="fill: #1f77b4"/>
   </g>
   <g id="patch_96">
    <path d="M 217.627606 273.312 
L 219.2481 273.312 
L 219.2481 167.560058 
L 217.627606 167.560058 
z
" clip-path="url(#p22faa57792)" style="fill: #1f77b4"/>
   </g>
   <g id="patch_97">
    <path d="M 219.2481 273.312 
L 220.868594 273.312 
L 220.868594 162.090129 
L 219.2481 162.090129 
z
" clip-path="url(#p22faa57792)" style="fill: #1f77b4"/>
   </g>
   <g id="patch_98">
    <path d="M 220.868594 273.312 
L 222.489089 273.312 
L 222.489089 159.051281 
L 220.868594 159.051281 
z
" clip-path="url(#p22faa57792)" style="fill: #1f77b4"/>
   </g>
   <g id="patch_99">
    <path d="M 222.489089 273.312 
L 224.109583 273.312 
L 224.109583 148.111424 
L 222.489089 148.111424 
z
" clip-path="url(#p22faa57792)" style="fill: #1f77b4"/>
   </g>
   <g id="patch_100">
    <path d="M 224.109583 273.312 
L 225.730077 273.312 
L 225.730077 156.620201 
L 224.109583 156.620201 
z
" clip-path="url(#p22faa57792)" style="fill: #1f77b4"/>
   </g>
   <g id="patch_101">
    <path d="M 225.730077 273.312 
L 227.350571 273.312 
L 227.350571 155.404662 
L 225.730077 155.404662 
z
" clip-path="url(#p22faa57792)" style="fill: #1f77b4"/>
   </g>
   <g id="patch_102">
    <path d="M 227.350571 273.312 
L 228.971065 273.312 
L 228.971065 142.641496 
L 227.350571 142.641496 
z
" clip-path="url(#p22faa57792)" style="fill: #1f77b4"/>
   </g>
   <g id="patch_103">
    <path d="M 228.971065 273.312 
L 230.59156 273.312 
L 230.59156 144.464806 
L 228.971065 144.464806 
z
" clip-path="url(#p22faa57792)" style="fill: #1f77b4"/>
   </g>
   <g id="patch_104">
    <path d="M 230.59156 273.312 
L 232.212054 273.312 
L 232.212054 160.26682 
L 230.59156 160.26682 
z
" clip-path="url(#p22faa57792)" style="fill: #1f77b4"/>
   </g>
   <g id="patch_105">
    <path d="M 232.212054 273.312 
L 233.832548 273.312 
L 233.832548 168.167827 
L 232.212054 168.167827 
z
" clip-path="url(#p22faa57792)" style="fill: #1f77b4"/>
   </g>
   <g id="patch_106">
    <path d="M 233.832548 273.312 
L 235.453042 273.312 
L 235.453042 155.404662 
L 233.832548 155.404662 
z
" clip-path="url(#p22faa57792)" style="fill: #1f77b4"/>
   </g>
   <g id="patch_107">
    <path d="M 235.453042 273.312 
L 237.073536 273.312 
L 237.073536 147.503655 
L 235.453042 147.503655 
z
" clip-path="url(#p22faa57792)" style="fill: #1f77b4"/>
   </g>
   <g id="patch_108">
    <path d="M 237.073536 273.312 
L 238.694031 273.312 
L 238.694031 157.227971 
L 237.073536 157.227971 
z
" clip-path="url(#p22faa57792)" style="fill: #1f77b4"/>
   </g>
   <g id="patch_109">
    <path d="M 238.694031 273.312 
L 240.314525 273.312 
L 240.314525 134.132719 
L 238.694031 134.132719 
z
" clip-path="url(#p22faa57792)" style="fill: #1f77b4"/>
   </g>
   <g id="patch_110">
    <path d="M 240.314525 273.312 
L 241.935019 273.312 
L 241.935019 139.602647 
L 240.314525 139.602647 
z
" clip-path="url(#p22faa57792)" style="fill: #1f77b4"/>
   </g>
   <g id="patch_111">
    <path d="M 241.935019 273.312 
L 243.555513 273.312 
L 243.555513 142.641496 
L 241.935019 142.641496 
z
" clip-path="url(#p22faa57792)" style="fill: #1f77b4"/>
   </g>
   <g id="patch_112">
    <path d="M 243.555513 273.312 
L 245.176007 273.312 
L 245.176007 139.602647 
L 243.555513 139.602647 
z
" clip-path="url(#p22faa57792)" style="fill: #1f77b4"/>
   </g>
   <g id="patch_113">
    <path d="M 245.176007 273.312 
L 246.796502 273.312 
L 246.796502 142.641496 
L 245.176007 142.641496 
z
" clip-path="url(#p22faa57792)" style="fill: #1f77b4"/>
   </g>
   <g id="patch_114">
    <path d="M 246.796502 273.312 
L 248.416996 273.312 
L 248.416996 145.680345 
L 246.796502 145.680345 
z
" clip-path="url(#p22faa57792)" style="fill: #1f77b4"/>
   </g>
   <g id="patch_115">
    <path d="M 248.416996 273.312 
L 250.03749 273.312 
L 250.03749 139.602647 
L 248.416996 139.602647 
z
" clip-path="url(#p22faa57792)" style="fill: #1f77b4"/>
   </g>
   <g id="patch_116">
    <path d="M 250.03749 273.312 
L 251.657984 273.312 
L 251.657984 134.132719 
L 250.03749 134.132719 
z
" clip-path="url(#p22faa57792)" style="fill: #1f77b4"/>
   </g>
   <g id="patch_117">
    <path d="M 251.657984 273.312 
L 253.278478 273.312 
L 253.278478 125.016173 
L 251.657984 125.016173 
z
" clip-path="url(#p22faa57792)" style="fill: #1f77b4"/>
   </g>
   <g id="patch_118">
    <path d="M 253.278478 273.312 
L 254.898973 273.312 
L 254.898973 134.132719 
L 253.278478 134.132719 
z
" clip-path="url(#p22faa57792)" style="fill: #1f77b4"/>
   </g>
   <g id="patch_119">
    <path d="M 254.898973 273.312 
L 256.519467 273.312 
L 256.519467 123.192863 
L 254.898973 123.192863 
z
" clip-path="url(#p22faa57792)" style="fill: #1f77b4"/>
   </g>
   <g id="patch_120">
    <path d="M 256.519467 273.312 
L 258.139961 273.312 
L 258.139961 132.30941 
L 256.519467 132.30941 
z
" clip-path="url(#p22faa57792)" style="fill: #1f77b4"/>
   </g>
   <g id="patch_121">
    <path d="M 258.139961 273.312 
L 259.760455 273.312 
L 259.760455 124.408403 
L 258.139961 124.408403 
z
" clip-path="url(#p22faa57792)" style="fill: #1f77b4"/>
   </g>
   <g id="patch_122">
    <path d="M 259.760455 273.312 
L 261.38095 273.312 
L 261.38095 109.214158 
L 259.760455 109.214158 
z
" clip-path="url(#p22faa57792)" style="fill: #1f77b4"/>
   </g>
   <g id="patch_123">
    <path d="M 261.38095 273.312 
L 263.001444 273.312 
L 263.001444 123.800633 
L 261.38095 123.800633 
z
" clip-path="url(#p22faa57792)" style="fill: #1f77b4"/>
   </g>
   <g id="patch_124">
    <path d="M 263.001444 273.312 
L 264.621938 273.312 
L 264.621938 131.093871 
L 263.001444 131.093871 
z
" clip-path="url(#p22faa57792)" style="fill: #1f77b4"/>
   </g>
   <g id="patch_125">
    <path d="M 264.621938 273.312 
L 266.242432 273.312 
L 266.242432 117.115165 
L 264.621938 117.115165 
z
" clip-path="url(#p22faa57792)" style="fill: #1f77b4"/>
   </g>
   <g id="patch_126">
    <path d="M 266.242432 273.312 
L 267.862926 273.312 
L 267.862926 131.093871 
L 266.242432 131.093871 
z
" clip-path="url(#p22faa57792)" style="fill: #1f77b4"/>
   </g>
   <g id="patch_127">
    <path d="M 267.862926 273.312 
L 269.483421 273.312 
L 269.483421 128.055022 
L 267.862926 128.055022 
z
" clip-path="url(#p22faa57792)" style="fill: #1f77b4"/>
   </g>
   <g id="patch_128">
    <path d="M 269.483421 273.312 
L 271.103915 273.312 
L 271.103915 125.623942 
L 269.483421 125.623942 
z
" clip-path="url(#p22faa57792)" style="fill: #1f77b4"/>
   </g>
   <g id="patch_129">
    <path d="M 271.103915 273.312 
L 272.724409 273.312 
L 272.724409 111.037468 
L 271.103915 111.037468 
z
" clip-path="url(#p22faa57792)" style="fill: #1f77b4"/>
   </g>
   <g id="patch_130">
    <path d="M 272.724409 273.312 
L 274.344903 273.312 
L 274.344903 121.369554 
L 272.724409 121.369554 
z
" clip-path="url(#p22faa57792)" style="fill: #1f77b4"/>
   </g>
   <g id="patch_131">
    <path d="M 274.344903 273.312 
L 275.965397 273.312 
L 275.965397 122.585094 
L 274.344903 122.585094 
z
" clip-path="url(#p22faa57792)" style="fill: #1f77b4"/>
   </g>
   <g id="patch_132">
    <path d="M 275.965397 273.312 
L 277.585892 273.312 
L 277.585892 119.546245 
L 275.965397 119.546245 
z
" clip-path="url(#p22faa57792)" style="fill: #1f77b4"/>
   </g>
   <g id="patch_133">
    <path d="M 277.585892 273.312 
L 279.206386 273.312 
L 279.206386 107.998619 
L 277.585892 107.998619 
z
" clip-path="url(#p22faa57792)" style="fill: #1f77b4"/>
   </g>
   <g id="patch_134">
    <path d="M 279.206386 273.312 
L 280.82688 273.312 
L 280.82688 112.253007 
L 279.206386 112.253007 
z
" clip-path="url(#p22faa57792)" style="fill: #1f77b4"/>
   </g>
   <g id="patch_135">
    <path d="M 280.82688 273.312 
L 282.447374 273.312 
L 282.447374 94.019914 
L 280.82688 94.019914 
z
" clip-path="url(#p22faa57792)" style="fill: #1f77b4"/>
   </g>
   <g id="patch_136">
    <path d="M 282.447374 273.312 
L 284.067868 273.312 
L 284.067868 101.920921 
L 282.447374 101.920921 
z
" clip-path="url(#p22faa57792)" style="fill: #1f77b4"/>
   </g>
   <g id="patch_137">
    <path d="M 284.067868 273.312 
L 285.688363 273.312 
L 285.688363 98.882072 
L 284.067868 98.882072 
z
" clip-path="url(#p22faa57792)" style="fill: #1f77b4"/>
   </g>
   <g id="patch_138">
    <path d="M 285.688363 273.312 
L 287.308857 273.312 
L 287.308857 100.097612 
L 285.688363 100.097612 
z
" clip-path="url(#p22faa57792)" style="fill: #1f77b4"/>
   </g>
   <g id="patch_139">
    <path d="M 287.308857 273.312 
L 288.929351 273.312 
L 288.929351 95.843223 
L 287.308857 95.843223 
z
" clip-path="url(#p22faa57792)" style="fill: #1f77b4"/>
   </g>
   <g id="patch_140">
    <path d="M 288.929351 273.312 
L 290.549845 273.312 
L 290.549845 115.291856 
L 288.929351 115.291856 
z
" clip-path="url(#p22faa57792)" style="fill: #1f77b4"/>
   </g>
   <g id="patch_141">
    <path d="M 290.549845 273.312 
L 292.17034 273.312 
L 292.17034 112.860777 
L 290.549845 112.860777 
z
" clip-path="url(#p22faa57792)" style="fill: #1f77b4"/>
   </g>
   <g id="patch_142">
    <path d="M 292.17034 273.312 
L 293.790834 273.312 
L 293.790834 115.291856 
L 292.17034 115.291856 
z
" clip-path="url(#p22faa57792)" style="fill: #1f77b4"/>
   </g>
   <g id="patch_143">
    <path d="M 293.790834 273.312 
L 295.411328 273.312 
L 295.411328 111.037468 
L 293.790834 111.037468 
z
" clip-path="url(#p22faa57792)" style="fill: #1f77b4"/>
   </g>
   <g id="patch_144">
    <path d="M 295.411328 273.312 
L 297.031822 273.312 
L 297.031822 91.588835 
L 295.411328 91.588835 
z
" clip-path="url(#p22faa57792)" style="fill: #1f77b4"/>
   </g>
   <g id="patch_145">
    <path d="M 297.031822 273.312 
L 298.652316 273.312 
L 298.652316 101.313151 
L 297.031822 101.313151 
z
" clip-path="url(#p22faa57792)" style="fill: #1f77b4"/>
   </g>
   <g id="patch_146">
    <path d="M 298.652316 273.312 
L 300.272811 273.312 
L 300.272811 88.549986 
L 298.652316 88.549986 
z
" clip-path="url(#p22faa57792)" style="fill: #1f77b4"/>
   </g>
   <g id="patch_147">
    <path d="M 300.272811 273.312 
L 301.893305 273.312 
L 301.893305 87.334446 
L 300.272811 87.334446 
z
" clip-path="url(#p22faa57792)" style="fill: #1f77b4"/>
   </g>
   <g id="patch_148">
    <path d="M 301.893305 273.312 
L 303.513799 273.312 
L 303.513799 83.687827 
L 301.893305 83.687827 
z
" clip-path="url(#p22faa57792)" style="fill: #1f77b4"/>
   </g>
   <g id="patch_149">
    <path d="M 303.513799 273.312 
L 305.134293 273.312 
L 305.134293 90.981065 
L 303.513799 90.981065 
z
" clip-path="url(#p22faa57792)" style="fill: #1f77b4"/>
   </g>
   <g id="patch_150">
    <path d="M 305.134293 273.312 
L 306.754787 273.312 
L 306.754787 90.981065 
L 305.134293 90.981065 
z
" clip-path="url(#p22faa57792)" style="fill: #1f77b4"/>
   </g>
   <g id="patch_151">
    <path d="M 306.754787 273.312 
L 308.375282 273.312 
L 308.375282 105.56754 
L 306.754787 105.56754 
z
" clip-path="url(#p22faa57792)" style="fill: #1f77b4"/>
   </g>
   <g id="patch_152">
    <path d="M 308.375282 273.312 
L 309.995776 273.312 
L 309.995776 104.95977 
L 308.375282 104.95977 
z
" clip-path="url(#p22faa57792)" style="fill: #1f77b4"/>
   </g>
   <g id="patch_153">
    <path d="M 309.995776 273.312 
L 311.61627 273.312 
L 311.61627 89.765525 
L 309.995776 89.765525 
z
" clip-path="url(#p22faa57792)" style="fill: #1f77b4"/>
   </g>
   <g id="patch_154">
    <path d="M 311.61627 273.312 
L 313.236764 273.312 
L 313.236764 81.256748 
L 311.61627 81.256748 
z
" clip-path="url(#p22faa57792)" style="fill: #1f77b4"/>
   </g>
   <g id="patch_155">
    <path d="M 313.236764 273.312 
L 314.857258 273.312 
L 314.857258 89.157755 
L 313.236764 89.157755 
z
" clip-path="url(#p22faa57792)" style="fill: #1f77b4"/>
   </g>
   <g id="patch_156">
    <path d="M 314.857258 273.312 
L 316.477753 273.312 
L 316.477753 97.666532 
L 314.857258 97.666532 
z
" clip-path="url(#p22faa57792)" style="fill: #1f77b4"/>
   </g>
   <g id="patch_157">
    <path d="M 316.477753 273.312 
L 318.098247 273.312 
L 318.098247 86.726676 
L 316.477753 86.726676 
z
" clip-path="url(#p22faa57792)" style="fill: #1f77b4"/>
   </g>
   <g id="patch_158">
    <path d="M 318.098247 273.312 
L 319.718741 273.312 
L 319.718741 86.726676 
L 318.098247 86.726676 
z
" clip-path="url(#p22faa57792)" style="fill: #1f77b4"/>
   </g>
   <g id="patch_159">
    <path d="M 319.718741 273.312 
L 321.339235 273.312 
L 321.339235 82.472288 
L 319.718741 82.472288 
z
" clip-path="url(#p22faa57792)" style="fill: #1f77b4"/>
   </g>
   <g id="patch_160">
    <path d="M 321.339235 273.312 
L 322.959729 273.312 
L 322.959729 69.101353 
L 321.339235 69.101353 
z
" clip-path="url(#p22faa57792)" style="fill: #1f77b4"/>
   </g>
   <g id="patch_161">
    <path d="M 322.959729 273.312 
L 324.580224 273.312 
L 324.580224 95.235453 
L 322.959729 95.235453 
z
" clip-path="url(#p22faa57792)" style="fill: #1f77b4"/>
   </g>
   <g id="patch_162">
    <path d="M 324.580224 273.312 
L 326.200718 273.312 
L 326.200718 84.903367 
L 324.580224 84.903367 
z
" clip-path="url(#p22faa57792)" style="fill: #1f77b4"/>
   </g>
   <g id="patch_163">
    <path d="M 326.200718 273.312 
L 327.821212 273.312 
L 327.821212 86.118906 
L 326.200718 86.118906 
z
" clip-path="url(#p22faa57792)" style="fill: #1f77b4"/>
   </g>
   <g id="patch_164">
    <path d="M 327.821212 273.312 
L 329.441706 273.312 
L 329.441706 68.493583 
L 327.821212 68.493583 
z
" clip-path="url(#p22faa57792)" style="fill: #1f77b4"/>
   </g>
   <g id="patch_165">
    <path d="M 329.441706 273.312 
L 331.062201 273.312 
L 331.062201 66.062504 
L 329.441706 66.062504 
z
" clip-path="url(#p22faa57792)" style="fill: #1f77b4"/>
   </g>
   <g id="patch_166">
    <path d="M 331.062201 273.312 
L 332.682695 273.312 
L 332.682695 66.670273 
L 331.062201 66.670273 
z
" clip-path="url(#p22faa57792)" style="fill: #1f77b4"/>
   </g>
   <g id="patch_167">
    <path d="M 332.682695 273.312 
L 334.303189 273.312 
L 334.303189 71.532432 
L 332.682695 71.532432 
z
" clip-path="url(#p22faa57792)" style="fill: #1f77b4"/>
   </g>
   <g id="patch_168">
    <path d="M 334.303189 273.312 
L 335.923683 273.312 
L 335.923683 103.13646 
L 334.303189 103.13646 
z
" clip-path="url(#p22faa57792)" style="fill: #1f77b4"/>
   </g>
   <g id="patch_169">
    <path d="M 335.923683 273.312 
L 337.544177 273.312 
L 337.544177 67.278043 
L 335.923683 67.278043 
z
" clip-path="url(#p22faa57792)" style="fill: #1f77b4"/>
   </g>
   <g id="patch_170">
    <path d="M 337.544177 273.312 
L 339.164672 273.312 
L 339.164672 69.101353 
L 337.544177 69.101353 
z
" clip-path="url(#p22faa57792)" style="fill: #1f77b4"/>
   </g>
   <g id="patch_171">
    <path d="M 339.164672 273.312 
L 340.785166 273.312 
L 340.785166 63.023655 
L 339.164672 63.023655 
z
" clip-path="url(#p22faa57792)" style="fill: #1f77b4"/>
   </g>
   <g id="patch_172">
    <path d="M 340.785166 273.312 
L 342.40566 273.312 
L 342.40566 61.808115 
L 340.785166 61.808115 
z
" clip-path="url(#p22faa57792)" style="fill: #1f77b4"/>
   </g>
   <g id="patch_173">
    <path d="M 342.40566 273.312 
L 344.026154 273.312 
L 344.026154 83.687827 
L 342.40566 83.687827 
z
" clip-path="url(#p22faa57792)" style="fill: #1f77b4"/>
   </g>
   <g id="patch_174">
    <path d="M 344.026154 273.312 
L 345.646648 273.312 
L 345.646648 69.101353 
L 344.026154 69.101353 
z
" clip-path="url(#p22faa57792)" style="fill: #1f77b4"/>
   </g>
   <g id="patch_175">
    <path d="M 345.646648 273.312 
L 347.267143 273.312 
L 347.267143 56.338187 
L 345.646648 56.338187 
z
" clip-path="url(#p22faa57792)" style="fill: #1f77b4"/>
   </g>
   <g id="patch_176">
    <path d="M 347.267143 273.312 
L 348.887637 273.312 
L 348.887637 77.00236 
L 347.267143 77.00236 
z
" clip-path="url(#p22faa57792)" style="fill: #1f77b4"/>
   </g>
   <g id="patch_177">
    <path d="M 348.887637 273.312 
L 350.508131 273.312 
L 350.508131 65.454734 
L 348.887637 65.454734 
z
" clip-path="url(#p22faa57792)" style="fill: #1f77b4"/>
   </g>
   <g id="patch_178">
    <path d="M 350.508131 273.312 
L 352.128625 273.312 
L 352.128625 43.575022 
L 350.508131 43.575022 
z
" clip-path="url(#p22faa57792)" style="fill: #1f77b4"/>
   </g>
   <g id="patch_179">
    <path d="M 352.128625 273.312 
L 353.749119 273.312 
L 353.749119 61.200345 
L 352.128625 61.200345 
z
" clip-path="url(#p22faa57792)" style="fill: #1f77b4"/>
   </g>
   <g id="patch_180">
    <path d="M 353.749119 273.312 
L 355.369614 273.312 
L 355.369614 56.338187 
L 353.749119 56.338187 
z
" clip-path="url(#p22faa57792)" style="fill: #1f77b4"/>
   </g>
   <g id="patch_181">
    <path d="M 355.369614 273.312 
L 356.990108 273.312 
L 356.990108 35.066245 
L 355.369614 35.066245 
z
" clip-path="url(#p22faa57792)" style="fill: #1f77b4"/>
   </g>
   <g id="patch_182">
    <path d="M 356.990108 273.312 
L 358.610602 273.312 
L 358.610602 50.260489 
L 356.990108 50.260489 
z
" clip-path="url(#p22faa57792)" style="fill: #1f77b4"/>
   </g>
   <g id="patch_183">
    <path d="M 358.610602 273.312 
L 360.231096 273.312 
L 360.231096 46.613871 
L 358.610602 46.613871 
z
" clip-path="url(#p22faa57792)" style="fill: #1f77b4"/>
   </g>
   <g id="patch_184">
    <path d="M 360.231096 273.312 
L 361.851591 273.312 
L 361.851591 50.868259 
L 360.231096 50.868259 
z
" clip-path="url(#p22faa57792)" style="fill: #1f77b4"/>
   </g>
   <g id="patch_185">
    <path d="M 361.851591 273.312 
L 363.472085 273.312 
L 363.472085 41.143942 
L 361.851591 41.143942 
z
" clip-path="url(#p22faa57792)" style="fill: #1f77b4"/>
   </g>
   <g id="patch_186">
    <path d="M 363.472085 273.312 
L 365.092579 273.312 
L 365.092579 53.907108 
L 363.472085 53.907108 
z
" clip-path="url(#p22faa57792)" style="fill: #1f77b4"/>
   </g>
   <g id="patch_187">
    <path d="M 365.092579 273.312 
L 366.713073 273.312 
L 366.713073 49.652719 
L 365.092579 49.652719 
z
" clip-path="url(#p22faa57792)" style="fill: #1f77b4"/>
   </g>
   <g id="patch_188">
    <path d="M 366.713073 273.312 
L 368.333567 273.312 
L 368.333567 60.592576 
L 366.713073 60.592576 
z
" clip-path="url(#p22faa57792)" style="fill: #1f77b4"/>
   </g>
   <g id="patch_189">
    <path d="M 368.333567 273.312 
L 369.954062 273.312 
L 369.954062 27.773007 
L 368.333567 27.773007 
z
" clip-path="url(#p22faa57792)" style="fill: #1f77b4"/>
   </g>
   <g id="patch_190">
    <path d="M 369.954062 273.312 
L 371.574556 273.312 
L 371.574556 23.518619 
L 369.954062 23.518619 
z
" clip-path="url(#p22faa57792)" style="fill: #1f77b4"/>
   </g>
   <g id="patch_191">
    <path d="M 371.574556 273.312 
L 373.19505 273.312 
L 373.19505 36.281784 
L 371.574556 36.281784 
z
" clip-path="url(#p22faa57792)" style="fill: #1f77b4"/>
   </g>
   <g id="patch_192">
    <path d="M 373.19505 273.312 
L 374.815544 273.312 
L 374.815544 57.553727 
L 373.19505 57.553727 
z
" clip-path="url(#p22faa57792)" style="fill: #1f77b4"/>
   </g>
   <g id="patch_193">
    <path d="M 374.815544 273.312 
L 376.436038 273.312 
L 376.436038 49.652719 
L 374.815544 49.652719 
z
" clip-path="url(#p22faa57792)" style="fill: #1f77b4"/>
   </g>
   <g id="patch_194">
    <path d="M 376.436038 273.312 
L 378.056533 273.312 
L 378.056533 61.808115 
L 376.436038 61.808115 
z
" clip-path="url(#p22faa57792)" style="fill: #1f77b4"/>
   </g>
   <g id="patch_195">
    <path d="M 378.056533 273.312 
L 379.677027 273.312 
L 379.677027 37.497324 
L 378.056533 37.497324 
z
" clip-path="url(#p22faa57792)" style="fill: #1f77b4"/>
   </g>
   <g id="patch_196">
    <path d="M 379.677027 273.312 
L 381.297521 273.312 
L 381.297521 65.454734 
L 379.677027 65.454734 
z
" clip-path="url(#p22faa57792)" style="fill: #1f77b4"/>
   </g>
   <g id="patch_197">
    <path d="M 381.297521 273.312 
L 382.918015 273.312 
L 382.918015 36.281784 
L 381.297521 36.281784 
z
" clip-path="url(#p22faa57792)" style="fill: #1f77b4"/>
   </g>
   <g id="patch_198">
    <path d="M 382.918015 273.312 
L 384.538509 273.312 
L 384.538509 19.872 
L 382.918015 19.872 
z
" clip-path="url(#p22faa57792)" style="fill: #1f77b4"/>
   </g>
   <g id="patch_199">
    <path d="M 384.538509 273.312 
L 386.159004 273.312 
L 386.159004 23.518619 
L 384.538509 23.518619 
z
" clip-path="url(#p22faa57792)" style="fill: #1f77b4"/>
   </g>
   <g id="patch_200">
    <path d="M 386.159004 273.312 
L 387.779498 273.312 
L 387.779498 46.006101 
L 386.159004 46.006101 
z
" clip-path="url(#p22faa57792)" style="fill: #1f77b4"/>
   </g>
   <g id="patch_201">
    <path d="M 387.779498 273.312 
L 389.399992 273.312 
L 389.399992 51.476029 
L 387.779498 51.476029 
z
" clip-path="url(#p22faa57792)" style="fill: #1f77b4"/>
   </g>
   <g id="patch_202">
    <path d="M 389.399992 273.312 
L 391.020486 273.312 
L 391.020486 29.596317 
L 389.399992 29.596317 
z
" clip-path="url(#p22faa57792)" style="fill: #1f77b4"/>
   </g>
   <g id="matplotlib.axis_1">
    <g id="xtick_1">
     <g id="line2d_1">
      <defs>
       <path id="m4798fef9af" d="M 0 0 
L 0 3.5 
" style="stroke: #000000; stroke-width: 0.8"/>
      </defs>
      <g>
       <use xlink:href="#m4798fef9af" x="66.376477" y="273.312" style="stroke: #000000; stroke-width: 0.8"/>
      </g>
     </g>
     <g id="text_1">
      <!-- 0.0 -->
      <g transform="translate(58.424915 287.910437)scale(0.1 -0.1)">
       <defs>
        <path id="DejaVuSans-30" d="M 2034 4250 
Q 1547 4250 1301 3770 
Q 1056 3291 1056 2328 
Q 1056 1369 1301 889 
Q 1547 409 2034 409 
Q 2525 409 2770 889 
Q 3016 1369 3016 2328 
Q 3016 3291 2770 3770 
Q 2525 4250 2034 4250 
z
M 2034 4750 
Q 2819 4750 3233 4129 
Q 3647 3509 3647 2328 
Q 3647 1150 3233 529 
Q 2819 -91 2034 -91 
Q 1250 -91 836 529 
Q 422 1150 422 2328 
Q 422 3509 836 4129 
Q 1250 4750 2034 4750 
z
" transform="scale(0.015625)"/>
        <path id="DejaVuSans-2e" d="M 684 794 
L 1344 794 
L 1344 0 
L 684 0 
L 684 794 
z
" transform="scale(0.015625)"/>
       </defs>
       <use xlink:href="#DejaVuSans-30"/>
       <use xlink:href="#DejaVuSans-2e" x="63.623047"/>
       <use xlink:href="#DejaVuSans-30" x="95.410156"/>
      </g>
     </g>
    </g>
    <g id="xtick_2">
     <g id="line2d_2">
      <g>
       <use xlink:href="#m4798fef9af" x="131.307386" y="273.312" style="stroke: #000000; stroke-width: 0.8"/>
      </g>
     </g>
     <g id="text_2">
      <!-- 0.2 -->
      <g transform="translate(123.355824 287.910437)scale(0.1 -0.1)">
       <defs>
        <path id="DejaVuSans-32" d="M 1228 531 
L 3431 531 
L 3431 0 
L 469 0 
L 469 531 
Q 828 903 1448 1529 
Q 2069 2156 2228 2338 
Q 2531 2678 2651 2914 
Q 2772 3150 2772 3378 
Q 2772 3750 2511 3984 
Q 2250 4219 1831 4219 
Q 1534 4219 1204 4116 
Q 875 4013 500 3803 
L 500 4441 
Q 881 4594 1212 4672 
Q 1544 4750 1819 4750 
Q 2544 4750 2975 4387 
Q 3406 4025 3406 3419 
Q 3406 3131 3298 2873 
Q 3191 2616 2906 2266 
Q 2828 2175 2409 1742 
Q 1991 1309 1228 531 
z
" transform="scale(0.015625)"/>
       </defs>
       <use xlink:href="#DejaVuSans-30"/>
       <use xlink:href="#DejaVuSans-2e" x="63.623047"/>
       <use xlink:href="#DejaVuSans-32" x="95.410156"/>
      </g>
     </g>
    </g>
    <g id="xtick_3">
     <g id="line2d_3">
      <g>
       <use xlink:href="#m4798fef9af" x="196.238295" y="273.312" style="stroke: #000000; stroke-width: 0.8"/>
      </g>
     </g>
     <g id="text_3">
      <!-- 0.4 -->
      <g transform="translate(188.286733 287.910437)scale(0.1 -0.1)">
       <defs>
        <path id="DejaVuSans-34" d="M 2419 4116 
L 825 1625 
L 2419 1625 
L 2419 4116 
z
M 2253 4666 
L 3047 4666 
L 3047 1625 
L 3713 1625 
L 3713 1100 
L 3047 1100 
L 3047 0 
L 2419 0 
L 2419 1100 
L 313 1100 
L 313 1709 
L 2253 4666 
z
" transform="scale(0.015625)"/>
       </defs>
       <use xlink:href="#DejaVuSans-30"/>
       <use xlink:href="#DejaVuSans-2e" x="63.623047"/>
       <use xlink:href="#DejaVuSans-34" x="95.410156"/>
      </g>
     </g>
    </g>
    <g id="xtick_4">
     <g id="line2d_4">
      <g>
       <use xlink:href="#m4798fef9af" x="261.169205" y="273.312" style="stroke: #000000; stroke-width: 0.8"/>
      </g>
     </g>
     <g id="text_4">
      <!-- 0.6 -->
      <g transform="translate(253.217642 287.910437)scale(0.1 -0.1)">
       <defs>
        <path id="DejaVuSans-36" d="M 2113 2584 
Q 1688 2584 1439 2293 
Q 1191 2003 1191 1497 
Q 1191 994 1439 701 
Q 1688 409 2113 409 
Q 2538 409 2786 701 
Q 3034 994 3034 1497 
Q 3034 2003 2786 2293 
Q 2538 2584 2113 2584 
z
M 3366 4563 
L 3366 3988 
Q 3128 4100 2886 4159 
Q 2644 4219 2406 4219 
Q 1781 4219 1451 3797 
Q 1122 3375 1075 2522 
Q 1259 2794 1537 2939 
Q 1816 3084 2150 3084 
Q 2853 3084 3261 2657 
Q 3669 2231 3669 1497 
Q 3669 778 3244 343 
Q 2819 -91 2113 -91 
Q 1303 -91 875 529 
Q 447 1150 447 2328 
Q 447 3434 972 4092 
Q 1497 4750 2381 4750 
Q 2619 4750 2861 4703 
Q 3103 4656 3366 4563 
z
" transform="scale(0.015625)"/>
       </defs>
       <use xlink:href="#DejaVuSans-30"/>
       <use xlink:href="#DejaVuSans-2e" x="63.623047"/>
       <use xlink:href="#DejaVuSans-36" x="95.410156"/>
      </g>
     </g>
    </g>
    <g id="xtick_5">
     <g id="line2d_5">
      <g>
       <use xlink:href="#m4798fef9af" x="326.100114" y="273.312" style="stroke: #000000; stroke-width: 0.8"/>
      </g>
     </g>
     <g id="text_5">
      <!-- 0.8 -->
      <g transform="translate(318.148551 287.910437)scale(0.1 -0.1)">
       <defs>
        <path id="DejaVuSans-38" d="M 2034 2216 
Q 1584 2216 1326 1975 
Q 1069 1734 1069 1313 
Q 1069 891 1326 650 
Q 1584 409 2034 409 
Q 2484 409 2743 651 
Q 3003 894 3003 1313 
Q 3003 1734 2745 1975 
Q 2488 2216 2034 2216 
z
M 1403 2484 
Q 997 2584 770 2862 
Q 544 3141 544 3541 
Q 544 4100 942 4425 
Q 1341 4750 2034 4750 
Q 2731 4750 3128 4425 
Q 3525 4100 3525 3541 
Q 3525 3141 3298 2862 
Q 3072 2584 2669 2484 
Q 3125 2378 3379 2068 
Q 3634 1759 3634 1313 
Q 3634 634 3220 271 
Q 2806 -91 2034 -91 
Q 1263 -91 848 271 
Q 434 634 434 1313 
Q 434 1759 690 2068 
Q 947 2378 1403 2484 
z
M 1172 3481 
Q 1172 3119 1398 2916 
Q 1625 2713 2034 2713 
Q 2441 2713 2670 2916 
Q 2900 3119 2900 3481 
Q 2900 3844 2670 4047 
Q 2441 4250 2034 4250 
Q 1625 4250 1398 4047 
Q 1172 3844 1172 3481 
z
" transform="scale(0.015625)"/>
       </defs>
       <use xlink:href="#DejaVuSans-30"/>
       <use xlink:href="#DejaVuSans-2e" x="63.623047"/>
       <use xlink:href="#DejaVuSans-38" x="95.410156"/>
      </g>
     </g>
    </g>
    <g id="xtick_6">
     <g id="line2d_6">
      <g>
       <use xlink:href="#m4798fef9af" x="391.031023" y="273.312" style="stroke: #000000; stroke-width: 0.8"/>
      </g>
     </g>
     <g id="text_6">
      <!-- 1.0 -->
      <g transform="translate(383.07946 287.910437)scale(0.1 -0.1)">
       <defs>
        <path id="DejaVuSans-31" d="M 794 531 
L 1825 531 
L 1825 4091 
L 703 3866 
L 703 4441 
L 1819 4666 
L 2450 4666 
L 2450 531 
L 3481 531 
L 3481 0 
L 794 0 
L 794 531 
z
" transform="scale(0.015625)"/>
       </defs>
       <use xlink:href="#DejaVuSans-31"/>
       <use xlink:href="#DejaVuSans-2e" x="63.623047"/>
       <use xlink:href="#DejaVuSans-30" x="95.410156"/>
      </g>
     </g>
    </g>
    <g id="text_7">
     <!-- Propagation direction -->
     <g transform="translate(175.221719 301.588562)scale(0.1 -0.1)">
      <defs>
       <path id="DejaVuSans-50" d="M 1259 4147 
L 1259 2394 
L 2053 2394 
Q 2494 2394 2734 2622 
Q 2975 2850 2975 3272 
Q 2975 3691 2734 3919 
Q 2494 4147 2053 4147 
L 1259 4147 
z
M 628 4666 
L 2053 4666 
Q 2838 4666 3239 4311 
Q 3641 3956 3641 3272 
Q 3641 2581 3239 2228 
Q 2838 1875 2053 1875 
L 1259 1875 
L 1259 0 
L 628 0 
L 628 4666 
z
" transform="scale(0.015625)"/>
       <path id="DejaVuSans-72" d="M 2631 2963 
Q 2534 3019 2420 3045 
Q 2306 3072 2169 3072 
Q 1681 3072 1420 2755 
Q 1159 2438 1159 1844 
L 1159 0 
L 581 0 
L 581 3500 
L 1159 3500 
L 1159 2956 
Q 1341 3275 1631 3429 
Q 1922 3584 2338 3584 
Q 2397 3584 2469 3576 
Q 2541 3569 2628 3553 
L 2631 2963 
z
" transform="scale(0.015625)"/>
       <path id="DejaVuSans-6f" d="M 1959 3097 
Q 1497 3097 1228 2736 
Q 959 2375 959 1747 
Q 959 1119 1226 758 
Q 1494 397 1959 397 
Q 2419 397 2687 759 
Q 2956 1122 2956 1747 
Q 2956 2369 2687 2733 
Q 2419 3097 1959 3097 
z
M 1959 3584 
Q 2709 3584 3137 3096 
Q 3566 2609 3566 1747 
Q 3566 888 3137 398 
Q 2709 -91 1959 -91 
Q 1206 -91 779 398 
Q 353 888 353 1747 
Q 353 2609 779 3096 
Q 1206 3584 1959 3584 
z
" transform="scale(0.015625)"/>
       <path id="DejaVuSans-70" d="M 1159 525 
L 1159 -1331 
L 581 -1331 
L 581 3500 
L 1159 3500 
L 1159 2969 
Q 1341 3281 1617 3432 
Q 1894 3584 2278 3584 
Q 2916 3584 3314 3078 
Q 3713 2572 3713 1747 
Q 3713 922 3314 415 
Q 2916 -91 2278 -91 
Q 1894 -91 1617 61 
Q 1341 213 1159 525 
z
M 3116 1747 
Q 3116 2381 2855 2742 
Q 2594 3103 2138 3103 
Q 1681 3103 1420 2742 
Q 1159 2381 1159 1747 
Q 1159 1113 1420 752 
Q 1681 391 2138 391 
Q 2594 391 2855 752 
Q 3116 1113 3116 1747 
z
" transform="scale(0.015625)"/>
       <path id="DejaVuSans-61" d="M 2194 1759 
Q 1497 1759 1228 1600 
Q 959 1441 959 1056 
Q 959 750 1161 570 
Q 1363 391 1709 391 
Q 2188 391 2477 730 
Q 2766 1069 2766 1631 
L 2766 1759 
L 2194 1759 
z
M 3341 1997 
L 3341 0 
L 2766 0 
L 2766 531 
Q 2569 213 2275 61 
Q 1981 -91 1556 -91 
Q 1019 -91 701 211 
Q 384 513 384 1019 
Q 384 1609 779 1909 
Q 1175 2209 1959 2209 
L 2766 2209 
L 2766 2266 
Q 2766 2663 2505 2880 
Q 2244 3097 1772 3097 
Q 1472 3097 1187 3025 
Q 903 2953 641 2809 
L 641 3341 
Q 956 3463 1253 3523 
Q 1550 3584 1831 3584 
Q 2591 3584 2966 3190 
Q 3341 2797 3341 1997 
z
" transform="scale(0.015625)"/>
       <path id="DejaVuSans-67" d="M 2906 1791 
Q 2906 2416 2648 2759 
Q 2391 3103 1925 3103 
Q 1463 3103 1205 2759 
Q 947 2416 947 1791 
Q 947 1169 1205 825 
Q 1463 481 1925 481 
Q 2391 481 2648 825 
Q 2906 1169 2906 1791 
z
M 3481 434 
Q 3481 -459 3084 -895 
Q 2688 -1331 1869 -1331 
Q 1566 -1331 1297 -1286 
Q 1028 -1241 775 -1147 
L 775 -588 
Q 1028 -725 1275 -790 
Q 1522 -856 1778 -856 
Q 2344 -856 2625 -561 
Q 2906 -266 2906 331 
L 2906 616 
Q 2728 306 2450 153 
Q 2172 0 1784 0 
Q 1141 0 747 490 
Q 353 981 353 1791 
Q 353 2603 747 3093 
Q 1141 3584 1784 3584 
Q 2172 3584 2450 3431 
Q 2728 3278 2906 2969 
L 2906 3500 
L 3481 3500 
L 3481 434 
z
" transform="scale(0.015625)"/>
       <path id="DejaVuSans-74" d="M 1172 4494 
L 1172 3500 
L 2356 3500 
L 2356 3053 
L 1172 3053 
L 1172 1153 
Q 1172 725 1289 603 
Q 1406 481 1766 481 
L 2356 481 
L 2356 0 
L 1766 0 
Q 1100 0 847 248 
Q 594 497 594 1153 
L 594 3053 
L 172 3053 
L 172 3500 
L 594 3500 
L 594 4494 
L 1172 4494 
z
" transform="scale(0.015625)"/>
       <path id="DejaVuSans-69" d="M 603 3500 
L 1178 3500 
L 1178 0 
L 603 0 
L 603 3500 
z
M 603 4863 
L 1178 4863 
L 1178 4134 
L 603 4134 
L 603 4863 
z
" transform="scale(0.015625)"/>
       <path id="DejaVuSans-6e" d="M 3513 2113 
L 3513 0 
L 2938 0 
L 2938 2094 
Q 2938 2591 2744 2837 
Q 2550 3084 2163 3084 
Q 1697 3084 1428 2787 
Q 1159 2491 1159 1978 
L 1159 0 
L 581 0 
L 581 3500 
L 1159 3500 
L 1159 2956 
Q 1366 3272 1645 3428 
Q 1925 3584 2291 3584 
Q 2894 3584 3203 3211 
Q 3513 2838 3513 2113 
z
" transform="scale(0.015625)"/>
       <path id="DejaVuSans-20" transform="scale(0.015625)"/>
       <path id="DejaVuSans-64" d="M 2906 2969 
L 2906 4863 
L 3481 4863 
L 3481 0 
L 2906 0 
L 2906 525 
Q 2725 213 2448 61 
Q 2172 -91 1784 -91 
Q 1150 -91 751 415 
Q 353 922 353 1747 
Q 353 2572 751 3078 
Q 1150 3584 1784 3584 
Q 2172 3584 2448 3432 
Q 2725 3281 2906 2969 
z
M 947 1747 
Q 947 1113 1208 752 
Q 1469 391 1925 391 
Q 2381 391 2643 752 
Q 2906 1113 2906 1747 
Q 2906 2381 2643 2742 
Q 2381 3103 1925 3103 
Q 1469 3103 1208 2742 
Q 947 2381 947 1747 
z
" transform="scale(0.015625)"/>
       <path id="DejaVuSans-65" d="M 3597 1894 
L 3597 1613 
L 953 1613 
Q 991 1019 1311 708 
Q 1631 397 2203 397 
Q 2534 397 2845 478 
Q 3156 559 3463 722 
L 3463 178 
Q 3153 47 2828 -22 
Q 2503 -91 2169 -91 
Q 1331 -91 842 396 
Q 353 884 353 1716 
Q 353 2575 817 3079 
Q 1281 3584 2069 3584 
Q 2775 3584 3186 3129 
Q 3597 2675 3597 1894 
z
M 3022 2063 
Q 3016 2534 2758 2815 
Q 2500 3097 2075 3097 
Q 1594 3097 1305 2825 
Q 1016 2553 972 2059 
L 3022 2063 
z
" transform="scale(0.015625)"/>
       <path id="DejaVuSans-63" d="M 3122 3366 
L 3122 2828 
Q 2878 2963 2633 3030 
Q 2388 3097 2138 3097 
Q 1578 3097 1268 2742 
Q 959 2388 959 1747 
Q 959 1106 1268 751 
Q 1578 397 2138 397 
Q 2388 397 2633 464 
Q 2878 531 3122 666 
L 3122 134 
Q 2881 22 2623 -34 
Q 2366 -91 2075 -91 
Q 1284 -91 818 406 
Q 353 903 353 1747 
Q 353 2603 823 3093 
Q 1294 3584 2113 3584 
Q 2378 3584 2631 3529 
Q 2884 3475 3122 3366 
z
" transform="scale(0.015625)"/>
      </defs>
      <use xlink:href="#DejaVuSans-50"/>
      <use xlink:href="#DejaVuSans-72" x="58.552734"/>
      <use xlink:href="#DejaVuSans-6f" x="97.416016"/>
      <use xlink:href="#DejaVuSans-70" x="158.597656"/>
      <use xlink:href="#DejaVuSans-61" x="222.074219"/>
      <use xlink:href="#DejaVuSans-67" x="283.353516"/>
      <use xlink:href="#DejaVuSans-61" x="346.830078"/>
      <use xlink:href="#DejaVuSans-74" x="408.109375"/>
      <use xlink:href="#DejaVuSans-69" x="447.318359"/>
      <use xlink:href="#DejaVuSans-6f" x="475.101562"/>
      <use xlink:href="#DejaVuSans-6e" x="536.283203"/>
      <use xlink:href="#DejaVuSans-20" x="599.662109"/>
      <use xlink:href="#DejaVuSans-64" x="631.449219"/>
      <use xlink:href="#DejaVuSans-69" x="694.925781"/>
      <use xlink:href="#DejaVuSans-72" x="722.708984"/>
      <use xlink:href="#DejaVuSans-65" x="761.572266"/>
      <use xlink:href="#DejaVuSans-63" x="823.095703"/>
      <use xlink:href="#DejaVuSans-74" x="878.076172"/>
      <use xlink:href="#DejaVuSans-69" x="917.285156"/>
      <use xlink:href="#DejaVuSans-6f" x="945.068359"/>
      <use xlink:href="#DejaVuSans-6e" x="1006.25"/>
     </g>
    </g>
   </g>
   <g id="matplotlib.axis_2">
    <g id="ytick_1">
     <g id="line2d_7">
      <defs>
       <path id="mc7fd20b55c" d="M 0 0 
L -3.5 0 
" style="stroke: #000000; stroke-width: 0.8"/>
      </defs>
      <g>
       <use xlink:href="#mc7fd20b55c" x="50.14375" y="273.312" style="stroke: #000000; stroke-width: 0.8"/>
      </g>
     </g>
     <g id="text_8">
      <!-- 0.00 -->
      <g transform="translate(20.878125 277.111219)scale(0.1 -0.1)">
       <use xlink:href="#DejaVuSans-30"/>
       <use xlink:href="#DejaVuSans-2e" x="63.623047"/>
       <use xlink:href="#DejaVuSans-30" x="95.410156"/>
       <use xlink:href="#DejaVuSans-30" x="159.033203"/>
      </g>
     </g>
    </g>
    <g id="ytick_2">
     <g id="line2d_8">
      <g>
       <use xlink:href="#mc7fd20b55c" x="50.14375" y="242.975526" style="stroke: #000000; stroke-width: 0.8"/>
      </g>
     </g>
     <g id="text_9">
      <!-- 0.25 -->
      <g transform="translate(20.878125 246.774745)scale(0.1 -0.1)">
       <defs>
        <path id="DejaVuSans-35" d="M 691 4666 
L 3169 4666 
L 3169 4134 
L 1269 4134 
L 1269 2991 
Q 1406 3038 1543 3061 
Q 1681 3084 1819 3084 
Q 2600 3084 3056 2656 
Q 3513 2228 3513 1497 
Q 3513 744 3044 326 
Q 2575 -91 1722 -91 
Q 1428 -91 1123 -41 
Q 819 9 494 109 
L 494 744 
Q 775 591 1075 516 
Q 1375 441 1709 441 
Q 2250 441 2565 725 
Q 2881 1009 2881 1497 
Q 2881 1984 2565 2268 
Q 2250 2553 1709 2553 
Q 1456 2553 1204 2497 
Q 953 2441 691 2322 
L 691 4666 
z
" transform="scale(0.015625)"/>
       </defs>
       <use xlink:href="#DejaVuSans-30"/>
       <use xlink:href="#DejaVuSans-2e" x="63.623047"/>
       <use xlink:href="#DejaVuSans-32" x="95.410156"/>
       <use xlink:href="#DejaVuSans-35" x="159.033203"/>
      </g>
     </g>
    </g>
    <g id="ytick_3">
     <g id="line2d_9">
      <g>
       <use xlink:href="#mc7fd20b55c" x="50.14375" y="212.639052" style="stroke: #000000; stroke-width: 0.8"/>
      </g>
     </g>
     <g id="text_10">
      <!-- 0.50 -->
      <g transform="translate(20.878125 216.438271)scale(0.1 -0.1)">
       <use xlink:href="#DejaVuSans-30"/>
       <use xlink:href="#DejaVuSans-2e" x="63.623047"/>
       <use xlink:href="#DejaVuSans-35" x="95.410156"/>
       <use xlink:href="#DejaVuSans-30" x="159.033203"/>
      </g>
     </g>
    </g>
    <g id="ytick_4">
     <g id="line2d_10">
      <g>
       <use xlink:href="#mc7fd20b55c" x="50.14375" y="182.302578" style="stroke: #000000; stroke-width: 0.8"/>
      </g>
     </g>
     <g id="text_11">
      <!-- 0.75 -->
      <g transform="translate(20.878125 186.101797)scale(0.1 -0.1)">
       <defs>
        <path id="DejaVuSans-37" d="M 525 4666 
L 3525 4666 
L 3525 4397 
L 1831 0 
L 1172 0 
L 2766 4134 
L 525 4134 
L 525 4666 
z
" transform="scale(0.015625)"/>
       </defs>
       <use xlink:href="#DejaVuSans-30"/>
       <use xlink:href="#DejaVuSans-2e" x="63.623047"/>
       <use xlink:href="#DejaVuSans-37" x="95.410156"/>
       <use xlink:href="#DejaVuSans-35" x="159.033203"/>
      </g>
     </g>
    </g>
    <g id="ytick_5">
     <g id="line2d_11">
      <g>
       <use xlink:href="#mc7fd20b55c" x="50.14375" y="151.966104" style="stroke: #000000; stroke-width: 0.8"/>
      </g>
     </g>
     <g id="text_12">
      <!-- 1.00 -->
      <g transform="translate(20.878125 155.765323)scale(0.1 -0.1)">
       <use xlink:href="#DejaVuSans-31"/>
       <use xlink:href="#DejaVuSans-2e" x="63.623047"/>
       <use xlink:href="#DejaVuSans-30" x="95.410156"/>
       <use xlink:href="#DejaVuSans-30" x="159.033203"/>
      </g>
     </g>
    </g>
    <g id="ytick_6">
     <g id="line2d_12">
      <g>
       <use xlink:href="#mc7fd20b55c" x="50.14375" y="121.62963" style="stroke: #000000; stroke-width: 0.8"/>
      </g>
     </g>
     <g id="text_13">
      <!-- 1.25 -->
      <g transform="translate(20.878125 125.428849)scale(0.1 -0.1)">
       <use xlink:href="#DejaVuSans-31"/>
       <use xlink:href="#DejaVuSans-2e" x="63.623047"/>
       <use xlink:href="#DejaVuSans-32" x="95.410156"/>
       <use xlink:href="#DejaVuSans-35" x="159.033203"/>
      </g>
     </g>
    </g>
    <g id="ytick_7">
     <g id="line2d_13">
      <g>
       <use xlink:href="#mc7fd20b55c" x="50.14375" y="91.293156" style="stroke: #000000; stroke-width: 0.8"/>
      </g>
     </g>
     <g id="text_14">
      <!-- 1.50 -->
      <g transform="translate(20.878125 95.092375)scale(0.1 -0.1)">
       <use xlink:href="#DejaVuSans-31"/>
       <use xlink:href="#DejaVuSans-2e" x="63.623047"/>
       <use xlink:href="#DejaVuSans-35" x="95.410156"/>
       <use xlink:href="#DejaVuSans-30" x="159.033203"/>
      </g>
     </g>
    </g>
    <g id="ytick_8">
     <g id="line2d_14">
      <g>
       <use xlink:href="#mc7fd20b55c" x="50.14375" y="60.956682" style="stroke: #000000; stroke-width: 0.8"/>
      </g>
     </g>
     <g id="text_15">
      <!-- 1.75 -->
      <g transform="translate(20.878125 64.755901)scale(0.1 -0.1)">
       <use xlink:href="#DejaVuSans-31"/>
       <use xlink:href="#DejaVuSans-2e" x="63.623047"/>
       <use xlink:href="#DejaVuSans-37" x="95.410156"/>
       <use xlink:href="#DejaVuSans-35" x="159.033203"/>
      </g>
     </g>
    </g>
    <g id="ytick_9">
     <g id="line2d_15">
      <g>
       <use xlink:href="#mc7fd20b55c" x="50.14375" y="30.620208" style="stroke: #000000; stroke-width: 0.8"/>
      </g>
     </g>
     <g id="text_16">
      <!-- 2.00 -->
      <g transform="translate(20.878125 34.419427)scale(0.1 -0.1)">
       <use xlink:href="#DejaVuSans-32"/>
       <use xlink:href="#DejaVuSans-2e" x="63.623047"/>
       <use xlink:href="#DejaVuSans-30" x="95.410156"/>
       <use xlink:href="#DejaVuSans-30" x="159.033203"/>
      </g>
     </g>
    </g>
    <g id="text_17">
     <!-- Probability density -->
     <g transform="translate(14.798438 186.606781)rotate(-90)scale(0.1 -0.1)">
      <defs>
       <path id="DejaVuSans-62" d="M 3116 1747 
Q 3116 2381 2855 2742 
Q 2594 3103 2138 3103 
Q 1681 3103 1420 2742 
Q 1159 2381 1159 1747 
Q 1159 1113 1420 752 
Q 1681 391 2138 391 
Q 2594 391 2855 752 
Q 3116 1113 3116 1747 
z
M 1159 2969 
Q 1341 3281 1617 3432 
Q 1894 3584 2278 3584 
Q 2916 3584 3314 3078 
Q 3713 2572 3713 1747 
Q 3713 922 3314 415 
Q 2916 -91 2278 -91 
Q 1894 -91 1617 61 
Q 1341 213 1159 525 
L 1159 0 
L 581 0 
L 581 4863 
L 1159 4863 
L 1159 2969 
z
" transform="scale(0.015625)"/>
       <path id="DejaVuSans-6c" d="M 603 4863 
L 1178 4863 
L 1178 0 
L 603 0 
L 603 4863 
z
" transform="scale(0.015625)"/>
       <path id="DejaVuSans-79" d="M 2059 -325 
Q 1816 -950 1584 -1140 
Q 1353 -1331 966 -1331 
L 506 -1331 
L 506 -850 
L 844 -850 
Q 1081 -850 1212 -737 
Q 1344 -625 1503 -206 
L 1606 56 
L 191 3500 
L 800 3500 
L 1894 763 
L 2988 3500 
L 3597 3500 
L 2059 -325 
z
" transform="scale(0.015625)"/>
       <path id="DejaVuSans-73" d="M 2834 3397 
L 2834 2853 
Q 2591 2978 2328 3040 
Q 2066 3103 1784 3103 
Q 1356 3103 1142 2972 
Q 928 2841 928 2578 
Q 928 2378 1081 2264 
Q 1234 2150 1697 2047 
L 1894 2003 
Q 2506 1872 2764 1633 
Q 3022 1394 3022 966 
Q 3022 478 2636 193 
Q 2250 -91 1575 -91 
Q 1294 -91 989 -36 
Q 684 19 347 128 
L 347 722 
Q 666 556 975 473 
Q 1284 391 1588 391 
Q 1994 391 2212 530 
Q 2431 669 2431 922 
Q 2431 1156 2273 1281 
Q 2116 1406 1581 1522 
L 1381 1569 
Q 847 1681 609 1914 
Q 372 2147 372 2553 
Q 372 3047 722 3315 
Q 1072 3584 1716 3584 
Q 2034 3584 2315 3537 
Q 2597 3491 2834 3397 
z
" transform="scale(0.015625)"/>
      </defs>
      <use xlink:href="#DejaVuSans-50"/>
      <use xlink:href="#DejaVuSans-72" x="58.552734"/>
      <use xlink:href="#DejaVuSans-6f" x="97.416016"/>
      <use xlink:href="#DejaVuSans-62" x="158.597656"/>
      <use xlink:href="#DejaVuSans-61" x="222.074219"/>
      <use xlink:href="#DejaVuSans-62" x="283.353516"/>
      <use xlink:href="#DejaVuSans-69" x="346.830078"/>
      <use xlink:href="#DejaVuSans-6c" x="374.613281"/>
      <use xlink:href="#DejaVuSans-69" x="402.396484"/>
      <use xlink:href="#DejaVuSans-74" x="430.179688"/>
      <use xlink:href="#DejaVuSans-79" x="469.388672"/>
      <use xlink:href="#DejaVuSans-20" x="528.568359"/>
      <use xlink:href="#DejaVuSans-64" x="560.355469"/>
      <use xlink:href="#DejaVuSans-65" x="623.832031"/>
      <use xlink:href="#DejaVuSans-6e" x="685.355469"/>
      <use xlink:href="#DejaVuSans-73" x="748.734375"/>
      <use xlink:href="#DejaVuSans-69" x="800.833984"/>
      <use xlink:href="#DejaVuSans-74" x="828.617188"/>
      <use xlink:href="#DejaVuSans-79" x="867.826172"/>
     </g>
    </g>
   </g>
   <g id="line2d_16">
    <path d="M 66.376477 273.312 
L 391.031023 30.620208 
L 391.031023 30.620208 
" clip-path="url(#p22faa57792)" style="fill: none; stroke: #ff7f0e; stroke-width: 1.5; stroke-linecap: square"/>
   </g>
   <g id="patch_203">
    <path d="M 50.14375 273.312 
L 50.14375 7.2 
" style="fill: none; stroke: #000000; stroke-width: 0.8; stroke-linejoin: miter; stroke-linecap: square"/>
   </g>
   <g id="patch_204">
    <path d="M 407.26375 273.312 
L 407.26375 7.2 
" style="fill: none; stroke: #000000; stroke-width: 0.8; stroke-linejoin: miter; stroke-linecap: square"/>
   </g>
   <g id="patch_205">
    <path d="M 50.14375 273.312 
L 407.26375 273.312 
" style="fill: none; stroke: #000000; stroke-width: 0.8; stroke-linejoin: miter; stroke-linecap: square"/>
   </g>
   <g id="patch_206">
    <path d="M 50.14375 7.2 
L 407.26375 7.2 
" style="fill: none; stroke: #000000; stroke-width: 0.8; stroke-linejoin: miter; stroke-linecap: square"/>
   </g>
  </g>
 </g>
 <defs>
  <clipPath id="p22faa57792">
   <rect x="50.14375" y="7.2" width="357.12" height="266.112"/>
  </clipPath>
 </defs>
</svg>
