<?xml version="1.0" encoding="utf-8" standalone="no"?>
<!DOCTYPE svg PUBLIC "-//W3C//DTD SVG 1.1//EN"
  "http://www.w3.org/Graphics/SVG/1.1/DTD/svg11.dtd">
<svg xmlns:xlink="http://www.w3.org/1999/xlink" width="414.46375pt" height="310.86825pt" viewBox="0 0 414.46375 310.86825" xmlns="http://www.w3.org/2000/svg" version="1.1">
 <metadata>
  <rdf:RDF xmlns:dc="http://purl.org/dc/elements/1.1/" xmlns:cc="http://creativecommons.org/ns#" xmlns:rdf="http://www.w3.org/1999/02/22-rdf-syntax-ns#">
   <cc:Work>
    <dc:type rdf:resource="http://purl.org/dc/dcmitype/StillImage"/>
    <dc:date>2022-05-10T17:03:53.563114</dc:date>
    <dc:format>image/svg+xml</dc:format>
    <dc:creator>
     <cc:Agent>
      <dc:title>Matplotlib v3.5.2, https://matplotlib.org/</dc:title>
     </cc:Agent>
    </dc:creator>
   </cc:Work>
  </rdf:RDF>
 </metadata>
 <defs>
  <style type="text/css">*{stroke-linejoin: round; stroke-linecap: butt}</style>
 </defs>
 <g id="figure_1">
  <g id="patch_1">
   <path d="M 0 310.86825 
L 414.46375 310.86825 
L 414.46375 0 
L 0 0 
z
" style="fill: #ffffff"/>
  </g>
  <g id="axes_1">
   <g id="patch_2">
    <path d="M 50.14375 273.312 
L 407.26375 273.312 
L 407.26375 7.2 
L 50.14375 7.2 
z
" style="fill: #ffffff"/>
   </g>
   <g id="patch_3">
    <path d="M 68.497299 273.312 
L 70.109927 273.312 
L 70.109927 270.280421 
L 68.497299 270.280421 
z
" clip-path="url(#p4f00ee6ad9)" style="fill: #1f77b4"/>
   </g>
   <g id="patch_4">
    <path d="M 70.109927 273.312 
L 71.722554 273.312 
L 71.722554 271.493053 
L 70.109927 271.493053 
z
" clip-path="url(#p4f00ee6ad9)" style="fill: #1f77b4"/>
   </g>
   <g id="patch_5">
    <path d="M 71.722554 273.312 
L 73.335181 273.312 
L 73.335181 267.855158 
L 71.722554 267.855158 
z
" clip-path="url(#p4f00ee6ad9)" style="fill: #1f77b4"/>
   </g>
   <g id="patch_6">
    <path d="M 73.335181 273.312 
L 74.947808 273.312 
L 74.947808 267.248842 
L 73.335181 267.248842 
z
" clip-path="url(#p4f00ee6ad9)" style="fill: #1f77b4"/>
   </g>
   <g id="patch_7">
    <path d="M 74.947808 273.312 
L 76.560436 273.312 
L 76.560436 266.036211 
L 74.947808 266.036211 
z
" clip-path="url(#p4f00ee6ad9)" style="fill: #1f77b4"/>
   </g>
   <g id="patch_8">
    <path d="M 76.560436 273.312 
L 78.173063 273.312 
L 78.173063 265.429895 
L 76.560436 265.429895 
z
" clip-path="url(#p4f00ee6ad9)" style="fill: #1f77b4"/>
   </g>
   <g id="patch_9">
    <path d="M 78.173063 273.312 
L 79.78569 273.312 
L 79.78569 269.067789 
L 78.173063 269.067789 
z
" clip-path="url(#p4f00ee6ad9)" style="fill: #1f77b4"/>
   </g>
   <g id="patch_10">
    <path d="M 79.78569 273.312 
L 81.398317 273.312 
L 81.398317 261.792 
L 79.78569 261.792 
z
" clip-path="url(#p4f00ee6ad9)" style="fill: #1f77b4"/>
   </g>
   <g id="patch_11">
    <path d="M 81.398317 273.312 
L 83.010945 273.312 
L 83.010945 258.154105 
L 81.398317 258.154105 
z
" clip-path="url(#p4f00ee6ad9)" style="fill: #1f77b4"/>
   </g>
   <g id="patch_12">
    <path d="M 83.010945 273.312 
L 84.623572 273.312 
L 84.623572 259.366737 
L 83.010945 259.366737 
z
" clip-path="url(#p4f00ee6ad9)" style="fill: #1f77b4"/>
   </g>
   <g id="patch_13">
    <path d="M 84.623572 273.312 
L 86.236199 273.312 
L 86.236199 261.185684 
L 84.623572 261.185684 
z
" clip-path="url(#p4f00ee6ad9)" style="fill: #1f77b4"/>
   </g>
   <g id="patch_14">
    <path d="M 86.236199 273.312 
L 87.848826 273.312 
L 87.848826 253.909895 
L 86.236199 253.909895 
z
" clip-path="url(#p4f00ee6ad9)" style="fill: #1f77b4"/>
   </g>
   <g id="patch_15">
    <path d="M 87.848826 273.312 
L 89.461454 273.312 
L 89.461454 260.579368 
L 87.848826 260.579368 
z
" clip-path="url(#p4f00ee6ad9)" style="fill: #1f77b4"/>
   </g>
   <g id="patch_16">
    <path d="M 89.461454 273.312 
L 91.074081 273.312 
L 91.074081 258.760421 
L 89.461454 258.760421 
z
" clip-path="url(#p4f00ee6ad9)" style="fill: #1f77b4"/>
   </g>
   <g id="patch_17">
    <path d="M 91.074081 273.312 
L 92.686708 273.312 
L 92.686708 258.154105 
L 91.074081 258.154105 
z
" clip-path="url(#p4f00ee6ad9)" style="fill: #1f77b4"/>
   </g>
   <g id="patch_18">
    <path d="M 92.686708 273.312 
L 94.299335 273.312 
L 94.299335 251.484632 
L 92.686708 251.484632 
z
" clip-path="url(#p4f00ee6ad9)" style="fill: #1f77b4"/>
   </g>
   <g id="patch_19">
    <path d="M 94.299335 273.312 
L 95.911963 273.312 
L 95.911963 256.335158 
L 94.299335 256.335158 
z
" clip-path="url(#p4f00ee6ad9)" style="fill: #1f77b4"/>
   </g>
   <g id="patch_20">
    <path d="M 95.911963 273.312 
L 97.52459 273.312 
L 97.52459 248.453053 
L 95.911963 248.453053 
z
" clip-path="url(#p4f00ee6ad9)" style="fill: #1f77b4"/>
   </g>
   <g id="patch_21">
    <path d="M 97.52459 273.312 
L 99.137217 273.312 
L 99.137217 250.878316 
L 97.52459 250.878316 
z
" clip-path="url(#p4f00ee6ad9)" style="fill: #1f77b4"/>
   </g>
   <g id="patch_22">
    <path d="M 99.137217 273.312 
L 100.749844 273.312 
L 100.749844 249.059368 
L 99.137217 249.059368 
z
" clip-path="url(#p4f00ee6ad9)" style="fill: #1f77b4"/>
   </g>
   <g id="patch_23">
    <path d="M 100.749844 273.312 
L 102.362472 273.312 
L 102.362472 253.303579 
L 100.749844 253.303579 
z
" clip-path="url(#p4f00ee6ad9)" style="fill: #1f77b4"/>
   </g>
   <g id="patch_24">
    <path d="M 102.362472 273.312 
L 103.975099 273.312 
L 103.975099 249.059368 
L 102.362472 249.059368 
z
" clip-path="url(#p4f00ee6ad9)" style="fill: #1f77b4"/>
   </g>
   <g id="patch_25">
    <path d="M 103.975099 273.312 
L 105.587726 273.312 
L 105.587726 247.240421 
L 103.975099 247.240421 
z
" clip-path="url(#p4f00ee6ad9)" style="fill: #1f77b4"/>
   </g>
   <g id="patch_26">
    <path d="M 105.587726 273.312 
L 107.200354 273.312 
L 107.200354 243.602526 
L 105.587726 243.602526 
z
" clip-path="url(#p4f00ee6ad9)" style="fill: #1f77b4"/>
   </g>
   <g id="patch_27">
    <path d="M 107.200354 273.312 
L 108.812981 273.312 
L 108.812981 238.145684 
L 107.200354 238.145684 
z
" clip-path="url(#p4f00ee6ad9)" style="fill: #1f77b4"/>
   </g>
   <g id="patch_28">
    <path d="M 108.812981 273.312 
L 110.425608 273.312 
L 110.425608 246.027789 
L 108.812981 246.027789 
z
" clip-path="url(#p4f00ee6ad9)" style="fill: #1f77b4"/>
   </g>
   <g id="patch_29">
    <path d="M 110.425608 273.312 
L 112.038235 273.312 
L 112.038235 236.326737 
L 110.425608 236.326737 
z
" clip-path="url(#p4f00ee6ad9)" style="fill: #1f77b4"/>
   </g>
   <g id="patch_30">
    <path d="M 112.038235 273.312 
L 113.650863 273.312 
L 113.650863 248.453053 
L 112.038235 248.453053 
z
" clip-path="url(#p4f00ee6ad9)" style="fill: #1f77b4"/>
   </g>
   <g id="patch_31">
    <path d="M 113.650863 273.312 
L 115.26349 273.312 
L 115.26349 230.263579 
L 113.650863 230.263579 
z
" clip-path="url(#p4f00ee6ad9)" style="fill: #1f77b4"/>
   </g>
   <g id="patch_32">
    <path d="M 115.26349 273.312 
L 116.876117 273.312 
L 116.876117 241.783579 
L 115.26349 241.783579 
z
" clip-path="url(#p4f00ee6ad9)" style="fill: #1f77b4"/>
   </g>
   <g id="patch_33">
    <path d="M 116.876117 273.312 
L 118.488744 273.312 
L 118.488744 231.476211 
L 116.876117 231.476211 
z
" clip-path="url(#p4f00ee6ad9)" style="fill: #1f77b4"/>
   </g>
   <g id="patch_34">
    <path d="M 118.488744 273.312 
L 120.101372 273.312 
L 120.101372 235.720421 
L 118.488744 235.720421 
z
" clip-path="url(#p4f00ee6ad9)" style="fill: #1f77b4"/>
   </g>
   <g id="patch_35">
    <path d="M 120.101372 273.312 
L 121.713999 273.312 
L 121.713999 232.082526 
L 120.101372 232.082526 
z
" clip-path="url(#p4f00ee6ad9)" style="fill: #1f77b4"/>
   </g>
   <g id="patch_36">
    <path d="M 121.713999 273.312 
L 123.326626 273.312 
L 123.326626 235.720421 
L 121.713999 235.720421 
z
" clip-path="url(#p4f00ee6ad9)" style="fill: #1f77b4"/>
   </g>
   <g id="patch_37">
    <path d="M 123.326626 273.312 
L 124.939253 273.312 
L 124.939253 233.901474 
L 123.326626 233.901474 
z
" clip-path="url(#p4f00ee6ad9)" style="fill: #1f77b4"/>
   </g>
   <g id="patch_38">
    <path d="M 124.939253 273.312 
L 126.551881 273.312 
L 126.551881 227.232 
L 124.939253 227.232 
z
" clip-path="url(#p4f00ee6ad9)" style="fill: #1f77b4"/>
   </g>
   <g id="patch_39">
    <path d="M 126.551881 273.312 
L 128.164508 273.312 
L 128.164508 237.539368 
L 126.551881 237.539368 
z
" clip-path="url(#p4f00ee6ad9)" style="fill: #1f77b4"/>
   </g>
   <g id="patch_40">
    <path d="M 128.164508 273.312 
L 129.777135 273.312 
L 129.777135 218.743579 
L 128.164508 218.743579 
z
" clip-path="url(#p4f00ee6ad9)" style="fill: #1f77b4"/>
   </g>
   <g id="patch_41">
    <path d="M 129.777135 273.312 
L 131.389762 273.312 
L 131.389762 215.712 
L 129.777135 215.712 
z
" clip-path="url(#p4f00ee6ad9)" style="fill: #1f77b4"/>
   </g>
   <g id="patch_42">
    <path d="M 131.389762 273.312 
L 133.00239 273.312 
L 133.00239 229.657263 
L 131.389762 229.657263 
z
" clip-path="url(#p4f00ee6ad9)" style="fill: #1f77b4"/>
   </g>
   <g id="patch_43">
    <path d="M 133.00239 273.312 
L 134.615017 273.312 
L 134.615017 224.806737 
L 133.00239 224.806737 
z
" clip-path="url(#p4f00ee6ad9)" style="fill: #1f77b4"/>
   </g>
   <g id="patch_44">
    <path d="M 134.615017 273.312 
L 136.227644 273.312 
L 136.227644 224.806737 
L 134.615017 224.806737 
z
" clip-path="url(#p4f00ee6ad9)" style="fill: #1f77b4"/>
   </g>
   <g id="patch_45">
    <path d="M 136.227644 273.312 
L 137.840271 273.312 
L 137.840271 227.232 
L 136.227644 227.232 
z
" clip-path="url(#p4f00ee6ad9)" style="fill: #1f77b4"/>
   </g>
   <g id="patch_46">
    <path d="M 137.840271 273.312 
L 139.452899 273.312 
L 139.452899 215.712 
L 137.840271 215.712 
z
" clip-path="url(#p4f00ee6ad9)" style="fill: #1f77b4"/>
   </g>
   <g id="patch_47">
    <path d="M 139.452899 273.312 
L 141.065526 273.312 
L 141.065526 219.349895 
L 139.452899 219.349895 
z
" clip-path="url(#p4f00ee6ad9)" style="fill: #1f77b4"/>
   </g>
   <g id="patch_48">
    <path d="M 141.065526 273.312 
L 142.678153 273.312 
L 142.678153 220.562526 
L 141.065526 220.562526 
z
" clip-path="url(#p4f00ee6ad9)" style="fill: #1f77b4"/>
   </g>
   <g id="patch_49">
    <path d="M 142.678153 273.312 
L 144.290781 273.312 
L 144.290781 221.775158 
L 142.678153 221.775158 
z
" clip-path="url(#p4f00ee6ad9)" style="fill: #1f77b4"/>
   </g>
   <g id="patch_50">
    <path d="M 144.290781 273.312 
L 145.903408 273.312 
L 145.903408 210.255158 
L 144.290781 210.255158 
z
" clip-path="url(#p4f00ee6ad9)" style="fill: #1f77b4"/>
   </g>
   <g id="patch_51">
    <path d="M 145.903408 273.312 
L 147.516035 273.312 
L 147.516035 210.861474 
L 145.903408 210.861474 
z
" clip-path="url(#p4f00ee6ad9)" style="fill: #1f77b4"/>
   </g>
   <g id="patch_52">
    <path d="M 147.516035 273.312 
L 149.128662 273.312 
L 149.128662 211.467789 
L 147.516035 211.467789 
z
" clip-path="url(#p4f00ee6ad9)" style="fill: #1f77b4"/>
   </g>
   <g id="patch_53">
    <path d="M 149.128662 273.312 
L 150.74129 273.312 
L 150.74129 219.349895 
L 149.128662 219.349895 
z
" clip-path="url(#p4f00ee6ad9)" style="fill: #1f77b4"/>
   </g>
   <g id="patch_54">
    <path d="M 150.74129 273.312 
L 152.353917 273.312 
L 152.353917 202.979368 
L 150.74129 202.979368 
z
" clip-path="url(#p4f00ee6ad9)" style="fill: #1f77b4"/>
   </g>
   <g id="patch_55">
    <path d="M 152.353917 273.312 
L 153.966544 273.312 
L 153.966544 206.617263 
L 152.353917 206.617263 
z
" clip-path="url(#p4f00ee6ad9)" style="fill: #1f77b4"/>
   </g>
   <g id="patch_56">
    <path d="M 153.966544 273.312 
L 155.579171 273.312 
L 155.579171 195.097263 
L 153.966544 195.097263 
z
" clip-path="url(#p4f00ee6ad9)" style="fill: #1f77b4"/>
   </g>
   <g id="patch_57">
    <path d="M 155.579171 273.312 
L 157.191799 273.312 
L 157.191799 198.735158 
L 155.579171 198.735158 
z
" clip-path="url(#p4f00ee6ad9)" style="fill: #1f77b4"/>
   </g>
   <g id="patch_58">
    <path d="M 157.191799 273.312 
L 158.804426 273.312 
L 158.804426 212.074105 
L 157.191799 212.074105 
z
" clip-path="url(#p4f00ee6ad9)" style="fill: #1f77b4"/>
   </g>
   <g id="patch_59">
    <path d="M 158.804426 273.312 
L 160.417053 273.312 
L 160.417053 198.128842 
L 158.804426 198.128842 
z
" clip-path="url(#p4f00ee6ad9)" style="fill: #1f77b4"/>
   </g>
   <g id="patch_60">
    <path d="M 160.417053 273.312 
L 162.02968 273.312 
L 162.02968 208.436211 
L 160.417053 208.436211 
z
" clip-path="url(#p4f00ee6ad9)" style="fill: #1f77b4"/>
   </g>
   <g id="patch_61">
    <path d="M 162.02968 273.312 
L 163.642308 273.312 
L 163.642308 213.893053 
L 162.02968 213.893053 
z
" clip-path="url(#p4f00ee6ad9)" style="fill: #1f77b4"/>
   </g>
   <g id="patch_62">
    <path d="M 163.642308 273.312 
L 165.254935 273.312 
L 165.254935 210.255158 
L 163.642308 210.255158 
z
" clip-path="url(#p4f00ee6ad9)" style="fill: #1f77b4"/>
   </g>
   <g id="patch_63">
    <path d="M 165.254935 273.312 
L 166.867562 273.312 
L 166.867562 185.396211 
L 165.254935 185.396211 
z
" clip-path="url(#p4f00ee6ad9)" style="fill: #1f77b4"/>
   </g>
   <g id="patch_64">
    <path d="M 166.867562 273.312 
L 168.480189 273.312 
L 168.480189 201.160421 
L 166.867562 201.160421 
z
" clip-path="url(#p4f00ee6ad9)" style="fill: #1f77b4"/>
   </g>
   <g id="patch_65">
    <path d="M 168.480189 273.312 
L 170.092817 273.312 
L 170.092817 195.703579 
L 168.480189 195.703579 
z
" clip-path="url(#p4f00ee6ad9)" style="fill: #1f77b4"/>
   </g>
   <g id="patch_66">
    <path d="M 170.092817 273.312 
L 171.705444 273.312 
L 171.705444 207.829895 
L 170.092817 207.829895 
z
" clip-path="url(#p4f00ee6ad9)" style="fill: #1f77b4"/>
   </g>
   <g id="patch_67">
    <path d="M 171.705444 273.312 
L 173.318071 273.312 
L 173.318071 195.097263 
L 171.705444 195.097263 
z
" clip-path="url(#p4f00ee6ad9)" style="fill: #1f77b4"/>
   </g>
   <g id="patch_68">
    <path d="M 173.318071 273.312 
L 174.930698 273.312 
L 174.930698 197.522526 
L 173.318071 197.522526 
z
" clip-path="url(#p4f00ee6ad9)" style="fill: #1f77b4"/>
   </g>
   <g id="patch_69">
    <path d="M 174.930698 273.312 
L 176.543326 273.312 
L 176.543326 204.192 
L 174.930698 204.192 
z
" clip-path="url(#p4f00ee6ad9)" style="fill: #1f77b4"/>
   </g>
   <g id="patch_70">
    <path d="M 176.543326 273.312 
L 178.155953 273.312 
L 178.155953 195.703579 
L 176.543326 195.703579 
z
" clip-path="url(#p4f00ee6ad9)" style="fill: #1f77b4"/>
   </g>
   <g id="patch_71">
    <path d="M 178.155953 273.312 
L 179.76858 273.312 
L 179.76858 181.152 
L 178.155953 181.152 
z
" clip-path="url(#p4f00ee6ad9)" style="fill: #1f77b4"/>
   </g>
   <g id="patch_72">
    <path d="M 179.76858 273.312 
L 181.381207 273.312 
L 181.381207 193.278316 
L 179.76858 193.278316 
z
" clip-path="url(#p4f00ee6ad9)" style="fill: #1f77b4"/>
   </g>
   <g id="patch_73">
    <path d="M 181.381207 273.312 
L 182.993835 273.312 
L 182.993835 178.120421 
L 181.381207 178.120421 
z
" clip-path="url(#p4f00ee6ad9)" style="fill: #1f77b4"/>
   </g>
   <g id="patch_74">
    <path d="M 182.993835 273.312 
L 184.606462 273.312 
L 184.606462 184.789895 
L 182.993835 184.789895 
z
" clip-path="url(#p4f00ee6ad9)" style="fill: #1f77b4"/>
   </g>
   <g id="patch_75">
    <path d="M 184.606462 273.312 
L 186.219089 273.312 
L 186.219089 184.789895 
L 184.606462 184.789895 
z
" clip-path="url(#p4f00ee6ad9)" style="fill: #1f77b4"/>
   </g>
   <g id="patch_76">
    <path d="M 186.219089 273.312 
L 187.831717 273.312 
L 187.831717 178.120421 
L 186.219089 178.120421 
z
" clip-path="url(#p4f00ee6ad9)" style="fill: #1f77b4"/>
   </g>
   <g id="patch_77">
    <path d="M 187.831717 273.312 
L 189.444344 273.312 
L 189.444344 184.183579 
L 187.831717 184.183579 
z
" clip-path="url(#p4f00ee6ad9)" style="fill: #1f77b4"/>
   </g>
   <g id="patch_78">
    <path d="M 189.444344 273.312 
L 191.056971 273.312 
L 191.056971 186.002526 
L 189.444344 186.002526 
z
" clip-path="url(#p4f00ee6ad9)" style="fill: #1f77b4"/>
   </g>
   <g id="patch_79">
    <path d="M 191.056971 273.312 
L 192.669598 273.312 
L 192.669598 173.876211 
L 191.056971 173.876211 
z
" clip-path="url(#p4f00ee6ad9)" style="fill: #1f77b4"/>
   </g>
   <g id="patch_80">
    <path d="M 192.669598 273.312 
L 194.282226 273.312 
L 194.282226 173.876211 
L 192.669598 173.876211 
z
" clip-path="url(#p4f00ee6ad9)" style="fill: #1f77b4"/>
   </g>
   <g id="patch_81">
    <path d="M 194.282226 273.312 
L 195.894853 273.312 
L 195.894853 178.726737 
L 194.282226 178.726737 
z
" clip-path="url(#p4f00ee6ad9)" style="fill: #1f77b4"/>
   </g>
   <g id="patch_82">
    <path d="M 195.894853 273.312 
L 197.50748 273.312 
L 197.50748 176.301474 
L 195.894853 176.301474 
z
" clip-path="url(#p4f00ee6ad9)" style="fill: #1f77b4"/>
   </g>
   <g id="patch_83">
    <path d="M 197.50748 273.312 
L 199.120107 273.312 
L 199.120107 181.152 
L 197.50748 181.152 
z
" clip-path="url(#p4f00ee6ad9)" style="fill: #1f77b4"/>
   </g>
   <g id="patch_84">
    <path d="M 199.120107 273.312 
L 200.732735 273.312 
L 200.732735 161.749895 
L 199.120107 161.749895 
z
" clip-path="url(#p4f00ee6ad9)" style="fill: #1f77b4"/>
   </g>
   <g id="patch_85">
    <path d="M 200.732735 273.312 
L 202.345362 273.312 
L 202.345362 185.396211 
L 200.732735 185.396211 
z
" clip-path="url(#p4f00ee6ad9)" style="fill: #1f77b4"/>
   </g>
   <g id="patch_86">
    <path d="M 202.345362 273.312 
L 203.957989 273.312 
L 203.957989 172.663579 
L 202.345362 172.663579 
z
" clip-path="url(#p4f00ee6ad9)" style="fill: #1f77b4"/>
   </g>
   <g id="patch_87">
    <path d="M 203.957989 273.312 
L 205.570616 273.312 
L 205.570616 173.876211 
L 203.957989 173.876211 
z
" clip-path="url(#p4f00ee6ad9)" style="fill: #1f77b4"/>
   </g>
   <g id="patch_88">
    <path d="M 205.570616 273.312 
L 207.183244 273.312 
L 207.183244 178.120421 
L 205.570616 178.120421 
z
" clip-path="url(#p4f00ee6ad9)" style="fill: #1f77b4"/>
   </g>
   <g id="patch_89">
    <path d="M 207.183244 273.312 
L 208.795871 273.312 
L 208.795871 166.600421 
L 207.183244 166.600421 
z
" clip-path="url(#p4f00ee6ad9)" style="fill: #1f77b4"/>
   </g>
   <g id="patch_90">
    <path d="M 208.795871 273.312 
L 210.408498 273.312 
L 210.408498 164.175158 
L 208.795871 164.175158 
z
" clip-path="url(#p4f00ee6ad9)" style="fill: #1f77b4"/>
   </g>
   <g id="patch_91">
    <path d="M 210.408498 273.312 
L 212.021125 273.312 
L 212.021125 164.781474 
L 210.408498 164.781474 
z
" clip-path="url(#p4f00ee6ad9)" style="fill: #1f77b4"/>
   </g>
   <g id="patch_92">
    <path d="M 212.021125 273.312 
L 213.633753 273.312 
L 213.633753 171.450947 
L 212.021125 171.450947 
z
" clip-path="url(#p4f00ee6ad9)" style="fill: #1f77b4"/>
   </g>
   <g id="patch_93">
    <path d="M 213.633753 273.312 
L 215.24638 273.312 
L 215.24638 187.215158 
L 213.633753 187.215158 
z
" clip-path="url(#p4f00ee6ad9)" style="fill: #1f77b4"/>
   </g>
   <g id="patch_94">
    <path d="M 215.24638 273.312 
L 216.859007 273.312 
L 216.859007 164.781474 
L 215.24638 164.781474 
z
" clip-path="url(#p4f00ee6ad9)" style="fill: #1f77b4"/>
   </g>
   <g id="patch_95">
    <path d="M 216.859007 273.312 
L 218.471634 273.312 
L 218.471634 153.261474 
L 216.859007 153.261474 
z
" clip-path="url(#p4f00ee6ad9)" style="fill: #1f77b4"/>
   </g>
   <g id="patch_96">
    <path d="M 218.471634 273.312 
L 220.084262 273.312 
L 220.084262 166.600421 
L 218.471634 166.600421 
z
" clip-path="url(#p4f00ee6ad9)" style="fill: #1f77b4"/>
   </g>
   <g id="patch_97">
    <path d="M 220.084262 273.312 
L 221.696889 273.312 
L 221.696889 161.749895 
L 220.084262 161.749895 
z
" clip-path="url(#p4f00ee6ad9)" style="fill: #1f77b4"/>
   </g>
   <g id="patch_98">
    <path d="M 221.696889 273.312 
L 223.309516 273.312 
L 223.309516 150.836211 
L 221.696889 150.836211 
z
" clip-path="url(#p4f00ee6ad9)" style="fill: #1f77b4"/>
   </g>
   <g id="patch_99">
    <path d="M 223.309516 273.312 
L 224.922144 273.312 
L 224.922144 156.899368 
L 223.309516 156.899368 
z
" clip-path="url(#p4f00ee6ad9)" style="fill: #1f77b4"/>
   </g>
   <g id="patch_100">
    <path d="M 224.922144 273.312 
L 226.534771 273.312 
L 226.534771 147.198316 
L 224.922144 147.198316 
z
" clip-path="url(#p4f00ee6ad9)" style="fill: #1f77b4"/>
   </g>
   <g id="patch_101">
    <path d="M 226.534771 273.312 
L 228.147398 273.312 
L 228.147398 143.560421 
L 226.534771 143.560421 
z
" clip-path="url(#p4f00ee6ad9)" style="fill: #1f77b4"/>
   </g>
   <g id="patch_102">
    <path d="M 228.147398 273.312 
L 229.760025 273.312 
L 229.760025 158.112 
L 228.147398 158.112 
z
" clip-path="url(#p4f00ee6ad9)" style="fill: #1f77b4"/>
   </g>
   <g id="patch_103">
    <path d="M 229.760025 273.312 
L 231.372653 273.312 
L 231.372653 142.954105 
L 229.760025 142.954105 
z
" clip-path="url(#p4f00ee6ad9)" style="fill: #1f77b4"/>
   </g>
   <g id="patch_104">
    <path d="M 231.372653 273.312 
L 232.98528 273.312 
L 232.98528 152.655158 
L 231.372653 152.655158 
z
" clip-path="url(#p4f00ee6ad9)" style="fill: #1f77b4"/>
   </g>
   <g id="patch_105">
    <path d="M 232.98528 273.312 
L 234.597907 273.312 
L 234.597907 145.379368 
L 232.98528 145.379368 
z
" clip-path="url(#p4f00ee6ad9)" style="fill: #1f77b4"/>
   </g>
   <g id="patch_106">
    <path d="M 234.597907 273.312 
L 236.210534 273.312 
L 236.210534 149.623579 
L 234.597907 149.623579 
z
" clip-path="url(#p4f00ee6ad9)" style="fill: #1f77b4"/>
   </g>
   <g id="patch_107">
    <path d="M 236.210534 273.312 
L 237.823162 273.312 
L 237.823162 135.678316 
L 236.210534 135.678316 
z
" clip-path="url(#p4f00ee6ad9)" style="fill: #1f77b4"/>
   </g>
   <g id="patch_108">
    <path d="M 237.823162 273.312 
L 239.435789 273.312 
L 239.435789 152.048842 
L 237.823162 152.048842 
z
" clip-path="url(#p4f00ee6ad9)" style="fill: #1f77b4"/>
   </g>
   <g id="patch_109">
    <path d="M 239.435789 273.312 
L 241.048416 273.312 
L 241.048416 156.899368 
L 239.435789 156.899368 
z
" clip-path="url(#p4f00ee6ad9)" style="fill: #1f77b4"/>
   </g>
   <g id="patch_110">
    <path d="M 241.048416 273.312 
L 242.661043 273.312 
L 242.661043 136.890947 
L 241.048416 136.890947 
z
" clip-path="url(#p4f00ee6ad9)" style="fill: #1f77b4"/>
   </g>
   <g id="patch_111">
    <path d="M 242.661043 273.312 
L 244.273671 273.312 
L 244.273671 138.709895 
L 242.661043 138.709895 
z
" clip-path="url(#p4f00ee6ad9)" style="fill: #1f77b4"/>
   </g>
   <g id="patch_112">
    <path d="M 244.273671 273.312 
L 245.886298 273.312 
L 245.886298 134.465684 
L 244.273671 134.465684 
z
" clip-path="url(#p4f00ee6ad9)" style="fill: #1f77b4"/>
   </g>
   <g id="patch_113">
    <path d="M 245.886298 273.312 
L 247.498925 273.312 
L 247.498925 128.402526 
L 245.886298 128.402526 
z
" clip-path="url(#p4f00ee6ad9)" style="fill: #1f77b4"/>
   </g>
   <g id="patch_114">
    <path d="M 247.498925 273.312 
L 249.111552 273.312 
L 249.111552 144.166737 
L 247.498925 144.166737 
z
" clip-path="url(#p4f00ee6ad9)" style="fill: #1f77b4"/>
   </g>
   <g id="patch_115">
    <path d="M 249.111552 273.312 
L 250.72418 273.312 
L 250.72418 144.773053 
L 249.111552 144.773053 
z
" clip-path="url(#p4f00ee6ad9)" style="fill: #1f77b4"/>
   </g>
   <g id="patch_116">
    <path d="M 250.72418 273.312 
L 252.336807 273.312 
L 252.336807 136.284632 
L 250.72418 136.284632 
z
" clip-path="url(#p4f00ee6ad9)" style="fill: #1f77b4"/>
   </g>
   <g id="patch_117">
    <path d="M 252.336807 273.312 
L 253.949434 273.312 
L 253.949434 149.017263 
L 252.336807 149.017263 
z
" clip-path="url(#p4f00ee6ad9)" style="fill: #1f77b4"/>
   </g>
   <g id="patch_118">
    <path d="M 253.949434 273.312 
L 255.562061 273.312 
L 255.562061 145.379368 
L 253.949434 145.379368 
z
" clip-path="url(#p4f00ee6ad9)" style="fill: #1f77b4"/>
   </g>
   <g id="patch_119">
    <path d="M 255.562061 273.312 
L 257.174689 273.312 
L 257.174689 126.583579 
L 255.562061 126.583579 
z
" clip-path="url(#p4f00ee6ad9)" style="fill: #1f77b4"/>
   </g>
   <g id="patch_120">
    <path d="M 257.174689 273.312 
L 258.787316 273.312 
L 258.787316 147.198316 
L 257.174689 147.198316 
z
" clip-path="url(#p4f00ee6ad9)" style="fill: #1f77b4"/>
   </g>
   <g id="patch_121">
    <path d="M 258.787316 273.312 
L 260.399943 273.312 
L 260.399943 131.434105 
L 258.787316 131.434105 
z
" clip-path="url(#p4f00ee6ad9)" style="fill: #1f77b4"/>
   </g>
   <g id="patch_122">
    <path d="M 260.399943 273.312 
L 262.01257 273.312 
L 262.01257 119.914105 
L 260.399943 119.914105 
z
" clip-path="url(#p4f00ee6ad9)" style="fill: #1f77b4"/>
   </g>
   <g id="patch_123">
    <path d="M 262.01257 273.312 
L 263.625198 273.312 
L 263.625198 125.370947 
L 262.01257 125.370947 
z
" clip-path="url(#p4f00ee6ad9)" style="fill: #1f77b4"/>
   </g>
   <g id="patch_124">
    <path d="M 263.625198 273.312 
L 265.237825 273.312 
L 265.237825 116.276211 
L 263.625198 116.276211 
z
" clip-path="url(#p4f00ee6ad9)" style="fill: #1f77b4"/>
   </g>
   <g id="patch_125">
    <path d="M 265.237825 273.312 
L 266.850452 273.312 
L 266.850452 121.733053 
L 265.237825 121.733053 
z
" clip-path="url(#p4f00ee6ad9)" style="fill: #1f77b4"/>
   </g>
   <g id="patch_126">
    <path d="M 266.850452 273.312 
L 268.46308 273.312 
L 268.46308 136.284632 
L 266.850452 136.284632 
z
" clip-path="url(#p4f00ee6ad9)" style="fill: #1f77b4"/>
   </g>
   <g id="patch_127">
    <path d="M 268.46308 273.312 
L 270.075707 273.312 
L 270.075707 116.882526 
L 268.46308 116.882526 
z
" clip-path="url(#p4f00ee6ad9)" style="fill: #1f77b4"/>
   </g>
   <g id="patch_128">
    <path d="M 270.075707 273.312 
L 271.688334 273.312 
L 271.688334 119.914105 
L 270.075707 119.914105 
z
" clip-path="url(#p4f00ee6ad9)" style="fill: #1f77b4"/>
   </g>
   <g id="patch_129">
    <path d="M 271.688334 273.312 
L 273.300961 273.312 
L 273.300961 129.615158 
L 271.688334 129.615158 
z
" clip-path="url(#p4f00ee6ad9)" style="fill: #1f77b4"/>
   </g>
   <g id="patch_130">
    <path d="M 273.300961 273.312 
L 274.913589 273.312 
L 274.913589 108.394105 
L 273.300961 108.394105 
z
" clip-path="url(#p4f00ee6ad9)" style="fill: #1f77b4"/>
   </g>
   <g id="patch_131">
    <path d="M 274.913589 273.312 
L 276.526216 273.312 
L 276.526216 121.733053 
L 274.913589 121.733053 
z
" clip-path="url(#p4f00ee6ad9)" style="fill: #1f77b4"/>
   </g>
   <g id="patch_132">
    <path d="M 276.526216 273.312 
L 278.138843 273.312 
L 278.138843 115.669895 
L 276.526216 115.669895 
z
" clip-path="url(#p4f00ee6ad9)" style="fill: #1f77b4"/>
   </g>
   <g id="patch_133">
    <path d="M 278.138843 273.312 
L 279.75147 273.312 
L 279.75147 119.307789 
L 278.138843 119.307789 
z
" clip-path="url(#p4f00ee6ad9)" style="fill: #1f77b4"/>
   </g>
   <g id="patch_134">
    <path d="M 279.75147 273.312 
L 281.364098 273.312 
L 281.364098 102.937263 
L 279.75147 102.937263 
z
" clip-path="url(#p4f00ee6ad9)" style="fill: #1f77b4"/>
   </g>
   <g id="patch_135">
    <path d="M 281.364098 273.312 
L 282.976725 273.312 
L 282.976725 117.488842 
L 281.364098 117.488842 
z
" clip-path="url(#p4f00ee6ad9)" style="fill: #1f77b4"/>
   </g>
   <g id="patch_136">
    <path d="M 282.976725 273.312 
L 284.589352 273.312 
L 284.589352 117.488842 
L 282.976725 117.488842 
z
" clip-path="url(#p4f00ee6ad9)" style="fill: #1f77b4"/>
   </g>
   <g id="patch_137">
    <path d="M 284.589352 273.312 
L 286.201979 273.312 
L 286.201979 97.480421 
L 284.589352 97.480421 
z
" clip-path="url(#p4f00ee6ad9)" style="fill: #1f77b4"/>
   </g>
   <g id="patch_138">
    <path d="M 286.201979 273.312 
L 287.814607 273.312 
L 287.814607 101.724632 
L 286.201979 101.724632 
z
" clip-path="url(#p4f00ee6ad9)" style="fill: #1f77b4"/>
   </g>
   <g id="patch_139">
    <path d="M 287.814607 273.312 
L 289.427234 273.312 
L 289.427234 112.032 
L 287.814607 112.032 
z
" clip-path="url(#p4f00ee6ad9)" style="fill: #1f77b4"/>
   </g>
   <g id="patch_140">
    <path d="M 289.427234 273.312 
L 291.039861 273.312 
L 291.039861 118.095158 
L 289.427234 118.095158 
z
" clip-path="url(#p4f00ee6ad9)" style="fill: #1f77b4"/>
   </g>
   <g id="patch_141">
    <path d="M 291.039861 273.312 
L 292.652488 273.312 
L 292.652488 85.354105 
L 291.039861 85.354105 
z
" clip-path="url(#p4f00ee6ad9)" style="fill: #1f77b4"/>
   </g>
   <g id="patch_142">
    <path d="M 292.652488 273.312 
L 294.265116 273.312 
L 294.265116 85.960421 
L 292.652488 85.960421 
z
" clip-path="url(#p4f00ee6ad9)" style="fill: #1f77b4"/>
   </g>
   <g id="patch_143">
    <path d="M 294.265116 273.312 
L 295.877743 273.312 
L 295.877743 99.299368 
L 294.265116 99.299368 
z
" clip-path="url(#p4f00ee6ad9)" style="fill: #1f77b4"/>
   </g>
   <g id="patch_144">
    <path d="M 295.877743 273.312 
L 297.49037 273.312 
L 297.49037 99.299368 
L 295.877743 99.299368 
z
" clip-path="url(#p4f00ee6ad9)" style="fill: #1f77b4"/>
   </g>
   <g id="patch_145">
    <path d="M 297.49037 273.312 
L 299.102997 273.312 
L 299.102997 98.086737 
L 297.49037 98.086737 
z
" clip-path="url(#p4f00ee6ad9)" style="fill: #1f77b4"/>
   </g>
   <g id="patch_146">
    <path d="M 299.102997 273.312 
L 300.715625 273.312 
L 300.715625 103.543579 
L 299.102997 103.543579 
z
" clip-path="url(#p4f00ee6ad9)" style="fill: #1f77b4"/>
   </g>
   <g id="patch_147">
    <path d="M 300.715625 273.312 
L 302.328252 273.312 
L 302.328252 98.693053 
L 300.715625 98.693053 
z
" clip-path="url(#p4f00ee6ad9)" style="fill: #1f77b4"/>
   </g>
   <g id="patch_148">
    <path d="M 302.328252 273.312 
L 303.940879 273.312 
L 303.940879 90.810947 
L 302.328252 90.810947 
z
" clip-path="url(#p4f00ee6ad9)" style="fill: #1f77b4"/>
   </g>
   <g id="patch_149">
    <path d="M 303.940879 273.312 
L 305.553507 273.312 
L 305.553507 88.385684 
L 303.940879 88.385684 
z
" clip-path="url(#p4f00ee6ad9)" style="fill: #1f77b4"/>
   </g>
   <g id="patch_150">
    <path d="M 305.553507 273.312 
L 307.166134 273.312 
L 307.166134 99.299368 
L 305.553507 99.299368 
z
" clip-path="url(#p4f00ee6ad9)" style="fill: #1f77b4"/>
   </g>
   <g id="patch_151">
    <path d="M 307.166134 273.312 
L 308.778761 273.312 
L 308.778761 93.236211 
L 307.166134 93.236211 
z
" clip-path="url(#p4f00ee6ad9)" style="fill: #1f77b4"/>
   </g>
   <g id="patch_152">
    <path d="M 308.778761 273.312 
L 310.391388 273.312 
L 310.391388 94.448842 
L 308.778761 94.448842 
z
" clip-path="url(#p4f00ee6ad9)" style="fill: #1f77b4"/>
   </g>
   <g id="patch_153">
    <path d="M 310.391388 273.312 
L 312.004016 273.312 
L 312.004016 104.149895 
L 310.391388 104.149895 
z
" clip-path="url(#p4f00ee6ad9)" style="fill: #1f77b4"/>
   </g>
   <g id="patch_154">
    <path d="M 312.004016 273.312 
L 313.616643 273.312 
L 313.616643 90.810947 
L 312.004016 90.810947 
z
" clip-path="url(#p4f00ee6ad9)" style="fill: #1f77b4"/>
   </g>
   <g id="patch_155">
    <path d="M 313.616643 273.312 
L 315.22927 273.312 
L 315.22927 95.055158 
L 313.616643 95.055158 
z
" clip-path="url(#p4f00ee6ad9)" style="fill: #1f77b4"/>
   </g>
   <g id="patch_156">
    <path d="M 315.22927 273.312 
L 316.841897 273.312 
L 316.841897 92.629895 
L 315.22927 92.629895 
z
" clip-path="url(#p4f00ee6ad9)" style="fill: #1f77b4"/>
   </g>
   <g id="patch_157">
    <path d="M 316.841897 273.312 
L 318.454525 273.312 
L 318.454525 97.480421 
L 316.841897 97.480421 
z
" clip-path="url(#p4f00ee6ad9)" style="fill: #1f77b4"/>
   </g>
   <g id="patch_158">
    <path d="M 318.454525 273.312 
L 320.067152 273.312 
L 320.067152 92.023579 
L 318.454525 92.023579 
z
" clip-path="url(#p4f00ee6ad9)" style="fill: #1f77b4"/>
   </g>
   <g id="patch_159">
    <path d="M 320.067152 273.312 
L 321.679779 273.312 
L 321.679779 95.661474 
L 320.067152 95.661474 
z
" clip-path="url(#p4f00ee6ad9)" style="fill: #1f77b4"/>
   </g>
   <g id="patch_160">
    <path d="M 321.679779 273.312 
L 323.292406 273.312 
L 323.292406 94.448842 
L 321.679779 94.448842 
z
" clip-path="url(#p4f00ee6ad9)" style="fill: #1f77b4"/>
   </g>
   <g id="patch_161">
    <path d="M 323.292406 273.312 
L 324.905034 273.312 
L 324.905034 85.354105 
L 323.292406 85.354105 
z
" clip-path="url(#p4f00ee6ad9)" style="fill: #1f77b4"/>
   </g>
   <g id="patch_162">
    <path d="M 324.905034 273.312 
L 326.517661 273.312 
L 326.517661 79.290947 
L 324.905034 79.290947 
z
" clip-path="url(#p4f00ee6ad9)" style="fill: #1f77b4"/>
   </g>
   <g id="patch_163">
    <path d="M 326.517661 273.312 
L 328.130288 273.312 
L 328.130288 75.653053 
L 326.517661 75.653053 
z
" clip-path="url(#p4f00ee6ad9)" style="fill: #1f77b4"/>
   </g>
   <g id="patch_164">
    <path d="M 328.130288 273.312 
L 329.742915 273.312 
L 329.742915 63.526737 
L 328.130288 63.526737 
z
" clip-path="url(#p4f00ee6ad9)" style="fill: #1f77b4"/>
   </g>
   <g id="patch_165">
    <path d="M 329.742915 273.312 
L 331.355543 273.312 
L 331.355543 60.495158 
L 329.742915 60.495158 
z
" clip-path="url(#p4f00ee6ad9)" style="fill: #1f77b4"/>
   </g>
   <g id="patch_166">
    <path d="M 331.355543 273.312 
L 332.96817 273.312 
L 332.96817 73.834105 
L 331.355543 73.834105 
z
" clip-path="url(#p4f00ee6ad9)" style="fill: #1f77b4"/>
   </g>
   <g id="patch_167">
    <path d="M 332.96817 273.312 
L 334.580797 273.312 
L 334.580797 66.558316 
L 332.96817 66.558316 
z
" clip-path="url(#p4f00ee6ad9)" style="fill: #1f77b4"/>
   </g>
   <g id="patch_168">
    <path d="M 334.580797 273.312 
L 336.193424 273.312 
L 336.193424 42.305684 
L 334.580797 42.305684 
z
" clip-path="url(#p4f00ee6ad9)" style="fill: #1f77b4"/>
   </g>
   <g id="patch_169">
    <path d="M 336.193424 273.312 
L 337.806052 273.312 
L 337.806052 76.259368 
L 336.193424 76.259368 
z
" clip-path="url(#p4f00ee6ad9)" style="fill: #1f77b4"/>
   </g>
   <g id="patch_170">
    <path d="M 337.806052 273.312 
L 339.418679 273.312 
L 339.418679 80.503579 
L 337.806052 80.503579 
z
" clip-path="url(#p4f00ee6ad9)" style="fill: #1f77b4"/>
   </g>
   <g id="patch_171">
    <path d="M 339.418679 273.312 
L 341.031306 273.312 
L 341.031306 55.644632 
L 339.418679 55.644632 
z
" clip-path="url(#p4f00ee6ad9)" style="fill: #1f77b4"/>
   </g>
   <g id="patch_172">
    <path d="M 341.031306 273.312 
L 342.643934 273.312 
L 342.643934 54.432 
L 341.031306 54.432 
z
" clip-path="url(#p4f00ee6ad9)" style="fill: #1f77b4"/>
   </g>
   <g id="patch_173">
    <path d="M 342.643934 273.312 
L 344.256561 273.312 
L 344.256561 68.377263 
L 342.643934 68.377263 
z
" clip-path="url(#p4f00ee6ad9)" style="fill: #1f77b4"/>
   </g>
   <g id="patch_174">
    <path d="M 344.256561 273.312 
L 345.869188 273.312 
L 345.869188 70.196211 
L 344.256561 70.196211 
z
" clip-path="url(#p4f00ee6ad9)" style="fill: #1f77b4"/>
   </g>
   <g id="patch_175">
    <path d="M 345.869188 273.312 
L 347.481815 273.312 
L 347.481815 62.920421 
L 345.869188 62.920421 
z
" clip-path="url(#p4f00ee6ad9)" style="fill: #1f77b4"/>
   </g>
   <g id="patch_176">
    <path d="M 347.481815 273.312 
L 349.094443 273.312 
L 349.094443 65.345684 
L 347.481815 65.345684 
z
" clip-path="url(#p4f00ee6ad9)" style="fill: #1f77b4"/>
   </g>
   <g id="patch_177">
    <path d="M 349.094443 273.312 
L 350.70707 273.312 
L 350.70707 76.259368 
L 349.094443 76.259368 
z
" clip-path="url(#p4f00ee6ad9)" style="fill: #1f77b4"/>
   </g>
   <g id="patch_178">
    <path d="M 350.70707 273.312 
L 352.319697 273.312 
L 352.319697 19.872 
L 350.70707 19.872 
z
" clip-path="url(#p4f00ee6ad9)" style="fill: #1f77b4"/>
   </g>
   <g id="patch_179">
    <path d="M 352.319697 273.312 
L 353.932324 273.312 
L 353.932324 43.518316 
L 352.319697 43.518316 
z
" clip-path="url(#p4f00ee6ad9)" style="fill: #1f77b4"/>
   </g>
   <g id="patch_180">
    <path d="M 353.932324 273.312 
L 355.544952 273.312 
L 355.544952 62.920421 
L 353.932324 62.920421 
z
" clip-path="url(#p4f00ee6ad9)" style="fill: #1f77b4"/>
   </g>
   <g id="patch_181">
    <path d="M 355.544952 273.312 
L 357.157579 273.312 
L 357.157579 59.888842 
L 355.544952 59.888842 
z
" clip-path="url(#p4f00ee6ad9)" style="fill: #1f77b4"/>
   </g>
   <g id="patch_182">
    <path d="M 357.157579 273.312 
L 358.770206 273.312 
L 358.770206 84.141474 
L 357.157579 84.141474 
z
" clip-path="url(#p4f00ee6ad9)" style="fill: #1f77b4"/>
   </g>
   <g id="patch_183">
    <path d="M 358.770206 273.312 
L 360.382833 273.312 
L 360.382833 51.400421 
L 358.770206 51.400421 
z
" clip-path="url(#p4f00ee6ad9)" style="fill: #1f77b4"/>
   </g>
   <g id="patch_184">
    <path d="M 360.382833 273.312 
L 361.995461 273.312 
L 361.995461 53.219368 
L 360.382833 53.219368 
z
" clip-path="url(#p4f00ee6ad9)" style="fill: #1f77b4"/>
   </g>
   <g id="patch_185">
    <path d="M 361.995461 273.312 
L 363.608088 273.312 
L 363.608088 63.526737 
L 361.995461 63.526737 
z
" clip-path="url(#p4f00ee6ad9)" style="fill: #1f77b4"/>
   </g>
   <g id="patch_186">
    <path d="M 363.608088 273.312 
L 365.220715 273.312 
L 365.220715 47.156211 
L 363.608088 47.156211 
z
" clip-path="url(#p4f00ee6ad9)" style="fill: #1f77b4"/>
   </g>
   <g id="patch_187">
    <path d="M 365.220715 273.312 
L 366.833342 273.312 
L 366.833342 62.314105 
L 365.220715 62.314105 
z
" clip-path="url(#p4f00ee6ad9)" style="fill: #1f77b4"/>
   </g>
   <g id="patch_188">
    <path d="M 366.833342 273.312 
L 368.44597 273.312 
L 368.44597 58.069895 
L 366.833342 58.069895 
z
" clip-path="url(#p4f00ee6ad9)" style="fill: #1f77b4"/>
   </g>
   <g id="patch_189">
    <path d="M 368.44597 273.312 
L 370.058597 273.312 
L 370.058597 48.975158 
L 368.44597 48.975158 
z
" clip-path="url(#p4f00ee6ad9)" style="fill: #1f77b4"/>
   </g>
   <g id="patch_190">
    <path d="M 370.058597 273.312 
L 371.671224 273.312 
L 371.671224 56.250947 
L 370.058597 56.250947 
z
" clip-path="url(#p4f00ee6ad9)" style="fill: #1f77b4"/>
   </g>
   <g id="patch_191">
    <path d="M 371.671224 273.312 
L 373.283851 273.312 
L 373.283851 48.368842 
L 371.671224 48.368842 
z
" clip-path="url(#p4f00ee6ad9)" style="fill: #1f77b4"/>
   </g>
   <g id="patch_192">
    <path d="M 373.283851 273.312 
L 374.896479 273.312 
L 374.896479 29.573053 
L 373.283851 29.573053 
z
" clip-path="url(#p4f00ee6ad9)" style="fill: #1f77b4"/>
   </g>
   <g id="patch_193">
    <path d="M 374.896479 273.312 
L 376.509106 273.312 
L 376.509106 48.368842 
L 374.896479 48.368842 
z
" clip-path="url(#p4f00ee6ad9)" style="fill: #1f77b4"/>
   </g>
   <g id="patch_194">
    <path d="M 376.509106 273.312 
L 378.121733 273.312 
L 378.121733 54.432 
L 376.509106 54.432 
z
" clip-path="url(#p4f00ee6ad9)" style="fill: #1f77b4"/>
   </g>
   <g id="patch_195">
    <path d="M 378.121733 273.312 
L 379.73436 273.312 
L 379.73436 32.604632 
L 378.121733 32.604632 
z
" clip-path="url(#p4f00ee6ad9)" style="fill: #1f77b4"/>
   </g>
   <g id="patch_196">
    <path d="M 379.73436 273.312 
L 381.346988 273.312 
L 381.346988 26.541474 
L 379.73436 26.541474 
z
" clip-path="url(#p4f00ee6ad9)" style="fill: #1f77b4"/>
   </g>
   <g id="patch_197">
    <path d="M 381.346988 273.312 
L 382.959615 273.312 
L 382.959615 48.368842 
L 381.346988 48.368842 
z
" clip-path="url(#p4f00ee6ad9)" style="fill: #1f77b4"/>
   </g>
   <g id="patch_198">
    <path d="M 382.959615 273.312 
L 384.572242 273.312 
L 384.572242 44.124632 
L 382.959615 44.124632 
z
" clip-path="url(#p4f00ee6ad9)" style="fill: #1f77b4"/>
   </g>
   <g id="patch_199">
    <path d="M 384.572242 273.312 
L 386.18487 273.312 
L 386.18487 25.328842 
L 384.572242 25.328842 
z
" clip-path="url(#p4f00ee6ad9)" style="fill: #1f77b4"/>
   </g>
   <g id="patch_200">
    <path d="M 386.18487 273.312 
L 387.797497 273.312 
L 387.797497 51.400421 
L 386.18487 51.400421 
z
" clip-path="url(#p4f00ee6ad9)" style="fill: #1f77b4"/>
   </g>
   <g id="patch_201">
    <path d="M 387.797497 273.312 
L 389.410124 273.312 
L 389.410124 30.179368 
L 387.797497 30.179368 
z
" clip-path="url(#p4f00ee6ad9)" style="fill: #1f77b4"/>
   </g>
   <g id="patch_202">
    <path d="M 389.410124 273.312 
L 391.022751 273.312 
L 391.022751 30.785684 
L 389.410124 30.785684 
z
" clip-path="url(#p4f00ee6ad9)" style="fill: #1f77b4"/>
   </g>
   <g id="matplotlib.axis_1">
    <g id="xtick_1">
     <g id="line2d_1">
      <defs>
       <path id="m9a6e248ed3" d="M 0 0 
L 0 3.5 
" style="stroke: #000000; stroke-width: 0.8"/>
      </defs>
      <g>
       <use xlink:href="#m9a6e248ed3" x="66.376477" y="273.312" style="stroke: #000000; stroke-width: 0.8"/>
      </g>
     </g>
     <g id="text_1">
      <!-- 0.0 -->
      <g transform="translate(58.424915 287.910437)scale(0.1 -0.1)">
       <defs>
        <path id="DejaVuSans-30" d="M 2034 4250 
Q 1547 4250 1301 3770 
Q 1056 3291 1056 2328 
Q 1056 1369 1301 889 
Q 1547 409 2034 409 
Q 2525 409 2770 889 
Q 3016 1369 3016 2328 
Q 3016 3291 2770 3770 
Q 2525 4250 2034 4250 
z
M 2034 4750 
Q 2819 4750 3233 4129 
Q 3647 3509 3647 2328 
Q 3647 1150 3233 529 
Q 2819 -91 2034 -91 
Q 1250 -91 836 529 
Q 422 1150 422 2328 
Q 422 3509 836 4129 
Q 1250 4750 2034 4750 
z
" transform="scale(0.015625)"/>
        <path id="DejaVuSans-2e" d="M 684 794 
L 1344 794 
L 1344 0 
L 684 0 
L 684 794 
z
" transform="scale(0.015625)"/>
       </defs>
       <use xlink:href="#DejaVuSans-30"/>
       <use xlink:href="#DejaVuSans-2e" x="63.623047"/>
       <use xlink:href="#DejaVuSans-30" x="95.410156"/>
      </g>
     </g>
    </g>
    <g id="xtick_2">
     <g id="line2d_2">
      <g>
       <use xlink:href="#m9a6e248ed3" x="131.307386" y="273.312" style="stroke: #000000; stroke-width: 0.8"/>
      </g>
     </g>
     <g id="text_2">
      <!-- 0.2 -->
      <g transform="translate(123.355824 287.910437)scale(0.1 -0.1)">
       <defs>
        <path id="DejaVuSans-32" d="M 1228 531 
L 3431 531 
L 3431 0 
L 469 0 
L 469 531 
Q 828 903 1448 1529 
Q 2069 2156 2228 2338 
Q 2531 2678 2651 2914 
Q 2772 3150 2772 3378 
Q 2772 3750 2511 3984 
Q 2250 4219 1831 4219 
Q 1534 4219 1204 4116 
Q 875 4013 500 3803 
L 500 4441 
Q 881 4594 1212 4672 
Q 1544 4750 1819 4750 
Q 2544 4750 2975 4387 
Q 3406 4025 3406 3419 
Q 3406 3131 3298 2873 
Q 3191 2616 2906 2266 
Q 2828 2175 2409 1742 
Q 1991 1309 1228 531 
z
" transform="scale(0.015625)"/>
       </defs>
       <use xlink:href="#DejaVuSans-30"/>
       <use xlink:href="#DejaVuSans-2e" x="63.623047"/>
       <use xlink:href="#DejaVuSans-32" x="95.410156"/>
      </g>
     </g>
    </g>
    <g id="xtick_3">
     <g id="line2d_3">
      <g>
       <use xlink:href="#m9a6e248ed3" x="196.238295" y="273.312" style="stroke: #000000; stroke-width: 0.8"/>
      </g>
     </g>
     <g id="text_3">
      <!-- 0.4 -->
      <g transform="translate(188.286733 287.910437)scale(0.1 -0.1)">
       <defs>
        <path id="DejaVuSans-34" d="M 2419 4116 
L 825 1625 
L 2419 1625 
L 2419 4116 
z
M 2253 4666 
L 3047 4666 
L 3047 1625 
L 3713 1625 
L 3713 1100 
L 3047 1100 
L 3047 0 
L 2419 0 
L 2419 1100 
L 313 1100 
L 313 1709 
L 2253 4666 
z
" transform="scale(0.015625)"/>
       </defs>
       <use xlink:href="#DejaVuSans-30"/>
       <use xlink:href="#DejaVuSans-2e" x="63.623047"/>
       <use xlink:href="#DejaVuSans-34" x="95.410156"/>
      </g>
     </g>
    </g>
    <g id="xtick_4">
     <g id="line2d_4">
      <g>
       <use xlink:href="#m9a6e248ed3" x="261.169205" y="273.312" style="stroke: #000000; stroke-width: 0.8"/>
      </g>
     </g>
     <g id="text_4">
      <!-- 0.6 -->
      <g transform="translate(253.217642 287.910437)scale(0.1 -0.1)">
       <defs>
        <path id="DejaVuSans-36" d="M 2113 2584 
Q 1688 2584 1439 2293 
Q 1191 2003 1191 1497 
Q 1191 994 1439 701 
Q 1688 409 2113 409 
Q 2538 409 2786 701 
Q 3034 994 3034 1497 
Q 3034 2003 2786 2293 
Q 2538 2584 2113 2584 
z
M 3366 4563 
L 3366 3988 
Q 3128 4100 2886 4159 
Q 2644 4219 2406 4219 
Q 1781 4219 1451 3797 
Q 1122 3375 1075 2522 
Q 1259 2794 1537 2939 
Q 1816 3084 2150 3084 
Q 2853 3084 3261 2657 
Q 3669 2231 3669 1497 
Q 3669 778 3244 343 
Q 2819 -91 2113 -91 
Q 1303 -91 875 529 
Q 447 1150 447 2328 
Q 447 3434 972 4092 
Q 1497 4750 2381 4750 
Q 2619 4750 2861 4703 
Q 3103 4656 3366 4563 
z
" transform="scale(0.015625)"/>
       </defs>
       <use xlink:href="#DejaVuSans-30"/>
       <use xlink:href="#DejaVuSans-2e" x="63.623047"/>
       <use xlink:href="#DejaVuSans-36" x="95.410156"/>
      </g>
     </g>
    </g>
    <g id="xtick_5">
     <g id="line2d_5">
      <g>
       <use xlink:href="#m9a6e248ed3" x="326.100114" y="273.312" style="stroke: #000000; stroke-width: 0.8"/>
      </g>
     </g>
     <g id="text_5">
      <!-- 0.8 -->
      <g transform="translate(318.148551 287.910437)scale(0.1 -0.1)">
       <defs>
        <path id="DejaVuSans-38" d="M 2034 2216 
Q 1584 2216 1326 1975 
Q 1069 1734 1069 1313 
Q 1069 891 1326 650 
Q 1584 409 2034 409 
Q 2484 409 2743 651 
Q 3003 894 3003 1313 
Q 3003 1734 2745 1975 
Q 2488 2216 2034 2216 
z
M 1403 2484 
Q 997 2584 770 2862 
Q 544 3141 544 3541 
Q 544 4100 942 4425 
Q 1341 4750 2034 4750 
Q 2731 4750 3128 4425 
Q 3525 4100 3525 3541 
Q 3525 3141 3298 2862 
Q 3072 2584 2669 2484 
Q 3125 2378 3379 2068 
Q 3634 1759 3634 1313 
Q 3634 634 3220 271 
Q 2806 -91 2034 -91 
Q 1263 -91 848 271 
Q 434 634 434 1313 
Q 434 1759 690 2068 
Q 947 2378 1403 2484 
z
M 1172 3481 
Q 1172 3119 1398 2916 
Q 1625 2713 2034 2713 
Q 2441 2713 2670 2916 
Q 2900 3119 2900 3481 
Q 2900 3844 2670 4047 
Q 2441 4250 2034 4250 
Q 1625 4250 1398 4047 
Q 1172 3844 1172 3481 
z
" transform="scale(0.015625)"/>
       </defs>
       <use xlink:href="#DejaVuSans-30"/>
       <use xlink:href="#DejaVuSans-2e" x="63.623047"/>
       <use xlink:href="#DejaVuSans-38" x="95.410156"/>
      </g>
     </g>
    </g>
    <g id="xtick_6">
     <g id="line2d_6">
      <g>
       <use xlink:href="#m9a6e248ed3" x="391.031023" y="273.312" style="stroke: #000000; stroke-width: 0.8"/>
      </g>
     </g>
     <g id="text_6">
      <!-- 1.0 -->
      <g transform="translate(383.07946 287.910437)scale(0.1 -0.1)">
       <defs>
        <path id="DejaVuSans-31" d="M 794 531 
L 1825 531 
L 1825 4091 
L 703 3866 
L 703 4441 
L 1819 4666 
L 2450 4666 
L 2450 531 
L 3481 531 
L 3481 0 
L 794 0 
L 794 531 
z
" transform="scale(0.015625)"/>
       </defs>
       <use xlink:href="#DejaVuSans-31"/>
       <use xlink:href="#DejaVuSans-2e" x="63.623047"/>
       <use xlink:href="#DejaVuSans-30" x="95.410156"/>
      </g>
     </g>
    </g>
    <g id="text_7">
     <!-- Propagation direction -->
     <g transform="translate(175.221719 301.588562)scale(0.1 -0.1)">
      <defs>
       <path id="DejaVuSans-50" d="M 1259 4147 
L 1259 2394 
L 2053 2394 
Q 2494 2394 2734 2622 
Q 2975 2850 2975 3272 
Q 2975 3691 2734 3919 
Q 2494 4147 2053 4147 
L 1259 4147 
z
M 628 4666 
L 2053 4666 
Q 2838 4666 3239 4311 
Q 3641 3956 3641 3272 
Q 3641 2581 3239 2228 
Q 2838 1875 2053 1875 
L 1259 1875 
L 1259 0 
L 628 0 
L 628 4666 
z
" transform="scale(0.015625)"/>
       <path id="DejaVuSans-72" d="M 2631 2963 
Q 2534 3019 2420 3045 
Q 2306 3072 2169 3072 
Q 1681 3072 1420 2755 
Q 1159 2438 1159 1844 
L 1159 0 
L 581 0 
L 581 3500 
L 1159 3500 
L 1159 2956 
Q 1341 3275 1631 3429 
Q 1922 3584 2338 3584 
Q 2397 3584 2469 3576 
Q 2541 3569 2628 3553 
L 2631 2963 
z
" transform="scale(0.015625)"/>
       <path id="DejaVuSans-6f" d="M 1959 3097 
Q 1497 3097 1228 2736 
Q 959 2375 959 1747 
Q 959 1119 1226 758 
Q 1494 397 1959 397 
Q 2419 397 2687 759 
Q 2956 1122 2956 1747 
Q 2956 2369 2687 2733 
Q 2419 3097 1959 3097 
z
M 1959 3584 
Q 2709 3584 3137 3096 
Q 3566 2609 3566 1747 
Q 3566 888 3137 398 
Q 2709 -91 1959 -91 
Q 1206 -91 779 398 
Q 353 888 353 1747 
Q 353 2609 779 3096 
Q 1206 3584 1959 3584 
z
" transform="scale(0.015625)"/>
       <path id="DejaVuSans-70" d="M 1159 525 
L 1159 -1331 
L 581 -1331 
L 581 3500 
L 1159 3500 
L 1159 2969 
Q 1341 3281 1617 3432 
Q 1894 3584 2278 3584 
Q 2916 3584 3314 3078 
Q 3713 2572 3713 1747 
Q 3713 922 3314 415 
Q 2916 -91 2278 -91 
Q 1894 -91 1617 61 
Q 1341 213 1159 525 
z
M 3116 1747 
Q 3116 2381 2855 2742 
Q 2594 3103 2138 3103 
Q 1681 3103 1420 2742 
Q 1159 2381 1159 1747 
Q 1159 1113 1420 752 
Q 1681 391 2138 391 
Q 2594 391 2855 752 
Q 3116 1113 3116 1747 
z
" transform="scale(0.015625)"/>
       <path id="DejaVuSans-61" d="M 2194 1759 
Q 1497 1759 1228 1600 
Q 959 1441 959 1056 
Q 959 750 1161 570 
Q 1363 391 1709 391 
Q 2188 391 2477 730 
Q 2766 1069 2766 1631 
L 2766 1759 
L 2194 1759 
z
M 3341 1997 
L 3341 0 
L 2766 0 
L 2766 531 
Q 2569 213 2275 61 
Q 1981 -91 1556 -91 
Q 1019 -91 701 211 
Q 384 513 384 1019 
Q 384 1609 779 1909 
Q 1175 2209 1959 2209 
L 2766 2209 
L 2766 2266 
Q 2766 2663 2505 2880 
Q 2244 3097 1772 3097 
Q 1472 3097 1187 3025 
Q 903 2953 641 2809 
L 641 3341 
Q 956 3463 1253 3523 
Q 1550 3584 1831 3584 
Q 2591 3584 2966 3190 
Q 3341 2797 3341 1997 
z
" transform="scale(0.015625)"/>
       <path id="DejaVuSans-67" d="M 2906 1791 
Q 2906 2416 2648 2759 
Q 2391 3103 1925 3103 
Q 1463 3103 1205 2759 
Q 947 2416 947 1791 
Q 947 1169 1205 825 
Q 1463 481 1925 481 
Q 2391 481 2648 825 
Q 2906 1169 2906 1791 
z
M 3481 434 
Q 3481 -459 3084 -895 
Q 2688 -1331 1869 -1331 
Q 1566 -1331 1297 -1286 
Q 1028 -1241 775 -1147 
L 775 -588 
Q 1028 -725 1275 -790 
Q 1522 -856 1778 -856 
Q 2344 -856 2625 -561 
Q 2906 -266 2906 331 
L 2906 616 
Q 2728 306 2450 153 
Q 2172 0 1784 0 
Q 1141 0 747 490 
Q 353 981 353 1791 
Q 353 2603 747 3093 
Q 1141 3584 1784 3584 
Q 2172 3584 2450 3431 
Q 2728 3278 2906 2969 
L 2906 3500 
L 3481 3500 
L 3481 434 
z
" transform="scale(0.015625)"/>
       <path id="DejaVuSans-74" d="M 1172 4494 
L 1172 3500 
L 2356 3500 
L 2356 3053 
L 1172 3053 
L 1172 1153 
Q 1172 725 1289 603 
Q 1406 481 1766 481 
L 2356 481 
L 2356 0 
L 1766 0 
Q 1100 0 847 248 
Q 594 497 594 1153 
L 594 3053 
L 172 3053 
L 172 3500 
L 594 3500 
L 594 4494 
L 1172 4494 
z
" transform="scale(0.015625)"/>
       <path id="DejaVuSans-69" d="M 603 3500 
L 1178 3500 
L 1178 0 
L 603 0 
L 603 3500 
z
M 603 4863 
L 1178 4863 
L 1178 4134 
L 603 4134 
L 603 4863 
z
" transform="scale(0.015625)"/>
       <path id="DejaVuSans-6e" d="M 3513 2113 
L 3513 0 
L 2938 0 
L 2938 2094 
Q 2938 2591 2744 2837 
Q 2550 3084 2163 3084 
Q 1697 3084 1428 2787 
Q 1159 2491 1159 1978 
L 1159 0 
L 581 0 
L 581 3500 
L 1159 3500 
L 1159 2956 
Q 1366 3272 1645 3428 
Q 1925 3584 2291 3584 
Q 2894 3584 3203 3211 
Q 3513 2838 3513 2113 
z
" transform="scale(0.015625)"/>
       <path id="DejaVuSans-20" transform="scale(0.015625)"/>
       <path id="DejaVuSans-64" d="M 2906 2969 
L 2906 4863 
L 3481 4863 
L 3481 0 
L 2906 0 
L 2906 525 
Q 2725 213 2448 61 
Q 2172 -91 1784 -91 
Q 1150 -91 751 415 
Q 353 922 353 1747 
Q 353 2572 751 3078 
Q 1150 3584 1784 3584 
Q 2172 3584 2448 3432 
Q 2725 3281 2906 2969 
z
M 947 1747 
Q 947 1113 1208 752 
Q 1469 391 1925 391 
Q 2381 391 2643 752 
Q 2906 1113 2906 1747 
Q 2906 2381 2643 2742 
Q 2381 3103 1925 3103 
Q 1469 3103 1208 2742 
Q 947 2381 947 1747 
z
" transform="scale(0.015625)"/>
       <path id="DejaVuSans-65" d="M 3597 1894 
L 3597 1613 
L 953 1613 
Q 991 1019 1311 708 
Q 1631 397 2203 397 
Q 2534 397 2845 478 
Q 3156 559 3463 722 
L 3463 178 
Q 3153 47 2828 -22 
Q 2503 -91 2169 -91 
Q 1331 -91 842 396 
Q 353 884 353 1716 
Q 353 2575 817 3079 
Q 1281 3584 2069 3584 
Q 2775 3584 3186 3129 
Q 3597 2675 3597 1894 
z
M 3022 2063 
Q 3016 2534 2758 2815 
Q 2500 3097 2075 3097 
Q 1594 3097 1305 2825 
Q 1016 2553 972 2059 
L 3022 2063 
z
" transform="scale(0.015625)"/>
       <path id="DejaVuSans-63" d="M 3122 3366 
L 3122 2828 
Q 2878 2963 2633 3030 
Q 2388 3097 2138 3097 
Q 1578 3097 1268 2742 
Q 959 2388 959 1747 
Q 959 1106 1268 751 
Q 1578 397 2138 397 
Q 2388 397 2633 464 
Q 2878 531 3122 666 
L 3122 134 
Q 2881 22 2623 -34 
Q 2366 -91 2075 -91 
Q 1284 -91 818 406 
Q 353 903 353 1747 
Q 353 2603 823 3093 
Q 1294 3584 2113 3584 
Q 2378 3584 2631 3529 
Q 2884 3475 3122 3366 
z
" transform="scale(0.015625)"/>
      </defs>
      <use xlink:href="#DejaVuSans-50"/>
      <use xlink:href="#DejaVuSans-72" x="58.552734"/>
      <use xlink:href="#DejaVuSans-6f" x="97.416016"/>
      <use xlink:href="#DejaVuSans-70" x="158.597656"/>
      <use xlink:href="#DejaVuSans-61" x="222.074219"/>
      <use xlink:href="#DejaVuSans-67" x="283.353516"/>
      <use xlink:href="#DejaVuSans-61" x="346.830078"/>
      <use xlink:href="#DejaVuSans-74" x="408.109375"/>
      <use xlink:href="#DejaVuSans-69" x="447.318359"/>
      <use xlink:href="#DejaVuSans-6f" x="475.101562"/>
      <use xlink:href="#DejaVuSans-6e" x="536.283203"/>
      <use xlink:href="#DejaVuSans-20" x="599.662109"/>
      <use xlink:href="#DejaVuSans-64" x="631.449219"/>
      <use xlink:href="#DejaVuSans-69" x="694.925781"/>
      <use xlink:href="#DejaVuSans-72" x="722.708984"/>
      <use xlink:href="#DejaVuSans-65" x="761.572266"/>
      <use xlink:href="#DejaVuSans-63" x="823.095703"/>
      <use xlink:href="#DejaVuSans-74" x="878.076172"/>
      <use xlink:href="#DejaVuSans-69" x="917.285156"/>
      <use xlink:href="#DejaVuSans-6f" x="945.068359"/>
      <use xlink:href="#DejaVuSans-6e" x="1006.25"/>
     </g>
    </g>
   </g>
   <g id="matplotlib.axis_2">
    <g id="ytick_1">
     <g id="line2d_7">
      <defs>
       <path id="mec6e6bbe20" d="M 0 0 
L -3.5 0 
" style="stroke: #000000; stroke-width: 0.8"/>
      </defs>
      <g>
       <use xlink:href="#mec6e6bbe20" x="50.14375" y="273.312" style="stroke: #000000; stroke-width: 0.8"/>
      </g>
     </g>
     <g id="text_8">
      <!-- 0.00 -->
      <g transform="translate(20.878125 277.111219)scale(0.1 -0.1)">
       <use xlink:href="#DejaVuSans-30"/>
       <use xlink:href="#DejaVuSans-2e" x="63.623047"/>
       <use xlink:href="#DejaVuSans-30" x="95.410156"/>
       <use xlink:href="#DejaVuSans-30" x="159.033203"/>
      </g>
     </g>
    </g>
    <g id="ytick_2">
     <g id="line2d_8">
      <g>
       <use xlink:href="#mec6e6bbe20" x="50.14375" y="243.195022" style="stroke: #000000; stroke-width: 0.8"/>
      </g>
     </g>
     <g id="text_9">
      <!-- 0.25 -->
      <g transform="translate(20.878125 246.994241)scale(0.1 -0.1)">
       <defs>
        <path id="DejaVuSans-35" d="M 691 4666 
L 3169 4666 
L 3169 4134 
L 1269 4134 
L 1269 2991 
Q 1406 3038 1543 3061 
Q 1681 3084 1819 3084 
Q 2600 3084 3056 2656 
Q 3513 2228 3513 1497 
Q 3513 744 3044 326 
Q 2575 -91 1722 -91 
Q 1428 -91 1123 -41 
Q 819 9 494 109 
L 494 744 
Q 775 591 1075 516 
Q 1375 441 1709 441 
Q 2250 441 2565 725 
Q 2881 1009 2881 1497 
Q 2881 1984 2565 2268 
Q 2250 2553 1709 2553 
Q 1456 2553 1204 2497 
Q 953 2441 691 2322 
L 691 4666 
z
" transform="scale(0.015625)"/>
       </defs>
       <use xlink:href="#DejaVuSans-30"/>
       <use xlink:href="#DejaVuSans-2e" x="63.623047"/>
       <use xlink:href="#DejaVuSans-32" x="95.410156"/>
       <use xlink:href="#DejaVuSans-35" x="159.033203"/>
      </g>
     </g>
    </g>
    <g id="ytick_3">
     <g id="line2d_9">
      <g>
       <use xlink:href="#mec6e6bbe20" x="50.14375" y="213.078045" style="stroke: #000000; stroke-width: 0.8"/>
      </g>
     </g>
     <g id="text_10">
      <!-- 0.50 -->
      <g transform="translate(20.878125 216.877263)scale(0.1 -0.1)">
       <use xlink:href="#DejaVuSans-30"/>
       <use xlink:href="#DejaVuSans-2e" x="63.623047"/>
       <use xlink:href="#DejaVuSans-35" x="95.410156"/>
       <use xlink:href="#DejaVuSans-30" x="159.033203"/>
      </g>
     </g>
    </g>
    <g id="ytick_4">
     <g id="line2d_10">
      <g>
       <use xlink:href="#mec6e6bbe20" x="50.14375" y="182.961067" style="stroke: #000000; stroke-width: 0.8"/>
      </g>
     </g>
     <g id="text_11">
      <!-- 0.75 -->
      <g transform="translate(20.878125 186.760286)scale(0.1 -0.1)">
       <defs>
        <path id="DejaVuSans-37" d="M 525 4666 
L 3525 4666 
L 3525 4397 
L 1831 0 
L 1172 0 
L 2766 4134 
L 525 4134 
L 525 4666 
z
" transform="scale(0.015625)"/>
       </defs>
       <use xlink:href="#DejaVuSans-30"/>
       <use xlink:href="#DejaVuSans-2e" x="63.623047"/>
       <use xlink:href="#DejaVuSans-37" x="95.410156"/>
       <use xlink:href="#DejaVuSans-35" x="159.033203"/>
      </g>
     </g>
    </g>
    <g id="ytick_5">
     <g id="line2d_11">
      <g>
       <use xlink:href="#mec6e6bbe20" x="50.14375" y="152.844089" style="stroke: #000000; stroke-width: 0.8"/>
      </g>
     </g>
     <g id="text_12">
      <!-- 1.00 -->
      <g transform="translate(20.878125 156.643308)scale(0.1 -0.1)">
       <use xlink:href="#DejaVuSans-31"/>
       <use xlink:href="#DejaVuSans-2e" x="63.623047"/>
       <use xlink:href="#DejaVuSans-30" x="95.410156"/>
       <use xlink:href="#DejaVuSans-30" x="159.033203"/>
      </g>
     </g>
    </g>
    <g id="ytick_6">
     <g id="line2d_12">
      <g>
       <use xlink:href="#mec6e6bbe20" x="50.14375" y="122.727112" style="stroke: #000000; stroke-width: 0.8"/>
      </g>
     </g>
     <g id="text_13">
      <!-- 1.25 -->
      <g transform="translate(20.878125 126.52633)scale(0.1 -0.1)">
       <use xlink:href="#DejaVuSans-31"/>
       <use xlink:href="#DejaVuSans-2e" x="63.623047"/>
       <use xlink:href="#DejaVuSans-32" x="95.410156"/>
       <use xlink:href="#DejaVuSans-35" x="159.033203"/>
      </g>
     </g>
    </g>
    <g id="ytick_7">
     <g id="line2d_13">
      <g>
       <use xlink:href="#mec6e6bbe20" x="50.14375" y="92.610134" style="stroke: #000000; stroke-width: 0.8"/>
      </g>
     </g>
     <g id="text_14">
      <!-- 1.50 -->
      <g transform="translate(20.878125 96.409353)scale(0.1 -0.1)">
       <use xlink:href="#DejaVuSans-31"/>
       <use xlink:href="#DejaVuSans-2e" x="63.623047"/>
       <use xlink:href="#DejaVuSans-35" x="95.410156"/>
       <use xlink:href="#DejaVuSans-30" x="159.033203"/>
      </g>
     </g>
    </g>
    <g id="ytick_8">
     <g id="line2d_14">
      <g>
       <use xlink:href="#mec6e6bbe20" x="50.14375" y="62.493156" style="stroke: #000000; stroke-width: 0.8"/>
      </g>
     </g>
     <g id="text_15">
      <!-- 1.75 -->
      <g transform="translate(20.878125 66.292375)scale(0.1 -0.1)">
       <use xlink:href="#DejaVuSans-31"/>
       <use xlink:href="#DejaVuSans-2e" x="63.623047"/>
       <use xlink:href="#DejaVuSans-37" x="95.410156"/>
       <use xlink:href="#DejaVuSans-35" x="159.033203"/>
      </g>
     </g>
    </g>
    <g id="ytick_9">
     <g id="line2d_15">
      <g>
       <use xlink:href="#mec6e6bbe20" x="50.14375" y="32.376178" style="stroke: #000000; stroke-width: 0.8"/>
      </g>
     </g>
     <g id="text_16">
      <!-- 2.00 -->
      <g transform="translate(20.878125 36.175397)scale(0.1 -0.1)">
       <use xlink:href="#DejaVuSans-32"/>
       <use xlink:href="#DejaVuSans-2e" x="63.623047"/>
       <use xlink:href="#DejaVuSans-30" x="95.410156"/>
       <use xlink:href="#DejaVuSans-30" x="159.033203"/>
      </g>
     </g>
    </g>
    <g id="text_17">
     <!-- Probability density -->
     <g transform="translate(14.798438 186.606781)rotate(-90)scale(0.1 -0.1)">
      <defs>
       <path id="DejaVuSans-62" d="M 3116 1747 
Q 3116 2381 2855 2742 
Q 2594 3103 2138 3103 
Q 1681 3103 1420 2742 
Q 1159 2381 1159 1747 
Q 1159 1113 1420 752 
Q 1681 391 2138 391 
Q 2594 391 2855 752 
Q 3116 1113 3116 1747 
z
M 1159 2969 
Q 1341 3281 1617 3432 
Q 1894 3584 2278 3584 
Q 2916 3584 3314 3078 
Q 3713 2572 3713 1747 
Q 3713 922 3314 415 
Q 2916 -91 2278 -91 
Q 1894 -91 1617 61 
Q 1341 213 1159 525 
L 1159 0 
L 581 0 
L 581 4863 
L 1159 4863 
L 1159 2969 
z
" transform="scale(0.015625)"/>
       <path id="DejaVuSans-6c" d="M 603 4863 
L 1178 4863 
L 1178 0 
L 603 0 
L 603 4863 
z
" transform="scale(0.015625)"/>
       <path id="DejaVuSans-79" d="M 2059 -325 
Q 1816 -950 1584 -1140 
Q 1353 -1331 966 -1331 
L 506 -1331 
L 506 -850 
L 844 -850 
Q 1081 -850 1212 -737 
Q 1344 -625 1503 -206 
L 1606 56 
L 191 3500 
L 800 3500 
L 1894 763 
L 2988 3500 
L 3597 3500 
L 2059 -325 
z
" transform="scale(0.015625)"/>
       <path id="DejaVuSans-73" d="M 2834 3397 
L 2834 2853 
Q 2591 2978 2328 3040 
Q 2066 3103 1784 3103 
Q 1356 3103 1142 2972 
Q 928 2841 928 2578 
Q 928 2378 1081 2264 
Q 1234 2150 1697 2047 
L 1894 2003 
Q 2506 1872 2764 1633 
Q 3022 1394 3022 966 
Q 3022 478 2636 193 
Q 2250 -91 1575 -91 
Q 1294 -91 989 -36 
Q 684 19 347 128 
L 347 722 
Q 666 556 975 473 
Q 1284 391 1588 391 
Q 1994 391 2212 530 
Q 2431 669 2431 922 
Q 2431 1156 2273 1281 
Q 2116 1406 1581 1522 
L 1381 1569 
Q 847 1681 609 1914 
Q 372 2147 372 2553 
Q 372 3047 722 3315 
Q 1072 3584 1716 3584 
Q 2034 3584 2315 3537 
Q 2597 3491 2834 3397 
z
" transform="scale(0.015625)"/>
      </defs>
      <use xlink:href="#DejaVuSans-50"/>
      <use xlink:href="#DejaVuSans-72" x="58.552734"/>
      <use xlink:href="#DejaVuSans-6f" x="97.416016"/>
      <use xlink:href="#DejaVuSans-62" x="158.597656"/>
      <use xlink:href="#DejaVuSans-61" x="222.074219"/>
      <use xlink:href="#DejaVuSans-62" x="283.353516"/>
      <use xlink:href="#DejaVuSans-69" x="346.830078"/>
      <use xlink:href="#DejaVuSans-6c" x="374.613281"/>
      <use xlink:href="#DejaVuSans-69" x="402.396484"/>
      <use xlink:href="#DejaVuSans-74" x="430.179688"/>
      <use xlink:href="#DejaVuSans-79" x="469.388672"/>
      <use xlink:href="#DejaVuSans-20" x="528.568359"/>
      <use xlink:href="#DejaVuSans-64" x="560.355469"/>
      <use xlink:href="#DejaVuSans-65" x="623.832031"/>
      <use xlink:href="#DejaVuSans-6e" x="685.355469"/>
      <use xlink:href="#DejaVuSans-73" x="748.734375"/>
      <use xlink:href="#DejaVuSans-69" x="800.833984"/>
      <use xlink:href="#DejaVuSans-74" x="828.617188"/>
      <use xlink:href="#DejaVuSans-79" x="867.826172"/>
     </g>
    </g>
   </g>
   <g id="line2d_16">
    <path d="M 66.376477 273.312 
L 391.031023 32.376178 
L 391.031023 32.376178 
" clip-path="url(#p4f00ee6ad9)" style="fill: none; stroke: #ff7f0e; stroke-width: 1.5; stroke-linecap: square"/>
   </g>
   <g id="patch_203">
    <path d="M 50.14375 273.312 
L 50.14375 7.2 
" style="fill: none; stroke: #000000; stroke-width: 0.8; stroke-linejoin: miter; stroke-linecap: square"/>
   </g>
   <g id="patch_204">
    <path d="M 407.26375 273.312 
L 407.26375 7.2 
" style="fill: none; stroke: #000000; stroke-width: 0.8; stroke-linejoin: miter; stroke-linecap: square"/>
   </g>
   <g id="patch_205">
    <path d="M 50.14375 273.312 
L 407.26375 273.312 
" style="fill: none; stroke: #000000; stroke-width: 0.8; stroke-linejoin: miter; stroke-linecap: square"/>
   </g>
   <g id="patch_206">
    <path d="M 50.14375 7.2 
L 407.26375 7.2 
" style="fill: none; stroke: #000000; stroke-width: 0.8; stroke-linejoin: miter; stroke-linecap: square"/>
   </g>
  </g>
 </g>
 <defs>
  <clipPath id="p4f00ee6ad9">
   <rect x="50.14375" y="7.2" width="357.12" height="266.112"/>
  </clipPath>
 </defs>
</svg>
