<?xml version="1.0" encoding="utf-8" standalone="no"?>
<!DOCTYPE svg PUBLIC "-//W3C//DTD SVG 1.1//EN"
  "http://www.w3.org/Graphics/SVG/1.1/DTD/svg11.dtd">
<svg xmlns:xlink="http://www.w3.org/1999/xlink" width="414.46375pt" height="310.86825pt" viewBox="0 0 414.46375 310.86825" xmlns="http://www.w3.org/2000/svg" version="1.1">
 <metadata>
  <rdf:RDF xmlns:dc="http://purl.org/dc/elements/1.1/" xmlns:cc="http://creativecommons.org/ns#" xmlns:rdf="http://www.w3.org/1999/02/22-rdf-syntax-ns#">
   <cc:Work>
    <dc:type rdf:resource="http://purl.org/dc/dcmitype/StillImage"/>
    <dc:date>2022-05-04T16:38:52.830362</dc:date>
    <dc:format>image/svg+xml</dc:format>
    <dc:creator>
     <cc:Agent>
      <dc:title>Matplotlib v3.5.2, https://matplotlib.org/</dc:title>
     </cc:Agent>
    </dc:creator>
   </cc:Work>
  </rdf:RDF>
 </metadata>
 <defs>
  <style type="text/css">*{stroke-linejoin: round; stroke-linecap: butt}</style>
 </defs>
 <g id="figure_1">
  <g id="patch_1">
   <path d="M 0 310.86825 
L 414.46375 310.86825 
L 414.46375 0 
L 0 0 
z
" style="fill: #ffffff"/>
  </g>
  <g id="axes_1">
   <g id="patch_2">
    <path d="M 50.14375 273.312 
L 407.26375 273.312 
L 407.26375 7.2 
L 50.14375 7.2 
z
" style="fill: #ffffff"/>
   </g>
   <g id="patch_3">
    <path d="M 68.412682 273.312 
L 70.025767 273.312 
L 70.025767 270.265846 
L 68.412682 270.265846 
z
" clip-path="url(#p9a02a2072e)" style="fill: #1f77b4"/>
   </g>
   <g id="patch_4">
    <path d="M 70.025767 273.312 
L 71.638853 273.312 
L 71.638853 269.656615 
L 70.025767 269.656615 
z
" clip-path="url(#p9a02a2072e)" style="fill: #1f77b4"/>
   </g>
   <g id="patch_5">
    <path d="M 71.638853 273.312 
L 73.251938 273.312 
L 73.251938 269.656615 
L 71.638853 269.656615 
z
" clip-path="url(#p9a02a2072e)" style="fill: #1f77b4"/>
   </g>
   <g id="patch_6">
    <path d="M 73.251938 273.312 
L 74.865023 273.312 
L 74.865023 265.392 
L 73.251938 265.392 
z
" clip-path="url(#p9a02a2072e)" style="fill: #1f77b4"/>
   </g>
   <g id="patch_7">
    <path d="M 74.865023 273.312 
L 76.478109 273.312 
L 76.478109 267.219692 
L 74.865023 267.219692 
z
" clip-path="url(#p9a02a2072e)" style="fill: #1f77b4"/>
   </g>
   <g id="patch_8">
    <path d="M 76.478109 273.312 
L 78.091194 273.312 
L 78.091194 266.001231 
L 76.478109 266.001231 
z
" clip-path="url(#p9a02a2072e)" style="fill: #1f77b4"/>
   </g>
   <g id="patch_9">
    <path d="M 78.091194 273.312 
L 79.70428 273.312 
L 79.70428 262.345846 
L 78.091194 262.345846 
z
" clip-path="url(#p9a02a2072e)" style="fill: #1f77b4"/>
   </g>
   <g id="patch_10">
    <path d="M 79.70428 273.312 
L 81.317365 273.312 
L 81.317365 262.955077 
L 79.70428 262.955077 
z
" clip-path="url(#p9a02a2072e)" style="fill: #1f77b4"/>
   </g>
   <g id="patch_11">
    <path d="M 81.317365 273.312 
L 82.930451 273.312 
L 82.930451 263.564308 
L 81.317365 263.564308 
z
" clip-path="url(#p9a02a2072e)" style="fill: #1f77b4"/>
   </g>
   <g id="patch_12">
    <path d="M 82.930451 273.312 
L 84.543536 273.312 
L 84.543536 261.127385 
L 82.930451 261.127385 
z
" clip-path="url(#p9a02a2072e)" style="fill: #1f77b4"/>
   </g>
   <g id="patch_13">
    <path d="M 84.543536 273.312 
L 86.156622 273.312 
L 86.156622 256.253538 
L 84.543536 256.253538 
z
" clip-path="url(#p9a02a2072e)" style="fill: #1f77b4"/>
   </g>
   <g id="patch_14">
    <path d="M 86.156622 273.312 
L 87.769707 273.312 
L 87.769707 261.736615 
L 86.156622 261.736615 
z
" clip-path="url(#p9a02a2072e)" style="fill: #1f77b4"/>
   </g>
   <g id="patch_15">
    <path d="M 87.769707 273.312 
L 89.382793 273.312 
L 89.382793 258.081231 
L 87.769707 258.081231 
z
" clip-path="url(#p9a02a2072e)" style="fill: #1f77b4"/>
   </g>
   <g id="patch_16">
    <path d="M 89.382793 273.312 
L 90.995878 273.312 
L 90.995878 255.644308 
L 89.382793 255.644308 
z
" clip-path="url(#p9a02a2072e)" style="fill: #1f77b4"/>
   </g>
   <g id="patch_17">
    <path d="M 90.995878 273.312 
L 92.608963 273.312 
L 92.608963 248.942769 
L 90.995878 248.942769 
z
" clip-path="url(#p9a02a2072e)" style="fill: #1f77b4"/>
   </g>
   <g id="patch_18">
    <path d="M 92.608963 273.312 
L 94.222049 273.312 
L 94.222049 251.379692 
L 92.608963 251.379692 
z
" clip-path="url(#p9a02a2072e)" style="fill: #1f77b4"/>
   </g>
   <g id="patch_19">
    <path d="M 94.222049 273.312 
L 95.835134 273.312 
L 95.835134 255.644308 
L 94.222049 255.644308 
z
" clip-path="url(#p9a02a2072e)" style="fill: #1f77b4"/>
   </g>
   <g id="patch_20">
    <path d="M 95.835134 273.312 
L 97.44822 273.312 
L 97.44822 250.770462 
L 95.835134 250.770462 
z
" clip-path="url(#p9a02a2072e)" style="fill: #1f77b4"/>
   </g>
   <g id="patch_21">
    <path d="M 97.44822 273.312 
L 99.061305 273.312 
L 99.061305 247.115077 
L 97.44822 247.115077 
z
" clip-path="url(#p9a02a2072e)" style="fill: #1f77b4"/>
   </g>
   <g id="patch_22">
    <path d="M 99.061305 273.312 
L 100.674391 273.312 
L 100.674391 252.598154 
L 99.061305 252.598154 
z
" clip-path="url(#p9a02a2072e)" style="fill: #1f77b4"/>
   </g>
   <g id="patch_23">
    <path d="M 100.674391 273.312 
L 102.287476 273.312 
L 102.287476 241.632 
L 100.674391 241.632 
z
" clip-path="url(#p9a02a2072e)" style="fill: #1f77b4"/>
   </g>
   <g id="patch_24">
    <path d="M 102.287476 273.312 
L 103.900562 273.312 
L 103.900562 244.678154 
L 102.287476 244.678154 
z
" clip-path="url(#p9a02a2072e)" style="fill: #1f77b4"/>
   </g>
   <g id="patch_25">
    <path d="M 103.900562 273.312 
L 105.513647 273.312 
L 105.513647 239.195077 
L 103.900562 239.195077 
z
" clip-path="url(#p9a02a2072e)" style="fill: #1f77b4"/>
   </g>
   <g id="patch_26">
    <path d="M 105.513647 273.312 
L 107.126733 273.312 
L 107.126733 243.459692 
L 105.513647 243.459692 
z
" clip-path="url(#p9a02a2072e)" style="fill: #1f77b4"/>
   </g>
   <g id="patch_27">
    <path d="M 107.126733 273.312 
L 108.739818 273.312 
L 108.739818 242.241231 
L 107.126733 242.241231 
z
" clip-path="url(#p9a02a2072e)" style="fill: #1f77b4"/>
   </g>
   <g id="patch_28">
    <path d="M 108.739818 273.312 
L 110.352903 273.312 
L 110.352903 241.022769 
L 108.739818 241.022769 
z
" clip-path="url(#p9a02a2072e)" style="fill: #1f77b4"/>
   </g>
   <g id="patch_29">
    <path d="M 110.352903 273.312 
L 111.965989 273.312 
L 111.965989 239.195077 
L 110.352903 239.195077 
z
" clip-path="url(#p9a02a2072e)" style="fill: #1f77b4"/>
   </g>
   <g id="patch_30">
    <path d="M 111.965989 273.312 
L 113.579074 273.312 
L 113.579074 234.321231 
L 111.965989 234.321231 
z
" clip-path="url(#p9a02a2072e)" style="fill: #1f77b4"/>
   </g>
   <g id="patch_31">
    <path d="M 113.579074 273.312 
L 115.19216 273.312 
L 115.19216 234.930462 
L 113.579074 234.930462 
z
" clip-path="url(#p9a02a2072e)" style="fill: #1f77b4"/>
   </g>
   <g id="patch_32">
    <path d="M 115.19216 273.312 
L 116.805245 273.312 
L 116.805245 239.804308 
L 115.19216 239.804308 
z
" clip-path="url(#p9a02a2072e)" style="fill: #1f77b4"/>
   </g>
   <g id="patch_33">
    <path d="M 116.805245 273.312 
L 118.418331 273.312 
L 118.418331 233.102769 
L 116.805245 233.102769 
z
" clip-path="url(#p9a02a2072e)" style="fill: #1f77b4"/>
   </g>
   <g id="patch_34">
    <path d="M 118.418331 273.312 
L 120.031416 273.312 
L 120.031416 236.148923 
L 118.418331 236.148923 
z
" clip-path="url(#p9a02a2072e)" style="fill: #1f77b4"/>
   </g>
   <g id="patch_35">
    <path d="M 120.031416 273.312 
L 121.644502 273.312 
L 121.644502 230.665846 
L 120.031416 230.665846 
z
" clip-path="url(#p9a02a2072e)" style="fill: #1f77b4"/>
   </g>
   <g id="patch_36">
    <path d="M 121.644502 273.312 
L 123.257587 273.312 
L 123.257587 228.228923 
L 121.644502 228.228923 
z
" clip-path="url(#p9a02a2072e)" style="fill: #1f77b4"/>
   </g>
   <g id="patch_37">
    <path d="M 123.257587 273.312 
L 124.870673 273.312 
L 124.870673 230.665846 
L 123.257587 230.665846 
z
" clip-path="url(#p9a02a2072e)" style="fill: #1f77b4"/>
   </g>
   <g id="patch_38">
    <path d="M 124.870673 273.312 
L 126.483758 273.312 
L 126.483758 232.493538 
L 124.870673 232.493538 
z
" clip-path="url(#p9a02a2072e)" style="fill: #1f77b4"/>
   </g>
   <g id="patch_39">
    <path d="M 126.483758 273.312 
L 128.096843 273.312 
L 128.096843 229.447385 
L 126.483758 229.447385 
z
" clip-path="url(#p9a02a2072e)" style="fill: #1f77b4"/>
   </g>
   <g id="patch_40">
    <path d="M 128.096843 273.312 
L 129.709929 273.312 
L 129.709929 220.308923 
L 128.096843 220.308923 
z
" clip-path="url(#p9a02a2072e)" style="fill: #1f77b4"/>
   </g>
   <g id="patch_41">
    <path d="M 129.709929 273.312 
L 131.323014 273.312 
L 131.323014 226.401231 
L 129.709929 226.401231 
z
" clip-path="url(#p9a02a2072e)" style="fill: #1f77b4"/>
   </g>
   <g id="patch_42">
    <path d="M 131.323014 273.312 
L 132.9361 273.312 
L 132.9361 226.401231 
L 131.323014 226.401231 
z
" clip-path="url(#p9a02a2072e)" style="fill: #1f77b4"/>
   </g>
   <g id="patch_43">
    <path d="M 132.9361 273.312 
L 134.549185 273.312 
L 134.549185 219.090462 
L 132.9361 219.090462 
z
" clip-path="url(#p9a02a2072e)" style="fill: #1f77b4"/>
   </g>
   <g id="patch_44">
    <path d="M 134.549185 273.312 
L 136.162271 273.312 
L 136.162271 220.918154 
L 134.549185 220.918154 
z
" clip-path="url(#p9a02a2072e)" style="fill: #1f77b4"/>
   </g>
   <g id="patch_45">
    <path d="M 136.162271 273.312 
L 137.775356 273.312 
L 137.775356 228.838154 
L 136.162271 228.838154 
z
" clip-path="url(#p9a02a2072e)" style="fill: #1f77b4"/>
   </g>
   <g id="patch_46">
    <path d="M 137.775356 273.312 
L 139.388442 273.312 
L 139.388442 225.792 
L 137.775356 225.792 
z
" clip-path="url(#p9a02a2072e)" style="fill: #1f77b4"/>
   </g>
   <g id="patch_47">
    <path d="M 139.388442 273.312 
L 141.001527 273.312 
L 141.001527 220.308923 
L 139.388442 220.308923 
z
" clip-path="url(#p9a02a2072e)" style="fill: #1f77b4"/>
   </g>
   <g id="patch_48">
    <path d="M 141.001527 273.312 
L 142.614613 273.312 
L 142.614613 219.090462 
L 141.001527 219.090462 
z
" clip-path="url(#p9a02a2072e)" style="fill: #1f77b4"/>
   </g>
   <g id="patch_49">
    <path d="M 142.614613 273.312 
L 144.227698 273.312 
L 144.227698 223.964308 
L 142.614613 223.964308 
z
" clip-path="url(#p9a02a2072e)" style="fill: #1f77b4"/>
   </g>
   <g id="patch_50">
    <path d="M 144.227698 273.312 
L 145.840784 273.312 
L 145.840784 210.561231 
L 144.227698 210.561231 
z
" clip-path="url(#p9a02a2072e)" style="fill: #1f77b4"/>
   </g>
   <g id="patch_51">
    <path d="M 145.840784 273.312 
L 147.453869 273.312 
L 147.453869 220.308923 
L 145.840784 220.308923 
z
" clip-path="url(#p9a02a2072e)" style="fill: #1f77b4"/>
   </g>
   <g id="patch_52">
    <path d="M 147.453869 273.312 
L 149.066954 273.312 
L 149.066954 208.124308 
L 147.453869 208.124308 
z
" clip-path="url(#p9a02a2072e)" style="fill: #1f77b4"/>
   </g>
   <g id="patch_53">
    <path d="M 149.066954 273.312 
L 150.68004 273.312 
L 150.68004 209.342769 
L 149.066954 209.342769 
z
" clip-path="url(#p9a02a2072e)" style="fill: #1f77b4"/>
   </g>
   <g id="patch_54">
    <path d="M 150.68004 273.312 
L 152.293125 273.312 
L 152.293125 206.296615 
L 150.68004 206.296615 
z
" clip-path="url(#p9a02a2072e)" style="fill: #1f77b4"/>
   </g>
   <g id="patch_55">
    <path d="M 152.293125 273.312 
L 153.906211 273.312 
L 153.906211 204.468923 
L 152.293125 204.468923 
z
" clip-path="url(#p9a02a2072e)" style="fill: #1f77b4"/>
   </g>
   <g id="patch_56">
    <path d="M 153.906211 273.312 
L 155.519296 273.312 
L 155.519296 210.561231 
L 153.906211 210.561231 
z
" clip-path="url(#p9a02a2072e)" style="fill: #1f77b4"/>
   </g>
   <g id="patch_57">
    <path d="M 155.519296 273.312 
L 157.132382 273.312 
L 157.132382 205.687385 
L 155.519296 205.687385 
z
" clip-path="url(#p9a02a2072e)" style="fill: #1f77b4"/>
   </g>
   <g id="patch_58">
    <path d="M 157.132382 273.312 
L 158.745467 273.312 
L 158.745467 203.250462 
L 157.132382 203.250462 
z
" clip-path="url(#p9a02a2072e)" style="fill: #1f77b4"/>
   </g>
   <g id="patch_59">
    <path d="M 158.745467 273.312 
L 160.358553 273.312 
L 160.358553 208.733538 
L 158.745467 208.733538 
z
" clip-path="url(#p9a02a2072e)" style="fill: #1f77b4"/>
   </g>
   <g id="patch_60">
    <path d="M 160.358553 273.312 
L 161.971638 273.312 
L 161.971638 202.641231 
L 160.358553 202.641231 
z
" clip-path="url(#p9a02a2072e)" style="fill: #1f77b4"/>
   </g>
   <g id="patch_61">
    <path d="M 161.971638 273.312 
L 163.584724 273.312 
L 163.584724 195.939692 
L 161.971638 195.939692 
z
" clip-path="url(#p9a02a2072e)" style="fill: #1f77b4"/>
   </g>
   <g id="patch_62">
    <path d="M 163.584724 273.312 
L 165.197809 273.312 
L 165.197809 200.813538 
L 163.584724 200.813538 
z
" clip-path="url(#p9a02a2072e)" style="fill: #1f77b4"/>
   </g>
   <g id="patch_63">
    <path d="M 165.197809 273.312 
L 166.810894 273.312 
L 166.810894 199.595077 
L 165.197809 199.595077 
z
" clip-path="url(#p9a02a2072e)" style="fill: #1f77b4"/>
   </g>
   <g id="patch_64">
    <path d="M 166.810894 273.312 
L 168.42398 273.312 
L 168.42398 207.515077 
L 166.810894 207.515077 
z
" clip-path="url(#p9a02a2072e)" style="fill: #1f77b4"/>
   </g>
   <g id="patch_65">
    <path d="M 168.42398 273.312 
L 170.037065 273.312 
L 170.037065 197.158154 
L 168.42398 197.158154 
z
" clip-path="url(#p9a02a2072e)" style="fill: #1f77b4"/>
   </g>
   <g id="patch_66">
    <path d="M 170.037065 273.312 
L 171.650151 273.312 
L 171.650151 201.422769 
L 170.037065 201.422769 
z
" clip-path="url(#p9a02a2072e)" style="fill: #1f77b4"/>
   </g>
   <g id="patch_67">
    <path d="M 171.650151 273.312 
L 173.263236 273.312 
L 173.263236 195.939692 
L 171.650151 195.939692 
z
" clip-path="url(#p9a02a2072e)" style="fill: #1f77b4"/>
   </g>
   <g id="patch_68">
    <path d="M 173.263236 273.312 
L 174.876322 273.312 
L 174.876322 193.502769 
L 173.263236 193.502769 
z
" clip-path="url(#p9a02a2072e)" style="fill: #1f77b4"/>
   </g>
   <g id="patch_69">
    <path d="M 174.876322 273.312 
L 176.489407 273.312 
L 176.489407 203.250462 
L 174.876322 203.250462 
z
" clip-path="url(#p9a02a2072e)" style="fill: #1f77b4"/>
   </g>
   <g id="patch_70">
    <path d="M 176.489407 273.312 
L 178.102493 273.312 
L 178.102493 188.019692 
L 176.489407 188.019692 
z
" clip-path="url(#p9a02a2072e)" style="fill: #1f77b4"/>
   </g>
   <g id="patch_71">
    <path d="M 178.102493 273.312 
L 179.715578 273.312 
L 179.715578 183.145846 
L 178.102493 183.145846 
z
" clip-path="url(#p9a02a2072e)" style="fill: #1f77b4"/>
   </g>
   <g id="patch_72">
    <path d="M 179.715578 273.312 
L 181.328664 273.312 
L 181.328664 176.444308 
L 179.715578 176.444308 
z
" clip-path="url(#p9a02a2072e)" style="fill: #1f77b4"/>
   </g>
   <g id="patch_73">
    <path d="M 181.328664 273.312 
L 182.941749 273.312 
L 182.941749 192.893538 
L 181.328664 192.893538 
z
" clip-path="url(#p9a02a2072e)" style="fill: #1f77b4"/>
   </g>
   <g id="patch_74">
    <path d="M 182.941749 273.312 
L 184.554834 273.312 
L 184.554834 191.675077 
L 182.941749 191.675077 
z
" clip-path="url(#p9a02a2072e)" style="fill: #1f77b4"/>
   </g>
   <g id="patch_75">
    <path d="M 184.554834 273.312 
L 186.16792 273.312 
L 186.16792 181.927385 
L 184.554834 181.927385 
z
" clip-path="url(#p9a02a2072e)" style="fill: #1f77b4"/>
   </g>
   <g id="patch_76">
    <path d="M 186.16792 273.312 
L 187.781005 273.312 
L 187.781005 178.881231 
L 186.16792 178.881231 
z
" clip-path="url(#p9a02a2072e)" style="fill: #1f77b4"/>
   </g>
   <g id="patch_77">
    <path d="M 187.781005 273.312 
L 189.394091 273.312 
L 189.394091 188.019692 
L 187.781005 188.019692 
z
" clip-path="url(#p9a02a2072e)" style="fill: #1f77b4"/>
   </g>
   <g id="patch_78">
    <path d="M 189.394091 273.312 
L 191.007176 273.312 
L 191.007176 191.065846 
L 189.394091 191.065846 
z
" clip-path="url(#p9a02a2072e)" style="fill: #1f77b4"/>
   </g>
   <g id="patch_79">
    <path d="M 191.007176 273.312 
L 192.620262 273.312 
L 192.620262 181.318154 
L 191.007176 181.318154 
z
" clip-path="url(#p9a02a2072e)" style="fill: #1f77b4"/>
   </g>
   <g id="patch_80">
    <path d="M 192.620262 273.312 
L 194.233347 273.312 
L 194.233347 174.007385 
L 192.620262 174.007385 
z
" clip-path="url(#p9a02a2072e)" style="fill: #1f77b4"/>
   </g>
   <g id="patch_81">
    <path d="M 194.233347 273.312 
L 195.846433 273.312 
L 195.846433 183.145846 
L 194.233347 183.145846 
z
" clip-path="url(#p9a02a2072e)" style="fill: #1f77b4"/>
   </g>
   <g id="patch_82">
    <path d="M 195.846433 273.312 
L 197.459518 273.312 
L 197.459518 180.099692 
L 195.846433 180.099692 
z
" clip-path="url(#p9a02a2072e)" style="fill: #1f77b4"/>
   </g>
   <g id="patch_83">
    <path d="M 197.459518 273.312 
L 199.072604 273.312 
L 199.072604 175.835077 
L 197.459518 175.835077 
z
" clip-path="url(#p9a02a2072e)" style="fill: #1f77b4"/>
   </g>
   <g id="patch_84">
    <path d="M 199.072604 273.312 
L 200.685689 273.312 
L 200.685689 176.444308 
L 199.072604 176.444308 
z
" clip-path="url(#p9a02a2072e)" style="fill: #1f77b4"/>
   </g>
   <g id="patch_85">
    <path d="M 200.685689 273.312 
L 202.298774 273.312 
L 202.298774 160.604308 
L 200.685689 160.604308 
z
" clip-path="url(#p9a02a2072e)" style="fill: #1f77b4"/>
   </g>
   <g id="patch_86">
    <path d="M 202.298774 273.312 
L 203.91186 273.312 
L 203.91186 169.742769 
L 202.298774 169.742769 
z
" clip-path="url(#p9a02a2072e)" style="fill: #1f77b4"/>
   </g>
   <g id="patch_87">
    <path d="M 203.91186 273.312 
L 205.524945 273.312 
L 205.524945 168.524308 
L 203.91186 168.524308 
z
" clip-path="url(#p9a02a2072e)" style="fill: #1f77b4"/>
   </g>
   <g id="patch_88">
    <path d="M 205.524945 273.312 
L 207.138031 273.312 
L 207.138031 164.259692 
L 205.524945 164.259692 
z
" clip-path="url(#p9a02a2072e)" style="fill: #1f77b4"/>
   </g>
   <g id="patch_89">
    <path d="M 207.138031 273.312 
L 208.751116 273.312 
L 208.751116 177.662769 
L 207.138031 177.662769 
z
" clip-path="url(#p9a02a2072e)" style="fill: #1f77b4"/>
   </g>
   <g id="patch_90">
    <path d="M 208.751116 273.312 
L 210.364202 273.312 
L 210.364202 155.730462 
L 208.751116 155.730462 
z
" clip-path="url(#p9a02a2072e)" style="fill: #1f77b4"/>
   </g>
   <g id="patch_91">
    <path d="M 210.364202 273.312 
L 211.977287 273.312 
L 211.977287 164.259692 
L 210.364202 164.259692 
z
" clip-path="url(#p9a02a2072e)" style="fill: #1f77b4"/>
   </g>
   <g id="patch_92">
    <path d="M 211.977287 273.312 
L 213.590373 273.312 
L 213.590373 166.696615 
L 211.977287 166.696615 
z
" clip-path="url(#p9a02a2072e)" style="fill: #1f77b4"/>
   </g>
   <g id="patch_93">
    <path d="M 213.590373 273.312 
L 215.203458 273.312 
L 215.203458 169.742769 
L 213.590373 169.742769 
z
" clip-path="url(#p9a02a2072e)" style="fill: #1f77b4"/>
   </g>
   <g id="patch_94">
    <path d="M 215.203458 273.312 
L 216.816544 273.312 
L 216.816544 146.592 
L 215.203458 146.592 
z
" clip-path="url(#p9a02a2072e)" style="fill: #1f77b4"/>
   </g>
   <g id="patch_95">
    <path d="M 216.816544 273.312 
L 218.429629 273.312 
L 218.429629 153.902769 
L 216.816544 153.902769 
z
" clip-path="url(#p9a02a2072e)" style="fill: #1f77b4"/>
   </g>
   <g id="patch_96">
    <path d="M 218.429629 273.312 
L 220.042714 273.312 
L 220.042714 160.604308 
L 218.429629 160.604308 
z
" clip-path="url(#p9a02a2072e)" style="fill: #1f77b4"/>
   </g>
   <g id="patch_97">
    <path d="M 220.042714 273.312 
L 221.6558 273.312 
L 221.6558 163.650462 
L 220.042714 163.650462 
z
" clip-path="url(#p9a02a2072e)" style="fill: #1f77b4"/>
   </g>
   <g id="patch_98">
    <path d="M 221.6558 273.312 
L 223.268885 273.312 
L 223.268885 165.478154 
L 221.6558 165.478154 
z
" clip-path="url(#p9a02a2072e)" style="fill: #1f77b4"/>
   </g>
   <g id="patch_99">
    <path d="M 223.268885 273.312 
L 224.881971 273.312 
L 224.881971 147.201231 
L 223.268885 147.201231 
z
" clip-path="url(#p9a02a2072e)" style="fill: #1f77b4"/>
   </g>
   <g id="patch_100">
    <path d="M 224.881971 273.312 
L 226.495056 273.312 
L 226.495056 129.533538 
L 224.881971 129.533538 
z
" clip-path="url(#p9a02a2072e)" style="fill: #1f77b4"/>
   </g>
   <g id="patch_101">
    <path d="M 226.495056 273.312 
L 228.108142 273.312 
L 228.108142 132.579692 
L 226.495056 132.579692 
z
" clip-path="url(#p9a02a2072e)" style="fill: #1f77b4"/>
   </g>
   <g id="patch_102">
    <path d="M 228.108142 273.312 
L 229.721227 273.312 
L 229.721227 154.512 
L 228.108142 154.512 
z
" clip-path="url(#p9a02a2072e)" style="fill: #1f77b4"/>
   </g>
   <g id="patch_103">
    <path d="M 229.721227 273.312 
L 231.334313 273.312 
L 231.334313 155.121231 
L 229.721227 155.121231 
z
" clip-path="url(#p9a02a2072e)" style="fill: #1f77b4"/>
   </g>
   <g id="patch_104">
    <path d="M 231.334313 273.312 
L 232.947398 273.312 
L 232.947398 139.890462 
L 231.334313 139.890462 
z
" clip-path="url(#p9a02a2072e)" style="fill: #1f77b4"/>
   </g>
   <g id="patch_105">
    <path d="M 232.947398 273.312 
L 234.560484 273.312 
L 234.560484 150.856615 
L 232.947398 150.856615 
z
" clip-path="url(#p9a02a2072e)" style="fill: #1f77b4"/>
   </g>
   <g id="patch_106">
    <path d="M 234.560484 273.312 
L 236.173569 273.312 
L 236.173569 144.764308 
L 234.560484 144.764308 
z
" clip-path="url(#p9a02a2072e)" style="fill: #1f77b4"/>
   </g>
   <g id="patch_107">
    <path d="M 236.173569 273.312 
L 237.786654 273.312 
L 237.786654 144.155077 
L 236.173569 144.155077 
z
" clip-path="url(#p9a02a2072e)" style="fill: #1f77b4"/>
   </g>
   <g id="patch_108">
    <path d="M 237.786654 273.312 
L 239.39974 273.312 
L 239.39974 144.155077 
L 237.786654 144.155077 
z
" clip-path="url(#p9a02a2072e)" style="fill: #1f77b4"/>
   </g>
   <g id="patch_109">
    <path d="M 239.39974 273.312 
L 241.012825 273.312 
L 241.012825 136.844308 
L 239.39974 136.844308 
z
" clip-path="url(#p9a02a2072e)" style="fill: #1f77b4"/>
   </g>
   <g id="patch_110">
    <path d="M 241.012825 273.312 
L 242.625911 273.312 
L 242.625911 156.948923 
L 241.012825 156.948923 
z
" clip-path="url(#p9a02a2072e)" style="fill: #1f77b4"/>
   </g>
   <g id="patch_111">
    <path d="M 242.625911 273.312 
L 244.238996 273.312 
L 244.238996 138.062769 
L 242.625911 138.062769 
z
" clip-path="url(#p9a02a2072e)" style="fill: #1f77b4"/>
   </g>
   <g id="patch_112">
    <path d="M 244.238996 273.312 
L 245.852082 273.312 
L 245.852082 139.890462 
L 244.238996 139.890462 
z
" clip-path="url(#p9a02a2072e)" style="fill: #1f77b4"/>
   </g>
   <g id="patch_113">
    <path d="M 245.852082 273.312 
L 247.465167 273.312 
L 247.465167 137.453538 
L 245.852082 137.453538 
z
" clip-path="url(#p9a02a2072e)" style="fill: #1f77b4"/>
   </g>
   <g id="patch_114">
    <path d="M 247.465167 273.312 
L 249.078253 273.312 
L 249.078253 128.315077 
L 247.465167 128.315077 
z
" clip-path="url(#p9a02a2072e)" style="fill: #1f77b4"/>
   </g>
   <g id="patch_115">
    <path d="M 249.078253 273.312 
L 250.691338 273.312 
L 250.691338 134.407385 
L 249.078253 134.407385 
z
" clip-path="url(#p9a02a2072e)" style="fill: #1f77b4"/>
   </g>
   <g id="patch_116">
    <path d="M 250.691338 273.312 
L 252.304424 273.312 
L 252.304424 131.361231 
L 250.691338 131.361231 
z
" clip-path="url(#p9a02a2072e)" style="fill: #1f77b4"/>
   </g>
   <g id="patch_117">
    <path d="M 252.304424 273.312 
L 253.917509 273.312 
L 253.917509 125.268923 
L 252.304424 125.268923 
z
" clip-path="url(#p9a02a2072e)" style="fill: #1f77b4"/>
   </g>
   <g id="patch_118">
    <path d="M 253.917509 273.312 
L 255.530594 273.312 
L 255.530594 129.533538 
L 253.917509 129.533538 
z
" clip-path="url(#p9a02a2072e)" style="fill: #1f77b4"/>
   </g>
   <g id="patch_119">
    <path d="M 255.530594 273.312 
L 257.14368 273.312 
L 257.14368 131.970462 
L 255.530594 131.970462 
z
" clip-path="url(#p9a02a2072e)" style="fill: #1f77b4"/>
   </g>
   <g id="patch_120">
    <path d="M 257.14368 273.312 
L 258.756765 273.312 
L 258.756765 138.062769 
L 257.14368 138.062769 
z
" clip-path="url(#p9a02a2072e)" style="fill: #1f77b4"/>
   </g>
   <g id="patch_121">
    <path d="M 258.756765 273.312 
L 260.369851 273.312 
L 260.369851 127.096615 
L 258.756765 127.096615 
z
" clip-path="url(#p9a02a2072e)" style="fill: #1f77b4"/>
   </g>
   <g id="patch_122">
    <path d="M 260.369851 273.312 
L 261.982936 273.312 
L 261.982936 134.407385 
L 260.369851 134.407385 
z
" clip-path="url(#p9a02a2072e)" style="fill: #1f77b4"/>
   </g>
   <g id="patch_123">
    <path d="M 261.982936 273.312 
L 263.596022 273.312 
L 263.596022 119.785846 
L 261.982936 119.785846 
z
" clip-path="url(#p9a02a2072e)" style="fill: #1f77b4"/>
   </g>
   <g id="patch_124">
    <path d="M 263.596022 273.312 
L 265.209107 273.312 
L 265.209107 114.912 
L 263.596022 114.912 
z
" clip-path="url(#p9a02a2072e)" style="fill: #1f77b4"/>
   </g>
   <g id="patch_125">
    <path d="M 265.209107 273.312 
L 266.822193 273.312 
L 266.822193 117.958154 
L 265.209107 117.958154 
z
" clip-path="url(#p9a02a2072e)" style="fill: #1f77b4"/>
   </g>
   <g id="patch_126">
    <path d="M 266.822193 273.312 
L 268.435278 273.312 
L 268.435278 113.084308 
L 266.822193 113.084308 
z
" clip-path="url(#p9a02a2072e)" style="fill: #1f77b4"/>
   </g>
   <g id="patch_127">
    <path d="M 268.435278 273.312 
L 270.048364 273.312 
L 270.048364 109.428923 
L 268.435278 109.428923 
z
" clip-path="url(#p9a02a2072e)" style="fill: #1f77b4"/>
   </g>
   <g id="patch_128">
    <path d="M 270.048364 273.312 
L 271.661449 273.312 
L 271.661449 109.428923 
L 270.048364 109.428923 
z
" clip-path="url(#p9a02a2072e)" style="fill: #1f77b4"/>
   </g>
   <g id="patch_129">
    <path d="M 271.661449 273.312 
L 273.274534 273.312 
L 273.274534 115.521231 
L 271.661449 115.521231 
z
" clip-path="url(#p9a02a2072e)" style="fill: #1f77b4"/>
   </g>
   <g id="patch_130">
    <path d="M 273.274534 273.312 
L 274.88762 273.312 
L 274.88762 134.407385 
L 273.274534 134.407385 
z
" clip-path="url(#p9a02a2072e)" style="fill: #1f77b4"/>
   </g>
   <g id="patch_131">
    <path d="M 274.88762 273.312 
L 276.500705 273.312 
L 276.500705 102.727385 
L 274.88762 102.727385 
z
" clip-path="url(#p9a02a2072e)" style="fill: #1f77b4"/>
   </g>
   <g id="patch_132">
    <path d="M 276.500705 273.312 
L 278.113791 273.312 
L 278.113791 136.844308 
L 276.500705 136.844308 
z
" clip-path="url(#p9a02a2072e)" style="fill: #1f77b4"/>
   </g>
   <g id="patch_133">
    <path d="M 278.113791 273.312 
L 279.726876 273.312 
L 279.726876 118.567385 
L 278.113791 118.567385 
z
" clip-path="url(#p9a02a2072e)" style="fill: #1f77b4"/>
   </g>
   <g id="patch_134">
    <path d="M 279.726876 273.312 
L 281.339962 273.312 
L 281.339962 119.785846 
L 279.726876 119.785846 
z
" clip-path="url(#p9a02a2072e)" style="fill: #1f77b4"/>
   </g>
   <g id="patch_135">
    <path d="M 281.339962 273.312 
L 282.953047 273.312 
L 282.953047 96.635077 
L 281.339962 96.635077 
z
" clip-path="url(#p9a02a2072e)" style="fill: #1f77b4"/>
   </g>
   <g id="patch_136">
    <path d="M 282.953047 273.312 
L 284.566133 273.312 
L 284.566133 106.992 
L 282.953047 106.992 
z
" clip-path="url(#p9a02a2072e)" style="fill: #1f77b4"/>
   </g>
   <g id="patch_137">
    <path d="M 284.566133 273.312 
L 286.179218 273.312 
L 286.179218 122.832 
L 284.566133 122.832 
z
" clip-path="url(#p9a02a2072e)" style="fill: #1f77b4"/>
   </g>
   <g id="patch_138">
    <path d="M 286.179218 273.312 
L 287.792304 273.312 
L 287.792304 113.693538 
L 286.179218 113.693538 
z
" clip-path="url(#p9a02a2072e)" style="fill: #1f77b4"/>
   </g>
   <g id="patch_139">
    <path d="M 287.792304 273.312 
L 289.405389 273.312 
L 289.405389 107.601231 
L 287.792304 107.601231 
z
" clip-path="url(#p9a02a2072e)" style="fill: #1f77b4"/>
   </g>
   <g id="patch_140">
    <path d="M 289.405389 273.312 
L 291.018474 273.312 
L 291.018474 97.244308 
L 289.405389 97.244308 
z
" clip-path="url(#p9a02a2072e)" style="fill: #1f77b4"/>
   </g>
   <g id="patch_141">
    <path d="M 291.018474 273.312 
L 292.63156 273.312 
L 292.63156 99.681231 
L 291.018474 99.681231 
z
" clip-path="url(#p9a02a2072e)" style="fill: #1f77b4"/>
   </g>
   <g id="patch_142">
    <path d="M 292.63156 273.312 
L 294.244645 273.312 
L 294.244645 102.118154 
L 292.63156 102.118154 
z
" clip-path="url(#p9a02a2072e)" style="fill: #1f77b4"/>
   </g>
   <g id="patch_143">
    <path d="M 294.244645 273.312 
L 295.857731 273.312 
L 295.857731 95.416615 
L 294.244645 95.416615 
z
" clip-path="url(#p9a02a2072e)" style="fill: #1f77b4"/>
   </g>
   <g id="patch_144">
    <path d="M 295.857731 273.312 
L 297.470816 273.312 
L 297.470816 88.715077 
L 295.857731 88.715077 
z
" clip-path="url(#p9a02a2072e)" style="fill: #1f77b4"/>
   </g>
   <g id="patch_145">
    <path d="M 297.470816 273.312 
L 299.083902 273.312 
L 299.083902 111.256615 
L 297.470816 111.256615 
z
" clip-path="url(#p9a02a2072e)" style="fill: #1f77b4"/>
   </g>
   <g id="patch_146">
    <path d="M 299.083902 273.312 
L 300.696987 273.312 
L 300.696987 84.450462 
L 299.083902 84.450462 
z
" clip-path="url(#p9a02a2072e)" style="fill: #1f77b4"/>
   </g>
   <g id="patch_147">
    <path d="M 300.696987 273.312 
L 302.310073 273.312 
L 302.310073 106.992 
L 300.696987 106.992 
z
" clip-path="url(#p9a02a2072e)" style="fill: #1f77b4"/>
   </g>
   <g id="patch_148">
    <path d="M 302.310073 273.312 
L 303.923158 273.312 
L 303.923158 99.681231 
L 302.310073 99.681231 
z
" clip-path="url(#p9a02a2072e)" style="fill: #1f77b4"/>
   </g>
   <g id="patch_149">
    <path d="M 303.923158 273.312 
L 305.536244 273.312 
L 305.536244 81.404308 
L 303.923158 81.404308 
z
" clip-path="url(#p9a02a2072e)" style="fill: #1f77b4"/>
   </g>
   <g id="patch_150">
    <path d="M 305.536244 273.312 
L 307.149329 273.312 
L 307.149329 93.588923 
L 305.536244 93.588923 
z
" clip-path="url(#p9a02a2072e)" style="fill: #1f77b4"/>
   </g>
   <g id="patch_151">
    <path d="M 307.149329 273.312 
L 308.762414 273.312 
L 308.762414 83.841231 
L 307.149329 83.841231 
z
" clip-path="url(#p9a02a2072e)" style="fill: #1f77b4"/>
   </g>
   <g id="patch_152">
    <path d="M 308.762414 273.312 
L 310.3755 273.312 
L 310.3755 96.025846 
L 308.762414 96.025846 
z
" clip-path="url(#p9a02a2072e)" style="fill: #1f77b4"/>
   </g>
   <g id="patch_153">
    <path d="M 310.3755 273.312 
L 311.988585 273.312 
L 311.988585 91.152 
L 310.3755 91.152 
z
" clip-path="url(#p9a02a2072e)" style="fill: #1f77b4"/>
   </g>
   <g id="patch_154">
    <path d="M 311.988585 273.312 
L 313.601671 273.312 
L 313.601671 78.358154 
L 311.988585 78.358154 
z
" clip-path="url(#p9a02a2072e)" style="fill: #1f77b4"/>
   </g>
   <g id="patch_155">
    <path d="M 313.601671 273.312 
L 315.214756 273.312 
L 315.214756 89.324308 
L 313.601671 89.324308 
z
" clip-path="url(#p9a02a2072e)" style="fill: #1f77b4"/>
   </g>
   <g id="patch_156">
    <path d="M 315.214756 273.312 
L 316.827842 273.312 
L 316.827842 77.748923 
L 315.214756 77.748923 
z
" clip-path="url(#p9a02a2072e)" style="fill: #1f77b4"/>
   </g>
   <g id="patch_157">
    <path d="M 316.827842 273.312 
L 318.440927 273.312 
L 318.440927 74.093538 
L 316.827842 74.093538 
z
" clip-path="url(#p9a02a2072e)" style="fill: #1f77b4"/>
   </g>
   <g id="patch_158">
    <path d="M 318.440927 273.312 
L 320.054013 273.312 
L 320.054013 89.324308 
L 318.440927 89.324308 
z
" clip-path="url(#p9a02a2072e)" style="fill: #1f77b4"/>
   </g>
   <g id="patch_159">
    <path d="M 320.054013 273.312 
L 321.667098 273.312 
L 321.667098 91.761231 
L 320.054013 91.761231 
z
" clip-path="url(#p9a02a2072e)" style="fill: #1f77b4"/>
   </g>
   <g id="patch_160">
    <path d="M 321.667098 273.312 
L 323.280184 273.312 
L 323.280184 74.702769 
L 321.667098 74.702769 
z
" clip-path="url(#p9a02a2072e)" style="fill: #1f77b4"/>
   </g>
   <g id="patch_161">
    <path d="M 323.280184 273.312 
L 324.893269 273.312 
L 324.893269 92.370462 
L 323.280184 92.370462 
z
" clip-path="url(#p9a02a2072e)" style="fill: #1f77b4"/>
   </g>
   <g id="patch_162">
    <path d="M 324.893269 273.312 
L 326.506355 273.312 
L 326.506355 77.748923 
L 324.893269 77.748923 
z
" clip-path="url(#p9a02a2072e)" style="fill: #1f77b4"/>
   </g>
   <g id="patch_163">
    <path d="M 326.506355 273.312 
L 328.11944 273.312 
L 328.11944 81.404308 
L 326.506355 81.404308 
z
" clip-path="url(#p9a02a2072e)" style="fill: #1f77b4"/>
   </g>
   <g id="patch_164">
    <path d="M 328.11944 273.312 
L 329.732525 273.312 
L 329.732525 85.059692 
L 328.11944 85.059692 
z
" clip-path="url(#p9a02a2072e)" style="fill: #1f77b4"/>
   </g>
   <g id="patch_165">
    <path d="M 329.732525 273.312 
L 331.345611 273.312 
L 331.345611 80.795077 
L 329.732525 80.795077 
z
" clip-path="url(#p9a02a2072e)" style="fill: #1f77b4"/>
   </g>
   <g id="patch_166">
    <path d="M 331.345611 273.312 
L 332.958696 273.312 
L 332.958696 63.736615 
L 331.345611 63.736615 
z
" clip-path="url(#p9a02a2072e)" style="fill: #1f77b4"/>
   </g>
   <g id="patch_167">
    <path d="M 332.958696 273.312 
L 334.571782 273.312 
L 334.571782 74.702769 
L 332.958696 74.702769 
z
" clip-path="url(#p9a02a2072e)" style="fill: #1f77b4"/>
   </g>
   <g id="patch_168">
    <path d="M 334.571782 273.312 
L 336.184867 273.312 
L 336.184867 85.668923 
L 334.571782 85.668923 
z
" clip-path="url(#p9a02a2072e)" style="fill: #1f77b4"/>
   </g>
   <g id="patch_169">
    <path d="M 336.184867 273.312 
L 337.797953 273.312 
L 337.797953 83.232 
L 336.184867 83.232 
z
" clip-path="url(#p9a02a2072e)" style="fill: #1f77b4"/>
   </g>
   <g id="patch_170">
    <path d="M 337.797953 273.312 
L 339.411038 273.312 
L 339.411038 76.530462 
L 337.797953 76.530462 
z
" clip-path="url(#p9a02a2072e)" style="fill: #1f77b4"/>
   </g>
   <g id="patch_171">
    <path d="M 339.411038 273.312 
L 341.024124 273.312 
L 341.024124 68.610462 
L 339.411038 68.610462 
z
" clip-path="url(#p9a02a2072e)" style="fill: #1f77b4"/>
   </g>
   <g id="patch_172">
    <path d="M 341.024124 273.312 
L 342.637209 273.312 
L 342.637209 71.656615 
L 341.024124 71.656615 
z
" clip-path="url(#p9a02a2072e)" style="fill: #1f77b4"/>
   </g>
   <g id="patch_173">
    <path d="M 342.637209 273.312 
L 344.250295 273.312 
L 344.250295 68.610462 
L 342.637209 68.610462 
z
" clip-path="url(#p9a02a2072e)" style="fill: #1f77b4"/>
   </g>
   <g id="patch_174">
    <path d="M 344.250295 273.312 
L 345.86338 273.312 
L 345.86338 64.345846 
L 344.250295 64.345846 
z
" clip-path="url(#p9a02a2072e)" style="fill: #1f77b4"/>
   </g>
   <g id="patch_175">
    <path d="M 345.86338 273.312 
L 347.476465 273.312 
L 347.476465 55.207385 
L 345.86338 55.207385 
z
" clip-path="url(#p9a02a2072e)" style="fill: #1f77b4"/>
   </g>
   <g id="patch_176">
    <path d="M 347.476465 273.312 
L 349.089551 273.312 
L 349.089551 66.173538 
L 347.476465 66.173538 
z
" clip-path="url(#p9a02a2072e)" style="fill: #1f77b4"/>
   </g>
   <g id="patch_177">
    <path d="M 349.089551 273.312 
L 350.702636 273.312 
L 350.702636 52.770462 
L 349.089551 52.770462 
z
" clip-path="url(#p9a02a2072e)" style="fill: #1f77b4"/>
   </g>
   <g id="patch_178">
    <path d="M 350.702636 273.312 
L 352.315722 273.312 
L 352.315722 56.425846 
L 350.702636 56.425846 
z
" clip-path="url(#p9a02a2072e)" style="fill: #1f77b4"/>
   </g>
   <g id="patch_179">
    <path d="M 352.315722 273.312 
L 353.928807 273.312 
L 353.928807 55.816615 
L 352.315722 55.816615 
z
" clip-path="url(#p9a02a2072e)" style="fill: #1f77b4"/>
   </g>
   <g id="patch_180">
    <path d="M 353.928807 273.312 
L 355.541893 273.312 
L 355.541893 51.552 
L 353.928807 51.552 
z
" clip-path="url(#p9a02a2072e)" style="fill: #1f77b4"/>
   </g>
   <g id="patch_181">
    <path d="M 355.541893 273.312 
L 357.154978 273.312 
L 357.154978 64.955077 
L 355.541893 64.955077 
z
" clip-path="url(#p9a02a2072e)" style="fill: #1f77b4"/>
   </g>
   <g id="patch_182">
    <path d="M 357.154978 273.312 
L 358.768064 273.312 
L 358.768064 55.207385 
L 357.154978 55.207385 
z
" clip-path="url(#p9a02a2072e)" style="fill: #1f77b4"/>
   </g>
   <g id="patch_183">
    <path d="M 358.768064 273.312 
L 360.381149 273.312 
L 360.381149 74.702769 
L 358.768064 74.702769 
z
" clip-path="url(#p9a02a2072e)" style="fill: #1f77b4"/>
   </g>
   <g id="patch_184">
    <path d="M 360.381149 273.312 
L 361.994235 273.312 
L 361.994235 64.955077 
L 360.381149 64.955077 
z
" clip-path="url(#p9a02a2072e)" style="fill: #1f77b4"/>
   </g>
   <g id="patch_185">
    <path d="M 361.994235 273.312 
L 363.60732 273.312 
L 363.60732 59.472 
L 361.994235 59.472 
z
" clip-path="url(#p9a02a2072e)" style="fill: #1f77b4"/>
   </g>
   <g id="patch_186">
    <path d="M 363.60732 273.312 
L 365.220405 273.312 
L 365.220405 55.816615 
L 363.60732 55.816615 
z
" clip-path="url(#p9a02a2072e)" style="fill: #1f77b4"/>
   </g>
   <g id="patch_187">
    <path d="M 365.220405 273.312 
L 366.833491 273.312 
L 366.833491 57.035077 
L 365.220405 57.035077 
z
" clip-path="url(#p9a02a2072e)" style="fill: #1f77b4"/>
   </g>
   <g id="patch_188">
    <path d="M 366.833491 273.312 
L 368.446576 273.312 
L 368.446576 57.035077 
L 366.833491 57.035077 
z
" clip-path="url(#p9a02a2072e)" style="fill: #1f77b4"/>
   </g>
   <g id="patch_189">
    <path d="M 368.446576 273.312 
L 370.059662 273.312 
L 370.059662 43.632 
L 368.446576 43.632 
z
" clip-path="url(#p9a02a2072e)" style="fill: #1f77b4"/>
   </g>
   <g id="patch_190">
    <path d="M 370.059662 273.312 
L 371.672747 273.312 
L 371.672747 36.321231 
L 370.059662 36.321231 
z
" clip-path="url(#p9a02a2072e)" style="fill: #1f77b4"/>
   </g>
   <g id="patch_191">
    <path d="M 371.672747 273.312 
L 373.285833 273.312 
L 373.285833 33.884308 
L 371.672747 33.884308 
z
" clip-path="url(#p9a02a2072e)" style="fill: #1f77b4"/>
   </g>
   <g id="patch_192">
    <path d="M 373.285833 273.312 
L 374.898918 273.312 
L 374.898918 58.862769 
L 373.285833 58.862769 
z
" clip-path="url(#p9a02a2072e)" style="fill: #1f77b4"/>
   </g>
   <g id="patch_193">
    <path d="M 374.898918 273.312 
L 376.512004 273.312 
L 376.512004 38.758154 
L 374.898918 38.758154 
z
" clip-path="url(#p9a02a2072e)" style="fill: #1f77b4"/>
   </g>
   <g id="patch_194">
    <path d="M 376.512004 273.312 
L 378.125089 273.312 
L 378.125089 64.345846 
L 376.512004 64.345846 
z
" clip-path="url(#p9a02a2072e)" style="fill: #1f77b4"/>
   </g>
   <g id="patch_195">
    <path d="M 378.125089 273.312 
L 379.738175 273.312 
L 379.738175 54.598154 
L 378.125089 54.598154 
z
" clip-path="url(#p9a02a2072e)" style="fill: #1f77b4"/>
   </g>
   <g id="patch_196">
    <path d="M 379.738175 273.312 
L 381.35126 273.312 
L 381.35126 49.115077 
L 379.738175 49.115077 
z
" clip-path="url(#p9a02a2072e)" style="fill: #1f77b4"/>
   </g>
   <g id="patch_197">
    <path d="M 381.35126 273.312 
L 382.964345 273.312 
L 382.964345 36.930462 
L 381.35126 36.930462 
z
" clip-path="url(#p9a02a2072e)" style="fill: #1f77b4"/>
   </g>
   <g id="patch_198">
    <path d="M 382.964345 273.312 
L 384.577431 273.312 
L 384.577431 38.758154 
L 382.964345 38.758154 
z
" clip-path="url(#p9a02a2072e)" style="fill: #1f77b4"/>
   </g>
   <g id="patch_199">
    <path d="M 384.577431 273.312 
L 386.190516 273.312 
L 386.190516 70.438154 
L 384.577431 70.438154 
z
" clip-path="url(#p9a02a2072e)" style="fill: #1f77b4"/>
   </g>
   <g id="patch_200">
    <path d="M 386.190516 273.312 
L 387.803602 273.312 
L 387.803602 43.632 
L 386.190516 43.632 
z
" clip-path="url(#p9a02a2072e)" style="fill: #1f77b4"/>
   </g>
   <g id="patch_201">
    <path d="M 387.803602 273.312 
L 389.416687 273.312 
L 389.416687 19.872 
L 387.803602 19.872 
z
" clip-path="url(#p9a02a2072e)" style="fill: #1f77b4"/>
   </g>
   <g id="patch_202">
    <path d="M 389.416687 273.312 
L 391.029773 273.312 
L 391.029773 38.758154 
L 389.416687 38.758154 
z
" clip-path="url(#p9a02a2072e)" style="fill: #1f77b4"/>
   </g>
   <g id="matplotlib.axis_1">
    <g id="xtick_1">
     <g id="line2d_1">
      <defs>
       <path id="maaa13ca18e" d="M 0 0 
L 0 3.5 
" style="stroke: #000000; stroke-width: 0.8"/>
      </defs>
      <g>
       <use xlink:href="#maaa13ca18e" x="66.376477" y="273.312" style="stroke: #000000; stroke-width: 0.8"/>
      </g>
     </g>
     <g id="text_1">
      <!-- 0.0 -->
      <g transform="translate(58.424915 287.910437)scale(0.1 -0.1)">
       <defs>
        <path id="DejaVuSans-30" d="M 2034 4250 
Q 1547 4250 1301 3770 
Q 1056 3291 1056 2328 
Q 1056 1369 1301 889 
Q 1547 409 2034 409 
Q 2525 409 2770 889 
Q 3016 1369 3016 2328 
Q 3016 3291 2770 3770 
Q 2525 4250 2034 4250 
z
M 2034 4750 
Q 2819 4750 3233 4129 
Q 3647 3509 3647 2328 
Q 3647 1150 3233 529 
Q 2819 -91 2034 -91 
Q 1250 -91 836 529 
Q 422 1150 422 2328 
Q 422 3509 836 4129 
Q 1250 4750 2034 4750 
z
" transform="scale(0.015625)"/>
        <path id="DejaVuSans-2e" d="M 684 794 
L 1344 794 
L 1344 0 
L 684 0 
L 684 794 
z
" transform="scale(0.015625)"/>
       </defs>
       <use xlink:href="#DejaVuSans-30"/>
       <use xlink:href="#DejaVuSans-2e" x="63.623047"/>
       <use xlink:href="#DejaVuSans-30" x="95.410156"/>
      </g>
     </g>
    </g>
    <g id="xtick_2">
     <g id="line2d_2">
      <g>
       <use xlink:href="#maaa13ca18e" x="131.307386" y="273.312" style="stroke: #000000; stroke-width: 0.8"/>
      </g>
     </g>
     <g id="text_2">
      <!-- 0.2 -->
      <g transform="translate(123.355824 287.910437)scale(0.1 -0.1)">
       <defs>
        <path id="DejaVuSans-32" d="M 1228 531 
L 3431 531 
L 3431 0 
L 469 0 
L 469 531 
Q 828 903 1448 1529 
Q 2069 2156 2228 2338 
Q 2531 2678 2651 2914 
Q 2772 3150 2772 3378 
Q 2772 3750 2511 3984 
Q 2250 4219 1831 4219 
Q 1534 4219 1204 4116 
Q 875 4013 500 3803 
L 500 4441 
Q 881 4594 1212 4672 
Q 1544 4750 1819 4750 
Q 2544 4750 2975 4387 
Q 3406 4025 3406 3419 
Q 3406 3131 3298 2873 
Q 3191 2616 2906 2266 
Q 2828 2175 2409 1742 
Q 1991 1309 1228 531 
z
" transform="scale(0.015625)"/>
       </defs>
       <use xlink:href="#DejaVuSans-30"/>
       <use xlink:href="#DejaVuSans-2e" x="63.623047"/>
       <use xlink:href="#DejaVuSans-32" x="95.410156"/>
      </g>
     </g>
    </g>
    <g id="xtick_3">
     <g id="line2d_3">
      <g>
       <use xlink:href="#maaa13ca18e" x="196.238295" y="273.312" style="stroke: #000000; stroke-width: 0.8"/>
      </g>
     </g>
     <g id="text_3">
      <!-- 0.4 -->
      <g transform="translate(188.286733 287.910437)scale(0.1 -0.1)">
       <defs>
        <path id="DejaVuSans-34" d="M 2419 4116 
L 825 1625 
L 2419 1625 
L 2419 4116 
z
M 2253 4666 
L 3047 4666 
L 3047 1625 
L 3713 1625 
L 3713 1100 
L 3047 1100 
L 3047 0 
L 2419 0 
L 2419 1100 
L 313 1100 
L 313 1709 
L 2253 4666 
z
" transform="scale(0.015625)"/>
       </defs>
       <use xlink:href="#DejaVuSans-30"/>
       <use xlink:href="#DejaVuSans-2e" x="63.623047"/>
       <use xlink:href="#DejaVuSans-34" x="95.410156"/>
      </g>
     </g>
    </g>
    <g id="xtick_4">
     <g id="line2d_4">
      <g>
       <use xlink:href="#maaa13ca18e" x="261.169205" y="273.312" style="stroke: #000000; stroke-width: 0.8"/>
      </g>
     </g>
     <g id="text_4">
      <!-- 0.6 -->
      <g transform="translate(253.217642 287.910437)scale(0.1 -0.1)">
       <defs>
        <path id="DejaVuSans-36" d="M 2113 2584 
Q 1688 2584 1439 2293 
Q 1191 2003 1191 1497 
Q 1191 994 1439 701 
Q 1688 409 2113 409 
Q 2538 409 2786 701 
Q 3034 994 3034 1497 
Q 3034 2003 2786 2293 
Q 2538 2584 2113 2584 
z
M 3366 4563 
L 3366 3988 
Q 3128 4100 2886 4159 
Q 2644 4219 2406 4219 
Q 1781 4219 1451 3797 
Q 1122 3375 1075 2522 
Q 1259 2794 1537 2939 
Q 1816 3084 2150 3084 
Q 2853 3084 3261 2657 
Q 3669 2231 3669 1497 
Q 3669 778 3244 343 
Q 2819 -91 2113 -91 
Q 1303 -91 875 529 
Q 447 1150 447 2328 
Q 447 3434 972 4092 
Q 1497 4750 2381 4750 
Q 2619 4750 2861 4703 
Q 3103 4656 3366 4563 
z
" transform="scale(0.015625)"/>
       </defs>
       <use xlink:href="#DejaVuSans-30"/>
       <use xlink:href="#DejaVuSans-2e" x="63.623047"/>
       <use xlink:href="#DejaVuSans-36" x="95.410156"/>
      </g>
     </g>
    </g>
    <g id="xtick_5">
     <g id="line2d_5">
      <g>
       <use xlink:href="#maaa13ca18e" x="326.100114" y="273.312" style="stroke: #000000; stroke-width: 0.8"/>
      </g>
     </g>
     <g id="text_5">
      <!-- 0.8 -->
      <g transform="translate(318.148551 287.910437)scale(0.1 -0.1)">
       <defs>
        <path id="DejaVuSans-38" d="M 2034 2216 
Q 1584 2216 1326 1975 
Q 1069 1734 1069 1313 
Q 1069 891 1326 650 
Q 1584 409 2034 409 
Q 2484 409 2743 651 
Q 3003 894 3003 1313 
Q 3003 1734 2745 1975 
Q 2488 2216 2034 2216 
z
M 1403 2484 
Q 997 2584 770 2862 
Q 544 3141 544 3541 
Q 544 4100 942 4425 
Q 1341 4750 2034 4750 
Q 2731 4750 3128 4425 
Q 3525 4100 3525 3541 
Q 3525 3141 3298 2862 
Q 3072 2584 2669 2484 
Q 3125 2378 3379 2068 
Q 3634 1759 3634 1313 
Q 3634 634 3220 271 
Q 2806 -91 2034 -91 
Q 1263 -91 848 271 
Q 434 634 434 1313 
Q 434 1759 690 2068 
Q 947 2378 1403 2484 
z
M 1172 3481 
Q 1172 3119 1398 2916 
Q 1625 2713 2034 2713 
Q 2441 2713 2670 2916 
Q 2900 3119 2900 3481 
Q 2900 3844 2670 4047 
Q 2441 4250 2034 4250 
Q 1625 4250 1398 4047 
Q 1172 3844 1172 3481 
z
" transform="scale(0.015625)"/>
       </defs>
       <use xlink:href="#DejaVuSans-30"/>
       <use xlink:href="#DejaVuSans-2e" x="63.623047"/>
       <use xlink:href="#DejaVuSans-38" x="95.410156"/>
      </g>
     </g>
    </g>
    <g id="xtick_6">
     <g id="line2d_6">
      <g>
       <use xlink:href="#maaa13ca18e" x="391.031023" y="273.312" style="stroke: #000000; stroke-width: 0.8"/>
      </g>
     </g>
     <g id="text_6">
      <!-- 1.0 -->
      <g transform="translate(383.07946 287.910437)scale(0.1 -0.1)">
       <defs>
        <path id="DejaVuSans-31" d="M 794 531 
L 1825 531 
L 1825 4091 
L 703 3866 
L 703 4441 
L 1819 4666 
L 2450 4666 
L 2450 531 
L 3481 531 
L 3481 0 
L 794 0 
L 794 531 
z
" transform="scale(0.015625)"/>
       </defs>
       <use xlink:href="#DejaVuSans-31"/>
       <use xlink:href="#DejaVuSans-2e" x="63.623047"/>
       <use xlink:href="#DejaVuSans-30" x="95.410156"/>
      </g>
     </g>
    </g>
    <g id="text_7">
     <!-- Propagation direction -->
     <g transform="translate(175.221719 301.588562)scale(0.1 -0.1)">
      <defs>
       <path id="DejaVuSans-50" d="M 1259 4147 
L 1259 2394 
L 2053 2394 
Q 2494 2394 2734 2622 
Q 2975 2850 2975 3272 
Q 2975 3691 2734 3919 
Q 2494 4147 2053 4147 
L 1259 4147 
z
M 628 4666 
L 2053 4666 
Q 2838 4666 3239 4311 
Q 3641 3956 3641 3272 
Q 3641 2581 3239 2228 
Q 2838 1875 2053 1875 
L 1259 1875 
L 1259 0 
L 628 0 
L 628 4666 
z
" transform="scale(0.015625)"/>
       <path id="DejaVuSans-72" d="M 2631 2963 
Q 2534 3019 2420 3045 
Q 2306 3072 2169 3072 
Q 1681 3072 1420 2755 
Q 1159 2438 1159 1844 
L 1159 0 
L 581 0 
L 581 3500 
L 1159 3500 
L 1159 2956 
Q 1341 3275 1631 3429 
Q 1922 3584 2338 3584 
Q 2397 3584 2469 3576 
Q 2541 3569 2628 3553 
L 2631 2963 
z
" transform="scale(0.015625)"/>
       <path id="DejaVuSans-6f" d="M 1959 3097 
Q 1497 3097 1228 2736 
Q 959 2375 959 1747 
Q 959 1119 1226 758 
Q 1494 397 1959 397 
Q 2419 397 2687 759 
Q 2956 1122 2956 1747 
Q 2956 2369 2687 2733 
Q 2419 3097 1959 3097 
z
M 1959 3584 
Q 2709 3584 3137 3096 
Q 3566 2609 3566 1747 
Q 3566 888 3137 398 
Q 2709 -91 1959 -91 
Q 1206 -91 779 398 
Q 353 888 353 1747 
Q 353 2609 779 3096 
Q 1206 3584 1959 3584 
z
" transform="scale(0.015625)"/>
       <path id="DejaVuSans-70" d="M 1159 525 
L 1159 -1331 
L 581 -1331 
L 581 3500 
L 1159 3500 
L 1159 2969 
Q 1341 3281 1617 3432 
Q 1894 3584 2278 3584 
Q 2916 3584 3314 3078 
Q 3713 2572 3713 1747 
Q 3713 922 3314 415 
Q 2916 -91 2278 -91 
Q 1894 -91 1617 61 
Q 1341 213 1159 525 
z
M 3116 1747 
Q 3116 2381 2855 2742 
Q 2594 3103 2138 3103 
Q 1681 3103 1420 2742 
Q 1159 2381 1159 1747 
Q 1159 1113 1420 752 
Q 1681 391 2138 391 
Q 2594 391 2855 752 
Q 3116 1113 3116 1747 
z
" transform="scale(0.015625)"/>
       <path id="DejaVuSans-61" d="M 2194 1759 
Q 1497 1759 1228 1600 
Q 959 1441 959 1056 
Q 959 750 1161 570 
Q 1363 391 1709 391 
Q 2188 391 2477 730 
Q 2766 1069 2766 1631 
L 2766 1759 
L 2194 1759 
z
M 3341 1997 
L 3341 0 
L 2766 0 
L 2766 531 
Q 2569 213 2275 61 
Q 1981 -91 1556 -91 
Q 1019 -91 701 211 
Q 384 513 384 1019 
Q 384 1609 779 1909 
Q 1175 2209 1959 2209 
L 2766 2209 
L 2766 2266 
Q 2766 2663 2505 2880 
Q 2244 3097 1772 3097 
Q 1472 3097 1187 3025 
Q 903 2953 641 2809 
L 641 3341 
Q 956 3463 1253 3523 
Q 1550 3584 1831 3584 
Q 2591 3584 2966 3190 
Q 3341 2797 3341 1997 
z
" transform="scale(0.015625)"/>
       <path id="DejaVuSans-67" d="M 2906 1791 
Q 2906 2416 2648 2759 
Q 2391 3103 1925 3103 
Q 1463 3103 1205 2759 
Q 947 2416 947 1791 
Q 947 1169 1205 825 
Q 1463 481 1925 481 
Q 2391 481 2648 825 
Q 2906 1169 2906 1791 
z
M 3481 434 
Q 3481 -459 3084 -895 
Q 2688 -1331 1869 -1331 
Q 1566 -1331 1297 -1286 
Q 1028 -1241 775 -1147 
L 775 -588 
Q 1028 -725 1275 -790 
Q 1522 -856 1778 -856 
Q 2344 -856 2625 -561 
Q 2906 -266 2906 331 
L 2906 616 
Q 2728 306 2450 153 
Q 2172 0 1784 0 
Q 1141 0 747 490 
Q 353 981 353 1791 
Q 353 2603 747 3093 
Q 1141 3584 1784 3584 
Q 2172 3584 2450 3431 
Q 2728 3278 2906 2969 
L 2906 3500 
L 3481 3500 
L 3481 434 
z
" transform="scale(0.015625)"/>
       <path id="DejaVuSans-74" d="M 1172 4494 
L 1172 3500 
L 2356 3500 
L 2356 3053 
L 1172 3053 
L 1172 1153 
Q 1172 725 1289 603 
Q 1406 481 1766 481 
L 2356 481 
L 2356 0 
L 1766 0 
Q 1100 0 847 248 
Q 594 497 594 1153 
L 594 3053 
L 172 3053 
L 172 3500 
L 594 3500 
L 594 4494 
L 1172 4494 
z
" transform="scale(0.015625)"/>
       <path id="DejaVuSans-69" d="M 603 3500 
L 1178 3500 
L 1178 0 
L 603 0 
L 603 3500 
z
M 603 4863 
L 1178 4863 
L 1178 4134 
L 603 4134 
L 603 4863 
z
" transform="scale(0.015625)"/>
       <path id="DejaVuSans-6e" d="M 3513 2113 
L 3513 0 
L 2938 0 
L 2938 2094 
Q 2938 2591 2744 2837 
Q 2550 3084 2163 3084 
Q 1697 3084 1428 2787 
Q 1159 2491 1159 1978 
L 1159 0 
L 581 0 
L 581 3500 
L 1159 3500 
L 1159 2956 
Q 1366 3272 1645 3428 
Q 1925 3584 2291 3584 
Q 2894 3584 3203 3211 
Q 3513 2838 3513 2113 
z
" transform="scale(0.015625)"/>
       <path id="DejaVuSans-20" transform="scale(0.015625)"/>
       <path id="DejaVuSans-64" d="M 2906 2969 
L 2906 4863 
L 3481 4863 
L 3481 0 
L 2906 0 
L 2906 525 
Q 2725 213 2448 61 
Q 2172 -91 1784 -91 
Q 1150 -91 751 415 
Q 353 922 353 1747 
Q 353 2572 751 3078 
Q 1150 3584 1784 3584 
Q 2172 3584 2448 3432 
Q 2725 3281 2906 2969 
z
M 947 1747 
Q 947 1113 1208 752 
Q 1469 391 1925 391 
Q 2381 391 2643 752 
Q 2906 1113 2906 1747 
Q 2906 2381 2643 2742 
Q 2381 3103 1925 3103 
Q 1469 3103 1208 2742 
Q 947 2381 947 1747 
z
" transform="scale(0.015625)"/>
       <path id="DejaVuSans-65" d="M 3597 1894 
L 3597 1613 
L 953 1613 
Q 991 1019 1311 708 
Q 1631 397 2203 397 
Q 2534 397 2845 478 
Q 3156 559 3463 722 
L 3463 178 
Q 3153 47 2828 -22 
Q 2503 -91 2169 -91 
Q 1331 -91 842 396 
Q 353 884 353 1716 
Q 353 2575 817 3079 
Q 1281 3584 2069 3584 
Q 2775 3584 3186 3129 
Q 3597 2675 3597 1894 
z
M 3022 2063 
Q 3016 2534 2758 2815 
Q 2500 3097 2075 3097 
Q 1594 3097 1305 2825 
Q 1016 2553 972 2059 
L 3022 2063 
z
" transform="scale(0.015625)"/>
       <path id="DejaVuSans-63" d="M 3122 3366 
L 3122 2828 
Q 2878 2963 2633 3030 
Q 2388 3097 2138 3097 
Q 1578 3097 1268 2742 
Q 959 2388 959 1747 
Q 959 1106 1268 751 
Q 1578 397 2138 397 
Q 2388 397 2633 464 
Q 2878 531 3122 666 
L 3122 134 
Q 2881 22 2623 -34 
Q 2366 -91 2075 -91 
Q 1284 -91 818 406 
Q 353 903 353 1747 
Q 353 2603 823 3093 
Q 1294 3584 2113 3584 
Q 2378 3584 2631 3529 
Q 2884 3475 3122 3366 
z
" transform="scale(0.015625)"/>
      </defs>
      <use xlink:href="#DejaVuSans-50"/>
      <use xlink:href="#DejaVuSans-72" x="58.552734"/>
      <use xlink:href="#DejaVuSans-6f" x="97.416016"/>
      <use xlink:href="#DejaVuSans-70" x="158.597656"/>
      <use xlink:href="#DejaVuSans-61" x="222.074219"/>
      <use xlink:href="#DejaVuSans-67" x="283.353516"/>
      <use xlink:href="#DejaVuSans-61" x="346.830078"/>
      <use xlink:href="#DejaVuSans-74" x="408.109375"/>
      <use xlink:href="#DejaVuSans-69" x="447.318359"/>
      <use xlink:href="#DejaVuSans-6f" x="475.101562"/>
      <use xlink:href="#DejaVuSans-6e" x="536.283203"/>
      <use xlink:href="#DejaVuSans-20" x="599.662109"/>
      <use xlink:href="#DejaVuSans-64" x="631.449219"/>
      <use xlink:href="#DejaVuSans-69" x="694.925781"/>
      <use xlink:href="#DejaVuSans-72" x="722.708984"/>
      <use xlink:href="#DejaVuSans-65" x="761.572266"/>
      <use xlink:href="#DejaVuSans-63" x="823.095703"/>
      <use xlink:href="#DejaVuSans-74" x="878.076172"/>
      <use xlink:href="#DejaVuSans-69" x="917.285156"/>
      <use xlink:href="#DejaVuSans-6f" x="945.068359"/>
      <use xlink:href="#DejaVuSans-6e" x="1006.25"/>
     </g>
    </g>
   </g>
   <g id="matplotlib.axis_2">
    <g id="ytick_1">
     <g id="line2d_7">
      <defs>
       <path id="maacf1ca614" d="M 0 0 
L -3.5 0 
" style="stroke: #000000; stroke-width: 0.8"/>
      </defs>
      <g>
       <use xlink:href="#maacf1ca614" x="50.14375" y="273.312" style="stroke: #000000; stroke-width: 0.8"/>
      </g>
     </g>
     <g id="text_8">
      <!-- 0.00 -->
      <g transform="translate(20.878125 277.111219)scale(0.1 -0.1)">
       <use xlink:href="#DejaVuSans-30"/>
       <use xlink:href="#DejaVuSans-2e" x="63.623047"/>
       <use xlink:href="#DejaVuSans-30" x="95.410156"/>
       <use xlink:href="#DejaVuSans-30" x="159.033203"/>
      </g>
     </g>
    </g>
    <g id="ytick_2">
     <g id="line2d_8">
      <g>
       <use xlink:href="#maacf1ca614" x="50.14375" y="243.041631" style="stroke: #000000; stroke-width: 0.8"/>
      </g>
     </g>
     <g id="text_9">
      <!-- 0.25 -->
      <g transform="translate(20.878125 246.84085)scale(0.1 -0.1)">
       <defs>
        <path id="DejaVuSans-35" d="M 691 4666 
L 3169 4666 
L 3169 4134 
L 1269 4134 
L 1269 2991 
Q 1406 3038 1543 3061 
Q 1681 3084 1819 3084 
Q 2600 3084 3056 2656 
Q 3513 2228 3513 1497 
Q 3513 744 3044 326 
Q 2575 -91 1722 -91 
Q 1428 -91 1123 -41 
Q 819 9 494 109 
L 494 744 
Q 775 591 1075 516 
Q 1375 441 1709 441 
Q 2250 441 2565 725 
Q 2881 1009 2881 1497 
Q 2881 1984 2565 2268 
Q 2250 2553 1709 2553 
Q 1456 2553 1204 2497 
Q 953 2441 691 2322 
L 691 4666 
z
" transform="scale(0.015625)"/>
       </defs>
       <use xlink:href="#DejaVuSans-30"/>
       <use xlink:href="#DejaVuSans-2e" x="63.623047"/>
       <use xlink:href="#DejaVuSans-32" x="95.410156"/>
       <use xlink:href="#DejaVuSans-35" x="159.033203"/>
      </g>
     </g>
    </g>
    <g id="ytick_3">
     <g id="line2d_9">
      <g>
       <use xlink:href="#maacf1ca614" x="50.14375" y="212.771262" style="stroke: #000000; stroke-width: 0.8"/>
      </g>
     </g>
     <g id="text_10">
      <!-- 0.50 -->
      <g transform="translate(20.878125 216.570481)scale(0.1 -0.1)">
       <use xlink:href="#DejaVuSans-30"/>
       <use xlink:href="#DejaVuSans-2e" x="63.623047"/>
       <use xlink:href="#DejaVuSans-35" x="95.410156"/>
       <use xlink:href="#DejaVuSans-30" x="159.033203"/>
      </g>
     </g>
    </g>
    <g id="ytick_4">
     <g id="line2d_10">
      <g>
       <use xlink:href="#maacf1ca614" x="50.14375" y="182.500893" style="stroke: #000000; stroke-width: 0.8"/>
      </g>
     </g>
     <g id="text_11">
      <!-- 0.75 -->
      <g transform="translate(20.878125 186.300111)scale(0.1 -0.1)">
       <defs>
        <path id="DejaVuSans-37" d="M 525 4666 
L 3525 4666 
L 3525 4397 
L 1831 0 
L 1172 0 
L 2766 4134 
L 525 4134 
L 525 4666 
z
" transform="scale(0.015625)"/>
       </defs>
       <use xlink:href="#DejaVuSans-30"/>
       <use xlink:href="#DejaVuSans-2e" x="63.623047"/>
       <use xlink:href="#DejaVuSans-37" x="95.410156"/>
       <use xlink:href="#DejaVuSans-35" x="159.033203"/>
      </g>
     </g>
    </g>
    <g id="ytick_5">
     <g id="line2d_11">
      <g>
       <use xlink:href="#maacf1ca614" x="50.14375" y="152.230524" style="stroke: #000000; stroke-width: 0.8"/>
      </g>
     </g>
     <g id="text_12">
      <!-- 1.00 -->
      <g transform="translate(20.878125 156.029742)scale(0.1 -0.1)">
       <use xlink:href="#DejaVuSans-31"/>
       <use xlink:href="#DejaVuSans-2e" x="63.623047"/>
       <use xlink:href="#DejaVuSans-30" x="95.410156"/>
       <use xlink:href="#DejaVuSans-30" x="159.033203"/>
      </g>
     </g>
    </g>
    <g id="ytick_6">
     <g id="line2d_12">
      <g>
       <use xlink:href="#maacf1ca614" x="50.14375" y="121.960154" style="stroke: #000000; stroke-width: 0.8"/>
      </g>
     </g>
     <g id="text_13">
      <!-- 1.25 -->
      <g transform="translate(20.878125 125.759373)scale(0.1 -0.1)">
       <use xlink:href="#DejaVuSans-31"/>
       <use xlink:href="#DejaVuSans-2e" x="63.623047"/>
       <use xlink:href="#DejaVuSans-32" x="95.410156"/>
       <use xlink:href="#DejaVuSans-35" x="159.033203"/>
      </g>
     </g>
    </g>
    <g id="ytick_7">
     <g id="line2d_13">
      <g>
       <use xlink:href="#maacf1ca614" x="50.14375" y="91.689785" style="stroke: #000000; stroke-width: 0.8"/>
      </g>
     </g>
     <g id="text_14">
      <!-- 1.50 -->
      <g transform="translate(20.878125 95.489004)scale(0.1 -0.1)">
       <use xlink:href="#DejaVuSans-31"/>
       <use xlink:href="#DejaVuSans-2e" x="63.623047"/>
       <use xlink:href="#DejaVuSans-35" x="95.410156"/>
       <use xlink:href="#DejaVuSans-30" x="159.033203"/>
      </g>
     </g>
    </g>
    <g id="ytick_8">
     <g id="line2d_14">
      <g>
       <use xlink:href="#maacf1ca614" x="50.14375" y="61.419416" style="stroke: #000000; stroke-width: 0.8"/>
      </g>
     </g>
     <g id="text_15">
      <!-- 1.75 -->
      <g transform="translate(20.878125 65.218635)scale(0.1 -0.1)">
       <use xlink:href="#DejaVuSans-31"/>
       <use xlink:href="#DejaVuSans-2e" x="63.623047"/>
       <use xlink:href="#DejaVuSans-37" x="95.410156"/>
       <use xlink:href="#DejaVuSans-35" x="159.033203"/>
      </g>
     </g>
    </g>
    <g id="ytick_9">
     <g id="line2d_15">
      <g>
       <use xlink:href="#maacf1ca614" x="50.14375" y="31.149047" style="stroke: #000000; stroke-width: 0.8"/>
      </g>
     </g>
     <g id="text_16">
      <!-- 2.00 -->
      <g transform="translate(20.878125 34.948266)scale(0.1 -0.1)">
       <use xlink:href="#DejaVuSans-32"/>
       <use xlink:href="#DejaVuSans-2e" x="63.623047"/>
       <use xlink:href="#DejaVuSans-30" x="95.410156"/>
       <use xlink:href="#DejaVuSans-30" x="159.033203"/>
      </g>
     </g>
    </g>
    <g id="text_17">
     <!-- Probability density -->
     <g transform="translate(14.798438 186.606781)rotate(-90)scale(0.1 -0.1)">
      <defs>
       <path id="DejaVuSans-62" d="M 3116 1747 
Q 3116 2381 2855 2742 
Q 2594 3103 2138 3103 
Q 1681 3103 1420 2742 
Q 1159 2381 1159 1747 
Q 1159 1113 1420 752 
Q 1681 391 2138 391 
Q 2594 391 2855 752 
Q 3116 1113 3116 1747 
z
M 1159 2969 
Q 1341 3281 1617 3432 
Q 1894 3584 2278 3584 
Q 2916 3584 3314 3078 
Q 3713 2572 3713 1747 
Q 3713 922 3314 415 
Q 2916 -91 2278 -91 
Q 1894 -91 1617 61 
Q 1341 213 1159 525 
L 1159 0 
L 581 0 
L 581 4863 
L 1159 4863 
L 1159 2969 
z
" transform="scale(0.015625)"/>
       <path id="DejaVuSans-6c" d="M 603 4863 
L 1178 4863 
L 1178 0 
L 603 0 
L 603 4863 
z
" transform="scale(0.015625)"/>
       <path id="DejaVuSans-79" d="M 2059 -325 
Q 1816 -950 1584 -1140 
Q 1353 -1331 966 -1331 
L 506 -1331 
L 506 -850 
L 844 -850 
Q 1081 -850 1212 -737 
Q 1344 -625 1503 -206 
L 1606 56 
L 191 3500 
L 800 3500 
L 1894 763 
L 2988 3500 
L 3597 3500 
L 2059 -325 
z
" transform="scale(0.015625)"/>
       <path id="DejaVuSans-73" d="M 2834 3397 
L 2834 2853 
Q 2591 2978 2328 3040 
Q 2066 3103 1784 3103 
Q 1356 3103 1142 2972 
Q 928 2841 928 2578 
Q 928 2378 1081 2264 
Q 1234 2150 1697 2047 
L 1894 2003 
Q 2506 1872 2764 1633 
Q 3022 1394 3022 966 
Q 3022 478 2636 193 
Q 2250 -91 1575 -91 
Q 1294 -91 989 -36 
Q 684 19 347 128 
L 347 722 
Q 666 556 975 473 
Q 1284 391 1588 391 
Q 1994 391 2212 530 
Q 2431 669 2431 922 
Q 2431 1156 2273 1281 
Q 2116 1406 1581 1522 
L 1381 1569 
Q 847 1681 609 1914 
Q 372 2147 372 2553 
Q 372 3047 722 3315 
Q 1072 3584 1716 3584 
Q 2034 3584 2315 3537 
Q 2597 3491 2834 3397 
z
" transform="scale(0.015625)"/>
      </defs>
      <use xlink:href="#DejaVuSans-50"/>
      <use xlink:href="#DejaVuSans-72" x="58.552734"/>
      <use xlink:href="#DejaVuSans-6f" x="97.416016"/>
      <use xlink:href="#DejaVuSans-62" x="158.597656"/>
      <use xlink:href="#DejaVuSans-61" x="222.074219"/>
      <use xlink:href="#DejaVuSans-62" x="283.353516"/>
      <use xlink:href="#DejaVuSans-69" x="346.830078"/>
      <use xlink:href="#DejaVuSans-6c" x="374.613281"/>
      <use xlink:href="#DejaVuSans-69" x="402.396484"/>
      <use xlink:href="#DejaVuSans-74" x="430.179688"/>
      <use xlink:href="#DejaVuSans-79" x="469.388672"/>
      <use xlink:href="#DejaVuSans-20" x="528.568359"/>
      <use xlink:href="#DejaVuSans-64" x="560.355469"/>
      <use xlink:href="#DejaVuSans-65" x="623.832031"/>
      <use xlink:href="#DejaVuSans-6e" x="685.355469"/>
      <use xlink:href="#DejaVuSans-73" x="748.734375"/>
      <use xlink:href="#DejaVuSans-69" x="800.833984"/>
      <use xlink:href="#DejaVuSans-74" x="828.617188"/>
      <use xlink:href="#DejaVuSans-79" x="867.826172"/>
     </g>
    </g>
   </g>
   <g id="line2d_16">
    <path d="M 66.376477 273.312 
L 391.031023 31.149047 
L 391.031023 31.149047 
" clip-path="url(#p9a02a2072e)" style="fill: none; stroke: #ff7f0e; stroke-width: 1.5; stroke-linecap: square"/>
   </g>
   <g id="patch_203">
    <path d="M 50.14375 273.312 
L 50.14375 7.2 
" style="fill: none; stroke: #000000; stroke-width: 0.8; stroke-linejoin: miter; stroke-linecap: square"/>
   </g>
   <g id="patch_204">
    <path d="M 407.26375 273.312 
L 407.26375 7.2 
" style="fill: none; stroke: #000000; stroke-width: 0.8; stroke-linejoin: miter; stroke-linecap: square"/>
   </g>
   <g id="patch_205">
    <path d="M 50.14375 273.312 
L 407.26375 273.312 
" style="fill: none; stroke: #000000; stroke-width: 0.8; stroke-linejoin: miter; stroke-linecap: square"/>
   </g>
   <g id="patch_206">
    <path d="M 50.14375 7.2 
L 407.26375 7.2 
" style="fill: none; stroke: #000000; stroke-width: 0.8; stroke-linejoin: miter; stroke-linecap: square"/>
   </g>
  </g>
 </g>
 <defs>
  <clipPath id="p9a02a2072e">
   <rect x="50.14375" y="7.2" width="357.12" height="266.112"/>
  </clipPath>
 </defs>
</svg>
