<?xml version="1.0" encoding="utf-8" standalone="no"?>
<!DOCTYPE svg PUBLIC "-//W3C//DTD SVG 1.1//EN"
  "http://www.w3.org/Graphics/SVG/1.1/DTD/svg11.dtd">
<svg xmlns:xlink="http://www.w3.org/1999/xlink" width="408.10125pt" height="310.86825pt" viewBox="0 0 408.10125 310.86825" xmlns="http://www.w3.org/2000/svg" version="1.1">
 <metadata>
  <rdf:RDF xmlns:dc="http://purl.org/dc/elements/1.1/" xmlns:cc="http://creativecommons.org/ns#" xmlns:rdf="http://www.w3.org/1999/02/22-rdf-syntax-ns#">
   <cc:Work>
    <dc:type rdf:resource="http://purl.org/dc/dcmitype/StillImage"/>
    <dc:date>2022-05-08T14:54:52.063641</dc:date>
    <dc:format>image/svg+xml</dc:format>
    <dc:creator>
     <cc:Agent>
      <dc:title>Matplotlib v3.5.2, https://matplotlib.org/</dc:title>
     </cc:Agent>
    </dc:creator>
   </cc:Work>
  </rdf:RDF>
 </metadata>
 <defs>
  <style type="text/css">*{stroke-linejoin: round; stroke-linecap: butt}</style>
 </defs>
 <g id="figure_1">
  <g id="patch_1">
   <path d="M 0 310.86825 
L 408.10125 310.86825 
L 408.10125 0 
L 0 0 
z
" style="fill: #ffffff"/>
  </g>
  <g id="axes_1">
   <g id="patch_2">
    <path d="M 43.78125 273.312 
L 400.90125 273.312 
L 400.90125 7.2 
L 43.78125 7.2 
z
" style="fill: #ffffff"/>
   </g>
   <g id="patch_3">
    <path d="M 61.28896 273.312 
L 62.900982 273.312 
L 62.900982 267.53559 
L 61.28896 267.53559 
z
" clip-path="url(#p0753e8804a)" style="fill: #1f77b4"/>
   </g>
   <g id="patch_4">
    <path d="M 62.900982 273.312 
L 64.513003 273.312 
L 64.513003 263.925333 
L 62.900982 263.925333 
z
" clip-path="url(#p0753e8804a)" style="fill: #1f77b4"/>
   </g>
   <g id="patch_5">
    <path d="M 64.513003 273.312 
L 66.125025 273.312 
L 66.125025 265.369436 
L 64.513003 265.369436 
z
" clip-path="url(#p0753e8804a)" style="fill: #1f77b4"/>
   </g>
   <g id="patch_6">
    <path d="M 66.125025 273.312 
L 67.737047 273.312 
L 67.737047 260.315077 
L 66.125025 260.315077 
z
" clip-path="url(#p0753e8804a)" style="fill: #1f77b4"/>
   </g>
   <g id="patch_7">
    <path d="M 67.737047 273.312 
L 69.349069 273.312 
L 69.349069 256.704821 
L 67.737047 256.704821 
z
" clip-path="url(#p0753e8804a)" style="fill: #1f77b4"/>
   </g>
   <g id="patch_8">
    <path d="M 69.349069 273.312 
L 70.96109 273.312 
L 70.96109 258.148923 
L 69.349069 258.148923 
z
" clip-path="url(#p0753e8804a)" style="fill: #1f77b4"/>
   </g>
   <g id="patch_9">
    <path d="M 70.96109 273.312 
L 72.573112 273.312 
L 72.573112 247.318154 
L 70.96109 247.318154 
z
" clip-path="url(#p0753e8804a)" style="fill: #1f77b4"/>
   </g>
   <g id="patch_10">
    <path d="M 72.573112 273.312 
L 74.185134 273.312 
L 74.185134 239.37559 
L 72.573112 239.37559 
z
" clip-path="url(#p0753e8804a)" style="fill: #1f77b4"/>
   </g>
   <g id="patch_11">
    <path d="M 74.185134 273.312 
L 75.797156 273.312 
L 75.797156 235.043282 
L 74.185134 235.043282 
z
" clip-path="url(#p0753e8804a)" style="fill: #1f77b4"/>
   </g>
   <g id="patch_12">
    <path d="M 75.797156 273.312 
L 77.409177 273.312 
L 77.409177 224.212513 
L 75.797156 224.212513 
z
" clip-path="url(#p0753e8804a)" style="fill: #1f77b4"/>
   </g>
   <g id="patch_13">
    <path d="M 77.409177 273.312 
L 79.021199 273.312 
L 79.021199 237.209436 
L 77.409177 237.209436 
z
" clip-path="url(#p0753e8804a)" style="fill: #1f77b4"/>
   </g>
   <g id="patch_14">
    <path d="M 79.021199 273.312 
L 80.633221 273.312 
L 80.633221 232.877128 
L 79.021199 232.877128 
z
" clip-path="url(#p0753e8804a)" style="fill: #1f77b4"/>
   </g>
   <g id="patch_15">
    <path d="M 80.633221 273.312 
L 82.245243 273.312 
L 82.245243 237.209436 
L 80.633221 237.209436 
z
" clip-path="url(#p0753e8804a)" style="fill: #1f77b4"/>
   </g>
   <g id="patch_16">
    <path d="M 82.245243 273.312 
L 83.857265 273.312 
L 83.857265 227.822769 
L 82.245243 227.822769 
z
" clip-path="url(#p0753e8804a)" style="fill: #1f77b4"/>
   </g>
   <g id="patch_17">
    <path d="M 83.857265 273.312 
L 85.469286 273.312 
L 85.469286 221.324308 
L 83.857265 221.324308 
z
" clip-path="url(#p0753e8804a)" style="fill: #1f77b4"/>
   </g>
   <g id="patch_18">
    <path d="M 85.469286 273.312 
L 87.081308 273.312 
L 87.081308 220.602256 
L 85.469286 220.602256 
z
" clip-path="url(#p0753e8804a)" style="fill: #1f77b4"/>
   </g>
   <g id="patch_19">
    <path d="M 87.081308 273.312 
L 88.69333 273.312 
L 88.69333 205.439179 
L 87.081308 205.439179 
z
" clip-path="url(#p0753e8804a)" style="fill: #1f77b4"/>
   </g>
   <g id="patch_20">
    <path d="M 88.69333 273.312 
L 90.305352 273.312 
L 90.305352 210.493538 
L 88.69333 210.493538 
z
" clip-path="url(#p0753e8804a)" style="fill: #1f77b4"/>
   </g>
   <g id="patch_21">
    <path d="M 90.305352 273.312 
L 91.917373 273.312 
L 91.917373 209.049436 
L 90.305352 209.049436 
z
" clip-path="url(#p0753e8804a)" style="fill: #1f77b4"/>
   </g>
   <g id="patch_22">
    <path d="M 91.917373 273.312 
L 93.529395 273.312 
L 93.529395 219.158154 
L 91.917373 219.158154 
z
" clip-path="url(#p0753e8804a)" style="fill: #1f77b4"/>
   </g>
   <g id="patch_23">
    <path d="M 93.529395 273.312 
L 95.141417 273.312 
L 95.141417 191.720205 
L 93.529395 191.720205 
z
" clip-path="url(#p0753e8804a)" style="fill: #1f77b4"/>
   </g>
   <g id="patch_24">
    <path d="M 95.141417 273.312 
L 96.753439 273.312 
L 96.753439 199.662769 
L 95.141417 199.662769 
z
" clip-path="url(#p0753e8804a)" style="fill: #1f77b4"/>
   </g>
   <g id="patch_25">
    <path d="M 96.753439 273.312 
L 98.36546 273.312 
L 98.36546 189.554051 
L 96.753439 189.554051 
z
" clip-path="url(#p0753e8804a)" style="fill: #1f77b4"/>
   </g>
   <g id="patch_26">
    <path d="M 98.36546 273.312 
L 99.977482 273.312 
L 99.977482 183.777641 
L 98.36546 183.777641 
z
" clip-path="url(#p0753e8804a)" style="fill: #1f77b4"/>
   </g>
   <g id="patch_27">
    <path d="M 99.977482 273.312 
L 101.589504 273.312 
L 101.589504 185.943795 
L 99.977482 185.943795 
z
" clip-path="url(#p0753e8804a)" style="fill: #1f77b4"/>
   </g>
   <g id="patch_28">
    <path d="M 101.589504 273.312 
L 103.201526 273.312 
L 103.201526 183.777641 
L 101.589504 183.777641 
z
" clip-path="url(#p0753e8804a)" style="fill: #1f77b4"/>
   </g>
   <g id="patch_29">
    <path d="M 103.201526 273.312 
L 104.813548 273.312 
L 104.813548 171.502769 
L 103.201526 171.502769 
z
" clip-path="url(#p0753e8804a)" style="fill: #1f77b4"/>
   </g>
   <g id="patch_30">
    <path d="M 104.813548 273.312 
L 106.425569 273.312 
L 106.425569 182.333538 
L 104.813548 182.333538 
z
" clip-path="url(#p0753e8804a)" style="fill: #1f77b4"/>
   </g>
   <g id="patch_31">
    <path d="M 106.425569 273.312 
L 108.037591 273.312 
L 108.037591 177.279179 
L 106.425569 177.279179 
z
" clip-path="url(#p0753e8804a)" style="fill: #1f77b4"/>
   </g>
   <g id="patch_32">
    <path d="M 108.037591 273.312 
L 109.649613 273.312 
L 109.649613 165.726359 
L 108.037591 165.726359 
z
" clip-path="url(#p0753e8804a)" style="fill: #1f77b4"/>
   </g>
   <g id="patch_33">
    <path d="M 109.649613 273.312 
L 111.261635 273.312 
L 111.261635 167.170462 
L 109.649613 167.170462 
z
" clip-path="url(#p0753e8804a)" style="fill: #1f77b4"/>
   </g>
   <g id="patch_34">
    <path d="M 111.261635 273.312 
L 112.873656 273.312 
L 112.873656 159.949949 
L 111.261635 159.949949 
z
" clip-path="url(#p0753e8804a)" style="fill: #1f77b4"/>
   </g>
   <g id="patch_35">
    <path d="M 112.873656 273.312 
L 114.485678 273.312 
L 114.485678 155.617641 
L 112.873656 155.617641 
z
" clip-path="url(#p0753e8804a)" style="fill: #1f77b4"/>
   </g>
   <g id="patch_36">
    <path d="M 114.485678 273.312 
L 116.0977 273.312 
L 116.0977 141.898667 
L 114.485678 141.898667 
z
" clip-path="url(#p0753e8804a)" style="fill: #1f77b4"/>
   </g>
   <g id="patch_37">
    <path d="M 116.0977 273.312 
L 117.709722 273.312 
L 117.709722 167.170462 
L 116.0977 167.170462 
z
" clip-path="url(#p0753e8804a)" style="fill: #1f77b4"/>
   </g>
   <g id="patch_38">
    <path d="M 117.709722 273.312 
L 119.321743 273.312 
L 119.321743 165.726359 
L 117.709722 165.726359 
z
" clip-path="url(#p0753e8804a)" style="fill: #1f77b4"/>
   </g>
   <g id="patch_39">
    <path d="M 119.321743 273.312 
L 120.933765 273.312 
L 120.933765 146.953026 
L 119.321743 146.953026 
z
" clip-path="url(#p0753e8804a)" style="fill: #1f77b4"/>
   </g>
   <g id="patch_40">
    <path d="M 120.933765 273.312 
L 122.545787 273.312 
L 122.545787 136.844308 
L 120.933765 136.844308 
z
" clip-path="url(#p0753e8804a)" style="fill: #1f77b4"/>
   </g>
   <g id="patch_41">
    <path d="M 122.545787 273.312 
L 124.157809 273.312 
L 124.157809 152.729436 
L 122.545787 152.729436 
z
" clip-path="url(#p0753e8804a)" style="fill: #1f77b4"/>
   </g>
   <g id="patch_42">
    <path d="M 124.157809 273.312 
L 125.769831 273.312 
L 125.769831 118.070974 
L 124.157809 118.070974 
z
" clip-path="url(#p0753e8804a)" style="fill: #1f77b4"/>
   </g>
   <g id="patch_43">
    <path d="M 125.769831 273.312 
L 127.381852 273.312 
L 127.381852 128.179692 
L 125.769831 128.179692 
z
" clip-path="url(#p0753e8804a)" style="fill: #1f77b4"/>
   </g>
   <g id="patch_44">
    <path d="M 127.381852 273.312 
L 128.993874 273.312 
L 128.993874 145.508923 
L 127.381852 145.508923 
z
" clip-path="url(#p0753e8804a)" style="fill: #1f77b4"/>
   </g>
   <g id="patch_45">
    <path d="M 128.993874 273.312 
L 130.605896 273.312 
L 130.605896 135.400205 
L 128.993874 135.400205 
z
" clip-path="url(#p0753e8804a)" style="fill: #1f77b4"/>
   </g>
   <g id="patch_46">
    <path d="M 130.605896 273.312 
L 132.217918 273.312 
L 132.217918 103.629949 
L 130.605896 103.629949 
z
" clip-path="url(#p0753e8804a)" style="fill: #1f77b4"/>
   </g>
   <g id="patch_47">
    <path d="M 132.217918 273.312 
L 133.829939 273.312 
L 133.829939 105.074051 
L 132.217918 105.074051 
z
" clip-path="url(#p0753e8804a)" style="fill: #1f77b4"/>
   </g>
   <g id="patch_48">
    <path d="M 133.829939 273.312 
L 135.441961 273.312 
L 135.441961 130.345846 
L 133.829939 130.345846 
z
" clip-path="url(#p0753e8804a)" style="fill: #1f77b4"/>
   </g>
   <g id="patch_49">
    <path d="M 135.441961 273.312 
L 137.053983 273.312 
L 137.053983 122.403282 
L 135.441961 122.403282 
z
" clip-path="url(#p0753e8804a)" style="fill: #1f77b4"/>
   </g>
   <g id="patch_50">
    <path d="M 137.053983 273.312 
L 138.666005 273.312 
L 138.666005 116.626872 
L 137.053983 116.626872 
z
" clip-path="url(#p0753e8804a)" style="fill: #1f77b4"/>
   </g>
   <g id="patch_51">
    <path d="M 138.666005 273.312 
L 140.278026 273.312 
L 140.278026 135.400205 
L 138.666005 135.400205 
z
" clip-path="url(#p0753e8804a)" style="fill: #1f77b4"/>
   </g>
   <g id="patch_52">
    <path d="M 140.278026 273.312 
L 141.890048 273.312 
L 141.890048 127.457641 
L 140.278026 127.457641 
z
" clip-path="url(#p0753e8804a)" style="fill: #1f77b4"/>
   </g>
   <g id="patch_53">
    <path d="M 141.890048 273.312 
L 143.50207 273.312 
L 143.50207 122.403282 
L 141.890048 122.403282 
z
" clip-path="url(#p0753e8804a)" style="fill: #1f77b4"/>
   </g>
   <g id="patch_54">
    <path d="M 143.50207 273.312 
L 145.114092 273.312 
L 145.114092 126.73559 
L 143.50207 126.73559 
z
" clip-path="url(#p0753e8804a)" style="fill: #1f77b4"/>
   </g>
   <g id="patch_55">
    <path d="M 145.114092 273.312 
L 146.726114 273.312 
L 146.726114 107.240205 
L 145.114092 107.240205 
z
" clip-path="url(#p0753e8804a)" style="fill: #1f77b4"/>
   </g>
   <g id="patch_56">
    <path d="M 146.726114 273.312 
L 148.338135 273.312 
L 148.338135 116.626872 
L 146.726114 116.626872 
z
" clip-path="url(#p0753e8804a)" style="fill: #1f77b4"/>
   </g>
   <g id="patch_57">
    <path d="M 148.338135 273.312 
L 149.950157 273.312 
L 149.950157 100.741744 
L 148.338135 100.741744 
z
" clip-path="url(#p0753e8804a)" style="fill: #1f77b4"/>
   </g>
   <g id="patch_58">
    <path d="M 149.950157 273.312 
L 151.562179 273.312 
L 151.562179 105.796103 
L 149.950157 105.796103 
z
" clip-path="url(#p0753e8804a)" style="fill: #1f77b4"/>
   </g>
   <g id="patch_59">
    <path d="M 151.562179 273.312 
L 153.174201 273.312 
L 153.174201 106.518154 
L 151.562179 106.518154 
z
" clip-path="url(#p0753e8804a)" style="fill: #1f77b4"/>
   </g>
   <g id="patch_60">
    <path d="M 153.174201 273.312 
L 154.786222 273.312 
L 154.786222 85.578667 
L 153.174201 85.578667 
z
" clip-path="url(#p0753e8804a)" style="fill: #1f77b4"/>
   </g>
   <g id="patch_61">
    <path d="M 154.786222 273.312 
L 156.398244 273.312 
L 156.398244 97.131487 
L 154.786222 97.131487 
z
" clip-path="url(#p0753e8804a)" style="fill: #1f77b4"/>
   </g>
   <g id="patch_62">
    <path d="M 156.398244 273.312 
L 158.010266 273.312 
L 158.010266 81.246359 
L 156.398244 81.246359 
z
" clip-path="url(#p0753e8804a)" style="fill: #1f77b4"/>
   </g>
   <g id="patch_63">
    <path d="M 158.010266 273.312 
L 159.622288 273.312 
L 159.622288 96.409436 
L 158.010266 96.409436 
z
" clip-path="url(#p0753e8804a)" style="fill: #1f77b4"/>
   </g>
   <g id="patch_64">
    <path d="M 159.622288 273.312 
L 161.234309 273.312 
L 161.234309 92.077128 
L 159.622288 92.077128 
z
" clip-path="url(#p0753e8804a)" style="fill: #1f77b4"/>
   </g>
   <g id="patch_65">
    <path d="M 161.234309 273.312 
L 162.846331 273.312 
L 162.846331 109.406359 
L 161.234309 109.406359 
z
" clip-path="url(#p0753e8804a)" style="fill: #1f77b4"/>
   </g>
   <g id="patch_66">
    <path d="M 162.846331 273.312 
L 164.458353 273.312 
L 164.458353 89.910974 
L 162.846331 89.910974 
z
" clip-path="url(#p0753e8804a)" style="fill: #1f77b4"/>
   </g>
   <g id="patch_67">
    <path d="M 164.458353 273.312 
L 166.070375 273.312 
L 166.070375 106.518154 
L 164.458353 106.518154 
z
" clip-path="url(#p0753e8804a)" style="fill: #1f77b4"/>
   </g>
   <g id="patch_68">
    <path d="M 166.070375 273.312 
L 167.682397 273.312 
L 167.682397 74.747897 
L 166.070375 74.747897 
z
" clip-path="url(#p0753e8804a)" style="fill: #1f77b4"/>
   </g>
   <g id="patch_69">
    <path d="M 167.682397 273.312 
L 169.294418 273.312 
L 169.294418 59.584821 
L 167.682397 59.584821 
z
" clip-path="url(#p0753e8804a)" style="fill: #1f77b4"/>
   </g>
   <g id="patch_70">
    <path d="M 169.294418 273.312 
L 170.90644 273.312 
L 170.90644 89.910974 
L 169.294418 89.910974 
z
" clip-path="url(#p0753e8804a)" style="fill: #1f77b4"/>
   </g>
   <g id="patch_71">
    <path d="M 170.90644 273.312 
L 172.518462 273.312 
L 172.518462 80.524308 
L 170.90644 80.524308 
z
" clip-path="url(#p0753e8804a)" style="fill: #1f77b4"/>
   </g>
   <g id="patch_72">
    <path d="M 172.518462 273.312 
L 174.130484 273.312 
L 174.130484 80.524308 
L 172.518462 80.524308 
z
" clip-path="url(#p0753e8804a)" style="fill: #1f77b4"/>
   </g>
   <g id="patch_73">
    <path d="M 174.130484 273.312 
L 175.742505 273.312 
L 175.742505 81.246359 
L 174.130484 81.246359 
z
" clip-path="url(#p0753e8804a)" style="fill: #1f77b4"/>
   </g>
   <g id="patch_74">
    <path d="M 175.742505 273.312 
L 177.354527 273.312 
L 177.354527 71.859692 
L 175.742505 71.859692 
z
" clip-path="url(#p0753e8804a)" style="fill: #1f77b4"/>
   </g>
   <g id="patch_75">
    <path d="M 177.354527 273.312 
L 178.966549 273.312 
L 178.966549 74.747897 
L 177.354527 74.747897 
z
" clip-path="url(#p0753e8804a)" style="fill: #1f77b4"/>
   </g>
   <g id="patch_76">
    <path d="M 178.966549 273.312 
L 180.578571 273.312 
L 180.578571 61.750974 
L 178.966549 61.750974 
z
" clip-path="url(#p0753e8804a)" style="fill: #1f77b4"/>
   </g>
   <g id="patch_77">
    <path d="M 180.578571 273.312 
L 182.190592 273.312 
L 182.190592 92.799179 
L 180.578571 92.799179 
z
" clip-path="url(#p0753e8804a)" style="fill: #1f77b4"/>
   </g>
   <g id="patch_78">
    <path d="M 182.190592 273.312 
L 183.802614 273.312 
L 183.802614 73.303795 
L 182.190592 73.303795 
z
" clip-path="url(#p0753e8804a)" style="fill: #1f77b4"/>
   </g>
   <g id="patch_79">
    <path d="M 183.802614 273.312 
L 185.414636 273.312 
L 185.414636 65.361231 
L 183.802614 65.361231 
z
" clip-path="url(#p0753e8804a)" style="fill: #1f77b4"/>
   </g>
   <g id="patch_80">
    <path d="M 185.414636 273.312 
L 187.026658 273.312 
L 187.026658 63.917128 
L 185.414636 63.917128 
z
" clip-path="url(#p0753e8804a)" style="fill: #1f77b4"/>
   </g>
   <g id="patch_81">
    <path d="M 187.026658 273.312 
L 188.63868 273.312 
L 188.63868 74.025846 
L 187.026658 74.025846 
z
" clip-path="url(#p0753e8804a)" style="fill: #1f77b4"/>
   </g>
   <g id="patch_82">
    <path d="M 188.63868 273.312 
L 190.250701 273.312 
L 190.250701 96.409436 
L 188.63868 96.409436 
z
" clip-path="url(#p0753e8804a)" style="fill: #1f77b4"/>
   </g>
   <g id="patch_83">
    <path d="M 190.250701 273.312 
L 191.862723 273.312 
L 191.862723 76.192 
L 190.250701 76.192 
z
" clip-path="url(#p0753e8804a)" style="fill: #1f77b4"/>
   </g>
   <g id="patch_84">
    <path d="M 191.862723 273.312 
L 193.474745 273.312 
L 193.474745 63.917128 
L 191.862723 63.917128 
z
" clip-path="url(#p0753e8804a)" style="fill: #1f77b4"/>
   </g>
   <g id="patch_85">
    <path d="M 193.474745 273.312 
L 195.086767 273.312 
L 195.086767 50.198154 
L 193.474745 50.198154 
z
" clip-path="url(#p0753e8804a)" style="fill: #1f77b4"/>
   </g>
   <g id="patch_86">
    <path d="M 195.086767 273.312 
L 196.698788 273.312 
L 196.698788 55.974564 
L 195.086767 55.974564 
z
" clip-path="url(#p0753e8804a)" style="fill: #1f77b4"/>
   </g>
   <g id="patch_87">
    <path d="M 196.698788 273.312 
L 198.31081 273.312 
L 198.31081 58.140718 
L 196.698788 58.140718 
z
" clip-path="url(#p0753e8804a)" style="fill: #1f77b4"/>
   </g>
   <g id="patch_88">
    <path d="M 198.31081 273.312 
L 199.922832 273.312 
L 199.922832 76.192 
L 198.31081 76.192 
z
" clip-path="url(#p0753e8804a)" style="fill: #1f77b4"/>
   </g>
   <g id="patch_89">
    <path d="M 199.922832 273.312 
L 201.534854 273.312 
L 201.534854 41.533538 
L 199.922832 41.533538 
z
" clip-path="url(#p0753e8804a)" style="fill: #1f77b4"/>
   </g>
   <g id="patch_90">
    <path d="M 201.534854 273.312 
L 203.146875 273.312 
L 203.146875 58.862769 
L 201.534854 58.862769 
z
" clip-path="url(#p0753e8804a)" style="fill: #1f77b4"/>
   </g>
   <g id="patch_91">
    <path d="M 203.146875 273.312 
L 204.758897 273.312 
L 204.758897 66.805333 
L 203.146875 66.805333 
z
" clip-path="url(#p0753e8804a)" style="fill: #1f77b4"/>
   </g>
   <g id="patch_92">
    <path d="M 204.758897 273.312 
L 206.370919 273.312 
L 206.370919 44.421744 
L 204.758897 44.421744 
z
" clip-path="url(#p0753e8804a)" style="fill: #1f77b4"/>
   </g>
   <g id="patch_93">
    <path d="M 206.370919 273.312 
L 207.982941 273.312 
L 207.982941 43.699692 
L 206.370919 43.699692 
z
" clip-path="url(#p0753e8804a)" style="fill: #1f77b4"/>
   </g>
   <g id="patch_94">
    <path d="M 207.982941 273.312 
L 209.594963 273.312 
L 209.594963 61.750974 
L 207.982941 61.750974 
z
" clip-path="url(#p0753e8804a)" style="fill: #1f77b4"/>
   </g>
   <g id="patch_95">
    <path d="M 209.594963 273.312 
L 211.206984 273.312 
L 211.206984 28.536615 
L 209.594963 28.536615 
z
" clip-path="url(#p0753e8804a)" style="fill: #1f77b4"/>
   </g>
   <g id="patch_96">
    <path d="M 211.206984 273.312 
L 212.819006 273.312 
L 212.819006 47.309949 
L 211.206984 47.309949 
z
" clip-path="url(#p0753e8804a)" style="fill: #1f77b4"/>
   </g>
   <g id="patch_97">
    <path d="M 212.819006 273.312 
L 214.431028 273.312 
L 214.431028 48.032 
L 212.819006 48.032 
z
" clip-path="url(#p0753e8804a)" style="fill: #1f77b4"/>
   </g>
   <g id="patch_98">
    <path d="M 214.431028 273.312 
L 216.04305 273.312 
L 216.04305 49.476103 
L 214.431028 49.476103 
z
" clip-path="url(#p0753e8804a)" style="fill: #1f77b4"/>
   </g>
   <g id="patch_99">
    <path d="M 216.04305 273.312 
L 217.655071 273.312 
L 217.655071 33.590974 
L 216.04305 33.590974 
z
" clip-path="url(#p0753e8804a)" style="fill: #1f77b4"/>
   </g>
   <g id="patch_100">
    <path d="M 217.655071 273.312 
L 219.267093 273.312 
L 219.267093 35.035077 
L 217.655071 35.035077 
z
" clip-path="url(#p0753e8804a)" style="fill: #1f77b4"/>
   </g>
   <g id="patch_101">
    <path d="M 219.267093 273.312 
L 220.879115 273.312 
L 220.879115 30.702769 
L 219.267093 30.702769 
z
" clip-path="url(#p0753e8804a)" style="fill: #1f77b4"/>
   </g>
   <g id="patch_102">
    <path d="M 220.879115 273.312 
L 222.491137 273.312 
L 222.491137 44.421744 
L 220.879115 44.421744 
z
" clip-path="url(#p0753e8804a)" style="fill: #1f77b4"/>
   </g>
   <g id="patch_103">
    <path d="M 222.491137 273.312 
L 224.103158 273.312 
L 224.103158 74.025846 
L 222.491137 74.025846 
z
" clip-path="url(#p0753e8804a)" style="fill: #1f77b4"/>
   </g>
   <g id="patch_104">
    <path d="M 224.103158 273.312 
L 225.71518 273.312 
L 225.71518 19.872 
L 224.103158 19.872 
z
" clip-path="url(#p0753e8804a)" style="fill: #1f77b4"/>
   </g>
   <g id="patch_105">
    <path d="M 225.71518 273.312 
L 227.327202 273.312 
L 227.327202 41.533538 
L 225.71518 41.533538 
z
" clip-path="url(#p0753e8804a)" style="fill: #1f77b4"/>
   </g>
   <g id="patch_106">
    <path d="M 227.327202 273.312 
L 228.939224 273.312 
L 228.939224 50.920205 
L 227.327202 50.920205 
z
" clip-path="url(#p0753e8804a)" style="fill: #1f77b4"/>
   </g>
   <g id="patch_107">
    <path d="M 228.939224 273.312 
L 230.551246 273.312 
L 230.551246 31.424821 
L 228.939224 31.424821 
z
" clip-path="url(#p0753e8804a)" style="fill: #1f77b4"/>
   </g>
   <g id="patch_108">
    <path d="M 230.551246 273.312 
L 232.163267 273.312 
L 232.163267 43.699692 
L 230.551246 43.699692 
z
" clip-path="url(#p0753e8804a)" style="fill: #1f77b4"/>
   </g>
   <g id="patch_109">
    <path d="M 232.163267 273.312 
L 233.775289 273.312 
L 233.775289 51.642256 
L 232.163267 51.642256 
z
" clip-path="url(#p0753e8804a)" style="fill: #1f77b4"/>
   </g>
   <g id="patch_110">
    <path d="M 233.775289 273.312 
L 235.387311 273.312 
L 235.387311 55.252513 
L 233.775289 55.252513 
z
" clip-path="url(#p0753e8804a)" style="fill: #1f77b4"/>
   </g>
   <g id="patch_111">
    <path d="M 235.387311 273.312 
L 236.999333 273.312 
L 236.999333 35.757128 
L 235.387311 35.757128 
z
" clip-path="url(#p0753e8804a)" style="fill: #1f77b4"/>
   </g>
   <g id="patch_112">
    <path d="M 236.999333 273.312 
L 238.611354 273.312 
L 238.611354 42.977641 
L 236.999333 42.977641 
z
" clip-path="url(#p0753e8804a)" style="fill: #1f77b4"/>
   </g>
   <g id="patch_113">
    <path d="M 238.611354 273.312 
L 240.223376 273.312 
L 240.223376 48.032 
L 238.611354 48.032 
z
" clip-path="url(#p0753e8804a)" style="fill: #1f77b4"/>
   </g>
   <g id="patch_114">
    <path d="M 240.223376 273.312 
L 241.835398 273.312 
L 241.835398 63.917128 
L 240.223376 63.917128 
z
" clip-path="url(#p0753e8804a)" style="fill: #1f77b4"/>
   </g>
   <g id="patch_115">
    <path d="M 241.835398 273.312 
L 243.44742 273.312 
L 243.44742 59.584821 
L 241.835398 59.584821 
z
" clip-path="url(#p0753e8804a)" style="fill: #1f77b4"/>
   </g>
   <g id="patch_116">
    <path d="M 243.44742 273.312 
L 245.059441 273.312 
L 245.059441 52.364308 
L 243.44742 52.364308 
z
" clip-path="url(#p0753e8804a)" style="fill: #1f77b4"/>
   </g>
   <g id="patch_117">
    <path d="M 245.059441 273.312 
L 246.671463 273.312 
L 246.671463 51.642256 
L 245.059441 51.642256 
z
" clip-path="url(#p0753e8804a)" style="fill: #1f77b4"/>
   </g>
   <g id="patch_118">
    <path d="M 246.671463 273.312 
L 248.283485 273.312 
L 248.283485 37.201231 
L 246.671463 37.201231 
z
" clip-path="url(#p0753e8804a)" style="fill: #1f77b4"/>
   </g>
   <g id="patch_119">
    <path d="M 248.283485 273.312 
L 249.895507 273.312 
L 249.895507 68.971487 
L 248.283485 68.971487 
z
" clip-path="url(#p0753e8804a)" style="fill: #1f77b4"/>
   </g>
   <g id="patch_120">
    <path d="M 249.895507 273.312 
L 251.507529 273.312 
L 251.507529 48.032 
L 249.895507 48.032 
z
" clip-path="url(#p0753e8804a)" style="fill: #1f77b4"/>
   </g>
   <g id="patch_121">
    <path d="M 251.507529 273.312 
L 253.11955 273.312 
L 253.11955 58.862769 
L 251.507529 58.862769 
z
" clip-path="url(#p0753e8804a)" style="fill: #1f77b4"/>
   </g>
   <g id="patch_122">
    <path d="M 253.11955 273.312 
L 254.731572 273.312 
L 254.731572 53.80841 
L 253.11955 53.80841 
z
" clip-path="url(#p0753e8804a)" style="fill: #1f77b4"/>
   </g>
   <g id="patch_123">
    <path d="M 254.731572 273.312 
L 256.343594 273.312 
L 256.343594 71.137641 
L 254.731572 71.137641 
z
" clip-path="url(#p0753e8804a)" style="fill: #1f77b4"/>
   </g>
   <g id="patch_124">
    <path d="M 256.343594 273.312 
L 257.955616 273.312 
L 257.955616 52.364308 
L 256.343594 52.364308 
z
" clip-path="url(#p0753e8804a)" style="fill: #1f77b4"/>
   </g>
   <g id="patch_125">
    <path d="M 257.955616 273.312 
L 259.567637 273.312 
L 259.567637 64.639179 
L 257.955616 64.639179 
z
" clip-path="url(#p0753e8804a)" style="fill: #1f77b4"/>
   </g>
   <g id="patch_126">
    <path d="M 259.567637 273.312 
L 261.179659 273.312 
L 261.179659 68.971487 
L 259.567637 68.971487 
z
" clip-path="url(#p0753e8804a)" style="fill: #1f77b4"/>
   </g>
   <g id="patch_127">
    <path d="M 261.179659 273.312 
L 262.791681 273.312 
L 262.791681 60.306872 
L 261.179659 60.306872 
z
" clip-path="url(#p0753e8804a)" style="fill: #1f77b4"/>
   </g>
   <g id="patch_128">
    <path d="M 262.791681 273.312 
L 264.403703 273.312 
L 264.403703 68.249436 
L 262.791681 68.249436 
z
" clip-path="url(#p0753e8804a)" style="fill: #1f77b4"/>
   </g>
   <g id="patch_129">
    <path d="M 264.403703 273.312 
L 266.015724 273.312 
L 266.015724 40.089436 
L 264.403703 40.089436 
z
" clip-path="url(#p0753e8804a)" style="fill: #1f77b4"/>
   </g>
   <g id="patch_130">
    <path d="M 266.015724 273.312 
L 267.627746 273.312 
L 267.627746 39.367385 
L 266.015724 39.367385 
z
" clip-path="url(#p0753e8804a)" style="fill: #1f77b4"/>
   </g>
   <g id="patch_131">
    <path d="M 267.627746 273.312 
L 269.239768 273.312 
L 269.239768 73.303795 
L 267.627746 73.303795 
z
" clip-path="url(#p0753e8804a)" style="fill: #1f77b4"/>
   </g>
   <g id="patch_132">
    <path d="M 269.239768 273.312 
L 270.85179 273.312 
L 270.85179 73.303795 
L 269.239768 73.303795 
z
" clip-path="url(#p0753e8804a)" style="fill: #1f77b4"/>
   </g>
   <g id="patch_133">
    <path d="M 270.85179 273.312 
L 272.463812 273.312 
L 272.463812 91.355077 
L 270.85179 91.355077 
z
" clip-path="url(#p0753e8804a)" style="fill: #1f77b4"/>
   </g>
   <g id="patch_134">
    <path d="M 272.463812 273.312 
L 274.075833 273.312 
L 274.075833 97.131487 
L 272.463812 97.131487 
z
" clip-path="url(#p0753e8804a)" style="fill: #1f77b4"/>
   </g>
   <g id="patch_135">
    <path d="M 274.075833 273.312 
L 275.687855 273.312 
L 275.687855 63.917128 
L 274.075833 63.917128 
z
" clip-path="url(#p0753e8804a)" style="fill: #1f77b4"/>
   </g>
   <g id="patch_136">
    <path d="M 275.687855 273.312 
L 277.299877 273.312 
L 277.299877 66.083282 
L 275.687855 66.083282 
z
" clip-path="url(#p0753e8804a)" style="fill: #1f77b4"/>
   </g>
   <g id="patch_137">
    <path d="M 277.299877 273.312 
L 278.911899 273.312 
L 278.911899 76.914051 
L 277.299877 76.914051 
z
" clip-path="url(#p0753e8804a)" style="fill: #1f77b4"/>
   </g>
   <g id="patch_138">
    <path d="M 278.911899 273.312 
L 280.52392 273.312 
L 280.52392 60.306872 
L 278.911899 60.306872 
z
" clip-path="url(#p0753e8804a)" style="fill: #1f77b4"/>
   </g>
   <g id="patch_139">
    <path d="M 280.52392 273.312 
L 282.135942 273.312 
L 282.135942 78.358154 
L 280.52392 78.358154 
z
" clip-path="url(#p0753e8804a)" style="fill: #1f77b4"/>
   </g>
   <g id="patch_140">
    <path d="M 282.135942 273.312 
L 283.747964 273.312 
L 283.747964 78.358154 
L 282.135942 78.358154 
z
" clip-path="url(#p0753e8804a)" style="fill: #1f77b4"/>
   </g>
   <g id="patch_141">
    <path d="M 283.747964 273.312 
L 285.359986 273.312 
L 285.359986 75.469949 
L 283.747964 75.469949 
z
" clip-path="url(#p0753e8804a)" style="fill: #1f77b4"/>
   </g>
   <g id="patch_142">
    <path d="M 285.359986 273.312 
L 286.972007 273.312 
L 286.972007 97.853538 
L 285.359986 97.853538 
z
" clip-path="url(#p0753e8804a)" style="fill: #1f77b4"/>
   </g>
   <g id="patch_143">
    <path d="M 286.972007 273.312 
L 288.584029 273.312 
L 288.584029 95.687385 
L 286.972007 95.687385 
z
" clip-path="url(#p0753e8804a)" style="fill: #1f77b4"/>
   </g>
   <g id="patch_144">
    <path d="M 288.584029 273.312 
L 290.196051 273.312 
L 290.196051 83.412513 
L 288.584029 83.412513 
z
" clip-path="url(#p0753e8804a)" style="fill: #1f77b4"/>
   </g>
   <g id="patch_145">
    <path d="M 290.196051 273.312 
L 291.808073 273.312 
L 291.808073 100.019692 
L 290.196051 100.019692 
z
" clip-path="url(#p0753e8804a)" style="fill: #1f77b4"/>
   </g>
   <g id="patch_146">
    <path d="M 291.808073 273.312 
L 293.420095 273.312 
L 293.420095 87.022769 
L 291.808073 87.022769 
z
" clip-path="url(#p0753e8804a)" style="fill: #1f77b4"/>
   </g>
   <g id="patch_147">
    <path d="M 293.420095 273.312 
L 295.032116 273.312 
L 295.032116 90.633026 
L 293.420095 90.633026 
z
" clip-path="url(#p0753e8804a)" style="fill: #1f77b4"/>
   </g>
   <g id="patch_148">
    <path d="M 295.032116 273.312 
L 296.644138 273.312 
L 296.644138 97.131487 
L 295.032116 97.131487 
z
" clip-path="url(#p0753e8804a)" style="fill: #1f77b4"/>
   </g>
   <g id="patch_149">
    <path d="M 296.644138 273.312 
L 298.25616 273.312 
L 298.25616 111.572513 
L 296.644138 111.572513 
z
" clip-path="url(#p0753e8804a)" style="fill: #1f77b4"/>
   </g>
   <g id="patch_150">
    <path d="M 298.25616 273.312 
L 299.868182 273.312 
L 299.868182 86.300718 
L 298.25616 86.300718 
z
" clip-path="url(#p0753e8804a)" style="fill: #1f77b4"/>
   </g>
   <g id="patch_151">
    <path d="M 299.868182 273.312 
L 301.480203 273.312 
L 301.480203 100.019692 
L 299.868182 100.019692 
z
" clip-path="url(#p0753e8804a)" style="fill: #1f77b4"/>
   </g>
   <g id="patch_152">
    <path d="M 301.480203 273.312 
L 303.092225 273.312 
L 303.092225 120.959179 
L 301.480203 120.959179 
z
" clip-path="url(#p0753e8804a)" style="fill: #1f77b4"/>
   </g>
   <g id="patch_153">
    <path d="M 303.092225 273.312 
L 304.704247 273.312 
L 304.704247 123.125333 
L 303.092225 123.125333 
z
" clip-path="url(#p0753e8804a)" style="fill: #1f77b4"/>
   </g>
   <g id="patch_154">
    <path d="M 304.704247 273.312 
L 306.316269 273.312 
L 306.316269 107.240205 
L 304.704247 107.240205 
z
" clip-path="url(#p0753e8804a)" style="fill: #1f77b4"/>
   </g>
   <g id="patch_155">
    <path d="M 306.316269 273.312 
L 307.92829 273.312 
L 307.92829 118.070974 
L 306.316269 118.070974 
z
" clip-path="url(#p0753e8804a)" style="fill: #1f77b4"/>
   </g>
   <g id="patch_156">
    <path d="M 307.92829 273.312 
L 309.540312 273.312 
L 309.540312 121.681231 
L 307.92829 121.681231 
z
" clip-path="url(#p0753e8804a)" style="fill: #1f77b4"/>
   </g>
   <g id="patch_157">
    <path d="M 309.540312 273.312 
L 311.152334 273.312 
L 311.152334 123.847385 
L 309.540312 123.847385 
z
" clip-path="url(#p0753e8804a)" style="fill: #1f77b4"/>
   </g>
   <g id="patch_158">
    <path d="M 311.152334 273.312 
L 312.764356 273.312 
L 312.764356 127.457641 
L 311.152334 127.457641 
z
" clip-path="url(#p0753e8804a)" style="fill: #1f77b4"/>
   </g>
   <g id="patch_159">
    <path d="M 312.764356 273.312 
L 314.376378 273.312 
L 314.376378 138.28841 
L 312.764356 138.28841 
z
" clip-path="url(#p0753e8804a)" style="fill: #1f77b4"/>
   </g>
   <g id="patch_160">
    <path d="M 314.376378 273.312 
L 315.988399 273.312 
L 315.988399 128.901744 
L 314.376378 128.901744 
z
" clip-path="url(#p0753e8804a)" style="fill: #1f77b4"/>
   </g>
   <g id="patch_161">
    <path d="M 315.988399 273.312 
L 317.600421 273.312 
L 317.600421 137.566359 
L 315.988399 137.566359 
z
" clip-path="url(#p0753e8804a)" style="fill: #1f77b4"/>
   </g>
   <g id="patch_162">
    <path d="M 317.600421 273.312 
L 319.212443 273.312 
L 319.212443 146.230974 
L 317.600421 146.230974 
z
" clip-path="url(#p0753e8804a)" style="fill: #1f77b4"/>
   </g>
   <g id="patch_163">
    <path d="M 319.212443 273.312 
L 320.824465 273.312 
L 320.824465 132.512 
L 319.212443 132.512 
z
" clip-path="url(#p0753e8804a)" style="fill: #1f77b4"/>
   </g>
   <g id="patch_164">
    <path d="M 320.824465 273.312 
L 322.436486 273.312 
L 322.436486 127.457641 
L 320.824465 127.457641 
z
" clip-path="url(#p0753e8804a)" style="fill: #1f77b4"/>
   </g>
   <g id="patch_165">
    <path d="M 322.436486 273.312 
L 324.048508 273.312 
L 324.048508 154.89559 
L 322.436486 154.89559 
z
" clip-path="url(#p0753e8804a)" style="fill: #1f77b4"/>
   </g>
   <g id="patch_166">
    <path d="M 324.048508 273.312 
L 325.66053 273.312 
L 325.66053 162.116103 
L 324.048508 162.116103 
z
" clip-path="url(#p0753e8804a)" style="fill: #1f77b4"/>
   </g>
   <g id="patch_167">
    <path d="M 325.66053 273.312 
L 327.272552 273.312 
L 327.272552 146.953026 
L 325.66053 146.953026 
z
" clip-path="url(#p0753e8804a)" style="fill: #1f77b4"/>
   </g>
   <g id="patch_168">
    <path d="M 327.272552 273.312 
L 328.884573 273.312 
L 328.884573 157.783795 
L 327.272552 157.783795 
z
" clip-path="url(#p0753e8804a)" style="fill: #1f77b4"/>
   </g>
   <g id="patch_169">
    <path d="M 328.884573 273.312 
L 330.496595 273.312 
L 330.496595 157.783795 
L 328.884573 157.783795 
z
" clip-path="url(#p0753e8804a)" style="fill: #1f77b4"/>
   </g>
   <g id="patch_170">
    <path d="M 330.496595 273.312 
L 332.108617 273.312 
L 332.108617 149.841231 
L 330.496595 149.841231 
z
" clip-path="url(#p0753e8804a)" style="fill: #1f77b4"/>
   </g>
   <g id="patch_171">
    <path d="M 332.108617 273.312 
L 333.720639 273.312 
L 333.720639 141.898667 
L 332.108617 141.898667 
z
" clip-path="url(#p0753e8804a)" style="fill: #1f77b4"/>
   </g>
   <g id="patch_172">
    <path d="M 333.720639 273.312 
L 335.332661 273.312 
L 335.332661 175.113026 
L 333.720639 175.113026 
z
" clip-path="url(#p0753e8804a)" style="fill: #1f77b4"/>
   </g>
   <g id="patch_173">
    <path d="M 335.332661 273.312 
L 336.944682 273.312 
L 336.944682 185.221744 
L 335.332661 185.221744 
z
" clip-path="url(#p0753e8804a)" style="fill: #1f77b4"/>
   </g>
   <g id="patch_174">
    <path d="M 336.944682 273.312 
L 338.556704 273.312 
L 338.556704 188.832 
L 336.944682 188.832 
z
" clip-path="url(#p0753e8804a)" style="fill: #1f77b4"/>
   </g>
   <g id="patch_175">
    <path d="M 338.556704 273.312 
L 340.168726 273.312 
L 340.168726 185.943795 
L 338.556704 185.943795 
z
" clip-path="url(#p0753e8804a)" style="fill: #1f77b4"/>
   </g>
   <g id="patch_176">
    <path d="M 340.168726 273.312 
L 341.780748 273.312 
L 341.780748 184.499692 
L 340.168726 184.499692 
z
" clip-path="url(#p0753e8804a)" style="fill: #1f77b4"/>
   </g>
   <g id="patch_177">
    <path d="M 341.780748 273.312 
L 343.392769 273.312 
L 343.392769 173.668923 
L 341.780748 173.668923 
z
" clip-path="url(#p0753e8804a)" style="fill: #1f77b4"/>
   </g>
   <g id="patch_178">
    <path d="M 343.392769 273.312 
L 345.004791 273.312 
L 345.004791 193.164308 
L 343.392769 193.164308 
z
" clip-path="url(#p0753e8804a)" style="fill: #1f77b4"/>
   </g>
   <g id="patch_179">
    <path d="M 345.004791 273.312 
L 346.616813 273.312 
L 346.616813 195.330462 
L 345.004791 195.330462 
z
" clip-path="url(#p0753e8804a)" style="fill: #1f77b4"/>
   </g>
   <g id="patch_180">
    <path d="M 346.616813 273.312 
L 348.228835 273.312 
L 348.228835 198.218667 
L 346.616813 198.218667 
z
" clip-path="url(#p0753e8804a)" style="fill: #1f77b4"/>
   </g>
   <g id="patch_181">
    <path d="M 348.228835 273.312 
L 349.840856 273.312 
L 349.840856 196.052513 
L 348.228835 196.052513 
z
" clip-path="url(#p0753e8804a)" style="fill: #1f77b4"/>
   </g>
   <g id="patch_182">
    <path d="M 349.840856 273.312 
L 351.452878 273.312 
L 351.452878 209.049436 
L 349.840856 209.049436 
z
" clip-path="url(#p0753e8804a)" style="fill: #1f77b4"/>
   </g>
   <g id="patch_183">
    <path d="M 351.452878 273.312 
L 353.0649 273.312 
L 353.0649 201.106872 
L 351.452878 201.106872 
z
" clip-path="url(#p0753e8804a)" style="fill: #1f77b4"/>
   </g>
   <g id="patch_184">
    <path d="M 353.0649 273.312 
L 354.676922 273.312 
L 354.676922 214.103795 
L 353.0649 214.103795 
z
" clip-path="url(#p0753e8804a)" style="fill: #1f77b4"/>
   </g>
   <g id="patch_185">
    <path d="M 354.676922 273.312 
L 356.288944 273.312 
L 356.288944 209.771487 
L 354.676922 209.771487 
z
" clip-path="url(#p0753e8804a)" style="fill: #1f77b4"/>
   </g>
   <g id="patch_186">
    <path d="M 356.288944 273.312 
L 357.900965 273.312 
L 357.900965 219.158154 
L 356.288944 219.158154 
z
" clip-path="url(#p0753e8804a)" style="fill: #1f77b4"/>
   </g>
   <g id="patch_187">
    <path d="M 357.900965 273.312 
L 359.512987 273.312 
L 359.512987 216.269949 
L 357.900965 216.269949 
z
" clip-path="url(#p0753e8804a)" style="fill: #1f77b4"/>
   </g>
   <g id="patch_188">
    <path d="M 359.512987 273.312 
L 361.125009 273.312 
L 361.125009 211.21559 
L 359.512987 211.21559 
z
" clip-path="url(#p0753e8804a)" style="fill: #1f77b4"/>
   </g>
   <g id="patch_189">
    <path d="M 361.125009 273.312 
L 362.737031 273.312 
L 362.737031 227.822769 
L 361.125009 227.822769 
z
" clip-path="url(#p0753e8804a)" style="fill: #1f77b4"/>
   </g>
   <g id="patch_190">
    <path d="M 362.737031 273.312 
L 364.349052 273.312 
L 364.349052 232.155077 
L 362.737031 232.155077 
z
" clip-path="url(#p0753e8804a)" style="fill: #1f77b4"/>
   </g>
   <g id="patch_191">
    <path d="M 364.349052 273.312 
L 365.961074 273.312 
L 365.961074 233.599179 
L 364.349052 233.599179 
z
" clip-path="url(#p0753e8804a)" style="fill: #1f77b4"/>
   </g>
   <g id="patch_192">
    <path d="M 365.961074 273.312 
L 367.573096 273.312 
L 367.573096 229.988923 
L 365.961074 229.988923 
z
" clip-path="url(#p0753e8804a)" style="fill: #1f77b4"/>
   </g>
   <g id="patch_193">
    <path d="M 367.573096 273.312 
L 369.185118 273.312 
L 369.185118 224.934564 
L 367.573096 224.934564 
z
" clip-path="url(#p0753e8804a)" style="fill: #1f77b4"/>
   </g>
   <g id="patch_194">
    <path d="M 369.185118 273.312 
L 370.797139 273.312 
L 370.797139 242.985846 
L 369.185118 242.985846 
z
" clip-path="url(#p0753e8804a)" style="fill: #1f77b4"/>
   </g>
   <g id="patch_195">
    <path d="M 370.797139 273.312 
L 372.409161 273.312 
L 372.409161 239.37559 
L 370.797139 239.37559 
z
" clip-path="url(#p0753e8804a)" style="fill: #1f77b4"/>
   </g>
   <g id="patch_196">
    <path d="M 372.409161 273.312 
L 374.021183 273.312 
L 374.021183 248.040205 
L 372.409161 248.040205 
z
" clip-path="url(#p0753e8804a)" style="fill: #1f77b4"/>
   </g>
   <g id="patch_197">
    <path d="M 374.021183 273.312 
L 375.633205 273.312 
L 375.633205 248.762256 
L 374.021183 248.762256 
z
" clip-path="url(#p0753e8804a)" style="fill: #1f77b4"/>
   </g>
   <g id="patch_198">
    <path d="M 375.633205 273.312 
L 377.245227 273.312 
L 377.245227 254.538667 
L 375.633205 254.538667 
z
" clip-path="url(#p0753e8804a)" style="fill: #1f77b4"/>
   </g>
   <g id="patch_199">
    <path d="M 377.245227 273.312 
L 378.857248 273.312 
L 378.857248 257.426872 
L 377.245227 257.426872 
z
" clip-path="url(#p0753e8804a)" style="fill: #1f77b4"/>
   </g>
   <g id="patch_200">
    <path d="M 378.857248 273.312 
L 380.46927 273.312 
L 380.46927 261.037128 
L 378.857248 261.037128 
z
" clip-path="url(#p0753e8804a)" style="fill: #1f77b4"/>
   </g>
   <g id="patch_201">
    <path d="M 380.46927 273.312 
L 382.081292 273.312 
L 382.081292 261.759179 
L 380.46927 261.759179 
z
" clip-path="url(#p0753e8804a)" style="fill: #1f77b4"/>
   </g>
   <g id="patch_202">
    <path d="M 382.081292 273.312 
L 383.693314 273.312 
L 383.693314 265.369436 
L 382.081292 265.369436 
z
" clip-path="url(#p0753e8804a)" style="fill: #1f77b4"/>
   </g>
   <g id="matplotlib.axis_1">
    <g id="xtick_1">
     <g id="line2d_1">
      <defs>
       <path id="m59c81c9f13" d="M 0 0 
L 0 3.5 
" style="stroke: #000000; stroke-width: 0.8"/>
      </defs>
      <g>
       <use xlink:href="#m59c81c9f13" x="60.013977" y="273.312" style="stroke: #000000; stroke-width: 0.8"/>
      </g>
     </g>
     <g id="text_1">
      <!-- 0.0 -->
      <g transform="translate(52.062415 287.910437)scale(0.1 -0.1)">
       <defs>
        <path id="DejaVuSans-30" d="M 2034 4250 
Q 1547 4250 1301 3770 
Q 1056 3291 1056 2328 
Q 1056 1369 1301 889 
Q 1547 409 2034 409 
Q 2525 409 2770 889 
Q 3016 1369 3016 2328 
Q 3016 3291 2770 3770 
Q 2525 4250 2034 4250 
z
M 2034 4750 
Q 2819 4750 3233 4129 
Q 3647 3509 3647 2328 
Q 3647 1150 3233 529 
Q 2819 -91 2034 -91 
Q 1250 -91 836 529 
Q 422 1150 422 2328 
Q 422 3509 836 4129 
Q 1250 4750 2034 4750 
z
" transform="scale(0.015625)"/>
        <path id="DejaVuSans-2e" d="M 684 794 
L 1344 794 
L 1344 0 
L 684 0 
L 684 794 
z
" transform="scale(0.015625)"/>
       </defs>
       <use xlink:href="#DejaVuSans-30"/>
       <use xlink:href="#DejaVuSans-2e" x="63.623047"/>
       <use xlink:href="#DejaVuSans-30" x="95.410156"/>
      </g>
     </g>
    </g>
    <g id="xtick_2">
     <g id="line2d_2">
      <g>
       <use xlink:href="#m59c81c9f13" x="101.350278" y="273.312" style="stroke: #000000; stroke-width: 0.8"/>
      </g>
     </g>
     <g id="text_2">
      <!-- 0.2 -->
      <g transform="translate(93.398715 287.910437)scale(0.1 -0.1)">
       <defs>
        <path id="DejaVuSans-32" d="M 1228 531 
L 3431 531 
L 3431 0 
L 469 0 
L 469 531 
Q 828 903 1448 1529 
Q 2069 2156 2228 2338 
Q 2531 2678 2651 2914 
Q 2772 3150 2772 3378 
Q 2772 3750 2511 3984 
Q 2250 4219 1831 4219 
Q 1534 4219 1204 4116 
Q 875 4013 500 3803 
L 500 4441 
Q 881 4594 1212 4672 
Q 1544 4750 1819 4750 
Q 2544 4750 2975 4387 
Q 3406 4025 3406 3419 
Q 3406 3131 3298 2873 
Q 3191 2616 2906 2266 
Q 2828 2175 2409 1742 
Q 1991 1309 1228 531 
z
" transform="scale(0.015625)"/>
       </defs>
       <use xlink:href="#DejaVuSans-30"/>
       <use xlink:href="#DejaVuSans-2e" x="63.623047"/>
       <use xlink:href="#DejaVuSans-32" x="95.410156"/>
      </g>
     </g>
    </g>
    <g id="xtick_3">
     <g id="line2d_3">
      <g>
       <use xlink:href="#m59c81c9f13" x="142.686578" y="273.312" style="stroke: #000000; stroke-width: 0.8"/>
      </g>
     </g>
     <g id="text_3">
      <!-- 0.4 -->
      <g transform="translate(134.735016 287.910437)scale(0.1 -0.1)">
       <defs>
        <path id="DejaVuSans-34" d="M 2419 4116 
L 825 1625 
L 2419 1625 
L 2419 4116 
z
M 2253 4666 
L 3047 4666 
L 3047 1625 
L 3713 1625 
L 3713 1100 
L 3047 1100 
L 3047 0 
L 2419 0 
L 2419 1100 
L 313 1100 
L 313 1709 
L 2253 4666 
z
" transform="scale(0.015625)"/>
       </defs>
       <use xlink:href="#DejaVuSans-30"/>
       <use xlink:href="#DejaVuSans-2e" x="63.623047"/>
       <use xlink:href="#DejaVuSans-34" x="95.410156"/>
      </g>
     </g>
    </g>
    <g id="xtick_4">
     <g id="line2d_4">
      <g>
       <use xlink:href="#m59c81c9f13" x="184.022879" y="273.312" style="stroke: #000000; stroke-width: 0.8"/>
      </g>
     </g>
     <g id="text_4">
      <!-- 0.6 -->
      <g transform="translate(176.071316 287.910437)scale(0.1 -0.1)">
       <defs>
        <path id="DejaVuSans-36" d="M 2113 2584 
Q 1688 2584 1439 2293 
Q 1191 2003 1191 1497 
Q 1191 994 1439 701 
Q 1688 409 2113 409 
Q 2538 409 2786 701 
Q 3034 994 3034 1497 
Q 3034 2003 2786 2293 
Q 2538 2584 2113 2584 
z
M 3366 4563 
L 3366 3988 
Q 3128 4100 2886 4159 
Q 2644 4219 2406 4219 
Q 1781 4219 1451 3797 
Q 1122 3375 1075 2522 
Q 1259 2794 1537 2939 
Q 1816 3084 2150 3084 
Q 2853 3084 3261 2657 
Q 3669 2231 3669 1497 
Q 3669 778 3244 343 
Q 2819 -91 2113 -91 
Q 1303 -91 875 529 
Q 447 1150 447 2328 
Q 447 3434 972 4092 
Q 1497 4750 2381 4750 
Q 2619 4750 2861 4703 
Q 3103 4656 3366 4563 
z
" transform="scale(0.015625)"/>
       </defs>
       <use xlink:href="#DejaVuSans-30"/>
       <use xlink:href="#DejaVuSans-2e" x="63.623047"/>
       <use xlink:href="#DejaVuSans-36" x="95.410156"/>
      </g>
     </g>
    </g>
    <g id="xtick_5">
     <g id="line2d_5">
      <g>
       <use xlink:href="#m59c81c9f13" x="225.35918" y="273.312" style="stroke: #000000; stroke-width: 0.8"/>
      </g>
     </g>
     <g id="text_5">
      <!-- 0.8 -->
      <g transform="translate(217.407617 287.910437)scale(0.1 -0.1)">
       <defs>
        <path id="DejaVuSans-38" d="M 2034 2216 
Q 1584 2216 1326 1975 
Q 1069 1734 1069 1313 
Q 1069 891 1326 650 
Q 1584 409 2034 409 
Q 2484 409 2743 651 
Q 3003 894 3003 1313 
Q 3003 1734 2745 1975 
Q 2488 2216 2034 2216 
z
M 1403 2484 
Q 997 2584 770 2862 
Q 544 3141 544 3541 
Q 544 4100 942 4425 
Q 1341 4750 2034 4750 
Q 2731 4750 3128 4425 
Q 3525 4100 3525 3541 
Q 3525 3141 3298 2862 
Q 3072 2584 2669 2484 
Q 3125 2378 3379 2068 
Q 3634 1759 3634 1313 
Q 3634 634 3220 271 
Q 2806 -91 2034 -91 
Q 1263 -91 848 271 
Q 434 634 434 1313 
Q 434 1759 690 2068 
Q 947 2378 1403 2484 
z
M 1172 3481 
Q 1172 3119 1398 2916 
Q 1625 2713 2034 2713 
Q 2441 2713 2670 2916 
Q 2900 3119 2900 3481 
Q 2900 3844 2670 4047 
Q 2441 4250 2034 4250 
Q 1625 4250 1398 4047 
Q 1172 3844 1172 3481 
z
" transform="scale(0.015625)"/>
       </defs>
       <use xlink:href="#DejaVuSans-30"/>
       <use xlink:href="#DejaVuSans-2e" x="63.623047"/>
       <use xlink:href="#DejaVuSans-38" x="95.410156"/>
      </g>
     </g>
    </g>
    <g id="xtick_6">
     <g id="line2d_6">
      <g>
       <use xlink:href="#m59c81c9f13" x="266.69548" y="273.312" style="stroke: #000000; stroke-width: 0.8"/>
      </g>
     </g>
     <g id="text_6">
      <!-- 1.0 -->
      <g transform="translate(258.743918 287.910437)scale(0.1 -0.1)">
       <defs>
        <path id="DejaVuSans-31" d="M 794 531 
L 1825 531 
L 1825 4091 
L 703 3866 
L 703 4441 
L 1819 4666 
L 2450 4666 
L 2450 531 
L 3481 531 
L 3481 0 
L 794 0 
L 794 531 
z
" transform="scale(0.015625)"/>
       </defs>
       <use xlink:href="#DejaVuSans-31"/>
       <use xlink:href="#DejaVuSans-2e" x="63.623047"/>
       <use xlink:href="#DejaVuSans-30" x="95.410156"/>
      </g>
     </g>
    </g>
    <g id="xtick_7">
     <g id="line2d_7">
      <g>
       <use xlink:href="#m59c81c9f13" x="308.031781" y="273.312" style="stroke: #000000; stroke-width: 0.8"/>
      </g>
     </g>
     <g id="text_7">
      <!-- 1.2 -->
      <g transform="translate(300.080218 287.910437)scale(0.1 -0.1)">
       <use xlink:href="#DejaVuSans-31"/>
       <use xlink:href="#DejaVuSans-2e" x="63.623047"/>
       <use xlink:href="#DejaVuSans-32" x="95.410156"/>
      </g>
     </g>
    </g>
    <g id="xtick_8">
     <g id="line2d_8">
      <g>
       <use xlink:href="#m59c81c9f13" x="349.368081" y="273.312" style="stroke: #000000; stroke-width: 0.8"/>
      </g>
     </g>
     <g id="text_8">
      <!-- 1.4 -->
      <g transform="translate(341.416519 287.910437)scale(0.1 -0.1)">
       <use xlink:href="#DejaVuSans-31"/>
       <use xlink:href="#DejaVuSans-2e" x="63.623047"/>
       <use xlink:href="#DejaVuSans-34" x="95.410156"/>
      </g>
     </g>
    </g>
    <g id="xtick_9">
     <g id="line2d_9">
      <g>
       <use xlink:href="#m59c81c9f13" x="390.704382" y="273.312" style="stroke: #000000; stroke-width: 0.8"/>
      </g>
     </g>
     <g id="text_9">
      <!-- 1.6 -->
      <g transform="translate(382.752819 287.910437)scale(0.1 -0.1)">
       <use xlink:href="#DejaVuSans-31"/>
       <use xlink:href="#DejaVuSans-2e" x="63.623047"/>
       <use xlink:href="#DejaVuSans-36" x="95.410156"/>
      </g>
     </g>
    </g>
    <g id="text_10">
     <!-- Angle with normal (rad) -->
     <g transform="translate(163.023281 301.588562)scale(0.1 -0.1)">
      <defs>
       <path id="DejaVuSans-41" d="M 2188 4044 
L 1331 1722 
L 3047 1722 
L 2188 4044 
z
M 1831 4666 
L 2547 4666 
L 4325 0 
L 3669 0 
L 3244 1197 
L 1141 1197 
L 716 0 
L 50 0 
L 1831 4666 
z
" transform="scale(0.015625)"/>
       <path id="DejaVuSans-6e" d="M 3513 2113 
L 3513 0 
L 2938 0 
L 2938 2094 
Q 2938 2591 2744 2837 
Q 2550 3084 2163 3084 
Q 1697 3084 1428 2787 
Q 1159 2491 1159 1978 
L 1159 0 
L 581 0 
L 581 3500 
L 1159 3500 
L 1159 2956 
Q 1366 3272 1645 3428 
Q 1925 3584 2291 3584 
Q 2894 3584 3203 3211 
Q 3513 2838 3513 2113 
z
" transform="scale(0.015625)"/>
       <path id="DejaVuSans-67" d="M 2906 1791 
Q 2906 2416 2648 2759 
Q 2391 3103 1925 3103 
Q 1463 3103 1205 2759 
Q 947 2416 947 1791 
Q 947 1169 1205 825 
Q 1463 481 1925 481 
Q 2391 481 2648 825 
Q 2906 1169 2906 1791 
z
M 3481 434 
Q 3481 -459 3084 -895 
Q 2688 -1331 1869 -1331 
Q 1566 -1331 1297 -1286 
Q 1028 -1241 775 -1147 
L 775 -588 
Q 1028 -725 1275 -790 
Q 1522 -856 1778 -856 
Q 2344 -856 2625 -561 
Q 2906 -266 2906 331 
L 2906 616 
Q 2728 306 2450 153 
Q 2172 0 1784 0 
Q 1141 0 747 490 
Q 353 981 353 1791 
Q 353 2603 747 3093 
Q 1141 3584 1784 3584 
Q 2172 3584 2450 3431 
Q 2728 3278 2906 2969 
L 2906 3500 
L 3481 3500 
L 3481 434 
z
" transform="scale(0.015625)"/>
       <path id="DejaVuSans-6c" d="M 603 4863 
L 1178 4863 
L 1178 0 
L 603 0 
L 603 4863 
z
" transform="scale(0.015625)"/>
       <path id="DejaVuSans-65" d="M 3597 1894 
L 3597 1613 
L 953 1613 
Q 991 1019 1311 708 
Q 1631 397 2203 397 
Q 2534 397 2845 478 
Q 3156 559 3463 722 
L 3463 178 
Q 3153 47 2828 -22 
Q 2503 -91 2169 -91 
Q 1331 -91 842 396 
Q 353 884 353 1716 
Q 353 2575 817 3079 
Q 1281 3584 2069 3584 
Q 2775 3584 3186 3129 
Q 3597 2675 3597 1894 
z
M 3022 2063 
Q 3016 2534 2758 2815 
Q 2500 3097 2075 3097 
Q 1594 3097 1305 2825 
Q 1016 2553 972 2059 
L 3022 2063 
z
" transform="scale(0.015625)"/>
       <path id="DejaVuSans-20" transform="scale(0.015625)"/>
       <path id="DejaVuSans-77" d="M 269 3500 
L 844 3500 
L 1563 769 
L 2278 3500 
L 2956 3500 
L 3675 769 
L 4391 3500 
L 4966 3500 
L 4050 0 
L 3372 0 
L 2619 2869 
L 1863 0 
L 1184 0 
L 269 3500 
z
" transform="scale(0.015625)"/>
       <path id="DejaVuSans-69" d="M 603 3500 
L 1178 3500 
L 1178 0 
L 603 0 
L 603 3500 
z
M 603 4863 
L 1178 4863 
L 1178 4134 
L 603 4134 
L 603 4863 
z
" transform="scale(0.015625)"/>
       <path id="DejaVuSans-74" d="M 1172 4494 
L 1172 3500 
L 2356 3500 
L 2356 3053 
L 1172 3053 
L 1172 1153 
Q 1172 725 1289 603 
Q 1406 481 1766 481 
L 2356 481 
L 2356 0 
L 1766 0 
Q 1100 0 847 248 
Q 594 497 594 1153 
L 594 3053 
L 172 3053 
L 172 3500 
L 594 3500 
L 594 4494 
L 1172 4494 
z
" transform="scale(0.015625)"/>
       <path id="DejaVuSans-68" d="M 3513 2113 
L 3513 0 
L 2938 0 
L 2938 2094 
Q 2938 2591 2744 2837 
Q 2550 3084 2163 3084 
Q 1697 3084 1428 2787 
Q 1159 2491 1159 1978 
L 1159 0 
L 581 0 
L 581 4863 
L 1159 4863 
L 1159 2956 
Q 1366 3272 1645 3428 
Q 1925 3584 2291 3584 
Q 2894 3584 3203 3211 
Q 3513 2838 3513 2113 
z
" transform="scale(0.015625)"/>
       <path id="DejaVuSans-6f" d="M 1959 3097 
Q 1497 3097 1228 2736 
Q 959 2375 959 1747 
Q 959 1119 1226 758 
Q 1494 397 1959 397 
Q 2419 397 2687 759 
Q 2956 1122 2956 1747 
Q 2956 2369 2687 2733 
Q 2419 3097 1959 3097 
z
M 1959 3584 
Q 2709 3584 3137 3096 
Q 3566 2609 3566 1747 
Q 3566 888 3137 398 
Q 2709 -91 1959 -91 
Q 1206 -91 779 398 
Q 353 888 353 1747 
Q 353 2609 779 3096 
Q 1206 3584 1959 3584 
z
" transform="scale(0.015625)"/>
       <path id="DejaVuSans-72" d="M 2631 2963 
Q 2534 3019 2420 3045 
Q 2306 3072 2169 3072 
Q 1681 3072 1420 2755 
Q 1159 2438 1159 1844 
L 1159 0 
L 581 0 
L 581 3500 
L 1159 3500 
L 1159 2956 
Q 1341 3275 1631 3429 
Q 1922 3584 2338 3584 
Q 2397 3584 2469 3576 
Q 2541 3569 2628 3553 
L 2631 2963 
z
" transform="scale(0.015625)"/>
       <path id="DejaVuSans-6d" d="M 3328 2828 
Q 3544 3216 3844 3400 
Q 4144 3584 4550 3584 
Q 5097 3584 5394 3201 
Q 5691 2819 5691 2113 
L 5691 0 
L 5113 0 
L 5113 2094 
Q 5113 2597 4934 2840 
Q 4756 3084 4391 3084 
Q 3944 3084 3684 2787 
Q 3425 2491 3425 1978 
L 3425 0 
L 2847 0 
L 2847 2094 
Q 2847 2600 2669 2842 
Q 2491 3084 2119 3084 
Q 1678 3084 1418 2786 
Q 1159 2488 1159 1978 
L 1159 0 
L 581 0 
L 581 3500 
L 1159 3500 
L 1159 2956 
Q 1356 3278 1631 3431 
Q 1906 3584 2284 3584 
Q 2666 3584 2933 3390 
Q 3200 3197 3328 2828 
z
" transform="scale(0.015625)"/>
       <path id="DejaVuSans-61" d="M 2194 1759 
Q 1497 1759 1228 1600 
Q 959 1441 959 1056 
Q 959 750 1161 570 
Q 1363 391 1709 391 
Q 2188 391 2477 730 
Q 2766 1069 2766 1631 
L 2766 1759 
L 2194 1759 
z
M 3341 1997 
L 3341 0 
L 2766 0 
L 2766 531 
Q 2569 213 2275 61 
Q 1981 -91 1556 -91 
Q 1019 -91 701 211 
Q 384 513 384 1019 
Q 384 1609 779 1909 
Q 1175 2209 1959 2209 
L 2766 2209 
L 2766 2266 
Q 2766 2663 2505 2880 
Q 2244 3097 1772 3097 
Q 1472 3097 1187 3025 
Q 903 2953 641 2809 
L 641 3341 
Q 956 3463 1253 3523 
Q 1550 3584 1831 3584 
Q 2591 3584 2966 3190 
Q 3341 2797 3341 1997 
z
" transform="scale(0.015625)"/>
       <path id="DejaVuSans-28" d="M 1984 4856 
Q 1566 4138 1362 3434 
Q 1159 2731 1159 2009 
Q 1159 1288 1364 580 
Q 1569 -128 1984 -844 
L 1484 -844 
Q 1016 -109 783 600 
Q 550 1309 550 2009 
Q 550 2706 781 3412 
Q 1013 4119 1484 4856 
L 1984 4856 
z
" transform="scale(0.015625)"/>
       <path id="DejaVuSans-64" d="M 2906 2969 
L 2906 4863 
L 3481 4863 
L 3481 0 
L 2906 0 
L 2906 525 
Q 2725 213 2448 61 
Q 2172 -91 1784 -91 
Q 1150 -91 751 415 
Q 353 922 353 1747 
Q 353 2572 751 3078 
Q 1150 3584 1784 3584 
Q 2172 3584 2448 3432 
Q 2725 3281 2906 2969 
z
M 947 1747 
Q 947 1113 1208 752 
Q 1469 391 1925 391 
Q 2381 391 2643 752 
Q 2906 1113 2906 1747 
Q 2906 2381 2643 2742 
Q 2381 3103 1925 3103 
Q 1469 3103 1208 2742 
Q 947 2381 947 1747 
z
" transform="scale(0.015625)"/>
       <path id="DejaVuSans-29" d="M 513 4856 
L 1013 4856 
Q 1481 4119 1714 3412 
Q 1947 2706 1947 2009 
Q 1947 1309 1714 600 
Q 1481 -109 1013 -844 
L 513 -844 
Q 928 -128 1133 580 
Q 1338 1288 1338 2009 
Q 1338 2731 1133 3434 
Q 928 4138 513 4856 
z
" transform="scale(0.015625)"/>
      </defs>
      <use xlink:href="#DejaVuSans-41"/>
      <use xlink:href="#DejaVuSans-6e" x="68.408203"/>
      <use xlink:href="#DejaVuSans-67" x="131.787109"/>
      <use xlink:href="#DejaVuSans-6c" x="195.263672"/>
      <use xlink:href="#DejaVuSans-65" x="223.046875"/>
      <use xlink:href="#DejaVuSans-20" x="284.570312"/>
      <use xlink:href="#DejaVuSans-77" x="316.357422"/>
      <use xlink:href="#DejaVuSans-69" x="398.144531"/>
      <use xlink:href="#DejaVuSans-74" x="425.927734"/>
      <use xlink:href="#DejaVuSans-68" x="465.136719"/>
      <use xlink:href="#DejaVuSans-20" x="528.515625"/>
      <use xlink:href="#DejaVuSans-6e" x="560.302734"/>
      <use xlink:href="#DejaVuSans-6f" x="623.681641"/>
      <use xlink:href="#DejaVuSans-72" x="684.863281"/>
      <use xlink:href="#DejaVuSans-6d" x="724.226562"/>
      <use xlink:href="#DejaVuSans-61" x="821.638672"/>
      <use xlink:href="#DejaVuSans-6c" x="882.917969"/>
      <use xlink:href="#DejaVuSans-20" x="910.701172"/>
      <use xlink:href="#DejaVuSans-28" x="942.488281"/>
      <use xlink:href="#DejaVuSans-72" x="981.501953"/>
      <use xlink:href="#DejaVuSans-61" x="1022.615234"/>
      <use xlink:href="#DejaVuSans-64" x="1083.894531"/>
      <use xlink:href="#DejaVuSans-29" x="1147.371094"/>
     </g>
    </g>
   </g>
   <g id="matplotlib.axis_2">
    <g id="ytick_1">
     <g id="line2d_10">
      <defs>
       <path id="m294f7836bb" d="M 0 0 
L -3.5 0 
" style="stroke: #000000; stroke-width: 0.8"/>
      </defs>
      <g>
       <use xlink:href="#m294f7836bb" x="43.78125" y="273.312" style="stroke: #000000; stroke-width: 0.8"/>
      </g>
     </g>
     <g id="text_11">
      <!-- 0.0 -->
      <g transform="translate(20.878125 277.111219)scale(0.1 -0.1)">
       <use xlink:href="#DejaVuSans-30"/>
       <use xlink:href="#DejaVuSans-2e" x="63.623047"/>
       <use xlink:href="#DejaVuSans-30" x="95.410156"/>
      </g>
     </g>
    </g>
    <g id="ytick_2">
     <g id="line2d_11">
      <g>
       <use xlink:href="#m294f7836bb" x="43.78125" y="228.258626" style="stroke: #000000; stroke-width: 0.8"/>
      </g>
     </g>
     <g id="text_12">
      <!-- 0.2 -->
      <g transform="translate(20.878125 232.057845)scale(0.1 -0.1)">
       <use xlink:href="#DejaVuSans-30"/>
       <use xlink:href="#DejaVuSans-2e" x="63.623047"/>
       <use xlink:href="#DejaVuSans-32" x="95.410156"/>
      </g>
     </g>
    </g>
    <g id="ytick_3">
     <g id="line2d_12">
      <g>
       <use xlink:href="#m294f7836bb" x="43.78125" y="183.205252" style="stroke: #000000; stroke-width: 0.8"/>
      </g>
     </g>
     <g id="text_13">
      <!-- 0.4 -->
      <g transform="translate(20.878125 187.00447)scale(0.1 -0.1)">
       <use xlink:href="#DejaVuSans-30"/>
       <use xlink:href="#DejaVuSans-2e" x="63.623047"/>
       <use xlink:href="#DejaVuSans-34" x="95.410156"/>
      </g>
     </g>
    </g>
    <g id="ytick_4">
     <g id="line2d_13">
      <g>
       <use xlink:href="#m294f7836bb" x="43.78125" y="138.151877" style="stroke: #000000; stroke-width: 0.8"/>
      </g>
     </g>
     <g id="text_14">
      <!-- 0.6 -->
      <g transform="translate(20.878125 141.951096)scale(0.1 -0.1)">
       <use xlink:href="#DejaVuSans-30"/>
       <use xlink:href="#DejaVuSans-2e" x="63.623047"/>
       <use xlink:href="#DejaVuSans-36" x="95.410156"/>
      </g>
     </g>
    </g>
    <g id="ytick_5">
     <g id="line2d_14">
      <g>
       <use xlink:href="#m294f7836bb" x="43.78125" y="93.098503" style="stroke: #000000; stroke-width: 0.8"/>
      </g>
     </g>
     <g id="text_15">
      <!-- 0.8 -->
      <g transform="translate(20.878125 96.897722)scale(0.1 -0.1)">
       <use xlink:href="#DejaVuSans-30"/>
       <use xlink:href="#DejaVuSans-2e" x="63.623047"/>
       <use xlink:href="#DejaVuSans-38" x="95.410156"/>
      </g>
     </g>
    </g>
    <g id="ytick_6">
     <g id="line2d_15">
      <g>
       <use xlink:href="#m294f7836bb" x="43.78125" y="48.045129" style="stroke: #000000; stroke-width: 0.8"/>
      </g>
     </g>
     <g id="text_16">
      <!-- 1.0 -->
      <g transform="translate(20.878125 51.844348)scale(0.1 -0.1)">
       <use xlink:href="#DejaVuSans-31"/>
       <use xlink:href="#DejaVuSans-2e" x="63.623047"/>
       <use xlink:href="#DejaVuSans-30" x="95.410156"/>
      </g>
     </g>
    </g>
    <g id="text_17">
     <!-- Probability density -->
     <g transform="translate(14.798438 186.606781)rotate(-90)scale(0.1 -0.1)">
      <defs>
       <path id="DejaVuSans-50" d="M 1259 4147 
L 1259 2394 
L 2053 2394 
Q 2494 2394 2734 2622 
Q 2975 2850 2975 3272 
Q 2975 3691 2734 3919 
Q 2494 4147 2053 4147 
L 1259 4147 
z
M 628 4666 
L 2053 4666 
Q 2838 4666 3239 4311 
Q 3641 3956 3641 3272 
Q 3641 2581 3239 2228 
Q 2838 1875 2053 1875 
L 1259 1875 
L 1259 0 
L 628 0 
L 628 4666 
z
" transform="scale(0.015625)"/>
       <path id="DejaVuSans-62" d="M 3116 1747 
Q 3116 2381 2855 2742 
Q 2594 3103 2138 3103 
Q 1681 3103 1420 2742 
Q 1159 2381 1159 1747 
Q 1159 1113 1420 752 
Q 1681 391 2138 391 
Q 2594 391 2855 752 
Q 3116 1113 3116 1747 
z
M 1159 2969 
Q 1341 3281 1617 3432 
Q 1894 3584 2278 3584 
Q 2916 3584 3314 3078 
Q 3713 2572 3713 1747 
Q 3713 922 3314 415 
Q 2916 -91 2278 -91 
Q 1894 -91 1617 61 
Q 1341 213 1159 525 
L 1159 0 
L 581 0 
L 581 4863 
L 1159 4863 
L 1159 2969 
z
" transform="scale(0.015625)"/>
       <path id="DejaVuSans-79" d="M 2059 -325 
Q 1816 -950 1584 -1140 
Q 1353 -1331 966 -1331 
L 506 -1331 
L 506 -850 
L 844 -850 
Q 1081 -850 1212 -737 
Q 1344 -625 1503 -206 
L 1606 56 
L 191 3500 
L 800 3500 
L 1894 763 
L 2988 3500 
L 3597 3500 
L 2059 -325 
z
" transform="scale(0.015625)"/>
       <path id="DejaVuSans-73" d="M 2834 3397 
L 2834 2853 
Q 2591 2978 2328 3040 
Q 2066 3103 1784 3103 
Q 1356 3103 1142 2972 
Q 928 2841 928 2578 
Q 928 2378 1081 2264 
Q 1234 2150 1697 2047 
L 1894 2003 
Q 2506 1872 2764 1633 
Q 3022 1394 3022 966 
Q 3022 478 2636 193 
Q 2250 -91 1575 -91 
Q 1294 -91 989 -36 
Q 684 19 347 128 
L 347 722 
Q 666 556 975 473 
Q 1284 391 1588 391 
Q 1994 391 2212 530 
Q 2431 669 2431 922 
Q 2431 1156 2273 1281 
Q 2116 1406 1581 1522 
L 1381 1569 
Q 847 1681 609 1914 
Q 372 2147 372 2553 
Q 372 3047 722 3315 
Q 1072 3584 1716 3584 
Q 2034 3584 2315 3537 
Q 2597 3491 2834 3397 
z
" transform="scale(0.015625)"/>
      </defs>
      <use xlink:href="#DejaVuSans-50"/>
      <use xlink:href="#DejaVuSans-72" x="58.552734"/>
      <use xlink:href="#DejaVuSans-6f" x="97.416016"/>
      <use xlink:href="#DejaVuSans-62" x="158.597656"/>
      <use xlink:href="#DejaVuSans-61" x="222.074219"/>
      <use xlink:href="#DejaVuSans-62" x="283.353516"/>
      <use xlink:href="#DejaVuSans-69" x="346.830078"/>
      <use xlink:href="#DejaVuSans-6c" x="374.613281"/>
      <use xlink:href="#DejaVuSans-69" x="402.396484"/>
      <use xlink:href="#DejaVuSans-74" x="430.179688"/>
      <use xlink:href="#DejaVuSans-79" x="469.388672"/>
      <use xlink:href="#DejaVuSans-20" x="528.568359"/>
      <use xlink:href="#DejaVuSans-64" x="560.355469"/>
      <use xlink:href="#DejaVuSans-65" x="623.832031"/>
      <use xlink:href="#DejaVuSans-6e" x="685.355469"/>
      <use xlink:href="#DejaVuSans-73" x="748.734375"/>
      <use xlink:href="#DejaVuSans-69" x="800.833984"/>
      <use xlink:href="#DejaVuSans-74" x="828.617188"/>
      <use xlink:href="#DejaVuSans-79" x="867.826172"/>
     </g>
    </g>
   </g>
   <g id="line2d_16">
    <path d="M 60.013977 273.312 
L 79.837728 230.363825 
L 90.237073 208.365491 
L 99.01152 190.306701 
L 106.811029 174.752561 
L 113.960578 160.985452 
L 120.460169 148.934581 
L 126.63478 137.94111 
L 132.484411 127.971294 
L 138.009063 118.982322 
L 143.208736 110.924497 
L 148.408408 103.277699 
L 153.283101 96.499348 
L 158.157794 90.114351 
L 162.707507 84.522459 
L 167.257221 79.296441 
L 171.481954 74.780182 
L 175.706688 70.595683 
L 179.606442 67.033588 
L 183.506197 63.765213 
L 187.405951 60.795212 
L 190.980726 58.338443 
L 194.555501 56.13889 
L 198.130275 54.199182 
L 201.70505 52.521643 
L 205.279825 51.108277 
L 208.52962 50.054071 
L 211.779415 49.220635 
L 215.029211 48.608793 
L 218.279006 48.21915 
L 221.528801 48.052091 
L 224.778596 48.107782 
L 228.028392 48.386167 
L 231.278187 48.886972 
L 234.527982 49.6097 
L 237.777777 50.553638 
L 241.027573 51.717852 
L 244.277368 53.10119 
L 247.852143 54.874312 
L 251.426917 56.908794 
L 255.001692 59.202201 
L 258.576467 61.75179 
L 262.476221 64.82174 
L 266.375976 68.18856 
L 270.27573 71.847455 
L 274.500464 76.134804 
L 278.725198 80.751651 
L 282.949931 85.690279 
L 287.499645 91.359188 
L 292.049358 97.380721 
L 296.924051 104.210399 
L 301.798744 111.416276 
L 306.998416 119.499123 
L 312.523068 128.513247 
L 318.3727 138.508005 
L 324.547311 149.525832 
L 331.046901 161.60006 
L 337.871471 174.752561 
L 345.346 189.648552 
L 353.795468 207.010136 
L 363.544854 227.585652 
L 375.894076 254.208035 
L 384.668523 273.312 
L 384.668523 273.312 
" clip-path="url(#p0753e8804a)" style="fill: none; stroke: #ff7f0e; stroke-width: 1.5; stroke-linecap: square"/>
   </g>
   <g id="patch_203">
    <path d="M 43.78125 273.312 
L 43.78125 7.2 
" style="fill: none; stroke: #000000; stroke-width: 0.8; stroke-linejoin: miter; stroke-linecap: square"/>
   </g>
   <g id="patch_204">
    <path d="M 400.90125 273.312 
L 400.90125 7.2 
" style="fill: none; stroke: #000000; stroke-width: 0.8; stroke-linejoin: miter; stroke-linecap: square"/>
   </g>
   <g id="patch_205">
    <path d="M 43.78125 273.312 
L 400.90125 273.312 
" style="fill: none; stroke: #000000; stroke-width: 0.8; stroke-linejoin: miter; stroke-linecap: square"/>
   </g>
   <g id="patch_206">
    <path d="M 43.78125 7.2 
L 400.90125 7.2 
" style="fill: none; stroke: #000000; stroke-width: 0.8; stroke-linejoin: miter; stroke-linecap: square"/>
   </g>
  </g>
 </g>
 <defs>
  <clipPath id="p0753e8804a">
   <rect x="43.78125" y="7.2" width="357.12" height="266.112"/>
  </clipPath>
 </defs>
</svg>
