<?xml version="1.0" encoding="utf-8" standalone="no"?>
<!DOCTYPE svg PUBLIC "-//W3C//DTD SVG 1.1//EN"
  "http://www.w3.org/Graphics/SVG/1.1/DTD/svg11.dtd">
<svg xmlns:xlink="http://www.w3.org/1999/xlink" width="408.10125pt" height="310.86825pt" viewBox="0 0 408.10125 310.86825" xmlns="http://www.w3.org/2000/svg" version="1.1">
 <metadata>
  <rdf:RDF xmlns:dc="http://purl.org/dc/elements/1.1/" xmlns:cc="http://creativecommons.org/ns#" xmlns:rdf="http://www.w3.org/1999/02/22-rdf-syntax-ns#">
   <cc:Work>
    <dc:type rdf:resource="http://purl.org/dc/dcmitype/StillImage"/>
    <dc:date>2022-05-03T16:37:33.120802</dc:date>
    <dc:format>image/svg+xml</dc:format>
    <dc:creator>
     <cc:Agent>
      <dc:title>Matplotlib v3.5.1, https://matplotlib.org/</dc:title>
     </cc:Agent>
    </dc:creator>
   </cc:Work>
  </rdf:RDF>
 </metadata>
 <defs>
  <style type="text/css">*{stroke-linejoin: round; stroke-linecap: butt}</style>
 </defs>
 <g id="figure_1">
  <g id="patch_1">
   <path d="M 0 310.86825 
L 408.10125 310.86825 
L 408.10125 0 
L 0 0 
z
" style="fill: #ffffff"/>
  </g>
  <g id="axes_1">
   <g id="patch_2">
    <path d="M 43.78125 273.312 
L 400.90125 273.312 
L 400.90125 7.2 
L 43.78125 7.2 
z
" style="fill: #ffffff"/>
   </g>
   <g id="patch_3">
    <path d="M 60.720777 273.312 
L 62.338987 273.312 
L 62.338987 270.267676 
L 60.720777 270.267676 
z
" clip-path="url(#paf426ec21c)" style="fill: #1f77b4"/>
   </g>
   <g id="patch_4">
    <path d="M 62.338987 273.312 
L 63.957197 273.312 
L 63.957197 264.179027 
L 62.338987 264.179027 
z
" clip-path="url(#paf426ec21c)" style="fill: #1f77b4"/>
   </g>
   <g id="patch_5">
    <path d="M 63.957197 273.312 
L 65.575407 273.312 
L 65.575407 270.267676 
L 63.957197 270.267676 
z
" clip-path="url(#paf426ec21c)" style="fill: #1f77b4"/>
   </g>
   <g id="patch_6">
    <path d="M 65.575407 273.312 
L 67.193618 273.312 
L 67.193618 254.284973 
L 65.575407 254.284973 
z
" clip-path="url(#paf426ec21c)" style="fill: #1f77b4"/>
   </g>
   <g id="patch_7">
    <path d="M 67.193618 273.312 
L 68.811828 273.312 
L 68.811828 257.329297 
L 67.193618 257.329297 
z
" clip-path="url(#paf426ec21c)" style="fill: #1f77b4"/>
   </g>
   <g id="patch_8">
    <path d="M 68.811828 273.312 
L 70.430038 273.312 
L 70.430038 252.762811 
L 68.811828 252.762811 
z
" clip-path="url(#paf426ec21c)" style="fill: #1f77b4"/>
   </g>
   <g id="patch_9">
    <path d="M 70.430038 273.312 
L 72.048248 273.312 
L 72.048248 246.674162 
L 70.430038 246.674162 
z
" clip-path="url(#paf426ec21c)" style="fill: #1f77b4"/>
   </g>
   <g id="patch_10">
    <path d="M 72.048248 273.312 
L 73.666458 273.312 
L 73.666458 247.435243 
L 72.048248 247.435243 
z
" clip-path="url(#paf426ec21c)" style="fill: #1f77b4"/>
   </g>
   <g id="patch_11">
    <path d="M 73.666458 273.312 
L 75.284668 273.312 
L 75.284668 241.346595 
L 73.666458 241.346595 
z
" clip-path="url(#paf426ec21c)" style="fill: #1f77b4"/>
   </g>
   <g id="patch_12">
    <path d="M 75.284668 273.312 
L 76.902878 273.312 
L 76.902878 240.585514 
L 75.284668 240.585514 
z
" clip-path="url(#paf426ec21c)" style="fill: #1f77b4"/>
   </g>
   <g id="patch_13">
    <path d="M 76.902878 273.312 
L 78.521089 273.312 
L 78.521089 241.346595 
L 76.902878 241.346595 
z
" clip-path="url(#paf426ec21c)" style="fill: #1f77b4"/>
   </g>
   <g id="patch_14">
    <path d="M 78.521089 273.312 
L 80.139299 273.312 
L 80.139299 232.974703 
L 78.521089 232.974703 
z
" clip-path="url(#paf426ec21c)" style="fill: #1f77b4"/>
   </g>
   <g id="patch_15">
    <path d="M 80.139299 273.312 
L 81.757509 273.312 
L 81.757509 225.363892 
L 80.139299 225.363892 
z
" clip-path="url(#paf426ec21c)" style="fill: #1f77b4"/>
   </g>
   <g id="patch_16">
    <path d="M 81.757509 273.312 
L 83.375719 273.312 
L 83.375719 218.514162 
L 81.757509 218.514162 
z
" clip-path="url(#paf426ec21c)" style="fill: #1f77b4"/>
   </g>
   <g id="patch_17">
    <path d="M 83.375719 273.312 
L 84.993929 273.312 
L 84.993929 222.319568 
L 83.375719 222.319568 
z
" clip-path="url(#paf426ec21c)" style="fill: #1f77b4"/>
   </g>
   <g id="patch_18">
    <path d="M 84.993929 273.312 
L 86.612139 273.312 
L 86.612139 207.097946 
L 84.993929 207.097946 
z
" clip-path="url(#paf426ec21c)" style="fill: #1f77b4"/>
   </g>
   <g id="patch_19">
    <path d="M 86.612139 273.312 
L 88.23035 273.312 
L 88.23035 204.053622 
L 86.612139 204.053622 
z
" clip-path="url(#paf426ec21c)" style="fill: #1f77b4"/>
   </g>
   <g id="patch_20">
    <path d="M 88.23035 273.312 
L 89.84856 273.312 
L 89.84856 200.248216 
L 88.23035 200.248216 
z
" clip-path="url(#paf426ec21c)" style="fill: #1f77b4"/>
   </g>
   <g id="patch_21">
    <path d="M 89.84856 273.312 
L 91.46677 273.312 
L 91.46677 191.876324 
L 89.84856 191.876324 
z
" clip-path="url(#paf426ec21c)" style="fill: #1f77b4"/>
   </g>
   <g id="patch_22">
    <path d="M 91.46677 273.312 
L 93.08498 273.312 
L 93.08498 202.531459 
L 91.46677 202.531459 
z
" clip-path="url(#paf426ec21c)" style="fill: #1f77b4"/>
   </g>
   <g id="patch_23">
    <path d="M 93.08498 273.312 
L 94.70319 273.312 
L 94.70319 196.442811 
L 93.08498 196.442811 
z
" clip-path="url(#paf426ec21c)" style="fill: #1f77b4"/>
   </g>
   <g id="patch_24">
    <path d="M 94.70319 273.312 
L 96.3214 273.312 
L 96.3214 184.265514 
L 94.70319 184.265514 
z
" clip-path="url(#paf426ec21c)" style="fill: #1f77b4"/>
   </g>
   <g id="patch_25">
    <path d="M 96.3214 273.312 
L 97.939611 273.312 
L 97.939611 189.593081 
L 96.3214 189.593081 
z
" clip-path="url(#paf426ec21c)" style="fill: #1f77b4"/>
   </g>
   <g id="patch_26">
    <path d="M 97.939611 273.312 
L 99.557821 273.312 
L 99.557821 175.132541 
L 97.939611 175.132541 
z
" clip-path="url(#paf426ec21c)" style="fill: #1f77b4"/>
   </g>
   <g id="patch_27">
    <path d="M 99.557821 273.312 
L 101.176031 273.312 
L 101.176031 165.238486 
L 99.557821 165.238486 
z
" clip-path="url(#paf426ec21c)" style="fill: #1f77b4"/>
   </g>
   <g id="patch_28">
    <path d="M 101.176031 273.312 
L 102.794241 273.312 
L 102.794241 159.910919 
L 101.176031 159.910919 
z
" clip-path="url(#paf426ec21c)" style="fill: #1f77b4"/>
   </g>
   <g id="patch_29">
    <path d="M 102.794241 273.312 
L 104.412451 273.312 
L 104.412451 172.849297 
L 102.794241 172.849297 
z
" clip-path="url(#paf426ec21c)" style="fill: #1f77b4"/>
   </g>
   <g id="patch_30">
    <path d="M 104.412451 273.312 
L 106.030661 273.312 
L 106.030661 169.804973 
L 104.412451 169.804973 
z
" clip-path="url(#paf426ec21c)" style="fill: #1f77b4"/>
   </g>
   <g id="patch_31">
    <path d="M 106.030661 273.312 
L 107.648872 273.312 
L 107.648872 160.672 
L 106.030661 160.672 
z
" clip-path="url(#paf426ec21c)" style="fill: #1f77b4"/>
   </g>
   <g id="patch_32">
    <path d="M 107.648872 273.312 
L 109.267082 273.312 
L 109.267082 171.327135 
L 107.648872 171.327135 
z
" clip-path="url(#paf426ec21c)" style="fill: #1f77b4"/>
   </g>
   <g id="patch_33">
    <path d="M 109.267082 273.312 
L 110.885292 273.312 
L 110.885292 164.477405 
L 109.267082 164.477405 
z
" clip-path="url(#paf426ec21c)" style="fill: #1f77b4"/>
   </g>
   <g id="patch_34">
    <path d="M 110.885292 273.312 
L 112.503502 273.312 
L 112.503502 172.849297 
L 110.885292 172.849297 
z
" clip-path="url(#paf426ec21c)" style="fill: #1f77b4"/>
   </g>
   <g id="patch_35">
    <path d="M 112.503502 273.312 
L 114.121712 273.312 
L 114.121712 143.928216 
L 112.503502 143.928216 
z
" clip-path="url(#paf426ec21c)" style="fill: #1f77b4"/>
   </g>
   <g id="patch_36">
    <path d="M 114.121712 273.312 
L 115.739922 273.312 
L 115.739922 156.866595 
L 114.121712 156.866595 
z
" clip-path="url(#paf426ec21c)" style="fill: #1f77b4"/>
   </g>
   <g id="patch_37">
    <path d="M 115.739922 273.312 
L 117.358133 273.312 
L 117.358133 144.689297 
L 115.739922 144.689297 
z
" clip-path="url(#paf426ec21c)" style="fill: #1f77b4"/>
   </g>
   <g id="patch_38">
    <path d="M 117.358133 273.312 
L 118.976343 273.312 
L 118.976343 151.539027 
L 117.358133 151.539027 
z
" clip-path="url(#paf426ec21c)" style="fill: #1f77b4"/>
   </g>
   <g id="patch_39">
    <path d="M 118.976343 273.312 
L 120.594553 273.312 
L 120.594553 139.36173 
L 118.976343 139.36173 
z
" clip-path="url(#paf426ec21c)" style="fill: #1f77b4"/>
   </g>
   <g id="patch_40">
    <path d="M 120.594553 273.312 
L 122.212763 273.312 
L 122.212763 135.556324 
L 120.594553 135.556324 
z
" clip-path="url(#paf426ec21c)" style="fill: #1f77b4"/>
   </g>
   <g id="patch_41">
    <path d="M 122.212763 273.312 
L 123.830973 273.312 
L 123.830973 147.733622 
L 122.212763 147.733622 
z
" clip-path="url(#paf426ec21c)" style="fill: #1f77b4"/>
   </g>
   <g id="patch_42">
    <path d="M 123.830973 273.312 
L 125.449183 273.312 
L 125.449183 124.901189 
L 123.830973 124.901189 
z
" clip-path="url(#paf426ec21c)" style="fill: #1f77b4"/>
   </g>
   <g id="patch_43">
    <path d="M 125.449183 273.312 
L 127.067393 273.312 
L 127.067393 128.706595 
L 125.449183 128.706595 
z
" clip-path="url(#paf426ec21c)" style="fill: #1f77b4"/>
   </g>
   <g id="patch_44">
    <path d="M 127.067393 273.312 
L 128.685604 273.312 
L 128.685604 134.795243 
L 127.067393 134.795243 
z
" clip-path="url(#paf426ec21c)" style="fill: #1f77b4"/>
   </g>
   <g id="patch_45">
    <path d="M 128.685604 273.312 
L 130.303814 273.312 
L 130.303814 123.379027 
L 128.685604 123.379027 
z
" clip-path="url(#paf426ec21c)" style="fill: #1f77b4"/>
   </g>
   <g id="patch_46">
    <path d="M 130.303814 273.312 
L 131.922024 273.312 
L 131.922024 124.140108 
L 130.303814 124.140108 
z
" clip-path="url(#paf426ec21c)" style="fill: #1f77b4"/>
   </g>
   <g id="patch_47">
    <path d="M 131.922024 273.312 
L 133.540234 273.312 
L 133.540234 112.723892 
L 131.922024 112.723892 
z
" clip-path="url(#paf426ec21c)" style="fill: #1f77b4"/>
   </g>
   <g id="patch_48">
    <path d="M 133.540234 273.312 
L 135.158444 273.312 
L 135.158444 144.689297 
L 133.540234 144.689297 
z
" clip-path="url(#paf426ec21c)" style="fill: #1f77b4"/>
   </g>
   <g id="patch_49">
    <path d="M 135.158444 273.312 
L 136.776654 273.312 
L 136.776654 105.113081 
L 135.158444 105.113081 
z
" clip-path="url(#paf426ec21c)" style="fill: #1f77b4"/>
   </g>
   <g id="patch_50">
    <path d="M 136.776654 273.312 
L 138.394865 273.312 
L 138.394865 112.723892 
L 136.776654 112.723892 
z
" clip-path="url(#paf426ec21c)" style="fill: #1f77b4"/>
   </g>
   <g id="patch_51">
    <path d="M 138.394865 273.312 
L 140.013075 273.312 
L 140.013075 106.635243 
L 138.394865 106.635243 
z
" clip-path="url(#paf426ec21c)" style="fill: #1f77b4"/>
   </g>
   <g id="patch_52">
    <path d="M 140.013075 273.312 
L 141.631285 273.312 
L 141.631285 105.874162 
L 140.013075 105.874162 
z
" clip-path="url(#paf426ec21c)" style="fill: #1f77b4"/>
   </g>
   <g id="patch_53">
    <path d="M 141.631285 273.312 
L 143.249495 273.312 
L 143.249495 99.785514 
L 141.631285 99.785514 
z
" clip-path="url(#paf426ec21c)" style="fill: #1f77b4"/>
   </g>
   <g id="patch_54">
    <path d="M 143.249495 273.312 
L 144.867705 273.312 
L 144.867705 103.590919 
L 143.249495 103.590919 
z
" clip-path="url(#paf426ec21c)" style="fill: #1f77b4"/>
   </g>
   <g id="patch_55">
    <path d="M 144.867705 273.312 
L 146.485915 273.312 
L 146.485915 102.068757 
L 144.867705 102.068757 
z
" clip-path="url(#paf426ec21c)" style="fill: #1f77b4"/>
   </g>
   <g id="patch_56">
    <path d="M 146.485915 273.312 
L 148.104126 273.312 
L 148.104126 89.130378 
L 146.485915 89.130378 
z
" clip-path="url(#paf426ec21c)" style="fill: #1f77b4"/>
   </g>
   <g id="patch_57">
    <path d="M 148.104126 273.312 
L 149.722336 273.312 
L 149.722336 92.174703 
L 148.104126 92.174703 
z
" clip-path="url(#paf426ec21c)" style="fill: #1f77b4"/>
   </g>
   <g id="patch_58">
    <path d="M 149.722336 273.312 
L 151.340546 273.312 
L 151.340546 111.20173 
L 149.722336 111.20173 
z
" clip-path="url(#paf426ec21c)" style="fill: #1f77b4"/>
   </g>
   <g id="patch_59">
    <path d="M 151.340546 273.312 
L 152.958756 273.312 
L 152.958756 83.04173 
L 151.340546 83.04173 
z
" clip-path="url(#paf426ec21c)" style="fill: #1f77b4"/>
   </g>
   <g id="patch_60">
    <path d="M 152.958756 273.312 
L 154.576966 273.312 
L 154.576966 90.652541 
L 152.958756 90.652541 
z
" clip-path="url(#paf426ec21c)" style="fill: #1f77b4"/>
   </g>
   <g id="patch_61">
    <path d="M 154.576966 273.312 
L 156.195176 273.312 
L 156.195176 64.014703 
L 154.576966 64.014703 
z
" clip-path="url(#paf426ec21c)" style="fill: #1f77b4"/>
   </g>
   <g id="patch_62">
    <path d="M 156.195176 273.312 
L 157.813387 273.312 
L 157.813387 87.608216 
L 156.195176 87.608216 
z
" clip-path="url(#paf426ec21c)" style="fill: #1f77b4"/>
   </g>
   <g id="patch_63">
    <path d="M 157.813387 273.312 
L 159.431597 273.312 
L 159.431597 86.847135 
L 157.813387 86.847135 
z
" clip-path="url(#paf426ec21c)" style="fill: #1f77b4"/>
   </g>
   <g id="patch_64">
    <path d="M 159.431597 273.312 
L 161.049807 273.312 
L 161.049807 76.953081 
L 159.431597 76.953081 
z
" clip-path="url(#paf426ec21c)" style="fill: #1f77b4"/>
   </g>
   <g id="patch_65">
    <path d="M 161.049807 273.312 
L 162.668017 273.312 
L 162.668017 64.775784 
L 161.049807 64.775784 
z
" clip-path="url(#paf426ec21c)" style="fill: #1f77b4"/>
   </g>
   <g id="patch_66">
    <path d="M 162.668017 273.312 
L 164.286227 273.312 
L 164.286227 78.475243 
L 162.668017 78.475243 
z
" clip-path="url(#paf426ec21c)" style="fill: #1f77b4"/>
   </g>
   <g id="patch_67">
    <path d="M 164.286227 273.312 
L 165.904437 273.312 
L 165.904437 79.997405 
L 164.286227 79.997405 
z
" clip-path="url(#paf426ec21c)" style="fill: #1f77b4"/>
   </g>
   <g id="patch_68">
    <path d="M 165.904437 273.312 
L 167.522647 273.312 
L 167.522647 62.492541 
L 165.904437 62.492541 
z
" clip-path="url(#paf426ec21c)" style="fill: #1f77b4"/>
   </g>
   <g id="patch_69">
    <path d="M 167.522647 273.312 
L 169.140858 273.312 
L 169.140858 68.581189 
L 167.522647 68.581189 
z
" clip-path="url(#paf426ec21c)" style="fill: #1f77b4"/>
   </g>
   <g id="patch_70">
    <path d="M 169.140858 273.312 
L 170.759068 273.312 
L 170.759068 64.014703 
L 169.140858 64.014703 
z
" clip-path="url(#paf426ec21c)" style="fill: #1f77b4"/>
   </g>
   <g id="patch_71">
    <path d="M 170.759068 273.312 
L 172.377278 273.312 
L 172.377278 66.297946 
L 170.759068 66.297946 
z
" clip-path="url(#paf426ec21c)" style="fill: #1f77b4"/>
   </g>
   <g id="patch_72">
    <path d="M 172.377278 273.312 
L 173.995488 273.312 
L 173.995488 61.731459 
L 172.377278 61.731459 
z
" clip-path="url(#paf426ec21c)" style="fill: #1f77b4"/>
   </g>
   <g id="patch_73">
    <path d="M 173.995488 273.312 
L 175.613698 273.312 
L 175.613698 67.820108 
L 173.995488 67.820108 
z
" clip-path="url(#paf426ec21c)" style="fill: #1f77b4"/>
   </g>
   <g id="patch_74">
    <path d="M 175.613698 273.312 
L 177.231908 273.312 
L 177.231908 63.253622 
L 175.613698 63.253622 
z
" clip-path="url(#paf426ec21c)" style="fill: #1f77b4"/>
   </g>
   <g id="patch_75">
    <path d="M 177.231908 273.312 
L 178.850119 273.312 
L 178.850119 67.820108 
L 177.231908 67.820108 
z
" clip-path="url(#paf426ec21c)" style="fill: #1f77b4"/>
   </g>
   <g id="patch_76">
    <path d="M 178.850119 273.312 
L 180.468329 273.312 
L 180.468329 40.421189 
L 178.850119 40.421189 
z
" clip-path="url(#paf426ec21c)" style="fill: #1f77b4"/>
   </g>
   <g id="patch_77">
    <path d="M 180.468329 273.312 
L 182.086539 273.312 
L 182.086539 55.642811 
L 180.468329 55.642811 
z
" clip-path="url(#paf426ec21c)" style="fill: #1f77b4"/>
   </g>
   <g id="patch_78">
    <path d="M 182.086539 273.312 
L 183.704749 273.312 
L 183.704749 40.421189 
L 182.086539 40.421189 
z
" clip-path="url(#paf426ec21c)" style="fill: #1f77b4"/>
   </g>
   <g id="patch_79">
    <path d="M 183.704749 273.312 
L 185.322959 273.312 
L 185.322959 22.155243 
L 183.704749 22.155243 
z
" clip-path="url(#paf426ec21c)" style="fill: #1f77b4"/>
   </g>
   <g id="patch_80">
    <path d="M 185.322959 273.312 
L 186.941169 273.312 
L 186.941169 70.103351 
L 185.322959 70.103351 
z
" clip-path="url(#paf426ec21c)" style="fill: #1f77b4"/>
   </g>
   <g id="patch_81">
    <path d="M 186.941169 273.312 
L 188.55938 273.312 
L 188.55938 38.899027 
L 186.941169 38.899027 
z
" clip-path="url(#paf426ec21c)" style="fill: #1f77b4"/>
   </g>
   <g id="patch_82">
    <path d="M 188.55938 273.312 
L 190.17759 273.312 
L 190.17759 44.987676 
L 188.55938 44.987676 
z
" clip-path="url(#paf426ec21c)" style="fill: #1f77b4"/>
   </g>
   <g id="patch_83">
    <path d="M 190.17759 273.312 
L 191.7958 273.312 
L 191.7958 54.120649 
L 190.17759 54.120649 
z
" clip-path="url(#paf426ec21c)" style="fill: #1f77b4"/>
   </g>
   <g id="patch_84">
    <path d="M 191.7958 273.312 
L 193.41401 273.312 
L 193.41401 36.615784 
L 191.7958 36.615784 
z
" clip-path="url(#paf426ec21c)" style="fill: #1f77b4"/>
   </g>
   <g id="patch_85">
    <path d="M 193.41401 273.312 
L 195.03222 273.312 
L 195.03222 38.137946 
L 193.41401 38.137946 
z
" clip-path="url(#paf426ec21c)" style="fill: #1f77b4"/>
   </g>
   <g id="patch_86">
    <path d="M 195.03222 273.312 
L 196.65043 273.312 
L 196.65043 48.032 
L 195.03222 48.032 
z
" clip-path="url(#paf426ec21c)" style="fill: #1f77b4"/>
   </g>
   <g id="patch_87">
    <path d="M 196.65043 273.312 
L 198.268641 273.312 
L 198.268641 43.465514 
L 196.65043 43.465514 
z
" clip-path="url(#paf426ec21c)" style="fill: #1f77b4"/>
   </g>
   <g id="patch_88">
    <path d="M 198.268641 273.312 
L 199.886851 273.312 
L 199.886851 25.960649 
L 198.268641 25.960649 
z
" clip-path="url(#paf426ec21c)" style="fill: #1f77b4"/>
   </g>
   <g id="patch_89">
    <path d="M 199.886851 273.312 
L 201.505061 273.312 
L 201.505061 48.793081 
L 199.886851 48.793081 
z
" clip-path="url(#paf426ec21c)" style="fill: #1f77b4"/>
   </g>
   <g id="patch_90">
    <path d="M 201.505061 273.312 
L 203.123271 273.312 
L 203.123271 49.554162 
L 201.505061 49.554162 
z
" clip-path="url(#paf426ec21c)" style="fill: #1f77b4"/>
   </g>
   <g id="patch_91">
    <path d="M 203.123271 273.312 
L 204.741481 273.312 
L 204.741481 26.72173 
L 203.123271 26.72173 
z
" clip-path="url(#paf426ec21c)" style="fill: #1f77b4"/>
   </g>
   <g id="patch_92">
    <path d="M 204.741481 273.312 
L 206.359691 273.312 
L 206.359691 35.093622 
L 204.741481 35.093622 
z
" clip-path="url(#paf426ec21c)" style="fill: #1f77b4"/>
   </g>
   <g id="patch_93">
    <path d="M 206.359691 273.312 
L 207.977902 273.312 
L 207.977902 19.872 
L 206.359691 19.872 
z
" clip-path="url(#paf426ec21c)" style="fill: #1f77b4"/>
   </g>
   <g id="patch_94">
    <path d="M 207.977902 273.312 
L 209.596112 273.312 
L 209.596112 49.554162 
L 207.977902 49.554162 
z
" clip-path="url(#paf426ec21c)" style="fill: #1f77b4"/>
   </g>
   <g id="patch_95">
    <path d="M 209.596112 273.312 
L 211.214322 273.312 
L 211.214322 52.598486 
L 209.596112 52.598486 
z
" clip-path="url(#paf426ec21c)" style="fill: #1f77b4"/>
   </g>
   <g id="patch_96">
    <path d="M 211.214322 273.312 
L 212.832532 273.312 
L 212.832532 66.297946 
L 211.214322 66.297946 
z
" clip-path="url(#paf426ec21c)" style="fill: #1f77b4"/>
   </g>
   <g id="patch_97">
    <path d="M 212.832532 273.312 
L 214.450742 273.312 
L 214.450742 50.315243 
L 212.832532 50.315243 
z
" clip-path="url(#paf426ec21c)" style="fill: #1f77b4"/>
   </g>
   <g id="patch_98">
    <path d="M 214.450742 273.312 
L 216.068952 273.312 
L 216.068952 29.004973 
L 214.450742 29.004973 
z
" clip-path="url(#paf426ec21c)" style="fill: #1f77b4"/>
   </g>
   <g id="patch_99">
    <path d="M 216.068952 273.312 
L 217.687162 273.312 
L 217.687162 55.642811 
L 216.068952 55.642811 
z
" clip-path="url(#paf426ec21c)" style="fill: #1f77b4"/>
   </g>
   <g id="patch_100">
    <path d="M 217.687162 273.312 
L 219.305373 273.312 
L 219.305373 27.482811 
L 217.687162 27.482811 
z
" clip-path="url(#paf426ec21c)" style="fill: #1f77b4"/>
   </g>
   <g id="patch_101">
    <path d="M 219.305373 273.312 
L 220.923583 273.312 
L 220.923583 29.004973 
L 219.305373 29.004973 
z
" clip-path="url(#paf426ec21c)" style="fill: #1f77b4"/>
   </g>
   <g id="patch_102">
    <path d="M 220.923583 273.312 
L 222.541793 273.312 
L 222.541793 46.509838 
L 220.923583 46.509838 
z
" clip-path="url(#paf426ec21c)" style="fill: #1f77b4"/>
   </g>
   <g id="patch_103">
    <path d="M 222.541793 273.312 
L 224.160003 273.312 
L 224.160003 41.18227 
L 222.541793 41.18227 
z
" clip-path="url(#paf426ec21c)" style="fill: #1f77b4"/>
   </g>
   <g id="patch_104">
    <path d="M 224.160003 273.312 
L 225.778213 273.312 
L 225.778213 22.155243 
L 224.160003 22.155243 
z
" clip-path="url(#paf426ec21c)" style="fill: #1f77b4"/>
   </g>
   <g id="patch_105">
    <path d="M 225.778213 273.312 
L 227.396423 273.312 
L 227.396423 30.527135 
L 225.778213 30.527135 
z
" clip-path="url(#paf426ec21c)" style="fill: #1f77b4"/>
   </g>
   <g id="patch_106">
    <path d="M 227.396423 273.312 
L 229.014634 273.312 
L 229.014634 29.004973 
L 227.396423 29.004973 
z
" clip-path="url(#paf426ec21c)" style="fill: #1f77b4"/>
   </g>
   <g id="patch_107">
    <path d="M 229.014634 273.312 
L 230.632844 273.312 
L 230.632844 49.554162 
L 229.014634 49.554162 
z
" clip-path="url(#paf426ec21c)" style="fill: #1f77b4"/>
   </g>
   <g id="patch_108">
    <path d="M 230.632844 273.312 
L 232.251054 273.312 
L 232.251054 46.509838 
L 230.632844 46.509838 
z
" clip-path="url(#paf426ec21c)" style="fill: #1f77b4"/>
   </g>
   <g id="patch_109">
    <path d="M 232.251054 273.312 
L 233.869264 273.312 
L 233.869264 51.076324 
L 232.251054 51.076324 
z
" clip-path="url(#paf426ec21c)" style="fill: #1f77b4"/>
   </g>
   <g id="patch_110">
    <path d="M 233.869264 273.312 
L 235.487474 273.312 
L 235.487474 41.18227 
L 233.869264 41.18227 
z
" clip-path="url(#paf426ec21c)" style="fill: #1f77b4"/>
   </g>
   <g id="patch_111">
    <path d="M 235.487474 273.312 
L 237.105684 273.312 
L 237.105684 38.137946 
L 235.487474 38.137946 
z
" clip-path="url(#paf426ec21c)" style="fill: #1f77b4"/>
   </g>
   <g id="patch_112">
    <path d="M 237.105684 273.312 
L 238.723895 273.312 
L 238.723895 54.120649 
L 237.105684 54.120649 
z
" clip-path="url(#paf426ec21c)" style="fill: #1f77b4"/>
   </g>
   <g id="patch_113">
    <path d="M 238.723895 273.312 
L 240.342105 273.312 
L 240.342105 45.748757 
L 238.723895 45.748757 
z
" clip-path="url(#paf426ec21c)" style="fill: #1f77b4"/>
   </g>
   <g id="patch_114">
    <path d="M 240.342105 273.312 
L 241.960315 273.312 
L 241.960315 32.810378 
L 240.342105 32.810378 
z
" clip-path="url(#paf426ec21c)" style="fill: #1f77b4"/>
   </g>
   <g id="patch_115">
    <path d="M 241.960315 273.312 
L 243.578525 273.312 
L 243.578525 49.554162 
L 241.960315 49.554162 
z
" clip-path="url(#paf426ec21c)" style="fill: #1f77b4"/>
   </g>
   <g id="patch_116">
    <path d="M 243.578525 273.312 
L 245.196735 273.312 
L 245.196735 65.536865 
L 243.578525 65.536865 
z
" clip-path="url(#paf426ec21c)" style="fill: #1f77b4"/>
   </g>
   <g id="patch_117">
    <path d="M 245.196735 273.312 
L 246.814945 273.312 
L 246.814945 59.448216 
L 245.196735 59.448216 
z
" clip-path="url(#paf426ec21c)" style="fill: #1f77b4"/>
   </g>
   <g id="patch_118">
    <path d="M 246.814945 273.312 
L 248.433156 273.312 
L 248.433156 46.509838 
L 246.814945 46.509838 
z
" clip-path="url(#paf426ec21c)" style="fill: #1f77b4"/>
   </g>
   <g id="patch_119">
    <path d="M 248.433156 273.312 
L 250.051366 273.312 
L 250.051366 41.943351 
L 248.433156 41.943351 
z
" clip-path="url(#paf426ec21c)" style="fill: #1f77b4"/>
   </g>
   <g id="patch_120">
    <path d="M 250.051366 273.312 
L 251.669576 273.312 
L 251.669576 62.492541 
L 250.051366 62.492541 
z
" clip-path="url(#paf426ec21c)" style="fill: #1f77b4"/>
   </g>
   <g id="patch_121">
    <path d="M 251.669576 273.312 
L 253.287786 273.312 
L 253.287786 41.18227 
L 251.669576 41.18227 
z
" clip-path="url(#paf426ec21c)" style="fill: #1f77b4"/>
   </g>
   <g id="patch_122">
    <path d="M 253.287786 273.312 
L 254.905996 273.312 
L 254.905996 56.403892 
L 253.287786 56.403892 
z
" clip-path="url(#paf426ec21c)" style="fill: #1f77b4"/>
   </g>
   <g id="patch_123">
    <path d="M 254.905996 273.312 
L 256.524206 273.312 
L 256.524206 62.492541 
L 254.905996 62.492541 
z
" clip-path="url(#paf426ec21c)" style="fill: #1f77b4"/>
   </g>
   <g id="patch_124">
    <path d="M 256.524206 273.312 
L 258.142417 273.312 
L 258.142417 38.899027 
L 256.524206 38.899027 
z
" clip-path="url(#paf426ec21c)" style="fill: #1f77b4"/>
   </g>
   <g id="patch_125">
    <path d="M 258.142417 273.312 
L 259.760627 273.312 
L 259.760627 64.014703 
L 258.142417 64.014703 
z
" clip-path="url(#paf426ec21c)" style="fill: #1f77b4"/>
   </g>
   <g id="patch_126">
    <path d="M 259.760627 273.312 
L 261.378837 273.312 
L 261.378837 35.854703 
L 259.760627 35.854703 
z
" clip-path="url(#paf426ec21c)" style="fill: #1f77b4"/>
   </g>
   <g id="patch_127">
    <path d="M 261.378837 273.312 
L 262.997047 273.312 
L 262.997047 48.032 
L 261.378837 48.032 
z
" clip-path="url(#paf426ec21c)" style="fill: #1f77b4"/>
   </g>
   <g id="patch_128">
    <path d="M 262.997047 273.312 
L 264.615257 273.312 
L 264.615257 63.253622 
L 262.997047 63.253622 
z
" clip-path="url(#paf426ec21c)" style="fill: #1f77b4"/>
   </g>
   <g id="patch_129">
    <path d="M 264.615257 273.312 
L 266.233467 273.312 
L 266.233467 58.687135 
L 264.615257 58.687135 
z
" clip-path="url(#paf426ec21c)" style="fill: #1f77b4"/>
   </g>
   <g id="patch_130">
    <path d="M 266.233467 273.312 
L 267.851677 273.312 
L 267.851677 61.731459 
L 266.233467 61.731459 
z
" clip-path="url(#paf426ec21c)" style="fill: #1f77b4"/>
   </g>
   <g id="patch_131">
    <path d="M 267.851677 273.312 
L 269.469888 273.312 
L 269.469888 37.376865 
L 267.851677 37.376865 
z
" clip-path="url(#paf426ec21c)" style="fill: #1f77b4"/>
   </g>
   <g id="patch_132">
    <path d="M 269.469888 273.312 
L 271.088098 273.312 
L 271.088098 57.926054 
L 269.469888 57.926054 
z
" clip-path="url(#paf426ec21c)" style="fill: #1f77b4"/>
   </g>
   <g id="patch_133">
    <path d="M 271.088098 273.312 
L 272.706308 273.312 
L 272.706308 49.554162 
L 271.088098 49.554162 
z
" clip-path="url(#paf426ec21c)" style="fill: #1f77b4"/>
   </g>
   <g id="patch_134">
    <path d="M 272.706308 273.312 
L 274.324518 273.312 
L 274.324518 64.014703 
L 272.706308 64.014703 
z
" clip-path="url(#paf426ec21c)" style="fill: #1f77b4"/>
   </g>
   <g id="patch_135">
    <path d="M 274.324518 273.312 
L 275.942728 273.312 
L 275.942728 53.359568 
L 274.324518 53.359568 
z
" clip-path="url(#paf426ec21c)" style="fill: #1f77b4"/>
   </g>
   <g id="patch_136">
    <path d="M 275.942728 273.312 
L 277.560938 273.312 
L 277.560938 86.086054 
L 275.942728 86.086054 
z
" clip-path="url(#paf426ec21c)" style="fill: #1f77b4"/>
   </g>
   <g id="patch_137">
    <path d="M 277.560938 273.312 
L 279.179149 273.312 
L 279.179149 64.775784 
L 277.560938 64.775784 
z
" clip-path="url(#paf426ec21c)" style="fill: #1f77b4"/>
   </g>
   <g id="patch_138">
    <path d="M 279.179149 273.312 
L 280.797359 273.312 
L 280.797359 63.253622 
L 279.179149 63.253622 
z
" clip-path="url(#paf426ec21c)" style="fill: #1f77b4"/>
   </g>
   <g id="patch_139">
    <path d="M 280.797359 273.312 
L 282.415569 273.312 
L 282.415569 77.714162 
L 280.797359 77.714162 
z
" clip-path="url(#paf426ec21c)" style="fill: #1f77b4"/>
   </g>
   <g id="patch_140">
    <path d="M 282.415569 273.312 
L 284.033779 273.312 
L 284.033779 36.615784 
L 282.415569 36.615784 
z
" clip-path="url(#paf426ec21c)" style="fill: #1f77b4"/>
   </g>
   <g id="patch_141">
    <path d="M 284.033779 273.312 
L 285.651989 273.312 
L 285.651989 72.386595 
L 284.033779 72.386595 
z
" clip-path="url(#paf426ec21c)" style="fill: #1f77b4"/>
   </g>
   <g id="patch_142">
    <path d="M 285.651989 273.312 
L 287.270199 273.312 
L 287.270199 57.164973 
L 285.651989 57.164973 
z
" clip-path="url(#paf426ec21c)" style="fill: #1f77b4"/>
   </g>
   <g id="patch_143">
    <path d="M 287.270199 273.312 
L 288.88841 273.312 
L 288.88841 69.34227 
L 287.270199 69.34227 
z
" clip-path="url(#paf426ec21c)" style="fill: #1f77b4"/>
   </g>
   <g id="patch_144">
    <path d="M 288.88841 273.312 
L 290.50662 273.312 
L 290.50662 73.908757 
L 288.88841 73.908757 
z
" clip-path="url(#paf426ec21c)" style="fill: #1f77b4"/>
   </g>
   <g id="patch_145">
    <path d="M 290.50662 273.312 
L 292.12483 273.312 
L 292.12483 85.324973 
L 290.50662 85.324973 
z
" clip-path="url(#paf426ec21c)" style="fill: #1f77b4"/>
   </g>
   <g id="patch_146">
    <path d="M 292.12483 273.312 
L 293.74304 273.312 
L 293.74304 107.396324 
L 292.12483 107.396324 
z
" clip-path="url(#paf426ec21c)" style="fill: #1f77b4"/>
   </g>
   <g id="patch_147">
    <path d="M 293.74304 273.312 
L 295.36125 273.312 
L 295.36125 110.440649 
L 293.74304 110.440649 
z
" clip-path="url(#paf426ec21c)" style="fill: #1f77b4"/>
   </g>
   <g id="patch_148">
    <path d="M 295.36125 273.312 
L 296.97946 273.312 
L 296.97946 83.802811 
L 295.36125 83.802811 
z
" clip-path="url(#paf426ec21c)" style="fill: #1f77b4"/>
   </g>
   <g id="patch_149">
    <path d="M 296.97946 273.312 
L 298.597671 273.312 
L 298.597671 86.847135 
L 296.97946 86.847135 
z
" clip-path="url(#paf426ec21c)" style="fill: #1f77b4"/>
   </g>
   <g id="patch_150">
    <path d="M 298.597671 273.312 
L 300.215881 273.312 
L 300.215881 108.157405 
L 298.597671 108.157405 
z
" clip-path="url(#paf426ec21c)" style="fill: #1f77b4"/>
   </g>
   <g id="patch_151">
    <path d="M 300.215881 273.312 
L 301.834091 273.312 
L 301.834091 114.246054 
L 300.215881 114.246054 
z
" clip-path="url(#paf426ec21c)" style="fill: #1f77b4"/>
   </g>
   <g id="patch_152">
    <path d="M 301.834091 273.312 
L 303.452301 273.312 
L 303.452301 105.113081 
L 301.834091 105.113081 
z
" clip-path="url(#paf426ec21c)" style="fill: #1f77b4"/>
   </g>
   <g id="patch_153">
    <path d="M 303.452301 273.312 
L 305.070511 273.312 
L 305.070511 87.608216 
L 303.452301 87.608216 
z
" clip-path="url(#paf426ec21c)" style="fill: #1f77b4"/>
   </g>
   <g id="patch_154">
    <path d="M 305.070511 273.312 
L 306.688721 273.312 
L 306.688721 85.324973 
L 305.070511 85.324973 
z
" clip-path="url(#paf426ec21c)" style="fill: #1f77b4"/>
   </g>
   <g id="patch_155">
    <path d="M 306.688721 273.312 
L 308.306931 273.312 
L 308.306931 124.140108 
L 306.688721 124.140108 
z
" clip-path="url(#paf426ec21c)" style="fill: #1f77b4"/>
   </g>
   <g id="patch_156">
    <path d="M 308.306931 273.312 
L 309.925142 273.312 
L 309.925142 124.901189 
L 308.306931 124.901189 
z
" clip-path="url(#paf426ec21c)" style="fill: #1f77b4"/>
   </g>
   <g id="patch_157">
    <path d="M 309.925142 273.312 
L 311.543352 273.312 
L 311.543352 116.529297 
L 309.925142 116.529297 
z
" clip-path="url(#paf426ec21c)" style="fill: #1f77b4"/>
   </g>
   <g id="patch_158">
    <path d="M 311.543352 273.312 
L 313.161562 273.312 
L 313.161562 132.512 
L 311.543352 132.512 
z
" clip-path="url(#paf426ec21c)" style="fill: #1f77b4"/>
   </g>
   <g id="patch_159">
    <path d="M 313.161562 273.312 
L 314.779772 273.312 
L 314.779772 112.723892 
L 313.161562 112.723892 
z
" clip-path="url(#paf426ec21c)" style="fill: #1f77b4"/>
   </g>
   <g id="patch_160">
    <path d="M 314.779772 273.312 
L 316.397982 273.312 
L 316.397982 142.406054 
L 314.779772 142.406054 
z
" clip-path="url(#paf426ec21c)" style="fill: #1f77b4"/>
   </g>
   <g id="patch_161">
    <path d="M 316.397982 273.312 
L 318.016192 273.312 
L 318.016192 113.484973 
L 316.397982 113.484973 
z
" clip-path="url(#paf426ec21c)" style="fill: #1f77b4"/>
   </g>
   <g id="patch_162">
    <path d="M 318.016192 273.312 
L 319.634403 273.312 
L 319.634403 126.423351 
L 318.016192 126.423351 
z
" clip-path="url(#paf426ec21c)" style="fill: #1f77b4"/>
   </g>
   <g id="patch_163">
    <path d="M 319.634403 273.312 
L 321.252613 273.312 
L 321.252613 125.66227 
L 319.634403 125.66227 
z
" clip-path="url(#paf426ec21c)" style="fill: #1f77b4"/>
   </g>
   <g id="patch_164">
    <path d="M 321.252613 273.312 
L 322.870823 273.312 
L 322.870823 130.989838 
L 321.252613 130.989838 
z
" clip-path="url(#paf426ec21c)" style="fill: #1f77b4"/>
   </g>
   <g id="patch_165">
    <path d="M 322.870823 273.312 
L 324.489033 273.312 
L 324.489033 133.273081 
L 322.870823 133.273081 
z
" clip-path="url(#paf426ec21c)" style="fill: #1f77b4"/>
   </g>
   <g id="patch_166">
    <path d="M 324.489033 273.312 
L 326.107243 273.312 
L 326.107243 140.883892 
L 324.489033 140.883892 
z
" clip-path="url(#paf426ec21c)" style="fill: #1f77b4"/>
   </g>
   <g id="patch_167">
    <path d="M 326.107243 273.312 
L 327.725453 273.312 
L 327.725453 146.211459 
L 326.107243 146.211459 
z
" clip-path="url(#paf426ec21c)" style="fill: #1f77b4"/>
   </g>
   <g id="patch_168">
    <path d="M 327.725453 273.312 
L 329.343664 273.312 
L 329.343664 140.122811 
L 327.725453 140.122811 
z
" clip-path="url(#paf426ec21c)" style="fill: #1f77b4"/>
   </g>
   <g id="patch_169">
    <path d="M 329.343664 273.312 
L 330.961874 273.312 
L 330.961874 153.82227 
L 329.343664 153.82227 
z
" clip-path="url(#paf426ec21c)" style="fill: #1f77b4"/>
   </g>
   <g id="patch_170">
    <path d="M 330.961874 273.312 
L 332.580084 273.312 
L 332.580084 169.804973 
L 330.961874 169.804973 
z
" clip-path="url(#paf426ec21c)" style="fill: #1f77b4"/>
   </g>
   <g id="patch_171">
    <path d="M 332.580084 273.312 
L 334.198294 273.312 
L 334.198294 159.149838 
L 332.580084 159.149838 
z
" clip-path="url(#paf426ec21c)" style="fill: #1f77b4"/>
   </g>
   <g id="patch_172">
    <path d="M 334.198294 273.312 
L 335.816504 273.312 
L 335.816504 175.893622 
L 334.198294 175.893622 
z
" clip-path="url(#paf426ec21c)" style="fill: #1f77b4"/>
   </g>
   <g id="patch_173">
    <path d="M 335.816504 273.312 
L 337.434714 273.312 
L 337.434714 168.282811 
L 335.816504 168.282811 
z
" clip-path="url(#paf426ec21c)" style="fill: #1f77b4"/>
   </g>
   <g id="patch_174">
    <path d="M 337.434714 273.312 
L 339.052925 273.312 
L 339.052925 165.238486 
L 337.434714 165.238486 
z
" clip-path="url(#paf426ec21c)" style="fill: #1f77b4"/>
   </g>
   <g id="patch_175">
    <path d="M 339.052925 273.312 
L 340.671135 273.312 
L 340.671135 171.327135 
L 339.052925 171.327135 
z
" clip-path="url(#paf426ec21c)" style="fill: #1f77b4"/>
   </g>
   <g id="patch_176">
    <path d="M 340.671135 273.312 
L 342.289345 273.312 
L 342.289345 172.849297 
L 340.671135 172.849297 
z
" clip-path="url(#paf426ec21c)" style="fill: #1f77b4"/>
   </g>
   <g id="patch_177">
    <path d="M 342.289345 273.312 
L 343.907555 273.312 
L 343.907555 186.548757 
L 342.289345 186.548757 
z
" clip-path="url(#paf426ec21c)" style="fill: #1f77b4"/>
   </g>
   <g id="patch_178">
    <path d="M 343.907555 273.312 
L 345.525765 273.312 
L 345.525765 182.743351 
L 343.907555 182.743351 
z
" clip-path="url(#paf426ec21c)" style="fill: #1f77b4"/>
   </g>
   <g id="patch_179">
    <path d="M 345.525765 273.312 
L 347.143975 273.312 
L 347.143975 186.548757 
L 345.525765 186.548757 
z
" clip-path="url(#paf426ec21c)" style="fill: #1f77b4"/>
   </g>
   <g id="patch_180">
    <path d="M 347.143975 273.312 
L 348.762186 273.312 
L 348.762186 194.159568 
L 347.143975 194.159568 
z
" clip-path="url(#paf426ec21c)" style="fill: #1f77b4"/>
   </g>
   <g id="patch_181">
    <path d="M 348.762186 273.312 
L 350.380396 273.312 
L 350.380396 193.398486 
L 348.762186 193.398486 
z
" clip-path="url(#paf426ec21c)" style="fill: #1f77b4"/>
   </g>
   <g id="patch_182">
    <path d="M 350.380396 273.312 
L 351.998606 273.312 
L 351.998606 187.309838 
L 350.380396 187.309838 
z
" clip-path="url(#paf426ec21c)" style="fill: #1f77b4"/>
   </g>
   <g id="patch_183">
    <path d="M 351.998606 273.312 
L 353.616816 273.312 
L 353.616816 193.398486 
L 351.998606 193.398486 
z
" clip-path="url(#paf426ec21c)" style="fill: #1f77b4"/>
   </g>
   <g id="patch_184">
    <path d="M 353.616816 273.312 
L 355.235026 273.312 
L 355.235026 206.336865 
L 353.616816 206.336865 
z
" clip-path="url(#paf426ec21c)" style="fill: #1f77b4"/>
   </g>
   <g id="patch_185">
    <path d="M 355.235026 273.312 
L 356.853236 273.312 
L 356.853236 204.053622 
L 355.235026 204.053622 
z
" clip-path="url(#paf426ec21c)" style="fill: #1f77b4"/>
   </g>
   <g id="patch_186">
    <path d="M 356.853236 273.312 
L 358.471446 273.312 
L 358.471446 216.992 
L 356.853236 216.992 
z
" clip-path="url(#paf426ec21c)" style="fill: #1f77b4"/>
   </g>
   <g id="patch_187">
    <path d="M 358.471446 273.312 
L 360.089657 273.312 
L 360.089657 211.664432 
L 358.471446 211.664432 
z
" clip-path="url(#paf426ec21c)" style="fill: #1f77b4"/>
   </g>
   <g id="patch_188">
    <path d="M 360.089657 273.312 
L 361.707867 273.312 
L 361.707867 211.664432 
L 360.089657 211.664432 
z
" clip-path="url(#paf426ec21c)" style="fill: #1f77b4"/>
   </g>
   <g id="patch_189">
    <path d="M 361.707867 273.312 
L 363.326077 273.312 
L 363.326077 226.124973 
L 361.707867 226.124973 
z
" clip-path="url(#paf426ec21c)" style="fill: #1f77b4"/>
   </g>
   <g id="patch_190">
    <path d="M 363.326077 273.312 
L 364.944287 273.312 
L 364.944287 223.080649 
L 363.326077 223.080649 
z
" clip-path="url(#paf426ec21c)" style="fill: #1f77b4"/>
   </g>
   <g id="patch_191">
    <path d="M 364.944287 273.312 
L 366.562497 273.312 
L 366.562497 224.602811 
L 364.944287 224.602811 
z
" clip-path="url(#paf426ec21c)" style="fill: #1f77b4"/>
   </g>
   <g id="patch_192">
    <path d="M 366.562497 273.312 
L 368.180707 273.312 
L 368.180707 228.408216 
L 366.562497 228.408216 
z
" clip-path="url(#paf426ec21c)" style="fill: #1f77b4"/>
   </g>
   <g id="patch_193">
    <path d="M 368.180707 273.312 
L 369.798918 273.312 
L 369.798918 235.257946 
L 368.180707 235.257946 
z
" clip-path="url(#paf426ec21c)" style="fill: #1f77b4"/>
   </g>
   <g id="patch_194">
    <path d="M 369.798918 273.312 
L 371.417128 273.312 
L 371.417128 238.30227 
L 369.798918 238.30227 
z
" clip-path="url(#paf426ec21c)" style="fill: #1f77b4"/>
   </g>
   <g id="patch_195">
    <path d="M 371.417128 273.312 
L 373.035338 273.312 
L 373.035338 241.346595 
L 371.417128 241.346595 
z
" clip-path="url(#paf426ec21c)" style="fill: #1f77b4"/>
   </g>
   <g id="patch_196">
    <path d="M 373.035338 273.312 
L 374.653548 273.312 
L 374.653548 243.629838 
L 373.035338 243.629838 
z
" clip-path="url(#paf426ec21c)" style="fill: #1f77b4"/>
   </g>
   <g id="patch_197">
    <path d="M 374.653548 273.312 
L 376.271758 273.312 
L 376.271758 248.957405 
L 374.653548 248.957405 
z
" clip-path="url(#paf426ec21c)" style="fill: #1f77b4"/>
   </g>
   <g id="patch_198">
    <path d="M 376.271758 273.312 
L 377.889968 273.312 
L 377.889968 251.240649 
L 376.271758 251.240649 
z
" clip-path="url(#paf426ec21c)" style="fill: #1f77b4"/>
   </g>
   <g id="patch_199">
    <path d="M 377.889968 273.312 
L 379.508179 273.312 
L 379.508179 258.851459 
L 377.889968 258.851459 
z
" clip-path="url(#paf426ec21c)" style="fill: #1f77b4"/>
   </g>
   <g id="patch_200">
    <path d="M 379.508179 273.312 
L 381.126389 273.312 
L 381.126389 267.223351 
L 379.508179 267.223351 
z
" clip-path="url(#paf426ec21c)" style="fill: #1f77b4"/>
   </g>
   <g id="patch_201">
    <path d="M 381.126389 273.312 
L 382.744599 273.312 
L 382.744599 271.028757 
L 381.126389 271.028757 
z
" clip-path="url(#paf426ec21c)" style="fill: #1f77b4"/>
   </g>
   <g id="patch_202">
    <path d="M 382.744599 273.312 
L 384.362809 273.312 
L 384.362809 268.745514 
L 382.744599 268.745514 
z
" clip-path="url(#paf426ec21c)" style="fill: #1f77b4"/>
   </g>
   <g id="matplotlib.axis_1">
    <g id="xtick_1">
     <g id="line2d_1">
      <defs>
       <path id="m2987dbc1fd" d="M 0 0 
L 0 3.5 
" style="stroke: #000000; stroke-width: 0.8"/>
      </defs>
      <g>
       <use xlink:href="#m2987dbc1fd" x="60.013977" y="273.312" style="stroke: #000000; stroke-width: 0.8"/>
      </g>
     </g>
     <g id="text_1">
      <!-- 0.0 -->
      <g transform="translate(52.062415 287.910437)scale(0.1 -0.1)">
       <defs>
        <path id="DejaVuSans-30" d="M 2034 4250 
Q 1547 4250 1301 3770 
Q 1056 3291 1056 2328 
Q 1056 1369 1301 889 
Q 1547 409 2034 409 
Q 2525 409 2770 889 
Q 3016 1369 3016 2328 
Q 3016 3291 2770 3770 
Q 2525 4250 2034 4250 
z
M 2034 4750 
Q 2819 4750 3233 4129 
Q 3647 3509 3647 2328 
Q 3647 1150 3233 529 
Q 2819 -91 2034 -91 
Q 1250 -91 836 529 
Q 422 1150 422 2328 
Q 422 3509 836 4129 
Q 1250 4750 2034 4750 
z
" transform="scale(0.015625)"/>
        <path id="DejaVuSans-2e" d="M 684 794 
L 1344 794 
L 1344 0 
L 684 0 
L 684 794 
z
" transform="scale(0.015625)"/>
       </defs>
       <use xlink:href="#DejaVuSans-30"/>
       <use xlink:href="#DejaVuSans-2e" x="63.623047"/>
       <use xlink:href="#DejaVuSans-30" x="95.410156"/>
      </g>
     </g>
    </g>
    <g id="xtick_2">
     <g id="line2d_2">
      <g>
       <use xlink:href="#m2987dbc1fd" x="101.350278" y="273.312" style="stroke: #000000; stroke-width: 0.8"/>
      </g>
     </g>
     <g id="text_2">
      <!-- 0.2 -->
      <g transform="translate(93.398715 287.910437)scale(0.1 -0.1)">
       <defs>
        <path id="DejaVuSans-32" d="M 1228 531 
L 3431 531 
L 3431 0 
L 469 0 
L 469 531 
Q 828 903 1448 1529 
Q 2069 2156 2228 2338 
Q 2531 2678 2651 2914 
Q 2772 3150 2772 3378 
Q 2772 3750 2511 3984 
Q 2250 4219 1831 4219 
Q 1534 4219 1204 4116 
Q 875 4013 500 3803 
L 500 4441 
Q 881 4594 1212 4672 
Q 1544 4750 1819 4750 
Q 2544 4750 2975 4387 
Q 3406 4025 3406 3419 
Q 3406 3131 3298 2873 
Q 3191 2616 2906 2266 
Q 2828 2175 2409 1742 
Q 1991 1309 1228 531 
z
" transform="scale(0.015625)"/>
       </defs>
       <use xlink:href="#DejaVuSans-30"/>
       <use xlink:href="#DejaVuSans-2e" x="63.623047"/>
       <use xlink:href="#DejaVuSans-32" x="95.410156"/>
      </g>
     </g>
    </g>
    <g id="xtick_3">
     <g id="line2d_3">
      <g>
       <use xlink:href="#m2987dbc1fd" x="142.686578" y="273.312" style="stroke: #000000; stroke-width: 0.8"/>
      </g>
     </g>
     <g id="text_3">
      <!-- 0.4 -->
      <g transform="translate(134.735016 287.910437)scale(0.1 -0.1)">
       <defs>
        <path id="DejaVuSans-34" d="M 2419 4116 
L 825 1625 
L 2419 1625 
L 2419 4116 
z
M 2253 4666 
L 3047 4666 
L 3047 1625 
L 3713 1625 
L 3713 1100 
L 3047 1100 
L 3047 0 
L 2419 0 
L 2419 1100 
L 313 1100 
L 313 1709 
L 2253 4666 
z
" transform="scale(0.015625)"/>
       </defs>
       <use xlink:href="#DejaVuSans-30"/>
       <use xlink:href="#DejaVuSans-2e" x="63.623047"/>
       <use xlink:href="#DejaVuSans-34" x="95.410156"/>
      </g>
     </g>
    </g>
    <g id="xtick_4">
     <g id="line2d_4">
      <g>
       <use xlink:href="#m2987dbc1fd" x="184.022879" y="273.312" style="stroke: #000000; stroke-width: 0.8"/>
      </g>
     </g>
     <g id="text_4">
      <!-- 0.6 -->
      <g transform="translate(176.071316 287.910437)scale(0.1 -0.1)">
       <defs>
        <path id="DejaVuSans-36" d="M 2113 2584 
Q 1688 2584 1439 2293 
Q 1191 2003 1191 1497 
Q 1191 994 1439 701 
Q 1688 409 2113 409 
Q 2538 409 2786 701 
Q 3034 994 3034 1497 
Q 3034 2003 2786 2293 
Q 2538 2584 2113 2584 
z
M 3366 4563 
L 3366 3988 
Q 3128 4100 2886 4159 
Q 2644 4219 2406 4219 
Q 1781 4219 1451 3797 
Q 1122 3375 1075 2522 
Q 1259 2794 1537 2939 
Q 1816 3084 2150 3084 
Q 2853 3084 3261 2657 
Q 3669 2231 3669 1497 
Q 3669 778 3244 343 
Q 2819 -91 2113 -91 
Q 1303 -91 875 529 
Q 447 1150 447 2328 
Q 447 3434 972 4092 
Q 1497 4750 2381 4750 
Q 2619 4750 2861 4703 
Q 3103 4656 3366 4563 
z
" transform="scale(0.015625)"/>
       </defs>
       <use xlink:href="#DejaVuSans-30"/>
       <use xlink:href="#DejaVuSans-2e" x="63.623047"/>
       <use xlink:href="#DejaVuSans-36" x="95.410156"/>
      </g>
     </g>
    </g>
    <g id="xtick_5">
     <g id="line2d_5">
      <g>
       <use xlink:href="#m2987dbc1fd" x="225.35918" y="273.312" style="stroke: #000000; stroke-width: 0.8"/>
      </g>
     </g>
     <g id="text_5">
      <!-- 0.8 -->
      <g transform="translate(217.407617 287.910437)scale(0.1 -0.1)">
       <defs>
        <path id="DejaVuSans-38" d="M 2034 2216 
Q 1584 2216 1326 1975 
Q 1069 1734 1069 1313 
Q 1069 891 1326 650 
Q 1584 409 2034 409 
Q 2484 409 2743 651 
Q 3003 894 3003 1313 
Q 3003 1734 2745 1975 
Q 2488 2216 2034 2216 
z
M 1403 2484 
Q 997 2584 770 2862 
Q 544 3141 544 3541 
Q 544 4100 942 4425 
Q 1341 4750 2034 4750 
Q 2731 4750 3128 4425 
Q 3525 4100 3525 3541 
Q 3525 3141 3298 2862 
Q 3072 2584 2669 2484 
Q 3125 2378 3379 2068 
Q 3634 1759 3634 1313 
Q 3634 634 3220 271 
Q 2806 -91 2034 -91 
Q 1263 -91 848 271 
Q 434 634 434 1313 
Q 434 1759 690 2068 
Q 947 2378 1403 2484 
z
M 1172 3481 
Q 1172 3119 1398 2916 
Q 1625 2713 2034 2713 
Q 2441 2713 2670 2916 
Q 2900 3119 2900 3481 
Q 2900 3844 2670 4047 
Q 2441 4250 2034 4250 
Q 1625 4250 1398 4047 
Q 1172 3844 1172 3481 
z
" transform="scale(0.015625)"/>
       </defs>
       <use xlink:href="#DejaVuSans-30"/>
       <use xlink:href="#DejaVuSans-2e" x="63.623047"/>
       <use xlink:href="#DejaVuSans-38" x="95.410156"/>
      </g>
     </g>
    </g>
    <g id="xtick_6">
     <g id="line2d_6">
      <g>
       <use xlink:href="#m2987dbc1fd" x="266.69548" y="273.312" style="stroke: #000000; stroke-width: 0.8"/>
      </g>
     </g>
     <g id="text_6">
      <!-- 1.0 -->
      <g transform="translate(258.743918 287.910437)scale(0.1 -0.1)">
       <defs>
        <path id="DejaVuSans-31" d="M 794 531 
L 1825 531 
L 1825 4091 
L 703 3866 
L 703 4441 
L 1819 4666 
L 2450 4666 
L 2450 531 
L 3481 531 
L 3481 0 
L 794 0 
L 794 531 
z
" transform="scale(0.015625)"/>
       </defs>
       <use xlink:href="#DejaVuSans-31"/>
       <use xlink:href="#DejaVuSans-2e" x="63.623047"/>
       <use xlink:href="#DejaVuSans-30" x="95.410156"/>
      </g>
     </g>
    </g>
    <g id="xtick_7">
     <g id="line2d_7">
      <g>
       <use xlink:href="#m2987dbc1fd" x="308.031781" y="273.312" style="stroke: #000000; stroke-width: 0.8"/>
      </g>
     </g>
     <g id="text_7">
      <!-- 1.2 -->
      <g transform="translate(300.080218 287.910437)scale(0.1 -0.1)">
       <use xlink:href="#DejaVuSans-31"/>
       <use xlink:href="#DejaVuSans-2e" x="63.623047"/>
       <use xlink:href="#DejaVuSans-32" x="95.410156"/>
      </g>
     </g>
    </g>
    <g id="xtick_8">
     <g id="line2d_8">
      <g>
       <use xlink:href="#m2987dbc1fd" x="349.368081" y="273.312" style="stroke: #000000; stroke-width: 0.8"/>
      </g>
     </g>
     <g id="text_8">
      <!-- 1.4 -->
      <g transform="translate(341.416519 287.910437)scale(0.1 -0.1)">
       <use xlink:href="#DejaVuSans-31"/>
       <use xlink:href="#DejaVuSans-2e" x="63.623047"/>
       <use xlink:href="#DejaVuSans-34" x="95.410156"/>
      </g>
     </g>
    </g>
    <g id="xtick_9">
     <g id="line2d_9">
      <g>
       <use xlink:href="#m2987dbc1fd" x="390.704382" y="273.312" style="stroke: #000000; stroke-width: 0.8"/>
      </g>
     </g>
     <g id="text_9">
      <!-- 1.6 -->
      <g transform="translate(382.752819 287.910437)scale(0.1 -0.1)">
       <use xlink:href="#DejaVuSans-31"/>
       <use xlink:href="#DejaVuSans-2e" x="63.623047"/>
       <use xlink:href="#DejaVuSans-36" x="95.410156"/>
      </g>
     </g>
    </g>
    <g id="text_10">
     <!-- Angle with normal (rad) -->
     <g transform="translate(163.023281 301.588562)scale(0.1 -0.1)">
      <defs>
       <path id="DejaVuSans-41" d="M 2188 4044 
L 1331 1722 
L 3047 1722 
L 2188 4044 
z
M 1831 4666 
L 2547 4666 
L 4325 0 
L 3669 0 
L 3244 1197 
L 1141 1197 
L 716 0 
L 50 0 
L 1831 4666 
z
" transform="scale(0.015625)"/>
       <path id="DejaVuSans-6e" d="M 3513 2113 
L 3513 0 
L 2938 0 
L 2938 2094 
Q 2938 2591 2744 2837 
Q 2550 3084 2163 3084 
Q 1697 3084 1428 2787 
Q 1159 2491 1159 1978 
L 1159 0 
L 581 0 
L 581 3500 
L 1159 3500 
L 1159 2956 
Q 1366 3272 1645 3428 
Q 1925 3584 2291 3584 
Q 2894 3584 3203 3211 
Q 3513 2838 3513 2113 
z
" transform="scale(0.015625)"/>
       <path id="DejaVuSans-67" d="M 2906 1791 
Q 2906 2416 2648 2759 
Q 2391 3103 1925 3103 
Q 1463 3103 1205 2759 
Q 947 2416 947 1791 
Q 947 1169 1205 825 
Q 1463 481 1925 481 
Q 2391 481 2648 825 
Q 2906 1169 2906 1791 
z
M 3481 434 
Q 3481 -459 3084 -895 
Q 2688 -1331 1869 -1331 
Q 1566 -1331 1297 -1286 
Q 1028 -1241 775 -1147 
L 775 -588 
Q 1028 -725 1275 -790 
Q 1522 -856 1778 -856 
Q 2344 -856 2625 -561 
Q 2906 -266 2906 331 
L 2906 616 
Q 2728 306 2450 153 
Q 2172 0 1784 0 
Q 1141 0 747 490 
Q 353 981 353 1791 
Q 353 2603 747 3093 
Q 1141 3584 1784 3584 
Q 2172 3584 2450 3431 
Q 2728 3278 2906 2969 
L 2906 3500 
L 3481 3500 
L 3481 434 
z
" transform="scale(0.015625)"/>
       <path id="DejaVuSans-6c" d="M 603 4863 
L 1178 4863 
L 1178 0 
L 603 0 
L 603 4863 
z
" transform="scale(0.015625)"/>
       <path id="DejaVuSans-65" d="M 3597 1894 
L 3597 1613 
L 953 1613 
Q 991 1019 1311 708 
Q 1631 397 2203 397 
Q 2534 397 2845 478 
Q 3156 559 3463 722 
L 3463 178 
Q 3153 47 2828 -22 
Q 2503 -91 2169 -91 
Q 1331 -91 842 396 
Q 353 884 353 1716 
Q 353 2575 817 3079 
Q 1281 3584 2069 3584 
Q 2775 3584 3186 3129 
Q 3597 2675 3597 1894 
z
M 3022 2063 
Q 3016 2534 2758 2815 
Q 2500 3097 2075 3097 
Q 1594 3097 1305 2825 
Q 1016 2553 972 2059 
L 3022 2063 
z
" transform="scale(0.015625)"/>
       <path id="DejaVuSans-20" transform="scale(0.015625)"/>
       <path id="DejaVuSans-77" d="M 269 3500 
L 844 3500 
L 1563 769 
L 2278 3500 
L 2956 3500 
L 3675 769 
L 4391 3500 
L 4966 3500 
L 4050 0 
L 3372 0 
L 2619 2869 
L 1863 0 
L 1184 0 
L 269 3500 
z
" transform="scale(0.015625)"/>
       <path id="DejaVuSans-69" d="M 603 3500 
L 1178 3500 
L 1178 0 
L 603 0 
L 603 3500 
z
M 603 4863 
L 1178 4863 
L 1178 4134 
L 603 4134 
L 603 4863 
z
" transform="scale(0.015625)"/>
       <path id="DejaVuSans-74" d="M 1172 4494 
L 1172 3500 
L 2356 3500 
L 2356 3053 
L 1172 3053 
L 1172 1153 
Q 1172 725 1289 603 
Q 1406 481 1766 481 
L 2356 481 
L 2356 0 
L 1766 0 
Q 1100 0 847 248 
Q 594 497 594 1153 
L 594 3053 
L 172 3053 
L 172 3500 
L 594 3500 
L 594 4494 
L 1172 4494 
z
" transform="scale(0.015625)"/>
       <path id="DejaVuSans-68" d="M 3513 2113 
L 3513 0 
L 2938 0 
L 2938 2094 
Q 2938 2591 2744 2837 
Q 2550 3084 2163 3084 
Q 1697 3084 1428 2787 
Q 1159 2491 1159 1978 
L 1159 0 
L 581 0 
L 581 4863 
L 1159 4863 
L 1159 2956 
Q 1366 3272 1645 3428 
Q 1925 3584 2291 3584 
Q 2894 3584 3203 3211 
Q 3513 2838 3513 2113 
z
" transform="scale(0.015625)"/>
       <path id="DejaVuSans-6f" d="M 1959 3097 
Q 1497 3097 1228 2736 
Q 959 2375 959 1747 
Q 959 1119 1226 758 
Q 1494 397 1959 397 
Q 2419 397 2687 759 
Q 2956 1122 2956 1747 
Q 2956 2369 2687 2733 
Q 2419 3097 1959 3097 
z
M 1959 3584 
Q 2709 3584 3137 3096 
Q 3566 2609 3566 1747 
Q 3566 888 3137 398 
Q 2709 -91 1959 -91 
Q 1206 -91 779 398 
Q 353 888 353 1747 
Q 353 2609 779 3096 
Q 1206 3584 1959 3584 
z
" transform="scale(0.015625)"/>
       <path id="DejaVuSans-72" d="M 2631 2963 
Q 2534 3019 2420 3045 
Q 2306 3072 2169 3072 
Q 1681 3072 1420 2755 
Q 1159 2438 1159 1844 
L 1159 0 
L 581 0 
L 581 3500 
L 1159 3500 
L 1159 2956 
Q 1341 3275 1631 3429 
Q 1922 3584 2338 3584 
Q 2397 3584 2469 3576 
Q 2541 3569 2628 3553 
L 2631 2963 
z
" transform="scale(0.015625)"/>
       <path id="DejaVuSans-6d" d="M 3328 2828 
Q 3544 3216 3844 3400 
Q 4144 3584 4550 3584 
Q 5097 3584 5394 3201 
Q 5691 2819 5691 2113 
L 5691 0 
L 5113 0 
L 5113 2094 
Q 5113 2597 4934 2840 
Q 4756 3084 4391 3084 
Q 3944 3084 3684 2787 
Q 3425 2491 3425 1978 
L 3425 0 
L 2847 0 
L 2847 2094 
Q 2847 2600 2669 2842 
Q 2491 3084 2119 3084 
Q 1678 3084 1418 2786 
Q 1159 2488 1159 1978 
L 1159 0 
L 581 0 
L 581 3500 
L 1159 3500 
L 1159 2956 
Q 1356 3278 1631 3431 
Q 1906 3584 2284 3584 
Q 2666 3584 2933 3390 
Q 3200 3197 3328 2828 
z
" transform="scale(0.015625)"/>
       <path id="DejaVuSans-61" d="M 2194 1759 
Q 1497 1759 1228 1600 
Q 959 1441 959 1056 
Q 959 750 1161 570 
Q 1363 391 1709 391 
Q 2188 391 2477 730 
Q 2766 1069 2766 1631 
L 2766 1759 
L 2194 1759 
z
M 3341 1997 
L 3341 0 
L 2766 0 
L 2766 531 
Q 2569 213 2275 61 
Q 1981 -91 1556 -91 
Q 1019 -91 701 211 
Q 384 513 384 1019 
Q 384 1609 779 1909 
Q 1175 2209 1959 2209 
L 2766 2209 
L 2766 2266 
Q 2766 2663 2505 2880 
Q 2244 3097 1772 3097 
Q 1472 3097 1187 3025 
Q 903 2953 641 2809 
L 641 3341 
Q 956 3463 1253 3523 
Q 1550 3584 1831 3584 
Q 2591 3584 2966 3190 
Q 3341 2797 3341 1997 
z
" transform="scale(0.015625)"/>
       <path id="DejaVuSans-28" d="M 1984 4856 
Q 1566 4138 1362 3434 
Q 1159 2731 1159 2009 
Q 1159 1288 1364 580 
Q 1569 -128 1984 -844 
L 1484 -844 
Q 1016 -109 783 600 
Q 550 1309 550 2009 
Q 550 2706 781 3412 
Q 1013 4119 1484 4856 
L 1984 4856 
z
" transform="scale(0.015625)"/>
       <path id="DejaVuSans-64" d="M 2906 2969 
L 2906 4863 
L 3481 4863 
L 3481 0 
L 2906 0 
L 2906 525 
Q 2725 213 2448 61 
Q 2172 -91 1784 -91 
Q 1150 -91 751 415 
Q 353 922 353 1747 
Q 353 2572 751 3078 
Q 1150 3584 1784 3584 
Q 2172 3584 2448 3432 
Q 2725 3281 2906 2969 
z
M 947 1747 
Q 947 1113 1208 752 
Q 1469 391 1925 391 
Q 2381 391 2643 752 
Q 2906 1113 2906 1747 
Q 2906 2381 2643 2742 
Q 2381 3103 1925 3103 
Q 1469 3103 1208 2742 
Q 947 2381 947 1747 
z
" transform="scale(0.015625)"/>
       <path id="DejaVuSans-29" d="M 513 4856 
L 1013 4856 
Q 1481 4119 1714 3412 
Q 1947 2706 1947 2009 
Q 1947 1309 1714 600 
Q 1481 -109 1013 -844 
L 513 -844 
Q 928 -128 1133 580 
Q 1338 1288 1338 2009 
Q 1338 2731 1133 3434 
Q 928 4138 513 4856 
z
" transform="scale(0.015625)"/>
      </defs>
      <use xlink:href="#DejaVuSans-41"/>
      <use xlink:href="#DejaVuSans-6e" x="68.408203"/>
      <use xlink:href="#DejaVuSans-67" x="131.787109"/>
      <use xlink:href="#DejaVuSans-6c" x="195.263672"/>
      <use xlink:href="#DejaVuSans-65" x="223.046875"/>
      <use xlink:href="#DejaVuSans-20" x="284.570312"/>
      <use xlink:href="#DejaVuSans-77" x="316.357422"/>
      <use xlink:href="#DejaVuSans-69" x="398.144531"/>
      <use xlink:href="#DejaVuSans-74" x="425.927734"/>
      <use xlink:href="#DejaVuSans-68" x="465.136719"/>
      <use xlink:href="#DejaVuSans-20" x="528.515625"/>
      <use xlink:href="#DejaVuSans-6e" x="560.302734"/>
      <use xlink:href="#DejaVuSans-6f" x="623.681641"/>
      <use xlink:href="#DejaVuSans-72" x="684.863281"/>
      <use xlink:href="#DejaVuSans-6d" x="724.226562"/>
      <use xlink:href="#DejaVuSans-61" x="821.638672"/>
      <use xlink:href="#DejaVuSans-6c" x="882.917969"/>
      <use xlink:href="#DejaVuSans-20" x="910.701172"/>
      <use xlink:href="#DejaVuSans-28" x="942.488281"/>
      <use xlink:href="#DejaVuSans-72" x="981.501953"/>
      <use xlink:href="#DejaVuSans-61" x="1022.615234"/>
      <use xlink:href="#DejaVuSans-64" x="1083.894531"/>
      <use xlink:href="#DejaVuSans-29" x="1147.371094"/>
     </g>
    </g>
   </g>
   <g id="matplotlib.axis_2">
    <g id="ytick_1">
     <g id="line2d_10">
      <defs>
       <path id="m9c4aa7e650" d="M 0 0 
L -3.5 0 
" style="stroke: #000000; stroke-width: 0.8"/>
      </defs>
      <g>
       <use xlink:href="#m9c4aa7e650" x="43.78125" y="273.312" style="stroke: #000000; stroke-width: 0.8"/>
      </g>
     </g>
     <g id="text_11">
      <!-- 0.0 -->
      <g transform="translate(20.878125 277.111219)scale(0.1 -0.1)">
       <use xlink:href="#DejaVuSans-30"/>
       <use xlink:href="#DejaVuSans-2e" x="63.623047"/>
       <use xlink:href="#DejaVuSans-30" x="95.410156"/>
      </g>
     </g>
    </g>
    <g id="ytick_2">
     <g id="line2d_11">
      <g>
       <use xlink:href="#m9c4aa7e650" x="43.78125" y="225.641004" style="stroke: #000000; stroke-width: 0.8"/>
      </g>
     </g>
     <g id="text_12">
      <!-- 0.2 -->
      <g transform="translate(20.878125 229.440223)scale(0.1 -0.1)">
       <use xlink:href="#DejaVuSans-30"/>
       <use xlink:href="#DejaVuSans-2e" x="63.623047"/>
       <use xlink:href="#DejaVuSans-32" x="95.410156"/>
      </g>
     </g>
    </g>
    <g id="ytick_3">
     <g id="line2d_12">
      <g>
       <use xlink:href="#m9c4aa7e650" x="43.78125" y="177.970008" style="stroke: #000000; stroke-width: 0.8"/>
      </g>
     </g>
     <g id="text_13">
      <!-- 0.4 -->
      <g transform="translate(20.878125 181.769227)scale(0.1 -0.1)">
       <use xlink:href="#DejaVuSans-30"/>
       <use xlink:href="#DejaVuSans-2e" x="63.623047"/>
       <use xlink:href="#DejaVuSans-34" x="95.410156"/>
      </g>
     </g>
    </g>
    <g id="ytick_4">
     <g id="line2d_13">
      <g>
       <use xlink:href="#m9c4aa7e650" x="43.78125" y="130.299012" style="stroke: #000000; stroke-width: 0.8"/>
      </g>
     </g>
     <g id="text_14">
      <!-- 0.6 -->
      <g transform="translate(20.878125 134.098231)scale(0.1 -0.1)">
       <use xlink:href="#DejaVuSans-30"/>
       <use xlink:href="#DejaVuSans-2e" x="63.623047"/>
       <use xlink:href="#DejaVuSans-36" x="95.410156"/>
      </g>
     </g>
    </g>
    <g id="ytick_5">
     <g id="line2d_14">
      <g>
       <use xlink:href="#m9c4aa7e650" x="43.78125" y="82.628016" style="stroke: #000000; stroke-width: 0.8"/>
      </g>
     </g>
     <g id="text_15">
      <!-- 0.8 -->
      <g transform="translate(20.878125 86.427234)scale(0.1 -0.1)">
       <use xlink:href="#DejaVuSans-30"/>
       <use xlink:href="#DejaVuSans-2e" x="63.623047"/>
       <use xlink:href="#DejaVuSans-38" x="95.410156"/>
      </g>
     </g>
    </g>
    <g id="ytick_6">
     <g id="line2d_15">
      <g>
       <use xlink:href="#m9c4aa7e650" x="43.78125" y="34.95702" style="stroke: #000000; stroke-width: 0.8"/>
      </g>
     </g>
     <g id="text_16">
      <!-- 1.0 -->
      <g transform="translate(20.878125 38.756238)scale(0.1 -0.1)">
       <use xlink:href="#DejaVuSans-31"/>
       <use xlink:href="#DejaVuSans-2e" x="63.623047"/>
       <use xlink:href="#DejaVuSans-30" x="95.410156"/>
      </g>
     </g>
    </g>
    <g id="text_17">
     <!-- Probability density -->
     <g transform="translate(14.798438 186.606781)rotate(-90)scale(0.1 -0.1)">
      <defs>
       <path id="DejaVuSans-50" d="M 1259 4147 
L 1259 2394 
L 2053 2394 
Q 2494 2394 2734 2622 
Q 2975 2850 2975 3272 
Q 2975 3691 2734 3919 
Q 2494 4147 2053 4147 
L 1259 4147 
z
M 628 4666 
L 2053 4666 
Q 2838 4666 3239 4311 
Q 3641 3956 3641 3272 
Q 3641 2581 3239 2228 
Q 2838 1875 2053 1875 
L 1259 1875 
L 1259 0 
L 628 0 
L 628 4666 
z
" transform="scale(0.015625)"/>
       <path id="DejaVuSans-62" d="M 3116 1747 
Q 3116 2381 2855 2742 
Q 2594 3103 2138 3103 
Q 1681 3103 1420 2742 
Q 1159 2381 1159 1747 
Q 1159 1113 1420 752 
Q 1681 391 2138 391 
Q 2594 391 2855 752 
Q 3116 1113 3116 1747 
z
M 1159 2969 
Q 1341 3281 1617 3432 
Q 1894 3584 2278 3584 
Q 2916 3584 3314 3078 
Q 3713 2572 3713 1747 
Q 3713 922 3314 415 
Q 2916 -91 2278 -91 
Q 1894 -91 1617 61 
Q 1341 213 1159 525 
L 1159 0 
L 581 0 
L 581 4863 
L 1159 4863 
L 1159 2969 
z
" transform="scale(0.015625)"/>
       <path id="DejaVuSans-79" d="M 2059 -325 
Q 1816 -950 1584 -1140 
Q 1353 -1331 966 -1331 
L 506 -1331 
L 506 -850 
L 844 -850 
Q 1081 -850 1212 -737 
Q 1344 -625 1503 -206 
L 1606 56 
L 191 3500 
L 800 3500 
L 1894 763 
L 2988 3500 
L 3597 3500 
L 2059 -325 
z
" transform="scale(0.015625)"/>
       <path id="DejaVuSans-73" d="M 2834 3397 
L 2834 2853 
Q 2591 2978 2328 3040 
Q 2066 3103 1784 3103 
Q 1356 3103 1142 2972 
Q 928 2841 928 2578 
Q 928 2378 1081 2264 
Q 1234 2150 1697 2047 
L 1894 2003 
Q 2506 1872 2764 1633 
Q 3022 1394 3022 966 
Q 3022 478 2636 193 
Q 2250 -91 1575 -91 
Q 1294 -91 989 -36 
Q 684 19 347 128 
L 347 722 
Q 666 556 975 473 
Q 1284 391 1588 391 
Q 1994 391 2212 530 
Q 2431 669 2431 922 
Q 2431 1156 2273 1281 
Q 2116 1406 1581 1522 
L 1381 1569 
Q 847 1681 609 1914 
Q 372 2147 372 2553 
Q 372 3047 722 3315 
Q 1072 3584 1716 3584 
Q 2034 3584 2315 3537 
Q 2597 3491 2834 3397 
z
" transform="scale(0.015625)"/>
      </defs>
      <use xlink:href="#DejaVuSans-50"/>
      <use xlink:href="#DejaVuSans-72" x="58.552734"/>
      <use xlink:href="#DejaVuSans-6f" x="97.416016"/>
      <use xlink:href="#DejaVuSans-62" x="158.597656"/>
      <use xlink:href="#DejaVuSans-61" x="222.074219"/>
      <use xlink:href="#DejaVuSans-62" x="283.353516"/>
      <use xlink:href="#DejaVuSans-69" x="346.830078"/>
      <use xlink:href="#DejaVuSans-6c" x="374.613281"/>
      <use xlink:href="#DejaVuSans-69" x="402.396484"/>
      <use xlink:href="#DejaVuSans-74" x="430.179688"/>
      <use xlink:href="#DejaVuSans-79" x="469.388672"/>
      <use xlink:href="#DejaVuSans-20" x="528.568359"/>
      <use xlink:href="#DejaVuSans-64" x="560.355469"/>
      <use xlink:href="#DejaVuSans-65" x="623.832031"/>
      <use xlink:href="#DejaVuSans-6e" x="685.355469"/>
      <use xlink:href="#DejaVuSans-73" x="748.734375"/>
      <use xlink:href="#DejaVuSans-69" x="800.833984"/>
      <use xlink:href="#DejaVuSans-74" x="828.617188"/>
      <use xlink:href="#DejaVuSans-79" x="867.826172"/>
     </g>
    </g>
   </g>
   <g id="line2d_16">
    <path d="M 60.013977 273.312 
L 79.512749 228.604554 
L 89.912094 205.310143 
L 98.686541 186.18131 
L 106.486049 169.700739 
L 113.635599 155.109544 
L 120.135189 142.333798 
L 126.3098 130.67583 
L 132.159432 120.100372 
L 137.684084 110.562524 
L 142.883756 102.01006 
L 148.083429 93.891185 
L 152.958121 86.691819 
L 157.507835 80.346681 
L 162.057548 74.375511 
L 166.282282 69.175834 
L 170.507016 64.317282 
L 174.73175 59.807976 
L 178.631504 55.962046 
L 182.531258 52.425602 
L 186.431012 49.203678 
L 190.005787 46.530471 
L 193.580562 44.128607 
L 197.155337 42.00096 
L 200.730112 40.150075 
L 203.979907 38.709488 
L 207.229702 37.500889 
L 210.479497 36.525474 
L 213.729293 35.784206 
L 216.979088 35.277819 
L 220.228883 35.006813 
L 223.478678 34.971457 
L 226.728474 35.171786 
L 229.978269 35.6076 
L 233.228064 36.27847 
L 236.477859 37.183732 
L 239.727655 38.322491 
L 242.97745 39.693621 
L 246.227245 41.295765 
L 249.80202 43.323049 
L 253.376795 45.625513 
L 256.951569 48.200402 
L 260.526344 51.044637 
L 264.426098 54.450618 
L 268.325853 58.168236 
L 272.225607 62.192197 
L 276.450341 66.890532 
L 280.675075 71.933812 
L 284.899809 77.31361 
L 289.449522 83.473256 
L 293.999235 90.00081 
L 298.873928 97.388498 
L 304.073601 105.699663 
L 309.273273 114.435078 
L 314.797925 124.156562 
L 320.647556 134.913815 
L 326.822167 146.748938 
L 333.321758 159.694128 
L 340.471307 174.450749 
L 348.270816 191.08584 
L 357.045263 210.355092 
L 367.444608 233.768793 
L 382.068687 267.316122 
L 384.668523 273.312 
L 384.668523 273.312 
" clip-path="url(#paf426ec21c)" style="fill: none; stroke: #ff7f0e; stroke-width: 1.5; stroke-linecap: square"/>
   </g>
   <g id="patch_203">
    <path d="M 43.78125 273.312 
L 43.78125 7.2 
" style="fill: none; stroke: #000000; stroke-width: 0.8; stroke-linejoin: miter; stroke-linecap: square"/>
   </g>
   <g id="patch_204">
    <path d="M 400.90125 273.312 
L 400.90125 7.2 
" style="fill: none; stroke: #000000; stroke-width: 0.8; stroke-linejoin: miter; stroke-linecap: square"/>
   </g>
   <g id="patch_205">
    <path d="M 43.78125 273.312 
L 400.90125 273.312 
" style="fill: none; stroke: #000000; stroke-width: 0.8; stroke-linejoin: miter; stroke-linecap: square"/>
   </g>
   <g id="patch_206">
    <path d="M 43.78125 7.2 
L 400.90125 7.2 
" style="fill: none; stroke: #000000; stroke-width: 0.8; stroke-linejoin: miter; stroke-linecap: square"/>
   </g>
  </g>
 </g>
 <defs>
  <clipPath id="paf426ec21c">
   <rect x="43.78125" y="7.2" width="357.12" height="266.112"/>
  </clipPath>
 </defs>
</svg>
