<?xml version="1.0" encoding="utf-8" standalone="no"?>
<!DOCTYPE svg PUBLIC "-//W3C//DTD SVG 1.1//EN"
  "http://www.w3.org/Graphics/SVG/1.1/DTD/svg11.dtd">
<svg xmlns:xlink="http://www.w3.org/1999/xlink" width="414.46375pt" height="310.86825pt" viewBox="0 0 414.46375 310.86825" xmlns="http://www.w3.org/2000/svg" version="1.1">
 <metadata>
  <rdf:RDF xmlns:dc="http://purl.org/dc/elements/1.1/" xmlns:cc="http://creativecommons.org/ns#" xmlns:rdf="http://www.w3.org/1999/02/22-rdf-syntax-ns#">
   <cc:Work>
    <dc:type rdf:resource="http://purl.org/dc/dcmitype/StillImage"/>
    <dc:date>2022-05-03T16:37:32.106386</dc:date>
    <dc:format>image/svg+xml</dc:format>
    <dc:creator>
     <cc:Agent>
      <dc:title>Matplotlib v3.5.1, https://matplotlib.org/</dc:title>
     </cc:Agent>
    </dc:creator>
   </cc:Work>
  </rdf:RDF>
 </metadata>
 <defs>
  <style type="text/css">*{stroke-linejoin: round; stroke-linecap: butt}</style>
 </defs>
 <g id="figure_1">
  <g id="patch_1">
   <path d="M 0 310.86825 
L 414.46375 310.86825 
L 414.46375 0 
L 0 0 
z
" style="fill: #ffffff"/>
  </g>
  <g id="axes_1">
   <g id="patch_2">
    <path d="M 50.14375 273.312 
L 407.26375 273.312 
L 407.26375 7.2 
L 50.14375 7.2 
z
" style="fill: #ffffff"/>
   </g>
   <g id="patch_3">
    <path d="M 66.856691 273.312 
L 68.477553 273.312 
L 68.477553 270.932282 
L 66.856691 270.932282 
z
" clip-path="url(#p8ba50d50a5)" style="fill: #1f77b4"/>
   </g>
   <g id="patch_4">
    <path d="M 68.477553 273.312 
L 70.098415 273.312 
L 70.098415 271.527211 
L 68.477553 271.527211 
z
" clip-path="url(#p8ba50d50a5)" style="fill: #1f77b4"/>
   </g>
   <g id="patch_5">
    <path d="M 70.098415 273.312 
L 71.719278 273.312 
L 71.719278 272.122141 
L 70.098415 272.122141 
z
" clip-path="url(#p8ba50d50a5)" style="fill: #1f77b4"/>
   </g>
   <g id="patch_6">
    <path d="M 71.719278 273.312 
L 73.34014 273.312 
L 73.34014 268.552563 
L 71.719278 268.552563 
z
" clip-path="url(#p8ba50d50a5)" style="fill: #1f77b4"/>
   </g>
   <g id="patch_7">
    <path d="M 73.34014 273.312 
L 74.961002 273.312 
L 74.961002 272.122141 
L 73.34014 272.122141 
z
" clip-path="url(#p8ba50d50a5)" style="fill: #1f77b4"/>
   </g>
   <g id="patch_8">
    <path d="M 74.961002 273.312 
L 76.581864 273.312 
L 76.581864 264.982986 
L 74.961002 264.982986 
z
" clip-path="url(#p8ba50d50a5)" style="fill: #1f77b4"/>
   </g>
   <g id="patch_9">
    <path d="M 76.581864 273.312 
L 78.202726 273.312 
L 78.202726 262.008338 
L 76.581864 262.008338 
z
" clip-path="url(#p8ba50d50a5)" style="fill: #1f77b4"/>
   </g>
   <g id="patch_10">
    <path d="M 78.202726 273.312 
L 79.823588 273.312 
L 79.823588 264.388056 
L 78.202726 264.388056 
z
" clip-path="url(#p8ba50d50a5)" style="fill: #1f77b4"/>
   </g>
   <g id="patch_11">
    <path d="M 79.823588 273.312 
L 81.444451 273.312 
L 81.444451 261.413408 
L 79.823588 261.413408 
z
" clip-path="url(#p8ba50d50a5)" style="fill: #1f77b4"/>
   </g>
   <g id="patch_12">
    <path d="M 81.444451 273.312 
L 83.065313 273.312 
L 83.065313 259.62862 
L 81.444451 259.62862 
z
" clip-path="url(#p8ba50d50a5)" style="fill: #1f77b4"/>
   </g>
   <g id="patch_13">
    <path d="M 83.065313 273.312 
L 84.686175 273.312 
L 84.686175 256.059042 
L 83.065313 256.059042 
z
" clip-path="url(#p8ba50d50a5)" style="fill: #1f77b4"/>
   </g>
   <g id="patch_14">
    <path d="M 84.686175 273.312 
L 86.307037 273.312 
L 86.307037 260.818479 
L 84.686175 260.818479 
z
" clip-path="url(#p8ba50d50a5)" style="fill: #1f77b4"/>
   </g>
   <g id="patch_15">
    <path d="M 86.307037 273.312 
L 87.927899 273.312 
L 87.927899 255.464113 
L 86.307037 255.464113 
z
" clip-path="url(#p8ba50d50a5)" style="fill: #1f77b4"/>
   </g>
   <g id="patch_16">
    <path d="M 87.927899 273.312 
L 89.548761 273.312 
L 89.548761 253.679324 
L 87.927899 253.679324 
z
" clip-path="url(#p8ba50d50a5)" style="fill: #1f77b4"/>
   </g>
   <g id="patch_17">
    <path d="M 89.548761 273.312 
L 91.169624 273.312 
L 91.169624 257.248901 
L 89.548761 257.248901 
z
" clip-path="url(#p8ba50d50a5)" style="fill: #1f77b4"/>
   </g>
   <g id="patch_18">
    <path d="M 91.169624 273.312 
L 92.790486 273.312 
L 92.790486 250.704676 
L 91.169624 250.704676 
z
" clip-path="url(#p8ba50d50a5)" style="fill: #1f77b4"/>
   </g>
   <g id="patch_19">
    <path d="M 92.790486 273.312 
L 94.411348 273.312 
L 94.411348 253.084394 
L 92.790486 253.084394 
z
" clip-path="url(#p8ba50d50a5)" style="fill: #1f77b4"/>
   </g>
   <g id="patch_20">
    <path d="M 94.411348 273.312 
L 96.03221 273.312 
L 96.03221 248.919887 
L 94.411348 248.919887 
z
" clip-path="url(#p8ba50d50a5)" style="fill: #1f77b4"/>
   </g>
   <g id="patch_21">
    <path d="M 96.03221 273.312 
L 97.653072 273.312 
L 97.653072 247.730028 
L 96.03221 247.730028 
z
" clip-path="url(#p8ba50d50a5)" style="fill: #1f77b4"/>
   </g>
   <g id="patch_22">
    <path d="M 97.653072 273.312 
L 99.273934 273.312 
L 99.273934 250.109746 
L 97.653072 250.109746 
z
" clip-path="url(#p8ba50d50a5)" style="fill: #1f77b4"/>
   </g>
   <g id="patch_23">
    <path d="M 99.273934 273.312 
L 100.894797 273.312 
L 100.894797 248.919887 
L 99.273934 248.919887 
z
" clip-path="url(#p8ba50d50a5)" style="fill: #1f77b4"/>
   </g>
   <g id="patch_24">
    <path d="M 100.894797 273.312 
L 102.515659 273.312 
L 102.515659 248.324958 
L 100.894797 248.324958 
z
" clip-path="url(#p8ba50d50a5)" style="fill: #1f77b4"/>
   </g>
   <g id="patch_25">
    <path d="M 102.515659 273.312 
L 104.136521 273.312 
L 104.136521 239.401014 
L 102.515659 239.401014 
z
" clip-path="url(#p8ba50d50a5)" style="fill: #1f77b4"/>
   </g>
   <g id="patch_26">
    <path d="M 104.136521 273.312 
L 105.757383 273.312 
L 105.757383 247.135099 
L 104.136521 247.135099 
z
" clip-path="url(#p8ba50d50a5)" style="fill: #1f77b4"/>
   </g>
   <g id="patch_27">
    <path d="M 105.757383 273.312 
L 107.378245 273.312 
L 107.378245 238.806085 
L 105.757383 238.806085 
z
" clip-path="url(#p8ba50d50a5)" style="fill: #1f77b4"/>
   </g>
   <g id="patch_28">
    <path d="M 107.378245 273.312 
L 108.999107 273.312 
L 108.999107 245.945239 
L 107.378245 245.945239 
z
" clip-path="url(#p8ba50d50a5)" style="fill: #1f77b4"/>
   </g>
   <g id="patch_29">
    <path d="M 108.999107 273.312 
L 110.61997 273.312 
L 110.61997 243.565521 
L 108.999107 243.565521 
z
" clip-path="url(#p8ba50d50a5)" style="fill: #1f77b4"/>
   </g>
   <g id="patch_30">
    <path d="M 110.61997 273.312 
L 112.240832 273.312 
L 112.240832 235.831437 
L 110.61997 235.831437 
z
" clip-path="url(#p8ba50d50a5)" style="fill: #1f77b4"/>
   </g>
   <g id="patch_31">
    <path d="M 112.240832 273.312 
L 113.861694 273.312 
L 113.861694 241.780732 
L 112.240832 241.780732 
z
" clip-path="url(#p8ba50d50a5)" style="fill: #1f77b4"/>
   </g>
   <g id="patch_32">
    <path d="M 113.861694 273.312 
L 115.482556 273.312 
L 115.482556 238.806085 
L 113.861694 238.806085 
z
" clip-path="url(#p8ba50d50a5)" style="fill: #1f77b4"/>
   </g>
   <g id="patch_33">
    <path d="M 115.482556 273.312 
L 117.103418 273.312 
L 117.103418 229.882141 
L 115.482556 229.882141 
z
" clip-path="url(#p8ba50d50a5)" style="fill: #1f77b4"/>
   </g>
   <g id="patch_34">
    <path d="M 117.103418 273.312 
L 118.72428 273.312 
L 118.72428 230.47707 
L 117.103418 230.47707 
z
" clip-path="url(#p8ba50d50a5)" style="fill: #1f77b4"/>
   </g>
   <g id="patch_35">
    <path d="M 118.72428 273.312 
L 120.345143 273.312 
L 120.345143 234.046648 
L 118.72428 234.046648 
z
" clip-path="url(#p8ba50d50a5)" style="fill: #1f77b4"/>
   </g>
   <g id="patch_36">
    <path d="M 120.345143 273.312 
L 121.966005 273.312 
L 121.966005 234.641577 
L 120.345143 234.641577 
z
" clip-path="url(#p8ba50d50a5)" style="fill: #1f77b4"/>
   </g>
   <g id="patch_37">
    <path d="M 121.966005 273.312 
L 123.586867 273.312 
L 123.586867 226.312563 
L 121.966005 226.312563 
z
" clip-path="url(#p8ba50d50a5)" style="fill: #1f77b4"/>
   </g>
   <g id="patch_38">
    <path d="M 123.586867 273.312 
L 125.207729 273.312 
L 125.207729 234.641577 
L 123.586867 234.641577 
z
" clip-path="url(#p8ba50d50a5)" style="fill: #1f77b4"/>
   </g>
   <g id="patch_39">
    <path d="M 125.207729 273.312 
L 126.828591 273.312 
L 126.828591 230.47707 
L 125.207729 230.47707 
z
" clip-path="url(#p8ba50d50a5)" style="fill: #1f77b4"/>
   </g>
   <g id="patch_40">
    <path d="M 126.828591 273.312 
L 128.449453 273.312 
L 128.449453 226.312563 
L 126.828591 226.312563 
z
" clip-path="url(#p8ba50d50a5)" style="fill: #1f77b4"/>
   </g>
   <g id="patch_41">
    <path d="M 128.449453 273.312 
L 130.070316 273.312 
L 130.070316 229.882141 
L 128.449453 229.882141 
z
" clip-path="url(#p8ba50d50a5)" style="fill: #1f77b4"/>
   </g>
   <g id="patch_42">
    <path d="M 130.070316 273.312 
L 131.691178 273.312 
L 131.691178 226.312563 
L 130.070316 226.312563 
z
" clip-path="url(#p8ba50d50a5)" style="fill: #1f77b4"/>
   </g>
   <g id="patch_43">
    <path d="M 131.691178 273.312 
L 133.31204 273.312 
L 133.31204 227.502423 
L 131.691178 227.502423 
z
" clip-path="url(#p8ba50d50a5)" style="fill: #1f77b4"/>
   </g>
   <g id="patch_44">
    <path d="M 133.31204 273.312 
L 134.932902 273.312 
L 134.932902 222.148056 
L 133.31204 222.148056 
z
" clip-path="url(#p8ba50d50a5)" style="fill: #1f77b4"/>
   </g>
   <g id="patch_45">
    <path d="M 134.932902 273.312 
L 136.553764 273.312 
L 136.553764 215.603831 
L 134.932902 215.603831 
z
" clip-path="url(#p8ba50d50a5)" style="fill: #1f77b4"/>
   </g>
   <g id="patch_46">
    <path d="M 136.553764 273.312 
L 138.174626 273.312 
L 138.174626 222.148056 
L 136.553764 222.148056 
z
" clip-path="url(#p8ba50d50a5)" style="fill: #1f77b4"/>
   </g>
   <g id="patch_47">
    <path d="M 138.174626 273.312 
L 139.795489 273.312 
L 139.795489 223.337915 
L 138.174626 223.337915 
z
" clip-path="url(#p8ba50d50a5)" style="fill: #1f77b4"/>
   </g>
   <g id="patch_48">
    <path d="M 139.795489 273.312 
L 141.416351 273.312 
L 141.416351 226.312563 
L 139.795489 226.312563 
z
" clip-path="url(#p8ba50d50a5)" style="fill: #1f77b4"/>
   </g>
   <g id="patch_49">
    <path d="M 141.416351 273.312 
L 143.037213 273.312 
L 143.037213 210.844394 
L 141.416351 210.844394 
z
" clip-path="url(#p8ba50d50a5)" style="fill: #1f77b4"/>
   </g>
   <g id="patch_50">
    <path d="M 143.037213 273.312 
L 144.658075 273.312 
L 144.658075 222.148056 
L 143.037213 222.148056 
z
" clip-path="url(#p8ba50d50a5)" style="fill: #1f77b4"/>
   </g>
   <g id="patch_51">
    <path d="M 144.658075 273.312 
L 146.278937 273.312 
L 146.278937 216.198761 
L 144.658075 216.198761 
z
" clip-path="url(#p8ba50d50a5)" style="fill: #1f77b4"/>
   </g>
   <g id="patch_52">
    <path d="M 146.278937 273.312 
L 147.899799 273.312 
L 147.899799 217.38862 
L 146.278937 217.38862 
z
" clip-path="url(#p8ba50d50a5)" style="fill: #1f77b4"/>
   </g>
   <g id="patch_53">
    <path d="M 147.899799 273.312 
L 149.520662 273.312 
L 149.520662 219.768338 
L 147.899799 219.768338 
z
" clip-path="url(#p8ba50d50a5)" style="fill: #1f77b4"/>
   </g>
   <g id="patch_54">
    <path d="M 149.520662 273.312 
L 151.141524 273.312 
L 151.141524 215.603831 
L 149.520662 215.603831 
z
" clip-path="url(#p8ba50d50a5)" style="fill: #1f77b4"/>
   </g>
   <g id="patch_55">
    <path d="M 151.141524 273.312 
L 152.762386 273.312 
L 152.762386 206.084958 
L 151.141524 206.084958 
z
" clip-path="url(#p8ba50d50a5)" style="fill: #1f77b4"/>
   </g>
   <g id="patch_56">
    <path d="M 152.762386 273.312 
L 154.383248 273.312 
L 154.383248 204.300169 
L 152.762386 204.300169 
z
" clip-path="url(#p8ba50d50a5)" style="fill: #1f77b4"/>
   </g>
   <g id="patch_57">
    <path d="M 154.383248 273.312 
L 156.00411 273.312 
L 156.00411 207.869746 
L 154.383248 207.869746 
z
" clip-path="url(#p8ba50d50a5)" style="fill: #1f77b4"/>
   </g>
   <g id="patch_58">
    <path d="M 156.00411 273.312 
L 157.624972 273.312 
L 157.624972 204.895099 
L 156.00411 204.895099 
z
" clip-path="url(#p8ba50d50a5)" style="fill: #1f77b4"/>
   </g>
   <g id="patch_59">
    <path d="M 157.624972 273.312 
L 159.245835 273.312 
L 159.245835 198.350873 
L 157.624972 198.350873 
z
" clip-path="url(#p8ba50d50a5)" style="fill: #1f77b4"/>
   </g>
   <g id="patch_60">
    <path d="M 159.245835 273.312 
L 160.866697 273.312 
L 160.866697 211.439324 
L 159.245835 211.439324 
z
" clip-path="url(#p8ba50d50a5)" style="fill: #1f77b4"/>
   </g>
   <g id="patch_61">
    <path d="M 160.866697 273.312 
L 162.487559 273.312 
L 162.487559 203.11031 
L 160.866697 203.11031 
z
" clip-path="url(#p8ba50d50a5)" style="fill: #1f77b4"/>
   </g>
   <g id="patch_62">
    <path d="M 162.487559 273.312 
L 164.108421 273.312 
L 164.108421 192.401577 
L 162.487559 192.401577 
z
" clip-path="url(#p8ba50d50a5)" style="fill: #1f77b4"/>
   </g>
   <g id="patch_63">
    <path d="M 164.108421 273.312 
L 165.729283 273.312 
L 165.729283 185.857352 
L 164.108421 185.857352 
z
" clip-path="url(#p8ba50d50a5)" style="fill: #1f77b4"/>
   </g>
   <g id="patch_64">
    <path d="M 165.729283 273.312 
L 167.350145 273.312 
L 167.350145 206.679887 
L 165.729283 206.679887 
z
" clip-path="url(#p8ba50d50a5)" style="fill: #1f77b4"/>
   </g>
   <g id="patch_65">
    <path d="M 167.350145 273.312 
L 168.971008 273.312 
L 168.971008 195.376225 
L 167.350145 195.376225 
z
" clip-path="url(#p8ba50d50a5)" style="fill: #1f77b4"/>
   </g>
   <g id="patch_66">
    <path d="M 168.971008 273.312 
L 170.59187 273.312 
L 170.59187 198.945803 
L 168.971008 198.945803 
z
" clip-path="url(#p8ba50d50a5)" style="fill: #1f77b4"/>
   </g>
   <g id="patch_67">
    <path d="M 170.59187 273.312 
L 172.212732 273.312 
L 172.212732 187.642141 
L 170.59187 187.642141 
z
" clip-path="url(#p8ba50d50a5)" style="fill: #1f77b4"/>
   </g>
   <g id="patch_68">
    <path d="M 172.212732 273.312 
L 173.833594 273.312 
L 173.833594 206.084958 
L 172.212732 206.084958 
z
" clip-path="url(#p8ba50d50a5)" style="fill: #1f77b4"/>
   </g>
   <g id="patch_69">
    <path d="M 173.833594 273.312 
L 175.454456 273.312 
L 175.454456 190.021859 
L 173.833594 190.021859 
z
" clip-path="url(#p8ba50d50a5)" style="fill: #1f77b4"/>
   </g>
   <g id="patch_70">
    <path d="M 175.454456 273.312 
L 177.075318 273.312 
L 177.075318 194.781296 
L 175.454456 194.781296 
z
" clip-path="url(#p8ba50d50a5)" style="fill: #1f77b4"/>
   </g>
   <g id="patch_71">
    <path d="M 177.075318 273.312 
L 178.696181 273.312 
L 178.696181 195.376225 
L 177.075318 195.376225 
z
" clip-path="url(#p8ba50d50a5)" style="fill: #1f77b4"/>
   </g>
   <g id="patch_72">
    <path d="M 178.696181 273.312 
L 180.317043 273.312 
L 180.317043 188.23707 
L 178.696181 188.23707 
z
" clip-path="url(#p8ba50d50a5)" style="fill: #1f77b4"/>
   </g>
   <g id="patch_73">
    <path d="M 180.317043 273.312 
L 181.937905 273.312 
L 181.937905 194.186366 
L 180.317043 194.186366 
z
" clip-path="url(#p8ba50d50a5)" style="fill: #1f77b4"/>
   </g>
   <g id="patch_74">
    <path d="M 181.937905 273.312 
L 183.558767 273.312 
L 183.558767 194.781296 
L 181.937905 194.781296 
z
" clip-path="url(#p8ba50d50a5)" style="fill: #1f77b4"/>
   </g>
   <g id="patch_75">
    <path d="M 183.558767 273.312 
L 185.179629 273.312 
L 185.179629 191.806648 
L 183.558767 191.806648 
z
" clip-path="url(#p8ba50d50a5)" style="fill: #1f77b4"/>
   </g>
   <g id="patch_76">
    <path d="M 185.179629 273.312 
L 186.800491 273.312 
L 186.800491 179.313127 
L 185.179629 179.313127 
z
" clip-path="url(#p8ba50d50a5)" style="fill: #1f77b4"/>
   </g>
   <g id="patch_77">
    <path d="M 186.800491 273.312 
L 188.421354 273.312 
L 188.421354 175.743549 
L 186.800491 175.743549 
z
" clip-path="url(#p8ba50d50a5)" style="fill: #1f77b4"/>
   </g>
   <g id="patch_78">
    <path d="M 188.421354 273.312 
L 190.042216 273.312 
L 190.042216 174.55369 
L 188.421354 174.55369 
z
" clip-path="url(#p8ba50d50a5)" style="fill: #1f77b4"/>
   </g>
   <g id="patch_79">
    <path d="M 190.042216 273.312 
L 191.663078 273.312 
L 191.663078 176.933408 
L 190.042216 176.933408 
z
" clip-path="url(#p8ba50d50a5)" style="fill: #1f77b4"/>
   </g>
   <g id="patch_80">
    <path d="M 191.663078 273.312 
L 193.28394 273.312 
L 193.28394 188.23707 
L 191.663078 188.23707 
z
" clip-path="url(#p8ba50d50a5)" style="fill: #1f77b4"/>
   </g>
   <g id="patch_81">
    <path d="M 193.28394 273.312 
L 194.904802 273.312 
L 194.904802 182.882704 
L 193.28394 182.882704 
z
" clip-path="url(#p8ba50d50a5)" style="fill: #1f77b4"/>
   </g>
   <g id="patch_82">
    <path d="M 194.904802 273.312 
L 196.525664 273.312 
L 196.525664 184.072563 
L 194.904802 184.072563 
z
" clip-path="url(#p8ba50d50a5)" style="fill: #1f77b4"/>
   </g>
   <g id="patch_83">
    <path d="M 196.525664 273.312 
L 198.146527 273.312 
L 198.146527 179.908056 
L 196.525664 179.908056 
z
" clip-path="url(#p8ba50d50a5)" style="fill: #1f77b4"/>
   </g>
   <g id="patch_84">
    <path d="M 198.146527 273.312 
L 199.767389 273.312 
L 199.767389 173.958761 
L 198.146527 173.958761 
z
" clip-path="url(#p8ba50d50a5)" style="fill: #1f77b4"/>
   </g>
   <g id="patch_85">
    <path d="M 199.767389 273.312 
L 201.388251 273.312 
L 201.388251 169.794254 
L 199.767389 169.794254 
z
" clip-path="url(#p8ba50d50a5)" style="fill: #1f77b4"/>
   </g>
   <g id="patch_86">
    <path d="M 201.388251 273.312 
L 203.009113 273.312 
L 203.009113 178.123268 
L 201.388251 178.123268 
z
" clip-path="url(#p8ba50d50a5)" style="fill: #1f77b4"/>
   </g>
   <g id="patch_87">
    <path d="M 203.009113 273.312 
L 204.629975 273.312 
L 204.629975 180.502986 
L 203.009113 180.502986 
z
" clip-path="url(#p8ba50d50a5)" style="fill: #1f77b4"/>
   </g>
   <g id="patch_88">
    <path d="M 204.629975 273.312 
L 206.250837 273.312 
L 206.250837 175.743549 
L 204.629975 175.743549 
z
" clip-path="url(#p8ba50d50a5)" style="fill: #1f77b4"/>
   </g>
   <g id="patch_89">
    <path d="M 206.250837 273.312 
L 207.8717 273.312 
L 207.8717 181.692845 
L 206.250837 181.692845 
z
" clip-path="url(#p8ba50d50a5)" style="fill: #1f77b4"/>
   </g>
   <g id="patch_90">
    <path d="M 207.8717 273.312 
L 209.492562 273.312 
L 209.492562 165.629746 
L 207.8717 165.629746 
z
" clip-path="url(#p8ba50d50a5)" style="fill: #1f77b4"/>
   </g>
   <g id="patch_91">
    <path d="M 209.492562 273.312 
L 211.113424 273.312 
L 211.113424 163.844958 
L 209.492562 163.844958 
z
" clip-path="url(#p8ba50d50a5)" style="fill: #1f77b4"/>
   </g>
   <g id="patch_92">
    <path d="M 211.113424 273.312 
L 212.734286 273.312 
L 212.734286 156.110873 
L 211.113424 156.110873 
z
" clip-path="url(#p8ba50d50a5)" style="fill: #1f77b4"/>
   </g>
   <g id="patch_93">
    <path d="M 212.734286 273.312 
L 214.355148 273.312 
L 214.355148 157.300732 
L 212.734286 157.300732 
z
" clip-path="url(#p8ba50d50a5)" style="fill: #1f77b4"/>
   </g>
   <g id="patch_94">
    <path d="M 214.355148 273.312 
L 215.97601 273.312 
L 215.97601 152.541296 
L 214.355148 152.541296 
z
" clip-path="url(#p8ba50d50a5)" style="fill: #1f77b4"/>
   </g>
   <g id="patch_95">
    <path d="M 215.97601 273.312 
L 217.596873 273.312 
L 217.596873 157.895662 
L 215.97601 157.895662 
z
" clip-path="url(#p8ba50d50a5)" style="fill: #1f77b4"/>
   </g>
   <g id="patch_96">
    <path d="M 217.596873 273.312 
L 219.217735 273.312 
L 219.217735 150.756507 
L 217.596873 150.756507 
z
" clip-path="url(#p8ba50d50a5)" style="fill: #1f77b4"/>
   </g>
   <g id="patch_97">
    <path d="M 219.217735 273.312 
L 220.838597 273.312 
L 220.838597 151.351437 
L 219.217735 151.351437 
z
" clip-path="url(#p8ba50d50a5)" style="fill: #1f77b4"/>
   </g>
   <g id="patch_98">
    <path d="M 220.838597 273.312 
L 222.459459 273.312 
L 222.459459 156.705803 
L 220.838597 156.705803 
z
" clip-path="url(#p8ba50d50a5)" style="fill: #1f77b4"/>
   </g>
   <g id="patch_99">
    <path d="M 222.459459 273.312 
L 224.080321 273.312 
L 224.080321 149.566648 
L 222.459459 149.566648 
z
" clip-path="url(#p8ba50d50a5)" style="fill: #1f77b4"/>
   </g>
   <g id="patch_100">
    <path d="M 224.080321 273.312 
L 225.701183 273.312 
L 225.701183 156.705803 
L 224.080321 156.705803 
z
" clip-path="url(#p8ba50d50a5)" style="fill: #1f77b4"/>
   </g>
   <g id="patch_101">
    <path d="M 225.701183 273.312 
L 227.322046 273.312 
L 227.322046 159.680451 
L 225.701183 159.680451 
z
" clip-path="url(#p8ba50d50a5)" style="fill: #1f77b4"/>
   </g>
   <g id="patch_102">
    <path d="M 227.322046 273.312 
L 228.942908 273.312 
L 228.942908 162.060169 
L 227.322046 162.060169 
z
" clip-path="url(#p8ba50d50a5)" style="fill: #1f77b4"/>
   </g>
   <g id="patch_103">
    <path d="M 228.942908 273.312 
L 230.56377 273.312 
L 230.56377 150.756507 
L 228.942908 150.756507 
z
" clip-path="url(#p8ba50d50a5)" style="fill: #1f77b4"/>
   </g>
   <g id="patch_104">
    <path d="M 230.56377 273.312 
L 232.184632 273.312 
L 232.184632 156.705803 
L 230.56377 156.705803 
z
" clip-path="url(#p8ba50d50a5)" style="fill: #1f77b4"/>
   </g>
   <g id="patch_105">
    <path d="M 232.184632 273.312 
L 233.805494 273.312 
L 233.805494 144.212282 
L 232.184632 144.212282 
z
" clip-path="url(#p8ba50d50a5)" style="fill: #1f77b4"/>
   </g>
   <g id="patch_106">
    <path d="M 233.805494 273.312 
L 235.426356 273.312 
L 235.426356 138.262986 
L 233.805494 138.262986 
z
" clip-path="url(#p8ba50d50a5)" style="fill: #1f77b4"/>
   </g>
   <g id="patch_107">
    <path d="M 235.426356 273.312 
L 237.047219 273.312 
L 237.047219 155.515944 
L 235.426356 155.515944 
z
" clip-path="url(#p8ba50d50a5)" style="fill: #1f77b4"/>
   </g>
   <g id="patch_108">
    <path d="M 237.047219 273.312 
L 238.668081 273.312 
L 238.668081 141.832563 
L 237.047219 141.832563 
z
" clip-path="url(#p8ba50d50a5)" style="fill: #1f77b4"/>
   </g>
   <g id="patch_109">
    <path d="M 238.668081 273.312 
L 240.288943 273.312 
L 240.288943 131.123831 
L 238.668081 131.123831 
z
" clip-path="url(#p8ba50d50a5)" style="fill: #1f77b4"/>
   </g>
   <g id="patch_110">
    <path d="M 240.288943 273.312 
L 241.909805 273.312 
L 241.909805 148.971718 
L 240.288943 148.971718 
z
" clip-path="url(#p8ba50d50a5)" style="fill: #1f77b4"/>
   </g>
   <g id="patch_111">
    <path d="M 241.909805 273.312 
L 243.530667 273.312 
L 243.530667 147.18693 
L 241.909805 147.18693 
z
" clip-path="url(#p8ba50d50a5)" style="fill: #1f77b4"/>
   </g>
   <g id="patch_112">
    <path d="M 243.530667 273.312 
L 245.151529 273.312 
L 245.151529 139.452845 
L 243.530667 139.452845 
z
" clip-path="url(#p8ba50d50a5)" style="fill: #1f77b4"/>
   </g>
   <g id="patch_113">
    <path d="M 245.151529 273.312 
L 246.772392 273.312 
L 246.772392 153.731155 
L 245.151529 153.731155 
z
" clip-path="url(#p8ba50d50a5)" style="fill: #1f77b4"/>
   </g>
   <g id="patch_114">
    <path d="M 246.772392 273.312 
L 248.393254 273.312 
L 248.393254 135.883268 
L 246.772392 135.883268 
z
" clip-path="url(#p8ba50d50a5)" style="fill: #1f77b4"/>
   </g>
   <g id="patch_115">
    <path d="M 248.393254 273.312 
L 250.014116 273.312 
L 250.014116 138.857915 
L 248.393254 138.857915 
z
" clip-path="url(#p8ba50d50a5)" style="fill: #1f77b4"/>
   </g>
   <g id="patch_116">
    <path d="M 250.014116 273.312 
L 251.634978 273.312 
L 251.634978 132.31369 
L 250.014116 132.31369 
z
" clip-path="url(#p8ba50d50a5)" style="fill: #1f77b4"/>
   </g>
   <g id="patch_117">
    <path d="M 251.634978 273.312 
L 253.25584 273.312 
L 253.25584 143.617352 
L 251.634978 143.617352 
z
" clip-path="url(#p8ba50d50a5)" style="fill: #1f77b4"/>
   </g>
   <g id="patch_118">
    <path d="M 253.25584 273.312 
L 254.876702 273.312 
L 254.876702 127.554254 
L 253.25584 127.554254 
z
" clip-path="url(#p8ba50d50a5)" style="fill: #1f77b4"/>
   </g>
   <g id="patch_119">
    <path d="M 254.876702 273.312 
L 256.497565 273.312 
L 256.497565 139.452845 
L 254.876702 139.452845 
z
" clip-path="url(#p8ba50d50a5)" style="fill: #1f77b4"/>
   </g>
   <g id="patch_120">
    <path d="M 256.497565 273.312 
L 258.118427 273.312 
L 258.118427 135.883268 
L 256.497565 135.883268 
z
" clip-path="url(#p8ba50d50a5)" style="fill: #1f77b4"/>
   </g>
   <g id="patch_121">
    <path d="M 258.118427 273.312 
L 259.739289 273.312 
L 259.739289 140.642704 
L 258.118427 140.642704 
z
" clip-path="url(#p8ba50d50a5)" style="fill: #1f77b4"/>
   </g>
   <g id="patch_122">
    <path d="M 259.739289 273.312 
L 261.360151 273.312 
L 261.360151 129.933972 
L 259.739289 129.933972 
z
" clip-path="url(#p8ba50d50a5)" style="fill: #1f77b4"/>
   </g>
   <g id="patch_123">
    <path d="M 261.360151 273.312 
L 262.981013 273.312 
L 262.981013 145.99707 
L 261.360151 145.99707 
z
" clip-path="url(#p8ba50d50a5)" style="fill: #1f77b4"/>
   </g>
   <g id="patch_124">
    <path d="M 262.981013 273.312 
L 264.601875 273.312 
L 264.601875 134.693408 
L 262.981013 134.693408 
z
" clip-path="url(#p8ba50d50a5)" style="fill: #1f77b4"/>
   </g>
   <g id="patch_125">
    <path d="M 264.601875 273.312 
L 266.222738 273.312 
L 266.222738 122.794817 
L 264.601875 122.794817 
z
" clip-path="url(#p8ba50d50a5)" style="fill: #1f77b4"/>
   </g>
   <g id="patch_126">
    <path d="M 266.222738 273.312 
L 267.8436 273.312 
L 267.8436 128.149183 
L 266.222738 128.149183 
z
" clip-path="url(#p8ba50d50a5)" style="fill: #1f77b4"/>
   </g>
   <g id="patch_127">
    <path d="M 267.8436 273.312 
L 269.464462 273.312 
L 269.464462 146.592 
L 267.8436 146.592 
z
" clip-path="url(#p8ba50d50a5)" style="fill: #1f77b4"/>
   </g>
   <g id="patch_128">
    <path d="M 269.464462 273.312 
L 271.085324 273.312 
L 271.085324 141.832563 
L 269.464462 141.832563 
z
" clip-path="url(#p8ba50d50a5)" style="fill: #1f77b4"/>
   </g>
   <g id="patch_129">
    <path d="M 271.085324 273.312 
L 272.706186 273.312 
L 272.706186 125.769465 
L 271.085324 125.769465 
z
" clip-path="url(#p8ba50d50a5)" style="fill: #1f77b4"/>
   </g>
   <g id="patch_130">
    <path d="M 272.706186 273.312 
L 274.327048 273.312 
L 274.327048 122.199887 
L 272.706186 122.199887 
z
" clip-path="url(#p8ba50d50a5)" style="fill: #1f77b4"/>
   </g>
   <g id="patch_131">
    <path d="M 274.327048 273.312 
L 275.947911 273.312 
L 275.947911 125.769465 
L 274.327048 125.769465 
z
" clip-path="url(#p8ba50d50a5)" style="fill: #1f77b4"/>
   </g>
   <g id="patch_132">
    <path d="M 275.947911 273.312 
L 277.568773 273.312 
L 277.568773 121.010028 
L 275.947911 121.010028 
z
" clip-path="url(#p8ba50d50a5)" style="fill: #1f77b4"/>
   </g>
   <g id="patch_133">
    <path d="M 277.568773 273.312 
L 279.189635 273.312 
L 279.189635 125.769465 
L 277.568773 125.769465 
z
" clip-path="url(#p8ba50d50a5)" style="fill: #1f77b4"/>
   </g>
   <g id="patch_134">
    <path d="M 279.189635 273.312 
L 280.810497 273.312 
L 280.810497 118.63031 
L 279.189635 118.63031 
z
" clip-path="url(#p8ba50d50a5)" style="fill: #1f77b4"/>
   </g>
   <g id="patch_135">
    <path d="M 280.810497 273.312 
L 282.431359 273.312 
L 282.431359 116.845521 
L 280.810497 116.845521 
z
" clip-path="url(#p8ba50d50a5)" style="fill: #1f77b4"/>
   </g>
   <g id="patch_136">
    <path d="M 282.431359 273.312 
L 284.052221 273.312 
L 284.052221 124.579606 
L 282.431359 124.579606 
z
" clip-path="url(#p8ba50d50a5)" style="fill: #1f77b4"/>
   </g>
   <g id="patch_137">
    <path d="M 284.052221 273.312 
L 285.673084 273.312 
L 285.673084 119.820169 
L 284.052221 119.820169 
z
" clip-path="url(#p8ba50d50a5)" style="fill: #1f77b4"/>
   </g>
   <g id="patch_138">
    <path d="M 285.673084 273.312 
L 287.293946 273.312 
L 287.293946 121.604958 
L 285.673084 121.604958 
z
" clip-path="url(#p8ba50d50a5)" style="fill: #1f77b4"/>
   </g>
   <g id="patch_139">
    <path d="M 287.293946 273.312 
L 288.914808 273.312 
L 288.914808 110.301296 
L 287.293946 110.301296 
z
" clip-path="url(#p8ba50d50a5)" style="fill: #1f77b4"/>
   </g>
   <g id="patch_140">
    <path d="M 288.914808 273.312 
L 290.53567 273.312 
L 290.53567 113.275944 
L 288.914808 113.275944 
z
" clip-path="url(#p8ba50d50a5)" style="fill: #1f77b4"/>
   </g>
   <g id="patch_141">
    <path d="M 290.53567 273.312 
L 292.156532 273.312 
L 292.156532 106.731718 
L 290.53567 106.731718 
z
" clip-path="url(#p8ba50d50a5)" style="fill: #1f77b4"/>
   </g>
   <g id="patch_142">
    <path d="M 292.156532 273.312 
L 293.777394 273.312 
L 293.777394 97.212845 
L 292.156532 97.212845 
z
" clip-path="url(#p8ba50d50a5)" style="fill: #1f77b4"/>
   </g>
   <g id="patch_143">
    <path d="M 293.777394 273.312 
L 295.398257 273.312 
L 295.398257 104.94693 
L 293.777394 104.94693 
z
" clip-path="url(#p8ba50d50a5)" style="fill: #1f77b4"/>
   </g>
   <g id="patch_144">
    <path d="M 295.398257 273.312 
L 297.019119 273.312 
L 297.019119 120.415099 
L 295.398257 120.415099 
z
" clip-path="url(#p8ba50d50a5)" style="fill: #1f77b4"/>
   </g>
   <g id="patch_145">
    <path d="M 297.019119 273.312 
L 298.639981 273.312 
L 298.639981 104.352 
L 297.019119 104.352 
z
" clip-path="url(#p8ba50d50a5)" style="fill: #1f77b4"/>
   </g>
   <g id="patch_146">
    <path d="M 298.639981 273.312 
L 300.260843 273.312 
L 300.260843 90.66862 
L 298.639981 90.66862 
z
" clip-path="url(#p8ba50d50a5)" style="fill: #1f77b4"/>
   </g>
   <g id="patch_147">
    <path d="M 300.260843 273.312 
L 301.881705 273.312 
L 301.881705 114.465803 
L 300.260843 114.465803 
z
" clip-path="url(#p8ba50d50a5)" style="fill: #1f77b4"/>
   </g>
   <g id="patch_148">
    <path d="M 301.881705 273.312 
L 303.502567 273.312 
L 303.502567 97.212845 
L 301.881705 97.212845 
z
" clip-path="url(#p8ba50d50a5)" style="fill: #1f77b4"/>
   </g>
   <g id="patch_149">
    <path d="M 303.502567 273.312 
L 305.12343 273.312 
L 305.12343 98.402704 
L 303.502567 98.402704 
z
" clip-path="url(#p8ba50d50a5)" style="fill: #1f77b4"/>
   </g>
   <g id="patch_150">
    <path d="M 305.12343 273.312 
L 306.744292 273.312 
L 306.744292 118.63031 
L 305.12343 118.63031 
z
" clip-path="url(#p8ba50d50a5)" style="fill: #1f77b4"/>
   </g>
   <g id="patch_151">
    <path d="M 306.744292 273.312 
L 308.365154 273.312 
L 308.365154 114.465803 
L 306.744292 114.465803 
z
" clip-path="url(#p8ba50d50a5)" style="fill: #1f77b4"/>
   </g>
   <g id="patch_152">
    <path d="M 308.365154 273.312 
L 309.986016 273.312 
L 309.986016 106.731718 
L 308.365154 106.731718 
z
" clip-path="url(#p8ba50d50a5)" style="fill: #1f77b4"/>
   </g>
   <g id="patch_153">
    <path d="M 309.986016 273.312 
L 311.606878 273.312 
L 311.606878 100.187493 
L 309.986016 100.187493 
z
" clip-path="url(#p8ba50d50a5)" style="fill: #1f77b4"/>
   </g>
   <g id="patch_154">
    <path d="M 311.606878 273.312 
L 313.22774 273.312 
L 313.22774 76.985239 
L 311.606878 76.985239 
z
" clip-path="url(#p8ba50d50a5)" style="fill: #1f77b4"/>
   </g>
   <g id="patch_155">
    <path d="M 313.22774 273.312 
L 314.848603 273.312 
L 314.848603 91.263549 
L 313.22774 91.263549 
z
" clip-path="url(#p8ba50d50a5)" style="fill: #1f77b4"/>
   </g>
   <g id="patch_156">
    <path d="M 314.848603 273.312 
L 316.469465 273.312 
L 316.469465 88.883831 
L 314.848603 88.883831 
z
" clip-path="url(#p8ba50d50a5)" style="fill: #1f77b4"/>
   </g>
   <g id="patch_157">
    <path d="M 316.469465 273.312 
L 318.090327 273.312 
L 318.090327 85.314254 
L 316.469465 85.314254 
z
" clip-path="url(#p8ba50d50a5)" style="fill: #1f77b4"/>
   </g>
   <g id="patch_158">
    <path d="M 318.090327 273.312 
L 319.711189 273.312 
L 319.711189 99.592563 
L 318.090327 99.592563 
z
" clip-path="url(#p8ba50d50a5)" style="fill: #1f77b4"/>
   </g>
   <g id="patch_159">
    <path d="M 319.711189 273.312 
L 321.332051 273.312 
L 321.332051 76.39031 
L 319.711189 76.39031 
z
" clip-path="url(#p8ba50d50a5)" style="fill: #1f77b4"/>
   </g>
   <g id="patch_160">
    <path d="M 321.332051 273.312 
L 322.952913 273.312 
L 322.952913 89.478761 
L 321.332051 89.478761 
z
" clip-path="url(#p8ba50d50a5)" style="fill: #1f77b4"/>
   </g>
   <g id="patch_161">
    <path d="M 322.952913 273.312 
L 324.573776 273.312 
L 324.573776 91.263549 
L 322.952913 91.263549 
z
" clip-path="url(#p8ba50d50a5)" style="fill: #1f77b4"/>
   </g>
   <g id="patch_162">
    <path d="M 324.573776 273.312 
L 326.194638 273.312 
L 326.194638 74.605521 
L 324.573776 74.605521 
z
" clip-path="url(#p8ba50d50a5)" style="fill: #1f77b4"/>
   </g>
   <g id="patch_163">
    <path d="M 326.194638 273.312 
L 327.8155 273.312 
L 327.8155 87.099042 
L 326.194638 87.099042 
z
" clip-path="url(#p8ba50d50a5)" style="fill: #1f77b4"/>
   </g>
   <g id="patch_164">
    <path d="M 327.8155 273.312 
L 329.436362 273.312 
L 329.436362 72.820732 
L 327.8155 72.820732 
z
" clip-path="url(#p8ba50d50a5)" style="fill: #1f77b4"/>
   </g>
   <g id="patch_165">
    <path d="M 329.436362 273.312 
L 331.057224 273.312 
L 331.057224 71.035944 
L 329.436362 71.035944 
z
" clip-path="url(#p8ba50d50a5)" style="fill: #1f77b4"/>
   </g>
   <g id="patch_166">
    <path d="M 331.057224 273.312 
L 332.678086 273.312 
L 332.678086 96.617915 
L 331.057224 96.617915 
z
" clip-path="url(#p8ba50d50a5)" style="fill: #1f77b4"/>
   </g>
   <g id="patch_167">
    <path d="M 332.678086 273.312 
L 334.298949 273.312 
L 334.298949 69.251155 
L 332.678086 69.251155 
z
" clip-path="url(#p8ba50d50a5)" style="fill: #1f77b4"/>
   </g>
   <g id="patch_168">
    <path d="M 334.298949 273.312 
L 335.919811 273.312 
L 335.919811 63.301859 
L 334.298949 63.301859 
z
" clip-path="url(#p8ba50d50a5)" style="fill: #1f77b4"/>
   </g>
   <g id="patch_169">
    <path d="M 335.919811 273.312 
L 337.540673 273.312 
L 337.540673 73.415662 
L 335.919811 73.415662 
z
" clip-path="url(#p8ba50d50a5)" style="fill: #1f77b4"/>
   </g>
   <g id="patch_170">
    <path d="M 337.540673 273.312 
L 339.161535 273.312 
L 339.161535 62.70693 
L 337.540673 62.70693 
z
" clip-path="url(#p8ba50d50a5)" style="fill: #1f77b4"/>
   </g>
   <g id="patch_171">
    <path d="M 339.161535 273.312 
L 340.782397 273.312 
L 340.782397 96.022986 
L 339.161535 96.022986 
z
" clip-path="url(#p8ba50d50a5)" style="fill: #1f77b4"/>
   </g>
   <g id="patch_172">
    <path d="M 340.782397 273.312 
L 342.403259 273.312 
L 342.403259 72.225803 
L 340.782397 72.225803 
z
" clip-path="url(#p8ba50d50a5)" style="fill: #1f77b4"/>
   </g>
   <g id="patch_173">
    <path d="M 342.403259 273.312 
L 344.024122 273.312 
L 344.024122 65.681577 
L 342.403259 65.681577 
z
" clip-path="url(#p8ba50d50a5)" style="fill: #1f77b4"/>
   </g>
   <g id="patch_174">
    <path d="M 344.024122 273.312 
L 345.644984 273.312 
L 345.644984 69.251155 
L 344.024122 69.251155 
z
" clip-path="url(#p8ba50d50a5)" style="fill: #1f77b4"/>
   </g>
   <g id="patch_175">
    <path d="M 345.644984 273.312 
L 347.265846 273.312 
L 347.265846 70.441014 
L 345.644984 70.441014 
z
" clip-path="url(#p8ba50d50a5)" style="fill: #1f77b4"/>
   </g>
   <g id="patch_176">
    <path d="M 347.265846 273.312 
L 348.886708 273.312 
L 348.886708 74.010592 
L 347.265846 74.010592 
z
" clip-path="url(#p8ba50d50a5)" style="fill: #1f77b4"/>
   </g>
   <g id="patch_177">
    <path d="M 348.886708 273.312 
L 350.50757 273.312 
L 350.50757 62.70693 
L 348.886708 62.70693 
z
" clip-path="url(#p8ba50d50a5)" style="fill: #1f77b4"/>
   </g>
   <g id="patch_178">
    <path d="M 350.50757 273.312 
L 352.128432 273.312 
L 352.128432 71.630873 
L 350.50757 71.630873 
z
" clip-path="url(#p8ba50d50a5)" style="fill: #1f77b4"/>
   </g>
   <g id="patch_179">
    <path d="M 352.128432 273.312 
L 353.749295 273.312 
L 353.749295 51.403268 
L 352.128432 51.403268 
z
" clip-path="url(#p8ba50d50a5)" style="fill: #1f77b4"/>
   </g>
   <g id="patch_180">
    <path d="M 353.749295 273.312 
L 355.370157 273.312 
L 355.370157 74.605521 
L 353.749295 74.605521 
z
" clip-path="url(#p8ba50d50a5)" style="fill: #1f77b4"/>
   </g>
   <g id="patch_181">
    <path d="M 355.370157 273.312 
L 356.991019 273.312 
L 356.991019 56.757634 
L 355.370157 56.757634 
z
" clip-path="url(#p8ba50d50a5)" style="fill: #1f77b4"/>
   </g>
   <g id="patch_182">
    <path d="M 356.991019 273.312 
L 358.611881 273.312 
L 358.611881 57.352563 
L 356.991019 57.352563 
z
" clip-path="url(#p8ba50d50a5)" style="fill: #1f77b4"/>
   </g>
   <g id="patch_183">
    <path d="M 358.611881 273.312 
L 360.232743 273.312 
L 360.232743 52.593127 
L 358.611881 52.593127 
z
" clip-path="url(#p8ba50d50a5)" style="fill: #1f77b4"/>
   </g>
   <g id="patch_184">
    <path d="M 360.232743 273.312 
L 361.853605 273.312 
L 361.853605 76.985239 
L 360.232743 76.985239 
z
" clip-path="url(#p8ba50d50a5)" style="fill: #1f77b4"/>
   </g>
   <g id="patch_185">
    <path d="M 361.853605 273.312 
L 363.474468 273.312 
L 363.474468 61.51707 
L 361.853605 61.51707 
z
" clip-path="url(#p8ba50d50a5)" style="fill: #1f77b4"/>
   </g>
   <g id="patch_186">
    <path d="M 363.474468 273.312 
L 365.09533 273.312 
L 365.09533 53.782986 
L 363.474468 53.782986 
z
" clip-path="url(#p8ba50d50a5)" style="fill: #1f77b4"/>
   </g>
   <g id="patch_187">
    <path d="M 365.09533 273.312 
L 366.716192 273.312 
L 366.716192 56.162704 
L 365.09533 56.162704 
z
" clip-path="url(#p8ba50d50a5)" style="fill: #1f77b4"/>
   </g>
   <g id="patch_188">
    <path d="M 366.716192 273.312 
L 368.337054 273.312 
L 368.337054 43.074254 
L 366.716192 43.074254 
z
" clip-path="url(#p8ba50d50a5)" style="fill: #1f77b4"/>
   </g>
   <g id="patch_189">
    <path d="M 368.337054 273.312 
L 369.957916 273.312 
L 369.957916 57.352563 
L 368.337054 57.352563 
z
" clip-path="url(#p8ba50d50a5)" style="fill: #1f77b4"/>
   </g>
   <g id="patch_190">
    <path d="M 369.957916 273.312 
L 371.578778 273.312 
L 371.578778 59.137352 
L 369.957916 59.137352 
z
" clip-path="url(#p8ba50d50a5)" style="fill: #1f77b4"/>
   </g>
   <g id="patch_191">
    <path d="M 371.578778 273.312 
L 373.199641 273.312 
L 373.199641 49.023549 
L 371.578778 49.023549 
z
" clip-path="url(#p8ba50d50a5)" style="fill: #1f77b4"/>
   </g>
   <g id="patch_192">
    <path d="M 373.199641 273.312 
L 374.820503 273.312 
L 374.820503 50.808338 
L 373.199641 50.808338 
z
" clip-path="url(#p8ba50d50a5)" style="fill: #1f77b4"/>
   </g>
   <g id="patch_193">
    <path d="M 374.820503 273.312 
L 376.441365 273.312 
L 376.441365 50.808338 
L 374.820503 50.808338 
z
" clip-path="url(#p8ba50d50a5)" style="fill: #1f77b4"/>
   </g>
   <g id="patch_194">
    <path d="M 376.441365 273.312 
L 378.062227 273.312 
L 378.062227 43.074254 
L 376.441365 43.074254 
z
" clip-path="url(#p8ba50d50a5)" style="fill: #1f77b4"/>
   </g>
   <g id="patch_195">
    <path d="M 378.062227 273.312 
L 379.683089 273.312 
L 379.683089 39.504676 
L 378.062227 39.504676 
z
" clip-path="url(#p8ba50d50a5)" style="fill: #1f77b4"/>
   </g>
   <g id="patch_196">
    <path d="M 379.683089 273.312 
L 381.303951 273.312 
L 381.303951 49.618479 
L 379.683089 49.618479 
z
" clip-path="url(#p8ba50d50a5)" style="fill: #1f77b4"/>
   </g>
   <g id="patch_197">
    <path d="M 381.303951 273.312 
L 382.924814 273.312 
L 382.924814 38.314817 
L 381.303951 38.314817 
z
" clip-path="url(#p8ba50d50a5)" style="fill: #1f77b4"/>
   </g>
   <g id="patch_198">
    <path d="M 382.924814 273.312 
L 384.545676 273.312 
L 384.545676 25.821296 
L 382.924814 25.821296 
z
" clip-path="url(#p8ba50d50a5)" style="fill: #1f77b4"/>
   </g>
   <g id="patch_199">
    <path d="M 384.545676 273.312 
L 386.166538 273.312 
L 386.166538 19.872 
L 384.545676 19.872 
z
" clip-path="url(#p8ba50d50a5)" style="fill: #1f77b4"/>
   </g>
   <g id="patch_200">
    <path d="M 386.166538 273.312 
L 387.7874 273.312 
L 387.7874 22.846648 
L 386.166538 22.846648 
z
" clip-path="url(#p8ba50d50a5)" style="fill: #1f77b4"/>
   </g>
   <g id="patch_201">
    <path d="M 387.7874 273.312 
L 389.408262 273.312 
L 389.408262 22.251718 
L 387.7874 22.251718 
z
" clip-path="url(#p8ba50d50a5)" style="fill: #1f77b4"/>
   </g>
   <g id="patch_202">
    <path d="M 389.408262 273.312 
L 391.029124 273.312 
L 391.029124 56.757634 
L 389.408262 56.757634 
z
" clip-path="url(#p8ba50d50a5)" style="fill: #1f77b4"/>
   </g>
   <g id="matplotlib.axis_1">
    <g id="xtick_1">
     <g id="line2d_1">
      <defs>
       <path id="m26f3ba4092" d="M 0 0 
L 0 3.5 
" style="stroke: #000000; stroke-width: 0.8"/>
      </defs>
      <g>
       <use xlink:href="#m26f3ba4092" x="66.376477" y="273.312" style="stroke: #000000; stroke-width: 0.8"/>
      </g>
     </g>
     <g id="text_1">
      <!-- 0.0 -->
      <g transform="translate(58.424915 287.910437)scale(0.1 -0.1)">
       <defs>
        <path id="DejaVuSans-30" d="M 2034 4250 
Q 1547 4250 1301 3770 
Q 1056 3291 1056 2328 
Q 1056 1369 1301 889 
Q 1547 409 2034 409 
Q 2525 409 2770 889 
Q 3016 1369 3016 2328 
Q 3016 3291 2770 3770 
Q 2525 4250 2034 4250 
z
M 2034 4750 
Q 2819 4750 3233 4129 
Q 3647 3509 3647 2328 
Q 3647 1150 3233 529 
Q 2819 -91 2034 -91 
Q 1250 -91 836 529 
Q 422 1150 422 2328 
Q 422 3509 836 4129 
Q 1250 4750 2034 4750 
z
" transform="scale(0.015625)"/>
        <path id="DejaVuSans-2e" d="M 684 794 
L 1344 794 
L 1344 0 
L 684 0 
L 684 794 
z
" transform="scale(0.015625)"/>
       </defs>
       <use xlink:href="#DejaVuSans-30"/>
       <use xlink:href="#DejaVuSans-2e" x="63.623047"/>
       <use xlink:href="#DejaVuSans-30" x="95.410156"/>
      </g>
     </g>
    </g>
    <g id="xtick_2">
     <g id="line2d_2">
      <g>
       <use xlink:href="#m26f3ba4092" x="131.307386" y="273.312" style="stroke: #000000; stroke-width: 0.8"/>
      </g>
     </g>
     <g id="text_2">
      <!-- 0.2 -->
      <g transform="translate(123.355824 287.910437)scale(0.1 -0.1)">
       <defs>
        <path id="DejaVuSans-32" d="M 1228 531 
L 3431 531 
L 3431 0 
L 469 0 
L 469 531 
Q 828 903 1448 1529 
Q 2069 2156 2228 2338 
Q 2531 2678 2651 2914 
Q 2772 3150 2772 3378 
Q 2772 3750 2511 3984 
Q 2250 4219 1831 4219 
Q 1534 4219 1204 4116 
Q 875 4013 500 3803 
L 500 4441 
Q 881 4594 1212 4672 
Q 1544 4750 1819 4750 
Q 2544 4750 2975 4387 
Q 3406 4025 3406 3419 
Q 3406 3131 3298 2873 
Q 3191 2616 2906 2266 
Q 2828 2175 2409 1742 
Q 1991 1309 1228 531 
z
" transform="scale(0.015625)"/>
       </defs>
       <use xlink:href="#DejaVuSans-30"/>
       <use xlink:href="#DejaVuSans-2e" x="63.623047"/>
       <use xlink:href="#DejaVuSans-32" x="95.410156"/>
      </g>
     </g>
    </g>
    <g id="xtick_3">
     <g id="line2d_3">
      <g>
       <use xlink:href="#m26f3ba4092" x="196.238295" y="273.312" style="stroke: #000000; stroke-width: 0.8"/>
      </g>
     </g>
     <g id="text_3">
      <!-- 0.4 -->
      <g transform="translate(188.286733 287.910437)scale(0.1 -0.1)">
       <defs>
        <path id="DejaVuSans-34" d="M 2419 4116 
L 825 1625 
L 2419 1625 
L 2419 4116 
z
M 2253 4666 
L 3047 4666 
L 3047 1625 
L 3713 1625 
L 3713 1100 
L 3047 1100 
L 3047 0 
L 2419 0 
L 2419 1100 
L 313 1100 
L 313 1709 
L 2253 4666 
z
" transform="scale(0.015625)"/>
       </defs>
       <use xlink:href="#DejaVuSans-30"/>
       <use xlink:href="#DejaVuSans-2e" x="63.623047"/>
       <use xlink:href="#DejaVuSans-34" x="95.410156"/>
      </g>
     </g>
    </g>
    <g id="xtick_4">
     <g id="line2d_4">
      <g>
       <use xlink:href="#m26f3ba4092" x="261.169205" y="273.312" style="stroke: #000000; stroke-width: 0.8"/>
      </g>
     </g>
     <g id="text_4">
      <!-- 0.6 -->
      <g transform="translate(253.217642 287.910437)scale(0.1 -0.1)">
       <defs>
        <path id="DejaVuSans-36" d="M 2113 2584 
Q 1688 2584 1439 2293 
Q 1191 2003 1191 1497 
Q 1191 994 1439 701 
Q 1688 409 2113 409 
Q 2538 409 2786 701 
Q 3034 994 3034 1497 
Q 3034 2003 2786 2293 
Q 2538 2584 2113 2584 
z
M 3366 4563 
L 3366 3988 
Q 3128 4100 2886 4159 
Q 2644 4219 2406 4219 
Q 1781 4219 1451 3797 
Q 1122 3375 1075 2522 
Q 1259 2794 1537 2939 
Q 1816 3084 2150 3084 
Q 2853 3084 3261 2657 
Q 3669 2231 3669 1497 
Q 3669 778 3244 343 
Q 2819 -91 2113 -91 
Q 1303 -91 875 529 
Q 447 1150 447 2328 
Q 447 3434 972 4092 
Q 1497 4750 2381 4750 
Q 2619 4750 2861 4703 
Q 3103 4656 3366 4563 
z
" transform="scale(0.015625)"/>
       </defs>
       <use xlink:href="#DejaVuSans-30"/>
       <use xlink:href="#DejaVuSans-2e" x="63.623047"/>
       <use xlink:href="#DejaVuSans-36" x="95.410156"/>
      </g>
     </g>
    </g>
    <g id="xtick_5">
     <g id="line2d_5">
      <g>
       <use xlink:href="#m26f3ba4092" x="326.100114" y="273.312" style="stroke: #000000; stroke-width: 0.8"/>
      </g>
     </g>
     <g id="text_5">
      <!-- 0.8 -->
      <g transform="translate(318.148551 287.910437)scale(0.1 -0.1)">
       <defs>
        <path id="DejaVuSans-38" d="M 2034 2216 
Q 1584 2216 1326 1975 
Q 1069 1734 1069 1313 
Q 1069 891 1326 650 
Q 1584 409 2034 409 
Q 2484 409 2743 651 
Q 3003 894 3003 1313 
Q 3003 1734 2745 1975 
Q 2488 2216 2034 2216 
z
M 1403 2484 
Q 997 2584 770 2862 
Q 544 3141 544 3541 
Q 544 4100 942 4425 
Q 1341 4750 2034 4750 
Q 2731 4750 3128 4425 
Q 3525 4100 3525 3541 
Q 3525 3141 3298 2862 
Q 3072 2584 2669 2484 
Q 3125 2378 3379 2068 
Q 3634 1759 3634 1313 
Q 3634 634 3220 271 
Q 2806 -91 2034 -91 
Q 1263 -91 848 271 
Q 434 634 434 1313 
Q 434 1759 690 2068 
Q 947 2378 1403 2484 
z
M 1172 3481 
Q 1172 3119 1398 2916 
Q 1625 2713 2034 2713 
Q 2441 2713 2670 2916 
Q 2900 3119 2900 3481 
Q 2900 3844 2670 4047 
Q 2441 4250 2034 4250 
Q 1625 4250 1398 4047 
Q 1172 3844 1172 3481 
z
" transform="scale(0.015625)"/>
       </defs>
       <use xlink:href="#DejaVuSans-30"/>
       <use xlink:href="#DejaVuSans-2e" x="63.623047"/>
       <use xlink:href="#DejaVuSans-38" x="95.410156"/>
      </g>
     </g>
    </g>
    <g id="xtick_6">
     <g id="line2d_6">
      <g>
       <use xlink:href="#m26f3ba4092" x="391.031023" y="273.312" style="stroke: #000000; stroke-width: 0.8"/>
      </g>
     </g>
     <g id="text_6">
      <!-- 1.0 -->
      <g transform="translate(383.07946 287.910437)scale(0.1 -0.1)">
       <defs>
        <path id="DejaVuSans-31" d="M 794 531 
L 1825 531 
L 1825 4091 
L 703 3866 
L 703 4441 
L 1819 4666 
L 2450 4666 
L 2450 531 
L 3481 531 
L 3481 0 
L 794 0 
L 794 531 
z
" transform="scale(0.015625)"/>
       </defs>
       <use xlink:href="#DejaVuSans-31"/>
       <use xlink:href="#DejaVuSans-2e" x="63.623047"/>
       <use xlink:href="#DejaVuSans-30" x="95.410156"/>
      </g>
     </g>
    </g>
    <g id="text_7">
     <!-- Propagation direction -->
     <g transform="translate(175.221719 301.588562)scale(0.1 -0.1)">
      <defs>
       <path id="DejaVuSans-50" d="M 1259 4147 
L 1259 2394 
L 2053 2394 
Q 2494 2394 2734 2622 
Q 2975 2850 2975 3272 
Q 2975 3691 2734 3919 
Q 2494 4147 2053 4147 
L 1259 4147 
z
M 628 4666 
L 2053 4666 
Q 2838 4666 3239 4311 
Q 3641 3956 3641 3272 
Q 3641 2581 3239 2228 
Q 2838 1875 2053 1875 
L 1259 1875 
L 1259 0 
L 628 0 
L 628 4666 
z
" transform="scale(0.015625)"/>
       <path id="DejaVuSans-72" d="M 2631 2963 
Q 2534 3019 2420 3045 
Q 2306 3072 2169 3072 
Q 1681 3072 1420 2755 
Q 1159 2438 1159 1844 
L 1159 0 
L 581 0 
L 581 3500 
L 1159 3500 
L 1159 2956 
Q 1341 3275 1631 3429 
Q 1922 3584 2338 3584 
Q 2397 3584 2469 3576 
Q 2541 3569 2628 3553 
L 2631 2963 
z
" transform="scale(0.015625)"/>
       <path id="DejaVuSans-6f" d="M 1959 3097 
Q 1497 3097 1228 2736 
Q 959 2375 959 1747 
Q 959 1119 1226 758 
Q 1494 397 1959 397 
Q 2419 397 2687 759 
Q 2956 1122 2956 1747 
Q 2956 2369 2687 2733 
Q 2419 3097 1959 3097 
z
M 1959 3584 
Q 2709 3584 3137 3096 
Q 3566 2609 3566 1747 
Q 3566 888 3137 398 
Q 2709 -91 1959 -91 
Q 1206 -91 779 398 
Q 353 888 353 1747 
Q 353 2609 779 3096 
Q 1206 3584 1959 3584 
z
" transform="scale(0.015625)"/>
       <path id="DejaVuSans-70" d="M 1159 525 
L 1159 -1331 
L 581 -1331 
L 581 3500 
L 1159 3500 
L 1159 2969 
Q 1341 3281 1617 3432 
Q 1894 3584 2278 3584 
Q 2916 3584 3314 3078 
Q 3713 2572 3713 1747 
Q 3713 922 3314 415 
Q 2916 -91 2278 -91 
Q 1894 -91 1617 61 
Q 1341 213 1159 525 
z
M 3116 1747 
Q 3116 2381 2855 2742 
Q 2594 3103 2138 3103 
Q 1681 3103 1420 2742 
Q 1159 2381 1159 1747 
Q 1159 1113 1420 752 
Q 1681 391 2138 391 
Q 2594 391 2855 752 
Q 3116 1113 3116 1747 
z
" transform="scale(0.015625)"/>
       <path id="DejaVuSans-61" d="M 2194 1759 
Q 1497 1759 1228 1600 
Q 959 1441 959 1056 
Q 959 750 1161 570 
Q 1363 391 1709 391 
Q 2188 391 2477 730 
Q 2766 1069 2766 1631 
L 2766 1759 
L 2194 1759 
z
M 3341 1997 
L 3341 0 
L 2766 0 
L 2766 531 
Q 2569 213 2275 61 
Q 1981 -91 1556 -91 
Q 1019 -91 701 211 
Q 384 513 384 1019 
Q 384 1609 779 1909 
Q 1175 2209 1959 2209 
L 2766 2209 
L 2766 2266 
Q 2766 2663 2505 2880 
Q 2244 3097 1772 3097 
Q 1472 3097 1187 3025 
Q 903 2953 641 2809 
L 641 3341 
Q 956 3463 1253 3523 
Q 1550 3584 1831 3584 
Q 2591 3584 2966 3190 
Q 3341 2797 3341 1997 
z
" transform="scale(0.015625)"/>
       <path id="DejaVuSans-67" d="M 2906 1791 
Q 2906 2416 2648 2759 
Q 2391 3103 1925 3103 
Q 1463 3103 1205 2759 
Q 947 2416 947 1791 
Q 947 1169 1205 825 
Q 1463 481 1925 481 
Q 2391 481 2648 825 
Q 2906 1169 2906 1791 
z
M 3481 434 
Q 3481 -459 3084 -895 
Q 2688 -1331 1869 -1331 
Q 1566 -1331 1297 -1286 
Q 1028 -1241 775 -1147 
L 775 -588 
Q 1028 -725 1275 -790 
Q 1522 -856 1778 -856 
Q 2344 -856 2625 -561 
Q 2906 -266 2906 331 
L 2906 616 
Q 2728 306 2450 153 
Q 2172 0 1784 0 
Q 1141 0 747 490 
Q 353 981 353 1791 
Q 353 2603 747 3093 
Q 1141 3584 1784 3584 
Q 2172 3584 2450 3431 
Q 2728 3278 2906 2969 
L 2906 3500 
L 3481 3500 
L 3481 434 
z
" transform="scale(0.015625)"/>
       <path id="DejaVuSans-74" d="M 1172 4494 
L 1172 3500 
L 2356 3500 
L 2356 3053 
L 1172 3053 
L 1172 1153 
Q 1172 725 1289 603 
Q 1406 481 1766 481 
L 2356 481 
L 2356 0 
L 1766 0 
Q 1100 0 847 248 
Q 594 497 594 1153 
L 594 3053 
L 172 3053 
L 172 3500 
L 594 3500 
L 594 4494 
L 1172 4494 
z
" transform="scale(0.015625)"/>
       <path id="DejaVuSans-69" d="M 603 3500 
L 1178 3500 
L 1178 0 
L 603 0 
L 603 3500 
z
M 603 4863 
L 1178 4863 
L 1178 4134 
L 603 4134 
L 603 4863 
z
" transform="scale(0.015625)"/>
       <path id="DejaVuSans-6e" d="M 3513 2113 
L 3513 0 
L 2938 0 
L 2938 2094 
Q 2938 2591 2744 2837 
Q 2550 3084 2163 3084 
Q 1697 3084 1428 2787 
Q 1159 2491 1159 1978 
L 1159 0 
L 581 0 
L 581 3500 
L 1159 3500 
L 1159 2956 
Q 1366 3272 1645 3428 
Q 1925 3584 2291 3584 
Q 2894 3584 3203 3211 
Q 3513 2838 3513 2113 
z
" transform="scale(0.015625)"/>
       <path id="DejaVuSans-20" transform="scale(0.015625)"/>
       <path id="DejaVuSans-64" d="M 2906 2969 
L 2906 4863 
L 3481 4863 
L 3481 0 
L 2906 0 
L 2906 525 
Q 2725 213 2448 61 
Q 2172 -91 1784 -91 
Q 1150 -91 751 415 
Q 353 922 353 1747 
Q 353 2572 751 3078 
Q 1150 3584 1784 3584 
Q 2172 3584 2448 3432 
Q 2725 3281 2906 2969 
z
M 947 1747 
Q 947 1113 1208 752 
Q 1469 391 1925 391 
Q 2381 391 2643 752 
Q 2906 1113 2906 1747 
Q 2906 2381 2643 2742 
Q 2381 3103 1925 3103 
Q 1469 3103 1208 2742 
Q 947 2381 947 1747 
z
" transform="scale(0.015625)"/>
       <path id="DejaVuSans-65" d="M 3597 1894 
L 3597 1613 
L 953 1613 
Q 991 1019 1311 708 
Q 1631 397 2203 397 
Q 2534 397 2845 478 
Q 3156 559 3463 722 
L 3463 178 
Q 3153 47 2828 -22 
Q 2503 -91 2169 -91 
Q 1331 -91 842 396 
Q 353 884 353 1716 
Q 353 2575 817 3079 
Q 1281 3584 2069 3584 
Q 2775 3584 3186 3129 
Q 3597 2675 3597 1894 
z
M 3022 2063 
Q 3016 2534 2758 2815 
Q 2500 3097 2075 3097 
Q 1594 3097 1305 2825 
Q 1016 2553 972 2059 
L 3022 2063 
z
" transform="scale(0.015625)"/>
       <path id="DejaVuSans-63" d="M 3122 3366 
L 3122 2828 
Q 2878 2963 2633 3030 
Q 2388 3097 2138 3097 
Q 1578 3097 1268 2742 
Q 959 2388 959 1747 
Q 959 1106 1268 751 
Q 1578 397 2138 397 
Q 2388 397 2633 464 
Q 2878 531 3122 666 
L 3122 134 
Q 2881 22 2623 -34 
Q 2366 -91 2075 -91 
Q 1284 -91 818 406 
Q 353 903 353 1747 
Q 353 2603 823 3093 
Q 1294 3584 2113 3584 
Q 2378 3584 2631 3529 
Q 2884 3475 3122 3366 
z
" transform="scale(0.015625)"/>
      </defs>
      <use xlink:href="#DejaVuSans-50"/>
      <use xlink:href="#DejaVuSans-72" x="58.552734"/>
      <use xlink:href="#DejaVuSans-6f" x="97.416016"/>
      <use xlink:href="#DejaVuSans-70" x="158.597656"/>
      <use xlink:href="#DejaVuSans-61" x="222.074219"/>
      <use xlink:href="#DejaVuSans-67" x="283.353516"/>
      <use xlink:href="#DejaVuSans-61" x="346.830078"/>
      <use xlink:href="#DejaVuSans-74" x="408.109375"/>
      <use xlink:href="#DejaVuSans-69" x="447.318359"/>
      <use xlink:href="#DejaVuSans-6f" x="475.101562"/>
      <use xlink:href="#DejaVuSans-6e" x="536.283203"/>
      <use xlink:href="#DejaVuSans-20" x="599.662109"/>
      <use xlink:href="#DejaVuSans-64" x="631.449219"/>
      <use xlink:href="#DejaVuSans-69" x="694.925781"/>
      <use xlink:href="#DejaVuSans-72" x="722.708984"/>
      <use xlink:href="#DejaVuSans-65" x="761.572266"/>
      <use xlink:href="#DejaVuSans-63" x="823.095703"/>
      <use xlink:href="#DejaVuSans-74" x="878.076172"/>
      <use xlink:href="#DejaVuSans-69" x="917.285156"/>
      <use xlink:href="#DejaVuSans-6f" x="945.068359"/>
      <use xlink:href="#DejaVuSans-6e" x="1006.25"/>
     </g>
    </g>
   </g>
   <g id="matplotlib.axis_2">
    <g id="ytick_1">
     <g id="line2d_7">
      <defs>
       <path id="m7fb49a7ccc" d="M 0 0 
L -3.5 0 
" style="stroke: #000000; stroke-width: 0.8"/>
      </defs>
      <g>
       <use xlink:href="#m7fb49a7ccc" x="50.14375" y="273.312" style="stroke: #000000; stroke-width: 0.8"/>
      </g>
     </g>
     <g id="text_8">
      <!-- 0.00 -->
      <g transform="translate(20.878125 277.111219)scale(0.1 -0.1)">
       <use xlink:href="#DejaVuSans-30"/>
       <use xlink:href="#DejaVuSans-2e" x="63.623047"/>
       <use xlink:href="#DejaVuSans-30" x="95.410156"/>
       <use xlink:href="#DejaVuSans-30" x="159.033203"/>
      </g>
     </g>
    </g>
    <g id="ytick_2">
     <g id="line2d_8">
      <g>
       <use xlink:href="#m7fb49a7ccc" x="50.14375" y="243.609695" style="stroke: #000000; stroke-width: 0.8"/>
      </g>
     </g>
     <g id="text_9">
      <!-- 0.25 -->
      <g transform="translate(20.878125 247.408913)scale(0.1 -0.1)">
       <defs>
        <path id="DejaVuSans-35" d="M 691 4666 
L 3169 4666 
L 3169 4134 
L 1269 4134 
L 1269 2991 
Q 1406 3038 1543 3061 
Q 1681 3084 1819 3084 
Q 2600 3084 3056 2656 
Q 3513 2228 3513 1497 
Q 3513 744 3044 326 
Q 2575 -91 1722 -91 
Q 1428 -91 1123 -41 
Q 819 9 494 109 
L 494 744 
Q 775 591 1075 516 
Q 1375 441 1709 441 
Q 2250 441 2565 725 
Q 2881 1009 2881 1497 
Q 2881 1984 2565 2268 
Q 2250 2553 1709 2553 
Q 1456 2553 1204 2497 
Q 953 2441 691 2322 
L 691 4666 
z
" transform="scale(0.015625)"/>
       </defs>
       <use xlink:href="#DejaVuSans-30"/>
       <use xlink:href="#DejaVuSans-2e" x="63.623047"/>
       <use xlink:href="#DejaVuSans-32" x="95.410156"/>
       <use xlink:href="#DejaVuSans-35" x="159.033203"/>
      </g>
     </g>
    </g>
    <g id="ytick_3">
     <g id="line2d_9">
      <g>
       <use xlink:href="#m7fb49a7ccc" x="50.14375" y="213.907389" style="stroke: #000000; stroke-width: 0.8"/>
      </g>
     </g>
     <g id="text_10">
      <!-- 0.50 -->
      <g transform="translate(20.878125 217.706608)scale(0.1 -0.1)">
       <use xlink:href="#DejaVuSans-30"/>
       <use xlink:href="#DejaVuSans-2e" x="63.623047"/>
       <use xlink:href="#DejaVuSans-35" x="95.410156"/>
       <use xlink:href="#DejaVuSans-30" x="159.033203"/>
      </g>
     </g>
    </g>
    <g id="ytick_4">
     <g id="line2d_10">
      <g>
       <use xlink:href="#m7fb49a7ccc" x="50.14375" y="184.205084" style="stroke: #000000; stroke-width: 0.8"/>
      </g>
     </g>
     <g id="text_11">
      <!-- 0.75 -->
      <g transform="translate(20.878125 188.004303)scale(0.1 -0.1)">
       <defs>
        <path id="DejaVuSans-37" d="M 525 4666 
L 3525 4666 
L 3525 4397 
L 1831 0 
L 1172 0 
L 2766 4134 
L 525 4134 
L 525 4666 
z
" transform="scale(0.015625)"/>
       </defs>
       <use xlink:href="#DejaVuSans-30"/>
       <use xlink:href="#DejaVuSans-2e" x="63.623047"/>
       <use xlink:href="#DejaVuSans-37" x="95.410156"/>
       <use xlink:href="#DejaVuSans-35" x="159.033203"/>
      </g>
     </g>
    </g>
    <g id="ytick_5">
     <g id="line2d_11">
      <g>
       <use xlink:href="#m7fb49a7ccc" x="50.14375" y="154.502779" style="stroke: #000000; stroke-width: 0.8"/>
      </g>
     </g>
     <g id="text_12">
      <!-- 1.00 -->
      <g transform="translate(20.878125 158.301997)scale(0.1 -0.1)">
       <use xlink:href="#DejaVuSans-31"/>
       <use xlink:href="#DejaVuSans-2e" x="63.623047"/>
       <use xlink:href="#DejaVuSans-30" x="95.410156"/>
       <use xlink:href="#DejaVuSans-30" x="159.033203"/>
      </g>
     </g>
    </g>
    <g id="ytick_6">
     <g id="line2d_12">
      <g>
       <use xlink:href="#m7fb49a7ccc" x="50.14375" y="124.800473" style="stroke: #000000; stroke-width: 0.8"/>
      </g>
     </g>
     <g id="text_13">
      <!-- 1.25 -->
      <g transform="translate(20.878125 128.599692)scale(0.1 -0.1)">
       <use xlink:href="#DejaVuSans-31"/>
       <use xlink:href="#DejaVuSans-2e" x="63.623047"/>
       <use xlink:href="#DejaVuSans-32" x="95.410156"/>
       <use xlink:href="#DejaVuSans-35" x="159.033203"/>
      </g>
     </g>
    </g>
    <g id="ytick_7">
     <g id="line2d_13">
      <g>
       <use xlink:href="#m7fb49a7ccc" x="50.14375" y="95.098168" style="stroke: #000000; stroke-width: 0.8"/>
      </g>
     </g>
     <g id="text_14">
      <!-- 1.50 -->
      <g transform="translate(20.878125 98.897387)scale(0.1 -0.1)">
       <use xlink:href="#DejaVuSans-31"/>
       <use xlink:href="#DejaVuSans-2e" x="63.623047"/>
       <use xlink:href="#DejaVuSans-35" x="95.410156"/>
       <use xlink:href="#DejaVuSans-30" x="159.033203"/>
      </g>
     </g>
    </g>
    <g id="ytick_8">
     <g id="line2d_14">
      <g>
       <use xlink:href="#m7fb49a7ccc" x="50.14375" y="65.395863" style="stroke: #000000; stroke-width: 0.8"/>
      </g>
     </g>
     <g id="text_15">
      <!-- 1.75 -->
      <g transform="translate(20.878125 69.195081)scale(0.1 -0.1)">
       <use xlink:href="#DejaVuSans-31"/>
       <use xlink:href="#DejaVuSans-2e" x="63.623047"/>
       <use xlink:href="#DejaVuSans-37" x="95.410156"/>
       <use xlink:href="#DejaVuSans-35" x="159.033203"/>
      </g>
     </g>
    </g>
    <g id="ytick_9">
     <g id="line2d_15">
      <g>
       <use xlink:href="#m7fb49a7ccc" x="50.14375" y="35.693557" style="stroke: #000000; stroke-width: 0.8"/>
      </g>
     </g>
     <g id="text_16">
      <!-- 2.00 -->
      <g transform="translate(20.878125 39.492776)scale(0.1 -0.1)">
       <use xlink:href="#DejaVuSans-32"/>
       <use xlink:href="#DejaVuSans-2e" x="63.623047"/>
       <use xlink:href="#DejaVuSans-30" x="95.410156"/>
       <use xlink:href="#DejaVuSans-30" x="159.033203"/>
      </g>
     </g>
    </g>
    <g id="text_17">
     <!-- Probability density -->
     <g transform="translate(14.798438 186.606781)rotate(-90)scale(0.1 -0.1)">
      <defs>
       <path id="DejaVuSans-62" d="M 3116 1747 
Q 3116 2381 2855 2742 
Q 2594 3103 2138 3103 
Q 1681 3103 1420 2742 
Q 1159 2381 1159 1747 
Q 1159 1113 1420 752 
Q 1681 391 2138 391 
Q 2594 391 2855 752 
Q 3116 1113 3116 1747 
z
M 1159 2969 
Q 1341 3281 1617 3432 
Q 1894 3584 2278 3584 
Q 2916 3584 3314 3078 
Q 3713 2572 3713 1747 
Q 3713 922 3314 415 
Q 2916 -91 2278 -91 
Q 1894 -91 1617 61 
Q 1341 213 1159 525 
L 1159 0 
L 581 0 
L 581 4863 
L 1159 4863 
L 1159 2969 
z
" transform="scale(0.015625)"/>
       <path id="DejaVuSans-6c" d="M 603 4863 
L 1178 4863 
L 1178 0 
L 603 0 
L 603 4863 
z
" transform="scale(0.015625)"/>
       <path id="DejaVuSans-79" d="M 2059 -325 
Q 1816 -950 1584 -1140 
Q 1353 -1331 966 -1331 
L 506 -1331 
L 506 -850 
L 844 -850 
Q 1081 -850 1212 -737 
Q 1344 -625 1503 -206 
L 1606 56 
L 191 3500 
L 800 3500 
L 1894 763 
L 2988 3500 
L 3597 3500 
L 2059 -325 
z
" transform="scale(0.015625)"/>
       <path id="DejaVuSans-73" d="M 2834 3397 
L 2834 2853 
Q 2591 2978 2328 3040 
Q 2066 3103 1784 3103 
Q 1356 3103 1142 2972 
Q 928 2841 928 2578 
Q 928 2378 1081 2264 
Q 1234 2150 1697 2047 
L 1894 2003 
Q 2506 1872 2764 1633 
Q 3022 1394 3022 966 
Q 3022 478 2636 193 
Q 2250 -91 1575 -91 
Q 1294 -91 989 -36 
Q 684 19 347 128 
L 347 722 
Q 666 556 975 473 
Q 1284 391 1588 391 
Q 1994 391 2212 530 
Q 2431 669 2431 922 
Q 2431 1156 2273 1281 
Q 2116 1406 1581 1522 
L 1381 1569 
Q 847 1681 609 1914 
Q 372 2147 372 2553 
Q 372 3047 722 3315 
Q 1072 3584 1716 3584 
Q 2034 3584 2315 3537 
Q 2597 3491 2834 3397 
z
" transform="scale(0.015625)"/>
      </defs>
      <use xlink:href="#DejaVuSans-50"/>
      <use xlink:href="#DejaVuSans-72" x="58.552734"/>
      <use xlink:href="#DejaVuSans-6f" x="97.416016"/>
      <use xlink:href="#DejaVuSans-62" x="158.597656"/>
      <use xlink:href="#DejaVuSans-61" x="222.074219"/>
      <use xlink:href="#DejaVuSans-62" x="283.353516"/>
      <use xlink:href="#DejaVuSans-69" x="346.830078"/>
      <use xlink:href="#DejaVuSans-6c" x="374.613281"/>
      <use xlink:href="#DejaVuSans-69" x="402.396484"/>
      <use xlink:href="#DejaVuSans-74" x="430.179688"/>
      <use xlink:href="#DejaVuSans-79" x="469.388672"/>
      <use xlink:href="#DejaVuSans-20" x="528.568359"/>
      <use xlink:href="#DejaVuSans-64" x="560.355469"/>
      <use xlink:href="#DejaVuSans-65" x="623.832031"/>
      <use xlink:href="#DejaVuSans-6e" x="685.355469"/>
      <use xlink:href="#DejaVuSans-73" x="748.734375"/>
      <use xlink:href="#DejaVuSans-69" x="800.833984"/>
      <use xlink:href="#DejaVuSans-74" x="828.617188"/>
      <use xlink:href="#DejaVuSans-79" x="867.826172"/>
     </g>
    </g>
   </g>
   <g id="line2d_16">
    <path d="M 66.376477 273.312 
L 391.031023 35.693557 
L 391.031023 35.693557 
" clip-path="url(#p8ba50d50a5)" style="fill: none; stroke: #ff7f0e; stroke-width: 1.5; stroke-linecap: square"/>
   </g>
   <g id="patch_203">
    <path d="M 50.14375 273.312 
L 50.14375 7.2 
" style="fill: none; stroke: #000000; stroke-width: 0.8; stroke-linejoin: miter; stroke-linecap: square"/>
   </g>
   <g id="patch_204">
    <path d="M 407.26375 273.312 
L 407.26375 7.2 
" style="fill: none; stroke: #000000; stroke-width: 0.8; stroke-linejoin: miter; stroke-linecap: square"/>
   </g>
   <g id="patch_205">
    <path d="M 50.14375 273.312 
L 407.26375 273.312 
" style="fill: none; stroke: #000000; stroke-width: 0.8; stroke-linejoin: miter; stroke-linecap: square"/>
   </g>
   <g id="patch_206">
    <path d="M 50.14375 7.2 
L 407.26375 7.2 
" style="fill: none; stroke: #000000; stroke-width: 0.8; stroke-linejoin: miter; stroke-linecap: square"/>
   </g>
  </g>
 </g>
 <defs>
  <clipPath id="p8ba50d50a5">
   <rect x="50.14375" y="7.2" width="357.12" height="266.112"/>
  </clipPath>
 </defs>
</svg>
