<?xml version="1.0" encoding="utf-8" standalone="no"?>
<!DOCTYPE svg PUBLIC "-//W3C//DTD SVG 1.1//EN"
  "http://www.w3.org/Graphics/SVG/1.1/DTD/svg11.dtd">
<svg xmlns:xlink="http://www.w3.org/1999/xlink" width="408.10125pt" height="310.86825pt" viewBox="0 0 408.10125 310.86825" xmlns="http://www.w3.org/2000/svg" version="1.1">
 <metadata>
  <rdf:RDF xmlns:dc="http://purl.org/dc/elements/1.1/" xmlns:cc="http://creativecommons.org/ns#" xmlns:rdf="http://www.w3.org/1999/02/22-rdf-syntax-ns#">
   <cc:Work>
    <dc:type rdf:resource="http://purl.org/dc/dcmitype/StillImage"/>
    <dc:date>2022-05-03T20:14:18.629514</dc:date>
    <dc:format>image/svg+xml</dc:format>
    <dc:creator>
     <cc:Agent>
      <dc:title>Matplotlib v3.5.1, https://matplotlib.org/</dc:title>
     </cc:Agent>
    </dc:creator>
   </cc:Work>
  </rdf:RDF>
 </metadata>
 <defs>
  <style type="text/css">*{stroke-linejoin: round; stroke-linecap: butt}</style>
 </defs>
 <g id="figure_1">
  <g id="patch_1">
   <path d="M 0 310.86825 
L 408.10125 310.86825 
L 408.10125 0 
L 0 0 
z
" style="fill: #ffffff"/>
  </g>
  <g id="axes_1">
   <g id="patch_2">
    <path d="M 43.78125 273.312 
L 400.90125 273.312 
L 400.90125 7.2 
L 43.78125 7.2 
z
" style="fill: #ffffff"/>
   </g>
   <g id="patch_3">
    <path d="M 61.142983 273.312 
L 62.760566 273.312 
L 62.760566 271.584 
L 61.142983 271.584 
z
" clip-path="url(#pcfc81260f5)" style="fill: #1f77b4"/>
   </g>
   <g id="patch_4">
    <path d="M 62.760566 273.312 
L 64.37815 273.312 
L 64.37815 271.008 
L 62.760566 271.008 
z
" clip-path="url(#pcfc81260f5)" style="fill: #1f77b4"/>
   </g>
   <g id="patch_5">
    <path d="M 64.37815 273.312 
L 65.995733 273.312 
L 65.995733 269.856 
L 64.37815 269.856 
z
" clip-path="url(#pcfc81260f5)" style="fill: #1f77b4"/>
   </g>
   <g id="patch_6">
    <path d="M 65.995733 273.312 
L 67.613316 273.312 
L 67.613316 269.28 
L 65.995733 269.28 
z
" clip-path="url(#pcfc81260f5)" style="fill: #1f77b4"/>
   </g>
   <g id="patch_7">
    <path d="M 67.613316 273.312 
L 69.2309 273.312 
L 69.2309 266.4 
L 67.613316 266.4 
z
" clip-path="url(#pcfc81260f5)" style="fill: #1f77b4"/>
   </g>
   <g id="patch_8">
    <path d="M 69.2309 273.312 
L 70.848483 273.312 
L 70.848483 268.704 
L 69.2309 268.704 
z
" clip-path="url(#pcfc81260f5)" style="fill: #1f77b4"/>
   </g>
   <g id="patch_9">
    <path d="M 70.848483 273.312 
L 72.466067 273.312 
L 72.466067 264.672 
L 70.848483 264.672 
z
" clip-path="url(#pcfc81260f5)" style="fill: #1f77b4"/>
   </g>
   <g id="patch_10">
    <path d="M 72.466067 273.312 
L 74.08365 273.312 
L 74.08365 260.064 
L 72.466067 260.064 
z
" clip-path="url(#pcfc81260f5)" style="fill: #1f77b4"/>
   </g>
   <g id="patch_11">
    <path d="M 74.08365 273.312 
L 75.701233 273.312 
L 75.701233 265.824 
L 74.08365 265.824 
z
" clip-path="url(#pcfc81260f5)" style="fill: #1f77b4"/>
   </g>
   <g id="patch_12">
    <path d="M 75.701233 273.312 
L 77.318817 273.312 
L 77.318817 260.064 
L 75.701233 260.064 
z
" clip-path="url(#pcfc81260f5)" style="fill: #1f77b4"/>
   </g>
   <g id="patch_13">
    <path d="M 77.318817 273.312 
L 78.9364 273.312 
L 78.9364 257.184 
L 77.318817 257.184 
z
" clip-path="url(#pcfc81260f5)" style="fill: #1f77b4"/>
   </g>
   <g id="patch_14">
    <path d="M 78.9364 273.312 
L 80.553984 273.312 
L 80.553984 250.848 
L 78.9364 250.848 
z
" clip-path="url(#pcfc81260f5)" style="fill: #1f77b4"/>
   </g>
   <g id="patch_15">
    <path d="M 80.553984 273.312 
L 82.171567 273.312 
L 82.171567 258.336 
L 80.553984 258.336 
z
" clip-path="url(#pcfc81260f5)" style="fill: #1f77b4"/>
   </g>
   <g id="patch_16">
    <path d="M 82.171567 273.312 
L 83.78915 273.312 
L 83.78915 261.792 
L 82.171567 261.792 
z
" clip-path="url(#pcfc81260f5)" style="fill: #1f77b4"/>
   </g>
   <g id="patch_17">
    <path d="M 83.78915 273.312 
L 85.406734 273.312 
L 85.406734 254.304 
L 83.78915 254.304 
z
" clip-path="url(#pcfc81260f5)" style="fill: #1f77b4"/>
   </g>
   <g id="patch_18">
    <path d="M 85.406734 273.312 
L 87.024317 273.312 
L 87.024317 255.456 
L 85.406734 255.456 
z
" clip-path="url(#pcfc81260f5)" style="fill: #1f77b4"/>
   </g>
   <g id="patch_19">
    <path d="M 87.024317 273.312 
L 88.641901 273.312 
L 88.641901 253.728 
L 87.024317 253.728 
z
" clip-path="url(#pcfc81260f5)" style="fill: #1f77b4"/>
   </g>
   <g id="patch_20">
    <path d="M 88.641901 273.312 
L 90.259484 273.312 
L 90.259484 255.456 
L 88.641901 255.456 
z
" clip-path="url(#pcfc81260f5)" style="fill: #1f77b4"/>
   </g>
   <g id="patch_21">
    <path d="M 90.259484 273.312 
L 91.877067 273.312 
L 91.877067 252 
L 90.259484 252 
z
" clip-path="url(#pcfc81260f5)" style="fill: #1f77b4"/>
   </g>
   <g id="patch_22">
    <path d="M 91.877067 273.312 
L 93.494651 273.312 
L 93.494651 256.608 
L 91.877067 256.608 
z
" clip-path="url(#pcfc81260f5)" style="fill: #1f77b4"/>
   </g>
   <g id="patch_23">
    <path d="M 93.494651 273.312 
L 95.112234 273.312 
L 95.112234 242.784 
L 93.494651 242.784 
z
" clip-path="url(#pcfc81260f5)" style="fill: #1f77b4"/>
   </g>
   <g id="patch_24">
    <path d="M 95.112234 273.312 
L 96.729818 273.312 
L 96.729818 254.304 
L 95.112234 254.304 
z
" clip-path="url(#pcfc81260f5)" style="fill: #1f77b4"/>
   </g>
   <g id="patch_25">
    <path d="M 96.729818 273.312 
L 98.347401 273.312 
L 98.347401 248.544 
L 96.729818 248.544 
z
" clip-path="url(#pcfc81260f5)" style="fill: #1f77b4"/>
   </g>
   <g id="patch_26">
    <path d="M 98.347401 273.312 
L 99.964984 273.312 
L 99.964984 247.968 
L 98.347401 247.968 
z
" clip-path="url(#pcfc81260f5)" style="fill: #1f77b4"/>
   </g>
   <g id="patch_27">
    <path d="M 99.964984 273.312 
L 101.582568 273.312 
L 101.582568 240.48 
L 99.964984 240.48 
z
" clip-path="url(#pcfc81260f5)" style="fill: #1f77b4"/>
   </g>
   <g id="patch_28">
    <path d="M 101.582568 273.312 
L 103.200151 273.312 
L 103.200151 239.904 
L 101.582568 239.904 
z
" clip-path="url(#pcfc81260f5)" style="fill: #1f77b4"/>
   </g>
   <g id="patch_29">
    <path d="M 103.200151 273.312 
L 104.817735 273.312 
L 104.817735 242.208 
L 103.200151 242.208 
z
" clip-path="url(#pcfc81260f5)" style="fill: #1f77b4"/>
   </g>
   <g id="patch_30">
    <path d="M 104.817735 273.312 
L 106.435318 273.312 
L 106.435318 241.056 
L 104.817735 241.056 
z
" clip-path="url(#pcfc81260f5)" style="fill: #1f77b4"/>
   </g>
   <g id="patch_31">
    <path d="M 106.435318 273.312 
L 108.052901 273.312 
L 108.052901 246.816 
L 106.435318 246.816 
z
" clip-path="url(#pcfc81260f5)" style="fill: #1f77b4"/>
   </g>
   <g id="patch_32">
    <path d="M 108.052901 273.312 
L 109.670485 273.312 
L 109.670485 241.632 
L 108.052901 241.632 
z
" clip-path="url(#pcfc81260f5)" style="fill: #1f77b4"/>
   </g>
   <g id="patch_33">
    <path d="M 109.670485 273.312 
L 111.288068 273.312 
L 111.288068 244.512 
L 109.670485 244.512 
z
" clip-path="url(#pcfc81260f5)" style="fill: #1f77b4"/>
   </g>
   <g id="patch_34">
    <path d="M 111.288068 273.312 
L 112.905652 273.312 
L 112.905652 240.48 
L 111.288068 240.48 
z
" clip-path="url(#pcfc81260f5)" style="fill: #1f77b4"/>
   </g>
   <g id="patch_35">
    <path d="M 112.905652 273.312 
L 114.523235 273.312 
L 114.523235 239.328 
L 112.905652 239.328 
z
" clip-path="url(#pcfc81260f5)" style="fill: #1f77b4"/>
   </g>
   <g id="patch_36">
    <path d="M 114.523235 273.312 
L 116.140819 273.312 
L 116.140819 230.688 
L 114.523235 230.688 
z
" clip-path="url(#pcfc81260f5)" style="fill: #1f77b4"/>
   </g>
   <g id="patch_37">
    <path d="M 116.140819 273.312 
L 117.758402 273.312 
L 117.758402 227.808 
L 116.140819 227.808 
z
" clip-path="url(#pcfc81260f5)" style="fill: #1f77b4"/>
   </g>
   <g id="patch_38">
    <path d="M 117.758402 273.312 
L 119.375985 273.312 
L 119.375985 220.896 
L 117.758402 220.896 
z
" clip-path="url(#pcfc81260f5)" style="fill: #1f77b4"/>
   </g>
   <g id="patch_39">
    <path d="M 119.375985 273.312 
L 120.993569 273.312 
L 120.993569 232.416 
L 119.375985 232.416 
z
" clip-path="url(#pcfc81260f5)" style="fill: #1f77b4"/>
   </g>
   <g id="patch_40">
    <path d="M 120.993569 273.312 
L 122.611152 273.312 
L 122.611152 231.264 
L 120.993569 231.264 
z
" clip-path="url(#pcfc81260f5)" style="fill: #1f77b4"/>
   </g>
   <g id="patch_41">
    <path d="M 122.611152 273.312 
L 124.228736 273.312 
L 124.228736 221.472 
L 122.611152 221.472 
z
" clip-path="url(#pcfc81260f5)" style="fill: #1f77b4"/>
   </g>
   <g id="patch_42">
    <path d="M 124.228736 273.312 
L 125.846319 273.312 
L 125.846319 231.264 
L 124.228736 231.264 
z
" clip-path="url(#pcfc81260f5)" style="fill: #1f77b4"/>
   </g>
   <g id="patch_43">
    <path d="M 125.846319 273.312 
L 127.463902 273.312 
L 127.463902 232.992 
L 125.846319 232.992 
z
" clip-path="url(#pcfc81260f5)" style="fill: #1f77b4"/>
   </g>
   <g id="patch_44">
    <path d="M 127.463902 273.312 
L 129.081486 273.312 
L 129.081486 223.2 
L 127.463902 223.2 
z
" clip-path="url(#pcfc81260f5)" style="fill: #1f77b4"/>
   </g>
   <g id="patch_45">
    <path d="M 129.081486 273.312 
L 130.699069 273.312 
L 130.699069 222.048 
L 129.081486 222.048 
z
" clip-path="url(#pcfc81260f5)" style="fill: #1f77b4"/>
   </g>
   <g id="patch_46">
    <path d="M 130.699069 273.312 
L 132.316653 273.312 
L 132.316653 226.656 
L 130.699069 226.656 
z
" clip-path="url(#pcfc81260f5)" style="fill: #1f77b4"/>
   </g>
   <g id="patch_47">
    <path d="M 132.316653 273.312 
L 133.934236 273.312 
L 133.934236 230.688 
L 132.316653 230.688 
z
" clip-path="url(#pcfc81260f5)" style="fill: #1f77b4"/>
   </g>
   <g id="patch_48">
    <path d="M 133.934236 273.312 
L 135.551819 273.312 
L 135.551819 217.44 
L 133.934236 217.44 
z
" clip-path="url(#pcfc81260f5)" style="fill: #1f77b4"/>
   </g>
   <g id="patch_49">
    <path d="M 135.551819 273.312 
L 137.169403 273.312 
L 137.169403 228.96 
L 135.551819 228.96 
z
" clip-path="url(#pcfc81260f5)" style="fill: #1f77b4"/>
   </g>
   <g id="patch_50">
    <path d="M 137.169403 273.312 
L 138.786986 273.312 
L 138.786986 216.288 
L 137.169403 216.288 
z
" clip-path="url(#pcfc81260f5)" style="fill: #1f77b4"/>
   </g>
   <g id="patch_51">
    <path d="M 138.786986 273.312 
L 140.40457 273.312 
L 140.40457 214.56 
L 138.786986 214.56 
z
" clip-path="url(#pcfc81260f5)" style="fill: #1f77b4"/>
   </g>
   <g id="patch_52">
    <path d="M 140.40457 273.312 
L 142.022153 273.312 
L 142.022153 200.736 
L 140.40457 200.736 
z
" clip-path="url(#pcfc81260f5)" style="fill: #1f77b4"/>
   </g>
   <g id="patch_53">
    <path d="M 142.022153 273.312 
L 143.639736 273.312 
L 143.639736 210.528 
L 142.022153 210.528 
z
" clip-path="url(#pcfc81260f5)" style="fill: #1f77b4"/>
   </g>
   <g id="patch_54">
    <path d="M 143.639736 273.312 
L 145.25732 273.312 
L 145.25732 213.408 
L 143.639736 213.408 
z
" clip-path="url(#pcfc81260f5)" style="fill: #1f77b4"/>
   </g>
   <g id="patch_55">
    <path d="M 145.25732 273.312 
L 146.874903 273.312 
L 146.874903 209.952 
L 145.25732 209.952 
z
" clip-path="url(#pcfc81260f5)" style="fill: #1f77b4"/>
   </g>
   <g id="patch_56">
    <path d="M 146.874903 273.312 
L 148.492487 273.312 
L 148.492487 211.68 
L 146.874903 211.68 
z
" clip-path="url(#pcfc81260f5)" style="fill: #1f77b4"/>
   </g>
   <g id="patch_57">
    <path d="M 148.492487 273.312 
L 150.11007 273.312 
L 150.11007 215.136 
L 148.492487 215.136 
z
" clip-path="url(#pcfc81260f5)" style="fill: #1f77b4"/>
   </g>
   <g id="patch_58">
    <path d="M 150.11007 273.312 
L 151.727653 273.312 
L 151.727653 206.496 
L 150.11007 206.496 
z
" clip-path="url(#pcfc81260f5)" style="fill: #1f77b4"/>
   </g>
   <g id="patch_59">
    <path d="M 151.727653 273.312 
L 153.345237 273.312 
L 153.345237 196.128 
L 151.727653 196.128 
z
" clip-path="url(#pcfc81260f5)" style="fill: #1f77b4"/>
   </g>
   <g id="patch_60">
    <path d="M 153.345237 273.312 
L 154.96282 273.312 
L 154.96282 209.376 
L 153.345237 209.376 
z
" clip-path="url(#pcfc81260f5)" style="fill: #1f77b4"/>
   </g>
   <g id="patch_61">
    <path d="M 154.96282 273.312 
L 156.580404 273.312 
L 156.580404 207.648 
L 154.96282 207.648 
z
" clip-path="url(#pcfc81260f5)" style="fill: #1f77b4"/>
   </g>
   <g id="patch_62">
    <path d="M 156.580404 273.312 
L 158.197987 273.312 
L 158.197987 203.616 
L 156.580404 203.616 
z
" clip-path="url(#pcfc81260f5)" style="fill: #1f77b4"/>
   </g>
   <g id="patch_63">
    <path d="M 158.197987 273.312 
L 159.81557 273.312 
L 159.81557 194.4 
L 158.197987 194.4 
z
" clip-path="url(#pcfc81260f5)" style="fill: #1f77b4"/>
   </g>
   <g id="patch_64">
    <path d="M 159.81557 273.312 
L 161.433154 273.312 
L 161.433154 208.8 
L 159.81557 208.8 
z
" clip-path="url(#pcfc81260f5)" style="fill: #1f77b4"/>
   </g>
   <g id="patch_65">
    <path d="M 161.433154 273.312 
L 163.050737 273.312 
L 163.050737 201.312 
L 161.433154 201.312 
z
" clip-path="url(#pcfc81260f5)" style="fill: #1f77b4"/>
   </g>
   <g id="patch_66">
    <path d="M 163.050737 273.312 
L 164.668321 273.312 
L 164.668321 198.432 
L 163.050737 198.432 
z
" clip-path="url(#pcfc81260f5)" style="fill: #1f77b4"/>
   </g>
   <g id="patch_67">
    <path d="M 164.668321 273.312 
L 166.285904 273.312 
L 166.285904 207.072 
L 164.668321 207.072 
z
" clip-path="url(#pcfc81260f5)" style="fill: #1f77b4"/>
   </g>
   <g id="patch_68">
    <path d="M 166.285904 273.312 
L 167.903488 273.312 
L 167.903488 180 
L 166.285904 180 
z
" clip-path="url(#pcfc81260f5)" style="fill: #1f77b4"/>
   </g>
   <g id="patch_69">
    <path d="M 167.903488 273.312 
L 169.521071 273.312 
L 169.521071 193.248 
L 167.903488 193.248 
z
" clip-path="url(#pcfc81260f5)" style="fill: #1f77b4"/>
   </g>
   <g id="patch_70">
    <path d="M 169.521071 273.312 
L 171.138654 273.312 
L 171.138654 199.008 
L 169.521071 199.008 
z
" clip-path="url(#pcfc81260f5)" style="fill: #1f77b4"/>
   </g>
   <g id="patch_71">
    <path d="M 171.138654 273.312 
L 172.756238 273.312 
L 172.756238 189.216 
L 171.138654 189.216 
z
" clip-path="url(#pcfc81260f5)" style="fill: #1f77b4"/>
   </g>
   <g id="patch_72">
    <path d="M 172.756238 273.312 
L 174.373821 273.312 
L 174.373821 189.792 
L 172.756238 189.792 
z
" clip-path="url(#pcfc81260f5)" style="fill: #1f77b4"/>
   </g>
   <g id="patch_73">
    <path d="M 174.373821 273.312 
L 175.991405 273.312 
L 175.991405 201.888 
L 174.373821 201.888 
z
" clip-path="url(#pcfc81260f5)" style="fill: #1f77b4"/>
   </g>
   <g id="patch_74">
    <path d="M 175.991405 273.312 
L 177.608988 273.312 
L 177.608988 193.824 
L 175.991405 193.824 
z
" clip-path="url(#pcfc81260f5)" style="fill: #1f77b4"/>
   </g>
   <g id="patch_75">
    <path d="M 177.608988 273.312 
L 179.226571 273.312 
L 179.226571 185.76 
L 177.608988 185.76 
z
" clip-path="url(#pcfc81260f5)" style="fill: #1f77b4"/>
   </g>
   <g id="patch_76">
    <path d="M 179.226571 273.312 
L 180.844155 273.312 
L 180.844155 184.608 
L 179.226571 184.608 
z
" clip-path="url(#pcfc81260f5)" style="fill: #1f77b4"/>
   </g>
   <g id="patch_77">
    <path d="M 180.844155 273.312 
L 182.461738 273.312 
L 182.461738 185.76 
L 180.844155 185.76 
z
" clip-path="url(#pcfc81260f5)" style="fill: #1f77b4"/>
   </g>
   <g id="patch_78">
    <path d="M 182.461738 273.312 
L 184.079322 273.312 
L 184.079322 189.216 
L 182.461738 189.216 
z
" clip-path="url(#pcfc81260f5)" style="fill: #1f77b4"/>
   </g>
   <g id="patch_79">
    <path d="M 184.079322 273.312 
L 185.696905 273.312 
L 185.696905 175.968 
L 184.079322 175.968 
z
" clip-path="url(#pcfc81260f5)" style="fill: #1f77b4"/>
   </g>
   <g id="patch_80">
    <path d="M 185.696905 273.312 
L 187.314488 273.312 
L 187.314488 181.152 
L 185.696905 181.152 
z
" clip-path="url(#pcfc81260f5)" style="fill: #1f77b4"/>
   </g>
   <g id="patch_81">
    <path d="M 187.314488 273.312 
L 188.932072 273.312 
L 188.932072 175.392 
L 187.314488 175.392 
z
" clip-path="url(#pcfc81260f5)" style="fill: #1f77b4"/>
   </g>
   <g id="patch_82">
    <path d="M 188.932072 273.312 
L 190.549655 273.312 
L 190.549655 189.792 
L 188.932072 189.792 
z
" clip-path="url(#pcfc81260f5)" style="fill: #1f77b4"/>
   </g>
   <g id="patch_83">
    <path d="M 190.549655 273.312 
L 192.167239 273.312 
L 192.167239 180.576 
L 190.549655 180.576 
z
" clip-path="url(#pcfc81260f5)" style="fill: #1f77b4"/>
   </g>
   <g id="patch_84">
    <path d="M 192.167239 273.312 
L 193.784822 273.312 
L 193.784822 170.208 
L 192.167239 170.208 
z
" clip-path="url(#pcfc81260f5)" style="fill: #1f77b4"/>
   </g>
   <g id="patch_85">
    <path d="M 193.784822 273.312 
L 195.402405 273.312 
L 195.402405 183.456 
L 193.784822 183.456 
z
" clip-path="url(#pcfc81260f5)" style="fill: #1f77b4"/>
   </g>
   <g id="patch_86">
    <path d="M 195.402405 273.312 
L 197.019989 273.312 
L 197.019989 162.72 
L 195.402405 162.72 
z
" clip-path="url(#pcfc81260f5)" style="fill: #1f77b4"/>
   </g>
   <g id="patch_87">
    <path d="M 197.019989 273.312 
L 198.637572 273.312 
L 198.637572 166.752 
L 197.019989 166.752 
z
" clip-path="url(#pcfc81260f5)" style="fill: #1f77b4"/>
   </g>
   <g id="patch_88">
    <path d="M 198.637572 273.312 
L 200.255156 273.312 
L 200.255156 165.6 
L 198.637572 165.6 
z
" clip-path="url(#pcfc81260f5)" style="fill: #1f77b4"/>
   </g>
   <g id="patch_89">
    <path d="M 200.255156 273.312 
L 201.872739 273.312 
L 201.872739 174.24 
L 200.255156 174.24 
z
" clip-path="url(#pcfc81260f5)" style="fill: #1f77b4"/>
   </g>
   <g id="patch_90">
    <path d="M 201.872739 273.312 
L 203.490322 273.312 
L 203.490322 171.36 
L 201.872739 171.36 
z
" clip-path="url(#pcfc81260f5)" style="fill: #1f77b4"/>
   </g>
   <g id="patch_91">
    <path d="M 203.490322 273.312 
L 205.107906 273.312 
L 205.107906 173.664 
L 203.490322 173.664 
z
" clip-path="url(#pcfc81260f5)" style="fill: #1f77b4"/>
   </g>
   <g id="patch_92">
    <path d="M 205.107906 273.312 
L 206.725489 273.312 
L 206.725489 156.384 
L 205.107906 156.384 
z
" clip-path="url(#pcfc81260f5)" style="fill: #1f77b4"/>
   </g>
   <g id="patch_93">
    <path d="M 206.725489 273.312 
L 208.343073 273.312 
L 208.343073 165.6 
L 206.725489 165.6 
z
" clip-path="url(#pcfc81260f5)" style="fill: #1f77b4"/>
   </g>
   <g id="patch_94">
    <path d="M 208.343073 273.312 
L 209.960656 273.312 
L 209.960656 166.752 
L 208.343073 166.752 
z
" clip-path="url(#pcfc81260f5)" style="fill: #1f77b4"/>
   </g>
   <g id="patch_95">
    <path d="M 209.960656 273.312 
L 211.578239 273.312 
L 211.578239 181.152 
L 209.960656 181.152 
z
" clip-path="url(#pcfc81260f5)" style="fill: #1f77b4"/>
   </g>
   <g id="patch_96">
    <path d="M 211.578239 273.312 
L 213.195823 273.312 
L 213.195823 155.808 
L 211.578239 155.808 
z
" clip-path="url(#pcfc81260f5)" style="fill: #1f77b4"/>
   </g>
   <g id="patch_97">
    <path d="M 213.195823 273.312 
L 214.813406 273.312 
L 214.813406 166.176 
L 213.195823 166.176 
z
" clip-path="url(#pcfc81260f5)" style="fill: #1f77b4"/>
   </g>
   <g id="patch_98">
    <path d="M 214.813406 273.312 
L 216.43099 273.312 
L 216.43099 154.656 
L 214.813406 154.656 
z
" clip-path="url(#pcfc81260f5)" style="fill: #1f77b4"/>
   </g>
   <g id="patch_99">
    <path d="M 216.43099 273.312 
L 218.048573 273.312 
L 218.048573 164.448 
L 216.43099 164.448 
z
" clip-path="url(#pcfc81260f5)" style="fill: #1f77b4"/>
   </g>
   <g id="patch_100">
    <path d="M 218.048573 273.312 
L 219.666157 273.312 
L 219.666157 158.112 
L 218.048573 158.112 
z
" clip-path="url(#pcfc81260f5)" style="fill: #1f77b4"/>
   </g>
   <g id="patch_101">
    <path d="M 219.666157 273.312 
L 221.28374 273.312 
L 221.28374 169.056 
L 219.666157 169.056 
z
" clip-path="url(#pcfc81260f5)" style="fill: #1f77b4"/>
   </g>
   <g id="patch_102">
    <path d="M 221.28374 273.312 
L 222.901323 273.312 
L 222.901323 156.96 
L 221.28374 156.96 
z
" clip-path="url(#pcfc81260f5)" style="fill: #1f77b4"/>
   </g>
   <g id="patch_103">
    <path d="M 222.901323 273.312 
L 224.518907 273.312 
L 224.518907 156.384 
L 222.901323 156.384 
z
" clip-path="url(#pcfc81260f5)" style="fill: #1f77b4"/>
   </g>
   <g id="patch_104">
    <path d="M 224.518907 273.312 
L 226.13649 273.312 
L 226.13649 151.776 
L 224.518907 151.776 
z
" clip-path="url(#pcfc81260f5)" style="fill: #1f77b4"/>
   </g>
   <g id="patch_105">
    <path d="M 226.13649 273.312 
L 227.754074 273.312 
L 227.754074 166.752 
L 226.13649 166.752 
z
" clip-path="url(#pcfc81260f5)" style="fill: #1f77b4"/>
   </g>
   <g id="patch_106">
    <path d="M 227.754074 273.312 
L 229.371657 273.312 
L 229.371657 139.104 
L 227.754074 139.104 
z
" clip-path="url(#pcfc81260f5)" style="fill: #1f77b4"/>
   </g>
   <g id="patch_107">
    <path d="M 229.371657 273.312 
L 230.98924 273.312 
L 230.98924 164.448 
L 229.371657 164.448 
z
" clip-path="url(#pcfc81260f5)" style="fill: #1f77b4"/>
   </g>
   <g id="patch_108">
    <path d="M 230.98924 273.312 
L 232.606824 273.312 
L 232.606824 165.6 
L 230.98924 165.6 
z
" clip-path="url(#pcfc81260f5)" style="fill: #1f77b4"/>
   </g>
   <g id="patch_109">
    <path d="M 232.606824 273.312 
L 234.224407 273.312 
L 234.224407 155.232 
L 232.606824 155.232 
z
" clip-path="url(#pcfc81260f5)" style="fill: #1f77b4"/>
   </g>
   <g id="patch_110">
    <path d="M 234.224407 273.312 
L 235.841991 273.312 
L 235.841991 152.352 
L 234.224407 152.352 
z
" clip-path="url(#pcfc81260f5)" style="fill: #1f77b4"/>
   </g>
   <g id="patch_111">
    <path d="M 235.841991 273.312 
L 237.459574 273.312 
L 237.459574 140.256 
L 235.841991 140.256 
z
" clip-path="url(#pcfc81260f5)" style="fill: #1f77b4"/>
   </g>
   <g id="patch_112">
    <path d="M 237.459574 273.312 
L 239.077157 273.312 
L 239.077157 153.504 
L 237.459574 153.504 
z
" clip-path="url(#pcfc81260f5)" style="fill: #1f77b4"/>
   </g>
   <g id="patch_113">
    <path d="M 239.077157 273.312 
L 240.694741 273.312 
L 240.694741 155.232 
L 239.077157 155.232 
z
" clip-path="url(#pcfc81260f5)" style="fill: #1f77b4"/>
   </g>
   <g id="patch_114">
    <path d="M 240.694741 273.312 
L 242.312324 273.312 
L 242.312324 142.56 
L 240.694741 142.56 
z
" clip-path="url(#pcfc81260f5)" style="fill: #1f77b4"/>
   </g>
   <g id="patch_115">
    <path d="M 242.312324 273.312 
L 243.929908 273.312 
L 243.929908 136.224 
L 242.312324 136.224 
z
" clip-path="url(#pcfc81260f5)" style="fill: #1f77b4"/>
   </g>
   <g id="patch_116">
    <path d="M 243.929908 273.312 
L 245.547491 273.312 
L 245.547491 132.768 
L 243.929908 132.768 
z
" clip-path="url(#pcfc81260f5)" style="fill: #1f77b4"/>
   </g>
   <g id="patch_117">
    <path d="M 245.547491 273.312 
L 247.165074 273.312 
L 247.165074 121.248 
L 245.547491 121.248 
z
" clip-path="url(#pcfc81260f5)" style="fill: #1f77b4"/>
   </g>
   <g id="patch_118">
    <path d="M 247.165074 273.312 
L 248.782658 273.312 
L 248.782658 154.08 
L 247.165074 154.08 
z
" clip-path="url(#pcfc81260f5)" style="fill: #1f77b4"/>
   </g>
   <g id="patch_119">
    <path d="M 248.782658 273.312 
L 250.400241 273.312 
L 250.400241 133.344 
L 248.782658 133.344 
z
" clip-path="url(#pcfc81260f5)" style="fill: #1f77b4"/>
   </g>
   <g id="patch_120">
    <path d="M 250.400241 273.312 
L 252.017825 273.312 
L 252.017825 140.832 
L 250.400241 140.832 
z
" clip-path="url(#pcfc81260f5)" style="fill: #1f77b4"/>
   </g>
   <g id="patch_121">
    <path d="M 252.017825 273.312 
L 253.635408 273.312 
L 253.635408 128.16 
L 252.017825 128.16 
z
" clip-path="url(#pcfc81260f5)" style="fill: #1f77b4"/>
   </g>
   <g id="patch_122">
    <path d="M 253.635408 273.312 
L 255.252991 273.312 
L 255.252991 118.368 
L 253.635408 118.368 
z
" clip-path="url(#pcfc81260f5)" style="fill: #1f77b4"/>
   </g>
   <g id="patch_123">
    <path d="M 255.252991 273.312 
L 256.870575 273.312 
L 256.870575 150.048 
L 255.252991 150.048 
z
" clip-path="url(#pcfc81260f5)" style="fill: #1f77b4"/>
   </g>
   <g id="patch_124">
    <path d="M 256.870575 273.312 
L 258.488158 273.312 
L 258.488158 142.56 
L 256.870575 142.56 
z
" clip-path="url(#pcfc81260f5)" style="fill: #1f77b4"/>
   </g>
   <g id="patch_125">
    <path d="M 258.488158 273.312 
L 260.105742 273.312 
L 260.105742 137.376 
L 258.488158 137.376 
z
" clip-path="url(#pcfc81260f5)" style="fill: #1f77b4"/>
   </g>
   <g id="patch_126">
    <path d="M 260.105742 273.312 
L 261.723325 273.312 
L 261.723325 124.704 
L 260.105742 124.704 
z
" clip-path="url(#pcfc81260f5)" style="fill: #1f77b4"/>
   </g>
   <g id="patch_127">
    <path d="M 261.723325 273.312 
L 263.340908 273.312 
L 263.340908 121.824 
L 261.723325 121.824 
z
" clip-path="url(#pcfc81260f5)" style="fill: #1f77b4"/>
   </g>
   <g id="patch_128">
    <path d="M 263.340908 273.312 
L 264.958492 273.312 
L 264.958492 129.888 
L 263.340908 129.888 
z
" clip-path="url(#pcfc81260f5)" style="fill: #1f77b4"/>
   </g>
   <g id="patch_129">
    <path d="M 264.958492 273.312 
L 266.576075 273.312 
L 266.576075 131.616 
L 264.958492 131.616 
z
" clip-path="url(#pcfc81260f5)" style="fill: #1f77b4"/>
   </g>
   <g id="patch_130">
    <path d="M 266.576075 273.312 
L 268.193659 273.312 
L 268.193659 132.192 
L 266.576075 132.192 
z
" clip-path="url(#pcfc81260f5)" style="fill: #1f77b4"/>
   </g>
   <g id="patch_131">
    <path d="M 268.193659 273.312 
L 269.811242 273.312 
L 269.811242 126.432 
L 268.193659 126.432 
z
" clip-path="url(#pcfc81260f5)" style="fill: #1f77b4"/>
   </g>
   <g id="patch_132">
    <path d="M 269.811242 273.312 
L 271.428826 273.312 
L 271.428826 133.344 
L 269.811242 133.344 
z
" clip-path="url(#pcfc81260f5)" style="fill: #1f77b4"/>
   </g>
   <g id="patch_133">
    <path d="M 271.428826 273.312 
L 273.046409 273.312 
L 273.046409 118.368 
L 271.428826 118.368 
z
" clip-path="url(#pcfc81260f5)" style="fill: #1f77b4"/>
   </g>
   <g id="patch_134">
    <path d="M 273.046409 273.312 
L 274.663992 273.312 
L 274.663992 122.976 
L 273.046409 122.976 
z
" clip-path="url(#pcfc81260f5)" style="fill: #1f77b4"/>
   </g>
   <g id="patch_135">
    <path d="M 274.663992 273.312 
L 276.281576 273.312 
L 276.281576 112.032 
L 274.663992 112.032 
z
" clip-path="url(#pcfc81260f5)" style="fill: #1f77b4"/>
   </g>
   <g id="patch_136">
    <path d="M 276.281576 273.312 
L 277.899159 273.312 
L 277.899159 102.816 
L 276.281576 102.816 
z
" clip-path="url(#pcfc81260f5)" style="fill: #1f77b4"/>
   </g>
   <g id="patch_137">
    <path d="M 277.899159 273.312 
L 279.516743 273.312 
L 279.516743 112.608 
L 277.899159 112.608 
z
" clip-path="url(#pcfc81260f5)" style="fill: #1f77b4"/>
   </g>
   <g id="patch_138">
    <path d="M 279.516743 273.312 
L 281.134326 273.312 
L 281.134326 131.04 
L 279.516743 131.04 
z
" clip-path="url(#pcfc81260f5)" style="fill: #1f77b4"/>
   </g>
   <g id="patch_139">
    <path d="M 281.134326 273.312 
L 282.751909 273.312 
L 282.751909 98.208 
L 281.134326 98.208 
z
" clip-path="url(#pcfc81260f5)" style="fill: #1f77b4"/>
   </g>
   <g id="patch_140">
    <path d="M 282.751909 273.312 
L 284.369493 273.312 
L 284.369493 125.856 
L 282.751909 125.856 
z
" clip-path="url(#pcfc81260f5)" style="fill: #1f77b4"/>
   </g>
   <g id="patch_141">
    <path d="M 284.369493 273.312 
L 285.987076 273.312 
L 285.987076 120.672 
L 284.369493 120.672 
z
" clip-path="url(#pcfc81260f5)" style="fill: #1f77b4"/>
   </g>
   <g id="patch_142">
    <path d="M 285.987076 273.312 
L 287.60466 273.312 
L 287.60466 111.456 
L 285.987076 111.456 
z
" clip-path="url(#pcfc81260f5)" style="fill: #1f77b4"/>
   </g>
   <g id="patch_143">
    <path d="M 287.60466 273.312 
L 289.222243 273.312 
L 289.222243 102.24 
L 287.60466 102.24 
z
" clip-path="url(#pcfc81260f5)" style="fill: #1f77b4"/>
   </g>
   <g id="patch_144">
    <path d="M 289.222243 273.312 
L 290.839826 273.312 
L 290.839826 125.856 
L 289.222243 125.856 
z
" clip-path="url(#pcfc81260f5)" style="fill: #1f77b4"/>
   </g>
   <g id="patch_145">
    <path d="M 290.839826 273.312 
L 292.45741 273.312 
L 292.45741 115.488 
L 290.839826 115.488 
z
" clip-path="url(#pcfc81260f5)" style="fill: #1f77b4"/>
   </g>
   <g id="patch_146">
    <path d="M 292.45741 273.312 
L 294.074993 273.312 
L 294.074993 112.608 
L 292.45741 112.608 
z
" clip-path="url(#pcfc81260f5)" style="fill: #1f77b4"/>
   </g>
   <g id="patch_147">
    <path d="M 294.074993 273.312 
L 295.692577 273.312 
L 295.692577 106.848 
L 294.074993 106.848 
z
" clip-path="url(#pcfc81260f5)" style="fill: #1f77b4"/>
   </g>
   <g id="patch_148">
    <path d="M 295.692577 273.312 
L 297.31016 273.312 
L 297.31016 118.368 
L 295.692577 118.368 
z
" clip-path="url(#pcfc81260f5)" style="fill: #1f77b4"/>
   </g>
   <g id="patch_149">
    <path d="M 297.31016 273.312 
L 298.927743 273.312 
L 298.927743 115.488 
L 297.31016 115.488 
z
" clip-path="url(#pcfc81260f5)" style="fill: #1f77b4"/>
   </g>
   <g id="patch_150">
    <path d="M 298.927743 273.312 
L 300.545327 273.312 
L 300.545327 102.816 
L 298.927743 102.816 
z
" clip-path="url(#pcfc81260f5)" style="fill: #1f77b4"/>
   </g>
   <g id="patch_151">
    <path d="M 300.545327 273.312 
L 302.16291 273.312 
L 302.16291 112.032 
L 300.545327 112.032 
z
" clip-path="url(#pcfc81260f5)" style="fill: #1f77b4"/>
   </g>
   <g id="patch_152">
    <path d="M 302.16291 273.312 
L 303.780494 273.312 
L 303.780494 114.912 
L 302.16291 114.912 
z
" clip-path="url(#pcfc81260f5)" style="fill: #1f77b4"/>
   </g>
   <g id="patch_153">
    <path d="M 303.780494 273.312 
L 305.398077 273.312 
L 305.398077 94.176 
L 303.780494 94.176 
z
" clip-path="url(#pcfc81260f5)" style="fill: #1f77b4"/>
   </g>
   <g id="patch_154">
    <path d="M 305.398077 273.312 
L 307.01566 273.312 
L 307.01566 88.416 
L 305.398077 88.416 
z
" clip-path="url(#pcfc81260f5)" style="fill: #1f77b4"/>
   </g>
   <g id="patch_155">
    <path d="M 307.01566 273.312 
L 308.633244 273.312 
L 308.633244 95.904 
L 307.01566 95.904 
z
" clip-path="url(#pcfc81260f5)" style="fill: #1f77b4"/>
   </g>
   <g id="patch_156">
    <path d="M 308.633244 273.312 
L 310.250827 273.312 
L 310.250827 89.568 
L 308.633244 89.568 
z
" clip-path="url(#pcfc81260f5)" style="fill: #1f77b4"/>
   </g>
   <g id="patch_157">
    <path d="M 310.250827 273.312 
L 311.868411 273.312 
L 311.868411 97.632 
L 310.250827 97.632 
z
" clip-path="url(#pcfc81260f5)" style="fill: #1f77b4"/>
   </g>
   <g id="patch_158">
    <path d="M 311.868411 273.312 
L 313.485994 273.312 
L 313.485994 116.64 
L 311.868411 116.64 
z
" clip-path="url(#pcfc81260f5)" style="fill: #1f77b4"/>
   </g>
   <g id="patch_159">
    <path d="M 313.485994 273.312 
L 315.103577 273.312 
L 315.103577 102.24 
L 313.485994 102.24 
z
" clip-path="url(#pcfc81260f5)" style="fill: #1f77b4"/>
   </g>
   <g id="patch_160">
    <path d="M 315.103577 273.312 
L 316.721161 273.312 
L 316.721161 105.12 
L 315.103577 105.12 
z
" clip-path="url(#pcfc81260f5)" style="fill: #1f77b4"/>
   </g>
   <g id="patch_161">
    <path d="M 316.721161 273.312 
L 318.338744 273.312 
L 318.338744 89.568 
L 316.721161 89.568 
z
" clip-path="url(#pcfc81260f5)" style="fill: #1f77b4"/>
   </g>
   <g id="patch_162">
    <path d="M 318.338744 273.312 
L 319.956328 273.312 
L 319.956328 80.928 
L 318.338744 80.928 
z
" clip-path="url(#pcfc81260f5)" style="fill: #1f77b4"/>
   </g>
   <g id="patch_163">
    <path d="M 319.956328 273.312 
L 321.573911 273.312 
L 321.573911 103.968 
L 319.956328 103.968 
z
" clip-path="url(#pcfc81260f5)" style="fill: #1f77b4"/>
   </g>
   <g id="patch_164">
    <path d="M 321.573911 273.312 
L 323.191495 273.312 
L 323.191495 86.112 
L 321.573911 86.112 
z
" clip-path="url(#pcfc81260f5)" style="fill: #1f77b4"/>
   </g>
   <g id="patch_165">
    <path d="M 323.191495 273.312 
L 324.809078 273.312 
L 324.809078 65.376 
L 323.191495 65.376 
z
" clip-path="url(#pcfc81260f5)" style="fill: #1f77b4"/>
   </g>
   <g id="patch_166">
    <path d="M 324.809078 273.312 
L 326.426661 273.312 
L 326.426661 84.96 
L 324.809078 84.96 
z
" clip-path="url(#pcfc81260f5)" style="fill: #1f77b4"/>
   </g>
   <g id="patch_167">
    <path d="M 326.426661 273.312 
L 328.044245 273.312 
L 328.044245 84.384 
L 326.426661 84.384 
z
" clip-path="url(#pcfc81260f5)" style="fill: #1f77b4"/>
   </g>
   <g id="patch_168">
    <path d="M 328.044245 273.312 
L 329.661828 273.312 
L 329.661828 63.072 
L 328.044245 63.072 
z
" clip-path="url(#pcfc81260f5)" style="fill: #1f77b4"/>
   </g>
   <g id="patch_169">
    <path d="M 329.661828 273.312 
L 331.279412 273.312 
L 331.279412 75.168 
L 329.661828 75.168 
z
" clip-path="url(#pcfc81260f5)" style="fill: #1f77b4"/>
   </g>
   <g id="patch_170">
    <path d="M 331.279412 273.312 
L 332.896995 273.312 
L 332.896995 83.232 
L 331.279412 83.232 
z
" clip-path="url(#pcfc81260f5)" style="fill: #1f77b4"/>
   </g>
   <g id="patch_171">
    <path d="M 332.896995 273.312 
L 334.514578 273.312 
L 334.514578 69.408 
L 332.896995 69.408 
z
" clip-path="url(#pcfc81260f5)" style="fill: #1f77b4"/>
   </g>
   <g id="patch_172">
    <path d="M 334.514578 273.312 
L 336.132162 273.312 
L 336.132162 79.776 
L 334.514578 79.776 
z
" clip-path="url(#pcfc81260f5)" style="fill: #1f77b4"/>
   </g>
   <g id="patch_173">
    <path d="M 336.132162 273.312 
L 337.749745 273.312 
L 337.749745 71.136 
L 336.132162 71.136 
z
" clip-path="url(#pcfc81260f5)" style="fill: #1f77b4"/>
   </g>
   <g id="patch_174">
    <path d="M 337.749745 273.312 
L 339.367329 273.312 
L 339.367329 88.416 
L 337.749745 88.416 
z
" clip-path="url(#pcfc81260f5)" style="fill: #1f77b4"/>
   </g>
   <g id="patch_175">
    <path d="M 339.367329 273.312 
L 340.984912 273.312 
L 340.984912 79.776 
L 339.367329 79.776 
z
" clip-path="url(#pcfc81260f5)" style="fill: #1f77b4"/>
   </g>
   <g id="patch_176">
    <path d="M 340.984912 273.312 
L 342.602495 273.312 
L 342.602495 76.896 
L 340.984912 76.896 
z
" clip-path="url(#pcfc81260f5)" style="fill: #1f77b4"/>
   </g>
   <g id="patch_177">
    <path d="M 342.602495 273.312 
L 344.220079 273.312 
L 344.220079 77.472 
L 342.602495 77.472 
z
" clip-path="url(#pcfc81260f5)" style="fill: #1f77b4"/>
   </g>
   <g id="patch_178">
    <path d="M 344.220079 273.312 
L 345.837662 273.312 
L 345.837662 79.776 
L 344.220079 79.776 
z
" clip-path="url(#pcfc81260f5)" style="fill: #1f77b4"/>
   </g>
   <g id="patch_179">
    <path d="M 345.837662 273.312 
L 347.455246 273.312 
L 347.455246 72.864 
L 345.837662 72.864 
z
" clip-path="url(#pcfc81260f5)" style="fill: #1f77b4"/>
   </g>
   <g id="patch_180">
    <path d="M 347.455246 273.312 
L 349.072829 273.312 
L 349.072829 74.592 
L 347.455246 74.592 
z
" clip-path="url(#pcfc81260f5)" style="fill: #1f77b4"/>
   </g>
   <g id="patch_181">
    <path d="M 349.072829 273.312 
L 350.690412 273.312 
L 350.690412 72.864 
L 349.072829 72.864 
z
" clip-path="url(#pcfc81260f5)" style="fill: #1f77b4"/>
   </g>
   <g id="patch_182">
    <path d="M 350.690412 273.312 
L 352.307996 273.312 
L 352.307996 78.048 
L 350.690412 78.048 
z
" clip-path="url(#pcfc81260f5)" style="fill: #1f77b4"/>
   </g>
   <g id="patch_183">
    <path d="M 352.307996 273.312 
L 353.925579 273.312 
L 353.925579 72.864 
L 352.307996 72.864 
z
" clip-path="url(#pcfc81260f5)" style="fill: #1f77b4"/>
   </g>
   <g id="patch_184">
    <path d="M 353.925579 273.312 
L 355.543163 273.312 
L 355.543163 60.192 
L 353.925579 60.192 
z
" clip-path="url(#pcfc81260f5)" style="fill: #1f77b4"/>
   </g>
   <g id="patch_185">
    <path d="M 355.543163 273.312 
L 357.160746 273.312 
L 357.160746 68.832 
L 355.543163 68.832 
z
" clip-path="url(#pcfc81260f5)" style="fill: #1f77b4"/>
   </g>
   <g id="patch_186">
    <path d="M 357.160746 273.312 
L 358.778329 273.312 
L 358.778329 57.312 
L 357.160746 57.312 
z
" clip-path="url(#pcfc81260f5)" style="fill: #1f77b4"/>
   </g>
   <g id="patch_187">
    <path d="M 358.778329 273.312 
L 360.395913 273.312 
L 360.395913 67.104 
L 358.778329 67.104 
z
" clip-path="url(#pcfc81260f5)" style="fill: #1f77b4"/>
   </g>
   <g id="patch_188">
    <path d="M 360.395913 273.312 
L 362.013496 273.312 
L 362.013496 57.888 
L 360.395913 57.888 
z
" clip-path="url(#pcfc81260f5)" style="fill: #1f77b4"/>
   </g>
   <g id="patch_189">
    <path d="M 362.013496 273.312 
L 363.63108 273.312 
L 363.63108 60.192 
L 362.013496 60.192 
z
" clip-path="url(#pcfc81260f5)" style="fill: #1f77b4"/>
   </g>
   <g id="patch_190">
    <path d="M 363.63108 273.312 
L 365.248663 273.312 
L 365.248663 62.496 
L 363.63108 62.496 
z
" clip-path="url(#pcfc81260f5)" style="fill: #1f77b4"/>
   </g>
   <g id="patch_191">
    <path d="M 365.248663 273.312 
L 366.866246 273.312 
L 366.866246 59.616 
L 365.248663 59.616 
z
" clip-path="url(#pcfc81260f5)" style="fill: #1f77b4"/>
   </g>
   <g id="patch_192">
    <path d="M 366.866246 273.312 
L 368.48383 273.312 
L 368.48383 43.488 
L 366.866246 43.488 
z
" clip-path="url(#pcfc81260f5)" style="fill: #1f77b4"/>
   </g>
   <g id="patch_193">
    <path d="M 368.48383 273.312 
L 370.101413 273.312 
L 370.101413 59.04 
L 368.48383 59.04 
z
" clip-path="url(#pcfc81260f5)" style="fill: #1f77b4"/>
   </g>
   <g id="patch_194">
    <path d="M 370.101413 273.312 
L 371.718997 273.312 
L 371.718997 65.376 
L 370.101413 65.376 
z
" clip-path="url(#pcfc81260f5)" style="fill: #1f77b4"/>
   </g>
   <g id="patch_195">
    <path d="M 371.718997 273.312 
L 373.33658 273.312 
L 373.33658 60.192 
L 371.718997 60.192 
z
" clip-path="url(#pcfc81260f5)" style="fill: #1f77b4"/>
   </g>
   <g id="patch_196">
    <path d="M 373.33658 273.312 
L 374.954164 273.312 
L 374.954164 55.008 
L 373.33658 55.008 
z
" clip-path="url(#pcfc81260f5)" style="fill: #1f77b4"/>
   </g>
   <g id="patch_197">
    <path d="M 374.954164 273.312 
L 376.571747 273.312 
L 376.571747 40.032 
L 374.954164 40.032 
z
" clip-path="url(#pcfc81260f5)" style="fill: #1f77b4"/>
   </g>
   <g id="patch_198">
    <path d="M 376.571747 273.312 
L 378.18933 273.312 
L 378.18933 58.464 
L 376.571747 58.464 
z
" clip-path="url(#pcfc81260f5)" style="fill: #1f77b4"/>
   </g>
   <g id="patch_199">
    <path d="M 378.18933 273.312 
L 379.806914 273.312 
L 379.806914 53.28 
L 378.18933 53.28 
z
" clip-path="url(#pcfc81260f5)" style="fill: #1f77b4"/>
   </g>
   <g id="patch_200">
    <path d="M 379.806914 273.312 
L 381.424497 273.312 
L 381.424497 68.256 
L 379.806914 68.256 
z
" clip-path="url(#pcfc81260f5)" style="fill: #1f77b4"/>
   </g>
   <g id="patch_201">
    <path d="M 381.424497 273.312 
L 383.042081 273.312 
L 383.042081 29.664 
L 381.424497 29.664 
z
" clip-path="url(#pcfc81260f5)" style="fill: #1f77b4"/>
   </g>
   <g id="patch_202">
    <path d="M 383.042081 273.312 
L 384.659664 273.312 
L 384.659664 19.872 
L 383.042081 19.872 
z
" clip-path="url(#pcfc81260f5)" style="fill: #1f77b4"/>
   </g>
   <g id="matplotlib.axis_1">
    <g id="xtick_1">
     <g id="line2d_1">
      <defs>
       <path id="me93bad9204" d="M 0 0 
L 0 3.5 
" style="stroke: #000000; stroke-width: 0.8"/>
      </defs>
      <g>
       <use xlink:href="#me93bad9204" x="60.013977" y="273.312" style="stroke: #000000; stroke-width: 0.8"/>
      </g>
     </g>
     <g id="text_1">
      <!-- 0.0 -->
      <g transform="translate(52.062415 287.910437)scale(0.1 -0.1)">
       <defs>
        <path id="DejaVuSans-30" d="M 2034 4250 
Q 1547 4250 1301 3770 
Q 1056 3291 1056 2328 
Q 1056 1369 1301 889 
Q 1547 409 2034 409 
Q 2525 409 2770 889 
Q 3016 1369 3016 2328 
Q 3016 3291 2770 3770 
Q 2525 4250 2034 4250 
z
M 2034 4750 
Q 2819 4750 3233 4129 
Q 3647 3509 3647 2328 
Q 3647 1150 3233 529 
Q 2819 -91 2034 -91 
Q 1250 -91 836 529 
Q 422 1150 422 2328 
Q 422 3509 836 4129 
Q 1250 4750 2034 4750 
z
" transform="scale(0.015625)"/>
        <path id="DejaVuSans-2e" d="M 684 794 
L 1344 794 
L 1344 0 
L 684 0 
L 684 794 
z
" transform="scale(0.015625)"/>
       </defs>
       <use xlink:href="#DejaVuSans-30"/>
       <use xlink:href="#DejaVuSans-2e" x="63.623047"/>
       <use xlink:href="#DejaVuSans-30" x="95.410156"/>
      </g>
     </g>
    </g>
    <g id="xtick_2">
     <g id="line2d_2">
      <g>
       <use xlink:href="#me93bad9204" x="124.944886" y="273.312" style="stroke: #000000; stroke-width: 0.8"/>
      </g>
     </g>
     <g id="text_2">
      <!-- 0.2 -->
      <g transform="translate(116.993324 287.910437)scale(0.1 -0.1)">
       <defs>
        <path id="DejaVuSans-32" d="M 1228 531 
L 3431 531 
L 3431 0 
L 469 0 
L 469 531 
Q 828 903 1448 1529 
Q 2069 2156 2228 2338 
Q 2531 2678 2651 2914 
Q 2772 3150 2772 3378 
Q 2772 3750 2511 3984 
Q 2250 4219 1831 4219 
Q 1534 4219 1204 4116 
Q 875 4013 500 3803 
L 500 4441 
Q 881 4594 1212 4672 
Q 1544 4750 1819 4750 
Q 2544 4750 2975 4387 
Q 3406 4025 3406 3419 
Q 3406 3131 3298 2873 
Q 3191 2616 2906 2266 
Q 2828 2175 2409 1742 
Q 1991 1309 1228 531 
z
" transform="scale(0.015625)"/>
       </defs>
       <use xlink:href="#DejaVuSans-30"/>
       <use xlink:href="#DejaVuSans-2e" x="63.623047"/>
       <use xlink:href="#DejaVuSans-32" x="95.410156"/>
      </g>
     </g>
    </g>
    <g id="xtick_3">
     <g id="line2d_3">
      <g>
       <use xlink:href="#me93bad9204" x="189.875795" y="273.312" style="stroke: #000000; stroke-width: 0.8"/>
      </g>
     </g>
     <g id="text_3">
      <!-- 0.4 -->
      <g transform="translate(181.924233 287.910437)scale(0.1 -0.1)">
       <defs>
        <path id="DejaVuSans-34" d="M 2419 4116 
L 825 1625 
L 2419 1625 
L 2419 4116 
z
M 2253 4666 
L 3047 4666 
L 3047 1625 
L 3713 1625 
L 3713 1100 
L 3047 1100 
L 3047 0 
L 2419 0 
L 2419 1100 
L 313 1100 
L 313 1709 
L 2253 4666 
z
" transform="scale(0.015625)"/>
       </defs>
       <use xlink:href="#DejaVuSans-30"/>
       <use xlink:href="#DejaVuSans-2e" x="63.623047"/>
       <use xlink:href="#DejaVuSans-34" x="95.410156"/>
      </g>
     </g>
    </g>
    <g id="xtick_4">
     <g id="line2d_4">
      <g>
       <use xlink:href="#me93bad9204" x="254.806705" y="273.312" style="stroke: #000000; stroke-width: 0.8"/>
      </g>
     </g>
     <g id="text_4">
      <!-- 0.6 -->
      <g transform="translate(246.855142 287.910437)scale(0.1 -0.1)">
       <defs>
        <path id="DejaVuSans-36" d="M 2113 2584 
Q 1688 2584 1439 2293 
Q 1191 2003 1191 1497 
Q 1191 994 1439 701 
Q 1688 409 2113 409 
Q 2538 409 2786 701 
Q 3034 994 3034 1497 
Q 3034 2003 2786 2293 
Q 2538 2584 2113 2584 
z
M 3366 4563 
L 3366 3988 
Q 3128 4100 2886 4159 
Q 2644 4219 2406 4219 
Q 1781 4219 1451 3797 
Q 1122 3375 1075 2522 
Q 1259 2794 1537 2939 
Q 1816 3084 2150 3084 
Q 2853 3084 3261 2657 
Q 3669 2231 3669 1497 
Q 3669 778 3244 343 
Q 2819 -91 2113 -91 
Q 1303 -91 875 529 
Q 447 1150 447 2328 
Q 447 3434 972 4092 
Q 1497 4750 2381 4750 
Q 2619 4750 2861 4703 
Q 3103 4656 3366 4563 
z
" transform="scale(0.015625)"/>
       </defs>
       <use xlink:href="#DejaVuSans-30"/>
       <use xlink:href="#DejaVuSans-2e" x="63.623047"/>
       <use xlink:href="#DejaVuSans-36" x="95.410156"/>
      </g>
     </g>
    </g>
    <g id="xtick_5">
     <g id="line2d_5">
      <g>
       <use xlink:href="#me93bad9204" x="319.737614" y="273.312" style="stroke: #000000; stroke-width: 0.8"/>
      </g>
     </g>
     <g id="text_5">
      <!-- 0.8 -->
      <g transform="translate(311.786051 287.910437)scale(0.1 -0.1)">
       <defs>
        <path id="DejaVuSans-38" d="M 2034 2216 
Q 1584 2216 1326 1975 
Q 1069 1734 1069 1313 
Q 1069 891 1326 650 
Q 1584 409 2034 409 
Q 2484 409 2743 651 
Q 3003 894 3003 1313 
Q 3003 1734 2745 1975 
Q 2488 2216 2034 2216 
z
M 1403 2484 
Q 997 2584 770 2862 
Q 544 3141 544 3541 
Q 544 4100 942 4425 
Q 1341 4750 2034 4750 
Q 2731 4750 3128 4425 
Q 3525 4100 3525 3541 
Q 3525 3141 3298 2862 
Q 3072 2584 2669 2484 
Q 3125 2378 3379 2068 
Q 3634 1759 3634 1313 
Q 3634 634 3220 271 
Q 2806 -91 2034 -91 
Q 1263 -91 848 271 
Q 434 634 434 1313 
Q 434 1759 690 2068 
Q 947 2378 1403 2484 
z
M 1172 3481 
Q 1172 3119 1398 2916 
Q 1625 2713 2034 2713 
Q 2441 2713 2670 2916 
Q 2900 3119 2900 3481 
Q 2900 3844 2670 4047 
Q 2441 4250 2034 4250 
Q 1625 4250 1398 4047 
Q 1172 3844 1172 3481 
z
" transform="scale(0.015625)"/>
       </defs>
       <use xlink:href="#DejaVuSans-30"/>
       <use xlink:href="#DejaVuSans-2e" x="63.623047"/>
       <use xlink:href="#DejaVuSans-38" x="95.410156"/>
      </g>
     </g>
    </g>
    <g id="xtick_6">
     <g id="line2d_6">
      <g>
       <use xlink:href="#me93bad9204" x="384.668523" y="273.312" style="stroke: #000000; stroke-width: 0.8"/>
      </g>
     </g>
     <g id="text_6">
      <!-- 1.0 -->
      <g transform="translate(376.71696 287.910437)scale(0.1 -0.1)">
       <defs>
        <path id="DejaVuSans-31" d="M 794 531 
L 1825 531 
L 1825 4091 
L 703 3866 
L 703 4441 
L 1819 4666 
L 2450 4666 
L 2450 531 
L 3481 531 
L 3481 0 
L 794 0 
L 794 531 
z
" transform="scale(0.015625)"/>
       </defs>
       <use xlink:href="#DejaVuSans-31"/>
       <use xlink:href="#DejaVuSans-2e" x="63.623047"/>
       <use xlink:href="#DejaVuSans-30" x="95.410156"/>
      </g>
     </g>
    </g>
    <g id="text_7">
     <!-- Propagation direction -->
     <g transform="translate(168.859219 301.588562)scale(0.1 -0.1)">
      <defs>
       <path id="DejaVuSans-50" d="M 1259 4147 
L 1259 2394 
L 2053 2394 
Q 2494 2394 2734 2622 
Q 2975 2850 2975 3272 
Q 2975 3691 2734 3919 
Q 2494 4147 2053 4147 
L 1259 4147 
z
M 628 4666 
L 2053 4666 
Q 2838 4666 3239 4311 
Q 3641 3956 3641 3272 
Q 3641 2581 3239 2228 
Q 2838 1875 2053 1875 
L 1259 1875 
L 1259 0 
L 628 0 
L 628 4666 
z
" transform="scale(0.015625)"/>
       <path id="DejaVuSans-72" d="M 2631 2963 
Q 2534 3019 2420 3045 
Q 2306 3072 2169 3072 
Q 1681 3072 1420 2755 
Q 1159 2438 1159 1844 
L 1159 0 
L 581 0 
L 581 3500 
L 1159 3500 
L 1159 2956 
Q 1341 3275 1631 3429 
Q 1922 3584 2338 3584 
Q 2397 3584 2469 3576 
Q 2541 3569 2628 3553 
L 2631 2963 
z
" transform="scale(0.015625)"/>
       <path id="DejaVuSans-6f" d="M 1959 3097 
Q 1497 3097 1228 2736 
Q 959 2375 959 1747 
Q 959 1119 1226 758 
Q 1494 397 1959 397 
Q 2419 397 2687 759 
Q 2956 1122 2956 1747 
Q 2956 2369 2687 2733 
Q 2419 3097 1959 3097 
z
M 1959 3584 
Q 2709 3584 3137 3096 
Q 3566 2609 3566 1747 
Q 3566 888 3137 398 
Q 2709 -91 1959 -91 
Q 1206 -91 779 398 
Q 353 888 353 1747 
Q 353 2609 779 3096 
Q 1206 3584 1959 3584 
z
" transform="scale(0.015625)"/>
       <path id="DejaVuSans-70" d="M 1159 525 
L 1159 -1331 
L 581 -1331 
L 581 3500 
L 1159 3500 
L 1159 2969 
Q 1341 3281 1617 3432 
Q 1894 3584 2278 3584 
Q 2916 3584 3314 3078 
Q 3713 2572 3713 1747 
Q 3713 922 3314 415 
Q 2916 -91 2278 -91 
Q 1894 -91 1617 61 
Q 1341 213 1159 525 
z
M 3116 1747 
Q 3116 2381 2855 2742 
Q 2594 3103 2138 3103 
Q 1681 3103 1420 2742 
Q 1159 2381 1159 1747 
Q 1159 1113 1420 752 
Q 1681 391 2138 391 
Q 2594 391 2855 752 
Q 3116 1113 3116 1747 
z
" transform="scale(0.015625)"/>
       <path id="DejaVuSans-61" d="M 2194 1759 
Q 1497 1759 1228 1600 
Q 959 1441 959 1056 
Q 959 750 1161 570 
Q 1363 391 1709 391 
Q 2188 391 2477 730 
Q 2766 1069 2766 1631 
L 2766 1759 
L 2194 1759 
z
M 3341 1997 
L 3341 0 
L 2766 0 
L 2766 531 
Q 2569 213 2275 61 
Q 1981 -91 1556 -91 
Q 1019 -91 701 211 
Q 384 513 384 1019 
Q 384 1609 779 1909 
Q 1175 2209 1959 2209 
L 2766 2209 
L 2766 2266 
Q 2766 2663 2505 2880 
Q 2244 3097 1772 3097 
Q 1472 3097 1187 3025 
Q 903 2953 641 2809 
L 641 3341 
Q 956 3463 1253 3523 
Q 1550 3584 1831 3584 
Q 2591 3584 2966 3190 
Q 3341 2797 3341 1997 
z
" transform="scale(0.015625)"/>
       <path id="DejaVuSans-67" d="M 2906 1791 
Q 2906 2416 2648 2759 
Q 2391 3103 1925 3103 
Q 1463 3103 1205 2759 
Q 947 2416 947 1791 
Q 947 1169 1205 825 
Q 1463 481 1925 481 
Q 2391 481 2648 825 
Q 2906 1169 2906 1791 
z
M 3481 434 
Q 3481 -459 3084 -895 
Q 2688 -1331 1869 -1331 
Q 1566 -1331 1297 -1286 
Q 1028 -1241 775 -1147 
L 775 -588 
Q 1028 -725 1275 -790 
Q 1522 -856 1778 -856 
Q 2344 -856 2625 -561 
Q 2906 -266 2906 331 
L 2906 616 
Q 2728 306 2450 153 
Q 2172 0 1784 0 
Q 1141 0 747 490 
Q 353 981 353 1791 
Q 353 2603 747 3093 
Q 1141 3584 1784 3584 
Q 2172 3584 2450 3431 
Q 2728 3278 2906 2969 
L 2906 3500 
L 3481 3500 
L 3481 434 
z
" transform="scale(0.015625)"/>
       <path id="DejaVuSans-74" d="M 1172 4494 
L 1172 3500 
L 2356 3500 
L 2356 3053 
L 1172 3053 
L 1172 1153 
Q 1172 725 1289 603 
Q 1406 481 1766 481 
L 2356 481 
L 2356 0 
L 1766 0 
Q 1100 0 847 248 
Q 594 497 594 1153 
L 594 3053 
L 172 3053 
L 172 3500 
L 594 3500 
L 594 4494 
L 1172 4494 
z
" transform="scale(0.015625)"/>
       <path id="DejaVuSans-69" d="M 603 3500 
L 1178 3500 
L 1178 0 
L 603 0 
L 603 3500 
z
M 603 4863 
L 1178 4863 
L 1178 4134 
L 603 4134 
L 603 4863 
z
" transform="scale(0.015625)"/>
       <path id="DejaVuSans-6e" d="M 3513 2113 
L 3513 0 
L 2938 0 
L 2938 2094 
Q 2938 2591 2744 2837 
Q 2550 3084 2163 3084 
Q 1697 3084 1428 2787 
Q 1159 2491 1159 1978 
L 1159 0 
L 581 0 
L 581 3500 
L 1159 3500 
L 1159 2956 
Q 1366 3272 1645 3428 
Q 1925 3584 2291 3584 
Q 2894 3584 3203 3211 
Q 3513 2838 3513 2113 
z
" transform="scale(0.015625)"/>
       <path id="DejaVuSans-20" transform="scale(0.015625)"/>
       <path id="DejaVuSans-64" d="M 2906 2969 
L 2906 4863 
L 3481 4863 
L 3481 0 
L 2906 0 
L 2906 525 
Q 2725 213 2448 61 
Q 2172 -91 1784 -91 
Q 1150 -91 751 415 
Q 353 922 353 1747 
Q 353 2572 751 3078 
Q 1150 3584 1784 3584 
Q 2172 3584 2448 3432 
Q 2725 3281 2906 2969 
z
M 947 1747 
Q 947 1113 1208 752 
Q 1469 391 1925 391 
Q 2381 391 2643 752 
Q 2906 1113 2906 1747 
Q 2906 2381 2643 2742 
Q 2381 3103 1925 3103 
Q 1469 3103 1208 2742 
Q 947 2381 947 1747 
z
" transform="scale(0.015625)"/>
       <path id="DejaVuSans-65" d="M 3597 1894 
L 3597 1613 
L 953 1613 
Q 991 1019 1311 708 
Q 1631 397 2203 397 
Q 2534 397 2845 478 
Q 3156 559 3463 722 
L 3463 178 
Q 3153 47 2828 -22 
Q 2503 -91 2169 -91 
Q 1331 -91 842 396 
Q 353 884 353 1716 
Q 353 2575 817 3079 
Q 1281 3584 2069 3584 
Q 2775 3584 3186 3129 
Q 3597 2675 3597 1894 
z
M 3022 2063 
Q 3016 2534 2758 2815 
Q 2500 3097 2075 3097 
Q 1594 3097 1305 2825 
Q 1016 2553 972 2059 
L 3022 2063 
z
" transform="scale(0.015625)"/>
       <path id="DejaVuSans-63" d="M 3122 3366 
L 3122 2828 
Q 2878 2963 2633 3030 
Q 2388 3097 2138 3097 
Q 1578 3097 1268 2742 
Q 959 2388 959 1747 
Q 959 1106 1268 751 
Q 1578 397 2138 397 
Q 2388 397 2633 464 
Q 2878 531 3122 666 
L 3122 134 
Q 2881 22 2623 -34 
Q 2366 -91 2075 -91 
Q 1284 -91 818 406 
Q 353 903 353 1747 
Q 353 2603 823 3093 
Q 1294 3584 2113 3584 
Q 2378 3584 2631 3529 
Q 2884 3475 3122 3366 
z
" transform="scale(0.015625)"/>
      </defs>
      <use xlink:href="#DejaVuSans-50"/>
      <use xlink:href="#DejaVuSans-72" x="58.552734"/>
      <use xlink:href="#DejaVuSans-6f" x="97.416016"/>
      <use xlink:href="#DejaVuSans-70" x="158.597656"/>
      <use xlink:href="#DejaVuSans-61" x="222.074219"/>
      <use xlink:href="#DejaVuSans-67" x="283.353516"/>
      <use xlink:href="#DejaVuSans-61" x="346.830078"/>
      <use xlink:href="#DejaVuSans-74" x="408.109375"/>
      <use xlink:href="#DejaVuSans-69" x="447.318359"/>
      <use xlink:href="#DejaVuSans-6f" x="475.101562"/>
      <use xlink:href="#DejaVuSans-6e" x="536.283203"/>
      <use xlink:href="#DejaVuSans-20" x="599.662109"/>
      <use xlink:href="#DejaVuSans-64" x="631.449219"/>
      <use xlink:href="#DejaVuSans-69" x="694.925781"/>
      <use xlink:href="#DejaVuSans-72" x="722.708984"/>
      <use xlink:href="#DejaVuSans-65" x="761.572266"/>
      <use xlink:href="#DejaVuSans-63" x="823.095703"/>
      <use xlink:href="#DejaVuSans-74" x="878.076172"/>
      <use xlink:href="#DejaVuSans-69" x="917.285156"/>
      <use xlink:href="#DejaVuSans-6f" x="945.068359"/>
      <use xlink:href="#DejaVuSans-6e" x="1006.25"/>
     </g>
    </g>
   </g>
   <g id="matplotlib.axis_2">
    <g id="ytick_1">
     <g id="line2d_7">
      <defs>
       <path id="m4986be1da5" d="M 0 0 
L -3.5 0 
" style="stroke: #000000; stroke-width: 0.8"/>
      </defs>
      <g>
       <use xlink:href="#m4986be1da5" x="43.78125" y="273.312" style="stroke: #000000; stroke-width: 0.8"/>
      </g>
     </g>
     <g id="text_8">
      <!-- 0.0 -->
      <g transform="translate(20.878125 277.111219)scale(0.1 -0.1)">
       <use xlink:href="#DejaVuSans-30"/>
       <use xlink:href="#DejaVuSans-2e" x="63.623047"/>
       <use xlink:href="#DejaVuSans-30" x="95.410156"/>
      </g>
     </g>
    </g>
    <g id="ytick_2">
     <g id="line2d_8">
      <g>
       <use xlink:href="#m4986be1da5" x="43.78125" y="215.913879" style="stroke: #000000; stroke-width: 0.8"/>
      </g>
     </g>
     <g id="text_9">
      <!-- 0.5 -->
      <g transform="translate(20.878125 219.713098)scale(0.1 -0.1)">
       <defs>
        <path id="DejaVuSans-35" d="M 691 4666 
L 3169 4666 
L 3169 4134 
L 1269 4134 
L 1269 2991 
Q 1406 3038 1543 3061 
Q 1681 3084 1819 3084 
Q 2600 3084 3056 2656 
Q 3513 2228 3513 1497 
Q 3513 744 3044 326 
Q 2575 -91 1722 -91 
Q 1428 -91 1123 -41 
Q 819 9 494 109 
L 494 744 
Q 775 591 1075 516 
Q 1375 441 1709 441 
Q 2250 441 2565 725 
Q 2881 1009 2881 1497 
Q 2881 1984 2565 2268 
Q 2250 2553 1709 2553 
Q 1456 2553 1204 2497 
Q 953 2441 691 2322 
L 691 4666 
z
" transform="scale(0.015625)"/>
       </defs>
       <use xlink:href="#DejaVuSans-30"/>
       <use xlink:href="#DejaVuSans-2e" x="63.623047"/>
       <use xlink:href="#DejaVuSans-35" x="95.410156"/>
      </g>
     </g>
    </g>
    <g id="ytick_3">
     <g id="line2d_9">
      <g>
       <use xlink:href="#m4986be1da5" x="43.78125" y="158.515758" style="stroke: #000000; stroke-width: 0.8"/>
      </g>
     </g>
     <g id="text_10">
      <!-- 1.0 -->
      <g transform="translate(20.878125 162.314977)scale(0.1 -0.1)">
       <use xlink:href="#DejaVuSans-31"/>
       <use xlink:href="#DejaVuSans-2e" x="63.623047"/>
       <use xlink:href="#DejaVuSans-30" x="95.410156"/>
      </g>
     </g>
    </g>
    <g id="ytick_4">
     <g id="line2d_10">
      <g>
       <use xlink:href="#m4986be1da5" x="43.78125" y="101.117637" style="stroke: #000000; stroke-width: 0.8"/>
      </g>
     </g>
     <g id="text_11">
      <!-- 1.5 -->
      <g transform="translate(20.878125 104.916856)scale(0.1 -0.1)">
       <use xlink:href="#DejaVuSans-31"/>
       <use xlink:href="#DejaVuSans-2e" x="63.623047"/>
       <use xlink:href="#DejaVuSans-35" x="95.410156"/>
      </g>
     </g>
    </g>
    <g id="ytick_5">
     <g id="line2d_11">
      <g>
       <use xlink:href="#m4986be1da5" x="43.78125" y="43.719517" style="stroke: #000000; stroke-width: 0.8"/>
      </g>
     </g>
     <g id="text_12">
      <!-- 2.0 -->
      <g transform="translate(20.878125 47.518735)scale(0.1 -0.1)">
       <use xlink:href="#DejaVuSans-32"/>
       <use xlink:href="#DejaVuSans-2e" x="63.623047"/>
       <use xlink:href="#DejaVuSans-30" x="95.410156"/>
      </g>
     </g>
    </g>
    <g id="text_13">
     <!-- Probability density -->
     <g transform="translate(14.798438 186.606781)rotate(-90)scale(0.1 -0.1)">
      <defs>
       <path id="DejaVuSans-62" d="M 3116 1747 
Q 3116 2381 2855 2742 
Q 2594 3103 2138 3103 
Q 1681 3103 1420 2742 
Q 1159 2381 1159 1747 
Q 1159 1113 1420 752 
Q 1681 391 2138 391 
Q 2594 391 2855 752 
Q 3116 1113 3116 1747 
z
M 1159 2969 
Q 1341 3281 1617 3432 
Q 1894 3584 2278 3584 
Q 2916 3584 3314 3078 
Q 3713 2572 3713 1747 
Q 3713 922 3314 415 
Q 2916 -91 2278 -91 
Q 1894 -91 1617 61 
Q 1341 213 1159 525 
L 1159 0 
L 581 0 
L 581 4863 
L 1159 4863 
L 1159 2969 
z
" transform="scale(0.015625)"/>
       <path id="DejaVuSans-6c" d="M 603 4863 
L 1178 4863 
L 1178 0 
L 603 0 
L 603 4863 
z
" transform="scale(0.015625)"/>
       <path id="DejaVuSans-79" d="M 2059 -325 
Q 1816 -950 1584 -1140 
Q 1353 -1331 966 -1331 
L 506 -1331 
L 506 -850 
L 844 -850 
Q 1081 -850 1212 -737 
Q 1344 -625 1503 -206 
L 1606 56 
L 191 3500 
L 800 3500 
L 1894 763 
L 2988 3500 
L 3597 3500 
L 2059 -325 
z
" transform="scale(0.015625)"/>
       <path id="DejaVuSans-73" d="M 2834 3397 
L 2834 2853 
Q 2591 2978 2328 3040 
Q 2066 3103 1784 3103 
Q 1356 3103 1142 2972 
Q 928 2841 928 2578 
Q 928 2378 1081 2264 
Q 1234 2150 1697 2047 
L 1894 2003 
Q 2506 1872 2764 1633 
Q 3022 1394 3022 966 
Q 3022 478 2636 193 
Q 2250 -91 1575 -91 
Q 1294 -91 989 -36 
Q 684 19 347 128 
L 347 722 
Q 666 556 975 473 
Q 1284 391 1588 391 
Q 1994 391 2212 530 
Q 2431 669 2431 922 
Q 2431 1156 2273 1281 
Q 2116 1406 1581 1522 
L 1381 1569 
Q 847 1681 609 1914 
Q 372 2147 372 2553 
Q 372 3047 722 3315 
Q 1072 3584 1716 3584 
Q 2034 3584 2315 3537 
Q 2597 3491 2834 3397 
z
" transform="scale(0.015625)"/>
      </defs>
      <use xlink:href="#DejaVuSans-50"/>
      <use xlink:href="#DejaVuSans-72" x="58.552734"/>
      <use xlink:href="#DejaVuSans-6f" x="97.416016"/>
      <use xlink:href="#DejaVuSans-62" x="158.597656"/>
      <use xlink:href="#DejaVuSans-61" x="222.074219"/>
      <use xlink:href="#DejaVuSans-62" x="283.353516"/>
      <use xlink:href="#DejaVuSans-69" x="346.830078"/>
      <use xlink:href="#DejaVuSans-6c" x="374.613281"/>
      <use xlink:href="#DejaVuSans-69" x="402.396484"/>
      <use xlink:href="#DejaVuSans-74" x="430.179688"/>
      <use xlink:href="#DejaVuSans-79" x="469.388672"/>
      <use xlink:href="#DejaVuSans-20" x="528.568359"/>
      <use xlink:href="#DejaVuSans-64" x="560.355469"/>
      <use xlink:href="#DejaVuSans-65" x="623.832031"/>
      <use xlink:href="#DejaVuSans-6e" x="685.355469"/>
      <use xlink:href="#DejaVuSans-73" x="748.734375"/>
      <use xlink:href="#DejaVuSans-69" x="800.833984"/>
      <use xlink:href="#DejaVuSans-74" x="828.617188"/>
      <use xlink:href="#DejaVuSans-79" x="867.826172"/>
     </g>
    </g>
   </g>
   <g id="line2d_12">
    <path d="M 60.013977 273.312 
L 384.668523 43.719517 
L 384.668523 43.719517 
" clip-path="url(#pcfc81260f5)" style="fill: none; stroke: #ff7f0e; stroke-width: 1.5; stroke-linecap: square"/>
   </g>
   <g id="patch_203">
    <path d="M 43.78125 273.312 
L 43.78125 7.2 
" style="fill: none; stroke: #000000; stroke-width: 0.8; stroke-linejoin: miter; stroke-linecap: square"/>
   </g>
   <g id="patch_204">
    <path d="M 400.90125 273.312 
L 400.90125 7.2 
" style="fill: none; stroke: #000000; stroke-width: 0.8; stroke-linejoin: miter; stroke-linecap: square"/>
   </g>
   <g id="patch_205">
    <path d="M 43.78125 273.312 
L 400.90125 273.312 
" style="fill: none; stroke: #000000; stroke-width: 0.8; stroke-linejoin: miter; stroke-linecap: square"/>
   </g>
   <g id="patch_206">
    <path d="M 43.78125 7.2 
L 400.90125 7.2 
" style="fill: none; stroke: #000000; stroke-width: 0.8; stroke-linejoin: miter; stroke-linecap: square"/>
   </g>
  </g>
 </g>
 <defs>
  <clipPath id="pcfc81260f5">
   <rect x="43.78125" y="7.2" width="357.12" height="266.112"/>
  </clipPath>
 </defs>
</svg>
