<?xml version="1.0" encoding="utf-8" standalone="no"?>
<!DOCTYPE svg PUBLIC "-//W3C//DTD SVG 1.1//EN"
  "http://www.w3.org/Graphics/SVG/1.1/DTD/svg11.dtd">
<svg xmlns:xlink="http://www.w3.org/1999/xlink" width="414.46375pt" height="310.86825pt" viewBox="0 0 414.46375 310.86825" xmlns="http://www.w3.org/2000/svg" version="1.1">
 <metadata>
  <rdf:RDF xmlns:dc="http://purl.org/dc/elements/1.1/" xmlns:cc="http://creativecommons.org/ns#" xmlns:rdf="http://www.w3.org/1999/02/22-rdf-syntax-ns#">
   <cc:Work>
    <dc:type rdf:resource="http://purl.org/dc/dcmitype/StillImage"/>
    <dc:date>2022-05-08T00:31:58.681431</dc:date>
    <dc:format>image/svg+xml</dc:format>
    <dc:creator>
     <cc:Agent>
      <dc:title>Matplotlib v3.5.2, https://matplotlib.org/</dc:title>
     </cc:Agent>
    </dc:creator>
   </cc:Work>
  </rdf:RDF>
 </metadata>
 <defs>
  <style type="text/css">*{stroke-linejoin: round; stroke-linecap: butt}</style>
 </defs>
 <g id="figure_1">
  <g id="patch_1">
   <path d="M 0 310.86825 
L 414.46375 310.86825 
L 414.46375 0 
L 0 0 
z
" style="fill: #ffffff"/>
  </g>
  <g id="axes_1">
   <g id="patch_2">
    <path d="M 50.14375 273.312 
L 407.26375 273.312 
L 407.26375 7.2 
L 50.14375 7.2 
z
" style="fill: #ffffff"/>
   </g>
   <g id="patch_3">
    <path d="M 67.749534 273.312 
L 69.365919 273.312 
L 69.365919 271.514553 
L 67.749534 271.514553 
z
" clip-path="url(#p53ce1ac2e5)" style="fill: #1f77b4"/>
   </g>
   <g id="patch_4">
    <path d="M 69.365919 273.312 
L 70.982304 273.312 
L 70.982304 270.316255 
L 69.365919 270.316255 
z
" clip-path="url(#p53ce1ac2e5)" style="fill: #1f77b4"/>
   </g>
   <g id="patch_5">
    <path d="M 70.982304 273.312 
L 72.598689 273.312 
L 72.598689 269.717106 
L 70.982304 269.717106 
z
" clip-path="url(#p53ce1ac2e5)" style="fill: #1f77b4"/>
   </g>
   <g id="patch_6">
    <path d="M 72.598689 273.312 
L 74.215074 273.312 
L 74.215074 268.518809 
L 72.598689 268.518809 
z
" clip-path="url(#p53ce1ac2e5)" style="fill: #1f77b4"/>
   </g>
   <g id="patch_7">
    <path d="M 74.215074 273.312 
L 75.831459 273.312 
L 75.831459 263.725617 
L 74.215074 263.725617 
z
" clip-path="url(#p53ce1ac2e5)" style="fill: #1f77b4"/>
   </g>
   <g id="patch_8">
    <path d="M 75.831459 273.312 
L 77.447844 273.312 
L 77.447844 268.518809 
L 75.831459 268.518809 
z
" clip-path="url(#p53ce1ac2e5)" style="fill: #1f77b4"/>
   </g>
   <g id="patch_9">
    <path d="M 77.447844 273.312 
L 79.064229 273.312 
L 79.064229 262.527319 
L 77.447844 262.527319 
z
" clip-path="url(#p53ce1ac2e5)" style="fill: #1f77b4"/>
   </g>
   <g id="patch_10">
    <path d="M 79.064229 273.312 
L 80.680614 273.312 
L 80.680614 263.126468 
L 79.064229 263.126468 
z
" clip-path="url(#p53ce1ac2e5)" style="fill: #1f77b4"/>
   </g>
   <g id="patch_11">
    <path d="M 80.680614 273.312 
L 82.296999 273.312 
L 82.296999 261.92817 
L 80.680614 261.92817 
z
" clip-path="url(#p53ce1ac2e5)" style="fill: #1f77b4"/>
   </g>
   <g id="patch_12">
    <path d="M 82.296999 273.312 
L 83.913384 273.312 
L 83.913384 261.329021 
L 82.296999 261.329021 
z
" clip-path="url(#p53ce1ac2e5)" style="fill: #1f77b4"/>
   </g>
   <g id="patch_13">
    <path d="M 83.913384 273.312 
L 85.529769 273.312 
L 85.529769 257.734128 
L 83.913384 257.734128 
z
" clip-path="url(#p53ce1ac2e5)" style="fill: #1f77b4"/>
   </g>
   <g id="patch_14">
    <path d="M 85.529769 273.312 
L 87.146154 273.312 
L 87.146154 257.734128 
L 85.529769 257.734128 
z
" clip-path="url(#p53ce1ac2e5)" style="fill: #1f77b4"/>
   </g>
   <g id="patch_15">
    <path d="M 87.146154 273.312 
L 88.762539 273.312 
L 88.762539 252.940936 
L 87.146154 252.940936 
z
" clip-path="url(#p53ce1ac2e5)" style="fill: #1f77b4"/>
   </g>
   <g id="patch_16">
    <path d="M 88.762539 273.312 
L 90.378924 273.312 
L 90.378924 258.333277 
L 88.762539 258.333277 
z
" clip-path="url(#p53ce1ac2e5)" style="fill: #1f77b4"/>
   </g>
   <g id="patch_17">
    <path d="M 90.378924 273.312 
L 91.995309 273.312 
L 91.995309 260.729872 
L 90.378924 260.729872 
z
" clip-path="url(#p53ce1ac2e5)" style="fill: #1f77b4"/>
   </g>
   <g id="patch_18">
    <path d="M 91.995309 273.312 
L 93.611694 273.312 
L 93.611694 251.742638 
L 91.995309 251.742638 
z
" clip-path="url(#p53ce1ac2e5)" style="fill: #1f77b4"/>
   </g>
   <g id="patch_19">
    <path d="M 93.611694 273.312 
L 95.228079 273.312 
L 95.228079 248.147745 
L 93.611694 248.147745 
z
" clip-path="url(#p53ce1ac2e5)" style="fill: #1f77b4"/>
   </g>
   <g id="patch_20">
    <path d="M 95.228079 273.312 
L 96.844464 273.312 
L 96.844464 247.548596 
L 95.228079 247.548596 
z
" clip-path="url(#p53ce1ac2e5)" style="fill: #1f77b4"/>
   </g>
   <g id="patch_21">
    <path d="M 96.844464 273.312 
L 98.460849 273.312 
L 98.460849 248.746894 
L 96.844464 248.746894 
z
" clip-path="url(#p53ce1ac2e5)" style="fill: #1f77b4"/>
   </g>
   <g id="patch_22">
    <path d="M 98.460849 273.312 
L 100.077234 273.312 
L 100.077234 255.337532 
L 98.460849 255.337532 
z
" clip-path="url(#p53ce1ac2e5)" style="fill: #1f77b4"/>
   </g>
   <g id="patch_23">
    <path d="M 100.077234 273.312 
L 101.693619 273.312 
L 101.693619 255.337532 
L 100.077234 255.337532 
z
" clip-path="url(#p53ce1ac2e5)" style="fill: #1f77b4"/>
   </g>
   <g id="patch_24">
    <path d="M 101.693619 273.312 
L 103.310004 273.312 
L 103.310004 242.156255 
L 101.693619 242.156255 
z
" clip-path="url(#p53ce1ac2e5)" style="fill: #1f77b4"/>
   </g>
   <g id="patch_25">
    <path d="M 103.310004 273.312 
L 104.926389 273.312 
L 104.926389 251.143489 
L 103.310004 251.143489 
z
" clip-path="url(#p53ce1ac2e5)" style="fill: #1f77b4"/>
   </g>
   <g id="patch_26">
    <path d="M 104.926389 273.312 
L 106.542774 273.312 
L 106.542774 248.746894 
L 104.926389 248.746894 
z
" clip-path="url(#p53ce1ac2e5)" style="fill: #1f77b4"/>
   </g>
   <g id="patch_27">
    <path d="M 106.542774 273.312 
L 108.159159 273.312 
L 108.159159 246.949447 
L 106.542774 246.949447 
z
" clip-path="url(#p53ce1ac2e5)" style="fill: #1f77b4"/>
   </g>
   <g id="patch_28">
    <path d="M 108.159159 273.312 
L 109.775544 273.312 
L 109.775544 240.358809 
L 108.159159 240.358809 
z
" clip-path="url(#p53ce1ac2e5)" style="fill: #1f77b4"/>
   </g>
   <g id="patch_29">
    <path d="M 109.775544 273.312 
L 111.391929 273.312 
L 111.391929 241.557106 
L 109.775544 241.557106 
z
" clip-path="url(#p53ce1ac2e5)" style="fill: #1f77b4"/>
   </g>
   <g id="patch_30">
    <path d="M 111.391929 273.312 
L 113.008314 273.312 
L 113.008314 240.358809 
L 111.391929 240.358809 
z
" clip-path="url(#p53ce1ac2e5)" style="fill: #1f77b4"/>
   </g>
   <g id="patch_31">
    <path d="M 113.008314 273.312 
L 114.624699 273.312 
L 114.624699 234.367319 
L 113.008314 234.367319 
z
" clip-path="url(#p53ce1ac2e5)" style="fill: #1f77b4"/>
   </g>
   <g id="patch_32">
    <path d="M 114.624699 273.312 
L 116.241084 273.312 
L 116.241084 241.557106 
L 114.624699 241.557106 
z
" clip-path="url(#p53ce1ac2e5)" style="fill: #1f77b4"/>
   </g>
   <g id="patch_33">
    <path d="M 116.241084 273.312 
L 117.857469 273.312 
L 117.857469 233.169021 
L 116.241084 233.169021 
z
" clip-path="url(#p53ce1ac2e5)" style="fill: #1f77b4"/>
   </g>
   <g id="patch_34">
    <path d="M 117.857469 273.312 
L 119.473854 273.312 
L 119.473854 240.957957 
L 117.857469 240.957957 
z
" clip-path="url(#p53ce1ac2e5)" style="fill: #1f77b4"/>
   </g>
   <g id="patch_35">
    <path d="M 119.473854 273.312 
L 121.090239 273.312 
L 121.090239 233.169021 
L 119.473854 233.169021 
z
" clip-path="url(#p53ce1ac2e5)" style="fill: #1f77b4"/>
   </g>
   <g id="patch_36">
    <path d="M 121.090239 273.312 
L 122.706624 273.312 
L 122.706624 228.974979 
L 121.090239 228.974979 
z
" clip-path="url(#p53ce1ac2e5)" style="fill: #1f77b4"/>
   </g>
   <g id="patch_37">
    <path d="M 122.706624 273.312 
L 124.323009 273.312 
L 124.323009 234.367319 
L 122.706624 234.367319 
z
" clip-path="url(#p53ce1ac2e5)" style="fill: #1f77b4"/>
   </g>
   <g id="patch_38">
    <path d="M 124.323009 273.312 
L 125.939394 273.312 
L 125.939394 226.578383 
L 124.323009 226.578383 
z
" clip-path="url(#p53ce1ac2e5)" style="fill: #1f77b4"/>
   </g>
   <g id="patch_39">
    <path d="M 125.939394 273.312 
L 127.555779 273.312 
L 127.555779 230.173277 
L 125.939394 230.173277 
z
" clip-path="url(#p53ce1ac2e5)" style="fill: #1f77b4"/>
   </g>
   <g id="patch_40">
    <path d="M 127.555779 273.312 
L 129.172164 273.312 
L 129.172164 234.966468 
L 127.555779 234.966468 
z
" clip-path="url(#p53ce1ac2e5)" style="fill: #1f77b4"/>
   </g>
   <g id="patch_41">
    <path d="M 129.172164 273.312 
L 130.788549 273.312 
L 130.788549 219.388596 
L 129.172164 219.388596 
z
" clip-path="url(#p53ce1ac2e5)" style="fill: #1f77b4"/>
   </g>
   <g id="patch_42">
    <path d="M 130.788549 273.312 
L 132.404934 273.312 
L 132.404934 218.789447 
L 130.788549 218.789447 
z
" clip-path="url(#p53ce1ac2e5)" style="fill: #1f77b4"/>
   </g>
   <g id="patch_43">
    <path d="M 132.404934 273.312 
L 134.021319 273.312 
L 134.021319 223.582638 
L 132.404934 223.582638 
z
" clip-path="url(#p53ce1ac2e5)" style="fill: #1f77b4"/>
   </g>
   <g id="patch_44">
    <path d="M 134.021319 273.312 
L 135.637704 273.312 
L 135.637704 209.802213 
L 134.021319 209.802213 
z
" clip-path="url(#p53ce1ac2e5)" style="fill: #1f77b4"/>
   </g>
   <g id="patch_45">
    <path d="M 135.637704 273.312 
L 137.25409 273.312 
L 137.25409 222.38434 
L 135.637704 222.38434 
z
" clip-path="url(#p53ce1ac2e5)" style="fill: #1f77b4"/>
   </g>
   <g id="patch_46">
    <path d="M 137.25409 273.312 
L 138.870475 273.312 
L 138.870475 216.392851 
L 137.25409 216.392851 
z
" clip-path="url(#p53ce1ac2e5)" style="fill: #1f77b4"/>
   </g>
   <g id="patch_47">
    <path d="M 138.870475 273.312 
L 140.48686 273.312 
L 140.48686 218.789447 
L 138.870475 218.789447 
z
" clip-path="url(#p53ce1ac2e5)" style="fill: #1f77b4"/>
   </g>
   <g id="patch_48">
    <path d="M 140.48686 273.312 
L 142.103245 273.312 
L 142.103245 208.603915 
L 140.48686 208.603915 
z
" clip-path="url(#p53ce1ac2e5)" style="fill: #1f77b4"/>
   </g>
   <g id="patch_49">
    <path d="M 142.103245 273.312 
L 143.71963 273.312 
L 143.71963 227.776681 
L 142.103245 227.776681 
z
" clip-path="url(#p53ce1ac2e5)" style="fill: #1f77b4"/>
   </g>
   <g id="patch_50">
    <path d="M 143.71963 273.312 
L 145.336015 273.312 
L 145.336015 215.793702 
L 143.71963 215.793702 
z
" clip-path="url(#p53ce1ac2e5)" style="fill: #1f77b4"/>
   </g>
   <g id="patch_51">
    <path d="M 145.336015 273.312 
L 146.9524 273.312 
L 146.9524 224.780936 
L 145.336015 224.780936 
z
" clip-path="url(#p53ce1ac2e5)" style="fill: #1f77b4"/>
   </g>
   <g id="patch_52">
    <path d="M 146.9524 273.312 
L 148.568785 273.312 
L 148.568785 215.793702 
L 146.9524 215.793702 
z
" clip-path="url(#p53ce1ac2e5)" style="fill: #1f77b4"/>
   </g>
   <g id="patch_53">
    <path d="M 148.568785 273.312 
L 150.18517 273.312 
L 150.18517 206.806468 
L 148.568785 206.806468 
z
" clip-path="url(#p53ce1ac2e5)" style="fill: #1f77b4"/>
   </g>
   <g id="patch_54">
    <path d="M 150.18517 273.312 
L 151.801555 273.312 
L 151.801555 207.405617 
L 150.18517 207.405617 
z
" clip-path="url(#p53ce1ac2e5)" style="fill: #1f77b4"/>
   </g>
   <g id="patch_55">
    <path d="M 151.801555 273.312 
L 153.41794 273.312 
L 153.41794 198.418383 
L 151.801555 198.418383 
z
" clip-path="url(#p53ce1ac2e5)" style="fill: #1f77b4"/>
   </g>
   <g id="patch_56">
    <path d="M 153.41794 273.312 
L 155.034325 273.312 
L 155.034325 201.414128 
L 153.41794 201.414128 
z
" clip-path="url(#p53ce1ac2e5)" style="fill: #1f77b4"/>
   </g>
   <g id="patch_57">
    <path d="M 155.034325 273.312 
L 156.65071 273.312 
L 156.65071 203.810723 
L 155.034325 203.810723 
z
" clip-path="url(#p53ce1ac2e5)" style="fill: #1f77b4"/>
   </g>
   <g id="patch_58">
    <path d="M 156.65071 273.312 
L 158.267095 273.312 
L 158.267095 201.414128 
L 156.65071 201.414128 
z
" clip-path="url(#p53ce1ac2e5)" style="fill: #1f77b4"/>
   </g>
   <g id="patch_59">
    <path d="M 158.267095 273.312 
L 159.88348 273.312 
L 159.88348 203.810723 
L 158.267095 203.810723 
z
" clip-path="url(#p53ce1ac2e5)" style="fill: #1f77b4"/>
   </g>
   <g id="patch_60">
    <path d="M 159.88348 273.312 
L 161.499865 273.312 
L 161.499865 205.009021 
L 159.88348 205.009021 
z
" clip-path="url(#p53ce1ac2e5)" style="fill: #1f77b4"/>
   </g>
   <g id="patch_61">
    <path d="M 161.499865 273.312 
L 163.11625 273.312 
L 163.11625 199.017532 
L 161.499865 199.017532 
z
" clip-path="url(#p53ce1ac2e5)" style="fill: #1f77b4"/>
   </g>
   <g id="patch_62">
    <path d="M 163.11625 273.312 
L 164.732635 273.312 
L 164.732635 196.021787 
L 163.11625 196.021787 
z
" clip-path="url(#p53ce1ac2e5)" style="fill: #1f77b4"/>
   </g>
   <g id="patch_63">
    <path d="M 164.732635 273.312 
L 166.34902 273.312 
L 166.34902 201.414128 
L 164.732635 201.414128 
z
" clip-path="url(#p53ce1ac2e5)" style="fill: #1f77b4"/>
   </g>
   <g id="patch_64">
    <path d="M 166.34902 273.312 
L 167.965405 273.312 
L 167.965405 194.22434 
L 166.34902 194.22434 
z
" clip-path="url(#p53ce1ac2e5)" style="fill: #1f77b4"/>
   </g>
   <g id="patch_65">
    <path d="M 167.965405 273.312 
L 169.58179 273.312 
L 169.58179 203.810723 
L 167.965405 203.810723 
z
" clip-path="url(#p53ce1ac2e5)" style="fill: #1f77b4"/>
   </g>
   <g id="patch_66">
    <path d="M 169.58179 273.312 
L 171.198175 273.312 
L 171.198175 200.21583 
L 169.58179 200.21583 
z
" clip-path="url(#p53ce1ac2e5)" style="fill: #1f77b4"/>
   </g>
   <g id="patch_67">
    <path d="M 171.198175 273.312 
L 172.81456 273.312 
L 172.81456 188.832 
L 171.198175 188.832 
z
" clip-path="url(#p53ce1ac2e5)" style="fill: #1f77b4"/>
   </g>
   <g id="patch_68">
    <path d="M 172.81456 273.312 
L 174.430945 273.312 
L 174.430945 192.426894 
L 172.81456 192.426894 
z
" clip-path="url(#p53ce1ac2e5)" style="fill: #1f77b4"/>
   </g>
   <g id="patch_69">
    <path d="M 174.430945 273.312 
L 176.04733 273.312 
L 176.04733 201.414128 
L 174.430945 201.414128 
z
" clip-path="url(#p53ce1ac2e5)" style="fill: #1f77b4"/>
   </g>
   <g id="patch_70">
    <path d="M 176.04733 273.312 
L 177.663715 273.312 
L 177.663715 197.819234 
L 176.04733 197.819234 
z
" clip-path="url(#p53ce1ac2e5)" style="fill: #1f77b4"/>
   </g>
   <g id="patch_71">
    <path d="M 177.663715 273.312 
L 179.2801 273.312 
L 179.2801 188.832 
L 177.663715 188.832 
z
" clip-path="url(#p53ce1ac2e5)" style="fill: #1f77b4"/>
   </g>
   <g id="patch_72">
    <path d="M 179.2801 273.312 
L 180.896485 273.312 
L 180.896485 184.637957 
L 179.2801 184.637957 
z
" clip-path="url(#p53ce1ac2e5)" style="fill: #1f77b4"/>
   </g>
   <g id="patch_73">
    <path d="M 180.896485 273.312 
L 182.51287 273.312 
L 182.51287 189.431149 
L 180.896485 189.431149 
z
" clip-path="url(#p53ce1ac2e5)" style="fill: #1f77b4"/>
   </g>
   <g id="patch_74">
    <path d="M 182.51287 273.312 
L 184.129255 273.312 
L 184.129255 182.840511 
L 182.51287 182.840511 
z
" clip-path="url(#p53ce1ac2e5)" style="fill: #1f77b4"/>
   </g>
   <g id="patch_75">
    <path d="M 184.129255 273.312 
L 185.74564 273.312 
L 185.74564 189.431149 
L 184.129255 189.431149 
z
" clip-path="url(#p53ce1ac2e5)" style="fill: #1f77b4"/>
   </g>
   <g id="patch_76">
    <path d="M 185.74564 273.312 
L 187.362025 273.312 
L 187.362025 186.435404 
L 185.74564 186.435404 
z
" clip-path="url(#p53ce1ac2e5)" style="fill: #1f77b4"/>
   </g>
   <g id="patch_77">
    <path d="M 187.362025 273.312 
L 188.97841 273.312 
L 188.97841 179.844766 
L 187.362025 179.844766 
z
" clip-path="url(#p53ce1ac2e5)" style="fill: #1f77b4"/>
   </g>
   <g id="patch_78">
    <path d="M 188.97841 273.312 
L 190.594795 273.312 
L 190.594795 170.258383 
L 188.97841 170.258383 
z
" clip-path="url(#p53ce1ac2e5)" style="fill: #1f77b4"/>
   </g>
   <g id="patch_79">
    <path d="M 190.594795 273.312 
L 192.21118 273.312 
L 192.21118 187.034553 
L 190.594795 187.034553 
z
" clip-path="url(#p53ce1ac2e5)" style="fill: #1f77b4"/>
   </g>
   <g id="patch_80">
    <path d="M 192.21118 273.312 
L 193.827565 273.312 
L 193.827565 172.05583 
L 192.21118 172.05583 
z
" clip-path="url(#p53ce1ac2e5)" style="fill: #1f77b4"/>
   </g>
   <g id="patch_81">
    <path d="M 193.827565 273.312 
L 195.44395 273.312 
L 195.44395 178.047319 
L 193.827565 178.047319 
z
" clip-path="url(#p53ce1ac2e5)" style="fill: #1f77b4"/>
   </g>
   <g id="patch_82">
    <path d="M 195.44395 273.312 
L 197.060335 273.312 
L 197.060335 179.844766 
L 195.44395 179.844766 
z
" clip-path="url(#p53ce1ac2e5)" style="fill: #1f77b4"/>
   </g>
   <g id="patch_83">
    <path d="M 197.060335 273.312 
L 198.67672 273.312 
L 198.67672 179.844766 
L 197.060335 179.844766 
z
" clip-path="url(#p53ce1ac2e5)" style="fill: #1f77b4"/>
   </g>
   <g id="patch_84">
    <path d="M 198.67672 273.312 
L 200.293105 273.312 
L 200.293105 175.650723 
L 198.67672 175.650723 
z
" clip-path="url(#p53ce1ac2e5)" style="fill: #1f77b4"/>
   </g>
   <g id="patch_85">
    <path d="M 200.293105 273.312 
L 201.90949 273.312 
L 201.90949 172.654979 
L 200.293105 172.654979 
z
" clip-path="url(#p53ce1ac2e5)" style="fill: #1f77b4"/>
   </g>
   <g id="patch_86">
    <path d="M 201.90949 273.312 
L 203.525875 273.312 
L 203.525875 173.853277 
L 201.90949 173.853277 
z
" clip-path="url(#p53ce1ac2e5)" style="fill: #1f77b4"/>
   </g>
   <g id="patch_87">
    <path d="M 203.525875 273.312 
L 205.14226 273.312 
L 205.14226 175.051574 
L 203.525875 175.051574 
z
" clip-path="url(#p53ce1ac2e5)" style="fill: #1f77b4"/>
   </g>
   <g id="patch_88">
    <path d="M 205.14226 273.312 
L 206.758645 273.312 
L 206.758645 159.473702 
L 205.14226 159.473702 
z
" clip-path="url(#p53ce1ac2e5)" style="fill: #1f77b4"/>
   </g>
   <g id="patch_89">
    <path d="M 206.758645 273.312 
L 208.37503 273.312 
L 208.37503 167.262638 
L 206.758645 167.262638 
z
" clip-path="url(#p53ce1ac2e5)" style="fill: #1f77b4"/>
   </g>
   <g id="patch_90">
    <path d="M 208.37503 273.312 
L 209.991415 273.312 
L 209.991415 159.473702 
L 208.37503 159.473702 
z
" clip-path="url(#p53ce1ac2e5)" style="fill: #1f77b4"/>
   </g>
   <g id="patch_91">
    <path d="M 209.991415 273.312 
L 211.6078 273.312 
L 211.6078 175.650723 
L 209.991415 175.650723 
z
" clip-path="url(#p53ce1ac2e5)" style="fill: #1f77b4"/>
   </g>
   <g id="patch_92">
    <path d="M 211.6078 273.312 
L 213.224185 273.312 
L 213.224185 154.680511 
L 211.6078 154.680511 
z
" clip-path="url(#p53ce1ac2e5)" style="fill: #1f77b4"/>
   </g>
   <g id="patch_93">
    <path d="M 213.224185 273.312 
L 214.84057 273.312 
L 214.84057 164.866043 
L 213.224185 164.866043 
z
" clip-path="url(#p53ce1ac2e5)" style="fill: #1f77b4"/>
   </g>
   <g id="patch_94">
    <path d="M 214.84057 273.312 
L 216.456955 273.312 
L 216.456955 166.663489 
L 214.84057 166.663489 
z
" clip-path="url(#p53ce1ac2e5)" style="fill: #1f77b4"/>
   </g>
   <g id="patch_95">
    <path d="M 216.456955 273.312 
L 218.07334 273.312 
L 218.07334 173.254128 
L 216.456955 173.254128 
z
" clip-path="url(#p53ce1ac2e5)" style="fill: #1f77b4"/>
   </g>
   <g id="patch_96">
    <path d="M 218.07334 273.312 
L 219.689725 273.312 
L 219.689725 157.676255 
L 218.07334 157.676255 
z
" clip-path="url(#p53ce1ac2e5)" style="fill: #1f77b4"/>
   </g>
   <g id="patch_97">
    <path d="M 219.689725 273.312 
L 221.30611 273.312 
L 221.30611 149.887319 
L 219.689725 149.887319 
z
" clip-path="url(#p53ce1ac2e5)" style="fill: #1f77b4"/>
   </g>
   <g id="patch_98">
    <path d="M 221.30611 273.312 
L 222.922495 273.312 
L 222.922495 160.072851 
L 221.30611 160.072851 
z
" clip-path="url(#p53ce1ac2e5)" style="fill: #1f77b4"/>
   </g>
   <g id="patch_99">
    <path d="M 222.922495 273.312 
L 224.53888 273.312 
L 224.53888 165.465191 
L 222.922495 165.465191 
z
" clip-path="url(#p53ce1ac2e5)" style="fill: #1f77b4"/>
   </g>
   <g id="patch_100">
    <path d="M 224.53888 273.312 
L 226.155265 273.312 
L 226.155265 161.870298 
L 224.53888 161.870298 
z
" clip-path="url(#p53ce1ac2e5)" style="fill: #1f77b4"/>
   </g>
   <g id="patch_101">
    <path d="M 226.155265 273.312 
L 227.77165 273.312 
L 227.77165 165.465191 
L 226.155265 165.465191 
z
" clip-path="url(#p53ce1ac2e5)" style="fill: #1f77b4"/>
   </g>
   <g id="patch_102">
    <path d="M 227.77165 273.312 
L 229.388035 273.312 
L 229.388035 167.861787 
L 227.77165 167.861787 
z
" clip-path="url(#p53ce1ac2e5)" style="fill: #1f77b4"/>
   </g>
   <g id="patch_103">
    <path d="M 229.388035 273.312 
L 231.00442 273.312 
L 231.00442 152.883064 
L 229.388035 152.883064 
z
" clip-path="url(#p53ce1ac2e5)" style="fill: #1f77b4"/>
   </g>
   <g id="patch_104">
    <path d="M 231.00442 273.312 
L 232.620805 273.312 
L 232.620805 136.106894 
L 231.00442 136.106894 
z
" clip-path="url(#p53ce1ac2e5)" style="fill: #1f77b4"/>
   </g>
   <g id="patch_105">
    <path d="M 232.620805 273.312 
L 234.23719 273.312 
L 234.23719 160.672 
L 232.620805 160.672 
z
" clip-path="url(#p53ce1ac2e5)" style="fill: #1f77b4"/>
   </g>
   <g id="patch_106">
    <path d="M 234.23719 273.312 
L 235.853575 273.312 
L 235.853575 133.111149 
L 234.23719 133.111149 
z
" clip-path="url(#p53ce1ac2e5)" style="fill: #1f77b4"/>
   </g>
   <g id="patch_107">
    <path d="M 235.853575 273.312 
L 237.46996 273.312 
L 237.46996 149.887319 
L 235.853575 149.887319 
z
" clip-path="url(#p53ce1ac2e5)" style="fill: #1f77b4"/>
   </g>
   <g id="patch_108">
    <path d="M 237.46996 273.312 
L 239.086345 273.312 
L 239.086345 145.693277 
L 237.46996 145.693277 
z
" clip-path="url(#p53ce1ac2e5)" style="fill: #1f77b4"/>
   </g>
   <g id="patch_109">
    <path d="M 239.086345 273.312 
L 240.70273 273.312 
L 240.70273 150.486468 
L 239.086345 150.486468 
z
" clip-path="url(#p53ce1ac2e5)" style="fill: #1f77b4"/>
   </g>
   <g id="patch_110">
    <path d="M 240.70273 273.312 
L 242.319115 273.312 
L 242.319115 143.89583 
L 240.70273 143.89583 
z
" clip-path="url(#p53ce1ac2e5)" style="fill: #1f77b4"/>
   </g>
   <g id="patch_111">
    <path d="M 242.319115 273.312 
L 243.9355 273.312 
L 243.9355 136.106894 
L 242.319115 136.106894 
z
" clip-path="url(#p53ce1ac2e5)" style="fill: #1f77b4"/>
   </g>
   <g id="patch_112">
    <path d="M 243.9355 273.312 
L 245.551885 273.312 
L 245.551885 140.300936 
L 243.9355 140.300936 
z
" clip-path="url(#p53ce1ac2e5)" style="fill: #1f77b4"/>
   </g>
   <g id="patch_113">
    <path d="M 245.551885 273.312 
L 247.16827 273.312 
L 247.16827 146.891574 
L 245.551885 146.891574 
z
" clip-path="url(#p53ce1ac2e5)" style="fill: #1f77b4"/>
   </g>
   <g id="patch_114">
    <path d="M 247.16827 273.312 
L 248.784655 273.312 
L 248.784655 140.300936 
L 247.16827 140.300936 
z
" clip-path="url(#p53ce1ac2e5)" style="fill: #1f77b4"/>
   </g>
   <g id="patch_115">
    <path d="M 248.784655 273.312 
L 250.40104 273.312 
L 250.40104 139.102638 
L 248.784655 139.102638 
z
" clip-path="url(#p53ce1ac2e5)" style="fill: #1f77b4"/>
   </g>
   <g id="patch_116">
    <path d="M 250.40104 273.312 
L 252.017425 273.312 
L 252.017425 129.516255 
L 250.40104 129.516255 
z
" clip-path="url(#p53ce1ac2e5)" style="fill: #1f77b4"/>
   </g>
   <g id="patch_117">
    <path d="M 252.017425 273.312 
L 253.63381 273.312 
L 253.63381 128.917106 
L 252.017425 128.917106 
z
" clip-path="url(#p53ce1ac2e5)" style="fill: #1f77b4"/>
   </g>
   <g id="patch_118">
    <path d="M 253.63381 273.312 
L 255.250195 273.312 
L 255.250195 141.499234 
L 253.63381 141.499234 
z
" clip-path="url(#p53ce1ac2e5)" style="fill: #1f77b4"/>
   </g>
   <g id="patch_119">
    <path d="M 255.250195 273.312 
L 256.86658 273.312 
L 256.86658 136.106894 
L 255.250195 136.106894 
z
" clip-path="url(#p53ce1ac2e5)" style="fill: #1f77b4"/>
   </g>
   <g id="patch_120">
    <path d="M 256.86658 273.312 
L 258.482965 273.312 
L 258.482965 139.701787 
L 256.86658 139.701787 
z
" clip-path="url(#p53ce1ac2e5)" style="fill: #1f77b4"/>
   </g>
   <g id="patch_121">
    <path d="M 258.482965 273.312 
L 260.09935 273.312 
L 260.09935 140.900085 
L 258.482965 140.900085 
z
" clip-path="url(#p53ce1ac2e5)" style="fill: #1f77b4"/>
   </g>
   <g id="patch_122">
    <path d="M 260.09935 273.312 
L 261.715735 273.312 
L 261.715735 136.706043 
L 260.09935 136.706043 
z
" clip-path="url(#p53ce1ac2e5)" style="fill: #1f77b4"/>
   </g>
   <g id="patch_123">
    <path d="M 261.715735 273.312 
L 263.33212 273.312 
L 263.33212 115.136681 
L 261.715735 115.136681 
z
" clip-path="url(#p53ce1ac2e5)" style="fill: #1f77b4"/>
   </g>
   <g id="patch_124">
    <path d="M 263.33212 273.312 
L 264.948505 273.312 
L 264.948505 122.925617 
L 263.33212 122.925617 
z
" clip-path="url(#p53ce1ac2e5)" style="fill: #1f77b4"/>
   </g>
   <g id="patch_125">
    <path d="M 264.948505 273.312 
L 266.56489 273.312 
L 266.56489 128.317957 
L 264.948505 128.317957 
z
" clip-path="url(#p53ce1ac2e5)" style="fill: #1f77b4"/>
   </g>
   <g id="patch_126">
    <path d="M 266.56489 273.312 
L 268.181275 273.312 
L 268.181275 121.12817 
L 266.56489 121.12817 
z
" clip-path="url(#p53ce1ac2e5)" style="fill: #1f77b4"/>
   </g>
   <g id="patch_127">
    <path d="M 268.181275 273.312 
L 269.79766 273.312 
L 269.79766 140.300936 
L 268.181275 140.300936 
z
" clip-path="url(#p53ce1ac2e5)" style="fill: #1f77b4"/>
   </g>
   <g id="patch_128">
    <path d="M 269.79766 273.312 
L 271.414046 273.312 
L 271.414046 127.11966 
L 269.79766 127.11966 
z
" clip-path="url(#p53ce1ac2e5)" style="fill: #1f77b4"/>
   </g>
   <g id="patch_129">
    <path d="M 271.414046 273.312 
L 273.030431 273.312 
L 273.030431 129.516255 
L 271.414046 129.516255 
z
" clip-path="url(#p53ce1ac2e5)" style="fill: #1f77b4"/>
   </g>
   <g id="patch_130">
    <path d="M 273.030431 273.312 
L 274.646816 273.312 
L 274.646816 136.706043 
L 273.030431 136.706043 
z
" clip-path="url(#p53ce1ac2e5)" style="fill: #1f77b4"/>
   </g>
   <g id="patch_131">
    <path d="M 274.646816 273.312 
L 276.263201 273.312 
L 276.263201 131.313702 
L 274.646816 131.313702 
z
" clip-path="url(#p53ce1ac2e5)" style="fill: #1f77b4"/>
   </g>
   <g id="patch_132">
    <path d="M 276.263201 273.312 
L 277.879586 273.312 
L 277.879586 114.537532 
L 276.263201 114.537532 
z
" clip-path="url(#p53ce1ac2e5)" style="fill: #1f77b4"/>
   </g>
   <g id="patch_133">
    <path d="M 277.879586 273.312 
L 279.495971 273.312 
L 279.495971 121.727319 
L 277.879586 121.727319 
z
" clip-path="url(#p53ce1ac2e5)" style="fill: #1f77b4"/>
   </g>
   <g id="patch_134">
    <path d="M 279.495971 273.312 
L 281.112356 273.312 
L 281.112356 104.951149 
L 279.495971 104.951149 
z
" clip-path="url(#p53ce1ac2e5)" style="fill: #1f77b4"/>
   </g>
   <g id="patch_135">
    <path d="M 281.112356 273.312 
L 282.728741 273.312 
L 282.728741 103.153702 
L 281.112356 103.153702 
z
" clip-path="url(#p53ce1ac2e5)" style="fill: #1f77b4"/>
   </g>
   <g id="patch_136">
    <path d="M 282.728741 273.312 
L 284.345126 273.312 
L 284.345126 118.132426 
L 282.728741 118.132426 
z
" clip-path="url(#p53ce1ac2e5)" style="fill: #1f77b4"/>
   </g>
   <g id="patch_137">
    <path d="M 284.345126 273.312 
L 285.961511 273.312 
L 285.961511 125.921362 
L 284.345126 125.921362 
z
" clip-path="url(#p53ce1ac2e5)" style="fill: #1f77b4"/>
   </g>
   <g id="patch_138">
    <path d="M 285.961511 273.312 
L 287.577896 273.312 
L 287.577896 122.326468 
L 285.961511 122.326468 
z
" clip-path="url(#p53ce1ac2e5)" style="fill: #1f77b4"/>
   </g>
   <g id="patch_139">
    <path d="M 287.577896 273.312 
L 289.194281 273.312 
L 289.194281 113.938383 
L 287.577896 113.938383 
z
" clip-path="url(#p53ce1ac2e5)" style="fill: #1f77b4"/>
   </g>
   <g id="patch_140">
    <path d="M 289.194281 273.312 
L 290.810666 273.312 
L 290.810666 111.541787 
L 289.194281 111.541787 
z
" clip-path="url(#p53ce1ac2e5)" style="fill: #1f77b4"/>
   </g>
   <g id="patch_141">
    <path d="M 290.810666 273.312 
L 292.427051 273.312 
L 292.427051 103.752851 
L 290.810666 103.752851 
z
" clip-path="url(#p53ce1ac2e5)" style="fill: #1f77b4"/>
   </g>
   <g id="patch_142">
    <path d="M 292.427051 273.312 
L 294.043436 273.312 
L 294.043436 97.162213 
L 292.427051 97.162213 
z
" clip-path="url(#p53ce1ac2e5)" style="fill: #1f77b4"/>
   </g>
   <g id="patch_143">
    <path d="M 294.043436 273.312 
L 295.659821 273.312 
L 295.659821 108.546043 
L 294.043436 108.546043 
z
" clip-path="url(#p53ce1ac2e5)" style="fill: #1f77b4"/>
   </g>
   <g id="patch_144">
    <path d="M 295.659821 273.312 
L 297.276206 273.312 
L 297.276206 102.554553 
L 295.659821 102.554553 
z
" clip-path="url(#p53ce1ac2e5)" style="fill: #1f77b4"/>
   </g>
   <g id="patch_145">
    <path d="M 297.276206 273.312 
L 298.892591 273.312 
L 298.892591 118.731574 
L 297.276206 118.731574 
z
" clip-path="url(#p53ce1ac2e5)" style="fill: #1f77b4"/>
   </g>
   <g id="patch_146">
    <path d="M 298.892591 273.312 
L 300.508976 273.312 
L 300.508976 104.951149 
L 298.892591 104.951149 
z
" clip-path="url(#p53ce1ac2e5)" style="fill: #1f77b4"/>
   </g>
   <g id="patch_147">
    <path d="M 300.508976 273.312 
L 302.125361 273.312 
L 302.125361 102.554553 
L 300.508976 102.554553 
z
" clip-path="url(#p53ce1ac2e5)" style="fill: #1f77b4"/>
   </g>
   <g id="patch_148">
    <path d="M 302.125361 273.312 
L 303.741746 273.312 
L 303.741746 93.567319 
L 302.125361 93.567319 
z
" clip-path="url(#p53ce1ac2e5)" style="fill: #1f77b4"/>
   </g>
   <g id="patch_149">
    <path d="M 303.741746 273.312 
L 305.358131 273.312 
L 305.358131 87.57583 
L 303.741746 87.57583 
z
" clip-path="url(#p53ce1ac2e5)" style="fill: #1f77b4"/>
   </g>
   <g id="patch_150">
    <path d="M 305.358131 273.312 
L 306.974516 273.312 
L 306.974516 104.951149 
L 305.358131 104.951149 
z
" clip-path="url(#p53ce1ac2e5)" style="fill: #1f77b4"/>
   </g>
   <g id="patch_151">
    <path d="M 306.974516 273.312 
L 308.590901 273.312 
L 308.590901 101.356255 
L 306.974516 101.356255 
z
" clip-path="url(#p53ce1ac2e5)" style="fill: #1f77b4"/>
   </g>
   <g id="patch_152">
    <path d="M 308.590901 273.312 
L 310.207286 273.312 
L 310.207286 85.179234 
L 308.590901 85.179234 
z
" clip-path="url(#p53ce1ac2e5)" style="fill: #1f77b4"/>
   </g>
   <g id="patch_153">
    <path d="M 310.207286 273.312 
L 311.823671 273.312 
L 311.823671 98.360511 
L 310.207286 98.360511 
z
" clip-path="url(#p53ce1ac2e5)" style="fill: #1f77b4"/>
   </g>
   <g id="patch_154">
    <path d="M 311.823671 273.312 
L 313.440056 273.312 
L 313.440056 80.985191 
L 311.823671 80.985191 
z
" clip-path="url(#p53ce1ac2e5)" style="fill: #1f77b4"/>
   </g>
   <g id="patch_155">
    <path d="M 313.440056 273.312 
L 315.056441 273.312 
L 315.056441 70.200511 
L 313.440056 70.200511 
z
" clip-path="url(#p53ce1ac2e5)" style="fill: #1f77b4"/>
   </g>
   <g id="patch_156">
    <path d="M 315.056441 273.312 
L 316.672826 273.312 
L 316.672826 82.782638 
L 315.056441 82.782638 
z
" clip-path="url(#p53ce1ac2e5)" style="fill: #1f77b4"/>
   </g>
   <g id="patch_157">
    <path d="M 316.672826 273.312 
L 318.289211 273.312 
L 318.289211 87.57583 
L 316.672826 87.57583 
z
" clip-path="url(#p53ce1ac2e5)" style="fill: #1f77b4"/>
   </g>
   <g id="patch_158">
    <path d="M 318.289211 273.312 
L 319.905596 273.312 
L 319.905596 95.364766 
L 318.289211 95.364766 
z
" clip-path="url(#p53ce1ac2e5)" style="fill: #1f77b4"/>
   </g>
   <g id="patch_159">
    <path d="M 319.905596 273.312 
L 321.521981 273.312 
L 321.521981 104.352 
L 319.905596 104.352 
z
" clip-path="url(#p53ce1ac2e5)" style="fill: #1f77b4"/>
   </g>
   <g id="patch_160">
    <path d="M 321.521981 273.312 
L 323.138366 273.312 
L 323.138366 85.179234 
L 321.521981 85.179234 
z
" clip-path="url(#p53ce1ac2e5)" style="fill: #1f77b4"/>
   </g>
   <g id="patch_161">
    <path d="M 323.138366 273.312 
L 324.754751 273.312 
L 324.754751 90.571574 
L 323.138366 90.571574 
z
" clip-path="url(#p53ce1ac2e5)" style="fill: #1f77b4"/>
   </g>
   <g id="patch_162">
    <path d="M 324.754751 273.312 
L 326.371136 273.312 
L 326.371136 94.765617 
L 324.754751 94.765617 
z
" clip-path="url(#p53ce1ac2e5)" style="fill: #1f77b4"/>
   </g>
   <g id="patch_163">
    <path d="M 326.371136 273.312 
L 327.987521 273.312 
L 327.987521 76.192 
L 326.371136 76.192 
z
" clip-path="url(#p53ce1ac2e5)" style="fill: #1f77b4"/>
   </g>
   <g id="patch_164">
    <path d="M 327.987521 273.312 
L 329.603906 273.312 
L 329.603906 73.196255 
L 327.987521 73.196255 
z
" clip-path="url(#p53ce1ac2e5)" style="fill: #1f77b4"/>
   </g>
   <g id="patch_165">
    <path d="M 329.603906 273.312 
L 331.220291 273.312 
L 331.220291 85.179234 
L 329.603906 85.179234 
z
" clip-path="url(#p53ce1ac2e5)" style="fill: #1f77b4"/>
   </g>
   <g id="patch_166">
    <path d="M 331.220291 273.312 
L 332.836676 273.312 
L 332.836676 70.200511 
L 331.220291 70.200511 
z
" clip-path="url(#p53ce1ac2e5)" style="fill: #1f77b4"/>
   </g>
   <g id="patch_167">
    <path d="M 332.836676 273.312 
L 334.453061 273.312 
L 334.453061 80.386043 
L 332.836676 80.386043 
z
" clip-path="url(#p53ce1ac2e5)" style="fill: #1f77b4"/>
   </g>
   <g id="patch_168">
    <path d="M 334.453061 273.312 
L 336.069446 273.312 
L 336.069446 83.381787 
L 334.453061 83.381787 
z
" clip-path="url(#p53ce1ac2e5)" style="fill: #1f77b4"/>
   </g>
   <g id="patch_169">
    <path d="M 336.069446 273.312 
L 337.685831 273.312 
L 337.685831 61.812426 
L 336.069446 61.812426 
z
" clip-path="url(#p53ce1ac2e5)" style="fill: #1f77b4"/>
   </g>
   <g id="patch_170">
    <path d="M 337.685831 273.312 
L 339.302216 273.312 
L 339.302216 81.58434 
L 337.685831 81.58434 
z
" clip-path="url(#p53ce1ac2e5)" style="fill: #1f77b4"/>
   </g>
   <g id="patch_171">
    <path d="M 339.302216 273.312 
L 340.918601 273.312 
L 340.918601 86.976681 
L 339.302216 86.976681 
z
" clip-path="url(#p53ce1ac2e5)" style="fill: #1f77b4"/>
   </g>
   <g id="patch_172">
    <path d="M 340.918601 273.312 
L 342.534986 273.312 
L 342.534986 77.989447 
L 340.918601 77.989447 
z
" clip-path="url(#p53ce1ac2e5)" style="fill: #1f77b4"/>
   </g>
   <g id="patch_173">
    <path d="M 342.534986 273.312 
L 344.151371 273.312 
L 344.151371 85.778383 
L 342.534986 85.778383 
z
" clip-path="url(#p53ce1ac2e5)" style="fill: #1f77b4"/>
   </g>
   <g id="patch_174">
    <path d="M 344.151371 273.312 
L 345.767756 273.312 
L 345.767756 73.196255 
L 344.151371 73.196255 
z
" clip-path="url(#p53ce1ac2e5)" style="fill: #1f77b4"/>
   </g>
   <g id="patch_175">
    <path d="M 345.767756 273.312 
L 347.384141 273.312 
L 347.384141 64.80817 
L 345.767756 64.80817 
z
" clip-path="url(#p53ce1ac2e5)" style="fill: #1f77b4"/>
   </g>
   <g id="patch_176">
    <path d="M 347.384141 273.312 
L 349.000526 273.312 
L 349.000526 61.213277 
L 347.384141 61.213277 
z
" clip-path="url(#p53ce1ac2e5)" style="fill: #1f77b4"/>
   </g>
   <g id="patch_177">
    <path d="M 349.000526 273.312 
L 350.616911 273.312 
L 350.616911 67.803915 
L 349.000526 67.803915 
z
" clip-path="url(#p53ce1ac2e5)" style="fill: #1f77b4"/>
   </g>
   <g id="patch_178">
    <path d="M 350.616911 273.312 
L 352.233296 273.312 
L 352.233296 46.234553 
L 350.616911 46.234553 
z
" clip-path="url(#p53ce1ac2e5)" style="fill: #1f77b4"/>
   </g>
   <g id="patch_179">
    <path d="M 352.233296 273.312 
L 353.849681 273.312 
L 353.849681 70.200511 
L 352.233296 70.200511 
z
" clip-path="url(#p53ce1ac2e5)" style="fill: #1f77b4"/>
   </g>
   <g id="patch_180">
    <path d="M 353.849681 273.312 
L 355.466066 273.312 
L 355.466066 64.80817 
L 353.849681 64.80817 
z
" clip-path="url(#p53ce1ac2e5)" style="fill: #1f77b4"/>
   </g>
   <g id="patch_181">
    <path d="M 355.466066 273.312 
L 357.082451 273.312 
L 357.082451 51.027745 
L 355.466066 51.027745 
z
" clip-path="url(#p53ce1ac2e5)" style="fill: #1f77b4"/>
   </g>
   <g id="patch_182">
    <path d="M 357.082451 273.312 
L 358.698836 273.312 
L 358.698836 51.626894 
L 357.082451 51.626894 
z
" clip-path="url(#p53ce1ac2e5)" style="fill: #1f77b4"/>
   </g>
   <g id="patch_183">
    <path d="M 358.698836 273.312 
L 360.315221 273.312 
L 360.315221 77.989447 
L 358.698836 77.989447 
z
" clip-path="url(#p53ce1ac2e5)" style="fill: #1f77b4"/>
   </g>
   <g id="patch_184">
    <path d="M 360.315221 273.312 
L 361.931606 273.312 
L 361.931606 69.601362 
L 360.315221 69.601362 
z
" clip-path="url(#p53ce1ac2e5)" style="fill: #1f77b4"/>
   </g>
   <g id="patch_185">
    <path d="M 361.931606 273.312 
L 363.547991 273.312 
L 363.547991 61.213277 
L 361.931606 61.213277 
z
" clip-path="url(#p53ce1ac2e5)" style="fill: #1f77b4"/>
   </g>
   <g id="patch_186">
    <path d="M 363.547991 273.312 
L 365.164376 273.312 
L 365.164376 59.41583 
L 363.547991 59.41583 
z
" clip-path="url(#p53ce1ac2e5)" style="fill: #1f77b4"/>
   </g>
   <g id="patch_187">
    <path d="M 365.164376 273.312 
L 366.780761 273.312 
L 366.780761 44.437106 
L 365.164376 44.437106 
z
" clip-path="url(#p53ce1ac2e5)" style="fill: #1f77b4"/>
   </g>
   <g id="patch_188">
    <path d="M 366.780761 273.312 
L 368.397146 273.312 
L 368.397146 28.859234 
L 366.780761 28.859234 
z
" clip-path="url(#p53ce1ac2e5)" style="fill: #1f77b4"/>
   </g>
   <g id="patch_189">
    <path d="M 368.397146 273.312 
L 370.013531 273.312 
L 370.013531 60.014979 
L 368.397146 60.014979 
z
" clip-path="url(#p53ce1ac2e5)" style="fill: #1f77b4"/>
   </g>
   <g id="patch_190">
    <path d="M 370.013531 273.312 
L 371.629916 273.312 
L 371.629916 54.023489 
L 370.013531 54.023489 
z
" clip-path="url(#p53ce1ac2e5)" style="fill: #1f77b4"/>
   </g>
   <g id="patch_191">
    <path d="M 371.629916 273.312 
L 373.246301 273.312 
L 373.246301 43.238809 
L 371.629916 43.238809 
z
" clip-path="url(#p53ce1ac2e5)" style="fill: #1f77b4"/>
   </g>
   <g id="patch_192">
    <path d="M 373.246301 273.312 
L 374.862686 273.312 
L 374.862686 34.251574 
L 373.246301 34.251574 
z
" clip-path="url(#p53ce1ac2e5)" style="fill: #1f77b4"/>
   </g>
   <g id="patch_193">
    <path d="M 374.862686 273.312 
L 376.479071 273.312 
L 376.479071 42.040511 
L 374.862686 42.040511 
z
" clip-path="url(#p53ce1ac2e5)" style="fill: #1f77b4"/>
   </g>
   <g id="patch_194">
    <path d="M 376.479071 273.312 
L 378.095456 273.312 
L 378.095456 43.238809 
L 376.479071 43.238809 
z
" clip-path="url(#p53ce1ac2e5)" style="fill: #1f77b4"/>
   </g>
   <g id="patch_195">
    <path d="M 378.095456 273.312 
L 379.711841 273.312 
L 379.711841 48.631149 
L 378.095456 48.631149 
z
" clip-path="url(#p53ce1ac2e5)" style="fill: #1f77b4"/>
   </g>
   <g id="patch_196">
    <path d="M 379.711841 273.312 
L 381.328226 273.312 
L 381.328226 32.454128 
L 379.711841 32.454128 
z
" clip-path="url(#p53ce1ac2e5)" style="fill: #1f77b4"/>
   </g>
   <g id="patch_197">
    <path d="M 381.328226 273.312 
L 382.944611 273.312 
L 382.944611 57.019234 
L 381.328226 57.019234 
z
" clip-path="url(#p53ce1ac2e5)" style="fill: #1f77b4"/>
   </g>
   <g id="patch_198">
    <path d="M 382.944611 273.312 
L 384.560996 273.312 
L 384.560996 38.445617 
L 382.944611 38.445617 
z
" clip-path="url(#p53ce1ac2e5)" style="fill: #1f77b4"/>
   </g>
   <g id="patch_199">
    <path d="M 384.560996 273.312 
L 386.177381 273.312 
L 386.177381 33.652426 
L 384.560996 33.652426 
z
" clip-path="url(#p53ce1ac2e5)" style="fill: #1f77b4"/>
   </g>
   <g id="patch_200">
    <path d="M 386.177381 273.312 
L 387.793766 273.312 
L 387.793766 30.656681 
L 386.177381 30.656681 
z
" clip-path="url(#p53ce1ac2e5)" style="fill: #1f77b4"/>
   </g>
   <g id="patch_201">
    <path d="M 387.793766 273.312 
L 389.410151 273.312 
L 389.410151 19.872 
L 387.793766 19.872 
z
" clip-path="url(#p53ce1ac2e5)" style="fill: #1f77b4"/>
   </g>
   <g id="patch_202">
    <path d="M 389.410151 273.312 
L 391.026536 273.312 
L 391.026536 39.643915 
L 389.410151 39.643915 
z
" clip-path="url(#p53ce1ac2e5)" style="fill: #1f77b4"/>
   </g>
   <g id="matplotlib.axis_1">
    <g id="xtick_1">
     <g id="line2d_1">
      <defs>
       <path id="m2bbee782cf" d="M 0 0 
L 0 3.5 
" style="stroke: #000000; stroke-width: 0.8"/>
      </defs>
      <g>
       <use xlink:href="#m2bbee782cf" x="66.376477" y="273.312" style="stroke: #000000; stroke-width: 0.8"/>
      </g>
     </g>
     <g id="text_1">
      <!-- 0.0 -->
      <g transform="translate(58.424915 287.910437)scale(0.1 -0.1)">
       <defs>
        <path id="DejaVuSans-30" d="M 2034 4250 
Q 1547 4250 1301 3770 
Q 1056 3291 1056 2328 
Q 1056 1369 1301 889 
Q 1547 409 2034 409 
Q 2525 409 2770 889 
Q 3016 1369 3016 2328 
Q 3016 3291 2770 3770 
Q 2525 4250 2034 4250 
z
M 2034 4750 
Q 2819 4750 3233 4129 
Q 3647 3509 3647 2328 
Q 3647 1150 3233 529 
Q 2819 -91 2034 -91 
Q 1250 -91 836 529 
Q 422 1150 422 2328 
Q 422 3509 836 4129 
Q 1250 4750 2034 4750 
z
" transform="scale(0.015625)"/>
        <path id="DejaVuSans-2e" d="M 684 794 
L 1344 794 
L 1344 0 
L 684 0 
L 684 794 
z
" transform="scale(0.015625)"/>
       </defs>
       <use xlink:href="#DejaVuSans-30"/>
       <use xlink:href="#DejaVuSans-2e" x="63.623047"/>
       <use xlink:href="#DejaVuSans-30" x="95.410156"/>
      </g>
     </g>
    </g>
    <g id="xtick_2">
     <g id="line2d_2">
      <g>
       <use xlink:href="#m2bbee782cf" x="131.307386" y="273.312" style="stroke: #000000; stroke-width: 0.8"/>
      </g>
     </g>
     <g id="text_2">
      <!-- 0.2 -->
      <g transform="translate(123.355824 287.910437)scale(0.1 -0.1)">
       <defs>
        <path id="DejaVuSans-32" d="M 1228 531 
L 3431 531 
L 3431 0 
L 469 0 
L 469 531 
Q 828 903 1448 1529 
Q 2069 2156 2228 2338 
Q 2531 2678 2651 2914 
Q 2772 3150 2772 3378 
Q 2772 3750 2511 3984 
Q 2250 4219 1831 4219 
Q 1534 4219 1204 4116 
Q 875 4013 500 3803 
L 500 4441 
Q 881 4594 1212 4672 
Q 1544 4750 1819 4750 
Q 2544 4750 2975 4387 
Q 3406 4025 3406 3419 
Q 3406 3131 3298 2873 
Q 3191 2616 2906 2266 
Q 2828 2175 2409 1742 
Q 1991 1309 1228 531 
z
" transform="scale(0.015625)"/>
       </defs>
       <use xlink:href="#DejaVuSans-30"/>
       <use xlink:href="#DejaVuSans-2e" x="63.623047"/>
       <use xlink:href="#DejaVuSans-32" x="95.410156"/>
      </g>
     </g>
    </g>
    <g id="xtick_3">
     <g id="line2d_3">
      <g>
       <use xlink:href="#m2bbee782cf" x="196.238295" y="273.312" style="stroke: #000000; stroke-width: 0.8"/>
      </g>
     </g>
     <g id="text_3">
      <!-- 0.4 -->
      <g transform="translate(188.286733 287.910437)scale(0.1 -0.1)">
       <defs>
        <path id="DejaVuSans-34" d="M 2419 4116 
L 825 1625 
L 2419 1625 
L 2419 4116 
z
M 2253 4666 
L 3047 4666 
L 3047 1625 
L 3713 1625 
L 3713 1100 
L 3047 1100 
L 3047 0 
L 2419 0 
L 2419 1100 
L 313 1100 
L 313 1709 
L 2253 4666 
z
" transform="scale(0.015625)"/>
       </defs>
       <use xlink:href="#DejaVuSans-30"/>
       <use xlink:href="#DejaVuSans-2e" x="63.623047"/>
       <use xlink:href="#DejaVuSans-34" x="95.410156"/>
      </g>
     </g>
    </g>
    <g id="xtick_4">
     <g id="line2d_4">
      <g>
       <use xlink:href="#m2bbee782cf" x="261.169205" y="273.312" style="stroke: #000000; stroke-width: 0.8"/>
      </g>
     </g>
     <g id="text_4">
      <!-- 0.6 -->
      <g transform="translate(253.217642 287.910437)scale(0.1 -0.1)">
       <defs>
        <path id="DejaVuSans-36" d="M 2113 2584 
Q 1688 2584 1439 2293 
Q 1191 2003 1191 1497 
Q 1191 994 1439 701 
Q 1688 409 2113 409 
Q 2538 409 2786 701 
Q 3034 994 3034 1497 
Q 3034 2003 2786 2293 
Q 2538 2584 2113 2584 
z
M 3366 4563 
L 3366 3988 
Q 3128 4100 2886 4159 
Q 2644 4219 2406 4219 
Q 1781 4219 1451 3797 
Q 1122 3375 1075 2522 
Q 1259 2794 1537 2939 
Q 1816 3084 2150 3084 
Q 2853 3084 3261 2657 
Q 3669 2231 3669 1497 
Q 3669 778 3244 343 
Q 2819 -91 2113 -91 
Q 1303 -91 875 529 
Q 447 1150 447 2328 
Q 447 3434 972 4092 
Q 1497 4750 2381 4750 
Q 2619 4750 2861 4703 
Q 3103 4656 3366 4563 
z
" transform="scale(0.015625)"/>
       </defs>
       <use xlink:href="#DejaVuSans-30"/>
       <use xlink:href="#DejaVuSans-2e" x="63.623047"/>
       <use xlink:href="#DejaVuSans-36" x="95.410156"/>
      </g>
     </g>
    </g>
    <g id="xtick_5">
     <g id="line2d_5">
      <g>
       <use xlink:href="#m2bbee782cf" x="326.100114" y="273.312" style="stroke: #000000; stroke-width: 0.8"/>
      </g>
     </g>
     <g id="text_5">
      <!-- 0.8 -->
      <g transform="translate(318.148551 287.910437)scale(0.1 -0.1)">
       <defs>
        <path id="DejaVuSans-38" d="M 2034 2216 
Q 1584 2216 1326 1975 
Q 1069 1734 1069 1313 
Q 1069 891 1326 650 
Q 1584 409 2034 409 
Q 2484 409 2743 651 
Q 3003 894 3003 1313 
Q 3003 1734 2745 1975 
Q 2488 2216 2034 2216 
z
M 1403 2484 
Q 997 2584 770 2862 
Q 544 3141 544 3541 
Q 544 4100 942 4425 
Q 1341 4750 2034 4750 
Q 2731 4750 3128 4425 
Q 3525 4100 3525 3541 
Q 3525 3141 3298 2862 
Q 3072 2584 2669 2484 
Q 3125 2378 3379 2068 
Q 3634 1759 3634 1313 
Q 3634 634 3220 271 
Q 2806 -91 2034 -91 
Q 1263 -91 848 271 
Q 434 634 434 1313 
Q 434 1759 690 2068 
Q 947 2378 1403 2484 
z
M 1172 3481 
Q 1172 3119 1398 2916 
Q 1625 2713 2034 2713 
Q 2441 2713 2670 2916 
Q 2900 3119 2900 3481 
Q 2900 3844 2670 4047 
Q 2441 4250 2034 4250 
Q 1625 4250 1398 4047 
Q 1172 3844 1172 3481 
z
" transform="scale(0.015625)"/>
       </defs>
       <use xlink:href="#DejaVuSans-30"/>
       <use xlink:href="#DejaVuSans-2e" x="63.623047"/>
       <use xlink:href="#DejaVuSans-38" x="95.410156"/>
      </g>
     </g>
    </g>
    <g id="xtick_6">
     <g id="line2d_6">
      <g>
       <use xlink:href="#m2bbee782cf" x="391.031023" y="273.312" style="stroke: #000000; stroke-width: 0.8"/>
      </g>
     </g>
     <g id="text_6">
      <!-- 1.0 -->
      <g transform="translate(383.07946 287.910437)scale(0.1 -0.1)">
       <defs>
        <path id="DejaVuSans-31" d="M 794 531 
L 1825 531 
L 1825 4091 
L 703 3866 
L 703 4441 
L 1819 4666 
L 2450 4666 
L 2450 531 
L 3481 531 
L 3481 0 
L 794 0 
L 794 531 
z
" transform="scale(0.015625)"/>
       </defs>
       <use xlink:href="#DejaVuSans-31"/>
       <use xlink:href="#DejaVuSans-2e" x="63.623047"/>
       <use xlink:href="#DejaVuSans-30" x="95.410156"/>
      </g>
     </g>
    </g>
    <g id="text_7">
     <!-- Propagation direction -->
     <g transform="translate(175.221719 301.588562)scale(0.1 -0.1)">
      <defs>
       <path id="DejaVuSans-50" d="M 1259 4147 
L 1259 2394 
L 2053 2394 
Q 2494 2394 2734 2622 
Q 2975 2850 2975 3272 
Q 2975 3691 2734 3919 
Q 2494 4147 2053 4147 
L 1259 4147 
z
M 628 4666 
L 2053 4666 
Q 2838 4666 3239 4311 
Q 3641 3956 3641 3272 
Q 3641 2581 3239 2228 
Q 2838 1875 2053 1875 
L 1259 1875 
L 1259 0 
L 628 0 
L 628 4666 
z
" transform="scale(0.015625)"/>
       <path id="DejaVuSans-72" d="M 2631 2963 
Q 2534 3019 2420 3045 
Q 2306 3072 2169 3072 
Q 1681 3072 1420 2755 
Q 1159 2438 1159 1844 
L 1159 0 
L 581 0 
L 581 3500 
L 1159 3500 
L 1159 2956 
Q 1341 3275 1631 3429 
Q 1922 3584 2338 3584 
Q 2397 3584 2469 3576 
Q 2541 3569 2628 3553 
L 2631 2963 
z
" transform="scale(0.015625)"/>
       <path id="DejaVuSans-6f" d="M 1959 3097 
Q 1497 3097 1228 2736 
Q 959 2375 959 1747 
Q 959 1119 1226 758 
Q 1494 397 1959 397 
Q 2419 397 2687 759 
Q 2956 1122 2956 1747 
Q 2956 2369 2687 2733 
Q 2419 3097 1959 3097 
z
M 1959 3584 
Q 2709 3584 3137 3096 
Q 3566 2609 3566 1747 
Q 3566 888 3137 398 
Q 2709 -91 1959 -91 
Q 1206 -91 779 398 
Q 353 888 353 1747 
Q 353 2609 779 3096 
Q 1206 3584 1959 3584 
z
" transform="scale(0.015625)"/>
       <path id="DejaVuSans-70" d="M 1159 525 
L 1159 -1331 
L 581 -1331 
L 581 3500 
L 1159 3500 
L 1159 2969 
Q 1341 3281 1617 3432 
Q 1894 3584 2278 3584 
Q 2916 3584 3314 3078 
Q 3713 2572 3713 1747 
Q 3713 922 3314 415 
Q 2916 -91 2278 -91 
Q 1894 -91 1617 61 
Q 1341 213 1159 525 
z
M 3116 1747 
Q 3116 2381 2855 2742 
Q 2594 3103 2138 3103 
Q 1681 3103 1420 2742 
Q 1159 2381 1159 1747 
Q 1159 1113 1420 752 
Q 1681 391 2138 391 
Q 2594 391 2855 752 
Q 3116 1113 3116 1747 
z
" transform="scale(0.015625)"/>
       <path id="DejaVuSans-61" d="M 2194 1759 
Q 1497 1759 1228 1600 
Q 959 1441 959 1056 
Q 959 750 1161 570 
Q 1363 391 1709 391 
Q 2188 391 2477 730 
Q 2766 1069 2766 1631 
L 2766 1759 
L 2194 1759 
z
M 3341 1997 
L 3341 0 
L 2766 0 
L 2766 531 
Q 2569 213 2275 61 
Q 1981 -91 1556 -91 
Q 1019 -91 701 211 
Q 384 513 384 1019 
Q 384 1609 779 1909 
Q 1175 2209 1959 2209 
L 2766 2209 
L 2766 2266 
Q 2766 2663 2505 2880 
Q 2244 3097 1772 3097 
Q 1472 3097 1187 3025 
Q 903 2953 641 2809 
L 641 3341 
Q 956 3463 1253 3523 
Q 1550 3584 1831 3584 
Q 2591 3584 2966 3190 
Q 3341 2797 3341 1997 
z
" transform="scale(0.015625)"/>
       <path id="DejaVuSans-67" d="M 2906 1791 
Q 2906 2416 2648 2759 
Q 2391 3103 1925 3103 
Q 1463 3103 1205 2759 
Q 947 2416 947 1791 
Q 947 1169 1205 825 
Q 1463 481 1925 481 
Q 2391 481 2648 825 
Q 2906 1169 2906 1791 
z
M 3481 434 
Q 3481 -459 3084 -895 
Q 2688 -1331 1869 -1331 
Q 1566 -1331 1297 -1286 
Q 1028 -1241 775 -1147 
L 775 -588 
Q 1028 -725 1275 -790 
Q 1522 -856 1778 -856 
Q 2344 -856 2625 -561 
Q 2906 -266 2906 331 
L 2906 616 
Q 2728 306 2450 153 
Q 2172 0 1784 0 
Q 1141 0 747 490 
Q 353 981 353 1791 
Q 353 2603 747 3093 
Q 1141 3584 1784 3584 
Q 2172 3584 2450 3431 
Q 2728 3278 2906 2969 
L 2906 3500 
L 3481 3500 
L 3481 434 
z
" transform="scale(0.015625)"/>
       <path id="DejaVuSans-74" d="M 1172 4494 
L 1172 3500 
L 2356 3500 
L 2356 3053 
L 1172 3053 
L 1172 1153 
Q 1172 725 1289 603 
Q 1406 481 1766 481 
L 2356 481 
L 2356 0 
L 1766 0 
Q 1100 0 847 248 
Q 594 497 594 1153 
L 594 3053 
L 172 3053 
L 172 3500 
L 594 3500 
L 594 4494 
L 1172 4494 
z
" transform="scale(0.015625)"/>
       <path id="DejaVuSans-69" d="M 603 3500 
L 1178 3500 
L 1178 0 
L 603 0 
L 603 3500 
z
M 603 4863 
L 1178 4863 
L 1178 4134 
L 603 4134 
L 603 4863 
z
" transform="scale(0.015625)"/>
       <path id="DejaVuSans-6e" d="M 3513 2113 
L 3513 0 
L 2938 0 
L 2938 2094 
Q 2938 2591 2744 2837 
Q 2550 3084 2163 3084 
Q 1697 3084 1428 2787 
Q 1159 2491 1159 1978 
L 1159 0 
L 581 0 
L 581 3500 
L 1159 3500 
L 1159 2956 
Q 1366 3272 1645 3428 
Q 1925 3584 2291 3584 
Q 2894 3584 3203 3211 
Q 3513 2838 3513 2113 
z
" transform="scale(0.015625)"/>
       <path id="DejaVuSans-20" transform="scale(0.015625)"/>
       <path id="DejaVuSans-64" d="M 2906 2969 
L 2906 4863 
L 3481 4863 
L 3481 0 
L 2906 0 
L 2906 525 
Q 2725 213 2448 61 
Q 2172 -91 1784 -91 
Q 1150 -91 751 415 
Q 353 922 353 1747 
Q 353 2572 751 3078 
Q 1150 3584 1784 3584 
Q 2172 3584 2448 3432 
Q 2725 3281 2906 2969 
z
M 947 1747 
Q 947 1113 1208 752 
Q 1469 391 1925 391 
Q 2381 391 2643 752 
Q 2906 1113 2906 1747 
Q 2906 2381 2643 2742 
Q 2381 3103 1925 3103 
Q 1469 3103 1208 2742 
Q 947 2381 947 1747 
z
" transform="scale(0.015625)"/>
       <path id="DejaVuSans-65" d="M 3597 1894 
L 3597 1613 
L 953 1613 
Q 991 1019 1311 708 
Q 1631 397 2203 397 
Q 2534 397 2845 478 
Q 3156 559 3463 722 
L 3463 178 
Q 3153 47 2828 -22 
Q 2503 -91 2169 -91 
Q 1331 -91 842 396 
Q 353 884 353 1716 
Q 353 2575 817 3079 
Q 1281 3584 2069 3584 
Q 2775 3584 3186 3129 
Q 3597 2675 3597 1894 
z
M 3022 2063 
Q 3016 2534 2758 2815 
Q 2500 3097 2075 3097 
Q 1594 3097 1305 2825 
Q 1016 2553 972 2059 
L 3022 2063 
z
" transform="scale(0.015625)"/>
       <path id="DejaVuSans-63" d="M 3122 3366 
L 3122 2828 
Q 2878 2963 2633 3030 
Q 2388 3097 2138 3097 
Q 1578 3097 1268 2742 
Q 959 2388 959 1747 
Q 959 1106 1268 751 
Q 1578 397 2138 397 
Q 2388 397 2633 464 
Q 2878 531 3122 666 
L 3122 134 
Q 2881 22 2623 -34 
Q 2366 -91 2075 -91 
Q 1284 -91 818 406 
Q 353 903 353 1747 
Q 353 2603 823 3093 
Q 1294 3584 2113 3584 
Q 2378 3584 2631 3529 
Q 2884 3475 3122 3366 
z
" transform="scale(0.015625)"/>
      </defs>
      <use xlink:href="#DejaVuSans-50"/>
      <use xlink:href="#DejaVuSans-72" x="58.552734"/>
      <use xlink:href="#DejaVuSans-6f" x="97.416016"/>
      <use xlink:href="#DejaVuSans-70" x="158.597656"/>
      <use xlink:href="#DejaVuSans-61" x="222.074219"/>
      <use xlink:href="#DejaVuSans-67" x="283.353516"/>
      <use xlink:href="#DejaVuSans-61" x="346.830078"/>
      <use xlink:href="#DejaVuSans-74" x="408.109375"/>
      <use xlink:href="#DejaVuSans-69" x="447.318359"/>
      <use xlink:href="#DejaVuSans-6f" x="475.101562"/>
      <use xlink:href="#DejaVuSans-6e" x="536.283203"/>
      <use xlink:href="#DejaVuSans-20" x="599.662109"/>
      <use xlink:href="#DejaVuSans-64" x="631.449219"/>
      <use xlink:href="#DejaVuSans-69" x="694.925781"/>
      <use xlink:href="#DejaVuSans-72" x="722.708984"/>
      <use xlink:href="#DejaVuSans-65" x="761.572266"/>
      <use xlink:href="#DejaVuSans-63" x="823.095703"/>
      <use xlink:href="#DejaVuSans-74" x="878.076172"/>
      <use xlink:href="#DejaVuSans-69" x="917.285156"/>
      <use xlink:href="#DejaVuSans-6f" x="945.068359"/>
      <use xlink:href="#DejaVuSans-6e" x="1006.25"/>
     </g>
    </g>
   </g>
   <g id="matplotlib.axis_2">
    <g id="ytick_1">
     <g id="line2d_7">
      <defs>
       <path id="m5ecd65321b" d="M 0 0 
L -3.5 0 
" style="stroke: #000000; stroke-width: 0.8"/>
      </defs>
      <g>
       <use xlink:href="#m5ecd65321b" x="50.14375" y="273.312" style="stroke: #000000; stroke-width: 0.8"/>
      </g>
     </g>
     <g id="text_8">
      <!-- 0.00 -->
      <g transform="translate(20.878125 277.111219)scale(0.1 -0.1)">
       <use xlink:href="#DejaVuSans-30"/>
       <use xlink:href="#DejaVuSans-2e" x="63.623047"/>
       <use xlink:href="#DejaVuSans-30" x="95.410156"/>
       <use xlink:href="#DejaVuSans-30" x="159.033203"/>
      </g>
     </g>
    </g>
    <g id="ytick_2">
     <g id="line2d_8">
      <g>
       <use xlink:href="#m5ecd65321b" x="50.14375" y="243.481666" style="stroke: #000000; stroke-width: 0.8"/>
      </g>
     </g>
     <g id="text_9">
      <!-- 0.25 -->
      <g transform="translate(20.878125 247.280885)scale(0.1 -0.1)">
       <defs>
        <path id="DejaVuSans-35" d="M 691 4666 
L 3169 4666 
L 3169 4134 
L 1269 4134 
L 1269 2991 
Q 1406 3038 1543 3061 
Q 1681 3084 1819 3084 
Q 2600 3084 3056 2656 
Q 3513 2228 3513 1497 
Q 3513 744 3044 326 
Q 2575 -91 1722 -91 
Q 1428 -91 1123 -41 
Q 819 9 494 109 
L 494 744 
Q 775 591 1075 516 
Q 1375 441 1709 441 
Q 2250 441 2565 725 
Q 2881 1009 2881 1497 
Q 2881 1984 2565 2268 
Q 2250 2553 1709 2553 
Q 1456 2553 1204 2497 
Q 953 2441 691 2322 
L 691 4666 
z
" transform="scale(0.015625)"/>
       </defs>
       <use xlink:href="#DejaVuSans-30"/>
       <use xlink:href="#DejaVuSans-2e" x="63.623047"/>
       <use xlink:href="#DejaVuSans-32" x="95.410156"/>
       <use xlink:href="#DejaVuSans-35" x="159.033203"/>
      </g>
     </g>
    </g>
    <g id="ytick_3">
     <g id="line2d_9">
      <g>
       <use xlink:href="#m5ecd65321b" x="50.14375" y="213.651332" style="stroke: #000000; stroke-width: 0.8"/>
      </g>
     </g>
     <g id="text_10">
      <!-- 0.50 -->
      <g transform="translate(20.878125 217.45055)scale(0.1 -0.1)">
       <use xlink:href="#DejaVuSans-30"/>
       <use xlink:href="#DejaVuSans-2e" x="63.623047"/>
       <use xlink:href="#DejaVuSans-35" x="95.410156"/>
       <use xlink:href="#DejaVuSans-30" x="159.033203"/>
      </g>
     </g>
    </g>
    <g id="ytick_4">
     <g id="line2d_10">
      <g>
       <use xlink:href="#m5ecd65321b" x="50.14375" y="183.820997" style="stroke: #000000; stroke-width: 0.8"/>
      </g>
     </g>
     <g id="text_11">
      <!-- 0.75 -->
      <g transform="translate(20.878125 187.620216)scale(0.1 -0.1)">
       <defs>
        <path id="DejaVuSans-37" d="M 525 4666 
L 3525 4666 
L 3525 4397 
L 1831 0 
L 1172 0 
L 2766 4134 
L 525 4134 
L 525 4666 
z
" transform="scale(0.015625)"/>
       </defs>
       <use xlink:href="#DejaVuSans-30"/>
       <use xlink:href="#DejaVuSans-2e" x="63.623047"/>
       <use xlink:href="#DejaVuSans-37" x="95.410156"/>
       <use xlink:href="#DejaVuSans-35" x="159.033203"/>
      </g>
     </g>
    </g>
    <g id="ytick_5">
     <g id="line2d_11">
      <g>
       <use xlink:href="#m5ecd65321b" x="50.14375" y="153.990663" style="stroke: #000000; stroke-width: 0.8"/>
      </g>
     </g>
     <g id="text_12">
      <!-- 1.00 -->
      <g transform="translate(20.878125 157.789882)scale(0.1 -0.1)">
       <use xlink:href="#DejaVuSans-31"/>
       <use xlink:href="#DejaVuSans-2e" x="63.623047"/>
       <use xlink:href="#DejaVuSans-30" x="95.410156"/>
       <use xlink:href="#DejaVuSans-30" x="159.033203"/>
      </g>
     </g>
    </g>
    <g id="ytick_6">
     <g id="line2d_12">
      <g>
       <use xlink:href="#m5ecd65321b" x="50.14375" y="124.160329" style="stroke: #000000; stroke-width: 0.8"/>
      </g>
     </g>
     <g id="text_13">
      <!-- 1.25 -->
      <g transform="translate(20.878125 127.959548)scale(0.1 -0.1)">
       <use xlink:href="#DejaVuSans-31"/>
       <use xlink:href="#DejaVuSans-2e" x="63.623047"/>
       <use xlink:href="#DejaVuSans-32" x="95.410156"/>
       <use xlink:href="#DejaVuSans-35" x="159.033203"/>
      </g>
     </g>
    </g>
    <g id="ytick_7">
     <g id="line2d_13">
      <g>
       <use xlink:href="#m5ecd65321b" x="50.14375" y="94.329995" style="stroke: #000000; stroke-width: 0.8"/>
      </g>
     </g>
     <g id="text_14">
      <!-- 1.50 -->
      <g transform="translate(20.878125 98.129213)scale(0.1 -0.1)">
       <use xlink:href="#DejaVuSans-31"/>
       <use xlink:href="#DejaVuSans-2e" x="63.623047"/>
       <use xlink:href="#DejaVuSans-35" x="95.410156"/>
       <use xlink:href="#DejaVuSans-30" x="159.033203"/>
      </g>
     </g>
    </g>
    <g id="ytick_8">
     <g id="line2d_14">
      <g>
       <use xlink:href="#m5ecd65321b" x="50.14375" y="64.49966" style="stroke: #000000; stroke-width: 0.8"/>
      </g>
     </g>
     <g id="text_15">
      <!-- 1.75 -->
      <g transform="translate(20.878125 68.298879)scale(0.1 -0.1)">
       <use xlink:href="#DejaVuSans-31"/>
       <use xlink:href="#DejaVuSans-2e" x="63.623047"/>
       <use xlink:href="#DejaVuSans-37" x="95.410156"/>
       <use xlink:href="#DejaVuSans-35" x="159.033203"/>
      </g>
     </g>
    </g>
    <g id="ytick_9">
     <g id="line2d_15">
      <g>
       <use xlink:href="#m5ecd65321b" x="50.14375" y="34.669326" style="stroke: #000000; stroke-width: 0.8"/>
      </g>
     </g>
     <g id="text_16">
      <!-- 2.00 -->
      <g transform="translate(20.878125 38.468545)scale(0.1 -0.1)">
       <use xlink:href="#DejaVuSans-32"/>
       <use xlink:href="#DejaVuSans-2e" x="63.623047"/>
       <use xlink:href="#DejaVuSans-30" x="95.410156"/>
       <use xlink:href="#DejaVuSans-30" x="159.033203"/>
      </g>
     </g>
    </g>
    <g id="text_17">
     <!-- Probability density -->
     <g transform="translate(14.798438 186.606781)rotate(-90)scale(0.1 -0.1)">
      <defs>
       <path id="DejaVuSans-62" d="M 3116 1747 
Q 3116 2381 2855 2742 
Q 2594 3103 2138 3103 
Q 1681 3103 1420 2742 
Q 1159 2381 1159 1747 
Q 1159 1113 1420 752 
Q 1681 391 2138 391 
Q 2594 391 2855 752 
Q 3116 1113 3116 1747 
z
M 1159 2969 
Q 1341 3281 1617 3432 
Q 1894 3584 2278 3584 
Q 2916 3584 3314 3078 
Q 3713 2572 3713 1747 
Q 3713 922 3314 415 
Q 2916 -91 2278 -91 
Q 1894 -91 1617 61 
Q 1341 213 1159 525 
L 1159 0 
L 581 0 
L 581 4863 
L 1159 4863 
L 1159 2969 
z
" transform="scale(0.015625)"/>
       <path id="DejaVuSans-6c" d="M 603 4863 
L 1178 4863 
L 1178 0 
L 603 0 
L 603 4863 
z
" transform="scale(0.015625)"/>
       <path id="DejaVuSans-79" d="M 2059 -325 
Q 1816 -950 1584 -1140 
Q 1353 -1331 966 -1331 
L 506 -1331 
L 506 -850 
L 844 -850 
Q 1081 -850 1212 -737 
Q 1344 -625 1503 -206 
L 1606 56 
L 191 3500 
L 800 3500 
L 1894 763 
L 2988 3500 
L 3597 3500 
L 2059 -325 
z
" transform="scale(0.015625)"/>
       <path id="DejaVuSans-73" d="M 2834 3397 
L 2834 2853 
Q 2591 2978 2328 3040 
Q 2066 3103 1784 3103 
Q 1356 3103 1142 2972 
Q 928 2841 928 2578 
Q 928 2378 1081 2264 
Q 1234 2150 1697 2047 
L 1894 2003 
Q 2506 1872 2764 1633 
Q 3022 1394 3022 966 
Q 3022 478 2636 193 
Q 2250 -91 1575 -91 
Q 1294 -91 989 -36 
Q 684 19 347 128 
L 347 722 
Q 666 556 975 473 
Q 1284 391 1588 391 
Q 1994 391 2212 530 
Q 2431 669 2431 922 
Q 2431 1156 2273 1281 
Q 2116 1406 1581 1522 
L 1381 1569 
Q 847 1681 609 1914 
Q 372 2147 372 2553 
Q 372 3047 722 3315 
Q 1072 3584 1716 3584 
Q 2034 3584 2315 3537 
Q 2597 3491 2834 3397 
z
" transform="scale(0.015625)"/>
      </defs>
      <use xlink:href="#DejaVuSans-50"/>
      <use xlink:href="#DejaVuSans-72" x="58.552734"/>
      <use xlink:href="#DejaVuSans-6f" x="97.416016"/>
      <use xlink:href="#DejaVuSans-62" x="158.597656"/>
      <use xlink:href="#DejaVuSans-61" x="222.074219"/>
      <use xlink:href="#DejaVuSans-62" x="283.353516"/>
      <use xlink:href="#DejaVuSans-69" x="346.830078"/>
      <use xlink:href="#DejaVuSans-6c" x="374.613281"/>
      <use xlink:href="#DejaVuSans-69" x="402.396484"/>
      <use xlink:href="#DejaVuSans-74" x="430.179688"/>
      <use xlink:href="#DejaVuSans-79" x="469.388672"/>
      <use xlink:href="#DejaVuSans-20" x="528.568359"/>
      <use xlink:href="#DejaVuSans-64" x="560.355469"/>
      <use xlink:href="#DejaVuSans-65" x="623.832031"/>
      <use xlink:href="#DejaVuSans-6e" x="685.355469"/>
      <use xlink:href="#DejaVuSans-73" x="748.734375"/>
      <use xlink:href="#DejaVuSans-69" x="800.833984"/>
      <use xlink:href="#DejaVuSans-74" x="828.617188"/>
      <use xlink:href="#DejaVuSans-79" x="867.826172"/>
     </g>
    </g>
   </g>
   <g id="line2d_16">
    <path d="M 66.376477 273.312 
L 391.031023 34.669326 
L 391.031023 34.669326 
" clip-path="url(#p53ce1ac2e5)" style="fill: none; stroke: #ff7f0e; stroke-width: 1.5; stroke-linecap: square"/>
   </g>
   <g id="patch_203">
    <path d="M 50.14375 273.312 
L 50.14375 7.2 
" style="fill: none; stroke: #000000; stroke-width: 0.8; stroke-linejoin: miter; stroke-linecap: square"/>
   </g>
   <g id="patch_204">
    <path d="M 407.26375 273.312 
L 407.26375 7.2 
" style="fill: none; stroke: #000000; stroke-width: 0.8; stroke-linejoin: miter; stroke-linecap: square"/>
   </g>
   <g id="patch_205">
    <path d="M 50.14375 273.312 
L 407.26375 273.312 
" style="fill: none; stroke: #000000; stroke-width: 0.8; stroke-linejoin: miter; stroke-linecap: square"/>
   </g>
   <g id="patch_206">
    <path d="M 50.14375 7.2 
L 407.26375 7.2 
" style="fill: none; stroke: #000000; stroke-width: 0.8; stroke-linejoin: miter; stroke-linecap: square"/>
   </g>
  </g>
 </g>
 <defs>
  <clipPath id="p53ce1ac2e5">
   <rect x="50.14375" y="7.2" width="357.12" height="266.112"/>
  </clipPath>
 </defs>
</svg>
