<?xml version="1.0" encoding="utf-8" standalone="no"?>
<!DOCTYPE svg PUBLIC "-//W3C//DTD SVG 1.1//EN"
  "http://www.w3.org/Graphics/SVG/1.1/DTD/svg11.dtd">
<svg xmlns:xlink="http://www.w3.org/1999/xlink" width="408.10125pt" height="310.86825pt" viewBox="0 0 408.10125 310.86825" xmlns="http://www.w3.org/2000/svg" version="1.1">
 <metadata>
  <rdf:RDF xmlns:dc="http://purl.org/dc/elements/1.1/" xmlns:cc="http://creativecommons.org/ns#" xmlns:rdf="http://www.w3.org/1999/02/22-rdf-syntax-ns#">
   <cc:Work>
    <dc:type rdf:resource="http://purl.org/dc/dcmitype/StillImage"/>
    <dc:date>2022-05-04T16:02:45.211384</dc:date>
    <dc:format>image/svg+xml</dc:format>
    <dc:creator>
     <cc:Agent>
      <dc:title>Matplotlib v3.5.2, https://matplotlib.org/</dc:title>
     </cc:Agent>
    </dc:creator>
   </cc:Work>
  </rdf:RDF>
 </metadata>
 <defs>
  <style type="text/css">*{stroke-linejoin: round; stroke-linecap: butt}</style>
 </defs>
 <g id="figure_1">
  <g id="patch_1">
   <path d="M 0 310.86825 
L 408.10125 310.86825 
L 408.10125 0 
L 0 0 
z
" style="fill: #ffffff"/>
  </g>
  <g id="axes_1">
   <g id="patch_2">
    <path d="M 43.78125 273.312 
L 400.90125 273.312 
L 400.90125 7.2 
L 43.78125 7.2 
z
" style="fill: #ffffff"/>
   </g>
   <g id="patch_3">
    <path d="M 61.513429 273.312 
L 63.129178 273.312 
L 63.129178 272.144074 
L 61.513429 272.144074 
z
" clip-path="url(#peb02b655d8)" style="fill: #1f77b4"/>
   </g>
   <g id="patch_4">
    <path d="M 63.129178 273.312 
L 64.744926 273.312 
L 64.744926 270.392184 
L 63.129178 270.392184 
z
" clip-path="url(#peb02b655d8)" style="fill: #1f77b4"/>
   </g>
   <g id="patch_5">
    <path d="M 64.744926 273.312 
L 66.360675 273.312 
L 66.360675 269.808221 
L 64.744926 269.808221 
z
" clip-path="url(#peb02b655d8)" style="fill: #1f77b4"/>
   </g>
   <g id="patch_6">
    <path d="M 66.360675 273.312 
L 67.976423 273.312 
L 67.976423 266.888406 
L 66.360675 266.888406 
z
" clip-path="url(#peb02b655d8)" style="fill: #1f77b4"/>
   </g>
   <g id="patch_7">
    <path d="M 67.976423 273.312 
L 69.592172 273.312 
L 69.592172 265.136516 
L 67.976423 265.136516 
z
" clip-path="url(#peb02b655d8)" style="fill: #1f77b4"/>
   </g>
   <g id="patch_8">
    <path d="M 69.592172 273.312 
L 71.20792 273.312 
L 71.20792 264.552553 
L 69.592172 264.552553 
z
" clip-path="url(#peb02b655d8)" style="fill: #1f77b4"/>
   </g>
   <g id="patch_9">
    <path d="M 71.20792 273.312 
L 72.823669 273.312 
L 72.823669 258.128959 
L 71.20792 258.128959 
z
" clip-path="url(#peb02b655d8)" style="fill: #1f77b4"/>
   </g>
   <g id="patch_10">
    <path d="M 72.823669 273.312 
L 74.439417 273.312 
L 74.439417 264.552553 
L 72.823669 264.552553 
z
" clip-path="url(#peb02b655d8)" style="fill: #1f77b4"/>
   </g>
   <g id="patch_11">
    <path d="M 74.439417 273.312 
L 76.055166 273.312 
L 76.055166 263.96859 
L 74.439417 263.96859 
z
" clip-path="url(#peb02b655d8)" style="fill: #1f77b4"/>
   </g>
   <g id="patch_12">
    <path d="M 76.055166 273.312 
L 77.670914 273.312 
L 77.670914 263.96859 
L 76.055166 263.96859 
z
" clip-path="url(#peb02b655d8)" style="fill: #1f77b4"/>
   </g>
   <g id="patch_13">
    <path d="M 77.670914 273.312 
L 79.286663 273.312 
L 79.286663 261.048774 
L 77.670914 261.048774 
z
" clip-path="url(#peb02b655d8)" style="fill: #1f77b4"/>
   </g>
   <g id="patch_14">
    <path d="M 79.286663 273.312 
L 80.902412 273.312 
L 80.902412 259.296885 
L 79.286663 259.296885 
z
" clip-path="url(#peb02b655d8)" style="fill: #1f77b4"/>
   </g>
   <g id="patch_15">
    <path d="M 80.902412 273.312 
L 82.51816 273.312 
L 82.51816 257.544995 
L 80.902412 257.544995 
z
" clip-path="url(#peb02b655d8)" style="fill: #1f77b4"/>
   </g>
   <g id="patch_16">
    <path d="M 82.51816 273.312 
L 84.133909 273.312 
L 84.133909 261.048774 
L 82.51816 261.048774 
z
" clip-path="url(#peb02b655d8)" style="fill: #1f77b4"/>
   </g>
   <g id="patch_17">
    <path d="M 84.133909 273.312 
L 85.749657 273.312 
L 85.749657 257.544995 
L 84.133909 257.544995 
z
" clip-path="url(#peb02b655d8)" style="fill: #1f77b4"/>
   </g>
   <g id="patch_18">
    <path d="M 85.749657 273.312 
L 87.365406 273.312 
L 87.365406 250.537438 
L 85.749657 250.537438 
z
" clip-path="url(#peb02b655d8)" style="fill: #1f77b4"/>
   </g>
   <g id="patch_19">
    <path d="M 87.365406 273.312 
L 88.981154 273.312 
L 88.981154 249.953475 
L 87.365406 249.953475 
z
" clip-path="url(#peb02b655d8)" style="fill: #1f77b4"/>
   </g>
   <g id="patch_20">
    <path d="M 88.981154 273.312 
L 90.596903 273.312 
L 90.596903 252.289327 
L 88.981154 252.289327 
z
" clip-path="url(#peb02b655d8)" style="fill: #1f77b4"/>
   </g>
   <g id="patch_21">
    <path d="M 90.596903 273.312 
L 92.212651 273.312 
L 92.212651 258.712922 
L 90.596903 258.712922 
z
" clip-path="url(#peb02b655d8)" style="fill: #1f77b4"/>
   </g>
   <g id="patch_22">
    <path d="M 92.212651 273.312 
L 93.8284 273.312 
L 93.8284 248.201585 
L 92.212651 248.201585 
z
" clip-path="url(#peb02b655d8)" style="fill: #1f77b4"/>
   </g>
   <g id="patch_23">
    <path d="M 93.8284 273.312 
L 95.444148 273.312 
L 95.444148 245.28177 
L 93.8284 245.28177 
z
" clip-path="url(#peb02b655d8)" style="fill: #1f77b4"/>
   </g>
   <g id="patch_24">
    <path d="M 95.444148 273.312 
L 97.059897 273.312 
L 97.059897 250.537438 
L 95.444148 250.537438 
z
" clip-path="url(#peb02b655d8)" style="fill: #1f77b4"/>
   </g>
   <g id="patch_25">
    <path d="M 97.059897 273.312 
L 98.675646 273.312 
L 98.675646 247.617622 
L 97.059897 247.617622 
z
" clip-path="url(#peb02b655d8)" style="fill: #1f77b4"/>
   </g>
   <g id="patch_26">
    <path d="M 98.675646 273.312 
L 100.291394 273.312 
L 100.291394 248.201585 
L 98.675646 248.201585 
z
" clip-path="url(#peb02b655d8)" style="fill: #1f77b4"/>
   </g>
   <g id="patch_27">
    <path d="M 100.291394 273.312 
L 101.907143 273.312 
L 101.907143 247.033659 
L 100.291394 247.033659 
z
" clip-path="url(#peb02b655d8)" style="fill: #1f77b4"/>
   </g>
   <g id="patch_28">
    <path d="M 101.907143 273.312 
L 103.522891 273.312 
L 103.522891 241.194028 
L 101.907143 241.194028 
z
" clip-path="url(#peb02b655d8)" style="fill: #1f77b4"/>
   </g>
   <g id="patch_29">
    <path d="M 103.522891 273.312 
L 105.13864 273.312 
L 105.13864 245.865733 
L 103.522891 245.865733 
z
" clip-path="url(#peb02b655d8)" style="fill: #1f77b4"/>
   </g>
   <g id="patch_30">
    <path d="M 105.13864 273.312 
L 106.754388 273.312 
L 106.754388 237.690249 
L 105.13864 237.690249 
z
" clip-path="url(#peb02b655d8)" style="fill: #1f77b4"/>
   </g>
   <g id="patch_31">
    <path d="M 106.754388 273.312 
L 108.370137 273.312 
L 108.370137 235.354396 
L 106.754388 235.354396 
z
" clip-path="url(#peb02b655d8)" style="fill: #1f77b4"/>
   </g>
   <g id="patch_32">
    <path d="M 108.370137 273.312 
L 109.985885 273.312 
L 109.985885 238.858175 
L 108.370137 238.858175 
z
" clip-path="url(#peb02b655d8)" style="fill: #1f77b4"/>
   </g>
   <g id="patch_33">
    <path d="M 109.985885 273.312 
L 111.601634 273.312 
L 111.601634 238.858175 
L 109.985885 238.858175 
z
" clip-path="url(#peb02b655d8)" style="fill: #1f77b4"/>
   </g>
   <g id="patch_34">
    <path d="M 111.601634 273.312 
L 113.217383 273.312 
L 113.217383 234.18647 
L 111.601634 234.18647 
z
" clip-path="url(#peb02b655d8)" style="fill: #1f77b4"/>
   </g>
   <g id="patch_35">
    <path d="M 113.217383 273.312 
L 114.833131 273.312 
L 114.833131 220.755318 
L 113.217383 220.755318 
z
" clip-path="url(#peb02b655d8)" style="fill: #1f77b4"/>
   </g>
   <g id="patch_36">
    <path d="M 114.833131 273.312 
L 116.44888 273.312 
L 116.44888 232.434581 
L 114.833131 232.434581 
z
" clip-path="url(#peb02b655d8)" style="fill: #1f77b4"/>
   </g>
   <g id="patch_37">
    <path d="M 116.44888 273.312 
L 118.064628 273.312 
L 118.064628 230.682691 
L 116.44888 230.682691 
z
" clip-path="url(#peb02b655d8)" style="fill: #1f77b4"/>
   </g>
   <g id="patch_38">
    <path d="M 118.064628 273.312 
L 119.680377 273.312 
L 119.680377 233.018544 
L 118.064628 233.018544 
z
" clip-path="url(#peb02b655d8)" style="fill: #1f77b4"/>
   </g>
   <g id="patch_39">
    <path d="M 119.680377 273.312 
L 121.296125 273.312 
L 121.296125 230.682691 
L 119.680377 230.682691 
z
" clip-path="url(#peb02b655d8)" style="fill: #1f77b4"/>
   </g>
   <g id="patch_40">
    <path d="M 121.296125 273.312 
L 122.911874 273.312 
L 122.911874 226.594949 
L 121.296125 226.594949 
z
" clip-path="url(#peb02b655d8)" style="fill: #1f77b4"/>
   </g>
   <g id="patch_41">
    <path d="M 122.911874 273.312 
L 124.527622 273.312 
L 124.527622 232.434581 
L 122.911874 232.434581 
z
" clip-path="url(#peb02b655d8)" style="fill: #1f77b4"/>
   </g>
   <g id="patch_42">
    <path d="M 124.527622 273.312 
L 126.143371 273.312 
L 126.143371 221.339281 
L 124.527622 221.339281 
z
" clip-path="url(#peb02b655d8)" style="fill: #1f77b4"/>
   </g>
   <g id="patch_43">
    <path d="M 126.143371 273.312 
L 127.759119 273.312 
L 127.759119 229.514765 
L 126.143371 229.514765 
z
" clip-path="url(#peb02b655d8)" style="fill: #1f77b4"/>
   </g>
   <g id="patch_44">
    <path d="M 127.759119 273.312 
L 129.374868 273.312 
L 129.374868 228.346839 
L 127.759119 228.346839 
z
" clip-path="url(#peb02b655d8)" style="fill: #1f77b4"/>
   </g>
   <g id="patch_45">
    <path d="M 129.374868 273.312 
L 130.990617 273.312 
L 130.990617 220.171355 
L 129.374868 220.171355 
z
" clip-path="url(#peb02b655d8)" style="fill: #1f77b4"/>
   </g>
   <g id="patch_46">
    <path d="M 130.990617 273.312 
L 132.606365 273.312 
L 132.606365 216.667576 
L 130.990617 216.667576 
z
" clip-path="url(#peb02b655d8)" style="fill: #1f77b4"/>
   </g>
   <g id="patch_47">
    <path d="M 132.606365 273.312 
L 134.222114 273.312 
L 134.222114 220.171355 
L 132.606365 220.171355 
z
" clip-path="url(#peb02b655d8)" style="fill: #1f77b4"/>
   </g>
   <g id="patch_48">
    <path d="M 134.222114 273.312 
L 135.837862 273.312 
L 135.837862 218.419465 
L 134.222114 218.419465 
z
" clip-path="url(#peb02b655d8)" style="fill: #1f77b4"/>
   </g>
   <g id="patch_49">
    <path d="M 135.837862 273.312 
L 137.453611 273.312 
L 137.453611 207.908129 
L 135.837862 207.908129 
z
" clip-path="url(#peb02b655d8)" style="fill: #1f77b4"/>
   </g>
   <g id="patch_50">
    <path d="M 137.453611 273.312 
L 139.069359 273.312 
L 139.069359 214.331724 
L 137.453611 214.331724 
z
" clip-path="url(#peb02b655d8)" style="fill: #1f77b4"/>
   </g>
   <g id="patch_51">
    <path d="M 139.069359 273.312 
L 140.685108 273.312 
L 140.685108 217.835502 
L 139.069359 217.835502 
z
" clip-path="url(#peb02b655d8)" style="fill: #1f77b4"/>
   </g>
   <g id="patch_52">
    <path d="M 140.685108 273.312 
L 142.300856 273.312 
L 142.300856 216.667576 
L 140.685108 216.667576 
z
" clip-path="url(#peb02b655d8)" style="fill: #1f77b4"/>
   </g>
   <g id="patch_53">
    <path d="M 142.300856 273.312 
L 143.916605 273.312 
L 143.916605 213.74776 
L 142.300856 213.74776 
z
" clip-path="url(#peb02b655d8)" style="fill: #1f77b4"/>
   </g>
   <g id="patch_54">
    <path d="M 143.916605 273.312 
L 145.532353 273.312 
L 145.532353 231.266654 
L 143.916605 231.266654 
z
" clip-path="url(#peb02b655d8)" style="fill: #1f77b4"/>
   </g>
   <g id="patch_55">
    <path d="M 145.532353 273.312 
L 147.148102 273.312 
L 147.148102 204.40435 
L 145.532353 204.40435 
z
" clip-path="url(#peb02b655d8)" style="fill: #1f77b4"/>
   </g>
   <g id="patch_56">
    <path d="M 147.148102 273.312 
L 148.763851 273.312 
L 148.763851 199.148682 
L 147.148102 199.148682 
z
" clip-path="url(#peb02b655d8)" style="fill: #1f77b4"/>
   </g>
   <g id="patch_57">
    <path d="M 148.763851 273.312 
L 150.379599 273.312 
L 150.379599 199.148682 
L 148.763851 199.148682 
z
" clip-path="url(#peb02b655d8)" style="fill: #1f77b4"/>
   </g>
   <g id="patch_58">
    <path d="M 150.379599 273.312 
L 151.995348 273.312 
L 151.995348 208.492092 
L 150.379599 208.492092 
z
" clip-path="url(#peb02b655d8)" style="fill: #1f77b4"/>
   </g>
   <g id="patch_59">
    <path d="M 151.995348 273.312 
L 153.611096 273.312 
L 153.611096 214.915687 
L 151.995348 214.915687 
z
" clip-path="url(#peb02b655d8)" style="fill: #1f77b4"/>
   </g>
   <g id="patch_60">
    <path d="M 153.611096 273.312 
L 155.226845 273.312 
L 155.226845 202.068498 
L 153.611096 202.068498 
z
" clip-path="url(#peb02b655d8)" style="fill: #1f77b4"/>
   </g>
   <g id="patch_61">
    <path d="M 155.226845 273.312 
L 156.842593 273.312 
L 156.842593 200.900571 
L 155.226845 200.900571 
z
" clip-path="url(#peb02b655d8)" style="fill: #1f77b4"/>
   </g>
   <g id="patch_62">
    <path d="M 156.842593 273.312 
L 158.458342 273.312 
L 158.458342 200.900571 
L 156.842593 200.900571 
z
" clip-path="url(#peb02b655d8)" style="fill: #1f77b4"/>
   </g>
   <g id="patch_63">
    <path d="M 158.458342 273.312 
L 160.07409 273.312 
L 160.07409 199.148682 
L 158.458342 199.148682 
z
" clip-path="url(#peb02b655d8)" style="fill: #1f77b4"/>
   </g>
   <g id="patch_64">
    <path d="M 160.07409 273.312 
L 161.689839 273.312 
L 161.689839 207.908129 
L 160.07409 207.908129 
z
" clip-path="url(#peb02b655d8)" style="fill: #1f77b4"/>
   </g>
   <g id="patch_65">
    <path d="M 161.689839 273.312 
L 163.305588 273.312 
L 163.305588 202.652461 
L 161.689839 202.652461 
z
" clip-path="url(#peb02b655d8)" style="fill: #1f77b4"/>
   </g>
   <g id="patch_66">
    <path d="M 163.305588 273.312 
L 164.921336 273.312 
L 164.921336 198.564719 
L 163.305588 198.564719 
z
" clip-path="url(#peb02b655d8)" style="fill: #1f77b4"/>
   </g>
   <g id="patch_67">
    <path d="M 164.921336 273.312 
L 166.537085 273.312 
L 166.537085 201.484535 
L 164.921336 201.484535 
z
" clip-path="url(#peb02b655d8)" style="fill: #1f77b4"/>
   </g>
   <g id="patch_68">
    <path d="M 166.537085 273.312 
L 168.152833 273.312 
L 168.152833 198.564719 
L 166.537085 198.564719 
z
" clip-path="url(#peb02b655d8)" style="fill: #1f77b4"/>
   </g>
   <g id="patch_69">
    <path d="M 168.152833 273.312 
L 169.768582 273.312 
L 169.768582 189.805272 
L 168.152833 189.805272 
z
" clip-path="url(#peb02b655d8)" style="fill: #1f77b4"/>
   </g>
   <g id="patch_70">
    <path d="M 169.768582 273.312 
L 171.38433 273.312 
L 171.38433 200.316608 
L 169.768582 200.316608 
z
" clip-path="url(#peb02b655d8)" style="fill: #1f77b4"/>
   </g>
   <g id="patch_71">
    <path d="M 171.38433 273.312 
L 173.000079 273.312 
L 173.000079 191.557161 
L 171.38433 191.557161 
z
" clip-path="url(#peb02b655d8)" style="fill: #1f77b4"/>
   </g>
   <g id="patch_72">
    <path d="M 173.000079 273.312 
L 174.615827 273.312 
L 174.615827 191.557161 
L 173.000079 191.557161 
z
" clip-path="url(#peb02b655d8)" style="fill: #1f77b4"/>
   </g>
   <g id="patch_73">
    <path d="M 174.615827 273.312 
L 176.231576 273.312 
L 176.231576 190.389235 
L 174.615827 190.389235 
z
" clip-path="url(#peb02b655d8)" style="fill: #1f77b4"/>
   </g>
   <g id="patch_74">
    <path d="M 176.231576 273.312 
L 177.847324 273.312 
L 177.847324 190.389235 
L 176.231576 190.389235 
z
" clip-path="url(#peb02b655d8)" style="fill: #1f77b4"/>
   </g>
   <g id="patch_75">
    <path d="M 177.847324 273.312 
L 179.463073 273.312 
L 179.463073 186.885456 
L 177.847324 186.885456 
z
" clip-path="url(#peb02b655d8)" style="fill: #1f77b4"/>
   </g>
   <g id="patch_76">
    <path d="M 179.463073 273.312 
L 181.078822 273.312 
L 181.078822 188.053382 
L 179.463073 188.053382 
z
" clip-path="url(#peb02b655d8)" style="fill: #1f77b4"/>
   </g>
   <g id="patch_77">
    <path d="M 181.078822 273.312 
L 182.69457 273.312 
L 182.69457 184.549604 
L 181.078822 184.549604 
z
" clip-path="url(#peb02b655d8)" style="fill: #1f77b4"/>
   </g>
   <g id="patch_78">
    <path d="M 182.69457 273.312 
L 184.310319 273.312 
L 184.310319 179.293935 
L 182.69457 179.293935 
z
" clip-path="url(#peb02b655d8)" style="fill: #1f77b4"/>
   </g>
   <g id="patch_79">
    <path d="M 184.310319 273.312 
L 185.926067 273.312 
L 185.926067 179.293935 
L 184.310319 179.293935 
z
" clip-path="url(#peb02b655d8)" style="fill: #1f77b4"/>
   </g>
   <g id="patch_80">
    <path d="M 185.926067 273.312 
L 187.541816 273.312 
L 187.541816 186.301493 
L 185.926067 186.301493 
z
" clip-path="url(#peb02b655d8)" style="fill: #1f77b4"/>
   </g>
   <g id="patch_81">
    <path d="M 187.541816 273.312 
L 189.157564 273.312 
L 189.157564 196.228866 
L 187.541816 196.228866 
z
" clip-path="url(#peb02b655d8)" style="fill: #1f77b4"/>
   </g>
   <g id="patch_82">
    <path d="M 189.157564 273.312 
L 190.773313 273.312 
L 190.773313 179.293935 
L 189.157564 179.293935 
z
" clip-path="url(#peb02b655d8)" style="fill: #1f77b4"/>
   </g>
   <g id="patch_83">
    <path d="M 190.773313 273.312 
L 192.389061 273.312 
L 192.389061 183.381677 
L 190.773313 183.381677 
z
" clip-path="url(#peb02b655d8)" style="fill: #1f77b4"/>
   </g>
   <g id="patch_84">
    <path d="M 192.389061 273.312 
L 194.00481 273.312 
L 194.00481 192.725088 
L 192.389061 192.725088 
z
" clip-path="url(#peb02b655d8)" style="fill: #1f77b4"/>
   </g>
   <g id="patch_85">
    <path d="M 194.00481 273.312 
L 195.620558 273.312 
L 195.620558 182.213751 
L 194.00481 182.213751 
z
" clip-path="url(#peb02b655d8)" style="fill: #1f77b4"/>
   </g>
   <g id="patch_86">
    <path d="M 195.620558 273.312 
L 197.236307 273.312 
L 197.236307 186.885456 
L 195.620558 186.885456 
z
" clip-path="url(#peb02b655d8)" style="fill: #1f77b4"/>
   </g>
   <g id="patch_87">
    <path d="M 197.236307 273.312 
L 198.852056 273.312 
L 198.852056 174.038267 
L 197.236307 174.038267 
z
" clip-path="url(#peb02b655d8)" style="fill: #1f77b4"/>
   </g>
   <g id="patch_88">
    <path d="M 198.852056 273.312 
L 200.467804 273.312 
L 200.467804 172.870341 
L 198.852056 172.870341 
z
" clip-path="url(#peb02b655d8)" style="fill: #1f77b4"/>
   </g>
   <g id="patch_89">
    <path d="M 200.467804 273.312 
L 202.083553 273.312 
L 202.083553 182.213751 
L 200.467804 182.213751 
z
" clip-path="url(#peb02b655d8)" style="fill: #1f77b4"/>
   </g>
   <g id="patch_90">
    <path d="M 202.083553 273.312 
L 203.699301 273.312 
L 203.699301 164.694857 
L 202.083553 164.694857 
z
" clip-path="url(#peb02b655d8)" style="fill: #1f77b4"/>
   </g>
   <g id="patch_91">
    <path d="M 203.699301 273.312 
L 205.31505 273.312 
L 205.31505 163.526931 
L 203.699301 163.526931 
z
" clip-path="url(#peb02b655d8)" style="fill: #1f77b4"/>
   </g>
   <g id="patch_92">
    <path d="M 205.31505 273.312 
L 206.930798 273.312 
L 206.930798 161.191078 
L 205.31505 161.191078 
z
" clip-path="url(#peb02b655d8)" style="fill: #1f77b4"/>
   </g>
   <g id="patch_93">
    <path d="M 206.930798 273.312 
L 208.546547 273.312 
L 208.546547 165.27882 
L 206.930798 165.27882 
z
" clip-path="url(#peb02b655d8)" style="fill: #1f77b4"/>
   </g>
   <g id="patch_94">
    <path d="M 208.546547 273.312 
L 210.162295 273.312 
L 210.162295 158.855226 
L 208.546547 158.855226 
z
" clip-path="url(#peb02b655d8)" style="fill: #1f77b4"/>
   </g>
   <g id="patch_95">
    <path d="M 210.162295 273.312 
L 211.778044 273.312 
L 211.778044 183.381677 
L 210.162295 183.381677 
z
" clip-path="url(#peb02b655d8)" style="fill: #1f77b4"/>
   </g>
   <g id="patch_96">
    <path d="M 211.778044 273.312 
L 213.393793 273.312 
L 213.393793 177.542046 
L 211.778044 177.542046 
z
" clip-path="url(#peb02b655d8)" style="fill: #1f77b4"/>
   </g>
   <g id="patch_97">
    <path d="M 213.393793 273.312 
L 215.009541 273.312 
L 215.009541 162.942968 
L 213.393793 162.942968 
z
" clip-path="url(#peb02b655d8)" style="fill: #1f77b4"/>
   </g>
   <g id="patch_98">
    <path d="M 215.009541 273.312 
L 216.62529 273.312 
L 216.62529 158.271263 
L 215.009541 158.271263 
z
" clip-path="url(#peb02b655d8)" style="fill: #1f77b4"/>
   </g>
   <g id="patch_99">
    <path d="M 216.62529 273.312 
L 218.241038 273.312 
L 218.241038 156.519373 
L 216.62529 156.519373 
z
" clip-path="url(#peb02b655d8)" style="fill: #1f77b4"/>
   </g>
   <g id="patch_100">
    <path d="M 218.241038 273.312 
L 219.856787 273.312 
L 219.856787 165.862783 
L 218.241038 165.862783 
z
" clip-path="url(#peb02b655d8)" style="fill: #1f77b4"/>
   </g>
   <g id="patch_101">
    <path d="M 219.856787 273.312 
L 221.472535 273.312 
L 221.472535 144.256147 
L 219.856787 144.256147 
z
" clip-path="url(#peb02b655d8)" style="fill: #1f77b4"/>
   </g>
   <g id="patch_102">
    <path d="M 221.472535 273.312 
L 223.088284 273.312 
L 223.088284 164.694857 
L 221.472535 164.694857 
z
" clip-path="url(#peb02b655d8)" style="fill: #1f77b4"/>
   </g>
   <g id="patch_103">
    <path d="M 223.088284 273.312 
L 224.704032 273.312 
L 224.704032 156.519373 
L 223.088284 156.519373 
z
" clip-path="url(#peb02b655d8)" style="fill: #1f77b4"/>
   </g>
   <g id="patch_104">
    <path d="M 224.704032 273.312 
L 226.319781 273.312 
L 226.319781 165.862783 
L 224.704032 165.862783 
z
" clip-path="url(#peb02b655d8)" style="fill: #1f77b4"/>
   </g>
   <g id="patch_105">
    <path d="M 226.319781 273.312 
L 227.935529 273.312 
L 227.935529 151.263705 
L 226.319781 151.263705 
z
" clip-path="url(#peb02b655d8)" style="fill: #1f77b4"/>
   </g>
   <g id="patch_106">
    <path d="M 227.935529 273.312 
L 229.551278 273.312 
L 229.551278 152.431631 
L 227.935529 152.431631 
z
" clip-path="url(#peb02b655d8)" style="fill: #1f77b4"/>
   </g>
   <g id="patch_107">
    <path d="M 229.551278 273.312 
L 231.167027 273.312 
L 231.167027 143.088221 
L 229.551278 143.088221 
z
" clip-path="url(#peb02b655d8)" style="fill: #1f77b4"/>
   </g>
   <g id="patch_108">
    <path d="M 231.167027 273.312 
L 232.782775 273.312 
L 232.782775 150.095779 
L 231.167027 150.095779 
z
" clip-path="url(#peb02b655d8)" style="fill: #1f77b4"/>
   </g>
   <g id="patch_109">
    <path d="M 232.782775 273.312 
L 234.398524 273.312 
L 234.398524 152.431631 
L 232.782775 152.431631 
z
" clip-path="url(#peb02b655d8)" style="fill: #1f77b4"/>
   </g>
   <g id="patch_110">
    <path d="M 234.398524 273.312 
L 236.014272 273.312 
L 236.014272 169.950525 
L 234.398524 169.950525 
z
" clip-path="url(#peb02b655d8)" style="fill: #1f77b4"/>
   </g>
   <g id="patch_111">
    <path d="M 236.014272 273.312 
L 237.630021 273.312 
L 237.630021 141.920295 
L 236.014272 141.920295 
z
" clip-path="url(#peb02b655d8)" style="fill: #1f77b4"/>
   </g>
   <g id="patch_112">
    <path d="M 237.630021 273.312 
L 239.245769 273.312 
L 239.245769 158.271263 
L 237.630021 158.271263 
z
" clip-path="url(#peb02b655d8)" style="fill: #1f77b4"/>
   </g>
   <g id="patch_113">
    <path d="M 239.245769 273.312 
L 240.861518 273.312 
L 240.861518 143.088221 
L 239.245769 143.088221 
z
" clip-path="url(#peb02b655d8)" style="fill: #1f77b4"/>
   </g>
   <g id="patch_114">
    <path d="M 240.861518 273.312 
L 242.477266 273.312 
L 242.477266 153.015594 
L 240.861518 153.015594 
z
" clip-path="url(#peb02b655d8)" style="fill: #1f77b4"/>
   </g>
   <g id="patch_115">
    <path d="M 242.477266 273.312 
L 244.093015 273.312 
L 244.093015 154.183521 
L 242.477266 154.183521 
z
" clip-path="url(#peb02b655d8)" style="fill: #1f77b4"/>
   </g>
   <g id="patch_116">
    <path d="M 244.093015 273.312 
L 245.708763 273.312 
L 245.708763 127.90518 
L 244.093015 127.90518 
z
" clip-path="url(#peb02b655d8)" style="fill: #1f77b4"/>
   </g>
   <g id="patch_117">
    <path d="M 245.708763 273.312 
L 247.324512 273.312 
L 247.324512 136.080664 
L 245.708763 136.080664 
z
" clip-path="url(#peb02b655d8)" style="fill: #1f77b4"/>
   </g>
   <g id="patch_118">
    <path d="M 247.324512 273.312 
L 248.940261 273.312 
L 248.940261 150.679742 
L 247.324512 150.679742 
z
" clip-path="url(#peb02b655d8)" style="fill: #1f77b4"/>
   </g>
   <g id="patch_119">
    <path d="M 248.940261 273.312 
L 250.556009 273.312 
L 250.556009 142.504258 
L 248.940261 142.504258 
z
" clip-path="url(#peb02b655d8)" style="fill: #1f77b4"/>
   </g>
   <g id="patch_120">
    <path d="M 250.556009 273.312 
L 252.171758 273.312 
L 252.171758 144.840111 
L 250.556009 144.840111 
z
" clip-path="url(#peb02b655d8)" style="fill: #1f77b4"/>
   </g>
   <g id="patch_121">
    <path d="M 252.171758 273.312 
L 253.787506 273.312 
L 253.787506 139.000479 
L 252.171758 139.000479 
z
" clip-path="url(#peb02b655d8)" style="fill: #1f77b4"/>
   </g>
   <g id="patch_122">
    <path d="M 253.787506 273.312 
L 255.403255 273.312 
L 255.403255 124.985364 
L 253.787506 124.985364 
z
" clip-path="url(#peb02b655d8)" style="fill: #1f77b4"/>
   </g>
   <g id="patch_123">
    <path d="M 255.403255 273.312 
L 257.019003 273.312 
L 257.019003 137.24859 
L 255.403255 137.24859 
z
" clip-path="url(#peb02b655d8)" style="fill: #1f77b4"/>
   </g>
   <g id="patch_124">
    <path d="M 257.019003 273.312 
L 258.634752 273.312 
L 258.634752 131.992922 
L 257.019003 131.992922 
z
" clip-path="url(#peb02b655d8)" style="fill: #1f77b4"/>
   </g>
   <g id="patch_125">
    <path d="M 258.634752 273.312 
L 260.2505 273.312 
L 260.2505 133.160848 
L 258.634752 133.160848 
z
" clip-path="url(#peb02b655d8)" style="fill: #1f77b4"/>
   </g>
   <g id="patch_126">
    <path d="M 260.2505 273.312 
L 261.866249 273.312 
L 261.866249 127.321217 
L 260.2505 127.321217 
z
" clip-path="url(#peb02b655d8)" style="fill: #1f77b4"/>
   </g>
   <g id="patch_127">
    <path d="M 261.866249 273.312 
L 263.481998 273.312 
L 263.481998 115.641954 
L 261.866249 115.641954 
z
" clip-path="url(#peb02b655d8)" style="fill: #1f77b4"/>
   </g>
   <g id="patch_128">
    <path d="M 263.481998 273.312 
L 265.097746 273.312 
L 265.097746 116.80988 
L 263.481998 116.80988 
z
" clip-path="url(#peb02b655d8)" style="fill: #1f77b4"/>
   </g>
   <g id="patch_129">
    <path d="M 265.097746 273.312 
L 266.713495 273.312 
L 266.713495 132.576885 
L 265.097746 132.576885 
z
" clip-path="url(#peb02b655d8)" style="fill: #1f77b4"/>
   </g>
   <g id="patch_130">
    <path d="M 266.713495 273.312 
L 268.329243 273.312 
L 268.329243 123.817438 
L 266.713495 123.817438 
z
" clip-path="url(#peb02b655d8)" style="fill: #1f77b4"/>
   </g>
   <g id="patch_131">
    <path d="M 268.329243 273.312 
L 269.944992 273.312 
L 269.944992 116.225917 
L 268.329243 116.225917 
z
" clip-path="url(#peb02b655d8)" style="fill: #1f77b4"/>
   </g>
   <g id="patch_132">
    <path d="M 269.944992 273.312 
L 271.56074 273.312 
L 271.56074 138.416516 
L 269.944992 138.416516 
z
" clip-path="url(#peb02b655d8)" style="fill: #1f77b4"/>
   </g>
   <g id="patch_133">
    <path d="M 271.56074 273.312 
L 273.176489 273.312 
L 273.176489 115.057991 
L 271.56074 115.057991 
z
" clip-path="url(#peb02b655d8)" style="fill: #1f77b4"/>
   </g>
   <g id="patch_134">
    <path d="M 273.176489 273.312 
L 274.792237 273.312 
L 274.792237 112.722138 
L 273.176489 112.722138 
z
" clip-path="url(#peb02b655d8)" style="fill: #1f77b4"/>
   </g>
   <g id="patch_135">
    <path d="M 274.792237 273.312 
L 276.407986 273.312 
L 276.407986 108.634396 
L 274.792237 108.634396 
z
" clip-path="url(#peb02b655d8)" style="fill: #1f77b4"/>
   </g>
   <g id="patch_136">
    <path d="M 276.407986 273.312 
L 278.023734 273.312 
L 278.023734 120.313659 
L 276.407986 120.313659 
z
" clip-path="url(#peb02b655d8)" style="fill: #1f77b4"/>
   </g>
   <g id="patch_137">
    <path d="M 278.023734 273.312 
L 279.639483 273.312 
L 279.639483 113.890065 
L 278.023734 113.890065 
z
" clip-path="url(#peb02b655d8)" style="fill: #1f77b4"/>
   </g>
   <g id="patch_138">
    <path d="M 279.639483 273.312 
L 281.255232 273.312 
L 281.255232 109.802323 
L 279.639483 109.802323 
z
" clip-path="url(#peb02b655d8)" style="fill: #1f77b4"/>
   </g>
   <g id="patch_139">
    <path d="M 281.255232 273.312 
L 282.87098 273.312 
L 282.87098 127.321217 
L 281.255232 127.321217 
z
" clip-path="url(#peb02b655d8)" style="fill: #1f77b4"/>
   </g>
   <g id="patch_140">
    <path d="M 282.87098 273.312 
L 284.486729 273.312 
L 284.486729 117.393843 
L 282.87098 117.393843 
z
" clip-path="url(#peb02b655d8)" style="fill: #1f77b4"/>
   </g>
   <g id="patch_141">
    <path d="M 284.486729 273.312 
L 286.102477 273.312 
L 286.102477 115.057991 
L 284.486729 115.057991 
z
" clip-path="url(#peb02b655d8)" style="fill: #1f77b4"/>
   </g>
   <g id="patch_142">
    <path d="M 286.102477 273.312 
L 287.718226 273.312 
L 287.718226 88.195687 
L 286.102477 88.195687 
z
" clip-path="url(#peb02b655d8)" style="fill: #1f77b4"/>
   </g>
   <g id="patch_143">
    <path d="M 287.718226 273.312 
L 289.333974 273.312 
L 289.333974 96.371171 
L 287.718226 96.371171 
z
" clip-path="url(#peb02b655d8)" style="fill: #1f77b4"/>
   </g>
   <g id="patch_144">
    <path d="M 289.333974 273.312 
L 290.949723 273.312 
L 290.949723 110.970249 
L 289.333974 110.970249 
z
" clip-path="url(#peb02b655d8)" style="fill: #1f77b4"/>
   </g>
   <g id="patch_145">
    <path d="M 290.949723 273.312 
L 292.565471 273.312 
L 292.565471 133.160848 
L 290.949723 133.160848 
z
" clip-path="url(#peb02b655d8)" style="fill: #1f77b4"/>
   </g>
   <g id="patch_146">
    <path d="M 292.565471 273.312 
L 294.18122 273.312 
L 294.18122 118.56177 
L 292.565471 118.56177 
z
" clip-path="url(#peb02b655d8)" style="fill: #1f77b4"/>
   </g>
   <g id="patch_147">
    <path d="M 294.18122 273.312 
L 295.796968 273.312 
L 295.796968 103.378728 
L 294.18122 103.378728 
z
" clip-path="url(#peb02b655d8)" style="fill: #1f77b4"/>
   </g>
   <g id="patch_148">
    <path d="M 295.796968 273.312 
L 297.412717 273.312 
L 297.412717 112.138175 
L 295.796968 112.138175 
z
" clip-path="url(#peb02b655d8)" style="fill: #1f77b4"/>
   </g>
   <g id="patch_149">
    <path d="M 297.412717 273.312 
L 299.028466 273.312 
L 299.028466 99.290986 
L 297.412717 99.290986 
z
" clip-path="url(#peb02b655d8)" style="fill: #1f77b4"/>
   </g>
   <g id="patch_150">
    <path d="M 299.028466 273.312 
L 300.644214 273.312 
L 300.644214 100.458912 
L 299.028466 100.458912 
z
" clip-path="url(#peb02b655d8)" style="fill: #1f77b4"/>
   </g>
   <g id="patch_151">
    <path d="M 300.644214 273.312 
L 302.259963 273.312 
L 302.259963 97.539097 
L 300.644214 97.539097 
z
" clip-path="url(#peb02b655d8)" style="fill: #1f77b4"/>
   </g>
   <g id="patch_152">
    <path d="M 302.259963 273.312 
L 303.875711 273.312 
L 303.875711 96.371171 
L 302.259963 96.371171 
z
" clip-path="url(#peb02b655d8)" style="fill: #1f77b4"/>
   </g>
   <g id="patch_153">
    <path d="M 303.875711 273.312 
L 305.49146 273.312 
L 305.49146 87.611724 
L 303.875711 87.611724 
z
" clip-path="url(#peb02b655d8)" style="fill: #1f77b4"/>
   </g>
   <g id="patch_154">
    <path d="M 305.49146 273.312 
L 307.107208 273.312 
L 307.107208 81.188129 
L 305.49146 81.188129 
z
" clip-path="url(#peb02b655d8)" style="fill: #1f77b4"/>
   </g>
   <g id="patch_155">
    <path d="M 307.107208 273.312 
L 308.722957 273.312 
L 308.722957 89.363613 
L 307.107208 89.363613 
z
" clip-path="url(#peb02b655d8)" style="fill: #1f77b4"/>
   </g>
   <g id="patch_156">
    <path d="M 308.722957 273.312 
L 310.338705 273.312 
L 310.338705 84.691908 
L 308.722957 84.691908 
z
" clip-path="url(#peb02b655d8)" style="fill: #1f77b4"/>
   </g>
   <g id="patch_157">
    <path d="M 310.338705 273.312 
L 311.954454 273.312 
L 311.954454 92.867392 
L 310.338705 92.867392 
z
" clip-path="url(#peb02b655d8)" style="fill: #1f77b4"/>
   </g>
   <g id="patch_158">
    <path d="M 311.954454 273.312 
L 313.570203 273.312 
L 313.570203 81.188129 
L 311.954454 81.188129 
z
" clip-path="url(#peb02b655d8)" style="fill: #1f77b4"/>
   </g>
   <g id="patch_159">
    <path d="M 313.570203 273.312 
L 315.185951 273.312 
L 315.185951 82.940018 
L 313.570203 82.940018 
z
" clip-path="url(#peb02b655d8)" style="fill: #1f77b4"/>
   </g>
   <g id="patch_160">
    <path d="M 315.185951 273.312 
L 316.8017 273.312 
L 316.8017 77.100387 
L 315.185951 77.100387 
z
" clip-path="url(#peb02b655d8)" style="fill: #1f77b4"/>
   </g>
   <g id="patch_161">
    <path d="M 316.8017 273.312 
L 318.417448 273.312 
L 318.417448 78.268313 
L 316.8017 78.268313 
z
" clip-path="url(#peb02b655d8)" style="fill: #1f77b4"/>
   </g>
   <g id="patch_162">
    <path d="M 318.417448 273.312 
L 320.033197 273.312 
L 320.033197 92.867392 
L 318.417448 92.867392 
z
" clip-path="url(#peb02b655d8)" style="fill: #1f77b4"/>
   </g>
   <g id="patch_163">
    <path d="M 320.033197 273.312 
L 321.648945 273.312 
L 321.648945 91.115502 
L 320.033197 91.115502 
z
" clip-path="url(#peb02b655d8)" style="fill: #1f77b4"/>
   </g>
   <g id="patch_164">
    <path d="M 321.648945 273.312 
L 323.264694 273.312 
L 323.264694 77.100387 
L 321.648945 77.100387 
z
" clip-path="url(#peb02b655d8)" style="fill: #1f77b4"/>
   </g>
   <g id="patch_165">
    <path d="M 323.264694 273.312 
L 324.880442 273.312 
L 324.880442 77.100387 
L 323.264694 77.100387 
z
" clip-path="url(#peb02b655d8)" style="fill: #1f77b4"/>
   </g>
   <g id="patch_166">
    <path d="M 324.880442 273.312 
L 326.496191 273.312 
L 326.496191 94.619281 
L 324.880442 94.619281 
z
" clip-path="url(#peb02b655d8)" style="fill: #1f77b4"/>
   </g>
   <g id="patch_167">
    <path d="M 326.496191 273.312 
L 328.111939 273.312 
L 328.111939 78.852276 
L 326.496191 78.852276 
z
" clip-path="url(#peb02b655d8)" style="fill: #1f77b4"/>
   </g>
   <g id="patch_168">
    <path d="M 328.111939 273.312 
L 329.727688 273.312 
L 329.727688 83.523982 
L 328.111939 83.523982 
z
" clip-path="url(#peb02b655d8)" style="fill: #1f77b4"/>
   </g>
   <g id="patch_169">
    <path d="M 329.727688 273.312 
L 331.343437 273.312 
L 331.343437 81.772092 
L 329.727688 81.772092 
z
" clip-path="url(#peb02b655d8)" style="fill: #1f77b4"/>
   </g>
   <g id="patch_170">
    <path d="M 331.343437 273.312 
L 332.959185 273.312 
L 332.959185 78.268313 
L 331.343437 78.268313 
z
" clip-path="url(#peb02b655d8)" style="fill: #1f77b4"/>
   </g>
   <g id="patch_171">
    <path d="M 332.959185 273.312 
L 334.574934 273.312 
L 334.574934 80.020203 
L 332.959185 80.020203 
z
" clip-path="url(#peb02b655d8)" style="fill: #1f77b4"/>
   </g>
   <g id="patch_172">
    <path d="M 334.574934 273.312 
L 336.190682 273.312 
L 336.190682 79.43624 
L 334.574934 79.43624 
z
" clip-path="url(#peb02b655d8)" style="fill: #1f77b4"/>
   </g>
   <g id="patch_173">
    <path d="M 336.190682 273.312 
L 337.806431 273.312 
L 337.806431 81.188129 
L 336.190682 81.188129 
z
" clip-path="url(#peb02b655d8)" style="fill: #1f77b4"/>
   </g>
   <g id="patch_174">
    <path d="M 337.806431 273.312 
L 339.422179 273.312 
L 339.422179 82.356055 
L 337.806431 82.356055 
z
" clip-path="url(#peb02b655d8)" style="fill: #1f77b4"/>
   </g>
   <g id="patch_175">
    <path d="M 339.422179 273.312 
L 341.037928 273.312 
L 341.037928 82.940018 
L 339.422179 82.940018 
z
" clip-path="url(#peb02b655d8)" style="fill: #1f77b4"/>
   </g>
   <g id="patch_176">
    <path d="M 341.037928 273.312 
L 342.653676 273.312 
L 342.653676 58.99753 
L 341.037928 58.99753 
z
" clip-path="url(#peb02b655d8)" style="fill: #1f77b4"/>
   </g>
   <g id="patch_177">
    <path d="M 342.653676 273.312 
L 344.269425 273.312 
L 344.269425 60.749419 
L 342.653676 60.749419 
z
" clip-path="url(#peb02b655d8)" style="fill: #1f77b4"/>
   </g>
   <g id="patch_178">
    <path d="M 344.269425 273.312 
L 345.885173 273.312 
L 345.885173 74.764535 
L 344.269425 74.764535 
z
" clip-path="url(#peb02b655d8)" style="fill: #1f77b4"/>
   </g>
   <g id="patch_179">
    <path d="M 345.885173 273.312 
L 347.500922 273.312 
L 347.500922 90.531539 
L 345.885173 90.531539 
z
" clip-path="url(#peb02b655d8)" style="fill: #1f77b4"/>
   </g>
   <g id="patch_180">
    <path d="M 347.500922 273.312 
L 349.116671 273.312 
L 349.116671 48.486194 
L 347.500922 48.486194 
z
" clip-path="url(#peb02b655d8)" style="fill: #1f77b4"/>
   </g>
   <g id="patch_181">
    <path d="M 349.116671 273.312 
L 350.732419 273.312 
L 350.732419 56.661677 
L 349.116671 56.661677 
z
" clip-path="url(#peb02b655d8)" style="fill: #1f77b4"/>
   </g>
   <g id="patch_182">
    <path d="M 350.732419 273.312 
L 352.348168 273.312 
L 352.348168 86.443797 
L 350.732419 86.443797 
z
" clip-path="url(#peb02b655d8)" style="fill: #1f77b4"/>
   </g>
   <g id="patch_183">
    <path d="M 352.348168 273.312 
L 353.963916 273.312 
L 353.963916 53.157899 
L 352.348168 53.157899 
z
" clip-path="url(#peb02b655d8)" style="fill: #1f77b4"/>
   </g>
   <g id="patch_184">
    <path d="M 353.963916 273.312 
L 355.579665 273.312 
L 355.579665 54.909788 
L 353.963916 54.909788 
z
" clip-path="url(#peb02b655d8)" style="fill: #1f77b4"/>
   </g>
   <g id="patch_185">
    <path d="M 355.579665 273.312 
L 357.195413 273.312 
L 357.195413 73.012645 
L 355.579665 73.012645 
z
" clip-path="url(#peb02b655d8)" style="fill: #1f77b4"/>
   </g>
   <g id="patch_186">
    <path d="M 357.195413 273.312 
L 358.811162 273.312 
L 358.811162 67.173014 
L 357.195413 67.173014 
z
" clip-path="url(#peb02b655d8)" style="fill: #1f77b4"/>
   </g>
   <g id="patch_187">
    <path d="M 358.811162 273.312 
L 360.42691 273.312 
L 360.42691 68.34094 
L 358.811162 68.34094 
z
" clip-path="url(#peb02b655d8)" style="fill: #1f77b4"/>
   </g>
   <g id="patch_188">
    <path d="M 360.42691 273.312 
L 362.042659 273.312 
L 362.042659 61.333382 
L 360.42691 61.333382 
z
" clip-path="url(#peb02b655d8)" style="fill: #1f77b4"/>
   </g>
   <g id="patch_189">
    <path d="M 362.042659 273.312 
L 363.658408 273.312 
L 363.658408 57.245641 
L 362.042659 57.245641 
z
" clip-path="url(#peb02b655d8)" style="fill: #1f77b4"/>
   </g>
   <g id="patch_190">
    <path d="M 363.658408 273.312 
L 365.274156 273.312 
L 365.274156 63.669235 
L 363.658408 63.669235 
z
" clip-path="url(#peb02b655d8)" style="fill: #1f77b4"/>
   </g>
   <g id="patch_191">
    <path d="M 365.274156 273.312 
L 366.889905 273.312 
L 366.889905 45.566378 
L 365.274156 45.566378 
z
" clip-path="url(#peb02b655d8)" style="fill: #1f77b4"/>
   </g>
   <g id="patch_192">
    <path d="M 366.889905 273.312 
L 368.505653 273.312 
L 368.505653 49.65412 
L 366.889905 49.65412 
z
" clip-path="url(#peb02b655d8)" style="fill: #1f77b4"/>
   </g>
   <g id="patch_193">
    <path d="M 368.505653 273.312 
L 370.121402 273.312 
L 370.121402 42.646562 
L 368.505653 42.646562 
z
" clip-path="url(#peb02b655d8)" style="fill: #1f77b4"/>
   </g>
   <g id="patch_194">
    <path d="M 370.121402 273.312 
L 371.73715 273.312 
L 371.73715 32.719189 
L 370.121402 32.719189 
z
" clip-path="url(#peb02b655d8)" style="fill: #1f77b4"/>
   </g>
   <g id="patch_195">
    <path d="M 371.73715 273.312 
L 373.352899 273.312 
L 373.352899 68.924903 
L 371.73715 68.924903 
z
" clip-path="url(#peb02b655d8)" style="fill: #1f77b4"/>
   </g>
   <g id="patch_196">
    <path d="M 373.352899 273.312 
L 374.968647 273.312 
L 374.968647 32.719189 
L 373.352899 32.719189 
z
" clip-path="url(#peb02b655d8)" style="fill: #1f77b4"/>
   </g>
   <g id="patch_197">
    <path d="M 374.968647 273.312 
L 376.584396 273.312 
L 376.584396 41.478636 
L 374.968647 41.478636 
z
" clip-path="url(#peb02b655d8)" style="fill: #1f77b4"/>
   </g>
   <g id="patch_198">
    <path d="M 376.584396 273.312 
L 378.200144 273.312 
L 378.200144 67.756977 
L 376.584396 67.756977 
z
" clip-path="url(#peb02b655d8)" style="fill: #1f77b4"/>
   </g>
   <g id="patch_199">
    <path d="M 378.200144 273.312 
L 379.815893 273.312 
L 379.815893 30.383336 
L 378.200144 30.383336 
z
" clip-path="url(#peb02b655d8)" style="fill: #1f77b4"/>
   </g>
   <g id="patch_200">
    <path d="M 379.815893 273.312 
L 381.431642 273.312 
L 381.431642 19.872 
L 379.815893 19.872 
z
" clip-path="url(#peb02b655d8)" style="fill: #1f77b4"/>
   </g>
   <g id="patch_201">
    <path d="M 381.431642 273.312 
L 383.04739 273.312 
L 383.04739 42.062599 
L 381.431642 42.062599 
z
" clip-path="url(#peb02b655d8)" style="fill: #1f77b4"/>
   </g>
   <g id="patch_202">
    <path d="M 383.04739 273.312 
L 384.663139 273.312 
L 384.663139 47.318267 
L 383.04739 47.318267 
z
" clip-path="url(#peb02b655d8)" style="fill: #1f77b4"/>
   </g>
   <g id="matplotlib.axis_1">
    <g id="xtick_1">
     <g id="line2d_1">
      <defs>
       <path id="mf9838cecee" d="M 0 0 
L 0 3.5 
" style="stroke: #000000; stroke-width: 0.8"/>
      </defs>
      <g>
       <use xlink:href="#mf9838cecee" x="60.013977" y="273.312" style="stroke: #000000; stroke-width: 0.8"/>
      </g>
     </g>
     <g id="text_1">
      <!-- 0.0 -->
      <g transform="translate(52.062415 287.910437)scale(0.1 -0.1)">
       <defs>
        <path id="DejaVuSans-30" d="M 2034 4250 
Q 1547 4250 1301 3770 
Q 1056 3291 1056 2328 
Q 1056 1369 1301 889 
Q 1547 409 2034 409 
Q 2525 409 2770 889 
Q 3016 1369 3016 2328 
Q 3016 3291 2770 3770 
Q 2525 4250 2034 4250 
z
M 2034 4750 
Q 2819 4750 3233 4129 
Q 3647 3509 3647 2328 
Q 3647 1150 3233 529 
Q 2819 -91 2034 -91 
Q 1250 -91 836 529 
Q 422 1150 422 2328 
Q 422 3509 836 4129 
Q 1250 4750 2034 4750 
z
" transform="scale(0.015625)"/>
        <path id="DejaVuSans-2e" d="M 684 794 
L 1344 794 
L 1344 0 
L 684 0 
L 684 794 
z
" transform="scale(0.015625)"/>
       </defs>
       <use xlink:href="#DejaVuSans-30"/>
       <use xlink:href="#DejaVuSans-2e" x="63.623047"/>
       <use xlink:href="#DejaVuSans-30" x="95.410156"/>
      </g>
     </g>
    </g>
    <g id="xtick_2">
     <g id="line2d_2">
      <g>
       <use xlink:href="#mf9838cecee" x="124.944886" y="273.312" style="stroke: #000000; stroke-width: 0.8"/>
      </g>
     </g>
     <g id="text_2">
      <!-- 0.2 -->
      <g transform="translate(116.993324 287.910437)scale(0.1 -0.1)">
       <defs>
        <path id="DejaVuSans-32" d="M 1228 531 
L 3431 531 
L 3431 0 
L 469 0 
L 469 531 
Q 828 903 1448 1529 
Q 2069 2156 2228 2338 
Q 2531 2678 2651 2914 
Q 2772 3150 2772 3378 
Q 2772 3750 2511 3984 
Q 2250 4219 1831 4219 
Q 1534 4219 1204 4116 
Q 875 4013 500 3803 
L 500 4441 
Q 881 4594 1212 4672 
Q 1544 4750 1819 4750 
Q 2544 4750 2975 4387 
Q 3406 4025 3406 3419 
Q 3406 3131 3298 2873 
Q 3191 2616 2906 2266 
Q 2828 2175 2409 1742 
Q 1991 1309 1228 531 
z
" transform="scale(0.015625)"/>
       </defs>
       <use xlink:href="#DejaVuSans-30"/>
       <use xlink:href="#DejaVuSans-2e" x="63.623047"/>
       <use xlink:href="#DejaVuSans-32" x="95.410156"/>
      </g>
     </g>
    </g>
    <g id="xtick_3">
     <g id="line2d_3">
      <g>
       <use xlink:href="#mf9838cecee" x="189.875795" y="273.312" style="stroke: #000000; stroke-width: 0.8"/>
      </g>
     </g>
     <g id="text_3">
      <!-- 0.4 -->
      <g transform="translate(181.924233 287.910437)scale(0.1 -0.1)">
       <defs>
        <path id="DejaVuSans-34" d="M 2419 4116 
L 825 1625 
L 2419 1625 
L 2419 4116 
z
M 2253 4666 
L 3047 4666 
L 3047 1625 
L 3713 1625 
L 3713 1100 
L 3047 1100 
L 3047 0 
L 2419 0 
L 2419 1100 
L 313 1100 
L 313 1709 
L 2253 4666 
z
" transform="scale(0.015625)"/>
       </defs>
       <use xlink:href="#DejaVuSans-30"/>
       <use xlink:href="#DejaVuSans-2e" x="63.623047"/>
       <use xlink:href="#DejaVuSans-34" x="95.410156"/>
      </g>
     </g>
    </g>
    <g id="xtick_4">
     <g id="line2d_4">
      <g>
       <use xlink:href="#mf9838cecee" x="254.806705" y="273.312" style="stroke: #000000; stroke-width: 0.8"/>
      </g>
     </g>
     <g id="text_4">
      <!-- 0.6 -->
      <g transform="translate(246.855142 287.910437)scale(0.1 -0.1)">
       <defs>
        <path id="DejaVuSans-36" d="M 2113 2584 
Q 1688 2584 1439 2293 
Q 1191 2003 1191 1497 
Q 1191 994 1439 701 
Q 1688 409 2113 409 
Q 2538 409 2786 701 
Q 3034 994 3034 1497 
Q 3034 2003 2786 2293 
Q 2538 2584 2113 2584 
z
M 3366 4563 
L 3366 3988 
Q 3128 4100 2886 4159 
Q 2644 4219 2406 4219 
Q 1781 4219 1451 3797 
Q 1122 3375 1075 2522 
Q 1259 2794 1537 2939 
Q 1816 3084 2150 3084 
Q 2853 3084 3261 2657 
Q 3669 2231 3669 1497 
Q 3669 778 3244 343 
Q 2819 -91 2113 -91 
Q 1303 -91 875 529 
Q 447 1150 447 2328 
Q 447 3434 972 4092 
Q 1497 4750 2381 4750 
Q 2619 4750 2861 4703 
Q 3103 4656 3366 4563 
z
" transform="scale(0.015625)"/>
       </defs>
       <use xlink:href="#DejaVuSans-30"/>
       <use xlink:href="#DejaVuSans-2e" x="63.623047"/>
       <use xlink:href="#DejaVuSans-36" x="95.410156"/>
      </g>
     </g>
    </g>
    <g id="xtick_5">
     <g id="line2d_5">
      <g>
       <use xlink:href="#mf9838cecee" x="319.737614" y="273.312" style="stroke: #000000; stroke-width: 0.8"/>
      </g>
     </g>
     <g id="text_5">
      <!-- 0.8 -->
      <g transform="translate(311.786051 287.910437)scale(0.1 -0.1)">
       <defs>
        <path id="DejaVuSans-38" d="M 2034 2216 
Q 1584 2216 1326 1975 
Q 1069 1734 1069 1313 
Q 1069 891 1326 650 
Q 1584 409 2034 409 
Q 2484 409 2743 651 
Q 3003 894 3003 1313 
Q 3003 1734 2745 1975 
Q 2488 2216 2034 2216 
z
M 1403 2484 
Q 997 2584 770 2862 
Q 544 3141 544 3541 
Q 544 4100 942 4425 
Q 1341 4750 2034 4750 
Q 2731 4750 3128 4425 
Q 3525 4100 3525 3541 
Q 3525 3141 3298 2862 
Q 3072 2584 2669 2484 
Q 3125 2378 3379 2068 
Q 3634 1759 3634 1313 
Q 3634 634 3220 271 
Q 2806 -91 2034 -91 
Q 1263 -91 848 271 
Q 434 634 434 1313 
Q 434 1759 690 2068 
Q 947 2378 1403 2484 
z
M 1172 3481 
Q 1172 3119 1398 2916 
Q 1625 2713 2034 2713 
Q 2441 2713 2670 2916 
Q 2900 3119 2900 3481 
Q 2900 3844 2670 4047 
Q 2441 4250 2034 4250 
Q 1625 4250 1398 4047 
Q 1172 3844 1172 3481 
z
" transform="scale(0.015625)"/>
       </defs>
       <use xlink:href="#DejaVuSans-30"/>
       <use xlink:href="#DejaVuSans-2e" x="63.623047"/>
       <use xlink:href="#DejaVuSans-38" x="95.410156"/>
      </g>
     </g>
    </g>
    <g id="xtick_6">
     <g id="line2d_6">
      <g>
       <use xlink:href="#mf9838cecee" x="384.668523" y="273.312" style="stroke: #000000; stroke-width: 0.8"/>
      </g>
     </g>
     <g id="text_6">
      <!-- 1.0 -->
      <g transform="translate(376.71696 287.910437)scale(0.1 -0.1)">
       <defs>
        <path id="DejaVuSans-31" d="M 794 531 
L 1825 531 
L 1825 4091 
L 703 3866 
L 703 4441 
L 1819 4666 
L 2450 4666 
L 2450 531 
L 3481 531 
L 3481 0 
L 794 0 
L 794 531 
z
" transform="scale(0.015625)"/>
       </defs>
       <use xlink:href="#DejaVuSans-31"/>
       <use xlink:href="#DejaVuSans-2e" x="63.623047"/>
       <use xlink:href="#DejaVuSans-30" x="95.410156"/>
      </g>
     </g>
    </g>
    <g id="text_7">
     <!-- Propagation direction -->
     <g transform="translate(168.859219 301.588562)scale(0.1 -0.1)">
      <defs>
       <path id="DejaVuSans-50" d="M 1259 4147 
L 1259 2394 
L 2053 2394 
Q 2494 2394 2734 2622 
Q 2975 2850 2975 3272 
Q 2975 3691 2734 3919 
Q 2494 4147 2053 4147 
L 1259 4147 
z
M 628 4666 
L 2053 4666 
Q 2838 4666 3239 4311 
Q 3641 3956 3641 3272 
Q 3641 2581 3239 2228 
Q 2838 1875 2053 1875 
L 1259 1875 
L 1259 0 
L 628 0 
L 628 4666 
z
" transform="scale(0.015625)"/>
       <path id="DejaVuSans-72" d="M 2631 2963 
Q 2534 3019 2420 3045 
Q 2306 3072 2169 3072 
Q 1681 3072 1420 2755 
Q 1159 2438 1159 1844 
L 1159 0 
L 581 0 
L 581 3500 
L 1159 3500 
L 1159 2956 
Q 1341 3275 1631 3429 
Q 1922 3584 2338 3584 
Q 2397 3584 2469 3576 
Q 2541 3569 2628 3553 
L 2631 2963 
z
" transform="scale(0.015625)"/>
       <path id="DejaVuSans-6f" d="M 1959 3097 
Q 1497 3097 1228 2736 
Q 959 2375 959 1747 
Q 959 1119 1226 758 
Q 1494 397 1959 397 
Q 2419 397 2687 759 
Q 2956 1122 2956 1747 
Q 2956 2369 2687 2733 
Q 2419 3097 1959 3097 
z
M 1959 3584 
Q 2709 3584 3137 3096 
Q 3566 2609 3566 1747 
Q 3566 888 3137 398 
Q 2709 -91 1959 -91 
Q 1206 -91 779 398 
Q 353 888 353 1747 
Q 353 2609 779 3096 
Q 1206 3584 1959 3584 
z
" transform="scale(0.015625)"/>
       <path id="DejaVuSans-70" d="M 1159 525 
L 1159 -1331 
L 581 -1331 
L 581 3500 
L 1159 3500 
L 1159 2969 
Q 1341 3281 1617 3432 
Q 1894 3584 2278 3584 
Q 2916 3584 3314 3078 
Q 3713 2572 3713 1747 
Q 3713 922 3314 415 
Q 2916 -91 2278 -91 
Q 1894 -91 1617 61 
Q 1341 213 1159 525 
z
M 3116 1747 
Q 3116 2381 2855 2742 
Q 2594 3103 2138 3103 
Q 1681 3103 1420 2742 
Q 1159 2381 1159 1747 
Q 1159 1113 1420 752 
Q 1681 391 2138 391 
Q 2594 391 2855 752 
Q 3116 1113 3116 1747 
z
" transform="scale(0.015625)"/>
       <path id="DejaVuSans-61" d="M 2194 1759 
Q 1497 1759 1228 1600 
Q 959 1441 959 1056 
Q 959 750 1161 570 
Q 1363 391 1709 391 
Q 2188 391 2477 730 
Q 2766 1069 2766 1631 
L 2766 1759 
L 2194 1759 
z
M 3341 1997 
L 3341 0 
L 2766 0 
L 2766 531 
Q 2569 213 2275 61 
Q 1981 -91 1556 -91 
Q 1019 -91 701 211 
Q 384 513 384 1019 
Q 384 1609 779 1909 
Q 1175 2209 1959 2209 
L 2766 2209 
L 2766 2266 
Q 2766 2663 2505 2880 
Q 2244 3097 1772 3097 
Q 1472 3097 1187 3025 
Q 903 2953 641 2809 
L 641 3341 
Q 956 3463 1253 3523 
Q 1550 3584 1831 3584 
Q 2591 3584 2966 3190 
Q 3341 2797 3341 1997 
z
" transform="scale(0.015625)"/>
       <path id="DejaVuSans-67" d="M 2906 1791 
Q 2906 2416 2648 2759 
Q 2391 3103 1925 3103 
Q 1463 3103 1205 2759 
Q 947 2416 947 1791 
Q 947 1169 1205 825 
Q 1463 481 1925 481 
Q 2391 481 2648 825 
Q 2906 1169 2906 1791 
z
M 3481 434 
Q 3481 -459 3084 -895 
Q 2688 -1331 1869 -1331 
Q 1566 -1331 1297 -1286 
Q 1028 -1241 775 -1147 
L 775 -588 
Q 1028 -725 1275 -790 
Q 1522 -856 1778 -856 
Q 2344 -856 2625 -561 
Q 2906 -266 2906 331 
L 2906 616 
Q 2728 306 2450 153 
Q 2172 0 1784 0 
Q 1141 0 747 490 
Q 353 981 353 1791 
Q 353 2603 747 3093 
Q 1141 3584 1784 3584 
Q 2172 3584 2450 3431 
Q 2728 3278 2906 2969 
L 2906 3500 
L 3481 3500 
L 3481 434 
z
" transform="scale(0.015625)"/>
       <path id="DejaVuSans-74" d="M 1172 4494 
L 1172 3500 
L 2356 3500 
L 2356 3053 
L 1172 3053 
L 1172 1153 
Q 1172 725 1289 603 
Q 1406 481 1766 481 
L 2356 481 
L 2356 0 
L 1766 0 
Q 1100 0 847 248 
Q 594 497 594 1153 
L 594 3053 
L 172 3053 
L 172 3500 
L 594 3500 
L 594 4494 
L 1172 4494 
z
" transform="scale(0.015625)"/>
       <path id="DejaVuSans-69" d="M 603 3500 
L 1178 3500 
L 1178 0 
L 603 0 
L 603 3500 
z
M 603 4863 
L 1178 4863 
L 1178 4134 
L 603 4134 
L 603 4863 
z
" transform="scale(0.015625)"/>
       <path id="DejaVuSans-6e" d="M 3513 2113 
L 3513 0 
L 2938 0 
L 2938 2094 
Q 2938 2591 2744 2837 
Q 2550 3084 2163 3084 
Q 1697 3084 1428 2787 
Q 1159 2491 1159 1978 
L 1159 0 
L 581 0 
L 581 3500 
L 1159 3500 
L 1159 2956 
Q 1366 3272 1645 3428 
Q 1925 3584 2291 3584 
Q 2894 3584 3203 3211 
Q 3513 2838 3513 2113 
z
" transform="scale(0.015625)"/>
       <path id="DejaVuSans-20" transform="scale(0.015625)"/>
       <path id="DejaVuSans-64" d="M 2906 2969 
L 2906 4863 
L 3481 4863 
L 3481 0 
L 2906 0 
L 2906 525 
Q 2725 213 2448 61 
Q 2172 -91 1784 -91 
Q 1150 -91 751 415 
Q 353 922 353 1747 
Q 353 2572 751 3078 
Q 1150 3584 1784 3584 
Q 2172 3584 2448 3432 
Q 2725 3281 2906 2969 
z
M 947 1747 
Q 947 1113 1208 752 
Q 1469 391 1925 391 
Q 2381 391 2643 752 
Q 2906 1113 2906 1747 
Q 2906 2381 2643 2742 
Q 2381 3103 1925 3103 
Q 1469 3103 1208 2742 
Q 947 2381 947 1747 
z
" transform="scale(0.015625)"/>
       <path id="DejaVuSans-65" d="M 3597 1894 
L 3597 1613 
L 953 1613 
Q 991 1019 1311 708 
Q 1631 397 2203 397 
Q 2534 397 2845 478 
Q 3156 559 3463 722 
L 3463 178 
Q 3153 47 2828 -22 
Q 2503 -91 2169 -91 
Q 1331 -91 842 396 
Q 353 884 353 1716 
Q 353 2575 817 3079 
Q 1281 3584 2069 3584 
Q 2775 3584 3186 3129 
Q 3597 2675 3597 1894 
z
M 3022 2063 
Q 3016 2534 2758 2815 
Q 2500 3097 2075 3097 
Q 1594 3097 1305 2825 
Q 1016 2553 972 2059 
L 3022 2063 
z
" transform="scale(0.015625)"/>
       <path id="DejaVuSans-63" d="M 3122 3366 
L 3122 2828 
Q 2878 2963 2633 3030 
Q 2388 3097 2138 3097 
Q 1578 3097 1268 2742 
Q 959 2388 959 1747 
Q 959 1106 1268 751 
Q 1578 397 2138 397 
Q 2388 397 2633 464 
Q 2878 531 3122 666 
L 3122 134 
Q 2881 22 2623 -34 
Q 2366 -91 2075 -91 
Q 1284 -91 818 406 
Q 353 903 353 1747 
Q 353 2603 823 3093 
Q 1294 3584 2113 3584 
Q 2378 3584 2631 3529 
Q 2884 3475 3122 3366 
z
" transform="scale(0.015625)"/>
      </defs>
      <use xlink:href="#DejaVuSans-50"/>
      <use xlink:href="#DejaVuSans-72" x="58.552734"/>
      <use xlink:href="#DejaVuSans-6f" x="97.416016"/>
      <use xlink:href="#DejaVuSans-70" x="158.597656"/>
      <use xlink:href="#DejaVuSans-61" x="222.074219"/>
      <use xlink:href="#DejaVuSans-67" x="283.353516"/>
      <use xlink:href="#DejaVuSans-61" x="346.830078"/>
      <use xlink:href="#DejaVuSans-74" x="408.109375"/>
      <use xlink:href="#DejaVuSans-69" x="447.318359"/>
      <use xlink:href="#DejaVuSans-6f" x="475.101562"/>
      <use xlink:href="#DejaVuSans-6e" x="536.283203"/>
      <use xlink:href="#DejaVuSans-20" x="599.662109"/>
      <use xlink:href="#DejaVuSans-64" x="631.449219"/>
      <use xlink:href="#DejaVuSans-69" x="694.925781"/>
      <use xlink:href="#DejaVuSans-72" x="722.708984"/>
      <use xlink:href="#DejaVuSans-65" x="761.572266"/>
      <use xlink:href="#DejaVuSans-63" x="823.095703"/>
      <use xlink:href="#DejaVuSans-74" x="878.076172"/>
      <use xlink:href="#DejaVuSans-69" x="917.285156"/>
      <use xlink:href="#DejaVuSans-6f" x="945.068359"/>
      <use xlink:href="#DejaVuSans-6e" x="1006.25"/>
     </g>
    </g>
   </g>
   <g id="matplotlib.axis_2">
    <g id="ytick_1">
     <g id="line2d_7">
      <defs>
       <path id="mfb5e7a93a1" d="M 0 0 
L -3.5 0 
" style="stroke: #000000; stroke-width: 0.8"/>
      </defs>
      <g>
       <use xlink:href="#mfb5e7a93a1" x="43.78125" y="273.312" style="stroke: #000000; stroke-width: 0.8"/>
      </g>
     </g>
     <g id="text_8">
      <!-- 0.0 -->
      <g transform="translate(20.878125 277.111219)scale(0.1 -0.1)">
       <use xlink:href="#DejaVuSans-30"/>
       <use xlink:href="#DejaVuSans-2e" x="63.623047"/>
       <use xlink:href="#DejaVuSans-30" x="95.410156"/>
      </g>
     </g>
    </g>
    <g id="ytick_2">
     <g id="line2d_8">
      <g>
       <use xlink:href="#mfb5e7a93a1" x="43.78125" y="215.186365" style="stroke: #000000; stroke-width: 0.8"/>
      </g>
     </g>
     <g id="text_9">
      <!-- 0.5 -->
      <g transform="translate(20.878125 218.985583)scale(0.1 -0.1)">
       <defs>
        <path id="DejaVuSans-35" d="M 691 4666 
L 3169 4666 
L 3169 4134 
L 1269 4134 
L 1269 2991 
Q 1406 3038 1543 3061 
Q 1681 3084 1819 3084 
Q 2600 3084 3056 2656 
Q 3513 2228 3513 1497 
Q 3513 744 3044 326 
Q 2575 -91 1722 -91 
Q 1428 -91 1123 -41 
Q 819 9 494 109 
L 494 744 
Q 775 591 1075 516 
Q 1375 441 1709 441 
Q 2250 441 2565 725 
Q 2881 1009 2881 1497 
Q 2881 1984 2565 2268 
Q 2250 2553 1709 2553 
Q 1456 2553 1204 2497 
Q 953 2441 691 2322 
L 691 4666 
z
" transform="scale(0.015625)"/>
       </defs>
       <use xlink:href="#DejaVuSans-30"/>
       <use xlink:href="#DejaVuSans-2e" x="63.623047"/>
       <use xlink:href="#DejaVuSans-35" x="95.410156"/>
      </g>
     </g>
    </g>
    <g id="ytick_3">
     <g id="line2d_9">
      <g>
       <use xlink:href="#mfb5e7a93a1" x="43.78125" y="157.060729" style="stroke: #000000; stroke-width: 0.8"/>
      </g>
     </g>
     <g id="text_10">
      <!-- 1.0 -->
      <g transform="translate(20.878125 160.859948)scale(0.1 -0.1)">
       <use xlink:href="#DejaVuSans-31"/>
       <use xlink:href="#DejaVuSans-2e" x="63.623047"/>
       <use xlink:href="#DejaVuSans-30" x="95.410156"/>
      </g>
     </g>
    </g>
    <g id="ytick_4">
     <g id="line2d_10">
      <g>
       <use xlink:href="#mfb5e7a93a1" x="43.78125" y="98.935094" style="stroke: #000000; stroke-width: 0.8"/>
      </g>
     </g>
     <g id="text_11">
      <!-- 1.5 -->
      <g transform="translate(20.878125 102.734313)scale(0.1 -0.1)">
       <use xlink:href="#DejaVuSans-31"/>
       <use xlink:href="#DejaVuSans-2e" x="63.623047"/>
       <use xlink:href="#DejaVuSans-35" x="95.410156"/>
      </g>
     </g>
    </g>
    <g id="ytick_5">
     <g id="line2d_11">
      <g>
       <use xlink:href="#mfb5e7a93a1" x="43.78125" y="40.809459" style="stroke: #000000; stroke-width: 0.8"/>
      </g>
     </g>
     <g id="text_12">
      <!-- 2.0 -->
      <g transform="translate(20.878125 44.608678)scale(0.1 -0.1)">
       <use xlink:href="#DejaVuSans-32"/>
       <use xlink:href="#DejaVuSans-2e" x="63.623047"/>
       <use xlink:href="#DejaVuSans-30" x="95.410156"/>
      </g>
     </g>
    </g>
    <g id="text_13">
     <!-- Probability density -->
     <g transform="translate(14.798438 186.606781)rotate(-90)scale(0.1 -0.1)">
      <defs>
       <path id="DejaVuSans-62" d="M 3116 1747 
Q 3116 2381 2855 2742 
Q 2594 3103 2138 3103 
Q 1681 3103 1420 2742 
Q 1159 2381 1159 1747 
Q 1159 1113 1420 752 
Q 1681 391 2138 391 
Q 2594 391 2855 752 
Q 3116 1113 3116 1747 
z
M 1159 2969 
Q 1341 3281 1617 3432 
Q 1894 3584 2278 3584 
Q 2916 3584 3314 3078 
Q 3713 2572 3713 1747 
Q 3713 922 3314 415 
Q 2916 -91 2278 -91 
Q 1894 -91 1617 61 
Q 1341 213 1159 525 
L 1159 0 
L 581 0 
L 581 4863 
L 1159 4863 
L 1159 2969 
z
" transform="scale(0.015625)"/>
       <path id="DejaVuSans-6c" d="M 603 4863 
L 1178 4863 
L 1178 0 
L 603 0 
L 603 4863 
z
" transform="scale(0.015625)"/>
       <path id="DejaVuSans-79" d="M 2059 -325 
Q 1816 -950 1584 -1140 
Q 1353 -1331 966 -1331 
L 506 -1331 
L 506 -850 
L 844 -850 
Q 1081 -850 1212 -737 
Q 1344 -625 1503 -206 
L 1606 56 
L 191 3500 
L 800 3500 
L 1894 763 
L 2988 3500 
L 3597 3500 
L 2059 -325 
z
" transform="scale(0.015625)"/>
       <path id="DejaVuSans-73" d="M 2834 3397 
L 2834 2853 
Q 2591 2978 2328 3040 
Q 2066 3103 1784 3103 
Q 1356 3103 1142 2972 
Q 928 2841 928 2578 
Q 928 2378 1081 2264 
Q 1234 2150 1697 2047 
L 1894 2003 
Q 2506 1872 2764 1633 
Q 3022 1394 3022 966 
Q 3022 478 2636 193 
Q 2250 -91 1575 -91 
Q 1294 -91 989 -36 
Q 684 19 347 128 
L 347 722 
Q 666 556 975 473 
Q 1284 391 1588 391 
Q 1994 391 2212 530 
Q 2431 669 2431 922 
Q 2431 1156 2273 1281 
Q 2116 1406 1581 1522 
L 1381 1569 
Q 847 1681 609 1914 
Q 372 2147 372 2553 
Q 372 3047 722 3315 
Q 1072 3584 1716 3584 
Q 2034 3584 2315 3537 
Q 2597 3491 2834 3397 
z
" transform="scale(0.015625)"/>
      </defs>
      <use xlink:href="#DejaVuSans-50"/>
      <use xlink:href="#DejaVuSans-72" x="58.552734"/>
      <use xlink:href="#DejaVuSans-6f" x="97.416016"/>
      <use xlink:href="#DejaVuSans-62" x="158.597656"/>
      <use xlink:href="#DejaVuSans-61" x="222.074219"/>
      <use xlink:href="#DejaVuSans-62" x="283.353516"/>
      <use xlink:href="#DejaVuSans-69" x="346.830078"/>
      <use xlink:href="#DejaVuSans-6c" x="374.613281"/>
      <use xlink:href="#DejaVuSans-69" x="402.396484"/>
      <use xlink:href="#DejaVuSans-74" x="430.179688"/>
      <use xlink:href="#DejaVuSans-79" x="469.388672"/>
      <use xlink:href="#DejaVuSans-20" x="528.568359"/>
      <use xlink:href="#DejaVuSans-64" x="560.355469"/>
      <use xlink:href="#DejaVuSans-65" x="623.832031"/>
      <use xlink:href="#DejaVuSans-6e" x="685.355469"/>
      <use xlink:href="#DejaVuSans-73" x="748.734375"/>
      <use xlink:href="#DejaVuSans-69" x="800.833984"/>
      <use xlink:href="#DejaVuSans-74" x="828.617188"/>
      <use xlink:href="#DejaVuSans-79" x="867.826172"/>
     </g>
    </g>
   </g>
   <g id="line2d_12">
    <path d="M 60.013977 273.312 
L 384.668523 40.809459 
L 384.668523 40.809459 
" clip-path="url(#peb02b655d8)" style="fill: none; stroke: #ff7f0e; stroke-width: 1.5; stroke-linecap: square"/>
   </g>
   <g id="patch_203">
    <path d="M 43.78125 273.312 
L 43.78125 7.2 
" style="fill: none; stroke: #000000; stroke-width: 0.8; stroke-linejoin: miter; stroke-linecap: square"/>
   </g>
   <g id="patch_204">
    <path d="M 400.90125 273.312 
L 400.90125 7.2 
" style="fill: none; stroke: #000000; stroke-width: 0.8; stroke-linejoin: miter; stroke-linecap: square"/>
   </g>
   <g id="patch_205">
    <path d="M 43.78125 273.312 
L 400.90125 273.312 
" style="fill: none; stroke: #000000; stroke-width: 0.8; stroke-linejoin: miter; stroke-linecap: square"/>
   </g>
   <g id="patch_206">
    <path d="M 43.78125 7.2 
L 400.90125 7.2 
" style="fill: none; stroke: #000000; stroke-width: 0.8; stroke-linejoin: miter; stroke-linecap: square"/>
   </g>
  </g>
 </g>
 <defs>
  <clipPath id="peb02b655d8">
   <rect x="43.78125" y="7.2" width="357.12" height="266.112"/>
  </clipPath>
 </defs>
</svg>
