<?xml version="1.0" encoding="utf-8" standalone="no"?>
<!DOCTYPE svg PUBLIC "-//W3C//DTD SVG 1.1//EN"
  "http://www.w3.org/Graphics/SVG/1.1/DTD/svg11.dtd">
<svg xmlns:xlink="http://www.w3.org/1999/xlink" width="408.10125pt" height="310.86825pt" viewBox="0 0 408.10125 310.86825" xmlns="http://www.w3.org/2000/svg" version="1.1">
 <metadata>
  <rdf:RDF xmlns:dc="http://purl.org/dc/elements/1.1/" xmlns:cc="http://creativecommons.org/ns#" xmlns:rdf="http://www.w3.org/1999/02/22-rdf-syntax-ns#">
   <cc:Work>
    <dc:type rdf:resource="http://purl.org/dc/dcmitype/StillImage"/>
    <dc:date>2022-05-02T20:14:56.630473</dc:date>
    <dc:format>image/svg+xml</dc:format>
    <dc:creator>
     <cc:Agent>
      <dc:title>Matplotlib v3.5.1, https://matplotlib.org/</dc:title>
     </cc:Agent>
    </dc:creator>
   </cc:Work>
  </rdf:RDF>
 </metadata>
 <defs>
  <style type="text/css">*{stroke-linejoin: round; stroke-linecap: butt}</style>
 </defs>
 <g id="figure_1">
  <g id="patch_1">
   <path d="M 0 310.86825 
L 408.10125 310.86825 
L 408.10125 0 
L 0 0 
z
" style="fill: #ffffff"/>
  </g>
  <g id="axes_1">
   <g id="patch_2">
    <path d="M 43.78125 273.312 
L 400.90125 273.312 
L 400.90125 7.2 
L 43.78125 7.2 
z
" style="fill: #ffffff"/>
   </g>
   <g id="patch_3">
    <path d="M 62.725322 273.312 
L 64.335019 273.312 
L 64.335019 269.734024 
L 62.725322 269.734024 
z
" clip-path="url(#pe3e6ab67c1)" style="fill: #1f77b4"/>
   </g>
   <g id="patch_4">
    <path d="M 64.335019 273.312 
L 65.944717 273.312 
L 65.944717 267.945035 
L 64.335019 267.945035 
z
" clip-path="url(#pe3e6ab67c1)" style="fill: #1f77b4"/>
   </g>
   <g id="patch_5">
    <path d="M 65.944717 273.312 
L 67.554415 273.312 
L 67.554415 268.541365 
L 65.944717 268.541365 
z
" clip-path="url(#pe3e6ab67c1)" style="fill: #1f77b4"/>
   </g>
   <g id="patch_6">
    <path d="M 67.554415 273.312 
L 69.164112 273.312 
L 69.164112 268.541365 
L 67.554415 268.541365 
z
" clip-path="url(#pe3e6ab67c1)" style="fill: #1f77b4"/>
   </g>
   <g id="patch_7">
    <path d="M 69.164112 273.312 
L 70.77381 273.312 
L 70.77381 266.156047 
L 69.164112 266.156047 
z
" clip-path="url(#pe3e6ab67c1)" style="fill: #1f77b4"/>
   </g>
   <g id="patch_8">
    <path d="M 70.77381 273.312 
L 72.383507 273.312 
L 72.383507 264.963388 
L 70.77381 264.963388 
z
" clip-path="url(#pe3e6ab67c1)" style="fill: #1f77b4"/>
   </g>
   <g id="patch_9">
    <path d="M 72.383507 273.312 
L 73.993205 273.312 
L 73.993205 264.367059 
L 72.383507 264.367059 
z
" clip-path="url(#pe3e6ab67c1)" style="fill: #1f77b4"/>
   </g>
   <g id="patch_10">
    <path d="M 73.993205 273.312 
L 75.602903 273.312 
L 75.602903 261.385412 
L 73.993205 261.385412 
z
" clip-path="url(#pe3e6ab67c1)" style="fill: #1f77b4"/>
   </g>
   <g id="patch_11">
    <path d="M 75.602903 273.312 
L 77.2126 273.312 
L 77.2126 263.770729 
L 75.602903 263.770729 
z
" clip-path="url(#pe3e6ab67c1)" style="fill: #1f77b4"/>
   </g>
   <g id="patch_12">
    <path d="M 77.2126 273.312 
L 78.822298 273.312 
L 78.822298 261.981741 
L 77.2126 261.981741 
z
" clip-path="url(#pe3e6ab67c1)" style="fill: #1f77b4"/>
   </g>
   <g id="patch_13">
    <path d="M 78.822298 273.312 
L 80.431996 273.312 
L 80.431996 256.018447 
L 78.822298 256.018447 
z
" clip-path="url(#pe3e6ab67c1)" style="fill: #1f77b4"/>
   </g>
   <g id="patch_14">
    <path d="M 80.431996 273.312 
L 82.041693 273.312 
L 82.041693 254.229459 
L 80.431996 254.229459 
z
" clip-path="url(#pe3e6ab67c1)" style="fill: #1f77b4"/>
   </g>
   <g id="patch_15">
    <path d="M 82.041693 273.312 
L 83.651391 273.312 
L 83.651391 256.018447 
L 82.041693 256.018447 
z
" clip-path="url(#pe3e6ab67c1)" style="fill: #1f77b4"/>
   </g>
   <g id="patch_16">
    <path d="M 83.651391 273.312 
L 85.261088 273.312 
L 85.261088 245.284518 
L 83.651391 245.284518 
z
" clip-path="url(#pe3e6ab67c1)" style="fill: #1f77b4"/>
   </g>
   <g id="patch_17">
    <path d="M 85.261088 273.312 
L 86.870786 273.312 
L 86.870786 249.458824 
L 85.261088 249.458824 
z
" clip-path="url(#pe3e6ab67c1)" style="fill: #1f77b4"/>
   </g>
   <g id="patch_18">
    <path d="M 86.870786 273.312 
L 88.480484 273.312 
L 88.480484 255.422118 
L 86.870786 255.422118 
z
" clip-path="url(#pe3e6ab67c1)" style="fill: #1f77b4"/>
   </g>
   <g id="patch_19">
    <path d="M 88.480484 273.312 
L 90.090181 273.312 
L 90.090181 245.284518 
L 88.480484 245.284518 
z
" clip-path="url(#pe3e6ab67c1)" style="fill: #1f77b4"/>
   </g>
   <g id="patch_20">
    <path d="M 90.090181 273.312 
L 91.699879 273.312 
L 91.699879 251.247812 
L 90.090181 251.247812 
z
" clip-path="url(#pe3e6ab67c1)" style="fill: #1f77b4"/>
   </g>
   <g id="patch_21">
    <path d="M 91.699879 273.312 
L 93.309577 273.312 
L 93.309577 248.266165 
L 91.699879 248.266165 
z
" clip-path="url(#pe3e6ab67c1)" style="fill: #1f77b4"/>
   </g>
   <g id="patch_22">
    <path d="M 93.309577 273.312 
L 94.919274 273.312 
L 94.919274 251.844141 
L 93.309577 251.844141 
z
" clip-path="url(#pe3e6ab67c1)" style="fill: #1f77b4"/>
   </g>
   <g id="patch_23">
    <path d="M 94.919274 273.312 
L 96.528972 273.312 
L 96.528972 244.688188 
L 94.919274 244.688188 
z
" clip-path="url(#pe3e6ab67c1)" style="fill: #1f77b4"/>
   </g>
   <g id="patch_24">
    <path d="M 96.528972 273.312 
L 98.138669 273.312 
L 98.138669 245.284518 
L 96.528972 245.284518 
z
" clip-path="url(#pe3e6ab67c1)" style="fill: #1f77b4"/>
   </g>
   <g id="patch_25">
    <path d="M 98.138669 273.312 
L 99.748367 273.312 
L 99.748367 243.495529 
L 98.138669 243.495529 
z
" clip-path="url(#pe3e6ab67c1)" style="fill: #1f77b4"/>
   </g>
   <g id="patch_26">
    <path d="M 99.748367 273.312 
L 101.358065 273.312 
L 101.358065 244.091859 
L 99.748367 244.091859 
z
" clip-path="url(#pe3e6ab67c1)" style="fill: #1f77b4"/>
   </g>
   <g id="patch_27">
    <path d="M 101.358065 273.312 
L 102.967762 273.312 
L 102.967762 241.706541 
L 101.358065 241.706541 
z
" clip-path="url(#pe3e6ab67c1)" style="fill: #1f77b4"/>
   </g>
   <g id="patch_28">
    <path d="M 102.967762 273.312 
L 104.57746 273.312 
L 104.57746 235.146918 
L 102.967762 235.146918 
z
" clip-path="url(#pe3e6ab67c1)" style="fill: #1f77b4"/>
   </g>
   <g id="patch_29">
    <path d="M 104.57746 273.312 
L 106.187158 273.312 
L 106.187158 240.513882 
L 104.57746 240.513882 
z
" clip-path="url(#pe3e6ab67c1)" style="fill: #1f77b4"/>
   </g>
   <g id="patch_30">
    <path d="M 106.187158 273.312 
L 107.796855 273.312 
L 107.796855 242.302871 
L 106.187158 242.302871 
z
" clip-path="url(#pe3e6ab67c1)" style="fill: #1f77b4"/>
   </g>
   <g id="patch_31">
    <path d="M 107.796855 273.312 
L 109.406553 273.312 
L 109.406553 241.706541 
L 107.796855 241.706541 
z
" clip-path="url(#pe3e6ab67c1)" style="fill: #1f77b4"/>
   </g>
   <g id="patch_32">
    <path d="M 109.406553 273.312 
L 111.01625 273.312 
L 111.01625 238.724894 
L 109.406553 238.724894 
z
" clip-path="url(#pe3e6ab67c1)" style="fill: #1f77b4"/>
   </g>
   <g id="patch_33">
    <path d="M 111.01625 273.312 
L 112.625948 273.312 
L 112.625948 241.706541 
L 111.01625 241.706541 
z
" clip-path="url(#pe3e6ab67c1)" style="fill: #1f77b4"/>
   </g>
   <g id="patch_34">
    <path d="M 112.625948 273.312 
L 114.235646 273.312 
L 114.235646 234.550588 
L 112.625948 234.550588 
z
" clip-path="url(#pe3e6ab67c1)" style="fill: #1f77b4"/>
   </g>
   <g id="patch_35">
    <path d="M 114.235646 273.312 
L 115.845343 273.312 
L 115.845343 227.394635 
L 114.235646 227.394635 
z
" clip-path="url(#pe3e6ab67c1)" style="fill: #1f77b4"/>
   </g>
   <g id="patch_36">
    <path d="M 115.845343 273.312 
L 117.455041 273.312 
L 117.455041 241.706541 
L 115.845343 241.706541 
z
" clip-path="url(#pe3e6ab67c1)" style="fill: #1f77b4"/>
   </g>
   <g id="patch_37">
    <path d="M 117.455041 273.312 
L 119.064739 273.312 
L 119.064739 230.972612 
L 117.455041 230.972612 
z
" clip-path="url(#pe3e6ab67c1)" style="fill: #1f77b4"/>
   </g>
   <g id="patch_38">
    <path d="M 119.064739 273.312 
L 120.674436 273.312 
L 120.674436 226.798306 
L 119.064739 226.798306 
z
" clip-path="url(#pe3e6ab67c1)" style="fill: #1f77b4"/>
   </g>
   <g id="patch_39">
    <path d="M 120.674436 273.312 
L 122.284134 273.312 
L 122.284134 229.779953 
L 120.674436 229.779953 
z
" clip-path="url(#pe3e6ab67c1)" style="fill: #1f77b4"/>
   </g>
   <g id="patch_40">
    <path d="M 122.284134 273.312 
L 123.893832 273.312 
L 123.893832 228.587294 
L 122.284134 228.587294 
z
" clip-path="url(#pe3e6ab67c1)" style="fill: #1f77b4"/>
   </g>
   <g id="patch_41">
    <path d="M 123.893832 273.312 
L 125.503529 273.312 
L 125.503529 221.431341 
L 123.893832 221.431341 
z
" clip-path="url(#pe3e6ab67c1)" style="fill: #1f77b4"/>
   </g>
   <g id="patch_42">
    <path d="M 125.503529 273.312 
L 127.113227 273.312 
L 127.113227 227.394635 
L 125.503529 227.394635 
z
" clip-path="url(#pe3e6ab67c1)" style="fill: #1f77b4"/>
   </g>
   <g id="patch_43">
    <path d="M 127.113227 273.312 
L 128.722924 273.312 
L 128.722924 216.660706 
L 127.113227 216.660706 
z
" clip-path="url(#pe3e6ab67c1)" style="fill: #1f77b4"/>
   </g>
   <g id="patch_44">
    <path d="M 128.722924 273.312 
L 130.332622 273.312 
L 130.332622 217.853365 
L 128.722924 217.853365 
z
" clip-path="url(#pe3e6ab67c1)" style="fill: #1f77b4"/>
   </g>
   <g id="patch_45">
    <path d="M 130.332622 273.312 
L 131.94232 273.312 
L 131.94232 222.027671 
L 130.332622 222.027671 
z
" clip-path="url(#pe3e6ab67c1)" style="fill: #1f77b4"/>
   </g>
   <g id="patch_46">
    <path d="M 131.94232 273.312 
L 133.552017 273.312 
L 133.552017 222.027671 
L 131.94232 222.027671 
z
" clip-path="url(#pe3e6ab67c1)" style="fill: #1f77b4"/>
   </g>
   <g id="patch_47">
    <path d="M 133.552017 273.312 
L 135.161715 273.312 
L 135.161715 214.871718 
L 133.552017 214.871718 
z
" clip-path="url(#pe3e6ab67c1)" style="fill: #1f77b4"/>
   </g>
   <g id="patch_48">
    <path d="M 135.161715 273.312 
L 136.771413 273.312 
L 136.771413 220.835012 
L 135.161715 220.835012 
z
" clip-path="url(#pe3e6ab67c1)" style="fill: #1f77b4"/>
   </g>
   <g id="patch_49">
    <path d="M 136.771413 273.312 
L 138.38111 273.312 
L 138.38111 219.642353 
L 136.771413 219.642353 
z
" clip-path="url(#pe3e6ab67c1)" style="fill: #1f77b4"/>
   </g>
   <g id="patch_50">
    <path d="M 138.38111 273.312 
L 139.990808 273.312 
L 139.990808 216.064376 
L 138.38111 216.064376 
z
" clip-path="url(#pe3e6ab67c1)" style="fill: #1f77b4"/>
   </g>
   <g id="patch_51">
    <path d="M 139.990808 273.312 
L 141.600505 273.312 
L 141.600505 214.275388 
L 139.990808 214.275388 
z
" clip-path="url(#pe3e6ab67c1)" style="fill: #1f77b4"/>
   </g>
   <g id="patch_52">
    <path d="M 141.600505 273.312 
L 143.210203 273.312 
L 143.210203 215.468047 
L 141.600505 215.468047 
z
" clip-path="url(#pe3e6ab67c1)" style="fill: #1f77b4"/>
   </g>
   <g id="patch_53">
    <path d="M 143.210203 273.312 
L 144.819901 273.312 
L 144.819901 211.890071 
L 143.210203 211.890071 
z
" clip-path="url(#pe3e6ab67c1)" style="fill: #1f77b4"/>
   </g>
   <g id="patch_54">
    <path d="M 144.819901 273.312 
L 146.429598 273.312 
L 146.429598 209.504753 
L 144.819901 209.504753 
z
" clip-path="url(#pe3e6ab67c1)" style="fill: #1f77b4"/>
   </g>
   <g id="patch_55">
    <path d="M 146.429598 273.312 
L 148.039296 273.312 
L 148.039296 212.4864 
L 146.429598 212.4864 
z
" clip-path="url(#pe3e6ab67c1)" style="fill: #1f77b4"/>
   </g>
   <g id="patch_56">
    <path d="M 148.039296 273.312 
L 149.648994 273.312 
L 149.648994 203.541459 
L 148.039296 203.541459 
z
" clip-path="url(#pe3e6ab67c1)" style="fill: #1f77b4"/>
   </g>
   <g id="patch_57">
    <path d="M 149.648994 273.312 
L 151.258691 273.312 
L 151.258691 195.789176 
L 149.648994 195.789176 
z
" clip-path="url(#pe3e6ab67c1)" style="fill: #1f77b4"/>
   </g>
   <g id="patch_58">
    <path d="M 151.258691 273.312 
L 152.868389 273.312 
L 152.868389 204.734118 
L 151.258691 204.734118 
z
" clip-path="url(#pe3e6ab67c1)" style="fill: #1f77b4"/>
   </g>
   <g id="patch_59">
    <path d="M 152.868389 273.312 
L 154.478086 273.312 
L 154.478086 200.559812 
L 152.868389 200.559812 
z
" clip-path="url(#pe3e6ab67c1)" style="fill: #1f77b4"/>
   </g>
   <g id="patch_60">
    <path d="M 154.478086 273.312 
L 156.087784 273.312 
L 156.087784 217.257035 
L 154.478086 217.257035 
z
" clip-path="url(#pe3e6ab67c1)" style="fill: #1f77b4"/>
   </g>
   <g id="patch_61">
    <path d="M 156.087784 273.312 
L 157.697482 273.312 
L 157.697482 198.770824 
L 156.087784 198.770824 
z
" clip-path="url(#pe3e6ab67c1)" style="fill: #1f77b4"/>
   </g>
   <g id="patch_62">
    <path d="M 157.697482 273.312 
L 159.307179 273.312 
L 159.307179 204.734118 
L 157.697482 204.734118 
z
" clip-path="url(#pe3e6ab67c1)" style="fill: #1f77b4"/>
   </g>
   <g id="patch_63">
    <path d="M 159.307179 273.312 
L 160.916877 273.312 
L 160.916877 198.770824 
L 159.307179 198.770824 
z
" clip-path="url(#pe3e6ab67c1)" style="fill: #1f77b4"/>
   </g>
   <g id="patch_64">
    <path d="M 160.916877 273.312 
L 162.526575 273.312 
L 162.526575 207.119435 
L 160.916877 207.119435 
z
" clip-path="url(#pe3e6ab67c1)" style="fill: #1f77b4"/>
   </g>
   <g id="patch_65">
    <path d="M 162.526575 273.312 
L 164.136272 273.312 
L 164.136272 193.403859 
L 162.526575 193.403859 
z
" clip-path="url(#pe3e6ab67c1)" style="fill: #1f77b4"/>
   </g>
   <g id="patch_66">
    <path d="M 164.136272 273.312 
L 165.74597 273.312 
L 165.74597 203.541459 
L 164.136272 203.541459 
z
" clip-path="url(#pe3e6ab67c1)" style="fill: #1f77b4"/>
   </g>
   <g id="patch_67">
    <path d="M 165.74597 273.312 
L 167.355667 273.312 
L 167.355667 191.018541 
L 165.74597 191.018541 
z
" clip-path="url(#pe3e6ab67c1)" style="fill: #1f77b4"/>
   </g>
   <g id="patch_68">
    <path d="M 167.355667 273.312 
L 168.965365 273.312 
L 168.965365 187.440565 
L 167.355667 187.440565 
z
" clip-path="url(#pe3e6ab67c1)" style="fill: #1f77b4"/>
   </g>
   <g id="patch_69">
    <path d="M 168.965365 273.312 
L 170.575063 273.312 
L 170.575063 199.963482 
L 168.965365 199.963482 
z
" clip-path="url(#pe3e6ab67c1)" style="fill: #1f77b4"/>
   </g>
   <g id="patch_70">
    <path d="M 170.575063 273.312 
L 172.18476 273.312 
L 172.18476 177.899294 
L 170.575063 177.899294 
z
" clip-path="url(#pe3e6ab67c1)" style="fill: #1f77b4"/>
   </g>
   <g id="patch_71">
    <path d="M 172.18476 273.312 
L 173.794458 273.312 
L 173.794458 190.422212 
L 172.18476 190.422212 
z
" clip-path="url(#pe3e6ab67c1)" style="fill: #1f77b4"/>
   </g>
   <g id="patch_72">
    <path d="M 173.794458 273.312 
L 175.404156 273.312 
L 175.404156 190.422212 
L 173.794458 190.422212 
z
" clip-path="url(#pe3e6ab67c1)" style="fill: #1f77b4"/>
   </g>
   <g id="patch_73">
    <path d="M 175.404156 273.312 
L 177.013853 273.312 
L 177.013853 202.945129 
L 175.404156 202.945129 
z
" clip-path="url(#pe3e6ab67c1)" style="fill: #1f77b4"/>
   </g>
   <g id="patch_74">
    <path d="M 177.013853 273.312 
L 178.623551 273.312 
L 178.623551 183.266259 
L 177.013853 183.266259 
z
" clip-path="url(#pe3e6ab67c1)" style="fill: #1f77b4"/>
   </g>
   <g id="patch_75">
    <path d="M 178.623551 273.312 
L 180.233248 273.312 
L 180.233248 171.339671 
L 178.623551 171.339671 
z
" clip-path="url(#pe3e6ab67c1)" style="fill: #1f77b4"/>
   </g>
   <g id="patch_76">
    <path d="M 180.233248 273.312 
L 181.842946 273.312 
L 181.842946 183.266259 
L 180.233248 183.266259 
z
" clip-path="url(#pe3e6ab67c1)" style="fill: #1f77b4"/>
   </g>
   <g id="patch_77">
    <path d="M 181.842946 273.312 
L 183.452644 273.312 
L 183.452644 162.991059 
L 181.842946 162.991059 
z
" clip-path="url(#pe3e6ab67c1)" style="fill: #1f77b4"/>
   </g>
   <g id="patch_78">
    <path d="M 183.452644 273.312 
L 185.062341 273.312 
L 185.062341 182.0736 
L 183.452644 182.0736 
z
" clip-path="url(#pe3e6ab67c1)" style="fill: #1f77b4"/>
   </g>
   <g id="patch_79">
    <path d="M 185.062341 273.312 
L 186.672039 273.312 
L 186.672039 165.972706 
L 185.062341 165.972706 
z
" clip-path="url(#pe3e6ab67c1)" style="fill: #1f77b4"/>
   </g>
   <g id="patch_80">
    <path d="M 186.672039 273.312 
L 188.281737 273.312 
L 188.281737 175.513976 
L 186.672039 175.513976 
z
" clip-path="url(#pe3e6ab67c1)" style="fill: #1f77b4"/>
   </g>
   <g id="patch_81">
    <path d="M 188.281737 273.312 
L 189.891434 273.312 
L 189.891434 178.495624 
L 188.281737 178.495624 
z
" clip-path="url(#pe3e6ab67c1)" style="fill: #1f77b4"/>
   </g>
   <g id="patch_82">
    <path d="M 189.891434 273.312 
L 191.501132 273.312 
L 191.501132 183.862588 
L 189.891434 183.862588 
z
" clip-path="url(#pe3e6ab67c1)" style="fill: #1f77b4"/>
   </g>
   <g id="patch_83">
    <path d="M 191.501132 273.312 
L 193.11083 273.312 
L 193.11083 167.761694 
L 191.501132 167.761694 
z
" clip-path="url(#pe3e6ab67c1)" style="fill: #1f77b4"/>
   </g>
   <g id="patch_84">
    <path d="M 193.11083 273.312 
L 194.720527 273.312 
L 194.720527 174.321318 
L 193.11083 174.321318 
z
" clip-path="url(#pe3e6ab67c1)" style="fill: #1f77b4"/>
   </g>
   <g id="patch_85">
    <path d="M 194.720527 273.312 
L 196.330225 273.312 
L 196.330225 174.917647 
L 194.720527 174.917647 
z
" clip-path="url(#pe3e6ab67c1)" style="fill: #1f77b4"/>
   </g>
   <g id="patch_86">
    <path d="M 196.330225 273.312 
L 197.939922 273.312 
L 197.939922 174.917647 
L 196.330225 174.917647 
z
" clip-path="url(#pe3e6ab67c1)" style="fill: #1f77b4"/>
   </g>
   <g id="patch_87">
    <path d="M 197.939922 273.312 
L 199.54962 273.312 
L 199.54962 170.743341 
L 197.939922 170.743341 
z
" clip-path="url(#pe3e6ab67c1)" style="fill: #1f77b4"/>
   </g>
   <g id="patch_88">
    <path d="M 199.54962 273.312 
L 201.159318 273.312 
L 201.159318 183.266259 
L 199.54962 183.266259 
z
" clip-path="url(#pe3e6ab67c1)" style="fill: #1f77b4"/>
   </g>
   <g id="patch_89">
    <path d="M 201.159318 273.312 
L 202.769015 273.312 
L 202.769015 175.513976 
L 201.159318 175.513976 
z
" clip-path="url(#pe3e6ab67c1)" style="fill: #1f77b4"/>
   </g>
   <g id="patch_90">
    <path d="M 202.769015 273.312 
L 204.378713 273.312 
L 204.378713 168.358024 
L 202.769015 168.358024 
z
" clip-path="url(#pe3e6ab67c1)" style="fill: #1f77b4"/>
   </g>
   <g id="patch_91">
    <path d="M 204.378713 273.312 
L 205.988411 273.312 
L 205.988411 158.816753 
L 204.378713 158.816753 
z
" clip-path="url(#pe3e6ab67c1)" style="fill: #1f77b4"/>
   </g>
   <g id="patch_92">
    <path d="M 205.988411 273.312 
L 207.598108 273.312 
L 207.598108 174.321318 
L 205.988411 174.321318 
z
" clip-path="url(#pe3e6ab67c1)" style="fill: #1f77b4"/>
   </g>
   <g id="patch_93">
    <path d="M 207.598108 273.312 
L 209.207806 273.312 
L 209.207806 158.220424 
L 207.598108 158.220424 
z
" clip-path="url(#pe3e6ab67c1)" style="fill: #1f77b4"/>
   </g>
   <g id="patch_94">
    <path d="M 209.207806 273.312 
L 210.817503 273.312 
L 210.817503 161.7984 
L 209.207806 161.7984 
z
" clip-path="url(#pe3e6ab67c1)" style="fill: #1f77b4"/>
   </g>
   <g id="patch_95">
    <path d="M 210.817503 273.312 
L 212.427201 273.312 
L 212.427201 161.7984 
L 210.817503 161.7984 
z
" clip-path="url(#pe3e6ab67c1)" style="fill: #1f77b4"/>
   </g>
   <g id="patch_96">
    <path d="M 212.427201 273.312 
L 214.036899 273.312 
L 214.036899 149.275482 
L 212.427201 149.275482 
z
" clip-path="url(#pe3e6ab67c1)" style="fill: #1f77b4"/>
   </g>
   <g id="patch_97">
    <path d="M 214.036899 273.312 
L 215.646596 273.312 
L 215.646596 160.605741 
L 214.036899 160.605741 
z
" clip-path="url(#pe3e6ab67c1)" style="fill: #1f77b4"/>
   </g>
   <g id="patch_98">
    <path d="M 215.646596 273.312 
L 217.256294 273.312 
L 217.256294 168.358024 
L 215.646596 168.358024 
z
" clip-path="url(#pe3e6ab67c1)" style="fill: #1f77b4"/>
   </g>
   <g id="patch_99">
    <path d="M 217.256294 273.312 
L 218.865992 273.312 
L 218.865992 150.468141 
L 217.256294 150.468141 
z
" clip-path="url(#pe3e6ab67c1)" style="fill: #1f77b4"/>
   </g>
   <g id="patch_100">
    <path d="M 218.865992 273.312 
L 220.475689 273.312 
L 220.475689 167.165365 
L 218.865992 167.165365 
z
" clip-path="url(#pe3e6ab67c1)" style="fill: #1f77b4"/>
   </g>
   <g id="patch_101">
    <path d="M 220.475689 273.312 
L 222.085387 273.312 
L 222.085387 150.468141 
L 220.475689 150.468141 
z
" clip-path="url(#pe3e6ab67c1)" style="fill: #1f77b4"/>
   </g>
   <g id="patch_102">
    <path d="M 222.085387 273.312 
L 223.695084 273.312 
L 223.695084 154.642447 
L 222.085387 154.642447 
z
" clip-path="url(#pe3e6ab67c1)" style="fill: #1f77b4"/>
   </g>
   <g id="patch_103">
    <path d="M 223.695084 273.312 
L 225.304782 273.312 
L 225.304782 157.027765 
L 223.695084 157.027765 
z
" clip-path="url(#pe3e6ab67c1)" style="fill: #1f77b4"/>
   </g>
   <g id="patch_104">
    <path d="M 225.304782 273.312 
L 226.91448 273.312 
L 226.91448 164.780047 
L 225.304782 164.780047 
z
" clip-path="url(#pe3e6ab67c1)" style="fill: #1f77b4"/>
   </g>
   <g id="patch_105">
    <path d="M 226.91448 273.312 
L 228.524177 273.312 
L 228.524177 145.101176 
L 226.91448 145.101176 
z
" clip-path="url(#pe3e6ab67c1)" style="fill: #1f77b4"/>
   </g>
   <g id="patch_106">
    <path d="M 228.524177 273.312 
L 230.133875 273.312 
L 230.133875 150.468141 
L 228.524177 150.468141 
z
" clip-path="url(#pe3e6ab67c1)" style="fill: #1f77b4"/>
   </g>
   <g id="patch_107">
    <path d="M 230.133875 273.312 
L 231.743573 273.312 
L 231.743573 166.569035 
L 230.133875 166.569035 
z
" clip-path="url(#pe3e6ab67c1)" style="fill: #1f77b4"/>
   </g>
   <g id="patch_108">
    <path d="M 231.743573 273.312 
L 233.35327 273.312 
L 233.35327 149.871812 
L 231.743573 149.871812 
z
" clip-path="url(#pe3e6ab67c1)" style="fill: #1f77b4"/>
   </g>
   <g id="patch_109">
    <path d="M 233.35327 273.312 
L 234.962968 273.312 
L 234.962968 127.211294 
L 233.35327 127.211294 
z
" clip-path="url(#pe3e6ab67c1)" style="fill: #1f77b4"/>
   </g>
   <g id="patch_110">
    <path d="M 234.962968 273.312 
L 236.572665 273.312 
L 236.572665 152.257129 
L 234.962968 152.257129 
z
" clip-path="url(#pe3e6ab67c1)" style="fill: #1f77b4"/>
   </g>
   <g id="patch_111">
    <path d="M 236.572665 273.312 
L 238.182363 273.312 
L 238.182363 149.275482 
L 236.572665 149.275482 
z
" clip-path="url(#pe3e6ab67c1)" style="fill: #1f77b4"/>
   </g>
   <g id="patch_112">
    <path d="M 238.182363 273.312 
L 239.792061 273.312 
L 239.792061 131.981929 
L 238.182363 131.981929 
z
" clip-path="url(#pe3e6ab67c1)" style="fill: #1f77b4"/>
   </g>
   <g id="patch_113">
    <path d="M 239.792061 273.312 
L 241.401758 273.312 
L 241.401758 146.293835 
L 239.792061 146.293835 
z
" clip-path="url(#pe3e6ab67c1)" style="fill: #1f77b4"/>
   </g>
   <g id="patch_114">
    <path d="M 241.401758 273.312 
L 243.011456 273.312 
L 243.011456 143.312188 
L 241.401758 143.312188 
z
" clip-path="url(#pe3e6ab67c1)" style="fill: #1f77b4"/>
   </g>
   <g id="patch_115">
    <path d="M 243.011456 273.312 
L 244.621154 273.312 
L 244.621154 148.082824 
L 243.011456 148.082824 
z
" clip-path="url(#pe3e6ab67c1)" style="fill: #1f77b4"/>
   </g>
   <g id="patch_116">
    <path d="M 244.621154 273.312 
L 246.230851 273.312 
L 246.230851 143.312188 
L 244.621154 143.312188 
z
" clip-path="url(#pe3e6ab67c1)" style="fill: #1f77b4"/>
   </g>
   <g id="patch_117">
    <path d="M 246.230851 273.312 
L 247.840549 273.312 
L 247.840549 133.770918 
L 246.230851 133.770918 
z
" clip-path="url(#pe3e6ab67c1)" style="fill: #1f77b4"/>
   </g>
   <g id="patch_118">
    <path d="M 247.840549 273.312 
L 249.450246 273.312 
L 249.450246 126.018635 
L 247.840549 126.018635 
z
" clip-path="url(#pe3e6ab67c1)" style="fill: #1f77b4"/>
   </g>
   <g id="patch_119">
    <path d="M 249.450246 273.312 
L 251.059944 273.312 
L 251.059944 119.459012 
L 249.450246 119.459012 
z
" clip-path="url(#pe3e6ab67c1)" style="fill: #1f77b4"/>
   </g>
   <g id="patch_120">
    <path d="M 251.059944 273.312 
L 252.669642 273.312 
L 252.669642 157.027765 
L 251.059944 157.027765 
z
" clip-path="url(#pe3e6ab67c1)" style="fill: #1f77b4"/>
   </g>
   <g id="patch_121">
    <path d="M 252.669642 273.312 
L 254.279339 273.312 
L 254.279339 123.633318 
L 252.669642 123.633318 
z
" clip-path="url(#pe3e6ab67c1)" style="fill: #1f77b4"/>
   </g>
   <g id="patch_122">
    <path d="M 254.279339 273.312 
L 255.889037 273.312 
L 255.889037 124.825976 
L 254.279339 124.825976 
z
" clip-path="url(#pe3e6ab67c1)" style="fill: #1f77b4"/>
   </g>
   <g id="patch_123">
    <path d="M 255.889037 273.312 
L 257.498735 273.312 
L 257.498735 126.018635 
L 255.889037 126.018635 
z
" clip-path="url(#pe3e6ab67c1)" style="fill: #1f77b4"/>
   </g>
   <g id="patch_124">
    <path d="M 257.498735 273.312 
L 259.108432 273.312 
L 259.108432 123.036988 
L 257.498735 123.036988 
z
" clip-path="url(#pe3e6ab67c1)" style="fill: #1f77b4"/>
   </g>
   <g id="patch_125">
    <path d="M 259.108432 273.312 
L 260.71813 273.312 
L 260.71813 131.3856 
L 259.108432 131.3856 
z
" clip-path="url(#pe3e6ab67c1)" style="fill: #1f77b4"/>
   </g>
   <g id="patch_126">
    <path d="M 260.71813 273.312 
L 262.327828 273.312 
L 262.327828 121.844329 
L 260.71813 121.844329 
z
" clip-path="url(#pe3e6ab67c1)" style="fill: #1f77b4"/>
   </g>
   <g id="patch_127">
    <path d="M 262.327828 273.312 
L 263.937525 273.312 
L 263.937525 130.789271 
L 262.327828 130.789271 
z
" clip-path="url(#pe3e6ab67c1)" style="fill: #1f77b4"/>
   </g>
   <g id="patch_128">
    <path d="M 263.937525 273.312 
L 265.547223 273.312 
L 265.547223 134.367247 
L 263.937525 134.367247 
z
" clip-path="url(#pe3e6ab67c1)" style="fill: #1f77b4"/>
   </g>
   <g id="patch_129">
    <path d="M 265.547223 273.312 
L 267.15692 273.312 
L 267.15692 117.670024 
L 265.547223 117.670024 
z
" clip-path="url(#pe3e6ab67c1)" style="fill: #1f77b4"/>
   </g>
   <g id="patch_130">
    <path d="M 267.15692 273.312 
L 268.766618 273.312 
L 268.766618 128.403953 
L 267.15692 128.403953 
z
" clip-path="url(#pe3e6ab67c1)" style="fill: #1f77b4"/>
   </g>
   <g id="patch_131">
    <path d="M 268.766618 273.312 
L 270.376316 273.312 
L 270.376316 130.789271 
L 268.766618 130.789271 
z
" clip-path="url(#pe3e6ab67c1)" style="fill: #1f77b4"/>
   </g>
   <g id="patch_132">
    <path d="M 270.376316 273.312 
L 271.986013 273.312 
L 271.986013 120.651671 
L 270.376316 120.651671 
z
" clip-path="url(#pe3e6ab67c1)" style="fill: #1f77b4"/>
   </g>
   <g id="patch_133">
    <path d="M 271.986013 273.312 
L 273.595711 273.312 
L 273.595711 100.9728 
L 271.986013 100.9728 
z
" clip-path="url(#pe3e6ab67c1)" style="fill: #1f77b4"/>
   </g>
   <g id="patch_134">
    <path d="M 273.595711 273.312 
L 275.205409 273.312 
L 275.205409 131.981929 
L 273.595711 131.981929 
z
" clip-path="url(#pe3e6ab67c1)" style="fill: #1f77b4"/>
   </g>
   <g id="patch_135">
    <path d="M 275.205409 273.312 
L 276.815106 273.312 
L 276.815106 139.137882 
L 275.205409 139.137882 
z
" clip-path="url(#pe3e6ab67c1)" style="fill: #1f77b4"/>
   </g>
   <g id="patch_136">
    <path d="M 276.815106 273.312 
L 278.424804 273.312 
L 278.424804 97.394824 
L 276.815106 97.394824 
z
" clip-path="url(#pe3e6ab67c1)" style="fill: #1f77b4"/>
   </g>
   <g id="patch_137">
    <path d="M 278.424804 273.312 
L 280.034501 273.312 
L 280.034501 102.165459 
L 278.424804 102.165459 
z
" clip-path="url(#pe3e6ab67c1)" style="fill: #1f77b4"/>
   </g>
   <g id="patch_138">
    <path d="M 280.034501 273.312 
L 281.644199 273.312 
L 281.644199 95.605835 
L 280.034501 95.605835 
z
" clip-path="url(#pe3e6ab67c1)" style="fill: #1f77b4"/>
   </g>
   <g id="patch_139">
    <path d="M 281.644199 273.312 
L 283.253897 273.312 
L 283.253897 108.128753 
L 281.644199 108.128753 
z
" clip-path="url(#pe3e6ab67c1)" style="fill: #1f77b4"/>
   </g>
   <g id="patch_140">
    <path d="M 283.253897 273.312 
L 284.863594 273.312 
L 284.863594 123.633318 
L 283.253897 123.633318 
z
" clip-path="url(#pe3e6ab67c1)" style="fill: #1f77b4"/>
   </g>
   <g id="patch_141">
    <path d="M 284.863594 273.312 
L 286.473292 273.312 
L 286.473292 113.495718 
L 284.863594 113.495718 
z
" clip-path="url(#pe3e6ab67c1)" style="fill: #1f77b4"/>
   </g>
   <g id="patch_142">
    <path d="M 286.473292 273.312 
L 288.08299 273.312 
L 288.08299 115.284706 
L 286.473292 115.284706 
z
" clip-path="url(#pe3e6ab67c1)" style="fill: #1f77b4"/>
   </g>
   <g id="patch_143">
    <path d="M 288.08299 273.312 
L 289.692687 273.312 
L 289.692687 111.1104 
L 288.08299 111.1104 
z
" clip-path="url(#pe3e6ab67c1)" style="fill: #1f77b4"/>
   </g>
   <g id="patch_144">
    <path d="M 289.692687 273.312 
L 291.302385 273.312 
L 291.302385 108.128753 
L 289.692687 108.128753 
z
" clip-path="url(#pe3e6ab67c1)" style="fill: #1f77b4"/>
   </g>
   <g id="patch_145">
    <path d="M 291.302385 273.312 
L 292.912082 273.312 
L 292.912082 99.183812 
L 291.302385 99.183812 
z
" clip-path="url(#pe3e6ab67c1)" style="fill: #1f77b4"/>
   </g>
   <g id="patch_146">
    <path d="M 292.912082 273.312 
L 294.52178 273.312 
L 294.52178 115.881035 
L 292.912082 115.881035 
z
" clip-path="url(#pe3e6ab67c1)" style="fill: #1f77b4"/>
   </g>
   <g id="patch_147">
    <path d="M 294.52178 273.312 
L 296.131478 273.312 
L 296.131478 104.550776 
L 294.52178 104.550776 
z
" clip-path="url(#pe3e6ab67c1)" style="fill: #1f77b4"/>
   </g>
   <g id="patch_148">
    <path d="M 296.131478 273.312 
L 297.741175 273.312 
L 297.741175 98.587482 
L 296.131478 98.587482 
z
" clip-path="url(#pe3e6ab67c1)" style="fill: #1f77b4"/>
   </g>
   <g id="patch_149">
    <path d="M 297.741175 273.312 
L 299.350873 273.312 
L 299.350873 83.679247 
L 297.741175 83.679247 
z
" clip-path="url(#pe3e6ab67c1)" style="fill: #1f77b4"/>
   </g>
   <g id="patch_150">
    <path d="M 299.350873 273.312 
L 300.960571 273.312 
L 300.960571 74.137976 
L 299.350873 74.137976 
z
" clip-path="url(#pe3e6ab67c1)" style="fill: #1f77b4"/>
   </g>
   <g id="patch_151">
    <path d="M 300.960571 273.312 
L 302.570268 273.312 
L 302.570268 92.624188 
L 300.960571 92.624188 
z
" clip-path="url(#pe3e6ab67c1)" style="fill: #1f77b4"/>
   </g>
   <g id="patch_152">
    <path d="M 302.570268 273.312 
L 304.179966 273.312 
L 304.179966 110.514071 
L 302.570268 110.514071 
z
" clip-path="url(#pe3e6ab67c1)" style="fill: #1f77b4"/>
   </g>
   <g id="patch_153">
    <path d="M 304.179966 273.312 
L 305.789663 273.312 
L 305.789663 95.009506 
L 304.179966 95.009506 
z
" clip-path="url(#pe3e6ab67c1)" style="fill: #1f77b4"/>
   </g>
   <g id="patch_154">
    <path d="M 305.789663 273.312 
L 307.399361 273.312 
L 307.399361 96.202165 
L 305.789663 96.202165 
z
" clip-path="url(#pe3e6ab67c1)" style="fill: #1f77b4"/>
   </g>
   <g id="patch_155">
    <path d="M 307.399361 273.312 
L 309.009059 273.312 
L 309.009059 100.9728 
L 307.399361 100.9728 
z
" clip-path="url(#pe3e6ab67c1)" style="fill: #1f77b4"/>
   </g>
   <g id="patch_156">
    <path d="M 309.009059 273.312 
L 310.618756 273.312 
L 310.618756 80.101271 
L 309.009059 80.101271 
z
" clip-path="url(#pe3e6ab67c1)" style="fill: #1f77b4"/>
   </g>
   <g id="patch_157">
    <path d="M 310.618756 273.312 
L 312.228454 273.312 
L 312.228454 93.220518 
L 310.618756 93.220518 
z
" clip-path="url(#pe3e6ab67c1)" style="fill: #1f77b4"/>
   </g>
   <g id="patch_158">
    <path d="M 312.228454 273.312 
L 313.838152 273.312 
L 313.838152 89.046212 
L 312.228454 89.046212 
z
" clip-path="url(#pe3e6ab67c1)" style="fill: #1f77b4"/>
   </g>
   <g id="patch_159">
    <path d="M 313.838152 273.312 
L 315.447849 273.312 
L 315.447849 93.816847 
L 313.838152 93.816847 
z
" clip-path="url(#pe3e6ab67c1)" style="fill: #1f77b4"/>
   </g>
   <g id="patch_160">
    <path d="M 315.447849 273.312 
L 317.057547 273.312 
L 317.057547 82.486588 
L 315.447849 82.486588 
z
" clip-path="url(#pe3e6ab67c1)" style="fill: #1f77b4"/>
   </g>
   <g id="patch_161">
    <path d="M 317.057547 273.312 
L 318.667244 273.312 
L 318.667244 108.725082 
L 317.057547 108.725082 
z
" clip-path="url(#pe3e6ab67c1)" style="fill: #1f77b4"/>
   </g>
   <g id="patch_162">
    <path d="M 318.667244 273.312 
L 320.276942 273.312 
L 320.276942 89.046212 
L 318.667244 89.046212 
z
" clip-path="url(#pe3e6ab67c1)" style="fill: #1f77b4"/>
   </g>
   <g id="patch_163">
    <path d="M 320.276942 273.312 
L 321.88664 273.312 
L 321.88664 90.238871 
L 320.276942 90.238871 
z
" clip-path="url(#pe3e6ab67c1)" style="fill: #1f77b4"/>
   </g>
   <g id="patch_164">
    <path d="M 321.88664 273.312 
L 323.496337 273.312 
L 323.496337 88.449882 
L 321.88664 88.449882 
z
" clip-path="url(#pe3e6ab67c1)" style="fill: #1f77b4"/>
   </g>
   <g id="patch_165">
    <path d="M 323.496337 273.312 
L 325.106035 273.312 
L 325.106035 80.101271 
L 323.496337 80.101271 
z
" clip-path="url(#pe3e6ab67c1)" style="fill: #1f77b4"/>
   </g>
   <g id="patch_166">
    <path d="M 325.106035 273.312 
L 326.715733 273.312 
L 326.715733 70.56 
L 325.106035 70.56 
z
" clip-path="url(#pe3e6ab67c1)" style="fill: #1f77b4"/>
   </g>
   <g id="patch_167">
    <path d="M 326.715733 273.312 
L 328.32543 273.312 
L 328.32543 81.890259 
L 326.715733 81.890259 
z
" clip-path="url(#pe3e6ab67c1)" style="fill: #1f77b4"/>
   </g>
   <g id="patch_168">
    <path d="M 328.32543 273.312 
L 329.935128 273.312 
L 329.935128 67.578353 
L 328.32543 67.578353 
z
" clip-path="url(#pe3e6ab67c1)" style="fill: #1f77b4"/>
   </g>
   <g id="patch_169">
    <path d="M 329.935128 273.312 
L 331.544826 273.312 
L 331.544826 77.119624 
L 329.935128 77.119624 
z
" clip-path="url(#pe3e6ab67c1)" style="fill: #1f77b4"/>
   </g>
   <g id="patch_170">
    <path d="M 331.544826 273.312 
L 333.154523 273.312 
L 333.154523 74.734306 
L 331.544826 74.734306 
z
" clip-path="url(#pe3e6ab67c1)" style="fill: #1f77b4"/>
   </g>
   <g id="patch_171">
    <path d="M 333.154523 273.312 
L 334.764221 273.312 
L 334.764221 74.734306 
L 333.154523 74.734306 
z
" clip-path="url(#pe3e6ab67c1)" style="fill: #1f77b4"/>
   </g>
   <g id="patch_172">
    <path d="M 334.764221 273.312 
L 336.373918 273.312 
L 336.373918 62.807718 
L 334.764221 62.807718 
z
" clip-path="url(#pe3e6ab67c1)" style="fill: #1f77b4"/>
   </g>
   <g id="patch_173">
    <path d="M 336.373918 273.312 
L 337.983616 273.312 
L 337.983616 75.926965 
L 336.373918 75.926965 
z
" clip-path="url(#pe3e6ab67c1)" style="fill: #1f77b4"/>
   </g>
   <g id="patch_174">
    <path d="M 337.983616 273.312 
L 339.593314 273.312 
L 339.593314 76.523294 
L 337.983616 76.523294 
z
" clip-path="url(#pe3e6ab67c1)" style="fill: #1f77b4"/>
   </g>
   <g id="patch_175">
    <path d="M 339.593314 273.312 
L 341.203011 273.312 
L 341.203011 64.596706 
L 339.593314 64.596706 
z
" clip-path="url(#pe3e6ab67c1)" style="fill: #1f77b4"/>
   </g>
   <g id="patch_176">
    <path d="M 341.203011 273.312 
L 342.812709 273.312 
L 342.812709 84.275576 
L 341.203011 84.275576 
z
" clip-path="url(#pe3e6ab67c1)" style="fill: #1f77b4"/>
   </g>
   <g id="patch_177">
    <path d="M 342.812709 273.312 
L 344.422407 273.312 
L 344.422407 65.193035 
L 342.812709 65.193035 
z
" clip-path="url(#pe3e6ab67c1)" style="fill: #1f77b4"/>
   </g>
   <g id="patch_178">
    <path d="M 344.422407 273.312 
L 346.032104 273.312 
L 346.032104 60.4224 
L 344.422407 60.4224 
z
" clip-path="url(#pe3e6ab67c1)" style="fill: #1f77b4"/>
   </g>
   <g id="patch_179">
    <path d="M 346.032104 273.312 
L 347.641802 273.312 
L 347.641802 69.367341 
L 346.032104 69.367341 
z
" clip-path="url(#pe3e6ab67c1)" style="fill: #1f77b4"/>
   </g>
   <g id="patch_180">
    <path d="M 347.641802 273.312 
L 349.251499 273.312 
L 349.251499 74.137976 
L 347.641802 74.137976 
z
" clip-path="url(#pe3e6ab67c1)" style="fill: #1f77b4"/>
   </g>
   <g id="patch_181">
    <path d="M 349.251499 273.312 
L 350.861197 273.312 
L 350.861197 87.853553 
L 349.251499 87.853553 
z
" clip-path="url(#pe3e6ab67c1)" style="fill: #1f77b4"/>
   </g>
   <g id="patch_182">
    <path d="M 350.861197 273.312 
L 352.470895 273.312 
L 352.470895 60.4224 
L 350.861197 60.4224 
z
" clip-path="url(#pe3e6ab67c1)" style="fill: #1f77b4"/>
   </g>
   <g id="patch_183">
    <path d="M 352.470895 273.312 
L 354.080592 273.312 
L 354.080592 60.4224 
L 352.470895 60.4224 
z
" clip-path="url(#pe3e6ab67c1)" style="fill: #1f77b4"/>
   </g>
   <g id="patch_184">
    <path d="M 354.080592 273.312 
L 355.69029 273.312 
L 355.69029 55.055435 
L 354.080592 55.055435 
z
" clip-path="url(#pe3e6ab67c1)" style="fill: #1f77b4"/>
   </g>
   <g id="patch_185">
    <path d="M 355.69029 273.312 
L 357.299988 273.312 
L 357.299988 40.1472 
L 355.69029 40.1472 
z
" clip-path="url(#pe3e6ab67c1)" style="fill: #1f77b4"/>
   </g>
   <g id="patch_186">
    <path d="M 357.299988 273.312 
L 358.909685 273.312 
L 358.909685 48.495812 
L 357.299988 48.495812 
z
" clip-path="url(#pe3e6ab67c1)" style="fill: #1f77b4"/>
   </g>
   <g id="patch_187">
    <path d="M 358.909685 273.312 
L 360.519383 273.312 
L 360.519383 72.945318 
L 358.909685 72.945318 
z
" clip-path="url(#pe3e6ab67c1)" style="fill: #1f77b4"/>
   </g>
   <g id="patch_188">
    <path d="M 360.519383 273.312 
L 362.12908 273.312 
L 362.12908 65.193035 
L 360.519383 65.193035 
z
" clip-path="url(#pe3e6ab67c1)" style="fill: #1f77b4"/>
   </g>
   <g id="patch_189">
    <path d="M 362.12908 273.312 
L 363.738778 273.312 
L 363.738778 61.018729 
L 362.12908 61.018729 
z
" clip-path="url(#pe3e6ab67c1)" style="fill: #1f77b4"/>
   </g>
   <g id="patch_190">
    <path d="M 363.738778 273.312 
L 365.348476 273.312 
L 365.348476 50.2848 
L 363.738778 50.2848 
z
" clip-path="url(#pe3e6ab67c1)" style="fill: #1f77b4"/>
   </g>
   <g id="patch_191">
    <path d="M 365.348476 273.312 
L 366.958173 273.312 
L 366.958173 41.339859 
L 365.348476 41.339859 
z
" clip-path="url(#pe3e6ab67c1)" style="fill: #1f77b4"/>
   </g>
   <g id="patch_192">
    <path d="M 366.958173 273.312 
L 368.567871 273.312 
L 368.567871 58.037082 
L 366.958173 58.037082 
z
" clip-path="url(#pe3e6ab67c1)" style="fill: #1f77b4"/>
   </g>
   <g id="patch_193">
    <path d="M 368.567871 273.312 
L 370.177569 273.312 
L 370.177569 58.037082 
L 368.567871 58.037082 
z
" clip-path="url(#pe3e6ab67c1)" style="fill: #1f77b4"/>
   </g>
   <g id="patch_194">
    <path d="M 370.177569 273.312 
L 371.787266 273.312 
L 371.787266 62.807718 
L 370.177569 62.807718 
z
" clip-path="url(#pe3e6ab67c1)" style="fill: #1f77b4"/>
   </g>
   <g id="patch_195">
    <path d="M 371.787266 273.312 
L 373.396964 273.312 
L 373.396964 50.881129 
L 371.787266 50.881129 
z
" clip-path="url(#pe3e6ab67c1)" style="fill: #1f77b4"/>
   </g>
   <g id="patch_196">
    <path d="M 373.396964 273.312 
L 375.006661 273.312 
L 375.006661 49.092141 
L 373.396964 49.092141 
z
" clip-path="url(#pe3e6ab67c1)" style="fill: #1f77b4"/>
   </g>
   <g id="patch_197">
    <path d="M 375.006661 273.312 
L 376.616359 273.312 
L 376.616359 28.816941 
L 375.006661 28.816941 
z
" clip-path="url(#pe3e6ab67c1)" style="fill: #1f77b4"/>
   </g>
   <g id="patch_198">
    <path d="M 376.616359 273.312 
L 378.226057 273.312 
L 378.226057 43.725176 
L 376.616359 43.725176 
z
" clip-path="url(#pe3e6ab67c1)" style="fill: #1f77b4"/>
   </g>
   <g id="patch_199">
    <path d="M 378.226057 273.312 
L 379.835754 273.312 
L 379.835754 19.872 
L 378.226057 19.872 
z
" clip-path="url(#pe3e6ab67c1)" style="fill: #1f77b4"/>
   </g>
   <g id="patch_200">
    <path d="M 379.835754 273.312 
L 381.445452 273.312 
L 381.445452 37.761882 
L 379.835754 37.761882 
z
" clip-path="url(#pe3e6ab67c1)" style="fill: #1f77b4"/>
   </g>
   <g id="patch_201">
    <path d="M 381.445452 273.312 
L 383.05515 273.312 
L 383.05515 27.027953 
L 381.445452 27.027953 
z
" clip-path="url(#pe3e6ab67c1)" style="fill: #1f77b4"/>
   </g>
   <g id="patch_202">
    <path d="M 383.05515 273.312 
L 384.664847 273.312 
L 384.664847 38.358212 
L 383.05515 38.358212 
z
" clip-path="url(#pe3e6ab67c1)" style="fill: #1f77b4"/>
   </g>
   <g id="matplotlib.axis_1">
    <g id="xtick_1">
     <g id="line2d_1">
      <defs>
       <path id="mb4df7ecaeb" d="M 0 0 
L 0 3.5 
" style="stroke: #000000; stroke-width: 0.8"/>
      </defs>
      <g>
       <use xlink:href="#mb4df7ecaeb" x="60.013977" y="273.312" style="stroke: #000000; stroke-width: 0.8"/>
      </g>
     </g>
     <g id="text_1">
      <!-- 0.0 -->
      <g transform="translate(52.062415 287.910437)scale(0.1 -0.1)">
       <defs>
        <path id="DejaVuSans-30" d="M 2034 4250 
Q 1547 4250 1301 3770 
Q 1056 3291 1056 2328 
Q 1056 1369 1301 889 
Q 1547 409 2034 409 
Q 2525 409 2770 889 
Q 3016 1369 3016 2328 
Q 3016 3291 2770 3770 
Q 2525 4250 2034 4250 
z
M 2034 4750 
Q 2819 4750 3233 4129 
Q 3647 3509 3647 2328 
Q 3647 1150 3233 529 
Q 2819 -91 2034 -91 
Q 1250 -91 836 529 
Q 422 1150 422 2328 
Q 422 3509 836 4129 
Q 1250 4750 2034 4750 
z
" transform="scale(0.015625)"/>
        <path id="DejaVuSans-2e" d="M 684 794 
L 1344 794 
L 1344 0 
L 684 0 
L 684 794 
z
" transform="scale(0.015625)"/>
       </defs>
       <use xlink:href="#DejaVuSans-30"/>
       <use xlink:href="#DejaVuSans-2e" x="63.623047"/>
       <use xlink:href="#DejaVuSans-30" x="95.410156"/>
      </g>
     </g>
    </g>
    <g id="xtick_2">
     <g id="line2d_2">
      <g>
       <use xlink:href="#mb4df7ecaeb" x="124.944886" y="273.312" style="stroke: #000000; stroke-width: 0.8"/>
      </g>
     </g>
     <g id="text_2">
      <!-- 0.2 -->
      <g transform="translate(116.993324 287.910437)scale(0.1 -0.1)">
       <defs>
        <path id="DejaVuSans-32" d="M 1228 531 
L 3431 531 
L 3431 0 
L 469 0 
L 469 531 
Q 828 903 1448 1529 
Q 2069 2156 2228 2338 
Q 2531 2678 2651 2914 
Q 2772 3150 2772 3378 
Q 2772 3750 2511 3984 
Q 2250 4219 1831 4219 
Q 1534 4219 1204 4116 
Q 875 4013 500 3803 
L 500 4441 
Q 881 4594 1212 4672 
Q 1544 4750 1819 4750 
Q 2544 4750 2975 4387 
Q 3406 4025 3406 3419 
Q 3406 3131 3298 2873 
Q 3191 2616 2906 2266 
Q 2828 2175 2409 1742 
Q 1991 1309 1228 531 
z
" transform="scale(0.015625)"/>
       </defs>
       <use xlink:href="#DejaVuSans-30"/>
       <use xlink:href="#DejaVuSans-2e" x="63.623047"/>
       <use xlink:href="#DejaVuSans-32" x="95.410156"/>
      </g>
     </g>
    </g>
    <g id="xtick_3">
     <g id="line2d_3">
      <g>
       <use xlink:href="#mb4df7ecaeb" x="189.875795" y="273.312" style="stroke: #000000; stroke-width: 0.8"/>
      </g>
     </g>
     <g id="text_3">
      <!-- 0.4 -->
      <g transform="translate(181.924233 287.910437)scale(0.1 -0.1)">
       <defs>
        <path id="DejaVuSans-34" d="M 2419 4116 
L 825 1625 
L 2419 1625 
L 2419 4116 
z
M 2253 4666 
L 3047 4666 
L 3047 1625 
L 3713 1625 
L 3713 1100 
L 3047 1100 
L 3047 0 
L 2419 0 
L 2419 1100 
L 313 1100 
L 313 1709 
L 2253 4666 
z
" transform="scale(0.015625)"/>
       </defs>
       <use xlink:href="#DejaVuSans-30"/>
       <use xlink:href="#DejaVuSans-2e" x="63.623047"/>
       <use xlink:href="#DejaVuSans-34" x="95.410156"/>
      </g>
     </g>
    </g>
    <g id="xtick_4">
     <g id="line2d_4">
      <g>
       <use xlink:href="#mb4df7ecaeb" x="254.806705" y="273.312" style="stroke: #000000; stroke-width: 0.8"/>
      </g>
     </g>
     <g id="text_4">
      <!-- 0.6 -->
      <g transform="translate(246.855142 287.910437)scale(0.1 -0.1)">
       <defs>
        <path id="DejaVuSans-36" d="M 2113 2584 
Q 1688 2584 1439 2293 
Q 1191 2003 1191 1497 
Q 1191 994 1439 701 
Q 1688 409 2113 409 
Q 2538 409 2786 701 
Q 3034 994 3034 1497 
Q 3034 2003 2786 2293 
Q 2538 2584 2113 2584 
z
M 3366 4563 
L 3366 3988 
Q 3128 4100 2886 4159 
Q 2644 4219 2406 4219 
Q 1781 4219 1451 3797 
Q 1122 3375 1075 2522 
Q 1259 2794 1537 2939 
Q 1816 3084 2150 3084 
Q 2853 3084 3261 2657 
Q 3669 2231 3669 1497 
Q 3669 778 3244 343 
Q 2819 -91 2113 -91 
Q 1303 -91 875 529 
Q 447 1150 447 2328 
Q 447 3434 972 4092 
Q 1497 4750 2381 4750 
Q 2619 4750 2861 4703 
Q 3103 4656 3366 4563 
z
" transform="scale(0.015625)"/>
       </defs>
       <use xlink:href="#DejaVuSans-30"/>
       <use xlink:href="#DejaVuSans-2e" x="63.623047"/>
       <use xlink:href="#DejaVuSans-36" x="95.410156"/>
      </g>
     </g>
    </g>
    <g id="xtick_5">
     <g id="line2d_5">
      <g>
       <use xlink:href="#mb4df7ecaeb" x="319.737614" y="273.312" style="stroke: #000000; stroke-width: 0.8"/>
      </g>
     </g>
     <g id="text_5">
      <!-- 0.8 -->
      <g transform="translate(311.786051 287.910437)scale(0.1 -0.1)">
       <defs>
        <path id="DejaVuSans-38" d="M 2034 2216 
Q 1584 2216 1326 1975 
Q 1069 1734 1069 1313 
Q 1069 891 1326 650 
Q 1584 409 2034 409 
Q 2484 409 2743 651 
Q 3003 894 3003 1313 
Q 3003 1734 2745 1975 
Q 2488 2216 2034 2216 
z
M 1403 2484 
Q 997 2584 770 2862 
Q 544 3141 544 3541 
Q 544 4100 942 4425 
Q 1341 4750 2034 4750 
Q 2731 4750 3128 4425 
Q 3525 4100 3525 3541 
Q 3525 3141 3298 2862 
Q 3072 2584 2669 2484 
Q 3125 2378 3379 2068 
Q 3634 1759 3634 1313 
Q 3634 634 3220 271 
Q 2806 -91 2034 -91 
Q 1263 -91 848 271 
Q 434 634 434 1313 
Q 434 1759 690 2068 
Q 947 2378 1403 2484 
z
M 1172 3481 
Q 1172 3119 1398 2916 
Q 1625 2713 2034 2713 
Q 2441 2713 2670 2916 
Q 2900 3119 2900 3481 
Q 2900 3844 2670 4047 
Q 2441 4250 2034 4250 
Q 1625 4250 1398 4047 
Q 1172 3844 1172 3481 
z
" transform="scale(0.015625)"/>
       </defs>
       <use xlink:href="#DejaVuSans-30"/>
       <use xlink:href="#DejaVuSans-2e" x="63.623047"/>
       <use xlink:href="#DejaVuSans-38" x="95.410156"/>
      </g>
     </g>
    </g>
    <g id="xtick_6">
     <g id="line2d_6">
      <g>
       <use xlink:href="#mb4df7ecaeb" x="384.668523" y="273.312" style="stroke: #000000; stroke-width: 0.8"/>
      </g>
     </g>
     <g id="text_6">
      <!-- 1.0 -->
      <g transform="translate(376.71696 287.910437)scale(0.1 -0.1)">
       <defs>
        <path id="DejaVuSans-31" d="M 794 531 
L 1825 531 
L 1825 4091 
L 703 3866 
L 703 4441 
L 1819 4666 
L 2450 4666 
L 2450 531 
L 3481 531 
L 3481 0 
L 794 0 
L 794 531 
z
" transform="scale(0.015625)"/>
       </defs>
       <use xlink:href="#DejaVuSans-31"/>
       <use xlink:href="#DejaVuSans-2e" x="63.623047"/>
       <use xlink:href="#DejaVuSans-30" x="95.410156"/>
      </g>
     </g>
    </g>
    <g id="text_7">
     <!-- Propagation direction -->
     <g transform="translate(168.859219 301.588562)scale(0.1 -0.1)">
      <defs>
       <path id="DejaVuSans-50" d="M 1259 4147 
L 1259 2394 
L 2053 2394 
Q 2494 2394 2734 2622 
Q 2975 2850 2975 3272 
Q 2975 3691 2734 3919 
Q 2494 4147 2053 4147 
L 1259 4147 
z
M 628 4666 
L 2053 4666 
Q 2838 4666 3239 4311 
Q 3641 3956 3641 3272 
Q 3641 2581 3239 2228 
Q 2838 1875 2053 1875 
L 1259 1875 
L 1259 0 
L 628 0 
L 628 4666 
z
" transform="scale(0.015625)"/>
       <path id="DejaVuSans-72" d="M 2631 2963 
Q 2534 3019 2420 3045 
Q 2306 3072 2169 3072 
Q 1681 3072 1420 2755 
Q 1159 2438 1159 1844 
L 1159 0 
L 581 0 
L 581 3500 
L 1159 3500 
L 1159 2956 
Q 1341 3275 1631 3429 
Q 1922 3584 2338 3584 
Q 2397 3584 2469 3576 
Q 2541 3569 2628 3553 
L 2631 2963 
z
" transform="scale(0.015625)"/>
       <path id="DejaVuSans-6f" d="M 1959 3097 
Q 1497 3097 1228 2736 
Q 959 2375 959 1747 
Q 959 1119 1226 758 
Q 1494 397 1959 397 
Q 2419 397 2687 759 
Q 2956 1122 2956 1747 
Q 2956 2369 2687 2733 
Q 2419 3097 1959 3097 
z
M 1959 3584 
Q 2709 3584 3137 3096 
Q 3566 2609 3566 1747 
Q 3566 888 3137 398 
Q 2709 -91 1959 -91 
Q 1206 -91 779 398 
Q 353 888 353 1747 
Q 353 2609 779 3096 
Q 1206 3584 1959 3584 
z
" transform="scale(0.015625)"/>
       <path id="DejaVuSans-70" d="M 1159 525 
L 1159 -1331 
L 581 -1331 
L 581 3500 
L 1159 3500 
L 1159 2969 
Q 1341 3281 1617 3432 
Q 1894 3584 2278 3584 
Q 2916 3584 3314 3078 
Q 3713 2572 3713 1747 
Q 3713 922 3314 415 
Q 2916 -91 2278 -91 
Q 1894 -91 1617 61 
Q 1341 213 1159 525 
z
M 3116 1747 
Q 3116 2381 2855 2742 
Q 2594 3103 2138 3103 
Q 1681 3103 1420 2742 
Q 1159 2381 1159 1747 
Q 1159 1113 1420 752 
Q 1681 391 2138 391 
Q 2594 391 2855 752 
Q 3116 1113 3116 1747 
z
" transform="scale(0.015625)"/>
       <path id="DejaVuSans-61" d="M 2194 1759 
Q 1497 1759 1228 1600 
Q 959 1441 959 1056 
Q 959 750 1161 570 
Q 1363 391 1709 391 
Q 2188 391 2477 730 
Q 2766 1069 2766 1631 
L 2766 1759 
L 2194 1759 
z
M 3341 1997 
L 3341 0 
L 2766 0 
L 2766 531 
Q 2569 213 2275 61 
Q 1981 -91 1556 -91 
Q 1019 -91 701 211 
Q 384 513 384 1019 
Q 384 1609 779 1909 
Q 1175 2209 1959 2209 
L 2766 2209 
L 2766 2266 
Q 2766 2663 2505 2880 
Q 2244 3097 1772 3097 
Q 1472 3097 1187 3025 
Q 903 2953 641 2809 
L 641 3341 
Q 956 3463 1253 3523 
Q 1550 3584 1831 3584 
Q 2591 3584 2966 3190 
Q 3341 2797 3341 1997 
z
" transform="scale(0.015625)"/>
       <path id="DejaVuSans-67" d="M 2906 1791 
Q 2906 2416 2648 2759 
Q 2391 3103 1925 3103 
Q 1463 3103 1205 2759 
Q 947 2416 947 1791 
Q 947 1169 1205 825 
Q 1463 481 1925 481 
Q 2391 481 2648 825 
Q 2906 1169 2906 1791 
z
M 3481 434 
Q 3481 -459 3084 -895 
Q 2688 -1331 1869 -1331 
Q 1566 -1331 1297 -1286 
Q 1028 -1241 775 -1147 
L 775 -588 
Q 1028 -725 1275 -790 
Q 1522 -856 1778 -856 
Q 2344 -856 2625 -561 
Q 2906 -266 2906 331 
L 2906 616 
Q 2728 306 2450 153 
Q 2172 0 1784 0 
Q 1141 0 747 490 
Q 353 981 353 1791 
Q 353 2603 747 3093 
Q 1141 3584 1784 3584 
Q 2172 3584 2450 3431 
Q 2728 3278 2906 2969 
L 2906 3500 
L 3481 3500 
L 3481 434 
z
" transform="scale(0.015625)"/>
       <path id="DejaVuSans-74" d="M 1172 4494 
L 1172 3500 
L 2356 3500 
L 2356 3053 
L 1172 3053 
L 1172 1153 
Q 1172 725 1289 603 
Q 1406 481 1766 481 
L 2356 481 
L 2356 0 
L 1766 0 
Q 1100 0 847 248 
Q 594 497 594 1153 
L 594 3053 
L 172 3053 
L 172 3500 
L 594 3500 
L 594 4494 
L 1172 4494 
z
" transform="scale(0.015625)"/>
       <path id="DejaVuSans-69" d="M 603 3500 
L 1178 3500 
L 1178 0 
L 603 0 
L 603 3500 
z
M 603 4863 
L 1178 4863 
L 1178 4134 
L 603 4134 
L 603 4863 
z
" transform="scale(0.015625)"/>
       <path id="DejaVuSans-6e" d="M 3513 2113 
L 3513 0 
L 2938 0 
L 2938 2094 
Q 2938 2591 2744 2837 
Q 2550 3084 2163 3084 
Q 1697 3084 1428 2787 
Q 1159 2491 1159 1978 
L 1159 0 
L 581 0 
L 581 3500 
L 1159 3500 
L 1159 2956 
Q 1366 3272 1645 3428 
Q 1925 3584 2291 3584 
Q 2894 3584 3203 3211 
Q 3513 2838 3513 2113 
z
" transform="scale(0.015625)"/>
       <path id="DejaVuSans-20" transform="scale(0.015625)"/>
       <path id="DejaVuSans-64" d="M 2906 2969 
L 2906 4863 
L 3481 4863 
L 3481 0 
L 2906 0 
L 2906 525 
Q 2725 213 2448 61 
Q 2172 -91 1784 -91 
Q 1150 -91 751 415 
Q 353 922 353 1747 
Q 353 2572 751 3078 
Q 1150 3584 1784 3584 
Q 2172 3584 2448 3432 
Q 2725 3281 2906 2969 
z
M 947 1747 
Q 947 1113 1208 752 
Q 1469 391 1925 391 
Q 2381 391 2643 752 
Q 2906 1113 2906 1747 
Q 2906 2381 2643 2742 
Q 2381 3103 1925 3103 
Q 1469 3103 1208 2742 
Q 947 2381 947 1747 
z
" transform="scale(0.015625)"/>
       <path id="DejaVuSans-65" d="M 3597 1894 
L 3597 1613 
L 953 1613 
Q 991 1019 1311 708 
Q 1631 397 2203 397 
Q 2534 397 2845 478 
Q 3156 559 3463 722 
L 3463 178 
Q 3153 47 2828 -22 
Q 2503 -91 2169 -91 
Q 1331 -91 842 396 
Q 353 884 353 1716 
Q 353 2575 817 3079 
Q 1281 3584 2069 3584 
Q 2775 3584 3186 3129 
Q 3597 2675 3597 1894 
z
M 3022 2063 
Q 3016 2534 2758 2815 
Q 2500 3097 2075 3097 
Q 1594 3097 1305 2825 
Q 1016 2553 972 2059 
L 3022 2063 
z
" transform="scale(0.015625)"/>
       <path id="DejaVuSans-63" d="M 3122 3366 
L 3122 2828 
Q 2878 2963 2633 3030 
Q 2388 3097 2138 3097 
Q 1578 3097 1268 2742 
Q 959 2388 959 1747 
Q 959 1106 1268 751 
Q 1578 397 2138 397 
Q 2388 397 2633 464 
Q 2878 531 3122 666 
L 3122 134 
Q 2881 22 2623 -34 
Q 2366 -91 2075 -91 
Q 1284 -91 818 406 
Q 353 903 353 1747 
Q 353 2603 823 3093 
Q 1294 3584 2113 3584 
Q 2378 3584 2631 3529 
Q 2884 3475 3122 3366 
z
" transform="scale(0.015625)"/>
      </defs>
      <use xlink:href="#DejaVuSans-50"/>
      <use xlink:href="#DejaVuSans-72" x="58.552734"/>
      <use xlink:href="#DejaVuSans-6f" x="97.416016"/>
      <use xlink:href="#DejaVuSans-70" x="158.597656"/>
      <use xlink:href="#DejaVuSans-61" x="222.074219"/>
      <use xlink:href="#DejaVuSans-67" x="283.353516"/>
      <use xlink:href="#DejaVuSans-61" x="346.830078"/>
      <use xlink:href="#DejaVuSans-74" x="408.109375"/>
      <use xlink:href="#DejaVuSans-69" x="447.318359"/>
      <use xlink:href="#DejaVuSans-6f" x="475.101562"/>
      <use xlink:href="#DejaVuSans-6e" x="536.283203"/>
      <use xlink:href="#DejaVuSans-20" x="599.662109"/>
      <use xlink:href="#DejaVuSans-64" x="631.449219"/>
      <use xlink:href="#DejaVuSans-69" x="694.925781"/>
      <use xlink:href="#DejaVuSans-72" x="722.708984"/>
      <use xlink:href="#DejaVuSans-65" x="761.572266"/>
      <use xlink:href="#DejaVuSans-63" x="823.095703"/>
      <use xlink:href="#DejaVuSans-74" x="878.076172"/>
      <use xlink:href="#DejaVuSans-69" x="917.285156"/>
      <use xlink:href="#DejaVuSans-6f" x="945.068359"/>
      <use xlink:href="#DejaVuSans-6e" x="1006.25"/>
     </g>
    </g>
   </g>
   <g id="matplotlib.axis_2">
    <g id="ytick_1">
     <g id="line2d_7">
      <defs>
       <path id="mfa645d8259" d="M 0 0 
L -3.5 0 
" style="stroke: #000000; stroke-width: 0.8"/>
      </defs>
      <g>
       <use xlink:href="#mfa645d8259" x="43.78125" y="273.312" style="stroke: #000000; stroke-width: 0.8"/>
      </g>
     </g>
     <g id="text_8">
      <!-- 0.0 -->
      <g transform="translate(20.878125 277.111219)scale(0.1 -0.1)">
       <use xlink:href="#DejaVuSans-30"/>
       <use xlink:href="#DejaVuSans-2e" x="63.623047"/>
       <use xlink:href="#DejaVuSans-30" x="95.410156"/>
      </g>
     </g>
    </g>
    <g id="ytick_2">
     <g id="line2d_8">
      <g>
       <use xlink:href="#mfa645d8259" x="43.78125" y="214.177757" style="stroke: #000000; stroke-width: 0.8"/>
      </g>
     </g>
     <g id="text_9">
      <!-- 0.5 -->
      <g transform="translate(20.878125 217.976976)scale(0.1 -0.1)">
       <defs>
        <path id="DejaVuSans-35" d="M 691 4666 
L 3169 4666 
L 3169 4134 
L 1269 4134 
L 1269 2991 
Q 1406 3038 1543 3061 
Q 1681 3084 1819 3084 
Q 2600 3084 3056 2656 
Q 3513 2228 3513 1497 
Q 3513 744 3044 326 
Q 2575 -91 1722 -91 
Q 1428 -91 1123 -41 
Q 819 9 494 109 
L 494 744 
Q 775 591 1075 516 
Q 1375 441 1709 441 
Q 2250 441 2565 725 
Q 2881 1009 2881 1497 
Q 2881 1984 2565 2268 
Q 2250 2553 1709 2553 
Q 1456 2553 1204 2497 
Q 953 2441 691 2322 
L 691 4666 
z
" transform="scale(0.015625)"/>
       </defs>
       <use xlink:href="#DejaVuSans-30"/>
       <use xlink:href="#DejaVuSans-2e" x="63.623047"/>
       <use xlink:href="#DejaVuSans-35" x="95.410156"/>
      </g>
     </g>
    </g>
    <g id="ytick_3">
     <g id="line2d_9">
      <g>
       <use xlink:href="#mfa645d8259" x="43.78125" y="155.043514" style="stroke: #000000; stroke-width: 0.8"/>
      </g>
     </g>
     <g id="text_10">
      <!-- 1.0 -->
      <g transform="translate(20.878125 158.842733)scale(0.1 -0.1)">
       <use xlink:href="#DejaVuSans-31"/>
       <use xlink:href="#DejaVuSans-2e" x="63.623047"/>
       <use xlink:href="#DejaVuSans-30" x="95.410156"/>
      </g>
     </g>
    </g>
    <g id="ytick_4">
     <g id="line2d_10">
      <g>
       <use xlink:href="#mfa645d8259" x="43.78125" y="95.909271" style="stroke: #000000; stroke-width: 0.8"/>
      </g>
     </g>
     <g id="text_11">
      <!-- 1.5 -->
      <g transform="translate(20.878125 99.70849)scale(0.1 -0.1)">
       <use xlink:href="#DejaVuSans-31"/>
       <use xlink:href="#DejaVuSans-2e" x="63.623047"/>
       <use xlink:href="#DejaVuSans-35" x="95.410156"/>
      </g>
     </g>
    </g>
    <g id="ytick_5">
     <g id="line2d_11">
      <g>
       <use xlink:href="#mfa645d8259" x="43.78125" y="36.775028" style="stroke: #000000; stroke-width: 0.8"/>
      </g>
     </g>
     <g id="text_12">
      <!-- 2.0 -->
      <g transform="translate(20.878125 40.574247)scale(0.1 -0.1)">
       <use xlink:href="#DejaVuSans-32"/>
       <use xlink:href="#DejaVuSans-2e" x="63.623047"/>
       <use xlink:href="#DejaVuSans-30" x="95.410156"/>
      </g>
     </g>
    </g>
    <g id="text_13">
     <!-- Probability density -->
     <g transform="translate(14.798438 186.606781)rotate(-90)scale(0.1 -0.1)">
      <defs>
       <path id="DejaVuSans-62" d="M 3116 1747 
Q 3116 2381 2855 2742 
Q 2594 3103 2138 3103 
Q 1681 3103 1420 2742 
Q 1159 2381 1159 1747 
Q 1159 1113 1420 752 
Q 1681 391 2138 391 
Q 2594 391 2855 752 
Q 3116 1113 3116 1747 
z
M 1159 2969 
Q 1341 3281 1617 3432 
Q 1894 3584 2278 3584 
Q 2916 3584 3314 3078 
Q 3713 2572 3713 1747 
Q 3713 922 3314 415 
Q 2916 -91 2278 -91 
Q 1894 -91 1617 61 
Q 1341 213 1159 525 
L 1159 0 
L 581 0 
L 581 4863 
L 1159 4863 
L 1159 2969 
z
" transform="scale(0.015625)"/>
       <path id="DejaVuSans-6c" d="M 603 4863 
L 1178 4863 
L 1178 0 
L 603 0 
L 603 4863 
z
" transform="scale(0.015625)"/>
       <path id="DejaVuSans-79" d="M 2059 -325 
Q 1816 -950 1584 -1140 
Q 1353 -1331 966 -1331 
L 506 -1331 
L 506 -850 
L 844 -850 
Q 1081 -850 1212 -737 
Q 1344 -625 1503 -206 
L 1606 56 
L 191 3500 
L 800 3500 
L 1894 763 
L 2988 3500 
L 3597 3500 
L 2059 -325 
z
" transform="scale(0.015625)"/>
       <path id="DejaVuSans-73" d="M 2834 3397 
L 2834 2853 
Q 2591 2978 2328 3040 
Q 2066 3103 1784 3103 
Q 1356 3103 1142 2972 
Q 928 2841 928 2578 
Q 928 2378 1081 2264 
Q 1234 2150 1697 2047 
L 1894 2003 
Q 2506 1872 2764 1633 
Q 3022 1394 3022 966 
Q 3022 478 2636 193 
Q 2250 -91 1575 -91 
Q 1294 -91 989 -36 
Q 684 19 347 128 
L 347 722 
Q 666 556 975 473 
Q 1284 391 1588 391 
Q 1994 391 2212 530 
Q 2431 669 2431 922 
Q 2431 1156 2273 1281 
Q 2116 1406 1581 1522 
L 1381 1569 
Q 847 1681 609 1914 
Q 372 2147 372 2553 
Q 372 3047 722 3315 
Q 1072 3584 1716 3584 
Q 2034 3584 2315 3537 
Q 2597 3491 2834 3397 
z
" transform="scale(0.015625)"/>
      </defs>
      <use xlink:href="#DejaVuSans-50"/>
      <use xlink:href="#DejaVuSans-72" x="58.552734"/>
      <use xlink:href="#DejaVuSans-6f" x="97.416016"/>
      <use xlink:href="#DejaVuSans-62" x="158.597656"/>
      <use xlink:href="#DejaVuSans-61" x="222.074219"/>
      <use xlink:href="#DejaVuSans-62" x="283.353516"/>
      <use xlink:href="#DejaVuSans-69" x="346.830078"/>
      <use xlink:href="#DejaVuSans-6c" x="374.613281"/>
      <use xlink:href="#DejaVuSans-69" x="402.396484"/>
      <use xlink:href="#DejaVuSans-74" x="430.179688"/>
      <use xlink:href="#DejaVuSans-79" x="469.388672"/>
      <use xlink:href="#DejaVuSans-20" x="528.568359"/>
      <use xlink:href="#DejaVuSans-64" x="560.355469"/>
      <use xlink:href="#DejaVuSans-65" x="623.832031"/>
      <use xlink:href="#DejaVuSans-6e" x="685.355469"/>
      <use xlink:href="#DejaVuSans-73" x="748.734375"/>
      <use xlink:href="#DejaVuSans-69" x="800.833984"/>
      <use xlink:href="#DejaVuSans-74" x="828.617188"/>
      <use xlink:href="#DejaVuSans-79" x="867.826172"/>
     </g>
    </g>
   </g>
   <g id="line2d_12">
    <path d="M 60.013977 273.312 
L 384.668523 36.775028 
L 384.668523 36.775028 
" clip-path="url(#pe3e6ab67c1)" style="fill: none; stroke: #ff7f0e; stroke-width: 1.5; stroke-linecap: square"/>
   </g>
   <g id="patch_203">
    <path d="M 43.78125 273.312 
L 43.78125 7.2 
" style="fill: none; stroke: #000000; stroke-width: 0.8; stroke-linejoin: miter; stroke-linecap: square"/>
   </g>
   <g id="patch_204">
    <path d="M 400.90125 273.312 
L 400.90125 7.2 
" style="fill: none; stroke: #000000; stroke-width: 0.8; stroke-linejoin: miter; stroke-linecap: square"/>
   </g>
   <g id="patch_205">
    <path d="M 43.78125 273.312 
L 400.90125 273.312 
" style="fill: none; stroke: #000000; stroke-width: 0.8; stroke-linejoin: miter; stroke-linecap: square"/>
   </g>
   <g id="patch_206">
    <path d="M 43.78125 7.2 
L 400.90125 7.2 
" style="fill: none; stroke: #000000; stroke-width: 0.8; stroke-linejoin: miter; stroke-linecap: square"/>
   </g>
  </g>
 </g>
 <defs>
  <clipPath id="pe3e6ab67c1">
   <rect x="43.78125" y="7.2" width="357.12" height="266.112"/>
  </clipPath>
 </defs>
</svg>
