<?xml version="1.0" encoding="utf-8" standalone="no"?>
<!DOCTYPE svg PUBLIC "-//W3C//DTD SVG 1.1//EN"
  "http://www.w3.org/Graphics/SVG/1.1/DTD/svg11.dtd">
<svg xmlns:xlink="http://www.w3.org/1999/xlink" width="408.10125pt" height="310.86825pt" viewBox="0 0 408.10125 310.86825" xmlns="http://www.w3.org/2000/svg" version="1.1">
 <metadata>
  <rdf:RDF xmlns:dc="http://purl.org/dc/elements/1.1/" xmlns:cc="http://creativecommons.org/ns#" xmlns:rdf="http://www.w3.org/1999/02/22-rdf-syntax-ns#">
   <cc:Work>
    <dc:type rdf:resource="http://purl.org/dc/dcmitype/StillImage"/>
    <dc:date>2022-05-16T15:20:18.013802</dc:date>
    <dc:format>image/svg+xml</dc:format>
    <dc:creator>
     <cc:Agent>
      <dc:title>Matplotlib v3.5.2, https://matplotlib.org/</dc:title>
     </cc:Agent>
    </dc:creator>
   </cc:Work>
  </rdf:RDF>
 </metadata>
 <defs>
  <style type="text/css">*{stroke-linejoin: round; stroke-linecap: butt}</style>
 </defs>
 <g id="figure_1">
  <g id="patch_1">
   <path d="M 0 310.86825 
L 408.10125 310.86825 
L 408.10125 0 
L 0 0 
z
" style="fill: #ffffff"/>
  </g>
  <g id="axes_1">
   <g id="patch_2">
    <path d="M 43.78125 273.312 
L 400.90125 273.312 
L 400.90125 7.2 
L 43.78125 7.2 
z
" style="fill: #ffffff"/>
   </g>
   <g id="patch_3">
    <path d="M 61.67913 273.312 
L 63.292342 273.312 
L 63.292342 265.063953 
L 61.67913 265.063953 
z
" clip-path="url(#p586a5c2f7d)" style="fill: #1f77b4"/>
   </g>
   <g id="patch_4">
    <path d="M 63.292342 273.312 
L 64.905553 273.312 
L 64.905553 267.31342 
L 63.292342 267.31342 
z
" clip-path="url(#p586a5c2f7d)" style="fill: #1f77b4"/>
   </g>
   <g id="patch_5">
    <path d="M 64.905553 273.312 
L 66.518765 273.312 
L 66.518765 261.31484 
L 64.905553 261.31484 
z
" clip-path="url(#p586a5c2f7d)" style="fill: #1f77b4"/>
   </g>
   <g id="patch_6">
    <path d="M 66.518765 273.312 
L 68.131977 273.312 
L 68.131977 249.31768 
L 66.518765 249.31768 
z
" clip-path="url(#p586a5c2f7d)" style="fill: #1f77b4"/>
   </g>
   <g id="patch_7">
    <path d="M 68.131977 273.312 
L 69.745188 273.312 
L 69.745188 247.068213 
L 68.131977 247.068213 
z
" clip-path="url(#p586a5c2f7d)" style="fill: #1f77b4"/>
   </g>
   <g id="patch_8">
    <path d="M 69.745188 273.312 
L 71.3584 273.312 
L 71.3584 253.816615 
L 69.745188 253.816615 
z
" clip-path="url(#p586a5c2f7d)" style="fill: #1f77b4"/>
   </g>
   <g id="patch_9">
    <path d="M 71.3584 273.312 
L 72.971612 273.312 
L 72.971612 245.568568 
L 71.3584 245.568568 
z
" clip-path="url(#p586a5c2f7d)" style="fill: #1f77b4"/>
   </g>
   <g id="patch_10">
    <path d="M 72.971612 273.312 
L 74.584823 273.312 
L 74.584823 247.068213 
L 72.971612 247.068213 
z
" clip-path="url(#p586a5c2f7d)" style="fill: #1f77b4"/>
   </g>
   <g id="patch_11">
    <path d="M 74.584823 273.312 
L 76.198035 273.312 
L 76.198035 244.818746 
L 74.584823 244.818746 
z
" clip-path="url(#p586a5c2f7d)" style="fill: #1f77b4"/>
   </g>
   <g id="patch_12">
    <path d="M 76.198035 273.312 
L 77.811247 273.312 
L 77.811247 229.072473 
L 76.198035 229.072473 
z
" clip-path="url(#p586a5c2f7d)" style="fill: #1f77b4"/>
   </g>
   <g id="patch_13">
    <path d="M 77.811247 273.312 
L 79.424458 273.312 
L 79.424458 235.071053 
L 77.811247 235.071053 
z
" clip-path="url(#p586a5c2f7d)" style="fill: #1f77b4"/>
   </g>
   <g id="patch_14">
    <path d="M 79.424458 273.312 
L 81.03767 273.312 
L 81.03767 226.073183 
L 79.424458 226.073183 
z
" clip-path="url(#p586a5c2f7d)" style="fill: #1f77b4"/>
   </g>
   <g id="patch_15">
    <path d="M 81.03767 273.312 
L 82.650881 273.312 
L 82.650881 233.571408 
L 81.03767 233.571408 
z
" clip-path="url(#p586a5c2f7d)" style="fill: #1f77b4"/>
   </g>
   <g id="patch_16">
    <path d="M 82.650881 273.312 
L 84.264093 273.312 
L 84.264093 229.072473 
L 82.650881 229.072473 
z
" clip-path="url(#p586a5c2f7d)" style="fill: #1f77b4"/>
   </g>
   <g id="patch_17">
    <path d="M 84.264093 273.312 
L 85.877305 273.312 
L 85.877305 216.325491 
L 84.264093 216.325491 
z
" clip-path="url(#p586a5c2f7d)" style="fill: #1f77b4"/>
   </g>
   <g id="patch_18">
    <path d="M 85.877305 273.312 
L 87.490516 273.312 
L 87.490516 217.825136 
L 85.877305 217.825136 
z
" clip-path="url(#p586a5c2f7d)" style="fill: #1f77b4"/>
   </g>
   <g id="patch_19">
    <path d="M 87.490516 273.312 
L 89.103728 273.312 
L 89.103728 213.326201 
L 87.490516 213.326201 
z
" clip-path="url(#p586a5c2f7d)" style="fill: #1f77b4"/>
   </g>
   <g id="patch_20">
    <path d="M 89.103728 273.312 
L 90.71694 273.312 
L 90.71694 202.078864 
L 89.103728 202.078864 
z
" clip-path="url(#p586a5c2f7d)" style="fill: #1f77b4"/>
   </g>
   <g id="patch_21">
    <path d="M 90.71694 273.312 
L 92.330151 273.312 
L 92.330151 207.327621 
L 90.71694 207.327621 
z
" clip-path="url(#p586a5c2f7d)" style="fill: #1f77b4"/>
   </g>
   <g id="patch_22">
    <path d="M 92.330151 273.312 
L 93.943363 273.312 
L 93.943363 205.827976 
L 92.330151 205.827976 
z
" clip-path="url(#p586a5c2f7d)" style="fill: #1f77b4"/>
   </g>
   <g id="patch_23">
    <path d="M 93.943363 273.312 
L 95.556575 273.312 
L 95.556575 199.829396 
L 93.943363 199.829396 
z
" clip-path="url(#p586a5c2f7d)" style="fill: #1f77b4"/>
   </g>
   <g id="patch_24">
    <path d="M 95.556575 273.312 
L 97.169786 273.312 
L 97.169786 193.830817 
L 95.556575 193.830817 
z
" clip-path="url(#p586a5c2f7d)" style="fill: #1f77b4"/>
   </g>
   <g id="patch_25">
    <path d="M 97.169786 273.312 
L 98.782998 273.312 
L 98.782998 194.580639 
L 97.169786 194.580639 
z
" clip-path="url(#p586a5c2f7d)" style="fill: #1f77b4"/>
   </g>
   <g id="patch_26">
    <path d="M 98.782998 273.312 
L 100.39621 273.312 
L 100.39621 170.58632 
L 98.782998 170.58632 
z
" clip-path="url(#p586a5c2f7d)" style="fill: #1f77b4"/>
   </g>
   <g id="patch_27">
    <path d="M 100.39621 273.312 
L 102.009421 273.312 
L 102.009421 176.584899 
L 100.39621 176.584899 
z
" clip-path="url(#p586a5c2f7d)" style="fill: #1f77b4"/>
   </g>
   <g id="patch_28">
    <path d="M 102.009421 273.312 
L 103.622633 273.312 
L 103.622633 172.085964 
L 102.009421 172.085964 
z
" clip-path="url(#p586a5c2f7d)" style="fill: #1f77b4"/>
   </g>
   <g id="patch_29">
    <path d="M 103.622633 273.312 
L 105.235844 273.312 
L 105.235844 169.086675 
L 103.622633 169.086675 
z
" clip-path="url(#p586a5c2f7d)" style="fill: #1f77b4"/>
   </g>
   <g id="patch_30">
    <path d="M 105.235844 273.312 
L 106.849056 273.312 
L 106.849056 171.336142 
L 105.235844 171.336142 
z
" clip-path="url(#p586a5c2f7d)" style="fill: #1f77b4"/>
   </g>
   <g id="patch_31">
    <path d="M 106.849056 273.312 
L 108.462268 273.312 
L 108.462268 169.086675 
L 106.849056 169.086675 
z
" clip-path="url(#p586a5c2f7d)" style="fill: #1f77b4"/>
   </g>
   <g id="patch_32">
    <path d="M 108.462268 273.312 
L 110.075479 273.312 
L 110.075479 173.585609 
L 108.462268 173.585609 
z
" clip-path="url(#p586a5c2f7d)" style="fill: #1f77b4"/>
   </g>
   <g id="patch_33">
    <path d="M 110.075479 273.312 
L 111.688691 273.312 
L 111.688691 170.58632 
L 110.075479 170.58632 
z
" clip-path="url(#p586a5c2f7d)" style="fill: #1f77b4"/>
   </g>
   <g id="patch_34">
    <path d="M 111.688691 273.312 
L 113.301903 273.312 
L 113.301903 172.085964 
L 111.688691 172.085964 
z
" clip-path="url(#p586a5c2f7d)" style="fill: #1f77b4"/>
   </g>
   <g id="patch_35">
    <path d="M 113.301903 273.312 
L 114.915114 273.312 
L 114.915114 157.839337 
L 113.301903 157.839337 
z
" clip-path="url(#p586a5c2f7d)" style="fill: #1f77b4"/>
   </g>
   <g id="patch_36">
    <path d="M 114.915114 273.312 
L 116.528326 273.312 
L 116.528326 155.58987 
L 114.915114 155.58987 
z
" clip-path="url(#p586a5c2f7d)" style="fill: #1f77b4"/>
   </g>
   <g id="patch_37">
    <path d="M 116.528326 273.312 
L 118.141538 273.312 
L 118.141538 143.59271 
L 116.528326 143.59271 
z
" clip-path="url(#p586a5c2f7d)" style="fill: #1f77b4"/>
   </g>
   <g id="patch_38">
    <path d="M 118.141538 273.312 
L 119.754749 273.312 
L 119.754749 151.840757 
L 118.141538 151.840757 
z
" clip-path="url(#p586a5c2f7d)" style="fill: #1f77b4"/>
   </g>
   <g id="patch_39">
    <path d="M 119.754749 273.312 
L 121.367961 273.312 
L 121.367961 165.337562 
L 119.754749 165.337562 
z
" clip-path="url(#p586a5c2f7d)" style="fill: #1f77b4"/>
   </g>
   <g id="patch_40">
    <path d="M 121.367961 273.312 
L 122.981172 273.312 
L 122.981172 145.842178 
L 121.367961 145.842178 
z
" clip-path="url(#p586a5c2f7d)" style="fill: #1f77b4"/>
   </g>
   <g id="patch_41">
    <path d="M 122.981172 273.312 
L 124.594384 273.312 
L 124.594384 136.094485 
L 122.981172 136.094485 
z
" clip-path="url(#p586a5c2f7d)" style="fill: #1f77b4"/>
   </g>
   <g id="patch_42">
    <path d="M 124.594384 273.312 
L 126.207596 273.312 
L 126.207596 140.59342 
L 124.594384 140.59342 
z
" clip-path="url(#p586a5c2f7d)" style="fill: #1f77b4"/>
   </g>
   <g id="patch_43">
    <path d="M 126.207596 273.312 
L 127.820807 273.312 
L 127.820807 143.59271 
L 126.207596 143.59271 
z
" clip-path="url(#p586a5c2f7d)" style="fill: #1f77b4"/>
   </g>
   <g id="patch_44">
    <path d="M 127.820807 273.312 
L 129.434019 273.312 
L 129.434019 132.345373 
L 127.820807 132.345373 
z
" clip-path="url(#p586a5c2f7d)" style="fill: #1f77b4"/>
   </g>
   <g id="patch_45">
    <path d="M 129.434019 273.312 
L 131.047231 273.312 
L 131.047231 121.847858 
L 129.434019 121.847858 
z
" clip-path="url(#p586a5c2f7d)" style="fill: #1f77b4"/>
   </g>
   <g id="patch_46">
    <path d="M 131.047231 273.312 
L 132.660442 273.312 
L 132.660442 124.847148 
L 131.047231 124.847148 
z
" clip-path="url(#p586a5c2f7d)" style="fill: #1f77b4"/>
   </g>
   <g id="patch_47">
    <path d="M 132.660442 273.312 
L 134.273654 273.312 
L 134.273654 96.353893 
L 132.660442 96.353893 
z
" clip-path="url(#p586a5c2f7d)" style="fill: #1f77b4"/>
   </g>
   <g id="patch_48">
    <path d="M 134.273654 273.312 
L 135.886866 273.312 
L 135.886866 99.353183 
L 134.273654 99.353183 
z
" clip-path="url(#p586a5c2f7d)" style="fill: #1f77b4"/>
   </g>
   <g id="patch_49">
    <path d="M 135.886866 273.312 
L 137.500077 273.312 
L 137.500077 109.850698 
L 135.886866 109.850698 
z
" clip-path="url(#p586a5c2f7d)" style="fill: #1f77b4"/>
   </g>
   <g id="patch_50">
    <path d="M 137.500077 273.312 
L 139.113289 273.312 
L 139.113289 115.849278 
L 137.500077 115.849278 
z
" clip-path="url(#p586a5c2f7d)" style="fill: #1f77b4"/>
   </g>
   <g id="patch_51">
    <path d="M 139.113289 273.312 
L 140.726501 273.312 
L 140.726501 117.348923 
L 139.113289 117.348923 
z
" clip-path="url(#p586a5c2f7d)" style="fill: #1f77b4"/>
   </g>
   <g id="patch_52">
    <path d="M 140.726501 273.312 
L 142.339712 273.312 
L 142.339712 107.601231 
L 140.726501 107.601231 
z
" clip-path="url(#p586a5c2f7d)" style="fill: #1f77b4"/>
   </g>
   <g id="patch_53">
    <path d="M 142.339712 273.312 
L 143.952924 273.312 
L 143.952924 97.103716 
L 142.339712 97.103716 
z
" clip-path="url(#p586a5c2f7d)" style="fill: #1f77b4"/>
   </g>
   <g id="patch_54">
    <path d="M 143.952924 273.312 
L 145.566135 273.312 
L 145.566135 124.097325 
L 143.952924 124.097325 
z
" clip-path="url(#p586a5c2f7d)" style="fill: #1f77b4"/>
   </g>
   <g id="patch_55">
    <path d="M 145.566135 273.312 
L 147.179347 273.312 
L 147.179347 78.358154 
L 145.566135 78.358154 
z
" clip-path="url(#p586a5c2f7d)" style="fill: #1f77b4"/>
   </g>
   <g id="patch_56">
    <path d="M 147.179347 273.312 
L 148.792559 273.312 
L 148.792559 94.104426 
L 147.179347 94.104426 
z
" clip-path="url(#p586a5c2f7d)" style="fill: #1f77b4"/>
   </g>
   <g id="patch_57">
    <path d="M 148.792559 273.312 
L 150.40577 273.312 
L 150.40577 83.606911 
L 148.792559 83.606911 
z
" clip-path="url(#p586a5c2f7d)" style="fill: #1f77b4"/>
   </g>
   <g id="patch_58">
    <path d="M 150.40577 273.312 
L 152.018982 273.312 
L 152.018982 101.602651 
L 150.40577 101.602651 
z
" clip-path="url(#p586a5c2f7d)" style="fill: #1f77b4"/>
   </g>
   <g id="patch_59">
    <path d="M 152.018982 273.312 
L 153.632194 273.312 
L 153.632194 72.359574 
L 152.018982 72.359574 
z
" clip-path="url(#p586a5c2f7d)" style="fill: #1f77b4"/>
   </g>
   <g id="patch_60">
    <path d="M 153.632194 273.312 
L 155.245405 273.312 
L 155.245405 86.606201 
L 153.632194 86.606201 
z
" clip-path="url(#p586a5c2f7d)" style="fill: #1f77b4"/>
   </g>
   <g id="patch_61">
    <path d="M 155.245405 273.312 
L 156.858617 273.312 
L 156.858617 80.607621 
L 155.245405 80.607621 
z
" clip-path="url(#p586a5c2f7d)" style="fill: #1f77b4"/>
   </g>
   <g id="patch_62">
    <path d="M 156.858617 273.312 
L 158.471829 273.312 
L 158.471829 58.112947 
L 156.858617 58.112947 
z
" clip-path="url(#p586a5c2f7d)" style="fill: #1f77b4"/>
   </g>
   <g id="patch_63">
    <path d="M 158.471829 273.312 
L 160.08504 273.312 
L 160.08504 86.606201 
L 158.471829 86.606201 
z
" clip-path="url(#p586a5c2f7d)" style="fill: #1f77b4"/>
   </g>
   <g id="patch_64">
    <path d="M 160.08504 273.312 
L 161.698252 273.312 
L 161.698252 74.609041 
L 160.08504 74.609041 
z
" clip-path="url(#p586a5c2f7d)" style="fill: #1f77b4"/>
   </g>
   <g id="patch_65">
    <path d="M 161.698252 273.312 
L 163.311464 273.312 
L 163.311464 74.609041 
L 161.698252 74.609041 
z
" clip-path="url(#p586a5c2f7d)" style="fill: #1f77b4"/>
   </g>
   <g id="patch_66">
    <path d="M 163.311464 273.312 
L 164.924675 273.312 
L 164.924675 61.112237 
L 163.311464 61.112237 
z
" clip-path="url(#p586a5c2f7d)" style="fill: #1f77b4"/>
   </g>
   <g id="patch_67">
    <path d="M 164.924675 273.312 
L 166.537887 273.312 
L 166.537887 81.357444 
L 164.924675 81.357444 
z
" clip-path="url(#p586a5c2f7d)" style="fill: #1f77b4"/>
   </g>
   <g id="patch_68">
    <path d="M 166.537887 273.312 
L 168.151098 273.312 
L 168.151098 81.357444 
L 166.537887 81.357444 
z
" clip-path="url(#p586a5c2f7d)" style="fill: #1f77b4"/>
   </g>
   <g id="patch_69">
    <path d="M 168.151098 273.312 
L 169.76431 273.312 
L 169.76431 70.110107 
L 168.151098 70.110107 
z
" clip-path="url(#p586a5c2f7d)" style="fill: #1f77b4"/>
   </g>
   <g id="patch_70">
    <path d="M 169.76431 273.312 
L 171.377522 273.312 
L 171.377522 49.864899 
L 169.76431 49.864899 
z
" clip-path="url(#p586a5c2f7d)" style="fill: #1f77b4"/>
   </g>
   <g id="patch_71">
    <path d="M 171.377522 273.312 
L 172.990733 273.312 
L 172.990733 91.105136 
L 171.377522 91.105136 
z
" clip-path="url(#p586a5c2f7d)" style="fill: #1f77b4"/>
   </g>
   <g id="patch_72">
    <path d="M 172.990733 273.312 
L 174.603945 273.312 
L 174.603945 82.107266 
L 172.990733 82.107266 
z
" clip-path="url(#p586a5c2f7d)" style="fill: #1f77b4"/>
   </g>
   <g id="patch_73">
    <path d="M 174.603945 273.312 
L 176.217157 273.312 
L 176.217157 55.113657 
L 174.603945 55.113657 
z
" clip-path="url(#p586a5c2f7d)" style="fill: #1f77b4"/>
   </g>
   <g id="patch_74">
    <path d="M 176.217157 273.312 
L 177.830368 273.312 
L 177.830368 48.365254 
L 176.217157 48.365254 
z
" clip-path="url(#p586a5c2f7d)" style="fill: #1f77b4"/>
   </g>
   <g id="patch_75">
    <path d="M 177.830368 273.312 
L 179.44358 273.312 
L 179.44358 64.111527 
L 177.830368 64.111527 
z
" clip-path="url(#p586a5c2f7d)" style="fill: #1f77b4"/>
   </g>
   <g id="patch_76">
    <path d="M 179.44358 273.312 
L 181.056792 273.312 
L 181.056792 56.613302 
L 179.44358 56.613302 
z
" clip-path="url(#p586a5c2f7d)" style="fill: #1f77b4"/>
   </g>
   <g id="patch_77">
    <path d="M 181.056792 273.312 
L 182.670003 273.312 
L 182.670003 72.359574 
L 181.056792 72.359574 
z
" clip-path="url(#p586a5c2f7d)" style="fill: #1f77b4"/>
   </g>
   <g id="patch_78">
    <path d="M 182.670003 273.312 
L 184.283215 273.312 
L 184.283215 73.859219 
L 182.670003 73.859219 
z
" clip-path="url(#p586a5c2f7d)" style="fill: #1f77b4"/>
   </g>
   <g id="patch_79">
    <path d="M 184.283215 273.312 
L 185.896426 273.312 
L 185.896426 51.364544 
L 184.283215 51.364544 
z
" clip-path="url(#p586a5c2f7d)" style="fill: #1f77b4"/>
   </g>
   <g id="patch_80">
    <path d="M 185.896426 273.312 
L 187.509638 273.312 
L 187.509638 47.615432 
L 185.896426 47.615432 
z
" clip-path="url(#p586a5c2f7d)" style="fill: #1f77b4"/>
   </g>
   <g id="patch_81">
    <path d="M 187.509638 273.312 
L 189.12285 273.312 
L 189.12285 43.116497 
L 187.509638 43.116497 
z
" clip-path="url(#p586a5c2f7d)" style="fill: #1f77b4"/>
   </g>
   <g id="patch_82">
    <path d="M 189.12285 273.312 
L 190.736061 273.312 
L 190.736061 38.617562 
L 189.12285 38.617562 
z
" clip-path="url(#p586a5c2f7d)" style="fill: #1f77b4"/>
   </g>
   <g id="patch_83">
    <path d="M 190.736061 273.312 
L 192.349273 273.312 
L 192.349273 46.865609 
L 190.736061 46.865609 
z
" clip-path="url(#p586a5c2f7d)" style="fill: #1f77b4"/>
   </g>
   <g id="patch_84">
    <path d="M 192.349273 273.312 
L 193.962485 273.312 
L 193.962485 54.363834 
L 192.349273 54.363834 
z
" clip-path="url(#p586a5c2f7d)" style="fill: #1f77b4"/>
   </g>
   <g id="patch_85">
    <path d="M 193.962485 273.312 
L 195.575696 273.312 
L 195.575696 61.112237 
L 193.962485 61.112237 
z
" clip-path="url(#p586a5c2f7d)" style="fill: #1f77b4"/>
   </g>
   <g id="patch_86">
    <path d="M 195.575696 273.312 
L 197.188908 273.312 
L 197.188908 40.117207 
L 195.575696 40.117207 
z
" clip-path="url(#p586a5c2f7d)" style="fill: #1f77b4"/>
   </g>
   <g id="patch_87">
    <path d="M 197.188908 273.312 
L 198.80212 273.312 
L 198.80212 46.865609 
L 197.188908 46.865609 
z
" clip-path="url(#p586a5c2f7d)" style="fill: #1f77b4"/>
   </g>
   <g id="patch_88">
    <path d="M 198.80212 273.312 
L 200.415331 273.312 
L 200.415331 52.114367 
L 198.80212 52.114367 
z
" clip-path="url(#p586a5c2f7d)" style="fill: #1f77b4"/>
   </g>
   <g id="patch_89">
    <path d="M 200.415331 273.312 
L 202.028543 273.312 
L 202.028543 40.86703 
L 200.415331 40.86703 
z
" clip-path="url(#p586a5c2f7d)" style="fill: #1f77b4"/>
   </g>
   <g id="patch_90">
    <path d="M 202.028543 273.312 
L 203.641755 273.312 
L 203.641755 52.864189 
L 202.028543 52.864189 
z
" clip-path="url(#p586a5c2f7d)" style="fill: #1f77b4"/>
   </g>
   <g id="patch_91">
    <path d="M 203.641755 273.312 
L 205.254966 273.312 
L 205.254966 34.86845 
L 203.641755 34.86845 
z
" clip-path="url(#p586a5c2f7d)" style="fill: #1f77b4"/>
   </g>
   <g id="patch_92">
    <path d="M 205.254966 273.312 
L 206.868178 273.312 
L 206.868178 53.614012 
L 205.254966 53.614012 
z
" clip-path="url(#p586a5c2f7d)" style="fill: #1f77b4"/>
   </g>
   <g id="patch_93">
    <path d="M 206.868178 273.312 
L 208.481389 273.312 
L 208.481389 34.118627 
L 206.868178 34.118627 
z
" clip-path="url(#p586a5c2f7d)" style="fill: #1f77b4"/>
   </g>
   <g id="patch_94">
    <path d="M 208.481389 273.312 
L 210.094601 273.312 
L 210.094601 37.86774 
L 208.481389 37.86774 
z
" clip-path="url(#p586a5c2f7d)" style="fill: #1f77b4"/>
   </g>
   <g id="patch_95">
    <path d="M 210.094601 273.312 
L 211.707813 273.312 
L 211.707813 73.109396 
L 210.094601 73.109396 
z
" clip-path="url(#p586a5c2f7d)" style="fill: #1f77b4"/>
   </g>
   <g id="patch_96">
    <path d="M 211.707813 273.312 
L 213.321024 273.312 
L 213.321024 41.616852 
L 211.707813 41.616852 
z
" clip-path="url(#p586a5c2f7d)" style="fill: #1f77b4"/>
   </g>
   <g id="patch_97">
    <path d="M 213.321024 273.312 
L 214.934236 273.312 
L 214.934236 29.619692 
L 213.321024 29.619692 
z
" clip-path="url(#p586a5c2f7d)" style="fill: #1f77b4"/>
   </g>
   <g id="patch_98">
    <path d="M 214.934236 273.312 
L 216.547448 273.312 
L 216.547448 19.872 
L 214.934236 19.872 
z
" clip-path="url(#p586a5c2f7d)" style="fill: #1f77b4"/>
   </g>
   <g id="patch_99">
    <path d="M 216.547448 273.312 
L 218.160659 273.312 
L 218.160659 30.369515 
L 216.547448 30.369515 
z
" clip-path="url(#p586a5c2f7d)" style="fill: #1f77b4"/>
   </g>
   <g id="patch_100">
    <path d="M 218.160659 273.312 
L 219.773871 273.312 
L 219.773871 26.620402 
L 218.160659 26.620402 
z
" clip-path="url(#p586a5c2f7d)" style="fill: #1f77b4"/>
   </g>
   <g id="patch_101">
    <path d="M 219.773871 273.312 
L 221.387083 273.312 
L 221.387083 41.616852 
L 219.773871 41.616852 
z
" clip-path="url(#p586a5c2f7d)" style="fill: #1f77b4"/>
   </g>
   <g id="patch_102">
    <path d="M 221.387083 273.312 
L 223.000294 273.312 
L 223.000294 26.620402 
L 221.387083 26.620402 
z
" clip-path="url(#p586a5c2f7d)" style="fill: #1f77b4"/>
   </g>
   <g id="patch_103">
    <path d="M 223.000294 273.312 
L 224.613506 273.312 
L 224.613506 49.864899 
L 223.000294 49.864899 
z
" clip-path="url(#p586a5c2f7d)" style="fill: #1f77b4"/>
   </g>
   <g id="patch_104">
    <path d="M 224.613506 273.312 
L 226.226718 273.312 
L 226.226718 47.615432 
L 224.613506 47.615432 
z
" clip-path="url(#p586a5c2f7d)" style="fill: #1f77b4"/>
   </g>
   <g id="patch_105">
    <path d="M 226.226718 273.312 
L 227.839929 273.312 
L 227.839929 55.863479 
L 226.226718 55.863479 
z
" clip-path="url(#p586a5c2f7d)" style="fill: #1f77b4"/>
   </g>
   <g id="patch_106">
    <path d="M 227.839929 273.312 
L 229.453141 273.312 
L 229.453141 37.86774 
L 227.839929 37.86774 
z
" clip-path="url(#p586a5c2f7d)" style="fill: #1f77b4"/>
   </g>
   <g id="patch_107">
    <path d="M 229.453141 273.312 
L 231.066352 273.312 
L 231.066352 25.120757 
L 229.453141 25.120757 
z
" clip-path="url(#p586a5c2f7d)" style="fill: #1f77b4"/>
   </g>
   <g id="patch_108">
    <path d="M 231.066352 273.312 
L 232.679564 273.312 
L 232.679564 28.86987 
L 231.066352 28.86987 
z
" clip-path="url(#p586a5c2f7d)" style="fill: #1f77b4"/>
   </g>
   <g id="patch_109">
    <path d="M 232.679564 273.312 
L 234.292776 273.312 
L 234.292776 21.371645 
L 232.679564 21.371645 
z
" clip-path="url(#p586a5c2f7d)" style="fill: #1f77b4"/>
   </g>
   <g id="patch_110">
    <path d="M 234.292776 273.312 
L 235.905987 273.312 
L 235.905987 29.619692 
L 234.292776 29.619692 
z
" clip-path="url(#p586a5c2f7d)" style="fill: #1f77b4"/>
   </g>
   <g id="patch_111">
    <path d="M 235.905987 273.312 
L 237.519199 273.312 
L 237.519199 35.618272 
L 235.905987 35.618272 
z
" clip-path="url(#p586a5c2f7d)" style="fill: #1f77b4"/>
   </g>
   <g id="patch_112">
    <path d="M 237.519199 273.312 
L 239.132411 273.312 
L 239.132411 46.115787 
L 237.519199 46.115787 
z
" clip-path="url(#p586a5c2f7d)" style="fill: #1f77b4"/>
   </g>
   <g id="patch_113">
    <path d="M 239.132411 273.312 
L 240.745622 273.312 
L 240.745622 34.86845 
L 239.132411 34.86845 
z
" clip-path="url(#p586a5c2f7d)" style="fill: #1f77b4"/>
   </g>
   <g id="patch_114">
    <path d="M 240.745622 273.312 
L 242.358834 273.312 
L 242.358834 54.363834 
L 240.745622 54.363834 
z
" clip-path="url(#p586a5c2f7d)" style="fill: #1f77b4"/>
   </g>
   <g id="patch_115">
    <path d="M 242.358834 273.312 
L 243.972046 273.312 
L 243.972046 31.86916 
L 242.358834 31.86916 
z
" clip-path="url(#p586a5c2f7d)" style="fill: #1f77b4"/>
   </g>
   <g id="patch_116">
    <path d="M 243.972046 273.312 
L 245.585257 273.312 
L 245.585257 51.364544 
L 243.972046 51.364544 
z
" clip-path="url(#p586a5c2f7d)" style="fill: #1f77b4"/>
   </g>
   <g id="patch_117">
    <path d="M 245.585257 273.312 
L 247.198469 273.312 
L 247.198469 51.364544 
L 245.585257 51.364544 
z
" clip-path="url(#p586a5c2f7d)" style="fill: #1f77b4"/>
   </g>
   <g id="patch_118">
    <path d="M 247.198469 273.312 
L 248.811681 273.312 
L 248.811681 46.115787 
L 247.198469 46.115787 
z
" clip-path="url(#p586a5c2f7d)" style="fill: #1f77b4"/>
   </g>
   <g id="patch_119">
    <path d="M 248.811681 273.312 
L 250.424892 273.312 
L 250.424892 53.614012 
L 248.811681 53.614012 
z
" clip-path="url(#p586a5c2f7d)" style="fill: #1f77b4"/>
   </g>
   <g id="patch_120">
    <path d="M 250.424892 273.312 
L 252.038104 273.312 
L 252.038104 28.120047 
L 250.424892 28.120047 
z
" clip-path="url(#p586a5c2f7d)" style="fill: #1f77b4"/>
   </g>
   <g id="patch_121">
    <path d="M 252.038104 273.312 
L 253.651315 273.312 
L 253.651315 40.117207 
L 252.038104 40.117207 
z
" clip-path="url(#p586a5c2f7d)" style="fill: #1f77b4"/>
   </g>
   <g id="patch_122">
    <path d="M 253.651315 273.312 
L 255.264527 273.312 
L 255.264527 49.864899 
L 253.651315 49.864899 
z
" clip-path="url(#p586a5c2f7d)" style="fill: #1f77b4"/>
   </g>
   <g id="patch_123">
    <path d="M 255.264527 273.312 
L 256.877739 273.312 
L 256.877739 37.117917 
L 255.264527 37.117917 
z
" clip-path="url(#p586a5c2f7d)" style="fill: #1f77b4"/>
   </g>
   <g id="patch_124">
    <path d="M 256.877739 273.312 
L 258.49095 273.312 
L 258.49095 52.114367 
L 256.877739 52.114367 
z
" clip-path="url(#p586a5c2f7d)" style="fill: #1f77b4"/>
   </g>
   <g id="patch_125">
    <path d="M 258.49095 273.312 
L 260.104162 273.312 
L 260.104162 49.115077 
L 258.49095 49.115077 
z
" clip-path="url(#p586a5c2f7d)" style="fill: #1f77b4"/>
   </g>
   <g id="patch_126">
    <path d="M 260.104162 273.312 
L 261.717374 273.312 
L 261.717374 58.862769 
L 260.104162 58.862769 
z
" clip-path="url(#p586a5c2f7d)" style="fill: #1f77b4"/>
   </g>
   <g id="patch_127">
    <path d="M 261.717374 273.312 
L 263.330585 273.312 
L 263.330585 60.362414 
L 261.717374 60.362414 
z
" clip-path="url(#p586a5c2f7d)" style="fill: #1f77b4"/>
   </g>
   <g id="patch_128">
    <path d="M 263.330585 273.312 
L 264.943797 273.312 
L 264.943797 68.610462 
L 263.330585 68.610462 
z
" clip-path="url(#p586a5c2f7d)" style="fill: #1f77b4"/>
   </g>
   <g id="patch_129">
    <path d="M 264.943797 273.312 
L 266.557009 273.312 
L 266.557009 55.113657 
L 264.943797 55.113657 
z
" clip-path="url(#p586a5c2f7d)" style="fill: #1f77b4"/>
   </g>
   <g id="patch_130">
    <path d="M 266.557009 273.312 
L 268.17022 273.312 
L 268.17022 46.115787 
L 266.557009 46.115787 
z
" clip-path="url(#p586a5c2f7d)" style="fill: #1f77b4"/>
   </g>
   <g id="patch_131">
    <path d="M 268.17022 273.312 
L 269.783432 273.312 
L 269.783432 70.859929 
L 268.17022 70.859929 
z
" clip-path="url(#p586a5c2f7d)" style="fill: #1f77b4"/>
   </g>
   <g id="patch_132">
    <path d="M 269.783432 273.312 
L 271.396643 273.312 
L 271.396643 74.609041 
L 269.783432 74.609041 
z
" clip-path="url(#p586a5c2f7d)" style="fill: #1f77b4"/>
   </g>
   <g id="patch_133">
    <path d="M 271.396643 273.312 
L 273.009855 273.312 
L 273.009855 76.108686 
L 271.396643 76.108686 
z
" clip-path="url(#p586a5c2f7d)" style="fill: #1f77b4"/>
   </g>
   <g id="patch_134">
    <path d="M 273.009855 273.312 
L 274.623067 273.312 
L 274.623067 100.852828 
L 273.009855 100.852828 
z
" clip-path="url(#p586a5c2f7d)" style="fill: #1f77b4"/>
   </g>
   <g id="patch_135">
    <path d="M 274.623067 273.312 
L 276.236278 273.312 
L 276.236278 63.361704 
L 274.623067 63.361704 
z
" clip-path="url(#p586a5c2f7d)" style="fill: #1f77b4"/>
   </g>
   <g id="patch_136">
    <path d="M 276.236278 273.312 
L 277.84949 273.312 
L 277.84949 55.113657 
L 276.236278 55.113657 
z
" clip-path="url(#p586a5c2f7d)" style="fill: #1f77b4"/>
   </g>
   <g id="patch_137">
    <path d="M 277.84949 273.312 
L 279.462702 273.312 
L 279.462702 81.357444 
L 277.84949 81.357444 
z
" clip-path="url(#p586a5c2f7d)" style="fill: #1f77b4"/>
   </g>
   <g id="patch_138">
    <path d="M 279.462702 273.312 
L 281.075913 273.312 
L 281.075913 68.610462 
L 279.462702 68.610462 
z
" clip-path="url(#p586a5c2f7d)" style="fill: #1f77b4"/>
   </g>
   <g id="patch_139">
    <path d="M 281.075913 273.312 
L 282.689125 273.312 
L 282.689125 75.358864 
L 281.075913 75.358864 
z
" clip-path="url(#p586a5c2f7d)" style="fill: #1f77b4"/>
   </g>
   <g id="patch_140">
    <path d="M 282.689125 273.312 
L 284.302337 273.312 
L 284.302337 91.854959 
L 282.689125 91.854959 
z
" clip-path="url(#p586a5c2f7d)" style="fill: #1f77b4"/>
   </g>
   <g id="patch_141">
    <path d="M 284.302337 273.312 
L 285.915548 273.312 
L 285.915548 83.606911 
L 284.302337 83.606911 
z
" clip-path="url(#p586a5c2f7d)" style="fill: #1f77b4"/>
   </g>
   <g id="patch_142">
    <path d="M 285.915548 273.312 
L 287.52876 273.312 
L 287.52876 89.605491 
L 285.915548 89.605491 
z
" clip-path="url(#p586a5c2f7d)" style="fill: #1f77b4"/>
   </g>
   <g id="patch_143">
    <path d="M 287.52876 273.312 
L 289.141972 273.312 
L 289.141972 94.104426 
L 287.52876 94.104426 
z
" clip-path="url(#p586a5c2f7d)" style="fill: #1f77b4"/>
   </g>
   <g id="patch_144">
    <path d="M 289.141972 273.312 
L 290.755183 273.312 
L 290.755183 98.603361 
L 289.141972 98.603361 
z
" clip-path="url(#p586a5c2f7d)" style="fill: #1f77b4"/>
   </g>
   <g id="patch_145">
    <path d="M 290.755183 273.312 
L 292.368395 273.312 
L 292.368395 92.604781 
L 290.755183 92.604781 
z
" clip-path="url(#p586a5c2f7d)" style="fill: #1f77b4"/>
   </g>
   <g id="patch_146">
    <path d="M 292.368395 273.312 
L 293.981606 273.312 
L 293.981606 103.102296 
L 292.368395 103.102296 
z
" clip-path="url(#p586a5c2f7d)" style="fill: #1f77b4"/>
   </g>
   <g id="patch_147">
    <path d="M 293.981606 273.312 
L 295.594818 273.312 
L 295.594818 85.856379 
L 293.981606 85.856379 
z
" clip-path="url(#p586a5c2f7d)" style="fill: #1f77b4"/>
   </g>
   <g id="patch_148">
    <path d="M 295.594818 273.312 
L 297.20803 273.312 
L 297.20803 86.606201 
L 295.594818 86.606201 
z
" clip-path="url(#p586a5c2f7d)" style="fill: #1f77b4"/>
   </g>
   <g id="patch_149">
    <path d="M 297.20803 273.312 
L 298.821241 273.312 
L 298.821241 99.353183 
L 297.20803 99.353183 
z
" clip-path="url(#p586a5c2f7d)" style="fill: #1f77b4"/>
   </g>
   <g id="patch_150">
    <path d="M 298.821241 273.312 
L 300.434453 273.312 
L 300.434453 94.854249 
L 298.821241 94.854249 
z
" clip-path="url(#p586a5c2f7d)" style="fill: #1f77b4"/>
   </g>
   <g id="patch_151">
    <path d="M 300.434453 273.312 
L 302.047665 273.312 
L 302.047665 106.101586 
L 300.434453 106.101586 
z
" clip-path="url(#p586a5c2f7d)" style="fill: #1f77b4"/>
   </g>
   <g id="patch_152">
    <path d="M 302.047665 273.312 
L 303.660876 273.312 
L 303.660876 89.605491 
L 302.047665 89.605491 
z
" clip-path="url(#p586a5c2f7d)" style="fill: #1f77b4"/>
   </g>
   <g id="patch_153">
    <path d="M 303.660876 273.312 
L 305.274088 273.312 
L 305.274088 102.352473 
L 303.660876 102.352473 
z
" clip-path="url(#p586a5c2f7d)" style="fill: #1f77b4"/>
   </g>
   <g id="patch_154">
    <path d="M 305.274088 273.312 
L 306.8873 273.312 
L 306.8873 116.599101 
L 305.274088 116.599101 
z
" clip-path="url(#p586a5c2f7d)" style="fill: #1f77b4"/>
   </g>
   <g id="patch_155">
    <path d="M 306.8873 273.312 
L 308.500511 273.312 
L 308.500511 130.095905 
L 306.8873 130.095905 
z
" clip-path="url(#p586a5c2f7d)" style="fill: #1f77b4"/>
   </g>
   <g id="patch_156">
    <path d="M 308.500511 273.312 
L 310.113723 273.312 
L 310.113723 118.098746 
L 308.500511 118.098746 
z
" clip-path="url(#p586a5c2f7d)" style="fill: #1f77b4"/>
   </g>
   <g id="patch_157">
    <path d="M 310.113723 273.312 
L 311.726935 273.312 
L 311.726935 108.351053 
L 310.113723 108.351053 
z
" clip-path="url(#p586a5c2f7d)" style="fill: #1f77b4"/>
   </g>
   <g id="patch_158">
    <path d="M 311.726935 273.312 
L 313.340146 273.312 
L 313.340146 118.848568 
L 311.726935 118.848568 
z
" clip-path="url(#p586a5c2f7d)" style="fill: #1f77b4"/>
   </g>
   <g id="patch_159">
    <path d="M 313.340146 273.312 
L 314.953358 273.312 
L 314.953358 131.59555 
L 313.340146 131.59555 
z
" clip-path="url(#p586a5c2f7d)" style="fill: #1f77b4"/>
   </g>
   <g id="patch_160">
    <path d="M 314.953358 273.312 
L 316.566569 273.312 
L 316.566569 130.095905 
L 314.953358 130.095905 
z
" clip-path="url(#p586a5c2f7d)" style="fill: #1f77b4"/>
   </g>
   <g id="patch_161">
    <path d="M 316.566569 273.312 
L 318.179781 273.312 
L 318.179781 134.59484 
L 316.566569 134.59484 
z
" clip-path="url(#p586a5c2f7d)" style="fill: #1f77b4"/>
   </g>
   <g id="patch_162">
    <path d="M 318.179781 273.312 
L 319.792993 273.312 
L 319.792993 128.59626 
L 318.179781 128.59626 
z
" clip-path="url(#p586a5c2f7d)" style="fill: #1f77b4"/>
   </g>
   <g id="patch_163">
    <path d="M 319.792993 273.312 
L 321.406204 273.312 
L 321.406204 139.093775 
L 319.792993 139.093775 
z
" clip-path="url(#p586a5c2f7d)" style="fill: #1f77b4"/>
   </g>
   <g id="patch_164">
    <path d="M 321.406204 273.312 
L 323.019416 273.312 
L 323.019416 137.59413 
L 321.406204 137.59413 
z
" clip-path="url(#p586a5c2f7d)" style="fill: #1f77b4"/>
   </g>
   <g id="patch_165">
    <path d="M 323.019416 273.312 
L 324.632628 273.312 
L 324.632628 125.59697 
L 323.019416 125.59697 
z
" clip-path="url(#p586a5c2f7d)" style="fill: #1f77b4"/>
   </g>
   <g id="patch_166">
    <path d="M 324.632628 273.312 
L 326.245839 273.312 
L 326.245839 142.093065 
L 324.632628 142.093065 
z
" clip-path="url(#p586a5c2f7d)" style="fill: #1f77b4"/>
   </g>
   <g id="patch_167">
    <path d="M 326.245839 273.312 
L 327.859051 273.312 
L 327.859051 163.837917 
L 326.245839 163.837917 
z
" clip-path="url(#p586a5c2f7d)" style="fill: #1f77b4"/>
   </g>
   <g id="patch_168">
    <path d="M 327.859051 273.312 
L 329.472263 273.312 
L 329.472263 163.837917 
L 327.859051 163.837917 
z
" clip-path="url(#p586a5c2f7d)" style="fill: #1f77b4"/>
   </g>
   <g id="patch_169">
    <path d="M 329.472263 273.312 
L 331.085474 273.312 
L 331.085474 160.838627 
L 329.472263 160.838627 
z
" clip-path="url(#p586a5c2f7d)" style="fill: #1f77b4"/>
   </g>
   <g id="patch_170">
    <path d="M 331.085474 273.312 
L 332.698686 273.312 
L 332.698686 151.840757 
L 331.085474 151.840757 
z
" clip-path="url(#p586a5c2f7d)" style="fill: #1f77b4"/>
   </g>
   <g id="patch_171">
    <path d="M 332.698686 273.312 
L 334.311897 273.312 
L 334.311897 178.084544 
L 332.698686 178.084544 
z
" clip-path="url(#p586a5c2f7d)" style="fill: #1f77b4"/>
   </g>
   <g id="patch_172">
    <path d="M 334.311897 273.312 
L 335.925109 273.312 
L 335.925109 163.837917 
L 334.311897 163.837917 
z
" clip-path="url(#p586a5c2f7d)" style="fill: #1f77b4"/>
   </g>
   <g id="patch_173">
    <path d="M 335.925109 273.312 
L 337.538321 273.312 
L 337.538321 176.584899 
L 335.925109 176.584899 
z
" clip-path="url(#p586a5c2f7d)" style="fill: #1f77b4"/>
   </g>
   <g id="patch_174">
    <path d="M 337.538321 273.312 
L 339.151532 273.312 
L 339.151532 169.086675 
L 337.538321 169.086675 
z
" clip-path="url(#p586a5c2f7d)" style="fill: #1f77b4"/>
   </g>
   <g id="patch_175">
    <path d="M 339.151532 273.312 
L 340.764744 273.312 
L 340.764744 177.334722 
L 339.151532 177.334722 
z
" clip-path="url(#p586a5c2f7d)" style="fill: #1f77b4"/>
   </g>
   <g id="patch_176">
    <path d="M 340.764744 273.312 
L 342.377956 273.312 
L 342.377956 166.837207 
L 340.764744 166.837207 
z
" clip-path="url(#p586a5c2f7d)" style="fill: #1f77b4"/>
   </g>
   <g id="patch_177">
    <path d="M 342.377956 273.312 
L 343.991167 273.312 
L 343.991167 170.58632 
L 342.377956 170.58632 
z
" clip-path="url(#p586a5c2f7d)" style="fill: #1f77b4"/>
   </g>
   <g id="patch_178">
    <path d="M 343.991167 273.312 
L 345.604379 273.312 
L 345.604379 181.833657 
L 343.991167 181.833657 
z
" clip-path="url(#p586a5c2f7d)" style="fill: #1f77b4"/>
   </g>
   <g id="patch_179">
    <path d="M 345.604379 273.312 
L 347.217591 273.312 
L 347.217591 180.334012 
L 345.604379 180.334012 
z
" clip-path="url(#p586a5c2f7d)" style="fill: #1f77b4"/>
   </g>
   <g id="patch_180">
    <path d="M 347.217591 273.312 
L 348.830802 273.312 
L 348.830802 186.332592 
L 347.217591 186.332592 
z
" clip-path="url(#p586a5c2f7d)" style="fill: #1f77b4"/>
   </g>
   <g id="patch_181">
    <path d="M 348.830802 273.312 
L 350.444014 273.312 
L 350.444014 205.078154 
L 348.830802 205.078154 
z
" clip-path="url(#p586a5c2f7d)" style="fill: #1f77b4"/>
   </g>
   <g id="patch_182">
    <path d="M 350.444014 273.312 
L 352.057226 273.312 
L 352.057226 212.576379 
L 350.444014 212.576379 
z
" clip-path="url(#p586a5c2f7d)" style="fill: #1f77b4"/>
   </g>
   <g id="patch_183">
    <path d="M 352.057226 273.312 
L 353.670437 273.312 
L 353.670437 190.831527 
L 352.057226 190.831527 
z
" clip-path="url(#p586a5c2f7d)" style="fill: #1f77b4"/>
   </g>
   <g id="patch_184">
    <path d="M 353.670437 273.312 
L 355.283649 273.312 
L 355.283649 206.577799 
L 353.670437 206.577799 
z
" clip-path="url(#p586a5c2f7d)" style="fill: #1f77b4"/>
   </g>
   <g id="patch_185">
    <path d="M 355.283649 273.312 
L 356.89686 273.312 
L 356.89686 215.575669 
L 355.283649 215.575669 
z
" clip-path="url(#p586a5c2f7d)" style="fill: #1f77b4"/>
   </g>
   <g id="patch_186">
    <path d="M 356.89686 273.312 
L 358.510072 273.312 
L 358.510072 220.074604 
L 356.89686 220.074604 
z
" clip-path="url(#p586a5c2f7d)" style="fill: #1f77b4"/>
   </g>
   <g id="patch_187">
    <path d="M 358.510072 273.312 
L 360.123284 273.312 
L 360.123284 215.575669 
L 358.510072 215.575669 
z
" clip-path="url(#p586a5c2f7d)" style="fill: #1f77b4"/>
   </g>
   <g id="patch_188">
    <path d="M 360.123284 273.312 
L 361.736495 273.312 
L 361.736495 225.323361 
L 360.123284 225.323361 
z
" clip-path="url(#p586a5c2f7d)" style="fill: #1f77b4"/>
   </g>
   <g id="patch_189">
    <path d="M 361.736495 273.312 
L 363.349707 273.312 
L 363.349707 229.072473 
L 361.736495 229.072473 
z
" clip-path="url(#p586a5c2f7d)" style="fill: #1f77b4"/>
   </g>
   <g id="patch_190">
    <path d="M 363.349707 273.312 
L 364.962919 273.312 
L 364.962919 218.574959 
L 363.349707 218.574959 
z
" clip-path="url(#p586a5c2f7d)" style="fill: #1f77b4"/>
   </g>
   <g id="patch_191">
    <path d="M 364.962919 273.312 
L 366.57613 273.312 
L 366.57613 221.574249 
L 364.962919 221.574249 
z
" clip-path="url(#p586a5c2f7d)" style="fill: #1f77b4"/>
   </g>
   <g id="patch_192">
    <path d="M 366.57613 273.312 
L 368.189342 273.312 
L 368.189342 237.320521 
L 366.57613 237.320521 
z
" clip-path="url(#p586a5c2f7d)" style="fill: #1f77b4"/>
   </g>
   <g id="patch_193">
    <path d="M 368.189342 273.312 
L 369.802554 273.312 
L 369.802554 241.819456 
L 368.189342 241.819456 
z
" clip-path="url(#p586a5c2f7d)" style="fill: #1f77b4"/>
   </g>
   <g id="patch_194">
    <path d="M 369.802554 273.312 
L 371.415765 273.312 
L 371.415765 248.567858 
L 369.802554 248.567858 
z
" clip-path="url(#p586a5c2f7d)" style="fill: #1f77b4"/>
   </g>
   <g id="patch_195">
    <path d="M 371.415765 273.312 
L 373.028977 273.312 
L 373.028977 252.31697 
L 371.415765 252.31697 
z
" clip-path="url(#p586a5c2f7d)" style="fill: #1f77b4"/>
   </g>
   <g id="patch_196">
    <path d="M 373.028977 273.312 
L 374.642189 273.312 
L 374.642189 247.818036 
L 373.028977 247.818036 
z
" clip-path="url(#p586a5c2f7d)" style="fill: #1f77b4"/>
   </g>
   <g id="patch_197">
    <path d="M 374.642189 273.312 
L 376.2554 273.312 
L 376.2554 256.066083 
L 374.642189 256.066083 
z
" clip-path="url(#p586a5c2f7d)" style="fill: #1f77b4"/>
   </g>
   <g id="patch_198">
    <path d="M 376.2554 273.312 
L 377.868612 273.312 
L 377.868612 255.31626 
L 376.2554 255.31626 
z
" clip-path="url(#p586a5c2f7d)" style="fill: #1f77b4"/>
   </g>
   <g id="patch_199">
    <path d="M 377.868612 273.312 
L 379.481823 273.312 
L 379.481823 262.064663 
L 377.868612 262.064663 
z
" clip-path="url(#p586a5c2f7d)" style="fill: #1f77b4"/>
   </g>
   <g id="patch_200">
    <path d="M 379.481823 273.312 
L 381.095035 273.312 
L 381.095035 264.31413 
L 379.481823 264.31413 
z
" clip-path="url(#p586a5c2f7d)" style="fill: #1f77b4"/>
   </g>
   <g id="patch_201">
    <path d="M 381.095035 273.312 
L 382.708247 273.312 
L 382.708247 268.063243 
L 381.095035 268.063243 
z
" clip-path="url(#p586a5c2f7d)" style="fill: #1f77b4"/>
   </g>
   <g id="patch_202">
    <path d="M 382.708247 273.312 
L 384.321458 273.312 
L 384.321458 269.562888 
L 382.708247 269.562888 
z
" clip-path="url(#p586a5c2f7d)" style="fill: #1f77b4"/>
   </g>
   <g id="matplotlib.axis_1">
    <g id="xtick_1">
     <g id="line2d_1">
      <defs>
       <path id="mde50a3caad" d="M 0 0 
L 0 3.5 
" style="stroke: #000000; stroke-width: 0.8"/>
      </defs>
      <g>
       <use xlink:href="#mde50a3caad" x="60.013977" y="273.312" style="stroke: #000000; stroke-width: 0.8"/>
      </g>
     </g>
     <g id="text_1">
      <!-- 0.0 -->
      <g transform="translate(52.062415 287.910437)scale(0.1 -0.1)">
       <defs>
        <path id="DejaVuSans-30" d="M 2034 4250 
Q 1547 4250 1301 3770 
Q 1056 3291 1056 2328 
Q 1056 1369 1301 889 
Q 1547 409 2034 409 
Q 2525 409 2770 889 
Q 3016 1369 3016 2328 
Q 3016 3291 2770 3770 
Q 2525 4250 2034 4250 
z
M 2034 4750 
Q 2819 4750 3233 4129 
Q 3647 3509 3647 2328 
Q 3647 1150 3233 529 
Q 2819 -91 2034 -91 
Q 1250 -91 836 529 
Q 422 1150 422 2328 
Q 422 3509 836 4129 
Q 1250 4750 2034 4750 
z
" transform="scale(0.015625)"/>
        <path id="DejaVuSans-2e" d="M 684 794 
L 1344 794 
L 1344 0 
L 684 0 
L 684 794 
z
" transform="scale(0.015625)"/>
       </defs>
       <use xlink:href="#DejaVuSans-30"/>
       <use xlink:href="#DejaVuSans-2e" x="63.623047"/>
       <use xlink:href="#DejaVuSans-30" x="95.410156"/>
      </g>
     </g>
    </g>
    <g id="xtick_2">
     <g id="line2d_2">
      <g>
       <use xlink:href="#mde50a3caad" x="101.350278" y="273.312" style="stroke: #000000; stroke-width: 0.8"/>
      </g>
     </g>
     <g id="text_2">
      <!-- 0.2 -->
      <g transform="translate(93.398715 287.910437)scale(0.1 -0.1)">
       <defs>
        <path id="DejaVuSans-32" d="M 1228 531 
L 3431 531 
L 3431 0 
L 469 0 
L 469 531 
Q 828 903 1448 1529 
Q 2069 2156 2228 2338 
Q 2531 2678 2651 2914 
Q 2772 3150 2772 3378 
Q 2772 3750 2511 3984 
Q 2250 4219 1831 4219 
Q 1534 4219 1204 4116 
Q 875 4013 500 3803 
L 500 4441 
Q 881 4594 1212 4672 
Q 1544 4750 1819 4750 
Q 2544 4750 2975 4387 
Q 3406 4025 3406 3419 
Q 3406 3131 3298 2873 
Q 3191 2616 2906 2266 
Q 2828 2175 2409 1742 
Q 1991 1309 1228 531 
z
" transform="scale(0.015625)"/>
       </defs>
       <use xlink:href="#DejaVuSans-30"/>
       <use xlink:href="#DejaVuSans-2e" x="63.623047"/>
       <use xlink:href="#DejaVuSans-32" x="95.410156"/>
      </g>
     </g>
    </g>
    <g id="xtick_3">
     <g id="line2d_3">
      <g>
       <use xlink:href="#mde50a3caad" x="142.686578" y="273.312" style="stroke: #000000; stroke-width: 0.8"/>
      </g>
     </g>
     <g id="text_3">
      <!-- 0.4 -->
      <g transform="translate(134.735016 287.910437)scale(0.1 -0.1)">
       <defs>
        <path id="DejaVuSans-34" d="M 2419 4116 
L 825 1625 
L 2419 1625 
L 2419 4116 
z
M 2253 4666 
L 3047 4666 
L 3047 1625 
L 3713 1625 
L 3713 1100 
L 3047 1100 
L 3047 0 
L 2419 0 
L 2419 1100 
L 313 1100 
L 313 1709 
L 2253 4666 
z
" transform="scale(0.015625)"/>
       </defs>
       <use xlink:href="#DejaVuSans-30"/>
       <use xlink:href="#DejaVuSans-2e" x="63.623047"/>
       <use xlink:href="#DejaVuSans-34" x="95.410156"/>
      </g>
     </g>
    </g>
    <g id="xtick_4">
     <g id="line2d_4">
      <g>
       <use xlink:href="#mde50a3caad" x="184.022879" y="273.312" style="stroke: #000000; stroke-width: 0.8"/>
      </g>
     </g>
     <g id="text_4">
      <!-- 0.6 -->
      <g transform="translate(176.071316 287.910437)scale(0.1 -0.1)">
       <defs>
        <path id="DejaVuSans-36" d="M 2113 2584 
Q 1688 2584 1439 2293 
Q 1191 2003 1191 1497 
Q 1191 994 1439 701 
Q 1688 409 2113 409 
Q 2538 409 2786 701 
Q 3034 994 3034 1497 
Q 3034 2003 2786 2293 
Q 2538 2584 2113 2584 
z
M 3366 4563 
L 3366 3988 
Q 3128 4100 2886 4159 
Q 2644 4219 2406 4219 
Q 1781 4219 1451 3797 
Q 1122 3375 1075 2522 
Q 1259 2794 1537 2939 
Q 1816 3084 2150 3084 
Q 2853 3084 3261 2657 
Q 3669 2231 3669 1497 
Q 3669 778 3244 343 
Q 2819 -91 2113 -91 
Q 1303 -91 875 529 
Q 447 1150 447 2328 
Q 447 3434 972 4092 
Q 1497 4750 2381 4750 
Q 2619 4750 2861 4703 
Q 3103 4656 3366 4563 
z
" transform="scale(0.015625)"/>
       </defs>
       <use xlink:href="#DejaVuSans-30"/>
       <use xlink:href="#DejaVuSans-2e" x="63.623047"/>
       <use xlink:href="#DejaVuSans-36" x="95.410156"/>
      </g>
     </g>
    </g>
    <g id="xtick_5">
     <g id="line2d_5">
      <g>
       <use xlink:href="#mde50a3caad" x="225.35918" y="273.312" style="stroke: #000000; stroke-width: 0.8"/>
      </g>
     </g>
     <g id="text_5">
      <!-- 0.8 -->
      <g transform="translate(217.407617 287.910437)scale(0.1 -0.1)">
       <defs>
        <path id="DejaVuSans-38" d="M 2034 2216 
Q 1584 2216 1326 1975 
Q 1069 1734 1069 1313 
Q 1069 891 1326 650 
Q 1584 409 2034 409 
Q 2484 409 2743 651 
Q 3003 894 3003 1313 
Q 3003 1734 2745 1975 
Q 2488 2216 2034 2216 
z
M 1403 2484 
Q 997 2584 770 2862 
Q 544 3141 544 3541 
Q 544 4100 942 4425 
Q 1341 4750 2034 4750 
Q 2731 4750 3128 4425 
Q 3525 4100 3525 3541 
Q 3525 3141 3298 2862 
Q 3072 2584 2669 2484 
Q 3125 2378 3379 2068 
Q 3634 1759 3634 1313 
Q 3634 634 3220 271 
Q 2806 -91 2034 -91 
Q 1263 -91 848 271 
Q 434 634 434 1313 
Q 434 1759 690 2068 
Q 947 2378 1403 2484 
z
M 1172 3481 
Q 1172 3119 1398 2916 
Q 1625 2713 2034 2713 
Q 2441 2713 2670 2916 
Q 2900 3119 2900 3481 
Q 2900 3844 2670 4047 
Q 2441 4250 2034 4250 
Q 1625 4250 1398 4047 
Q 1172 3844 1172 3481 
z
" transform="scale(0.015625)"/>
       </defs>
       <use xlink:href="#DejaVuSans-30"/>
       <use xlink:href="#DejaVuSans-2e" x="63.623047"/>
       <use xlink:href="#DejaVuSans-38" x="95.410156"/>
      </g>
     </g>
    </g>
    <g id="xtick_6">
     <g id="line2d_6">
      <g>
       <use xlink:href="#mde50a3caad" x="266.69548" y="273.312" style="stroke: #000000; stroke-width: 0.8"/>
      </g>
     </g>
     <g id="text_6">
      <!-- 1.0 -->
      <g transform="translate(258.743918 287.910437)scale(0.1 -0.1)">
       <defs>
        <path id="DejaVuSans-31" d="M 794 531 
L 1825 531 
L 1825 4091 
L 703 3866 
L 703 4441 
L 1819 4666 
L 2450 4666 
L 2450 531 
L 3481 531 
L 3481 0 
L 794 0 
L 794 531 
z
" transform="scale(0.015625)"/>
       </defs>
       <use xlink:href="#DejaVuSans-31"/>
       <use xlink:href="#DejaVuSans-2e" x="63.623047"/>
       <use xlink:href="#DejaVuSans-30" x="95.410156"/>
      </g>
     </g>
    </g>
    <g id="xtick_7">
     <g id="line2d_7">
      <g>
       <use xlink:href="#mde50a3caad" x="308.031781" y="273.312" style="stroke: #000000; stroke-width: 0.8"/>
      </g>
     </g>
     <g id="text_7">
      <!-- 1.2 -->
      <g transform="translate(300.080218 287.910437)scale(0.1 -0.1)">
       <use xlink:href="#DejaVuSans-31"/>
       <use xlink:href="#DejaVuSans-2e" x="63.623047"/>
       <use xlink:href="#DejaVuSans-32" x="95.410156"/>
      </g>
     </g>
    </g>
    <g id="xtick_8">
     <g id="line2d_8">
      <g>
       <use xlink:href="#mde50a3caad" x="349.368081" y="273.312" style="stroke: #000000; stroke-width: 0.8"/>
      </g>
     </g>
     <g id="text_8">
      <!-- 1.4 -->
      <g transform="translate(341.416519 287.910437)scale(0.1 -0.1)">
       <use xlink:href="#DejaVuSans-31"/>
       <use xlink:href="#DejaVuSans-2e" x="63.623047"/>
       <use xlink:href="#DejaVuSans-34" x="95.410156"/>
      </g>
     </g>
    </g>
    <g id="xtick_9">
     <g id="line2d_9">
      <g>
       <use xlink:href="#mde50a3caad" x="390.704382" y="273.312" style="stroke: #000000; stroke-width: 0.8"/>
      </g>
     </g>
     <g id="text_9">
      <!-- 1.6 -->
      <g transform="translate(382.752819 287.910437)scale(0.1 -0.1)">
       <use xlink:href="#DejaVuSans-31"/>
       <use xlink:href="#DejaVuSans-2e" x="63.623047"/>
       <use xlink:href="#DejaVuSans-36" x="95.410156"/>
      </g>
     </g>
    </g>
    <g id="text_10">
     <!-- Angle with normal (rad) -->
     <g transform="translate(163.023281 301.588562)scale(0.1 -0.1)">
      <defs>
       <path id="DejaVuSans-41" d="M 2188 4044 
L 1331 1722 
L 3047 1722 
L 2188 4044 
z
M 1831 4666 
L 2547 4666 
L 4325 0 
L 3669 0 
L 3244 1197 
L 1141 1197 
L 716 0 
L 50 0 
L 1831 4666 
z
" transform="scale(0.015625)"/>
       <path id="DejaVuSans-6e" d="M 3513 2113 
L 3513 0 
L 2938 0 
L 2938 2094 
Q 2938 2591 2744 2837 
Q 2550 3084 2163 3084 
Q 1697 3084 1428 2787 
Q 1159 2491 1159 1978 
L 1159 0 
L 581 0 
L 581 3500 
L 1159 3500 
L 1159 2956 
Q 1366 3272 1645 3428 
Q 1925 3584 2291 3584 
Q 2894 3584 3203 3211 
Q 3513 2838 3513 2113 
z
" transform="scale(0.015625)"/>
       <path id="DejaVuSans-67" d="M 2906 1791 
Q 2906 2416 2648 2759 
Q 2391 3103 1925 3103 
Q 1463 3103 1205 2759 
Q 947 2416 947 1791 
Q 947 1169 1205 825 
Q 1463 481 1925 481 
Q 2391 481 2648 825 
Q 2906 1169 2906 1791 
z
M 3481 434 
Q 3481 -459 3084 -895 
Q 2688 -1331 1869 -1331 
Q 1566 -1331 1297 -1286 
Q 1028 -1241 775 -1147 
L 775 -588 
Q 1028 -725 1275 -790 
Q 1522 -856 1778 -856 
Q 2344 -856 2625 -561 
Q 2906 -266 2906 331 
L 2906 616 
Q 2728 306 2450 153 
Q 2172 0 1784 0 
Q 1141 0 747 490 
Q 353 981 353 1791 
Q 353 2603 747 3093 
Q 1141 3584 1784 3584 
Q 2172 3584 2450 3431 
Q 2728 3278 2906 2969 
L 2906 3500 
L 3481 3500 
L 3481 434 
z
" transform="scale(0.015625)"/>
       <path id="DejaVuSans-6c" d="M 603 4863 
L 1178 4863 
L 1178 0 
L 603 0 
L 603 4863 
z
" transform="scale(0.015625)"/>
       <path id="DejaVuSans-65" d="M 3597 1894 
L 3597 1613 
L 953 1613 
Q 991 1019 1311 708 
Q 1631 397 2203 397 
Q 2534 397 2845 478 
Q 3156 559 3463 722 
L 3463 178 
Q 3153 47 2828 -22 
Q 2503 -91 2169 -91 
Q 1331 -91 842 396 
Q 353 884 353 1716 
Q 353 2575 817 3079 
Q 1281 3584 2069 3584 
Q 2775 3584 3186 3129 
Q 3597 2675 3597 1894 
z
M 3022 2063 
Q 3016 2534 2758 2815 
Q 2500 3097 2075 3097 
Q 1594 3097 1305 2825 
Q 1016 2553 972 2059 
L 3022 2063 
z
" transform="scale(0.015625)"/>
       <path id="DejaVuSans-20" transform="scale(0.015625)"/>
       <path id="DejaVuSans-77" d="M 269 3500 
L 844 3500 
L 1563 769 
L 2278 3500 
L 2956 3500 
L 3675 769 
L 4391 3500 
L 4966 3500 
L 4050 0 
L 3372 0 
L 2619 2869 
L 1863 0 
L 1184 0 
L 269 3500 
z
" transform="scale(0.015625)"/>
       <path id="DejaVuSans-69" d="M 603 3500 
L 1178 3500 
L 1178 0 
L 603 0 
L 603 3500 
z
M 603 4863 
L 1178 4863 
L 1178 4134 
L 603 4134 
L 603 4863 
z
" transform="scale(0.015625)"/>
       <path id="DejaVuSans-74" d="M 1172 4494 
L 1172 3500 
L 2356 3500 
L 2356 3053 
L 1172 3053 
L 1172 1153 
Q 1172 725 1289 603 
Q 1406 481 1766 481 
L 2356 481 
L 2356 0 
L 1766 0 
Q 1100 0 847 248 
Q 594 497 594 1153 
L 594 3053 
L 172 3053 
L 172 3500 
L 594 3500 
L 594 4494 
L 1172 4494 
z
" transform="scale(0.015625)"/>
       <path id="DejaVuSans-68" d="M 3513 2113 
L 3513 0 
L 2938 0 
L 2938 2094 
Q 2938 2591 2744 2837 
Q 2550 3084 2163 3084 
Q 1697 3084 1428 2787 
Q 1159 2491 1159 1978 
L 1159 0 
L 581 0 
L 581 4863 
L 1159 4863 
L 1159 2956 
Q 1366 3272 1645 3428 
Q 1925 3584 2291 3584 
Q 2894 3584 3203 3211 
Q 3513 2838 3513 2113 
z
" transform="scale(0.015625)"/>
       <path id="DejaVuSans-6f" d="M 1959 3097 
Q 1497 3097 1228 2736 
Q 959 2375 959 1747 
Q 959 1119 1226 758 
Q 1494 397 1959 397 
Q 2419 397 2687 759 
Q 2956 1122 2956 1747 
Q 2956 2369 2687 2733 
Q 2419 3097 1959 3097 
z
M 1959 3584 
Q 2709 3584 3137 3096 
Q 3566 2609 3566 1747 
Q 3566 888 3137 398 
Q 2709 -91 1959 -91 
Q 1206 -91 779 398 
Q 353 888 353 1747 
Q 353 2609 779 3096 
Q 1206 3584 1959 3584 
z
" transform="scale(0.015625)"/>
       <path id="DejaVuSans-72" d="M 2631 2963 
Q 2534 3019 2420 3045 
Q 2306 3072 2169 3072 
Q 1681 3072 1420 2755 
Q 1159 2438 1159 1844 
L 1159 0 
L 581 0 
L 581 3500 
L 1159 3500 
L 1159 2956 
Q 1341 3275 1631 3429 
Q 1922 3584 2338 3584 
Q 2397 3584 2469 3576 
Q 2541 3569 2628 3553 
L 2631 2963 
z
" transform="scale(0.015625)"/>
       <path id="DejaVuSans-6d" d="M 3328 2828 
Q 3544 3216 3844 3400 
Q 4144 3584 4550 3584 
Q 5097 3584 5394 3201 
Q 5691 2819 5691 2113 
L 5691 0 
L 5113 0 
L 5113 2094 
Q 5113 2597 4934 2840 
Q 4756 3084 4391 3084 
Q 3944 3084 3684 2787 
Q 3425 2491 3425 1978 
L 3425 0 
L 2847 0 
L 2847 2094 
Q 2847 2600 2669 2842 
Q 2491 3084 2119 3084 
Q 1678 3084 1418 2786 
Q 1159 2488 1159 1978 
L 1159 0 
L 581 0 
L 581 3500 
L 1159 3500 
L 1159 2956 
Q 1356 3278 1631 3431 
Q 1906 3584 2284 3584 
Q 2666 3584 2933 3390 
Q 3200 3197 3328 2828 
z
" transform="scale(0.015625)"/>
       <path id="DejaVuSans-61" d="M 2194 1759 
Q 1497 1759 1228 1600 
Q 959 1441 959 1056 
Q 959 750 1161 570 
Q 1363 391 1709 391 
Q 2188 391 2477 730 
Q 2766 1069 2766 1631 
L 2766 1759 
L 2194 1759 
z
M 3341 1997 
L 3341 0 
L 2766 0 
L 2766 531 
Q 2569 213 2275 61 
Q 1981 -91 1556 -91 
Q 1019 -91 701 211 
Q 384 513 384 1019 
Q 384 1609 779 1909 
Q 1175 2209 1959 2209 
L 2766 2209 
L 2766 2266 
Q 2766 2663 2505 2880 
Q 2244 3097 1772 3097 
Q 1472 3097 1187 3025 
Q 903 2953 641 2809 
L 641 3341 
Q 956 3463 1253 3523 
Q 1550 3584 1831 3584 
Q 2591 3584 2966 3190 
Q 3341 2797 3341 1997 
z
" transform="scale(0.015625)"/>
       <path id="DejaVuSans-28" d="M 1984 4856 
Q 1566 4138 1362 3434 
Q 1159 2731 1159 2009 
Q 1159 1288 1364 580 
Q 1569 -128 1984 -844 
L 1484 -844 
Q 1016 -109 783 600 
Q 550 1309 550 2009 
Q 550 2706 781 3412 
Q 1013 4119 1484 4856 
L 1984 4856 
z
" transform="scale(0.015625)"/>
       <path id="DejaVuSans-64" d="M 2906 2969 
L 2906 4863 
L 3481 4863 
L 3481 0 
L 2906 0 
L 2906 525 
Q 2725 213 2448 61 
Q 2172 -91 1784 -91 
Q 1150 -91 751 415 
Q 353 922 353 1747 
Q 353 2572 751 3078 
Q 1150 3584 1784 3584 
Q 2172 3584 2448 3432 
Q 2725 3281 2906 2969 
z
M 947 1747 
Q 947 1113 1208 752 
Q 1469 391 1925 391 
Q 2381 391 2643 752 
Q 2906 1113 2906 1747 
Q 2906 2381 2643 2742 
Q 2381 3103 1925 3103 
Q 1469 3103 1208 2742 
Q 947 2381 947 1747 
z
" transform="scale(0.015625)"/>
       <path id="DejaVuSans-29" d="M 513 4856 
L 1013 4856 
Q 1481 4119 1714 3412 
Q 1947 2706 1947 2009 
Q 1947 1309 1714 600 
Q 1481 -109 1013 -844 
L 513 -844 
Q 928 -128 1133 580 
Q 1338 1288 1338 2009 
Q 1338 2731 1133 3434 
Q 928 4138 513 4856 
z
" transform="scale(0.015625)"/>
      </defs>
      <use xlink:href="#DejaVuSans-41"/>
      <use xlink:href="#DejaVuSans-6e" x="68.408203"/>
      <use xlink:href="#DejaVuSans-67" x="131.787109"/>
      <use xlink:href="#DejaVuSans-6c" x="195.263672"/>
      <use xlink:href="#DejaVuSans-65" x="223.046875"/>
      <use xlink:href="#DejaVuSans-20" x="284.570312"/>
      <use xlink:href="#DejaVuSans-77" x="316.357422"/>
      <use xlink:href="#DejaVuSans-69" x="398.144531"/>
      <use xlink:href="#DejaVuSans-74" x="425.927734"/>
      <use xlink:href="#DejaVuSans-68" x="465.136719"/>
      <use xlink:href="#DejaVuSans-20" x="528.515625"/>
      <use xlink:href="#DejaVuSans-6e" x="560.302734"/>
      <use xlink:href="#DejaVuSans-6f" x="623.681641"/>
      <use xlink:href="#DejaVuSans-72" x="684.863281"/>
      <use xlink:href="#DejaVuSans-6d" x="724.226562"/>
      <use xlink:href="#DejaVuSans-61" x="821.638672"/>
      <use xlink:href="#DejaVuSans-6c" x="882.917969"/>
      <use xlink:href="#DejaVuSans-20" x="910.701172"/>
      <use xlink:href="#DejaVuSans-28" x="942.488281"/>
      <use xlink:href="#DejaVuSans-72" x="981.501953"/>
      <use xlink:href="#DejaVuSans-61" x="1022.615234"/>
      <use xlink:href="#DejaVuSans-64" x="1083.894531"/>
      <use xlink:href="#DejaVuSans-29" x="1147.371094"/>
     </g>
    </g>
   </g>
   <g id="matplotlib.axis_2">
    <g id="ytick_1">
     <g id="line2d_10">
      <defs>
       <path id="m6fa23ca632" d="M 0 0 
L -3.5 0 
" style="stroke: #000000; stroke-width: 0.8"/>
      </defs>
      <g>
       <use xlink:href="#m6fa23ca632" x="43.78125" y="273.312" style="stroke: #000000; stroke-width: 0.8"/>
      </g>
     </g>
     <g id="text_11">
      <!-- 0.0 -->
      <g transform="translate(20.878125 277.111219)scale(0.1 -0.1)">
       <use xlink:href="#DejaVuSans-30"/>
       <use xlink:href="#DejaVuSans-2e" x="63.623047"/>
       <use xlink:href="#DejaVuSans-30" x="95.410156"/>
      </g>
     </g>
    </g>
    <g id="ytick_2">
     <g id="line2d_11">
      <g>
       <use xlink:href="#m6fa23ca632" x="43.78125" y="226.49127" style="stroke: #000000; stroke-width: 0.8"/>
      </g>
     </g>
     <g id="text_12">
      <!-- 0.2 -->
      <g transform="translate(20.878125 230.290488)scale(0.1 -0.1)">
       <use xlink:href="#DejaVuSans-30"/>
       <use xlink:href="#DejaVuSans-2e" x="63.623047"/>
       <use xlink:href="#DejaVuSans-32" x="95.410156"/>
      </g>
     </g>
    </g>
    <g id="ytick_3">
     <g id="line2d_12">
      <g>
       <use xlink:href="#m6fa23ca632" x="43.78125" y="179.670539" style="stroke: #000000; stroke-width: 0.8"/>
      </g>
     </g>
     <g id="text_13">
      <!-- 0.4 -->
      <g transform="translate(20.878125 183.469758)scale(0.1 -0.1)">
       <use xlink:href="#DejaVuSans-30"/>
       <use xlink:href="#DejaVuSans-2e" x="63.623047"/>
       <use xlink:href="#DejaVuSans-34" x="95.410156"/>
      </g>
     </g>
    </g>
    <g id="ytick_4">
     <g id="line2d_13">
      <g>
       <use xlink:href="#m6fa23ca632" x="43.78125" y="132.849809" style="stroke: #000000; stroke-width: 0.8"/>
      </g>
     </g>
     <g id="text_14">
      <!-- 0.6 -->
      <g transform="translate(20.878125 136.649028)scale(0.1 -0.1)">
       <use xlink:href="#DejaVuSans-30"/>
       <use xlink:href="#DejaVuSans-2e" x="63.623047"/>
       <use xlink:href="#DejaVuSans-36" x="95.410156"/>
      </g>
     </g>
    </g>
    <g id="ytick_5">
     <g id="line2d_14">
      <g>
       <use xlink:href="#m6fa23ca632" x="43.78125" y="86.029079" style="stroke: #000000; stroke-width: 0.8"/>
      </g>
     </g>
     <g id="text_15">
      <!-- 0.8 -->
      <g transform="translate(20.878125 89.828298)scale(0.1 -0.1)">
       <use xlink:href="#DejaVuSans-30"/>
       <use xlink:href="#DejaVuSans-2e" x="63.623047"/>
       <use xlink:href="#DejaVuSans-38" x="95.410156"/>
      </g>
     </g>
    </g>
    <g id="ytick_6">
     <g id="line2d_15">
      <g>
       <use xlink:href="#m6fa23ca632" x="43.78125" y="39.208349" style="stroke: #000000; stroke-width: 0.8"/>
      </g>
     </g>
     <g id="text_16">
      <!-- 1.0 -->
      <g transform="translate(20.878125 43.007567)scale(0.1 -0.1)">
       <use xlink:href="#DejaVuSans-31"/>
       <use xlink:href="#DejaVuSans-2e" x="63.623047"/>
       <use xlink:href="#DejaVuSans-30" x="95.410156"/>
      </g>
     </g>
    </g>
    <g id="text_17">
     <!-- Probability density -->
     <g transform="translate(14.798438 186.606781)rotate(-90)scale(0.1 -0.1)">
      <defs>
       <path id="DejaVuSans-50" d="M 1259 4147 
L 1259 2394 
L 2053 2394 
Q 2494 2394 2734 2622 
Q 2975 2850 2975 3272 
Q 2975 3691 2734 3919 
Q 2494 4147 2053 4147 
L 1259 4147 
z
M 628 4666 
L 2053 4666 
Q 2838 4666 3239 4311 
Q 3641 3956 3641 3272 
Q 3641 2581 3239 2228 
Q 2838 1875 2053 1875 
L 1259 1875 
L 1259 0 
L 628 0 
L 628 4666 
z
" transform="scale(0.015625)"/>
       <path id="DejaVuSans-62" d="M 3116 1747 
Q 3116 2381 2855 2742 
Q 2594 3103 2138 3103 
Q 1681 3103 1420 2742 
Q 1159 2381 1159 1747 
Q 1159 1113 1420 752 
Q 1681 391 2138 391 
Q 2594 391 2855 752 
Q 3116 1113 3116 1747 
z
M 1159 2969 
Q 1341 3281 1617 3432 
Q 1894 3584 2278 3584 
Q 2916 3584 3314 3078 
Q 3713 2572 3713 1747 
Q 3713 922 3314 415 
Q 2916 -91 2278 -91 
Q 1894 -91 1617 61 
Q 1341 213 1159 525 
L 1159 0 
L 581 0 
L 581 4863 
L 1159 4863 
L 1159 2969 
z
" transform="scale(0.015625)"/>
       <path id="DejaVuSans-79" d="M 2059 -325 
Q 1816 -950 1584 -1140 
Q 1353 -1331 966 -1331 
L 506 -1331 
L 506 -850 
L 844 -850 
Q 1081 -850 1212 -737 
Q 1344 -625 1503 -206 
L 1606 56 
L 191 3500 
L 800 3500 
L 1894 763 
L 2988 3500 
L 3597 3500 
L 2059 -325 
z
" transform="scale(0.015625)"/>
       <path id="DejaVuSans-73" d="M 2834 3397 
L 2834 2853 
Q 2591 2978 2328 3040 
Q 2066 3103 1784 3103 
Q 1356 3103 1142 2972 
Q 928 2841 928 2578 
Q 928 2378 1081 2264 
Q 1234 2150 1697 2047 
L 1894 2003 
Q 2506 1872 2764 1633 
Q 3022 1394 3022 966 
Q 3022 478 2636 193 
Q 2250 -91 1575 -91 
Q 1294 -91 989 -36 
Q 684 19 347 128 
L 347 722 
Q 666 556 975 473 
Q 1284 391 1588 391 
Q 1994 391 2212 530 
Q 2431 669 2431 922 
Q 2431 1156 2273 1281 
Q 2116 1406 1581 1522 
L 1381 1569 
Q 847 1681 609 1914 
Q 372 2147 372 2553 
Q 372 3047 722 3315 
Q 1072 3584 1716 3584 
Q 2034 3584 2315 3537 
Q 2597 3491 2834 3397 
z
" transform="scale(0.015625)"/>
      </defs>
      <use xlink:href="#DejaVuSans-50"/>
      <use xlink:href="#DejaVuSans-72" x="58.552734"/>
      <use xlink:href="#DejaVuSans-6f" x="97.416016"/>
      <use xlink:href="#DejaVuSans-62" x="158.597656"/>
      <use xlink:href="#DejaVuSans-61" x="222.074219"/>
      <use xlink:href="#DejaVuSans-62" x="283.353516"/>
      <use xlink:href="#DejaVuSans-69" x="346.830078"/>
      <use xlink:href="#DejaVuSans-6c" x="374.613281"/>
      <use xlink:href="#DejaVuSans-69" x="402.396484"/>
      <use xlink:href="#DejaVuSans-74" x="430.179688"/>
      <use xlink:href="#DejaVuSans-79" x="469.388672"/>
      <use xlink:href="#DejaVuSans-20" x="528.568359"/>
      <use xlink:href="#DejaVuSans-64" x="560.355469"/>
      <use xlink:href="#DejaVuSans-65" x="623.832031"/>
      <use xlink:href="#DejaVuSans-6e" x="685.355469"/>
      <use xlink:href="#DejaVuSans-73" x="748.734375"/>
      <use xlink:href="#DejaVuSans-69" x="800.833984"/>
      <use xlink:href="#DejaVuSans-74" x="828.617188"/>
      <use xlink:href="#DejaVuSans-79" x="867.826172"/>
     </g>
    </g>
   </g>
   <g id="line2d_16">
    <path d="M 60.013977 273.312 
L 79.837728 228.679051 
L 90.237073 205.817766 
L 99.01152 187.050565 
L 106.811029 170.886266 
L 113.960578 156.5791 
L 120.460169 144.055497 
L 126.63478 132.630774 
L 132.484411 122.269861 
L 138.009063 112.92827 
L 143.208736 104.554352 
L 148.408408 96.607584 
L 153.283101 89.563332 
L 157.832814 83.35721 
L 162.382528 77.519222 
L 166.607261 72.437763 
L 170.831995 67.691979 
L 175.056729 63.289801 
L 178.956483 59.537599 
L 182.856238 56.089791 
L 186.755992 52.951285 
L 190.330767 50.34986 
L 193.905542 48.015209 
L 197.480316 45.950124 
L 201.055091 44.157076 
L 204.304886 42.764909 
L 207.554682 41.60072 
L 210.804477 40.665661 
L 214.054272 39.960655 
L 217.304067 39.4864 
L 220.553863 39.243364 
L 223.803658 39.231789 
L 227.053453 39.451685 
L 230.303248 39.902836 
L 233.553044 40.584794 
L 236.802839 41.496887 
L 240.052634 42.63821 
L 243.302429 44.007638 
L 246.552225 45.603813 
L 250.126999 47.619612 
L 253.701774 49.90545 
L 257.276549 52.458592 
L 260.851324 55.275985 
L 264.751078 58.646911 
L 268.650832 62.323498 
L 272.550587 66.300513 
L 276.77532 70.94139 
L 281.000054 75.920443 
L 285.224788 81.229351 
L 289.774501 87.305341 
L 294.324215 93.741812 
L 299.198908 101.02387 
L 304.39858 109.213455 
L 309.598252 117.818397 
L 315.122904 127.391877 
L 320.972536 137.982354 
L 327.147147 149.630783 
L 333.646737 162.368355 
L 340.796287 176.884414 
L 348.595795 193.243836 
L 357.370243 212.188354 
L 367.769587 235.200274 
L 382.393666 268.159055 
L 384.668523 273.312 
L 384.668523 273.312 
" clip-path="url(#p586a5c2f7d)" style="fill: none; stroke: #ff7f0e; stroke-width: 1.5; stroke-linecap: square"/>
   </g>
   <g id="patch_203">
    <path d="M 43.78125 273.312 
L 43.78125 7.2 
" style="fill: none; stroke: #000000; stroke-width: 0.8; stroke-linejoin: miter; stroke-linecap: square"/>
   </g>
   <g id="patch_204">
    <path d="M 400.90125 273.312 
L 400.90125 7.2 
" style="fill: none; stroke: #000000; stroke-width: 0.8; stroke-linejoin: miter; stroke-linecap: square"/>
   </g>
   <g id="patch_205">
    <path d="M 43.78125 273.312 
L 400.90125 273.312 
" style="fill: none; stroke: #000000; stroke-width: 0.8; stroke-linejoin: miter; stroke-linecap: square"/>
   </g>
   <g id="patch_206">
    <path d="M 43.78125 7.2 
L 400.90125 7.2 
" style="fill: none; stroke: #000000; stroke-width: 0.8; stroke-linejoin: miter; stroke-linecap: square"/>
   </g>
  </g>
 </g>
 <defs>
  <clipPath id="p586a5c2f7d">
   <rect x="43.78125" y="7.2" width="357.12" height="266.112"/>
  </clipPath>
 </defs>
</svg>
