<?xml version="1.0" encoding="utf-8" standalone="no"?>
<!DOCTYPE svg PUBLIC "-//W3C//DTD SVG 1.1//EN"
  "http://www.w3.org/Graphics/SVG/1.1/DTD/svg11.dtd">
<svg xmlns:xlink="http://www.w3.org/1999/xlink" width="408.10125pt" height="310.86825pt" viewBox="0 0 408.10125 310.86825" xmlns="http://www.w3.org/2000/svg" version="1.1">
 <metadata>
  <rdf:RDF xmlns:dc="http://purl.org/dc/elements/1.1/" xmlns:cc="http://creativecommons.org/ns#" xmlns:rdf="http://www.w3.org/1999/02/22-rdf-syntax-ns#">
   <cc:Work>
    <dc:type rdf:resource="http://purl.org/dc/dcmitype/StillImage"/>
    <dc:date>2022-05-03T20:14:19.854807</dc:date>
    <dc:format>image/svg+xml</dc:format>
    <dc:creator>
     <cc:Agent>
      <dc:title>Matplotlib v3.5.1, https://matplotlib.org/</dc:title>
     </cc:Agent>
    </dc:creator>
   </cc:Work>
  </rdf:RDF>
 </metadata>
 <defs>
  <style type="text/css">*{stroke-linejoin: round; stroke-linecap: butt}</style>
 </defs>
 <g id="figure_1">
  <g id="patch_1">
   <path d="M 0 310.86825 
L 408.10125 310.86825 
L 408.10125 0 
L 0 0 
z
" style="fill: #ffffff"/>
  </g>
  <g id="axes_1">
   <g id="patch_2">
    <path d="M 43.78125 273.312 
L 400.90125 273.312 
L 400.90125 7.2 
L 43.78125 7.2 
z
" style="fill: #ffffff"/>
   </g>
   <g id="patch_3">
    <path d="M 61.540819 273.312 
L 63.152863 273.312 
L 63.152863 268.154791 
L 61.540819 268.154791 
z
" clip-path="url(#p34e45e1a4c)" style="fill: #1f77b4"/>
   </g>
   <g id="patch_4">
    <path d="M 63.152863 273.312 
L 64.764908 273.312 
L 64.764908 268.891535 
L 63.152863 268.891535 
z
" clip-path="url(#p34e45e1a4c)" style="fill: #1f77b4"/>
   </g>
   <g id="patch_5">
    <path d="M 64.764908 273.312 
L 66.376953 273.312 
L 66.376953 257.840372 
L 64.764908 257.840372 
z
" clip-path="url(#p34e45e1a4c)" style="fill: #1f77b4"/>
   </g>
   <g id="patch_6">
    <path d="M 66.376953 273.312 
L 67.988998 273.312 
L 67.988998 260.787349 
L 66.376953 260.787349 
z
" clip-path="url(#p34e45e1a4c)" style="fill: #1f77b4"/>
   </g>
   <g id="patch_7">
    <path d="M 67.988998 273.312 
L 69.601042 273.312 
L 69.601042 248.262698 
L 67.988998 248.262698 
z
" clip-path="url(#p34e45e1a4c)" style="fill: #1f77b4"/>
   </g>
   <g id="patch_8">
    <path d="M 69.601042 273.312 
L 71.213087 273.312 
L 71.213087 241.632 
L 69.601042 241.632 
z
" clip-path="url(#p34e45e1a4c)" style="fill: #1f77b4"/>
   </g>
   <g id="patch_9">
    <path d="M 71.213087 273.312 
L 72.825132 273.312 
L 72.825132 251.209674 
L 71.213087 251.209674 
z
" clip-path="url(#p34e45e1a4c)" style="fill: #1f77b4"/>
   </g>
   <g id="patch_10">
    <path d="M 72.825132 273.312 
L 74.437177 273.312 
L 74.437177 244.578977 
L 72.825132 244.578977 
z
" clip-path="url(#p34e45e1a4c)" style="fill: #1f77b4"/>
   </g>
   <g id="patch_11">
    <path d="M 74.437177 273.312 
L 76.049222 273.312 
L 76.049222 232.79107 
L 74.437177 232.79107 
z
" clip-path="url(#p34e45e1a4c)" style="fill: #1f77b4"/>
   </g>
   <g id="patch_12">
    <path d="M 76.049222 273.312 
L 77.661266 273.312 
L 77.661266 229.844093 
L 76.049222 229.844093 
z
" clip-path="url(#p34e45e1a4c)" style="fill: #1f77b4"/>
   </g>
   <g id="patch_13">
    <path d="M 77.661266 273.312 
L 79.273311 273.312 
L 79.273311 226.160372 
L 77.661266 226.160372 
z
" clip-path="url(#p34e45e1a4c)" style="fill: #1f77b4"/>
   </g>
   <g id="patch_14">
    <path d="M 79.273311 273.312 
L 80.885356 273.312 
L 80.885356 218.79293 
L 79.273311 218.79293 
z
" clip-path="url(#p34e45e1a4c)" style="fill: #1f77b4"/>
   </g>
   <g id="patch_15">
    <path d="M 80.885356 273.312 
L 82.497401 273.312 
L 82.497401 232.054326 
L 80.885356 232.054326 
z
" clip-path="url(#p34e45e1a4c)" style="fill: #1f77b4"/>
   </g>
   <g id="patch_16">
    <path d="M 82.497401 273.312 
L 84.109445 273.312 
L 84.109445 215.845953 
L 82.497401 215.845953 
z
" clip-path="url(#p34e45e1a4c)" style="fill: #1f77b4"/>
   </g>
   <g id="patch_17">
    <path d="M 84.109445 273.312 
L 85.72149 273.312 
L 85.72149 204.794791 
L 84.109445 204.794791 
z
" clip-path="url(#p34e45e1a4c)" style="fill: #1f77b4"/>
   </g>
   <g id="patch_18">
    <path d="M 85.72149 273.312 
L 87.333535 273.312 
L 87.333535 212.898977 
L 85.72149 212.898977 
z
" clip-path="url(#p34e45e1a4c)" style="fill: #1f77b4"/>
   </g>
   <g id="patch_19">
    <path d="M 87.333535 273.312 
L 88.94558 273.312 
L 88.94558 207.741767 
L 87.333535 207.741767 
z
" clip-path="url(#p34e45e1a4c)" style="fill: #1f77b4"/>
   </g>
   <g id="patch_20">
    <path d="M 88.94558 273.312 
L 90.557625 273.312 
L 90.557625 222.476651 
L 88.94558 222.476651 
z
" clip-path="url(#p34e45e1a4c)" style="fill: #1f77b4"/>
   </g>
   <g id="patch_21">
    <path d="M 90.557625 273.312 
L 92.169669 273.312 
L 92.169669 209.952 
L 90.557625 209.952 
z
" clip-path="url(#p34e45e1a4c)" style="fill: #1f77b4"/>
   </g>
   <g id="patch_22">
    <path d="M 92.169669 273.312 
L 93.781714 273.312 
L 93.781714 199.637581 
L 92.169669 199.637581 
z
" clip-path="url(#p34e45e1a4c)" style="fill: #1f77b4"/>
   </g>
   <g id="patch_23">
    <path d="M 93.781714 273.312 
L 95.393759 273.312 
L 95.393759 205.531535 
L 93.781714 205.531535 
z
" clip-path="url(#p34e45e1a4c)" style="fill: #1f77b4"/>
   </g>
   <g id="patch_24">
    <path d="M 95.393759 273.312 
L 97.005804 273.312 
L 97.005804 196.690605 
L 95.393759 196.690605 
z
" clip-path="url(#p34e45e1a4c)" style="fill: #1f77b4"/>
   </g>
   <g id="patch_25">
    <path d="M 97.005804 273.312 
L 98.617848 273.312 
L 98.617848 195.217116 
L 97.005804 195.217116 
z
" clip-path="url(#p34e45e1a4c)" style="fill: #1f77b4"/>
   </g>
   <g id="patch_26">
    <path d="M 98.617848 273.312 
L 100.229893 273.312 
L 100.229893 194.480372 
L 98.617848 194.480372 
z
" clip-path="url(#p34e45e1a4c)" style="fill: #1f77b4"/>
   </g>
   <g id="patch_27">
    <path d="M 100.229893 273.312 
L 101.841938 273.312 
L 101.841938 180.482233 
L 100.229893 180.482233 
z
" clip-path="url(#p34e45e1a4c)" style="fill: #1f77b4"/>
   </g>
   <g id="patch_28">
    <path d="M 101.841938 273.312 
L 103.453983 273.312 
L 103.453983 198.164093 
L 101.841938 198.164093 
z
" clip-path="url(#p34e45e1a4c)" style="fill: #1f77b4"/>
   </g>
   <g id="patch_29">
    <path d="M 103.453983 273.312 
L 105.066028 273.312 
L 105.066028 189.323163 
L 103.453983 189.323163 
z
" clip-path="url(#p34e45e1a4c)" style="fill: #1f77b4"/>
   </g>
   <g id="patch_30">
    <path d="M 105.066028 273.312 
L 106.678072 273.312 
L 106.678072 166.484093 
L 105.066028 166.484093 
z
" clip-path="url(#p34e45e1a4c)" style="fill: #1f77b4"/>
   </g>
   <g id="patch_31">
    <path d="M 106.678072 273.312 
L 108.290117 273.312 
L 108.290117 172.378047 
L 106.678072 172.378047 
z
" clip-path="url(#p34e45e1a4c)" style="fill: #1f77b4"/>
   </g>
   <g id="patch_32">
    <path d="M 108.290117 273.312 
L 109.902162 273.312 
L 109.902162 158.379907 
L 108.290117 158.379907 
z
" clip-path="url(#p34e45e1a4c)" style="fill: #1f77b4"/>
   </g>
   <g id="patch_33">
    <path d="M 109.902162 273.312 
L 111.514207 273.312 
L 111.514207 156.169674 
L 109.902162 156.169674 
z
" clip-path="url(#p34e45e1a4c)" style="fill: #1f77b4"/>
   </g>
   <g id="patch_34">
    <path d="M 111.514207 273.312 
L 113.126251 273.312 
L 113.126251 153.959442 
L 111.514207 153.959442 
z
" clip-path="url(#p34e45e1a4c)" style="fill: #1f77b4"/>
   </g>
   <g id="patch_35">
    <path d="M 113.126251 273.312 
L 114.738296 273.312 
L 114.738296 167.957581 
L 113.126251 167.957581 
z
" clip-path="url(#p34e45e1a4c)" style="fill: #1f77b4"/>
   </g>
   <g id="patch_36">
    <path d="M 114.738296 273.312 
L 116.350341 273.312 
L 116.350341 151.012465 
L 114.738296 151.012465 
z
" clip-path="url(#p34e45e1a4c)" style="fill: #1f77b4"/>
   </g>
   <g id="patch_37">
    <path d="M 116.350341 273.312 
L 117.962386 273.312 
L 117.962386 162.800372 
L 116.350341 162.800372 
z
" clip-path="url(#p34e45e1a4c)" style="fill: #1f77b4"/>
   </g>
   <g id="patch_38">
    <path d="M 117.962386 273.312 
L 119.574431 273.312 
L 119.574431 158.379907 
L 117.962386 158.379907 
z
" clip-path="url(#p34e45e1a4c)" style="fill: #1f77b4"/>
   </g>
   <g id="patch_39">
    <path d="M 119.574431 273.312 
L 121.186475 273.312 
L 121.186475 155.43293 
L 119.574431 155.43293 
z
" clip-path="url(#p34e45e1a4c)" style="fill: #1f77b4"/>
   </g>
   <g id="patch_40">
    <path d="M 121.186475 273.312 
L 122.79852 273.312 
L 122.79852 142.171535 
L 121.186475 142.171535 
z
" clip-path="url(#p34e45e1a4c)" style="fill: #1f77b4"/>
   </g>
   <g id="patch_41">
    <path d="M 122.79852 273.312 
L 124.410565 273.312 
L 124.410565 152.485953 
L 122.79852 152.485953 
z
" clip-path="url(#p34e45e1a4c)" style="fill: #1f77b4"/>
   </g>
   <g id="patch_42">
    <path d="M 124.410565 273.312 
L 126.02261 273.312 
L 126.02261 136.277581 
L 124.410565 136.277581 
z
" clip-path="url(#p34e45e1a4c)" style="fill: #1f77b4"/>
   </g>
   <g id="patch_43">
    <path d="M 126.02261 273.312 
L 127.634654 273.312 
L 127.634654 128.91014 
L 126.02261 128.91014 
z
" clip-path="url(#p34e45e1a4c)" style="fill: #1f77b4"/>
   </g>
   <g id="patch_44">
    <path d="M 127.634654 273.312 
L 129.246699 273.312 
L 129.246699 114.912 
L 127.634654 114.912 
z
" clip-path="url(#p34e45e1a4c)" style="fill: #1f77b4"/>
   </g>
   <g id="patch_45">
    <path d="M 129.246699 273.312 
L 130.858744 273.312 
L 130.858744 131.120372 
L 129.246699 131.120372 
z
" clip-path="url(#p34e45e1a4c)" style="fill: #1f77b4"/>
   </g>
   <g id="patch_46">
    <path d="M 130.858744 273.312 
L 132.470789 273.312 
L 132.470789 137.75107 
L 130.858744 137.75107 
z
" clip-path="url(#p34e45e1a4c)" style="fill: #1f77b4"/>
   </g>
   <g id="patch_47">
    <path d="M 132.470789 273.312 
L 134.082834 273.312 
L 134.082834 120.069209 
L 132.470789 120.069209 
z
" clip-path="url(#p34e45e1a4c)" style="fill: #1f77b4"/>
   </g>
   <g id="patch_48">
    <path d="M 134.082834 273.312 
L 135.694878 273.312 
L 135.694878 123.016186 
L 134.082834 123.016186 
z
" clip-path="url(#p34e45e1a4c)" style="fill: #1f77b4"/>
   </g>
   <g id="patch_49">
    <path d="M 135.694878 273.312 
L 137.306923 273.312 
L 137.306923 124.489674 
L 135.694878 124.489674 
z
" clip-path="url(#p34e45e1a4c)" style="fill: #1f77b4"/>
   </g>
   <g id="patch_50">
    <path d="M 137.306923 273.312 
L 138.918968 273.312 
L 138.918968 110.491535 
L 137.306923 110.491535 
z
" clip-path="url(#p34e45e1a4c)" style="fill: #1f77b4"/>
   </g>
   <g id="patch_51">
    <path d="M 138.918968 273.312 
L 140.531013 273.312 
L 140.531013 109.018047 
L 138.918968 109.018047 
z
" clip-path="url(#p34e45e1a4c)" style="fill: #1f77b4"/>
   </g>
   <g id="patch_52">
    <path d="M 140.531013 273.312 
L 142.143057 273.312 
L 142.143057 117.858977 
L 140.531013 117.858977 
z
" clip-path="url(#p34e45e1a4c)" style="fill: #1f77b4"/>
   </g>
   <g id="patch_53">
    <path d="M 142.143057 273.312 
L 143.755102 273.312 
L 143.755102 109.018047 
L 142.143057 109.018047 
z
" clip-path="url(#p34e45e1a4c)" style="fill: #1f77b4"/>
   </g>
   <g id="patch_54">
    <path d="M 143.755102 273.312 
L 145.367147 273.312 
L 145.367147 103.860837 
L 143.755102 103.860837 
z
" clip-path="url(#p34e45e1a4c)" style="fill: #1f77b4"/>
   </g>
   <g id="patch_55">
    <path d="M 145.367147 273.312 
L 146.979192 273.312 
L 146.979192 114.912 
L 145.367147 114.912 
z
" clip-path="url(#p34e45e1a4c)" style="fill: #1f77b4"/>
   </g>
   <g id="patch_56">
    <path d="M 146.979192 273.312 
L 148.591237 273.312 
L 148.591237 86.178977 
L 146.979192 86.178977 
z
" clip-path="url(#p34e45e1a4c)" style="fill: #1f77b4"/>
   </g>
   <g id="patch_57">
    <path d="M 148.591237 273.312 
L 150.203281 273.312 
L 150.203281 100.177116 
L 148.591237 100.177116 
z
" clip-path="url(#p34e45e1a4c)" style="fill: #1f77b4"/>
   </g>
   <g id="patch_58">
    <path d="M 150.203281 273.312 
L 151.815326 273.312 
L 151.815326 93.546419 
L 150.203281 93.546419 
z
" clip-path="url(#p34e45e1a4c)" style="fill: #1f77b4"/>
   </g>
   <g id="patch_59">
    <path d="M 151.815326 273.312 
L 153.427371 273.312 
L 153.427371 103.124093 
L 151.815326 103.124093 
z
" clip-path="url(#p34e45e1a4c)" style="fill: #1f77b4"/>
   </g>
   <g id="patch_60">
    <path d="M 153.427371 273.312 
L 155.039416 273.312 
L 155.039416 106.07107 
L 153.427371 106.07107 
z
" clip-path="url(#p34e45e1a4c)" style="fill: #1f77b4"/>
   </g>
   <g id="patch_61">
    <path d="M 155.039416 273.312 
L 156.65146 273.312 
L 156.65146 93.546419 
L 155.039416 93.546419 
z
" clip-path="url(#p34e45e1a4c)" style="fill: #1f77b4"/>
   </g>
   <g id="patch_62">
    <path d="M 156.65146 273.312 
L 158.263505 273.312 
L 158.263505 88.389209 
L 156.65146 88.389209 
z
" clip-path="url(#p34e45e1a4c)" style="fill: #1f77b4"/>
   </g>
   <g id="patch_63">
    <path d="M 158.263505 273.312 
L 159.87555 273.312 
L 159.87555 92.809674 
L 158.263505 92.809674 
z
" clip-path="url(#p34e45e1a4c)" style="fill: #1f77b4"/>
   </g>
   <g id="patch_64">
    <path d="M 159.87555 273.312 
L 161.487595 273.312 
L 161.487595 79.548279 
L 159.87555 79.548279 
z
" clip-path="url(#p34e45e1a4c)" style="fill: #1f77b4"/>
   </g>
   <g id="patch_65">
    <path d="M 161.487595 273.312 
L 163.09964 273.312 
L 163.09964 89.125953 
L 161.487595 89.125953 
z
" clip-path="url(#p34e45e1a4c)" style="fill: #1f77b4"/>
   </g>
   <g id="patch_66">
    <path d="M 163.09964 273.312 
L 164.711684 273.312 
L 164.711684 100.91386 
L 163.09964 100.91386 
z
" clip-path="url(#p34e45e1a4c)" style="fill: #1f77b4"/>
   </g>
   <g id="patch_67">
    <path d="M 164.711684 273.312 
L 166.323729 273.312 
L 166.323729 73.654326 
L 164.711684 73.654326 
z
" clip-path="url(#p34e45e1a4c)" style="fill: #1f77b4"/>
   </g>
   <g id="patch_68">
    <path d="M 166.323729 273.312 
L 167.935774 273.312 
L 167.935774 70.707349 
L 166.323729 70.707349 
z
" clip-path="url(#p34e45e1a4c)" style="fill: #1f77b4"/>
   </g>
   <g id="patch_69">
    <path d="M 167.935774 273.312 
L 169.547819 273.312 
L 169.547819 84.705488 
L 167.935774 84.705488 
z
" clip-path="url(#p34e45e1a4c)" style="fill: #1f77b4"/>
   </g>
   <g id="patch_70">
    <path d="M 169.547819 273.312 
L 171.159863 273.312 
L 171.159863 74.39107 
L 169.547819 74.39107 
z
" clip-path="url(#p34e45e1a4c)" style="fill: #1f77b4"/>
   </g>
   <g id="patch_71">
    <path d="M 171.159863 273.312 
L 172.771908 273.312 
L 172.771908 90.599442 
L 171.159863 90.599442 
z
" clip-path="url(#p34e45e1a4c)" style="fill: #1f77b4"/>
   </g>
   <g id="patch_72">
    <path d="M 172.771908 273.312 
L 174.383953 273.312 
L 174.383953 53.025488 
L 172.771908 53.025488 
z
" clip-path="url(#p34e45e1a4c)" style="fill: #1f77b4"/>
   </g>
   <g id="patch_73">
    <path d="M 174.383953 273.312 
L 175.995998 273.312 
L 175.995998 64.076651 
L 174.383953 64.076651 
z
" clip-path="url(#p34e45e1a4c)" style="fill: #1f77b4"/>
   </g>
   <g id="patch_74">
    <path d="M 175.995998 273.312 
L 177.608043 273.312 
L 177.608043 63.339907 
L 175.995998 63.339907 
z
" clip-path="url(#p34e45e1a4c)" style="fill: #1f77b4"/>
   </g>
   <g id="patch_75">
    <path d="M 177.608043 273.312 
L 179.220087 273.312 
L 179.220087 50.815256 
L 177.608043 50.815256 
z
" clip-path="url(#p34e45e1a4c)" style="fill: #1f77b4"/>
   </g>
   <g id="patch_76">
    <path d="M 179.220087 273.312 
L 180.832132 273.312 
L 180.832132 77.338047 
L 179.220087 77.338047 
z
" clip-path="url(#p34e45e1a4c)" style="fill: #1f77b4"/>
   </g>
   <g id="patch_77">
    <path d="M 180.832132 273.312 
L 182.444177 273.312 
L 182.444177 37.55386 
L 180.832132 37.55386 
z
" clip-path="url(#p34e45e1a4c)" style="fill: #1f77b4"/>
   </g>
   <g id="patch_78">
    <path d="M 182.444177 273.312 
L 184.056222 273.312 
L 184.056222 53.762233 
L 182.444177 53.762233 
z
" clip-path="url(#p34e45e1a4c)" style="fill: #1f77b4"/>
   </g>
   <g id="patch_79">
    <path d="M 184.056222 273.312 
L 185.668266 273.312 
L 185.668266 46.394791 
L 184.056222 46.394791 
z
" clip-path="url(#p34e45e1a4c)" style="fill: #1f77b4"/>
   </g>
   <g id="patch_80">
    <path d="M 185.668266 273.312 
L 187.280311 273.312 
L 187.280311 59.656186 
L 185.668266 59.656186 
z
" clip-path="url(#p34e45e1a4c)" style="fill: #1f77b4"/>
   </g>
   <g id="patch_81">
    <path d="M 187.280311 273.312 
L 188.892356 273.312 
L 188.892356 38.290605 
L 187.280311 38.290605 
z
" clip-path="url(#p34e45e1a4c)" style="fill: #1f77b4"/>
   </g>
   <g id="patch_82">
    <path d="M 188.892356 273.312 
L 190.504401 273.312 
L 190.504401 58.182698 
L 188.892356 58.182698 
z
" clip-path="url(#p34e45e1a4c)" style="fill: #1f77b4"/>
   </g>
   <g id="patch_83">
    <path d="M 190.504401 273.312 
L 192.116446 273.312 
L 192.116446 53.025488 
L 190.504401 53.025488 
z
" clip-path="url(#p34e45e1a4c)" style="fill: #1f77b4"/>
   </g>
   <g id="patch_84">
    <path d="M 192.116446 273.312 
L 193.72849 273.312 
L 193.72849 51.552 
L 192.116446 51.552 
z
" clip-path="url(#p34e45e1a4c)" style="fill: #1f77b4"/>
   </g>
   <g id="patch_85">
    <path d="M 193.72849 273.312 
L 195.340535 273.312 
L 195.340535 41.237581 
L 193.72849 41.237581 
z
" clip-path="url(#p34e45e1a4c)" style="fill: #1f77b4"/>
   </g>
   <g id="patch_86">
    <path d="M 195.340535 273.312 
L 196.95258 273.312 
L 196.95258 63.339907 
L 195.340535 63.339907 
z
" clip-path="url(#p34e45e1a4c)" style="fill: #1f77b4"/>
   </g>
   <g id="patch_87">
    <path d="M 196.95258 273.312 
L 198.564625 273.312 
L 198.564625 69.23386 
L 196.95258 69.23386 
z
" clip-path="url(#p34e45e1a4c)" style="fill: #1f77b4"/>
   </g>
   <g id="patch_88">
    <path d="M 198.564625 273.312 
L 200.176669 273.312 
L 200.176669 56.709209 
L 198.564625 56.709209 
z
" clip-path="url(#p34e45e1a4c)" style="fill: #1f77b4"/>
   </g>
   <g id="patch_89">
    <path d="M 200.176669 273.312 
L 201.788714 273.312 
L 201.788714 67.760372 
L 200.176669 67.760372 
z
" clip-path="url(#p34e45e1a4c)" style="fill: #1f77b4"/>
   </g>
   <g id="patch_90">
    <path d="M 201.788714 273.312 
L 203.400759 273.312 
L 203.400759 52.288744 
L 201.788714 52.288744 
z
" clip-path="url(#p34e45e1a4c)" style="fill: #1f77b4"/>
   </g>
   <g id="patch_91">
    <path d="M 203.400759 273.312 
L 205.012804 273.312 
L 205.012804 44.184558 
L 203.400759 44.184558 
z
" clip-path="url(#p34e45e1a4c)" style="fill: #1f77b4"/>
   </g>
   <g id="patch_92">
    <path d="M 205.012804 273.312 
L 206.624849 273.312 
L 206.624849 19.872 
L 205.012804 19.872 
z
" clip-path="url(#p34e45e1a4c)" style="fill: #1f77b4"/>
   </g>
   <g id="patch_93">
    <path d="M 206.624849 273.312 
L 208.236893 273.312 
L 208.236893 44.184558 
L 206.624849 44.184558 
z
" clip-path="url(#p34e45e1a4c)" style="fill: #1f77b4"/>
   </g>
   <g id="patch_94">
    <path d="M 208.236893 273.312 
L 209.848938 273.312 
L 209.848938 35.343628 
L 208.236893 35.343628 
z
" clip-path="url(#p34e45e1a4c)" style="fill: #1f77b4"/>
   </g>
   <g id="patch_95">
    <path d="M 209.848938 273.312 
L 211.460983 273.312 
L 211.460983 64.076651 
L 209.848938 64.076651 
z
" clip-path="url(#p34e45e1a4c)" style="fill: #1f77b4"/>
   </g>
   <g id="patch_96">
    <path d="M 211.460983 273.312 
L 213.073028 273.312 
L 213.073028 51.552 
L 211.460983 51.552 
z
" clip-path="url(#p34e45e1a4c)" style="fill: #1f77b4"/>
   </g>
   <g id="patch_97">
    <path d="M 213.073028 273.312 
L 214.685072 273.312 
L 214.685072 54.498977 
L 213.073028 54.498977 
z
" clip-path="url(#p34e45e1a4c)" style="fill: #1f77b4"/>
   </g>
   <g id="patch_98">
    <path d="M 214.685072 273.312 
L 216.297117 273.312 
L 216.297117 68.497116 
L 214.685072 68.497116 
z
" clip-path="url(#p34e45e1a4c)" style="fill: #1f77b4"/>
   </g>
   <g id="patch_99">
    <path d="M 216.297117 273.312 
L 217.909162 273.312 
L 217.909162 42.71107 
L 216.297117 42.71107 
z
" clip-path="url(#p34e45e1a4c)" style="fill: #1f77b4"/>
   </g>
   <g id="patch_100">
    <path d="M 217.909162 273.312 
L 219.521207 273.312 
L 219.521207 53.762233 
L 217.909162 53.762233 
z
" clip-path="url(#p34e45e1a4c)" style="fill: #1f77b4"/>
   </g>
   <g id="patch_101">
    <path d="M 219.521207 273.312 
L 221.133252 273.312 
L 221.133252 48.605023 
L 219.521207 48.605023 
z
" clip-path="url(#p34e45e1a4c)" style="fill: #1f77b4"/>
   </g>
   <g id="patch_102">
    <path d="M 221.133252 273.312 
L 222.745296 273.312 
L 222.745296 59.656186 
L 221.133252 59.656186 
z
" clip-path="url(#p34e45e1a4c)" style="fill: #1f77b4"/>
   </g>
   <g id="patch_103">
    <path d="M 222.745296 273.312 
L 224.357341 273.312 
L 224.357341 27.239442 
L 222.745296 27.239442 
z
" clip-path="url(#p34e45e1a4c)" style="fill: #1f77b4"/>
   </g>
   <g id="patch_104">
    <path d="M 224.357341 273.312 
L 225.969386 273.312 
L 225.969386 51.552 
L 224.357341 51.552 
z
" clip-path="url(#p34e45e1a4c)" style="fill: #1f77b4"/>
   </g>
   <g id="patch_105">
    <path d="M 225.969386 273.312 
L 227.581431 273.312 
L 227.581431 40.500837 
L 225.969386 40.500837 
z
" clip-path="url(#p34e45e1a4c)" style="fill: #1f77b4"/>
   </g>
   <g id="patch_106">
    <path d="M 227.581431 273.312 
L 229.193475 273.312 
L 229.193475 53.762233 
L 227.581431 53.762233 
z
" clip-path="url(#p34e45e1a4c)" style="fill: #1f77b4"/>
   </g>
   <g id="patch_107">
    <path d="M 229.193475 273.312 
L 230.80552 273.312 
L 230.80552 32.396651 
L 229.193475 32.396651 
z
" clip-path="url(#p34e45e1a4c)" style="fill: #1f77b4"/>
   </g>
   <g id="patch_108">
    <path d="M 230.80552 273.312 
L 232.417565 273.312 
L 232.417565 54.498977 
L 230.80552 54.498977 
z
" clip-path="url(#p34e45e1a4c)" style="fill: #1f77b4"/>
   </g>
   <g id="patch_109">
    <path d="M 232.417565 273.312 
L 234.02961 273.312 
L 234.02961 25.029209 
L 232.417565 25.029209 
z
" clip-path="url(#p34e45e1a4c)" style="fill: #1f77b4"/>
   </g>
   <g id="patch_110">
    <path d="M 234.02961 273.312 
L 235.641655 273.312 
L 235.641655 27.976186 
L 234.02961 27.976186 
z
" clip-path="url(#p34e45e1a4c)" style="fill: #1f77b4"/>
   </g>
   <g id="patch_111">
    <path d="M 235.641655 273.312 
L 237.253699 273.312 
L 237.253699 48.605023 
L 235.641655 48.605023 
z
" clip-path="url(#p34e45e1a4c)" style="fill: #1f77b4"/>
   </g>
   <g id="patch_112">
    <path d="M 237.253699 273.312 
L 238.865744 273.312 
L 238.865744 55.235721 
L 237.253699 55.235721 
z
" clip-path="url(#p34e45e1a4c)" style="fill: #1f77b4"/>
   </g>
   <g id="patch_113">
    <path d="M 238.865744 273.312 
L 240.477789 273.312 
L 240.477789 53.025488 
L 238.865744 53.025488 
z
" clip-path="url(#p34e45e1a4c)" style="fill: #1f77b4"/>
   </g>
   <g id="patch_114">
    <path d="M 240.477789 273.312 
L 242.089834 273.312 
L 242.089834 43.447814 
L 240.477789 43.447814 
z
" clip-path="url(#p34e45e1a4c)" style="fill: #1f77b4"/>
   </g>
   <g id="patch_115">
    <path d="M 242.089834 273.312 
L 243.701878 273.312 
L 243.701878 53.762233 
L 242.089834 53.762233 
z
" clip-path="url(#p34e45e1a4c)" style="fill: #1f77b4"/>
   </g>
   <g id="patch_116">
    <path d="M 243.701878 273.312 
L 245.313923 273.312 
L 245.313923 49.341767 
L 243.701878 49.341767 
z
" clip-path="url(#p34e45e1a4c)" style="fill: #1f77b4"/>
   </g>
   <g id="patch_117">
    <path d="M 245.313923 273.312 
L 246.925968 273.312 
L 246.925968 31.659907 
L 245.313923 31.659907 
z
" clip-path="url(#p34e45e1a4c)" style="fill: #1f77b4"/>
   </g>
   <g id="patch_118">
    <path d="M 246.925968 273.312 
L 248.538013 273.312 
L 248.538013 59.656186 
L 246.925968 59.656186 
z
" clip-path="url(#p34e45e1a4c)" style="fill: #1f77b4"/>
   </g>
   <g id="patch_119">
    <path d="M 248.538013 273.312 
L 250.150058 273.312 
L 250.150058 67.023628 
L 248.538013 67.023628 
z
" clip-path="url(#p34e45e1a4c)" style="fill: #1f77b4"/>
   </g>
   <g id="patch_120">
    <path d="M 250.150058 273.312 
L 251.762102 273.312 
L 251.762102 61.866419 
L 250.150058 61.866419 
z
" clip-path="url(#p34e45e1a4c)" style="fill: #1f77b4"/>
   </g>
   <g id="patch_121">
    <path d="M 251.762102 273.312 
L 253.374147 273.312 
L 253.374147 30.186419 
L 251.762102 30.186419 
z
" clip-path="url(#p34e45e1a4c)" style="fill: #1f77b4"/>
   </g>
   <g id="patch_122">
    <path d="M 253.374147 273.312 
L 254.986192 273.312 
L 254.986192 52.288744 
L 253.374147 52.288744 
z
" clip-path="url(#p34e45e1a4c)" style="fill: #1f77b4"/>
   </g>
   <g id="patch_123">
    <path d="M 254.986192 273.312 
L 256.598237 273.312 
L 256.598237 50.078512 
L 254.986192 50.078512 
z
" clip-path="url(#p34e45e1a4c)" style="fill: #1f77b4"/>
   </g>
   <g id="patch_124">
    <path d="M 256.598237 273.312 
L 258.210281 273.312 
L 258.210281 53.762233 
L 256.598237 53.762233 
z
" clip-path="url(#p34e45e1a4c)" style="fill: #1f77b4"/>
   </g>
   <g id="patch_125">
    <path d="M 258.210281 273.312 
L 259.822326 273.312 
L 259.822326 41.974326 
L 258.210281 41.974326 
z
" clip-path="url(#p34e45e1a4c)" style="fill: #1f77b4"/>
   </g>
   <g id="patch_126">
    <path d="M 259.822326 273.312 
L 261.434371 273.312 
L 261.434371 45.658047 
L 259.822326 45.658047 
z
" clip-path="url(#p34e45e1a4c)" style="fill: #1f77b4"/>
   </g>
   <g id="patch_127">
    <path d="M 261.434371 273.312 
L 263.046416 273.312 
L 263.046416 59.656186 
L 261.434371 59.656186 
z
" clip-path="url(#p34e45e1a4c)" style="fill: #1f77b4"/>
   </g>
   <g id="patch_128">
    <path d="M 263.046416 273.312 
L 264.658461 273.312 
L 264.658461 78.074791 
L 263.046416 78.074791 
z
" clip-path="url(#p34e45e1a4c)" style="fill: #1f77b4"/>
   </g>
   <g id="patch_129">
    <path d="M 264.658461 273.312 
L 266.270505 273.312 
L 266.270505 57.445953 
L 264.658461 57.445953 
z
" clip-path="url(#p34e45e1a4c)" style="fill: #1f77b4"/>
   </g>
   <g id="patch_130">
    <path d="M 266.270505 273.312 
L 267.88255 273.312 
L 267.88255 60.39293 
L 266.270505 60.39293 
z
" clip-path="url(#p34e45e1a4c)" style="fill: #1f77b4"/>
   </g>
   <g id="patch_131">
    <path d="M 267.88255 273.312 
L 269.494595 273.312 
L 269.494595 84.705488 
L 267.88255 84.705488 
z
" clip-path="url(#p34e45e1a4c)" style="fill: #1f77b4"/>
   </g>
   <g id="patch_132">
    <path d="M 269.494595 273.312 
L 271.10664 273.312 
L 271.10664 86.178977 
L 269.494595 86.178977 
z
" clip-path="url(#p34e45e1a4c)" style="fill: #1f77b4"/>
   </g>
   <g id="patch_133">
    <path d="M 271.10664 273.312 
L 272.718684 273.312 
L 272.718684 59.656186 
L 271.10664 59.656186 
z
" clip-path="url(#p34e45e1a4c)" style="fill: #1f77b4"/>
   </g>
   <g id="patch_134">
    <path d="M 272.718684 273.312 
L 274.330729 273.312 
L 274.330729 73.654326 
L 272.718684 73.654326 
z
" clip-path="url(#p34e45e1a4c)" style="fill: #1f77b4"/>
   </g>
   <g id="patch_135">
    <path d="M 274.330729 273.312 
L 275.942774 273.312 
L 275.942774 75.864558 
L 274.330729 75.864558 
z
" clip-path="url(#p34e45e1a4c)" style="fill: #1f77b4"/>
   </g>
   <g id="patch_136">
    <path d="M 275.942774 273.312 
L 277.554819 273.312 
L 277.554819 76.601302 
L 275.942774 76.601302 
z
" clip-path="url(#p34e45e1a4c)" style="fill: #1f77b4"/>
   </g>
   <g id="patch_137">
    <path d="M 277.554819 273.312 
L 279.166864 273.312 
L 279.166864 81.021767 
L 277.554819 81.021767 
z
" clip-path="url(#p34e45e1a4c)" style="fill: #1f77b4"/>
   </g>
   <g id="patch_138">
    <path d="M 279.166864 273.312 
L 280.778908 273.312 
L 280.778908 78.811535 
L 279.166864 78.811535 
z
" clip-path="url(#p34e45e1a4c)" style="fill: #1f77b4"/>
   </g>
   <g id="patch_139">
    <path d="M 280.778908 273.312 
L 282.390953 273.312 
L 282.390953 64.813395 
L 280.778908 64.813395 
z
" clip-path="url(#p34e45e1a4c)" style="fill: #1f77b4"/>
   </g>
   <g id="patch_140">
    <path d="M 282.390953 273.312 
L 284.002998 273.312 
L 284.002998 76.601302 
L 282.390953 76.601302 
z
" clip-path="url(#p34e45e1a4c)" style="fill: #1f77b4"/>
   </g>
   <g id="patch_141">
    <path d="M 284.002998 273.312 
L 285.615043 273.312 
L 285.615043 108.281302 
L 284.002998 108.281302 
z
" clip-path="url(#p34e45e1a4c)" style="fill: #1f77b4"/>
   </g>
   <g id="patch_142">
    <path d="M 285.615043 273.312 
L 287.227087 273.312 
L 287.227087 78.074791 
L 285.615043 78.074791 
z
" clip-path="url(#p34e45e1a4c)" style="fill: #1f77b4"/>
   </g>
   <g id="patch_143">
    <path d="M 287.227087 273.312 
L 288.839132 273.312 
L 288.839132 68.497116 
L 287.227087 68.497116 
z
" clip-path="url(#p34e45e1a4c)" style="fill: #1f77b4"/>
   </g>
   <g id="patch_144">
    <path d="M 288.839132 273.312 
L 290.451177 273.312 
L 290.451177 92.809674 
L 288.839132 92.809674 
z
" clip-path="url(#p34e45e1a4c)" style="fill: #1f77b4"/>
   </g>
   <g id="patch_145">
    <path d="M 290.451177 273.312 
L 292.063222 273.312 
L 292.063222 91.336186 
L 290.451177 91.336186 
z
" clip-path="url(#p34e45e1a4c)" style="fill: #1f77b4"/>
   </g>
   <g id="patch_146">
    <path d="M 292.063222 273.312 
L 293.675267 273.312 
L 293.675267 79.548279 
L 292.063222 79.548279 
z
" clip-path="url(#p34e45e1a4c)" style="fill: #1f77b4"/>
   </g>
   <g id="patch_147">
    <path d="M 293.675267 273.312 
L 295.287311 273.312 
L 295.287311 68.497116 
L 293.675267 68.497116 
z
" clip-path="url(#p34e45e1a4c)" style="fill: #1f77b4"/>
   </g>
   <g id="patch_148">
    <path d="M 295.287311 273.312 
L 296.899356 273.312 
L 296.899356 109.018047 
L 295.287311 109.018047 
z
" clip-path="url(#p34e45e1a4c)" style="fill: #1f77b4"/>
   </g>
   <g id="patch_149">
    <path d="M 296.899356 273.312 
L 298.511401 273.312 
L 298.511401 97.23014 
L 296.899356 97.23014 
z
" clip-path="url(#p34e45e1a4c)" style="fill: #1f77b4"/>
   </g>
   <g id="patch_150">
    <path d="M 298.511401 273.312 
L 300.123446 273.312 
L 300.123446 103.124093 
L 298.511401 103.124093 
z
" clip-path="url(#p34e45e1a4c)" style="fill: #1f77b4"/>
   </g>
   <g id="patch_151">
    <path d="M 300.123446 273.312 
L 301.73549 273.312 
L 301.73549 102.387349 
L 300.123446 102.387349 
z
" clip-path="url(#p34e45e1a4c)" style="fill: #1f77b4"/>
   </g>
   <g id="patch_152">
    <path d="M 301.73549 273.312 
L 303.347535 273.312 
L 303.347535 94.283163 
L 301.73549 94.283163 
z
" clip-path="url(#p34e45e1a4c)" style="fill: #1f77b4"/>
   </g>
   <g id="patch_153">
    <path d="M 303.347535 273.312 
L 304.95958 273.312 
L 304.95958 118.595721 
L 303.347535 118.595721 
z
" clip-path="url(#p34e45e1a4c)" style="fill: #1f77b4"/>
   </g>
   <g id="patch_154">
    <path d="M 304.95958 273.312 
L 306.571625 273.312 
L 306.571625 100.177116 
L 304.95958 100.177116 
z
" clip-path="url(#p34e45e1a4c)" style="fill: #1f77b4"/>
   </g>
   <g id="patch_155">
    <path d="M 306.571625 273.312 
L 308.18367 273.312 
L 308.18367 114.912 
L 306.571625 114.912 
z
" clip-path="url(#p34e45e1a4c)" style="fill: #1f77b4"/>
   </g>
   <g id="patch_156">
    <path d="M 308.18367 273.312 
L 309.795714 273.312 
L 309.795714 128.173395 
L 308.18367 128.173395 
z
" clip-path="url(#p34e45e1a4c)" style="fill: #1f77b4"/>
   </g>
   <g id="patch_157">
    <path d="M 309.795714 273.312 
L 311.407759 273.312 
L 311.407759 127.436651 
L 309.795714 127.436651 
z
" clip-path="url(#p34e45e1a4c)" style="fill: #1f77b4"/>
   </g>
   <g id="patch_158">
    <path d="M 311.407759 273.312 
L 313.019804 273.312 
L 313.019804 118.595721 
L 311.407759 118.595721 
z
" clip-path="url(#p34e45e1a4c)" style="fill: #1f77b4"/>
   </g>
   <g id="patch_159">
    <path d="M 313.019804 273.312 
L 314.631849 273.312 
L 314.631849 127.436651 
L 313.019804 127.436651 
z
" clip-path="url(#p34e45e1a4c)" style="fill: #1f77b4"/>
   </g>
   <g id="patch_160">
    <path d="M 314.631849 273.312 
L 316.243893 273.312 
L 316.243893 108.281302 
L 314.631849 108.281302 
z
" clip-path="url(#p34e45e1a4c)" style="fill: #1f77b4"/>
   </g>
   <g id="patch_161">
    <path d="M 316.243893 273.312 
L 317.855938 273.312 
L 317.855938 144.381767 
L 316.243893 144.381767 
z
" clip-path="url(#p34e45e1a4c)" style="fill: #1f77b4"/>
   </g>
   <g id="patch_162">
    <path d="M 317.855938 273.312 
L 319.467983 273.312 
L 319.467983 145.855256 
L 317.855938 145.855256 
z
" clip-path="url(#p34e45e1a4c)" style="fill: #1f77b4"/>
   </g>
   <g id="patch_163">
    <path d="M 319.467983 273.312 
L 321.080028 273.312 
L 321.080028 125.963163 
L 319.467983 125.963163 
z
" clip-path="url(#p34e45e1a4c)" style="fill: #1f77b4"/>
   </g>
   <g id="patch_164">
    <path d="M 321.080028 273.312 
L 322.692073 273.312 
L 322.692073 147.328744 
L 321.080028 147.328744 
z
" clip-path="url(#p34e45e1a4c)" style="fill: #1f77b4"/>
   </g>
   <g id="patch_165">
    <path d="M 322.692073 273.312 
L 324.304117 273.312 
L 324.304117 145.118512 
L 322.692073 145.118512 
z
" clip-path="url(#p34e45e1a4c)" style="fill: #1f77b4"/>
   </g>
   <g id="patch_166">
    <path d="M 324.304117 273.312 
L 325.916162 273.312 
L 325.916162 128.173395 
L 324.304117 128.173395 
z
" clip-path="url(#p34e45e1a4c)" style="fill: #1f77b4"/>
   </g>
   <g id="patch_167">
    <path d="M 325.916162 273.312 
L 327.528207 273.312 
L 327.528207 158.379907 
L 325.916162 158.379907 
z
" clip-path="url(#p34e45e1a4c)" style="fill: #1f77b4"/>
   </g>
   <g id="patch_168">
    <path d="M 327.528207 273.312 
L 329.140252 273.312 
L 329.140252 159.116651 
L 327.528207 159.116651 
z
" clip-path="url(#p34e45e1a4c)" style="fill: #1f77b4"/>
   </g>
   <g id="patch_169">
    <path d="M 329.140252 273.312 
L 330.752296 273.312 
L 330.752296 147.328744 
L 329.140252 147.328744 
z
" clip-path="url(#p34e45e1a4c)" style="fill: #1f77b4"/>
   </g>
   <g id="patch_170">
    <path d="M 330.752296 273.312 
L 332.364341 273.312 
L 332.364341 146.592 
L 330.752296 146.592 
z
" clip-path="url(#p34e45e1a4c)" style="fill: #1f77b4"/>
   </g>
   <g id="patch_171">
    <path d="M 332.364341 273.312 
L 333.976386 273.312 
L 333.976386 151.012465 
L 332.364341 151.012465 
z
" clip-path="url(#p34e45e1a4c)" style="fill: #1f77b4"/>
   </g>
   <g id="patch_172">
    <path d="M 333.976386 273.312 
L 335.588431 273.312 
L 335.588431 172.378047 
L 333.976386 172.378047 
z
" clip-path="url(#p34e45e1a4c)" style="fill: #1f77b4"/>
   </g>
   <g id="patch_173">
    <path d="M 335.588431 273.312 
L 337.200476 273.312 
L 337.200476 170.904558 
L 335.588431 170.904558 
z
" clip-path="url(#p34e45e1a4c)" style="fill: #1f77b4"/>
   </g>
   <g id="patch_174">
    <path d="M 337.200476 273.312 
L 338.81252 273.312 
L 338.81252 181.955721 
L 337.200476 181.955721 
z
" clip-path="url(#p34e45e1a4c)" style="fill: #1f77b4"/>
   </g>
   <g id="patch_175">
    <path d="M 338.81252 273.312 
L 340.424565 273.312 
L 340.424565 182.692465 
L 338.81252 182.692465 
z
" clip-path="url(#p34e45e1a4c)" style="fill: #1f77b4"/>
   </g>
   <g id="patch_176">
    <path d="M 340.424565 273.312 
L 342.03661 273.312 
L 342.03661 183.429209 
L 340.424565 183.429209 
z
" clip-path="url(#p34e45e1a4c)" style="fill: #1f77b4"/>
   </g>
   <g id="patch_177">
    <path d="M 342.03661 273.312 
L 343.648655 273.312 
L 343.648655 185.639442 
L 342.03661 185.639442 
z
" clip-path="url(#p34e45e1a4c)" style="fill: #1f77b4"/>
   </g>
   <g id="patch_178">
    <path d="M 343.648655 273.312 
L 345.260699 273.312 
L 345.260699 179.745488 
L 343.648655 179.745488 
z
" clip-path="url(#p34e45e1a4c)" style="fill: #1f77b4"/>
   </g>
   <g id="patch_179">
    <path d="M 345.260699 273.312 
L 346.872744 273.312 
L 346.872744 195.217116 
L 345.260699 195.217116 
z
" clip-path="url(#p34e45e1a4c)" style="fill: #1f77b4"/>
   </g>
   <g id="patch_180">
    <path d="M 346.872744 273.312 
L 348.484789 273.312 
L 348.484789 174.588279 
L 346.872744 174.588279 
z
" clip-path="url(#p34e45e1a4c)" style="fill: #1f77b4"/>
   </g>
   <g id="patch_181">
    <path d="M 348.484789 273.312 
L 350.096834 273.312 
L 350.096834 189.323163 
L 348.484789 189.323163 
z
" clip-path="url(#p34e45e1a4c)" style="fill: #1f77b4"/>
   </g>
   <g id="patch_182">
    <path d="M 350.096834 273.312 
L 351.708879 273.312 
L 351.708879 204.058047 
L 350.096834 204.058047 
z
" clip-path="url(#p34e45e1a4c)" style="fill: #1f77b4"/>
   </g>
   <g id="patch_183">
    <path d="M 351.708879 273.312 
L 353.320923 273.312 
L 353.320923 218.056186 
L 351.708879 218.056186 
z
" clip-path="url(#p34e45e1a4c)" style="fill: #1f77b4"/>
   </g>
   <g id="patch_184">
    <path d="M 353.320923 273.312 
L 354.932968 273.312 
L 354.932968 217.319442 
L 353.320923 217.319442 
z
" clip-path="url(#p34e45e1a4c)" style="fill: #1f77b4"/>
   </g>
   <g id="patch_185">
    <path d="M 354.932968 273.312 
L 356.545013 273.312 
L 356.545013 209.952 
L 354.932968 209.952 
z
" clip-path="url(#p34e45e1a4c)" style="fill: #1f77b4"/>
   </g>
   <g id="patch_186">
    <path d="M 356.545013 273.312 
L 358.157058 273.312 
L 358.157058 207.741767 
L 356.545013 207.741767 
z
" clip-path="url(#p34e45e1a4c)" style="fill: #1f77b4"/>
   </g>
   <g id="patch_187">
    <path d="M 358.157058 273.312 
L 359.769102 273.312 
L 359.769102 212.162233 
L 358.157058 212.162233 
z
" clip-path="url(#p34e45e1a4c)" style="fill: #1f77b4"/>
   </g>
   <g id="patch_188">
    <path d="M 359.769102 273.312 
L 361.381147 273.312 
L 361.381147 225.423628 
L 359.769102 225.423628 
z
" clip-path="url(#p34e45e1a4c)" style="fill: #1f77b4"/>
   </g>
   <g id="patch_189">
    <path d="M 361.381147 273.312 
L 362.993192 273.312 
L 362.993192 225.423628 
L 361.381147 225.423628 
z
" clip-path="url(#p34e45e1a4c)" style="fill: #1f77b4"/>
   </g>
   <g id="patch_190">
    <path d="M 362.993192 273.312 
L 364.605237 273.312 
L 364.605237 236.474791 
L 362.993192 236.474791 
z
" clip-path="url(#p34e45e1a4c)" style="fill: #1f77b4"/>
   </g>
   <g id="patch_191">
    <path d="M 364.605237 273.312 
L 366.217282 273.312 
L 366.217282 230.580837 
L 364.605237 230.580837 
z
" clip-path="url(#p34e45e1a4c)" style="fill: #1f77b4"/>
   </g>
   <g id="patch_192">
    <path d="M 366.217282 273.312 
L 367.829326 273.312 
L 367.829326 234.264558 
L 366.217282 234.264558 
z
" clip-path="url(#p34e45e1a4c)" style="fill: #1f77b4"/>
   </g>
   <g id="patch_193">
    <path d="M 367.829326 273.312 
L 369.441371 273.312 
L 369.441371 238.685023 
L 367.829326 238.685023 
z
" clip-path="url(#p34e45e1a4c)" style="fill: #1f77b4"/>
   </g>
   <g id="patch_194">
    <path d="M 369.441371 273.312 
L 371.053416 273.312 
L 371.053416 247.525953 
L 369.441371 247.525953 
z
" clip-path="url(#p34e45e1a4c)" style="fill: #1f77b4"/>
   </g>
   <g id="patch_195">
    <path d="M 371.053416 273.312 
L 372.665461 273.312 
L 372.665461 234.264558 
L 371.053416 234.264558 
z
" clip-path="url(#p34e45e1a4c)" style="fill: #1f77b4"/>
   </g>
   <g id="patch_196">
    <path d="M 372.665461 273.312 
L 374.277505 273.312 
L 374.277505 245.315721 
L 372.665461 245.315721 
z
" clip-path="url(#p34e45e1a4c)" style="fill: #1f77b4"/>
   </g>
   <g id="patch_197">
    <path d="M 374.277505 273.312 
L 375.88955 273.312 
L 375.88955 251.209674 
L 374.277505 251.209674 
z
" clip-path="url(#p34e45e1a4c)" style="fill: #1f77b4"/>
   </g>
   <g id="patch_198">
    <path d="M 375.88955 273.312 
L 377.501595 273.312 
L 377.501595 250.47293 
L 375.88955 250.47293 
z
" clip-path="url(#p34e45e1a4c)" style="fill: #1f77b4"/>
   </g>
   <g id="patch_199">
    <path d="M 377.501595 273.312 
L 379.11364 273.312 
L 379.11364 263.734326 
L 377.501595 263.734326 
z
" clip-path="url(#p34e45e1a4c)" style="fill: #1f77b4"/>
   </g>
   <g id="patch_200">
    <path d="M 379.11364 273.312 
L 380.725685 273.312 
L 380.725685 262.997581 
L 379.11364 262.997581 
z
" clip-path="url(#p34e45e1a4c)" style="fill: #1f77b4"/>
   </g>
   <g id="patch_201">
    <path d="M 380.725685 273.312 
L 382.337729 273.312 
L 382.337729 266.681302 
L 380.725685 266.681302 
z
" clip-path="url(#p34e45e1a4c)" style="fill: #1f77b4"/>
   </g>
   <g id="patch_202">
    <path d="M 382.337729 273.312 
L 383.949774 273.312 
L 383.949774 268.891535 
L 382.337729 268.891535 
z
" clip-path="url(#p34e45e1a4c)" style="fill: #1f77b4"/>
   </g>
   <g id="matplotlib.axis_1">
    <g id="xtick_1">
     <g id="line2d_1">
      <defs>
       <path id="m8b6ecfa2f9" d="M 0 0 
L 0 3.5 
" style="stroke: #000000; stroke-width: 0.8"/>
      </defs>
      <g>
       <use xlink:href="#m8b6ecfa2f9" x="60.013977" y="273.312" style="stroke: #000000; stroke-width: 0.8"/>
      </g>
     </g>
     <g id="text_1">
      <!-- 0.0 -->
      <g transform="translate(52.062415 287.910437)scale(0.1 -0.1)">
       <defs>
        <path id="DejaVuSans-30" d="M 2034 4250 
Q 1547 4250 1301 3770 
Q 1056 3291 1056 2328 
Q 1056 1369 1301 889 
Q 1547 409 2034 409 
Q 2525 409 2770 889 
Q 3016 1369 3016 2328 
Q 3016 3291 2770 3770 
Q 2525 4250 2034 4250 
z
M 2034 4750 
Q 2819 4750 3233 4129 
Q 3647 3509 3647 2328 
Q 3647 1150 3233 529 
Q 2819 -91 2034 -91 
Q 1250 -91 836 529 
Q 422 1150 422 2328 
Q 422 3509 836 4129 
Q 1250 4750 2034 4750 
z
" transform="scale(0.015625)"/>
        <path id="DejaVuSans-2e" d="M 684 794 
L 1344 794 
L 1344 0 
L 684 0 
L 684 794 
z
" transform="scale(0.015625)"/>
       </defs>
       <use xlink:href="#DejaVuSans-30"/>
       <use xlink:href="#DejaVuSans-2e" x="63.623047"/>
       <use xlink:href="#DejaVuSans-30" x="95.410156"/>
      </g>
     </g>
    </g>
    <g id="xtick_2">
     <g id="line2d_2">
      <g>
       <use xlink:href="#m8b6ecfa2f9" x="101.350278" y="273.312" style="stroke: #000000; stroke-width: 0.8"/>
      </g>
     </g>
     <g id="text_2">
      <!-- 0.2 -->
      <g transform="translate(93.398715 287.910437)scale(0.1 -0.1)">
       <defs>
        <path id="DejaVuSans-32" d="M 1228 531 
L 3431 531 
L 3431 0 
L 469 0 
L 469 531 
Q 828 903 1448 1529 
Q 2069 2156 2228 2338 
Q 2531 2678 2651 2914 
Q 2772 3150 2772 3378 
Q 2772 3750 2511 3984 
Q 2250 4219 1831 4219 
Q 1534 4219 1204 4116 
Q 875 4013 500 3803 
L 500 4441 
Q 881 4594 1212 4672 
Q 1544 4750 1819 4750 
Q 2544 4750 2975 4387 
Q 3406 4025 3406 3419 
Q 3406 3131 3298 2873 
Q 3191 2616 2906 2266 
Q 2828 2175 2409 1742 
Q 1991 1309 1228 531 
z
" transform="scale(0.015625)"/>
       </defs>
       <use xlink:href="#DejaVuSans-30"/>
       <use xlink:href="#DejaVuSans-2e" x="63.623047"/>
       <use xlink:href="#DejaVuSans-32" x="95.410156"/>
      </g>
     </g>
    </g>
    <g id="xtick_3">
     <g id="line2d_3">
      <g>
       <use xlink:href="#m8b6ecfa2f9" x="142.686578" y="273.312" style="stroke: #000000; stroke-width: 0.8"/>
      </g>
     </g>
     <g id="text_3">
      <!-- 0.4 -->
      <g transform="translate(134.735016 287.910437)scale(0.1 -0.1)">
       <defs>
        <path id="DejaVuSans-34" d="M 2419 4116 
L 825 1625 
L 2419 1625 
L 2419 4116 
z
M 2253 4666 
L 3047 4666 
L 3047 1625 
L 3713 1625 
L 3713 1100 
L 3047 1100 
L 3047 0 
L 2419 0 
L 2419 1100 
L 313 1100 
L 313 1709 
L 2253 4666 
z
" transform="scale(0.015625)"/>
       </defs>
       <use xlink:href="#DejaVuSans-30"/>
       <use xlink:href="#DejaVuSans-2e" x="63.623047"/>
       <use xlink:href="#DejaVuSans-34" x="95.410156"/>
      </g>
     </g>
    </g>
    <g id="xtick_4">
     <g id="line2d_4">
      <g>
       <use xlink:href="#m8b6ecfa2f9" x="184.022879" y="273.312" style="stroke: #000000; stroke-width: 0.8"/>
      </g>
     </g>
     <g id="text_4">
      <!-- 0.6 -->
      <g transform="translate(176.071316 287.910437)scale(0.1 -0.1)">
       <defs>
        <path id="DejaVuSans-36" d="M 2113 2584 
Q 1688 2584 1439 2293 
Q 1191 2003 1191 1497 
Q 1191 994 1439 701 
Q 1688 409 2113 409 
Q 2538 409 2786 701 
Q 3034 994 3034 1497 
Q 3034 2003 2786 2293 
Q 2538 2584 2113 2584 
z
M 3366 4563 
L 3366 3988 
Q 3128 4100 2886 4159 
Q 2644 4219 2406 4219 
Q 1781 4219 1451 3797 
Q 1122 3375 1075 2522 
Q 1259 2794 1537 2939 
Q 1816 3084 2150 3084 
Q 2853 3084 3261 2657 
Q 3669 2231 3669 1497 
Q 3669 778 3244 343 
Q 2819 -91 2113 -91 
Q 1303 -91 875 529 
Q 447 1150 447 2328 
Q 447 3434 972 4092 
Q 1497 4750 2381 4750 
Q 2619 4750 2861 4703 
Q 3103 4656 3366 4563 
z
" transform="scale(0.015625)"/>
       </defs>
       <use xlink:href="#DejaVuSans-30"/>
       <use xlink:href="#DejaVuSans-2e" x="63.623047"/>
       <use xlink:href="#DejaVuSans-36" x="95.410156"/>
      </g>
     </g>
    </g>
    <g id="xtick_5">
     <g id="line2d_5">
      <g>
       <use xlink:href="#m8b6ecfa2f9" x="225.35918" y="273.312" style="stroke: #000000; stroke-width: 0.8"/>
      </g>
     </g>
     <g id="text_5">
      <!-- 0.8 -->
      <g transform="translate(217.407617 287.910437)scale(0.1 -0.1)">
       <defs>
        <path id="DejaVuSans-38" d="M 2034 2216 
Q 1584 2216 1326 1975 
Q 1069 1734 1069 1313 
Q 1069 891 1326 650 
Q 1584 409 2034 409 
Q 2484 409 2743 651 
Q 3003 894 3003 1313 
Q 3003 1734 2745 1975 
Q 2488 2216 2034 2216 
z
M 1403 2484 
Q 997 2584 770 2862 
Q 544 3141 544 3541 
Q 544 4100 942 4425 
Q 1341 4750 2034 4750 
Q 2731 4750 3128 4425 
Q 3525 4100 3525 3541 
Q 3525 3141 3298 2862 
Q 3072 2584 2669 2484 
Q 3125 2378 3379 2068 
Q 3634 1759 3634 1313 
Q 3634 634 3220 271 
Q 2806 -91 2034 -91 
Q 1263 -91 848 271 
Q 434 634 434 1313 
Q 434 1759 690 2068 
Q 947 2378 1403 2484 
z
M 1172 3481 
Q 1172 3119 1398 2916 
Q 1625 2713 2034 2713 
Q 2441 2713 2670 2916 
Q 2900 3119 2900 3481 
Q 2900 3844 2670 4047 
Q 2441 4250 2034 4250 
Q 1625 4250 1398 4047 
Q 1172 3844 1172 3481 
z
" transform="scale(0.015625)"/>
       </defs>
       <use xlink:href="#DejaVuSans-30"/>
       <use xlink:href="#DejaVuSans-2e" x="63.623047"/>
       <use xlink:href="#DejaVuSans-38" x="95.410156"/>
      </g>
     </g>
    </g>
    <g id="xtick_6">
     <g id="line2d_6">
      <g>
       <use xlink:href="#m8b6ecfa2f9" x="266.69548" y="273.312" style="stroke: #000000; stroke-width: 0.8"/>
      </g>
     </g>
     <g id="text_6">
      <!-- 1.0 -->
      <g transform="translate(258.743918 287.910437)scale(0.1 -0.1)">
       <defs>
        <path id="DejaVuSans-31" d="M 794 531 
L 1825 531 
L 1825 4091 
L 703 3866 
L 703 4441 
L 1819 4666 
L 2450 4666 
L 2450 531 
L 3481 531 
L 3481 0 
L 794 0 
L 794 531 
z
" transform="scale(0.015625)"/>
       </defs>
       <use xlink:href="#DejaVuSans-31"/>
       <use xlink:href="#DejaVuSans-2e" x="63.623047"/>
       <use xlink:href="#DejaVuSans-30" x="95.410156"/>
      </g>
     </g>
    </g>
    <g id="xtick_7">
     <g id="line2d_7">
      <g>
       <use xlink:href="#m8b6ecfa2f9" x="308.031781" y="273.312" style="stroke: #000000; stroke-width: 0.8"/>
      </g>
     </g>
     <g id="text_7">
      <!-- 1.2 -->
      <g transform="translate(300.080218 287.910437)scale(0.1 -0.1)">
       <use xlink:href="#DejaVuSans-31"/>
       <use xlink:href="#DejaVuSans-2e" x="63.623047"/>
       <use xlink:href="#DejaVuSans-32" x="95.410156"/>
      </g>
     </g>
    </g>
    <g id="xtick_8">
     <g id="line2d_8">
      <g>
       <use xlink:href="#m8b6ecfa2f9" x="349.368081" y="273.312" style="stroke: #000000; stroke-width: 0.8"/>
      </g>
     </g>
     <g id="text_8">
      <!-- 1.4 -->
      <g transform="translate(341.416519 287.910437)scale(0.1 -0.1)">
       <use xlink:href="#DejaVuSans-31"/>
       <use xlink:href="#DejaVuSans-2e" x="63.623047"/>
       <use xlink:href="#DejaVuSans-34" x="95.410156"/>
      </g>
     </g>
    </g>
    <g id="xtick_9">
     <g id="line2d_9">
      <g>
       <use xlink:href="#m8b6ecfa2f9" x="390.704382" y="273.312" style="stroke: #000000; stroke-width: 0.8"/>
      </g>
     </g>
     <g id="text_9">
      <!-- 1.6 -->
      <g transform="translate(382.752819 287.910437)scale(0.1 -0.1)">
       <use xlink:href="#DejaVuSans-31"/>
       <use xlink:href="#DejaVuSans-2e" x="63.623047"/>
       <use xlink:href="#DejaVuSans-36" x="95.410156"/>
      </g>
     </g>
    </g>
    <g id="text_10">
     <!-- Angle with normal (rad) -->
     <g transform="translate(163.023281 301.588562)scale(0.1 -0.1)">
      <defs>
       <path id="DejaVuSans-41" d="M 2188 4044 
L 1331 1722 
L 3047 1722 
L 2188 4044 
z
M 1831 4666 
L 2547 4666 
L 4325 0 
L 3669 0 
L 3244 1197 
L 1141 1197 
L 716 0 
L 50 0 
L 1831 4666 
z
" transform="scale(0.015625)"/>
       <path id="DejaVuSans-6e" d="M 3513 2113 
L 3513 0 
L 2938 0 
L 2938 2094 
Q 2938 2591 2744 2837 
Q 2550 3084 2163 3084 
Q 1697 3084 1428 2787 
Q 1159 2491 1159 1978 
L 1159 0 
L 581 0 
L 581 3500 
L 1159 3500 
L 1159 2956 
Q 1366 3272 1645 3428 
Q 1925 3584 2291 3584 
Q 2894 3584 3203 3211 
Q 3513 2838 3513 2113 
z
" transform="scale(0.015625)"/>
       <path id="DejaVuSans-67" d="M 2906 1791 
Q 2906 2416 2648 2759 
Q 2391 3103 1925 3103 
Q 1463 3103 1205 2759 
Q 947 2416 947 1791 
Q 947 1169 1205 825 
Q 1463 481 1925 481 
Q 2391 481 2648 825 
Q 2906 1169 2906 1791 
z
M 3481 434 
Q 3481 -459 3084 -895 
Q 2688 -1331 1869 -1331 
Q 1566 -1331 1297 -1286 
Q 1028 -1241 775 -1147 
L 775 -588 
Q 1028 -725 1275 -790 
Q 1522 -856 1778 -856 
Q 2344 -856 2625 -561 
Q 2906 -266 2906 331 
L 2906 616 
Q 2728 306 2450 153 
Q 2172 0 1784 0 
Q 1141 0 747 490 
Q 353 981 353 1791 
Q 353 2603 747 3093 
Q 1141 3584 1784 3584 
Q 2172 3584 2450 3431 
Q 2728 3278 2906 2969 
L 2906 3500 
L 3481 3500 
L 3481 434 
z
" transform="scale(0.015625)"/>
       <path id="DejaVuSans-6c" d="M 603 4863 
L 1178 4863 
L 1178 0 
L 603 0 
L 603 4863 
z
" transform="scale(0.015625)"/>
       <path id="DejaVuSans-65" d="M 3597 1894 
L 3597 1613 
L 953 1613 
Q 991 1019 1311 708 
Q 1631 397 2203 397 
Q 2534 397 2845 478 
Q 3156 559 3463 722 
L 3463 178 
Q 3153 47 2828 -22 
Q 2503 -91 2169 -91 
Q 1331 -91 842 396 
Q 353 884 353 1716 
Q 353 2575 817 3079 
Q 1281 3584 2069 3584 
Q 2775 3584 3186 3129 
Q 3597 2675 3597 1894 
z
M 3022 2063 
Q 3016 2534 2758 2815 
Q 2500 3097 2075 3097 
Q 1594 3097 1305 2825 
Q 1016 2553 972 2059 
L 3022 2063 
z
" transform="scale(0.015625)"/>
       <path id="DejaVuSans-20" transform="scale(0.015625)"/>
       <path id="DejaVuSans-77" d="M 269 3500 
L 844 3500 
L 1563 769 
L 2278 3500 
L 2956 3500 
L 3675 769 
L 4391 3500 
L 4966 3500 
L 4050 0 
L 3372 0 
L 2619 2869 
L 1863 0 
L 1184 0 
L 269 3500 
z
" transform="scale(0.015625)"/>
       <path id="DejaVuSans-69" d="M 603 3500 
L 1178 3500 
L 1178 0 
L 603 0 
L 603 3500 
z
M 603 4863 
L 1178 4863 
L 1178 4134 
L 603 4134 
L 603 4863 
z
" transform="scale(0.015625)"/>
       <path id="DejaVuSans-74" d="M 1172 4494 
L 1172 3500 
L 2356 3500 
L 2356 3053 
L 1172 3053 
L 1172 1153 
Q 1172 725 1289 603 
Q 1406 481 1766 481 
L 2356 481 
L 2356 0 
L 1766 0 
Q 1100 0 847 248 
Q 594 497 594 1153 
L 594 3053 
L 172 3053 
L 172 3500 
L 594 3500 
L 594 4494 
L 1172 4494 
z
" transform="scale(0.015625)"/>
       <path id="DejaVuSans-68" d="M 3513 2113 
L 3513 0 
L 2938 0 
L 2938 2094 
Q 2938 2591 2744 2837 
Q 2550 3084 2163 3084 
Q 1697 3084 1428 2787 
Q 1159 2491 1159 1978 
L 1159 0 
L 581 0 
L 581 4863 
L 1159 4863 
L 1159 2956 
Q 1366 3272 1645 3428 
Q 1925 3584 2291 3584 
Q 2894 3584 3203 3211 
Q 3513 2838 3513 2113 
z
" transform="scale(0.015625)"/>
       <path id="DejaVuSans-6f" d="M 1959 3097 
Q 1497 3097 1228 2736 
Q 959 2375 959 1747 
Q 959 1119 1226 758 
Q 1494 397 1959 397 
Q 2419 397 2687 759 
Q 2956 1122 2956 1747 
Q 2956 2369 2687 2733 
Q 2419 3097 1959 3097 
z
M 1959 3584 
Q 2709 3584 3137 3096 
Q 3566 2609 3566 1747 
Q 3566 888 3137 398 
Q 2709 -91 1959 -91 
Q 1206 -91 779 398 
Q 353 888 353 1747 
Q 353 2609 779 3096 
Q 1206 3584 1959 3584 
z
" transform="scale(0.015625)"/>
       <path id="DejaVuSans-72" d="M 2631 2963 
Q 2534 3019 2420 3045 
Q 2306 3072 2169 3072 
Q 1681 3072 1420 2755 
Q 1159 2438 1159 1844 
L 1159 0 
L 581 0 
L 581 3500 
L 1159 3500 
L 1159 2956 
Q 1341 3275 1631 3429 
Q 1922 3584 2338 3584 
Q 2397 3584 2469 3576 
Q 2541 3569 2628 3553 
L 2631 2963 
z
" transform="scale(0.015625)"/>
       <path id="DejaVuSans-6d" d="M 3328 2828 
Q 3544 3216 3844 3400 
Q 4144 3584 4550 3584 
Q 5097 3584 5394 3201 
Q 5691 2819 5691 2113 
L 5691 0 
L 5113 0 
L 5113 2094 
Q 5113 2597 4934 2840 
Q 4756 3084 4391 3084 
Q 3944 3084 3684 2787 
Q 3425 2491 3425 1978 
L 3425 0 
L 2847 0 
L 2847 2094 
Q 2847 2600 2669 2842 
Q 2491 3084 2119 3084 
Q 1678 3084 1418 2786 
Q 1159 2488 1159 1978 
L 1159 0 
L 581 0 
L 581 3500 
L 1159 3500 
L 1159 2956 
Q 1356 3278 1631 3431 
Q 1906 3584 2284 3584 
Q 2666 3584 2933 3390 
Q 3200 3197 3328 2828 
z
" transform="scale(0.015625)"/>
       <path id="DejaVuSans-61" d="M 2194 1759 
Q 1497 1759 1228 1600 
Q 959 1441 959 1056 
Q 959 750 1161 570 
Q 1363 391 1709 391 
Q 2188 391 2477 730 
Q 2766 1069 2766 1631 
L 2766 1759 
L 2194 1759 
z
M 3341 1997 
L 3341 0 
L 2766 0 
L 2766 531 
Q 2569 213 2275 61 
Q 1981 -91 1556 -91 
Q 1019 -91 701 211 
Q 384 513 384 1019 
Q 384 1609 779 1909 
Q 1175 2209 1959 2209 
L 2766 2209 
L 2766 2266 
Q 2766 2663 2505 2880 
Q 2244 3097 1772 3097 
Q 1472 3097 1187 3025 
Q 903 2953 641 2809 
L 641 3341 
Q 956 3463 1253 3523 
Q 1550 3584 1831 3584 
Q 2591 3584 2966 3190 
Q 3341 2797 3341 1997 
z
" transform="scale(0.015625)"/>
       <path id="DejaVuSans-28" d="M 1984 4856 
Q 1566 4138 1362 3434 
Q 1159 2731 1159 2009 
Q 1159 1288 1364 580 
Q 1569 -128 1984 -844 
L 1484 -844 
Q 1016 -109 783 600 
Q 550 1309 550 2009 
Q 550 2706 781 3412 
Q 1013 4119 1484 4856 
L 1984 4856 
z
" transform="scale(0.015625)"/>
       <path id="DejaVuSans-64" d="M 2906 2969 
L 2906 4863 
L 3481 4863 
L 3481 0 
L 2906 0 
L 2906 525 
Q 2725 213 2448 61 
Q 2172 -91 1784 -91 
Q 1150 -91 751 415 
Q 353 922 353 1747 
Q 353 2572 751 3078 
Q 1150 3584 1784 3584 
Q 2172 3584 2448 3432 
Q 2725 3281 2906 2969 
z
M 947 1747 
Q 947 1113 1208 752 
Q 1469 391 1925 391 
Q 2381 391 2643 752 
Q 2906 1113 2906 1747 
Q 2906 2381 2643 2742 
Q 2381 3103 1925 3103 
Q 1469 3103 1208 2742 
Q 947 2381 947 1747 
z
" transform="scale(0.015625)"/>
       <path id="DejaVuSans-29" d="M 513 4856 
L 1013 4856 
Q 1481 4119 1714 3412 
Q 1947 2706 1947 2009 
Q 1947 1309 1714 600 
Q 1481 -109 1013 -844 
L 513 -844 
Q 928 -128 1133 580 
Q 1338 1288 1338 2009 
Q 1338 2731 1133 3434 
Q 928 4138 513 4856 
z
" transform="scale(0.015625)"/>
      </defs>
      <use xlink:href="#DejaVuSans-41"/>
      <use xlink:href="#DejaVuSans-6e" x="68.408203"/>
      <use xlink:href="#DejaVuSans-67" x="131.787109"/>
      <use xlink:href="#DejaVuSans-6c" x="195.263672"/>
      <use xlink:href="#DejaVuSans-65" x="223.046875"/>
      <use xlink:href="#DejaVuSans-20" x="284.570312"/>
      <use xlink:href="#DejaVuSans-77" x="316.357422"/>
      <use xlink:href="#DejaVuSans-69" x="398.144531"/>
      <use xlink:href="#DejaVuSans-74" x="425.927734"/>
      <use xlink:href="#DejaVuSans-68" x="465.136719"/>
      <use xlink:href="#DejaVuSans-20" x="528.515625"/>
      <use xlink:href="#DejaVuSans-6e" x="560.302734"/>
      <use xlink:href="#DejaVuSans-6f" x="623.681641"/>
      <use xlink:href="#DejaVuSans-72" x="684.863281"/>
      <use xlink:href="#DejaVuSans-6d" x="724.226562"/>
      <use xlink:href="#DejaVuSans-61" x="821.638672"/>
      <use xlink:href="#DejaVuSans-6c" x="882.917969"/>
      <use xlink:href="#DejaVuSans-20" x="910.701172"/>
      <use xlink:href="#DejaVuSans-28" x="942.488281"/>
      <use xlink:href="#DejaVuSans-72" x="981.501953"/>
      <use xlink:href="#DejaVuSans-61" x="1022.615234"/>
      <use xlink:href="#DejaVuSans-64" x="1083.894531"/>
      <use xlink:href="#DejaVuSans-29" x="1147.371094"/>
     </g>
    </g>
   </g>
   <g id="matplotlib.axis_2">
    <g id="ytick_1">
     <g id="line2d_10">
      <defs>
       <path id="m99c306e7b2" d="M 0 0 
L -3.5 0 
" style="stroke: #000000; stroke-width: 0.8"/>
      </defs>
      <g>
       <use xlink:href="#m99c306e7b2" x="43.78125" y="273.312" style="stroke: #000000; stroke-width: 0.8"/>
      </g>
     </g>
     <g id="text_11">
      <!-- 0.0 -->
      <g transform="translate(20.878125 277.111219)scale(0.1 -0.1)">
       <use xlink:href="#DejaVuSans-30"/>
       <use xlink:href="#DejaVuSans-2e" x="63.623047"/>
       <use xlink:href="#DejaVuSans-30" x="95.410156"/>
      </g>
     </g>
    </g>
    <g id="ytick_2">
     <g id="line2d_11">
      <g>
       <use xlink:href="#m99c306e7b2" x="43.78125" y="227.341186" style="stroke: #000000; stroke-width: 0.8"/>
      </g>
     </g>
     <g id="text_12">
      <!-- 0.2 -->
      <g transform="translate(20.878125 231.140405)scale(0.1 -0.1)">
       <use xlink:href="#DejaVuSans-30"/>
       <use xlink:href="#DejaVuSans-2e" x="63.623047"/>
       <use xlink:href="#DejaVuSans-32" x="95.410156"/>
      </g>
     </g>
    </g>
    <g id="ytick_3">
     <g id="line2d_12">
      <g>
       <use xlink:href="#m99c306e7b2" x="43.78125" y="181.370372" style="stroke: #000000; stroke-width: 0.8"/>
      </g>
     </g>
     <g id="text_13">
      <!-- 0.4 -->
      <g transform="translate(20.878125 185.169591)scale(0.1 -0.1)">
       <use xlink:href="#DejaVuSans-30"/>
       <use xlink:href="#DejaVuSans-2e" x="63.623047"/>
       <use xlink:href="#DejaVuSans-34" x="95.410156"/>
      </g>
     </g>
    </g>
    <g id="ytick_4">
     <g id="line2d_13">
      <g>
       <use xlink:href="#m99c306e7b2" x="43.78125" y="135.399558" style="stroke: #000000; stroke-width: 0.8"/>
      </g>
     </g>
     <g id="text_14">
      <!-- 0.6 -->
      <g transform="translate(20.878125 139.198776)scale(0.1 -0.1)">
       <use xlink:href="#DejaVuSans-30"/>
       <use xlink:href="#DejaVuSans-2e" x="63.623047"/>
       <use xlink:href="#DejaVuSans-36" x="95.410156"/>
      </g>
     </g>
    </g>
    <g id="ytick_5">
     <g id="line2d_14">
      <g>
       <use xlink:href="#m99c306e7b2" x="43.78125" y="89.428744" style="stroke: #000000; stroke-width: 0.8"/>
      </g>
     </g>
     <g id="text_15">
      <!-- 0.8 -->
      <g transform="translate(20.878125 93.227962)scale(0.1 -0.1)">
       <use xlink:href="#DejaVuSans-30"/>
       <use xlink:href="#DejaVuSans-2e" x="63.623047"/>
       <use xlink:href="#DejaVuSans-38" x="95.410156"/>
      </g>
     </g>
    </g>
    <g id="ytick_6">
     <g id="line2d_15">
      <g>
       <use xlink:href="#m99c306e7b2" x="43.78125" y="43.45793" style="stroke: #000000; stroke-width: 0.8"/>
      </g>
     </g>
     <g id="text_16">
      <!-- 1.0 -->
      <g transform="translate(20.878125 47.257148)scale(0.1 -0.1)">
       <use xlink:href="#DejaVuSans-31"/>
       <use xlink:href="#DejaVuSans-2e" x="63.623047"/>
       <use xlink:href="#DejaVuSans-30" x="95.410156"/>
      </g>
     </g>
    </g>
    <g id="text_17">
     <!-- Probability density -->
     <g transform="translate(14.798438 186.606781)rotate(-90)scale(0.1 -0.1)">
      <defs>
       <path id="DejaVuSans-50" d="M 1259 4147 
L 1259 2394 
L 2053 2394 
Q 2494 2394 2734 2622 
Q 2975 2850 2975 3272 
Q 2975 3691 2734 3919 
Q 2494 4147 2053 4147 
L 1259 4147 
z
M 628 4666 
L 2053 4666 
Q 2838 4666 3239 4311 
Q 3641 3956 3641 3272 
Q 3641 2581 3239 2228 
Q 2838 1875 2053 1875 
L 1259 1875 
L 1259 0 
L 628 0 
L 628 4666 
z
" transform="scale(0.015625)"/>
       <path id="DejaVuSans-62" d="M 3116 1747 
Q 3116 2381 2855 2742 
Q 2594 3103 2138 3103 
Q 1681 3103 1420 2742 
Q 1159 2381 1159 1747 
Q 1159 1113 1420 752 
Q 1681 391 2138 391 
Q 2594 391 2855 752 
Q 3116 1113 3116 1747 
z
M 1159 2969 
Q 1341 3281 1617 3432 
Q 1894 3584 2278 3584 
Q 2916 3584 3314 3078 
Q 3713 2572 3713 1747 
Q 3713 922 3314 415 
Q 2916 -91 2278 -91 
Q 1894 -91 1617 61 
Q 1341 213 1159 525 
L 1159 0 
L 581 0 
L 581 4863 
L 1159 4863 
L 1159 2969 
z
" transform="scale(0.015625)"/>
       <path id="DejaVuSans-79" d="M 2059 -325 
Q 1816 -950 1584 -1140 
Q 1353 -1331 966 -1331 
L 506 -1331 
L 506 -850 
L 844 -850 
Q 1081 -850 1212 -737 
Q 1344 -625 1503 -206 
L 1606 56 
L 191 3500 
L 800 3500 
L 1894 763 
L 2988 3500 
L 3597 3500 
L 2059 -325 
z
" transform="scale(0.015625)"/>
       <path id="DejaVuSans-73" d="M 2834 3397 
L 2834 2853 
Q 2591 2978 2328 3040 
Q 2066 3103 1784 3103 
Q 1356 3103 1142 2972 
Q 928 2841 928 2578 
Q 928 2378 1081 2264 
Q 1234 2150 1697 2047 
L 1894 2003 
Q 2506 1872 2764 1633 
Q 3022 1394 3022 966 
Q 3022 478 2636 193 
Q 2250 -91 1575 -91 
Q 1294 -91 989 -36 
Q 684 19 347 128 
L 347 722 
Q 666 556 975 473 
Q 1284 391 1588 391 
Q 1994 391 2212 530 
Q 2431 669 2431 922 
Q 2431 1156 2273 1281 
Q 2116 1406 1581 1522 
L 1381 1569 
Q 847 1681 609 1914 
Q 372 2147 372 2553 
Q 372 3047 722 3315 
Q 1072 3584 1716 3584 
Q 2034 3584 2315 3537 
Q 2597 3491 2834 3397 
z
" transform="scale(0.015625)"/>
      </defs>
      <use xlink:href="#DejaVuSans-50"/>
      <use xlink:href="#DejaVuSans-72" x="58.552734"/>
      <use xlink:href="#DejaVuSans-6f" x="97.416016"/>
      <use xlink:href="#DejaVuSans-62" x="158.597656"/>
      <use xlink:href="#DejaVuSans-61" x="222.074219"/>
      <use xlink:href="#DejaVuSans-62" x="283.353516"/>
      <use xlink:href="#DejaVuSans-69" x="346.830078"/>
      <use xlink:href="#DejaVuSans-6c" x="374.613281"/>
      <use xlink:href="#DejaVuSans-69" x="402.396484"/>
      <use xlink:href="#DejaVuSans-74" x="430.179688"/>
      <use xlink:href="#DejaVuSans-79" x="469.388672"/>
      <use xlink:href="#DejaVuSans-20" x="528.568359"/>
      <use xlink:href="#DejaVuSans-64" x="560.355469"/>
      <use xlink:href="#DejaVuSans-65" x="623.832031"/>
      <use xlink:href="#DejaVuSans-6e" x="685.355469"/>
      <use xlink:href="#DejaVuSans-73" x="748.734375"/>
      <use xlink:href="#DejaVuSans-69" x="800.833984"/>
      <use xlink:href="#DejaVuSans-74" x="828.617188"/>
      <use xlink:href="#DejaVuSans-79" x="867.826172"/>
     </g>
    </g>
   </g>
   <g id="line2d_16">
    <path d="M 60.013977 273.312 
L 79.837728 229.489254 
L 90.237073 207.042959 
L 99.01152 188.616431 
L 106.811029 172.745555 
L 113.960578 158.698102 
L 120.460169 146.401834 
L 126.63478 135.184498 
L 132.484411 125.011663 
L 138.009063 115.839645 
L 143.208736 107.617735 
L 148.408408 99.815222 
L 153.283101 92.898841 
L 157.832814 86.805376 
L 162.382528 81.073362 
L 166.932241 75.713907 
L 171.156975 71.079954 
L 175.381709 66.783944 
L 179.281463 63.124566 
L 183.181217 59.764473 
L 187.080972 56.708451 
L 190.655746 54.177939 
L 194.230521 51.90962 
L 197.805296 49.906208 
L 201.380071 48.170099 
L 204.629866 46.825531 
L 207.879661 45.704925 
L 211.129456 44.809389 
L 214.379252 44.13981 
L 217.629047 43.696849 
L 220.878842 43.480944 
L 224.128637 43.49231 
L 227.378433 43.730933 
L 230.628228 44.196579 
L 233.878023 44.888788 
L 237.127818 45.806874 
L 240.377614 46.949929 
L 243.627409 48.316825 
L 247.202184 50.077324 
L 250.776958 52.104923 
L 254.351733 54.397194 
L 257.926508 56.951397 
L 261.501283 59.764473 
L 265.401037 63.124566 
L 269.300791 66.783944 
L 273.200546 70.737399 
L 277.425279 75.345624 
L 281.650013 80.284666 
L 286.199727 85.964121 
L 290.74944 92.006656 
L 295.624133 98.870392 
L 300.498826 106.122208 
L 305.698498 114.267034 
L 311.22315 123.361517 
L 316.747802 132.88446 
L 322.597433 143.404325 
L 328.772044 154.959383 
L 335.596614 168.220466 
L 342.746164 182.603423 
L 350.870652 199.470611 
L 359.970079 218.898368 
L 371.019383 243.041302 
L 384.668523 273.312 
L 384.668523 273.312 
" clip-path="url(#p34e45e1a4c)" style="fill: none; stroke: #ff7f0e; stroke-width: 1.5; stroke-linecap: square"/>
   </g>
   <g id="patch_203">
    <path d="M 43.78125 273.312 
L 43.78125 7.2 
" style="fill: none; stroke: #000000; stroke-width: 0.8; stroke-linejoin: miter; stroke-linecap: square"/>
   </g>
   <g id="patch_204">
    <path d="M 400.90125 273.312 
L 400.90125 7.2 
" style="fill: none; stroke: #000000; stroke-width: 0.8; stroke-linejoin: miter; stroke-linecap: square"/>
   </g>
   <g id="patch_205">
    <path d="M 43.78125 273.312 
L 400.90125 273.312 
" style="fill: none; stroke: #000000; stroke-width: 0.8; stroke-linejoin: miter; stroke-linecap: square"/>
   </g>
   <g id="patch_206">
    <path d="M 43.78125 7.2 
L 400.90125 7.2 
" style="fill: none; stroke: #000000; stroke-width: 0.8; stroke-linejoin: miter; stroke-linecap: square"/>
   </g>
  </g>
 </g>
 <defs>
  <clipPath id="p34e45e1a4c">
   <rect x="43.78125" y="7.2" width="357.12" height="266.112"/>
  </clipPath>
 </defs>
</svg>
