<?xml version="1.0" encoding="utf-8" standalone="no"?>
<!DOCTYPE svg PUBLIC "-//W3C//DTD SVG 1.1//EN"
  "http://www.w3.org/Graphics/SVG/1.1/DTD/svg11.dtd">
<svg xmlns:xlink="http://www.w3.org/1999/xlink" width="414.46375pt" height="310.86825pt" viewBox="0 0 414.46375 310.86825" xmlns="http://www.w3.org/2000/svg" version="1.1">
 <metadata>
  <rdf:RDF xmlns:dc="http://purl.org/dc/elements/1.1/" xmlns:cc="http://creativecommons.org/ns#" xmlns:rdf="http://www.w3.org/1999/02/22-rdf-syntax-ns#">
   <cc:Work>
    <dc:type rdf:resource="http://purl.org/dc/dcmitype/StillImage"/>
    <dc:date>2022-05-11T15:28:32.666261</dc:date>
    <dc:format>image/svg+xml</dc:format>
    <dc:creator>
     <cc:Agent>
      <dc:title>Matplotlib v3.5.2, https://matplotlib.org/</dc:title>
     </cc:Agent>
    </dc:creator>
   </cc:Work>
  </rdf:RDF>
 </metadata>
 <defs>
  <style type="text/css">*{stroke-linejoin: round; stroke-linecap: butt}</style>
 </defs>
 <g id="figure_1">
  <g id="patch_1">
   <path d="M 0 310.86825 
L 414.46375 310.86825 
L 414.46375 0 
L 0 0 
z
" style="fill: #ffffff"/>
  </g>
  <g id="axes_1">
   <g id="patch_2">
    <path d="M 50.14375 273.312 
L 407.26375 273.312 
L 407.26375 7.2 
L 50.14375 7.2 
z
" style="fill: #ffffff"/>
   </g>
   <g id="patch_3">
    <path d="M 67.806595 273.312 
L 69.422703 273.312 
L 69.422703 268.390835 
L 67.806595 268.390835 
z
" clip-path="url(#p0dabab1cee)" style="fill: #1f77b4"/>
   </g>
   <g id="patch_4">
    <path d="M 69.422703 273.312 
L 71.03881 273.312 
L 71.03881 270.851417 
L 69.422703 270.851417 
z
" clip-path="url(#p0dabab1cee)" style="fill: #1f77b4"/>
   </g>
   <g id="patch_5">
    <path d="M 71.03881 273.312 
L 72.654917 273.312 
L 72.654917 268.390835 
L 71.03881 268.390835 
z
" clip-path="url(#p0dabab1cee)" style="fill: #1f77b4"/>
   </g>
   <g id="patch_6">
    <path d="M 72.654917 273.312 
L 74.271025 273.312 
L 74.271025 270.236272 
L 72.654917 270.236272 
z
" clip-path="url(#p0dabab1cee)" style="fill: #1f77b4"/>
   </g>
   <g id="patch_7">
    <path d="M 74.271025 273.312 
L 75.887132 273.312 
L 75.887132 265.315107 
L 74.271025 265.315107 
z
" clip-path="url(#p0dabab1cee)" style="fill: #1f77b4"/>
   </g>
   <g id="patch_8">
    <path d="M 75.887132 273.312 
L 77.50324 273.312 
L 77.50324 265.315107 
L 75.887132 265.315107 
z
" clip-path="url(#p0dabab1cee)" style="fill: #1f77b4"/>
   </g>
   <g id="patch_9">
    <path d="M 77.50324 273.312 
L 79.119347 273.312 
L 79.119347 265.315107 
L 77.50324 265.315107 
z
" clip-path="url(#p0dabab1cee)" style="fill: #1f77b4"/>
   </g>
   <g id="patch_10">
    <path d="M 79.119347 273.312 
L 80.735454 273.312 
L 80.735454 266.545398 
L 79.119347 266.545398 
z
" clip-path="url(#p0dabab1cee)" style="fill: #1f77b4"/>
   </g>
   <g id="patch_11">
    <path d="M 80.735454 273.312 
L 82.351562 273.312 
L 82.351562 262.854524 
L 80.735454 262.854524 
z
" clip-path="url(#p0dabab1cee)" style="fill: #1f77b4"/>
   </g>
   <g id="patch_12">
    <path d="M 82.351562 273.312 
L 83.967669 273.312 
L 83.967669 261.624233 
L 82.351562 261.624233 
z
" clip-path="url(#p0dabab1cee)" style="fill: #1f77b4"/>
   </g>
   <g id="patch_13">
    <path d="M 83.967669 273.312 
L 85.583776 273.312 
L 85.583776 254.857631 
L 83.967669 254.857631 
z
" clip-path="url(#p0dabab1cee)" style="fill: #1f77b4"/>
   </g>
   <g id="patch_14">
    <path d="M 85.583776 273.312 
L 87.199884 273.312 
L 87.199884 261.009087 
L 85.583776 261.009087 
z
" clip-path="url(#p0dabab1cee)" style="fill: #1f77b4"/>
   </g>
   <g id="patch_15">
    <path d="M 87.199884 273.312 
L 88.815991 273.312 
L 88.815991 253.62734 
L 87.199884 253.62734 
z
" clip-path="url(#p0dabab1cee)" style="fill: #1f77b4"/>
   </g>
   <g id="patch_16">
    <path d="M 88.815991 273.312 
L 90.432099 273.312 
L 90.432099 251.781903 
L 88.815991 251.781903 
z
" clip-path="url(#p0dabab1cee)" style="fill: #1f77b4"/>
   </g>
   <g id="patch_17">
    <path d="M 90.432099 273.312 
L 92.048206 273.312 
L 92.048206 249.936466 
L 90.432099 249.936466 
z
" clip-path="url(#p0dabab1cee)" style="fill: #1f77b4"/>
   </g>
   <g id="patch_18">
    <path d="M 92.048206 273.312 
L 93.664313 273.312 
L 93.664313 256.703068 
L 92.048206 256.703068 
z
" clip-path="url(#p0dabab1cee)" style="fill: #1f77b4"/>
   </g>
   <g id="patch_19">
    <path d="M 93.664313 273.312 
L 95.280421 273.312 
L 95.280421 248.706175 
L 93.664313 248.706175 
z
" clip-path="url(#p0dabab1cee)" style="fill: #1f77b4"/>
   </g>
   <g id="patch_20">
    <path d="M 95.280421 273.312 
L 96.896528 273.312 
L 96.896528 256.087922 
L 95.280421 256.087922 
z
" clip-path="url(#p0dabab1cee)" style="fill: #1f77b4"/>
   </g>
   <g id="patch_21">
    <path d="M 96.896528 273.312 
L 98.512636 273.312 
L 98.512636 246.860738 
L 96.896528 246.860738 
z
" clip-path="url(#p0dabab1cee)" style="fill: #1f77b4"/>
   </g>
   <g id="patch_22">
    <path d="M 98.512636 273.312 
L 100.128743 273.312 
L 100.128743 259.16365 
L 98.512636 259.16365 
z
" clip-path="url(#p0dabab1cee)" style="fill: #1f77b4"/>
   </g>
   <g id="patch_23">
    <path d="M 100.128743 273.312 
L 101.74485 273.312 
L 101.74485 251.781903 
L 100.128743 251.781903 
z
" clip-path="url(#p0dabab1cee)" style="fill: #1f77b4"/>
   </g>
   <g id="patch_24">
    <path d="M 101.74485 273.312 
L 103.360958 273.312 
L 103.360958 241.939573 
L 101.74485 241.939573 
z
" clip-path="url(#p0dabab1cee)" style="fill: #1f77b4"/>
   </g>
   <g id="patch_25">
    <path d="M 103.360958 273.312 
L 104.977065 273.312 
L 104.977065 248.091029 
L 103.360958 248.091029 
z
" clip-path="url(#p0dabab1cee)" style="fill: #1f77b4"/>
   </g>
   <g id="patch_26">
    <path d="M 104.977065 273.312 
L 106.593172 273.312 
L 106.593172 244.400155 
L 104.977065 244.400155 
z
" clip-path="url(#p0dabab1cee)" style="fill: #1f77b4"/>
   </g>
   <g id="patch_27">
    <path d="M 106.593172 273.312 
L 108.20928 273.312 
L 108.20928 235.172971 
L 106.593172 235.172971 
z
" clip-path="url(#p0dabab1cee)" style="fill: #1f77b4"/>
   </g>
   <g id="patch_28">
    <path d="M 108.20928 273.312 
L 109.825387 273.312 
L 109.825387 242.554718 
L 108.20928 242.554718 
z
" clip-path="url(#p0dabab1cee)" style="fill: #1f77b4"/>
   </g>
   <g id="patch_29">
    <path d="M 109.825387 273.312 
L 111.441495 273.312 
L 111.441495 236.403262 
L 109.825387 236.403262 
z
" clip-path="url(#p0dabab1cee)" style="fill: #1f77b4"/>
   </g>
   <g id="patch_30">
    <path d="M 111.441495 273.312 
L 113.057602 273.312 
L 113.057602 238.863845 
L 111.441495 238.863845 
z
" clip-path="url(#p0dabab1cee)" style="fill: #1f77b4"/>
   </g>
   <g id="patch_31">
    <path d="M 113.057602 273.312 
L 114.673709 273.312 
L 114.673709 232.097243 
L 113.057602 232.097243 
z
" clip-path="url(#p0dabab1cee)" style="fill: #1f77b4"/>
   </g>
   <g id="patch_32">
    <path d="M 114.673709 273.312 
L 116.289817 273.312 
L 116.289817 239.47899 
L 114.673709 239.47899 
z
" clip-path="url(#p0dabab1cee)" style="fill: #1f77b4"/>
   </g>
   <g id="patch_33">
    <path d="M 116.289817 273.312 
L 117.905924 273.312 
L 117.905924 241.324427 
L 116.289817 241.324427 
z
" clip-path="url(#p0dabab1cee)" style="fill: #1f77b4"/>
   </g>
   <g id="patch_34">
    <path d="M 117.905924 273.312 
L 119.522031 273.312 
L 119.522031 241.324427 
L 117.905924 241.324427 
z
" clip-path="url(#p0dabab1cee)" style="fill: #1f77b4"/>
   </g>
   <g id="patch_35">
    <path d="M 119.522031 273.312 
L 121.138139 273.312 
L 121.138139 232.097243 
L 119.522031 232.097243 
z
" clip-path="url(#p0dabab1cee)" style="fill: #1f77b4"/>
   </g>
   <g id="patch_36">
    <path d="M 121.138139 273.312 
L 122.754246 273.312 
L 122.754246 232.712388 
L 121.138139 232.712388 
z
" clip-path="url(#p0dabab1cee)" style="fill: #1f77b4"/>
   </g>
   <g id="patch_37">
    <path d="M 122.754246 273.312 
L 124.370354 273.312 
L 124.370354 238.863845 
L 122.754246 238.863845 
z
" clip-path="url(#p0dabab1cee)" style="fill: #1f77b4"/>
   </g>
   <g id="patch_38">
    <path d="M 124.370354 273.312 
L 125.986461 273.312 
L 125.986461 233.94268 
L 124.370354 233.94268 
z
" clip-path="url(#p0dabab1cee)" style="fill: #1f77b4"/>
   </g>
   <g id="patch_39">
    <path d="M 125.986461 273.312 
L 127.602568 273.312 
L 127.602568 235.788117 
L 125.986461 235.788117 
z
" clip-path="url(#p0dabab1cee)" style="fill: #1f77b4"/>
   </g>
   <g id="patch_40">
    <path d="M 127.602568 273.312 
L 129.218676 273.312 
L 129.218676 229.021515 
L 127.602568 229.021515 
z
" clip-path="url(#p0dabab1cee)" style="fill: #1f77b4"/>
   </g>
   <g id="patch_41">
    <path d="M 129.218676 273.312 
L 130.834783 273.312 
L 130.834783 219.79433 
L 129.218676 219.79433 
z
" clip-path="url(#p0dabab1cee)" style="fill: #1f77b4"/>
   </g>
   <g id="patch_42">
    <path d="M 130.834783 273.312 
L 132.45089 273.312 
L 132.45089 224.10035 
L 130.834783 224.10035 
z
" clip-path="url(#p0dabab1cee)" style="fill: #1f77b4"/>
   </g>
   <g id="patch_43">
    <path d="M 132.45089 273.312 
L 134.066998 273.312 
L 134.066998 226.560932 
L 132.45089 226.560932 
z
" clip-path="url(#p0dabab1cee)" style="fill: #1f77b4"/>
   </g>
   <g id="patch_44">
    <path d="M 134.066998 273.312 
L 135.683105 273.312 
L 135.683105 227.176078 
L 134.066998 227.176078 
z
" clip-path="url(#p0dabab1cee)" style="fill: #1f77b4"/>
   </g>
   <g id="patch_45">
    <path d="M 135.683105 273.312 
L 137.299213 273.312 
L 137.299213 217.948893 
L 135.683105 217.948893 
z
" clip-path="url(#p0dabab1cee)" style="fill: #1f77b4"/>
   </g>
   <g id="patch_46">
    <path d="M 137.299213 273.312 
L 138.91532 273.312 
L 138.91532 221.024621 
L 137.299213 221.024621 
z
" clip-path="url(#p0dabab1cee)" style="fill: #1f77b4"/>
   </g>
   <g id="patch_47">
    <path d="M 138.91532 273.312 
L 140.531427 273.312 
L 140.531427 222.870058 
L 138.91532 222.870058 
z
" clip-path="url(#p0dabab1cee)" style="fill: #1f77b4"/>
   </g>
   <g id="patch_48">
    <path d="M 140.531427 273.312 
L 142.147535 273.312 
L 142.147535 225.945786 
L 140.531427 225.945786 
z
" clip-path="url(#p0dabab1cee)" style="fill: #1f77b4"/>
   </g>
   <g id="patch_49">
    <path d="M 142.147535 273.312 
L 143.763642 273.312 
L 143.763642 207.491417 
L 142.147535 207.491417 
z
" clip-path="url(#p0dabab1cee)" style="fill: #1f77b4"/>
   </g>
   <g id="patch_50">
    <path d="M 143.763642 273.312 
L 145.379749 273.312 
L 145.379749 198.879379 
L 143.763642 198.879379 
z
" clip-path="url(#p0dabab1cee)" style="fill: #1f77b4"/>
   </g>
   <g id="patch_51">
    <path d="M 145.379749 273.312 
L 146.995857 273.312 
L 146.995857 211.182291 
L 145.379749 211.182291 
z
" clip-path="url(#p0dabab1cee)" style="fill: #1f77b4"/>
   </g>
   <g id="patch_52">
    <path d="M 146.995857 273.312 
L 148.611964 273.312 
L 148.611964 212.412583 
L 146.995857 212.412583 
z
" clip-path="url(#p0dabab1cee)" style="fill: #1f77b4"/>
   </g>
   <g id="patch_53">
    <path d="M 148.611964 273.312 
L 150.228072 273.312 
L 150.228072 199.494524 
L 148.611964 199.494524 
z
" clip-path="url(#p0dabab1cee)" style="fill: #1f77b4"/>
   </g>
   <g id="patch_54">
    <path d="M 150.228072 273.312 
L 151.844179 273.312 
L 151.844179 197.033942 
L 150.228072 197.033942 
z
" clip-path="url(#p0dabab1cee)" style="fill: #1f77b4"/>
   </g>
   <g id="patch_55">
    <path d="M 151.844179 273.312 
L 153.460286 273.312 
L 153.460286 199.494524 
L 151.844179 199.494524 
z
" clip-path="url(#p0dabab1cee)" style="fill: #1f77b4"/>
   </g>
   <g id="patch_56">
    <path d="M 153.460286 273.312 
L 155.076394 273.312 
L 155.076394 204.415689 
L 153.460286 204.415689 
z
" clip-path="url(#p0dabab1cee)" style="fill: #1f77b4"/>
   </g>
   <g id="patch_57">
    <path d="M 155.076394 273.312 
L 156.692501 273.312 
L 156.692501 209.336854 
L 155.076394 209.336854 
z
" clip-path="url(#p0dabab1cee)" style="fill: #1f77b4"/>
   </g>
   <g id="patch_58">
    <path d="M 156.692501 273.312 
L 158.308609 273.312 
L 158.308609 193.958214 
L 156.692501 193.958214 
z
" clip-path="url(#p0dabab1cee)" style="fill: #1f77b4"/>
   </g>
   <g id="patch_59">
    <path d="M 158.308609 273.312 
L 159.924716 273.312 
L 159.924716 205.030835 
L 158.308609 205.030835 
z
" clip-path="url(#p0dabab1cee)" style="fill: #1f77b4"/>
   </g>
   <g id="patch_60">
    <path d="M 159.924716 273.312 
L 161.540823 273.312 
L 161.540823 197.033942 
L 159.924716 197.033942 
z
" clip-path="url(#p0dabab1cee)" style="fill: #1f77b4"/>
   </g>
   <g id="patch_61">
    <path d="M 161.540823 273.312 
L 163.156931 273.312 
L 163.156931 211.797437 
L 161.540823 211.797437 
z
" clip-path="url(#p0dabab1cee)" style="fill: #1f77b4"/>
   </g>
   <g id="patch_62">
    <path d="M 163.156931 273.312 
L 164.773038 273.312 
L 164.773038 208.721709 
L 163.156931 208.721709 
z
" clip-path="url(#p0dabab1cee)" style="fill: #1f77b4"/>
   </g>
   <g id="patch_63">
    <path d="M 164.773038 273.312 
L 166.389145 273.312 
L 166.389145 192.112777 
L 164.773038 192.112777 
z
" clip-path="url(#p0dabab1cee)" style="fill: #1f77b4"/>
   </g>
   <g id="patch_64">
    <path d="M 166.389145 273.312 
L 168.005253 273.312 
L 168.005253 185.96132 
L 166.389145 185.96132 
z
" clip-path="url(#p0dabab1cee)" style="fill: #1f77b4"/>
   </g>
   <g id="patch_65">
    <path d="M 168.005253 273.312 
L 169.62136 273.312 
L 169.62136 190.882485 
L 168.005253 190.882485 
z
" clip-path="url(#p0dabab1cee)" style="fill: #1f77b4"/>
   </g>
   <g id="patch_66">
    <path d="M 169.62136 273.312 
L 171.237468 273.312 
L 171.237468 189.037049 
L 169.62136 189.037049 
z
" clip-path="url(#p0dabab1cee)" style="fill: #1f77b4"/>
   </g>
   <g id="patch_67">
    <path d="M 171.237468 273.312 
L 172.853575 273.312 
L 172.853575 194.573359 
L 171.237468 194.573359 
z
" clip-path="url(#p0dabab1cee)" style="fill: #1f77b4"/>
   </g>
   <g id="patch_68">
    <path d="M 172.853575 273.312 
L 174.469682 273.312 
L 174.469682 193.958214 
L 172.853575 193.958214 
z
" clip-path="url(#p0dabab1cee)" style="fill: #1f77b4"/>
   </g>
   <g id="patch_69">
    <path d="M 174.469682 273.312 
L 176.08579 273.312 
L 176.08579 192.727922 
L 174.469682 192.727922 
z
" clip-path="url(#p0dabab1cee)" style="fill: #1f77b4"/>
   </g>
   <g id="patch_70">
    <path d="M 176.08579 273.312 
L 177.701897 273.312 
L 177.701897 188.421903 
L 176.08579 188.421903 
z
" clip-path="url(#p0dabab1cee)" style="fill: #1f77b4"/>
   </g>
   <g id="patch_71">
    <path d="M 177.701897 273.312 
L 179.318004 273.312 
L 179.318004 197.033942 
L 177.701897 197.033942 
z
" clip-path="url(#p0dabab1cee)" style="fill: #1f77b4"/>
   </g>
   <g id="patch_72">
    <path d="M 179.318004 273.312 
L 180.934112 273.312 
L 180.934112 181.655301 
L 179.318004 181.655301 
z
" clip-path="url(#p0dabab1cee)" style="fill: #1f77b4"/>
   </g>
   <g id="patch_73">
    <path d="M 180.934112 273.312 
L 182.550219 273.312 
L 182.550219 186.576466 
L 180.934112 186.576466 
z
" clip-path="url(#p0dabab1cee)" style="fill: #1f77b4"/>
   </g>
   <g id="patch_74">
    <path d="M 182.550219 273.312 
L 184.166327 273.312 
L 184.166327 179.809864 
L 182.550219 179.809864 
z
" clip-path="url(#p0dabab1cee)" style="fill: #1f77b4"/>
   </g>
   <g id="patch_75">
    <path d="M 184.166327 273.312 
L 185.782434 273.312 
L 185.782434 190.26734 
L 184.166327 190.26734 
z
" clip-path="url(#p0dabab1cee)" style="fill: #1f77b4"/>
   </g>
   <g id="patch_76">
    <path d="M 185.782434 273.312 
L 187.398541 273.312 
L 187.398541 172.428117 
L 185.782434 172.428117 
z
" clip-path="url(#p0dabab1cee)" style="fill: #1f77b4"/>
   </g>
   <g id="patch_77">
    <path d="M 187.398541 273.312 
L 189.014649 273.312 
L 189.014649 177.349282 
L 187.398541 177.349282 
z
" clip-path="url(#p0dabab1cee)" style="fill: #1f77b4"/>
   </g>
   <g id="patch_78">
    <path d="M 189.014649 273.312 
L 190.630756 273.312 
L 190.630756 173.658408 
L 189.014649 173.658408 
z
" clip-path="url(#p0dabab1cee)" style="fill: #1f77b4"/>
   </g>
   <g id="patch_79">
    <path d="M 190.630756 273.312 
L 192.246863 273.312 
L 192.246863 179.194718 
L 190.630756 179.194718 
z
" clip-path="url(#p0dabab1cee)" style="fill: #1f77b4"/>
   </g>
   <g id="patch_80">
    <path d="M 192.246863 273.312 
L 193.862971 273.312 
L 193.862971 175.503845 
L 192.246863 175.503845 
z
" clip-path="url(#p0dabab1cee)" style="fill: #1f77b4"/>
   </g>
   <g id="patch_81">
    <path d="M 193.862971 273.312 
L 195.479078 273.312 
L 195.479078 173.658408 
L 193.862971 173.658408 
z
" clip-path="url(#p0dabab1cee)" style="fill: #1f77b4"/>
   </g>
   <g id="patch_82">
    <path d="M 195.479078 273.312 
L 197.095186 273.312 
L 197.095186 177.964427 
L 195.479078 177.964427 
z
" clip-path="url(#p0dabab1cee)" style="fill: #1f77b4"/>
   </g>
   <g id="patch_83">
    <path d="M 197.095186 273.312 
L 198.711293 273.312 
L 198.711293 174.888699 
L 197.095186 174.888699 
z
" clip-path="url(#p0dabab1cee)" style="fill: #1f77b4"/>
   </g>
   <g id="patch_84">
    <path d="M 198.711293 273.312 
L 200.3274 273.312 
L 200.3274 179.194718 
L 198.711293 179.194718 
z
" clip-path="url(#p0dabab1cee)" style="fill: #1f77b4"/>
   </g>
   <g id="patch_85">
    <path d="M 200.3274 273.312 
L 201.943508 273.312 
L 201.943508 180.42501 
L 200.3274 180.42501 
z
" clip-path="url(#p0dabab1cee)" style="fill: #1f77b4"/>
   </g>
   <g id="patch_86">
    <path d="M 201.943508 273.312 
L 203.559615 273.312 
L 203.559615 162.585786 
L 201.943508 162.585786 
z
" clip-path="url(#p0dabab1cee)" style="fill: #1f77b4"/>
   </g>
   <g id="patch_87">
    <path d="M 203.559615 273.312 
L 205.175723 273.312 
L 205.175723 163.816078 
L 203.559615 163.816078 
z
" clip-path="url(#p0dabab1cee)" style="fill: #1f77b4"/>
   </g>
   <g id="patch_88">
    <path d="M 205.175723 273.312 
L 206.79183 273.312 
L 206.79183 158.279767 
L 205.175723 158.279767 
z
" clip-path="url(#p0dabab1cee)" style="fill: #1f77b4"/>
   </g>
   <g id="patch_89">
    <path d="M 206.79183 273.312 
L 208.407937 273.312 
L 208.407937 160.74035 
L 206.79183 160.74035 
z
" clip-path="url(#p0dabab1cee)" style="fill: #1f77b4"/>
   </g>
   <g id="patch_90">
    <path d="M 208.407937 273.312 
L 210.024045 273.312 
L 210.024045 171.812971 
L 208.407937 171.812971 
z
" clip-path="url(#p0dabab1cee)" style="fill: #1f77b4"/>
   </g>
   <g id="patch_91">
    <path d="M 210.024045 273.312 
L 211.640152 273.312 
L 211.640152 158.894913 
L 210.024045 158.894913 
z
" clip-path="url(#p0dabab1cee)" style="fill: #1f77b4"/>
   </g>
   <g id="patch_92">
    <path d="M 211.640152 273.312 
L 213.256259 273.312 
L 213.256259 171.197825 
L 211.640152 171.197825 
z
" clip-path="url(#p0dabab1cee)" style="fill: #1f77b4"/>
   </g>
   <g id="patch_93">
    <path d="M 213.256259 273.312 
L 214.872367 273.312 
L 214.872367 153.358602 
L 213.256259 153.358602 
z
" clip-path="url(#p0dabab1cee)" style="fill: #1f77b4"/>
   </g>
   <g id="patch_94">
    <path d="M 214.872367 273.312 
L 216.488474 273.312 
L 216.488474 155.819184 
L 214.872367 155.819184 
z
" clip-path="url(#p0dabab1cee)" style="fill: #1f77b4"/>
   </g>
   <g id="patch_95">
    <path d="M 216.488474 273.312 
L 218.104582 273.312 
L 218.104582 170.58268 
L 216.488474 170.58268 
z
" clip-path="url(#p0dabab1cee)" style="fill: #1f77b4"/>
   </g>
   <g id="patch_96">
    <path d="M 218.104582 273.312 
L 219.720689 273.312 
L 219.720689 162.585786 
L 218.104582 162.585786 
z
" clip-path="url(#p0dabab1cee)" style="fill: #1f77b4"/>
   </g>
   <g id="patch_97">
    <path d="M 219.720689 273.312 
L 221.336796 273.312 
L 221.336796 153.973748 
L 219.720689 153.973748 
z
" clip-path="url(#p0dabab1cee)" style="fill: #1f77b4"/>
   </g>
   <g id="patch_98">
    <path d="M 221.336796 273.312 
L 222.952904 273.312 
L 222.952904 150.898019 
L 221.336796 150.898019 
z
" clip-path="url(#p0dabab1cee)" style="fill: #1f77b4"/>
   </g>
   <g id="patch_99">
    <path d="M 222.952904 273.312 
L 224.569011 273.312 
L 224.569011 158.894913 
L 222.952904 158.894913 
z
" clip-path="url(#p0dabab1cee)" style="fill: #1f77b4"/>
   </g>
   <g id="patch_100">
    <path d="M 224.569011 273.312 
L 226.185118 273.312 
L 226.185118 148.437437 
L 224.569011 148.437437 
z
" clip-path="url(#p0dabab1cee)" style="fill: #1f77b4"/>
   </g>
   <g id="patch_101">
    <path d="M 226.185118 273.312 
L 227.801226 273.312 
L 227.801226 149.052583 
L 226.185118 149.052583 
z
" clip-path="url(#p0dabab1cee)" style="fill: #1f77b4"/>
   </g>
   <g id="patch_102">
    <path d="M 227.801226 273.312 
L 229.417333 273.312 
L 229.417333 150.282874 
L 227.801226 150.282874 
z
" clip-path="url(#p0dabab1cee)" style="fill: #1f77b4"/>
   </g>
   <g id="patch_103">
    <path d="M 229.417333 273.312 
L 231.033441 273.312 
L 231.033441 142.901126 
L 229.417333 142.901126 
z
" clip-path="url(#p0dabab1cee)" style="fill: #1f77b4"/>
   </g>
   <g id="patch_104">
    <path d="M 231.033441 273.312 
L 232.649548 273.312 
L 232.649548 141.670835 
L 231.033441 141.670835 
z
" clip-path="url(#p0dabab1cee)" style="fill: #1f77b4"/>
   </g>
   <g id="patch_105">
    <path d="M 232.649548 273.312 
L 234.265655 273.312 
L 234.265655 155.204039 
L 232.649548 155.204039 
z
" clip-path="url(#p0dabab1cee)" style="fill: #1f77b4"/>
   </g>
   <g id="patch_106">
    <path d="M 234.265655 273.312 
L 235.881763 273.312 
L 235.881763 139.825398 
L 234.265655 139.825398 
z
" clip-path="url(#p0dabab1cee)" style="fill: #1f77b4"/>
   </g>
   <g id="patch_107">
    <path d="M 235.881763 273.312 
L 237.49787 273.312 
L 237.49787 166.891806 
L 235.881763 166.891806 
z
" clip-path="url(#p0dabab1cee)" style="fill: #1f77b4"/>
   </g>
   <g id="patch_108">
    <path d="M 237.49787 273.312 
L 239.113977 273.312 
L 239.113977 152.128311 
L 237.49787 152.128311 
z
" clip-path="url(#p0dabab1cee)" style="fill: #1f77b4"/>
   </g>
   <g id="patch_109">
    <path d="M 239.113977 273.312 
L 240.730085 273.312 
L 240.730085 123.216466 
L 239.113977 123.216466 
z
" clip-path="url(#p0dabab1cee)" style="fill: #1f77b4"/>
   </g>
   <g id="patch_110">
    <path d="M 240.730085 273.312 
L 242.346192 273.312 
L 242.346192 155.204039 
L 240.730085 155.204039 
z
" clip-path="url(#p0dabab1cee)" style="fill: #1f77b4"/>
   </g>
   <g id="patch_111">
    <path d="M 242.346192 273.312 
L 243.9623 273.312 
L 243.9623 146.592 
L 242.346192 146.592 
z
" clip-path="url(#p0dabab1cee)" style="fill: #1f77b4"/>
   </g>
   <g id="patch_112">
    <path d="M 243.9623 273.312 
L 245.578407 273.312 
L 245.578407 120.140738 
L 243.9623 120.140738 
z
" clip-path="url(#p0dabab1cee)" style="fill: #1f77b4"/>
   </g>
   <g id="patch_113">
    <path d="M 245.578407 273.312 
L 247.194514 273.312 
L 247.194514 141.670835 
L 245.578407 141.670835 
z
" clip-path="url(#p0dabab1cee)" style="fill: #1f77b4"/>
   </g>
   <g id="patch_114">
    <path d="M 247.194514 273.312 
L 248.810622 273.312 
L 248.810622 147.822291 
L 247.194514 147.822291 
z
" clip-path="url(#p0dabab1cee)" style="fill: #1f77b4"/>
   </g>
   <g id="patch_115">
    <path d="M 248.810622 273.312 
L 250.426729 273.312 
L 250.426729 121.371029 
L 248.810622 121.371029 
z
" clip-path="url(#p0dabab1cee)" style="fill: #1f77b4"/>
   </g>
   <g id="patch_116">
    <path d="M 250.426729 273.312 
L 252.042837 273.312 
L 252.042837 126.292194 
L 250.426729 126.292194 
z
" clip-path="url(#p0dabab1cee)" style="fill: #1f77b4"/>
   </g>
   <g id="patch_117">
    <path d="M 252.042837 273.312 
L 253.658944 273.312 
L 253.658944 114.604427 
L 252.042837 114.604427 
z
" clip-path="url(#p0dabab1cee)" style="fill: #1f77b4"/>
   </g>
   <g id="patch_118">
    <path d="M 253.658944 273.312 
L 255.275051 273.312 
L 255.275051 126.90734 
L 253.658944 126.90734 
z
" clip-path="url(#p0dabab1cee)" style="fill: #1f77b4"/>
   </g>
   <g id="patch_119">
    <path d="M 255.275051 273.312 
L 256.891159 273.312 
L 256.891159 121.986175 
L 255.275051 121.986175 
z
" clip-path="url(#p0dabab1cee)" style="fill: #1f77b4"/>
   </g>
   <g id="patch_120">
    <path d="M 256.891159 273.312 
L 258.507266 273.312 
L 258.507266 118.910447 
L 256.891159 118.910447 
z
" clip-path="url(#p0dabab1cee)" style="fill: #1f77b4"/>
   </g>
   <g id="patch_121">
    <path d="M 258.507266 273.312 
L 260.123373 273.312 
L 260.123373 123.831612 
L 258.507266 123.831612 
z
" clip-path="url(#p0dabab1cee)" style="fill: #1f77b4"/>
   </g>
   <g id="patch_122">
    <path d="M 260.123373 273.312 
L 261.739481 273.312 
L 261.739481 135.519379 
L 260.123373 135.519379 
z
" clip-path="url(#p0dabab1cee)" style="fill: #1f77b4"/>
   </g>
   <g id="patch_123">
    <path d="M 261.739481 273.312 
L 263.355588 273.312 
L 263.355588 127.522485 
L 261.739481 127.522485 
z
" clip-path="url(#p0dabab1cee)" style="fill: #1f77b4"/>
   </g>
   <g id="patch_124">
    <path d="M 263.355588 273.312 
L 264.971696 273.312 
L 264.971696 113.374136 
L 263.355588 113.374136 
z
" clip-path="url(#p0dabab1cee)" style="fill: #1f77b4"/>
   </g>
   <g id="patch_125">
    <path d="M 264.971696 273.312 
L 266.587803 273.312 
L 266.587803 123.831612 
L 264.971696 123.831612 
z
" clip-path="url(#p0dabab1cee)" style="fill: #1f77b4"/>
   </g>
   <g id="patch_126">
    <path d="M 266.587803 273.312 
L 268.20391 273.312 
L 268.20391 131.213359 
L 266.587803 131.213359 
z
" clip-path="url(#p0dabab1cee)" style="fill: #1f77b4"/>
   </g>
   <g id="patch_127">
    <path d="M 268.20391 273.312 
L 269.820018 273.312 
L 269.820018 125.061903 
L 268.20391 125.061903 
z
" clip-path="url(#p0dabab1cee)" style="fill: #1f77b4"/>
   </g>
   <g id="patch_128">
    <path d="M 269.820018 273.312 
L 271.436125 273.312 
L 271.436125 118.295301 
L 269.820018 118.295301 
z
" clip-path="url(#p0dabab1cee)" style="fill: #1f77b4"/>
   </g>
   <g id="patch_129">
    <path d="M 271.436125 273.312 
L 273.052232 273.312 
L 273.052232 125.677049 
L 271.436125 125.677049 
z
" clip-path="url(#p0dabab1cee)" style="fill: #1f77b4"/>
   </g>
   <g id="patch_130">
    <path d="M 273.052232 273.312 
L 274.66834 273.312 
L 274.66834 126.292194 
L 273.052232 126.292194 
z
" clip-path="url(#p0dabab1cee)" style="fill: #1f77b4"/>
   </g>
   <g id="patch_131">
    <path d="M 274.66834 273.312 
L 276.284447 273.312 
L 276.284447 115.834718 
L 274.66834 115.834718 
z
" clip-path="url(#p0dabab1cee)" style="fill: #1f77b4"/>
   </g>
   <g id="patch_132">
    <path d="M 276.284447 273.312 
L 277.900555 273.312 
L 277.900555 118.910447 
L 276.284447 118.910447 
z
" clip-path="url(#p0dabab1cee)" style="fill: #1f77b4"/>
   </g>
   <g id="patch_133">
    <path d="M 277.900555 273.312 
L 279.516662 273.312 
L 279.516662 123.831612 
L 277.900555 123.831612 
z
" clip-path="url(#p0dabab1cee)" style="fill: #1f77b4"/>
   </g>
   <g id="patch_134">
    <path d="M 279.516662 273.312 
L 281.132769 273.312 
L 281.132769 109.683262 
L 279.516662 109.683262 
z
" clip-path="url(#p0dabab1cee)" style="fill: #1f77b4"/>
   </g>
   <g id="patch_135">
    <path d="M 281.132769 273.312 
L 282.748877 273.312 
L 282.748877 118.295301 
L 281.132769 118.295301 
z
" clip-path="url(#p0dabab1cee)" style="fill: #1f77b4"/>
   </g>
   <g id="patch_136">
    <path d="M 282.748877 273.312 
L 284.364984 273.312 
L 284.364984 108.452971 
L 282.748877 108.452971 
z
" clip-path="url(#p0dabab1cee)" style="fill: #1f77b4"/>
   </g>
   <g id="patch_137">
    <path d="M 284.364984 273.312 
L 285.981091 273.312 
L 285.981091 100.456078 
L 284.364984 100.456078 
z
" clip-path="url(#p0dabab1cee)" style="fill: #1f77b4"/>
   </g>
   <g id="patch_138">
    <path d="M 285.981091 273.312 
L 287.597199 273.312 
L 287.597199 81.386563 
L 285.981091 81.386563 
z
" clip-path="url(#p0dabab1cee)" style="fill: #1f77b4"/>
   </g>
   <g id="patch_139">
    <path d="M 287.597199 273.312 
L 289.213306 273.312 
L 289.213306 117.680155 
L 287.597199 117.680155 
z
" clip-path="url(#p0dabab1cee)" style="fill: #1f77b4"/>
   </g>
   <g id="patch_140">
    <path d="M 289.213306 273.312 
L 290.829414 273.312 
L 290.829414 117.06501 
L 289.213306 117.06501 
z
" clip-path="url(#p0dabab1cee)" style="fill: #1f77b4"/>
   </g>
   <g id="patch_141">
    <path d="M 290.829414 273.312 
L 292.445521 273.312 
L 292.445521 105.377243 
L 290.829414 105.377243 
z
" clip-path="url(#p0dabab1cee)" style="fill: #1f77b4"/>
   </g>
   <g id="patch_142">
    <path d="M 292.445521 273.312 
L 294.061628 273.312 
L 294.061628 107.837825 
L 292.445521 107.837825 
z
" clip-path="url(#p0dabab1cee)" style="fill: #1f77b4"/>
   </g>
   <g id="patch_143">
    <path d="M 294.061628 273.312 
L 295.677736 273.312 
L 295.677736 116.449864 
L 294.061628 116.449864 
z
" clip-path="url(#p0dabab1cee)" style="fill: #1f77b4"/>
   </g>
   <g id="patch_144">
    <path d="M 295.677736 273.312 
L 297.293843 273.312 
L 297.293843 118.295301 
L 295.677736 118.295301 
z
" clip-path="url(#p0dabab1cee)" style="fill: #1f77b4"/>
   </g>
   <g id="patch_145">
    <path d="M 297.293843 273.312 
L 298.909951 273.312 
L 298.909951 90.613748 
L 297.293843 90.613748 
z
" clip-path="url(#p0dabab1cee)" style="fill: #1f77b4"/>
   </g>
   <g id="patch_146">
    <path d="M 298.909951 273.312 
L 300.526058 273.312 
L 300.526058 93.689476 
L 298.909951 93.689476 
z
" clip-path="url(#p0dabab1cee)" style="fill: #1f77b4"/>
   </g>
   <g id="patch_147">
    <path d="M 300.526058 273.312 
L 302.142165 273.312 
L 302.142165 101.686369 
L 300.526058 101.686369 
z
" clip-path="url(#p0dabab1cee)" style="fill: #1f77b4"/>
   </g>
   <g id="patch_148">
    <path d="M 302.142165 273.312 
L 303.758273 273.312 
L 303.758273 101.686369 
L 302.142165 101.686369 
z
" clip-path="url(#p0dabab1cee)" style="fill: #1f77b4"/>
   </g>
   <g id="patch_149">
    <path d="M 303.758273 273.312 
L 305.37438 273.312 
L 305.37438 109.683262 
L 303.758273 109.683262 
z
" clip-path="url(#p0dabab1cee)" style="fill: #1f77b4"/>
   </g>
   <g id="patch_150">
    <path d="M 305.37438 273.312 
L 306.990487 273.312 
L 306.990487 109.683262 
L 305.37438 109.683262 
z
" clip-path="url(#p0dabab1cee)" style="fill: #1f77b4"/>
   </g>
   <g id="patch_151">
    <path d="M 306.990487 273.312 
L 308.606595 273.312 
L 308.606595 96.765204 
L 306.990487 96.765204 
z
" clip-path="url(#p0dabab1cee)" style="fill: #1f77b4"/>
   </g>
   <g id="patch_152">
    <path d="M 308.606595 273.312 
L 310.222702 273.312 
L 310.222702 88.768311 
L 308.606595 88.768311 
z
" clip-path="url(#p0dabab1cee)" style="fill: #1f77b4"/>
   </g>
   <g id="patch_153">
    <path d="M 310.222702 273.312 
L 311.83881 273.312 
L 311.83881 77.695689 
L 310.222702 77.695689 
z
" clip-path="url(#p0dabab1cee)" style="fill: #1f77b4"/>
   </g>
   <g id="patch_154">
    <path d="M 311.83881 273.312 
L 313.454917 273.312 
L 313.454917 103.531806 
L 311.83881 103.531806 
z
" clip-path="url(#p0dabab1cee)" style="fill: #1f77b4"/>
   </g>
   <g id="patch_155">
    <path d="M 313.454917 273.312 
L 315.071024 273.312 
L 315.071024 84.462291 
L 313.454917 84.462291 
z
" clip-path="url(#p0dabab1cee)" style="fill: #1f77b4"/>
   </g>
   <g id="patch_156">
    <path d="M 315.071024 273.312 
L 316.687132 273.312 
L 316.687132 101.071223 
L 315.071024 101.071223 
z
" clip-path="url(#p0dabab1cee)" style="fill: #1f77b4"/>
   </g>
   <g id="patch_157">
    <path d="M 316.687132 273.312 
L 318.303239 273.312 
L 318.303239 84.462291 
L 316.687132 84.462291 
z
" clip-path="url(#p0dabab1cee)" style="fill: #1f77b4"/>
   </g>
   <g id="patch_158">
    <path d="M 318.303239 273.312 
L 319.919346 273.312 
L 319.919346 82.616854 
L 318.303239 82.616854 
z
" clip-path="url(#p0dabab1cee)" style="fill: #1f77b4"/>
   </g>
   <g id="patch_159">
    <path d="M 319.919346 273.312 
L 321.535454 273.312 
L 321.535454 83.232 
L 319.919346 83.232 
z
" clip-path="url(#p0dabab1cee)" style="fill: #1f77b4"/>
   </g>
   <g id="patch_160">
    <path d="M 321.535454 273.312 
L 323.151561 273.312 
L 323.151561 96.150058 
L 321.535454 96.150058 
z
" clip-path="url(#p0dabab1cee)" style="fill: #1f77b4"/>
   </g>
   <g id="patch_161">
    <path d="M 323.151561 273.312 
L 324.767669 273.312 
L 324.767669 91.844039 
L 323.151561 91.844039 
z
" clip-path="url(#p0dabab1cee)" style="fill: #1f77b4"/>
   </g>
   <g id="patch_162">
    <path d="M 324.767669 273.312 
L 326.383776 273.312 
L 326.383776 67.853359 
L 324.767669 67.853359 
z
" clip-path="url(#p0dabab1cee)" style="fill: #1f77b4"/>
   </g>
   <g id="patch_163">
    <path d="M 326.383776 273.312 
L 327.999883 273.312 
L 327.999883 78.310835 
L 326.383776 78.310835 
z
" clip-path="url(#p0dabab1cee)" style="fill: #1f77b4"/>
   </g>
   <g id="patch_164">
    <path d="M 327.999883 273.312 
L 329.615991 273.312 
L 329.615991 67.853359 
L 327.999883 67.853359 
z
" clip-path="url(#p0dabab1cee)" style="fill: #1f77b4"/>
   </g>
   <g id="patch_165">
    <path d="M 329.615991 273.312 
L 331.232098 273.312 
L 331.232098 63.54734 
L 329.615991 63.54734 
z
" clip-path="url(#p0dabab1cee)" style="fill: #1f77b4"/>
   </g>
   <g id="patch_166">
    <path d="M 331.232098 273.312 
L 332.848205 273.312 
L 332.848205 73.38967 
L 331.232098 73.38967 
z
" clip-path="url(#p0dabab1cee)" style="fill: #1f77b4"/>
   </g>
   <g id="patch_167">
    <path d="M 332.848205 273.312 
L 334.464313 273.312 
L 334.464313 83.232 
L 332.848205 83.232 
z
" clip-path="url(#p0dabab1cee)" style="fill: #1f77b4"/>
   </g>
   <g id="patch_168">
    <path d="M 334.464313 273.312 
L 336.08042 273.312 
L 336.08042 88.153165 
L 334.464313 88.153165 
z
" clip-path="url(#p0dabab1cee)" style="fill: #1f77b4"/>
   </g>
   <g id="patch_169">
    <path d="M 336.08042 273.312 
L 337.696528 273.312 
L 337.696528 76.465398 
L 336.08042 76.465398 
z
" clip-path="url(#p0dabab1cee)" style="fill: #1f77b4"/>
   </g>
   <g id="patch_170">
    <path d="M 337.696528 273.312 
L 339.312635 273.312 
L 339.312635 54.935301 
L 337.696528 54.935301 
z
" clip-path="url(#p0dabab1cee)" style="fill: #1f77b4"/>
   </g>
   <g id="patch_171">
    <path d="M 339.312635 273.312 
L 340.928742 273.312 
L 340.928742 57.395883 
L 339.312635 57.395883 
z
" clip-path="url(#p0dabab1cee)" style="fill: #1f77b4"/>
   </g>
   <g id="patch_172">
    <path d="M 340.928742 273.312 
L 342.54485 273.312 
L 342.54485 72.774524 
L 340.928742 72.774524 
z
" clip-path="url(#p0dabab1cee)" style="fill: #1f77b4"/>
   </g>
   <g id="patch_173">
    <path d="M 342.54485 273.312 
L 344.160957 273.312 
L 344.160957 66.623068 
L 342.54485 66.623068 
z
" clip-path="url(#p0dabab1cee)" style="fill: #1f77b4"/>
   </g>
   <g id="patch_174">
    <path d="M 344.160957 273.312 
L 345.777065 273.312 
L 345.777065 58.011029 
L 344.160957 58.011029 
z
" clip-path="url(#p0dabab1cee)" style="fill: #1f77b4"/>
   </g>
   <g id="patch_175">
    <path d="M 345.777065 273.312 
L 347.393172 273.312 
L 347.393172 48.168699 
L 345.777065 48.168699 
z
" clip-path="url(#p0dabab1cee)" style="fill: #1f77b4"/>
   </g>
   <g id="patch_176">
    <path d="M 347.393172 273.312 
L 349.009279 273.312 
L 349.009279 55.550447 
L 347.393172 55.550447 
z
" clip-path="url(#p0dabab1cee)" style="fill: #1f77b4"/>
   </g>
   <g id="patch_177">
    <path d="M 349.009279 273.312 
L 350.625387 273.312 
L 350.625387 67.238214 
L 349.009279 67.238214 
z
" clip-path="url(#p0dabab1cee)" style="fill: #1f77b4"/>
   </g>
   <g id="patch_178">
    <path d="M 350.625387 273.312 
L 352.241494 273.312 
L 352.241494 46.938408 
L 350.625387 46.938408 
z
" clip-path="url(#p0dabab1cee)" style="fill: #1f77b4"/>
   </g>
   <g id="patch_179">
    <path d="M 352.241494 273.312 
L 353.857601 273.312 
L 353.857601 42.017243 
L 352.241494 42.017243 
z
" clip-path="url(#p0dabab1cee)" style="fill: #1f77b4"/>
   </g>
   <g id="patch_180">
    <path d="M 353.857601 273.312 
L 355.473709 273.312 
L 355.473709 73.38967 
L 353.857601 73.38967 
z
" clip-path="url(#p0dabab1cee)" style="fill: #1f77b4"/>
   </g>
   <g id="patch_181">
    <path d="M 355.473709 273.312 
L 357.089816 273.312 
L 357.089816 61.701903 
L 355.473709 61.701903 
z
" clip-path="url(#p0dabab1cee)" style="fill: #1f77b4"/>
   </g>
   <g id="patch_182">
    <path d="M 357.089816 273.312 
L 358.705924 273.312 
L 358.705924 46.323262 
L 357.089816 46.323262 
z
" clip-path="url(#p0dabab1cee)" style="fill: #1f77b4"/>
   </g>
   <g id="patch_183">
    <path d="M 358.705924 273.312 
L 360.322031 273.312 
L 360.322031 61.701903 
L 358.705924 61.701903 
z
" clip-path="url(#p0dabab1cee)" style="fill: #1f77b4"/>
   </g>
   <g id="patch_184">
    <path d="M 360.322031 273.312 
L 361.938138 273.312 
L 361.938138 48.168699 
L 360.322031 48.168699 
z
" clip-path="url(#p0dabab1cee)" style="fill: #1f77b4"/>
   </g>
   <g id="patch_185">
    <path d="M 361.938138 273.312 
L 363.554246 273.312 
L 363.554246 40.786951 
L 361.938138 40.786951 
z
" clip-path="url(#p0dabab1cee)" style="fill: #1f77b4"/>
   </g>
   <g id="patch_186">
    <path d="M 363.554246 273.312 
L 365.170353 273.312 
L 365.170353 67.853359 
L 363.554246 67.853359 
z
" clip-path="url(#p0dabab1cee)" style="fill: #1f77b4"/>
   </g>
   <g id="patch_187">
    <path d="M 365.170353 273.312 
L 366.78646 273.312 
L 366.78646 53.70501 
L 365.170353 53.70501 
z
" clip-path="url(#p0dabab1cee)" style="fill: #1f77b4"/>
   </g>
   <g id="patch_188">
    <path d="M 366.78646 273.312 
L 368.402568 273.312 
L 368.402568 51.244427 
L 366.78646 51.244427 
z
" clip-path="url(#p0dabab1cee)" style="fill: #1f77b4"/>
   </g>
   <g id="patch_189">
    <path d="M 368.402568 273.312 
L 370.018675 273.312 
L 370.018675 24.178019 
L 368.402568 24.178019 
z
" clip-path="url(#p0dabab1cee)" style="fill: #1f77b4"/>
   </g>
   <g id="patch_190">
    <path d="M 370.018675 273.312 
L 371.634783 273.312 
L 371.634783 43.86268 
L 370.018675 43.86268 
z
" clip-path="url(#p0dabab1cee)" style="fill: #1f77b4"/>
   </g>
   <g id="patch_191">
    <path d="M 371.634783 273.312 
L 373.25089 273.312 
L 373.25089 43.247534 
L 371.634783 43.247534 
z
" clip-path="url(#p0dabab1cee)" style="fill: #1f77b4"/>
   </g>
   <g id="patch_192">
    <path d="M 373.25089 273.312 
L 374.866997 273.312 
L 374.866997 34.635495 
L 373.25089 34.635495 
z
" clip-path="url(#p0dabab1cee)" style="fill: #1f77b4"/>
   </g>
   <g id="patch_193">
    <path d="M 374.866997 273.312 
L 376.483105 273.312 
L 376.483105 32.790058 
L 374.866997 32.790058 
z
" clip-path="url(#p0dabab1cee)" style="fill: #1f77b4"/>
   </g>
   <g id="patch_194">
    <path d="M 376.483105 273.312 
L 378.099212 273.312 
L 378.099212 19.872 
L 376.483105 19.872 
z
" clip-path="url(#p0dabab1cee)" style="fill: #1f77b4"/>
   </g>
   <g id="patch_195">
    <path d="M 378.099212 273.312 
L 379.715319 273.312 
L 379.715319 40.786951 
L 378.099212 40.786951 
z
" clip-path="url(#p0dabab1cee)" style="fill: #1f77b4"/>
   </g>
   <g id="patch_196">
    <path d="M 379.715319 273.312 
L 381.331427 273.312 
L 381.331427 22.332583 
L 379.715319 22.332583 
z
" clip-path="url(#p0dabab1cee)" style="fill: #1f77b4"/>
   </g>
   <g id="patch_197">
    <path d="M 381.331427 273.312 
L 382.947534 273.312 
L 382.947534 27.868893 
L 381.331427 27.868893 
z
" clip-path="url(#p0dabab1cee)" style="fill: #1f77b4"/>
   </g>
   <g id="patch_198">
    <path d="M 382.947534 273.312 
L 384.563642 273.312 
L 384.563642 30.329476 
L 382.947534 30.329476 
z
" clip-path="url(#p0dabab1cee)" style="fill: #1f77b4"/>
   </g>
   <g id="patch_199">
    <path d="M 384.563642 273.312 
L 386.179749 273.312 
L 386.179749 36.480932 
L 384.563642 36.480932 
z
" clip-path="url(#p0dabab1cee)" style="fill: #1f77b4"/>
   </g>
   <g id="patch_200">
    <path d="M 386.179749 273.312 
L 387.795856 273.312 
L 387.795856 29.099184 
L 386.179749 29.099184 
z
" clip-path="url(#p0dabab1cee)" style="fill: #1f77b4"/>
   </g>
   <g id="patch_201">
    <path d="M 387.795856 273.312 
L 389.411964 273.312 
L 389.411964 33.405204 
L 387.795856 33.405204 
z
" clip-path="url(#p0dabab1cee)" style="fill: #1f77b4"/>
   </g>
   <g id="patch_202">
    <path d="M 389.411964 273.312 
L 391.028071 273.312 
L 391.028071 23.562874 
L 389.411964 23.562874 
z
" clip-path="url(#p0dabab1cee)" style="fill: #1f77b4"/>
   </g>
   <g id="matplotlib.axis_1">
    <g id="xtick_1">
     <g id="line2d_1">
      <defs>
       <path id="m17c640267e" d="M 0 0 
L 0 3.5 
" style="stroke: #000000; stroke-width: 0.8"/>
      </defs>
      <g>
       <use xlink:href="#m17c640267e" x="66.376477" y="273.312" style="stroke: #000000; stroke-width: 0.8"/>
      </g>
     </g>
     <g id="text_1">
      <!-- 0.0 -->
      <g transform="translate(58.424915 287.910437)scale(0.1 -0.1)">
       <defs>
        <path id="DejaVuSans-30" d="M 2034 4250 
Q 1547 4250 1301 3770 
Q 1056 3291 1056 2328 
Q 1056 1369 1301 889 
Q 1547 409 2034 409 
Q 2525 409 2770 889 
Q 3016 1369 3016 2328 
Q 3016 3291 2770 3770 
Q 2525 4250 2034 4250 
z
M 2034 4750 
Q 2819 4750 3233 4129 
Q 3647 3509 3647 2328 
Q 3647 1150 3233 529 
Q 2819 -91 2034 -91 
Q 1250 -91 836 529 
Q 422 1150 422 2328 
Q 422 3509 836 4129 
Q 1250 4750 2034 4750 
z
" transform="scale(0.015625)"/>
        <path id="DejaVuSans-2e" d="M 684 794 
L 1344 794 
L 1344 0 
L 684 0 
L 684 794 
z
" transform="scale(0.015625)"/>
       </defs>
       <use xlink:href="#DejaVuSans-30"/>
       <use xlink:href="#DejaVuSans-2e" x="63.623047"/>
       <use xlink:href="#DejaVuSans-30" x="95.410156"/>
      </g>
     </g>
    </g>
    <g id="xtick_2">
     <g id="line2d_2">
      <g>
       <use xlink:href="#m17c640267e" x="131.307386" y="273.312" style="stroke: #000000; stroke-width: 0.8"/>
      </g>
     </g>
     <g id="text_2">
      <!-- 0.2 -->
      <g transform="translate(123.355824 287.910437)scale(0.1 -0.1)">
       <defs>
        <path id="DejaVuSans-32" d="M 1228 531 
L 3431 531 
L 3431 0 
L 469 0 
L 469 531 
Q 828 903 1448 1529 
Q 2069 2156 2228 2338 
Q 2531 2678 2651 2914 
Q 2772 3150 2772 3378 
Q 2772 3750 2511 3984 
Q 2250 4219 1831 4219 
Q 1534 4219 1204 4116 
Q 875 4013 500 3803 
L 500 4441 
Q 881 4594 1212 4672 
Q 1544 4750 1819 4750 
Q 2544 4750 2975 4387 
Q 3406 4025 3406 3419 
Q 3406 3131 3298 2873 
Q 3191 2616 2906 2266 
Q 2828 2175 2409 1742 
Q 1991 1309 1228 531 
z
" transform="scale(0.015625)"/>
       </defs>
       <use xlink:href="#DejaVuSans-30"/>
       <use xlink:href="#DejaVuSans-2e" x="63.623047"/>
       <use xlink:href="#DejaVuSans-32" x="95.410156"/>
      </g>
     </g>
    </g>
    <g id="xtick_3">
     <g id="line2d_3">
      <g>
       <use xlink:href="#m17c640267e" x="196.238295" y="273.312" style="stroke: #000000; stroke-width: 0.8"/>
      </g>
     </g>
     <g id="text_3">
      <!-- 0.4 -->
      <g transform="translate(188.286733 287.910437)scale(0.1 -0.1)">
       <defs>
        <path id="DejaVuSans-34" d="M 2419 4116 
L 825 1625 
L 2419 1625 
L 2419 4116 
z
M 2253 4666 
L 3047 4666 
L 3047 1625 
L 3713 1625 
L 3713 1100 
L 3047 1100 
L 3047 0 
L 2419 0 
L 2419 1100 
L 313 1100 
L 313 1709 
L 2253 4666 
z
" transform="scale(0.015625)"/>
       </defs>
       <use xlink:href="#DejaVuSans-30"/>
       <use xlink:href="#DejaVuSans-2e" x="63.623047"/>
       <use xlink:href="#DejaVuSans-34" x="95.410156"/>
      </g>
     </g>
    </g>
    <g id="xtick_4">
     <g id="line2d_4">
      <g>
       <use xlink:href="#m17c640267e" x="261.169205" y="273.312" style="stroke: #000000; stroke-width: 0.8"/>
      </g>
     </g>
     <g id="text_4">
      <!-- 0.6 -->
      <g transform="translate(253.217642 287.910437)scale(0.1 -0.1)">
       <defs>
        <path id="DejaVuSans-36" d="M 2113 2584 
Q 1688 2584 1439 2293 
Q 1191 2003 1191 1497 
Q 1191 994 1439 701 
Q 1688 409 2113 409 
Q 2538 409 2786 701 
Q 3034 994 3034 1497 
Q 3034 2003 2786 2293 
Q 2538 2584 2113 2584 
z
M 3366 4563 
L 3366 3988 
Q 3128 4100 2886 4159 
Q 2644 4219 2406 4219 
Q 1781 4219 1451 3797 
Q 1122 3375 1075 2522 
Q 1259 2794 1537 2939 
Q 1816 3084 2150 3084 
Q 2853 3084 3261 2657 
Q 3669 2231 3669 1497 
Q 3669 778 3244 343 
Q 2819 -91 2113 -91 
Q 1303 -91 875 529 
Q 447 1150 447 2328 
Q 447 3434 972 4092 
Q 1497 4750 2381 4750 
Q 2619 4750 2861 4703 
Q 3103 4656 3366 4563 
z
" transform="scale(0.015625)"/>
       </defs>
       <use xlink:href="#DejaVuSans-30"/>
       <use xlink:href="#DejaVuSans-2e" x="63.623047"/>
       <use xlink:href="#DejaVuSans-36" x="95.410156"/>
      </g>
     </g>
    </g>
    <g id="xtick_5">
     <g id="line2d_5">
      <g>
       <use xlink:href="#m17c640267e" x="326.100114" y="273.312" style="stroke: #000000; stroke-width: 0.8"/>
      </g>
     </g>
     <g id="text_5">
      <!-- 0.8 -->
      <g transform="translate(318.148551 287.910437)scale(0.1 -0.1)">
       <defs>
        <path id="DejaVuSans-38" d="M 2034 2216 
Q 1584 2216 1326 1975 
Q 1069 1734 1069 1313 
Q 1069 891 1326 650 
Q 1584 409 2034 409 
Q 2484 409 2743 651 
Q 3003 894 3003 1313 
Q 3003 1734 2745 1975 
Q 2488 2216 2034 2216 
z
M 1403 2484 
Q 997 2584 770 2862 
Q 544 3141 544 3541 
Q 544 4100 942 4425 
Q 1341 4750 2034 4750 
Q 2731 4750 3128 4425 
Q 3525 4100 3525 3541 
Q 3525 3141 3298 2862 
Q 3072 2584 2669 2484 
Q 3125 2378 3379 2068 
Q 3634 1759 3634 1313 
Q 3634 634 3220 271 
Q 2806 -91 2034 -91 
Q 1263 -91 848 271 
Q 434 634 434 1313 
Q 434 1759 690 2068 
Q 947 2378 1403 2484 
z
M 1172 3481 
Q 1172 3119 1398 2916 
Q 1625 2713 2034 2713 
Q 2441 2713 2670 2916 
Q 2900 3119 2900 3481 
Q 2900 3844 2670 4047 
Q 2441 4250 2034 4250 
Q 1625 4250 1398 4047 
Q 1172 3844 1172 3481 
z
" transform="scale(0.015625)"/>
       </defs>
       <use xlink:href="#DejaVuSans-30"/>
       <use xlink:href="#DejaVuSans-2e" x="63.623047"/>
       <use xlink:href="#DejaVuSans-38" x="95.410156"/>
      </g>
     </g>
    </g>
    <g id="xtick_6">
     <g id="line2d_6">
      <g>
       <use xlink:href="#m17c640267e" x="391.031023" y="273.312" style="stroke: #000000; stroke-width: 0.8"/>
      </g>
     </g>
     <g id="text_6">
      <!-- 1.0 -->
      <g transform="translate(383.07946 287.910437)scale(0.1 -0.1)">
       <defs>
        <path id="DejaVuSans-31" d="M 794 531 
L 1825 531 
L 1825 4091 
L 703 3866 
L 703 4441 
L 1819 4666 
L 2450 4666 
L 2450 531 
L 3481 531 
L 3481 0 
L 794 0 
L 794 531 
z
" transform="scale(0.015625)"/>
       </defs>
       <use xlink:href="#DejaVuSans-31"/>
       <use xlink:href="#DejaVuSans-2e" x="63.623047"/>
       <use xlink:href="#DejaVuSans-30" x="95.410156"/>
      </g>
     </g>
    </g>
    <g id="text_7">
     <!-- Propagation direction -->
     <g transform="translate(175.221719 301.588562)scale(0.1 -0.1)">
      <defs>
       <path id="DejaVuSans-50" d="M 1259 4147 
L 1259 2394 
L 2053 2394 
Q 2494 2394 2734 2622 
Q 2975 2850 2975 3272 
Q 2975 3691 2734 3919 
Q 2494 4147 2053 4147 
L 1259 4147 
z
M 628 4666 
L 2053 4666 
Q 2838 4666 3239 4311 
Q 3641 3956 3641 3272 
Q 3641 2581 3239 2228 
Q 2838 1875 2053 1875 
L 1259 1875 
L 1259 0 
L 628 0 
L 628 4666 
z
" transform="scale(0.015625)"/>
       <path id="DejaVuSans-72" d="M 2631 2963 
Q 2534 3019 2420 3045 
Q 2306 3072 2169 3072 
Q 1681 3072 1420 2755 
Q 1159 2438 1159 1844 
L 1159 0 
L 581 0 
L 581 3500 
L 1159 3500 
L 1159 2956 
Q 1341 3275 1631 3429 
Q 1922 3584 2338 3584 
Q 2397 3584 2469 3576 
Q 2541 3569 2628 3553 
L 2631 2963 
z
" transform="scale(0.015625)"/>
       <path id="DejaVuSans-6f" d="M 1959 3097 
Q 1497 3097 1228 2736 
Q 959 2375 959 1747 
Q 959 1119 1226 758 
Q 1494 397 1959 397 
Q 2419 397 2687 759 
Q 2956 1122 2956 1747 
Q 2956 2369 2687 2733 
Q 2419 3097 1959 3097 
z
M 1959 3584 
Q 2709 3584 3137 3096 
Q 3566 2609 3566 1747 
Q 3566 888 3137 398 
Q 2709 -91 1959 -91 
Q 1206 -91 779 398 
Q 353 888 353 1747 
Q 353 2609 779 3096 
Q 1206 3584 1959 3584 
z
" transform="scale(0.015625)"/>
       <path id="DejaVuSans-70" d="M 1159 525 
L 1159 -1331 
L 581 -1331 
L 581 3500 
L 1159 3500 
L 1159 2969 
Q 1341 3281 1617 3432 
Q 1894 3584 2278 3584 
Q 2916 3584 3314 3078 
Q 3713 2572 3713 1747 
Q 3713 922 3314 415 
Q 2916 -91 2278 -91 
Q 1894 -91 1617 61 
Q 1341 213 1159 525 
z
M 3116 1747 
Q 3116 2381 2855 2742 
Q 2594 3103 2138 3103 
Q 1681 3103 1420 2742 
Q 1159 2381 1159 1747 
Q 1159 1113 1420 752 
Q 1681 391 2138 391 
Q 2594 391 2855 752 
Q 3116 1113 3116 1747 
z
" transform="scale(0.015625)"/>
       <path id="DejaVuSans-61" d="M 2194 1759 
Q 1497 1759 1228 1600 
Q 959 1441 959 1056 
Q 959 750 1161 570 
Q 1363 391 1709 391 
Q 2188 391 2477 730 
Q 2766 1069 2766 1631 
L 2766 1759 
L 2194 1759 
z
M 3341 1997 
L 3341 0 
L 2766 0 
L 2766 531 
Q 2569 213 2275 61 
Q 1981 -91 1556 -91 
Q 1019 -91 701 211 
Q 384 513 384 1019 
Q 384 1609 779 1909 
Q 1175 2209 1959 2209 
L 2766 2209 
L 2766 2266 
Q 2766 2663 2505 2880 
Q 2244 3097 1772 3097 
Q 1472 3097 1187 3025 
Q 903 2953 641 2809 
L 641 3341 
Q 956 3463 1253 3523 
Q 1550 3584 1831 3584 
Q 2591 3584 2966 3190 
Q 3341 2797 3341 1997 
z
" transform="scale(0.015625)"/>
       <path id="DejaVuSans-67" d="M 2906 1791 
Q 2906 2416 2648 2759 
Q 2391 3103 1925 3103 
Q 1463 3103 1205 2759 
Q 947 2416 947 1791 
Q 947 1169 1205 825 
Q 1463 481 1925 481 
Q 2391 481 2648 825 
Q 2906 1169 2906 1791 
z
M 3481 434 
Q 3481 -459 3084 -895 
Q 2688 -1331 1869 -1331 
Q 1566 -1331 1297 -1286 
Q 1028 -1241 775 -1147 
L 775 -588 
Q 1028 -725 1275 -790 
Q 1522 -856 1778 -856 
Q 2344 -856 2625 -561 
Q 2906 -266 2906 331 
L 2906 616 
Q 2728 306 2450 153 
Q 2172 0 1784 0 
Q 1141 0 747 490 
Q 353 981 353 1791 
Q 353 2603 747 3093 
Q 1141 3584 1784 3584 
Q 2172 3584 2450 3431 
Q 2728 3278 2906 2969 
L 2906 3500 
L 3481 3500 
L 3481 434 
z
" transform="scale(0.015625)"/>
       <path id="DejaVuSans-74" d="M 1172 4494 
L 1172 3500 
L 2356 3500 
L 2356 3053 
L 1172 3053 
L 1172 1153 
Q 1172 725 1289 603 
Q 1406 481 1766 481 
L 2356 481 
L 2356 0 
L 1766 0 
Q 1100 0 847 248 
Q 594 497 594 1153 
L 594 3053 
L 172 3053 
L 172 3500 
L 594 3500 
L 594 4494 
L 1172 4494 
z
" transform="scale(0.015625)"/>
       <path id="DejaVuSans-69" d="M 603 3500 
L 1178 3500 
L 1178 0 
L 603 0 
L 603 3500 
z
M 603 4863 
L 1178 4863 
L 1178 4134 
L 603 4134 
L 603 4863 
z
" transform="scale(0.015625)"/>
       <path id="DejaVuSans-6e" d="M 3513 2113 
L 3513 0 
L 2938 0 
L 2938 2094 
Q 2938 2591 2744 2837 
Q 2550 3084 2163 3084 
Q 1697 3084 1428 2787 
Q 1159 2491 1159 1978 
L 1159 0 
L 581 0 
L 581 3500 
L 1159 3500 
L 1159 2956 
Q 1366 3272 1645 3428 
Q 1925 3584 2291 3584 
Q 2894 3584 3203 3211 
Q 3513 2838 3513 2113 
z
" transform="scale(0.015625)"/>
       <path id="DejaVuSans-20" transform="scale(0.015625)"/>
       <path id="DejaVuSans-64" d="M 2906 2969 
L 2906 4863 
L 3481 4863 
L 3481 0 
L 2906 0 
L 2906 525 
Q 2725 213 2448 61 
Q 2172 -91 1784 -91 
Q 1150 -91 751 415 
Q 353 922 353 1747 
Q 353 2572 751 3078 
Q 1150 3584 1784 3584 
Q 2172 3584 2448 3432 
Q 2725 3281 2906 2969 
z
M 947 1747 
Q 947 1113 1208 752 
Q 1469 391 1925 391 
Q 2381 391 2643 752 
Q 2906 1113 2906 1747 
Q 2906 2381 2643 2742 
Q 2381 3103 1925 3103 
Q 1469 3103 1208 2742 
Q 947 2381 947 1747 
z
" transform="scale(0.015625)"/>
       <path id="DejaVuSans-65" d="M 3597 1894 
L 3597 1613 
L 953 1613 
Q 991 1019 1311 708 
Q 1631 397 2203 397 
Q 2534 397 2845 478 
Q 3156 559 3463 722 
L 3463 178 
Q 3153 47 2828 -22 
Q 2503 -91 2169 -91 
Q 1331 -91 842 396 
Q 353 884 353 1716 
Q 353 2575 817 3079 
Q 1281 3584 2069 3584 
Q 2775 3584 3186 3129 
Q 3597 2675 3597 1894 
z
M 3022 2063 
Q 3016 2534 2758 2815 
Q 2500 3097 2075 3097 
Q 1594 3097 1305 2825 
Q 1016 2553 972 2059 
L 3022 2063 
z
" transform="scale(0.015625)"/>
       <path id="DejaVuSans-63" d="M 3122 3366 
L 3122 2828 
Q 2878 2963 2633 3030 
Q 2388 3097 2138 3097 
Q 1578 3097 1268 2742 
Q 959 2388 959 1747 
Q 959 1106 1268 751 
Q 1578 397 2138 397 
Q 2388 397 2633 464 
Q 2878 531 3122 666 
L 3122 134 
Q 2881 22 2623 -34 
Q 2366 -91 2075 -91 
Q 1284 -91 818 406 
Q 353 903 353 1747 
Q 353 2603 823 3093 
Q 1294 3584 2113 3584 
Q 2378 3584 2631 3529 
Q 2884 3475 3122 3366 
z
" transform="scale(0.015625)"/>
      </defs>
      <use xlink:href="#DejaVuSans-50"/>
      <use xlink:href="#DejaVuSans-72" x="58.552734"/>
      <use xlink:href="#DejaVuSans-6f" x="97.416016"/>
      <use xlink:href="#DejaVuSans-70" x="158.597656"/>
      <use xlink:href="#DejaVuSans-61" x="222.074219"/>
      <use xlink:href="#DejaVuSans-67" x="283.353516"/>
      <use xlink:href="#DejaVuSans-61" x="346.830078"/>
      <use xlink:href="#DejaVuSans-74" x="408.109375"/>
      <use xlink:href="#DejaVuSans-69" x="447.318359"/>
      <use xlink:href="#DejaVuSans-6f" x="475.101562"/>
      <use xlink:href="#DejaVuSans-6e" x="536.283203"/>
      <use xlink:href="#DejaVuSans-20" x="599.662109"/>
      <use xlink:href="#DejaVuSans-64" x="631.449219"/>
      <use xlink:href="#DejaVuSans-69" x="694.925781"/>
      <use xlink:href="#DejaVuSans-72" x="722.708984"/>
      <use xlink:href="#DejaVuSans-65" x="761.572266"/>
      <use xlink:href="#DejaVuSans-63" x="823.095703"/>
      <use xlink:href="#DejaVuSans-74" x="878.076172"/>
      <use xlink:href="#DejaVuSans-69" x="917.285156"/>
      <use xlink:href="#DejaVuSans-6f" x="945.068359"/>
      <use xlink:href="#DejaVuSans-6e" x="1006.25"/>
     </g>
    </g>
   </g>
   <g id="matplotlib.axis_2">
    <g id="ytick_1">
     <g id="line2d_7">
      <defs>
       <path id="m74d3f99dba" d="M 0 0 
L -3.5 0 
" style="stroke: #000000; stroke-width: 0.8"/>
      </defs>
      <g>
       <use xlink:href="#m74d3f99dba" x="50.14375" y="273.312" style="stroke: #000000; stroke-width: 0.8"/>
      </g>
     </g>
     <g id="text_8">
      <!-- 0.00 -->
      <g transform="translate(20.878125 277.111219)scale(0.1 -0.1)">
       <use xlink:href="#DejaVuSans-30"/>
       <use xlink:href="#DejaVuSans-2e" x="63.623047"/>
       <use xlink:href="#DejaVuSans-30" x="95.410156"/>
       <use xlink:href="#DejaVuSans-30" x="159.033203"/>
      </g>
     </g>
    </g>
    <g id="ytick_2">
     <g id="line2d_8">
      <g>
       <use xlink:href="#m74d3f99dba" x="50.14375" y="242.690485" style="stroke: #000000; stroke-width: 0.8"/>
      </g>
     </g>
     <g id="text_9">
      <!-- 0.25 -->
      <g transform="translate(20.878125 246.489704)scale(0.1 -0.1)">
       <defs>
        <path id="DejaVuSans-35" d="M 691 4666 
L 3169 4666 
L 3169 4134 
L 1269 4134 
L 1269 2991 
Q 1406 3038 1543 3061 
Q 1681 3084 1819 3084 
Q 2600 3084 3056 2656 
Q 3513 2228 3513 1497 
Q 3513 744 3044 326 
Q 2575 -91 1722 -91 
Q 1428 -91 1123 -41 
Q 819 9 494 109 
L 494 744 
Q 775 591 1075 516 
Q 1375 441 1709 441 
Q 2250 441 2565 725 
Q 2881 1009 2881 1497 
Q 2881 1984 2565 2268 
Q 2250 2553 1709 2553 
Q 1456 2553 1204 2497 
Q 953 2441 691 2322 
L 691 4666 
z
" transform="scale(0.015625)"/>
       </defs>
       <use xlink:href="#DejaVuSans-30"/>
       <use xlink:href="#DejaVuSans-2e" x="63.623047"/>
       <use xlink:href="#DejaVuSans-32" x="95.410156"/>
       <use xlink:href="#DejaVuSans-35" x="159.033203"/>
      </g>
     </g>
    </g>
    <g id="ytick_3">
     <g id="line2d_9">
      <g>
       <use xlink:href="#m74d3f99dba" x="50.14375" y="212.068971" style="stroke: #000000; stroke-width: 0.8"/>
      </g>
     </g>
     <g id="text_10">
      <!-- 0.50 -->
      <g transform="translate(20.878125 215.868189)scale(0.1 -0.1)">
       <use xlink:href="#DejaVuSans-30"/>
       <use xlink:href="#DejaVuSans-2e" x="63.623047"/>
       <use xlink:href="#DejaVuSans-35" x="95.410156"/>
       <use xlink:href="#DejaVuSans-30" x="159.033203"/>
      </g>
     </g>
    </g>
    <g id="ytick_4">
     <g id="line2d_10">
      <g>
       <use xlink:href="#m74d3f99dba" x="50.14375" y="181.447456" style="stroke: #000000; stroke-width: 0.8"/>
      </g>
     </g>
     <g id="text_11">
      <!-- 0.75 -->
      <g transform="translate(20.878125 185.246675)scale(0.1 -0.1)">
       <defs>
        <path id="DejaVuSans-37" d="M 525 4666 
L 3525 4666 
L 3525 4397 
L 1831 0 
L 1172 0 
L 2766 4134 
L 525 4134 
L 525 4666 
z
" transform="scale(0.015625)"/>
       </defs>
       <use xlink:href="#DejaVuSans-30"/>
       <use xlink:href="#DejaVuSans-2e" x="63.623047"/>
       <use xlink:href="#DejaVuSans-37" x="95.410156"/>
       <use xlink:href="#DejaVuSans-35" x="159.033203"/>
      </g>
     </g>
    </g>
    <g id="ytick_5">
     <g id="line2d_11">
      <g>
       <use xlink:href="#m74d3f99dba" x="50.14375" y="150.825941" style="stroke: #000000; stroke-width: 0.8"/>
      </g>
     </g>
     <g id="text_12">
      <!-- 1.00 -->
      <g transform="translate(20.878125 154.62516)scale(0.1 -0.1)">
       <use xlink:href="#DejaVuSans-31"/>
       <use xlink:href="#DejaVuSans-2e" x="63.623047"/>
       <use xlink:href="#DejaVuSans-30" x="95.410156"/>
       <use xlink:href="#DejaVuSans-30" x="159.033203"/>
      </g>
     </g>
    </g>
    <g id="ytick_6">
     <g id="line2d_12">
      <g>
       <use xlink:href="#m74d3f99dba" x="50.14375" y="120.204426" style="stroke: #000000; stroke-width: 0.8"/>
      </g>
     </g>
     <g id="text_13">
      <!-- 1.25 -->
      <g transform="translate(20.878125 124.003645)scale(0.1 -0.1)">
       <use xlink:href="#DejaVuSans-31"/>
       <use xlink:href="#DejaVuSans-2e" x="63.623047"/>
       <use xlink:href="#DejaVuSans-32" x="95.410156"/>
       <use xlink:href="#DejaVuSans-35" x="159.033203"/>
      </g>
     </g>
    </g>
    <g id="ytick_7">
     <g id="line2d_13">
      <g>
       <use xlink:href="#m74d3f99dba" x="50.14375" y="89.582912" style="stroke: #000000; stroke-width: 0.8"/>
      </g>
     </g>
     <g id="text_14">
      <!-- 1.50 -->
      <g transform="translate(20.878125 93.382131)scale(0.1 -0.1)">
       <use xlink:href="#DejaVuSans-31"/>
       <use xlink:href="#DejaVuSans-2e" x="63.623047"/>
       <use xlink:href="#DejaVuSans-35" x="95.410156"/>
       <use xlink:href="#DejaVuSans-30" x="159.033203"/>
      </g>
     </g>
    </g>
    <g id="ytick_8">
     <g id="line2d_14">
      <g>
       <use xlink:href="#m74d3f99dba" x="50.14375" y="58.961397" style="stroke: #000000; stroke-width: 0.8"/>
      </g>
     </g>
     <g id="text_15">
      <!-- 1.75 -->
      <g transform="translate(20.878125 62.760616)scale(0.1 -0.1)">
       <use xlink:href="#DejaVuSans-31"/>
       <use xlink:href="#DejaVuSans-2e" x="63.623047"/>
       <use xlink:href="#DejaVuSans-37" x="95.410156"/>
       <use xlink:href="#DejaVuSans-35" x="159.033203"/>
      </g>
     </g>
    </g>
    <g id="ytick_9">
     <g id="line2d_15">
      <g>
       <use xlink:href="#m74d3f99dba" x="50.14375" y="28.339882" style="stroke: #000000; stroke-width: 0.8"/>
      </g>
     </g>
     <g id="text_16">
      <!-- 2.00 -->
      <g transform="translate(20.878125 32.139101)scale(0.1 -0.1)">
       <use xlink:href="#DejaVuSans-32"/>
       <use xlink:href="#DejaVuSans-2e" x="63.623047"/>
       <use xlink:href="#DejaVuSans-30" x="95.410156"/>
       <use xlink:href="#DejaVuSans-30" x="159.033203"/>
      </g>
     </g>
    </g>
    <g id="text_17">
     <!-- Probability density -->
     <g transform="translate(14.798438 186.606781)rotate(-90)scale(0.1 -0.1)">
      <defs>
       <path id="DejaVuSans-62" d="M 3116 1747 
Q 3116 2381 2855 2742 
Q 2594 3103 2138 3103 
Q 1681 3103 1420 2742 
Q 1159 2381 1159 1747 
Q 1159 1113 1420 752 
Q 1681 391 2138 391 
Q 2594 391 2855 752 
Q 3116 1113 3116 1747 
z
M 1159 2969 
Q 1341 3281 1617 3432 
Q 1894 3584 2278 3584 
Q 2916 3584 3314 3078 
Q 3713 2572 3713 1747 
Q 3713 922 3314 415 
Q 2916 -91 2278 -91 
Q 1894 -91 1617 61 
Q 1341 213 1159 525 
L 1159 0 
L 581 0 
L 581 4863 
L 1159 4863 
L 1159 2969 
z
" transform="scale(0.015625)"/>
       <path id="DejaVuSans-6c" d="M 603 4863 
L 1178 4863 
L 1178 0 
L 603 0 
L 603 4863 
z
" transform="scale(0.015625)"/>
       <path id="DejaVuSans-79" d="M 2059 -325 
Q 1816 -950 1584 -1140 
Q 1353 -1331 966 -1331 
L 506 -1331 
L 506 -850 
L 844 -850 
Q 1081 -850 1212 -737 
Q 1344 -625 1503 -206 
L 1606 56 
L 191 3500 
L 800 3500 
L 1894 763 
L 2988 3500 
L 3597 3500 
L 2059 -325 
z
" transform="scale(0.015625)"/>
       <path id="DejaVuSans-73" d="M 2834 3397 
L 2834 2853 
Q 2591 2978 2328 3040 
Q 2066 3103 1784 3103 
Q 1356 3103 1142 2972 
Q 928 2841 928 2578 
Q 928 2378 1081 2264 
Q 1234 2150 1697 2047 
L 1894 2003 
Q 2506 1872 2764 1633 
Q 3022 1394 3022 966 
Q 3022 478 2636 193 
Q 2250 -91 1575 -91 
Q 1294 -91 989 -36 
Q 684 19 347 128 
L 347 722 
Q 666 556 975 473 
Q 1284 391 1588 391 
Q 1994 391 2212 530 
Q 2431 669 2431 922 
Q 2431 1156 2273 1281 
Q 2116 1406 1581 1522 
L 1381 1569 
Q 847 1681 609 1914 
Q 372 2147 372 2553 
Q 372 3047 722 3315 
Q 1072 3584 1716 3584 
Q 2034 3584 2315 3537 
Q 2597 3491 2834 3397 
z
" transform="scale(0.015625)"/>
      </defs>
      <use xlink:href="#DejaVuSans-50"/>
      <use xlink:href="#DejaVuSans-72" x="58.552734"/>
      <use xlink:href="#DejaVuSans-6f" x="97.416016"/>
      <use xlink:href="#DejaVuSans-62" x="158.597656"/>
      <use xlink:href="#DejaVuSans-61" x="222.074219"/>
      <use xlink:href="#DejaVuSans-62" x="283.353516"/>
      <use xlink:href="#DejaVuSans-69" x="346.830078"/>
      <use xlink:href="#DejaVuSans-6c" x="374.613281"/>
      <use xlink:href="#DejaVuSans-69" x="402.396484"/>
      <use xlink:href="#DejaVuSans-74" x="430.179688"/>
      <use xlink:href="#DejaVuSans-79" x="469.388672"/>
      <use xlink:href="#DejaVuSans-20" x="528.568359"/>
      <use xlink:href="#DejaVuSans-64" x="560.355469"/>
      <use xlink:href="#DejaVuSans-65" x="623.832031"/>
      <use xlink:href="#DejaVuSans-6e" x="685.355469"/>
      <use xlink:href="#DejaVuSans-73" x="748.734375"/>
      <use xlink:href="#DejaVuSans-69" x="800.833984"/>
      <use xlink:href="#DejaVuSans-74" x="828.617188"/>
      <use xlink:href="#DejaVuSans-79" x="867.826172"/>
     </g>
    </g>
   </g>
   <g id="line2d_16">
    <path d="M 66.376477 273.312 
L 391.031023 28.339882 
L 391.031023 28.339882 
" clip-path="url(#p0dabab1cee)" style="fill: none; stroke: #ff7f0e; stroke-width: 1.5; stroke-linecap: square"/>
   </g>
   <g id="patch_203">
    <path d="M 50.14375 273.312 
L 50.14375 7.2 
" style="fill: none; stroke: #000000; stroke-width: 0.8; stroke-linejoin: miter; stroke-linecap: square"/>
   </g>
   <g id="patch_204">
    <path d="M 407.26375 273.312 
L 407.26375 7.2 
" style="fill: none; stroke: #000000; stroke-width: 0.8; stroke-linejoin: miter; stroke-linecap: square"/>
   </g>
   <g id="patch_205">
    <path d="M 50.14375 273.312 
L 407.26375 273.312 
" style="fill: none; stroke: #000000; stroke-width: 0.8; stroke-linejoin: miter; stroke-linecap: square"/>
   </g>
   <g id="patch_206">
    <path d="M 50.14375 7.2 
L 407.26375 7.2 
" style="fill: none; stroke: #000000; stroke-width: 0.8; stroke-linejoin: miter; stroke-linecap: square"/>
   </g>
  </g>
 </g>
 <defs>
  <clipPath id="p0dabab1cee">
   <rect x="50.14375" y="7.2" width="357.12" height="266.112"/>
  </clipPath>
 </defs>
</svg>
