<?xml version="1.0" encoding="utf-8" standalone="no"?>
<!DOCTYPE svg PUBLIC "-//W3C//DTD SVG 1.1//EN"
  "http://www.w3.org/Graphics/SVG/1.1/DTD/svg11.dtd">
<svg xmlns:xlink="http://www.w3.org/1999/xlink" width="408.10125pt" height="310.86825pt" viewBox="0 0 408.10125 310.86825" xmlns="http://www.w3.org/2000/svg" version="1.1">
 <metadata>
  <rdf:RDF xmlns:dc="http://purl.org/dc/elements/1.1/" xmlns:cc="http://creativecommons.org/ns#" xmlns:rdf="http://www.w3.org/1999/02/22-rdf-syntax-ns#">
   <cc:Work>
    <dc:type rdf:resource="http://purl.org/dc/dcmitype/StillImage"/>
    <dc:date>2022-05-04T16:02:46.170304</dc:date>
    <dc:format>image/svg+xml</dc:format>
    <dc:creator>
     <cc:Agent>
      <dc:title>Matplotlib v3.5.2, https://matplotlib.org/</dc:title>
     </cc:Agent>
    </dc:creator>
   </cc:Work>
  </rdf:RDF>
 </metadata>
 <defs>
  <style type="text/css">*{stroke-linejoin: round; stroke-linecap: butt}</style>
 </defs>
 <g id="figure_1">
  <g id="patch_1">
   <path d="M 0 310.86825 
L 408.10125 310.86825 
L 408.10125 0 
L 0 0 
z
" style="fill: #ffffff"/>
  </g>
  <g id="axes_1">
   <g id="patch_2">
    <path d="M 43.78125 273.312 
L 400.90125 273.312 
L 400.90125 7.2 
L 43.78125 7.2 
z
" style="fill: #ffffff"/>
   </g>
   <g id="patch_3">
    <path d="M 61.204295 273.312 
L 62.816843 273.312 
L 62.816843 268.954865 
L 61.204295 268.954865 
z
" clip-path="url(#p320ec0b1f8)" style="fill: #1f77b4"/>
   </g>
   <g id="patch_4">
    <path d="M 62.816843 273.312 
L 64.429391 273.312 
L 64.429391 267.502487 
L 62.816843 267.502487 
z
" clip-path="url(#p320ec0b1f8)" style="fill: #1f77b4"/>
   </g>
   <g id="patch_5">
    <path d="M 64.429391 273.312 
L 66.041939 273.312 
L 66.041939 260.240596 
L 64.429391 260.240596 
z
" clip-path="url(#p320ec0b1f8)" style="fill: #1f77b4"/>
   </g>
   <g id="patch_6">
    <path d="M 66.041939 273.312 
L 67.654488 273.312 
L 67.654488 263.145352 
L 66.041939 263.145352 
z
" clip-path="url(#p320ec0b1f8)" style="fill: #1f77b4"/>
   </g>
   <g id="patch_7">
    <path d="M 67.654488 273.312 
L 69.267036 273.312 
L 69.267036 258.788218 
L 67.654488 258.788218 
z
" clip-path="url(#p320ec0b1f8)" style="fill: #1f77b4"/>
   </g>
   <g id="patch_8">
    <path d="M 69.267036 273.312 
L 70.879584 273.312 
L 70.879584 248.62157 
L 69.267036 248.62157 
z
" clip-path="url(#p320ec0b1f8)" style="fill: #1f77b4"/>
   </g>
   <g id="patch_9">
    <path d="M 70.879584 273.312 
L 72.492132 273.312 
L 72.492132 253.704894 
L 70.879584 253.704894 
z
" clip-path="url(#p320ec0b1f8)" style="fill: #1f77b4"/>
   </g>
   <g id="patch_10">
    <path d="M 72.492132 273.312 
L 74.10468 273.312 
L 74.10468 242.812057 
L 72.492132 242.812057 
z
" clip-path="url(#p320ec0b1f8)" style="fill: #1f77b4"/>
   </g>
   <g id="patch_11">
    <path d="M 74.10468 273.312 
L 75.717229 273.312 
L 75.717229 239.907301 
L 74.10468 239.907301 
z
" clip-path="url(#p320ec0b1f8)" style="fill: #1f77b4"/>
   </g>
   <g id="patch_12">
    <path d="M 75.717229 273.312 
L 77.329777 273.312 
L 77.329777 239.907301 
L 75.717229 239.907301 
z
" clip-path="url(#p320ec0b1f8)" style="fill: #1f77b4"/>
   </g>
   <g id="patch_13">
    <path d="M 77.329777 273.312 
L 78.942325 273.312 
L 78.942325 234.823977 
L 77.329777 234.823977 
z
" clip-path="url(#p320ec0b1f8)" style="fill: #1f77b4"/>
   </g>
   <g id="patch_14">
    <path d="M 78.942325 273.312 
L 80.554873 273.312 
L 80.554873 221.752573 
L 78.942325 221.752573 
z
" clip-path="url(#p320ec0b1f8)" style="fill: #1f77b4"/>
   </g>
   <g id="patch_15">
    <path d="M 80.554873 273.312 
L 82.167422 273.312 
L 82.167422 225.383519 
L 80.554873 225.383519 
z
" clip-path="url(#p320ec0b1f8)" style="fill: #1f77b4"/>
   </g>
   <g id="patch_16">
    <path d="M 82.167422 273.312 
L 83.77997 273.312 
L 83.77997 229.014464 
L 82.167422 229.014464 
z
" clip-path="url(#p320ec0b1f8)" style="fill: #1f77b4"/>
   </g>
   <g id="patch_17">
    <path d="M 83.77997 273.312 
L 85.392518 273.312 
L 85.392518 219.574006 
L 83.77997 219.574006 
z
" clip-path="url(#p320ec0b1f8)" style="fill: #1f77b4"/>
   </g>
   <g id="patch_18">
    <path d="M 85.392518 273.312 
L 87.005066 273.312 
L 87.005066 215.94306 
L 85.392518 215.94306 
z
" clip-path="url(#p320ec0b1f8)" style="fill: #1f77b4"/>
   </g>
   <g id="patch_19">
    <path d="M 87.005066 273.312 
L 88.617614 273.312 
L 88.617614 214.490682 
L 87.005066 214.490682 
z
" clip-path="url(#p320ec0b1f8)" style="fill: #1f77b4"/>
   </g>
   <g id="patch_20">
    <path d="M 88.617614 273.312 
L 90.230163 273.312 
L 90.230163 203.597845 
L 88.617614 203.597845 
z
" clip-path="url(#p320ec0b1f8)" style="fill: #1f77b4"/>
   </g>
   <g id="patch_21">
    <path d="M 90.230163 273.312 
L 91.842711 273.312 
L 91.842711 198.514521 
L 90.230163 198.514521 
z
" clip-path="url(#p320ec0b1f8)" style="fill: #1f77b4"/>
   </g>
   <g id="patch_22">
    <path d="M 91.842711 273.312 
L 93.455259 273.312 
L 93.455259 189.074063 
L 91.842711 189.074063 
z
" clip-path="url(#p320ec0b1f8)" style="fill: #1f77b4"/>
   </g>
   <g id="patch_23">
    <path d="M 93.455259 273.312 
L 95.067807 273.312 
L 95.067807 201.419278 
L 93.455259 201.419278 
z
" clip-path="url(#p320ec0b1f8)" style="fill: #1f77b4"/>
   </g>
   <g id="patch_24">
    <path d="M 95.067807 273.312 
L 96.680356 273.312 
L 96.680356 180.359794 
L 95.067807 180.359794 
z
" clip-path="url(#p320ec0b1f8)" style="fill: #1f77b4"/>
   </g>
   <g id="patch_25">
    <path d="M 96.680356 273.312 
L 98.292904 273.312 
L 98.292904 186.169307 
L 96.680356 186.169307 
z
" clip-path="url(#p320ec0b1f8)" style="fill: #1f77b4"/>
   </g>
   <g id="patch_26">
    <path d="M 98.292904 273.312 
L 99.905452 273.312 
L 99.905452 190.526441 
L 98.292904 190.526441 
z
" clip-path="url(#p320ec0b1f8)" style="fill: #1f77b4"/>
   </g>
   <g id="patch_27">
    <path d="M 99.905452 273.312 
L 101.518 273.312 
L 101.518 186.169307 
L 99.905452 186.169307 
z
" clip-path="url(#p320ec0b1f8)" style="fill: #1f77b4"/>
   </g>
   <g id="patch_28">
    <path d="M 101.518 273.312 
L 103.130548 273.312 
L 103.130548 193.431198 
L 101.518 193.431198 
z
" clip-path="url(#p320ec0b1f8)" style="fill: #1f77b4"/>
   </g>
   <g id="patch_29">
    <path d="M 103.130548 273.312 
L 104.743097 273.312 
L 104.743097 179.633605 
L 103.130548 179.633605 
z
" clip-path="url(#p320ec0b1f8)" style="fill: #1f77b4"/>
   </g>
   <g id="patch_30">
    <path d="M 104.743097 273.312 
L 106.355645 273.312 
L 106.355645 191.25263 
L 104.743097 191.25263 
z
" clip-path="url(#p320ec0b1f8)" style="fill: #1f77b4"/>
   </g>
   <g id="patch_31">
    <path d="M 106.355645 273.312 
L 107.968193 273.312 
L 107.968193 160.752688 
L 106.355645 160.752688 
z
" clip-path="url(#p320ec0b1f8)" style="fill: #1f77b4"/>
   </g>
   <g id="patch_32">
    <path d="M 107.968193 273.312 
L 109.580741 273.312 
L 109.580741 170.193146 
L 107.968193 170.193146 
z
" clip-path="url(#p320ec0b1f8)" style="fill: #1f77b4"/>
   </g>
   <g id="patch_33">
    <path d="M 109.580741 273.312 
L 111.19329 273.312 
L 111.19329 161.478877 
L 109.580741 161.478877 
z
" clip-path="url(#p320ec0b1f8)" style="fill: #1f77b4"/>
   </g>
   <g id="patch_34">
    <path d="M 111.19329 273.312 
L 112.805838 273.312 
L 112.805838 164.383633 
L 111.19329 164.383633 
z
" clip-path="url(#p320ec0b1f8)" style="fill: #1f77b4"/>
   </g>
   <g id="patch_35">
    <path d="M 112.805838 273.312 
L 114.418386 273.312 
L 114.418386 153.490797 
L 112.805838 153.490797 
z
" clip-path="url(#p320ec0b1f8)" style="fill: #1f77b4"/>
   </g>
   <g id="patch_36">
    <path d="M 114.418386 273.312 
L 116.030934 273.312 
L 116.030934 173.097903 
L 114.418386 173.097903 
z
" clip-path="url(#p320ec0b1f8)" style="fill: #1f77b4"/>
   </g>
   <g id="patch_37">
    <path d="M 116.030934 273.312 
L 117.643482 273.312 
L 117.643482 154.216986 
L 116.030934 154.216986 
z
" clip-path="url(#p320ec0b1f8)" style="fill: #1f77b4"/>
   </g>
   <g id="patch_38">
    <path d="M 117.643482 273.312 
L 119.256031 273.312 
L 119.256031 149.859851 
L 117.643482 149.859851 
z
" clip-path="url(#p320ec0b1f8)" style="fill: #1f77b4"/>
   </g>
   <g id="patch_39">
    <path d="M 119.256031 273.312 
L 120.868579 273.312 
L 120.868579 136.788447 
L 119.256031 136.788447 
z
" clip-path="url(#p320ec0b1f8)" style="fill: #1f77b4"/>
   </g>
   <g id="patch_40">
    <path d="M 120.868579 273.312 
L 122.481127 273.312 
L 122.481127 144.776527 
L 120.868579 144.776527 
z
" clip-path="url(#p320ec0b1f8)" style="fill: #1f77b4"/>
   </g>
   <g id="patch_41">
    <path d="M 122.481127 273.312 
L 124.093675 273.312 
L 124.093675 136.062258 
L 122.481127 136.062258 
z
" clip-path="url(#p320ec0b1f8)" style="fill: #1f77b4"/>
   </g>
   <g id="patch_42">
    <path d="M 124.093675 273.312 
L 125.706224 273.312 
L 125.706224 137.514636 
L 124.093675 137.514636 
z
" clip-path="url(#p320ec0b1f8)" style="fill: #1f77b4"/>
   </g>
   <g id="patch_43">
    <path d="M 125.706224 273.312 
L 127.318772 273.312 
L 127.318772 138.240825 
L 125.706224 138.240825 
z
" clip-path="url(#p320ec0b1f8)" style="fill: #1f77b4"/>
   </g>
   <g id="patch_44">
    <path d="M 127.318772 273.312 
L 128.93132 273.312 
L 128.93132 126.621799 
L 127.318772 126.621799 
z
" clip-path="url(#p320ec0b1f8)" style="fill: #1f77b4"/>
   </g>
   <g id="patch_45">
    <path d="M 128.93132 273.312 
L 130.543868 273.312 
L 130.543868 133.883691 
L 128.93132 133.883691 
z
" clip-path="url(#p320ec0b1f8)" style="fill: #1f77b4"/>
   </g>
   <g id="patch_46">
    <path d="M 130.543868 273.312 
L 132.156416 273.312 
L 132.156416 122.264665 
L 130.543868 122.264665 
z
" clip-path="url(#p320ec0b1f8)" style="fill: #1f77b4"/>
   </g>
   <g id="patch_47">
    <path d="M 132.156416 273.312 
L 133.768965 273.312 
L 133.768965 122.264665 
L 132.156416 122.264665 
z
" clip-path="url(#p320ec0b1f8)" style="fill: #1f77b4"/>
   </g>
   <g id="patch_48">
    <path d="M 133.768965 273.312 
L 135.381513 273.312 
L 135.381513 134.60988 
L 133.768965 134.60988 
z
" clip-path="url(#p320ec0b1f8)" style="fill: #1f77b4"/>
   </g>
   <g id="patch_49">
    <path d="M 135.381513 273.312 
L 136.994061 273.312 
L 136.994061 125.169421 
L 135.381513 125.169421 
z
" clip-path="url(#p320ec0b1f8)" style="fill: #1f77b4"/>
   </g>
   <g id="patch_50">
    <path d="M 136.994061 273.312 
L 138.606609 273.312 
L 138.606609 115.002774 
L 136.994061 115.002774 
z
" clip-path="url(#p320ec0b1f8)" style="fill: #1f77b4"/>
   </g>
   <g id="patch_51">
    <path d="M 138.606609 273.312 
L 140.219158 273.312 
L 140.219158 123.717043 
L 138.606609 123.717043 
z
" clip-path="url(#p320ec0b1f8)" style="fill: #1f77b4"/>
   </g>
   <g id="patch_52">
    <path d="M 140.219158 273.312 
L 141.831706 273.312 
L 141.831706 102.657559 
L 140.219158 102.657559 
z
" clip-path="url(#p320ec0b1f8)" style="fill: #1f77b4"/>
   </g>
   <g id="patch_53">
    <path d="M 141.831706 273.312 
L 143.444254 273.312 
L 143.444254 135.336069 
L 141.831706 135.336069 
z
" clip-path="url(#p320ec0b1f8)" style="fill: #1f77b4"/>
   </g>
   <g id="patch_54">
    <path d="M 143.444254 273.312 
L 145.056802 273.312 
L 145.056802 110.645639 
L 143.444254 110.645639 
z
" clip-path="url(#p320ec0b1f8)" style="fill: #1f77b4"/>
   </g>
   <g id="patch_55">
    <path d="M 145.056802 273.312 
L 146.66935 273.312 
L 146.66935 115.728963 
L 145.056802 115.728963 
z
" clip-path="url(#p320ec0b1f8)" style="fill: #1f77b4"/>
   </g>
   <g id="patch_56">
    <path d="M 146.66935 273.312 
L 148.281899 273.312 
L 148.281899 111.371828 
L 146.66935 111.371828 
z
" clip-path="url(#p320ec0b1f8)" style="fill: #1f77b4"/>
   </g>
   <g id="patch_57">
    <path d="M 148.281899 273.312 
L 149.894447 273.312 
L 149.894447 100.478991 
L 148.281899 100.478991 
z
" clip-path="url(#p320ec0b1f8)" style="fill: #1f77b4"/>
   </g>
   <g id="patch_58">
    <path d="M 149.894447 273.312 
L 151.506995 273.312 
L 151.506995 78.693318 
L 149.894447 78.693318 
z
" clip-path="url(#p320ec0b1f8)" style="fill: #1f77b4"/>
   </g>
   <g id="patch_59">
    <path d="M 151.506995 273.312 
L 153.119543 273.312 
L 153.119543 96.121857 
L 151.506995 96.121857 
z
" clip-path="url(#p320ec0b1f8)" style="fill: #1f77b4"/>
   </g>
   <g id="patch_60">
    <path d="M 153.119543 273.312 
L 154.732091 273.312 
L 154.732091 112.824206 
L 153.119543 112.824206 
z
" clip-path="url(#p320ec0b1f8)" style="fill: #1f77b4"/>
   </g>
   <g id="patch_61">
    <path d="M 154.732091 273.312 
L 156.34464 273.312 
L 156.34464 99.026613 
L 154.732091 99.026613 
z
" clip-path="url(#p320ec0b1f8)" style="fill: #1f77b4"/>
   </g>
   <g id="patch_62">
    <path d="M 156.34464 273.312 
L 157.957188 273.312 
L 157.957188 85.22902 
L 156.34464 85.22902 
z
" clip-path="url(#p320ec0b1f8)" style="fill: #1f77b4"/>
   </g>
   <g id="patch_63">
    <path d="M 157.957188 273.312 
L 159.569736 273.312 
L 159.569736 54.729077 
L 157.957188 54.729077 
z
" clip-path="url(#p320ec0b1f8)" style="fill: #1f77b4"/>
   </g>
   <g id="patch_64">
    <path d="M 159.569736 273.312 
L 161.182284 273.312 
L 161.182284 101.93137 
L 159.569736 101.93137 
z
" clip-path="url(#p320ec0b1f8)" style="fill: #1f77b4"/>
   </g>
   <g id="patch_65">
    <path d="M 161.182284 273.312 
L 162.794833 273.312 
L 162.794833 109.193261 
L 161.182284 109.193261 
z
" clip-path="url(#p320ec0b1f8)" style="fill: #1f77b4"/>
   </g>
   <g id="patch_66">
    <path d="M 162.794833 273.312 
L 164.407381 273.312 
L 164.407381 80.871885 
L 162.794833 80.871885 
z
" clip-path="url(#p320ec0b1f8)" style="fill: #1f77b4"/>
   </g>
   <g id="patch_67">
    <path d="M 164.407381 273.312 
L 166.019929 273.312 
L 166.019929 76.514751 
L 164.407381 76.514751 
z
" clip-path="url(#p320ec0b1f8)" style="fill: #1f77b4"/>
   </g>
   <g id="patch_68">
    <path d="M 166.019929 273.312 
L 167.632477 273.312 
L 167.632477 56.907645 
L 166.019929 56.907645 
z
" clip-path="url(#p320ec0b1f8)" style="fill: #1f77b4"/>
   </g>
   <g id="patch_69">
    <path d="M 167.632477 273.312 
L 169.245025 273.312 
L 169.245025 84.502831 
L 167.632477 84.502831 
z
" clip-path="url(#p320ec0b1f8)" style="fill: #1f77b4"/>
   </g>
   <g id="patch_70">
    <path d="M 169.245025 273.312 
L 170.857574 273.312 
L 170.857574 81.598074 
L 169.245025 81.598074 
z
" clip-path="url(#p320ec0b1f8)" style="fill: #1f77b4"/>
   </g>
   <g id="patch_71">
    <path d="M 170.857574 273.312 
L 172.470122 273.312 
L 172.470122 83.050453 
L 170.857574 83.050453 
z
" clip-path="url(#p320ec0b1f8)" style="fill: #1f77b4"/>
   </g>
   <g id="patch_72">
    <path d="M 172.470122 273.312 
L 174.08267 273.312 
L 174.08267 70.705238 
L 172.470122 70.705238 
z
" clip-path="url(#p320ec0b1f8)" style="fill: #1f77b4"/>
   </g>
   <g id="patch_73">
    <path d="M 174.08267 273.312 
L 175.695218 273.312 
L 175.695218 75.788562 
L 174.08267 75.788562 
z
" clip-path="url(#p320ec0b1f8)" style="fill: #1f77b4"/>
   </g>
   <g id="patch_74">
    <path d="M 175.695218 273.312 
L 177.307767 273.312 
L 177.307767 78.693318 
L 175.695218 78.693318 
z
" clip-path="url(#p320ec0b1f8)" style="fill: #1f77b4"/>
   </g>
   <g id="patch_75">
    <path d="M 177.307767 273.312 
L 178.920315 273.312 
L 178.920315 82.324264 
L 177.307767 82.324264 
z
" clip-path="url(#p320ec0b1f8)" style="fill: #1f77b4"/>
   </g>
   <g id="patch_76">
    <path d="M 178.920315 273.312 
L 180.532863 273.312 
L 180.532863 51.098132 
L 178.920315 51.098132 
z
" clip-path="url(#p320ec0b1f8)" style="fill: #1f77b4"/>
   </g>
   <g id="patch_77">
    <path d="M 180.532863 273.312 
L 182.145411 273.312 
L 182.145411 65.621914 
L 180.532863 65.621914 
z
" clip-path="url(#p320ec0b1f8)" style="fill: #1f77b4"/>
   </g>
   <g id="patch_78">
    <path d="M 182.145411 273.312 
L 183.757959 273.312 
L 183.757959 64.895725 
L 182.145411 64.895725 
z
" clip-path="url(#p320ec0b1f8)" style="fill: #1f77b4"/>
   </g>
   <g id="patch_79">
    <path d="M 183.757959 273.312 
L 185.370508 273.312 
L 185.370508 63.443347 
L 183.757959 63.443347 
z
" clip-path="url(#p320ec0b1f8)" style="fill: #1f77b4"/>
   </g>
   <g id="patch_80">
    <path d="M 185.370508 273.312 
L 186.983056 273.312 
L 186.983056 61.990968 
L 185.370508 61.990968 
z
" clip-path="url(#p320ec0b1f8)" style="fill: #1f77b4"/>
   </g>
   <g id="patch_81">
    <path d="M 186.983056 273.312 
L 188.595604 273.312 
L 188.595604 72.883805 
L 186.983056 72.883805 
z
" clip-path="url(#p320ec0b1f8)" style="fill: #1f77b4"/>
   </g>
   <g id="patch_82">
    <path d="M 188.595604 273.312 
L 190.208152 273.312 
L 190.208152 40.205295 
L 188.595604 40.205295 
z
" clip-path="url(#p320ec0b1f8)" style="fill: #1f77b4"/>
   </g>
   <g id="patch_83">
    <path d="M 190.208152 273.312 
L 191.820701 273.312 
L 191.820701 47.467186 
L 190.208152 47.467186 
z
" clip-path="url(#p320ec0b1f8)" style="fill: #1f77b4"/>
   </g>
   <g id="patch_84">
    <path d="M 191.820701 273.312 
L 193.433249 273.312 
L 193.433249 72.157616 
L 191.820701 72.157616 
z
" clip-path="url(#p320ec0b1f8)" style="fill: #1f77b4"/>
   </g>
   <g id="patch_85">
    <path d="M 193.433249 273.312 
L 195.045797 273.312 
L 195.045797 46.740997 
L 193.433249 46.740997 
z
" clip-path="url(#p320ec0b1f8)" style="fill: #1f77b4"/>
   </g>
   <g id="patch_86">
    <path d="M 195.045797 273.312 
L 196.658345 273.312 
L 196.658345 36.57435 
L 195.045797 36.57435 
z
" clip-path="url(#p320ec0b1f8)" style="fill: #1f77b4"/>
   </g>
   <g id="patch_87">
    <path d="M 196.658345 273.312 
L 198.270893 273.312 
L 198.270893 44.56243 
L 196.658345 44.56243 
z
" clip-path="url(#p320ec0b1f8)" style="fill: #1f77b4"/>
   </g>
   <g id="patch_88">
    <path d="M 198.270893 273.312 
L 199.883442 273.312 
L 199.883442 39.479106 
L 198.270893 39.479106 
z
" clip-path="url(#p320ec0b1f8)" style="fill: #1f77b4"/>
   </g>
   <g id="patch_89">
    <path d="M 199.883442 273.312 
L 201.49599 273.312 
L 201.49599 37.300539 
L 199.883442 37.300539 
z
" clip-path="url(#p320ec0b1f8)" style="fill: #1f77b4"/>
   </g>
   <g id="patch_90">
    <path d="M 201.49599 273.312 
L 203.108538 273.312 
L 203.108538 59.812401 
L 201.49599 59.812401 
z
" clip-path="url(#p320ec0b1f8)" style="fill: #1f77b4"/>
   </g>
   <g id="patch_91">
    <path d="M 203.108538 273.312 
L 204.721086 273.312 
L 204.721086 25.681513 
L 203.108538 25.681513 
z
" clip-path="url(#p320ec0b1f8)" style="fill: #1f77b4"/>
   </g>
   <g id="patch_92">
    <path d="M 204.721086 273.312 
L 206.333635 273.312 
L 206.333635 45.288619 
L 204.721086 45.288619 
z
" clip-path="url(#p320ec0b1f8)" style="fill: #1f77b4"/>
   </g>
   <g id="patch_93">
    <path d="M 206.333635 273.312 
L 207.946183 273.312 
L 207.946183 40.205295 
L 206.333635 40.205295 
z
" clip-path="url(#p320ec0b1f8)" style="fill: #1f77b4"/>
   </g>
   <g id="patch_94">
    <path d="M 207.946183 273.312 
L 209.558731 273.312 
L 209.558731 19.872 
L 207.946183 19.872 
z
" clip-path="url(#p320ec0b1f8)" style="fill: #1f77b4"/>
   </g>
   <g id="patch_95">
    <path d="M 209.558731 273.312 
L 211.171279 273.312 
L 211.171279 56.181456 
L 209.558731 56.181456 
z
" clip-path="url(#p320ec0b1f8)" style="fill: #1f77b4"/>
   </g>
   <g id="patch_96">
    <path d="M 211.171279 273.312 
L 212.783827 273.312 
L 212.783827 45.288619 
L 211.171279 45.288619 
z
" clip-path="url(#p320ec0b1f8)" style="fill: #1f77b4"/>
   </g>
   <g id="patch_97">
    <path d="M 212.783827 273.312 
L 214.396376 273.312 
L 214.396376 51.824321 
L 212.783827 51.824321 
z
" clip-path="url(#p320ec0b1f8)" style="fill: #1f77b4"/>
   </g>
   <g id="patch_98">
    <path d="M 214.396376 273.312 
L 216.008924 273.312 
L 216.008924 43.110052 
L 214.396376 43.110052 
z
" clip-path="url(#p320ec0b1f8)" style="fill: #1f77b4"/>
   </g>
   <g id="patch_99">
    <path d="M 216.008924 273.312 
L 217.621472 273.312 
L 217.621472 49.645754 
L 216.008924 49.645754 
z
" clip-path="url(#p320ec0b1f8)" style="fill: #1f77b4"/>
   </g>
   <g id="patch_100">
    <path d="M 217.621472 273.312 
L 219.23402 273.312 
L 219.23402 54.729077 
L 217.621472 54.729077 
z
" clip-path="url(#p320ec0b1f8)" style="fill: #1f77b4"/>
   </g>
   <g id="patch_101">
    <path d="M 219.23402 273.312 
L 220.846569 273.312 
L 220.846569 80.145696 
L 219.23402 80.145696 
z
" clip-path="url(#p320ec0b1f8)" style="fill: #1f77b4"/>
   </g>
   <g id="patch_102">
    <path d="M 220.846569 273.312 
L 222.459117 273.312 
L 222.459117 55.455266 
L 220.846569 55.455266 
z
" clip-path="url(#p320ec0b1f8)" style="fill: #1f77b4"/>
   </g>
   <g id="patch_103">
    <path d="M 222.459117 273.312 
L 224.071665 273.312 
L 224.071665 30.764837 
L 222.459117 30.764837 
z
" clip-path="url(#p320ec0b1f8)" style="fill: #1f77b4"/>
   </g>
   <g id="patch_104">
    <path d="M 224.071665 273.312 
L 225.684213 273.312 
L 225.684213 19.872 
L 224.071665 19.872 
z
" clip-path="url(#p320ec0b1f8)" style="fill: #1f77b4"/>
   </g>
   <g id="patch_105">
    <path d="M 225.684213 273.312 
L 227.296761 273.312 
L 227.296761 46.014808 
L 225.684213 46.014808 
z
" clip-path="url(#p320ec0b1f8)" style="fill: #1f77b4"/>
   </g>
   <g id="patch_106">
    <path d="M 227.296761 273.312 
L 228.90931 273.312 
L 228.90931 62.717158 
L 227.296761 62.717158 
z
" clip-path="url(#p320ec0b1f8)" style="fill: #1f77b4"/>
   </g>
   <g id="patch_107">
    <path d="M 228.90931 273.312 
L 230.521858 273.312 
L 230.521858 52.55051 
L 228.90931 52.55051 
z
" clip-path="url(#p320ec0b1f8)" style="fill: #1f77b4"/>
   </g>
   <g id="patch_108">
    <path d="M 230.521858 273.312 
L 232.134406 273.312 
L 232.134406 51.824321 
L 230.521858 51.824321 
z
" clip-path="url(#p320ec0b1f8)" style="fill: #1f77b4"/>
   </g>
   <g id="patch_109">
    <path d="M 232.134406 273.312 
L 233.746954 273.312 
L 233.746954 36.57435 
L 232.134406 36.57435 
z
" clip-path="url(#p320ec0b1f8)" style="fill: #1f77b4"/>
   </g>
   <g id="patch_110">
    <path d="M 233.746954 273.312 
L 235.359502 273.312 
L 235.359502 38.026728 
L 233.746954 38.026728 
z
" clip-path="url(#p320ec0b1f8)" style="fill: #1f77b4"/>
   </g>
   <g id="patch_111">
    <path d="M 235.359502 273.312 
L 236.972051 273.312 
L 236.972051 46.014808 
L 235.359502 46.014808 
z
" clip-path="url(#p320ec0b1f8)" style="fill: #1f77b4"/>
   </g>
   <g id="patch_112">
    <path d="M 236.972051 273.312 
L 238.584599 273.312 
L 238.584599 34.395782 
L 236.972051 34.395782 
z
" clip-path="url(#p320ec0b1f8)" style="fill: #1f77b4"/>
   </g>
   <g id="patch_113">
    <path d="M 238.584599 273.312 
L 240.197147 273.312 
L 240.197147 62.717158 
L 238.584599 62.717158 
z
" clip-path="url(#p320ec0b1f8)" style="fill: #1f77b4"/>
   </g>
   <g id="patch_114">
    <path d="M 240.197147 273.312 
L 241.809695 273.312 
L 241.809695 45.288619 
L 240.197147 45.288619 
z
" clip-path="url(#p320ec0b1f8)" style="fill: #1f77b4"/>
   </g>
   <g id="patch_115">
    <path d="M 241.809695 273.312 
L 243.422244 273.312 
L 243.422244 65.621914 
L 241.809695 65.621914 
z
" clip-path="url(#p320ec0b1f8)" style="fill: #1f77b4"/>
   </g>
   <g id="patch_116">
    <path d="M 243.422244 273.312 
L 245.034792 273.312 
L 245.034792 42.383862 
L 243.422244 42.383862 
z
" clip-path="url(#p320ec0b1f8)" style="fill: #1f77b4"/>
   </g>
   <g id="patch_117">
    <path d="M 245.034792 273.312 
L 246.64734 273.312 
L 246.64734 32.217215 
L 245.034792 32.217215 
z
" clip-path="url(#p320ec0b1f8)" style="fill: #1f77b4"/>
   </g>
   <g id="patch_118">
    <path d="M 246.64734 273.312 
L 248.259888 273.312 
L 248.259888 55.455266 
L 246.64734 55.455266 
z
" clip-path="url(#p320ec0b1f8)" style="fill: #1f77b4"/>
   </g>
   <g id="patch_119">
    <path d="M 248.259888 273.312 
L 249.872436 273.312 
L 249.872436 47.467186 
L 248.259888 47.467186 
z
" clip-path="url(#p320ec0b1f8)" style="fill: #1f77b4"/>
   </g>
   <g id="patch_120">
    <path d="M 249.872436 273.312 
L 251.484985 273.312 
L 251.484985 60.53859 
L 249.872436 60.53859 
z
" clip-path="url(#p320ec0b1f8)" style="fill: #1f77b4"/>
   </g>
   <g id="patch_121">
    <path d="M 251.484985 273.312 
L 253.097533 273.312 
L 253.097533 62.717158 
L 251.484985 62.717158 
z
" clip-path="url(#p320ec0b1f8)" style="fill: #1f77b4"/>
   </g>
   <g id="patch_122">
    <path d="M 253.097533 273.312 
L 254.710081 273.312 
L 254.710081 53.276699 
L 253.097533 53.276699 
z
" clip-path="url(#p320ec0b1f8)" style="fill: #1f77b4"/>
   </g>
   <g id="patch_123">
    <path d="M 254.710081 273.312 
L 256.322629 273.312 
L 256.322629 70.705238 
L 254.710081 70.705238 
z
" clip-path="url(#p320ec0b1f8)" style="fill: #1f77b4"/>
   </g>
   <g id="patch_124">
    <path d="M 256.322629 273.312 
L 257.935178 273.312 
L 257.935178 73.609994 
L 256.322629 73.609994 
z
" clip-path="url(#p320ec0b1f8)" style="fill: #1f77b4"/>
   </g>
   <g id="patch_125">
    <path d="M 257.935178 273.312 
L 259.547726 273.312 
L 259.547726 54.002888 
L 257.935178 54.002888 
z
" clip-path="url(#p320ec0b1f8)" style="fill: #1f77b4"/>
   </g>
   <g id="patch_126">
    <path d="M 259.547726 273.312 
L 261.160274 273.312 
L 261.160274 61.264779 
L 259.547726 61.264779 
z
" clip-path="url(#p320ec0b1f8)" style="fill: #1f77b4"/>
   </g>
   <g id="patch_127">
    <path d="M 261.160274 273.312 
L 262.772822 273.312 
L 262.772822 87.407587 
L 261.160274 87.407587 
z
" clip-path="url(#p320ec0b1f8)" style="fill: #1f77b4"/>
   </g>
   <g id="patch_128">
    <path d="M 262.772822 273.312 
L 264.38537 273.312 
L 264.38537 72.883805 
L 262.772822 72.883805 
z
" clip-path="url(#p320ec0b1f8)" style="fill: #1f77b4"/>
   </g>
   <g id="patch_129">
    <path d="M 264.38537 273.312 
L 265.997919 273.312 
L 265.997919 58.360023 
L 264.38537 58.360023 
z
" clip-path="url(#p320ec0b1f8)" style="fill: #1f77b4"/>
   </g>
   <g id="patch_130">
    <path d="M 265.997919 273.312 
L 267.610467 273.312 
L 267.610467 91.038533 
L 265.997919 91.038533 
z
" clip-path="url(#p320ec0b1f8)" style="fill: #1f77b4"/>
   </g>
   <g id="patch_131">
    <path d="M 267.610467 273.312 
L 269.223015 273.312 
L 269.223015 79.419507 
L 267.610467 79.419507 
z
" clip-path="url(#p320ec0b1f8)" style="fill: #1f77b4"/>
   </g>
   <g id="patch_132">
    <path d="M 269.223015 273.312 
L 270.835563 273.312 
L 270.835563 55.455266 
L 269.223015 55.455266 
z
" clip-path="url(#p320ec0b1f8)" style="fill: #1f77b4"/>
   </g>
   <g id="patch_133">
    <path d="M 270.835563 273.312 
L 272.448112 273.312 
L 272.448112 80.871885 
L 270.835563 80.871885 
z
" clip-path="url(#p320ec0b1f8)" style="fill: #1f77b4"/>
   </g>
   <g id="patch_134">
    <path d="M 272.448112 273.312 
L 274.06066 273.312 
L 274.06066 61.264779 
L 272.448112 61.264779 
z
" clip-path="url(#p320ec0b1f8)" style="fill: #1f77b4"/>
   </g>
   <g id="patch_135">
    <path d="M 274.06066 273.312 
L 275.673208 273.312 
L 275.673208 88.859966 
L 274.06066 88.859966 
z
" clip-path="url(#p320ec0b1f8)" style="fill: #1f77b4"/>
   </g>
   <g id="patch_136">
    <path d="M 275.673208 273.312 
L 277.285756 273.312 
L 277.285756 86.681398 
L 275.673208 86.681398 
z
" clip-path="url(#p320ec0b1f8)" style="fill: #1f77b4"/>
   </g>
   <g id="patch_137">
    <path d="M 277.285756 273.312 
L 278.898304 273.312 
L 278.898304 67.800481 
L 277.285756 67.800481 
z
" clip-path="url(#p320ec0b1f8)" style="fill: #1f77b4"/>
   </g>
   <g id="patch_138">
    <path d="M 278.898304 273.312 
L 280.510853 273.312 
L 280.510853 78.693318 
L 278.898304 78.693318 
z
" clip-path="url(#p320ec0b1f8)" style="fill: #1f77b4"/>
   </g>
   <g id="patch_139">
    <path d="M 280.510853 273.312 
L 282.123401 273.312 
L 282.123401 75.788562 
L 280.510853 75.788562 
z
" clip-path="url(#p320ec0b1f8)" style="fill: #1f77b4"/>
   </g>
   <g id="patch_140">
    <path d="M 282.123401 273.312 
L 283.735949 273.312 
L 283.735949 96.121857 
L 282.123401 96.121857 
z
" clip-path="url(#p320ec0b1f8)" style="fill: #1f77b4"/>
   </g>
   <g id="patch_141">
    <path d="M 283.735949 273.312 
L 285.348497 273.312 
L 285.348497 118.633719 
L 283.735949 118.633719 
z
" clip-path="url(#p320ec0b1f8)" style="fill: #1f77b4"/>
   </g>
   <g id="patch_142">
    <path d="M 285.348497 273.312 
L 286.961046 273.312 
L 286.961046 85.955209 
L 285.348497 85.955209 
z
" clip-path="url(#p320ec0b1f8)" style="fill: #1f77b4"/>
   </g>
   <g id="patch_143">
    <path d="M 286.961046 273.312 
L 288.573594 273.312 
L 288.573594 76.514751 
L 286.961046 76.514751 
z
" clip-path="url(#p320ec0b1f8)" style="fill: #1f77b4"/>
   </g>
   <g id="patch_144">
    <path d="M 288.573594 273.312 
L 290.186142 273.312 
L 290.186142 72.157616 
L 288.573594 72.157616 
z
" clip-path="url(#p320ec0b1f8)" style="fill: #1f77b4"/>
   </g>
   <g id="patch_145">
    <path d="M 290.186142 273.312 
L 291.79869 273.312 
L 291.79869 97.574235 
L 290.186142 97.574235 
z
" clip-path="url(#p320ec0b1f8)" style="fill: #1f77b4"/>
   </g>
   <g id="patch_146">
    <path d="M 291.79869 273.312 
L 293.411238 273.312 
L 293.411238 106.288504 
L 291.79869 106.288504 
z
" clip-path="url(#p320ec0b1f8)" style="fill: #1f77b4"/>
   </g>
   <g id="patch_147">
    <path d="M 293.411238 273.312 
L 295.023787 273.312 
L 295.023787 99.026613 
L 293.411238 99.026613 
z
" clip-path="url(#p320ec0b1f8)" style="fill: #1f77b4"/>
   </g>
   <g id="patch_148">
    <path d="M 295.023787 273.312 
L 296.636335 273.312 
L 296.636335 120.086097 
L 295.023787 120.086097 
z
" clip-path="url(#p320ec0b1f8)" style="fill: #1f77b4"/>
   </g>
   <g id="patch_149">
    <path d="M 296.636335 273.312 
L 298.248883 273.312 
L 298.248883 127.347989 
L 296.636335 127.347989 
z
" clip-path="url(#p320ec0b1f8)" style="fill: #1f77b4"/>
   </g>
   <g id="patch_150">
    <path d="M 298.248883 273.312 
L 299.861431 273.312 
L 299.861431 102.657559 
L 298.248883 102.657559 
z
" clip-path="url(#p320ec0b1f8)" style="fill: #1f77b4"/>
   </g>
   <g id="patch_151">
    <path d="M 299.861431 273.312 
L 301.47398 273.312 
L 301.47398 132.431312 
L 299.861431 132.431312 
z
" clip-path="url(#p320ec0b1f8)" style="fill: #1f77b4"/>
   </g>
   <g id="patch_152">
    <path d="M 301.47398 273.312 
L 303.086528 273.312 
L 303.086528 109.91945 
L 301.47398 109.91945 
z
" clip-path="url(#p320ec0b1f8)" style="fill: #1f77b4"/>
   </g>
   <g id="patch_153">
    <path d="M 303.086528 273.312 
L 304.699076 273.312 
L 304.699076 106.288504 
L 303.086528 106.288504 
z
" clip-path="url(#p320ec0b1f8)" style="fill: #1f77b4"/>
   </g>
   <g id="patch_154">
    <path d="M 304.699076 273.312 
L 306.311624 273.312 
L 306.311624 113.550395 
L 304.699076 113.550395 
z
" clip-path="url(#p320ec0b1f8)" style="fill: #1f77b4"/>
   </g>
   <g id="patch_155">
    <path d="M 306.311624 273.312 
L 307.924172 273.312 
L 307.924172 117.90753 
L 306.311624 117.90753 
z
" clip-path="url(#p320ec0b1f8)" style="fill: #1f77b4"/>
   </g>
   <g id="patch_156">
    <path d="M 307.924172 273.312 
L 309.536721 273.312 
L 309.536721 125.169421 
L 307.924172 125.169421 
z
" clip-path="url(#p320ec0b1f8)" style="fill: #1f77b4"/>
   </g>
   <g id="patch_157">
    <path d="M 309.536721 273.312 
L 311.149269 273.312 
L 311.149269 117.90753 
L 309.536721 117.90753 
z
" clip-path="url(#p320ec0b1f8)" style="fill: #1f77b4"/>
   </g>
   <g id="patch_158">
    <path d="M 311.149269 273.312 
L 312.761817 273.312 
L 312.761817 136.062258 
L 311.149269 136.062258 
z
" clip-path="url(#p320ec0b1f8)" style="fill: #1f77b4"/>
   </g>
   <g id="patch_159">
    <path d="M 312.761817 273.312 
L 314.374365 273.312 
L 314.374365 120.812287 
L 312.761817 120.812287 
z
" clip-path="url(#p320ec0b1f8)" style="fill: #1f77b4"/>
   </g>
   <g id="patch_160">
    <path d="M 314.374365 273.312 
L 315.986913 273.312 
L 315.986913 136.788447 
L 314.374365 136.788447 
z
" clip-path="url(#p320ec0b1f8)" style="fill: #1f77b4"/>
   </g>
   <g id="patch_161">
    <path d="M 315.986913 273.312 
L 317.599462 273.312 
L 317.599462 136.788447 
L 315.986913 136.788447 
z
" clip-path="url(#p320ec0b1f8)" style="fill: #1f77b4"/>
   </g>
   <g id="patch_162">
    <path d="M 317.599462 273.312 
L 319.21201 273.312 
L 319.21201 150.58604 
L 317.599462 150.58604 
z
" clip-path="url(#p320ec0b1f8)" style="fill: #1f77b4"/>
   </g>
   <g id="patch_163">
    <path d="M 319.21201 273.312 
L 320.824558 273.312 
L 320.824558 135.336069 
L 319.21201 135.336069 
z
" clip-path="url(#p320ec0b1f8)" style="fill: #1f77b4"/>
   </g>
   <g id="patch_164">
    <path d="M 320.824558 273.312 
L 322.437106 273.312 
L 322.437106 137.514636 
L 320.824558 137.514636 
z
" clip-path="url(#p320ec0b1f8)" style="fill: #1f77b4"/>
   </g>
   <g id="patch_165">
    <path d="M 322.437106 273.312 
L 324.049655 273.312 
L 324.049655 139.693203 
L 322.437106 139.693203 
z
" clip-path="url(#p320ec0b1f8)" style="fill: #1f77b4"/>
   </g>
   <g id="patch_166">
    <path d="M 324.049655 273.312 
L 325.662203 273.312 
L 325.662203 155.669364 
L 324.049655 155.669364 
z
" clip-path="url(#p320ec0b1f8)" style="fill: #1f77b4"/>
   </g>
   <g id="patch_167">
    <path d="M 325.662203 273.312 
L 327.274751 273.312 
L 327.274751 144.050338 
L 325.662203 144.050338 
z
" clip-path="url(#p320ec0b1f8)" style="fill: #1f77b4"/>
   </g>
   <g id="patch_168">
    <path d="M 327.274751 273.312 
L 328.887299 273.312 
L 328.887299 144.776527 
L 327.274751 144.776527 
z
" clip-path="url(#p320ec0b1f8)" style="fill: #1f77b4"/>
   </g>
   <g id="patch_169">
    <path d="M 328.887299 273.312 
L 330.499847 273.312 
L 330.499847 170.193146 
L 328.887299 170.193146 
z
" clip-path="url(#p320ec0b1f8)" style="fill: #1f77b4"/>
   </g>
   <g id="patch_170">
    <path d="M 330.499847 273.312 
L 332.112396 273.312 
L 332.112396 167.28839 
L 330.499847 167.28839 
z
" clip-path="url(#p320ec0b1f8)" style="fill: #1f77b4"/>
   </g>
   <g id="patch_171">
    <path d="M 332.112396 273.312 
L 333.724944 273.312 
L 333.724944 160.026499 
L 332.112396 160.026499 
z
" clip-path="url(#p320ec0b1f8)" style="fill: #1f77b4"/>
   </g>
   <g id="patch_172">
    <path d="M 333.724944 273.312 
L 335.337492 273.312 
L 335.337492 163.657444 
L 333.724944 163.657444 
z
" clip-path="url(#p320ec0b1f8)" style="fill: #1f77b4"/>
   </g>
   <g id="patch_173">
    <path d="M 335.337492 273.312 
L 336.95004 273.312 
L 336.95004 160.752688 
L 335.337492 160.752688 
z
" clip-path="url(#p320ec0b1f8)" style="fill: #1f77b4"/>
   </g>
   <g id="patch_174">
    <path d="M 336.95004 273.312 
L 338.562589 273.312 
L 338.562589 170.919335 
L 336.95004 170.919335 
z
" clip-path="url(#p320ec0b1f8)" style="fill: #1f77b4"/>
   </g>
   <g id="patch_175">
    <path d="M 338.562589 273.312 
L 340.175137 273.312 
L 340.175137 168.014579 
L 338.562589 168.014579 
z
" clip-path="url(#p320ec0b1f8)" style="fill: #1f77b4"/>
   </g>
   <g id="patch_176">
    <path d="M 340.175137 273.312 
L 341.787685 273.312 
L 341.787685 186.895496 
L 340.175137 186.895496 
z
" clip-path="url(#p320ec0b1f8)" style="fill: #1f77b4"/>
   </g>
   <g id="patch_177">
    <path d="M 341.787685 273.312 
L 343.400233 273.312 
L 343.400233 182.538361 
L 341.787685 182.538361 
z
" clip-path="url(#p320ec0b1f8)" style="fill: #1f77b4"/>
   </g>
   <g id="patch_178">
    <path d="M 343.400233 273.312 
L 345.012781 273.312 
L 345.012781 194.883576 
L 343.400233 194.883576 
z
" clip-path="url(#p320ec0b1f8)" style="fill: #1f77b4"/>
   </g>
   <g id="patch_179">
    <path d="M 345.012781 273.312 
L 346.62533 273.312 
L 346.62533 188.347874 
L 345.012781 188.347874 
z
" clip-path="url(#p320ec0b1f8)" style="fill: #1f77b4"/>
   </g>
   <g id="patch_180">
    <path d="M 346.62533 273.312 
L 348.237878 273.312 
L 348.237878 187.621685 
L 346.62533 187.621685 
z
" clip-path="url(#p320ec0b1f8)" style="fill: #1f77b4"/>
   </g>
   <g id="patch_181">
    <path d="M 348.237878 273.312 
L 349.850426 273.312 
L 349.850426 197.062143 
L 348.237878 197.062143 
z
" clip-path="url(#p320ec0b1f8)" style="fill: #1f77b4"/>
   </g>
   <g id="patch_182">
    <path d="M 349.850426 273.312 
L 351.462974 273.312 
L 351.462974 181.812172 
L 349.850426 181.812172 
z
" clip-path="url(#p320ec0b1f8)" style="fill: #1f77b4"/>
   </g>
   <g id="patch_183">
    <path d="M 351.462974 273.312 
L 353.075523 273.312 
L 353.075523 205.776413 
L 351.462974 205.776413 
z
" clip-path="url(#p320ec0b1f8)" style="fill: #1f77b4"/>
   </g>
   <g id="patch_184">
    <path d="M 353.075523 273.312 
L 354.688071 273.312 
L 354.688071 202.145467 
L 353.075523 202.145467 
z
" clip-path="url(#p320ec0b1f8)" style="fill: #1f77b4"/>
   </g>
   <g id="patch_185">
    <path d="M 354.688071 273.312 
L 356.300619 273.312 
L 356.300619 208.681169 
L 354.688071 208.681169 
z
" clip-path="url(#p320ec0b1f8)" style="fill: #1f77b4"/>
   </g>
   <g id="patch_186">
    <path d="M 356.300619 273.312 
L 357.913167 273.312 
L 357.913167 217.395438 
L 356.300619 217.395438 
z
" clip-path="url(#p320ec0b1f8)" style="fill: #1f77b4"/>
   </g>
   <g id="patch_187">
    <path d="M 357.913167 273.312 
L 359.525715 273.312 
L 359.525715 226.109708 
L 357.913167 226.109708 
z
" clip-path="url(#p320ec0b1f8)" style="fill: #1f77b4"/>
   </g>
   <g id="patch_188">
    <path d="M 359.525715 273.312 
L 361.138264 273.312 
L 361.138264 220.300195 
L 359.525715 220.300195 
z
" clip-path="url(#p320ec0b1f8)" style="fill: #1f77b4"/>
   </g>
   <g id="patch_189">
    <path d="M 361.138264 273.312 
L 362.750812 273.312 
L 362.750812 222.478762 
L 361.138264 222.478762 
z
" clip-path="url(#p320ec0b1f8)" style="fill: #1f77b4"/>
   </g>
   <g id="patch_190">
    <path d="M 362.750812 273.312 
L 364.36336 273.312 
L 364.36336 226.835897 
L 362.750812 226.835897 
z
" clip-path="url(#p320ec0b1f8)" style="fill: #1f77b4"/>
   </g>
   <g id="patch_191">
    <path d="M 364.36336 273.312 
L 365.975908 273.312 
L 365.975908 238.454923 
L 364.36336 238.454923 
z
" clip-path="url(#p320ec0b1f8)" style="fill: #1f77b4"/>
   </g>
   <g id="patch_192">
    <path d="M 365.975908 273.312 
L 367.588457 273.312 
L 367.588457 229.740653 
L 365.975908 229.740653 
z
" clip-path="url(#p320ec0b1f8)" style="fill: #1f77b4"/>
   </g>
   <g id="patch_193">
    <path d="M 367.588457 273.312 
L 369.201005 273.312 
L 369.201005 239.181112 
L 367.588457 239.181112 
z
" clip-path="url(#p320ec0b1f8)" style="fill: #1f77b4"/>
   </g>
   <g id="patch_194">
    <path d="M 369.201005 273.312 
L 370.813553 273.312 
L 370.813553 243.538246 
L 369.201005 243.538246 
z
" clip-path="url(#p320ec0b1f8)" style="fill: #1f77b4"/>
   </g>
   <g id="patch_195">
    <path d="M 370.813553 273.312 
L 372.426101 273.312 
L 372.426101 247.895381 
L 370.813553 247.895381 
z
" clip-path="url(#p320ec0b1f8)" style="fill: #1f77b4"/>
   </g>
   <g id="patch_196">
    <path d="M 372.426101 273.312 
L 374.038649 273.312 
L 374.038649 251.526327 
L 372.426101 251.526327 
z
" clip-path="url(#p320ec0b1f8)" style="fill: #1f77b4"/>
   </g>
   <g id="patch_197">
    <path d="M 374.038649 273.312 
L 375.651198 273.312 
L 375.651198 255.883461 
L 374.038649 255.883461 
z
" clip-path="url(#p320ec0b1f8)" style="fill: #1f77b4"/>
   </g>
   <g id="patch_198">
    <path d="M 375.651198 273.312 
L 377.263746 273.312 
L 377.263746 247.169192 
L 375.651198 247.169192 
z
" clip-path="url(#p320ec0b1f8)" style="fill: #1f77b4"/>
   </g>
   <g id="patch_199">
    <path d="M 377.263746 273.312 
L 378.876294 273.312 
L 378.876294 256.60965 
L 377.263746 256.60965 
z
" clip-path="url(#p320ec0b1f8)" style="fill: #1f77b4"/>
   </g>
   <g id="patch_200">
    <path d="M 378.876294 273.312 
L 380.488842 273.312 
L 380.488842 260.240596 
L 378.876294 260.240596 
z
" clip-path="url(#p320ec0b1f8)" style="fill: #1f77b4"/>
   </g>
   <g id="patch_201">
    <path d="M 380.488842 273.312 
L 382.101391 273.312 
L 382.101391 264.597731 
L 380.488842 264.597731 
z
" clip-path="url(#p320ec0b1f8)" style="fill: #1f77b4"/>
   </g>
   <g id="patch_202">
    <path d="M 382.101391 273.312 
L 383.713939 273.312 
L 383.713939 270.407244 
L 382.101391 270.407244 
z
" clip-path="url(#p320ec0b1f8)" style="fill: #1f77b4"/>
   </g>
   <g id="matplotlib.axis_1">
    <g id="xtick_1">
     <g id="line2d_1">
      <defs>
       <path id="m0b4af7a8a1" d="M 0 0 
L 0 3.5 
" style="stroke: #000000; stroke-width: 0.8"/>
      </defs>
      <g>
       <use xlink:href="#m0b4af7a8a1" x="60.013977" y="273.312" style="stroke: #000000; stroke-width: 0.8"/>
      </g>
     </g>
     <g id="text_1">
      <!-- 0.0 -->
      <g transform="translate(52.062415 287.910437)scale(0.1 -0.1)">
       <defs>
        <path id="DejaVuSans-30" d="M 2034 4250 
Q 1547 4250 1301 3770 
Q 1056 3291 1056 2328 
Q 1056 1369 1301 889 
Q 1547 409 2034 409 
Q 2525 409 2770 889 
Q 3016 1369 3016 2328 
Q 3016 3291 2770 3770 
Q 2525 4250 2034 4250 
z
M 2034 4750 
Q 2819 4750 3233 4129 
Q 3647 3509 3647 2328 
Q 3647 1150 3233 529 
Q 2819 -91 2034 -91 
Q 1250 -91 836 529 
Q 422 1150 422 2328 
Q 422 3509 836 4129 
Q 1250 4750 2034 4750 
z
" transform="scale(0.015625)"/>
        <path id="DejaVuSans-2e" d="M 684 794 
L 1344 794 
L 1344 0 
L 684 0 
L 684 794 
z
" transform="scale(0.015625)"/>
       </defs>
       <use xlink:href="#DejaVuSans-30"/>
       <use xlink:href="#DejaVuSans-2e" x="63.623047"/>
       <use xlink:href="#DejaVuSans-30" x="95.410156"/>
      </g>
     </g>
    </g>
    <g id="xtick_2">
     <g id="line2d_2">
      <g>
       <use xlink:href="#m0b4af7a8a1" x="101.350278" y="273.312" style="stroke: #000000; stroke-width: 0.8"/>
      </g>
     </g>
     <g id="text_2">
      <!-- 0.2 -->
      <g transform="translate(93.398715 287.910437)scale(0.1 -0.1)">
       <defs>
        <path id="DejaVuSans-32" d="M 1228 531 
L 3431 531 
L 3431 0 
L 469 0 
L 469 531 
Q 828 903 1448 1529 
Q 2069 2156 2228 2338 
Q 2531 2678 2651 2914 
Q 2772 3150 2772 3378 
Q 2772 3750 2511 3984 
Q 2250 4219 1831 4219 
Q 1534 4219 1204 4116 
Q 875 4013 500 3803 
L 500 4441 
Q 881 4594 1212 4672 
Q 1544 4750 1819 4750 
Q 2544 4750 2975 4387 
Q 3406 4025 3406 3419 
Q 3406 3131 3298 2873 
Q 3191 2616 2906 2266 
Q 2828 2175 2409 1742 
Q 1991 1309 1228 531 
z
" transform="scale(0.015625)"/>
       </defs>
       <use xlink:href="#DejaVuSans-30"/>
       <use xlink:href="#DejaVuSans-2e" x="63.623047"/>
       <use xlink:href="#DejaVuSans-32" x="95.410156"/>
      </g>
     </g>
    </g>
    <g id="xtick_3">
     <g id="line2d_3">
      <g>
       <use xlink:href="#m0b4af7a8a1" x="142.686578" y="273.312" style="stroke: #000000; stroke-width: 0.8"/>
      </g>
     </g>
     <g id="text_3">
      <!-- 0.4 -->
      <g transform="translate(134.735016 287.910437)scale(0.1 -0.1)">
       <defs>
        <path id="DejaVuSans-34" d="M 2419 4116 
L 825 1625 
L 2419 1625 
L 2419 4116 
z
M 2253 4666 
L 3047 4666 
L 3047 1625 
L 3713 1625 
L 3713 1100 
L 3047 1100 
L 3047 0 
L 2419 0 
L 2419 1100 
L 313 1100 
L 313 1709 
L 2253 4666 
z
" transform="scale(0.015625)"/>
       </defs>
       <use xlink:href="#DejaVuSans-30"/>
       <use xlink:href="#DejaVuSans-2e" x="63.623047"/>
       <use xlink:href="#DejaVuSans-34" x="95.410156"/>
      </g>
     </g>
    </g>
    <g id="xtick_4">
     <g id="line2d_4">
      <g>
       <use xlink:href="#m0b4af7a8a1" x="184.022879" y="273.312" style="stroke: #000000; stroke-width: 0.8"/>
      </g>
     </g>
     <g id="text_4">
      <!-- 0.6 -->
      <g transform="translate(176.071316 287.910437)scale(0.1 -0.1)">
       <defs>
        <path id="DejaVuSans-36" d="M 2113 2584 
Q 1688 2584 1439 2293 
Q 1191 2003 1191 1497 
Q 1191 994 1439 701 
Q 1688 409 2113 409 
Q 2538 409 2786 701 
Q 3034 994 3034 1497 
Q 3034 2003 2786 2293 
Q 2538 2584 2113 2584 
z
M 3366 4563 
L 3366 3988 
Q 3128 4100 2886 4159 
Q 2644 4219 2406 4219 
Q 1781 4219 1451 3797 
Q 1122 3375 1075 2522 
Q 1259 2794 1537 2939 
Q 1816 3084 2150 3084 
Q 2853 3084 3261 2657 
Q 3669 2231 3669 1497 
Q 3669 778 3244 343 
Q 2819 -91 2113 -91 
Q 1303 -91 875 529 
Q 447 1150 447 2328 
Q 447 3434 972 4092 
Q 1497 4750 2381 4750 
Q 2619 4750 2861 4703 
Q 3103 4656 3366 4563 
z
" transform="scale(0.015625)"/>
       </defs>
       <use xlink:href="#DejaVuSans-30"/>
       <use xlink:href="#DejaVuSans-2e" x="63.623047"/>
       <use xlink:href="#DejaVuSans-36" x="95.410156"/>
      </g>
     </g>
    </g>
    <g id="xtick_5">
     <g id="line2d_5">
      <g>
       <use xlink:href="#m0b4af7a8a1" x="225.35918" y="273.312" style="stroke: #000000; stroke-width: 0.8"/>
      </g>
     </g>
     <g id="text_5">
      <!-- 0.8 -->
      <g transform="translate(217.407617 287.910437)scale(0.1 -0.1)">
       <defs>
        <path id="DejaVuSans-38" d="M 2034 2216 
Q 1584 2216 1326 1975 
Q 1069 1734 1069 1313 
Q 1069 891 1326 650 
Q 1584 409 2034 409 
Q 2484 409 2743 651 
Q 3003 894 3003 1313 
Q 3003 1734 2745 1975 
Q 2488 2216 2034 2216 
z
M 1403 2484 
Q 997 2584 770 2862 
Q 544 3141 544 3541 
Q 544 4100 942 4425 
Q 1341 4750 2034 4750 
Q 2731 4750 3128 4425 
Q 3525 4100 3525 3541 
Q 3525 3141 3298 2862 
Q 3072 2584 2669 2484 
Q 3125 2378 3379 2068 
Q 3634 1759 3634 1313 
Q 3634 634 3220 271 
Q 2806 -91 2034 -91 
Q 1263 -91 848 271 
Q 434 634 434 1313 
Q 434 1759 690 2068 
Q 947 2378 1403 2484 
z
M 1172 3481 
Q 1172 3119 1398 2916 
Q 1625 2713 2034 2713 
Q 2441 2713 2670 2916 
Q 2900 3119 2900 3481 
Q 2900 3844 2670 4047 
Q 2441 4250 2034 4250 
Q 1625 4250 1398 4047 
Q 1172 3844 1172 3481 
z
" transform="scale(0.015625)"/>
       </defs>
       <use xlink:href="#DejaVuSans-30"/>
       <use xlink:href="#DejaVuSans-2e" x="63.623047"/>
       <use xlink:href="#DejaVuSans-38" x="95.410156"/>
      </g>
     </g>
    </g>
    <g id="xtick_6">
     <g id="line2d_6">
      <g>
       <use xlink:href="#m0b4af7a8a1" x="266.69548" y="273.312" style="stroke: #000000; stroke-width: 0.8"/>
      </g>
     </g>
     <g id="text_6">
      <!-- 1.0 -->
      <g transform="translate(258.743918 287.910437)scale(0.1 -0.1)">
       <defs>
        <path id="DejaVuSans-31" d="M 794 531 
L 1825 531 
L 1825 4091 
L 703 3866 
L 703 4441 
L 1819 4666 
L 2450 4666 
L 2450 531 
L 3481 531 
L 3481 0 
L 794 0 
L 794 531 
z
" transform="scale(0.015625)"/>
       </defs>
       <use xlink:href="#DejaVuSans-31"/>
       <use xlink:href="#DejaVuSans-2e" x="63.623047"/>
       <use xlink:href="#DejaVuSans-30" x="95.410156"/>
      </g>
     </g>
    </g>
    <g id="xtick_7">
     <g id="line2d_7">
      <g>
       <use xlink:href="#m0b4af7a8a1" x="308.031781" y="273.312" style="stroke: #000000; stroke-width: 0.8"/>
      </g>
     </g>
     <g id="text_7">
      <!-- 1.2 -->
      <g transform="translate(300.080218 287.910437)scale(0.1 -0.1)">
       <use xlink:href="#DejaVuSans-31"/>
       <use xlink:href="#DejaVuSans-2e" x="63.623047"/>
       <use xlink:href="#DejaVuSans-32" x="95.410156"/>
      </g>
     </g>
    </g>
    <g id="xtick_8">
     <g id="line2d_8">
      <g>
       <use xlink:href="#m0b4af7a8a1" x="349.368081" y="273.312" style="stroke: #000000; stroke-width: 0.8"/>
      </g>
     </g>
     <g id="text_8">
      <!-- 1.4 -->
      <g transform="translate(341.416519 287.910437)scale(0.1 -0.1)">
       <use xlink:href="#DejaVuSans-31"/>
       <use xlink:href="#DejaVuSans-2e" x="63.623047"/>
       <use xlink:href="#DejaVuSans-34" x="95.410156"/>
      </g>
     </g>
    </g>
    <g id="xtick_9">
     <g id="line2d_9">
      <g>
       <use xlink:href="#m0b4af7a8a1" x="390.704382" y="273.312" style="stroke: #000000; stroke-width: 0.8"/>
      </g>
     </g>
     <g id="text_9">
      <!-- 1.6 -->
      <g transform="translate(382.752819 287.910437)scale(0.1 -0.1)">
       <use xlink:href="#DejaVuSans-31"/>
       <use xlink:href="#DejaVuSans-2e" x="63.623047"/>
       <use xlink:href="#DejaVuSans-36" x="95.410156"/>
      </g>
     </g>
    </g>
    <g id="text_10">
     <!-- Angle with normal (rad) -->
     <g transform="translate(163.023281 301.588562)scale(0.1 -0.1)">
      <defs>
       <path id="DejaVuSans-41" d="M 2188 4044 
L 1331 1722 
L 3047 1722 
L 2188 4044 
z
M 1831 4666 
L 2547 4666 
L 4325 0 
L 3669 0 
L 3244 1197 
L 1141 1197 
L 716 0 
L 50 0 
L 1831 4666 
z
" transform="scale(0.015625)"/>
       <path id="DejaVuSans-6e" d="M 3513 2113 
L 3513 0 
L 2938 0 
L 2938 2094 
Q 2938 2591 2744 2837 
Q 2550 3084 2163 3084 
Q 1697 3084 1428 2787 
Q 1159 2491 1159 1978 
L 1159 0 
L 581 0 
L 581 3500 
L 1159 3500 
L 1159 2956 
Q 1366 3272 1645 3428 
Q 1925 3584 2291 3584 
Q 2894 3584 3203 3211 
Q 3513 2838 3513 2113 
z
" transform="scale(0.015625)"/>
       <path id="DejaVuSans-67" d="M 2906 1791 
Q 2906 2416 2648 2759 
Q 2391 3103 1925 3103 
Q 1463 3103 1205 2759 
Q 947 2416 947 1791 
Q 947 1169 1205 825 
Q 1463 481 1925 481 
Q 2391 481 2648 825 
Q 2906 1169 2906 1791 
z
M 3481 434 
Q 3481 -459 3084 -895 
Q 2688 -1331 1869 -1331 
Q 1566 -1331 1297 -1286 
Q 1028 -1241 775 -1147 
L 775 -588 
Q 1028 -725 1275 -790 
Q 1522 -856 1778 -856 
Q 2344 -856 2625 -561 
Q 2906 -266 2906 331 
L 2906 616 
Q 2728 306 2450 153 
Q 2172 0 1784 0 
Q 1141 0 747 490 
Q 353 981 353 1791 
Q 353 2603 747 3093 
Q 1141 3584 1784 3584 
Q 2172 3584 2450 3431 
Q 2728 3278 2906 2969 
L 2906 3500 
L 3481 3500 
L 3481 434 
z
" transform="scale(0.015625)"/>
       <path id="DejaVuSans-6c" d="M 603 4863 
L 1178 4863 
L 1178 0 
L 603 0 
L 603 4863 
z
" transform="scale(0.015625)"/>
       <path id="DejaVuSans-65" d="M 3597 1894 
L 3597 1613 
L 953 1613 
Q 991 1019 1311 708 
Q 1631 397 2203 397 
Q 2534 397 2845 478 
Q 3156 559 3463 722 
L 3463 178 
Q 3153 47 2828 -22 
Q 2503 -91 2169 -91 
Q 1331 -91 842 396 
Q 353 884 353 1716 
Q 353 2575 817 3079 
Q 1281 3584 2069 3584 
Q 2775 3584 3186 3129 
Q 3597 2675 3597 1894 
z
M 3022 2063 
Q 3016 2534 2758 2815 
Q 2500 3097 2075 3097 
Q 1594 3097 1305 2825 
Q 1016 2553 972 2059 
L 3022 2063 
z
" transform="scale(0.015625)"/>
       <path id="DejaVuSans-20" transform="scale(0.015625)"/>
       <path id="DejaVuSans-77" d="M 269 3500 
L 844 3500 
L 1563 769 
L 2278 3500 
L 2956 3500 
L 3675 769 
L 4391 3500 
L 4966 3500 
L 4050 0 
L 3372 0 
L 2619 2869 
L 1863 0 
L 1184 0 
L 269 3500 
z
" transform="scale(0.015625)"/>
       <path id="DejaVuSans-69" d="M 603 3500 
L 1178 3500 
L 1178 0 
L 603 0 
L 603 3500 
z
M 603 4863 
L 1178 4863 
L 1178 4134 
L 603 4134 
L 603 4863 
z
" transform="scale(0.015625)"/>
       <path id="DejaVuSans-74" d="M 1172 4494 
L 1172 3500 
L 2356 3500 
L 2356 3053 
L 1172 3053 
L 1172 1153 
Q 1172 725 1289 603 
Q 1406 481 1766 481 
L 2356 481 
L 2356 0 
L 1766 0 
Q 1100 0 847 248 
Q 594 497 594 1153 
L 594 3053 
L 172 3053 
L 172 3500 
L 594 3500 
L 594 4494 
L 1172 4494 
z
" transform="scale(0.015625)"/>
       <path id="DejaVuSans-68" d="M 3513 2113 
L 3513 0 
L 2938 0 
L 2938 2094 
Q 2938 2591 2744 2837 
Q 2550 3084 2163 3084 
Q 1697 3084 1428 2787 
Q 1159 2491 1159 1978 
L 1159 0 
L 581 0 
L 581 4863 
L 1159 4863 
L 1159 2956 
Q 1366 3272 1645 3428 
Q 1925 3584 2291 3584 
Q 2894 3584 3203 3211 
Q 3513 2838 3513 2113 
z
" transform="scale(0.015625)"/>
       <path id="DejaVuSans-6f" d="M 1959 3097 
Q 1497 3097 1228 2736 
Q 959 2375 959 1747 
Q 959 1119 1226 758 
Q 1494 397 1959 397 
Q 2419 397 2687 759 
Q 2956 1122 2956 1747 
Q 2956 2369 2687 2733 
Q 2419 3097 1959 3097 
z
M 1959 3584 
Q 2709 3584 3137 3096 
Q 3566 2609 3566 1747 
Q 3566 888 3137 398 
Q 2709 -91 1959 -91 
Q 1206 -91 779 398 
Q 353 888 353 1747 
Q 353 2609 779 3096 
Q 1206 3584 1959 3584 
z
" transform="scale(0.015625)"/>
       <path id="DejaVuSans-72" d="M 2631 2963 
Q 2534 3019 2420 3045 
Q 2306 3072 2169 3072 
Q 1681 3072 1420 2755 
Q 1159 2438 1159 1844 
L 1159 0 
L 581 0 
L 581 3500 
L 1159 3500 
L 1159 2956 
Q 1341 3275 1631 3429 
Q 1922 3584 2338 3584 
Q 2397 3584 2469 3576 
Q 2541 3569 2628 3553 
L 2631 2963 
z
" transform="scale(0.015625)"/>
       <path id="DejaVuSans-6d" d="M 3328 2828 
Q 3544 3216 3844 3400 
Q 4144 3584 4550 3584 
Q 5097 3584 5394 3201 
Q 5691 2819 5691 2113 
L 5691 0 
L 5113 0 
L 5113 2094 
Q 5113 2597 4934 2840 
Q 4756 3084 4391 3084 
Q 3944 3084 3684 2787 
Q 3425 2491 3425 1978 
L 3425 0 
L 2847 0 
L 2847 2094 
Q 2847 2600 2669 2842 
Q 2491 3084 2119 3084 
Q 1678 3084 1418 2786 
Q 1159 2488 1159 1978 
L 1159 0 
L 581 0 
L 581 3500 
L 1159 3500 
L 1159 2956 
Q 1356 3278 1631 3431 
Q 1906 3584 2284 3584 
Q 2666 3584 2933 3390 
Q 3200 3197 3328 2828 
z
" transform="scale(0.015625)"/>
       <path id="DejaVuSans-61" d="M 2194 1759 
Q 1497 1759 1228 1600 
Q 959 1441 959 1056 
Q 959 750 1161 570 
Q 1363 391 1709 391 
Q 2188 391 2477 730 
Q 2766 1069 2766 1631 
L 2766 1759 
L 2194 1759 
z
M 3341 1997 
L 3341 0 
L 2766 0 
L 2766 531 
Q 2569 213 2275 61 
Q 1981 -91 1556 -91 
Q 1019 -91 701 211 
Q 384 513 384 1019 
Q 384 1609 779 1909 
Q 1175 2209 1959 2209 
L 2766 2209 
L 2766 2266 
Q 2766 2663 2505 2880 
Q 2244 3097 1772 3097 
Q 1472 3097 1187 3025 
Q 903 2953 641 2809 
L 641 3341 
Q 956 3463 1253 3523 
Q 1550 3584 1831 3584 
Q 2591 3584 2966 3190 
Q 3341 2797 3341 1997 
z
" transform="scale(0.015625)"/>
       <path id="DejaVuSans-28" d="M 1984 4856 
Q 1566 4138 1362 3434 
Q 1159 2731 1159 2009 
Q 1159 1288 1364 580 
Q 1569 -128 1984 -844 
L 1484 -844 
Q 1016 -109 783 600 
Q 550 1309 550 2009 
Q 550 2706 781 3412 
Q 1013 4119 1484 4856 
L 1984 4856 
z
" transform="scale(0.015625)"/>
       <path id="DejaVuSans-64" d="M 2906 2969 
L 2906 4863 
L 3481 4863 
L 3481 0 
L 2906 0 
L 2906 525 
Q 2725 213 2448 61 
Q 2172 -91 1784 -91 
Q 1150 -91 751 415 
Q 353 922 353 1747 
Q 353 2572 751 3078 
Q 1150 3584 1784 3584 
Q 2172 3584 2448 3432 
Q 2725 3281 2906 2969 
z
M 947 1747 
Q 947 1113 1208 752 
Q 1469 391 1925 391 
Q 2381 391 2643 752 
Q 2906 1113 2906 1747 
Q 2906 2381 2643 2742 
Q 2381 3103 1925 3103 
Q 1469 3103 1208 2742 
Q 947 2381 947 1747 
z
" transform="scale(0.015625)"/>
       <path id="DejaVuSans-29" d="M 513 4856 
L 1013 4856 
Q 1481 4119 1714 3412 
Q 1947 2706 1947 2009 
Q 1947 1309 1714 600 
Q 1481 -109 1013 -844 
L 513 -844 
Q 928 -128 1133 580 
Q 1338 1288 1338 2009 
Q 1338 2731 1133 3434 
Q 928 4138 513 4856 
z
" transform="scale(0.015625)"/>
      </defs>
      <use xlink:href="#DejaVuSans-41"/>
      <use xlink:href="#DejaVuSans-6e" x="68.408203"/>
      <use xlink:href="#DejaVuSans-67" x="131.787109"/>
      <use xlink:href="#DejaVuSans-6c" x="195.263672"/>
      <use xlink:href="#DejaVuSans-65" x="223.046875"/>
      <use xlink:href="#DejaVuSans-20" x="284.570312"/>
      <use xlink:href="#DejaVuSans-77" x="316.357422"/>
      <use xlink:href="#DejaVuSans-69" x="398.144531"/>
      <use xlink:href="#DejaVuSans-74" x="425.927734"/>
      <use xlink:href="#DejaVuSans-68" x="465.136719"/>
      <use xlink:href="#DejaVuSans-20" x="528.515625"/>
      <use xlink:href="#DejaVuSans-6e" x="560.302734"/>
      <use xlink:href="#DejaVuSans-6f" x="623.681641"/>
      <use xlink:href="#DejaVuSans-72" x="684.863281"/>
      <use xlink:href="#DejaVuSans-6d" x="724.226562"/>
      <use xlink:href="#DejaVuSans-61" x="821.638672"/>
      <use xlink:href="#DejaVuSans-6c" x="882.917969"/>
      <use xlink:href="#DejaVuSans-20" x="910.701172"/>
      <use xlink:href="#DejaVuSans-28" x="942.488281"/>
      <use xlink:href="#DejaVuSans-72" x="981.501953"/>
      <use xlink:href="#DejaVuSans-61" x="1022.615234"/>
      <use xlink:href="#DejaVuSans-64" x="1083.894531"/>
      <use xlink:href="#DejaVuSans-29" x="1147.371094"/>
     </g>
    </g>
   </g>
   <g id="matplotlib.axis_2">
    <g id="ytick_1">
     <g id="line2d_10">
      <defs>
       <path id="m2230245493" d="M 0 0 
L -3.5 0 
" style="stroke: #000000; stroke-width: 0.8"/>
      </defs>
      <g>
       <use xlink:href="#m2230245493" x="43.78125" y="273.312" style="stroke: #000000; stroke-width: 0.8"/>
      </g>
     </g>
     <g id="text_11">
      <!-- 0.0 -->
      <g transform="translate(20.878125 277.111219)scale(0.1 -0.1)">
       <use xlink:href="#DejaVuSans-30"/>
       <use xlink:href="#DejaVuSans-2e" x="63.623047"/>
       <use xlink:href="#DejaVuSans-30" x="95.410156"/>
      </g>
     </g>
    </g>
    <g id="ytick_2">
     <g id="line2d_11">
      <g>
       <use xlink:href="#m2230245493" x="43.78125" y="227.985643" style="stroke: #000000; stroke-width: 0.8"/>
      </g>
     </g>
     <g id="text_12">
      <!-- 0.2 -->
      <g transform="translate(20.878125 231.784861)scale(0.1 -0.1)">
       <use xlink:href="#DejaVuSans-30"/>
       <use xlink:href="#DejaVuSans-2e" x="63.623047"/>
       <use xlink:href="#DejaVuSans-32" x="95.410156"/>
      </g>
     </g>
    </g>
    <g id="ytick_3">
     <g id="line2d_12">
      <g>
       <use xlink:href="#m2230245493" x="43.78125" y="182.659285" style="stroke: #000000; stroke-width: 0.8"/>
      </g>
     </g>
     <g id="text_13">
      <!-- 0.4 -->
      <g transform="translate(20.878125 186.458504)scale(0.1 -0.1)">
       <use xlink:href="#DejaVuSans-30"/>
       <use xlink:href="#DejaVuSans-2e" x="63.623047"/>
       <use xlink:href="#DejaVuSans-34" x="95.410156"/>
      </g>
     </g>
    </g>
    <g id="ytick_4">
     <g id="line2d_13">
      <g>
       <use xlink:href="#m2230245493" x="43.78125" y="137.332928" style="stroke: #000000; stroke-width: 0.8"/>
      </g>
     </g>
     <g id="text_14">
      <!-- 0.6 -->
      <g transform="translate(20.878125 141.132146)scale(0.1 -0.1)">
       <use xlink:href="#DejaVuSans-30"/>
       <use xlink:href="#DejaVuSans-2e" x="63.623047"/>
       <use xlink:href="#DejaVuSans-36" x="95.410156"/>
      </g>
     </g>
    </g>
    <g id="ytick_5">
     <g id="line2d_14">
      <g>
       <use xlink:href="#m2230245493" x="43.78125" y="92.00657" style="stroke: #000000; stroke-width: 0.8"/>
      </g>
     </g>
     <g id="text_15">
      <!-- 0.8 -->
      <g transform="translate(20.878125 95.805789)scale(0.1 -0.1)">
       <use xlink:href="#DejaVuSans-30"/>
       <use xlink:href="#DejaVuSans-2e" x="63.623047"/>
       <use xlink:href="#DejaVuSans-38" x="95.410156"/>
      </g>
     </g>
    </g>
    <g id="ytick_6">
     <g id="line2d_15">
      <g>
       <use xlink:href="#m2230245493" x="43.78125" y="46.680213" style="stroke: #000000; stroke-width: 0.8"/>
      </g>
     </g>
     <g id="text_16">
      <!-- 1.0 -->
      <g transform="translate(20.878125 50.479431)scale(0.1 -0.1)">
       <use xlink:href="#DejaVuSans-31"/>
       <use xlink:href="#DejaVuSans-2e" x="63.623047"/>
       <use xlink:href="#DejaVuSans-30" x="95.410156"/>
      </g>
     </g>
    </g>
    <g id="text_17">
     <!-- Probability density -->
     <g transform="translate(14.798438 186.606781)rotate(-90)scale(0.1 -0.1)">
      <defs>
       <path id="DejaVuSans-50" d="M 1259 4147 
L 1259 2394 
L 2053 2394 
Q 2494 2394 2734 2622 
Q 2975 2850 2975 3272 
Q 2975 3691 2734 3919 
Q 2494 4147 2053 4147 
L 1259 4147 
z
M 628 4666 
L 2053 4666 
Q 2838 4666 3239 4311 
Q 3641 3956 3641 3272 
Q 3641 2581 3239 2228 
Q 2838 1875 2053 1875 
L 1259 1875 
L 1259 0 
L 628 0 
L 628 4666 
z
" transform="scale(0.015625)"/>
       <path id="DejaVuSans-62" d="M 3116 1747 
Q 3116 2381 2855 2742 
Q 2594 3103 2138 3103 
Q 1681 3103 1420 2742 
Q 1159 2381 1159 1747 
Q 1159 1113 1420 752 
Q 1681 391 2138 391 
Q 2594 391 2855 752 
Q 3116 1113 3116 1747 
z
M 1159 2969 
Q 1341 3281 1617 3432 
Q 1894 3584 2278 3584 
Q 2916 3584 3314 3078 
Q 3713 2572 3713 1747 
Q 3713 922 3314 415 
Q 2916 -91 2278 -91 
Q 1894 -91 1617 61 
Q 1341 213 1159 525 
L 1159 0 
L 581 0 
L 581 4863 
L 1159 4863 
L 1159 2969 
z
" transform="scale(0.015625)"/>
       <path id="DejaVuSans-79" d="M 2059 -325 
Q 1816 -950 1584 -1140 
Q 1353 -1331 966 -1331 
L 506 -1331 
L 506 -850 
L 844 -850 
Q 1081 -850 1212 -737 
Q 1344 -625 1503 -206 
L 1606 56 
L 191 3500 
L 800 3500 
L 1894 763 
L 2988 3500 
L 3597 3500 
L 2059 -325 
z
" transform="scale(0.015625)"/>
       <path id="DejaVuSans-73" d="M 2834 3397 
L 2834 2853 
Q 2591 2978 2328 3040 
Q 2066 3103 1784 3103 
Q 1356 3103 1142 2972 
Q 928 2841 928 2578 
Q 928 2378 1081 2264 
Q 1234 2150 1697 2047 
L 1894 2003 
Q 2506 1872 2764 1633 
Q 3022 1394 3022 966 
Q 3022 478 2636 193 
Q 2250 -91 1575 -91 
Q 1294 -91 989 -36 
Q 684 19 347 128 
L 347 722 
Q 666 556 975 473 
Q 1284 391 1588 391 
Q 1994 391 2212 530 
Q 2431 669 2431 922 
Q 2431 1156 2273 1281 
Q 2116 1406 1581 1522 
L 1381 1569 
Q 847 1681 609 1914 
Q 372 2147 372 2553 
Q 372 3047 722 3315 
Q 1072 3584 1716 3584 
Q 2034 3584 2315 3537 
Q 2597 3491 2834 3397 
z
" transform="scale(0.015625)"/>
      </defs>
      <use xlink:href="#DejaVuSans-50"/>
      <use xlink:href="#DejaVuSans-72" x="58.552734"/>
      <use xlink:href="#DejaVuSans-6f" x="97.416016"/>
      <use xlink:href="#DejaVuSans-62" x="158.597656"/>
      <use xlink:href="#DejaVuSans-61" x="222.074219"/>
      <use xlink:href="#DejaVuSans-62" x="283.353516"/>
      <use xlink:href="#DejaVuSans-69" x="346.830078"/>
      <use xlink:href="#DejaVuSans-6c" x="374.613281"/>
      <use xlink:href="#DejaVuSans-69" x="402.396484"/>
      <use xlink:href="#DejaVuSans-74" x="430.179688"/>
      <use xlink:href="#DejaVuSans-79" x="469.388672"/>
      <use xlink:href="#DejaVuSans-20" x="528.568359"/>
      <use xlink:href="#DejaVuSans-64" x="560.355469"/>
      <use xlink:href="#DejaVuSans-65" x="623.832031"/>
      <use xlink:href="#DejaVuSans-6e" x="685.355469"/>
      <use xlink:href="#DejaVuSans-73" x="748.734375"/>
      <use xlink:href="#DejaVuSans-69" x="800.833984"/>
      <use xlink:href="#DejaVuSans-74" x="828.617188"/>
      <use xlink:href="#DejaVuSans-79" x="867.826172"/>
     </g>
    </g>
   </g>
   <g id="line2d_16">
    <path d="M 60.013977 273.312 
L 79.837728 230.103597 
L 90.237073 207.971973 
L 99.01152 189.803763 
L 106.811029 174.155378 
L 113.960578 160.304853 
L 120.460169 148.180965 
L 126.63478 137.120883 
L 132.484411 127.090658 
L 138.009063 118.047222 
L 143.208736 109.940574 
L 148.408408 102.247442 
L 153.283101 95.428021 
L 158.157794 89.004337 
L 162.707507 83.378562 
L 167.257221 78.12088 
L 171.481954 73.577256 
L 175.706688 69.367403 
L 179.606442 65.783725 
L 183.506197 62.495546 
L 187.405951 59.50755 
L 190.980726 57.035895 
L 194.555501 54.823014 
L 198.130275 52.871554 
L 201.70505 51.18385 
L 204.954845 49.880158 
L 208.204641 48.797407 
L 211.454436 47.936669 
L 214.704231 47.298795 
L 217.954026 46.884416 
L 221.203822 46.69394 
L 224.453617 46.727557 
L 227.703412 46.985234 
L 230.953207 47.466715 
L 234.203003 48.171525 
L 237.452798 49.098965 
L 240.702593 50.248121 
L 243.952388 51.617854 
L 247.527163 53.377705 
L 251.101938 55.400707 
L 254.676713 57.684438 
L 258.251488 60.226167 
L 262.151242 63.289625 
L 266.050996 66.652133 
L 269.95075 70.308905 
L 273.850505 74.254734 
L 278.075239 78.849047 
L 282.299972 83.768321 
L 286.849686 89.419979 
L 291.399399 95.428021 
L 296.274092 102.247442 
L 301.148785 109.447431 
L 306.348457 117.528825 
L 311.873109 126.546868 
L 317.397761 135.98427 
L 323.247393 146.403913 
L 329.746983 158.456589 
L 336.571553 171.59984 
L 344.046082 186.501471 
L 352.17057 203.211148 
L 361.594976 223.129868 
L 373.294239 248.417923 
L 384.668523 273.312 
L 384.668523 273.312 
" clip-path="url(#p320ec0b1f8)" style="fill: none; stroke: #ff7f0e; stroke-width: 1.5; stroke-linecap: square"/>
   </g>
   <g id="patch_203">
    <path d="M 43.78125 273.312 
L 43.78125 7.2 
" style="fill: none; stroke: #000000; stroke-width: 0.8; stroke-linejoin: miter; stroke-linecap: square"/>
   </g>
   <g id="patch_204">
    <path d="M 400.90125 273.312 
L 400.90125 7.2 
" style="fill: none; stroke: #000000; stroke-width: 0.8; stroke-linejoin: miter; stroke-linecap: square"/>
   </g>
   <g id="patch_205">
    <path d="M 43.78125 273.312 
L 400.90125 273.312 
" style="fill: none; stroke: #000000; stroke-width: 0.8; stroke-linejoin: miter; stroke-linecap: square"/>
   </g>
   <g id="patch_206">
    <path d="M 43.78125 7.2 
L 400.90125 7.2 
" style="fill: none; stroke: #000000; stroke-width: 0.8; stroke-linejoin: miter; stroke-linecap: square"/>
   </g>
  </g>
 </g>
 <defs>
  <clipPath id="p320ec0b1f8">
   <rect x="43.78125" y="7.2" width="357.12" height="266.112"/>
  </clipPath>
 </defs>
</svg>
