<?xml version="1.0" encoding="utf-8" standalone="no"?>
<!DOCTYPE svg PUBLIC "-//W3C//DTD SVG 1.1//EN"
  "http://www.w3.org/Graphics/SVG/1.1/DTD/svg11.dtd">
<svg xmlns:xlink="http://www.w3.org/1999/xlink" width="408.10125pt" height="310.86825pt" viewBox="0 0 408.10125 310.86825" xmlns="http://www.w3.org/2000/svg" version="1.1">
 <metadata>
  <rdf:RDF xmlns:dc="http://purl.org/dc/elements/1.1/" xmlns:cc="http://creativecommons.org/ns#" xmlns:rdf="http://www.w3.org/1999/02/22-rdf-syntax-ns#">
   <cc:Work>
    <dc:type rdf:resource="http://purl.org/dc/dcmitype/StillImage"/>
    <dc:date>2022-05-02T21:30:32.536495</dc:date>
    <dc:format>image/svg+xml</dc:format>
    <dc:creator>
     <cc:Agent>
      <dc:title>Matplotlib v3.5.1, https://matplotlib.org/</dc:title>
     </cc:Agent>
    </dc:creator>
   </cc:Work>
  </rdf:RDF>
 </metadata>
 <defs>
  <style type="text/css">*{stroke-linejoin: round; stroke-linecap: butt}</style>
 </defs>
 <g id="figure_1">
  <g id="patch_1">
   <path d="M 0 310.86825 
L 408.10125 310.86825 
L 408.10125 0 
L 0 0 
z
" style="fill: #ffffff"/>
  </g>
  <g id="axes_1">
   <g id="patch_2">
    <path d="M 43.78125 273.312 
L 400.90125 273.312 
L 400.90125 7.2 
L 43.78125 7.2 
z
" style="fill: #ffffff"/>
   </g>
   <g id="patch_3">
    <path d="M 60.944714 273.312 
L 62.555818 273.312 
L 62.555818 269.584941 
L 60.944714 269.584941 
z
" clip-path="url(#p24c60f03f9)" style="fill: #1f77b4"/>
   </g>
   <g id="patch_4">
    <path d="M 62.555818 273.312 
L 64.166922 273.312 
L 64.166922 268.839529 
L 62.555818 268.839529 
z
" clip-path="url(#p24c60f03f9)" style="fill: #1f77b4"/>
   </g>
   <g id="patch_5">
    <path d="M 64.166922 273.312 
L 65.778026 273.312 
L 65.778026 262.130824 
L 64.166922 262.130824 
z
" clip-path="url(#p24c60f03f9)" style="fill: #1f77b4"/>
   </g>
   <g id="patch_6">
    <path d="M 65.778026 273.312 
L 67.38913 273.312 
L 67.38913 253.931294 
L 65.778026 253.931294 
z
" clip-path="url(#p24c60f03f9)" style="fill: #1f77b4"/>
   </g>
   <g id="patch_7">
    <path d="M 67.38913 273.312 
L 69.000234 273.312 
L 69.000234 253.185882 
L 67.38913 253.185882 
z
" clip-path="url(#p24c60f03f9)" style="fill: #1f77b4"/>
   </g>
   <g id="patch_8">
    <path d="M 69.000234 273.312 
L 70.611338 273.312 
L 70.611338 251.695059 
L 69.000234 251.695059 
z
" clip-path="url(#p24c60f03f9)" style="fill: #1f77b4"/>
   </g>
   <g id="patch_9">
    <path d="M 70.611338 273.312 
L 72.222442 273.312 
L 72.222442 248.713412 
L 70.611338 248.713412 
z
" clip-path="url(#p24c60f03f9)" style="fill: #1f77b4"/>
   </g>
   <g id="patch_10">
    <path d="M 72.222442 273.312 
L 73.833546 273.312 
L 73.833546 238.277647 
L 72.222442 238.277647 
z
" clip-path="url(#p24c60f03f9)" style="fill: #1f77b4"/>
   </g>
   <g id="patch_11">
    <path d="M 73.833546 273.312 
L 75.444649 273.312 
L 75.444649 242.750118 
L 73.833546 242.750118 
z
" clip-path="url(#p24c60f03f9)" style="fill: #1f77b4"/>
   </g>
   <g id="patch_12">
    <path d="M 75.444649 273.312 
L 77.055753 273.312 
L 77.055753 237.532235 
L 75.444649 237.532235 
z
" clip-path="url(#p24c60f03f9)" style="fill: #1f77b4"/>
   </g>
   <g id="patch_13">
    <path d="M 77.055753 273.312 
L 78.666857 273.312 
L 78.666857 236.041412 
L 77.055753 236.041412 
z
" clip-path="url(#p24c60f03f9)" style="fill: #1f77b4"/>
   </g>
   <g id="patch_14">
    <path d="M 78.666857 273.312 
L 80.277961 273.312 
L 80.277961 230.823529 
L 78.666857 230.823529 
z
" clip-path="url(#p24c60f03f9)" style="fill: #1f77b4"/>
   </g>
   <g id="patch_15">
    <path d="M 80.277961 273.312 
L 81.889065 273.312 
L 81.889065 219.642353 
L 80.277961 219.642353 
z
" clip-path="url(#p24c60f03f9)" style="fill: #1f77b4"/>
   </g>
   <g id="patch_16">
    <path d="M 81.889065 273.312 
L 83.500169 273.312 
L 83.500169 227.841882 
L 81.889065 227.841882 
z
" clip-path="url(#p24c60f03f9)" style="fill: #1f77b4"/>
   </g>
   <g id="patch_17">
    <path d="M 83.500169 273.312 
L 85.111273 273.312 
L 85.111273 209.952 
L 83.500169 209.952 
z
" clip-path="url(#p24c60f03f9)" style="fill: #1f77b4"/>
   </g>
   <g id="patch_18">
    <path d="M 85.111273 273.312 
L 86.722377 273.312 
L 86.722377 206.224941 
L 85.111273 206.224941 
z
" clip-path="url(#p24c60f03f9)" style="fill: #1f77b4"/>
   </g>
   <g id="patch_19">
    <path d="M 86.722377 273.312 
L 88.333481 273.312 
L 88.333481 208.461176 
L 86.722377 208.461176 
z
" clip-path="url(#p24c60f03f9)" style="fill: #1f77b4"/>
   </g>
   <g id="patch_20">
    <path d="M 88.333481 273.312 
L 89.944585 273.312 
L 89.944585 217.406118 
L 88.333481 217.406118 
z
" clip-path="url(#p24c60f03f9)" style="fill: #1f77b4"/>
   </g>
   <g id="patch_21">
    <path d="M 89.944585 273.312 
L 91.555689 273.312 
L 91.555689 199.516235 
L 89.944585 199.516235 
z
" clip-path="url(#p24c60f03f9)" style="fill: #1f77b4"/>
   </g>
   <g id="patch_22">
    <path d="M 91.555689 273.312 
L 93.166793 273.312 
L 93.166793 203.988706 
L 91.555689 203.988706 
z
" clip-path="url(#p24c60f03f9)" style="fill: #1f77b4"/>
   </g>
   <g id="patch_23">
    <path d="M 93.166793 273.312 
L 94.777897 273.312 
L 94.777897 194.298353 
L 93.166793 194.298353 
z
" clip-path="url(#p24c60f03f9)" style="fill: #1f77b4"/>
   </g>
   <g id="patch_24">
    <path d="M 94.777897 273.312 
L 96.389001 273.312 
L 96.389001 187.589647 
L 94.777897 187.589647 
z
" clip-path="url(#p24c60f03f9)" style="fill: #1f77b4"/>
   </g>
   <g id="patch_25">
    <path d="M 96.389001 273.312 
L 98.000105 273.312 
L 98.000105 199.516235 
L 96.389001 199.516235 
z
" clip-path="url(#p24c60f03f9)" style="fill: #1f77b4"/>
   </g>
   <g id="patch_26">
    <path d="M 98.000105 273.312 
L 99.611208 273.312 
L 99.611208 190.571294 
L 98.000105 190.571294 
z
" clip-path="url(#p24c60f03f9)" style="fill: #1f77b4"/>
   </g>
   <g id="patch_27">
    <path d="M 99.611208 273.312 
L 101.222312 273.312 
L 101.222312 191.316706 
L 99.611208 191.316706 
z
" clip-path="url(#p24c60f03f9)" style="fill: #1f77b4"/>
   </g>
   <g id="patch_28">
    <path d="M 101.222312 273.312 
L 102.833416 273.312 
L 102.833416 162.245647 
L 101.222312 162.245647 
z
" clip-path="url(#p24c60f03f9)" style="fill: #1f77b4"/>
   </g>
   <g id="patch_29">
    <path d="M 102.833416 273.312 
L 104.44452 273.312 
L 104.44452 170.445176 
L 102.833416 170.445176 
z
" clip-path="url(#p24c60f03f9)" style="fill: #1f77b4"/>
   </g>
   <g id="patch_30">
    <path d="M 104.44452 273.312 
L 106.055624 273.312 
L 106.055624 180.880941 
L 104.44452 180.880941 
z
" clip-path="url(#p24c60f03f9)" style="fill: #1f77b4"/>
   </g>
   <g id="patch_31">
    <path d="M 106.055624 273.312 
L 107.666728 273.312 
L 107.666728 170.445176 
L 106.055624 170.445176 
z
" clip-path="url(#p24c60f03f9)" style="fill: #1f77b4"/>
   </g>
   <g id="patch_32">
    <path d="M 107.666728 273.312 
L 109.277832 273.312 
L 109.277832 179.390118 
L 107.666728 179.390118 
z
" clip-path="url(#p24c60f03f9)" style="fill: #1f77b4"/>
   </g>
   <g id="patch_33">
    <path d="M 109.277832 273.312 
L 110.888936 273.312 
L 110.888936 186.098824 
L 109.277832 186.098824 
z
" clip-path="url(#p24c60f03f9)" style="fill: #1f77b4"/>
   </g>
   <g id="patch_34">
    <path d="M 110.888936 273.312 
L 112.50004 273.312 
L 112.50004 164.481882 
L 110.888936 164.481882 
z
" clip-path="url(#p24c60f03f9)" style="fill: #1f77b4"/>
   </g>
   <g id="patch_35">
    <path d="M 112.50004 273.312 
L 114.111144 273.312 
L 114.111144 149.573647 
L 112.50004 149.573647 
z
" clip-path="url(#p24c60f03f9)" style="fill: #1f77b4"/>
   </g>
   <g id="patch_36">
    <path d="M 114.111144 273.312 
L 115.722248 273.312 
L 115.722248 162.245647 
L 114.111144 162.245647 
z
" clip-path="url(#p24c60f03f9)" style="fill: #1f77b4"/>
   </g>
   <g id="patch_37">
    <path d="M 115.722248 273.312 
L 117.333352 273.312 
L 117.333352 156.282353 
L 115.722248 156.282353 
z
" clip-path="url(#p24c60f03f9)" style="fill: #1f77b4"/>
   </g>
   <g id="patch_38">
    <path d="M 117.333352 273.312 
L 118.944456 273.312 
L 118.944456 145.846588 
L 117.333352 145.846588 
z
" clip-path="url(#p24c60f03f9)" style="fill: #1f77b4"/>
   </g>
   <g id="patch_39">
    <path d="M 118.944456 273.312 
L 120.55556 273.312 
L 120.55556 136.901647 
L 118.944456 136.901647 
z
" clip-path="url(#p24c60f03f9)" style="fill: #1f77b4"/>
   </g>
   <g id="patch_40">
    <path d="M 120.55556 273.312 
L 122.166663 273.312 
L 122.166663 119.757176 
L 120.55556 119.757176 
z
" clip-path="url(#p24c60f03f9)" style="fill: #1f77b4"/>
   </g>
   <g id="patch_41">
    <path d="M 122.166663 273.312 
L 123.777767 273.312 
L 123.777767 120.502588 
L 122.166663 120.502588 
z
" clip-path="url(#p24c60f03f9)" style="fill: #1f77b4"/>
   </g>
   <g id="patch_42">
    <path d="M 123.777767 273.312 
L 125.388871 273.312 
L 125.388871 145.846588 
L 123.777767 145.846588 
z
" clip-path="url(#p24c60f03f9)" style="fill: #1f77b4"/>
   </g>
   <g id="patch_43">
    <path d="M 125.388871 273.312 
L 126.999975 273.312 
L 126.999975 137.647059 
L 125.388871 137.647059 
z
" clip-path="url(#p24c60f03f9)" style="fill: #1f77b4"/>
   </g>
   <g id="patch_44">
    <path d="M 126.999975 273.312 
L 128.611079 273.312 
L 128.611079 167.463529 
L 126.999975 167.463529 
z
" clip-path="url(#p24c60f03f9)" style="fill: #1f77b4"/>
   </g>
   <g id="patch_45">
    <path d="M 128.611079 273.312 
L 130.222183 273.312 
L 130.222183 113.793882 
L 128.611079 113.793882 
z
" clip-path="url(#p24c60f03f9)" style="fill: #1f77b4"/>
   </g>
   <g id="patch_46">
    <path d="M 130.222183 273.312 
L 131.833287 273.312 
L 131.833287 134.665412 
L 130.222183 134.665412 
z
" clip-path="url(#p24c60f03f9)" style="fill: #1f77b4"/>
   </g>
   <g id="patch_47">
    <path d="M 131.833287 273.312 
L 133.444391 273.312 
L 133.444391 127.956706 
L 131.833287 127.956706 
z
" clip-path="url(#p24c60f03f9)" style="fill: #1f77b4"/>
   </g>
   <g id="patch_48">
    <path d="M 133.444391 273.312 
L 135.055495 273.312 
L 135.055495 122.738824 
L 133.444391 122.738824 
z
" clip-path="url(#p24c60f03f9)" style="fill: #1f77b4"/>
   </g>
   <g id="patch_49">
    <path d="M 135.055495 273.312 
L 136.666599 273.312 
L 136.666599 119.757176 
L 135.055495 119.757176 
z
" clip-path="url(#p24c60f03f9)" style="fill: #1f77b4"/>
   </g>
   <g id="patch_50">
    <path d="M 136.666599 273.312 
L 138.277703 273.312 
L 138.277703 99.631059 
L 136.666599 99.631059 
z
" clip-path="url(#p24c60f03f9)" style="fill: #1f77b4"/>
   </g>
   <g id="patch_51">
    <path d="M 138.277703 273.312 
L 139.888807 273.312 
L 139.888807 99.631059 
L 138.277703 99.631059 
z
" clip-path="url(#p24c60f03f9)" style="fill: #1f77b4"/>
   </g>
   <g id="patch_52">
    <path d="M 139.888807 273.312 
L 141.499911 273.312 
L 141.499911 86.959059 
L 139.888807 86.959059 
z
" clip-path="url(#p24c60f03f9)" style="fill: #1f77b4"/>
   </g>
   <g id="patch_53">
    <path d="M 141.499911 273.312 
L 143.111015 273.312 
L 143.111015 119.757176 
L 141.499911 119.757176 
z
" clip-path="url(#p24c60f03f9)" style="fill: #1f77b4"/>
   </g>
   <g id="patch_54">
    <path d="M 143.111015 273.312 
L 144.722118 273.312 
L 144.722118 83.232 
L 143.111015 83.232 
z
" clip-path="url(#p24c60f03f9)" style="fill: #1f77b4"/>
   </g>
   <g id="patch_55">
    <path d="M 144.722118 273.312 
L 146.333222 273.312 
L 146.333222 88.449882 
L 144.722118 88.449882 
z
" clip-path="url(#p24c60f03f9)" style="fill: #1f77b4"/>
   </g>
   <g id="patch_56">
    <path d="M 146.333222 273.312 
L 147.944326 273.312 
L 147.944326 93.667765 
L 146.333222 93.667765 
z
" clip-path="url(#p24c60f03f9)" style="fill: #1f77b4"/>
   </g>
   <g id="patch_57">
    <path d="M 147.944326 273.312 
L 149.55543 273.312 
L 149.55543 95.904 
L 147.944326 95.904 
z
" clip-path="url(#p24c60f03f9)" style="fill: #1f77b4"/>
   </g>
   <g id="patch_58">
    <path d="M 149.55543 273.312 
L 151.166534 273.312 
L 151.166534 92.922353 
L 149.55543 92.922353 
z
" clip-path="url(#p24c60f03f9)" style="fill: #1f77b4"/>
   </g>
   <g id="patch_59">
    <path d="M 151.166534 273.312 
L 152.777638 273.312 
L 152.777638 89.940706 
L 151.166534 89.940706 
z
" clip-path="url(#p24c60f03f9)" style="fill: #1f77b4"/>
   </g>
   <g id="patch_60">
    <path d="M 152.777638 273.312 
L 154.388742 273.312 
L 154.388742 94.413176 
L 152.777638 94.413176 
z
" clip-path="url(#p24c60f03f9)" style="fill: #1f77b4"/>
   </g>
   <g id="patch_61">
    <path d="M 154.388742 273.312 
L 155.999846 273.312 
L 155.999846 86.213647 
L 154.388742 86.213647 
z
" clip-path="url(#p24c60f03f9)" style="fill: #1f77b4"/>
   </g>
   <g id="patch_62">
    <path d="M 155.999846 273.312 
L 157.61095 273.312 
L 157.61095 72.796235 
L 155.999846 72.796235 
z
" clip-path="url(#p24c60f03f9)" style="fill: #1f77b4"/>
   </g>
   <g id="patch_63">
    <path d="M 157.61095 273.312 
L 159.222054 273.312 
L 159.222054 91.431529 
L 157.61095 91.431529 
z
" clip-path="url(#p24c60f03f9)" style="fill: #1f77b4"/>
   </g>
   <g id="patch_64">
    <path d="M 159.222054 273.312 
L 160.833158 273.312 
L 160.833158 54.906353 
L 159.222054 54.906353 
z
" clip-path="url(#p24c60f03f9)" style="fill: #1f77b4"/>
   </g>
   <g id="patch_65">
    <path d="M 160.833158 273.312 
L 162.444262 273.312 
L 162.444262 103.358118 
L 160.833158 103.358118 
z
" clip-path="url(#p24c60f03f9)" style="fill: #1f77b4"/>
   </g>
   <g id="patch_66">
    <path d="M 162.444262 273.312 
L 164.055366 273.312 
L 164.055366 67.578353 
L 162.444262 67.578353 
z
" clip-path="url(#p24c60f03f9)" style="fill: #1f77b4"/>
   </g>
   <g id="patch_67">
    <path d="M 164.055366 273.312 
L 165.66647 273.312 
L 165.66647 93.667765 
L 164.055366 93.667765 
z
" clip-path="url(#p24c60f03f9)" style="fill: #1f77b4"/>
   </g>
   <g id="patch_68">
    <path d="M 165.66647 273.312 
L 167.277573 273.312 
L 167.277573 67.578353 
L 165.66647 67.578353 
z
" clip-path="url(#p24c60f03f9)" style="fill: #1f77b4"/>
   </g>
   <g id="patch_69">
    <path d="M 167.277573 273.312 
L 168.888677 273.312 
L 168.888677 72.796235 
L 167.277573 72.796235 
z
" clip-path="url(#p24c60f03f9)" style="fill: #1f77b4"/>
   </g>
   <g id="patch_70">
    <path d="M 168.888677 273.312 
L 170.499781 273.312 
L 170.499781 71.305412 
L 168.888677 71.305412 
z
" clip-path="url(#p24c60f03f9)" style="fill: #1f77b4"/>
   </g>
   <g id="patch_71">
    <path d="M 170.499781 273.312 
L 172.110885 273.312 
L 172.110885 60.124235 
L 170.499781 60.124235 
z
" clip-path="url(#p24c60f03f9)" style="fill: #1f77b4"/>
   </g>
   <g id="patch_72">
    <path d="M 172.110885 273.312 
L 173.721989 273.312 
L 173.721989 75.777882 
L 172.110885 75.777882 
z
" clip-path="url(#p24c60f03f9)" style="fill: #1f77b4"/>
   </g>
   <g id="patch_73">
    <path d="M 173.721989 273.312 
L 175.333093 273.312 
L 175.333093 78.759529 
L 173.721989 78.759529 
z
" clip-path="url(#p24c60f03f9)" style="fill: #1f77b4"/>
   </g>
   <g id="patch_74">
    <path d="M 175.333093 273.312 
L 176.944197 273.312 
L 176.944197 62.360471 
L 175.333093 62.360471 
z
" clip-path="url(#p24c60f03f9)" style="fill: #1f77b4"/>
   </g>
   <g id="patch_75">
    <path d="M 176.944197 273.312 
L 178.555301 273.312 
L 178.555301 57.888 
L 176.944197 57.888 
z
" clip-path="url(#p24c60f03f9)" style="fill: #1f77b4"/>
   </g>
   <g id="patch_76">
    <path d="M 178.555301 273.312 
L 180.166405 273.312 
L 180.166405 42.979765 
L 178.555301 42.979765 
z
" clip-path="url(#p24c60f03f9)" style="fill: #1f77b4"/>
   </g>
   <g id="patch_77">
    <path d="M 180.166405 273.312 
L 181.777509 273.312 
L 181.777509 42.234353 
L 180.166405 42.234353 
z
" clip-path="url(#p24c60f03f9)" style="fill: #1f77b4"/>
   </g>
   <g id="patch_78">
    <path d="M 181.777509 273.312 
L 183.388613 273.312 
L 183.388613 71.305412 
L 181.777509 71.305412 
z
" clip-path="url(#p24c60f03f9)" style="fill: #1f77b4"/>
   </g>
   <g id="patch_79">
    <path d="M 183.388613 273.312 
L 184.999717 273.312 
L 184.999717 51.179294 
L 183.388613 51.179294 
z
" clip-path="url(#p24c60f03f9)" style="fill: #1f77b4"/>
   </g>
   <g id="patch_80">
    <path d="M 184.999717 273.312 
L 186.610821 273.312 
L 186.610821 37.761882 
L 184.999717 37.761882 
z
" clip-path="url(#p24c60f03f9)" style="fill: #1f77b4"/>
   </g>
   <g id="patch_81">
    <path d="M 186.610821 273.312 
L 188.221925 273.312 
L 188.221925 60.869647 
L 186.610821 60.869647 
z
" clip-path="url(#p24c60f03f9)" style="fill: #1f77b4"/>
   </g>
   <g id="patch_82">
    <path d="M 188.221925 273.312 
L 189.833028 273.312 
L 189.833028 74.287059 
L 188.221925 74.287059 
z
" clip-path="url(#p24c60f03f9)" style="fill: #1f77b4"/>
   </g>
   <g id="patch_83">
    <path d="M 189.833028 273.312 
L 191.444132 273.312 
L 191.444132 48.943059 
L 189.833028 48.943059 
z
" clip-path="url(#p24c60f03f9)" style="fill: #1f77b4"/>
   </g>
   <g id="patch_84">
    <path d="M 191.444132 273.312 
L 193.055236 273.312 
L 193.055236 58.633412 
L 191.444132 58.633412 
z
" clip-path="url(#p24c60f03f9)" style="fill: #1f77b4"/>
   </g>
   <g id="patch_85">
    <path d="M 193.055236 273.312 
L 194.66634 273.312 
L 194.66634 19.872 
L 193.055236 19.872 
z
" clip-path="url(#p24c60f03f9)" style="fill: #1f77b4"/>
   </g>
   <g id="patch_86">
    <path d="M 194.66634 273.312 
L 196.277444 273.312 
L 196.277444 54.906353 
L 194.66634 54.906353 
z
" clip-path="url(#p24c60f03f9)" style="fill: #1f77b4"/>
   </g>
   <g id="patch_87">
    <path d="M 196.277444 273.312 
L 197.888548 273.312 
L 197.888548 36.271059 
L 196.277444 36.271059 
z
" clip-path="url(#p24c60f03f9)" style="fill: #1f77b4"/>
   </g>
   <g id="patch_88">
    <path d="M 197.888548 273.312 
L 199.499652 273.312 
L 199.499652 75.032471 
L 197.888548 75.032471 
z
" clip-path="url(#p24c60f03f9)" style="fill: #1f77b4"/>
   </g>
   <g id="patch_89">
    <path d="M 199.499652 273.312 
L 201.110756 273.312 
L 201.110756 54.160941 
L 199.499652 54.160941 
z
" clip-path="url(#p24c60f03f9)" style="fill: #1f77b4"/>
   </g>
   <g id="patch_90">
    <path d="M 201.110756 273.312 
L 202.72186 273.312 
L 202.72186 57.142588 
L 201.110756 57.142588 
z
" clip-path="url(#p24c60f03f9)" style="fill: #1f77b4"/>
   </g>
   <g id="patch_91">
    <path d="M 202.72186 273.312 
L 204.332964 273.312 
L 204.332964 56.397176 
L 202.72186 56.397176 
z
" clip-path="url(#p24c60f03f9)" style="fill: #1f77b4"/>
   </g>
   <g id="patch_92">
    <path d="M 204.332964 273.312 
L 205.944068 273.312 
L 205.944068 55.651765 
L 204.332964 55.651765 
z
" clip-path="url(#p24c60f03f9)" style="fill: #1f77b4"/>
   </g>
   <g id="patch_93">
    <path d="M 205.944068 273.312 
L 207.555172 273.312 
L 207.555172 47.452235 
L 205.944068 47.452235 
z
" clip-path="url(#p24c60f03f9)" style="fill: #1f77b4"/>
   </g>
   <g id="patch_94">
    <path d="M 207.555172 273.312 
L 209.166276 273.312 
L 209.166276 45.961412 
L 207.555172 45.961412 
z
" clip-path="url(#p24c60f03f9)" style="fill: #1f77b4"/>
   </g>
   <g id="patch_95">
    <path d="M 209.166276 273.312 
L 210.77738 273.312 
L 210.77738 47.452235 
L 209.166276 47.452235 
z
" clip-path="url(#p24c60f03f9)" style="fill: #1f77b4"/>
   </g>
   <g id="patch_96">
    <path d="M 210.77738 273.312 
L 212.388484 273.312 
L 212.388484 33.289412 
L 210.77738 33.289412 
z
" clip-path="url(#p24c60f03f9)" style="fill: #1f77b4"/>
   </g>
   <g id="patch_97">
    <path d="M 212.388484 273.312 
L 213.999587 273.312 
L 213.999587 54.906353 
L 212.388484 54.906353 
z
" clip-path="url(#p24c60f03f9)" style="fill: #1f77b4"/>
   </g>
   <g id="patch_98">
    <path d="M 213.999587 273.312 
L 215.610691 273.312 
L 215.610691 32.544 
L 213.999587 32.544 
z
" clip-path="url(#p24c60f03f9)" style="fill: #1f77b4"/>
   </g>
   <g id="patch_99">
    <path d="M 215.610691 273.312 
L 217.221795 273.312 
L 217.221795 35.525647 
L 215.610691 35.525647 
z
" clip-path="url(#p24c60f03f9)" style="fill: #1f77b4"/>
   </g>
   <g id="patch_100">
    <path d="M 217.221795 273.312 
L 218.832899 273.312 
L 218.832899 44.470588 
L 217.221795 44.470588 
z
" clip-path="url(#p24c60f03f9)" style="fill: #1f77b4"/>
   </g>
   <g id="patch_101">
    <path d="M 218.832899 273.312 
L 220.444003 273.312 
L 220.444003 46.706824 
L 218.832899 46.706824 
z
" clip-path="url(#p24c60f03f9)" style="fill: #1f77b4"/>
   </g>
   <g id="patch_102">
    <path d="M 220.444003 273.312 
L 222.055107 273.312 
L 222.055107 48.943059 
L 220.444003 48.943059 
z
" clip-path="url(#p24c60f03f9)" style="fill: #1f77b4"/>
   </g>
   <g id="patch_103">
    <path d="M 222.055107 273.312 
L 223.666211 273.312 
L 223.666211 43.725176 
L 222.055107 43.725176 
z
" clip-path="url(#p24c60f03f9)" style="fill: #1f77b4"/>
   </g>
   <g id="patch_104">
    <path d="M 223.666211 273.312 
L 225.277315 273.312 
L 225.277315 37.761882 
L 223.666211 37.761882 
z
" clip-path="url(#p24c60f03f9)" style="fill: #1f77b4"/>
   </g>
   <g id="patch_105">
    <path d="M 225.277315 273.312 
L 226.888419 273.312 
L 226.888419 43.725176 
L 225.277315 43.725176 
z
" clip-path="url(#p24c60f03f9)" style="fill: #1f77b4"/>
   </g>
   <g id="patch_106">
    <path d="M 226.888419 273.312 
L 228.499523 273.312 
L 228.499523 44.470588 
L 226.888419 44.470588 
z
" clip-path="url(#p24c60f03f9)" style="fill: #1f77b4"/>
   </g>
   <g id="patch_107">
    <path d="M 228.499523 273.312 
L 230.110627 273.312 
L 230.110627 56.397176 
L 228.499523 56.397176 
z
" clip-path="url(#p24c60f03f9)" style="fill: #1f77b4"/>
   </g>
   <g id="patch_108">
    <path d="M 230.110627 273.312 
L 231.721731 273.312 
L 231.721731 39.252706 
L 230.110627 39.252706 
z
" clip-path="url(#p24c60f03f9)" style="fill: #1f77b4"/>
   </g>
   <g id="patch_109">
    <path d="M 231.721731 273.312 
L 233.332835 273.312 
L 233.332835 47.452235 
L 231.721731 47.452235 
z
" clip-path="url(#p24c60f03f9)" style="fill: #1f77b4"/>
   </g>
   <g id="patch_110">
    <path d="M 233.332835 273.312 
L 234.943939 273.312 
L 234.943939 40.743529 
L 233.332835 40.743529 
z
" clip-path="url(#p24c60f03f9)" style="fill: #1f77b4"/>
   </g>
   <g id="patch_111">
    <path d="M 234.943939 273.312 
L 236.555042 273.312 
L 236.555042 39.252706 
L 234.943939 39.252706 
z
" clip-path="url(#p24c60f03f9)" style="fill: #1f77b4"/>
   </g>
   <g id="patch_112">
    <path d="M 236.555042 273.312 
L 238.166146 273.312 
L 238.166146 28.071529 
L 236.555042 28.071529 
z
" clip-path="url(#p24c60f03f9)" style="fill: #1f77b4"/>
   </g>
   <g id="patch_113">
    <path d="M 238.166146 273.312 
L 239.77725 273.312 
L 239.77725 28.816941 
L 238.166146 28.816941 
z
" clip-path="url(#p24c60f03f9)" style="fill: #1f77b4"/>
   </g>
   <g id="patch_114">
    <path d="M 239.77725 273.312 
L 241.388354 273.312 
L 241.388354 57.888 
L 239.77725 57.888 
z
" clip-path="url(#p24c60f03f9)" style="fill: #1f77b4"/>
   </g>
   <g id="patch_115">
    <path d="M 241.388354 273.312 
L 242.999458 273.312 
L 242.999458 48.943059 
L 241.388354 48.943059 
z
" clip-path="url(#p24c60f03f9)" style="fill: #1f77b4"/>
   </g>
   <g id="patch_116">
    <path d="M 242.999458 273.312 
L 244.610562 273.312 
L 244.610562 80.250353 
L 242.999458 80.250353 
z
" clip-path="url(#p24c60f03f9)" style="fill: #1f77b4"/>
   </g>
   <g id="patch_117">
    <path d="M 244.610562 273.312 
L 246.221666 273.312 
L 246.221666 47.452235 
L 244.610562 47.452235 
z
" clip-path="url(#p24c60f03f9)" style="fill: #1f77b4"/>
   </g>
   <g id="patch_118">
    <path d="M 246.221666 273.312 
L 247.83277 273.312 
L 247.83277 39.252706 
L 246.221666 39.252706 
z
" clip-path="url(#p24c60f03f9)" style="fill: #1f77b4"/>
   </g>
   <g id="patch_119">
    <path d="M 247.83277 273.312 
L 249.443874 273.312 
L 249.443874 51.924706 
L 247.83277 51.924706 
z
" clip-path="url(#p24c60f03f9)" style="fill: #1f77b4"/>
   </g>
   <g id="patch_120">
    <path d="M 249.443874 273.312 
L 251.054978 273.312 
L 251.054978 42.979765 
L 249.443874 42.979765 
z
" clip-path="url(#p24c60f03f9)" style="fill: #1f77b4"/>
   </g>
   <g id="patch_121">
    <path d="M 251.054978 273.312 
L 252.666082 273.312 
L 252.666082 48.197647 
L 251.054978 48.197647 
z
" clip-path="url(#p24c60f03f9)" style="fill: #1f77b4"/>
   </g>
   <g id="patch_122">
    <path d="M 252.666082 273.312 
L 254.277186 273.312 
L 254.277186 43.725176 
L 252.666082 43.725176 
z
" clip-path="url(#p24c60f03f9)" style="fill: #1f77b4"/>
   </g>
   <g id="patch_123">
    <path d="M 254.277186 273.312 
L 255.88829 273.312 
L 255.88829 51.924706 
L 254.277186 51.924706 
z
" clip-path="url(#p24c60f03f9)" style="fill: #1f77b4"/>
   </g>
   <g id="patch_124">
    <path d="M 255.88829 273.312 
L 257.499394 273.312 
L 257.499394 48.943059 
L 255.88829 48.943059 
z
" clip-path="url(#p24c60f03f9)" style="fill: #1f77b4"/>
   </g>
   <g id="patch_125">
    <path d="M 257.499394 273.312 
L 259.110497 273.312 
L 259.110497 67.578353 
L 257.499394 67.578353 
z
" clip-path="url(#p24c60f03f9)" style="fill: #1f77b4"/>
   </g>
   <g id="patch_126">
    <path d="M 259.110497 273.312 
L 260.721601 273.312 
L 260.721601 44.470588 
L 259.110497 44.470588 
z
" clip-path="url(#p24c60f03f9)" style="fill: #1f77b4"/>
   </g>
   <g id="patch_127">
    <path d="M 260.721601 273.312 
L 262.332705 273.312 
L 262.332705 57.142588 
L 260.721601 57.142588 
z
" clip-path="url(#p24c60f03f9)" style="fill: #1f77b4"/>
   </g>
   <g id="patch_128">
    <path d="M 262.332705 273.312 
L 263.943809 273.312 
L 263.943809 59.378824 
L 262.332705 59.378824 
z
" clip-path="url(#p24c60f03f9)" style="fill: #1f77b4"/>
   </g>
   <g id="patch_129">
    <path d="M 263.943809 273.312 
L 265.554913 273.312 
L 265.554913 55.651765 
L 263.943809 55.651765 
z
" clip-path="url(#p24c60f03f9)" style="fill: #1f77b4"/>
   </g>
   <g id="patch_130">
    <path d="M 265.554913 273.312 
L 267.166017 273.312 
L 267.166017 60.869647 
L 265.554913 60.869647 
z
" clip-path="url(#p24c60f03f9)" style="fill: #1f77b4"/>
   </g>
   <g id="patch_131">
    <path d="M 267.166017 273.312 
L 268.777121 273.312 
L 268.777121 34.780235 
L 267.166017 34.780235 
z
" clip-path="url(#p24c60f03f9)" style="fill: #1f77b4"/>
   </g>
   <g id="patch_132">
    <path d="M 268.777121 273.312 
L 270.388225 273.312 
L 270.388225 78.759529 
L 268.777121 78.759529 
z
" clip-path="url(#p24c60f03f9)" style="fill: #1f77b4"/>
   </g>
   <g id="patch_133">
    <path d="M 270.388225 273.312 
L 271.999329 273.312 
L 271.999329 69.069176 
L 270.388225 69.069176 
z
" clip-path="url(#p24c60f03f9)" style="fill: #1f77b4"/>
   </g>
   <g id="patch_134">
    <path d="M 271.999329 273.312 
L 273.610433 273.312 
L 273.610433 72.796235 
L 271.999329 72.796235 
z
" clip-path="url(#p24c60f03f9)" style="fill: #1f77b4"/>
   </g>
   <g id="patch_135">
    <path d="M 273.610433 273.312 
L 275.221537 273.312 
L 275.221537 34.780235 
L 273.610433 34.780235 
z
" clip-path="url(#p24c60f03f9)" style="fill: #1f77b4"/>
   </g>
   <g id="patch_136">
    <path d="M 275.221537 273.312 
L 276.832641 273.312 
L 276.832641 64.596706 
L 275.221537 64.596706 
z
" clip-path="url(#p24c60f03f9)" style="fill: #1f77b4"/>
   </g>
   <g id="patch_137">
    <path d="M 276.832641 273.312 
L 278.443745 273.312 
L 278.443745 65.342118 
L 276.832641 65.342118 
z
" clip-path="url(#p24c60f03f9)" style="fill: #1f77b4"/>
   </g>
   <g id="patch_138">
    <path d="M 278.443745 273.312 
L 280.054849 273.312 
L 280.054849 42.234353 
L 278.443745 42.234353 
z
" clip-path="url(#p24c60f03f9)" style="fill: #1f77b4"/>
   </g>
   <g id="patch_139">
    <path d="M 280.054849 273.312 
L 281.665952 273.312 
L 281.665952 96.649412 
L 280.054849 96.649412 
z
" clip-path="url(#p24c60f03f9)" style="fill: #1f77b4"/>
   </g>
   <g id="patch_140">
    <path d="M 281.665952 273.312 
L 283.277056 273.312 
L 283.277056 94.413176 
L 281.665952 94.413176 
z
" clip-path="url(#p24c60f03f9)" style="fill: #1f77b4"/>
   </g>
   <g id="patch_141">
    <path d="M 283.277056 273.312 
L 284.88816 273.312 
L 284.88816 77.268706 
L 283.277056 77.268706 
z
" clip-path="url(#p24c60f03f9)" style="fill: #1f77b4"/>
   </g>
   <g id="patch_142">
    <path d="M 284.88816 273.312 
L 286.499264 273.312 
L 286.499264 78.014118 
L 284.88816 78.014118 
z
" clip-path="url(#p24c60f03f9)" style="fill: #1f77b4"/>
   </g>
   <g id="patch_143">
    <path d="M 286.499264 273.312 
L 288.110368 273.312 
L 288.110368 99.631059 
L 286.499264 99.631059 
z
" clip-path="url(#p24c60f03f9)" style="fill: #1f77b4"/>
   </g>
   <g id="patch_144">
    <path d="M 288.110368 273.312 
L 289.721472 273.312 
L 289.721472 89.940706 
L 288.110368 89.940706 
z
" clip-path="url(#p24c60f03f9)" style="fill: #1f77b4"/>
   </g>
   <g id="patch_145">
    <path d="M 289.721472 273.312 
L 291.332576 273.312 
L 291.332576 102.612706 
L 289.721472 102.612706 
z
" clip-path="url(#p24c60f03f9)" style="fill: #1f77b4"/>
   </g>
   <g id="patch_146">
    <path d="M 291.332576 273.312 
L 292.94368 273.312 
L 292.94368 98.140235 
L 291.332576 98.140235 
z
" clip-path="url(#p24c60f03f9)" style="fill: #1f77b4"/>
   </g>
   <g id="patch_147">
    <path d="M 292.94368 273.312 
L 294.554784 273.312 
L 294.554784 93.667765 
L 292.94368 93.667765 
z
" clip-path="url(#p24c60f03f9)" style="fill: #1f77b4"/>
   </g>
   <g id="patch_148">
    <path d="M 294.554784 273.312 
L 296.165888 273.312 
L 296.165888 91.431529 
L 294.554784 91.431529 
z
" clip-path="url(#p24c60f03f9)" style="fill: #1f77b4"/>
   </g>
   <g id="patch_149">
    <path d="M 296.165888 273.312 
L 297.776992 273.312 
L 297.776992 110.066824 
L 296.165888 110.066824 
z
" clip-path="url(#p24c60f03f9)" style="fill: #1f77b4"/>
   </g>
   <g id="patch_150">
    <path d="M 297.776992 273.312 
L 299.388096 273.312 
L 299.388096 78.759529 
L 297.776992 78.759529 
z
" clip-path="url(#p24c60f03f9)" style="fill: #1f77b4"/>
   </g>
   <g id="patch_151">
    <path d="M 299.388096 273.312 
L 300.9992 273.312 
L 300.9992 115.284706 
L 299.388096 115.284706 
z
" clip-path="url(#p24c60f03f9)" style="fill: #1f77b4"/>
   </g>
   <g id="patch_152">
    <path d="M 300.9992 273.312 
L 302.610304 273.312 
L 302.610304 96.649412 
L 300.9992 96.649412 
z
" clip-path="url(#p24c60f03f9)" style="fill: #1f77b4"/>
   </g>
   <g id="patch_153">
    <path d="M 302.610304 273.312 
L 304.221408 273.312 
L 304.221408 114.539294 
L 302.610304 114.539294 
z
" clip-path="url(#p24c60f03f9)" style="fill: #1f77b4"/>
   </g>
   <g id="patch_154">
    <path d="M 304.221408 273.312 
L 305.832511 273.312 
L 305.832511 142.119529 
L 304.221408 142.119529 
z
" clip-path="url(#p24c60f03f9)" style="fill: #1f77b4"/>
   </g>
   <g id="patch_155">
    <path d="M 305.832511 273.312 
L 307.443615 273.312 
L 307.443615 111.557647 
L 305.832511 111.557647 
z
" clip-path="url(#p24c60f03f9)" style="fill: #1f77b4"/>
   </g>
   <g id="patch_156">
    <path d="M 307.443615 273.312 
L 309.054719 273.312 
L 309.054719 100.376471 
L 307.443615 100.376471 
z
" clip-path="url(#p24c60f03f9)" style="fill: #1f77b4"/>
   </g>
   <g id="patch_157">
    <path d="M 309.054719 273.312 
L 310.665823 273.312 
L 310.665823 99.631059 
L 309.054719 99.631059 
z
" clip-path="url(#p24c60f03f9)" style="fill: #1f77b4"/>
   </g>
   <g id="patch_158">
    <path d="M 310.665823 273.312 
L 312.276927 273.312 
L 312.276927 108.576 
L 310.665823 108.576 
z
" clip-path="url(#p24c60f03f9)" style="fill: #1f77b4"/>
   </g>
   <g id="patch_159">
    <path d="M 312.276927 273.312 
L 313.888031 273.312 
L 313.888031 117.520941 
L 312.276927 117.520941 
z
" clip-path="url(#p24c60f03f9)" style="fill: #1f77b4"/>
   </g>
   <g id="patch_160">
    <path d="M 313.888031 273.312 
L 315.499135 273.312 
L 315.499135 136.901647 
L 313.888031 136.901647 
z
" clip-path="url(#p24c60f03f9)" style="fill: #1f77b4"/>
   </g>
   <g id="patch_161">
    <path d="M 315.499135 273.312 
L 317.110239 273.312 
L 317.110239 125.720471 
L 315.499135 125.720471 
z
" clip-path="url(#p24c60f03f9)" style="fill: #1f77b4"/>
   </g>
   <g id="patch_162">
    <path d="M 317.110239 273.312 
L 318.721343 273.312 
L 318.721343 148.828235 
L 317.110239 148.828235 
z
" clip-path="url(#p24c60f03f9)" style="fill: #1f77b4"/>
   </g>
   <g id="patch_163">
    <path d="M 318.721343 273.312 
L 320.332447 273.312 
L 320.332447 154.046118 
L 318.721343 154.046118 
z
" clip-path="url(#p24c60f03f9)" style="fill: #1f77b4"/>
   </g>
   <g id="patch_164">
    <path d="M 320.332447 273.312 
L 321.943551 273.312 
L 321.943551 133.92 
L 320.332447 133.92 
z
" clip-path="url(#p24c60f03f9)" style="fill: #1f77b4"/>
   </g>
   <g id="patch_165">
    <path d="M 321.943551 273.312 
L 323.554655 273.312 
L 323.554655 139.883294 
L 321.943551 139.883294 
z
" clip-path="url(#p24c60f03f9)" style="fill: #1f77b4"/>
   </g>
   <g id="patch_166">
    <path d="M 323.554655 273.312 
L 325.165759 273.312 
L 325.165759 145.846588 
L 323.554655 145.846588 
z
" clip-path="url(#p24c60f03f9)" style="fill: #1f77b4"/>
   </g>
   <g id="patch_167">
    <path d="M 325.165759 273.312 
L 326.776863 273.312 
L 326.776863 157.773176 
L 325.165759 157.773176 
z
" clip-path="url(#p24c60f03f9)" style="fill: #1f77b4"/>
   </g>
   <g id="patch_168">
    <path d="M 326.776863 273.312 
L 328.387966 273.312 
L 328.387966 162.991059 
L 326.776863 162.991059 
z
" clip-path="url(#p24c60f03f9)" style="fill: #1f77b4"/>
   </g>
   <g id="patch_169">
    <path d="M 328.387966 273.312 
L 329.99907 273.312 
L 329.99907 171.936 
L 328.387966 171.936 
z
" clip-path="url(#p24c60f03f9)" style="fill: #1f77b4"/>
   </g>
   <g id="patch_170">
    <path d="M 329.99907 273.312 
L 331.610174 273.312 
L 331.610174 144.355765 
L 329.99907 144.355765 
z
" clip-path="url(#p24c60f03f9)" style="fill: #1f77b4"/>
   </g>
   <g id="patch_171">
    <path d="M 331.610174 273.312 
L 333.221278 273.312 
L 333.221278 164.481882 
L 331.610174 164.481882 
z
" clip-path="url(#p24c60f03f9)" style="fill: #1f77b4"/>
   </g>
   <g id="patch_172">
    <path d="M 333.221278 273.312 
L 334.832382 273.312 
L 334.832382 164.481882 
L 333.221278 164.481882 
z
" clip-path="url(#p24c60f03f9)" style="fill: #1f77b4"/>
   </g>
   <g id="patch_173">
    <path d="M 334.832382 273.312 
L 336.443486 273.312 
L 336.443486 178.644706 
L 334.832382 178.644706 
z
" clip-path="url(#p24c60f03f9)" style="fill: #1f77b4"/>
   </g>
   <g id="patch_174">
    <path d="M 336.443486 273.312 
L 338.05459 273.312 
L 338.05459 176.408471 
L 336.443486 176.408471 
z
" clip-path="url(#p24c60f03f9)" style="fill: #1f77b4"/>
   </g>
   <g id="patch_175">
    <path d="M 338.05459 273.312 
L 339.665694 273.312 
L 339.665694 171.190588 
L 338.05459 171.190588 
z
" clip-path="url(#p24c60f03f9)" style="fill: #1f77b4"/>
   </g>
   <g id="patch_176">
    <path d="M 339.665694 273.312 
L 341.276798 273.312 
L 341.276798 183.862588 
L 339.665694 183.862588 
z
" clip-path="url(#p24c60f03f9)" style="fill: #1f77b4"/>
   </g>
   <g id="patch_177">
    <path d="M 341.276798 273.312 
L 342.887902 273.312 
L 342.887902 176.408471 
L 341.276798 176.408471 
z
" clip-path="url(#p24c60f03f9)" style="fill: #1f77b4"/>
   </g>
   <g id="patch_178">
    <path d="M 342.887902 273.312 
L 344.499006 273.312 
L 344.499006 203.243294 
L 342.887902 203.243294 
z
" clip-path="url(#p24c60f03f9)" style="fill: #1f77b4"/>
   </g>
   <g id="patch_179">
    <path d="M 344.499006 273.312 
L 346.11011 273.312 
L 346.11011 186.844235 
L 344.499006 186.844235 
z
" clip-path="url(#p24c60f03f9)" style="fill: #1f77b4"/>
   </g>
   <g id="patch_180">
    <path d="M 346.11011 273.312 
L 347.721214 273.312 
L 347.721214 199.516235 
L 346.11011 199.516235 
z
" clip-path="url(#p24c60f03f9)" style="fill: #1f77b4"/>
   </g>
   <g id="patch_181">
    <path d="M 347.721214 273.312 
L 349.332318 273.312 
L 349.332318 173.426824 
L 347.721214 173.426824 
z
" clip-path="url(#p24c60f03f9)" style="fill: #1f77b4"/>
   </g>
   <g id="patch_182">
    <path d="M 349.332318 273.312 
L 350.943421 273.312 
L 350.943421 194.298353 
L 349.332318 194.298353 
z
" clip-path="url(#p24c60f03f9)" style="fill: #1f77b4"/>
   </g>
   <g id="patch_183">
    <path d="M 350.943421 273.312 
L 352.554525 273.312 
L 352.554525 190.571294 
L 350.943421 190.571294 
z
" clip-path="url(#p24c60f03f9)" style="fill: #1f77b4"/>
   </g>
   <g id="patch_184">
    <path d="M 352.554525 273.312 
L 354.165629 273.312 
L 354.165629 205.479529 
L 352.554525 205.479529 
z
" clip-path="url(#p24c60f03f9)" style="fill: #1f77b4"/>
   </g>
   <g id="patch_185">
    <path d="M 354.165629 273.312 
L 355.776733 273.312 
L 355.776733 208.461176 
L 354.165629 208.461176 
z
" clip-path="url(#p24c60f03f9)" style="fill: #1f77b4"/>
   </g>
   <g id="patch_186">
    <path d="M 355.776733 273.312 
L 357.387837 273.312 
L 357.387837 219.642353 
L 355.776733 219.642353 
z
" clip-path="url(#p24c60f03f9)" style="fill: #1f77b4"/>
   </g>
   <g id="patch_187">
    <path d="M 357.387837 273.312 
L 358.998941 273.312 
L 358.998941 218.151529 
L 357.387837 218.151529 
z
" clip-path="url(#p24c60f03f9)" style="fill: #1f77b4"/>
   </g>
   <g id="patch_188">
    <path d="M 358.998941 273.312 
L 360.610045 273.312 
L 360.610045 223.369412 
L 358.998941 223.369412 
z
" clip-path="url(#p24c60f03f9)" style="fill: #1f77b4"/>
   </g>
   <g id="patch_189">
    <path d="M 360.610045 273.312 
L 362.221149 273.312 
L 362.221149 221.878588 
L 360.610045 221.878588 
z
" clip-path="url(#p24c60f03f9)" style="fill: #1f77b4"/>
   </g>
   <g id="patch_190">
    <path d="M 362.221149 273.312 
L 363.832253 273.312 
L 363.832253 229.332706 
L 362.221149 229.332706 
z
" clip-path="url(#p24c60f03f9)" style="fill: #1f77b4"/>
   </g>
   <g id="patch_191">
    <path d="M 363.832253 273.312 
L 365.443357 273.312 
L 365.443357 230.078118 
L 363.832253 230.078118 
z
" clip-path="url(#p24c60f03f9)" style="fill: #1f77b4"/>
   </g>
   <g id="patch_192">
    <path d="M 365.443357 273.312 
L 367.054461 273.312 
L 367.054461 232.314353 
L 365.443357 232.314353 
z
" clip-path="url(#p24c60f03f9)" style="fill: #1f77b4"/>
   </g>
   <g id="patch_193">
    <path d="M 367.054461 273.312 
L 368.665565 273.312 
L 368.665565 235.296 
L 367.054461 235.296 
z
" clip-path="url(#p24c60f03f9)" style="fill: #1f77b4"/>
   </g>
   <g id="patch_194">
    <path d="M 368.665565 273.312 
L 370.276669 273.312 
L 370.276669 239.768471 
L 368.665565 239.768471 
z
" clip-path="url(#p24c60f03f9)" style="fill: #1f77b4"/>
   </g>
   <g id="patch_195">
    <path d="M 370.276669 273.312 
L 371.887773 273.312 
L 371.887773 244.986353 
L 370.276669 244.986353 
z
" clip-path="url(#p24c60f03f9)" style="fill: #1f77b4"/>
   </g>
   <g id="patch_196">
    <path d="M 371.887773 273.312 
L 373.498876 273.312 
L 373.498876 244.240941 
L 371.887773 244.240941 
z
" clip-path="url(#p24c60f03f9)" style="fill: #1f77b4"/>
   </g>
   <g id="patch_197">
    <path d="M 373.498876 273.312 
L 375.10998 273.312 
L 375.10998 243.495529 
L 373.498876 243.495529 
z
" clip-path="url(#p24c60f03f9)" style="fill: #1f77b4"/>
   </g>
   <g id="patch_198">
    <path d="M 375.10998 273.312 
L 376.721084 273.312 
L 376.721084 253.931294 
L 375.10998 253.931294 
z
" clip-path="url(#p24c60f03f9)" style="fill: #1f77b4"/>
   </g>
   <g id="patch_199">
    <path d="M 376.721084 273.312 
L 378.332188 273.312 
L 378.332188 258.403765 
L 376.721084 258.403765 
z
" clip-path="url(#p24c60f03f9)" style="fill: #1f77b4"/>
   </g>
   <g id="patch_200">
    <path d="M 378.332188 273.312 
L 379.943292 273.312 
L 379.943292 257.658353 
L 378.332188 257.658353 
z
" clip-path="url(#p24c60f03f9)" style="fill: #1f77b4"/>
   </g>
   <g id="patch_201">
    <path d="M 379.943292 273.312 
L 381.554396 273.312 
L 381.554396 269.584941 
L 379.943292 269.584941 
z
" clip-path="url(#p24c60f03f9)" style="fill: #1f77b4"/>
   </g>
   <g id="patch_202">
    <path d="M 381.554396 273.312 
L 383.1655 273.312 
L 383.1655 268.094118 
L 381.554396 268.094118 
z
" clip-path="url(#p24c60f03f9)" style="fill: #1f77b4"/>
   </g>
   <g id="matplotlib.axis_1">
    <g id="xtick_1">
     <g id="line2d_1">
      <defs>
       <path id="m9b43afe533" d="M 0 0 
L 0 3.5 
" style="stroke: #000000; stroke-width: 0.8"/>
      </defs>
      <g>
       <use xlink:href="#m9b43afe533" x="60.013977" y="273.312" style="stroke: #000000; stroke-width: 0.8"/>
      </g>
     </g>
     <g id="text_1">
      <!-- 0.0 -->
      <g transform="translate(52.062415 287.910437)scale(0.1 -0.1)">
       <defs>
        <path id="DejaVuSans-30" d="M 2034 4250 
Q 1547 4250 1301 3770 
Q 1056 3291 1056 2328 
Q 1056 1369 1301 889 
Q 1547 409 2034 409 
Q 2525 409 2770 889 
Q 3016 1369 3016 2328 
Q 3016 3291 2770 3770 
Q 2525 4250 2034 4250 
z
M 2034 4750 
Q 2819 4750 3233 4129 
Q 3647 3509 3647 2328 
Q 3647 1150 3233 529 
Q 2819 -91 2034 -91 
Q 1250 -91 836 529 
Q 422 1150 422 2328 
Q 422 3509 836 4129 
Q 1250 4750 2034 4750 
z
" transform="scale(0.015625)"/>
        <path id="DejaVuSans-2e" d="M 684 794 
L 1344 794 
L 1344 0 
L 684 0 
L 684 794 
z
" transform="scale(0.015625)"/>
       </defs>
       <use xlink:href="#DejaVuSans-30"/>
       <use xlink:href="#DejaVuSans-2e" x="63.623047"/>
       <use xlink:href="#DejaVuSans-30" x="95.410156"/>
      </g>
     </g>
    </g>
    <g id="xtick_2">
     <g id="line2d_2">
      <g>
       <use xlink:href="#m9b43afe533" x="101.350278" y="273.312" style="stroke: #000000; stroke-width: 0.8"/>
      </g>
     </g>
     <g id="text_2">
      <!-- 0.2 -->
      <g transform="translate(93.398715 287.910437)scale(0.1 -0.1)">
       <defs>
        <path id="DejaVuSans-32" d="M 1228 531 
L 3431 531 
L 3431 0 
L 469 0 
L 469 531 
Q 828 903 1448 1529 
Q 2069 2156 2228 2338 
Q 2531 2678 2651 2914 
Q 2772 3150 2772 3378 
Q 2772 3750 2511 3984 
Q 2250 4219 1831 4219 
Q 1534 4219 1204 4116 
Q 875 4013 500 3803 
L 500 4441 
Q 881 4594 1212 4672 
Q 1544 4750 1819 4750 
Q 2544 4750 2975 4387 
Q 3406 4025 3406 3419 
Q 3406 3131 3298 2873 
Q 3191 2616 2906 2266 
Q 2828 2175 2409 1742 
Q 1991 1309 1228 531 
z
" transform="scale(0.015625)"/>
       </defs>
       <use xlink:href="#DejaVuSans-30"/>
       <use xlink:href="#DejaVuSans-2e" x="63.623047"/>
       <use xlink:href="#DejaVuSans-32" x="95.410156"/>
      </g>
     </g>
    </g>
    <g id="xtick_3">
     <g id="line2d_3">
      <g>
       <use xlink:href="#m9b43afe533" x="142.686578" y="273.312" style="stroke: #000000; stroke-width: 0.8"/>
      </g>
     </g>
     <g id="text_3">
      <!-- 0.4 -->
      <g transform="translate(134.735016 287.910437)scale(0.1 -0.1)">
       <defs>
        <path id="DejaVuSans-34" d="M 2419 4116 
L 825 1625 
L 2419 1625 
L 2419 4116 
z
M 2253 4666 
L 3047 4666 
L 3047 1625 
L 3713 1625 
L 3713 1100 
L 3047 1100 
L 3047 0 
L 2419 0 
L 2419 1100 
L 313 1100 
L 313 1709 
L 2253 4666 
z
" transform="scale(0.015625)"/>
       </defs>
       <use xlink:href="#DejaVuSans-30"/>
       <use xlink:href="#DejaVuSans-2e" x="63.623047"/>
       <use xlink:href="#DejaVuSans-34" x="95.410156"/>
      </g>
     </g>
    </g>
    <g id="xtick_4">
     <g id="line2d_4">
      <g>
       <use xlink:href="#m9b43afe533" x="184.022879" y="273.312" style="stroke: #000000; stroke-width: 0.8"/>
      </g>
     </g>
     <g id="text_4">
      <!-- 0.6 -->
      <g transform="translate(176.071316 287.910437)scale(0.1 -0.1)">
       <defs>
        <path id="DejaVuSans-36" d="M 2113 2584 
Q 1688 2584 1439 2293 
Q 1191 2003 1191 1497 
Q 1191 994 1439 701 
Q 1688 409 2113 409 
Q 2538 409 2786 701 
Q 3034 994 3034 1497 
Q 3034 2003 2786 2293 
Q 2538 2584 2113 2584 
z
M 3366 4563 
L 3366 3988 
Q 3128 4100 2886 4159 
Q 2644 4219 2406 4219 
Q 1781 4219 1451 3797 
Q 1122 3375 1075 2522 
Q 1259 2794 1537 2939 
Q 1816 3084 2150 3084 
Q 2853 3084 3261 2657 
Q 3669 2231 3669 1497 
Q 3669 778 3244 343 
Q 2819 -91 2113 -91 
Q 1303 -91 875 529 
Q 447 1150 447 2328 
Q 447 3434 972 4092 
Q 1497 4750 2381 4750 
Q 2619 4750 2861 4703 
Q 3103 4656 3366 4563 
z
" transform="scale(0.015625)"/>
       </defs>
       <use xlink:href="#DejaVuSans-30"/>
       <use xlink:href="#DejaVuSans-2e" x="63.623047"/>
       <use xlink:href="#DejaVuSans-36" x="95.410156"/>
      </g>
     </g>
    </g>
    <g id="xtick_5">
     <g id="line2d_5">
      <g>
       <use xlink:href="#m9b43afe533" x="225.35918" y="273.312" style="stroke: #000000; stroke-width: 0.8"/>
      </g>
     </g>
     <g id="text_5">
      <!-- 0.8 -->
      <g transform="translate(217.407617 287.910437)scale(0.1 -0.1)">
       <defs>
        <path id="DejaVuSans-38" d="M 2034 2216 
Q 1584 2216 1326 1975 
Q 1069 1734 1069 1313 
Q 1069 891 1326 650 
Q 1584 409 2034 409 
Q 2484 409 2743 651 
Q 3003 894 3003 1313 
Q 3003 1734 2745 1975 
Q 2488 2216 2034 2216 
z
M 1403 2484 
Q 997 2584 770 2862 
Q 544 3141 544 3541 
Q 544 4100 942 4425 
Q 1341 4750 2034 4750 
Q 2731 4750 3128 4425 
Q 3525 4100 3525 3541 
Q 3525 3141 3298 2862 
Q 3072 2584 2669 2484 
Q 3125 2378 3379 2068 
Q 3634 1759 3634 1313 
Q 3634 634 3220 271 
Q 2806 -91 2034 -91 
Q 1263 -91 848 271 
Q 434 634 434 1313 
Q 434 1759 690 2068 
Q 947 2378 1403 2484 
z
M 1172 3481 
Q 1172 3119 1398 2916 
Q 1625 2713 2034 2713 
Q 2441 2713 2670 2916 
Q 2900 3119 2900 3481 
Q 2900 3844 2670 4047 
Q 2441 4250 2034 4250 
Q 1625 4250 1398 4047 
Q 1172 3844 1172 3481 
z
" transform="scale(0.015625)"/>
       </defs>
       <use xlink:href="#DejaVuSans-30"/>
       <use xlink:href="#DejaVuSans-2e" x="63.623047"/>
       <use xlink:href="#DejaVuSans-38" x="95.410156"/>
      </g>
     </g>
    </g>
    <g id="xtick_6">
     <g id="line2d_6">
      <g>
       <use xlink:href="#m9b43afe533" x="266.69548" y="273.312" style="stroke: #000000; stroke-width: 0.8"/>
      </g>
     </g>
     <g id="text_6">
      <!-- 1.0 -->
      <g transform="translate(258.743918 287.910437)scale(0.1 -0.1)">
       <defs>
        <path id="DejaVuSans-31" d="M 794 531 
L 1825 531 
L 1825 4091 
L 703 3866 
L 703 4441 
L 1819 4666 
L 2450 4666 
L 2450 531 
L 3481 531 
L 3481 0 
L 794 0 
L 794 531 
z
" transform="scale(0.015625)"/>
       </defs>
       <use xlink:href="#DejaVuSans-31"/>
       <use xlink:href="#DejaVuSans-2e" x="63.623047"/>
       <use xlink:href="#DejaVuSans-30" x="95.410156"/>
      </g>
     </g>
    </g>
    <g id="xtick_7">
     <g id="line2d_7">
      <g>
       <use xlink:href="#m9b43afe533" x="308.031781" y="273.312" style="stroke: #000000; stroke-width: 0.8"/>
      </g>
     </g>
     <g id="text_7">
      <!-- 1.2 -->
      <g transform="translate(300.080218 287.910437)scale(0.1 -0.1)">
       <use xlink:href="#DejaVuSans-31"/>
       <use xlink:href="#DejaVuSans-2e" x="63.623047"/>
       <use xlink:href="#DejaVuSans-32" x="95.410156"/>
      </g>
     </g>
    </g>
    <g id="xtick_8">
     <g id="line2d_8">
      <g>
       <use xlink:href="#m9b43afe533" x="349.368081" y="273.312" style="stroke: #000000; stroke-width: 0.8"/>
      </g>
     </g>
     <g id="text_8">
      <!-- 1.4 -->
      <g transform="translate(341.416519 287.910437)scale(0.1 -0.1)">
       <use xlink:href="#DejaVuSans-31"/>
       <use xlink:href="#DejaVuSans-2e" x="63.623047"/>
       <use xlink:href="#DejaVuSans-34" x="95.410156"/>
      </g>
     </g>
    </g>
    <g id="xtick_9">
     <g id="line2d_9">
      <g>
       <use xlink:href="#m9b43afe533" x="390.704382" y="273.312" style="stroke: #000000; stroke-width: 0.8"/>
      </g>
     </g>
     <g id="text_9">
      <!-- 1.6 -->
      <g transform="translate(382.752819 287.910437)scale(0.1 -0.1)">
       <use xlink:href="#DejaVuSans-31"/>
       <use xlink:href="#DejaVuSans-2e" x="63.623047"/>
       <use xlink:href="#DejaVuSans-36" x="95.410156"/>
      </g>
     </g>
    </g>
    <g id="text_10">
     <!-- Angle with normal (rad) -->
     <g transform="translate(163.023281 301.588562)scale(0.1 -0.1)">
      <defs>
       <path id="DejaVuSans-41" d="M 2188 4044 
L 1331 1722 
L 3047 1722 
L 2188 4044 
z
M 1831 4666 
L 2547 4666 
L 4325 0 
L 3669 0 
L 3244 1197 
L 1141 1197 
L 716 0 
L 50 0 
L 1831 4666 
z
" transform="scale(0.015625)"/>
       <path id="DejaVuSans-6e" d="M 3513 2113 
L 3513 0 
L 2938 0 
L 2938 2094 
Q 2938 2591 2744 2837 
Q 2550 3084 2163 3084 
Q 1697 3084 1428 2787 
Q 1159 2491 1159 1978 
L 1159 0 
L 581 0 
L 581 3500 
L 1159 3500 
L 1159 2956 
Q 1366 3272 1645 3428 
Q 1925 3584 2291 3584 
Q 2894 3584 3203 3211 
Q 3513 2838 3513 2113 
z
" transform="scale(0.015625)"/>
       <path id="DejaVuSans-67" d="M 2906 1791 
Q 2906 2416 2648 2759 
Q 2391 3103 1925 3103 
Q 1463 3103 1205 2759 
Q 947 2416 947 1791 
Q 947 1169 1205 825 
Q 1463 481 1925 481 
Q 2391 481 2648 825 
Q 2906 1169 2906 1791 
z
M 3481 434 
Q 3481 -459 3084 -895 
Q 2688 -1331 1869 -1331 
Q 1566 -1331 1297 -1286 
Q 1028 -1241 775 -1147 
L 775 -588 
Q 1028 -725 1275 -790 
Q 1522 -856 1778 -856 
Q 2344 -856 2625 -561 
Q 2906 -266 2906 331 
L 2906 616 
Q 2728 306 2450 153 
Q 2172 0 1784 0 
Q 1141 0 747 490 
Q 353 981 353 1791 
Q 353 2603 747 3093 
Q 1141 3584 1784 3584 
Q 2172 3584 2450 3431 
Q 2728 3278 2906 2969 
L 2906 3500 
L 3481 3500 
L 3481 434 
z
" transform="scale(0.015625)"/>
       <path id="DejaVuSans-6c" d="M 603 4863 
L 1178 4863 
L 1178 0 
L 603 0 
L 603 4863 
z
" transform="scale(0.015625)"/>
       <path id="DejaVuSans-65" d="M 3597 1894 
L 3597 1613 
L 953 1613 
Q 991 1019 1311 708 
Q 1631 397 2203 397 
Q 2534 397 2845 478 
Q 3156 559 3463 722 
L 3463 178 
Q 3153 47 2828 -22 
Q 2503 -91 2169 -91 
Q 1331 -91 842 396 
Q 353 884 353 1716 
Q 353 2575 817 3079 
Q 1281 3584 2069 3584 
Q 2775 3584 3186 3129 
Q 3597 2675 3597 1894 
z
M 3022 2063 
Q 3016 2534 2758 2815 
Q 2500 3097 2075 3097 
Q 1594 3097 1305 2825 
Q 1016 2553 972 2059 
L 3022 2063 
z
" transform="scale(0.015625)"/>
       <path id="DejaVuSans-20" transform="scale(0.015625)"/>
       <path id="DejaVuSans-77" d="M 269 3500 
L 844 3500 
L 1563 769 
L 2278 3500 
L 2956 3500 
L 3675 769 
L 4391 3500 
L 4966 3500 
L 4050 0 
L 3372 0 
L 2619 2869 
L 1863 0 
L 1184 0 
L 269 3500 
z
" transform="scale(0.015625)"/>
       <path id="DejaVuSans-69" d="M 603 3500 
L 1178 3500 
L 1178 0 
L 603 0 
L 603 3500 
z
M 603 4863 
L 1178 4863 
L 1178 4134 
L 603 4134 
L 603 4863 
z
" transform="scale(0.015625)"/>
       <path id="DejaVuSans-74" d="M 1172 4494 
L 1172 3500 
L 2356 3500 
L 2356 3053 
L 1172 3053 
L 1172 1153 
Q 1172 725 1289 603 
Q 1406 481 1766 481 
L 2356 481 
L 2356 0 
L 1766 0 
Q 1100 0 847 248 
Q 594 497 594 1153 
L 594 3053 
L 172 3053 
L 172 3500 
L 594 3500 
L 594 4494 
L 1172 4494 
z
" transform="scale(0.015625)"/>
       <path id="DejaVuSans-68" d="M 3513 2113 
L 3513 0 
L 2938 0 
L 2938 2094 
Q 2938 2591 2744 2837 
Q 2550 3084 2163 3084 
Q 1697 3084 1428 2787 
Q 1159 2491 1159 1978 
L 1159 0 
L 581 0 
L 581 4863 
L 1159 4863 
L 1159 2956 
Q 1366 3272 1645 3428 
Q 1925 3584 2291 3584 
Q 2894 3584 3203 3211 
Q 3513 2838 3513 2113 
z
" transform="scale(0.015625)"/>
       <path id="DejaVuSans-6f" d="M 1959 3097 
Q 1497 3097 1228 2736 
Q 959 2375 959 1747 
Q 959 1119 1226 758 
Q 1494 397 1959 397 
Q 2419 397 2687 759 
Q 2956 1122 2956 1747 
Q 2956 2369 2687 2733 
Q 2419 3097 1959 3097 
z
M 1959 3584 
Q 2709 3584 3137 3096 
Q 3566 2609 3566 1747 
Q 3566 888 3137 398 
Q 2709 -91 1959 -91 
Q 1206 -91 779 398 
Q 353 888 353 1747 
Q 353 2609 779 3096 
Q 1206 3584 1959 3584 
z
" transform="scale(0.015625)"/>
       <path id="DejaVuSans-72" d="M 2631 2963 
Q 2534 3019 2420 3045 
Q 2306 3072 2169 3072 
Q 1681 3072 1420 2755 
Q 1159 2438 1159 1844 
L 1159 0 
L 581 0 
L 581 3500 
L 1159 3500 
L 1159 2956 
Q 1341 3275 1631 3429 
Q 1922 3584 2338 3584 
Q 2397 3584 2469 3576 
Q 2541 3569 2628 3553 
L 2631 2963 
z
" transform="scale(0.015625)"/>
       <path id="DejaVuSans-6d" d="M 3328 2828 
Q 3544 3216 3844 3400 
Q 4144 3584 4550 3584 
Q 5097 3584 5394 3201 
Q 5691 2819 5691 2113 
L 5691 0 
L 5113 0 
L 5113 2094 
Q 5113 2597 4934 2840 
Q 4756 3084 4391 3084 
Q 3944 3084 3684 2787 
Q 3425 2491 3425 1978 
L 3425 0 
L 2847 0 
L 2847 2094 
Q 2847 2600 2669 2842 
Q 2491 3084 2119 3084 
Q 1678 3084 1418 2786 
Q 1159 2488 1159 1978 
L 1159 0 
L 581 0 
L 581 3500 
L 1159 3500 
L 1159 2956 
Q 1356 3278 1631 3431 
Q 1906 3584 2284 3584 
Q 2666 3584 2933 3390 
Q 3200 3197 3328 2828 
z
" transform="scale(0.015625)"/>
       <path id="DejaVuSans-61" d="M 2194 1759 
Q 1497 1759 1228 1600 
Q 959 1441 959 1056 
Q 959 750 1161 570 
Q 1363 391 1709 391 
Q 2188 391 2477 730 
Q 2766 1069 2766 1631 
L 2766 1759 
L 2194 1759 
z
M 3341 1997 
L 3341 0 
L 2766 0 
L 2766 531 
Q 2569 213 2275 61 
Q 1981 -91 1556 -91 
Q 1019 -91 701 211 
Q 384 513 384 1019 
Q 384 1609 779 1909 
Q 1175 2209 1959 2209 
L 2766 2209 
L 2766 2266 
Q 2766 2663 2505 2880 
Q 2244 3097 1772 3097 
Q 1472 3097 1187 3025 
Q 903 2953 641 2809 
L 641 3341 
Q 956 3463 1253 3523 
Q 1550 3584 1831 3584 
Q 2591 3584 2966 3190 
Q 3341 2797 3341 1997 
z
" transform="scale(0.015625)"/>
       <path id="DejaVuSans-28" d="M 1984 4856 
Q 1566 4138 1362 3434 
Q 1159 2731 1159 2009 
Q 1159 1288 1364 580 
Q 1569 -128 1984 -844 
L 1484 -844 
Q 1016 -109 783 600 
Q 550 1309 550 2009 
Q 550 2706 781 3412 
Q 1013 4119 1484 4856 
L 1984 4856 
z
" transform="scale(0.015625)"/>
       <path id="DejaVuSans-64" d="M 2906 2969 
L 2906 4863 
L 3481 4863 
L 3481 0 
L 2906 0 
L 2906 525 
Q 2725 213 2448 61 
Q 2172 -91 1784 -91 
Q 1150 -91 751 415 
Q 353 922 353 1747 
Q 353 2572 751 3078 
Q 1150 3584 1784 3584 
Q 2172 3584 2448 3432 
Q 2725 3281 2906 2969 
z
M 947 1747 
Q 947 1113 1208 752 
Q 1469 391 1925 391 
Q 2381 391 2643 752 
Q 2906 1113 2906 1747 
Q 2906 2381 2643 2742 
Q 2381 3103 1925 3103 
Q 1469 3103 1208 2742 
Q 947 2381 947 1747 
z
" transform="scale(0.015625)"/>
       <path id="DejaVuSans-29" d="M 513 4856 
L 1013 4856 
Q 1481 4119 1714 3412 
Q 1947 2706 1947 2009 
Q 1947 1309 1714 600 
Q 1481 -109 1013 -844 
L 513 -844 
Q 928 -128 1133 580 
Q 1338 1288 1338 2009 
Q 1338 2731 1133 3434 
Q 928 4138 513 4856 
z
" transform="scale(0.015625)"/>
      </defs>
      <use xlink:href="#DejaVuSans-41"/>
      <use xlink:href="#DejaVuSans-6e" x="68.408203"/>
      <use xlink:href="#DejaVuSans-67" x="131.787109"/>
      <use xlink:href="#DejaVuSans-6c" x="195.263672"/>
      <use xlink:href="#DejaVuSans-65" x="223.046875"/>
      <use xlink:href="#DejaVuSans-20" x="284.570312"/>
      <use xlink:href="#DejaVuSans-77" x="316.357422"/>
      <use xlink:href="#DejaVuSans-69" x="398.144531"/>
      <use xlink:href="#DejaVuSans-74" x="425.927734"/>
      <use xlink:href="#DejaVuSans-68" x="465.136719"/>
      <use xlink:href="#DejaVuSans-20" x="528.515625"/>
      <use xlink:href="#DejaVuSans-6e" x="560.302734"/>
      <use xlink:href="#DejaVuSans-6f" x="623.681641"/>
      <use xlink:href="#DejaVuSans-72" x="684.863281"/>
      <use xlink:href="#DejaVuSans-6d" x="724.226562"/>
      <use xlink:href="#DejaVuSans-61" x="821.638672"/>
      <use xlink:href="#DejaVuSans-6c" x="882.917969"/>
      <use xlink:href="#DejaVuSans-20" x="910.701172"/>
      <use xlink:href="#DejaVuSans-28" x="942.488281"/>
      <use xlink:href="#DejaVuSans-72" x="981.501953"/>
      <use xlink:href="#DejaVuSans-61" x="1022.615234"/>
      <use xlink:href="#DejaVuSans-64" x="1083.894531"/>
      <use xlink:href="#DejaVuSans-29" x="1147.371094"/>
     </g>
    </g>
   </g>
   <g id="matplotlib.axis_2">
    <g id="ytick_1">
     <g id="line2d_10">
      <defs>
       <path id="m000a85019c" d="M 0 0 
L -3.5 0 
" style="stroke: #000000; stroke-width: 0.8"/>
      </defs>
      <g>
       <use xlink:href="#m000a85019c" x="43.78125" y="273.312" style="stroke: #000000; stroke-width: 0.8"/>
      </g>
     </g>
     <g id="text_11">
      <!-- 0.0 -->
      <g transform="translate(20.878125 277.111219)scale(0.1 -0.1)">
       <use xlink:href="#DejaVuSans-30"/>
       <use xlink:href="#DejaVuSans-2e" x="63.623047"/>
       <use xlink:href="#DejaVuSans-30" x="95.410156"/>
      </g>
     </g>
    </g>
    <g id="ytick_2">
     <g id="line2d_11">
      <g>
       <use xlink:href="#m000a85019c" x="43.78125" y="226.827499" style="stroke: #000000; stroke-width: 0.8"/>
      </g>
     </g>
     <g id="text_12">
      <!-- 0.2 -->
      <g transform="translate(20.878125 230.626717)scale(0.1 -0.1)">
       <use xlink:href="#DejaVuSans-30"/>
       <use xlink:href="#DejaVuSans-2e" x="63.623047"/>
       <use xlink:href="#DejaVuSans-32" x="95.410156"/>
      </g>
     </g>
    </g>
    <g id="ytick_3">
     <g id="line2d_12">
      <g>
       <use xlink:href="#m000a85019c" x="43.78125" y="180.342997" style="stroke: #000000; stroke-width: 0.8"/>
      </g>
     </g>
     <g id="text_13">
      <!-- 0.4 -->
      <g transform="translate(20.878125 184.142216)scale(0.1 -0.1)">
       <use xlink:href="#DejaVuSans-30"/>
       <use xlink:href="#DejaVuSans-2e" x="63.623047"/>
       <use xlink:href="#DejaVuSans-34" x="95.410156"/>
      </g>
     </g>
    </g>
    <g id="ytick_4">
     <g id="line2d_13">
      <g>
       <use xlink:href="#m000a85019c" x="43.78125" y="133.858496" style="stroke: #000000; stroke-width: 0.8"/>
      </g>
     </g>
     <g id="text_14">
      <!-- 0.6 -->
      <g transform="translate(20.878125 137.657715)scale(0.1 -0.1)">
       <use xlink:href="#DejaVuSans-30"/>
       <use xlink:href="#DejaVuSans-2e" x="63.623047"/>
       <use xlink:href="#DejaVuSans-36" x="95.410156"/>
      </g>
     </g>
    </g>
    <g id="ytick_5">
     <g id="line2d_14">
      <g>
       <use xlink:href="#m000a85019c" x="43.78125" y="87.373995" style="stroke: #000000; stroke-width: 0.8"/>
      </g>
     </g>
     <g id="text_15">
      <!-- 0.8 -->
      <g transform="translate(20.878125 91.173214)scale(0.1 -0.1)">
       <use xlink:href="#DejaVuSans-30"/>
       <use xlink:href="#DejaVuSans-2e" x="63.623047"/>
       <use xlink:href="#DejaVuSans-38" x="95.410156"/>
      </g>
     </g>
    </g>
    <g id="ytick_6">
     <g id="line2d_15">
      <g>
       <use xlink:href="#m000a85019c" x="43.78125" y="40.889493" style="stroke: #000000; stroke-width: 0.8"/>
      </g>
     </g>
     <g id="text_16">
      <!-- 1.0 -->
      <g transform="translate(20.878125 44.688712)scale(0.1 -0.1)">
       <use xlink:href="#DejaVuSans-31"/>
       <use xlink:href="#DejaVuSans-2e" x="63.623047"/>
       <use xlink:href="#DejaVuSans-30" x="95.410156"/>
      </g>
     </g>
    </g>
    <g id="text_17">
     <!-- Probability density -->
     <g transform="translate(14.798438 186.606781)rotate(-90)scale(0.1 -0.1)">
      <defs>
       <path id="DejaVuSans-50" d="M 1259 4147 
L 1259 2394 
L 2053 2394 
Q 2494 2394 2734 2622 
Q 2975 2850 2975 3272 
Q 2975 3691 2734 3919 
Q 2494 4147 2053 4147 
L 1259 4147 
z
M 628 4666 
L 2053 4666 
Q 2838 4666 3239 4311 
Q 3641 3956 3641 3272 
Q 3641 2581 3239 2228 
Q 2838 1875 2053 1875 
L 1259 1875 
L 1259 0 
L 628 0 
L 628 4666 
z
" transform="scale(0.015625)"/>
       <path id="DejaVuSans-62" d="M 3116 1747 
Q 3116 2381 2855 2742 
Q 2594 3103 2138 3103 
Q 1681 3103 1420 2742 
Q 1159 2381 1159 1747 
Q 1159 1113 1420 752 
Q 1681 391 2138 391 
Q 2594 391 2855 752 
Q 3116 1113 3116 1747 
z
M 1159 2969 
Q 1341 3281 1617 3432 
Q 1894 3584 2278 3584 
Q 2916 3584 3314 3078 
Q 3713 2572 3713 1747 
Q 3713 922 3314 415 
Q 2916 -91 2278 -91 
Q 1894 -91 1617 61 
Q 1341 213 1159 525 
L 1159 0 
L 581 0 
L 581 4863 
L 1159 4863 
L 1159 2969 
z
" transform="scale(0.015625)"/>
       <path id="DejaVuSans-79" d="M 2059 -325 
Q 1816 -950 1584 -1140 
Q 1353 -1331 966 -1331 
L 506 -1331 
L 506 -850 
L 844 -850 
Q 1081 -850 1212 -737 
Q 1344 -625 1503 -206 
L 1606 56 
L 191 3500 
L 800 3500 
L 1894 763 
L 2988 3500 
L 3597 3500 
L 2059 -325 
z
" transform="scale(0.015625)"/>
       <path id="DejaVuSans-73" d="M 2834 3397 
L 2834 2853 
Q 2591 2978 2328 3040 
Q 2066 3103 1784 3103 
Q 1356 3103 1142 2972 
Q 928 2841 928 2578 
Q 928 2378 1081 2264 
Q 1234 2150 1697 2047 
L 1894 2003 
Q 2506 1872 2764 1633 
Q 3022 1394 3022 966 
Q 3022 478 2636 193 
Q 2250 -91 1575 -91 
Q 1294 -91 989 -36 
Q 684 19 347 128 
L 347 722 
Q 666 556 975 473 
Q 1284 391 1588 391 
Q 1994 391 2212 530 
Q 2431 669 2431 922 
Q 2431 1156 2273 1281 
Q 2116 1406 1581 1522 
L 1381 1569 
Q 847 1681 609 1914 
Q 372 2147 372 2553 
Q 372 3047 722 3315 
Q 1072 3584 1716 3584 
Q 2034 3584 2315 3537 
Q 2597 3491 2834 3397 
z
" transform="scale(0.015625)"/>
      </defs>
      <use xlink:href="#DejaVuSans-50"/>
      <use xlink:href="#DejaVuSans-72" x="58.552734"/>
      <use xlink:href="#DejaVuSans-6f" x="97.416016"/>
      <use xlink:href="#DejaVuSans-62" x="158.597656"/>
      <use xlink:href="#DejaVuSans-61" x="222.074219"/>
      <use xlink:href="#DejaVuSans-62" x="283.353516"/>
      <use xlink:href="#DejaVuSans-69" x="346.830078"/>
      <use xlink:href="#DejaVuSans-6c" x="374.613281"/>
      <use xlink:href="#DejaVuSans-69" x="402.396484"/>
      <use xlink:href="#DejaVuSans-74" x="430.179688"/>
      <use xlink:href="#DejaVuSans-79" x="469.388672"/>
      <use xlink:href="#DejaVuSans-20" x="528.568359"/>
      <use xlink:href="#DejaVuSans-64" x="560.355469"/>
      <use xlink:href="#DejaVuSans-65" x="623.832031"/>
      <use xlink:href="#DejaVuSans-6e" x="685.355469"/>
      <use xlink:href="#DejaVuSans-73" x="748.734375"/>
      <use xlink:href="#DejaVuSans-69" x="800.833984"/>
      <use xlink:href="#DejaVuSans-74" x="828.617188"/>
      <use xlink:href="#DejaVuSans-79" x="867.826172"/>
     </g>
    </g>
   </g>
   <g id="line2d_16">
    <path d="M 60.013977 273.312 
L 79.837728 228.99957 
L 90.237073 206.302455 
L 99.01152 187.670025 
L 106.811029 171.621805 
L 113.960578 157.417383 
L 120.460169 144.983714 
L 126.63478 133.641034 
L 132.484411 123.354524 
L 138.009063 114.080017 
L 143.208736 105.766234 
L 148.408408 97.876534 
L 153.283101 90.882868 
L 157.832814 84.721313 
L 162.382528 78.925249 
L 166.607261 73.880281 
L 170.831995 69.168577 
L 175.056729 64.798012 
L 178.956483 61.072755 
L 182.856238 57.649707 
L 186.755992 54.533739 
L 190.330767 51.950996 
L 193.905542 49.63311 
L 197.480316 47.582854 
L 201.055091 45.802683 
L 204.304886 44.420514 
L 207.554682 43.264685 
L 210.804477 42.33634 
L 214.054272 41.636397 
L 217.304067 41.165548 
L 220.553863 40.924258 
L 223.803658 40.912766 
L 227.053453 41.131083 
L 230.303248 41.578994 
L 233.553044 42.256055 
L 236.802839 43.161597 
L 240.052634 44.294725 
L 243.302429 45.654318 
L 246.552225 47.239031 
L 250.126999 49.240354 
L 253.701774 51.509776 
L 257.276549 54.044585 
L 260.851324 56.841745 
L 264.751078 60.188463 
L 268.650832 63.838649 
L 272.550587 67.787103 
L 276.77532 72.394654 
L 281.000054 77.337951 
L 285.549768 83.027495 
L 290.099481 89.085812 
L 294.974174 95.972736 
L 299.848867 103.254187 
L 305.048539 111.437655 
L 310.248212 120.030851 
L 315.772863 129.585715 
L 321.622495 140.149649 
L 327.797106 151.762532 
L 334.296696 164.45447 
L 341.446246 178.910812 
L 349.245755 195.194041 
L 358.020202 214.039595 
L 368.419546 236.917015 
L 383.693584 271.119309 
L 384.668523 273.312 
L 384.668523 273.312 
" clip-path="url(#p24c60f03f9)" style="fill: none; stroke: #ff7f0e; stroke-width: 1.5; stroke-linecap: square"/>
   </g>
   <g id="patch_203">
    <path d="M 43.78125 273.312 
L 43.78125 7.2 
" style="fill: none; stroke: #000000; stroke-width: 0.8; stroke-linejoin: miter; stroke-linecap: square"/>
   </g>
   <g id="patch_204">
    <path d="M 400.90125 273.312 
L 400.90125 7.2 
" style="fill: none; stroke: #000000; stroke-width: 0.8; stroke-linejoin: miter; stroke-linecap: square"/>
   </g>
   <g id="patch_205">
    <path d="M 43.78125 273.312 
L 400.90125 273.312 
" style="fill: none; stroke: #000000; stroke-width: 0.8; stroke-linejoin: miter; stroke-linecap: square"/>
   </g>
   <g id="patch_206">
    <path d="M 43.78125 7.2 
L 400.90125 7.2 
" style="fill: none; stroke: #000000; stroke-width: 0.8; stroke-linejoin: miter; stroke-linecap: square"/>
   </g>
  </g>
 </g>
 <defs>
  <clipPath id="p24c60f03f9">
   <rect x="43.78125" y="7.2" width="357.12" height="266.112"/>
  </clipPath>
 </defs>
</svg>
