<?xml version="1.0" encoding="utf-8" standalone="no"?>
<!DOCTYPE svg PUBLIC "-//W3C//DTD SVG 1.1//EN"
  "http://www.w3.org/Graphics/SVG/1.1/DTD/svg11.dtd">
<svg xmlns:xlink="http://www.w3.org/1999/xlink" width="408.10125pt" height="310.86825pt" viewBox="0 0 408.10125 310.86825" xmlns="http://www.w3.org/2000/svg" version="1.1">
 <metadata>
  <rdf:RDF xmlns:dc="http://purl.org/dc/elements/1.1/" xmlns:cc="http://creativecommons.org/ns#" xmlns:rdf="http://www.w3.org/1999/02/22-rdf-syntax-ns#">
   <cc:Work>
    <dc:type rdf:resource="http://purl.org/dc/dcmitype/StillImage"/>
    <dc:date>2022-05-08T00:08:41.839832</dc:date>
    <dc:format>image/svg+xml</dc:format>
    <dc:creator>
     <cc:Agent>
      <dc:title>Matplotlib v3.5.2, https://matplotlib.org/</dc:title>
     </cc:Agent>
    </dc:creator>
   </cc:Work>
  </rdf:RDF>
 </metadata>
 <defs>
  <style type="text/css">*{stroke-linejoin: round; stroke-linecap: butt}</style>
 </defs>
 <g id="figure_1">
  <g id="patch_1">
   <path d="M 0 310.86825 
L 408.10125 310.86825 
L 408.10125 0 
L 0 0 
z
" style="fill: #ffffff"/>
  </g>
  <g id="axes_1">
   <g id="patch_2">
    <path d="M 43.78125 273.312 
L 400.90125 273.312 
L 400.90125 7.2 
L 43.78125 7.2 
z
" style="fill: #ffffff"/>
   </g>
   <g id="patch_3">
    <path d="M 61.453942 273.312 
L 63.070003 273.312 
L 63.070003 271.023603 
L 61.453942 271.023603 
z
" clip-path="url(#p7290fa2062)" style="fill: #1f77b4"/>
   </g>
   <g id="patch_4">
    <path d="M 63.070003 273.312 
L 64.686064 273.312 
L 64.686064 270.451503 
L 63.070003 270.451503 
z
" clip-path="url(#p7290fa2062)" style="fill: #1f77b4"/>
   </g>
   <g id="patch_5">
    <path d="M 64.686064 273.312 
L 66.302125 273.312 
L 66.302125 268.163106 
L 64.686064 268.163106 
z
" clip-path="url(#p7290fa2062)" style="fill: #1f77b4"/>
   </g>
   <g id="patch_6">
    <path d="M 66.302125 273.312 
L 67.918186 273.312 
L 67.918186 269.307305 
L 66.302125 269.307305 
z
" clip-path="url(#p7290fa2062)" style="fill: #1f77b4"/>
   </g>
   <g id="patch_7">
    <path d="M 67.918186 273.312 
L 69.534247 273.312 
L 69.534247 265.302609 
L 67.918186 265.302609 
z
" clip-path="url(#p7290fa2062)" style="fill: #1f77b4"/>
   </g>
   <g id="patch_8">
    <path d="M 69.534247 273.312 
L 71.150308 273.312 
L 71.150308 264.158411 
L 69.534247 264.158411 
z
" clip-path="url(#p7290fa2062)" style="fill: #1f77b4"/>
   </g>
   <g id="patch_9">
    <path d="M 71.150308 273.312 
L 72.766369 273.312 
L 72.766369 264.73051 
L 71.150308 264.73051 
z
" clip-path="url(#p7290fa2062)" style="fill: #1f77b4"/>
   </g>
   <g id="patch_10">
    <path d="M 72.766369 273.312 
L 74.38243 273.312 
L 74.38243 260.725815 
L 72.766369 260.725815 
z
" clip-path="url(#p7290fa2062)" style="fill: #1f77b4"/>
   </g>
   <g id="patch_11">
    <path d="M 74.38243 273.312 
L 75.99849 273.312 
L 75.99849 265.302609 
L 74.38243 265.302609 
z
" clip-path="url(#p7290fa2062)" style="fill: #1f77b4"/>
   </g>
   <g id="patch_12">
    <path d="M 75.99849 273.312 
L 77.614551 273.312 
L 77.614551 261.297914 
L 75.99849 261.297914 
z
" clip-path="url(#p7290fa2062)" style="fill: #1f77b4"/>
   </g>
   <g id="patch_13">
    <path d="M 77.614551 273.312 
L 79.230612 273.312 
L 79.230612 261.297914 
L 77.614551 261.297914 
z
" clip-path="url(#p7290fa2062)" style="fill: #1f77b4"/>
   </g>
   <g id="patch_14">
    <path d="M 79.230612 273.312 
L 80.846673 273.312 
L 80.846673 259.581616 
L 79.230612 259.581616 
z
" clip-path="url(#p7290fa2062)" style="fill: #1f77b4"/>
   </g>
   <g id="patch_15">
    <path d="M 80.846673 273.312 
L 82.462734 273.312 
L 82.462734 263.014212 
L 80.846673 263.014212 
z
" clip-path="url(#p7290fa2062)" style="fill: #1f77b4"/>
   </g>
   <g id="patch_16">
    <path d="M 82.462734 273.312 
L 84.078795 273.312 
L 84.078795 252.716424 
L 82.462734 252.716424 
z
" clip-path="url(#p7290fa2062)" style="fill: #1f77b4"/>
   </g>
   <g id="patch_17">
    <path d="M 84.078795 273.312 
L 85.694856 273.312 
L 85.694856 259.581616 
L 84.078795 259.581616 
z
" clip-path="url(#p7290fa2062)" style="fill: #1f77b4"/>
   </g>
   <g id="patch_18">
    <path d="M 85.694856 273.312 
L 87.310917 273.312 
L 87.310917 253.288524 
L 85.694856 253.288524 
z
" clip-path="url(#p7290fa2062)" style="fill: #1f77b4"/>
   </g>
   <g id="patch_19">
    <path d="M 87.310917 273.312 
L 88.926978 273.312 
L 88.926978 256.14902 
L 87.310917 256.14902 
z
" clip-path="url(#p7290fa2062)" style="fill: #1f77b4"/>
   </g>
   <g id="patch_20">
    <path d="M 88.926978 273.312 
L 90.543039 273.312 
L 90.543039 249.855928 
L 88.926978 249.855928 
z
" clip-path="url(#p7290fa2062)" style="fill: #1f77b4"/>
   </g>
   <g id="patch_21">
    <path d="M 90.543039 273.312 
L 92.159099 273.312 
L 92.159099 250.428027 
L 90.543039 250.428027 
z
" clip-path="url(#p7290fa2062)" style="fill: #1f77b4"/>
   </g>
   <g id="patch_22">
    <path d="M 92.159099 273.312 
L 93.77516 273.312 
L 93.77516 250.428027 
L 92.159099 250.428027 
z
" clip-path="url(#p7290fa2062)" style="fill: #1f77b4"/>
   </g>
   <g id="patch_23">
    <path d="M 93.77516 273.312 
L 95.391221 273.312 
L 95.391221 242.418637 
L 93.77516 242.418637 
z
" clip-path="url(#p7290fa2062)" style="fill: #1f77b4"/>
   </g>
   <g id="patch_24">
    <path d="M 95.391221 273.312 
L 97.007282 273.312 
L 97.007282 251.572226 
L 95.391221 251.572226 
z
" clip-path="url(#p7290fa2062)" style="fill: #1f77b4"/>
   </g>
   <g id="patch_25">
    <path d="M 97.007282 273.312 
L 98.623343 273.312 
L 98.623343 252.144325 
L 97.007282 252.144325 
z
" clip-path="url(#p7290fa2062)" style="fill: #1f77b4"/>
   </g>
   <g id="patch_26">
    <path d="M 98.623343 273.312 
L 100.239404 273.312 
L 100.239404 245.851233 
L 98.623343 245.851233 
z
" clip-path="url(#p7290fa2062)" style="fill: #1f77b4"/>
   </g>
   <g id="patch_27">
    <path d="M 100.239404 273.312 
L 101.855465 273.312 
L 101.855465 245.279133 
L 100.239404 245.279133 
z
" clip-path="url(#p7290fa2062)" style="fill: #1f77b4"/>
   </g>
   <g id="patch_28">
    <path d="M 101.855465 273.312 
L 103.471526 273.312 
L 103.471526 242.418637 
L 101.855465 242.418637 
z
" clip-path="url(#p7290fa2062)" style="fill: #1f77b4"/>
   </g>
   <g id="patch_29">
    <path d="M 103.471526 273.312 
L 105.087587 273.312 
L 105.087587 246.423332 
L 103.471526 246.423332 
z
" clip-path="url(#p7290fa2062)" style="fill: #1f77b4"/>
   </g>
   <g id="patch_30">
    <path d="M 105.087587 273.312 
L 106.703647 273.312 
L 106.703647 237.269743 
L 105.087587 237.269743 
z
" clip-path="url(#p7290fa2062)" style="fill: #1f77b4"/>
   </g>
   <g id="patch_31">
    <path d="M 106.703647 273.312 
L 108.319708 273.312 
L 108.319708 245.851233 
L 106.703647 245.851233 
z
" clip-path="url(#p7290fa2062)" style="fill: #1f77b4"/>
   </g>
   <g id="patch_32">
    <path d="M 108.319708 273.312 
L 109.935769 273.312 
L 109.935769 238.413941 
L 108.319708 238.413941 
z
" clip-path="url(#p7290fa2062)" style="fill: #1f77b4"/>
   </g>
   <g id="patch_33">
    <path d="M 109.935769 273.312 
L 111.55183 273.312 
L 111.55183 237.269743 
L 109.935769 237.269743 
z
" clip-path="url(#p7290fa2062)" style="fill: #1f77b4"/>
   </g>
   <g id="patch_34">
    <path d="M 111.55183 273.312 
L 113.167891 273.312 
L 113.167891 237.841842 
L 111.55183 237.841842 
z
" clip-path="url(#p7290fa2062)" style="fill: #1f77b4"/>
   </g>
   <g id="patch_35">
    <path d="M 113.167891 273.312 
L 114.783952 273.312 
L 114.783952 242.990736 
L 113.167891 242.990736 
z
" clip-path="url(#p7290fa2062)" style="fill: #1f77b4"/>
   </g>
   <g id="patch_36">
    <path d="M 114.783952 273.312 
L 116.400013 273.312 
L 116.400013 228.688253 
L 114.783952 228.688253 
z
" clip-path="url(#p7290fa2062)" style="fill: #1f77b4"/>
   </g>
   <g id="patch_37">
    <path d="M 116.400013 273.312 
L 118.016074 273.312 
L 118.016074 241.846537 
L 116.400013 241.846537 
z
" clip-path="url(#p7290fa2062)" style="fill: #1f77b4"/>
   </g>
   <g id="patch_38">
    <path d="M 118.016074 273.312 
L 119.632135 273.312 
L 119.632135 238.413941 
L 118.016074 238.413941 
z
" clip-path="url(#p7290fa2062)" style="fill: #1f77b4"/>
   </g>
   <g id="patch_39">
    <path d="M 119.632135 273.312 
L 121.248196 273.312 
L 121.248196 230.404551 
L 119.632135 230.404551 
z
" clip-path="url(#p7290fa2062)" style="fill: #1f77b4"/>
   </g>
   <g id="patch_40">
    <path d="M 121.248196 273.312 
L 122.864256 273.312 
L 122.864256 226.971955 
L 121.248196 226.971955 
z
" clip-path="url(#p7290fa2062)" style="fill: #1f77b4"/>
   </g>
   <g id="patch_41">
    <path d="M 122.864256 273.312 
L 124.480317 273.312 
L 124.480317 219.534664 
L 122.864256 219.534664 
z
" clip-path="url(#p7290fa2062)" style="fill: #1f77b4"/>
   </g>
   <g id="patch_42">
    <path d="M 124.480317 273.312 
L 126.096378 273.312 
L 126.096378 226.399856 
L 124.480317 226.399856 
z
" clip-path="url(#p7290fa2062)" style="fill: #1f77b4"/>
   </g>
   <g id="patch_43">
    <path d="M 126.096378 273.312 
L 127.712439 273.312 
L 127.712439 221.823061 
L 126.096378 221.823061 
z
" clip-path="url(#p7290fa2062)" style="fill: #1f77b4"/>
   </g>
   <g id="patch_44">
    <path d="M 127.712439 273.312 
L 129.3285 273.312 
L 129.3285 234.409246 
L 127.712439 234.409246 
z
" clip-path="url(#p7290fa2062)" style="fill: #1f77b4"/>
   </g>
   <g id="patch_45">
    <path d="M 129.3285 273.312 
L 130.944561 273.312 
L 130.944561 226.971955 
L 129.3285 226.971955 
z
" clip-path="url(#p7290fa2062)" style="fill: #1f77b4"/>
   </g>
   <g id="patch_46">
    <path d="M 130.944561 273.312 
L 132.560622 273.312 
L 132.560622 221.250962 
L 130.944561 221.250962 
z
" clip-path="url(#p7290fa2062)" style="fill: #1f77b4"/>
   </g>
   <g id="patch_47">
    <path d="M 132.560622 273.312 
L 134.176683 273.312 
L 134.176683 226.399856 
L 132.560622 226.399856 
z
" clip-path="url(#p7290fa2062)" style="fill: #1f77b4"/>
   </g>
   <g id="patch_48">
    <path d="M 134.176683 273.312 
L 135.792744 273.312 
L 135.792744 218.962564 
L 134.176683 218.962564 
z
" clip-path="url(#p7290fa2062)" style="fill: #1f77b4"/>
   </g>
   <g id="patch_49">
    <path d="M 135.792744 273.312 
L 137.408804 273.312 
L 137.408804 216.674167 
L 135.792744 216.674167 
z
" clip-path="url(#p7290fa2062)" style="fill: #1f77b4"/>
   </g>
   <g id="patch_50">
    <path d="M 137.408804 273.312 
L 139.024865 273.312 
L 139.024865 225.827756 
L 137.408804 225.827756 
z
" clip-path="url(#p7290fa2062)" style="fill: #1f77b4"/>
   </g>
   <g id="patch_51">
    <path d="M 139.024865 273.312 
L 140.640926 273.312 
L 140.640926 217.246266 
L 139.024865 217.246266 
z
" clip-path="url(#p7290fa2062)" style="fill: #1f77b4"/>
   </g>
   <g id="patch_52">
    <path d="M 140.640926 273.312 
L 142.256987 273.312 
L 142.256987 214.957869 
L 140.640926 214.957869 
z
" clip-path="url(#p7290fa2062)" style="fill: #1f77b4"/>
   </g>
   <g id="patch_53">
    <path d="M 142.256987 273.312 
L 143.873048 273.312 
L 143.873048 221.823061 
L 142.256987 221.823061 
z
" clip-path="url(#p7290fa2062)" style="fill: #1f77b4"/>
   </g>
   <g id="patch_54">
    <path d="M 143.873048 273.312 
L 145.489109 273.312 
L 145.489109 214.957869 
L 143.873048 214.957869 
z
" clip-path="url(#p7290fa2062)" style="fill: #1f77b4"/>
   </g>
   <g id="patch_55">
    <path d="M 145.489109 273.312 
L 147.10517 273.312 
L 147.10517 206.948479 
L 145.489109 206.948479 
z
" clip-path="url(#p7290fa2062)" style="fill: #1f77b4"/>
   </g>
   <g id="patch_56">
    <path d="M 147.10517 273.312 
L 148.721231 273.312 
L 148.721231 213.81367 
L 147.10517 213.81367 
z
" clip-path="url(#p7290fa2062)" style="fill: #1f77b4"/>
   </g>
   <g id="patch_57">
    <path d="M 148.721231 273.312 
L 150.337292 273.312 
L 150.337292 217.246266 
L 148.721231 217.246266 
z
" clip-path="url(#p7290fa2062)" style="fill: #1f77b4"/>
   </g>
   <g id="patch_58">
    <path d="M 150.337292 273.312 
L 151.953353 273.312 
L 151.953353 214.38577 
L 150.337292 214.38577 
z
" clip-path="url(#p7290fa2062)" style="fill: #1f77b4"/>
   </g>
   <g id="patch_59">
    <path d="M 151.953353 273.312 
L 153.569413 273.312 
L 153.569413 196.078591 
L 151.953353 196.078591 
z
" clip-path="url(#p7290fa2062)" style="fill: #1f77b4"/>
   </g>
   <g id="patch_60">
    <path d="M 153.569413 273.312 
L 155.185474 273.312 
L 155.185474 215.529968 
L 153.569413 215.529968 
z
" clip-path="url(#p7290fa2062)" style="fill: #1f77b4"/>
   </g>
   <g id="patch_61">
    <path d="M 155.185474 273.312 
L 156.801535 273.312 
L 156.801535 212.097372 
L 155.185474 212.097372 
z
" clip-path="url(#p7290fa2062)" style="fill: #1f77b4"/>
   </g>
   <g id="patch_62">
    <path d="M 156.801535 273.312 
L 158.417596 273.312 
L 158.417596 194.934393 
L 156.801535 194.934393 
z
" clip-path="url(#p7290fa2062)" style="fill: #1f77b4"/>
   </g>
   <g id="patch_63">
    <path d="M 158.417596 273.312 
L 160.033657 273.312 
L 160.033657 195.506492 
L 158.417596 195.506492 
z
" clip-path="url(#p7290fa2062)" style="fill: #1f77b4"/>
   </g>
   <g id="patch_64">
    <path d="M 160.033657 273.312 
L 161.649718 273.312 
L 161.649718 201.227485 
L 160.033657 201.227485 
z
" clip-path="url(#p7290fa2062)" style="fill: #1f77b4"/>
   </g>
   <g id="patch_65">
    <path d="M 161.649718 273.312 
L 163.265779 273.312 
L 163.265779 198.366989 
L 161.649718 198.366989 
z
" clip-path="url(#p7290fa2062)" style="fill: #1f77b4"/>
   </g>
   <g id="patch_66">
    <path d="M 163.265779 273.312 
L 164.88184 273.312 
L 164.88184 196.650691 
L 163.265779 196.650691 
z
" clip-path="url(#p7290fa2062)" style="fill: #1f77b4"/>
   </g>
   <g id="patch_67">
    <path d="M 164.88184 273.312 
L 166.497901 273.312 
L 166.497901 209.808975 
L 164.88184 209.808975 
z
" clip-path="url(#p7290fa2062)" style="fill: #1f77b4"/>
   </g>
   <g id="patch_68">
    <path d="M 166.497901 273.312 
L 168.113961 273.312 
L 168.113961 205.232181 
L 166.497901 205.232181 
z
" clip-path="url(#p7290fa2062)" style="fill: #1f77b4"/>
   </g>
   <g id="patch_69">
    <path d="M 168.113961 273.312 
L 169.730022 273.312 
L 169.730022 190.929698 
L 168.113961 190.929698 
z
" clip-path="url(#p7290fa2062)" style="fill: #1f77b4"/>
   </g>
   <g id="patch_70">
    <path d="M 169.730022 273.312 
L 171.346083 273.312 
L 171.346083 189.785499 
L 169.730022 189.785499 
z
" clip-path="url(#p7290fa2062)" style="fill: #1f77b4"/>
   </g>
   <g id="patch_71">
    <path d="M 171.346083 273.312 
L 172.962144 273.312 
L 172.962144 194.362293 
L 171.346083 194.362293 
z
" clip-path="url(#p7290fa2062)" style="fill: #1f77b4"/>
   </g>
   <g id="patch_72">
    <path d="M 172.962144 273.312 
L 174.578205 273.312 
L 174.578205 192.073896 
L 172.962144 192.073896 
z
" clip-path="url(#p7290fa2062)" style="fill: #1f77b4"/>
   </g>
   <g id="patch_73">
    <path d="M 174.578205 273.312 
L 176.194266 273.312 
L 176.194266 186.352903 
L 174.578205 186.352903 
z
" clip-path="url(#p7290fa2062)" style="fill: #1f77b4"/>
   </g>
   <g id="patch_74">
    <path d="M 176.194266 273.312 
L 177.810327 273.312 
L 177.810327 186.352903 
L 176.194266 186.352903 
z
" clip-path="url(#p7290fa2062)" style="fill: #1f77b4"/>
   </g>
   <g id="patch_75">
    <path d="M 177.810327 273.312 
L 179.426388 273.312 
L 179.426388 193.790194 
L 177.810327 193.790194 
z
" clip-path="url(#p7290fa2062)" style="fill: #1f77b4"/>
   </g>
   <g id="patch_76">
    <path d="M 179.426388 273.312 
L 181.042449 273.312 
L 181.042449 187.497102 
L 179.426388 187.497102 
z
" clip-path="url(#p7290fa2062)" style="fill: #1f77b4"/>
   </g>
   <g id="patch_77">
    <path d="M 181.042449 273.312 
L 182.658509 273.312 
L 182.658509 194.362293 
L 181.042449 194.362293 
z
" clip-path="url(#p7290fa2062)" style="fill: #1f77b4"/>
   </g>
   <g id="patch_78">
    <path d="M 182.658509 273.312 
L 184.27457 273.312 
L 184.27457 185.780804 
L 182.658509 185.780804 
z
" clip-path="url(#p7290fa2062)" style="fill: #1f77b4"/>
   </g>
   <g id="patch_79">
    <path d="M 184.27457 273.312 
L 185.890631 273.312 
L 185.890631 174.910916 
L 184.27457 174.910916 
z
" clip-path="url(#p7290fa2062)" style="fill: #1f77b4"/>
   </g>
   <g id="patch_80">
    <path d="M 185.890631 273.312 
L 187.506692 273.312 
L 187.506692 170.334122 
L 185.890631 170.334122 
z
" clip-path="url(#p7290fa2062)" style="fill: #1f77b4"/>
   </g>
   <g id="patch_81">
    <path d="M 187.506692 273.312 
L 189.122753 273.312 
L 189.122753 193.790194 
L 187.506692 193.790194 
z
" clip-path="url(#p7290fa2062)" style="fill: #1f77b4"/>
   </g>
   <g id="patch_82">
    <path d="M 189.122753 273.312 
L 190.738814 273.312 
L 190.738814 185.780804 
L 189.122753 185.780804 
z
" clip-path="url(#p7290fa2062)" style="fill: #1f77b4"/>
   </g>
   <g id="patch_83">
    <path d="M 190.738814 273.312 
L 192.354875 273.312 
L 192.354875 170.906221 
L 190.738814 170.906221 
z
" clip-path="url(#p7290fa2062)" style="fill: #1f77b4"/>
   </g>
   <g id="patch_84">
    <path d="M 192.354875 273.312 
L 193.970936 273.312 
L 193.970936 177.199314 
L 192.354875 177.199314 
z
" clip-path="url(#p7290fa2062)" style="fill: #1f77b4"/>
   </g>
   <g id="patch_85">
    <path d="M 193.970936 273.312 
L 195.586997 273.312 
L 195.586997 183.492406 
L 193.970936 183.492406 
z
" clip-path="url(#p7290fa2062)" style="fill: #1f77b4"/>
   </g>
   <g id="patch_86">
    <path d="M 195.586997 273.312 
L 197.203058 273.312 
L 197.203058 170.334122 
L 195.586997 170.334122 
z
" clip-path="url(#p7290fa2062)" style="fill: #1f77b4"/>
   </g>
   <g id="patch_87">
    <path d="M 197.203058 273.312 
L 198.819118 273.312 
L 198.819118 177.771413 
L 197.203058 177.771413 
z
" clip-path="url(#p7290fa2062)" style="fill: #1f77b4"/>
   </g>
   <g id="patch_88">
    <path d="M 198.819118 273.312 
L 200.435179 273.312 
L 200.435179 172.622519 
L 198.819118 172.622519 
z
" clip-path="url(#p7290fa2062)" style="fill: #1f77b4"/>
   </g>
   <g id="patch_89">
    <path d="M 200.435179 273.312 
L 202.05124 273.312 
L 202.05124 172.622519 
L 200.435179 172.622519 
z
" clip-path="url(#p7290fa2062)" style="fill: #1f77b4"/>
   </g>
   <g id="patch_90">
    <path d="M 202.05124 273.312 
L 203.667301 273.312 
L 203.667301 162.896831 
L 202.05124 162.896831 
z
" clip-path="url(#p7290fa2062)" style="fill: #1f77b4"/>
   </g>
   <g id="patch_91">
    <path d="M 203.667301 273.312 
L 205.283362 273.312 
L 205.283362 170.334122 
L 203.667301 170.334122 
z
" clip-path="url(#p7290fa2062)" style="fill: #1f77b4"/>
   </g>
   <g id="patch_92">
    <path d="M 205.283362 273.312 
L 206.899423 273.312 
L 206.899423 169.189923 
L 205.283362 169.189923 
z
" clip-path="url(#p7290fa2062)" style="fill: #1f77b4"/>
   </g>
   <g id="patch_93">
    <path d="M 206.899423 273.312 
L 208.515484 273.312 
L 208.515484 175.483016 
L 206.899423 175.483016 
z
" clip-path="url(#p7290fa2062)" style="fill: #1f77b4"/>
   </g>
   <g id="patch_94">
    <path d="M 208.515484 273.312 
L 210.131545 273.312 
L 210.131545 158.320036 
L 208.515484 158.320036 
z
" clip-path="url(#p7290fa2062)" style="fill: #1f77b4"/>
   </g>
   <g id="patch_95">
    <path d="M 210.131545 273.312 
L 211.747606 273.312 
L 211.747606 157.747937 
L 210.131545 157.747937 
z
" clip-path="url(#p7290fa2062)" style="fill: #1f77b4"/>
   </g>
   <g id="patch_96">
    <path d="M 211.747606 273.312 
L 213.363666 273.312 
L 213.363666 165.757327 
L 211.747606 165.757327 
z
" clip-path="url(#p7290fa2062)" style="fill: #1f77b4"/>
   </g>
   <g id="patch_97">
    <path d="M 213.363666 273.312 
L 214.979727 273.312 
L 214.979727 168.045725 
L 213.363666 168.045725 
z
" clip-path="url(#p7290fa2062)" style="fill: #1f77b4"/>
   </g>
   <g id="patch_98">
    <path d="M 214.979727 273.312 
L 216.595788 273.312 
L 216.595788 169.189923 
L 214.979727 169.189923 
z
" clip-path="url(#p7290fa2062)" style="fill: #1f77b4"/>
   </g>
   <g id="patch_99">
    <path d="M 216.595788 273.312 
L 218.211849 273.312 
L 218.211849 169.762023 
L 216.595788 169.762023 
z
" clip-path="url(#p7290fa2062)" style="fill: #1f77b4"/>
   </g>
   <g id="patch_100">
    <path d="M 218.211849 273.312 
L 219.82791 273.312 
L 219.82791 173.194619 
L 218.211849 173.194619 
z
" clip-path="url(#p7290fa2062)" style="fill: #1f77b4"/>
   </g>
   <g id="patch_101">
    <path d="M 219.82791 273.312 
L 221.443971 273.312 
L 221.443971 157.175837 
L 219.82791 157.175837 
z
" clip-path="url(#p7290fa2062)" style="fill: #1f77b4"/>
   </g>
   <g id="patch_102">
    <path d="M 221.443971 273.312 
L 223.060032 273.312 
L 223.060032 153.743242 
L 221.443971 153.743242 
z
" clip-path="url(#p7290fa2062)" style="fill: #1f77b4"/>
   </g>
   <g id="patch_103">
    <path d="M 223.060032 273.312 
L 224.676093 273.312 
L 224.676093 157.747937 
L 223.060032 157.747937 
z
" clip-path="url(#p7290fa2062)" style="fill: #1f77b4"/>
   </g>
   <g id="patch_104">
    <path d="M 224.676093 273.312 
L 226.292154 273.312 
L 226.292154 153.743242 
L 224.676093 153.743242 
z
" clip-path="url(#p7290fa2062)" style="fill: #1f77b4"/>
   </g>
   <g id="patch_105">
    <path d="M 226.292154 273.312 
L 227.908215 273.312 
L 227.908215 158.892135 
L 226.292154 158.892135 
z
" clip-path="url(#p7290fa2062)" style="fill: #1f77b4"/>
   </g>
   <g id="patch_106">
    <path d="M 227.908215 273.312 
L 229.524275 273.312 
L 229.524275 155.45954 
L 227.908215 155.45954 
z
" clip-path="url(#p7290fa2062)" style="fill: #1f77b4"/>
   </g>
   <g id="patch_107">
    <path d="M 229.524275 273.312 
L 231.140336 273.312 
L 231.140336 145.733851 
L 229.524275 145.733851 
z
" clip-path="url(#p7290fa2062)" style="fill: #1f77b4"/>
   </g>
   <g id="patch_108">
    <path d="M 231.140336 273.312 
L 232.756397 273.312 
L 232.756397 151.454844 
L 231.140336 151.454844 
z
" clip-path="url(#p7290fa2062)" style="fill: #1f77b4"/>
   </g>
   <g id="patch_109">
    <path d="M 232.756397 273.312 
L 234.372458 273.312 
L 234.372458 157.175837 
L 232.756397 157.175837 
z
" clip-path="url(#p7290fa2062)" style="fill: #1f77b4"/>
   </g>
   <g id="patch_110">
    <path d="M 234.372458 273.312 
L 235.988519 273.312 
L 235.988519 159.464235 
L 234.372458 159.464235 
z
" clip-path="url(#p7290fa2062)" style="fill: #1f77b4"/>
   </g>
   <g id="patch_111">
    <path d="M 235.988519 273.312 
L 237.60458 273.312 
L 237.60458 138.868659 
L 235.988519 138.868659 
z
" clip-path="url(#p7290fa2062)" style="fill: #1f77b4"/>
   </g>
   <g id="patch_112">
    <path d="M 237.60458 273.312 
L 239.220641 273.312 
L 239.220641 150.882745 
L 237.60458 150.882745 
z
" clip-path="url(#p7290fa2062)" style="fill: #1f77b4"/>
   </g>
   <g id="patch_113">
    <path d="M 239.220641 273.312 
L 240.836702 273.312 
L 240.836702 162.324731 
L 239.220641 162.324731 
z
" clip-path="url(#p7290fa2062)" style="fill: #1f77b4"/>
   </g>
   <g id="patch_114">
    <path d="M 240.836702 273.312 
L 242.452763 273.312 
L 242.452763 137.152361 
L 240.836702 137.152361 
z
" clip-path="url(#p7290fa2062)" style="fill: #1f77b4"/>
   </g>
   <g id="patch_115">
    <path d="M 242.452763 273.312 
L 244.068823 273.312 
L 244.068823 144.589652 
L 242.452763 144.589652 
z
" clip-path="url(#p7290fa2062)" style="fill: #1f77b4"/>
   </g>
   <g id="patch_116">
    <path d="M 244.068823 273.312 
L 245.684884 273.312 
L 245.684884 141.729156 
L 244.068823 141.729156 
z
" clip-path="url(#p7290fa2062)" style="fill: #1f77b4"/>
   </g>
   <g id="patch_117">
    <path d="M 245.684884 273.312 
L 247.300945 273.312 
L 247.300945 153.743242 
L 245.684884 153.743242 
z
" clip-path="url(#p7290fa2062)" style="fill: #1f77b4"/>
   </g>
   <g id="patch_118">
    <path d="M 247.300945 273.312 
L 248.917006 273.312 
L 248.917006 125.710375 
L 247.300945 125.710375 
z
" clip-path="url(#p7290fa2062)" style="fill: #1f77b4"/>
   </g>
   <g id="patch_119">
    <path d="M 248.917006 273.312 
L 250.533067 273.312 
L 250.533067 129.142971 
L 248.917006 129.142971 
z
" clip-path="url(#p7290fa2062)" style="fill: #1f77b4"/>
   </g>
   <g id="patch_120">
    <path d="M 250.533067 273.312 
L 252.149128 273.312 
L 252.149128 151.454844 
L 250.533067 151.454844 
z
" clip-path="url(#p7290fa2062)" style="fill: #1f77b4"/>
   </g>
   <g id="patch_121">
    <path d="M 252.149128 273.312 
L 253.765189 273.312 
L 253.765189 144.017553 
L 252.149128 144.017553 
z
" clip-path="url(#p7290fa2062)" style="fill: #1f77b4"/>
   </g>
   <g id="patch_122">
    <path d="M 253.765189 273.312 
L 255.38125 273.312 
L 255.38125 137.72446 
L 253.765189 137.72446 
z
" clip-path="url(#p7290fa2062)" style="fill: #1f77b4"/>
   </g>
   <g id="patch_123">
    <path d="M 255.38125 273.312 
L 256.997311 273.312 
L 256.997311 133.719765 
L 255.38125 133.719765 
z
" clip-path="url(#p7290fa2062)" style="fill: #1f77b4"/>
   </g>
   <g id="patch_124">
    <path d="M 256.997311 273.312 
L 258.613372 273.312 
L 258.613372 119.989381 
L 256.997311 119.989381 
z
" clip-path="url(#p7290fa2062)" style="fill: #1f77b4"/>
   </g>
   <g id="patch_125">
    <path d="M 258.613372 273.312 
L 260.229432 273.312 
L 260.229432 125.138275 
L 258.613372 125.138275 
z
" clip-path="url(#p7290fa2062)" style="fill: #1f77b4"/>
   </g>
   <g id="patch_126">
    <path d="M 260.229432 273.312 
L 261.845493 273.312 
L 261.845493 137.152361 
L 260.229432 137.152361 
z
" clip-path="url(#p7290fa2062)" style="fill: #1f77b4"/>
   </g>
   <g id="patch_127">
    <path d="M 261.845493 273.312 
L 263.461554 273.312 
L 263.461554 135.436063 
L 261.845493 135.436063 
z
" clip-path="url(#p7290fa2062)" style="fill: #1f77b4"/>
   </g>
   <g id="patch_128">
    <path d="M 263.461554 273.312 
L 265.077615 273.312 
L 265.077615 133.147666 
L 263.461554 133.147666 
z
" clip-path="url(#p7290fa2062)" style="fill: #1f77b4"/>
   </g>
   <g id="patch_129">
    <path d="M 265.077615 273.312 
L 266.693676 273.312 
L 266.693676 123.421977 
L 265.077615 123.421977 
z
" clip-path="url(#p7290fa2062)" style="fill: #1f77b4"/>
   </g>
   <g id="patch_130">
    <path d="M 266.693676 273.312 
L 268.309737 273.312 
L 268.309737 125.138275 
L 266.693676 125.138275 
z
" clip-path="url(#p7290fa2062)" style="fill: #1f77b4"/>
   </g>
   <g id="patch_131">
    <path d="M 268.309737 273.312 
L 269.925798 273.312 
L 269.925798 138.29656 
L 268.309737 138.29656 
z
" clip-path="url(#p7290fa2062)" style="fill: #1f77b4"/>
   </g>
   <g id="patch_132">
    <path d="M 269.925798 273.312 
L 271.541859 273.312 
L 271.541859 133.147666 
L 269.925798 133.147666 
z
" clip-path="url(#p7290fa2062)" style="fill: #1f77b4"/>
   </g>
   <g id="patch_133">
    <path d="M 271.541859 273.312 
L 273.15792 273.312 
L 273.15792 122.849878 
L 271.541859 122.849878 
z
" clip-path="url(#p7290fa2062)" style="fill: #1f77b4"/>
   </g>
   <g id="patch_134">
    <path d="M 273.15792 273.312 
L 274.77398 273.312 
L 274.77398 112.55209 
L 273.15792 112.55209 
z
" clip-path="url(#p7290fa2062)" style="fill: #1f77b4"/>
   </g>
   <g id="patch_135">
    <path d="M 274.77398 273.312 
L 276.390041 273.312 
L 276.390041 129.71507 
L 274.77398 129.71507 
z
" clip-path="url(#p7290fa2062)" style="fill: #1f77b4"/>
   </g>
   <g id="patch_136">
    <path d="M 276.390041 273.312 
L 278.006102 273.312 
L 278.006102 131.431368 
L 276.390041 131.431368 
z
" clip-path="url(#p7290fa2062)" style="fill: #1f77b4"/>
   </g>
   <g id="patch_137">
    <path d="M 278.006102 273.312 
L 279.622163 273.312 
L 279.622163 109.691594 
L 278.006102 109.691594 
z
" clip-path="url(#p7290fa2062)" style="fill: #1f77b4"/>
   </g>
   <g id="patch_138">
    <path d="M 279.622163 273.312 
L 281.238224 273.312 
L 281.238224 140.584957 
L 279.622163 140.584957 
z
" clip-path="url(#p7290fa2062)" style="fill: #1f77b4"/>
   </g>
   <g id="patch_139">
    <path d="M 281.238224 273.312 
L 282.854285 273.312 
L 282.854285 127.426673 
L 281.238224 127.426673 
z
" clip-path="url(#p7290fa2062)" style="fill: #1f77b4"/>
   </g>
   <g id="patch_140">
    <path d="M 282.854285 273.312 
L 284.470346 273.312 
L 284.470346 106.831097 
L 282.854285 106.831097 
z
" clip-path="url(#p7290fa2062)" style="fill: #1f77b4"/>
   </g>
   <g id="patch_141">
    <path d="M 284.470346 273.312 
L 286.086407 273.312 
L 286.086407 115.984686 
L 284.470346 115.984686 
z
" clip-path="url(#p7290fa2062)" style="fill: #1f77b4"/>
   </g>
   <g id="patch_142">
    <path d="M 286.086407 273.312 
L 287.702468 273.312 
L 287.702468 107.403196 
L 286.086407 107.403196 
z
" clip-path="url(#p7290fa2062)" style="fill: #1f77b4"/>
   </g>
   <g id="patch_143">
    <path d="M 287.702468 273.312 
L 289.318529 273.312 
L 289.318529 109.119494 
L 287.702468 109.119494 
z
" clip-path="url(#p7290fa2062)" style="fill: #1f77b4"/>
   </g>
   <g id="patch_144">
    <path d="M 289.318529 273.312 
L 290.934589 273.312 
L 290.934589 106.258998 
L 289.318529 106.258998 
z
" clip-path="url(#p7290fa2062)" style="fill: #1f77b4"/>
   </g>
   <g id="patch_145">
    <path d="M 290.934589 273.312 
L 292.55065 273.312 
L 292.55065 123.421977 
L 290.934589 123.421977 
z
" clip-path="url(#p7290fa2062)" style="fill: #1f77b4"/>
   </g>
   <g id="patch_146">
    <path d="M 292.55065 273.312 
L 294.166711 273.312 
L 294.166711 121.705679 
L 292.55065 121.705679 
z
" clip-path="url(#p7290fa2062)" style="fill: #1f77b4"/>
   </g>
   <g id="patch_147">
    <path d="M 294.166711 273.312 
L 295.782772 273.312 
L 295.782772 107.403196 
L 294.166711 107.403196 
z
" clip-path="url(#p7290fa2062)" style="fill: #1f77b4"/>
   </g>
   <g id="patch_148">
    <path d="M 295.782772 273.312 
L 297.398833 273.312 
L 297.398833 117.700984 
L 295.782772 117.700984 
z
" clip-path="url(#p7290fa2062)" style="fill: #1f77b4"/>
   </g>
   <g id="patch_149">
    <path d="M 297.398833 273.312 
L 299.014894 273.312 
L 299.014894 115.412587 
L 297.398833 115.412587 
z
" clip-path="url(#p7290fa2062)" style="fill: #1f77b4"/>
   </g>
   <g id="patch_150">
    <path d="M 299.014894 273.312 
L 300.630955 273.312 
L 300.630955 125.138275 
L 299.014894 125.138275 
z
" clip-path="url(#p7290fa2062)" style="fill: #1f77b4"/>
   </g>
   <g id="patch_151">
    <path d="M 300.630955 273.312 
L 302.247016 273.312 
L 302.247016 92.528614 
L 300.630955 92.528614 
z
" clip-path="url(#p7290fa2062)" style="fill: #1f77b4"/>
   </g>
   <g id="patch_152">
    <path d="M 302.247016 273.312 
L 303.863077 273.312 
L 303.863077 107.403196 
L 302.247016 107.403196 
z
" clip-path="url(#p7290fa2062)" style="fill: #1f77b4"/>
   </g>
   <g id="patch_153">
    <path d="M 303.863077 273.312 
L 305.479137 273.312 
L 305.479137 93.672813 
L 303.863077 93.672813 
z
" clip-path="url(#p7290fa2062)" style="fill: #1f77b4"/>
   </g>
   <g id="patch_154">
    <path d="M 305.479137 273.312 
L 307.095198 273.312 
L 307.095198 130.859269 
L 305.479137 130.859269 
z
" clip-path="url(#p7290fa2062)" style="fill: #1f77b4"/>
   </g>
   <g id="patch_155">
    <path d="M 307.095198 273.312 
L 308.711259 273.312 
L 308.711259 113.696289 
L 307.095198 113.696289 
z
" clip-path="url(#p7290fa2062)" style="fill: #1f77b4"/>
   </g>
   <g id="patch_156">
    <path d="M 308.711259 273.312 
L 310.32732 273.312 
L 310.32732 98.821707 
L 308.711259 98.821707 
z
" clip-path="url(#p7290fa2062)" style="fill: #1f77b4"/>
   </g>
   <g id="patch_157">
    <path d="M 310.32732 273.312 
L 311.943381 273.312 
L 311.943381 90.812316 
L 310.32732 90.812316 
z
" clip-path="url(#p7290fa2062)" style="fill: #1f77b4"/>
   </g>
   <g id="patch_158">
    <path d="M 311.943381 273.312 
L 313.559442 273.312 
L 313.559442 87.37972 
L 311.943381 87.37972 
z
" clip-path="url(#p7290fa2062)" style="fill: #1f77b4"/>
   </g>
   <g id="patch_159">
    <path d="M 313.559442 273.312 
L 315.175503 273.312 
L 315.175503 93.100713 
L 313.559442 93.100713 
z
" clip-path="url(#p7290fa2062)" style="fill: #1f77b4"/>
   </g>
   <g id="patch_160">
    <path d="M 315.175503 273.312 
L 316.791564 273.312 
L 316.791564 90.240217 
L 315.175503 90.240217 
z
" clip-path="url(#p7290fa2062)" style="fill: #1f77b4"/>
   </g>
   <g id="patch_161">
    <path d="M 316.791564 273.312 
L 318.407625 273.312 
L 318.407625 67.356244 
L 316.791564 67.356244 
z
" clip-path="url(#p7290fa2062)" style="fill: #1f77b4"/>
   </g>
   <g id="patch_162">
    <path d="M 318.407625 273.312 
L 320.023686 273.312 
L 320.023686 95.389111 
L 318.407625 95.389111 
z
" clip-path="url(#p7290fa2062)" style="fill: #1f77b4"/>
   </g>
   <g id="patch_163">
    <path d="M 320.023686 273.312 
L 321.639746 273.312 
L 321.639746 113.12419 
L 320.023686 113.12419 
z
" clip-path="url(#p7290fa2062)" style="fill: #1f77b4"/>
   </g>
   <g id="patch_164">
    <path d="M 321.639746 273.312 
L 323.255807 273.312 
L 323.255807 79.37033 
L 321.639746 79.37033 
z
" clip-path="url(#p7290fa2062)" style="fill: #1f77b4"/>
   </g>
   <g id="patch_165">
    <path d="M 323.255807 273.312 
L 324.871868 273.312 
L 324.871868 84.519223 
L 323.255807 84.519223 
z
" clip-path="url(#p7290fa2062)" style="fill: #1f77b4"/>
   </g>
   <g id="patch_166">
    <path d="M 324.871868 273.312 
L 326.487929 273.312 
L 326.487929 78.226131 
L 324.871868 78.226131 
z
" clip-path="url(#p7290fa2062)" style="fill: #1f77b4"/>
   </g>
   <g id="patch_167">
    <path d="M 326.487929 273.312 
L 328.10399 273.312 
L 328.10399 79.942429 
L 326.487929 79.942429 
z
" clip-path="url(#p7290fa2062)" style="fill: #1f77b4"/>
   </g>
   <g id="patch_168">
    <path d="M 328.10399 273.312 
L 329.720051 273.312 
L 329.720051 83.947124 
L 328.10399 83.947124 
z
" clip-path="url(#p7290fa2062)" style="fill: #1f77b4"/>
   </g>
   <g id="patch_169">
    <path d="M 329.720051 273.312 
L 331.336112 273.312 
L 331.336112 75.937734 
L 329.720051 75.937734 
z
" clip-path="url(#p7290fa2062)" style="fill: #1f77b4"/>
   </g>
   <g id="patch_170">
    <path d="M 331.336112 273.312 
L 332.952173 273.312 
L 332.952173 79.942429 
L 331.336112 79.942429 
z
" clip-path="url(#p7290fa2062)" style="fill: #1f77b4"/>
   </g>
   <g id="patch_171">
    <path d="M 332.952173 273.312 
L 334.568234 273.312 
L 334.568234 73.077237 
L 332.952173 73.077237 
z
" clip-path="url(#p7290fa2062)" style="fill: #1f77b4"/>
   </g>
   <g id="patch_172">
    <path d="M 334.568234 273.312 
L 336.184294 273.312 
L 336.184294 59.918953 
L 334.568234 59.918953 
z
" clip-path="url(#p7290fa2062)" style="fill: #1f77b4"/>
   </g>
   <g id="patch_173">
    <path d="M 336.184294 273.312 
L 337.800355 273.312 
L 337.800355 81.086628 
L 336.184294 81.086628 
z
" clip-path="url(#p7290fa2062)" style="fill: #1f77b4"/>
   </g>
   <g id="patch_174">
    <path d="M 337.800355 273.312 
L 339.416416 273.312 
L 339.416416 69.072542 
L 337.800355 69.072542 
z
" clip-path="url(#p7290fa2062)" style="fill: #1f77b4"/>
   </g>
   <g id="patch_175">
    <path d="M 339.416416 273.312 
L 341.032477 273.312 
L 341.032477 85.091323 
L 339.416416 85.091323 
z
" clip-path="url(#p7290fa2062)" style="fill: #1f77b4"/>
   </g>
   <g id="patch_176">
    <path d="M 341.032477 273.312 
L 342.648538 273.312 
L 342.648538 78.79823 
L 341.032477 78.79823 
z
" clip-path="url(#p7290fa2062)" style="fill: #1f77b4"/>
   </g>
   <g id="patch_177">
    <path d="M 342.648538 273.312 
L 344.264599 273.312 
L 344.264599 88.523919 
L 342.648538 88.523919 
z
" clip-path="url(#p7290fa2062)" style="fill: #1f77b4"/>
   </g>
   <g id="patch_178">
    <path d="M 344.264599 273.312 
L 345.88066 273.312 
L 345.88066 86.235521 
L 344.264599 86.235521 
z
" clip-path="url(#p7290fa2062)" style="fill: #1f77b4"/>
   </g>
   <g id="patch_179">
    <path d="M 345.88066 273.312 
L 347.496721 273.312 
L 347.496721 87.951819 
L 345.88066 87.951819 
z
" clip-path="url(#p7290fa2062)" style="fill: #1f77b4"/>
   </g>
   <g id="patch_180">
    <path d="M 347.496721 273.312 
L 349.112782 273.312 
L 349.112782 48.476966 
L 347.496721 48.476966 
z
" clip-path="url(#p7290fa2062)" style="fill: #1f77b4"/>
   </g>
   <g id="patch_181">
    <path d="M 349.112782 273.312 
L 350.728843 273.312 
L 350.728843 82.230826 
L 349.112782 82.230826 
z
" clip-path="url(#p7290fa2062)" style="fill: #1f77b4"/>
   </g>
   <g id="patch_182">
    <path d="M 350.728843 273.312 
L 352.344903 273.312 
L 352.344903 69.072542 
L 350.728843 69.072542 
z
" clip-path="url(#p7290fa2062)" style="fill: #1f77b4"/>
   </g>
   <g id="patch_183">
    <path d="M 352.344903 273.312 
L 353.960964 273.312 
L 353.960964 54.197959 
L 352.344903 54.197959 
z
" clip-path="url(#p7290fa2062)" style="fill: #1f77b4"/>
   </g>
   <g id="patch_184">
    <path d="M 353.960964 273.312 
L 355.577025 273.312 
L 355.577025 68.500442 
L 353.960964 68.500442 
z
" clip-path="url(#p7290fa2062)" style="fill: #1f77b4"/>
   </g>
   <g id="patch_185">
    <path d="M 355.577025 273.312 
L 357.193086 273.312 
L 357.193086 67.356244 
L 355.577025 67.356244 
z
" clip-path="url(#p7290fa2062)" style="fill: #1f77b4"/>
   </g>
   <g id="patch_186">
    <path d="M 357.193086 273.312 
L 358.809147 273.312 
L 358.809147 83.375025 
L 357.193086 83.375025 
z
" clip-path="url(#p7290fa2062)" style="fill: #1f77b4"/>
   </g>
   <g id="patch_187">
    <path d="M 358.809147 273.312 
L 360.425208 273.312 
L 360.425208 62.20735 
L 358.809147 62.20735 
z
" clip-path="url(#p7290fa2062)" style="fill: #1f77b4"/>
   </g>
   <g id="patch_188">
    <path d="M 360.425208 273.312 
L 362.041269 273.312 
L 362.041269 49.049065 
L 360.425208 49.049065 
z
" clip-path="url(#p7290fa2062)" style="fill: #1f77b4"/>
   </g>
   <g id="patch_189">
    <path d="M 362.041269 273.312 
L 363.65733 273.312 
L 363.65733 79.37033 
L 362.041269 79.37033 
z
" clip-path="url(#p7290fa2062)" style="fill: #1f77b4"/>
   </g>
   <g id="patch_190">
    <path d="M 363.65733 273.312 
L 365.273391 273.312 
L 365.273391 66.212045 
L 363.65733 66.212045 
z
" clip-path="url(#p7290fa2062)" style="fill: #1f77b4"/>
   </g>
   <g id="patch_191">
    <path d="M 365.273391 273.312 
L 366.889451 273.312 
L 366.889451 51.337463 
L 365.273391 51.337463 
z
" clip-path="url(#p7290fa2062)" style="fill: #1f77b4"/>
   </g>
   <g id="patch_192">
    <path d="M 366.889451 273.312 
L 368.505512 273.312 
L 368.505512 41.039675 
L 366.889451 41.039675 
z
" clip-path="url(#p7290fa2062)" style="fill: #1f77b4"/>
   </g>
   <g id="patch_193">
    <path d="M 368.505512 273.312 
L 370.121573 273.312 
L 370.121573 54.770059 
L 368.505512 54.770059 
z
" clip-path="url(#p7290fa2062)" style="fill: #1f77b4"/>
   </g>
   <g id="patch_194">
    <path d="M 370.121573 273.312 
L 371.737634 273.312 
L 371.737634 62.20735 
L 370.121573 62.20735 
z
" clip-path="url(#p7290fa2062)" style="fill: #1f77b4"/>
   </g>
   <g id="patch_195">
    <path d="M 371.737634 273.312 
L 373.353695 273.312 
L 373.353695 51.909562 
L 371.737634 51.909562 
z
" clip-path="url(#p7290fa2062)" style="fill: #1f77b4"/>
   </g>
   <g id="patch_196">
    <path d="M 373.353695 273.312 
L 374.969756 273.312 
L 374.969756 62.20735 
L 373.353695 62.20735 
z
" clip-path="url(#p7290fa2062)" style="fill: #1f77b4"/>
   </g>
   <g id="patch_197">
    <path d="M 374.969756 273.312 
L 376.585817 273.312 
L 376.585817 50.193264 
L 374.969756 50.193264 
z
" clip-path="url(#p7290fa2062)" style="fill: #1f77b4"/>
   </g>
   <g id="patch_198">
    <path d="M 376.585817 273.312 
L 378.201878 273.312 
L 378.201878 34.174483 
L 376.585817 34.174483 
z
" clip-path="url(#p7290fa2062)" style="fill: #1f77b4"/>
   </g>
   <g id="patch_199">
    <path d="M 378.201878 273.312 
L 379.817939 273.312 
L 379.817939 43.900172 
L 378.201878 43.900172 
z
" clip-path="url(#p7290fa2062)" style="fill: #1f77b4"/>
   </g>
   <g id="patch_200">
    <path d="M 379.817939 273.312 
L 381.434 273.312 
L 381.434 53.053761 
L 379.817939 53.053761 
z
" clip-path="url(#p7290fa2062)" style="fill: #1f77b4"/>
   </g>
   <g id="patch_201">
    <path d="M 381.434 273.312 
L 383.05006 273.312 
L 383.05006 19.872 
L 381.434 19.872 
z
" clip-path="url(#p7290fa2062)" style="fill: #1f77b4"/>
   </g>
   <g id="patch_202">
    <path d="M 383.05006 273.312 
L 384.666121 273.312 
L 384.666121 49.621165 
L 383.05006 49.621165 
z
" clip-path="url(#p7290fa2062)" style="fill: #1f77b4"/>
   </g>
   <g id="matplotlib.axis_1">
    <g id="xtick_1">
     <g id="line2d_1">
      <defs>
       <path id="m7b66347b53" d="M 0 0 
L 0 3.5 
" style="stroke: #000000; stroke-width: 0.8"/>
      </defs>
      <g>
       <use xlink:href="#m7b66347b53" x="60.013977" y="273.312" style="stroke: #000000; stroke-width: 0.8"/>
      </g>
     </g>
     <g id="text_1">
      <!-- 0.0 -->
      <g transform="translate(52.062415 287.910437)scale(0.1 -0.1)">
       <defs>
        <path id="DejaVuSans-30" d="M 2034 4250 
Q 1547 4250 1301 3770 
Q 1056 3291 1056 2328 
Q 1056 1369 1301 889 
Q 1547 409 2034 409 
Q 2525 409 2770 889 
Q 3016 1369 3016 2328 
Q 3016 3291 2770 3770 
Q 2525 4250 2034 4250 
z
M 2034 4750 
Q 2819 4750 3233 4129 
Q 3647 3509 3647 2328 
Q 3647 1150 3233 529 
Q 2819 -91 2034 -91 
Q 1250 -91 836 529 
Q 422 1150 422 2328 
Q 422 3509 836 4129 
Q 1250 4750 2034 4750 
z
" transform="scale(0.015625)"/>
        <path id="DejaVuSans-2e" d="M 684 794 
L 1344 794 
L 1344 0 
L 684 0 
L 684 794 
z
" transform="scale(0.015625)"/>
       </defs>
       <use xlink:href="#DejaVuSans-30"/>
       <use xlink:href="#DejaVuSans-2e" x="63.623047"/>
       <use xlink:href="#DejaVuSans-30" x="95.410156"/>
      </g>
     </g>
    </g>
    <g id="xtick_2">
     <g id="line2d_2">
      <g>
       <use xlink:href="#m7b66347b53" x="124.944886" y="273.312" style="stroke: #000000; stroke-width: 0.8"/>
      </g>
     </g>
     <g id="text_2">
      <!-- 0.2 -->
      <g transform="translate(116.993324 287.910437)scale(0.1 -0.1)">
       <defs>
        <path id="DejaVuSans-32" d="M 1228 531 
L 3431 531 
L 3431 0 
L 469 0 
L 469 531 
Q 828 903 1448 1529 
Q 2069 2156 2228 2338 
Q 2531 2678 2651 2914 
Q 2772 3150 2772 3378 
Q 2772 3750 2511 3984 
Q 2250 4219 1831 4219 
Q 1534 4219 1204 4116 
Q 875 4013 500 3803 
L 500 4441 
Q 881 4594 1212 4672 
Q 1544 4750 1819 4750 
Q 2544 4750 2975 4387 
Q 3406 4025 3406 3419 
Q 3406 3131 3298 2873 
Q 3191 2616 2906 2266 
Q 2828 2175 2409 1742 
Q 1991 1309 1228 531 
z
" transform="scale(0.015625)"/>
       </defs>
       <use xlink:href="#DejaVuSans-30"/>
       <use xlink:href="#DejaVuSans-2e" x="63.623047"/>
       <use xlink:href="#DejaVuSans-32" x="95.410156"/>
      </g>
     </g>
    </g>
    <g id="xtick_3">
     <g id="line2d_3">
      <g>
       <use xlink:href="#m7b66347b53" x="189.875795" y="273.312" style="stroke: #000000; stroke-width: 0.8"/>
      </g>
     </g>
     <g id="text_3">
      <!-- 0.4 -->
      <g transform="translate(181.924233 287.910437)scale(0.1 -0.1)">
       <defs>
        <path id="DejaVuSans-34" d="M 2419 4116 
L 825 1625 
L 2419 1625 
L 2419 4116 
z
M 2253 4666 
L 3047 4666 
L 3047 1625 
L 3713 1625 
L 3713 1100 
L 3047 1100 
L 3047 0 
L 2419 0 
L 2419 1100 
L 313 1100 
L 313 1709 
L 2253 4666 
z
" transform="scale(0.015625)"/>
       </defs>
       <use xlink:href="#DejaVuSans-30"/>
       <use xlink:href="#DejaVuSans-2e" x="63.623047"/>
       <use xlink:href="#DejaVuSans-34" x="95.410156"/>
      </g>
     </g>
    </g>
    <g id="xtick_4">
     <g id="line2d_4">
      <g>
       <use xlink:href="#m7b66347b53" x="254.806705" y="273.312" style="stroke: #000000; stroke-width: 0.8"/>
      </g>
     </g>
     <g id="text_4">
      <!-- 0.6 -->
      <g transform="translate(246.855142 287.910437)scale(0.1 -0.1)">
       <defs>
        <path id="DejaVuSans-36" d="M 2113 2584 
Q 1688 2584 1439 2293 
Q 1191 2003 1191 1497 
Q 1191 994 1439 701 
Q 1688 409 2113 409 
Q 2538 409 2786 701 
Q 3034 994 3034 1497 
Q 3034 2003 2786 2293 
Q 2538 2584 2113 2584 
z
M 3366 4563 
L 3366 3988 
Q 3128 4100 2886 4159 
Q 2644 4219 2406 4219 
Q 1781 4219 1451 3797 
Q 1122 3375 1075 2522 
Q 1259 2794 1537 2939 
Q 1816 3084 2150 3084 
Q 2853 3084 3261 2657 
Q 3669 2231 3669 1497 
Q 3669 778 3244 343 
Q 2819 -91 2113 -91 
Q 1303 -91 875 529 
Q 447 1150 447 2328 
Q 447 3434 972 4092 
Q 1497 4750 2381 4750 
Q 2619 4750 2861 4703 
Q 3103 4656 3366 4563 
z
" transform="scale(0.015625)"/>
       </defs>
       <use xlink:href="#DejaVuSans-30"/>
       <use xlink:href="#DejaVuSans-2e" x="63.623047"/>
       <use xlink:href="#DejaVuSans-36" x="95.410156"/>
      </g>
     </g>
    </g>
    <g id="xtick_5">
     <g id="line2d_5">
      <g>
       <use xlink:href="#m7b66347b53" x="319.737614" y="273.312" style="stroke: #000000; stroke-width: 0.8"/>
      </g>
     </g>
     <g id="text_5">
      <!-- 0.8 -->
      <g transform="translate(311.786051 287.910437)scale(0.1 -0.1)">
       <defs>
        <path id="DejaVuSans-38" d="M 2034 2216 
Q 1584 2216 1326 1975 
Q 1069 1734 1069 1313 
Q 1069 891 1326 650 
Q 1584 409 2034 409 
Q 2484 409 2743 651 
Q 3003 894 3003 1313 
Q 3003 1734 2745 1975 
Q 2488 2216 2034 2216 
z
M 1403 2484 
Q 997 2584 770 2862 
Q 544 3141 544 3541 
Q 544 4100 942 4425 
Q 1341 4750 2034 4750 
Q 2731 4750 3128 4425 
Q 3525 4100 3525 3541 
Q 3525 3141 3298 2862 
Q 3072 2584 2669 2484 
Q 3125 2378 3379 2068 
Q 3634 1759 3634 1313 
Q 3634 634 3220 271 
Q 2806 -91 2034 -91 
Q 1263 -91 848 271 
Q 434 634 434 1313 
Q 434 1759 690 2068 
Q 947 2378 1403 2484 
z
M 1172 3481 
Q 1172 3119 1398 2916 
Q 1625 2713 2034 2713 
Q 2441 2713 2670 2916 
Q 2900 3119 2900 3481 
Q 2900 3844 2670 4047 
Q 2441 4250 2034 4250 
Q 1625 4250 1398 4047 
Q 1172 3844 1172 3481 
z
" transform="scale(0.015625)"/>
       </defs>
       <use xlink:href="#DejaVuSans-30"/>
       <use xlink:href="#DejaVuSans-2e" x="63.623047"/>
       <use xlink:href="#DejaVuSans-38" x="95.410156"/>
      </g>
     </g>
    </g>
    <g id="xtick_6">
     <g id="line2d_6">
      <g>
       <use xlink:href="#m7b66347b53" x="384.668523" y="273.312" style="stroke: #000000; stroke-width: 0.8"/>
      </g>
     </g>
     <g id="text_6">
      <!-- 1.0 -->
      <g transform="translate(376.71696 287.910437)scale(0.1 -0.1)">
       <defs>
        <path id="DejaVuSans-31" d="M 794 531 
L 1825 531 
L 1825 4091 
L 703 3866 
L 703 4441 
L 1819 4666 
L 2450 4666 
L 2450 531 
L 3481 531 
L 3481 0 
L 794 0 
L 794 531 
z
" transform="scale(0.015625)"/>
       </defs>
       <use xlink:href="#DejaVuSans-31"/>
       <use xlink:href="#DejaVuSans-2e" x="63.623047"/>
       <use xlink:href="#DejaVuSans-30" x="95.410156"/>
      </g>
     </g>
    </g>
    <g id="text_7">
     <!-- Propagation direction -->
     <g transform="translate(168.859219 301.588562)scale(0.1 -0.1)">
      <defs>
       <path id="DejaVuSans-50" d="M 1259 4147 
L 1259 2394 
L 2053 2394 
Q 2494 2394 2734 2622 
Q 2975 2850 2975 3272 
Q 2975 3691 2734 3919 
Q 2494 4147 2053 4147 
L 1259 4147 
z
M 628 4666 
L 2053 4666 
Q 2838 4666 3239 4311 
Q 3641 3956 3641 3272 
Q 3641 2581 3239 2228 
Q 2838 1875 2053 1875 
L 1259 1875 
L 1259 0 
L 628 0 
L 628 4666 
z
" transform="scale(0.015625)"/>
       <path id="DejaVuSans-72" d="M 2631 2963 
Q 2534 3019 2420 3045 
Q 2306 3072 2169 3072 
Q 1681 3072 1420 2755 
Q 1159 2438 1159 1844 
L 1159 0 
L 581 0 
L 581 3500 
L 1159 3500 
L 1159 2956 
Q 1341 3275 1631 3429 
Q 1922 3584 2338 3584 
Q 2397 3584 2469 3576 
Q 2541 3569 2628 3553 
L 2631 2963 
z
" transform="scale(0.015625)"/>
       <path id="DejaVuSans-6f" d="M 1959 3097 
Q 1497 3097 1228 2736 
Q 959 2375 959 1747 
Q 959 1119 1226 758 
Q 1494 397 1959 397 
Q 2419 397 2687 759 
Q 2956 1122 2956 1747 
Q 2956 2369 2687 2733 
Q 2419 3097 1959 3097 
z
M 1959 3584 
Q 2709 3584 3137 3096 
Q 3566 2609 3566 1747 
Q 3566 888 3137 398 
Q 2709 -91 1959 -91 
Q 1206 -91 779 398 
Q 353 888 353 1747 
Q 353 2609 779 3096 
Q 1206 3584 1959 3584 
z
" transform="scale(0.015625)"/>
       <path id="DejaVuSans-70" d="M 1159 525 
L 1159 -1331 
L 581 -1331 
L 581 3500 
L 1159 3500 
L 1159 2969 
Q 1341 3281 1617 3432 
Q 1894 3584 2278 3584 
Q 2916 3584 3314 3078 
Q 3713 2572 3713 1747 
Q 3713 922 3314 415 
Q 2916 -91 2278 -91 
Q 1894 -91 1617 61 
Q 1341 213 1159 525 
z
M 3116 1747 
Q 3116 2381 2855 2742 
Q 2594 3103 2138 3103 
Q 1681 3103 1420 2742 
Q 1159 2381 1159 1747 
Q 1159 1113 1420 752 
Q 1681 391 2138 391 
Q 2594 391 2855 752 
Q 3116 1113 3116 1747 
z
" transform="scale(0.015625)"/>
       <path id="DejaVuSans-61" d="M 2194 1759 
Q 1497 1759 1228 1600 
Q 959 1441 959 1056 
Q 959 750 1161 570 
Q 1363 391 1709 391 
Q 2188 391 2477 730 
Q 2766 1069 2766 1631 
L 2766 1759 
L 2194 1759 
z
M 3341 1997 
L 3341 0 
L 2766 0 
L 2766 531 
Q 2569 213 2275 61 
Q 1981 -91 1556 -91 
Q 1019 -91 701 211 
Q 384 513 384 1019 
Q 384 1609 779 1909 
Q 1175 2209 1959 2209 
L 2766 2209 
L 2766 2266 
Q 2766 2663 2505 2880 
Q 2244 3097 1772 3097 
Q 1472 3097 1187 3025 
Q 903 2953 641 2809 
L 641 3341 
Q 956 3463 1253 3523 
Q 1550 3584 1831 3584 
Q 2591 3584 2966 3190 
Q 3341 2797 3341 1997 
z
" transform="scale(0.015625)"/>
       <path id="DejaVuSans-67" d="M 2906 1791 
Q 2906 2416 2648 2759 
Q 2391 3103 1925 3103 
Q 1463 3103 1205 2759 
Q 947 2416 947 1791 
Q 947 1169 1205 825 
Q 1463 481 1925 481 
Q 2391 481 2648 825 
Q 2906 1169 2906 1791 
z
M 3481 434 
Q 3481 -459 3084 -895 
Q 2688 -1331 1869 -1331 
Q 1566 -1331 1297 -1286 
Q 1028 -1241 775 -1147 
L 775 -588 
Q 1028 -725 1275 -790 
Q 1522 -856 1778 -856 
Q 2344 -856 2625 -561 
Q 2906 -266 2906 331 
L 2906 616 
Q 2728 306 2450 153 
Q 2172 0 1784 0 
Q 1141 0 747 490 
Q 353 981 353 1791 
Q 353 2603 747 3093 
Q 1141 3584 1784 3584 
Q 2172 3584 2450 3431 
Q 2728 3278 2906 2969 
L 2906 3500 
L 3481 3500 
L 3481 434 
z
" transform="scale(0.015625)"/>
       <path id="DejaVuSans-74" d="M 1172 4494 
L 1172 3500 
L 2356 3500 
L 2356 3053 
L 1172 3053 
L 1172 1153 
Q 1172 725 1289 603 
Q 1406 481 1766 481 
L 2356 481 
L 2356 0 
L 1766 0 
Q 1100 0 847 248 
Q 594 497 594 1153 
L 594 3053 
L 172 3053 
L 172 3500 
L 594 3500 
L 594 4494 
L 1172 4494 
z
" transform="scale(0.015625)"/>
       <path id="DejaVuSans-69" d="M 603 3500 
L 1178 3500 
L 1178 0 
L 603 0 
L 603 3500 
z
M 603 4863 
L 1178 4863 
L 1178 4134 
L 603 4134 
L 603 4863 
z
" transform="scale(0.015625)"/>
       <path id="DejaVuSans-6e" d="M 3513 2113 
L 3513 0 
L 2938 0 
L 2938 2094 
Q 2938 2591 2744 2837 
Q 2550 3084 2163 3084 
Q 1697 3084 1428 2787 
Q 1159 2491 1159 1978 
L 1159 0 
L 581 0 
L 581 3500 
L 1159 3500 
L 1159 2956 
Q 1366 3272 1645 3428 
Q 1925 3584 2291 3584 
Q 2894 3584 3203 3211 
Q 3513 2838 3513 2113 
z
" transform="scale(0.015625)"/>
       <path id="DejaVuSans-20" transform="scale(0.015625)"/>
       <path id="DejaVuSans-64" d="M 2906 2969 
L 2906 4863 
L 3481 4863 
L 3481 0 
L 2906 0 
L 2906 525 
Q 2725 213 2448 61 
Q 2172 -91 1784 -91 
Q 1150 -91 751 415 
Q 353 922 353 1747 
Q 353 2572 751 3078 
Q 1150 3584 1784 3584 
Q 2172 3584 2448 3432 
Q 2725 3281 2906 2969 
z
M 947 1747 
Q 947 1113 1208 752 
Q 1469 391 1925 391 
Q 2381 391 2643 752 
Q 2906 1113 2906 1747 
Q 2906 2381 2643 2742 
Q 2381 3103 1925 3103 
Q 1469 3103 1208 2742 
Q 947 2381 947 1747 
z
" transform="scale(0.015625)"/>
       <path id="DejaVuSans-65" d="M 3597 1894 
L 3597 1613 
L 953 1613 
Q 991 1019 1311 708 
Q 1631 397 2203 397 
Q 2534 397 2845 478 
Q 3156 559 3463 722 
L 3463 178 
Q 3153 47 2828 -22 
Q 2503 -91 2169 -91 
Q 1331 -91 842 396 
Q 353 884 353 1716 
Q 353 2575 817 3079 
Q 1281 3584 2069 3584 
Q 2775 3584 3186 3129 
Q 3597 2675 3597 1894 
z
M 3022 2063 
Q 3016 2534 2758 2815 
Q 2500 3097 2075 3097 
Q 1594 3097 1305 2825 
Q 1016 2553 972 2059 
L 3022 2063 
z
" transform="scale(0.015625)"/>
       <path id="DejaVuSans-63" d="M 3122 3366 
L 3122 2828 
Q 2878 2963 2633 3030 
Q 2388 3097 2138 3097 
Q 1578 3097 1268 2742 
Q 959 2388 959 1747 
Q 959 1106 1268 751 
Q 1578 397 2138 397 
Q 2388 397 2633 464 
Q 2878 531 3122 666 
L 3122 134 
Q 2881 22 2623 -34 
Q 2366 -91 2075 -91 
Q 1284 -91 818 406 
Q 353 903 353 1747 
Q 353 2603 823 3093 
Q 1294 3584 2113 3584 
Q 2378 3584 2631 3529 
Q 2884 3475 3122 3366 
z
" transform="scale(0.015625)"/>
      </defs>
      <use xlink:href="#DejaVuSans-50"/>
      <use xlink:href="#DejaVuSans-72" x="58.552734"/>
      <use xlink:href="#DejaVuSans-6f" x="97.416016"/>
      <use xlink:href="#DejaVuSans-70" x="158.597656"/>
      <use xlink:href="#DejaVuSans-61" x="222.074219"/>
      <use xlink:href="#DejaVuSans-67" x="283.353516"/>
      <use xlink:href="#DejaVuSans-61" x="346.830078"/>
      <use xlink:href="#DejaVuSans-74" x="408.109375"/>
      <use xlink:href="#DejaVuSans-69" x="447.318359"/>
      <use xlink:href="#DejaVuSans-6f" x="475.101562"/>
      <use xlink:href="#DejaVuSans-6e" x="536.283203"/>
      <use xlink:href="#DejaVuSans-20" x="599.662109"/>
      <use xlink:href="#DejaVuSans-64" x="631.449219"/>
      <use xlink:href="#DejaVuSans-69" x="694.925781"/>
      <use xlink:href="#DejaVuSans-72" x="722.708984"/>
      <use xlink:href="#DejaVuSans-65" x="761.572266"/>
      <use xlink:href="#DejaVuSans-63" x="823.095703"/>
      <use xlink:href="#DejaVuSans-74" x="878.076172"/>
      <use xlink:href="#DejaVuSans-69" x="917.285156"/>
      <use xlink:href="#DejaVuSans-6f" x="945.068359"/>
      <use xlink:href="#DejaVuSans-6e" x="1006.25"/>
     </g>
    </g>
   </g>
   <g id="matplotlib.axis_2">
    <g id="ytick_1">
     <g id="line2d_7">
      <defs>
       <path id="m1bb005b93f" d="M 0 0 
L -3.5 0 
" style="stroke: #000000; stroke-width: 0.8"/>
      </defs>
      <g>
       <use xlink:href="#m1bb005b93f" x="43.78125" y="273.312" style="stroke: #000000; stroke-width: 0.8"/>
      </g>
     </g>
     <g id="text_8">
      <!-- 0.0 -->
      <g transform="translate(20.878125 277.111219)scale(0.1 -0.1)">
       <use xlink:href="#DejaVuSans-30"/>
       <use xlink:href="#DejaVuSans-2e" x="63.623047"/>
       <use xlink:href="#DejaVuSans-30" x="95.410156"/>
      </g>
     </g>
    </g>
    <g id="ytick_2">
     <g id="line2d_8">
      <g>
       <use xlink:href="#m1bb005b93f" x="43.78125" y="216.356238" style="stroke: #000000; stroke-width: 0.8"/>
      </g>
     </g>
     <g id="text_9">
      <!-- 0.5 -->
      <g transform="translate(20.878125 220.155457)scale(0.1 -0.1)">
       <defs>
        <path id="DejaVuSans-35" d="M 691 4666 
L 3169 4666 
L 3169 4134 
L 1269 4134 
L 1269 2991 
Q 1406 3038 1543 3061 
Q 1681 3084 1819 3084 
Q 2600 3084 3056 2656 
Q 3513 2228 3513 1497 
Q 3513 744 3044 326 
Q 2575 -91 1722 -91 
Q 1428 -91 1123 -41 
Q 819 9 494 109 
L 494 744 
Q 775 591 1075 516 
Q 1375 441 1709 441 
Q 2250 441 2565 725 
Q 2881 1009 2881 1497 
Q 2881 1984 2565 2268 
Q 2250 2553 1709 2553 
Q 1456 2553 1204 2497 
Q 953 2441 691 2322 
L 691 4666 
z
" transform="scale(0.015625)"/>
       </defs>
       <use xlink:href="#DejaVuSans-30"/>
       <use xlink:href="#DejaVuSans-2e" x="63.623047"/>
       <use xlink:href="#DejaVuSans-35" x="95.410156"/>
      </g>
     </g>
    </g>
    <g id="ytick_3">
     <g id="line2d_9">
      <g>
       <use xlink:href="#m1bb005b93f" x="43.78125" y="159.400477" style="stroke: #000000; stroke-width: 0.8"/>
      </g>
     </g>
     <g id="text_10">
      <!-- 1.0 -->
      <g transform="translate(20.878125 163.199696)scale(0.1 -0.1)">
       <use xlink:href="#DejaVuSans-31"/>
       <use xlink:href="#DejaVuSans-2e" x="63.623047"/>
       <use xlink:href="#DejaVuSans-30" x="95.410156"/>
      </g>
     </g>
    </g>
    <g id="ytick_4">
     <g id="line2d_10">
      <g>
       <use xlink:href="#m1bb005b93f" x="43.78125" y="102.444715" style="stroke: #000000; stroke-width: 0.8"/>
      </g>
     </g>
     <g id="text_11">
      <!-- 1.5 -->
      <g transform="translate(20.878125 106.243934)scale(0.1 -0.1)">
       <use xlink:href="#DejaVuSans-31"/>
       <use xlink:href="#DejaVuSans-2e" x="63.623047"/>
       <use xlink:href="#DejaVuSans-35" x="95.410156"/>
      </g>
     </g>
    </g>
    <g id="ytick_5">
     <g id="line2d_11">
      <g>
       <use xlink:href="#m1bb005b93f" x="43.78125" y="45.488954" style="stroke: #000000; stroke-width: 0.8"/>
      </g>
     </g>
     <g id="text_12">
      <!-- 2.0 -->
      <g transform="translate(20.878125 49.288173)scale(0.1 -0.1)">
       <use xlink:href="#DejaVuSans-32"/>
       <use xlink:href="#DejaVuSans-2e" x="63.623047"/>
       <use xlink:href="#DejaVuSans-30" x="95.410156"/>
      </g>
     </g>
    </g>
    <g id="text_13">
     <!-- Probability density -->
     <g transform="translate(14.798438 186.606781)rotate(-90)scale(0.1 -0.1)">
      <defs>
       <path id="DejaVuSans-62" d="M 3116 1747 
Q 3116 2381 2855 2742 
Q 2594 3103 2138 3103 
Q 1681 3103 1420 2742 
Q 1159 2381 1159 1747 
Q 1159 1113 1420 752 
Q 1681 391 2138 391 
Q 2594 391 2855 752 
Q 3116 1113 3116 1747 
z
M 1159 2969 
Q 1341 3281 1617 3432 
Q 1894 3584 2278 3584 
Q 2916 3584 3314 3078 
Q 3713 2572 3713 1747 
Q 3713 922 3314 415 
Q 2916 -91 2278 -91 
Q 1894 -91 1617 61 
Q 1341 213 1159 525 
L 1159 0 
L 581 0 
L 581 4863 
L 1159 4863 
L 1159 2969 
z
" transform="scale(0.015625)"/>
       <path id="DejaVuSans-6c" d="M 603 4863 
L 1178 4863 
L 1178 0 
L 603 0 
L 603 4863 
z
" transform="scale(0.015625)"/>
       <path id="DejaVuSans-79" d="M 2059 -325 
Q 1816 -950 1584 -1140 
Q 1353 -1331 966 -1331 
L 506 -1331 
L 506 -850 
L 844 -850 
Q 1081 -850 1212 -737 
Q 1344 -625 1503 -206 
L 1606 56 
L 191 3500 
L 800 3500 
L 1894 763 
L 2988 3500 
L 3597 3500 
L 2059 -325 
z
" transform="scale(0.015625)"/>
       <path id="DejaVuSans-73" d="M 2834 3397 
L 2834 2853 
Q 2591 2978 2328 3040 
Q 2066 3103 1784 3103 
Q 1356 3103 1142 2972 
Q 928 2841 928 2578 
Q 928 2378 1081 2264 
Q 1234 2150 1697 2047 
L 1894 2003 
Q 2506 1872 2764 1633 
Q 3022 1394 3022 966 
Q 3022 478 2636 193 
Q 2250 -91 1575 -91 
Q 1294 -91 989 -36 
Q 684 19 347 128 
L 347 722 
Q 666 556 975 473 
Q 1284 391 1588 391 
Q 1994 391 2212 530 
Q 2431 669 2431 922 
Q 2431 1156 2273 1281 
Q 2116 1406 1581 1522 
L 1381 1569 
Q 847 1681 609 1914 
Q 372 2147 372 2553 
Q 372 3047 722 3315 
Q 1072 3584 1716 3584 
Q 2034 3584 2315 3537 
Q 2597 3491 2834 3397 
z
" transform="scale(0.015625)"/>
      </defs>
      <use xlink:href="#DejaVuSans-50"/>
      <use xlink:href="#DejaVuSans-72" x="58.552734"/>
      <use xlink:href="#DejaVuSans-6f" x="97.416016"/>
      <use xlink:href="#DejaVuSans-62" x="158.597656"/>
      <use xlink:href="#DejaVuSans-61" x="222.074219"/>
      <use xlink:href="#DejaVuSans-62" x="283.353516"/>
      <use xlink:href="#DejaVuSans-69" x="346.830078"/>
      <use xlink:href="#DejaVuSans-6c" x="374.613281"/>
      <use xlink:href="#DejaVuSans-69" x="402.396484"/>
      <use xlink:href="#DejaVuSans-74" x="430.179688"/>
      <use xlink:href="#DejaVuSans-79" x="469.388672"/>
      <use xlink:href="#DejaVuSans-20" x="528.568359"/>
      <use xlink:href="#DejaVuSans-64" x="560.355469"/>
      <use xlink:href="#DejaVuSans-65" x="623.832031"/>
      <use xlink:href="#DejaVuSans-6e" x="685.355469"/>
      <use xlink:href="#DejaVuSans-73" x="748.734375"/>
      <use xlink:href="#DejaVuSans-69" x="800.833984"/>
      <use xlink:href="#DejaVuSans-74" x="828.617188"/>
      <use xlink:href="#DejaVuSans-79" x="867.826172"/>
     </g>
    </g>
   </g>
   <g id="line2d_12">
    <path d="M 60.013977 273.312 
L 384.668523 45.488954 
L 384.668523 45.488954 
" clip-path="url(#p7290fa2062)" style="fill: none; stroke: #ff7f0e; stroke-width: 1.5; stroke-linecap: square"/>
   </g>
   <g id="patch_203">
    <path d="M 43.78125 273.312 
L 43.78125 7.2 
" style="fill: none; stroke: #000000; stroke-width: 0.8; stroke-linejoin: miter; stroke-linecap: square"/>
   </g>
   <g id="patch_204">
    <path d="M 400.90125 273.312 
L 400.90125 7.2 
" style="fill: none; stroke: #000000; stroke-width: 0.8; stroke-linejoin: miter; stroke-linecap: square"/>
   </g>
   <g id="patch_205">
    <path d="M 43.78125 273.312 
L 400.90125 273.312 
" style="fill: none; stroke: #000000; stroke-width: 0.8; stroke-linejoin: miter; stroke-linecap: square"/>
   </g>
   <g id="patch_206">
    <path d="M 43.78125 7.2 
L 400.90125 7.2 
" style="fill: none; stroke: #000000; stroke-width: 0.8; stroke-linejoin: miter; stroke-linecap: square"/>
   </g>
  </g>
 </g>
 <defs>
  <clipPath id="p7290fa2062">
   <rect x="43.78125" y="7.2" width="357.12" height="266.112"/>
  </clipPath>
 </defs>
</svg>
