<?xml version="1.0" encoding="utf-8" standalone="no"?>
<!DOCTYPE svg PUBLIC "-//W3C//DTD SVG 1.1//EN"
  "http://www.w3.org/Graphics/SVG/1.1/DTD/svg11.dtd">
<svg xmlns:xlink="http://www.w3.org/1999/xlink" width="408.10125pt" height="310.86825pt" viewBox="0 0 408.10125 310.86825" xmlns="http://www.w3.org/2000/svg" version="1.1">
 <metadata>
  <rdf:RDF xmlns:dc="http://purl.org/dc/elements/1.1/" xmlns:cc="http://creativecommons.org/ns#" xmlns:rdf="http://www.w3.org/1999/02/22-rdf-syntax-ns#">
   <cc:Work>
    <dc:type rdf:resource="http://purl.org/dc/dcmitype/StillImage"/>
    <dc:date>2022-05-08T00:08:43.588812</dc:date>
    <dc:format>image/svg+xml</dc:format>
    <dc:creator>
     <cc:Agent>
      <dc:title>Matplotlib v3.5.2, https://matplotlib.org/</dc:title>
     </cc:Agent>
    </dc:creator>
   </cc:Work>
  </rdf:RDF>
 </metadata>
 <defs>
  <style type="text/css">*{stroke-linejoin: round; stroke-linecap: butt}</style>
 </defs>
 <g id="figure_1">
  <g id="patch_1">
   <path d="M 0 310.86825 
L 408.10125 310.86825 
L 408.10125 0 
L 0 0 
z
" style="fill: #ffffff"/>
  </g>
  <g id="axes_1">
   <g id="patch_2">
    <path d="M 43.78125 273.312 
L 400.90125 273.312 
L 400.90125 7.2 
L 43.78125 7.2 
z
" style="fill: #ffffff"/>
   </g>
   <g id="patch_3">
    <path d="M 60.80893 273.312 
L 62.423644 273.312 
L 62.423644 269.562888 
L 60.80893 269.562888 
z
" clip-path="url(#pffaaf49134)" style="fill: #1f77b4"/>
   </g>
   <g id="patch_4">
    <path d="M 62.423644 273.312 
L 64.038358 273.312 
L 64.038358 268.063243 
L 62.423644 268.063243 
z
" clip-path="url(#pffaaf49134)" style="fill: #1f77b4"/>
   </g>
   <g id="patch_5">
    <path d="M 64.038358 273.312 
L 65.653073 273.312 
L 65.653073 261.31484 
L 64.038358 261.31484 
z
" clip-path="url(#pffaaf49134)" style="fill: #1f77b4"/>
   </g>
   <g id="patch_6">
    <path d="M 65.653073 273.312 
L 67.267787 273.312 
L 67.267787 260.565018 
L 65.653073 260.565018 
z
" clip-path="url(#pffaaf49134)" style="fill: #1f77b4"/>
   </g>
   <g id="patch_7">
    <path d="M 67.267787 273.312 
L 68.882502 273.312 
L 68.882502 257.565728 
L 67.267787 257.565728 
z
" clip-path="url(#pffaaf49134)" style="fill: #1f77b4"/>
   </g>
   <g id="patch_8">
    <path d="M 68.882502 273.312 
L 70.497216 273.312 
L 70.497216 250.067503 
L 68.882502 250.067503 
z
" clip-path="url(#pffaaf49134)" style="fill: #1f77b4"/>
   </g>
   <g id="patch_9">
    <path d="M 70.497216 273.312 
L 72.11193 273.312 
L 72.11193 246.318391 
L 70.497216 246.318391 
z
" clip-path="url(#pffaaf49134)" style="fill: #1f77b4"/>
   </g>
   <g id="patch_10">
    <path d="M 72.11193 273.312 
L 73.726645 273.312 
L 73.726645 246.318391 
L 72.11193 246.318391 
z
" clip-path="url(#pffaaf49134)" style="fill: #1f77b4"/>
   </g>
   <g id="patch_11">
    <path d="M 73.726645 273.312 
L 75.341359 273.312 
L 75.341359 241.069633 
L 73.726645 241.069633 
z
" clip-path="url(#pffaaf49134)" style="fill: #1f77b4"/>
   </g>
   <g id="patch_12">
    <path d="M 75.341359 273.312 
L 76.956074 273.312 
L 76.956074 238.820166 
L 75.341359 238.820166 
z
" clip-path="url(#pffaaf49134)" style="fill: #1f77b4"/>
   </g>
   <g id="patch_13">
    <path d="M 76.956074 273.312 
L 78.570788 273.312 
L 78.570788 229.072473 
L 76.956074 229.072473 
z
" clip-path="url(#pffaaf49134)" style="fill: #1f77b4"/>
   </g>
   <g id="patch_14">
    <path d="M 78.570788 273.312 
L 80.185502 273.312 
L 80.185502 225.323361 
L 78.570788 225.323361 
z
" clip-path="url(#pffaaf49134)" style="fill: #1f77b4"/>
   </g>
   <g id="patch_15">
    <path d="M 80.185502 273.312 
L 81.800217 273.312 
L 81.800217 235.820876 
L 80.185502 235.820876 
z
" clip-path="url(#pffaaf49134)" style="fill: #1f77b4"/>
   </g>
   <g id="patch_16">
    <path d="M 81.800217 273.312 
L 83.414931 273.312 
L 83.414931 211.076734 
L 81.800217 211.076734 
z
" clip-path="url(#pffaaf49134)" style="fill: #1f77b4"/>
   </g>
   <g id="patch_17">
    <path d="M 83.414931 273.312 
L 85.029646 273.312 
L 85.029646 208.827266 
L 83.414931 208.827266 
z
" clip-path="url(#pffaaf49134)" style="fill: #1f77b4"/>
   </g>
   <g id="patch_18">
    <path d="M 85.029646 273.312 
L 86.64436 273.312 
L 86.64436 208.077444 
L 85.029646 208.077444 
z
" clip-path="url(#pffaaf49134)" style="fill: #1f77b4"/>
   </g>
   <g id="patch_19">
    <path d="M 86.64436 273.312 
L 88.259074 273.312 
L 88.259074 199.079574 
L 86.64436 199.079574 
z
" clip-path="url(#pffaaf49134)" style="fill: #1f77b4"/>
   </g>
   <g id="patch_20">
    <path d="M 88.259074 273.312 
L 89.873789 273.312 
L 89.873789 210.326911 
L 88.259074 210.326911 
z
" clip-path="url(#pffaaf49134)" style="fill: #1f77b4"/>
   </g>
   <g id="patch_21">
    <path d="M 89.873789 273.312 
L 91.488503 273.312 
L 91.488503 211.076734 
L 89.873789 211.076734 
z
" clip-path="url(#pffaaf49134)" style="fill: #1f77b4"/>
   </g>
   <g id="patch_22">
    <path d="M 91.488503 273.312 
L 93.103218 273.312 
L 93.103218 202.828686 
L 91.488503 202.828686 
z
" clip-path="url(#pffaaf49134)" style="fill: #1f77b4"/>
   </g>
   <g id="patch_23">
    <path d="M 93.103218 273.312 
L 94.717932 273.312 
L 94.717932 196.080284 
L 93.103218 196.080284 
z
" clip-path="url(#pffaaf49134)" style="fill: #1f77b4"/>
   </g>
   <g id="patch_24">
    <path d="M 94.717932 273.312 
L 96.332646 273.312 
L 96.332646 186.332592 
L 94.717932 186.332592 
z
" clip-path="url(#pffaaf49134)" style="fill: #1f77b4"/>
   </g>
   <g id="patch_25">
    <path d="M 96.332646 273.312 
L 97.947361 273.312 
L 97.947361 177.334722 
L 96.332646 177.334722 
z
" clip-path="url(#pffaaf49134)" style="fill: #1f77b4"/>
   </g>
   <g id="patch_26">
    <path d="M 97.947361 273.312 
L 99.562075 273.312 
L 99.562075 195.330462 
L 97.947361 195.330462 
z
" clip-path="url(#pffaaf49134)" style="fill: #1f77b4"/>
   </g>
   <g id="patch_27">
    <path d="M 99.562075 273.312 
L 101.17679 273.312 
L 101.17679 190.831527 
L 99.562075 190.831527 
z
" clip-path="url(#pffaaf49134)" style="fill: #1f77b4"/>
   </g>
   <g id="patch_28">
    <path d="M 101.17679 273.312 
L 102.791504 273.312 
L 102.791504 174.335432 
L 101.17679 174.335432 
z
" clip-path="url(#pffaaf49134)" style="fill: #1f77b4"/>
   </g>
   <g id="patch_29">
    <path d="M 102.791504 273.312 
L 104.406218 273.312 
L 104.406218 167.58703 
L 102.791504 167.58703 
z
" clip-path="url(#pffaaf49134)" style="fill: #1f77b4"/>
   </g>
   <g id="patch_30">
    <path d="M 104.406218 273.312 
L 106.020933 273.312 
L 106.020933 169.836497 
L 104.406218 169.836497 
z
" clip-path="url(#pffaaf49134)" style="fill: #1f77b4"/>
   </g>
   <g id="patch_31">
    <path d="M 106.020933 273.312 
L 107.635647 273.312 
L 107.635647 178.834367 
L 106.020933 178.834367 
z
" clip-path="url(#pffaaf49134)" style="fill: #1f77b4"/>
   </g>
   <g id="patch_32">
    <path d="M 107.635647 273.312 
L 109.250362 273.312 
L 109.250362 146.592 
L 107.635647 146.592 
z
" clip-path="url(#pffaaf49134)" style="fill: #1f77b4"/>
   </g>
   <g id="patch_33">
    <path d="M 109.250362 273.312 
L 110.865076 273.312 
L 110.865076 172.835787 
L 109.250362 172.835787 
z
" clip-path="url(#pffaaf49134)" style="fill: #1f77b4"/>
   </g>
   <g id="patch_34">
    <path d="M 110.865076 273.312 
L 112.47979 273.312 
L 112.47979 181.833657 
L 110.865076 181.833657 
z
" clip-path="url(#pffaaf49134)" style="fill: #1f77b4"/>
   </g>
   <g id="patch_35">
    <path d="M 112.47979 273.312 
L 114.094505 273.312 
L 114.094505 153.340402 
L 112.47979 153.340402 
z
" clip-path="url(#pffaaf49134)" style="fill: #1f77b4"/>
   </g>
   <g id="patch_36">
    <path d="M 114.094505 273.312 
L 115.709219 273.312 
L 115.709219 151.840757 
L 114.094505 151.840757 
z
" clip-path="url(#pffaaf49134)" style="fill: #1f77b4"/>
   </g>
   <g id="patch_37">
    <path d="M 115.709219 273.312 
L 117.323934 273.312 
L 117.323934 152.59058 
L 115.709219 152.59058 
z
" clip-path="url(#pffaaf49134)" style="fill: #1f77b4"/>
   </g>
   <g id="patch_38">
    <path d="M 117.323934 273.312 
L 118.938648 273.312 
L 118.938648 148.841467 
L 117.323934 148.841467 
z
" clip-path="url(#pffaaf49134)" style="fill: #1f77b4"/>
   </g>
   <g id="patch_39">
    <path d="M 118.938648 273.312 
L 120.553362 273.312 
L 120.553362 142.093065 
L 118.938648 142.093065 
z
" clip-path="url(#pffaaf49134)" style="fill: #1f77b4"/>
   </g>
   <g id="patch_40">
    <path d="M 120.553362 273.312 
L 122.168077 273.312 
L 122.168077 150.341112 
L 120.553362 150.341112 
z
" clip-path="url(#pffaaf49134)" style="fill: #1f77b4"/>
   </g>
   <g id="patch_41">
    <path d="M 122.168077 273.312 
L 123.782791 273.312 
L 123.782791 126.346793 
L 122.168077 126.346793 
z
" clip-path="url(#pffaaf49134)" style="fill: #1f77b4"/>
   </g>
   <g id="patch_42">
    <path d="M 123.782791 273.312 
L 125.397506 273.312 
L 125.397506 148.841467 
L 123.782791 148.841467 
z
" clip-path="url(#pffaaf49134)" style="fill: #1f77b4"/>
   </g>
   <g id="patch_43">
    <path d="M 125.397506 273.312 
L 127.01222 273.312 
L 127.01222 134.59484 
L 125.397506 134.59484 
z
" clip-path="url(#pffaaf49134)" style="fill: #1f77b4"/>
   </g>
   <g id="patch_44">
    <path d="M 127.01222 273.312 
L 128.626934 273.312 
L 128.626934 109.100876 
L 127.01222 109.100876 
z
" clip-path="url(#pffaaf49134)" style="fill: #1f77b4"/>
   </g>
   <g id="patch_45">
    <path d="M 128.626934 273.312 
L 130.241649 273.312 
L 130.241649 126.346793 
L 128.626934 126.346793 
z
" clip-path="url(#pffaaf49134)" style="fill: #1f77b4"/>
   </g>
   <g id="patch_46">
    <path d="M 130.241649 273.312 
L 131.856363 273.312 
L 131.856363 115.099456 
L 130.241649 115.099456 
z
" clip-path="url(#pffaaf49134)" style="fill: #1f77b4"/>
   </g>
   <g id="patch_47">
    <path d="M 131.856363 273.312 
L 133.471078 273.312 
L 133.471078 134.59484 
L 131.856363 134.59484 
z
" clip-path="url(#pffaaf49134)" style="fill: #1f77b4"/>
   </g>
   <g id="patch_48">
    <path d="M 133.471078 273.312 
L 135.085792 273.312 
L 135.085792 116.599101 
L 133.471078 116.599101 
z
" clip-path="url(#pffaaf49134)" style="fill: #1f77b4"/>
   </g>
   <g id="patch_49">
    <path d="M 135.085792 273.312 
L 136.700506 273.312 
L 136.700506 129.346083 
L 135.085792 129.346083 
z
" clip-path="url(#pffaaf49134)" style="fill: #1f77b4"/>
   </g>
   <g id="patch_50">
    <path d="M 136.700506 273.312 
L 138.315221 273.312 
L 138.315221 115.099456 
L 136.700506 115.099456 
z
" clip-path="url(#pffaaf49134)" style="fill: #1f77b4"/>
   </g>
   <g id="patch_51">
    <path d="M 138.315221 273.312 
L 139.929935 273.312 
L 139.929935 106.101586 
L 138.315221 106.101586 
z
" clip-path="url(#pffaaf49134)" style="fill: #1f77b4"/>
   </g>
   <g id="patch_52">
    <path d="M 139.929935 273.312 
L 141.54465 273.312 
L 141.54465 106.101586 
L 139.929935 106.101586 
z
" clip-path="url(#pffaaf49134)" style="fill: #1f77b4"/>
   </g>
   <g id="patch_53">
    <path d="M 141.54465 273.312 
L 143.159364 273.312 
L 143.159364 97.853538 
L 141.54465 97.853538 
z
" clip-path="url(#pffaaf49134)" style="fill: #1f77b4"/>
   </g>
   <g id="patch_54">
    <path d="M 143.159364 273.312 
L 144.774078 273.312 
L 144.774078 118.848568 
L 143.159364 118.848568 
z
" clip-path="url(#pffaaf49134)" style="fill: #1f77b4"/>
   </g>
   <g id="patch_55">
    <path d="M 144.774078 273.312 
L 146.388793 273.312 
L 146.388793 109.100876 
L 144.774078 109.100876 
z
" clip-path="url(#pffaaf49134)" style="fill: #1f77b4"/>
   </g>
   <g id="patch_56">
    <path d="M 146.388793 273.312 
L 148.003507 273.312 
L 148.003507 102.352473 
L 146.388793 102.352473 
z
" clip-path="url(#pffaaf49134)" style="fill: #1f77b4"/>
   </g>
   <g id="patch_57">
    <path d="M 148.003507 273.312 
L 149.618222 273.312 
L 149.618222 94.854249 
L 148.003507 94.854249 
z
" clip-path="url(#pffaaf49134)" style="fill: #1f77b4"/>
   </g>
   <g id="patch_58">
    <path d="M 149.618222 273.312 
L 151.232936 273.312 
L 151.232936 90.355314 
L 149.618222 90.355314 
z
" clip-path="url(#pffaaf49134)" style="fill: #1f77b4"/>
   </g>
   <g id="patch_59">
    <path d="M 151.232936 273.312 
L 152.84765 273.312 
L 152.84765 80.607621 
L 151.232936 80.607621 
z
" clip-path="url(#pffaaf49134)" style="fill: #1f77b4"/>
   </g>
   <g id="patch_60">
    <path d="M 152.84765 273.312 
L 154.462365 273.312 
L 154.462365 96.353893 
L 152.84765 96.353893 
z
" clip-path="url(#pffaaf49134)" style="fill: #1f77b4"/>
   </g>
   <g id="patch_61">
    <path d="M 154.462365 273.312 
L 156.077079 273.312 
L 156.077079 73.859219 
L 154.462365 73.859219 
z
" clip-path="url(#pffaaf49134)" style="fill: #1f77b4"/>
   </g>
   <g id="patch_62">
    <path d="M 156.077079 273.312 
L 157.691794 273.312 
L 157.691794 108.351053 
L 156.077079 108.351053 
z
" clip-path="url(#pffaaf49134)" style="fill: #1f77b4"/>
   </g>
   <g id="patch_63">
    <path d="M 157.691794 273.312 
L 159.306508 273.312 
L 159.306508 61.112237 
L 157.691794 61.112237 
z
" clip-path="url(#pffaaf49134)" style="fill: #1f77b4"/>
   </g>
   <g id="patch_64">
    <path d="M 159.306508 273.312 
L 160.921222 273.312 
L 160.921222 89.605491 
L 159.306508 89.605491 
z
" clip-path="url(#pffaaf49134)" style="fill: #1f77b4"/>
   </g>
   <g id="patch_65">
    <path d="M 160.921222 273.312 
L 162.535937 273.312 
L 162.535937 84.356734 
L 160.921222 84.356734 
z
" clip-path="url(#pffaaf49134)" style="fill: #1f77b4"/>
   </g>
   <g id="patch_66">
    <path d="M 162.535937 273.312 
L 164.150651 273.312 
L 164.150651 91.105136 
L 162.535937 91.105136 
z
" clip-path="url(#pffaaf49134)" style="fill: #1f77b4"/>
   </g>
   <g id="patch_67">
    <path d="M 164.150651 273.312 
L 165.765366 273.312 
L 165.765366 89.605491 
L 164.150651 89.605491 
z
" clip-path="url(#pffaaf49134)" style="fill: #1f77b4"/>
   </g>
   <g id="patch_68">
    <path d="M 165.765366 273.312 
L 167.38008 273.312 
L 167.38008 92.604781 
L 165.765366 92.604781 
z
" clip-path="url(#pffaaf49134)" style="fill: #1f77b4"/>
   </g>
   <g id="patch_69">
    <path d="M 167.38008 273.312 
L 168.994794 273.312 
L 168.994794 56.613302 
L 167.38008 56.613302 
z
" clip-path="url(#pffaaf49134)" style="fill: #1f77b4"/>
   </g>
   <g id="patch_70">
    <path d="M 168.994794 273.312 
L 170.609509 273.312 
L 170.609509 79.107976 
L 168.994794 79.107976 
z
" clip-path="url(#pffaaf49134)" style="fill: #1f77b4"/>
   </g>
   <g id="patch_71">
    <path d="M 170.609509 273.312 
L 172.224223 273.312 
L 172.224223 67.860639 
L 170.609509 67.860639 
z
" clip-path="url(#pffaaf49134)" style="fill: #1f77b4"/>
   </g>
   <g id="patch_72">
    <path d="M 172.224223 273.312 
L 173.838938 273.312 
L 173.838938 53.614012 
L 172.224223 53.614012 
z
" clip-path="url(#pffaaf49134)" style="fill: #1f77b4"/>
   </g>
   <g id="patch_73">
    <path d="M 173.838938 273.312 
L 175.453652 273.312 
L 175.453652 52.864189 
L 173.838938 52.864189 
z
" clip-path="url(#pffaaf49134)" style="fill: #1f77b4"/>
   </g>
   <g id="patch_74">
    <path d="M 175.453652 273.312 
L 177.068366 273.312 
L 177.068366 32.618982 
L 175.453652 32.618982 
z
" clip-path="url(#pffaaf49134)" style="fill: #1f77b4"/>
   </g>
   <g id="patch_75">
    <path d="M 177.068366 273.312 
L 178.683081 273.312 
L 178.683081 69.360284 
L 177.068366 69.360284 
z
" clip-path="url(#pffaaf49134)" style="fill: #1f77b4"/>
   </g>
   <g id="patch_76">
    <path d="M 178.683081 273.312 
L 180.297795 273.312 
L 180.297795 54.363834 
L 178.683081 54.363834 
z
" clip-path="url(#pffaaf49134)" style="fill: #1f77b4"/>
   </g>
   <g id="patch_77">
    <path d="M 180.297795 273.312 
L 181.91251 273.312 
L 181.91251 49.864899 
L 180.297795 49.864899 
z
" clip-path="url(#pffaaf49134)" style="fill: #1f77b4"/>
   </g>
   <g id="patch_78">
    <path d="M 181.91251 273.312 
L 183.527224 273.312 
L 183.527224 47.615432 
L 181.91251 47.615432 
z
" clip-path="url(#pffaaf49134)" style="fill: #1f77b4"/>
   </g>
   <g id="patch_79">
    <path d="M 183.527224 273.312 
L 185.141938 273.312 
L 185.141938 46.865609 
L 183.527224 46.865609 
z
" clip-path="url(#pffaaf49134)" style="fill: #1f77b4"/>
   </g>
   <g id="patch_80">
    <path d="M 185.141938 273.312 
L 186.756653 273.312 
L 186.756653 44.616142 
L 185.141938 44.616142 
z
" clip-path="url(#pffaaf49134)" style="fill: #1f77b4"/>
   </g>
   <g id="patch_81">
    <path d="M 186.756653 273.312 
L 188.371367 273.312 
L 188.371367 51.364544 
L 186.756653 51.364544 
z
" clip-path="url(#pffaaf49134)" style="fill: #1f77b4"/>
   </g>
   <g id="patch_82">
    <path d="M 188.371367 273.312 
L 189.986082 273.312 
L 189.986082 43.116497 
L 188.371367 43.116497 
z
" clip-path="url(#pffaaf49134)" style="fill: #1f77b4"/>
   </g>
   <g id="patch_83">
    <path d="M 189.986082 273.312 
L 191.600796 273.312 
L 191.600796 56.613302 
L 189.986082 56.613302 
z
" clip-path="url(#pffaaf49134)" style="fill: #1f77b4"/>
   </g>
   <g id="patch_84">
    <path d="M 191.600796 273.312 
L 193.21551 273.312 
L 193.21551 63.361704 
L 191.600796 63.361704 
z
" clip-path="url(#pffaaf49134)" style="fill: #1f77b4"/>
   </g>
   <g id="patch_85">
    <path d="M 193.21551 273.312 
L 194.830225 273.312 
L 194.830225 45.365964 
L 193.21551 45.365964 
z
" clip-path="url(#pffaaf49134)" style="fill: #1f77b4"/>
   </g>
   <g id="patch_86">
    <path d="M 194.830225 273.312 
L 196.444939 273.312 
L 196.444939 19.872 
L 194.830225 19.872 
z
" clip-path="url(#pffaaf49134)" style="fill: #1f77b4"/>
   </g>
   <g id="patch_87">
    <path d="M 196.444939 273.312 
L 198.059654 273.312 
L 198.059654 44.616142 
L 196.444939 44.616142 
z
" clip-path="url(#pffaaf49134)" style="fill: #1f77b4"/>
   </g>
   <g id="patch_88">
    <path d="M 198.059654 273.312 
L 199.674368 273.312 
L 199.674368 41.616852 
L 198.059654 41.616852 
z
" clip-path="url(#pffaaf49134)" style="fill: #1f77b4"/>
   </g>
   <g id="patch_89">
    <path d="M 199.674368 273.312 
L 201.289082 273.312 
L 201.289082 38.617562 
L 199.674368 38.617562 
z
" clip-path="url(#pffaaf49134)" style="fill: #1f77b4"/>
   </g>
   <g id="patch_90">
    <path d="M 201.289082 273.312 
L 202.903797 273.312 
L 202.903797 33.368805 
L 201.289082 33.368805 
z
" clip-path="url(#pffaaf49134)" style="fill: #1f77b4"/>
   </g>
   <g id="patch_91">
    <path d="M 202.903797 273.312 
L 204.518511 273.312 
L 204.518511 40.86703 
L 202.903797 40.86703 
z
" clip-path="url(#pffaaf49134)" style="fill: #1f77b4"/>
   </g>
   <g id="patch_92">
    <path d="M 204.518511 273.312 
L 206.133226 273.312 
L 206.133226 61.862059 
L 204.518511 61.862059 
z
" clip-path="url(#pffaaf49134)" style="fill: #1f77b4"/>
   </g>
   <g id="patch_93">
    <path d="M 206.133226 273.312 
L 207.74794 273.312 
L 207.74794 76.108686 
L 206.133226 76.108686 
z
" clip-path="url(#pffaaf49134)" style="fill: #1f77b4"/>
   </g>
   <g id="patch_94">
    <path d="M 207.74794 273.312 
L 209.362654 273.312 
L 209.362654 40.117207 
L 207.74794 40.117207 
z
" clip-path="url(#pffaaf49134)" style="fill: #1f77b4"/>
   </g>
   <g id="patch_95">
    <path d="M 209.362654 273.312 
L 210.977369 273.312 
L 210.977369 43.116497 
L 209.362654 43.116497 
z
" clip-path="url(#pffaaf49134)" style="fill: #1f77b4"/>
   </g>
   <g id="patch_96">
    <path d="M 210.977369 273.312 
L 212.592083 273.312 
L 212.592083 28.120047 
L 210.977369 28.120047 
z
" clip-path="url(#pffaaf49134)" style="fill: #1f77b4"/>
   </g>
   <g id="patch_97">
    <path d="M 212.592083 273.312 
L 214.206797 273.312 
L 214.206797 68.610462 
L 212.592083 68.610462 
z
" clip-path="url(#pffaaf49134)" style="fill: #1f77b4"/>
   </g>
   <g id="patch_98">
    <path d="M 214.206797 273.312 
L 215.821512 273.312 
L 215.821512 57.363124 
L 214.206797 57.363124 
z
" clip-path="url(#pffaaf49134)" style="fill: #1f77b4"/>
   </g>
   <g id="patch_99">
    <path d="M 215.821512 273.312 
L 217.436226 273.312 
L 217.436226 39.367385 
L 215.821512 39.367385 
z
" clip-path="url(#pffaaf49134)" style="fill: #1f77b4"/>
   </g>
   <g id="patch_100">
    <path d="M 217.436226 273.312 
L 219.050941 273.312 
L 219.050941 56.613302 
L 217.436226 56.613302 
z
" clip-path="url(#pffaaf49134)" style="fill: #1f77b4"/>
   </g>
   <g id="patch_101">
    <path d="M 219.050941 273.312 
L 220.665655 273.312 
L 220.665655 46.115787 
L 219.050941 46.115787 
z
" clip-path="url(#pffaaf49134)" style="fill: #1f77b4"/>
   </g>
   <g id="patch_102">
    <path d="M 220.665655 273.312 
L 222.280369 273.312 
L 222.280369 47.615432 
L 220.665655 47.615432 
z
" clip-path="url(#pffaaf49134)" style="fill: #1f77b4"/>
   </g>
   <g id="patch_103">
    <path d="M 222.280369 273.312 
L 223.895084 273.312 
L 223.895084 28.86987 
L 222.280369 28.86987 
z
" clip-path="url(#pffaaf49134)" style="fill: #1f77b4"/>
   </g>
   <g id="patch_104">
    <path d="M 223.895084 273.312 
L 225.509798 273.312 
L 225.509798 28.120047 
L 223.895084 28.120047 
z
" clip-path="url(#pffaaf49134)" style="fill: #1f77b4"/>
   </g>
   <g id="patch_105">
    <path d="M 225.509798 273.312 
L 227.124513 273.312 
L 227.124513 37.117917 
L 225.509798 37.117917 
z
" clip-path="url(#pffaaf49134)" style="fill: #1f77b4"/>
   </g>
   <g id="patch_106">
    <path d="M 227.124513 273.312 
L 228.739227 273.312 
L 228.739227 28.120047 
L 227.124513 28.120047 
z
" clip-path="url(#pffaaf49134)" style="fill: #1f77b4"/>
   </g>
   <g id="patch_107">
    <path d="M 228.739227 273.312 
L 230.353941 273.312 
L 230.353941 66.360994 
L 228.739227 66.360994 
z
" clip-path="url(#pffaaf49134)" style="fill: #1f77b4"/>
   </g>
   <g id="patch_108">
    <path d="M 230.353941 273.312 
L 231.968656 273.312 
L 231.968656 49.115077 
L 230.353941 49.115077 
z
" clip-path="url(#pffaaf49134)" style="fill: #1f77b4"/>
   </g>
   <g id="patch_109">
    <path d="M 231.968656 273.312 
L 233.58337 273.312 
L 233.58337 36.368095 
L 231.968656 36.368095 
z
" clip-path="url(#pffaaf49134)" style="fill: #1f77b4"/>
   </g>
   <g id="patch_110">
    <path d="M 233.58337 273.312 
L 235.198085 273.312 
L 235.198085 57.363124 
L 233.58337 57.363124 
z
" clip-path="url(#pffaaf49134)" style="fill: #1f77b4"/>
   </g>
   <g id="patch_111">
    <path d="M 235.198085 273.312 
L 236.812799 273.312 
L 236.812799 31.119337 
L 235.198085 31.119337 
z
" clip-path="url(#pffaaf49134)" style="fill: #1f77b4"/>
   </g>
   <g id="patch_112">
    <path d="M 236.812799 273.312 
L 238.427513 273.312 
L 238.427513 27.370225 
L 236.812799 27.370225 
z
" clip-path="url(#pffaaf49134)" style="fill: #1f77b4"/>
   </g>
   <g id="patch_113">
    <path d="M 238.427513 273.312 
L 240.042228 273.312 
L 240.042228 66.360994 
L 238.427513 66.360994 
z
" clip-path="url(#pffaaf49134)" style="fill: #1f77b4"/>
   </g>
   <g id="patch_114">
    <path d="M 240.042228 273.312 
L 241.656942 273.312 
L 241.656942 44.616142 
L 240.042228 44.616142 
z
" clip-path="url(#pffaaf49134)" style="fill: #1f77b4"/>
   </g>
   <g id="patch_115">
    <path d="M 241.656942 273.312 
L 243.271657 273.312 
L 243.271657 49.115077 
L 241.656942 49.115077 
z
" clip-path="url(#pffaaf49134)" style="fill: #1f77b4"/>
   </g>
   <g id="patch_116">
    <path d="M 243.271657 273.312 
L 244.886371 273.312 
L 244.886371 46.115787 
L 243.271657 46.115787 
z
" clip-path="url(#pffaaf49134)" style="fill: #1f77b4"/>
   </g>
   <g id="patch_117">
    <path d="M 244.886371 273.312 
L 246.501085 273.312 
L 246.501085 46.115787 
L 244.886371 46.115787 
z
" clip-path="url(#pffaaf49134)" style="fill: #1f77b4"/>
   </g>
   <g id="patch_118">
    <path d="M 246.501085 273.312 
L 248.1158 273.312 
L 248.1158 43.86632 
L 246.501085 43.86632 
z
" clip-path="url(#pffaaf49134)" style="fill: #1f77b4"/>
   </g>
   <g id="patch_119">
    <path d="M 248.1158 273.312 
L 249.730514 273.312 
L 249.730514 36.368095 
L 248.1158 36.368095 
z
" clip-path="url(#pffaaf49134)" style="fill: #1f77b4"/>
   </g>
   <g id="patch_120">
    <path d="M 249.730514 273.312 
L 251.345229 273.312 
L 251.345229 39.367385 
L 249.730514 39.367385 
z
" clip-path="url(#pffaaf49134)" style="fill: #1f77b4"/>
   </g>
   <g id="patch_121">
    <path d="M 251.345229 273.312 
L 252.959943 273.312 
L 252.959943 56.613302 
L 251.345229 56.613302 
z
" clip-path="url(#pffaaf49134)" style="fill: #1f77b4"/>
   </g>
   <g id="patch_122">
    <path d="M 252.959943 273.312 
L 254.574657 273.312 
L 254.574657 67.860639 
L 252.959943 67.860639 
z
" clip-path="url(#pffaaf49134)" style="fill: #1f77b4"/>
   </g>
   <g id="patch_123">
    <path d="M 254.574657 273.312 
L 256.189372 273.312 
L 256.189372 32.618982 
L 254.574657 32.618982 
z
" clip-path="url(#pffaaf49134)" style="fill: #1f77b4"/>
   </g>
   <g id="patch_124">
    <path d="M 256.189372 273.312 
L 257.804086 273.312 
L 257.804086 34.118627 
L 256.189372 34.118627 
z
" clip-path="url(#pffaaf49134)" style="fill: #1f77b4"/>
   </g>
   <g id="patch_125">
    <path d="M 257.804086 273.312 
L 259.418801 273.312 
L 259.418801 65.611172 
L 257.804086 65.611172 
z
" clip-path="url(#pffaaf49134)" style="fill: #1f77b4"/>
   </g>
   <g id="patch_126">
    <path d="M 259.418801 273.312 
L 261.033515 273.312 
L 261.033515 51.364544 
L 259.418801 51.364544 
z
" clip-path="url(#pffaaf49134)" style="fill: #1f77b4"/>
   </g>
   <g id="patch_127">
    <path d="M 261.033515 273.312 
L 262.648229 273.312 
L 262.648229 46.115787 
L 261.033515 46.115787 
z
" clip-path="url(#pffaaf49134)" style="fill: #1f77b4"/>
   </g>
   <g id="patch_128">
    <path d="M 262.648229 273.312 
L 264.262944 273.312 
L 264.262944 73.109396 
L 262.648229 73.109396 
z
" clip-path="url(#pffaaf49134)" style="fill: #1f77b4"/>
   </g>
   <g id="patch_129">
    <path d="M 264.262944 273.312 
L 265.877658 273.312 
L 265.877658 55.863479 
L 264.262944 55.863479 
z
" clip-path="url(#pffaaf49134)" style="fill: #1f77b4"/>
   </g>
   <g id="patch_130">
    <path d="M 265.877658 273.312 
L 267.492373 273.312 
L 267.492373 67.110817 
L 265.877658 67.110817 
z
" clip-path="url(#pffaaf49134)" style="fill: #1f77b4"/>
   </g>
   <g id="patch_131">
    <path d="M 267.492373 273.312 
L 269.107087 273.312 
L 269.107087 70.859929 
L 267.492373 70.859929 
z
" clip-path="url(#pffaaf49134)" style="fill: #1f77b4"/>
   </g>
   <g id="patch_132">
    <path d="M 269.107087 273.312 
L 270.721801 273.312 
L 270.721801 55.863479 
L 269.107087 55.863479 
z
" clip-path="url(#pffaaf49134)" style="fill: #1f77b4"/>
   </g>
   <g id="patch_133">
    <path d="M 270.721801 273.312 
L 272.336516 273.312 
L 272.336516 58.862769 
L 270.721801 58.862769 
z
" clip-path="url(#pffaaf49134)" style="fill: #1f77b4"/>
   </g>
   <g id="patch_134">
    <path d="M 272.336516 273.312 
L 273.95123 273.312 
L 273.95123 76.108686 
L 272.336516 76.108686 
z
" clip-path="url(#pffaaf49134)" style="fill: #1f77b4"/>
   </g>
   <g id="patch_135">
    <path d="M 273.95123 273.312 
L 275.565945 273.312 
L 275.565945 55.113657 
L 273.95123 55.113657 
z
" clip-path="url(#pffaaf49134)" style="fill: #1f77b4"/>
   </g>
   <g id="patch_136">
    <path d="M 275.565945 273.312 
L 277.180659 273.312 
L 277.180659 61.862059 
L 275.565945 61.862059 
z
" clip-path="url(#pffaaf49134)" style="fill: #1f77b4"/>
   </g>
   <g id="patch_137">
    <path d="M 277.180659 273.312 
L 278.795373 273.312 
L 278.795373 77.608331 
L 277.180659 77.608331 
z
" clip-path="url(#pffaaf49134)" style="fill: #1f77b4"/>
   </g>
   <g id="patch_138">
    <path d="M 278.795373 273.312 
L 280.410088 273.312 
L 280.410088 94.104426 
L 278.795373 94.104426 
z
" clip-path="url(#pffaaf49134)" style="fill: #1f77b4"/>
   </g>
   <g id="patch_139">
    <path d="M 280.410088 273.312 
L 282.024802 273.312 
L 282.024802 78.358154 
L 280.410088 78.358154 
z
" clip-path="url(#pffaaf49134)" style="fill: #1f77b4"/>
   </g>
   <g id="patch_140">
    <path d="M 282.024802 273.312 
L 283.639517 273.312 
L 283.639517 75.358864 
L 282.024802 75.358864 
z
" clip-path="url(#pffaaf49134)" style="fill: #1f77b4"/>
   </g>
   <g id="patch_141">
    <path d="M 283.639517 273.312 
L 285.254231 273.312 
L 285.254231 77.608331 
L 283.639517 77.608331 
z
" clip-path="url(#pffaaf49134)" style="fill: #1f77b4"/>
   </g>
   <g id="patch_142">
    <path d="M 285.254231 273.312 
L 286.868945 273.312 
L 286.868945 69.360284 
L 285.254231 69.360284 
z
" clip-path="url(#pffaaf49134)" style="fill: #1f77b4"/>
   </g>
   <g id="patch_143">
    <path d="M 286.868945 273.312 
L 288.48366 273.312 
L 288.48366 87.356024 
L 286.868945 87.356024 
z
" clip-path="url(#pffaaf49134)" style="fill: #1f77b4"/>
   </g>
   <g id="patch_144">
    <path d="M 288.48366 273.312 
L 290.098374 273.312 
L 290.098374 82.107266 
L 288.48366 82.107266 
z
" clip-path="url(#pffaaf49134)" style="fill: #1f77b4"/>
   </g>
   <g id="patch_145">
    <path d="M 290.098374 273.312 
L 291.713089 273.312 
L 291.713089 79.107976 
L 290.098374 79.107976 
z
" clip-path="url(#pffaaf49134)" style="fill: #1f77b4"/>
   </g>
   <g id="patch_146">
    <path d="M 291.713089 273.312 
L 293.327803 273.312 
L 293.327803 82.107266 
L 291.713089 82.107266 
z
" clip-path="url(#pffaaf49134)" style="fill: #1f77b4"/>
   </g>
   <g id="patch_147">
    <path d="M 293.327803 273.312 
L 294.942517 273.312 
L 294.942517 86.606201 
L 293.327803 86.606201 
z
" clip-path="url(#pffaaf49134)" style="fill: #1f77b4"/>
   </g>
   <g id="patch_148">
    <path d="M 294.942517 273.312 
L 296.557232 273.312 
L 296.557232 100.103006 
L 294.942517 100.103006 
z
" clip-path="url(#pffaaf49134)" style="fill: #1f77b4"/>
   </g>
   <g id="patch_149">
    <path d="M 296.557232 273.312 
L 298.171946 273.312 
L 298.171946 89.605491 
L 296.557232 89.605491 
z
" clip-path="url(#pffaaf49134)" style="fill: #1f77b4"/>
   </g>
   <g id="patch_150">
    <path d="M 298.171946 273.312 
L 299.786661 273.312 
L 299.786661 98.603361 
L 298.171946 98.603361 
z
" clip-path="url(#pffaaf49134)" style="fill: #1f77b4"/>
   </g>
   <g id="patch_151">
    <path d="M 299.786661 273.312 
L 301.401375 273.312 
L 301.401375 118.848568 
L 299.786661 118.848568 
z
" clip-path="url(#pffaaf49134)" style="fill: #1f77b4"/>
   </g>
   <g id="patch_152">
    <path d="M 301.401375 273.312 
L 303.016089 273.312 
L 303.016089 76.108686 
L 301.401375 76.108686 
z
" clip-path="url(#pffaaf49134)" style="fill: #1f77b4"/>
   </g>
   <g id="patch_153">
    <path d="M 303.016089 273.312 
L 304.630804 273.312 
L 304.630804 103.102296 
L 303.016089 103.102296 
z
" clip-path="url(#pffaaf49134)" style="fill: #1f77b4"/>
   </g>
   <g id="patch_154">
    <path d="M 304.630804 273.312 
L 306.245518 273.312 
L 306.245518 118.848568 
L 304.630804 118.848568 
z
" clip-path="url(#pffaaf49134)" style="fill: #1f77b4"/>
   </g>
   <g id="patch_155">
    <path d="M 306.245518 273.312 
L 307.860233 273.312 
L 307.860233 114.349633 
L 306.245518 114.349633 
z
" clip-path="url(#pffaaf49134)" style="fill: #1f77b4"/>
   </g>
   <g id="patch_156">
    <path d="M 307.860233 273.312 
L 309.474947 273.312 
L 309.474947 101.602651 
L 307.860233 101.602651 
z
" clip-path="url(#pffaaf49134)" style="fill: #1f77b4"/>
   </g>
   <g id="patch_157">
    <path d="M 309.474947 273.312 
L 311.089661 273.312 
L 311.089661 123.347503 
L 309.474947 123.347503 
z
" clip-path="url(#pffaaf49134)" style="fill: #1f77b4"/>
   </g>
   <g id="patch_158">
    <path d="M 311.089661 273.312 
L 312.704376 273.312 
L 312.704376 112.100166 
L 311.089661 112.100166 
z
" clip-path="url(#pffaaf49134)" style="fill: #1f77b4"/>
   </g>
   <g id="patch_159">
    <path d="M 312.704376 273.312 
L 314.31909 273.312 
L 314.31909 116.599101 
L 312.704376 116.599101 
z
" clip-path="url(#pffaaf49134)" style="fill: #1f77b4"/>
   </g>
   <g id="patch_160">
    <path d="M 314.31909 273.312 
L 315.933805 273.312 
L 315.933805 136.844308 
L 314.31909 136.844308 
z
" clip-path="url(#pffaaf49134)" style="fill: #1f77b4"/>
   </g>
   <g id="patch_161">
    <path d="M 315.933805 273.312 
L 317.548519 273.312 
L 317.548519 130.095905 
L 315.933805 130.095905 
z
" clip-path="url(#pffaaf49134)" style="fill: #1f77b4"/>
   </g>
   <g id="patch_162">
    <path d="M 317.548519 273.312 
L 319.163233 273.312 
L 319.163233 127.846438 
L 317.548519 127.846438 
z
" clip-path="url(#pffaaf49134)" style="fill: #1f77b4"/>
   </g>
   <g id="patch_163">
    <path d="M 319.163233 273.312 
L 320.777948 273.312 
L 320.777948 132.345373 
L 319.163233 132.345373 
z
" clip-path="url(#pffaaf49134)" style="fill: #1f77b4"/>
   </g>
   <g id="patch_164">
    <path d="M 320.777948 273.312 
L 322.392662 273.312 
L 322.392662 122.59768 
L 320.777948 122.59768 
z
" clip-path="url(#pffaaf49134)" style="fill: #1f77b4"/>
   </g>
   <g id="patch_165">
    <path d="M 322.392662 273.312 
L 324.007377 273.312 
L 324.007377 163.088095 
L 322.392662 163.088095 
z
" clip-path="url(#pffaaf49134)" style="fill: #1f77b4"/>
   </g>
   <g id="patch_166">
    <path d="M 324.007377 273.312 
L 325.622091 273.312 
L 325.622091 133.095195 
L 324.007377 133.095195 
z
" clip-path="url(#pffaaf49134)" style="fill: #1f77b4"/>
   </g>
   <g id="patch_167">
    <path d="M 325.622091 273.312 
L 327.236805 273.312 
L 327.236805 158.58916 
L 325.622091 158.58916 
z
" clip-path="url(#pffaaf49134)" style="fill: #1f77b4"/>
   </g>
   <g id="patch_168">
    <path d="M 327.236805 273.312 
L 328.85152 273.312 
L 328.85152 154.840047 
L 327.236805 154.840047 
z
" clip-path="url(#pffaaf49134)" style="fill: #1f77b4"/>
   </g>
   <g id="patch_169">
    <path d="M 328.85152 273.312 
L 330.466234 273.312 
L 330.466234 144.342533 
L 328.85152 144.342533 
z
" clip-path="url(#pffaaf49134)" style="fill: #1f77b4"/>
   </g>
   <g id="patch_170">
    <path d="M 330.466234 273.312 
L 332.080949 273.312 
L 332.080949 170.58632 
L 330.466234 170.58632 
z
" clip-path="url(#pffaaf49134)" style="fill: #1f77b4"/>
   </g>
   <g id="patch_171">
    <path d="M 332.080949 273.312 
L 333.695663 273.312 
L 333.695663 161.58845 
L 332.080949 161.58845 
z
" clip-path="url(#pffaaf49134)" style="fill: #1f77b4"/>
   </g>
   <g id="patch_172">
    <path d="M 333.695663 273.312 
L 335.310377 273.312 
L 335.310377 169.836497 
L 333.695663 169.836497 
z
" clip-path="url(#pffaaf49134)" style="fill: #1f77b4"/>
   </g>
   <g id="patch_173">
    <path d="M 335.310377 273.312 
L 336.925092 273.312 
L 336.925092 161.58845 
L 335.310377 161.58845 
z
" clip-path="url(#pffaaf49134)" style="fill: #1f77b4"/>
   </g>
   <g id="patch_174">
    <path d="M 336.925092 273.312 
L 338.539806 273.312 
L 338.539806 172.085964 
L 336.925092 172.085964 
z
" clip-path="url(#pffaaf49134)" style="fill: #1f77b4"/>
   </g>
   <g id="patch_175">
    <path d="M 338.539806 273.312 
L 340.154521 273.312 
L 340.154521 180.334012 
L 338.539806 180.334012 
z
" clip-path="url(#pffaaf49134)" style="fill: #1f77b4"/>
   </g>
   <g id="patch_176">
    <path d="M 340.154521 273.312 
L 341.769235 273.312 
L 341.769235 188.582059 
L 340.154521 188.582059 
z
" clip-path="url(#pffaaf49134)" style="fill: #1f77b4"/>
   </g>
   <g id="patch_177">
    <path d="M 341.769235 273.312 
L 343.383949 273.312 
L 343.383949 175.085254 
L 341.769235 175.085254 
z
" clip-path="url(#pffaaf49134)" style="fill: #1f77b4"/>
   </g>
   <g id="patch_178">
    <path d="M 343.383949 273.312 
L 344.998664 273.312 
L 344.998664 171.336142 
L 343.383949 171.336142 
z
" clip-path="url(#pffaaf49134)" style="fill: #1f77b4"/>
   </g>
   <g id="patch_179">
    <path d="M 344.998664 273.312 
L 346.613378 273.312 
L 346.613378 184.832947 
L 344.998664 184.832947 
z
" clip-path="url(#pffaaf49134)" style="fill: #1f77b4"/>
   </g>
   <g id="patch_180">
    <path d="M 346.613378 273.312 
L 348.228093 273.312 
L 348.228093 205.827976 
L 346.613378 205.827976 
z
" clip-path="url(#pffaaf49134)" style="fill: #1f77b4"/>
   </g>
   <g id="patch_181">
    <path d="M 348.228093 273.312 
L 349.842807 273.312 
L 349.842807 192.331172 
L 348.228093 192.331172 
z
" clip-path="url(#pffaaf49134)" style="fill: #1f77b4"/>
   </g>
   <g id="patch_182">
    <path d="M 349.842807 273.312 
L 351.457521 273.312 
L 351.457521 205.078154 
L 349.842807 205.078154 
z
" clip-path="url(#pffaaf49134)" style="fill: #1f77b4"/>
   </g>
   <g id="patch_183">
    <path d="M 351.457521 273.312 
L 353.072236 273.312 
L 353.072236 199.829396 
L 351.457521 199.829396 
z
" clip-path="url(#pffaaf49134)" style="fill: #1f77b4"/>
   </g>
   <g id="patch_184">
    <path d="M 353.072236 273.312 
L 354.68695 273.312 
L 354.68695 210.326911 
L 353.072236 210.326911 
z
" clip-path="url(#pffaaf49134)" style="fill: #1f77b4"/>
   </g>
   <g id="patch_185">
    <path d="M 354.68695 273.312 
L 356.301665 273.312 
L 356.301665 210.326911 
L 354.68695 210.326911 
z
" clip-path="url(#pffaaf49134)" style="fill: #1f77b4"/>
   </g>
   <g id="patch_186">
    <path d="M 356.301665 273.312 
L 357.916379 273.312 
L 357.916379 211.826556 
L 356.301665 211.826556 
z
" clip-path="url(#pffaaf49134)" style="fill: #1f77b4"/>
   </g>
   <g id="patch_187">
    <path d="M 357.916379 273.312 
L 359.531093 273.312 
L 359.531093 214.076024 
L 357.916379 214.076024 
z
" clip-path="url(#pffaaf49134)" style="fill: #1f77b4"/>
   </g>
   <g id="patch_188">
    <path d="M 359.531093 273.312 
L 361.145808 273.312 
L 361.145808 229.072473 
L 359.531093 229.072473 
z
" clip-path="url(#pffaaf49134)" style="fill: #1f77b4"/>
   </g>
   <g id="patch_189">
    <path d="M 361.145808 273.312 
L 362.760522 273.312 
L 362.760522 215.575669 
L 361.145808 215.575669 
z
" clip-path="url(#pffaaf49134)" style="fill: #1f77b4"/>
   </g>
   <g id="patch_190">
    <path d="M 362.760522 273.312 
L 364.375237 273.312 
L 364.375237 227.572828 
L 362.760522 227.572828 
z
" clip-path="url(#pffaaf49134)" style="fill: #1f77b4"/>
   </g>
   <g id="patch_191">
    <path d="M 364.375237 273.312 
L 365.989951 273.312 
L 365.989951 224.573538 
L 364.375237 224.573538 
z
" clip-path="url(#pffaaf49134)" style="fill: #1f77b4"/>
   </g>
   <g id="patch_192">
    <path d="M 365.989951 273.312 
L 367.604665 273.312 
L 367.604665 235.071053 
L 365.989951 235.071053 
z
" clip-path="url(#pffaaf49134)" style="fill: #1f77b4"/>
   </g>
   <g id="patch_193">
    <path d="M 367.604665 273.312 
L 369.21938 273.312 
L 369.21938 240.319811 
L 367.604665 240.319811 
z
" clip-path="url(#pffaaf49134)" style="fill: #1f77b4"/>
   </g>
   <g id="patch_194">
    <path d="M 369.21938 273.312 
L 370.834094 273.312 
L 370.834094 237.320521 
L 369.21938 237.320521 
z
" clip-path="url(#pffaaf49134)" style="fill: #1f77b4"/>
   </g>
   <g id="patch_195">
    <path d="M 370.834094 273.312 
L 372.448809 273.312 
L 372.448809 248.567858 
L 370.834094 248.567858 
z
" clip-path="url(#pffaaf49134)" style="fill: #1f77b4"/>
   </g>
   <g id="patch_196">
    <path d="M 372.448809 273.312 
L 374.063523 273.312 
L 374.063523 248.567858 
L 372.448809 248.567858 
z
" clip-path="url(#pffaaf49134)" style="fill: #1f77b4"/>
   </g>
   <g id="patch_197">
    <path d="M 374.063523 273.312 
L 375.678237 273.312 
L 375.678237 253.066793 
L 374.063523 253.066793 
z
" clip-path="url(#pffaaf49134)" style="fill: #1f77b4"/>
   </g>
   <g id="patch_198">
    <path d="M 375.678237 273.312 
L 377.292952 273.312 
L 377.292952 250.817325 
L 375.678237 250.817325 
z
" clip-path="url(#pffaaf49134)" style="fill: #1f77b4"/>
   </g>
   <g id="patch_199">
    <path d="M 377.292952 273.312 
L 378.907666 273.312 
L 378.907666 256.066083 
L 377.292952 256.066083 
z
" clip-path="url(#pffaaf49134)" style="fill: #1f77b4"/>
   </g>
   <g id="patch_200">
    <path d="M 378.907666 273.312 
L 380.522381 273.312 
L 380.522381 260.565018 
L 378.907666 260.565018 
z
" clip-path="url(#pffaaf49134)" style="fill: #1f77b4"/>
   </g>
   <g id="patch_201">
    <path d="M 380.522381 273.312 
L 382.137095 273.312 
L 382.137095 264.31413 
L 380.522381 264.31413 
z
" clip-path="url(#pffaaf49134)" style="fill: #1f77b4"/>
   </g>
   <g id="patch_202">
    <path d="M 382.137095 273.312 
L 383.751809 273.312 
L 383.751809 268.813065 
L 382.137095 268.813065 
z
" clip-path="url(#pffaaf49134)" style="fill: #1f77b4"/>
   </g>
   <g id="matplotlib.axis_1">
    <g id="xtick_1">
     <g id="line2d_1">
      <defs>
       <path id="m5de10673c0" d="M 0 0 
L 0 3.5 
" style="stroke: #000000; stroke-width: 0.8"/>
      </defs>
      <g>
       <use xlink:href="#m5de10673c0" x="60.013977" y="273.312" style="stroke: #000000; stroke-width: 0.8"/>
      </g>
     </g>
     <g id="text_1">
      <!-- 0.0 -->
      <g transform="translate(52.062415 287.910437)scale(0.1 -0.1)">
       <defs>
        <path id="DejaVuSans-30" d="M 2034 4250 
Q 1547 4250 1301 3770 
Q 1056 3291 1056 2328 
Q 1056 1369 1301 889 
Q 1547 409 2034 409 
Q 2525 409 2770 889 
Q 3016 1369 3016 2328 
Q 3016 3291 2770 3770 
Q 2525 4250 2034 4250 
z
M 2034 4750 
Q 2819 4750 3233 4129 
Q 3647 3509 3647 2328 
Q 3647 1150 3233 529 
Q 2819 -91 2034 -91 
Q 1250 -91 836 529 
Q 422 1150 422 2328 
Q 422 3509 836 4129 
Q 1250 4750 2034 4750 
z
" transform="scale(0.015625)"/>
        <path id="DejaVuSans-2e" d="M 684 794 
L 1344 794 
L 1344 0 
L 684 0 
L 684 794 
z
" transform="scale(0.015625)"/>
       </defs>
       <use xlink:href="#DejaVuSans-30"/>
       <use xlink:href="#DejaVuSans-2e" x="63.623047"/>
       <use xlink:href="#DejaVuSans-30" x="95.410156"/>
      </g>
     </g>
    </g>
    <g id="xtick_2">
     <g id="line2d_2">
      <g>
       <use xlink:href="#m5de10673c0" x="101.350278" y="273.312" style="stroke: #000000; stroke-width: 0.8"/>
      </g>
     </g>
     <g id="text_2">
      <!-- 0.2 -->
      <g transform="translate(93.398715 287.910437)scale(0.1 -0.1)">
       <defs>
        <path id="DejaVuSans-32" d="M 1228 531 
L 3431 531 
L 3431 0 
L 469 0 
L 469 531 
Q 828 903 1448 1529 
Q 2069 2156 2228 2338 
Q 2531 2678 2651 2914 
Q 2772 3150 2772 3378 
Q 2772 3750 2511 3984 
Q 2250 4219 1831 4219 
Q 1534 4219 1204 4116 
Q 875 4013 500 3803 
L 500 4441 
Q 881 4594 1212 4672 
Q 1544 4750 1819 4750 
Q 2544 4750 2975 4387 
Q 3406 4025 3406 3419 
Q 3406 3131 3298 2873 
Q 3191 2616 2906 2266 
Q 2828 2175 2409 1742 
Q 1991 1309 1228 531 
z
" transform="scale(0.015625)"/>
       </defs>
       <use xlink:href="#DejaVuSans-30"/>
       <use xlink:href="#DejaVuSans-2e" x="63.623047"/>
       <use xlink:href="#DejaVuSans-32" x="95.410156"/>
      </g>
     </g>
    </g>
    <g id="xtick_3">
     <g id="line2d_3">
      <g>
       <use xlink:href="#m5de10673c0" x="142.686578" y="273.312" style="stroke: #000000; stroke-width: 0.8"/>
      </g>
     </g>
     <g id="text_3">
      <!-- 0.4 -->
      <g transform="translate(134.735016 287.910437)scale(0.1 -0.1)">
       <defs>
        <path id="DejaVuSans-34" d="M 2419 4116 
L 825 1625 
L 2419 1625 
L 2419 4116 
z
M 2253 4666 
L 3047 4666 
L 3047 1625 
L 3713 1625 
L 3713 1100 
L 3047 1100 
L 3047 0 
L 2419 0 
L 2419 1100 
L 313 1100 
L 313 1709 
L 2253 4666 
z
" transform="scale(0.015625)"/>
       </defs>
       <use xlink:href="#DejaVuSans-30"/>
       <use xlink:href="#DejaVuSans-2e" x="63.623047"/>
       <use xlink:href="#DejaVuSans-34" x="95.410156"/>
      </g>
     </g>
    </g>
    <g id="xtick_4">
     <g id="line2d_4">
      <g>
       <use xlink:href="#m5de10673c0" x="184.022879" y="273.312" style="stroke: #000000; stroke-width: 0.8"/>
      </g>
     </g>
     <g id="text_4">
      <!-- 0.6 -->
      <g transform="translate(176.071316 287.910437)scale(0.1 -0.1)">
       <defs>
        <path id="DejaVuSans-36" d="M 2113 2584 
Q 1688 2584 1439 2293 
Q 1191 2003 1191 1497 
Q 1191 994 1439 701 
Q 1688 409 2113 409 
Q 2538 409 2786 701 
Q 3034 994 3034 1497 
Q 3034 2003 2786 2293 
Q 2538 2584 2113 2584 
z
M 3366 4563 
L 3366 3988 
Q 3128 4100 2886 4159 
Q 2644 4219 2406 4219 
Q 1781 4219 1451 3797 
Q 1122 3375 1075 2522 
Q 1259 2794 1537 2939 
Q 1816 3084 2150 3084 
Q 2853 3084 3261 2657 
Q 3669 2231 3669 1497 
Q 3669 778 3244 343 
Q 2819 -91 2113 -91 
Q 1303 -91 875 529 
Q 447 1150 447 2328 
Q 447 3434 972 4092 
Q 1497 4750 2381 4750 
Q 2619 4750 2861 4703 
Q 3103 4656 3366 4563 
z
" transform="scale(0.015625)"/>
       </defs>
       <use xlink:href="#DejaVuSans-30"/>
       <use xlink:href="#DejaVuSans-2e" x="63.623047"/>
       <use xlink:href="#DejaVuSans-36" x="95.410156"/>
      </g>
     </g>
    </g>
    <g id="xtick_5">
     <g id="line2d_5">
      <g>
       <use xlink:href="#m5de10673c0" x="225.35918" y="273.312" style="stroke: #000000; stroke-width: 0.8"/>
      </g>
     </g>
     <g id="text_5">
      <!-- 0.8 -->
      <g transform="translate(217.407617 287.910437)scale(0.1 -0.1)">
       <defs>
        <path id="DejaVuSans-38" d="M 2034 2216 
Q 1584 2216 1326 1975 
Q 1069 1734 1069 1313 
Q 1069 891 1326 650 
Q 1584 409 2034 409 
Q 2484 409 2743 651 
Q 3003 894 3003 1313 
Q 3003 1734 2745 1975 
Q 2488 2216 2034 2216 
z
M 1403 2484 
Q 997 2584 770 2862 
Q 544 3141 544 3541 
Q 544 4100 942 4425 
Q 1341 4750 2034 4750 
Q 2731 4750 3128 4425 
Q 3525 4100 3525 3541 
Q 3525 3141 3298 2862 
Q 3072 2584 2669 2484 
Q 3125 2378 3379 2068 
Q 3634 1759 3634 1313 
Q 3634 634 3220 271 
Q 2806 -91 2034 -91 
Q 1263 -91 848 271 
Q 434 634 434 1313 
Q 434 1759 690 2068 
Q 947 2378 1403 2484 
z
M 1172 3481 
Q 1172 3119 1398 2916 
Q 1625 2713 2034 2713 
Q 2441 2713 2670 2916 
Q 2900 3119 2900 3481 
Q 2900 3844 2670 4047 
Q 2441 4250 2034 4250 
Q 1625 4250 1398 4047 
Q 1172 3844 1172 3481 
z
" transform="scale(0.015625)"/>
       </defs>
       <use xlink:href="#DejaVuSans-30"/>
       <use xlink:href="#DejaVuSans-2e" x="63.623047"/>
       <use xlink:href="#DejaVuSans-38" x="95.410156"/>
      </g>
     </g>
    </g>
    <g id="xtick_6">
     <g id="line2d_6">
      <g>
       <use xlink:href="#m5de10673c0" x="266.69548" y="273.312" style="stroke: #000000; stroke-width: 0.8"/>
      </g>
     </g>
     <g id="text_6">
      <!-- 1.0 -->
      <g transform="translate(258.743918 287.910437)scale(0.1 -0.1)">
       <defs>
        <path id="DejaVuSans-31" d="M 794 531 
L 1825 531 
L 1825 4091 
L 703 3866 
L 703 4441 
L 1819 4666 
L 2450 4666 
L 2450 531 
L 3481 531 
L 3481 0 
L 794 0 
L 794 531 
z
" transform="scale(0.015625)"/>
       </defs>
       <use xlink:href="#DejaVuSans-31"/>
       <use xlink:href="#DejaVuSans-2e" x="63.623047"/>
       <use xlink:href="#DejaVuSans-30" x="95.410156"/>
      </g>
     </g>
    </g>
    <g id="xtick_7">
     <g id="line2d_7">
      <g>
       <use xlink:href="#m5de10673c0" x="308.031781" y="273.312" style="stroke: #000000; stroke-width: 0.8"/>
      </g>
     </g>
     <g id="text_7">
      <!-- 1.2 -->
      <g transform="translate(300.080218 287.910437)scale(0.1 -0.1)">
       <use xlink:href="#DejaVuSans-31"/>
       <use xlink:href="#DejaVuSans-2e" x="63.623047"/>
       <use xlink:href="#DejaVuSans-32" x="95.410156"/>
      </g>
     </g>
    </g>
    <g id="xtick_8">
     <g id="line2d_8">
      <g>
       <use xlink:href="#m5de10673c0" x="349.368081" y="273.312" style="stroke: #000000; stroke-width: 0.8"/>
      </g>
     </g>
     <g id="text_8">
      <!-- 1.4 -->
      <g transform="translate(341.416519 287.910437)scale(0.1 -0.1)">
       <use xlink:href="#DejaVuSans-31"/>
       <use xlink:href="#DejaVuSans-2e" x="63.623047"/>
       <use xlink:href="#DejaVuSans-34" x="95.410156"/>
      </g>
     </g>
    </g>
    <g id="xtick_9">
     <g id="line2d_9">
      <g>
       <use xlink:href="#m5de10673c0" x="390.704382" y="273.312" style="stroke: #000000; stroke-width: 0.8"/>
      </g>
     </g>
     <g id="text_9">
      <!-- 1.6 -->
      <g transform="translate(382.752819 287.910437)scale(0.1 -0.1)">
       <use xlink:href="#DejaVuSans-31"/>
       <use xlink:href="#DejaVuSans-2e" x="63.623047"/>
       <use xlink:href="#DejaVuSans-36" x="95.410156"/>
      </g>
     </g>
    </g>
    <g id="text_10">
     <!-- Angle with normal (rad) -->
     <g transform="translate(163.023281 301.588562)scale(0.1 -0.1)">
      <defs>
       <path id="DejaVuSans-41" d="M 2188 4044 
L 1331 1722 
L 3047 1722 
L 2188 4044 
z
M 1831 4666 
L 2547 4666 
L 4325 0 
L 3669 0 
L 3244 1197 
L 1141 1197 
L 716 0 
L 50 0 
L 1831 4666 
z
" transform="scale(0.015625)"/>
       <path id="DejaVuSans-6e" d="M 3513 2113 
L 3513 0 
L 2938 0 
L 2938 2094 
Q 2938 2591 2744 2837 
Q 2550 3084 2163 3084 
Q 1697 3084 1428 2787 
Q 1159 2491 1159 1978 
L 1159 0 
L 581 0 
L 581 3500 
L 1159 3500 
L 1159 2956 
Q 1366 3272 1645 3428 
Q 1925 3584 2291 3584 
Q 2894 3584 3203 3211 
Q 3513 2838 3513 2113 
z
" transform="scale(0.015625)"/>
       <path id="DejaVuSans-67" d="M 2906 1791 
Q 2906 2416 2648 2759 
Q 2391 3103 1925 3103 
Q 1463 3103 1205 2759 
Q 947 2416 947 1791 
Q 947 1169 1205 825 
Q 1463 481 1925 481 
Q 2391 481 2648 825 
Q 2906 1169 2906 1791 
z
M 3481 434 
Q 3481 -459 3084 -895 
Q 2688 -1331 1869 -1331 
Q 1566 -1331 1297 -1286 
Q 1028 -1241 775 -1147 
L 775 -588 
Q 1028 -725 1275 -790 
Q 1522 -856 1778 -856 
Q 2344 -856 2625 -561 
Q 2906 -266 2906 331 
L 2906 616 
Q 2728 306 2450 153 
Q 2172 0 1784 0 
Q 1141 0 747 490 
Q 353 981 353 1791 
Q 353 2603 747 3093 
Q 1141 3584 1784 3584 
Q 2172 3584 2450 3431 
Q 2728 3278 2906 2969 
L 2906 3500 
L 3481 3500 
L 3481 434 
z
" transform="scale(0.015625)"/>
       <path id="DejaVuSans-6c" d="M 603 4863 
L 1178 4863 
L 1178 0 
L 603 0 
L 603 4863 
z
" transform="scale(0.015625)"/>
       <path id="DejaVuSans-65" d="M 3597 1894 
L 3597 1613 
L 953 1613 
Q 991 1019 1311 708 
Q 1631 397 2203 397 
Q 2534 397 2845 478 
Q 3156 559 3463 722 
L 3463 178 
Q 3153 47 2828 -22 
Q 2503 -91 2169 -91 
Q 1331 -91 842 396 
Q 353 884 353 1716 
Q 353 2575 817 3079 
Q 1281 3584 2069 3584 
Q 2775 3584 3186 3129 
Q 3597 2675 3597 1894 
z
M 3022 2063 
Q 3016 2534 2758 2815 
Q 2500 3097 2075 3097 
Q 1594 3097 1305 2825 
Q 1016 2553 972 2059 
L 3022 2063 
z
" transform="scale(0.015625)"/>
       <path id="DejaVuSans-20" transform="scale(0.015625)"/>
       <path id="DejaVuSans-77" d="M 269 3500 
L 844 3500 
L 1563 769 
L 2278 3500 
L 2956 3500 
L 3675 769 
L 4391 3500 
L 4966 3500 
L 4050 0 
L 3372 0 
L 2619 2869 
L 1863 0 
L 1184 0 
L 269 3500 
z
" transform="scale(0.015625)"/>
       <path id="DejaVuSans-69" d="M 603 3500 
L 1178 3500 
L 1178 0 
L 603 0 
L 603 3500 
z
M 603 4863 
L 1178 4863 
L 1178 4134 
L 603 4134 
L 603 4863 
z
" transform="scale(0.015625)"/>
       <path id="DejaVuSans-74" d="M 1172 4494 
L 1172 3500 
L 2356 3500 
L 2356 3053 
L 1172 3053 
L 1172 1153 
Q 1172 725 1289 603 
Q 1406 481 1766 481 
L 2356 481 
L 2356 0 
L 1766 0 
Q 1100 0 847 248 
Q 594 497 594 1153 
L 594 3053 
L 172 3053 
L 172 3500 
L 594 3500 
L 594 4494 
L 1172 4494 
z
" transform="scale(0.015625)"/>
       <path id="DejaVuSans-68" d="M 3513 2113 
L 3513 0 
L 2938 0 
L 2938 2094 
Q 2938 2591 2744 2837 
Q 2550 3084 2163 3084 
Q 1697 3084 1428 2787 
Q 1159 2491 1159 1978 
L 1159 0 
L 581 0 
L 581 4863 
L 1159 4863 
L 1159 2956 
Q 1366 3272 1645 3428 
Q 1925 3584 2291 3584 
Q 2894 3584 3203 3211 
Q 3513 2838 3513 2113 
z
" transform="scale(0.015625)"/>
       <path id="DejaVuSans-6f" d="M 1959 3097 
Q 1497 3097 1228 2736 
Q 959 2375 959 1747 
Q 959 1119 1226 758 
Q 1494 397 1959 397 
Q 2419 397 2687 759 
Q 2956 1122 2956 1747 
Q 2956 2369 2687 2733 
Q 2419 3097 1959 3097 
z
M 1959 3584 
Q 2709 3584 3137 3096 
Q 3566 2609 3566 1747 
Q 3566 888 3137 398 
Q 2709 -91 1959 -91 
Q 1206 -91 779 398 
Q 353 888 353 1747 
Q 353 2609 779 3096 
Q 1206 3584 1959 3584 
z
" transform="scale(0.015625)"/>
       <path id="DejaVuSans-72" d="M 2631 2963 
Q 2534 3019 2420 3045 
Q 2306 3072 2169 3072 
Q 1681 3072 1420 2755 
Q 1159 2438 1159 1844 
L 1159 0 
L 581 0 
L 581 3500 
L 1159 3500 
L 1159 2956 
Q 1341 3275 1631 3429 
Q 1922 3584 2338 3584 
Q 2397 3584 2469 3576 
Q 2541 3569 2628 3553 
L 2631 2963 
z
" transform="scale(0.015625)"/>
       <path id="DejaVuSans-6d" d="M 3328 2828 
Q 3544 3216 3844 3400 
Q 4144 3584 4550 3584 
Q 5097 3584 5394 3201 
Q 5691 2819 5691 2113 
L 5691 0 
L 5113 0 
L 5113 2094 
Q 5113 2597 4934 2840 
Q 4756 3084 4391 3084 
Q 3944 3084 3684 2787 
Q 3425 2491 3425 1978 
L 3425 0 
L 2847 0 
L 2847 2094 
Q 2847 2600 2669 2842 
Q 2491 3084 2119 3084 
Q 1678 3084 1418 2786 
Q 1159 2488 1159 1978 
L 1159 0 
L 581 0 
L 581 3500 
L 1159 3500 
L 1159 2956 
Q 1356 3278 1631 3431 
Q 1906 3584 2284 3584 
Q 2666 3584 2933 3390 
Q 3200 3197 3328 2828 
z
" transform="scale(0.015625)"/>
       <path id="DejaVuSans-61" d="M 2194 1759 
Q 1497 1759 1228 1600 
Q 959 1441 959 1056 
Q 959 750 1161 570 
Q 1363 391 1709 391 
Q 2188 391 2477 730 
Q 2766 1069 2766 1631 
L 2766 1759 
L 2194 1759 
z
M 3341 1997 
L 3341 0 
L 2766 0 
L 2766 531 
Q 2569 213 2275 61 
Q 1981 -91 1556 -91 
Q 1019 -91 701 211 
Q 384 513 384 1019 
Q 384 1609 779 1909 
Q 1175 2209 1959 2209 
L 2766 2209 
L 2766 2266 
Q 2766 2663 2505 2880 
Q 2244 3097 1772 3097 
Q 1472 3097 1187 3025 
Q 903 2953 641 2809 
L 641 3341 
Q 956 3463 1253 3523 
Q 1550 3584 1831 3584 
Q 2591 3584 2966 3190 
Q 3341 2797 3341 1997 
z
" transform="scale(0.015625)"/>
       <path id="DejaVuSans-28" d="M 1984 4856 
Q 1566 4138 1362 3434 
Q 1159 2731 1159 2009 
Q 1159 1288 1364 580 
Q 1569 -128 1984 -844 
L 1484 -844 
Q 1016 -109 783 600 
Q 550 1309 550 2009 
Q 550 2706 781 3412 
Q 1013 4119 1484 4856 
L 1984 4856 
z
" transform="scale(0.015625)"/>
       <path id="DejaVuSans-64" d="M 2906 2969 
L 2906 4863 
L 3481 4863 
L 3481 0 
L 2906 0 
L 2906 525 
Q 2725 213 2448 61 
Q 2172 -91 1784 -91 
Q 1150 -91 751 415 
Q 353 922 353 1747 
Q 353 2572 751 3078 
Q 1150 3584 1784 3584 
Q 2172 3584 2448 3432 
Q 2725 3281 2906 2969 
z
M 947 1747 
Q 947 1113 1208 752 
Q 1469 391 1925 391 
Q 2381 391 2643 752 
Q 2906 1113 2906 1747 
Q 2906 2381 2643 2742 
Q 2381 3103 1925 3103 
Q 1469 3103 1208 2742 
Q 947 2381 947 1747 
z
" transform="scale(0.015625)"/>
       <path id="DejaVuSans-29" d="M 513 4856 
L 1013 4856 
Q 1481 4119 1714 3412 
Q 1947 2706 1947 2009 
Q 1947 1309 1714 600 
Q 1481 -109 1013 -844 
L 513 -844 
Q 928 -128 1133 580 
Q 1338 1288 1338 2009 
Q 1338 2731 1133 3434 
Q 928 4138 513 4856 
z
" transform="scale(0.015625)"/>
      </defs>
      <use xlink:href="#DejaVuSans-41"/>
      <use xlink:href="#DejaVuSans-6e" x="68.408203"/>
      <use xlink:href="#DejaVuSans-67" x="131.787109"/>
      <use xlink:href="#DejaVuSans-6c" x="195.263672"/>
      <use xlink:href="#DejaVuSans-65" x="223.046875"/>
      <use xlink:href="#DejaVuSans-20" x="284.570312"/>
      <use xlink:href="#DejaVuSans-77" x="316.357422"/>
      <use xlink:href="#DejaVuSans-69" x="398.144531"/>
      <use xlink:href="#DejaVuSans-74" x="425.927734"/>
      <use xlink:href="#DejaVuSans-68" x="465.136719"/>
      <use xlink:href="#DejaVuSans-20" x="528.515625"/>
      <use xlink:href="#DejaVuSans-6e" x="560.302734"/>
      <use xlink:href="#DejaVuSans-6f" x="623.681641"/>
      <use xlink:href="#DejaVuSans-72" x="684.863281"/>
      <use xlink:href="#DejaVuSans-6d" x="724.226562"/>
      <use xlink:href="#DejaVuSans-61" x="821.638672"/>
      <use xlink:href="#DejaVuSans-6c" x="882.917969"/>
      <use xlink:href="#DejaVuSans-20" x="910.701172"/>
      <use xlink:href="#DejaVuSans-28" x="942.488281"/>
      <use xlink:href="#DejaVuSans-72" x="981.501953"/>
      <use xlink:href="#DejaVuSans-61" x="1022.615234"/>
      <use xlink:href="#DejaVuSans-64" x="1083.894531"/>
      <use xlink:href="#DejaVuSans-29" x="1147.371094"/>
     </g>
    </g>
   </g>
   <g id="matplotlib.axis_2">
    <g id="ytick_1">
     <g id="line2d_10">
      <defs>
       <path id="m3f781a71d6" d="M 0 0 
L -3.5 0 
" style="stroke: #000000; stroke-width: 0.8"/>
      </defs>
      <g>
       <use xlink:href="#m3f781a71d6" x="43.78125" y="273.312" style="stroke: #000000; stroke-width: 0.8"/>
      </g>
     </g>
     <g id="text_11">
      <!-- 0.0 -->
      <g transform="translate(20.878125 277.111219)scale(0.1 -0.1)">
       <use xlink:href="#DejaVuSans-30"/>
       <use xlink:href="#DejaVuSans-2e" x="63.623047"/>
       <use xlink:href="#DejaVuSans-30" x="95.410156"/>
      </g>
     </g>
    </g>
    <g id="ytick_2">
     <g id="line2d_11">
      <g>
       <use xlink:href="#m3f781a71d6" x="43.78125" y="226.447655" style="stroke: #000000; stroke-width: 0.8"/>
      </g>
     </g>
     <g id="text_12">
      <!-- 0.2 -->
      <g transform="translate(20.878125 230.246873)scale(0.1 -0.1)">
       <use xlink:href="#DejaVuSans-30"/>
       <use xlink:href="#DejaVuSans-2e" x="63.623047"/>
       <use xlink:href="#DejaVuSans-32" x="95.410156"/>
      </g>
     </g>
    </g>
    <g id="ytick_3">
     <g id="line2d_12">
      <g>
       <use xlink:href="#m3f781a71d6" x="43.78125" y="179.583309" style="stroke: #000000; stroke-width: 0.8"/>
      </g>
     </g>
     <g id="text_13">
      <!-- 0.4 -->
      <g transform="translate(20.878125 183.382528)scale(0.1 -0.1)">
       <use xlink:href="#DejaVuSans-30"/>
       <use xlink:href="#DejaVuSans-2e" x="63.623047"/>
       <use xlink:href="#DejaVuSans-34" x="95.410156"/>
      </g>
     </g>
    </g>
    <g id="ytick_4">
     <g id="line2d_13">
      <g>
       <use xlink:href="#m3f781a71d6" x="43.78125" y="132.718964" style="stroke: #000000; stroke-width: 0.8"/>
      </g>
     </g>
     <g id="text_14">
      <!-- 0.6 -->
      <g transform="translate(20.878125 136.518183)scale(0.1 -0.1)">
       <use xlink:href="#DejaVuSans-30"/>
       <use xlink:href="#DejaVuSans-2e" x="63.623047"/>
       <use xlink:href="#DejaVuSans-36" x="95.410156"/>
      </g>
     </g>
    </g>
    <g id="ytick_5">
     <g id="line2d_14">
      <g>
       <use xlink:href="#m3f781a71d6" x="43.78125" y="85.854619" style="stroke: #000000; stroke-width: 0.8"/>
      </g>
     </g>
     <g id="text_15">
      <!-- 0.8 -->
      <g transform="translate(20.878125 89.653838)scale(0.1 -0.1)">
       <use xlink:href="#DejaVuSans-30"/>
       <use xlink:href="#DejaVuSans-2e" x="63.623047"/>
       <use xlink:href="#DejaVuSans-38" x="95.410156"/>
      </g>
     </g>
    </g>
    <g id="ytick_6">
     <g id="line2d_15">
      <g>
       <use xlink:href="#m3f781a71d6" x="43.78125" y="38.990274" style="stroke: #000000; stroke-width: 0.8"/>
      </g>
     </g>
     <g id="text_16">
      <!-- 1.0 -->
      <g transform="translate(20.878125 42.789492)scale(0.1 -0.1)">
       <use xlink:href="#DejaVuSans-31"/>
       <use xlink:href="#DejaVuSans-2e" x="63.623047"/>
       <use xlink:href="#DejaVuSans-30" x="95.410156"/>
      </g>
     </g>
    </g>
    <g id="text_17">
     <!-- Probability density -->
     <g transform="translate(14.798438 186.606781)rotate(-90)scale(0.1 -0.1)">
      <defs>
       <path id="DejaVuSans-50" d="M 1259 4147 
L 1259 2394 
L 2053 2394 
Q 2494 2394 2734 2622 
Q 2975 2850 2975 3272 
Q 2975 3691 2734 3919 
Q 2494 4147 2053 4147 
L 1259 4147 
z
M 628 4666 
L 2053 4666 
Q 2838 4666 3239 4311 
Q 3641 3956 3641 3272 
Q 3641 2581 3239 2228 
Q 2838 1875 2053 1875 
L 1259 1875 
L 1259 0 
L 628 0 
L 628 4666 
z
" transform="scale(0.015625)"/>
       <path id="DejaVuSans-62" d="M 3116 1747 
Q 3116 2381 2855 2742 
Q 2594 3103 2138 3103 
Q 1681 3103 1420 2742 
Q 1159 2381 1159 1747 
Q 1159 1113 1420 752 
Q 1681 391 2138 391 
Q 2594 391 2855 752 
Q 3116 1113 3116 1747 
z
M 1159 2969 
Q 1341 3281 1617 3432 
Q 1894 3584 2278 3584 
Q 2916 3584 3314 3078 
Q 3713 2572 3713 1747 
Q 3713 922 3314 415 
Q 2916 -91 2278 -91 
Q 1894 -91 1617 61 
Q 1341 213 1159 525 
L 1159 0 
L 581 0 
L 581 4863 
L 1159 4863 
L 1159 2969 
z
" transform="scale(0.015625)"/>
       <path id="DejaVuSans-79" d="M 2059 -325 
Q 1816 -950 1584 -1140 
Q 1353 -1331 966 -1331 
L 506 -1331 
L 506 -850 
L 844 -850 
Q 1081 -850 1212 -737 
Q 1344 -625 1503 -206 
L 1606 56 
L 191 3500 
L 800 3500 
L 1894 763 
L 2988 3500 
L 3597 3500 
L 2059 -325 
z
" transform="scale(0.015625)"/>
       <path id="DejaVuSans-73" d="M 2834 3397 
L 2834 2853 
Q 2591 2978 2328 3040 
Q 2066 3103 1784 3103 
Q 1356 3103 1142 2972 
Q 928 2841 928 2578 
Q 928 2378 1081 2264 
Q 1234 2150 1697 2047 
L 1894 2003 
Q 2506 1872 2764 1633 
Q 3022 1394 3022 966 
Q 3022 478 2636 193 
Q 2250 -91 1575 -91 
Q 1294 -91 989 -36 
Q 684 19 347 128 
L 347 722 
Q 666 556 975 473 
Q 1284 391 1588 391 
Q 1994 391 2212 530 
Q 2431 669 2431 922 
Q 2431 1156 2273 1281 
Q 2116 1406 1581 1522 
L 1381 1569 
Q 847 1681 609 1914 
Q 372 2147 372 2553 
Q 372 3047 722 3315 
Q 1072 3584 1716 3584 
Q 2034 3584 2315 3537 
Q 2597 3491 2834 3397 
z
" transform="scale(0.015625)"/>
      </defs>
      <use xlink:href="#DejaVuSans-50"/>
      <use xlink:href="#DejaVuSans-72" x="58.552734"/>
      <use xlink:href="#DejaVuSans-6f" x="97.416016"/>
      <use xlink:href="#DejaVuSans-62" x="158.597656"/>
      <use xlink:href="#DejaVuSans-61" x="222.074219"/>
      <use xlink:href="#DejaVuSans-62" x="283.353516"/>
      <use xlink:href="#DejaVuSans-69" x="346.830078"/>
      <use xlink:href="#DejaVuSans-6c" x="374.613281"/>
      <use xlink:href="#DejaVuSans-69" x="402.396484"/>
      <use xlink:href="#DejaVuSans-74" x="430.179688"/>
      <use xlink:href="#DejaVuSans-79" x="469.388672"/>
      <use xlink:href="#DejaVuSans-20" x="528.568359"/>
      <use xlink:href="#DejaVuSans-64" x="560.355469"/>
      <use xlink:href="#DejaVuSans-65" x="623.832031"/>
      <use xlink:href="#DejaVuSans-6e" x="685.355469"/>
      <use xlink:href="#DejaVuSans-73" x="748.734375"/>
      <use xlink:href="#DejaVuSans-69" x="800.833984"/>
      <use xlink:href="#DejaVuSans-74" x="828.617188"/>
      <use xlink:href="#DejaVuSans-79" x="867.826172"/>
     </g>
    </g>
   </g>
   <g id="line2d_16">
    <path d="M 60.013977 273.312 
L 79.837728 228.637474 
L 90.237073 205.754893 
L 99.01152 186.970209 
L 106.811029 170.790853 
L 113.960578 156.47036 
L 120.460169 143.935091 
L 126.63478 132.499725 
L 132.484411 122.12916 
L 138.009063 112.778867 
L 143.208736 104.397149 
L 148.408408 96.442979 
L 153.283101 89.392164 
L 157.832814 83.180261 
L 162.382528 77.336835 
L 166.607261 72.250642 
L 170.831995 67.500437 
L 175.056729 63.094159 
L 178.956483 59.338461 
L 182.856238 55.887441 
L 186.755992 52.746012 
L 190.330767 50.142164 
L 193.905542 47.805338 
L 197.480316 45.738329 
L 201.055091 43.943611 
L 204.304886 42.550147 
L 207.554682 41.384874 
L 210.804477 40.448943 
L 214.054272 39.74328 
L 217.304067 39.268584 
L 220.553863 39.025322 
L 223.803658 39.013736 
L 227.053453 39.233837 
L 230.303248 39.685408 
L 233.553044 40.368002 
L 236.802839 41.280943 
L 240.052634 42.42333 
L 243.302429 43.794033 
L 246.552225 45.391696 
L 250.126999 47.409372 
L 253.701774 49.697339 
L 257.276549 52.25286 
L 260.851324 55.072877 
L 264.751078 58.446943 
L 268.650832 62.126956 
L 272.550587 66.107675 
L 276.77532 70.752875 
L 281.000054 75.736566 
L 285.224788 81.05042 
L 289.774501 87.13207 
L 294.324215 93.574537 
L 299.198908 100.863378 
L 304.39858 109.060592 
L 309.598252 117.67355 
L 315.122904 127.255948 
L 320.972536 137.85629 
L 327.147147 149.51557 
L 333.646737 162.265007 
L 340.796287 176.794588 
L 348.595795 193.16925 
L 357.370243 212.131415 
L 367.769587 235.164772 
L 382.393666 268.154255 
L 384.668523 273.312 
L 384.668523 273.312 
" clip-path="url(#pffaaf49134)" style="fill: none; stroke: #ff7f0e; stroke-width: 1.5; stroke-linecap: square"/>
   </g>
   <g id="patch_203">
    <path d="M 43.78125 273.312 
L 43.78125 7.2 
" style="fill: none; stroke: #000000; stroke-width: 0.8; stroke-linejoin: miter; stroke-linecap: square"/>
   </g>
   <g id="patch_204">
    <path d="M 400.90125 273.312 
L 400.90125 7.2 
" style="fill: none; stroke: #000000; stroke-width: 0.8; stroke-linejoin: miter; stroke-linecap: square"/>
   </g>
   <g id="patch_205">
    <path d="M 43.78125 273.312 
L 400.90125 273.312 
" style="fill: none; stroke: #000000; stroke-width: 0.8; stroke-linejoin: miter; stroke-linecap: square"/>
   </g>
   <g id="patch_206">
    <path d="M 43.78125 7.2 
L 400.90125 7.2 
" style="fill: none; stroke: #000000; stroke-width: 0.8; stroke-linejoin: miter; stroke-linecap: square"/>
   </g>
  </g>
 </g>
 <defs>
  <clipPath id="pffaaf49134">
   <rect x="43.78125" y="7.2" width="357.12" height="266.112"/>
  </clipPath>
 </defs>
</svg>
