<?xml version="1.0" encoding="utf-8" standalone="no"?>
<!DOCTYPE svg PUBLIC "-//W3C//DTD SVG 1.1//EN"
  "http://www.w3.org/Graphics/SVG/1.1/DTD/svg11.dtd">
<svg xmlns:xlink="http://www.w3.org/1999/xlink" width="408.10125pt" height="310.86825pt" viewBox="0 0 408.10125 310.86825" xmlns="http://www.w3.org/2000/svg" version="1.1">
 <metadata>
  <rdf:RDF xmlns:dc="http://purl.org/dc/elements/1.1/" xmlns:cc="http://creativecommons.org/ns#" xmlns:rdf="http://www.w3.org/1999/02/22-rdf-syntax-ns#">
   <cc:Work>
    <dc:type rdf:resource="http://purl.org/dc/dcmitype/StillImage"/>
    <dc:date>2022-05-04T23:39:05.622191</dc:date>
    <dc:format>image/svg+xml</dc:format>
    <dc:creator>
     <cc:Agent>
      <dc:title>Matplotlib v3.5.2, https://matplotlib.org/</dc:title>
     </cc:Agent>
    </dc:creator>
   </cc:Work>
  </rdf:RDF>
 </metadata>
 <defs>
  <style type="text/css">*{stroke-linejoin: round; stroke-linecap: butt}</style>
 </defs>
 <g id="figure_1">
  <g id="patch_1">
   <path d="M 0 310.86825 
L 408.10125 310.86825 
L 408.10125 0 
L 0 0 
z
" style="fill: #ffffff"/>
  </g>
  <g id="axes_1">
   <g id="patch_2">
    <path d="M 43.78125 273.312 
L 400.90125 273.312 
L 400.90125 7.2 
L 43.78125 7.2 
z
" style="fill: #ffffff"/>
   </g>
   <g id="patch_3">
    <path d="M 61.092065 273.312 
L 62.704961 273.312 
L 62.704961 266.738628 
L 61.092065 266.738628 
z
" clip-path="url(#pff0f0cd809)" style="fill: #1f77b4"/>
   </g>
   <g id="patch_4">
    <path d="M 62.704961 273.312 
L 64.317857 273.312 
L 64.317857 265.277879 
L 62.704961 265.277879 
z
" clip-path="url(#pff0f0cd809)" style="fill: #1f77b4"/>
   </g>
   <g id="patch_5">
    <path d="M 64.317857 273.312 
L 65.930753 273.312 
L 65.930753 266.008254 
L 64.317857 266.008254 
z
" clip-path="url(#pff0f0cd809)" style="fill: #1f77b4"/>
   </g>
   <g id="patch_6">
    <path d="M 65.930753 273.312 
L 67.543649 273.312 
L 67.543649 252.86151 
L 65.930753 252.86151 
z
" clip-path="url(#pff0f0cd809)" style="fill: #1f77b4"/>
   </g>
   <g id="patch_7">
    <path d="M 67.543649 273.312 
L 69.156545 273.312 
L 69.156545 258.704507 
L 67.543649 258.704507 
z
" clip-path="url(#pff0f0cd809)" style="fill: #1f77b4"/>
   </g>
   <g id="patch_8">
    <path d="M 69.156545 273.312 
L 70.76944 273.312 
L 70.76944 253.591885 
L 69.156545 253.591885 
z
" clip-path="url(#pff0f0cd809)" style="fill: #1f77b4"/>
   </g>
   <g id="patch_9">
    <path d="M 70.76944 273.312 
L 72.382336 273.312 
L 72.382336 249.209637 
L 70.76944 249.209637 
z
" clip-path="url(#pff0f0cd809)" style="fill: #1f77b4"/>
   </g>
   <g id="patch_10">
    <path d="M 72.382336 273.312 
L 73.995232 273.312 
L 73.995232 242.636265 
L 72.382336 242.636265 
z
" clip-path="url(#pff0f0cd809)" style="fill: #1f77b4"/>
   </g>
   <g id="patch_11">
    <path d="M 73.995232 273.312 
L 75.608128 273.312 
L 75.608128 236.793268 
L 73.995232 236.793268 
z
" clip-path="url(#pff0f0cd809)" style="fill: #1f77b4"/>
   </g>
   <g id="patch_12">
    <path d="M 75.608128 273.312 
L 77.221024 273.312 
L 77.221024 231.680646 
L 75.608128 231.680646 
z
" clip-path="url(#pff0f0cd809)" style="fill: #1f77b4"/>
   </g>
   <g id="patch_13">
    <path d="M 77.221024 273.312 
L 78.83392 273.312 
L 78.83392 236.793268 
L 77.221024 236.793268 
z
" clip-path="url(#pff0f0cd809)" style="fill: #1f77b4"/>
   </g>
   <g id="patch_14">
    <path d="M 78.83392 273.312 
L 80.446815 273.312 
L 80.446815 236.793268 
L 78.83392 236.793268 
z
" clip-path="url(#pff0f0cd809)" style="fill: #1f77b4"/>
   </g>
   <g id="patch_15">
    <path d="M 80.446815 273.312 
L 82.059711 273.312 
L 82.059711 221.455401 
L 80.446815 221.455401 
z
" clip-path="url(#pff0f0cd809)" style="fill: #1f77b4"/>
   </g>
   <g id="patch_16">
    <path d="M 82.059711 273.312 
L 83.672607 273.312 
L 83.672607 218.533902 
L 82.059711 218.533902 
z
" clip-path="url(#pff0f0cd809)" style="fill: #1f77b4"/>
   </g>
   <g id="patch_17">
    <path d="M 83.672607 273.312 
L 85.285503 273.312 
L 85.285503 222.91615 
L 83.672607 222.91615 
z
" clip-path="url(#pff0f0cd809)" style="fill: #1f77b4"/>
   </g>
   <g id="patch_18">
    <path d="M 85.285503 273.312 
L 86.898399 273.312 
L 86.898399 220.725026 
L 85.285503 220.725026 
z
" clip-path="url(#pff0f0cd809)" style="fill: #1f77b4"/>
   </g>
   <g id="patch_19">
    <path d="M 86.898399 273.312 
L 88.511295 273.312 
L 88.511295 218.533902 
L 86.898399 218.533902 
z
" clip-path="url(#pff0f0cd809)" style="fill: #1f77b4"/>
   </g>
   <g id="patch_20">
    <path d="M 88.511295 273.312 
L 90.12419 273.312 
L 90.12419 202.46566 
L 88.511295 202.46566 
z
" clip-path="url(#pff0f0cd809)" style="fill: #1f77b4"/>
   </g>
   <g id="patch_21">
    <path d="M 90.12419 273.312 
L 91.737086 273.312 
L 91.737086 203.196035 
L 90.12419 203.196035 
z
" clip-path="url(#pff0f0cd809)" style="fill: #1f77b4"/>
   </g>
   <g id="patch_22">
    <path d="M 91.737086 273.312 
L 93.349982 273.312 
L 93.349982 202.46566 
L 91.737086 202.46566 
z
" clip-path="url(#pff0f0cd809)" style="fill: #1f77b4"/>
   </g>
   <g id="patch_23">
    <path d="M 93.349982 273.312 
L 94.962878 273.312 
L 94.962878 206.117533 
L 93.349982 206.117533 
z
" clip-path="url(#pff0f0cd809)" style="fill: #1f77b4"/>
   </g>
   <g id="patch_24">
    <path d="M 94.962878 273.312 
L 96.575774 273.312 
L 96.575774 200.274536 
L 94.962878 200.274536 
z
" clip-path="url(#pff0f0cd809)" style="fill: #1f77b4"/>
   </g>
   <g id="patch_25">
    <path d="M 96.575774 273.312 
L 98.18867 273.312 
L 98.18867 192.97079 
L 96.575774 192.97079 
z
" clip-path="url(#pff0f0cd809)" style="fill: #1f77b4"/>
   </g>
   <g id="patch_26">
    <path d="M 98.18867 273.312 
L 99.801565 273.312 
L 99.801565 187.858167 
L 98.18867 187.858167 
z
" clip-path="url(#pff0f0cd809)" style="fill: #1f77b4"/>
   </g>
   <g id="patch_27">
    <path d="M 99.801565 273.312 
L 101.414461 273.312 
L 101.414461 184.936669 
L 99.801565 184.936669 
z
" clip-path="url(#pff0f0cd809)" style="fill: #1f77b4"/>
   </g>
   <g id="patch_28">
    <path d="M 101.414461 273.312 
L 103.027357 273.312 
L 103.027357 184.206294 
L 101.414461 184.206294 
z
" clip-path="url(#pff0f0cd809)" style="fill: #1f77b4"/>
   </g>
   <g id="patch_29">
    <path d="M 103.027357 273.312 
L 104.640253 273.312 
L 104.640253 182.01517 
L 103.027357 182.01517 
z
" clip-path="url(#pff0f0cd809)" style="fill: #1f77b4"/>
   </g>
   <g id="patch_30">
    <path d="M 104.640253 273.312 
L 106.253149 273.312 
L 106.253149 168.138052 
L 104.640253 168.138052 
z
" clip-path="url(#pff0f0cd809)" style="fill: #1f77b4"/>
   </g>
   <g id="patch_31">
    <path d="M 106.253149 273.312 
L 107.866045 273.312 
L 107.866045 173.981049 
L 106.253149 173.981049 
z
" clip-path="url(#pff0f0cd809)" style="fill: #1f77b4"/>
   </g>
   <g id="patch_32">
    <path d="M 107.866045 273.312 
L 109.47894 273.312 
L 109.47894 168.868427 
L 107.866045 168.868427 
z
" clip-path="url(#pff0f0cd809)" style="fill: #1f77b4"/>
   </g>
   <g id="patch_33">
    <path d="M 109.47894 273.312 
L 111.091836 273.312 
L 111.091836 176.172173 
L 109.47894 176.172173 
z
" clip-path="url(#pff0f0cd809)" style="fill: #1f77b4"/>
   </g>
   <g id="patch_34">
    <path d="M 111.091836 273.312 
L 112.704732 273.312 
L 112.704732 146.957187 
L 111.091836 146.957187 
z
" clip-path="url(#pff0f0cd809)" style="fill: #1f77b4"/>
   </g>
   <g id="patch_35">
    <path d="M 112.704732 273.312 
L 114.317628 273.312 
L 114.317628 168.868427 
L 112.704732 168.868427 
z
" clip-path="url(#pff0f0cd809)" style="fill: #1f77b4"/>
   </g>
   <g id="patch_36">
    <path d="M 114.317628 273.312 
L 115.930524 273.312 
L 115.930524 158.643182 
L 114.317628 158.643182 
z
" clip-path="url(#pff0f0cd809)" style="fill: #1f77b4"/>
   </g>
   <g id="patch_37">
    <path d="M 115.930524 273.312 
L 117.54342 273.312 
L 117.54342 149.148311 
L 115.930524 149.148311 
z
" clip-path="url(#pff0f0cd809)" style="fill: #1f77b4"/>
   </g>
   <g id="patch_38">
    <path d="M 117.54342 273.312 
L 119.156315 273.312 
L 119.156315 154.991308 
L 117.54342 154.991308 
z
" clip-path="url(#pff0f0cd809)" style="fill: #1f77b4"/>
   </g>
   <g id="patch_39">
    <path d="M 119.156315 273.312 
L 120.769211 273.312 
L 120.769211 155.721683 
L 119.156315 155.721683 
z
" clip-path="url(#pff0f0cd809)" style="fill: #1f77b4"/>
   </g>
   <g id="patch_40">
    <path d="M 120.769211 273.312 
L 122.382107 273.312 
L 122.382107 130.888945 
L 120.769211 130.888945 
z
" clip-path="url(#pff0f0cd809)" style="fill: #1f77b4"/>
   </g>
   <g id="patch_41">
    <path d="M 122.382107 273.312 
L 123.995003 273.312 
L 123.995003 155.721683 
L 122.382107 155.721683 
z
" clip-path="url(#pff0f0cd809)" style="fill: #1f77b4"/>
   </g>
   <g id="patch_42">
    <path d="M 123.995003 273.312 
L 125.607899 273.312 
L 125.607899 141.844565 
L 123.995003 141.844565 
z
" clip-path="url(#pff0f0cd809)" style="fill: #1f77b4"/>
   </g>
   <g id="patch_43">
    <path d="M 125.607899 273.312 
L 127.220795 273.312 
L 127.220795 133.810444 
L 125.607899 133.810444 
z
" clip-path="url(#pff0f0cd809)" style="fill: #1f77b4"/>
   </g>
   <g id="patch_44">
    <path d="M 127.220795 273.312 
L 128.833691 273.312 
L 128.833691 120.6637 
L 127.220795 120.6637 
z
" clip-path="url(#pff0f0cd809)" style="fill: #1f77b4"/>
   </g>
   <g id="patch_45">
    <path d="M 128.833691 273.312 
L 130.446586 273.312 
L 130.446586 136.731942 
L 128.833691 136.731942 
z
" clip-path="url(#pff0f0cd809)" style="fill: #1f77b4"/>
   </g>
   <g id="patch_46">
    <path d="M 130.446586 273.312 
L 132.059482 273.312 
L 132.059482 129.428196 
L 130.446586 129.428196 
z
" clip-path="url(#pff0f0cd809)" style="fill: #1f77b4"/>
   </g>
   <g id="patch_47">
    <path d="M 132.059482 273.312 
L 133.672378 273.312 
L 133.672378 127.967447 
L 132.059482 127.967447 
z
" clip-path="url(#pff0f0cd809)" style="fill: #1f77b4"/>
   </g>
   <g id="patch_48">
    <path d="M 133.672378 273.312 
L 135.285274 273.312 
L 135.285274 133.810444 
L 133.672378 133.810444 
z
" clip-path="url(#pff0f0cd809)" style="fill: #1f77b4"/>
   </g>
   <g id="patch_49">
    <path d="M 135.285274 273.312 
L 136.89817 273.312 
L 136.89817 122.854824 
L 135.285274 122.854824 
z
" clip-path="url(#pff0f0cd809)" style="fill: #1f77b4"/>
   </g>
   <g id="patch_50">
    <path d="M 136.89817 273.312 
L 138.511066 273.312 
L 138.511066 108.977706 
L 136.89817 108.977706 
z
" clip-path="url(#pff0f0cd809)" style="fill: #1f77b4"/>
   </g>
   <g id="patch_51">
    <path d="M 138.511066 273.312 
L 140.123961 273.312 
L 140.123961 89.987965 
L 138.511066 89.987965 
z
" clip-path="url(#pff0f0cd809)" style="fill: #1f77b4"/>
   </g>
   <g id="patch_52">
    <path d="M 140.123961 273.312 
L 141.736857 273.312 
L 141.736857 92.909464 
L 140.123961 92.909464 
z
" clip-path="url(#pff0f0cd809)" style="fill: #1f77b4"/>
   </g>
   <g id="patch_53">
    <path d="M 141.736857 273.312 
L 143.349753 273.312 
L 143.349753 95.830963 
L 141.736857 95.830963 
z
" clip-path="url(#pff0f0cd809)" style="fill: #1f77b4"/>
   </g>
   <g id="patch_54">
    <path d="M 143.349753 273.312 
L 144.962649 273.312 
L 144.962649 119.933326 
L 143.349753 119.933326 
z
" clip-path="url(#pff0f0cd809)" style="fill: #1f77b4"/>
   </g>
   <g id="patch_55">
    <path d="M 144.962649 273.312 
L 146.575545 273.312 
L 146.575545 112.629579 
L 144.962649 112.629579 
z
" clip-path="url(#pff0f0cd809)" style="fill: #1f77b4"/>
   </g>
   <g id="patch_56">
    <path d="M 146.575545 273.312 
L 148.188441 273.312 
L 148.188441 127.967447 
L 146.575545 127.967447 
z
" clip-path="url(#pff0f0cd809)" style="fill: #1f77b4"/>
   </g>
   <g id="patch_57">
    <path d="M 148.188441 273.312 
L 149.801336 273.312 
L 149.801336 89.987965 
L 148.188441 89.987965 
z
" clip-path="url(#pff0f0cd809)" style="fill: #1f77b4"/>
   </g>
   <g id="patch_58">
    <path d="M 149.801336 273.312 
L 151.414232 273.312 
L 151.414232 78.301971 
L 149.801336 78.301971 
z
" clip-path="url(#pff0f0cd809)" style="fill: #1f77b4"/>
   </g>
   <g id="patch_59">
    <path d="M 151.414232 273.312 
L 153.027128 273.312 
L 153.027128 95.830963 
L 151.414232 95.830963 
z
" clip-path="url(#pff0f0cd809)" style="fill: #1f77b4"/>
   </g>
   <g id="patch_60">
    <path d="M 153.027128 273.312 
L 154.640024 273.312 
L 154.640024 84.875343 
L 153.027128 84.875343 
z
" clip-path="url(#pff0f0cd809)" style="fill: #1f77b4"/>
   </g>
   <g id="patch_61">
    <path d="M 154.640024 273.312 
L 156.25292 273.312 
L 156.25292 90.71834 
L 154.640024 90.71834 
z
" clip-path="url(#pff0f0cd809)" style="fill: #1f77b4"/>
   </g>
   <g id="patch_62">
    <path d="M 156.25292 273.312 
L 157.865816 273.312 
L 157.865816 89.257591 
L 156.25292 89.257591 
z
" clip-path="url(#pff0f0cd809)" style="fill: #1f77b4"/>
   </g>
   <g id="patch_63">
    <path d="M 157.865816 273.312 
L 159.478711 273.312 
L 159.478711 67.346352 
L 157.865816 67.346352 
z
" clip-path="url(#pff0f0cd809)" style="fill: #1f77b4"/>
   </g>
   <g id="patch_64">
    <path d="M 159.478711 273.312 
L 161.091607 273.312 
L 161.091607 81.953844 
L 159.478711 81.953844 
z
" clip-path="url(#pff0f0cd809)" style="fill: #1f77b4"/>
   </g>
   <g id="patch_65">
    <path d="M 161.091607 273.312 
L 162.704503 273.312 
L 162.704503 91.448715 
L 161.091607 91.448715 
z
" clip-path="url(#pff0f0cd809)" style="fill: #1f77b4"/>
   </g>
   <g id="patch_66">
    <path d="M 162.704503 273.312 
L 164.317399 273.312 
L 164.317399 72.458974 
L 162.704503 72.458974 
z
" clip-path="url(#pff0f0cd809)" style="fill: #1f77b4"/>
   </g>
   <g id="patch_67">
    <path d="M 164.317399 273.312 
L 165.930295 273.312 
L 165.930295 108.977706 
L 164.317399 108.977706 
z
" clip-path="url(#pff0f0cd809)" style="fill: #1f77b4"/>
   </g>
   <g id="patch_68">
    <path d="M 165.930295 273.312 
L 167.543191 273.312 
L 167.543191 81.22347 
L 165.930295 81.22347 
z
" clip-path="url(#pff0f0cd809)" style="fill: #1f77b4"/>
   </g>
   <g id="patch_69">
    <path d="M 167.543191 273.312 
L 169.156086 273.312 
L 169.156086 69.537476 
L 167.543191 69.537476 
z
" clip-path="url(#pff0f0cd809)" style="fill: #1f77b4"/>
   </g>
   <g id="patch_70">
    <path d="M 169.156086 273.312 
L 170.768982 273.312 
L 170.768982 75.380473 
L 169.156086 75.380473 
z
" clip-path="url(#pff0f0cd809)" style="fill: #1f77b4"/>
   </g>
   <g id="patch_71">
    <path d="M 170.768982 273.312 
L 172.381878 273.312 
L 172.381878 71.728599 
L 170.768982 71.728599 
z
" clip-path="url(#pff0f0cd809)" style="fill: #1f77b4"/>
   </g>
   <g id="patch_72">
    <path d="M 172.381878 273.312 
L 173.994774 273.312 
L 173.994774 75.380473 
L 172.381878 75.380473 
z
" clip-path="url(#pff0f0cd809)" style="fill: #1f77b4"/>
   </g>
   <g id="patch_73">
    <path d="M 173.994774 273.312 
L 175.60767 273.312 
L 175.60767 76.841222 
L 173.994774 76.841222 
z
" clip-path="url(#pff0f0cd809)" style="fill: #1f77b4"/>
   </g>
   <g id="patch_74">
    <path d="M 175.60767 273.312 
L 177.220566 273.312 
L 177.220566 74.650098 
L 175.60767 74.650098 
z
" clip-path="url(#pff0f0cd809)" style="fill: #1f77b4"/>
   </g>
   <g id="patch_75">
    <path d="M 177.220566 273.312 
L 178.833462 273.312 
L 178.833462 62.964104 
L 177.220566 62.964104 
z
" clip-path="url(#pff0f0cd809)" style="fill: #1f77b4"/>
   </g>
   <g id="patch_76">
    <path d="M 178.833462 273.312 
L 180.446357 273.312 
L 180.446357 62.964104 
L 178.833462 62.964104 
z
" clip-path="url(#pff0f0cd809)" style="fill: #1f77b4"/>
   </g>
   <g id="patch_77">
    <path d="M 180.446357 273.312 
L 182.059253 273.312 
L 182.059253 73.919723 
L 180.446357 73.919723 
z
" clip-path="url(#pff0f0cd809)" style="fill: #1f77b4"/>
   </g>
   <g id="patch_78">
    <path d="M 182.059253 273.312 
L 183.672149 273.312 
L 183.672149 79.032346 
L 182.059253 79.032346 
z
" clip-path="url(#pff0f0cd809)" style="fill: #1f77b4"/>
   </g>
   <g id="patch_79">
    <path d="M 183.672149 273.312 
L 185.285045 273.312 
L 185.285045 54.929983 
L 183.672149 54.929983 
z
" clip-path="url(#pff0f0cd809)" style="fill: #1f77b4"/>
   </g>
   <g id="patch_80">
    <path d="M 185.285045 273.312 
L 186.897941 273.312 
L 186.897941 43.974363 
L 185.285045 43.974363 
z
" clip-path="url(#pff0f0cd809)" style="fill: #1f77b4"/>
   </g>
   <g id="patch_81">
    <path d="M 186.897941 273.312 
L 188.510837 273.312 
L 188.510837 64.424853 
L 186.897941 64.424853 
z
" clip-path="url(#pff0f0cd809)" style="fill: #1f77b4"/>
   </g>
   <g id="patch_82">
    <path d="M 188.510837 273.312 
L 190.123732 273.312 
L 190.123732 58.581856 
L 188.510837 58.581856 
z
" clip-path="url(#pff0f0cd809)" style="fill: #1f77b4"/>
   </g>
   <g id="patch_83">
    <path d="M 190.123732 273.312 
L 191.736628 273.312 
L 191.736628 62.233729 
L 190.123732 62.233729 
z
" clip-path="url(#pff0f0cd809)" style="fill: #1f77b4"/>
   </g>
   <g id="patch_84">
    <path d="M 191.736628 273.312 
L 193.349524 273.312 
L 193.349524 65.155228 
L 191.736628 65.155228 
z
" clip-path="url(#pff0f0cd809)" style="fill: #1f77b4"/>
   </g>
   <g id="patch_85">
    <path d="M 193.349524 273.312 
L 194.96242 273.312 
L 194.96242 31.557994 
L 193.349524 31.557994 
z
" clip-path="url(#pff0f0cd809)" style="fill: #1f77b4"/>
   </g>
   <g id="patch_86">
    <path d="M 194.96242 273.312 
L 196.575316 273.312 
L 196.575316 39.592115 
L 194.96242 39.592115 
z
" clip-path="url(#pff0f0cd809)" style="fill: #1f77b4"/>
   </g>
   <g id="patch_87">
    <path d="M 196.575316 273.312 
L 198.188212 273.312 
L 198.188212 49.81736 
L 196.575316 49.81736 
z
" clip-path="url(#pff0f0cd809)" style="fill: #1f77b4"/>
   </g>
   <g id="patch_88">
    <path d="M 198.188212 273.312 
L 199.801107 273.312 
L 199.801107 39.592115 
L 198.188212 39.592115 
z
" clip-path="url(#pff0f0cd809)" style="fill: #1f77b4"/>
   </g>
   <g id="patch_89">
    <path d="M 199.801107 273.312 
L 201.414003 273.312 
L 201.414003 55.660357 
L 199.801107 55.660357 
z
" clip-path="url(#pff0f0cd809)" style="fill: #1f77b4"/>
   </g>
   <g id="patch_90">
    <path d="M 201.414003 273.312 
L 203.026899 273.312 
L 203.026899 49.81736 
L 201.414003 49.81736 
z
" clip-path="url(#pff0f0cd809)" style="fill: #1f77b4"/>
   </g>
   <g id="patch_91">
    <path d="M 203.026899 273.312 
L 204.639795 273.312 
L 204.639795 61.503354 
L 203.026899 61.503354 
z
" clip-path="url(#pff0f0cd809)" style="fill: #1f77b4"/>
   </g>
   <g id="patch_92">
    <path d="M 204.639795 273.312 
L 206.252691 273.312 
L 206.252691 81.22347 
L 204.639795 81.22347 
z
" clip-path="url(#pff0f0cd809)" style="fill: #1f77b4"/>
   </g>
   <g id="patch_93">
    <path d="M 206.252691 273.312 
L 207.865587 273.312 
L 207.865587 54.929983 
L 206.252691 54.929983 
z
" clip-path="url(#pff0f0cd809)" style="fill: #1f77b4"/>
   </g>
   <g id="patch_94">
    <path d="M 207.865587 273.312 
L 209.478482 273.312 
L 209.478482 39.592115 
L 207.865587 39.592115 
z
" clip-path="url(#pff0f0cd809)" style="fill: #1f77b4"/>
   </g>
   <g id="patch_95">
    <path d="M 209.478482 273.312 
L 211.091378 273.312 
L 211.091378 47.626236 
L 209.478482 47.626236 
z
" clip-path="url(#pff0f0cd809)" style="fill: #1f77b4"/>
   </g>
   <g id="patch_96">
    <path d="M 211.091378 273.312 
L 212.704274 273.312 
L 212.704274 41.052865 
L 211.091378 41.052865 
z
" clip-path="url(#pff0f0cd809)" style="fill: #1f77b4"/>
   </g>
   <g id="patch_97">
    <path d="M 212.704274 273.312 
L 214.31717 273.312 
L 214.31717 44.704738 
L 212.704274 44.704738 
z
" clip-path="url(#pff0f0cd809)" style="fill: #1f77b4"/>
   </g>
   <g id="patch_98">
    <path d="M 214.31717 273.312 
L 215.930066 273.312 
L 215.930066 52.738859 
L 214.31717 52.738859 
z
" clip-path="url(#pff0f0cd809)" style="fill: #1f77b4"/>
   </g>
   <g id="patch_99">
    <path d="M 215.930066 273.312 
L 217.542962 273.312 
L 217.542962 35.209867 
L 215.930066 35.209867 
z
" clip-path="url(#pff0f0cd809)" style="fill: #1f77b4"/>
   </g>
   <g id="patch_100">
    <path d="M 217.542962 273.312 
L 219.155857 273.312 
L 219.155857 37.400991 
L 217.542962 37.400991 
z
" clip-path="url(#pff0f0cd809)" style="fill: #1f77b4"/>
   </g>
   <g id="patch_101">
    <path d="M 219.155857 273.312 
L 220.768753 273.312 
L 220.768753 23.523873 
L 219.155857 23.523873 
z
" clip-path="url(#pff0f0cd809)" style="fill: #1f77b4"/>
   </g>
   <g id="patch_102">
    <path d="M 220.768753 273.312 
L 222.381649 273.312 
L 222.381649 49.086986 
L 220.768753 49.086986 
z
" clip-path="url(#pff0f0cd809)" style="fill: #1f77b4"/>
   </g>
   <g id="patch_103">
    <path d="M 222.381649 273.312 
L 223.994545 273.312 
L 223.994545 51.27811 
L 222.381649 51.27811 
z
" clip-path="url(#pff0f0cd809)" style="fill: #1f77b4"/>
   </g>
   <g id="patch_104">
    <path d="M 223.994545 273.312 
L 225.607441 273.312 
L 225.607441 35.940242 
L 223.994545 35.940242 
z
" clip-path="url(#pff0f0cd809)" style="fill: #1f77b4"/>
   </g>
   <g id="patch_105">
    <path d="M 225.607441 273.312 
L 227.220337 273.312 
L 227.220337 19.872 
L 225.607441 19.872 
z
" clip-path="url(#pff0f0cd809)" style="fill: #1f77b4"/>
   </g>
   <g id="patch_106">
    <path d="M 227.220337 273.312 
L 228.833232 273.312 
L 228.833232 65.885602 
L 227.220337 65.885602 
z
" clip-path="url(#pff0f0cd809)" style="fill: #1f77b4"/>
   </g>
   <g id="patch_107">
    <path d="M 228.833232 273.312 
L 230.446128 273.312 
L 230.446128 36.670617 
L 228.833232 36.670617 
z
" clip-path="url(#pff0f0cd809)" style="fill: #1f77b4"/>
   </g>
   <g id="patch_108">
    <path d="M 230.446128 273.312 
L 232.059024 273.312 
L 232.059024 43.243988 
L 230.446128 43.243988 
z
" clip-path="url(#pff0f0cd809)" style="fill: #1f77b4"/>
   </g>
   <g id="patch_109">
    <path d="M 232.059024 273.312 
L 233.67192 273.312 
L 233.67192 52.738859 
L 232.059024 52.738859 
z
" clip-path="url(#pff0f0cd809)" style="fill: #1f77b4"/>
   </g>
   <g id="patch_110">
    <path d="M 233.67192 273.312 
L 235.284816 273.312 
L 235.284816 56.390732 
L 233.67192 56.390732 
z
" clip-path="url(#pff0f0cd809)" style="fill: #1f77b4"/>
   </g>
   <g id="patch_111">
    <path d="M 235.284816 273.312 
L 236.897712 273.312 
L 236.897712 70.998225 
L 235.284816 70.998225 
z
" clip-path="url(#pff0f0cd809)" style="fill: #1f77b4"/>
   </g>
   <g id="patch_112">
    <path d="M 236.897712 273.312 
L 238.510608 273.312 
L 238.510608 58.581856 
L 236.897712 58.581856 
z
" clip-path="url(#pff0f0cd809)" style="fill: #1f77b4"/>
   </g>
   <g id="patch_113">
    <path d="M 238.510608 273.312 
L 240.123503 273.312 
L 240.123503 70.998225 
L 238.510608 70.998225 
z
" clip-path="url(#pff0f0cd809)" style="fill: #1f77b4"/>
   </g>
   <g id="patch_114">
    <path d="M 240.123503 273.312 
L 241.736399 273.312 
L 241.736399 30.82762 
L 240.123503 30.82762 
z
" clip-path="url(#pff0f0cd809)" style="fill: #1f77b4"/>
   </g>
   <g id="patch_115">
    <path d="M 241.736399 273.312 
L 243.349295 273.312 
L 243.349295 59.312231 
L 241.736399 59.312231 
z
" clip-path="url(#pff0f0cd809)" style="fill: #1f77b4"/>
   </g>
   <g id="patch_116">
    <path d="M 243.349295 273.312 
L 244.962191 273.312 
L 244.962191 33.749118 
L 243.349295 33.749118 
z
" clip-path="url(#pff0f0cd809)" style="fill: #1f77b4"/>
   </g>
   <g id="patch_117">
    <path d="M 244.962191 273.312 
L 246.575087 273.312 
L 246.575087 53.469233 
L 244.962191 53.469233 
z
" clip-path="url(#pff0f0cd809)" style="fill: #1f77b4"/>
   </g>
   <g id="patch_118">
    <path d="M 246.575087 273.312 
L 248.187983 273.312 
L 248.187983 49.81736 
L 246.575087 49.81736 
z
" clip-path="url(#pff0f0cd809)" style="fill: #1f77b4"/>
   </g>
   <g id="patch_119">
    <path d="M 248.187983 273.312 
L 249.800878 273.312 
L 249.800878 31.557994 
L 248.187983 31.557994 
z
" clip-path="url(#pff0f0cd809)" style="fill: #1f77b4"/>
   </g>
   <g id="patch_120">
    <path d="M 249.800878 273.312 
L 251.413774 273.312 
L 251.413774 54.929983 
L 249.800878 54.929983 
z
" clip-path="url(#pff0f0cd809)" style="fill: #1f77b4"/>
   </g>
   <g id="patch_121">
    <path d="M 251.413774 273.312 
L 253.02667 273.312 
L 253.02667 85.605718 
L 251.413774 85.605718 
z
" clip-path="url(#pff0f0cd809)" style="fill: #1f77b4"/>
   </g>
   <g id="patch_122">
    <path d="M 253.02667 273.312 
L 254.639566 273.312 
L 254.639566 74.650098 
L 253.02667 74.650098 
z
" clip-path="url(#pff0f0cd809)" style="fill: #1f77b4"/>
   </g>
   <g id="patch_123">
    <path d="M 254.639566 273.312 
L 256.252462 273.312 
L 256.252462 66.615977 
L 254.639566 66.615977 
z
" clip-path="url(#pff0f0cd809)" style="fill: #1f77b4"/>
   </g>
   <g id="patch_124">
    <path d="M 256.252462 273.312 
L 257.865358 273.312 
L 257.865358 66.615977 
L 256.252462 66.615977 
z
" clip-path="url(#pff0f0cd809)" style="fill: #1f77b4"/>
   </g>
   <g id="patch_125">
    <path d="M 257.865358 273.312 
L 259.478253 273.312 
L 259.478253 35.209867 
L 257.865358 35.209867 
z
" clip-path="url(#pff0f0cd809)" style="fill: #1f77b4"/>
   </g>
   <g id="patch_126">
    <path d="M 259.478253 273.312 
L 261.091149 273.312 
L 261.091149 38.861741 
L 259.478253 38.861741 
z
" clip-path="url(#pff0f0cd809)" style="fill: #1f77b4"/>
   </g>
   <g id="patch_127">
    <path d="M 261.091149 273.312 
L 262.704045 273.312 
L 262.704045 56.390732 
L 261.091149 56.390732 
z
" clip-path="url(#pff0f0cd809)" style="fill: #1f77b4"/>
   </g>
   <g id="patch_128">
    <path d="M 262.704045 273.312 
L 264.316941 273.312 
L 264.316941 75.380473 
L 262.704045 75.380473 
z
" clip-path="url(#pff0f0cd809)" style="fill: #1f77b4"/>
   </g>
   <g id="patch_129">
    <path d="M 264.316941 273.312 
L 265.929837 273.312 
L 265.929837 76.110847 
L 264.316941 76.110847 
z
" clip-path="url(#pff0f0cd809)" style="fill: #1f77b4"/>
   </g>
   <g id="patch_130">
    <path d="M 265.929837 273.312 
L 267.542733 273.312 
L 267.542733 82.684219 
L 265.929837 82.684219 
z
" clip-path="url(#pff0f0cd809)" style="fill: #1f77b4"/>
   </g>
   <g id="patch_131">
    <path d="M 267.542733 273.312 
L 269.155628 273.312 
L 269.155628 74.650098 
L 267.542733 74.650098 
z
" clip-path="url(#pff0f0cd809)" style="fill: #1f77b4"/>
   </g>
   <g id="patch_132">
    <path d="M 269.155628 273.312 
L 270.768524 273.312 
L 270.768524 68.076726 
L 269.155628 68.076726 
z
" clip-path="url(#pff0f0cd809)" style="fill: #1f77b4"/>
   </g>
   <g id="patch_133">
    <path d="M 270.768524 273.312 
L 272.38142 273.312 
L 272.38142 60.042605 
L 270.768524 60.042605 
z
" clip-path="url(#pff0f0cd809)" style="fill: #1f77b4"/>
   </g>
   <g id="patch_134">
    <path d="M 272.38142 273.312 
L 273.994316 273.312 
L 273.994316 79.032346 
L 272.38142 79.032346 
z
" clip-path="url(#pff0f0cd809)" style="fill: #1f77b4"/>
   </g>
   <g id="patch_135">
    <path d="M 273.994316 273.312 
L 275.607212 273.312 
L 275.607212 65.885602 
L 273.994316 65.885602 
z
" clip-path="url(#pff0f0cd809)" style="fill: #1f77b4"/>
   </g>
   <g id="patch_136">
    <path d="M 275.607212 273.312 
L 277.220108 273.312 
L 277.220108 91.448715 
L 275.607212 91.448715 
z
" clip-path="url(#pff0f0cd809)" style="fill: #1f77b4"/>
   </g>
   <g id="patch_137">
    <path d="M 277.220108 273.312 
L 278.833003 273.312 
L 278.833003 65.885602 
L 277.220108 65.885602 
z
" clip-path="url(#pff0f0cd809)" style="fill: #1f77b4"/>
   </g>
   <g id="patch_138">
    <path d="M 278.833003 273.312 
L 280.445899 273.312 
L 280.445899 81.953844 
L 278.833003 81.953844 
z
" clip-path="url(#pff0f0cd809)" style="fill: #1f77b4"/>
   </g>
   <g id="patch_139">
    <path d="M 280.445899 273.312 
L 282.058795 273.312 
L 282.058795 72.458974 
L 280.445899 72.458974 
z
" clip-path="url(#pff0f0cd809)" style="fill: #1f77b4"/>
   </g>
   <g id="patch_140">
    <path d="M 282.058795 273.312 
L 283.671691 273.312 
L 283.671691 95.830963 
L 282.058795 95.830963 
z
" clip-path="url(#pff0f0cd809)" style="fill: #1f77b4"/>
   </g>
   <g id="patch_141">
    <path d="M 283.671691 273.312 
L 285.284587 273.312 
L 285.284587 91.448715 
L 283.671691 91.448715 
z
" clip-path="url(#pff0f0cd809)" style="fill: #1f77b4"/>
   </g>
   <g id="patch_142">
    <path d="M 285.284587 273.312 
L 286.897483 273.312 
L 286.897483 83.414594 
L 285.284587 83.414594 
z
" clip-path="url(#pff0f0cd809)" style="fill: #1f77b4"/>
   </g>
   <g id="patch_143">
    <path d="M 286.897483 273.312 
L 288.510379 273.312 
L 288.510379 90.71834 
L 286.897483 90.71834 
z
" clip-path="url(#pff0f0cd809)" style="fill: #1f77b4"/>
   </g>
   <g id="patch_144">
    <path d="M 288.510379 273.312 
L 290.123274 273.312 
L 290.123274 98.752461 
L 288.510379 98.752461 
z
" clip-path="url(#pff0f0cd809)" style="fill: #1f77b4"/>
   </g>
   <g id="patch_145">
    <path d="M 290.123274 273.312 
L 291.73617 273.312 
L 291.73617 92.909464 
L 290.123274 92.909464 
z
" clip-path="url(#pff0f0cd809)" style="fill: #1f77b4"/>
   </g>
   <g id="patch_146">
    <path d="M 291.73617 273.312 
L 293.349066 273.312 
L 293.349066 100.21321 
L 291.73617 100.21321 
z
" clip-path="url(#pff0f0cd809)" style="fill: #1f77b4"/>
   </g>
   <g id="patch_147">
    <path d="M 293.349066 273.312 
L 294.961962 273.312 
L 294.961962 107.516957 
L 293.349066 107.516957 
z
" clip-path="url(#pff0f0cd809)" style="fill: #1f77b4"/>
   </g>
   <g id="patch_148">
    <path d="M 294.961962 273.312 
L 296.574858 273.312 
L 296.574858 95.830963 
L 294.961962 95.830963 
z
" clip-path="url(#pff0f0cd809)" style="fill: #1f77b4"/>
   </g>
   <g id="patch_149">
    <path d="M 296.574858 273.312 
L 298.187754 273.312 
L 298.187754 100.21321 
L 296.574858 100.21321 
z
" clip-path="url(#pff0f0cd809)" style="fill: #1f77b4"/>
   </g>
   <g id="patch_150">
    <path d="M 298.187754 273.312 
L 299.800649 273.312 
L 299.800649 109.708081 
L 298.187754 109.708081 
z
" clip-path="url(#pff0f0cd809)" style="fill: #1f77b4"/>
   </g>
   <g id="patch_151">
    <path d="M 299.800649 273.312 
L 301.413545 273.312 
L 301.413545 123.585199 
L 299.800649 123.585199 
z
" clip-path="url(#pff0f0cd809)" style="fill: #1f77b4"/>
   </g>
   <g id="patch_152">
    <path d="M 301.413545 273.312 
L 303.026441 273.312 
L 303.026441 94.370213 
L 301.413545 94.370213 
z
" clip-path="url(#pff0f0cd809)" style="fill: #1f77b4"/>
   </g>
   <g id="patch_153">
    <path d="M 303.026441 273.312 
L 304.639337 273.312 
L 304.639337 103.865084 
L 303.026441 103.865084 
z
" clip-path="url(#pff0f0cd809)" style="fill: #1f77b4"/>
   </g>
   <g id="patch_154">
    <path d="M 304.639337 273.312 
L 306.252233 273.312 
L 306.252233 129.428196 
L 304.639337 129.428196 
z
" clip-path="url(#pff0f0cd809)" style="fill: #1f77b4"/>
   </g>
   <g id="patch_155">
    <path d="M 306.252233 273.312 
L 307.865129 273.312 
L 307.865129 116.281452 
L 306.252233 116.281452 
z
" clip-path="url(#pff0f0cd809)" style="fill: #1f77b4"/>
   </g>
   <g id="patch_156">
    <path d="M 307.865129 273.312 
L 309.478024 273.312 
L 309.478024 120.6637 
L 307.865129 120.6637 
z
" clip-path="url(#pff0f0cd809)" style="fill: #1f77b4"/>
   </g>
   <g id="patch_157">
    <path d="M 309.478024 273.312 
L 311.09092 273.312 
L 311.09092 130.888945 
L 309.478024 130.888945 
z
" clip-path="url(#pff0f0cd809)" style="fill: #1f77b4"/>
   </g>
   <g id="patch_158">
    <path d="M 311.09092 273.312 
L 312.703816 273.312 
L 312.703816 125.045948 
L 311.09092 125.045948 
z
" clip-path="url(#pff0f0cd809)" style="fill: #1f77b4"/>
   </g>
   <g id="patch_159">
    <path d="M 312.703816 273.312 
L 314.316712 273.312 
L 314.316712 139.653441 
L 312.703816 139.653441 
z
" clip-path="url(#pff0f0cd809)" style="fill: #1f77b4"/>
   </g>
   <g id="patch_160">
    <path d="M 314.316712 273.312 
L 315.929608 273.312 
L 315.929608 121.394075 
L 314.316712 121.394075 
z
" clip-path="url(#pff0f0cd809)" style="fill: #1f77b4"/>
   </g>
   <g id="patch_161">
    <path d="M 315.929608 273.312 
L 317.542504 273.312 
L 317.542504 126.506697 
L 315.929608 126.506697 
z
" clip-path="url(#pff0f0cd809)" style="fill: #1f77b4"/>
   </g>
   <g id="patch_162">
    <path d="M 317.542504 273.312 
L 319.155399 273.312 
L 319.155399 130.888945 
L 317.542504 130.888945 
z
" clip-path="url(#pff0f0cd809)" style="fill: #1f77b4"/>
   </g>
   <g id="patch_163">
    <path d="M 319.155399 273.312 
L 320.768295 273.312 
L 320.768295 142.574939 
L 319.155399 142.574939 
z
" clip-path="url(#pff0f0cd809)" style="fill: #1f77b4"/>
   </g>
   <g id="patch_164">
    <path d="M 320.768295 273.312 
L 322.381191 273.312 
L 322.381191 146.226813 
L 320.768295 146.226813 
z
" clip-path="url(#pff0f0cd809)" style="fill: #1f77b4"/>
   </g>
   <g id="patch_165">
    <path d="M 322.381191 273.312 
L 323.994087 273.312 
L 323.994087 152.800184 
L 322.381191 152.800184 
z
" clip-path="url(#pff0f0cd809)" style="fill: #1f77b4"/>
   </g>
   <g id="patch_166">
    <path d="M 323.994087 273.312 
L 325.606983 273.312 
L 325.606983 132.349695 
L 323.994087 132.349695 
z
" clip-path="url(#pff0f0cd809)" style="fill: #1f77b4"/>
   </g>
   <g id="patch_167">
    <path d="M 325.606983 273.312 
L 327.219879 273.312 
L 327.219879 136.001568 
L 325.606983 136.001568 
z
" clip-path="url(#pff0f0cd809)" style="fill: #1f77b4"/>
   </g>
   <g id="patch_168">
    <path d="M 327.219879 273.312 
L 328.832774 273.312 
L 328.832774 164.486179 
L 327.219879 164.486179 
z
" clip-path="url(#pff0f0cd809)" style="fill: #1f77b4"/>
   </g>
   <g id="patch_169">
    <path d="M 328.832774 273.312 
L 330.44567 273.312 
L 330.44567 158.643182 
L 328.832774 158.643182 
z
" clip-path="url(#pff0f0cd809)" style="fill: #1f77b4"/>
   </g>
   <g id="patch_170">
    <path d="M 330.44567 273.312 
L 332.058566 273.312 
L 332.058566 145.496438 
L 330.44567 145.496438 
z
" clip-path="url(#pff0f0cd809)" style="fill: #1f77b4"/>
   </g>
   <g id="patch_171">
    <path d="M 332.058566 273.312 
L 333.671462 273.312 
L 333.671462 149.878686 
L 332.058566 149.878686 
z
" clip-path="url(#pff0f0cd809)" style="fill: #1f77b4"/>
   </g>
   <g id="patch_172">
    <path d="M 333.671462 273.312 
L 335.284358 273.312 
L 335.284358 150.609061 
L 333.671462 150.609061 
z
" clip-path="url(#pff0f0cd809)" style="fill: #1f77b4"/>
   </g>
   <g id="patch_173">
    <path d="M 335.284358 273.312 
L 336.897254 273.312 
L 336.897254 159.373556 
L 335.284358 159.373556 
z
" clip-path="url(#pff0f0cd809)" style="fill: #1f77b4"/>
   </g>
   <g id="patch_174">
    <path d="M 336.897254 273.312 
L 338.510149 273.312 
L 338.510149 151.339435 
L 336.897254 151.339435 
z
" clip-path="url(#pff0f0cd809)" style="fill: #1f77b4"/>
   </g>
   <g id="patch_175">
    <path d="M 338.510149 273.312 
L 340.123045 273.312 
L 340.123045 192.240415 
L 338.510149 192.240415 
z
" clip-path="url(#pff0f0cd809)" style="fill: #1f77b4"/>
   </g>
   <g id="patch_176">
    <path d="M 340.123045 273.312 
L 341.735941 273.312 
L 341.735941 179.093671 
L 340.123045 179.093671 
z
" clip-path="url(#pff0f0cd809)" style="fill: #1f77b4"/>
   </g>
   <g id="patch_177">
    <path d="M 341.735941 273.312 
L 343.348837 273.312 
L 343.348837 184.936669 
L 341.735941 184.936669 
z
" clip-path="url(#pff0f0cd809)" style="fill: #1f77b4"/>
   </g>
   <g id="patch_178">
    <path d="M 343.348837 273.312 
L 344.961733 273.312 
L 344.961733 189.318916 
L 343.348837 189.318916 
z
" clip-path="url(#pff0f0cd809)" style="fill: #1f77b4"/>
   </g>
   <g id="patch_179">
    <path d="M 344.961733 273.312 
L 346.574629 273.312 
L 346.574629 184.206294 
L 344.961733 184.206294 
z
" clip-path="url(#pff0f0cd809)" style="fill: #1f77b4"/>
   </g>
   <g id="patch_180">
    <path d="M 346.574629 273.312 
L 348.187525 273.312 
L 348.187525 203.926409 
L 346.574629 203.926409 
z
" clip-path="url(#pff0f0cd809)" style="fill: #1f77b4"/>
   </g>
   <g id="patch_181">
    <path d="M 348.187525 273.312 
L 349.80042 273.312 
L 349.80042 195.892288 
L 348.187525 195.892288 
z
" clip-path="url(#pff0f0cd809)" style="fill: #1f77b4"/>
   </g>
   <g id="patch_182">
    <path d="M 349.80042 273.312 
L 351.413316 273.312 
L 351.413316 198.813787 
L 349.80042 198.813787 
z
" clip-path="url(#pff0f0cd809)" style="fill: #1f77b4"/>
   </g>
   <g id="patch_183">
    <path d="M 351.413316 273.312 
L 353.026212 273.312 
L 353.026212 196.622663 
L 351.413316 196.622663 
z
" clip-path="url(#pff0f0cd809)" style="fill: #1f77b4"/>
   </g>
   <g id="patch_184">
    <path d="M 353.026212 273.312 
L 354.639108 273.312 
L 354.639108 225.107274 
L 353.026212 225.107274 
z
" clip-path="url(#pff0f0cd809)" style="fill: #1f77b4"/>
   </g>
   <g id="patch_185">
    <path d="M 354.639108 273.312 
L 356.252004 273.312 
L 356.252004 209.769406 
L 354.639108 209.769406 
z
" clip-path="url(#pff0f0cd809)" style="fill: #1f77b4"/>
   </g>
   <g id="patch_186">
    <path d="M 356.252004 273.312 
L 357.8649 273.312 
L 357.8649 200.274536 
L 356.252004 200.274536 
z
" clip-path="url(#pff0f0cd809)" style="fill: #1f77b4"/>
   </g>
   <g id="patch_187">
    <path d="M 357.8649 273.312 
L 359.477795 273.312 
L 359.477795 217.073153 
L 357.8649 217.073153 
z
" clip-path="url(#pff0f0cd809)" style="fill: #1f77b4"/>
   </g>
   <g id="patch_188">
    <path d="M 359.477795 273.312 
L 361.090691 273.312 
L 361.090691 226.568023 
L 359.477795 226.568023 
z
" clip-path="url(#pff0f0cd809)" style="fill: #1f77b4"/>
   </g>
   <g id="patch_189">
    <path d="M 361.090691 273.312 
L 362.703587 273.312 
L 362.703587 215.612403 
L 361.090691 215.612403 
z
" clip-path="url(#pff0f0cd809)" style="fill: #1f77b4"/>
   </g>
   <g id="patch_190">
    <path d="M 362.703587 273.312 
L 364.316483 273.312 
L 364.316483 229.489522 
L 362.703587 229.489522 
z
" clip-path="url(#pff0f0cd809)" style="fill: #1f77b4"/>
   </g>
   <g id="patch_191">
    <path d="M 364.316483 273.312 
L 365.929379 273.312 
L 365.929379 226.568023 
L 364.316483 226.568023 
z
" clip-path="url(#pff0f0cd809)" style="fill: #1f77b4"/>
   </g>
   <g id="patch_192">
    <path d="M 365.929379 273.312 
L 367.542275 273.312 
L 367.542275 234.602144 
L 365.929379 234.602144 
z
" clip-path="url(#pff0f0cd809)" style="fill: #1f77b4"/>
   </g>
   <g id="patch_193">
    <path d="M 367.542275 273.312 
L 369.15517 273.312 
L 369.15517 235.332519 
L 367.542275 235.332519 
z
" clip-path="url(#pff0f0cd809)" style="fill: #1f77b4"/>
   </g>
   <g id="patch_194">
    <path d="M 369.15517 273.312 
L 370.768066 273.312 
L 370.768066 244.827389 
L 369.15517 244.827389 
z
" clip-path="url(#pff0f0cd809)" style="fill: #1f77b4"/>
   </g>
   <g id="patch_195">
    <path d="M 370.768066 273.312 
L 372.380962 273.312 
L 372.380962 239.714767 
L 370.768066 239.714767 
z
" clip-path="url(#pff0f0cd809)" style="fill: #1f77b4"/>
   </g>
   <g id="patch_196">
    <path d="M 372.380962 273.312 
L 373.993858 273.312 
L 373.993858 247.748888 
L 372.380962 247.748888 
z
" clip-path="url(#pff0f0cd809)" style="fill: #1f77b4"/>
   </g>
   <g id="patch_197">
    <path d="M 373.993858 273.312 
L 375.606754 273.312 
L 375.606754 249.940012 
L 373.993858 249.940012 
z
" clip-path="url(#pff0f0cd809)" style="fill: #1f77b4"/>
   </g>
   <g id="patch_198">
    <path d="M 375.606754 273.312 
L 377.21965 273.312 
L 377.21965 261.626006 
L 375.606754 261.626006 
z
" clip-path="url(#pff0f0cd809)" style="fill: #1f77b4"/>
   </g>
   <g id="patch_199">
    <path d="M 377.21965 273.312 
L 378.832545 273.312 
L 378.832545 259.434882 
L 377.21965 259.434882 
z
" clip-path="url(#pff0f0cd809)" style="fill: #1f77b4"/>
   </g>
   <g id="patch_200">
    <path d="M 378.832545 273.312 
L 380.445441 273.312 
L 380.445441 263.81713 
L 378.832545 263.81713 
z
" clip-path="url(#pff0f0cd809)" style="fill: #1f77b4"/>
   </g>
   <g id="patch_201">
    <path d="M 380.445441 273.312 
L 382.058337 273.312 
L 382.058337 263.086755 
L 380.445441 263.086755 
z
" clip-path="url(#pff0f0cd809)" style="fill: #1f77b4"/>
   </g>
   <g id="patch_202">
    <path d="M 382.058337 273.312 
L 383.671233 273.312 
L 383.671233 271.120876 
L 382.058337 271.120876 
z
" clip-path="url(#pff0f0cd809)" style="fill: #1f77b4"/>
   </g>
   <g id="matplotlib.axis_1">
    <g id="xtick_1">
     <g id="line2d_1">
      <defs>
       <path id="m937ce059d1" d="M 0 0 
L 0 3.5 
" style="stroke: #000000; stroke-width: 0.8"/>
      </defs>
      <g>
       <use xlink:href="#m937ce059d1" x="60.013977" y="273.312" style="stroke: #000000; stroke-width: 0.8"/>
      </g>
     </g>
     <g id="text_1">
      <!-- 0.0 -->
      <g transform="translate(52.062415 287.910437)scale(0.1 -0.1)">
       <defs>
        <path id="DejaVuSans-30" d="M 2034 4250 
Q 1547 4250 1301 3770 
Q 1056 3291 1056 2328 
Q 1056 1369 1301 889 
Q 1547 409 2034 409 
Q 2525 409 2770 889 
Q 3016 1369 3016 2328 
Q 3016 3291 2770 3770 
Q 2525 4250 2034 4250 
z
M 2034 4750 
Q 2819 4750 3233 4129 
Q 3647 3509 3647 2328 
Q 3647 1150 3233 529 
Q 2819 -91 2034 -91 
Q 1250 -91 836 529 
Q 422 1150 422 2328 
Q 422 3509 836 4129 
Q 1250 4750 2034 4750 
z
" transform="scale(0.015625)"/>
        <path id="DejaVuSans-2e" d="M 684 794 
L 1344 794 
L 1344 0 
L 684 0 
L 684 794 
z
" transform="scale(0.015625)"/>
       </defs>
       <use xlink:href="#DejaVuSans-30"/>
       <use xlink:href="#DejaVuSans-2e" x="63.623047"/>
       <use xlink:href="#DejaVuSans-30" x="95.410156"/>
      </g>
     </g>
    </g>
    <g id="xtick_2">
     <g id="line2d_2">
      <g>
       <use xlink:href="#m937ce059d1" x="101.350278" y="273.312" style="stroke: #000000; stroke-width: 0.8"/>
      </g>
     </g>
     <g id="text_2">
      <!-- 0.2 -->
      <g transform="translate(93.398715 287.910437)scale(0.1 -0.1)">
       <defs>
        <path id="DejaVuSans-32" d="M 1228 531 
L 3431 531 
L 3431 0 
L 469 0 
L 469 531 
Q 828 903 1448 1529 
Q 2069 2156 2228 2338 
Q 2531 2678 2651 2914 
Q 2772 3150 2772 3378 
Q 2772 3750 2511 3984 
Q 2250 4219 1831 4219 
Q 1534 4219 1204 4116 
Q 875 4013 500 3803 
L 500 4441 
Q 881 4594 1212 4672 
Q 1544 4750 1819 4750 
Q 2544 4750 2975 4387 
Q 3406 4025 3406 3419 
Q 3406 3131 3298 2873 
Q 3191 2616 2906 2266 
Q 2828 2175 2409 1742 
Q 1991 1309 1228 531 
z
" transform="scale(0.015625)"/>
       </defs>
       <use xlink:href="#DejaVuSans-30"/>
       <use xlink:href="#DejaVuSans-2e" x="63.623047"/>
       <use xlink:href="#DejaVuSans-32" x="95.410156"/>
      </g>
     </g>
    </g>
    <g id="xtick_3">
     <g id="line2d_3">
      <g>
       <use xlink:href="#m937ce059d1" x="142.686578" y="273.312" style="stroke: #000000; stroke-width: 0.8"/>
      </g>
     </g>
     <g id="text_3">
      <!-- 0.4 -->
      <g transform="translate(134.735016 287.910437)scale(0.1 -0.1)">
       <defs>
        <path id="DejaVuSans-34" d="M 2419 4116 
L 825 1625 
L 2419 1625 
L 2419 4116 
z
M 2253 4666 
L 3047 4666 
L 3047 1625 
L 3713 1625 
L 3713 1100 
L 3047 1100 
L 3047 0 
L 2419 0 
L 2419 1100 
L 313 1100 
L 313 1709 
L 2253 4666 
z
" transform="scale(0.015625)"/>
       </defs>
       <use xlink:href="#DejaVuSans-30"/>
       <use xlink:href="#DejaVuSans-2e" x="63.623047"/>
       <use xlink:href="#DejaVuSans-34" x="95.410156"/>
      </g>
     </g>
    </g>
    <g id="xtick_4">
     <g id="line2d_4">
      <g>
       <use xlink:href="#m937ce059d1" x="184.022879" y="273.312" style="stroke: #000000; stroke-width: 0.8"/>
      </g>
     </g>
     <g id="text_4">
      <!-- 0.6 -->
      <g transform="translate(176.071316 287.910437)scale(0.1 -0.1)">
       <defs>
        <path id="DejaVuSans-36" d="M 2113 2584 
Q 1688 2584 1439 2293 
Q 1191 2003 1191 1497 
Q 1191 994 1439 701 
Q 1688 409 2113 409 
Q 2538 409 2786 701 
Q 3034 994 3034 1497 
Q 3034 2003 2786 2293 
Q 2538 2584 2113 2584 
z
M 3366 4563 
L 3366 3988 
Q 3128 4100 2886 4159 
Q 2644 4219 2406 4219 
Q 1781 4219 1451 3797 
Q 1122 3375 1075 2522 
Q 1259 2794 1537 2939 
Q 1816 3084 2150 3084 
Q 2853 3084 3261 2657 
Q 3669 2231 3669 1497 
Q 3669 778 3244 343 
Q 2819 -91 2113 -91 
Q 1303 -91 875 529 
Q 447 1150 447 2328 
Q 447 3434 972 4092 
Q 1497 4750 2381 4750 
Q 2619 4750 2861 4703 
Q 3103 4656 3366 4563 
z
" transform="scale(0.015625)"/>
       </defs>
       <use xlink:href="#DejaVuSans-30"/>
       <use xlink:href="#DejaVuSans-2e" x="63.623047"/>
       <use xlink:href="#DejaVuSans-36" x="95.410156"/>
      </g>
     </g>
    </g>
    <g id="xtick_5">
     <g id="line2d_5">
      <g>
       <use xlink:href="#m937ce059d1" x="225.35918" y="273.312" style="stroke: #000000; stroke-width: 0.8"/>
      </g>
     </g>
     <g id="text_5">
      <!-- 0.8 -->
      <g transform="translate(217.407617 287.910437)scale(0.1 -0.1)">
       <defs>
        <path id="DejaVuSans-38" d="M 2034 2216 
Q 1584 2216 1326 1975 
Q 1069 1734 1069 1313 
Q 1069 891 1326 650 
Q 1584 409 2034 409 
Q 2484 409 2743 651 
Q 3003 894 3003 1313 
Q 3003 1734 2745 1975 
Q 2488 2216 2034 2216 
z
M 1403 2484 
Q 997 2584 770 2862 
Q 544 3141 544 3541 
Q 544 4100 942 4425 
Q 1341 4750 2034 4750 
Q 2731 4750 3128 4425 
Q 3525 4100 3525 3541 
Q 3525 3141 3298 2862 
Q 3072 2584 2669 2484 
Q 3125 2378 3379 2068 
Q 3634 1759 3634 1313 
Q 3634 634 3220 271 
Q 2806 -91 2034 -91 
Q 1263 -91 848 271 
Q 434 634 434 1313 
Q 434 1759 690 2068 
Q 947 2378 1403 2484 
z
M 1172 3481 
Q 1172 3119 1398 2916 
Q 1625 2713 2034 2713 
Q 2441 2713 2670 2916 
Q 2900 3119 2900 3481 
Q 2900 3844 2670 4047 
Q 2441 4250 2034 4250 
Q 1625 4250 1398 4047 
Q 1172 3844 1172 3481 
z
" transform="scale(0.015625)"/>
       </defs>
       <use xlink:href="#DejaVuSans-30"/>
       <use xlink:href="#DejaVuSans-2e" x="63.623047"/>
       <use xlink:href="#DejaVuSans-38" x="95.410156"/>
      </g>
     </g>
    </g>
    <g id="xtick_6">
     <g id="line2d_6">
      <g>
       <use xlink:href="#m937ce059d1" x="266.69548" y="273.312" style="stroke: #000000; stroke-width: 0.8"/>
      </g>
     </g>
     <g id="text_6">
      <!-- 1.0 -->
      <g transform="translate(258.743918 287.910437)scale(0.1 -0.1)">
       <defs>
        <path id="DejaVuSans-31" d="M 794 531 
L 1825 531 
L 1825 4091 
L 703 3866 
L 703 4441 
L 1819 4666 
L 2450 4666 
L 2450 531 
L 3481 531 
L 3481 0 
L 794 0 
L 794 531 
z
" transform="scale(0.015625)"/>
       </defs>
       <use xlink:href="#DejaVuSans-31"/>
       <use xlink:href="#DejaVuSans-2e" x="63.623047"/>
       <use xlink:href="#DejaVuSans-30" x="95.410156"/>
      </g>
     </g>
    </g>
    <g id="xtick_7">
     <g id="line2d_7">
      <g>
       <use xlink:href="#m937ce059d1" x="308.031781" y="273.312" style="stroke: #000000; stroke-width: 0.8"/>
      </g>
     </g>
     <g id="text_7">
      <!-- 1.2 -->
      <g transform="translate(300.080218 287.910437)scale(0.1 -0.1)">
       <use xlink:href="#DejaVuSans-31"/>
       <use xlink:href="#DejaVuSans-2e" x="63.623047"/>
       <use xlink:href="#DejaVuSans-32" x="95.410156"/>
      </g>
     </g>
    </g>
    <g id="xtick_8">
     <g id="line2d_8">
      <g>
       <use xlink:href="#m937ce059d1" x="349.368081" y="273.312" style="stroke: #000000; stroke-width: 0.8"/>
      </g>
     </g>
     <g id="text_8">
      <!-- 1.4 -->
      <g transform="translate(341.416519 287.910437)scale(0.1 -0.1)">
       <use xlink:href="#DejaVuSans-31"/>
       <use xlink:href="#DejaVuSans-2e" x="63.623047"/>
       <use xlink:href="#DejaVuSans-34" x="95.410156"/>
      </g>
     </g>
    </g>
    <g id="xtick_9">
     <g id="line2d_9">
      <g>
       <use xlink:href="#m937ce059d1" x="390.704382" y="273.312" style="stroke: #000000; stroke-width: 0.8"/>
      </g>
     </g>
     <g id="text_9">
      <!-- 1.6 -->
      <g transform="translate(382.752819 287.910437)scale(0.1 -0.1)">
       <use xlink:href="#DejaVuSans-31"/>
       <use xlink:href="#DejaVuSans-2e" x="63.623047"/>
       <use xlink:href="#DejaVuSans-36" x="95.410156"/>
      </g>
     </g>
    </g>
    <g id="text_10">
     <!-- Angle with normal (rad) -->
     <g transform="translate(163.023281 301.588562)scale(0.1 -0.1)">
      <defs>
       <path id="DejaVuSans-41" d="M 2188 4044 
L 1331 1722 
L 3047 1722 
L 2188 4044 
z
M 1831 4666 
L 2547 4666 
L 4325 0 
L 3669 0 
L 3244 1197 
L 1141 1197 
L 716 0 
L 50 0 
L 1831 4666 
z
" transform="scale(0.015625)"/>
       <path id="DejaVuSans-6e" d="M 3513 2113 
L 3513 0 
L 2938 0 
L 2938 2094 
Q 2938 2591 2744 2837 
Q 2550 3084 2163 3084 
Q 1697 3084 1428 2787 
Q 1159 2491 1159 1978 
L 1159 0 
L 581 0 
L 581 3500 
L 1159 3500 
L 1159 2956 
Q 1366 3272 1645 3428 
Q 1925 3584 2291 3584 
Q 2894 3584 3203 3211 
Q 3513 2838 3513 2113 
z
" transform="scale(0.015625)"/>
       <path id="DejaVuSans-67" d="M 2906 1791 
Q 2906 2416 2648 2759 
Q 2391 3103 1925 3103 
Q 1463 3103 1205 2759 
Q 947 2416 947 1791 
Q 947 1169 1205 825 
Q 1463 481 1925 481 
Q 2391 481 2648 825 
Q 2906 1169 2906 1791 
z
M 3481 434 
Q 3481 -459 3084 -895 
Q 2688 -1331 1869 -1331 
Q 1566 -1331 1297 -1286 
Q 1028 -1241 775 -1147 
L 775 -588 
Q 1028 -725 1275 -790 
Q 1522 -856 1778 -856 
Q 2344 -856 2625 -561 
Q 2906 -266 2906 331 
L 2906 616 
Q 2728 306 2450 153 
Q 2172 0 1784 0 
Q 1141 0 747 490 
Q 353 981 353 1791 
Q 353 2603 747 3093 
Q 1141 3584 1784 3584 
Q 2172 3584 2450 3431 
Q 2728 3278 2906 2969 
L 2906 3500 
L 3481 3500 
L 3481 434 
z
" transform="scale(0.015625)"/>
       <path id="DejaVuSans-6c" d="M 603 4863 
L 1178 4863 
L 1178 0 
L 603 0 
L 603 4863 
z
" transform="scale(0.015625)"/>
       <path id="DejaVuSans-65" d="M 3597 1894 
L 3597 1613 
L 953 1613 
Q 991 1019 1311 708 
Q 1631 397 2203 397 
Q 2534 397 2845 478 
Q 3156 559 3463 722 
L 3463 178 
Q 3153 47 2828 -22 
Q 2503 -91 2169 -91 
Q 1331 -91 842 396 
Q 353 884 353 1716 
Q 353 2575 817 3079 
Q 1281 3584 2069 3584 
Q 2775 3584 3186 3129 
Q 3597 2675 3597 1894 
z
M 3022 2063 
Q 3016 2534 2758 2815 
Q 2500 3097 2075 3097 
Q 1594 3097 1305 2825 
Q 1016 2553 972 2059 
L 3022 2063 
z
" transform="scale(0.015625)"/>
       <path id="DejaVuSans-20" transform="scale(0.015625)"/>
       <path id="DejaVuSans-77" d="M 269 3500 
L 844 3500 
L 1563 769 
L 2278 3500 
L 2956 3500 
L 3675 769 
L 4391 3500 
L 4966 3500 
L 4050 0 
L 3372 0 
L 2619 2869 
L 1863 0 
L 1184 0 
L 269 3500 
z
" transform="scale(0.015625)"/>
       <path id="DejaVuSans-69" d="M 603 3500 
L 1178 3500 
L 1178 0 
L 603 0 
L 603 3500 
z
M 603 4863 
L 1178 4863 
L 1178 4134 
L 603 4134 
L 603 4863 
z
" transform="scale(0.015625)"/>
       <path id="DejaVuSans-74" d="M 1172 4494 
L 1172 3500 
L 2356 3500 
L 2356 3053 
L 1172 3053 
L 1172 1153 
Q 1172 725 1289 603 
Q 1406 481 1766 481 
L 2356 481 
L 2356 0 
L 1766 0 
Q 1100 0 847 248 
Q 594 497 594 1153 
L 594 3053 
L 172 3053 
L 172 3500 
L 594 3500 
L 594 4494 
L 1172 4494 
z
" transform="scale(0.015625)"/>
       <path id="DejaVuSans-68" d="M 3513 2113 
L 3513 0 
L 2938 0 
L 2938 2094 
Q 2938 2591 2744 2837 
Q 2550 3084 2163 3084 
Q 1697 3084 1428 2787 
Q 1159 2491 1159 1978 
L 1159 0 
L 581 0 
L 581 4863 
L 1159 4863 
L 1159 2956 
Q 1366 3272 1645 3428 
Q 1925 3584 2291 3584 
Q 2894 3584 3203 3211 
Q 3513 2838 3513 2113 
z
" transform="scale(0.015625)"/>
       <path id="DejaVuSans-6f" d="M 1959 3097 
Q 1497 3097 1228 2736 
Q 959 2375 959 1747 
Q 959 1119 1226 758 
Q 1494 397 1959 397 
Q 2419 397 2687 759 
Q 2956 1122 2956 1747 
Q 2956 2369 2687 2733 
Q 2419 3097 1959 3097 
z
M 1959 3584 
Q 2709 3584 3137 3096 
Q 3566 2609 3566 1747 
Q 3566 888 3137 398 
Q 2709 -91 1959 -91 
Q 1206 -91 779 398 
Q 353 888 353 1747 
Q 353 2609 779 3096 
Q 1206 3584 1959 3584 
z
" transform="scale(0.015625)"/>
       <path id="DejaVuSans-72" d="M 2631 2963 
Q 2534 3019 2420 3045 
Q 2306 3072 2169 3072 
Q 1681 3072 1420 2755 
Q 1159 2438 1159 1844 
L 1159 0 
L 581 0 
L 581 3500 
L 1159 3500 
L 1159 2956 
Q 1341 3275 1631 3429 
Q 1922 3584 2338 3584 
Q 2397 3584 2469 3576 
Q 2541 3569 2628 3553 
L 2631 2963 
z
" transform="scale(0.015625)"/>
       <path id="DejaVuSans-6d" d="M 3328 2828 
Q 3544 3216 3844 3400 
Q 4144 3584 4550 3584 
Q 5097 3584 5394 3201 
Q 5691 2819 5691 2113 
L 5691 0 
L 5113 0 
L 5113 2094 
Q 5113 2597 4934 2840 
Q 4756 3084 4391 3084 
Q 3944 3084 3684 2787 
Q 3425 2491 3425 1978 
L 3425 0 
L 2847 0 
L 2847 2094 
Q 2847 2600 2669 2842 
Q 2491 3084 2119 3084 
Q 1678 3084 1418 2786 
Q 1159 2488 1159 1978 
L 1159 0 
L 581 0 
L 581 3500 
L 1159 3500 
L 1159 2956 
Q 1356 3278 1631 3431 
Q 1906 3584 2284 3584 
Q 2666 3584 2933 3390 
Q 3200 3197 3328 2828 
z
" transform="scale(0.015625)"/>
       <path id="DejaVuSans-61" d="M 2194 1759 
Q 1497 1759 1228 1600 
Q 959 1441 959 1056 
Q 959 750 1161 570 
Q 1363 391 1709 391 
Q 2188 391 2477 730 
Q 2766 1069 2766 1631 
L 2766 1759 
L 2194 1759 
z
M 3341 1997 
L 3341 0 
L 2766 0 
L 2766 531 
Q 2569 213 2275 61 
Q 1981 -91 1556 -91 
Q 1019 -91 701 211 
Q 384 513 384 1019 
Q 384 1609 779 1909 
Q 1175 2209 1959 2209 
L 2766 2209 
L 2766 2266 
Q 2766 2663 2505 2880 
Q 2244 3097 1772 3097 
Q 1472 3097 1187 3025 
Q 903 2953 641 2809 
L 641 3341 
Q 956 3463 1253 3523 
Q 1550 3584 1831 3584 
Q 2591 3584 2966 3190 
Q 3341 2797 3341 1997 
z
" transform="scale(0.015625)"/>
       <path id="DejaVuSans-28" d="M 1984 4856 
Q 1566 4138 1362 3434 
Q 1159 2731 1159 2009 
Q 1159 1288 1364 580 
Q 1569 -128 1984 -844 
L 1484 -844 
Q 1016 -109 783 600 
Q 550 1309 550 2009 
Q 550 2706 781 3412 
Q 1013 4119 1484 4856 
L 1984 4856 
z
" transform="scale(0.015625)"/>
       <path id="DejaVuSans-64" d="M 2906 2969 
L 2906 4863 
L 3481 4863 
L 3481 0 
L 2906 0 
L 2906 525 
Q 2725 213 2448 61 
Q 2172 -91 1784 -91 
Q 1150 -91 751 415 
Q 353 922 353 1747 
Q 353 2572 751 3078 
Q 1150 3584 1784 3584 
Q 2172 3584 2448 3432 
Q 2725 3281 2906 2969 
z
M 947 1747 
Q 947 1113 1208 752 
Q 1469 391 1925 391 
Q 2381 391 2643 752 
Q 2906 1113 2906 1747 
Q 2906 2381 2643 2742 
Q 2381 3103 1925 3103 
Q 1469 3103 1208 2742 
Q 947 2381 947 1747 
z
" transform="scale(0.015625)"/>
       <path id="DejaVuSans-29" d="M 513 4856 
L 1013 4856 
Q 1481 4119 1714 3412 
Q 1947 2706 1947 2009 
Q 1947 1309 1714 600 
Q 1481 -109 1013 -844 
L 513 -844 
Q 928 -128 1133 580 
Q 1338 1288 1338 2009 
Q 1338 2731 1133 3434 
Q 928 4138 513 4856 
z
" transform="scale(0.015625)"/>
      </defs>
      <use xlink:href="#DejaVuSans-41"/>
      <use xlink:href="#DejaVuSans-6e" x="68.408203"/>
      <use xlink:href="#DejaVuSans-67" x="131.787109"/>
      <use xlink:href="#DejaVuSans-6c" x="195.263672"/>
      <use xlink:href="#DejaVuSans-65" x="223.046875"/>
      <use xlink:href="#DejaVuSans-20" x="284.570312"/>
      <use xlink:href="#DejaVuSans-77" x="316.357422"/>
      <use xlink:href="#DejaVuSans-69" x="398.144531"/>
      <use xlink:href="#DejaVuSans-74" x="425.927734"/>
      <use xlink:href="#DejaVuSans-68" x="465.136719"/>
      <use xlink:href="#DejaVuSans-20" x="528.515625"/>
      <use xlink:href="#DejaVuSans-6e" x="560.302734"/>
      <use xlink:href="#DejaVuSans-6f" x="623.681641"/>
      <use xlink:href="#DejaVuSans-72" x="684.863281"/>
      <use xlink:href="#DejaVuSans-6d" x="724.226562"/>
      <use xlink:href="#DejaVuSans-61" x="821.638672"/>
      <use xlink:href="#DejaVuSans-6c" x="882.917969"/>
      <use xlink:href="#DejaVuSans-20" x="910.701172"/>
      <use xlink:href="#DejaVuSans-28" x="942.488281"/>
      <use xlink:href="#DejaVuSans-72" x="981.501953"/>
      <use xlink:href="#DejaVuSans-61" x="1022.615234"/>
      <use xlink:href="#DejaVuSans-64" x="1083.894531"/>
      <use xlink:href="#DejaVuSans-29" x="1147.371094"/>
     </g>
    </g>
   </g>
   <g id="matplotlib.axis_2">
    <g id="ytick_1">
     <g id="line2d_10">
      <defs>
       <path id="m9ad2d892fb" d="M 0 0 
L -3.5 0 
" style="stroke: #000000; stroke-width: 0.8"/>
      </defs>
      <g>
       <use xlink:href="#m9ad2d892fb" x="43.78125" y="273.312" style="stroke: #000000; stroke-width: 0.8"/>
      </g>
     </g>
     <g id="text_11">
      <!-- 0.0 -->
      <g transform="translate(20.878125 277.111219)scale(0.1 -0.1)">
       <use xlink:href="#DejaVuSans-30"/>
       <use xlink:href="#DejaVuSans-2e" x="63.623047"/>
       <use xlink:href="#DejaVuSans-30" x="95.410156"/>
      </g>
     </g>
    </g>
    <g id="ytick_2">
     <g id="line2d_11">
      <g>
       <use xlink:href="#m9ad2d892fb" x="43.78125" y="227.714568" style="stroke: #000000; stroke-width: 0.8"/>
      </g>
     </g>
     <g id="text_12">
      <!-- 0.2 -->
      <g transform="translate(20.878125 231.513787)scale(0.1 -0.1)">
       <use xlink:href="#DejaVuSans-30"/>
       <use xlink:href="#DejaVuSans-2e" x="63.623047"/>
       <use xlink:href="#DejaVuSans-32" x="95.410156"/>
      </g>
     </g>
    </g>
    <g id="ytick_3">
     <g id="line2d_12">
      <g>
       <use xlink:href="#m9ad2d892fb" x="43.78125" y="182.117136" style="stroke: #000000; stroke-width: 0.8"/>
      </g>
     </g>
     <g id="text_13">
      <!-- 0.4 -->
      <g transform="translate(20.878125 185.916355)scale(0.1 -0.1)">
       <use xlink:href="#DejaVuSans-30"/>
       <use xlink:href="#DejaVuSans-2e" x="63.623047"/>
       <use xlink:href="#DejaVuSans-34" x="95.410156"/>
      </g>
     </g>
    </g>
    <g id="ytick_4">
     <g id="line2d_13">
      <g>
       <use xlink:href="#m9ad2d892fb" x="43.78125" y="136.519705" style="stroke: #000000; stroke-width: 0.8"/>
      </g>
     </g>
     <g id="text_14">
      <!-- 0.6 -->
      <g transform="translate(20.878125 140.318923)scale(0.1 -0.1)">
       <use xlink:href="#DejaVuSans-30"/>
       <use xlink:href="#DejaVuSans-2e" x="63.623047"/>
       <use xlink:href="#DejaVuSans-36" x="95.410156"/>
      </g>
     </g>
    </g>
    <g id="ytick_5">
     <g id="line2d_14">
      <g>
       <use xlink:href="#m9ad2d892fb" x="43.78125" y="90.922273" style="stroke: #000000; stroke-width: 0.8"/>
      </g>
     </g>
     <g id="text_15">
      <!-- 0.8 -->
      <g transform="translate(20.878125 94.721491)scale(0.1 -0.1)">
       <use xlink:href="#DejaVuSans-30"/>
       <use xlink:href="#DejaVuSans-2e" x="63.623047"/>
       <use xlink:href="#DejaVuSans-38" x="95.410156"/>
      </g>
     </g>
    </g>
    <g id="ytick_6">
     <g id="line2d_15">
      <g>
       <use xlink:href="#m9ad2d892fb" x="43.78125" y="45.324841" style="stroke: #000000; stroke-width: 0.8"/>
      </g>
     </g>
     <g id="text_16">
      <!-- 1.0 -->
      <g transform="translate(20.878125 49.12406)scale(0.1 -0.1)">
       <use xlink:href="#DejaVuSans-31"/>
       <use xlink:href="#DejaVuSans-2e" x="63.623047"/>
       <use xlink:href="#DejaVuSans-30" x="95.410156"/>
      </g>
     </g>
    </g>
    <g id="text_17">
     <!-- Probability density -->
     <g transform="translate(14.798438 186.606781)rotate(-90)scale(0.1 -0.1)">
      <defs>
       <path id="DejaVuSans-50" d="M 1259 4147 
L 1259 2394 
L 2053 2394 
Q 2494 2394 2734 2622 
Q 2975 2850 2975 3272 
Q 2975 3691 2734 3919 
Q 2494 4147 2053 4147 
L 1259 4147 
z
M 628 4666 
L 2053 4666 
Q 2838 4666 3239 4311 
Q 3641 3956 3641 3272 
Q 3641 2581 3239 2228 
Q 2838 1875 2053 1875 
L 1259 1875 
L 1259 0 
L 628 0 
L 628 4666 
z
" transform="scale(0.015625)"/>
       <path id="DejaVuSans-62" d="M 3116 1747 
Q 3116 2381 2855 2742 
Q 2594 3103 2138 3103 
Q 1681 3103 1420 2742 
Q 1159 2381 1159 1747 
Q 1159 1113 1420 752 
Q 1681 391 2138 391 
Q 2594 391 2855 752 
Q 3116 1113 3116 1747 
z
M 1159 2969 
Q 1341 3281 1617 3432 
Q 1894 3584 2278 3584 
Q 2916 3584 3314 3078 
Q 3713 2572 3713 1747 
Q 3713 922 3314 415 
Q 2916 -91 2278 -91 
Q 1894 -91 1617 61 
Q 1341 213 1159 525 
L 1159 0 
L 581 0 
L 581 4863 
L 1159 4863 
L 1159 2969 
z
" transform="scale(0.015625)"/>
       <path id="DejaVuSans-79" d="M 2059 -325 
Q 1816 -950 1584 -1140 
Q 1353 -1331 966 -1331 
L 506 -1331 
L 506 -850 
L 844 -850 
Q 1081 -850 1212 -737 
Q 1344 -625 1503 -206 
L 1606 56 
L 191 3500 
L 800 3500 
L 1894 763 
L 2988 3500 
L 3597 3500 
L 2059 -325 
z
" transform="scale(0.015625)"/>
       <path id="DejaVuSans-73" d="M 2834 3397 
L 2834 2853 
Q 2591 2978 2328 3040 
Q 2066 3103 1784 3103 
Q 1356 3103 1142 2972 
Q 928 2841 928 2578 
Q 928 2378 1081 2264 
Q 1234 2150 1697 2047 
L 1894 2003 
Q 2506 1872 2764 1633 
Q 3022 1394 3022 966 
Q 3022 478 2636 193 
Q 2250 -91 1575 -91 
Q 1294 -91 989 -36 
Q 684 19 347 128 
L 347 722 
Q 666 556 975 473 
Q 1284 391 1588 391 
Q 1994 391 2212 530 
Q 2431 669 2431 922 
Q 2431 1156 2273 1281 
Q 2116 1406 1581 1522 
L 1381 1569 
Q 847 1681 609 1914 
Q 372 2147 372 2553 
Q 372 3047 722 3315 
Q 1072 3584 1716 3584 
Q 2034 3584 2315 3537 
Q 2597 3491 2834 3397 
z
" transform="scale(0.015625)"/>
      </defs>
      <use xlink:href="#DejaVuSans-50"/>
      <use xlink:href="#DejaVuSans-72" x="58.552734"/>
      <use xlink:href="#DejaVuSans-6f" x="97.416016"/>
      <use xlink:href="#DejaVuSans-62" x="158.597656"/>
      <use xlink:href="#DejaVuSans-61" x="222.074219"/>
      <use xlink:href="#DejaVuSans-62" x="283.353516"/>
      <use xlink:href="#DejaVuSans-69" x="346.830078"/>
      <use xlink:href="#DejaVuSans-6c" x="374.613281"/>
      <use xlink:href="#DejaVuSans-69" x="402.396484"/>
      <use xlink:href="#DejaVuSans-74" x="430.179688"/>
      <use xlink:href="#DejaVuSans-79" x="469.388672"/>
      <use xlink:href="#DejaVuSans-20" x="528.568359"/>
      <use xlink:href="#DejaVuSans-64" x="560.355469"/>
      <use xlink:href="#DejaVuSans-65" x="623.832031"/>
      <use xlink:href="#DejaVuSans-6e" x="685.355469"/>
      <use xlink:href="#DejaVuSans-73" x="748.734375"/>
      <use xlink:href="#DejaVuSans-69" x="800.833984"/>
      <use xlink:href="#DejaVuSans-74" x="828.617188"/>
      <use xlink:href="#DejaVuSans-79" x="867.826172"/>
     </g>
    </g>
   </g>
   <g id="line2d_16">
    <path d="M 60.013977 273.312 
L 79.837728 229.845189 
L 90.237073 207.581207 
L 99.01152 189.304342 
L 106.811029 173.562372 
L 113.960578 159.629014 
L 120.460169 147.432619 
L 126.63478 136.306392 
L 132.484411 126.216181 
L 138.009063 117.118661 
L 143.208736 108.963531 
L 148.408408 101.224391 
L 153.283101 94.364185 
L 157.832814 88.320213 
L 162.382528 82.634755 
L 166.932241 77.318831 
L 171.156975 72.722515 
L 175.381709 68.461398 
L 179.281463 64.831742 
L 183.181217 61.49894 
L 187.080972 58.467739 
L 190.655746 55.957781 
L 194.230521 53.707885 
L 197.805296 51.720745 
L 201.380071 49.998737 
L 204.629866 48.66509 
L 207.879661 47.553586 
L 211.129456 46.665324 
L 214.379252 46.001183 
L 217.629047 45.56182 
L 220.878842 45.347669 
L 224.128637 45.358942 
L 227.378433 45.595627 
L 230.628228 46.057491 
L 233.878023 46.744077 
L 237.127818 47.654706 
L 240.377614 48.788478 
L 243.627409 50.144271 
L 247.202184 51.890472 
L 250.776958 53.901602 
L 254.351733 56.175255 
L 257.926508 58.708712 
L 261.501283 61.49894 
L 265.401037 64.831742 
L 269.300791 68.461398 
L 273.200546 72.382742 
L 277.425279 76.953539 
L 281.650013 81.852465 
L 286.199727 87.48579 
L 290.74944 93.479247 
L 295.624133 100.287235 
L 300.498826 107.48015 
L 305.698498 115.558823 
L 311.22315 124.579439 
L 316.747802 134.025035 
L 322.597433 144.459456 
L 328.772044 155.920662 
L 335.596614 169.074036 
L 342.746164 183.340173 
L 350.870652 200.070363 
L 359.970079 219.340324 
L 371.019383 243.287165 
L 384.668523 273.312 
L 384.668523 273.312 
" clip-path="url(#pff0f0cd809)" style="fill: none; stroke: #ff7f0e; stroke-width: 1.5; stroke-linecap: square"/>
   </g>
   <g id="patch_203">
    <path d="M 43.78125 273.312 
L 43.78125 7.2 
" style="fill: none; stroke: #000000; stroke-width: 0.8; stroke-linejoin: miter; stroke-linecap: square"/>
   </g>
   <g id="patch_204">
    <path d="M 400.90125 273.312 
L 400.90125 7.2 
" style="fill: none; stroke: #000000; stroke-width: 0.8; stroke-linejoin: miter; stroke-linecap: square"/>
   </g>
   <g id="patch_205">
    <path d="M 43.78125 273.312 
L 400.90125 273.312 
" style="fill: none; stroke: #000000; stroke-width: 0.8; stroke-linejoin: miter; stroke-linecap: square"/>
   </g>
   <g id="patch_206">
    <path d="M 43.78125 7.2 
L 400.90125 7.2 
" style="fill: none; stroke: #000000; stroke-width: 0.8; stroke-linejoin: miter; stroke-linecap: square"/>
   </g>
  </g>
 </g>
 <defs>
  <clipPath id="pff0f0cd809">
   <rect x="43.78125" y="7.2" width="357.12" height="266.112"/>
  </clipPath>
 </defs>
</svg>
