<?xml version="1.0" encoding="utf-8" standalone="no"?>
<!DOCTYPE svg PUBLIC "-//W3C//DTD SVG 1.1//EN"
  "http://www.w3.org/Graphics/SVG/1.1/DTD/svg11.dtd">
<svg xmlns:xlink="http://www.w3.org/1999/xlink" width="408.10125pt" height="310.86825pt" viewBox="0 0 408.10125 310.86825" xmlns="http://www.w3.org/2000/svg" version="1.1">
 <metadata>
  <rdf:RDF xmlns:dc="http://purl.org/dc/elements/1.1/" xmlns:cc="http://creativecommons.org/ns#" xmlns:rdf="http://www.w3.org/1999/02/22-rdf-syntax-ns#">
   <cc:Work>
    <dc:type rdf:resource="http://purl.org/dc/dcmitype/StillImage"/>
    <dc:date>2022-05-03T13:46:49.641076</dc:date>
    <dc:format>image/svg+xml</dc:format>
    <dc:creator>
     <cc:Agent>
      <dc:title>Matplotlib v3.5.1, https://matplotlib.org/</dc:title>
     </cc:Agent>
    </dc:creator>
   </cc:Work>
  </rdf:RDF>
 </metadata>
 <defs>
  <style type="text/css">*{stroke-linejoin: round; stroke-linecap: butt}</style>
 </defs>
 <g id="figure_1">
  <g id="patch_1">
   <path d="M 0 310.86825 
L 408.10125 310.86825 
L 408.10125 0 
L 0 0 
z
" style="fill: #ffffff"/>
  </g>
  <g id="axes_1">
   <g id="patch_2">
    <path d="M 43.78125 273.312 
L 400.90125 273.312 
L 400.90125 7.2 
L 43.78125 7.2 
z
" style="fill: #ffffff"/>
   </g>
   <g id="patch_3">
    <path d="M 60.491183 273.312 
L 62.105806 273.312 
L 62.105806 268.904348 
L 60.491183 268.904348 
z
" clip-path="url(#p9b40509c35)" style="fill: #1f77b4"/>
   </g>
   <g id="patch_4">
    <path d="M 62.105806 273.312 
L 63.720428 273.312 
L 63.720428 269.638957 
L 62.105806 269.638957 
z
" clip-path="url(#p9b40509c35)" style="fill: #1f77b4"/>
   </g>
   <g id="patch_5">
    <path d="M 63.720428 273.312 
L 65.335051 273.312 
L 65.335051 260.823652 
L 63.720428 260.823652 
z
" clip-path="url(#p9b40509c35)" style="fill: #1f77b4"/>
   </g>
   <g id="patch_6">
    <path d="M 65.335051 273.312 
L 66.949673 273.312 
L 66.949673 265.231304 
L 65.335051 265.231304 
z
" clip-path="url(#p9b40509c35)" style="fill: #1f77b4"/>
   </g>
   <g id="patch_7">
    <path d="M 66.949673 273.312 
L 68.564295 273.312 
L 68.564295 250.53913 
L 66.949673 250.53913 
z
" clip-path="url(#p9b40509c35)" style="fill: #1f77b4"/>
   </g>
   <g id="patch_8">
    <path d="M 68.564295 273.312 
L 70.178918 273.312 
L 70.178918 250.53913 
L 68.564295 250.53913 
z
" clip-path="url(#p9b40509c35)" style="fill: #1f77b4"/>
   </g>
   <g id="patch_9">
    <path d="M 70.178918 273.312 
L 71.79354 273.312 
L 71.79354 247.600696 
L 70.178918 247.600696 
z
" clip-path="url(#p9b40509c35)" style="fill: #1f77b4"/>
   </g>
   <g id="patch_10">
    <path d="M 71.79354 273.312 
L 73.408163 273.312 
L 73.408163 241.723826 
L 71.79354 241.723826 
z
" clip-path="url(#p9b40509c35)" style="fill: #1f77b4"/>
   </g>
   <g id="patch_11">
    <path d="M 73.408163 273.312 
L 75.022785 273.312 
L 75.022785 238.785391 
L 73.408163 238.785391 
z
" clip-path="url(#p9b40509c35)" style="fill: #1f77b4"/>
   </g>
   <g id="patch_12">
    <path d="M 75.022785 273.312 
L 76.637407 273.312 
L 76.637407 246.131478 
L 75.022785 246.131478 
z
" clip-path="url(#p9b40509c35)" style="fill: #1f77b4"/>
   </g>
   <g id="patch_13">
    <path d="M 76.637407 273.312 
L 78.25203 273.312 
L 78.25203 239.52 
L 76.637407 239.52 
z
" clip-path="url(#p9b40509c35)" style="fill: #1f77b4"/>
   </g>
   <g id="patch_14">
    <path d="M 78.25203 273.312 
L 79.866652 273.312 
L 79.866652 225.562435 
L 78.25203 225.562435 
z
" clip-path="url(#p9b40509c35)" style="fill: #1f77b4"/>
   </g>
   <g id="patch_15">
    <path d="M 79.866652 273.312 
L 81.481274 273.312 
L 81.481274 231.439304 
L 79.866652 231.439304 
z
" clip-path="url(#p9b40509c35)" style="fill: #1f77b4"/>
   </g>
   <g id="patch_16">
    <path d="M 81.481274 273.312 
L 83.095897 273.312 
L 83.095897 229.235478 
L 81.481274 229.235478 
z
" clip-path="url(#p9b40509c35)" style="fill: #1f77b4"/>
   </g>
   <g id="patch_17">
    <path d="M 83.095897 273.312 
L 84.710519 273.312 
L 84.710519 228.50087 
L 83.095897 228.50087 
z
" clip-path="url(#p9b40509c35)" style="fill: #1f77b4"/>
   </g>
   <g id="patch_18">
    <path d="M 84.710519 273.312 
L 86.325142 273.312 
L 86.325142 217.481739 
L 84.710519 217.481739 
z
" clip-path="url(#p9b40509c35)" style="fill: #1f77b4"/>
   </g>
   <g id="patch_19">
    <path d="M 86.325142 273.312 
L 87.939764 273.312 
L 87.939764 215.277913 
L 86.325142 215.277913 
z
" clip-path="url(#p9b40509c35)" style="fill: #1f77b4"/>
   </g>
   <g id="patch_20">
    <path d="M 87.939764 273.312 
L 89.554386 273.312 
L 89.554386 217.481739 
L 87.939764 217.481739 
z
" clip-path="url(#p9b40509c35)" style="fill: #1f77b4"/>
   </g>
   <g id="patch_21">
    <path d="M 89.554386 273.312 
L 91.169009 273.312 
L 91.169009 207.931826 
L 89.554386 207.931826 
z
" clip-path="url(#p9b40509c35)" style="fill: #1f77b4"/>
   </g>
   <g id="patch_22">
    <path d="M 91.169009 273.312 
L 92.783631 273.312 
L 92.783631 199.116522 
L 91.169009 199.116522 
z
" clip-path="url(#p9b40509c35)" style="fill: #1f77b4"/>
   </g>
   <g id="patch_23">
    <path d="M 92.783631 273.312 
L 94.398254 273.312 
L 94.398254 205.728 
L 92.783631 205.728 
z
" clip-path="url(#p9b40509c35)" style="fill: #1f77b4"/>
   </g>
   <g id="patch_24">
    <path d="M 94.398254 273.312 
L 96.012876 273.312 
L 96.012876 204.993391 
L 94.398254 204.993391 
z
" clip-path="url(#p9b40509c35)" style="fill: #1f77b4"/>
   </g>
   <g id="patch_25">
    <path d="M 96.012876 273.312 
L 97.627498 273.312 
L 97.627498 193.239652 
L 96.012876 193.239652 
z
" clip-path="url(#p9b40509c35)" style="fill: #1f77b4"/>
   </g>
   <g id="patch_26">
    <path d="M 97.627498 273.312 
L 99.242121 273.312 
L 99.242121 197.647304 
L 97.627498 197.647304 
z
" clip-path="url(#p9b40509c35)" style="fill: #1f77b4"/>
   </g>
   <g id="patch_27">
    <path d="M 99.242121 273.312 
L 100.856743 273.312 
L 100.856743 182.95513 
L 99.242121 182.95513 
z
" clip-path="url(#p9b40509c35)" style="fill: #1f77b4"/>
   </g>
   <g id="patch_28">
    <path d="M 100.856743 273.312 
L 102.471366 273.312 
L 102.471366 181.485913 
L 100.856743 181.485913 
z
" clip-path="url(#p9b40509c35)" style="fill: #1f77b4"/>
   </g>
   <g id="patch_29">
    <path d="M 102.471366 273.312 
L 104.085988 273.312 
L 104.085988 191.770435 
L 102.471366 191.770435 
z
" clip-path="url(#p9b40509c35)" style="fill: #1f77b4"/>
   </g>
   <g id="patch_30">
    <path d="M 104.085988 273.312 
L 105.70061 273.312 
L 105.70061 176.343652 
L 104.085988 176.343652 
z
" clip-path="url(#p9b40509c35)" style="fill: #1f77b4"/>
   </g>
   <g id="patch_31">
    <path d="M 105.70061 273.312 
L 107.315233 273.312 
L 107.315233 177.078261 
L 105.70061 177.078261 
z
" clip-path="url(#p9b40509c35)" style="fill: #1f77b4"/>
   </g>
   <g id="patch_32">
    <path d="M 107.315233 273.312 
L 108.929855 273.312 
L 108.929855 179.282087 
L 107.315233 179.282087 
z
" clip-path="url(#p9b40509c35)" style="fill: #1f77b4"/>
   </g>
   <g id="patch_33">
    <path d="M 108.929855 273.312 
L 110.544478 273.312 
L 110.544478 167.528348 
L 108.929855 167.528348 
z
" clip-path="url(#p9b40509c35)" style="fill: #1f77b4"/>
   </g>
   <g id="patch_34">
    <path d="M 110.544478 273.312 
L 112.1591 273.312 
L 112.1591 163.120696 
L 110.544478 163.120696 
z
" clip-path="url(#p9b40509c35)" style="fill: #1f77b4"/>
   </g>
   <g id="patch_35">
    <path d="M 112.1591 273.312 
L 113.773722 273.312 
L 113.773722 180.016696 
L 112.1591 180.016696 
z
" clip-path="url(#p9b40509c35)" style="fill: #1f77b4"/>
   </g>
   <g id="patch_36">
    <path d="M 113.773722 273.312 
L 115.388345 273.312 
L 115.388345 172.670609 
L 113.773722 172.670609 
z
" clip-path="url(#p9b40509c35)" style="fill: #1f77b4"/>
   </g>
   <g id="patch_37">
    <path d="M 115.388345 273.312 
L 117.002967 273.312 
L 117.002967 165.324522 
L 115.388345 165.324522 
z
" clip-path="url(#p9b40509c35)" style="fill: #1f77b4"/>
   </g>
   <g id="patch_38">
    <path d="M 117.002967 273.312 
L 118.617589 273.312 
L 118.617589 151.366957 
L 117.002967 151.366957 
z
" clip-path="url(#p9b40509c35)" style="fill: #1f77b4"/>
   </g>
   <g id="patch_39">
    <path d="M 118.617589 273.312 
L 120.232212 273.312 
L 120.232212 142.551652 
L 118.617589 142.551652 
z
" clip-path="url(#p9b40509c35)" style="fill: #1f77b4"/>
   </g>
   <g id="patch_40">
    <path d="M 120.232212 273.312 
L 121.846834 273.312 
L 121.846834 141.817043 
L 120.232212 141.817043 
z
" clip-path="url(#p9b40509c35)" style="fill: #1f77b4"/>
   </g>
   <g id="patch_41">
    <path d="M 121.846834 273.312 
L 123.461457 273.312 
L 123.461457 128.594087 
L 121.846834 128.594087 
z
" clip-path="url(#p9b40509c35)" style="fill: #1f77b4"/>
   </g>
   <g id="patch_42">
    <path d="M 123.461457 273.312 
L 125.076079 273.312 
L 125.076079 141.817043 
L 123.461457 141.817043 
z
" clip-path="url(#p9b40509c35)" style="fill: #1f77b4"/>
   </g>
   <g id="patch_43">
    <path d="M 125.076079 273.312 
L 126.690701 273.312 
L 126.690701 141.082435 
L 125.076079 141.082435 
z
" clip-path="url(#p9b40509c35)" style="fill: #1f77b4"/>
   </g>
   <g id="patch_44">
    <path d="M 126.690701 273.312 
L 128.305324 273.312 
L 128.305324 124.186435 
L 126.690701 124.186435 
z
" clip-path="url(#p9b40509c35)" style="fill: #1f77b4"/>
   </g>
   <g id="patch_45">
    <path d="M 128.305324 273.312 
L 129.919946 273.312 
L 129.919946 126.390261 
L 128.305324 126.390261 
z
" clip-path="url(#p9b40509c35)" style="fill: #1f77b4"/>
   </g>
   <g id="patch_46">
    <path d="M 129.919946 273.312 
L 131.534569 273.312 
L 131.534569 131.532522 
L 129.919946 131.532522 
z
" clip-path="url(#p9b40509c35)" style="fill: #1f77b4"/>
   </g>
   <g id="patch_47">
    <path d="M 131.534569 273.312 
L 133.149191 273.312 
L 133.149191 107.290435 
L 131.534569 107.290435 
z
" clip-path="url(#p9b40509c35)" style="fill: #1f77b4"/>
   </g>
   <g id="patch_48">
    <path d="M 133.149191 273.312 
L 134.763813 273.312 
L 134.763813 122.717217 
L 133.149191 122.717217 
z
" clip-path="url(#p9b40509c35)" style="fill: #1f77b4"/>
   </g>
   <g id="patch_49">
    <path d="M 134.763813 273.312 
L 136.378436 273.312 
L 136.378436 115.37113 
L 134.763813 115.37113 
z
" clip-path="url(#p9b40509c35)" style="fill: #1f77b4"/>
   </g>
   <g id="patch_50">
    <path d="M 136.378436 273.312 
L 137.993058 273.312 
L 137.993058 105.821217 
L 136.378436 105.821217 
z
" clip-path="url(#p9b40509c35)" style="fill: #1f77b4"/>
   </g>
   <g id="patch_51">
    <path d="M 137.993058 273.312 
L 139.607681 273.312 
L 139.607681 111.698087 
L 137.993058 111.698087 
z
" clip-path="url(#p9b40509c35)" style="fill: #1f77b4"/>
   </g>
   <g id="patch_52">
    <path d="M 139.607681 273.312 
L 141.222303 273.312 
L 141.222303 127.12487 
L 139.607681 127.12487 
z
" clip-path="url(#p9b40509c35)" style="fill: #1f77b4"/>
   </g>
   <g id="patch_53">
    <path d="M 141.222303 273.312 
L 142.836925 273.312 
L 142.836925 107.290435 
L 141.222303 107.290435 
z
" clip-path="url(#p9b40509c35)" style="fill: #1f77b4"/>
   </g>
   <g id="patch_54">
    <path d="M 142.836925 273.312 
L 144.451548 273.312 
L 144.451548 121.248 
L 142.836925 121.248 
z
" clip-path="url(#p9b40509c35)" style="fill: #1f77b4"/>
   </g>
   <g id="patch_55">
    <path d="M 144.451548 273.312 
L 146.06617 273.312 
L 146.06617 106.555826 
L 144.451548 106.555826 
z
" clip-path="url(#p9b40509c35)" style="fill: #1f77b4"/>
   </g>
   <g id="patch_56">
    <path d="M 146.06617 273.312 
L 147.680793 273.312 
L 147.680793 96.271304 
L 146.06617 96.271304 
z
" clip-path="url(#p9b40509c35)" style="fill: #1f77b4"/>
   </g>
   <g id="patch_57">
    <path d="M 147.680793 273.312 
L 149.295415 273.312 
L 149.295415 105.821217 
L 147.680793 105.821217 
z
" clip-path="url(#p9b40509c35)" style="fill: #1f77b4"/>
   </g>
   <g id="patch_58">
    <path d="M 149.295415 273.312 
L 150.910037 273.312 
L 150.910037 102.148174 
L 149.295415 102.148174 
z
" clip-path="url(#p9b40509c35)" style="fill: #1f77b4"/>
   </g>
   <g id="patch_59">
    <path d="M 150.910037 273.312 
L 152.52466 273.312 
L 152.52466 88.190609 
L 150.910037 88.190609 
z
" clip-path="url(#p9b40509c35)" style="fill: #1f77b4"/>
   </g>
   <g id="patch_60">
    <path d="M 152.52466 273.312 
L 154.139282 273.312 
L 154.139282 72.763826 
L 152.52466 72.763826 
z
" clip-path="url(#p9b40509c35)" style="fill: #1f77b4"/>
   </g>
   <g id="patch_61">
    <path d="M 154.139282 273.312 
L 155.753904 273.312 
L 155.753904 100.678957 
L 154.139282 100.678957 
z
" clip-path="url(#p9b40509c35)" style="fill: #1f77b4"/>
   </g>
   <g id="patch_62">
    <path d="M 155.753904 273.312 
L 157.368527 273.312 
L 157.368527 98.47513 
L 155.753904 98.47513 
z
" clip-path="url(#p9b40509c35)" style="fill: #1f77b4"/>
   </g>
   <g id="patch_63">
    <path d="M 157.368527 273.312 
L 158.983149 273.312 
L 158.983149 81.57913 
L 157.368527 81.57913 
z
" clip-path="url(#p9b40509c35)" style="fill: #1f77b4"/>
   </g>
   <g id="patch_64">
    <path d="M 158.983149 273.312 
L 160.597772 273.312 
L 160.597772 104.352 
L 158.983149 104.352 
z
" clip-path="url(#p9b40509c35)" style="fill: #1f77b4"/>
   </g>
   <g id="patch_65">
    <path d="M 160.597772 273.312 
L 162.212394 273.312 
L 162.212394 68.356174 
L 160.597772 68.356174 
z
" clip-path="url(#p9b40509c35)" style="fill: #1f77b4"/>
   </g>
   <g id="patch_66">
    <path d="M 162.212394 273.312 
L 163.827016 273.312 
L 163.827016 95.536696 
L 162.212394 95.536696 
z
" clip-path="url(#p9b40509c35)" style="fill: #1f77b4"/>
   </g>
   <g id="patch_67">
    <path d="M 163.827016 273.312 
L 165.441639 273.312 
L 165.441639 78.640696 
L 163.827016 78.640696 
z
" clip-path="url(#p9b40509c35)" style="fill: #1f77b4"/>
   </g>
   <g id="patch_68">
    <path d="M 165.441639 273.312 
L 167.056261 273.312 
L 167.056261 97.005913 
L 165.441639 97.005913 
z
" clip-path="url(#p9b40509c35)" style="fill: #1f77b4"/>
   </g>
   <g id="patch_69">
    <path d="M 167.056261 273.312 
L 168.670884 273.312 
L 168.670884 68.356174 
L 167.056261 68.356174 
z
" clip-path="url(#p9b40509c35)" style="fill: #1f77b4"/>
   </g>
   <g id="patch_70">
    <path d="M 168.670884 273.312 
L 170.285506 273.312 
L 170.285506 72.763826 
L 168.670884 72.763826 
z
" clip-path="url(#p9b40509c35)" style="fill: #1f77b4"/>
   </g>
   <g id="patch_71">
    <path d="M 170.285506 273.312 
L 171.900128 273.312 
L 171.900128 54.398609 
L 170.285506 54.398609 
z
" clip-path="url(#p9b40509c35)" style="fill: #1f77b4"/>
   </g>
   <g id="patch_72">
    <path d="M 171.900128 273.312 
L 173.514751 273.312 
L 173.514751 61.744696 
L 171.900128 61.744696 
z
" clip-path="url(#p9b40509c35)" style="fill: #1f77b4"/>
   </g>
   <g id="patch_73">
    <path d="M 173.514751 273.312 
L 175.129373 273.312 
L 175.129373 70.56 
L 173.514751 70.56 
z
" clip-path="url(#p9b40509c35)" style="fill: #1f77b4"/>
   </g>
   <g id="patch_74">
    <path d="M 175.129373 273.312 
L 176.743996 273.312 
L 176.743996 72.763826 
L 175.129373 72.763826 
z
" clip-path="url(#p9b40509c35)" style="fill: #1f77b4"/>
   </g>
   <g id="patch_75">
    <path d="M 176.743996 273.312 
L 178.358618 273.312 
L 178.358618 52.929391 
L 176.743996 52.929391 
z
" clip-path="url(#p9b40509c35)" style="fill: #1f77b4"/>
   </g>
   <g id="patch_76">
    <path d="M 178.358618 273.312 
L 179.97324 273.312 
L 179.97324 65.417739 
L 178.358618 65.417739 
z
" clip-path="url(#p9b40509c35)" style="fill: #1f77b4"/>
   </g>
   <g id="patch_77">
    <path d="M 179.97324 273.312 
L 181.587863 273.312 
L 181.587863 41.910261 
L 179.97324 41.910261 
z
" clip-path="url(#p9b40509c35)" style="fill: #1f77b4"/>
   </g>
   <g id="patch_78">
    <path d="M 181.587863 273.312 
L 183.202485 273.312 
L 183.202485 64.68313 
L 181.587863 64.68313 
z
" clip-path="url(#p9b40509c35)" style="fill: #1f77b4"/>
   </g>
   <g id="patch_79">
    <path d="M 183.202485 273.312 
L 184.817108 273.312 
L 184.817108 48.521739 
L 183.202485 48.521739 
z
" clip-path="url(#p9b40509c35)" style="fill: #1f77b4"/>
   </g>
   <g id="patch_80">
    <path d="M 184.817108 273.312 
L 186.43173 273.312 
L 186.43173 77.906087 
L 184.817108 77.906087 
z
" clip-path="url(#p9b40509c35)" style="fill: #1f77b4"/>
   </g>
   <g id="patch_81">
    <path d="M 186.43173 273.312 
L 188.046352 273.312 
L 188.046352 71.294609 
L 186.43173 71.294609 
z
" clip-path="url(#p9b40509c35)" style="fill: #1f77b4"/>
   </g>
   <g id="patch_82">
    <path d="M 188.046352 273.312 
L 189.660975 273.312 
L 189.660975 61.744696 
L 188.046352 61.744696 
z
" clip-path="url(#p9b40509c35)" style="fill: #1f77b4"/>
   </g>
   <g id="patch_83">
    <path d="M 189.660975 273.312 
L 191.275597 273.312 
L 191.275597 49.256348 
L 189.660975 49.256348 
z
" clip-path="url(#p9b40509c35)" style="fill: #1f77b4"/>
   </g>
   <g id="patch_84">
    <path d="M 191.275597 273.312 
L 192.890219 273.312 
L 192.890219 49.256348 
L 191.275597 49.256348 
z
" clip-path="url(#p9b40509c35)" style="fill: #1f77b4"/>
   </g>
   <g id="patch_85">
    <path d="M 192.890219 273.312 
L 194.504842 273.312 
L 194.504842 67.621565 
L 192.890219 67.621565 
z
" clip-path="url(#p9b40509c35)" style="fill: #1f77b4"/>
   </g>
   <g id="patch_86">
    <path d="M 194.504842 273.312 
L 196.119464 273.312 
L 196.119464 45.583304 
L 194.504842 45.583304 
z
" clip-path="url(#p9b40509c35)" style="fill: #1f77b4"/>
   </g>
   <g id="patch_87">
    <path d="M 196.119464 273.312 
L 197.734087 273.312 
L 197.734087 45.583304 
L 196.119464 45.583304 
z
" clip-path="url(#p9b40509c35)" style="fill: #1f77b4"/>
   </g>
   <g id="patch_88">
    <path d="M 197.734087 273.312 
L 199.348709 273.312 
L 199.348709 36.033391 
L 197.734087 36.033391 
z
" clip-path="url(#p9b40509c35)" style="fill: #1f77b4"/>
   </g>
   <g id="patch_89">
    <path d="M 199.348709 273.312 
L 200.963331 273.312 
L 200.963331 33.829565 
L 199.348709 33.829565 
z
" clip-path="url(#p9b40509c35)" style="fill: #1f77b4"/>
   </g>
   <g id="patch_90">
    <path d="M 200.963331 273.312 
L 202.577954 273.312 
L 202.577954 49.256348 
L 200.963331 49.256348 
z
" clip-path="url(#p9b40509c35)" style="fill: #1f77b4"/>
   </g>
   <g id="patch_91">
    <path d="M 202.577954 273.312 
L 204.192576 273.312 
L 204.192576 61.010087 
L 202.577954 61.010087 
z
" clip-path="url(#p9b40509c35)" style="fill: #1f77b4"/>
   </g>
   <g id="patch_92">
    <path d="M 204.192576 273.312 
L 205.807199 273.312 
L 205.807199 43.379478 
L 204.192576 43.379478 
z
" clip-path="url(#p9b40509c35)" style="fill: #1f77b4"/>
   </g>
   <g id="patch_93">
    <path d="M 205.807199 273.312 
L 207.421821 273.312 
L 207.421821 43.379478 
L 205.807199 43.379478 
z
" clip-path="url(#p9b40509c35)" style="fill: #1f77b4"/>
   </g>
   <g id="patch_94">
    <path d="M 207.421821 273.312 
L 209.036443 273.312 
L 209.036443 31.625739 
L 207.421821 31.625739 
z
" clip-path="url(#p9b40509c35)" style="fill: #1f77b4"/>
   </g>
   <g id="patch_95">
    <path d="M 209.036443 273.312 
L 210.651066 273.312 
L 210.651066 38.971826 
L 209.036443 38.971826 
z
" clip-path="url(#p9b40509c35)" style="fill: #1f77b4"/>
   </g>
   <g id="patch_96">
    <path d="M 210.651066 273.312 
L 212.265688 273.312 
L 212.265688 37.502609 
L 210.651066 37.502609 
z
" clip-path="url(#p9b40509c35)" style="fill: #1f77b4"/>
   </g>
   <g id="patch_97">
    <path d="M 212.265688 273.312 
L 213.880311 273.312 
L 213.880311 57.337043 
L 212.265688 57.337043 
z
" clip-path="url(#p9b40509c35)" style="fill: #1f77b4"/>
   </g>
   <g id="patch_98">
    <path d="M 213.880311 273.312 
L 215.494933 273.312 
L 215.494933 54.398609 
L 213.880311 54.398609 
z
" clip-path="url(#p9b40509c35)" style="fill: #1f77b4"/>
   </g>
   <g id="patch_99">
    <path d="M 215.494933 273.312 
L 217.109555 273.312 
L 217.109555 50.725565 
L 215.494933 50.725565 
z
" clip-path="url(#p9b40509c35)" style="fill: #1f77b4"/>
   </g>
   <g id="patch_100">
    <path d="M 217.109555 273.312 
L 218.724178 273.312 
L 218.724178 63.213913 
L 217.109555 63.213913 
z
" clip-path="url(#p9b40509c35)" style="fill: #1f77b4"/>
   </g>
   <g id="patch_101">
    <path d="M 218.724178 273.312 
L 220.3388 273.312 
L 220.3388 42.64487 
L 218.724178 42.64487 
z
" clip-path="url(#p9b40509c35)" style="fill: #1f77b4"/>
   </g>
   <g id="patch_102">
    <path d="M 220.3388 273.312 
L 221.953423 273.312 
L 221.953423 37.502609 
L 220.3388 37.502609 
z
" clip-path="url(#p9b40509c35)" style="fill: #1f77b4"/>
   </g>
   <g id="patch_103">
    <path d="M 221.953423 273.312 
L 223.568045 273.312 
L 223.568045 19.872 
L 221.953423 19.872 
z
" clip-path="url(#p9b40509c35)" style="fill: #1f77b4"/>
   </g>
   <g id="patch_104">
    <path d="M 223.568045 273.312 
L 225.182667 273.312 
L 225.182667 43.379478 
L 223.568045 43.379478 
z
" clip-path="url(#p9b40509c35)" style="fill: #1f77b4"/>
   </g>
   <g id="patch_105">
    <path d="M 225.182667 273.312 
L 226.79729 273.312 
L 226.79729 59.54087 
L 225.182667 59.54087 
z
" clip-path="url(#p9b40509c35)" style="fill: #1f77b4"/>
   </g>
   <g id="patch_106">
    <path d="M 226.79729 273.312 
L 228.411912 273.312 
L 228.411912 39.706435 
L 226.79729 39.706435 
z
" clip-path="url(#p9b40509c35)" style="fill: #1f77b4"/>
   </g>
   <g id="patch_107">
    <path d="M 228.411912 273.312 
L 230.026534 273.312 
L 230.026534 48.521739 
L 228.411912 48.521739 
z
" clip-path="url(#p9b40509c35)" style="fill: #1f77b4"/>
   </g>
   <g id="patch_108">
    <path d="M 230.026534 273.312 
L 231.641157 273.312 
L 231.641157 57.337043 
L 230.026534 57.337043 
z
" clip-path="url(#p9b40509c35)" style="fill: #1f77b4"/>
   </g>
   <g id="patch_109">
    <path d="M 231.641157 273.312 
L 233.255779 273.312 
L 233.255779 28.687304 
L 231.641157 28.687304 
z
" clip-path="url(#p9b40509c35)" style="fill: #1f77b4"/>
   </g>
   <g id="patch_110">
    <path d="M 233.255779 273.312 
L 234.870402 273.312 
L 234.870402 45.583304 
L 233.255779 45.583304 
z
" clip-path="url(#p9b40509c35)" style="fill: #1f77b4"/>
   </g>
   <g id="patch_111">
    <path d="M 234.870402 273.312 
L 236.485024 273.312 
L 236.485024 38.237217 
L 234.870402 38.237217 
z
" clip-path="url(#p9b40509c35)" style="fill: #1f77b4"/>
   </g>
   <g id="patch_112">
    <path d="M 236.485024 273.312 
L 238.099646 273.312 
L 238.099646 45.583304 
L 236.485024 45.583304 
z
" clip-path="url(#p9b40509c35)" style="fill: #1f77b4"/>
   </g>
   <g id="patch_113">
    <path d="M 238.099646 273.312 
L 239.714269 273.312 
L 239.714269 36.768 
L 238.099646 36.768 
z
" clip-path="url(#p9b40509c35)" style="fill: #1f77b4"/>
   </g>
   <g id="patch_114">
    <path d="M 239.714269 273.312 
L 241.328891 273.312 
L 241.328891 43.379478 
L 239.714269 43.379478 
z
" clip-path="url(#p9b40509c35)" style="fill: #1f77b4"/>
   </g>
   <g id="patch_115">
    <path d="M 241.328891 273.312 
L 242.943514 273.312 
L 242.943514 41.175652 
L 241.328891 41.175652 
z
" clip-path="url(#p9b40509c35)" style="fill: #1f77b4"/>
   </g>
   <g id="patch_116">
    <path d="M 242.943514 273.312 
L 244.558136 273.312 
L 244.558136 35.298783 
L 242.943514 35.298783 
z
" clip-path="url(#p9b40509c35)" style="fill: #1f77b4"/>
   </g>
   <g id="patch_117">
    <path d="M 244.558136 273.312 
L 246.172758 273.312 
L 246.172758 31.625739 
L 244.558136 31.625739 
z
" clip-path="url(#p9b40509c35)" style="fill: #1f77b4"/>
   </g>
   <g id="patch_118">
    <path d="M 246.172758 273.312 
L 247.787381 273.312 
L 247.787381 35.298783 
L 246.172758 35.298783 
z
" clip-path="url(#p9b40509c35)" style="fill: #1f77b4"/>
   </g>
   <g id="patch_119">
    <path d="M 247.787381 273.312 
L 249.402003 273.312 
L 249.402003 46.317913 
L 247.787381 46.317913 
z
" clip-path="url(#p9b40509c35)" style="fill: #1f77b4"/>
   </g>
   <g id="patch_120">
    <path d="M 249.402003 273.312 
L 251.016626 273.312 
L 251.016626 55.133217 
L 249.402003 55.133217 
z
" clip-path="url(#p9b40509c35)" style="fill: #1f77b4"/>
   </g>
   <g id="patch_121">
    <path d="M 251.016626 273.312 
L 252.631248 273.312 
L 252.631248 59.54087 
L 251.016626 59.54087 
z
" clip-path="url(#p9b40509c35)" style="fill: #1f77b4"/>
   </g>
   <g id="patch_122">
    <path d="M 252.631248 273.312 
L 254.24587 273.312 
L 254.24587 50.725565 
L 252.631248 50.725565 
z
" clip-path="url(#p9b40509c35)" style="fill: #1f77b4"/>
   </g>
   <g id="patch_123">
    <path d="M 254.24587 273.312 
L 255.860493 273.312 
L 255.860493 73.498435 
L 254.24587 73.498435 
z
" clip-path="url(#p9b40509c35)" style="fill: #1f77b4"/>
   </g>
   <g id="patch_124">
    <path d="M 255.860493 273.312 
L 257.475115 273.312 
L 257.475115 51.460174 
L 255.860493 51.460174 
z
" clip-path="url(#p9b40509c35)" style="fill: #1f77b4"/>
   </g>
   <g id="patch_125">
    <path d="M 257.475115 273.312 
L 259.089738 273.312 
L 259.089738 80.109913 
L 257.475115 80.109913 
z
" clip-path="url(#p9b40509c35)" style="fill: #1f77b4"/>
   </g>
   <g id="patch_126">
    <path d="M 259.089738 273.312 
L 260.70436 273.312 
L 260.70436 84.517565 
L 259.089738 84.517565 
z
" clip-path="url(#p9b40509c35)" style="fill: #1f77b4"/>
   </g>
   <g id="patch_127">
    <path d="M 260.70436 273.312 
L 262.318982 273.312 
L 262.318982 69.825391 
L 260.70436 69.825391 
z
" clip-path="url(#p9b40509c35)" style="fill: #1f77b4"/>
   </g>
   <g id="patch_128">
    <path d="M 262.318982 273.312 
L 263.933605 273.312 
L 263.933605 60.275478 
L 262.318982 60.275478 
z
" clip-path="url(#p9b40509c35)" style="fill: #1f77b4"/>
   </g>
   <g id="patch_129">
    <path d="M 263.933605 273.312 
L 265.548227 273.312 
L 265.548227 72.029217 
L 263.933605 72.029217 
z
" clip-path="url(#p9b40509c35)" style="fill: #1f77b4"/>
   </g>
   <g id="patch_130">
    <path d="M 265.548227 273.312 
L 267.162849 273.312 
L 267.162849 72.763826 
L 265.548227 72.763826 
z
" clip-path="url(#p9b40509c35)" style="fill: #1f77b4"/>
   </g>
   <g id="patch_131">
    <path d="M 267.162849 273.312 
L 268.777472 273.312 
L 268.777472 58.806261 
L 267.162849 58.806261 
z
" clip-path="url(#p9b40509c35)" style="fill: #1f77b4"/>
   </g>
   <g id="patch_132">
    <path d="M 268.777472 273.312 
L 270.392094 273.312 
L 270.392094 69.090783 
L 268.777472 69.090783 
z
" clip-path="url(#p9b40509c35)" style="fill: #1f77b4"/>
   </g>
   <g id="patch_133">
    <path d="M 270.392094 273.312 
L 272.006717 273.312 
L 272.006717 66.152348 
L 270.392094 66.152348 
z
" clip-path="url(#p9b40509c35)" style="fill: #1f77b4"/>
   </g>
   <g id="patch_134">
    <path d="M 272.006717 273.312 
L 273.621339 273.312 
L 273.621339 88.925217 
L 272.006717 88.925217 
z
" clip-path="url(#p9b40509c35)" style="fill: #1f77b4"/>
   </g>
   <g id="patch_135">
    <path d="M 273.621339 273.312 
L 275.235961 273.312 
L 275.235961 83.048348 
L 273.621339 83.048348 
z
" clip-path="url(#p9b40509c35)" style="fill: #1f77b4"/>
   </g>
   <g id="patch_136">
    <path d="M 275.235961 273.312 
L 276.850584 273.312 
L 276.850584 74.233043 
L 275.235961 74.233043 
z
" clip-path="url(#p9b40509c35)" style="fill: #1f77b4"/>
   </g>
   <g id="patch_137">
    <path d="M 276.850584 273.312 
L 278.465206 273.312 
L 278.465206 84.517565 
L 276.850584 84.517565 
z
" clip-path="url(#p9b40509c35)" style="fill: #1f77b4"/>
   </g>
   <g id="patch_138">
    <path d="M 278.465206 273.312 
L 280.079829 273.312 
L 280.079829 79.375304 
L 278.465206 79.375304 
z
" clip-path="url(#p9b40509c35)" style="fill: #1f77b4"/>
   </g>
   <g id="patch_139">
    <path d="M 280.079829 273.312 
L 281.694451 273.312 
L 281.694451 72.029217 
L 280.079829 72.029217 
z
" clip-path="url(#p9b40509c35)" style="fill: #1f77b4"/>
   </g>
   <g id="patch_140">
    <path d="M 281.694451 273.312 
L 283.309073 273.312 
L 283.309073 84.517565 
L 281.694451 84.517565 
z
" clip-path="url(#p9b40509c35)" style="fill: #1f77b4"/>
   </g>
   <g id="patch_141">
    <path d="M 283.309073 273.312 
L 284.923696 273.312 
L 284.923696 72.763826 
L 283.309073 72.763826 
z
" clip-path="url(#p9b40509c35)" style="fill: #1f77b4"/>
   </g>
   <g id="patch_142">
    <path d="M 284.923696 273.312 
L 286.538318 273.312 
L 286.538318 84.517565 
L 284.923696 84.517565 
z
" clip-path="url(#p9b40509c35)" style="fill: #1f77b4"/>
   </g>
   <g id="patch_143">
    <path d="M 286.538318 273.312 
L 288.152941 273.312 
L 288.152941 91.129043 
L 286.538318 91.129043 
z
" clip-path="url(#p9b40509c35)" style="fill: #1f77b4"/>
   </g>
   <g id="patch_144">
    <path d="M 288.152941 273.312 
L 289.767563 273.312 
L 289.767563 73.498435 
L 288.152941 73.498435 
z
" clip-path="url(#p9b40509c35)" style="fill: #1f77b4"/>
   </g>
   <g id="patch_145">
    <path d="M 289.767563 273.312 
L 291.382185 273.312 
L 291.382185 83.048348 
L 289.767563 83.048348 
z
" clip-path="url(#p9b40509c35)" style="fill: #1f77b4"/>
   </g>
   <g id="patch_146">
    <path d="M 291.382185 273.312 
L 292.996808 273.312 
L 292.996808 108.025043 
L 291.382185 108.025043 
z
" clip-path="url(#p9b40509c35)" style="fill: #1f77b4"/>
   </g>
   <g id="patch_147">
    <path d="M 292.996808 273.312 
L 294.61143 273.312 
L 294.61143 91.129043 
L 292.996808 91.129043 
z
" clip-path="url(#p9b40509c35)" style="fill: #1f77b4"/>
   </g>
   <g id="patch_148">
    <path d="M 294.61143 273.312 
L 296.226053 273.312 
L 296.226053 100.678957 
L 294.61143 100.678957 
z
" clip-path="url(#p9b40509c35)" style="fill: #1f77b4"/>
   </g>
   <g id="patch_149">
    <path d="M 296.226053 273.312 
L 297.840675 273.312 
L 297.840675 91.863652 
L 296.226053 91.863652 
z
" clip-path="url(#p9b40509c35)" style="fill: #1f77b4"/>
   </g>
   <g id="patch_150">
    <path d="M 297.840675 273.312 
L 299.455297 273.312 
L 299.455297 109.494261 
L 297.840675 109.494261 
z
" clip-path="url(#p9b40509c35)" style="fill: #1f77b4"/>
   </g>
   <g id="patch_151">
    <path d="M 299.455297 273.312 
L 301.06992 273.312 
L 301.06992 105.086609 
L 299.455297 105.086609 
z
" clip-path="url(#p9b40509c35)" style="fill: #1f77b4"/>
   </g>
   <g id="patch_152">
    <path d="M 301.06992 273.312 
L 302.684542 273.312 
L 302.684542 96.271304 
L 301.06992 96.271304 
z
" clip-path="url(#p9b40509c35)" style="fill: #1f77b4"/>
   </g>
   <g id="patch_153">
    <path d="M 302.684542 273.312 
L 304.299164 273.312 
L 304.299164 112.432696 
L 302.684542 112.432696 
z
" clip-path="url(#p9b40509c35)" style="fill: #1f77b4"/>
   </g>
   <g id="patch_154">
    <path d="M 304.299164 273.312 
L 305.913787 273.312 
L 305.913787 110.22887 
L 304.299164 110.22887 
z
" clip-path="url(#p9b40509c35)" style="fill: #1f77b4"/>
   </g>
   <g id="patch_155">
    <path d="M 305.913787 273.312 
L 307.528409 273.312 
L 307.528409 118.309565 
L 305.913787 118.309565 
z
" clip-path="url(#p9b40509c35)" style="fill: #1f77b4"/>
   </g>
   <g id="patch_156">
    <path d="M 307.528409 273.312 
L 309.143032 273.312 
L 309.143032 113.167304 
L 307.528409 113.167304 
z
" clip-path="url(#p9b40509c35)" style="fill: #1f77b4"/>
   </g>
   <g id="patch_157">
    <path d="M 309.143032 273.312 
L 310.757654 273.312 
L 310.757654 114.636522 
L 309.143032 114.636522 
z
" clip-path="url(#p9b40509c35)" style="fill: #1f77b4"/>
   </g>
   <g id="patch_158">
    <path d="M 310.757654 273.312 
L 312.372276 273.312 
L 312.372276 121.982609 
L 310.757654 121.982609 
z
" clip-path="url(#p9b40509c35)" style="fill: #1f77b4"/>
   </g>
   <g id="patch_159">
    <path d="M 312.372276 273.312 
L 313.986899 273.312 
L 313.986899 114.636522 
L 312.372276 114.636522 
z
" clip-path="url(#p9b40509c35)" style="fill: #1f77b4"/>
   </g>
   <g id="patch_160">
    <path d="M 313.986899 273.312 
L 315.601521 273.312 
L 315.601521 135.205565 
L 313.986899 135.205565 
z
" clip-path="url(#p9b40509c35)" style="fill: #1f77b4"/>
   </g>
   <g id="patch_161">
    <path d="M 315.601521 273.312 
L 317.216144 273.312 
L 317.216144 151.366957 
L 315.601521 151.366957 
z
" clip-path="url(#p9b40509c35)" style="fill: #1f77b4"/>
   </g>
   <g id="patch_162">
    <path d="M 317.216144 273.312 
L 318.830766 273.312 
L 318.830766 122.717217 
L 317.216144 122.717217 
z
" clip-path="url(#p9b40509c35)" style="fill: #1f77b4"/>
   </g>
   <g id="patch_163">
    <path d="M 318.830766 273.312 
L 320.445388 273.312 
L 320.445388 157.978435 
L 318.830766 157.978435 
z
" clip-path="url(#p9b40509c35)" style="fill: #1f77b4"/>
   </g>
   <g id="patch_164">
    <path d="M 320.445388 273.312 
L 322.060011 273.312 
L 322.060011 120.513391 
L 320.445388 120.513391 
z
" clip-path="url(#p9b40509c35)" style="fill: #1f77b4"/>
   </g>
   <g id="patch_165">
    <path d="M 322.060011 273.312 
L 323.674633 273.312 
L 323.674633 145.490087 
L 322.060011 145.490087 
z
" clip-path="url(#p9b40509c35)" style="fill: #1f77b4"/>
   </g>
   <g id="patch_166">
    <path d="M 323.674633 273.312 
L 325.289256 273.312 
L 325.289256 142.551652 
L 323.674633 142.551652 
z
" clip-path="url(#p9b40509c35)" style="fill: #1f77b4"/>
   </g>
   <g id="patch_167">
    <path d="M 325.289256 273.312 
L 326.903878 273.312 
L 326.903878 148.428522 
L 325.289256 148.428522 
z
" clip-path="url(#p9b40509c35)" style="fill: #1f77b4"/>
   </g>
   <g id="patch_168">
    <path d="M 326.903878 273.312 
L 328.5185 273.312 
L 328.5185 137.409391 
L 326.903878 137.409391 
z
" clip-path="url(#p9b40509c35)" style="fill: #1f77b4"/>
   </g>
   <g id="patch_169">
    <path d="M 328.5185 273.312 
L 330.133123 273.312 
L 330.133123 152.101565 
L 328.5185 152.101565 
z
" clip-path="url(#p9b40509c35)" style="fill: #1f77b4"/>
   </g>
   <g id="patch_170">
    <path d="M 330.133123 273.312 
L 331.747745 273.312 
L 331.747745 151.366957 
L 330.133123 151.366957 
z
" clip-path="url(#p9b40509c35)" style="fill: #1f77b4"/>
   </g>
   <g id="patch_171">
    <path d="M 331.747745 273.312 
L 333.362368 273.312 
L 333.362368 168.262957 
L 331.747745 168.262957 
z
" clip-path="url(#p9b40509c35)" style="fill: #1f77b4"/>
   </g>
   <g id="patch_172">
    <path d="M 333.362368 273.312 
L 334.97699 273.312 
L 334.97699 161.651478 
L 333.362368 161.651478 
z
" clip-path="url(#p9b40509c35)" style="fill: #1f77b4"/>
   </g>
   <g id="patch_173">
    <path d="M 334.97699 273.312 
L 336.591612 273.312 
L 336.591612 176.343652 
L 334.97699 176.343652 
z
" clip-path="url(#p9b40509c35)" style="fill: #1f77b4"/>
   </g>
   <g id="patch_174">
    <path d="M 336.591612 273.312 
L 338.206235 273.312 
L 338.206235 173.405217 
L 336.591612 173.405217 
z
" clip-path="url(#p9b40509c35)" style="fill: #1f77b4"/>
   </g>
   <g id="patch_175">
    <path d="M 338.206235 273.312 
L 339.820857 273.312 
L 339.820857 167.528348 
L 338.206235 167.528348 
z
" clip-path="url(#p9b40509c35)" style="fill: #1f77b4"/>
   </g>
   <g id="patch_176">
    <path d="M 339.820857 273.312 
L 341.435479 273.312 
L 341.435479 202.789565 
L 339.820857 202.789565 
z
" clip-path="url(#p9b40509c35)" style="fill: #1f77b4"/>
   </g>
   <g id="patch_177">
    <path d="M 341.435479 273.312 
L 343.050102 273.312 
L 343.050102 174.874435 
L 341.435479 174.874435 
z
" clip-path="url(#p9b40509c35)" style="fill: #1f77b4"/>
   </g>
   <g id="patch_178">
    <path d="M 343.050102 273.312 
L 344.664724 273.312 
L 344.664724 191.035826 
L 343.050102 191.035826 
z
" clip-path="url(#p9b40509c35)" style="fill: #1f77b4"/>
   </g>
   <g id="patch_179">
    <path d="M 344.664724 273.312 
L 346.279347 273.312 
L 346.279347 188.097391 
L 344.664724 188.097391 
z
" clip-path="url(#p9b40509c35)" style="fill: #1f77b4"/>
   </g>
   <g id="patch_180">
    <path d="M 346.279347 273.312 
L 347.893969 273.312 
L 347.893969 181.485913 
L 346.279347 181.485913 
z
" clip-path="url(#p9b40509c35)" style="fill: #1f77b4"/>
   </g>
   <g id="patch_181">
    <path d="M 347.893969 273.312 
L 349.508591 273.312 
L 349.508591 194.70887 
L 347.893969 194.70887 
z
" clip-path="url(#p9b40509c35)" style="fill: #1f77b4"/>
   </g>
   <g id="patch_182">
    <path d="M 349.508591 273.312 
L 351.123214 273.312 
L 351.123214 196.912696 
L 349.508591 196.912696 
z
" clip-path="url(#p9b40509c35)" style="fill: #1f77b4"/>
   </g>
   <g id="patch_183">
    <path d="M 351.123214 273.312 
L 352.737836 273.312 
L 352.737836 203.524174 
L 351.123214 203.524174 
z
" clip-path="url(#p9b40509c35)" style="fill: #1f77b4"/>
   </g>
   <g id="patch_184">
    <path d="M 352.737836 273.312 
L 354.352459 273.312 
L 354.352459 204.258783 
L 352.737836 204.258783 
z
" clip-path="url(#p9b40509c35)" style="fill: #1f77b4"/>
   </g>
   <g id="patch_185">
    <path d="M 354.352459 273.312 
L 355.967081 273.312 
L 355.967081 215.277913 
L 354.352459 215.277913 
z
" clip-path="url(#p9b40509c35)" style="fill: #1f77b4"/>
   </g>
   <g id="patch_186">
    <path d="M 355.967081 273.312 
L 357.581703 273.312 
L 357.581703 212.339478 
L 355.967081 212.339478 
z
" clip-path="url(#p9b40509c35)" style="fill: #1f77b4"/>
   </g>
   <g id="patch_187">
    <path d="M 357.581703 273.312 
L 359.196326 273.312 
L 359.196326 220.420174 
L 357.581703 220.420174 
z
" clip-path="url(#p9b40509c35)" style="fill: #1f77b4"/>
   </g>
   <g id="patch_188">
    <path d="M 359.196326 273.312 
L 360.810948 273.312 
L 360.810948 225.562435 
L 359.196326 225.562435 
z
" clip-path="url(#p9b40509c35)" style="fill: #1f77b4"/>
   </g>
   <g id="patch_189">
    <path d="M 360.810948 273.312 
L 362.425571 273.312 
L 362.425571 212.339478 
L 360.810948 212.339478 
z
" clip-path="url(#p9b40509c35)" style="fill: #1f77b4"/>
   </g>
   <g id="patch_190">
    <path d="M 362.425571 273.312 
L 364.040193 273.312 
L 364.040193 221.889391 
L 362.425571 221.889391 
z
" clip-path="url(#p9b40509c35)" style="fill: #1f77b4"/>
   </g>
   <g id="patch_191">
    <path d="M 364.040193 273.312 
L 365.654815 273.312 
L 365.654815 222.624 
L 364.040193 222.624 
z
" clip-path="url(#p9b40509c35)" style="fill: #1f77b4"/>
   </g>
   <g id="patch_192">
    <path d="M 365.654815 273.312 
L 367.269438 273.312 
L 367.269438 233.64313 
L 365.654815 233.64313 
z
" clip-path="url(#p9b40509c35)" style="fill: #1f77b4"/>
   </g>
   <g id="patch_193">
    <path d="M 367.269438 273.312 
L 368.88406 273.312 
L 368.88406 227.766261 
L 367.269438 227.766261 
z
" clip-path="url(#p9b40509c35)" style="fill: #1f77b4"/>
   </g>
   <g id="patch_194">
    <path d="M 368.88406 273.312 
L 370.498683 273.312 
L 370.498683 243.193043 
L 368.88406 243.193043 
z
" clip-path="url(#p9b40509c35)" style="fill: #1f77b4"/>
   </g>
   <g id="patch_195">
    <path d="M 370.498683 273.312 
L 372.113305 273.312 
L 372.113305 242.458435 
L 370.498683 242.458435 
z
" clip-path="url(#p9b40509c35)" style="fill: #1f77b4"/>
   </g>
   <g id="patch_196">
    <path d="M 372.113305 273.312 
L 373.727927 273.312 
L 373.727927 248.335304 
L 372.113305 248.335304 
z
" clip-path="url(#p9b40509c35)" style="fill: #1f77b4"/>
   </g>
   <g id="patch_197">
    <path d="M 373.727927 273.312 
L 375.34255 273.312 
L 375.34255 242.458435 
L 373.727927 242.458435 
z
" clip-path="url(#p9b40509c35)" style="fill: #1f77b4"/>
   </g>
   <g id="patch_198">
    <path d="M 375.34255 273.312 
L 376.957172 273.312 
L 376.957172 256.416 
L 375.34255 256.416 
z
" clip-path="url(#p9b40509c35)" style="fill: #1f77b4"/>
   </g>
   <g id="patch_199">
    <path d="M 376.957172 273.312 
L 378.571794 273.312 
L 378.571794 252.008348 
L 376.957172 252.008348 
z
" clip-path="url(#p9b40509c35)" style="fill: #1f77b4"/>
   </g>
   <g id="patch_200">
    <path d="M 378.571794 273.312 
L 380.186417 273.312 
L 380.186417 260.823652 
L 378.571794 260.823652 
z
" clip-path="url(#p9b40509c35)" style="fill: #1f77b4"/>
   </g>
   <g id="patch_201">
    <path d="M 380.186417 273.312 
L 381.801039 273.312 
L 381.801039 263.762087 
L 380.186417 263.762087 
z
" clip-path="url(#p9b40509c35)" style="fill: #1f77b4"/>
   </g>
   <g id="patch_202">
    <path d="M 381.801039 273.312 
L 383.415662 273.312 
L 383.415662 268.904348 
L 381.801039 268.904348 
z
" clip-path="url(#p9b40509c35)" style="fill: #1f77b4"/>
   </g>
   <g id="matplotlib.axis_1">
    <g id="xtick_1">
     <g id="line2d_1">
      <defs>
       <path id="me375c0758e" d="M 0 0 
L 0 3.5 
" style="stroke: #000000; stroke-width: 0.8"/>
      </defs>
      <g>
       <use xlink:href="#me375c0758e" x="60.013977" y="273.312" style="stroke: #000000; stroke-width: 0.8"/>
      </g>
     </g>
     <g id="text_1">
      <!-- 0.0 -->
      <g transform="translate(52.062415 287.910437)scale(0.1 -0.1)">
       <defs>
        <path id="DejaVuSans-30" d="M 2034 4250 
Q 1547 4250 1301 3770 
Q 1056 3291 1056 2328 
Q 1056 1369 1301 889 
Q 1547 409 2034 409 
Q 2525 409 2770 889 
Q 3016 1369 3016 2328 
Q 3016 3291 2770 3770 
Q 2525 4250 2034 4250 
z
M 2034 4750 
Q 2819 4750 3233 4129 
Q 3647 3509 3647 2328 
Q 3647 1150 3233 529 
Q 2819 -91 2034 -91 
Q 1250 -91 836 529 
Q 422 1150 422 2328 
Q 422 3509 836 4129 
Q 1250 4750 2034 4750 
z
" transform="scale(0.015625)"/>
        <path id="DejaVuSans-2e" d="M 684 794 
L 1344 794 
L 1344 0 
L 684 0 
L 684 794 
z
" transform="scale(0.015625)"/>
       </defs>
       <use xlink:href="#DejaVuSans-30"/>
       <use xlink:href="#DejaVuSans-2e" x="63.623047"/>
       <use xlink:href="#DejaVuSans-30" x="95.410156"/>
      </g>
     </g>
    </g>
    <g id="xtick_2">
     <g id="line2d_2">
      <g>
       <use xlink:href="#me375c0758e" x="101.350278" y="273.312" style="stroke: #000000; stroke-width: 0.8"/>
      </g>
     </g>
     <g id="text_2">
      <!-- 0.2 -->
      <g transform="translate(93.398715 287.910437)scale(0.1 -0.1)">
       <defs>
        <path id="DejaVuSans-32" d="M 1228 531 
L 3431 531 
L 3431 0 
L 469 0 
L 469 531 
Q 828 903 1448 1529 
Q 2069 2156 2228 2338 
Q 2531 2678 2651 2914 
Q 2772 3150 2772 3378 
Q 2772 3750 2511 3984 
Q 2250 4219 1831 4219 
Q 1534 4219 1204 4116 
Q 875 4013 500 3803 
L 500 4441 
Q 881 4594 1212 4672 
Q 1544 4750 1819 4750 
Q 2544 4750 2975 4387 
Q 3406 4025 3406 3419 
Q 3406 3131 3298 2873 
Q 3191 2616 2906 2266 
Q 2828 2175 2409 1742 
Q 1991 1309 1228 531 
z
" transform="scale(0.015625)"/>
       </defs>
       <use xlink:href="#DejaVuSans-30"/>
       <use xlink:href="#DejaVuSans-2e" x="63.623047"/>
       <use xlink:href="#DejaVuSans-32" x="95.410156"/>
      </g>
     </g>
    </g>
    <g id="xtick_3">
     <g id="line2d_3">
      <g>
       <use xlink:href="#me375c0758e" x="142.686578" y="273.312" style="stroke: #000000; stroke-width: 0.8"/>
      </g>
     </g>
     <g id="text_3">
      <!-- 0.4 -->
      <g transform="translate(134.735016 287.910437)scale(0.1 -0.1)">
       <defs>
        <path id="DejaVuSans-34" d="M 2419 4116 
L 825 1625 
L 2419 1625 
L 2419 4116 
z
M 2253 4666 
L 3047 4666 
L 3047 1625 
L 3713 1625 
L 3713 1100 
L 3047 1100 
L 3047 0 
L 2419 0 
L 2419 1100 
L 313 1100 
L 313 1709 
L 2253 4666 
z
" transform="scale(0.015625)"/>
       </defs>
       <use xlink:href="#DejaVuSans-30"/>
       <use xlink:href="#DejaVuSans-2e" x="63.623047"/>
       <use xlink:href="#DejaVuSans-34" x="95.410156"/>
      </g>
     </g>
    </g>
    <g id="xtick_4">
     <g id="line2d_4">
      <g>
       <use xlink:href="#me375c0758e" x="184.022879" y="273.312" style="stroke: #000000; stroke-width: 0.8"/>
      </g>
     </g>
     <g id="text_4">
      <!-- 0.6 -->
      <g transform="translate(176.071316 287.910437)scale(0.1 -0.1)">
       <defs>
        <path id="DejaVuSans-36" d="M 2113 2584 
Q 1688 2584 1439 2293 
Q 1191 2003 1191 1497 
Q 1191 994 1439 701 
Q 1688 409 2113 409 
Q 2538 409 2786 701 
Q 3034 994 3034 1497 
Q 3034 2003 2786 2293 
Q 2538 2584 2113 2584 
z
M 3366 4563 
L 3366 3988 
Q 3128 4100 2886 4159 
Q 2644 4219 2406 4219 
Q 1781 4219 1451 3797 
Q 1122 3375 1075 2522 
Q 1259 2794 1537 2939 
Q 1816 3084 2150 3084 
Q 2853 3084 3261 2657 
Q 3669 2231 3669 1497 
Q 3669 778 3244 343 
Q 2819 -91 2113 -91 
Q 1303 -91 875 529 
Q 447 1150 447 2328 
Q 447 3434 972 4092 
Q 1497 4750 2381 4750 
Q 2619 4750 2861 4703 
Q 3103 4656 3366 4563 
z
" transform="scale(0.015625)"/>
       </defs>
       <use xlink:href="#DejaVuSans-30"/>
       <use xlink:href="#DejaVuSans-2e" x="63.623047"/>
       <use xlink:href="#DejaVuSans-36" x="95.410156"/>
      </g>
     </g>
    </g>
    <g id="xtick_5">
     <g id="line2d_5">
      <g>
       <use xlink:href="#me375c0758e" x="225.35918" y="273.312" style="stroke: #000000; stroke-width: 0.8"/>
      </g>
     </g>
     <g id="text_5">
      <!-- 0.8 -->
      <g transform="translate(217.407617 287.910437)scale(0.1 -0.1)">
       <defs>
        <path id="DejaVuSans-38" d="M 2034 2216 
Q 1584 2216 1326 1975 
Q 1069 1734 1069 1313 
Q 1069 891 1326 650 
Q 1584 409 2034 409 
Q 2484 409 2743 651 
Q 3003 894 3003 1313 
Q 3003 1734 2745 1975 
Q 2488 2216 2034 2216 
z
M 1403 2484 
Q 997 2584 770 2862 
Q 544 3141 544 3541 
Q 544 4100 942 4425 
Q 1341 4750 2034 4750 
Q 2731 4750 3128 4425 
Q 3525 4100 3525 3541 
Q 3525 3141 3298 2862 
Q 3072 2584 2669 2484 
Q 3125 2378 3379 2068 
Q 3634 1759 3634 1313 
Q 3634 634 3220 271 
Q 2806 -91 2034 -91 
Q 1263 -91 848 271 
Q 434 634 434 1313 
Q 434 1759 690 2068 
Q 947 2378 1403 2484 
z
M 1172 3481 
Q 1172 3119 1398 2916 
Q 1625 2713 2034 2713 
Q 2441 2713 2670 2916 
Q 2900 3119 2900 3481 
Q 2900 3844 2670 4047 
Q 2441 4250 2034 4250 
Q 1625 4250 1398 4047 
Q 1172 3844 1172 3481 
z
" transform="scale(0.015625)"/>
       </defs>
       <use xlink:href="#DejaVuSans-30"/>
       <use xlink:href="#DejaVuSans-2e" x="63.623047"/>
       <use xlink:href="#DejaVuSans-38" x="95.410156"/>
      </g>
     </g>
    </g>
    <g id="xtick_6">
     <g id="line2d_6">
      <g>
       <use xlink:href="#me375c0758e" x="266.69548" y="273.312" style="stroke: #000000; stroke-width: 0.8"/>
      </g>
     </g>
     <g id="text_6">
      <!-- 1.0 -->
      <g transform="translate(258.743918 287.910437)scale(0.1 -0.1)">
       <defs>
        <path id="DejaVuSans-31" d="M 794 531 
L 1825 531 
L 1825 4091 
L 703 3866 
L 703 4441 
L 1819 4666 
L 2450 4666 
L 2450 531 
L 3481 531 
L 3481 0 
L 794 0 
L 794 531 
z
" transform="scale(0.015625)"/>
       </defs>
       <use xlink:href="#DejaVuSans-31"/>
       <use xlink:href="#DejaVuSans-2e" x="63.623047"/>
       <use xlink:href="#DejaVuSans-30" x="95.410156"/>
      </g>
     </g>
    </g>
    <g id="xtick_7">
     <g id="line2d_7">
      <g>
       <use xlink:href="#me375c0758e" x="308.031781" y="273.312" style="stroke: #000000; stroke-width: 0.8"/>
      </g>
     </g>
     <g id="text_7">
      <!-- 1.2 -->
      <g transform="translate(300.080218 287.910437)scale(0.1 -0.1)">
       <use xlink:href="#DejaVuSans-31"/>
       <use xlink:href="#DejaVuSans-2e" x="63.623047"/>
       <use xlink:href="#DejaVuSans-32" x="95.410156"/>
      </g>
     </g>
    </g>
    <g id="xtick_8">
     <g id="line2d_8">
      <g>
       <use xlink:href="#me375c0758e" x="349.368081" y="273.312" style="stroke: #000000; stroke-width: 0.8"/>
      </g>
     </g>
     <g id="text_8">
      <!-- 1.4 -->
      <g transform="translate(341.416519 287.910437)scale(0.1 -0.1)">
       <use xlink:href="#DejaVuSans-31"/>
       <use xlink:href="#DejaVuSans-2e" x="63.623047"/>
       <use xlink:href="#DejaVuSans-34" x="95.410156"/>
      </g>
     </g>
    </g>
    <g id="xtick_9">
     <g id="line2d_9">
      <g>
       <use xlink:href="#me375c0758e" x="390.704382" y="273.312" style="stroke: #000000; stroke-width: 0.8"/>
      </g>
     </g>
     <g id="text_9">
      <!-- 1.6 -->
      <g transform="translate(382.752819 287.910437)scale(0.1 -0.1)">
       <use xlink:href="#DejaVuSans-31"/>
       <use xlink:href="#DejaVuSans-2e" x="63.623047"/>
       <use xlink:href="#DejaVuSans-36" x="95.410156"/>
      </g>
     </g>
    </g>
    <g id="text_10">
     <!-- Angle with normal (rad) -->
     <g transform="translate(163.023281 301.588562)scale(0.1 -0.1)">
      <defs>
       <path id="DejaVuSans-41" d="M 2188 4044 
L 1331 1722 
L 3047 1722 
L 2188 4044 
z
M 1831 4666 
L 2547 4666 
L 4325 0 
L 3669 0 
L 3244 1197 
L 1141 1197 
L 716 0 
L 50 0 
L 1831 4666 
z
" transform="scale(0.015625)"/>
       <path id="DejaVuSans-6e" d="M 3513 2113 
L 3513 0 
L 2938 0 
L 2938 2094 
Q 2938 2591 2744 2837 
Q 2550 3084 2163 3084 
Q 1697 3084 1428 2787 
Q 1159 2491 1159 1978 
L 1159 0 
L 581 0 
L 581 3500 
L 1159 3500 
L 1159 2956 
Q 1366 3272 1645 3428 
Q 1925 3584 2291 3584 
Q 2894 3584 3203 3211 
Q 3513 2838 3513 2113 
z
" transform="scale(0.015625)"/>
       <path id="DejaVuSans-67" d="M 2906 1791 
Q 2906 2416 2648 2759 
Q 2391 3103 1925 3103 
Q 1463 3103 1205 2759 
Q 947 2416 947 1791 
Q 947 1169 1205 825 
Q 1463 481 1925 481 
Q 2391 481 2648 825 
Q 2906 1169 2906 1791 
z
M 3481 434 
Q 3481 -459 3084 -895 
Q 2688 -1331 1869 -1331 
Q 1566 -1331 1297 -1286 
Q 1028 -1241 775 -1147 
L 775 -588 
Q 1028 -725 1275 -790 
Q 1522 -856 1778 -856 
Q 2344 -856 2625 -561 
Q 2906 -266 2906 331 
L 2906 616 
Q 2728 306 2450 153 
Q 2172 0 1784 0 
Q 1141 0 747 490 
Q 353 981 353 1791 
Q 353 2603 747 3093 
Q 1141 3584 1784 3584 
Q 2172 3584 2450 3431 
Q 2728 3278 2906 2969 
L 2906 3500 
L 3481 3500 
L 3481 434 
z
" transform="scale(0.015625)"/>
       <path id="DejaVuSans-6c" d="M 603 4863 
L 1178 4863 
L 1178 0 
L 603 0 
L 603 4863 
z
" transform="scale(0.015625)"/>
       <path id="DejaVuSans-65" d="M 3597 1894 
L 3597 1613 
L 953 1613 
Q 991 1019 1311 708 
Q 1631 397 2203 397 
Q 2534 397 2845 478 
Q 3156 559 3463 722 
L 3463 178 
Q 3153 47 2828 -22 
Q 2503 -91 2169 -91 
Q 1331 -91 842 396 
Q 353 884 353 1716 
Q 353 2575 817 3079 
Q 1281 3584 2069 3584 
Q 2775 3584 3186 3129 
Q 3597 2675 3597 1894 
z
M 3022 2063 
Q 3016 2534 2758 2815 
Q 2500 3097 2075 3097 
Q 1594 3097 1305 2825 
Q 1016 2553 972 2059 
L 3022 2063 
z
" transform="scale(0.015625)"/>
       <path id="DejaVuSans-20" transform="scale(0.015625)"/>
       <path id="DejaVuSans-77" d="M 269 3500 
L 844 3500 
L 1563 769 
L 2278 3500 
L 2956 3500 
L 3675 769 
L 4391 3500 
L 4966 3500 
L 4050 0 
L 3372 0 
L 2619 2869 
L 1863 0 
L 1184 0 
L 269 3500 
z
" transform="scale(0.015625)"/>
       <path id="DejaVuSans-69" d="M 603 3500 
L 1178 3500 
L 1178 0 
L 603 0 
L 603 3500 
z
M 603 4863 
L 1178 4863 
L 1178 4134 
L 603 4134 
L 603 4863 
z
" transform="scale(0.015625)"/>
       <path id="DejaVuSans-74" d="M 1172 4494 
L 1172 3500 
L 2356 3500 
L 2356 3053 
L 1172 3053 
L 1172 1153 
Q 1172 725 1289 603 
Q 1406 481 1766 481 
L 2356 481 
L 2356 0 
L 1766 0 
Q 1100 0 847 248 
Q 594 497 594 1153 
L 594 3053 
L 172 3053 
L 172 3500 
L 594 3500 
L 594 4494 
L 1172 4494 
z
" transform="scale(0.015625)"/>
       <path id="DejaVuSans-68" d="M 3513 2113 
L 3513 0 
L 2938 0 
L 2938 2094 
Q 2938 2591 2744 2837 
Q 2550 3084 2163 3084 
Q 1697 3084 1428 2787 
Q 1159 2491 1159 1978 
L 1159 0 
L 581 0 
L 581 4863 
L 1159 4863 
L 1159 2956 
Q 1366 3272 1645 3428 
Q 1925 3584 2291 3584 
Q 2894 3584 3203 3211 
Q 3513 2838 3513 2113 
z
" transform="scale(0.015625)"/>
       <path id="DejaVuSans-6f" d="M 1959 3097 
Q 1497 3097 1228 2736 
Q 959 2375 959 1747 
Q 959 1119 1226 758 
Q 1494 397 1959 397 
Q 2419 397 2687 759 
Q 2956 1122 2956 1747 
Q 2956 2369 2687 2733 
Q 2419 3097 1959 3097 
z
M 1959 3584 
Q 2709 3584 3137 3096 
Q 3566 2609 3566 1747 
Q 3566 888 3137 398 
Q 2709 -91 1959 -91 
Q 1206 -91 779 398 
Q 353 888 353 1747 
Q 353 2609 779 3096 
Q 1206 3584 1959 3584 
z
" transform="scale(0.015625)"/>
       <path id="DejaVuSans-72" d="M 2631 2963 
Q 2534 3019 2420 3045 
Q 2306 3072 2169 3072 
Q 1681 3072 1420 2755 
Q 1159 2438 1159 1844 
L 1159 0 
L 581 0 
L 581 3500 
L 1159 3500 
L 1159 2956 
Q 1341 3275 1631 3429 
Q 1922 3584 2338 3584 
Q 2397 3584 2469 3576 
Q 2541 3569 2628 3553 
L 2631 2963 
z
" transform="scale(0.015625)"/>
       <path id="DejaVuSans-6d" d="M 3328 2828 
Q 3544 3216 3844 3400 
Q 4144 3584 4550 3584 
Q 5097 3584 5394 3201 
Q 5691 2819 5691 2113 
L 5691 0 
L 5113 0 
L 5113 2094 
Q 5113 2597 4934 2840 
Q 4756 3084 4391 3084 
Q 3944 3084 3684 2787 
Q 3425 2491 3425 1978 
L 3425 0 
L 2847 0 
L 2847 2094 
Q 2847 2600 2669 2842 
Q 2491 3084 2119 3084 
Q 1678 3084 1418 2786 
Q 1159 2488 1159 1978 
L 1159 0 
L 581 0 
L 581 3500 
L 1159 3500 
L 1159 2956 
Q 1356 3278 1631 3431 
Q 1906 3584 2284 3584 
Q 2666 3584 2933 3390 
Q 3200 3197 3328 2828 
z
" transform="scale(0.015625)"/>
       <path id="DejaVuSans-61" d="M 2194 1759 
Q 1497 1759 1228 1600 
Q 959 1441 959 1056 
Q 959 750 1161 570 
Q 1363 391 1709 391 
Q 2188 391 2477 730 
Q 2766 1069 2766 1631 
L 2766 1759 
L 2194 1759 
z
M 3341 1997 
L 3341 0 
L 2766 0 
L 2766 531 
Q 2569 213 2275 61 
Q 1981 -91 1556 -91 
Q 1019 -91 701 211 
Q 384 513 384 1019 
Q 384 1609 779 1909 
Q 1175 2209 1959 2209 
L 2766 2209 
L 2766 2266 
Q 2766 2663 2505 2880 
Q 2244 3097 1772 3097 
Q 1472 3097 1187 3025 
Q 903 2953 641 2809 
L 641 3341 
Q 956 3463 1253 3523 
Q 1550 3584 1831 3584 
Q 2591 3584 2966 3190 
Q 3341 2797 3341 1997 
z
" transform="scale(0.015625)"/>
       <path id="DejaVuSans-28" d="M 1984 4856 
Q 1566 4138 1362 3434 
Q 1159 2731 1159 2009 
Q 1159 1288 1364 580 
Q 1569 -128 1984 -844 
L 1484 -844 
Q 1016 -109 783 600 
Q 550 1309 550 2009 
Q 550 2706 781 3412 
Q 1013 4119 1484 4856 
L 1984 4856 
z
" transform="scale(0.015625)"/>
       <path id="DejaVuSans-64" d="M 2906 2969 
L 2906 4863 
L 3481 4863 
L 3481 0 
L 2906 0 
L 2906 525 
Q 2725 213 2448 61 
Q 2172 -91 1784 -91 
Q 1150 -91 751 415 
Q 353 922 353 1747 
Q 353 2572 751 3078 
Q 1150 3584 1784 3584 
Q 2172 3584 2448 3432 
Q 2725 3281 2906 2969 
z
M 947 1747 
Q 947 1113 1208 752 
Q 1469 391 1925 391 
Q 2381 391 2643 752 
Q 2906 1113 2906 1747 
Q 2906 2381 2643 2742 
Q 2381 3103 1925 3103 
Q 1469 3103 1208 2742 
Q 947 2381 947 1747 
z
" transform="scale(0.015625)"/>
       <path id="DejaVuSans-29" d="M 513 4856 
L 1013 4856 
Q 1481 4119 1714 3412 
Q 1947 2706 1947 2009 
Q 1947 1309 1714 600 
Q 1481 -109 1013 -844 
L 513 -844 
Q 928 -128 1133 580 
Q 1338 1288 1338 2009 
Q 1338 2731 1133 3434 
Q 928 4138 513 4856 
z
" transform="scale(0.015625)"/>
      </defs>
      <use xlink:href="#DejaVuSans-41"/>
      <use xlink:href="#DejaVuSans-6e" x="68.408203"/>
      <use xlink:href="#DejaVuSans-67" x="131.787109"/>
      <use xlink:href="#DejaVuSans-6c" x="195.263672"/>
      <use xlink:href="#DejaVuSans-65" x="223.046875"/>
      <use xlink:href="#DejaVuSans-20" x="284.570312"/>
      <use xlink:href="#DejaVuSans-77" x="316.357422"/>
      <use xlink:href="#DejaVuSans-69" x="398.144531"/>
      <use xlink:href="#DejaVuSans-74" x="425.927734"/>
      <use xlink:href="#DejaVuSans-68" x="465.136719"/>
      <use xlink:href="#DejaVuSans-20" x="528.515625"/>
      <use xlink:href="#DejaVuSans-6e" x="560.302734"/>
      <use xlink:href="#DejaVuSans-6f" x="623.681641"/>
      <use xlink:href="#DejaVuSans-72" x="684.863281"/>
      <use xlink:href="#DejaVuSans-6d" x="724.226562"/>
      <use xlink:href="#DejaVuSans-61" x="821.638672"/>
      <use xlink:href="#DejaVuSans-6c" x="882.917969"/>
      <use xlink:href="#DejaVuSans-20" x="910.701172"/>
      <use xlink:href="#DejaVuSans-28" x="942.488281"/>
      <use xlink:href="#DejaVuSans-72" x="981.501953"/>
      <use xlink:href="#DejaVuSans-61" x="1022.615234"/>
      <use xlink:href="#DejaVuSans-64" x="1083.894531"/>
      <use xlink:href="#DejaVuSans-29" x="1147.371094"/>
     </g>
    </g>
   </g>
   <g id="matplotlib.axis_2">
    <g id="ytick_1">
     <g id="line2d_10">
      <defs>
       <path id="m13c3ee2e26" d="M 0 0 
L -3.5 0 
" style="stroke: #000000; stroke-width: 0.8"/>
      </defs>
      <g>
       <use xlink:href="#m13c3ee2e26" x="43.78125" y="273.312" style="stroke: #000000; stroke-width: 0.8"/>
      </g>
     </g>
     <g id="text_11">
      <!-- 0.0 -->
      <g transform="translate(20.878125 277.111219)scale(0.1 -0.1)">
       <use xlink:href="#DejaVuSans-30"/>
       <use xlink:href="#DejaVuSans-2e" x="63.623047"/>
       <use xlink:href="#DejaVuSans-30" x="95.410156"/>
      </g>
     </g>
    </g>
    <g id="ytick_2">
     <g id="line2d_11">
      <g>
       <use xlink:href="#m13c3ee2e26" x="43.78125" y="227.401142" style="stroke: #000000; stroke-width: 0.8"/>
      </g>
     </g>
     <g id="text_12">
      <!-- 0.2 -->
      <g transform="translate(20.878125 231.20036)scale(0.1 -0.1)">
       <use xlink:href="#DejaVuSans-30"/>
       <use xlink:href="#DejaVuSans-2e" x="63.623047"/>
       <use xlink:href="#DejaVuSans-32" x="95.410156"/>
      </g>
     </g>
    </g>
    <g id="ytick_3">
     <g id="line2d_12">
      <g>
       <use xlink:href="#m13c3ee2e26" x="43.78125" y="181.490283" style="stroke: #000000; stroke-width: 0.8"/>
      </g>
     </g>
     <g id="text_13">
      <!-- 0.4 -->
      <g transform="translate(20.878125 185.289502)scale(0.1 -0.1)">
       <use xlink:href="#DejaVuSans-30"/>
       <use xlink:href="#DejaVuSans-2e" x="63.623047"/>
       <use xlink:href="#DejaVuSans-34" x="95.410156"/>
      </g>
     </g>
    </g>
    <g id="ytick_4">
     <g id="line2d_13">
      <g>
       <use xlink:href="#m13c3ee2e26" x="43.78125" y="135.579425" style="stroke: #000000; stroke-width: 0.8"/>
      </g>
     </g>
     <g id="text_14">
      <!-- 0.6 -->
      <g transform="translate(20.878125 139.378644)scale(0.1 -0.1)">
       <use xlink:href="#DejaVuSans-30"/>
       <use xlink:href="#DejaVuSans-2e" x="63.623047"/>
       <use xlink:href="#DejaVuSans-36" x="95.410156"/>
      </g>
     </g>
    </g>
    <g id="ytick_5">
     <g id="line2d_14">
      <g>
       <use xlink:href="#m13c3ee2e26" x="43.78125" y="89.668567" style="stroke: #000000; stroke-width: 0.8"/>
      </g>
     </g>
     <g id="text_15">
      <!-- 0.8 -->
      <g transform="translate(20.878125 93.467786)scale(0.1 -0.1)">
       <use xlink:href="#DejaVuSans-30"/>
       <use xlink:href="#DejaVuSans-2e" x="63.623047"/>
       <use xlink:href="#DejaVuSans-38" x="95.410156"/>
      </g>
     </g>
    </g>
    <g id="ytick_6">
     <g id="line2d_15">
      <g>
       <use xlink:href="#m13c3ee2e26" x="43.78125" y="43.757708" style="stroke: #000000; stroke-width: 0.8"/>
      </g>
     </g>
     <g id="text_16">
      <!-- 1.0 -->
      <g transform="translate(20.878125 47.556927)scale(0.1 -0.1)">
       <use xlink:href="#DejaVuSans-31"/>
       <use xlink:href="#DejaVuSans-2e" x="63.623047"/>
       <use xlink:href="#DejaVuSans-30" x="95.410156"/>
      </g>
     </g>
    </g>
    <g id="text_17">
     <!-- Probability density -->
     <g transform="translate(14.798438 186.606781)rotate(-90)scale(0.1 -0.1)">
      <defs>
       <path id="DejaVuSans-50" d="M 1259 4147 
L 1259 2394 
L 2053 2394 
Q 2494 2394 2734 2622 
Q 2975 2850 2975 3272 
Q 2975 3691 2734 3919 
Q 2494 4147 2053 4147 
L 1259 4147 
z
M 628 4666 
L 2053 4666 
Q 2838 4666 3239 4311 
Q 3641 3956 3641 3272 
Q 3641 2581 3239 2228 
Q 2838 1875 2053 1875 
L 1259 1875 
L 1259 0 
L 628 0 
L 628 4666 
z
" transform="scale(0.015625)"/>
       <path id="DejaVuSans-62" d="M 3116 1747 
Q 3116 2381 2855 2742 
Q 2594 3103 2138 3103 
Q 1681 3103 1420 2742 
Q 1159 2381 1159 1747 
Q 1159 1113 1420 752 
Q 1681 391 2138 391 
Q 2594 391 2855 752 
Q 3116 1113 3116 1747 
z
M 1159 2969 
Q 1341 3281 1617 3432 
Q 1894 3584 2278 3584 
Q 2916 3584 3314 3078 
Q 3713 2572 3713 1747 
Q 3713 922 3314 415 
Q 2916 -91 2278 -91 
Q 1894 -91 1617 61 
Q 1341 213 1159 525 
L 1159 0 
L 581 0 
L 581 4863 
L 1159 4863 
L 1159 2969 
z
" transform="scale(0.015625)"/>
       <path id="DejaVuSans-79" d="M 2059 -325 
Q 1816 -950 1584 -1140 
Q 1353 -1331 966 -1331 
L 506 -1331 
L 506 -850 
L 844 -850 
Q 1081 -850 1212 -737 
Q 1344 -625 1503 -206 
L 1606 56 
L 191 3500 
L 800 3500 
L 1894 763 
L 2988 3500 
L 3597 3500 
L 2059 -325 
z
" transform="scale(0.015625)"/>
       <path id="DejaVuSans-73" d="M 2834 3397 
L 2834 2853 
Q 2591 2978 2328 3040 
Q 2066 3103 1784 3103 
Q 1356 3103 1142 2972 
Q 928 2841 928 2578 
Q 928 2378 1081 2264 
Q 1234 2150 1697 2047 
L 1894 2003 
Q 2506 1872 2764 1633 
Q 3022 1394 3022 966 
Q 3022 478 2636 193 
Q 2250 -91 1575 -91 
Q 1294 -91 989 -36 
Q 684 19 347 128 
L 347 722 
Q 666 556 975 473 
Q 1284 391 1588 391 
Q 1994 391 2212 530 
Q 2431 669 2431 922 
Q 2431 1156 2273 1281 
Q 2116 1406 1581 1522 
L 1381 1569 
Q 847 1681 609 1914 
Q 372 2147 372 2553 
Q 372 3047 722 3315 
Q 1072 3584 1716 3584 
Q 2034 3584 2315 3537 
Q 2597 3491 2834 3397 
z
" transform="scale(0.015625)"/>
      </defs>
      <use xlink:href="#DejaVuSans-50"/>
      <use xlink:href="#DejaVuSans-72" x="58.552734"/>
      <use xlink:href="#DejaVuSans-6f" x="97.416016"/>
      <use xlink:href="#DejaVuSans-62" x="158.597656"/>
      <use xlink:href="#DejaVuSans-61" x="222.074219"/>
      <use xlink:href="#DejaVuSans-62" x="283.353516"/>
      <use xlink:href="#DejaVuSans-69" x="346.830078"/>
      <use xlink:href="#DejaVuSans-6c" x="374.613281"/>
      <use xlink:href="#DejaVuSans-69" x="402.396484"/>
      <use xlink:href="#DejaVuSans-74" x="430.179688"/>
      <use xlink:href="#DejaVuSans-79" x="469.388672"/>
      <use xlink:href="#DejaVuSans-20" x="528.568359"/>
      <use xlink:href="#DejaVuSans-64" x="560.355469"/>
      <use xlink:href="#DejaVuSans-65" x="623.832031"/>
      <use xlink:href="#DejaVuSans-6e" x="685.355469"/>
      <use xlink:href="#DejaVuSans-73" x="748.734375"/>
      <use xlink:href="#DejaVuSans-69" x="800.833984"/>
      <use xlink:href="#DejaVuSans-74" x="828.617188"/>
      <use xlink:href="#DejaVuSans-79" x="867.826172"/>
     </g>
    </g>
   </g>
   <g id="line2d_16">
    <path d="M 60.013977 273.312 
L 79.837728 229.546408 
L 90.237073 207.129388 
L 99.01152 188.726892 
L 106.811029 172.876715 
L 113.960578 158.847583 
L 120.460169 146.567352 
L 126.63478 135.364646 
L 132.484411 125.205078 
L 138.009063 116.045023 
L 143.208736 107.833836 
L 148.408408 100.041499 
L 153.283101 93.134138 
L 157.832814 87.048621 
L 162.382528 81.324083 
L 166.932241 75.971618 
L 171.156975 71.343708 
L 175.381709 67.053301 
L 179.281463 63.398695 
L 183.181217 60.042985 
L 187.080972 56.990948 
L 190.655746 54.463737 
L 194.230521 52.198376 
L 197.805296 50.197576 
L 201.380071 48.463732 
L 204.629866 47.120917 
L 207.879661 46.001773 
L 211.129456 45.107406 
L 214.379252 44.4387 
L 217.629047 43.996316 
L 220.878842 43.780693 
L 224.128637 43.792044 
L 227.378433 44.030356 
L 230.628228 44.495395 
L 233.878023 45.1867 
L 237.127818 46.103589 
L 240.377614 47.245154 
L 243.627409 48.610266 
L 247.202184 50.36847 
L 250.776958 52.393424 
L 254.351733 54.682706 
L 257.926508 57.233577 
L 261.501283 60.042985 
L 265.401037 63.398695 
L 269.300791 67.053301 
L 273.200546 71.001599 
L 277.425279 75.603815 
L 281.650013 80.536415 
L 286.199727 86.208462 
L 290.74944 92.243117 
L 295.624133 99.097901 
L 300.498826 106.340259 
L 305.698498 114.474463 
L 311.22315 123.557085 
L 316.747802 133.067608 
L 322.597433 143.573753 
L 328.772044 155.11374 
L 335.596614 168.357528 
L 342.746164 182.721727 
L 350.870652 199.566916 
L 359.970079 218.969335 
L 371.019383 243.080781 
L 384.668523 273.312 
L 384.668523 273.312 
" clip-path="url(#p9b40509c35)" style="fill: none; stroke: #ff7f0e; stroke-width: 1.5; stroke-linecap: square"/>
   </g>
   <g id="patch_203">
    <path d="M 43.78125 273.312 
L 43.78125 7.2 
" style="fill: none; stroke: #000000; stroke-width: 0.8; stroke-linejoin: miter; stroke-linecap: square"/>
   </g>
   <g id="patch_204">
    <path d="M 400.90125 273.312 
L 400.90125 7.2 
" style="fill: none; stroke: #000000; stroke-width: 0.8; stroke-linejoin: miter; stroke-linecap: square"/>
   </g>
   <g id="patch_205">
    <path d="M 43.78125 273.312 
L 400.90125 273.312 
" style="fill: none; stroke: #000000; stroke-width: 0.8; stroke-linejoin: miter; stroke-linecap: square"/>
   </g>
   <g id="patch_206">
    <path d="M 43.78125 7.2 
L 400.90125 7.2 
" style="fill: none; stroke: #000000; stroke-width: 0.8; stroke-linejoin: miter; stroke-linecap: square"/>
   </g>
  </g>
 </g>
 <defs>
  <clipPath id="p9b40509c35">
   <rect x="43.78125" y="7.2" width="357.12" height="266.112"/>
  </clipPath>
 </defs>
</svg>
