<?xml version="1.0" encoding="utf-8" standalone="no"?>
<!DOCTYPE svg PUBLIC "-//W3C//DTD SVG 1.1//EN"
  "http://www.w3.org/Graphics/SVG/1.1/DTD/svg11.dtd">
<svg xmlns:xlink="http://www.w3.org/1999/xlink" width="414.46375pt" height="310.86825pt" viewBox="0 0 414.46375 310.86825" xmlns="http://www.w3.org/2000/svg" version="1.1">
 <metadata>
  <rdf:RDF xmlns:dc="http://purl.org/dc/elements/1.1/" xmlns:cc="http://creativecommons.org/ns#" xmlns:rdf="http://www.w3.org/1999/02/22-rdf-syntax-ns#">
   <cc:Work>
    <dc:type rdf:resource="http://purl.org/dc/dcmitype/StillImage"/>
    <dc:date>2022-05-03T13:46:48.762491</dc:date>
    <dc:format>image/svg+xml</dc:format>
    <dc:creator>
     <cc:Agent>
      <dc:title>Matplotlib v3.5.1, https://matplotlib.org/</dc:title>
     </cc:Agent>
    </dc:creator>
   </cc:Work>
  </rdf:RDF>
 </metadata>
 <defs>
  <style type="text/css">*{stroke-linejoin: round; stroke-linecap: butt}</style>
 </defs>
 <g id="figure_1">
  <g id="patch_1">
   <path d="M 0 310.86825 
L 414.46375 310.86825 
L 414.46375 0 
L 0 0 
z
" style="fill: #ffffff"/>
  </g>
  <g id="axes_1">
   <g id="patch_2">
    <path d="M 50.14375 273.312 
L 407.26375 273.312 
L 407.26375 7.2 
L 50.14375 7.2 
z
" style="fill: #ffffff"/>
   </g>
   <g id="patch_3">
    <path d="M 68.344455 273.312 
L 69.957883 273.312 
L 69.957883 270.796467 
L 68.344455 270.796467 
z
" clip-path="url(#pb0fad1084e)" style="fill: #1f77b4"/>
   </g>
   <g id="patch_4">
    <path d="M 69.957883 273.312 
L 71.571312 273.312 
L 71.571312 269.5387 
L 69.957883 269.5387 
z
" clip-path="url(#pb0fad1084e)" style="fill: #1f77b4"/>
   </g>
   <g id="patch_5">
    <path d="M 71.571312 273.312 
L 73.18474 273.312 
L 73.18474 268.909816 
L 71.571312 268.909816 
z
" clip-path="url(#pb0fad1084e)" style="fill: #1f77b4"/>
   </g>
   <g id="patch_6">
    <path d="M 73.18474 273.312 
L 74.798169 273.312 
L 74.798169 265.7654 
L 73.18474 265.7654 
z
" clip-path="url(#pb0fad1084e)" style="fill: #1f77b4"/>
   </g>
   <g id="patch_7">
    <path d="M 74.798169 273.312 
L 76.411597 273.312 
L 76.411597 265.136516 
L 74.798169 265.136516 
z
" clip-path="url(#pb0fad1084e)" style="fill: #1f77b4"/>
   </g>
   <g id="patch_8">
    <path d="M 76.411597 273.312 
L 78.025026 273.312 
L 78.025026 261.992099 
L 76.411597 261.992099 
z
" clip-path="url(#pb0fad1084e)" style="fill: #1f77b4"/>
   </g>
   <g id="patch_9">
    <path d="M 78.025026 273.312 
L 79.638454 273.312 
L 79.638454 265.136516 
L 78.025026 265.136516 
z
" clip-path="url(#pb0fad1084e)" style="fill: #1f77b4"/>
   </g>
   <g id="patch_10">
    <path d="M 79.638454 273.312 
L 81.251883 273.312 
L 81.251883 261.363216 
L 79.638454 261.363216 
z
" clip-path="url(#pb0fad1084e)" style="fill: #1f77b4"/>
   </g>
   <g id="patch_11">
    <path d="M 81.251883 273.312 
L 82.865311 273.312 
L 82.865311 258.847682 
L 81.251883 258.847682 
z
" clip-path="url(#pb0fad1084e)" style="fill: #1f77b4"/>
   </g>
   <g id="patch_12">
    <path d="M 82.865311 273.312 
L 84.47874 273.312 
L 84.47874 256.961032 
L 82.865311 256.961032 
z
" clip-path="url(#pb0fad1084e)" style="fill: #1f77b4"/>
   </g>
   <g id="patch_13">
    <path d="M 84.47874 273.312 
L 86.092168 273.312 
L 86.092168 258.847682 
L 84.47874 258.847682 
z
" clip-path="url(#pb0fad1084e)" style="fill: #1f77b4"/>
   </g>
   <g id="patch_14">
    <path d="M 86.092168 273.312 
L 87.705597 273.312 
L 87.705597 260.105449 
L 86.092168 260.105449 
z
" clip-path="url(#pb0fad1084e)" style="fill: #1f77b4"/>
   </g>
   <g id="patch_15">
    <path d="M 87.705597 273.312 
L 89.319025 273.312 
L 89.319025 251.301082 
L 87.705597 251.301082 
z
" clip-path="url(#pb0fad1084e)" style="fill: #1f77b4"/>
   </g>
   <g id="patch_16">
    <path d="M 89.319025 273.312 
L 90.932454 273.312 
L 90.932454 257.589916 
L 89.319025 257.589916 
z
" clip-path="url(#pb0fad1084e)" style="fill: #1f77b4"/>
   </g>
   <g id="patch_17">
    <path d="M 90.932454 273.312 
L 92.545882 273.312 
L 92.545882 255.074382 
L 90.932454 255.074382 
z
" clip-path="url(#pb0fad1084e)" style="fill: #1f77b4"/>
   </g>
   <g id="patch_18">
    <path d="M 92.545882 273.312 
L 94.159311 273.312 
L 94.159311 246.270015 
L 92.545882 246.270015 
z
" clip-path="url(#pb0fad1084e)" style="fill: #1f77b4"/>
   </g>
   <g id="patch_19">
    <path d="M 94.159311 273.312 
L 95.772739 273.312 
L 95.772739 247.527782 
L 94.159311 247.527782 
z
" clip-path="url(#pb0fad1084e)" style="fill: #1f77b4"/>
   </g>
   <g id="patch_20">
    <path d="M 95.772739 273.312 
L 97.386168 273.312 
L 97.386168 251.301082 
L 95.772739 251.301082 
z
" clip-path="url(#pb0fad1084e)" style="fill: #1f77b4"/>
   </g>
   <g id="patch_21">
    <path d="M 97.386168 273.312 
L 98.999597 273.312 
L 98.999597 245.012248 
L 97.386168 245.012248 
z
" clip-path="url(#pb0fad1084e)" style="fill: #1f77b4"/>
   </g>
   <g id="patch_22">
    <path d="M 98.999597 273.312 
L 100.613025 273.312 
L 100.613025 246.898898 
L 98.999597 246.898898 
z
" clip-path="url(#pb0fad1084e)" style="fill: #1f77b4"/>
   </g>
   <g id="patch_23">
    <path d="M 100.613025 273.312 
L 102.226454 273.312 
L 102.226454 238.094531 
L 100.613025 238.094531 
z
" clip-path="url(#pb0fad1084e)" style="fill: #1f77b4"/>
   </g>
   <g id="patch_24">
    <path d="M 102.226454 273.312 
L 103.839882 273.312 
L 103.839882 242.496715 
L 102.226454 242.496715 
z
" clip-path="url(#pb0fad1084e)" style="fill: #1f77b4"/>
   </g>
   <g id="patch_25">
    <path d="M 103.839882 273.312 
L 105.453311 273.312 
L 105.453311 246.270015 
L 103.839882 246.270015 
z
" clip-path="url(#pb0fad1084e)" style="fill: #1f77b4"/>
   </g>
   <g id="patch_26">
    <path d="M 105.453311 273.312 
L 107.066739 273.312 
L 107.066739 245.012248 
L 105.453311 245.012248 
z
" clip-path="url(#pb0fad1084e)" style="fill: #1f77b4"/>
   </g>
   <g id="patch_27">
    <path d="M 107.066739 273.312 
L 108.680168 273.312 
L 108.680168 243.754481 
L 107.066739 243.754481 
z
" clip-path="url(#pb0fad1084e)" style="fill: #1f77b4"/>
   </g>
   <g id="patch_28">
    <path d="M 108.680168 273.312 
L 110.293596 273.312 
L 110.293596 239.352298 
L 108.680168 239.352298 
z
" clip-path="url(#pb0fad1084e)" style="fill: #1f77b4"/>
   </g>
   <g id="patch_29">
    <path d="M 110.293596 273.312 
L 111.907025 273.312 
L 111.907025 243.754481 
L 110.293596 243.754481 
z
" clip-path="url(#pb0fad1084e)" style="fill: #1f77b4"/>
   </g>
   <g id="patch_30">
    <path d="M 111.907025 273.312 
L 113.520453 273.312 
L 113.520453 239.352298 
L 111.907025 239.352298 
z
" clip-path="url(#pb0fad1084e)" style="fill: #1f77b4"/>
   </g>
   <g id="patch_31">
    <path d="M 113.520453 273.312 
L 115.133882 273.312 
L 115.133882 236.836764 
L 113.520453 236.836764 
z
" clip-path="url(#pb0fad1084e)" style="fill: #1f77b4"/>
   </g>
   <g id="patch_32">
    <path d="M 115.133882 273.312 
L 116.74731 273.312 
L 116.74731 236.207881 
L 115.133882 236.207881 
z
" clip-path="url(#pb0fad1084e)" style="fill: #1f77b4"/>
   </g>
   <g id="patch_33">
    <path d="M 116.74731 273.312 
L 118.360739 273.312 
L 118.360739 234.950114 
L 116.74731 234.950114 
z
" clip-path="url(#pb0fad1084e)" style="fill: #1f77b4"/>
   </g>
   <g id="patch_34">
    <path d="M 118.360739 273.312 
L 119.974167 273.312 
L 119.974167 229.919047 
L 118.360739 229.919047 
z
" clip-path="url(#pb0fad1084e)" style="fill: #1f77b4"/>
   </g>
   <g id="patch_35">
    <path d="M 119.974167 273.312 
L 121.587596 273.312 
L 121.587596 230.547931 
L 119.974167 230.547931 
z
" clip-path="url(#pb0fad1084e)" style="fill: #1f77b4"/>
   </g>
   <g id="patch_36">
    <path d="M 121.587596 273.312 
L 123.201024 273.312 
L 123.201024 232.434581 
L 121.587596 232.434581 
z
" clip-path="url(#pb0fad1084e)" style="fill: #1f77b4"/>
   </g>
   <g id="patch_37">
    <path d="M 123.201024 273.312 
L 124.814453 273.312 
L 124.814453 220.485797 
L 123.201024 220.485797 
z
" clip-path="url(#pb0fad1084e)" style="fill: #1f77b4"/>
   </g>
   <g id="patch_38">
    <path d="M 124.814453 273.312 
L 126.427881 273.312 
L 126.427881 226.77463 
L 124.814453 226.77463 
z
" clip-path="url(#pb0fad1084e)" style="fill: #1f77b4"/>
   </g>
   <g id="patch_39">
    <path d="M 126.427881 273.312 
L 128.04131 273.312 
L 128.04131 227.403514 
L 126.427881 227.403514 
z
" clip-path="url(#pb0fad1084e)" style="fill: #1f77b4"/>
   </g>
   <g id="patch_40">
    <path d="M 128.04131 273.312 
L 129.654738 273.312 
L 129.654738 228.032397 
L 128.04131 228.032397 
z
" clip-path="url(#pb0fad1084e)" style="fill: #1f77b4"/>
   </g>
   <g id="patch_41">
    <path d="M 129.654738 273.312 
L 131.268167 273.312 
L 131.268167 226.77463 
L 129.654738 226.77463 
z
" clip-path="url(#pb0fad1084e)" style="fill: #1f77b4"/>
   </g>
   <g id="patch_42">
    <path d="M 131.268167 273.312 
L 132.881595 273.312 
L 132.881595 215.45473 
L 131.268167 215.45473 
z
" clip-path="url(#pb0fad1084e)" style="fill: #1f77b4"/>
   </g>
   <g id="patch_43">
    <path d="M 132.881595 273.312 
L 134.495024 273.312 
L 134.495024 226.145747 
L 132.881595 226.145747 
z
" clip-path="url(#pb0fad1084e)" style="fill: #1f77b4"/>
   </g>
   <g id="patch_44">
    <path d="M 134.495024 273.312 
L 136.108452 273.312 
L 136.108452 233.063464 
L 134.495024 233.063464 
z
" clip-path="url(#pb0fad1084e)" style="fill: #1f77b4"/>
   </g>
   <g id="patch_45">
    <path d="M 136.108452 273.312 
L 137.721881 273.312 
L 137.721881 221.11468 
L 136.108452 221.11468 
z
" clip-path="url(#pb0fad1084e)" style="fill: #1f77b4"/>
   </g>
   <g id="patch_46">
    <path d="M 137.721881 273.312 
L 139.335309 273.312 
L 139.335309 212.310313 
L 137.721881 212.310313 
z
" clip-path="url(#pb0fad1084e)" style="fill: #1f77b4"/>
   </g>
   <g id="patch_47">
    <path d="M 139.335309 273.312 
L 140.948738 273.312 
L 140.948738 223.00133 
L 139.335309 223.00133 
z
" clip-path="url(#pb0fad1084e)" style="fill: #1f77b4"/>
   </g>
   <g id="patch_48">
    <path d="M 140.948738 273.312 
L 142.562166 273.312 
L 142.562166 211.681429 
L 140.948738 211.681429 
z
" clip-path="url(#pb0fad1084e)" style="fill: #1f77b4"/>
   </g>
   <g id="patch_49">
    <path d="M 142.562166 273.312 
L 144.175595 273.312 
L 144.175595 213.568079 
L 142.562166 213.568079 
z
" clip-path="url(#pb0fad1084e)" style="fill: #1f77b4"/>
   </g>
   <g id="patch_50">
    <path d="M 144.175595 273.312 
L 145.789023 273.312 
L 145.789023 213.568079 
L 144.175595 213.568079 
z
" clip-path="url(#pb0fad1084e)" style="fill: #1f77b4"/>
   </g>
   <g id="patch_51">
    <path d="M 145.789023 273.312 
L 147.402452 273.312 
L 147.402452 209.794779 
L 145.789023 209.794779 
z
" clip-path="url(#pb0fad1084e)" style="fill: #1f77b4"/>
   </g>
   <g id="patch_52">
    <path d="M 147.402452 273.312 
L 149.01588 273.312 
L 149.01588 214.825846 
L 147.402452 214.825846 
z
" clip-path="url(#pb0fad1084e)" style="fill: #1f77b4"/>
   </g>
   <g id="patch_53">
    <path d="M 149.01588 273.312 
L 150.629309 273.312 
L 150.629309 210.423663 
L 149.01588 210.423663 
z
" clip-path="url(#pb0fad1084e)" style="fill: #1f77b4"/>
   </g>
   <g id="patch_54">
    <path d="M 150.629309 273.312 
L 152.242737 273.312 
L 152.242737 200.990412 
L 150.629309 200.990412 
z
" clip-path="url(#pb0fad1084e)" style="fill: #1f77b4"/>
   </g>
   <g id="patch_55">
    <path d="M 152.242737 273.312 
L 153.856166 273.312 
L 153.856166 202.877062 
L 152.242737 202.877062 
z
" clip-path="url(#pb0fad1084e)" style="fill: #1f77b4"/>
   </g>
   <g id="patch_56">
    <path d="M 153.856166 273.312 
L 155.469594 273.312 
L 155.469594 200.361529 
L 153.856166 200.361529 
z
" clip-path="url(#pb0fad1084e)" style="fill: #1f77b4"/>
   </g>
   <g id="patch_57">
    <path d="M 155.469594 273.312 
L 157.083023 273.312 
L 157.083023 192.814928 
L 155.469594 192.814928 
z
" clip-path="url(#pb0fad1084e)" style="fill: #1f77b4"/>
   </g>
   <g id="patch_58">
    <path d="M 157.083023 273.312 
L 158.696451 273.312 
L 158.696451 206.650362 
L 157.083023 206.650362 
z
" clip-path="url(#pb0fad1084e)" style="fill: #1f77b4"/>
   </g>
   <g id="patch_59">
    <path d="M 158.696451 273.312 
L 160.30988 273.312 
L 160.30988 204.134829 
L 158.696451 204.134829 
z
" clip-path="url(#pb0fad1084e)" style="fill: #1f77b4"/>
   </g>
   <g id="patch_60">
    <path d="M 160.30988 273.312 
L 161.923309 273.312 
L 161.923309 197.217112 
L 160.30988 197.217112 
z
" clip-path="url(#pb0fad1084e)" style="fill: #1f77b4"/>
   </g>
   <g id="patch_61">
    <path d="M 161.923309 273.312 
L 163.536737 273.312 
L 163.536737 192.186045 
L 161.923309 192.186045 
z
" clip-path="url(#pb0fad1084e)" style="fill: #1f77b4"/>
   </g>
   <g id="patch_62">
    <path d="M 163.536737 273.312 
L 165.150166 273.312 
L 165.150166 185.897211 
L 163.536737 185.897211 
z
" clip-path="url(#pb0fad1084e)" style="fill: #1f77b4"/>
   </g>
   <g id="patch_63">
    <path d="M 165.150166 273.312 
L 166.763594 273.312 
L 166.763594 199.103762 
L 165.150166 199.103762 
z
" clip-path="url(#pb0fad1084e)" style="fill: #1f77b4"/>
   </g>
   <g id="patch_64">
    <path d="M 166.763594 273.312 
L 168.377023 273.312 
L 168.377023 208.537012 
L 166.763594 208.537012 
z
" clip-path="url(#pb0fad1084e)" style="fill: #1f77b4"/>
   </g>
   <g id="patch_65">
    <path d="M 168.377023 273.312 
L 169.990451 273.312 
L 169.990451 186.526094 
L 168.377023 186.526094 
z
" clip-path="url(#pb0fad1084e)" style="fill: #1f77b4"/>
   </g>
   <g id="patch_66">
    <path d="M 169.990451 273.312 
L 171.60388 273.312 
L 171.60388 197.217112 
L 169.990451 197.217112 
z
" clip-path="url(#pb0fad1084e)" style="fill: #1f77b4"/>
   </g>
   <g id="patch_67">
    <path d="M 171.60388 273.312 
L 173.217308 273.312 
L 173.217308 202.248179 
L 171.60388 202.248179 
z
" clip-path="url(#pb0fad1084e)" style="fill: #1f77b4"/>
   </g>
   <g id="patch_68">
    <path d="M 173.217308 273.312 
L 174.830737 273.312 
L 174.830737 191.557161 
L 173.217308 191.557161 
z
" clip-path="url(#pb0fad1084e)" style="fill: #1f77b4"/>
   </g>
   <g id="patch_69">
    <path d="M 174.830737 273.312 
L 176.444165 273.312 
L 176.444165 189.670511 
L 174.830737 189.670511 
z
" clip-path="url(#pb0fad1084e)" style="fill: #1f77b4"/>
   </g>
   <g id="patch_70">
    <path d="M 176.444165 273.312 
L 178.057594 273.312 
L 178.057594 182.123911 
L 176.444165 182.123911 
z
" clip-path="url(#pb0fad1084e)" style="fill: #1f77b4"/>
   </g>
   <g id="patch_71">
    <path d="M 178.057594 273.312 
L 179.671022 273.312 
L 179.671022 176.46396 
L 178.057594 176.46396 
z
" clip-path="url(#pb0fad1084e)" style="fill: #1f77b4"/>
   </g>
   <g id="patch_72">
    <path d="M 179.671022 273.312 
L 181.284451 273.312 
L 181.284451 183.381677 
L 179.671022 183.381677 
z
" clip-path="url(#pb0fad1084e)" style="fill: #1f77b4"/>
   </g>
   <g id="patch_73">
    <path d="M 181.284451 273.312 
L 182.897879 273.312 
L 182.897879 179.608377 
L 181.284451 179.608377 
z
" clip-path="url(#pb0fad1084e)" style="fill: #1f77b4"/>
   </g>
   <g id="patch_74">
    <path d="M 182.897879 273.312 
L 184.511308 273.312 
L 184.511308 178.979494 
L 182.897879 178.979494 
z
" clip-path="url(#pb0fad1084e)" style="fill: #1f77b4"/>
   </g>
   <g id="patch_75">
    <path d="M 184.511308 273.312 
L 186.124736 273.312 
L 186.124736 189.670511 
L 184.511308 189.670511 
z
" clip-path="url(#pb0fad1084e)" style="fill: #1f77b4"/>
   </g>
   <g id="patch_76">
    <path d="M 186.124736 273.312 
L 187.738165 273.312 
L 187.738165 181.495027 
L 186.124736 181.495027 
z
" clip-path="url(#pb0fad1084e)" style="fill: #1f77b4"/>
   </g>
   <g id="patch_77">
    <path d="M 187.738165 273.312 
L 189.351593 273.312 
L 189.351593 175.206194 
L 187.738165 175.206194 
z
" clip-path="url(#pb0fad1084e)" style="fill: #1f77b4"/>
   </g>
   <g id="patch_78">
    <path d="M 189.351593 273.312 
L 190.965022 273.312 
L 190.965022 172.061777 
L 189.351593 172.061777 
z
" clip-path="url(#pb0fad1084e)" style="fill: #1f77b4"/>
   </g>
   <g id="patch_79">
    <path d="M 190.965022 273.312 
L 192.57845 273.312 
L 192.57845 180.866144 
L 190.965022 180.866144 
z
" clip-path="url(#pb0fad1084e)" style="fill: #1f77b4"/>
   </g>
   <g id="patch_80">
    <path d="M 192.57845 273.312 
L 194.191879 273.312 
L 194.191879 166.401826 
L 192.57845 166.401826 
z
" clip-path="url(#pb0fad1084e)" style="fill: #1f77b4"/>
   </g>
   <g id="patch_81">
    <path d="M 194.191879 273.312 
L 195.805307 273.312 
L 195.805307 170.175127 
L 194.191879 170.175127 
z
" clip-path="url(#pb0fad1084e)" style="fill: #1f77b4"/>
   </g>
   <g id="patch_82">
    <path d="M 195.805307 273.312 
L 197.418736 273.312 
L 197.418736 175.835077 
L 195.805307 175.835077 
z
" clip-path="url(#pb0fad1084e)" style="fill: #1f77b4"/>
   </g>
   <g id="patch_83">
    <path d="M 197.418736 273.312 
L 199.032164 273.312 
L 199.032164 180.237261 
L 197.418736 180.237261 
z
" clip-path="url(#pb0fad1084e)" style="fill: #1f77b4"/>
   </g>
   <g id="patch_84">
    <path d="M 199.032164 273.312 
L 200.645593 273.312 
L 200.645593 160.112993 
L 199.032164 160.112993 
z
" clip-path="url(#pb0fad1084e)" style="fill: #1f77b4"/>
   </g>
   <g id="patch_85">
    <path d="M 200.645593 273.312 
L 202.259021 273.312 
L 202.259021 170.80401 
L 200.645593 170.80401 
z
" clip-path="url(#pb0fad1084e)" style="fill: #1f77b4"/>
   </g>
   <g id="patch_86">
    <path d="M 202.259021 273.312 
L 203.87245 273.312 
L 203.87245 168.91736 
L 202.259021 168.91736 
z
" clip-path="url(#pb0fad1084e)" style="fill: #1f77b4"/>
   </g>
   <g id="patch_87">
    <path d="M 203.87245 273.312 
L 205.485878 273.312 
L 205.485878 162.628526 
L 203.87245 162.628526 
z
" clip-path="url(#pb0fad1084e)" style="fill: #1f77b4"/>
   </g>
   <g id="patch_88">
    <path d="M 205.485878 273.312 
L 207.099307 273.312 
L 207.099307 170.80401 
L 205.485878 170.80401 
z
" clip-path="url(#pb0fad1084e)" style="fill: #1f77b4"/>
   </g>
   <g id="patch_89">
    <path d="M 207.099307 273.312 
L 208.712735 273.312 
L 208.712735 163.886293 
L 207.099307 163.886293 
z
" clip-path="url(#pb0fad1084e)" style="fill: #1f77b4"/>
   </g>
   <g id="patch_90">
    <path d="M 208.712735 273.312 
L 210.326164 273.312 
L 210.326164 160.741876 
L 208.712735 160.741876 
z
" clip-path="url(#pb0fad1084e)" style="fill: #1f77b4"/>
   </g>
   <g id="patch_91">
    <path d="M 210.326164 273.312 
L 211.939592 273.312 
L 211.939592 153.824159 
L 210.326164 153.824159 
z
" clip-path="url(#pb0fad1084e)" style="fill: #1f77b4"/>
   </g>
   <g id="patch_92">
    <path d="M 211.939592 273.312 
L 213.553021 273.312 
L 213.553021 150.050859 
L 211.939592 150.050859 
z
" clip-path="url(#pb0fad1084e)" style="fill: #1f77b4"/>
   </g>
   <g id="patch_93">
    <path d="M 213.553021 273.312 
L 215.166449 273.312 
L 215.166449 167.03071 
L 213.553021 167.03071 
z
" clip-path="url(#pb0fad1084e)" style="fill: #1f77b4"/>
   </g>
   <g id="patch_94">
    <path d="M 215.166449 273.312 
L 216.779878 273.312 
L 216.779878 155.081926 
L 215.166449 155.081926 
z
" clip-path="url(#pb0fad1084e)" style="fill: #1f77b4"/>
   </g>
   <g id="patch_95">
    <path d="M 216.779878 273.312 
L 218.393306 273.312 
L 218.393306 153.824159 
L 216.779878 153.824159 
z
" clip-path="url(#pb0fad1084e)" style="fill: #1f77b4"/>
   </g>
   <g id="patch_96">
    <path d="M 218.393306 273.312 
L 220.006735 273.312 
L 220.006735 155.081926 
L 218.393306 155.081926 
z
" clip-path="url(#pb0fad1084e)" style="fill: #1f77b4"/>
   </g>
   <g id="patch_97">
    <path d="M 220.006735 273.312 
L 221.620163 273.312 
L 221.620163 148.793092 
L 220.006735 148.793092 
z
" clip-path="url(#pb0fad1084e)" style="fill: #1f77b4"/>
   </g>
   <g id="patch_98">
    <path d="M 221.620163 273.312 
L 223.233592 273.312 
L 223.233592 153.195275 
L 221.620163 153.195275 
z
" clip-path="url(#pb0fad1084e)" style="fill: #1f77b4"/>
   </g>
   <g id="patch_99">
    <path d="M 223.233592 273.312 
L 224.847021 273.312 
L 224.847021 138.102074 
L 223.233592 138.102074 
z
" clip-path="url(#pb0fad1084e)" style="fill: #1f77b4"/>
   </g>
   <g id="patch_100">
    <path d="M 224.847021 273.312 
L 226.460449 273.312 
L 226.460449 169.546243 
L 224.847021 169.546243 
z
" clip-path="url(#pb0fad1084e)" style="fill: #1f77b4"/>
   </g>
   <g id="patch_101">
    <path d="M 226.460449 273.312 
L 228.073878 273.312 
L 228.073878 152.566392 
L 226.460449 152.566392 
z
" clip-path="url(#pb0fad1084e)" style="fill: #1f77b4"/>
   </g>
   <g id="patch_102">
    <path d="M 228.073878 273.312 
L 229.687306 273.312 
L 229.687306 145.648675 
L 228.073878 145.648675 
z
" clip-path="url(#pb0fad1084e)" style="fill: #1f77b4"/>
   </g>
   <g id="patch_103">
    <path d="M 229.687306 273.312 
L 231.300735 273.312 
L 231.300735 165.14406 
L 229.687306 165.14406 
z
" clip-path="url(#pb0fad1084e)" style="fill: #1f77b4"/>
   </g>
   <g id="patch_104">
    <path d="M 231.300735 273.312 
L 232.914163 273.312 
L 232.914163 143.762025 
L 231.300735 143.762025 
z
" clip-path="url(#pb0fad1084e)" style="fill: #1f77b4"/>
   </g>
   <g id="patch_105">
    <path d="M 232.914163 273.312 
L 234.527592 273.312 
L 234.527592 151.308625 
L 232.914163 151.308625 
z
" clip-path="url(#pb0fad1084e)" style="fill: #1f77b4"/>
   </g>
   <g id="patch_106">
    <path d="M 234.527592 273.312 
L 236.14102 273.312 
L 236.14102 152.566392 
L 234.527592 152.566392 
z
" clip-path="url(#pb0fad1084e)" style="fill: #1f77b4"/>
   </g>
   <g id="patch_107">
    <path d="M 236.14102 273.312 
L 237.754449 273.312 
L 237.754449 131.184357 
L 236.14102 131.184357 
z
" clip-path="url(#pb0fad1084e)" style="fill: #1f77b4"/>
   </g>
   <g id="patch_108">
    <path d="M 237.754449 273.312 
L 239.367877 273.312 
L 239.367877 143.133141 
L 237.754449 143.133141 
z
" clip-path="url(#pb0fad1084e)" style="fill: #1f77b4"/>
   </g>
   <g id="patch_109">
    <path d="M 239.367877 273.312 
L 240.981306 273.312 
L 240.981306 138.102074 
L 239.367877 138.102074 
z
" clip-path="url(#pb0fad1084e)" style="fill: #1f77b4"/>
   </g>
   <g id="patch_110">
    <path d="M 240.981306 273.312 
L 242.594734 273.312 
L 242.594734 139.359841 
L 240.981306 139.359841 
z
" clip-path="url(#pb0fad1084e)" style="fill: #1f77b4"/>
   </g>
   <g id="patch_111">
    <path d="M 242.594734 273.312 
L 244.208163 273.312 
L 244.208163 149.421975 
L 242.594734 149.421975 
z
" clip-path="url(#pb0fad1084e)" style="fill: #1f77b4"/>
   </g>
   <g id="patch_112">
    <path d="M 244.208163 273.312 
L 245.821591 273.312 
L 245.821591 137.473191 
L 244.208163 137.473191 
z
" clip-path="url(#pb0fad1084e)" style="fill: #1f77b4"/>
   </g>
   <g id="patch_113">
    <path d="M 245.821591 273.312 
L 247.43502 273.312 
L 247.43502 132.442124 
L 245.821591 132.442124 
z
" clip-path="url(#pb0fad1084e)" style="fill: #1f77b4"/>
   </g>
   <g id="patch_114">
    <path d="M 247.43502 273.312 
L 249.048448 273.312 
L 249.048448 141.875375 
L 247.43502 141.875375 
z
" clip-path="url(#pb0fad1084e)" style="fill: #1f77b4"/>
   </g>
   <g id="patch_115">
    <path d="M 249.048448 273.312 
L 250.661877 273.312 
L 250.661877 146.277558 
L 249.048448 146.277558 
z
" clip-path="url(#pb0fad1084e)" style="fill: #1f77b4"/>
   </g>
   <g id="patch_116">
    <path d="M 250.661877 273.312 
L 252.275305 273.312 
L 252.275305 147.535325 
L 250.661877 147.535325 
z
" clip-path="url(#pb0fad1084e)" style="fill: #1f77b4"/>
   </g>
   <g id="patch_117">
    <path d="M 252.275305 273.312 
L 253.888734 273.312 
L 253.888734 138.730958 
L 252.275305 138.730958 
z
" clip-path="url(#pb0fad1084e)" style="fill: #1f77b4"/>
   </g>
   <g id="patch_118">
    <path d="M 253.888734 273.312 
L 255.502162 273.312 
L 255.502162 120.49334 
L 253.888734 120.49334 
z
" clip-path="url(#pb0fad1084e)" style="fill: #1f77b4"/>
   </g>
   <g id="patch_119">
    <path d="M 255.502162 273.312 
L 257.115591 273.312 
L 257.115591 136.215424 
L 255.502162 136.215424 
z
" clip-path="url(#pb0fad1084e)" style="fill: #1f77b4"/>
   </g>
   <g id="patch_120">
    <path d="M 257.115591 273.312 
L 258.729019 273.312 
L 258.729019 138.730958 
L 257.115591 138.730958 
z
" clip-path="url(#pb0fad1084e)" style="fill: #1f77b4"/>
   </g>
   <g id="patch_121">
    <path d="M 258.729019 273.312 
L 260.342448 273.312 
L 260.342448 121.751107 
L 258.729019 121.751107 
z
" clip-path="url(#pb0fad1084e)" style="fill: #1f77b4"/>
   </g>
   <g id="patch_122">
    <path d="M 260.342448 273.312 
L 261.955876 273.312 
L 261.955876 123.637757 
L 260.342448 123.637757 
z
" clip-path="url(#pb0fad1084e)" style="fill: #1f77b4"/>
   </g>
   <g id="patch_123">
    <path d="M 261.955876 273.312 
L 263.569305 273.312 
L 263.569305 132.442124 
L 261.955876 132.442124 
z
" clip-path="url(#pb0fad1084e)" style="fill: #1f77b4"/>
   </g>
   <g id="patch_124">
    <path d="M 263.569305 273.312 
L 265.182733 273.312 
L 265.182733 110.431206 
L 263.569305 110.431206 
z
" clip-path="url(#pb0fad1084e)" style="fill: #1f77b4"/>
   </g>
   <g id="patch_125">
    <path d="M 265.182733 273.312 
L 266.796162 273.312 
L 266.796162 118.60669 
L 265.182733 118.60669 
z
" clip-path="url(#pb0fad1084e)" style="fill: #1f77b4"/>
   </g>
   <g id="patch_126">
    <path d="M 266.796162 273.312 
L 268.40959 273.312 
L 268.40959 101.626839 
L 266.796162 101.626839 
z
" clip-path="url(#pb0fad1084e)" style="fill: #1f77b4"/>
   </g>
   <g id="patch_127">
    <path d="M 268.40959 273.312 
L 270.023019 273.312 
L 270.023019 103.513489 
L 268.40959 103.513489 
z
" clip-path="url(#pb0fad1084e)" style="fill: #1f77b4"/>
   </g>
   <g id="patch_128">
    <path d="M 270.023019 273.312 
L 271.636447 273.312 
L 271.636447 109.802323 
L 270.023019 109.802323 
z
" clip-path="url(#pb0fad1084e)" style="fill: #1f77b4"/>
   </g>
   <g id="patch_129">
    <path d="M 271.636447 273.312 
L 273.249876 273.312 
L 273.249876 109.802323 
L 271.636447 109.802323 
z
" clip-path="url(#pb0fad1084e)" style="fill: #1f77b4"/>
   </g>
   <g id="patch_130">
    <path d="M 273.249876 273.312 
L 274.863304 273.312 
L 274.863304 112.946739 
L 273.249876 112.946739 
z
" clip-path="url(#pb0fad1084e)" style="fill: #1f77b4"/>
   </g>
   <g id="patch_131">
    <path d="M 274.863304 273.312 
L 276.476733 273.312 
L 276.476733 104.142372 
L 274.863304 104.142372 
z
" clip-path="url(#pb0fad1084e)" style="fill: #1f77b4"/>
   </g>
   <g id="patch_132">
    <path d="M 276.476733 273.312 
L 278.090161 273.312 
L 278.090161 104.142372 
L 276.476733 104.142372 
z
" clip-path="url(#pb0fad1084e)" style="fill: #1f77b4"/>
   </g>
   <g id="patch_133">
    <path d="M 278.090161 273.312 
L 279.70359 273.312 
L 279.70359 109.173439 
L 278.090161 109.173439 
z
" clip-path="url(#pb0fad1084e)" style="fill: #1f77b4"/>
   </g>
   <g id="patch_134">
    <path d="M 279.70359 273.312 
L 281.317018 273.312 
L 281.317018 102.884605 
L 279.70359 102.884605 
z
" clip-path="url(#pb0fad1084e)" style="fill: #1f77b4"/>
   </g>
   <g id="patch_135">
    <path d="M 281.317018 273.312 
L 282.930447 273.312 
L 282.930447 100.997955 
L 281.317018 100.997955 
z
" clip-path="url(#pb0fad1084e)" style="fill: #1f77b4"/>
   </g>
   <g id="patch_136">
    <path d="M 282.930447 273.312 
L 284.543876 273.312 
L 284.543876 108.544556 
L 282.930447 108.544556 
z
" clip-path="url(#pb0fad1084e)" style="fill: #1f77b4"/>
   </g>
   <g id="patch_137">
    <path d="M 284.543876 273.312 
L 286.157304 273.312 
L 286.157304 90.935821 
L 284.543876 90.935821 
z
" clip-path="url(#pb0fad1084e)" style="fill: #1f77b4"/>
   </g>
   <g id="patch_138">
    <path d="M 286.157304 273.312 
L 287.770733 273.312 
L 287.770733 123.637757 
L 286.157304 123.637757 
z
" clip-path="url(#pb0fad1084e)" style="fill: #1f77b4"/>
   </g>
   <g id="patch_139">
    <path d="M 287.770733 273.312 
L 289.384161 273.312 
L 289.384161 101.626839 
L 287.770733 101.626839 
z
" clip-path="url(#pb0fad1084e)" style="fill: #1f77b4"/>
   </g>
   <g id="patch_140">
    <path d="M 289.384161 273.312 
L 290.99759 273.312 
L 290.99759 93.451355 
L 289.384161 93.451355 
z
" clip-path="url(#pb0fad1084e)" style="fill: #1f77b4"/>
   </g>
   <g id="patch_141">
    <path d="M 290.99759 273.312 
L 292.611018 273.312 
L 292.611018 113.575623 
L 290.99759 113.575623 
z
" clip-path="url(#pb0fad1084e)" style="fill: #1f77b4"/>
   </g>
   <g id="patch_142">
    <path d="M 292.611018 273.312 
L 294.224447 273.312 
L 294.224447 95.338005 
L 292.611018 95.338005 
z
" clip-path="url(#pb0fad1084e)" style="fill: #1f77b4"/>
   </g>
   <g id="patch_143">
    <path d="M 294.224447 273.312 
L 295.837875 273.312 
L 295.837875 83.389221 
L 294.224447 83.389221 
z
" clip-path="url(#pb0fad1084e)" style="fill: #1f77b4"/>
   </g>
   <g id="patch_144">
    <path d="M 295.837875 273.312 
L 297.451304 273.312 
L 297.451304 86.533638 
L 295.837875 86.533638 
z
" clip-path="url(#pb0fad1084e)" style="fill: #1f77b4"/>
   </g>
   <g id="patch_145">
    <path d="M 297.451304 273.312 
L 299.064732 273.312 
L 299.064732 93.451355 
L 297.451304 93.451355 
z
" clip-path="url(#pb0fad1084e)" style="fill: #1f77b4"/>
   </g>
   <g id="patch_146">
    <path d="M 299.064732 273.312 
L 300.678161 273.312 
L 300.678161 99.740189 
L 299.064732 99.740189 
z
" clip-path="url(#pb0fad1084e)" style="fill: #1f77b4"/>
   </g>
   <g id="patch_147">
    <path d="M 300.678161 273.312 
L 302.291589 273.312 
L 302.291589 109.802323 
L 300.678161 109.802323 
z
" clip-path="url(#pb0fad1084e)" style="fill: #1f77b4"/>
   </g>
   <g id="patch_148">
    <path d="M 302.291589 273.312 
L 303.905018 273.312 
L 303.905018 84.018104 
L 302.291589 84.018104 
z
" clip-path="url(#pb0fad1084e)" style="fill: #1f77b4"/>
   </g>
   <g id="patch_149">
    <path d="M 303.905018 273.312 
L 305.518446 273.312 
L 305.518446 106.029022 
L 303.905018 106.029022 
z
" clip-path="url(#pb0fad1084e)" style="fill: #1f77b4"/>
   </g>
   <g id="patch_150">
    <path d="M 305.518446 273.312 
L 307.131875 273.312 
L 307.131875 99.740189 
L 305.518446 99.740189 
z
" clip-path="url(#pb0fad1084e)" style="fill: #1f77b4"/>
   </g>
   <g id="patch_151">
    <path d="M 307.131875 273.312 
L 308.745303 273.312 
L 308.745303 77.72927 
L 307.131875 77.72927 
z
" clip-path="url(#pb0fad1084e)" style="fill: #1f77b4"/>
   </g>
   <g id="patch_152">
    <path d="M 308.745303 273.312 
L 310.358732 273.312 
L 310.358732 80.244804 
L 308.745303 80.244804 
z
" clip-path="url(#pb0fad1084e)" style="fill: #1f77b4"/>
   </g>
   <g id="patch_153">
    <path d="M 310.358732 273.312 
L 311.97216 273.312 
L 311.97216 70.18267 
L 310.358732 70.18267 
z
" clip-path="url(#pb0fad1084e)" style="fill: #1f77b4"/>
   </g>
   <g id="patch_154">
    <path d="M 311.97216 273.312 
L 313.585589 273.312 
L 313.585589 87.162521 
L 311.97216 87.162521 
z
" clip-path="url(#pb0fad1084e)" style="fill: #1f77b4"/>
   </g>
   <g id="patch_155">
    <path d="M 313.585589 273.312 
L 315.199017 273.312 
L 315.199017 78.358154 
L 313.585589 78.358154 
z
" clip-path="url(#pb0fad1084e)" style="fill: #1f77b4"/>
   </g>
   <g id="patch_156">
    <path d="M 315.199017 273.312 
L 316.812446 273.312 
L 316.812446 90.935821 
L 315.199017 90.935821 
z
" clip-path="url(#pb0fad1084e)" style="fill: #1f77b4"/>
   </g>
   <g id="patch_157">
    <path d="M 316.812446 273.312 
L 318.425874 273.312 
L 318.425874 80.244804 
L 316.812446 80.244804 
z
" clip-path="url(#pb0fad1084e)" style="fill: #1f77b4"/>
   </g>
   <g id="patch_158">
    <path d="M 318.425874 273.312 
L 320.039303 273.312 
L 320.039303 64.52272 
L 318.425874 64.52272 
z
" clip-path="url(#pb0fad1084e)" style="fill: #1f77b4"/>
   </g>
   <g id="patch_159">
    <path d="M 320.039303 273.312 
L 321.652731 273.312 
L 321.652731 70.18267 
L 320.039303 70.18267 
z
" clip-path="url(#pb0fad1084e)" style="fill: #1f77b4"/>
   </g>
   <g id="patch_160">
    <path d="M 321.652731 273.312 
L 323.26616 273.312 
L 323.26616 70.18267 
L 321.652731 70.18267 
z
" clip-path="url(#pb0fad1084e)" style="fill: #1f77b4"/>
   </g>
   <g id="patch_161">
    <path d="M 323.26616 273.312 
L 324.879588 273.312 
L 324.879588 67.667136 
L 323.26616 67.667136 
z
" clip-path="url(#pb0fad1084e)" style="fill: #1f77b4"/>
   </g>
   <g id="patch_162">
    <path d="M 324.879588 273.312 
L 326.493017 273.312 
L 326.493017 85.275871 
L 324.879588 85.275871 
z
" clip-path="url(#pb0fad1084e)" style="fill: #1f77b4"/>
   </g>
   <g id="patch_163">
    <path d="M 326.493017 273.312 
L 328.106445 273.312 
L 328.106445 66.40937 
L 326.493017 66.40937 
z
" clip-path="url(#pb0fad1084e)" style="fill: #1f77b4"/>
   </g>
   <g id="patch_164">
    <path d="M 328.106445 273.312 
L 329.719874 273.312 
L 329.719874 70.18267 
L 328.106445 70.18267 
z
" clip-path="url(#pb0fad1084e)" style="fill: #1f77b4"/>
   </g>
   <g id="patch_165">
    <path d="M 329.719874 273.312 
L 331.333302 273.312 
L 331.333302 80.873687 
L 329.719874 80.873687 
z
" clip-path="url(#pb0fad1084e)" style="fill: #1f77b4"/>
   </g>
   <g id="patch_166">
    <path d="M 331.333302 273.312 
L 332.946731 273.312 
L 332.946731 83.389221 
L 331.333302 83.389221 
z
" clip-path="url(#pb0fad1084e)" style="fill: #1f77b4"/>
   </g>
   <g id="patch_167">
    <path d="M 332.946731 273.312 
L 334.560159 273.312 
L 334.560159 64.52272 
L 332.946731 64.52272 
z
" clip-path="url(#pb0fad1084e)" style="fill: #1f77b4"/>
   </g>
   <g id="patch_168">
    <path d="M 334.560159 273.312 
L 336.173588 273.312 
L 336.173588 72.698203 
L 334.560159 72.698203 
z
" clip-path="url(#pb0fad1084e)" style="fill: #1f77b4"/>
   </g>
   <g id="patch_169">
    <path d="M 336.173588 273.312 
L 337.787016 273.312 
L 337.787016 45.656218 
L 336.173588 45.656218 
z
" clip-path="url(#pb0fad1084e)" style="fill: #1f77b4"/>
   </g>
   <g id="patch_170">
    <path d="M 337.787016 273.312 
L 339.400445 273.312 
L 339.400445 63.264953 
L 337.787016 63.264953 
z
" clip-path="url(#pb0fad1084e)" style="fill: #1f77b4"/>
   </g>
   <g id="patch_171">
    <path d="M 339.400445 273.312 
L 341.013873 273.312 
L 341.013873 60.749419 
L 339.400445 60.749419 
z
" clip-path="url(#pb0fad1084e)" style="fill: #1f77b4"/>
   </g>
   <g id="patch_172">
    <path d="M 341.013873 273.312 
L 342.627302 273.312 
L 342.627302 61.378303 
L 341.013873 61.378303 
z
" clip-path="url(#pb0fad1084e)" style="fill: #1f77b4"/>
   </g>
   <g id="patch_173">
    <path d="M 342.627302 273.312 
L 344.24073 273.312 
L 344.24073 58.233886 
L 342.627302 58.233886 
z
" clip-path="url(#pb0fad1084e)" style="fill: #1f77b4"/>
   </g>
   <g id="patch_174">
    <path d="M 344.24073 273.312 
L 345.854159 273.312 
L 345.854159 42.511801 
L 344.24073 42.511801 
z
" clip-path="url(#pb0fad1084e)" style="fill: #1f77b4"/>
   </g>
   <g id="patch_175">
    <path d="M 345.854159 273.312 
L 347.467588 273.312 
L 347.467588 56.347236 
L 345.854159 56.347236 
z
" clip-path="url(#pb0fad1084e)" style="fill: #1f77b4"/>
   </g>
   <g id="patch_176">
    <path d="M 347.467588 273.312 
L 349.081016 273.312 
L 349.081016 58.862769 
L 347.467588 58.862769 
z
" clip-path="url(#pb0fad1084e)" style="fill: #1f77b4"/>
   </g>
   <g id="patch_177">
    <path d="M 349.081016 273.312 
L 350.694445 273.312 
L 350.694445 63.264953 
L 349.081016 63.264953 
z
" clip-path="url(#pb0fad1084e)" style="fill: #1f77b4"/>
   </g>
   <g id="patch_178">
    <path d="M 350.694445 273.312 
L 352.307873 273.312 
L 352.307873 68.924903 
L 350.694445 68.924903 
z
" clip-path="url(#pb0fad1084e)" style="fill: #1f77b4"/>
   </g>
   <g id="patch_179">
    <path d="M 352.307873 273.312 
L 353.921302 273.312 
L 353.921302 46.285102 
L 352.307873 46.285102 
z
" clip-path="url(#pb0fad1084e)" style="fill: #1f77b4"/>
   </g>
   <g id="patch_180">
    <path d="M 353.921302 273.312 
L 355.53473 273.312 
L 355.53473 56.347236 
L 353.921302 56.347236 
z
" clip-path="url(#pb0fad1084e)" style="fill: #1f77b4"/>
   </g>
   <g id="patch_181">
    <path d="M 355.53473 273.312 
L 357.148159 273.312 
L 357.148159 56.976119 
L 355.53473 56.976119 
z
" clip-path="url(#pb0fad1084e)" style="fill: #1f77b4"/>
   </g>
   <g id="patch_182">
    <path d="M 357.148159 273.312 
L 358.761587 273.312 
L 358.761587 44.398452 
L 357.148159 44.398452 
z
" clip-path="url(#pb0fad1084e)" style="fill: #1f77b4"/>
   </g>
   <g id="patch_183">
    <path d="M 358.761587 273.312 
L 360.375016 273.312 
L 360.375016 32.449667 
L 358.761587 32.449667 
z
" clip-path="url(#pb0fad1084e)" style="fill: #1f77b4"/>
   </g>
   <g id="patch_184">
    <path d="M 360.375016 273.312 
L 361.988444 273.312 
L 361.988444 62.636069 
L 360.375016 62.636069 
z
" clip-path="url(#pb0fad1084e)" style="fill: #1f77b4"/>
   </g>
   <g id="patch_185">
    <path d="M 361.988444 273.312 
L 363.601873 273.312 
L 363.601873 39.996268 
L 361.988444 39.996268 
z
" clip-path="url(#pb0fad1084e)" style="fill: #1f77b4"/>
   </g>
   <g id="patch_186">
    <path d="M 363.601873 273.312 
L 365.215301 273.312 
L 365.215301 54.460586 
L 363.601873 54.460586 
z
" clip-path="url(#pb0fad1084e)" style="fill: #1f77b4"/>
   </g>
   <g id="patch_187">
    <path d="M 365.215301 273.312 
L 366.82873 273.312 
L 366.82873 46.913985 
L 365.215301 46.913985 
z
" clip-path="url(#pb0fad1084e)" style="fill: #1f77b4"/>
   </g>
   <g id="patch_188">
    <path d="M 366.82873 273.312 
L 368.442158 273.312 
L 368.442158 46.285102 
L 366.82873 46.285102 
z
" clip-path="url(#pb0fad1084e)" style="fill: #1f77b4"/>
   </g>
   <g id="patch_189">
    <path d="M 368.442158 273.312 
L 370.055587 273.312 
L 370.055587 25.53195 
L 368.442158 25.53195 
z
" clip-path="url(#pb0fad1084e)" style="fill: #1f77b4"/>
   </g>
   <g id="patch_190">
    <path d="M 370.055587 273.312 
L 371.669015 273.312 
L 371.669015 30.563017 
L 370.055587 30.563017 
z
" clip-path="url(#pb0fad1084e)" style="fill: #1f77b4"/>
   </g>
   <g id="patch_191">
    <path d="M 371.669015 273.312 
L 373.282444 273.312 
L 373.282444 32.449667 
L 371.669015 32.449667 
z
" clip-path="url(#pb0fad1084e)" style="fill: #1f77b4"/>
   </g>
   <g id="patch_192">
    <path d="M 373.282444 273.312 
L 374.895872 273.312 
L 374.895872 30.563017 
L 373.282444 30.563017 
z
" clip-path="url(#pb0fad1084e)" style="fill: #1f77b4"/>
   </g>
   <g id="patch_193">
    <path d="M 374.895872 273.312 
L 376.509301 273.312 
L 376.509301 26.789717 
L 374.895872 26.789717 
z
" clip-path="url(#pb0fad1084e)" style="fill: #1f77b4"/>
   </g>
   <g id="patch_194">
    <path d="M 376.509301 273.312 
L 378.122729 273.312 
L 378.122729 24.903067 
L 376.509301 24.903067 
z
" clip-path="url(#pb0fad1084e)" style="fill: #1f77b4"/>
   </g>
   <g id="patch_195">
    <path d="M 378.122729 273.312 
L 379.736158 273.312 
L 379.736158 43.769568 
L 378.122729 43.769568 
z
" clip-path="url(#pb0fad1084e)" style="fill: #1f77b4"/>
   </g>
   <g id="patch_196">
    <path d="M 379.736158 273.312 
L 381.349586 273.312 
L 381.349586 55.718352 
L 379.736158 55.718352 
z
" clip-path="url(#pb0fad1084e)" style="fill: #1f77b4"/>
   </g>
   <g id="patch_197">
    <path d="M 381.349586 273.312 
L 382.963015 273.312 
L 382.963015 36.851851 
L 381.349586 36.851851 
z
" clip-path="url(#pb0fad1084e)" style="fill: #1f77b4"/>
   </g>
   <g id="patch_198">
    <path d="M 382.963015 273.312 
L 384.576443 273.312 
L 384.576443 43.140685 
L 382.963015 43.140685 
z
" clip-path="url(#pb0fad1084e)" style="fill: #1f77b4"/>
   </g>
   <g id="patch_199">
    <path d="M 384.576443 273.312 
L 386.189872 273.312 
L 386.189872 31.191901 
L 384.576443 31.191901 
z
" clip-path="url(#pb0fad1084e)" style="fill: #1f77b4"/>
   </g>
   <g id="patch_200">
    <path d="M 386.189872 273.312 
L 387.8033 273.312 
L 387.8033 39.367385 
L 386.189872 39.367385 
z
" clip-path="url(#pb0fad1084e)" style="fill: #1f77b4"/>
   </g>
   <g id="patch_201">
    <path d="M 387.8033 273.312 
L 389.416729 273.312 
L 389.416729 41.254035 
L 387.8033 41.254035 
z
" clip-path="url(#pb0fad1084e)" style="fill: #1f77b4"/>
   </g>
   <g id="patch_202">
    <path d="M 389.416729 273.312 
L 391.030157 273.312 
L 391.030157 19.872 
L 389.416729 19.872 
z
" clip-path="url(#pb0fad1084e)" style="fill: #1f77b4"/>
   </g>
   <g id="matplotlib.axis_1">
    <g id="xtick_1">
     <g id="line2d_1">
      <defs>
       <path id="mf7b42a8b39" d="M 0 0 
L 0 3.5 
" style="stroke: #000000; stroke-width: 0.8"/>
      </defs>
      <g>
       <use xlink:href="#mf7b42a8b39" x="66.376477" y="273.312" style="stroke: #000000; stroke-width: 0.8"/>
      </g>
     </g>
     <g id="text_1">
      <!-- 0.0 -->
      <g transform="translate(58.424915 287.910437)scale(0.1 -0.1)">
       <defs>
        <path id="DejaVuSans-30" d="M 2034 4250 
Q 1547 4250 1301 3770 
Q 1056 3291 1056 2328 
Q 1056 1369 1301 889 
Q 1547 409 2034 409 
Q 2525 409 2770 889 
Q 3016 1369 3016 2328 
Q 3016 3291 2770 3770 
Q 2525 4250 2034 4250 
z
M 2034 4750 
Q 2819 4750 3233 4129 
Q 3647 3509 3647 2328 
Q 3647 1150 3233 529 
Q 2819 -91 2034 -91 
Q 1250 -91 836 529 
Q 422 1150 422 2328 
Q 422 3509 836 4129 
Q 1250 4750 2034 4750 
z
" transform="scale(0.015625)"/>
        <path id="DejaVuSans-2e" d="M 684 794 
L 1344 794 
L 1344 0 
L 684 0 
L 684 794 
z
" transform="scale(0.015625)"/>
       </defs>
       <use xlink:href="#DejaVuSans-30"/>
       <use xlink:href="#DejaVuSans-2e" x="63.623047"/>
       <use xlink:href="#DejaVuSans-30" x="95.410156"/>
      </g>
     </g>
    </g>
    <g id="xtick_2">
     <g id="line2d_2">
      <g>
       <use xlink:href="#mf7b42a8b39" x="131.307386" y="273.312" style="stroke: #000000; stroke-width: 0.8"/>
      </g>
     </g>
     <g id="text_2">
      <!-- 0.2 -->
      <g transform="translate(123.355824 287.910437)scale(0.1 -0.1)">
       <defs>
        <path id="DejaVuSans-32" d="M 1228 531 
L 3431 531 
L 3431 0 
L 469 0 
L 469 531 
Q 828 903 1448 1529 
Q 2069 2156 2228 2338 
Q 2531 2678 2651 2914 
Q 2772 3150 2772 3378 
Q 2772 3750 2511 3984 
Q 2250 4219 1831 4219 
Q 1534 4219 1204 4116 
Q 875 4013 500 3803 
L 500 4441 
Q 881 4594 1212 4672 
Q 1544 4750 1819 4750 
Q 2544 4750 2975 4387 
Q 3406 4025 3406 3419 
Q 3406 3131 3298 2873 
Q 3191 2616 2906 2266 
Q 2828 2175 2409 1742 
Q 1991 1309 1228 531 
z
" transform="scale(0.015625)"/>
       </defs>
       <use xlink:href="#DejaVuSans-30"/>
       <use xlink:href="#DejaVuSans-2e" x="63.623047"/>
       <use xlink:href="#DejaVuSans-32" x="95.410156"/>
      </g>
     </g>
    </g>
    <g id="xtick_3">
     <g id="line2d_3">
      <g>
       <use xlink:href="#mf7b42a8b39" x="196.238295" y="273.312" style="stroke: #000000; stroke-width: 0.8"/>
      </g>
     </g>
     <g id="text_3">
      <!-- 0.4 -->
      <g transform="translate(188.286733 287.910437)scale(0.1 -0.1)">
       <defs>
        <path id="DejaVuSans-34" d="M 2419 4116 
L 825 1625 
L 2419 1625 
L 2419 4116 
z
M 2253 4666 
L 3047 4666 
L 3047 1625 
L 3713 1625 
L 3713 1100 
L 3047 1100 
L 3047 0 
L 2419 0 
L 2419 1100 
L 313 1100 
L 313 1709 
L 2253 4666 
z
" transform="scale(0.015625)"/>
       </defs>
       <use xlink:href="#DejaVuSans-30"/>
       <use xlink:href="#DejaVuSans-2e" x="63.623047"/>
       <use xlink:href="#DejaVuSans-34" x="95.410156"/>
      </g>
     </g>
    </g>
    <g id="xtick_4">
     <g id="line2d_4">
      <g>
       <use xlink:href="#mf7b42a8b39" x="261.169205" y="273.312" style="stroke: #000000; stroke-width: 0.8"/>
      </g>
     </g>
     <g id="text_4">
      <!-- 0.6 -->
      <g transform="translate(253.217642 287.910437)scale(0.1 -0.1)">
       <defs>
        <path id="DejaVuSans-36" d="M 2113 2584 
Q 1688 2584 1439 2293 
Q 1191 2003 1191 1497 
Q 1191 994 1439 701 
Q 1688 409 2113 409 
Q 2538 409 2786 701 
Q 3034 994 3034 1497 
Q 3034 2003 2786 2293 
Q 2538 2584 2113 2584 
z
M 3366 4563 
L 3366 3988 
Q 3128 4100 2886 4159 
Q 2644 4219 2406 4219 
Q 1781 4219 1451 3797 
Q 1122 3375 1075 2522 
Q 1259 2794 1537 2939 
Q 1816 3084 2150 3084 
Q 2853 3084 3261 2657 
Q 3669 2231 3669 1497 
Q 3669 778 3244 343 
Q 2819 -91 2113 -91 
Q 1303 -91 875 529 
Q 447 1150 447 2328 
Q 447 3434 972 4092 
Q 1497 4750 2381 4750 
Q 2619 4750 2861 4703 
Q 3103 4656 3366 4563 
z
" transform="scale(0.015625)"/>
       </defs>
       <use xlink:href="#DejaVuSans-30"/>
       <use xlink:href="#DejaVuSans-2e" x="63.623047"/>
       <use xlink:href="#DejaVuSans-36" x="95.410156"/>
      </g>
     </g>
    </g>
    <g id="xtick_5">
     <g id="line2d_5">
      <g>
       <use xlink:href="#mf7b42a8b39" x="326.100114" y="273.312" style="stroke: #000000; stroke-width: 0.8"/>
      </g>
     </g>
     <g id="text_5">
      <!-- 0.8 -->
      <g transform="translate(318.148551 287.910437)scale(0.1 -0.1)">
       <defs>
        <path id="DejaVuSans-38" d="M 2034 2216 
Q 1584 2216 1326 1975 
Q 1069 1734 1069 1313 
Q 1069 891 1326 650 
Q 1584 409 2034 409 
Q 2484 409 2743 651 
Q 3003 894 3003 1313 
Q 3003 1734 2745 1975 
Q 2488 2216 2034 2216 
z
M 1403 2484 
Q 997 2584 770 2862 
Q 544 3141 544 3541 
Q 544 4100 942 4425 
Q 1341 4750 2034 4750 
Q 2731 4750 3128 4425 
Q 3525 4100 3525 3541 
Q 3525 3141 3298 2862 
Q 3072 2584 2669 2484 
Q 3125 2378 3379 2068 
Q 3634 1759 3634 1313 
Q 3634 634 3220 271 
Q 2806 -91 2034 -91 
Q 1263 -91 848 271 
Q 434 634 434 1313 
Q 434 1759 690 2068 
Q 947 2378 1403 2484 
z
M 1172 3481 
Q 1172 3119 1398 2916 
Q 1625 2713 2034 2713 
Q 2441 2713 2670 2916 
Q 2900 3119 2900 3481 
Q 2900 3844 2670 4047 
Q 2441 4250 2034 4250 
Q 1625 4250 1398 4047 
Q 1172 3844 1172 3481 
z
" transform="scale(0.015625)"/>
       </defs>
       <use xlink:href="#DejaVuSans-30"/>
       <use xlink:href="#DejaVuSans-2e" x="63.623047"/>
       <use xlink:href="#DejaVuSans-38" x="95.410156"/>
      </g>
     </g>
    </g>
    <g id="xtick_6">
     <g id="line2d_6">
      <g>
       <use xlink:href="#mf7b42a8b39" x="391.031023" y="273.312" style="stroke: #000000; stroke-width: 0.8"/>
      </g>
     </g>
     <g id="text_6">
      <!-- 1.0 -->
      <g transform="translate(383.07946 287.910437)scale(0.1 -0.1)">
       <defs>
        <path id="DejaVuSans-31" d="M 794 531 
L 1825 531 
L 1825 4091 
L 703 3866 
L 703 4441 
L 1819 4666 
L 2450 4666 
L 2450 531 
L 3481 531 
L 3481 0 
L 794 0 
L 794 531 
z
" transform="scale(0.015625)"/>
       </defs>
       <use xlink:href="#DejaVuSans-31"/>
       <use xlink:href="#DejaVuSans-2e" x="63.623047"/>
       <use xlink:href="#DejaVuSans-30" x="95.410156"/>
      </g>
     </g>
    </g>
    <g id="text_7">
     <!-- Propagation direction -->
     <g transform="translate(175.221719 301.588562)scale(0.1 -0.1)">
      <defs>
       <path id="DejaVuSans-50" d="M 1259 4147 
L 1259 2394 
L 2053 2394 
Q 2494 2394 2734 2622 
Q 2975 2850 2975 3272 
Q 2975 3691 2734 3919 
Q 2494 4147 2053 4147 
L 1259 4147 
z
M 628 4666 
L 2053 4666 
Q 2838 4666 3239 4311 
Q 3641 3956 3641 3272 
Q 3641 2581 3239 2228 
Q 2838 1875 2053 1875 
L 1259 1875 
L 1259 0 
L 628 0 
L 628 4666 
z
" transform="scale(0.015625)"/>
       <path id="DejaVuSans-72" d="M 2631 2963 
Q 2534 3019 2420 3045 
Q 2306 3072 2169 3072 
Q 1681 3072 1420 2755 
Q 1159 2438 1159 1844 
L 1159 0 
L 581 0 
L 581 3500 
L 1159 3500 
L 1159 2956 
Q 1341 3275 1631 3429 
Q 1922 3584 2338 3584 
Q 2397 3584 2469 3576 
Q 2541 3569 2628 3553 
L 2631 2963 
z
" transform="scale(0.015625)"/>
       <path id="DejaVuSans-6f" d="M 1959 3097 
Q 1497 3097 1228 2736 
Q 959 2375 959 1747 
Q 959 1119 1226 758 
Q 1494 397 1959 397 
Q 2419 397 2687 759 
Q 2956 1122 2956 1747 
Q 2956 2369 2687 2733 
Q 2419 3097 1959 3097 
z
M 1959 3584 
Q 2709 3584 3137 3096 
Q 3566 2609 3566 1747 
Q 3566 888 3137 398 
Q 2709 -91 1959 -91 
Q 1206 -91 779 398 
Q 353 888 353 1747 
Q 353 2609 779 3096 
Q 1206 3584 1959 3584 
z
" transform="scale(0.015625)"/>
       <path id="DejaVuSans-70" d="M 1159 525 
L 1159 -1331 
L 581 -1331 
L 581 3500 
L 1159 3500 
L 1159 2969 
Q 1341 3281 1617 3432 
Q 1894 3584 2278 3584 
Q 2916 3584 3314 3078 
Q 3713 2572 3713 1747 
Q 3713 922 3314 415 
Q 2916 -91 2278 -91 
Q 1894 -91 1617 61 
Q 1341 213 1159 525 
z
M 3116 1747 
Q 3116 2381 2855 2742 
Q 2594 3103 2138 3103 
Q 1681 3103 1420 2742 
Q 1159 2381 1159 1747 
Q 1159 1113 1420 752 
Q 1681 391 2138 391 
Q 2594 391 2855 752 
Q 3116 1113 3116 1747 
z
" transform="scale(0.015625)"/>
       <path id="DejaVuSans-61" d="M 2194 1759 
Q 1497 1759 1228 1600 
Q 959 1441 959 1056 
Q 959 750 1161 570 
Q 1363 391 1709 391 
Q 2188 391 2477 730 
Q 2766 1069 2766 1631 
L 2766 1759 
L 2194 1759 
z
M 3341 1997 
L 3341 0 
L 2766 0 
L 2766 531 
Q 2569 213 2275 61 
Q 1981 -91 1556 -91 
Q 1019 -91 701 211 
Q 384 513 384 1019 
Q 384 1609 779 1909 
Q 1175 2209 1959 2209 
L 2766 2209 
L 2766 2266 
Q 2766 2663 2505 2880 
Q 2244 3097 1772 3097 
Q 1472 3097 1187 3025 
Q 903 2953 641 2809 
L 641 3341 
Q 956 3463 1253 3523 
Q 1550 3584 1831 3584 
Q 2591 3584 2966 3190 
Q 3341 2797 3341 1997 
z
" transform="scale(0.015625)"/>
       <path id="DejaVuSans-67" d="M 2906 1791 
Q 2906 2416 2648 2759 
Q 2391 3103 1925 3103 
Q 1463 3103 1205 2759 
Q 947 2416 947 1791 
Q 947 1169 1205 825 
Q 1463 481 1925 481 
Q 2391 481 2648 825 
Q 2906 1169 2906 1791 
z
M 3481 434 
Q 3481 -459 3084 -895 
Q 2688 -1331 1869 -1331 
Q 1566 -1331 1297 -1286 
Q 1028 -1241 775 -1147 
L 775 -588 
Q 1028 -725 1275 -790 
Q 1522 -856 1778 -856 
Q 2344 -856 2625 -561 
Q 2906 -266 2906 331 
L 2906 616 
Q 2728 306 2450 153 
Q 2172 0 1784 0 
Q 1141 0 747 490 
Q 353 981 353 1791 
Q 353 2603 747 3093 
Q 1141 3584 1784 3584 
Q 2172 3584 2450 3431 
Q 2728 3278 2906 2969 
L 2906 3500 
L 3481 3500 
L 3481 434 
z
" transform="scale(0.015625)"/>
       <path id="DejaVuSans-74" d="M 1172 4494 
L 1172 3500 
L 2356 3500 
L 2356 3053 
L 1172 3053 
L 1172 1153 
Q 1172 725 1289 603 
Q 1406 481 1766 481 
L 2356 481 
L 2356 0 
L 1766 0 
Q 1100 0 847 248 
Q 594 497 594 1153 
L 594 3053 
L 172 3053 
L 172 3500 
L 594 3500 
L 594 4494 
L 1172 4494 
z
" transform="scale(0.015625)"/>
       <path id="DejaVuSans-69" d="M 603 3500 
L 1178 3500 
L 1178 0 
L 603 0 
L 603 3500 
z
M 603 4863 
L 1178 4863 
L 1178 4134 
L 603 4134 
L 603 4863 
z
" transform="scale(0.015625)"/>
       <path id="DejaVuSans-6e" d="M 3513 2113 
L 3513 0 
L 2938 0 
L 2938 2094 
Q 2938 2591 2744 2837 
Q 2550 3084 2163 3084 
Q 1697 3084 1428 2787 
Q 1159 2491 1159 1978 
L 1159 0 
L 581 0 
L 581 3500 
L 1159 3500 
L 1159 2956 
Q 1366 3272 1645 3428 
Q 1925 3584 2291 3584 
Q 2894 3584 3203 3211 
Q 3513 2838 3513 2113 
z
" transform="scale(0.015625)"/>
       <path id="DejaVuSans-20" transform="scale(0.015625)"/>
       <path id="DejaVuSans-64" d="M 2906 2969 
L 2906 4863 
L 3481 4863 
L 3481 0 
L 2906 0 
L 2906 525 
Q 2725 213 2448 61 
Q 2172 -91 1784 -91 
Q 1150 -91 751 415 
Q 353 922 353 1747 
Q 353 2572 751 3078 
Q 1150 3584 1784 3584 
Q 2172 3584 2448 3432 
Q 2725 3281 2906 2969 
z
M 947 1747 
Q 947 1113 1208 752 
Q 1469 391 1925 391 
Q 2381 391 2643 752 
Q 2906 1113 2906 1747 
Q 2906 2381 2643 2742 
Q 2381 3103 1925 3103 
Q 1469 3103 1208 2742 
Q 947 2381 947 1747 
z
" transform="scale(0.015625)"/>
       <path id="DejaVuSans-65" d="M 3597 1894 
L 3597 1613 
L 953 1613 
Q 991 1019 1311 708 
Q 1631 397 2203 397 
Q 2534 397 2845 478 
Q 3156 559 3463 722 
L 3463 178 
Q 3153 47 2828 -22 
Q 2503 -91 2169 -91 
Q 1331 -91 842 396 
Q 353 884 353 1716 
Q 353 2575 817 3079 
Q 1281 3584 2069 3584 
Q 2775 3584 3186 3129 
Q 3597 2675 3597 1894 
z
M 3022 2063 
Q 3016 2534 2758 2815 
Q 2500 3097 2075 3097 
Q 1594 3097 1305 2825 
Q 1016 2553 972 2059 
L 3022 2063 
z
" transform="scale(0.015625)"/>
       <path id="DejaVuSans-63" d="M 3122 3366 
L 3122 2828 
Q 2878 2963 2633 3030 
Q 2388 3097 2138 3097 
Q 1578 3097 1268 2742 
Q 959 2388 959 1747 
Q 959 1106 1268 751 
Q 1578 397 2138 397 
Q 2388 397 2633 464 
Q 2878 531 3122 666 
L 3122 134 
Q 2881 22 2623 -34 
Q 2366 -91 2075 -91 
Q 1284 -91 818 406 
Q 353 903 353 1747 
Q 353 2603 823 3093 
Q 1294 3584 2113 3584 
Q 2378 3584 2631 3529 
Q 2884 3475 3122 3366 
z
" transform="scale(0.015625)"/>
      </defs>
      <use xlink:href="#DejaVuSans-50"/>
      <use xlink:href="#DejaVuSans-72" x="58.552734"/>
      <use xlink:href="#DejaVuSans-6f" x="97.416016"/>
      <use xlink:href="#DejaVuSans-70" x="158.597656"/>
      <use xlink:href="#DejaVuSans-61" x="222.074219"/>
      <use xlink:href="#DejaVuSans-67" x="283.353516"/>
      <use xlink:href="#DejaVuSans-61" x="346.830078"/>
      <use xlink:href="#DejaVuSans-74" x="408.109375"/>
      <use xlink:href="#DejaVuSans-69" x="447.318359"/>
      <use xlink:href="#DejaVuSans-6f" x="475.101562"/>
      <use xlink:href="#DejaVuSans-6e" x="536.283203"/>
      <use xlink:href="#DejaVuSans-20" x="599.662109"/>
      <use xlink:href="#DejaVuSans-64" x="631.449219"/>
      <use xlink:href="#DejaVuSans-69" x="694.925781"/>
      <use xlink:href="#DejaVuSans-72" x="722.708984"/>
      <use xlink:href="#DejaVuSans-65" x="761.572266"/>
      <use xlink:href="#DejaVuSans-63" x="823.095703"/>
      <use xlink:href="#DejaVuSans-74" x="878.076172"/>
      <use xlink:href="#DejaVuSans-69" x="917.285156"/>
      <use xlink:href="#DejaVuSans-6f" x="945.068359"/>
      <use xlink:href="#DejaVuSans-6e" x="1006.25"/>
     </g>
    </g>
   </g>
   <g id="matplotlib.axis_2">
    <g id="ytick_1">
     <g id="line2d_7">
      <defs>
       <path id="m3f0acf5663" d="M 0 0 
L -3.5 0 
" style="stroke: #000000; stroke-width: 0.8"/>
      </defs>
      <g>
       <use xlink:href="#m3f0acf5663" x="50.14375" y="273.312" style="stroke: #000000; stroke-width: 0.8"/>
      </g>
     </g>
     <g id="text_8">
      <!-- 0.00 -->
      <g transform="translate(20.878125 277.111219)scale(0.1 -0.1)">
       <use xlink:href="#DejaVuSans-30"/>
       <use xlink:href="#DejaVuSans-2e" x="63.623047"/>
       <use xlink:href="#DejaVuSans-30" x="95.410156"/>
       <use xlink:href="#DejaVuSans-30" x="159.033203"/>
      </g>
     </g>
    </g>
    <g id="ytick_2">
     <g id="line2d_8">
      <g>
       <use xlink:href="#m3f0acf5663" x="50.14375" y="242.058522" style="stroke: #000000; stroke-width: 0.8"/>
      </g>
     </g>
     <g id="text_9">
      <!-- 0.25 -->
      <g transform="translate(20.878125 245.857741)scale(0.1 -0.1)">
       <defs>
        <path id="DejaVuSans-35" d="M 691 4666 
L 3169 4666 
L 3169 4134 
L 1269 4134 
L 1269 2991 
Q 1406 3038 1543 3061 
Q 1681 3084 1819 3084 
Q 2600 3084 3056 2656 
Q 3513 2228 3513 1497 
Q 3513 744 3044 326 
Q 2575 -91 1722 -91 
Q 1428 -91 1123 -41 
Q 819 9 494 109 
L 494 744 
Q 775 591 1075 516 
Q 1375 441 1709 441 
Q 2250 441 2565 725 
Q 2881 1009 2881 1497 
Q 2881 1984 2565 2268 
Q 2250 2553 1709 2553 
Q 1456 2553 1204 2497 
Q 953 2441 691 2322 
L 691 4666 
z
" transform="scale(0.015625)"/>
       </defs>
       <use xlink:href="#DejaVuSans-30"/>
       <use xlink:href="#DejaVuSans-2e" x="63.623047"/>
       <use xlink:href="#DejaVuSans-32" x="95.410156"/>
       <use xlink:href="#DejaVuSans-35" x="159.033203"/>
      </g>
     </g>
    </g>
    <g id="ytick_3">
     <g id="line2d_9">
      <g>
       <use xlink:href="#m3f0acf5663" x="50.14375" y="210.805044" style="stroke: #000000; stroke-width: 0.8"/>
      </g>
     </g>
     <g id="text_10">
      <!-- 0.50 -->
      <g transform="translate(20.878125 214.604263)scale(0.1 -0.1)">
       <use xlink:href="#DejaVuSans-30"/>
       <use xlink:href="#DejaVuSans-2e" x="63.623047"/>
       <use xlink:href="#DejaVuSans-35" x="95.410156"/>
       <use xlink:href="#DejaVuSans-30" x="159.033203"/>
      </g>
     </g>
    </g>
    <g id="ytick_4">
     <g id="line2d_10">
      <g>
       <use xlink:href="#m3f0acf5663" x="50.14375" y="179.551566" style="stroke: #000000; stroke-width: 0.8"/>
      </g>
     </g>
     <g id="text_11">
      <!-- 0.75 -->
      <g transform="translate(20.878125 183.350785)scale(0.1 -0.1)">
       <defs>
        <path id="DejaVuSans-37" d="M 525 4666 
L 3525 4666 
L 3525 4397 
L 1831 0 
L 1172 0 
L 2766 4134 
L 525 4134 
L 525 4666 
z
" transform="scale(0.015625)"/>
       </defs>
       <use xlink:href="#DejaVuSans-30"/>
       <use xlink:href="#DejaVuSans-2e" x="63.623047"/>
       <use xlink:href="#DejaVuSans-37" x="95.410156"/>
       <use xlink:href="#DejaVuSans-35" x="159.033203"/>
      </g>
     </g>
    </g>
    <g id="ytick_5">
     <g id="line2d_11">
      <g>
       <use xlink:href="#m3f0acf5663" x="50.14375" y="148.298088" style="stroke: #000000; stroke-width: 0.8"/>
      </g>
     </g>
     <g id="text_12">
      <!-- 1.00 -->
      <g transform="translate(20.878125 152.097307)scale(0.1 -0.1)">
       <use xlink:href="#DejaVuSans-31"/>
       <use xlink:href="#DejaVuSans-2e" x="63.623047"/>
       <use xlink:href="#DejaVuSans-30" x="95.410156"/>
       <use xlink:href="#DejaVuSans-30" x="159.033203"/>
      </g>
     </g>
    </g>
    <g id="ytick_6">
     <g id="line2d_12">
      <g>
       <use xlink:href="#m3f0acf5663" x="50.14375" y="117.04461" style="stroke: #000000; stroke-width: 0.8"/>
      </g>
     </g>
     <g id="text_13">
      <!-- 1.25 -->
      <g transform="translate(20.878125 120.843829)scale(0.1 -0.1)">
       <use xlink:href="#DejaVuSans-31"/>
       <use xlink:href="#DejaVuSans-2e" x="63.623047"/>
       <use xlink:href="#DejaVuSans-32" x="95.410156"/>
       <use xlink:href="#DejaVuSans-35" x="159.033203"/>
      </g>
     </g>
    </g>
    <g id="ytick_7">
     <g id="line2d_13">
      <g>
       <use xlink:href="#m3f0acf5663" x="50.14375" y="85.791132" style="stroke: #000000; stroke-width: 0.8"/>
      </g>
     </g>
     <g id="text_14">
      <!-- 1.50 -->
      <g transform="translate(20.878125 89.590351)scale(0.1 -0.1)">
       <use xlink:href="#DejaVuSans-31"/>
       <use xlink:href="#DejaVuSans-2e" x="63.623047"/>
       <use xlink:href="#DejaVuSans-35" x="95.410156"/>
       <use xlink:href="#DejaVuSans-30" x="159.033203"/>
      </g>
     </g>
    </g>
    <g id="ytick_8">
     <g id="line2d_14">
      <g>
       <use xlink:href="#m3f0acf5663" x="50.14375" y="54.537654" style="stroke: #000000; stroke-width: 0.8"/>
      </g>
     </g>
     <g id="text_15">
      <!-- 1.75 -->
      <g transform="translate(20.878125 58.336873)scale(0.1 -0.1)">
       <use xlink:href="#DejaVuSans-31"/>
       <use xlink:href="#DejaVuSans-2e" x="63.623047"/>
       <use xlink:href="#DejaVuSans-37" x="95.410156"/>
       <use xlink:href="#DejaVuSans-35" x="159.033203"/>
      </g>
     </g>
    </g>
    <g id="ytick_9">
     <g id="line2d_15">
      <g>
       <use xlink:href="#m3f0acf5663" x="50.14375" y="23.284176" style="stroke: #000000; stroke-width: 0.8"/>
      </g>
     </g>
     <g id="text_16">
      <!-- 2.00 -->
      <g transform="translate(20.878125 27.083395)scale(0.1 -0.1)">
       <use xlink:href="#DejaVuSans-32"/>
       <use xlink:href="#DejaVuSans-2e" x="63.623047"/>
       <use xlink:href="#DejaVuSans-30" x="95.410156"/>
       <use xlink:href="#DejaVuSans-30" x="159.033203"/>
      </g>
     </g>
    </g>
    <g id="text_17">
     <!-- Probability density -->
     <g transform="translate(14.798438 186.606781)rotate(-90)scale(0.1 -0.1)">
      <defs>
       <path id="DejaVuSans-62" d="M 3116 1747 
Q 3116 2381 2855 2742 
Q 2594 3103 2138 3103 
Q 1681 3103 1420 2742 
Q 1159 2381 1159 1747 
Q 1159 1113 1420 752 
Q 1681 391 2138 391 
Q 2594 391 2855 752 
Q 3116 1113 3116 1747 
z
M 1159 2969 
Q 1341 3281 1617 3432 
Q 1894 3584 2278 3584 
Q 2916 3584 3314 3078 
Q 3713 2572 3713 1747 
Q 3713 922 3314 415 
Q 2916 -91 2278 -91 
Q 1894 -91 1617 61 
Q 1341 213 1159 525 
L 1159 0 
L 581 0 
L 581 4863 
L 1159 4863 
L 1159 2969 
z
" transform="scale(0.015625)"/>
       <path id="DejaVuSans-6c" d="M 603 4863 
L 1178 4863 
L 1178 0 
L 603 0 
L 603 4863 
z
" transform="scale(0.015625)"/>
       <path id="DejaVuSans-79" d="M 2059 -325 
Q 1816 -950 1584 -1140 
Q 1353 -1331 966 -1331 
L 506 -1331 
L 506 -850 
L 844 -850 
Q 1081 -850 1212 -737 
Q 1344 -625 1503 -206 
L 1606 56 
L 191 3500 
L 800 3500 
L 1894 763 
L 2988 3500 
L 3597 3500 
L 2059 -325 
z
" transform="scale(0.015625)"/>
       <path id="DejaVuSans-73" d="M 2834 3397 
L 2834 2853 
Q 2591 2978 2328 3040 
Q 2066 3103 1784 3103 
Q 1356 3103 1142 2972 
Q 928 2841 928 2578 
Q 928 2378 1081 2264 
Q 1234 2150 1697 2047 
L 1894 2003 
Q 2506 1872 2764 1633 
Q 3022 1394 3022 966 
Q 3022 478 2636 193 
Q 2250 -91 1575 -91 
Q 1294 -91 989 -36 
Q 684 19 347 128 
L 347 722 
Q 666 556 975 473 
Q 1284 391 1588 391 
Q 1994 391 2212 530 
Q 2431 669 2431 922 
Q 2431 1156 2273 1281 
Q 2116 1406 1581 1522 
L 1381 1569 
Q 847 1681 609 1914 
Q 372 2147 372 2553 
Q 372 3047 722 3315 
Q 1072 3584 1716 3584 
Q 2034 3584 2315 3537 
Q 2597 3491 2834 3397 
z
" transform="scale(0.015625)"/>
      </defs>
      <use xlink:href="#DejaVuSans-50"/>
      <use xlink:href="#DejaVuSans-72" x="58.552734"/>
      <use xlink:href="#DejaVuSans-6f" x="97.416016"/>
      <use xlink:href="#DejaVuSans-62" x="158.597656"/>
      <use xlink:href="#DejaVuSans-61" x="222.074219"/>
      <use xlink:href="#DejaVuSans-62" x="283.353516"/>
      <use xlink:href="#DejaVuSans-69" x="346.830078"/>
      <use xlink:href="#DejaVuSans-6c" x="374.613281"/>
      <use xlink:href="#DejaVuSans-69" x="402.396484"/>
      <use xlink:href="#DejaVuSans-74" x="430.179688"/>
      <use xlink:href="#DejaVuSans-79" x="469.388672"/>
      <use xlink:href="#DejaVuSans-20" x="528.568359"/>
      <use xlink:href="#DejaVuSans-64" x="560.355469"/>
      <use xlink:href="#DejaVuSans-65" x="623.832031"/>
      <use xlink:href="#DejaVuSans-6e" x="685.355469"/>
      <use xlink:href="#DejaVuSans-73" x="748.734375"/>
      <use xlink:href="#DejaVuSans-69" x="800.833984"/>
      <use xlink:href="#DejaVuSans-74" x="828.617188"/>
      <use xlink:href="#DejaVuSans-79" x="867.826172"/>
     </g>
    </g>
   </g>
   <g id="line2d_16">
    <path d="M 66.376477 273.312 
L 391.031023 23.284176 
L 391.031023 23.284176 
" clip-path="url(#pb0fad1084e)" style="fill: none; stroke: #ff7f0e; stroke-width: 1.5; stroke-linecap: square"/>
   </g>
   <g id="patch_203">
    <path d="M 50.14375 273.312 
L 50.14375 7.2 
" style="fill: none; stroke: #000000; stroke-width: 0.8; stroke-linejoin: miter; stroke-linecap: square"/>
   </g>
   <g id="patch_204">
    <path d="M 407.26375 273.312 
L 407.26375 7.2 
" style="fill: none; stroke: #000000; stroke-width: 0.8; stroke-linejoin: miter; stroke-linecap: square"/>
   </g>
   <g id="patch_205">
    <path d="M 50.14375 273.312 
L 407.26375 273.312 
" style="fill: none; stroke: #000000; stroke-width: 0.8; stroke-linejoin: miter; stroke-linecap: square"/>
   </g>
   <g id="patch_206">
    <path d="M 50.14375 7.2 
L 407.26375 7.2 
" style="fill: none; stroke: #000000; stroke-width: 0.8; stroke-linejoin: miter; stroke-linecap: square"/>
   </g>
  </g>
 </g>
 <defs>
  <clipPath id="pb0fad1084e">
   <rect x="50.14375" y="7.2" width="357.12" height="266.112"/>
  </clipPath>
 </defs>
</svg>
