<?xml version="1.0" encoding="utf-8" standalone="no"?>
<!DOCTYPE svg PUBLIC "-//W3C//DTD SVG 1.1//EN"
  "http://www.w3.org/Graphics/SVG/1.1/DTD/svg11.dtd">
<svg xmlns:xlink="http://www.w3.org/1999/xlink" width="408.10125pt" height="310.86825pt" viewBox="0 0 408.10125 310.86825" xmlns="http://www.w3.org/2000/svg" version="1.1">
 <metadata>
  <rdf:RDF xmlns:dc="http://purl.org/dc/elements/1.1/" xmlns:cc="http://creativecommons.org/ns#" xmlns:rdf="http://www.w3.org/1999/02/22-rdf-syntax-ns#">
   <cc:Work>
    <dc:type rdf:resource="http://purl.org/dc/dcmitype/StillImage"/>
    <dc:date>2022-05-04T16:16:58.875891</dc:date>
    <dc:format>image/svg+xml</dc:format>
    <dc:creator>
     <cc:Agent>
      <dc:title>Matplotlib v3.5.2, https://matplotlib.org/</dc:title>
     </cc:Agent>
    </dc:creator>
   </cc:Work>
  </rdf:RDF>
 </metadata>
 <defs>
  <style type="text/css">*{stroke-linejoin: round; stroke-linecap: butt}</style>
 </defs>
 <g id="figure_1">
  <g id="patch_1">
   <path d="M 0 310.86825 
L 408.10125 310.86825 
L 408.10125 0 
L 0 0 
z
" style="fill: #ffffff"/>
  </g>
  <g id="axes_1">
   <g id="patch_2">
    <path d="M 43.78125 273.312 
L 400.90125 273.312 
L 400.90125 7.2 
L 43.78125 7.2 
z
" style="fill: #ffffff"/>
   </g>
   <g id="patch_3">
    <path d="M 60.491621 273.312 
L 62.104992 273.312 
L 62.104992 270.321558 
L 60.491621 270.321558 
z
" clip-path="url(#p59216f5a8a)" style="fill: #1f77b4"/>
   </g>
   <g id="patch_4">
    <path d="M 62.104992 273.312 
L 63.718364 273.312 
L 63.718364 268.078726 
L 62.104992 268.078726 
z
" clip-path="url(#p59216f5a8a)" style="fill: #1f77b4"/>
   </g>
   <g id="patch_5">
    <path d="M 63.718364 273.312 
L 65.331735 273.312 
L 65.331735 259.107398 
L 63.718364 259.107398 
z
" clip-path="url(#p59216f5a8a)" style="fill: #1f77b4"/>
   </g>
   <g id="patch_6">
    <path d="M 65.331735 273.312 
L 66.945107 273.312 
L 66.945107 258.359788 
L 65.331735 258.359788 
z
" clip-path="url(#p59216f5a8a)" style="fill: #1f77b4"/>
   </g>
   <g id="patch_7">
    <path d="M 66.945107 273.312 
L 68.558478 273.312 
L 68.558478 248.64085 
L 66.945107 248.64085 
z
" clip-path="url(#p59216f5a8a)" style="fill: #1f77b4"/>
   </g>
   <g id="patch_8">
    <path d="M 68.558478 273.312 
L 70.17185 273.312 
L 70.17185 252.378903 
L 68.558478 252.378903 
z
" clip-path="url(#p59216f5a8a)" style="fill: #1f77b4"/>
   </g>
   <g id="patch_9">
    <path d="M 70.17185 273.312 
L 71.785221 273.312 
L 71.785221 248.64085 
L 70.17185 248.64085 
z
" clip-path="url(#p59216f5a8a)" style="fill: #1f77b4"/>
   </g>
   <g id="patch_10">
    <path d="M 71.785221 273.312 
L 73.398593 273.312 
L 73.398593 244.155186 
L 71.785221 244.155186 
z
" clip-path="url(#p59216f5a8a)" style="fill: #1f77b4"/>
   </g>
   <g id="patch_11">
    <path d="M 73.398593 273.312 
L 75.011964 273.312 
L 75.011964 243.407575 
L 73.398593 243.407575 
z
" clip-path="url(#p59216f5a8a)" style="fill: #1f77b4"/>
   </g>
   <g id="patch_12">
    <path d="M 75.011964 273.312 
L 76.625336 273.312 
L 76.625336 238.921912 
L 75.011964 238.921912 
z
" clip-path="url(#p59216f5a8a)" style="fill: #1f77b4"/>
   </g>
   <g id="patch_13">
    <path d="M 76.625336 273.312 
L 78.238707 273.312 
L 78.238707 232.193416 
L 76.625336 232.193416 
z
" clip-path="url(#p59216f5a8a)" style="fill: #1f77b4"/>
   </g>
   <g id="patch_14">
    <path d="M 78.238707 273.312 
L 79.852079 273.312 
L 79.852079 223.969699 
L 78.238707 223.969699 
z
" clip-path="url(#p59216f5a8a)" style="fill: #1f77b4"/>
   </g>
   <g id="patch_15">
    <path d="M 79.852079 273.312 
L 81.46545 273.312 
L 81.46545 236.67908 
L 79.852079 236.67908 
z
" clip-path="url(#p59216f5a8a)" style="fill: #1f77b4"/>
   </g>
   <g id="patch_16">
    <path d="M 81.46545 273.312 
L 83.078822 273.312 
L 83.078822 220.979257 
L 81.46545 220.979257 
z
" clip-path="url(#p59216f5a8a)" style="fill: #1f77b4"/>
   </g>
   <g id="patch_17">
    <path d="M 83.078822 273.312 
L 84.692193 273.312 
L 84.692193 220.231646 
L 83.078822 220.231646 
z
" clip-path="url(#p59216f5a8a)" style="fill: #1f77b4"/>
   </g>
   <g id="patch_18">
    <path d="M 84.692193 273.312 
L 86.305565 273.312 
L 86.305565 212.75554 
L 84.692193 212.75554 
z
" clip-path="url(#p59216f5a8a)" style="fill: #1f77b4"/>
   </g>
   <g id="patch_19">
    <path d="M 86.305565 273.312 
L 87.918936 273.312 
L 87.918936 207.522265 
L 86.305565 207.522265 
z
" clip-path="url(#p59216f5a8a)" style="fill: #1f77b4"/>
   </g>
   <g id="patch_20">
    <path d="M 87.918936 273.312 
L 89.532308 273.312 
L 89.532308 214.998372 
L 87.918936 214.998372 
z
" clip-path="url(#p59216f5a8a)" style="fill: #1f77b4"/>
   </g>
   <g id="patch_21">
    <path d="M 89.532308 273.312 
L 91.145679 273.312 
L 91.145679 212.75554 
L 89.532308 212.75554 
z
" clip-path="url(#p59216f5a8a)" style="fill: #1f77b4"/>
   </g>
   <g id="patch_22">
    <path d="M 91.145679 273.312 
L 92.759051 273.312 
L 92.759051 185.093947 
L 91.145679 185.093947 
z
" clip-path="url(#p59216f5a8a)" style="fill: #1f77b4"/>
   </g>
   <g id="patch_23">
    <path d="M 92.759051 273.312 
L 94.372422 273.312 
L 94.372422 196.308106 
L 92.759051 196.308106 
z
" clip-path="url(#p59216f5a8a)" style="fill: #1f77b4"/>
   </g>
   <g id="patch_24">
    <path d="M 94.372422 273.312 
L 95.985794 273.312 
L 95.985794 188.832 
L 94.372422 188.832 
z
" clip-path="url(#p59216f5a8a)" style="fill: #1f77b4"/>
   </g>
   <g id="patch_25">
    <path d="M 95.985794 273.312 
L 97.599165 273.312 
L 97.599165 206.774655 
L 95.985794 206.774655 
z
" clip-path="url(#p59216f5a8a)" style="fill: #1f77b4"/>
   </g>
   <g id="patch_26">
    <path d="M 97.599165 273.312 
L 99.212537 273.312 
L 99.212537 188.084389 
L 97.599165 188.084389 
z
" clip-path="url(#p59216f5a8a)" style="fill: #1f77b4"/>
   </g>
   <g id="patch_27">
    <path d="M 99.212537 273.312 
L 100.825908 273.312 
L 100.825908 199.298549 
L 99.212537 199.298549 
z
" clip-path="url(#p59216f5a8a)" style="fill: #1f77b4"/>
   </g>
   <g id="patch_28">
    <path d="M 100.825908 273.312 
L 102.43928 273.312 
L 102.43928 179.113062 
L 100.825908 179.113062 
z
" clip-path="url(#p59216f5a8a)" style="fill: #1f77b4"/>
   </g>
   <g id="patch_29">
    <path d="M 102.43928 273.312 
L 104.052651 273.312 
L 104.052651 203.036602 
L 102.43928 203.036602 
z
" clip-path="url(#p59216f5a8a)" style="fill: #1f77b4"/>
   </g>
   <g id="patch_30">
    <path d="M 104.052651 273.312 
L 105.666023 273.312 
L 105.666023 165.656071 
L 104.052651 165.656071 
z
" clip-path="url(#p59216f5a8a)" style="fill: #1f77b4"/>
   </g>
   <g id="patch_31">
    <path d="M 105.666023 273.312 
L 107.279394 273.312 
L 107.279394 181.355894 
L 105.666023 181.355894 
z
" clip-path="url(#p59216f5a8a)" style="fill: #1f77b4"/>
   </g>
   <g id="patch_32">
    <path d="M 107.279394 273.312 
L 108.892766 273.312 
L 108.892766 163.413239 
L 107.279394 163.413239 
z
" clip-path="url(#p59216f5a8a)" style="fill: #1f77b4"/>
   </g>
   <g id="patch_33">
    <path d="M 108.892766 273.312 
L 110.506137 273.312 
L 110.506137 175.375009 
L 108.892766 175.375009 
z
" clip-path="url(#p59216f5a8a)" style="fill: #1f77b4"/>
   </g>
   <g id="patch_34">
    <path d="M 110.506137 273.312 
L 112.119509 273.312 
L 112.119509 171.636956 
L 110.506137 171.636956 
z
" clip-path="url(#p59216f5a8a)" style="fill: #1f77b4"/>
   </g>
   <g id="patch_35">
    <path d="M 112.119509 273.312 
L 113.73288 273.312 
L 113.73288 160.422796 
L 112.119509 160.422796 
z
" clip-path="url(#p59216f5a8a)" style="fill: #1f77b4"/>
   </g>
   <g id="patch_36">
    <path d="M 113.73288 273.312 
L 115.346252 273.312 
L 115.346252 154.441912 
L 113.73288 154.441912 
z
" clip-path="url(#p59216f5a8a)" style="fill: #1f77b4"/>
   </g>
   <g id="patch_37">
    <path d="M 115.346252 273.312 
L 116.959623 273.312 
L 116.959623 158.179965 
L 115.346252 158.179965 
z
" clip-path="url(#p59216f5a8a)" style="fill: #1f77b4"/>
   </g>
   <g id="patch_38">
    <path d="M 116.959623 273.312 
L 118.572995 273.312 
L 118.572995 133.508814 
L 116.959623 133.508814 
z
" clip-path="url(#p59216f5a8a)" style="fill: #1f77b4"/>
   </g>
   <g id="patch_39">
    <path d="M 118.572995 273.312 
L 120.186366 273.312 
L 120.186366 148.461027 
L 118.572995 148.461027 
z
" clip-path="url(#p59216f5a8a)" style="fill: #1f77b4"/>
   </g>
   <g id="patch_40">
    <path d="M 120.186366 273.312 
L 121.799738 273.312 
L 121.799738 160.422796 
L 120.186366 160.422796 
z
" clip-path="url(#p59216f5a8a)" style="fill: #1f77b4"/>
   </g>
   <g id="patch_41">
    <path d="M 121.799738 273.312 
L 123.413109 273.312 
L 123.413109 159.675186 
L 121.799738 159.675186 
z
" clip-path="url(#p59216f5a8a)" style="fill: #1f77b4"/>
   </g>
   <g id="patch_42">
    <path d="M 123.413109 273.312 
L 125.026481 273.312 
L 125.026481 132.761204 
L 123.413109 132.761204 
z
" clip-path="url(#p59216f5a8a)" style="fill: #1f77b4"/>
   </g>
   <g id="patch_43">
    <path d="M 125.026481 273.312 
L 126.639852 273.312 
L 126.639852 130.518372 
L 125.026481 130.518372 
z
" clip-path="url(#p59216f5a8a)" style="fill: #1f77b4"/>
   </g>
   <g id="patch_44">
    <path d="M 126.639852 273.312 
L 128.253224 273.312 
L 128.253224 146.965805 
L 126.639852 146.965805 
z
" clip-path="url(#p59216f5a8a)" style="fill: #1f77b4"/>
   </g>
   <g id="patch_45">
    <path d="M 128.253224 273.312 
L 129.866595 273.312 
L 129.866595 138.742088 
L 128.253224 138.742088 
z
" clip-path="url(#p59216f5a8a)" style="fill: #1f77b4"/>
   </g>
   <g id="patch_46">
    <path d="M 129.866595 273.312 
L 131.479967 273.312 
L 131.479967 111.080496 
L 129.866595 111.080496 
z
" clip-path="url(#p59216f5a8a)" style="fill: #1f77b4"/>
   </g>
   <g id="patch_47">
    <path d="M 131.479967 273.312 
L 133.093338 273.312 
L 133.093338 126.780319 
L 131.479967 126.780319 
z
" clip-path="url(#p59216f5a8a)" style="fill: #1f77b4"/>
   </g>
   <g id="patch_48">
    <path d="M 133.093338 273.312 
L 134.70671 273.312 
L 134.70671 137.246867 
L 133.093338 137.246867 
z
" clip-path="url(#p59216f5a8a)" style="fill: #1f77b4"/>
   </g>
   <g id="patch_49">
    <path d="M 134.70671 273.312 
L 136.320081 273.312 
L 136.320081 99.118726 
L 134.70671 99.118726 
z
" clip-path="url(#p59216f5a8a)" style="fill: #1f77b4"/>
   </g>
   <g id="patch_50">
    <path d="M 136.320081 273.312 
L 137.933453 273.312 
L 137.933453 126.032708 
L 136.320081 126.032708 
z
" clip-path="url(#p59216f5a8a)" style="fill: #1f77b4"/>
   </g>
   <g id="patch_51">
    <path d="M 137.933453 273.312 
L 139.546824 273.312 
L 139.546824 109.585274 
L 137.933453 109.585274 
z
" clip-path="url(#p59216f5a8a)" style="fill: #1f77b4"/>
   </g>
   <g id="patch_52">
    <path d="M 139.546824 273.312 
L 141.160196 273.312 
L 141.160196 117.061381 
L 139.546824 117.061381 
z
" clip-path="url(#p59216f5a8a)" style="fill: #1f77b4"/>
   </g>
   <g id="patch_53">
    <path d="M 141.160196 273.312 
L 142.773567 273.312 
L 142.773567 99.118726 
L 141.160196 99.118726 
z
" clip-path="url(#p59216f5a8a)" style="fill: #1f77b4"/>
   </g>
   <g id="patch_54">
    <path d="M 142.773567 273.312 
L 144.386939 273.312 
L 144.386939 96.128283 
L 142.773567 96.128283 
z
" clip-path="url(#p59216f5a8a)" style="fill: #1f77b4"/>
   </g>
   <g id="patch_55">
    <path d="M 144.386939 273.312 
L 146.00031 273.312 
L 146.00031 87.904566 
L 144.386939 87.904566 
z
" clip-path="url(#p59216f5a8a)" style="fill: #1f77b4"/>
   </g>
   <g id="patch_56">
    <path d="M 146.00031 273.312 
L 147.613682 273.312 
L 147.613682 113.323327 
L 146.00031 113.323327 
z
" clip-path="url(#p59216f5a8a)" style="fill: #1f77b4"/>
   </g>
   <g id="patch_57">
    <path d="M 147.613682 273.312 
L 149.227053 273.312 
L 149.227053 90.895009 
L 147.613682 90.895009 
z
" clip-path="url(#p59216f5a8a)" style="fill: #1f77b4"/>
   </g>
   <g id="patch_58">
    <path d="M 149.227053 273.312 
L 150.840425 273.312 
L 150.840425 81.923681 
L 149.227053 81.923681 
z
" clip-path="url(#p59216f5a8a)" style="fill: #1f77b4"/>
   </g>
   <g id="patch_59">
    <path d="M 150.840425 273.312 
L 152.453796 273.312 
L 152.453796 84.914124 
L 150.840425 84.914124 
z
" clip-path="url(#p59216f5a8a)" style="fill: #1f77b4"/>
   </g>
   <g id="patch_60">
    <path d="M 152.453796 273.312 
L 154.067168 273.312 
L 154.067168 81.176071 
L 152.453796 81.176071 
z
" clip-path="url(#p59216f5a8a)" style="fill: #1f77b4"/>
   </g>
   <g id="patch_61">
    <path d="M 154.067168 273.312 
L 155.680539 273.312 
L 155.680539 102.109168 
L 154.067168 102.109168 
z
" clip-path="url(#p59216f5a8a)" style="fill: #1f77b4"/>
   </g>
   <g id="patch_62">
    <path d="M 155.680539 273.312 
L 157.293911 273.312 
L 157.293911 80.42846 
L 155.680539 80.42846 
z
" clip-path="url(#p59216f5a8a)" style="fill: #1f77b4"/>
   </g>
   <g id="patch_63">
    <path d="M 157.293911 273.312 
L 158.907282 273.312 
L 158.907282 94.633062 
L 157.293911 94.633062 
z
" clip-path="url(#p59216f5a8a)" style="fill: #1f77b4"/>
   </g>
   <g id="patch_64">
    <path d="M 158.907282 273.312 
L 160.520654 273.312 
L 160.520654 77.438018 
L 158.907282 77.438018 
z
" clip-path="url(#p59216f5a8a)" style="fill: #1f77b4"/>
   </g>
   <g id="patch_65">
    <path d="M 160.520654 273.312 
L 162.134025 273.312 
L 162.134025 72.204743 
L 160.520654 72.204743 
z
" clip-path="url(#p59216f5a8a)" style="fill: #1f77b4"/>
   </g>
   <g id="patch_66">
    <path d="M 162.134025 273.312 
L 163.747397 273.312 
L 163.747397 63.233416 
L 162.134025 63.233416 
z
" clip-path="url(#p59216f5a8a)" style="fill: #1f77b4"/>
   </g>
   <g id="patch_67">
    <path d="M 163.747397 273.312 
L 165.360768 273.312 
L 165.360768 72.952354 
L 163.747397 72.952354 
z
" clip-path="url(#p59216f5a8a)" style="fill: #1f77b4"/>
   </g>
   <g id="patch_68">
    <path d="M 165.360768 273.312 
L 166.97414 273.312 
L 166.97414 69.961912 
L 165.360768 69.961912 
z
" clip-path="url(#p59216f5a8a)" style="fill: #1f77b4"/>
   </g>
   <g id="patch_69">
    <path d="M 166.97414 273.312 
L 168.587511 273.312 
L 168.587511 92.39023 
L 166.97414 92.39023 
z
" clip-path="url(#p59216f5a8a)" style="fill: #1f77b4"/>
   </g>
   <g id="patch_70">
    <path d="M 168.587511 273.312 
L 170.200883 273.312 
L 170.200883 85.661735 
L 168.587511 85.661735 
z
" clip-path="url(#p59216f5a8a)" style="fill: #1f77b4"/>
   </g>
   <g id="patch_71">
    <path d="M 170.200883 273.312 
L 171.814254 273.312 
L 171.814254 64.728637 
L 170.200883 64.728637 
z
" clip-path="url(#p59216f5a8a)" style="fill: #1f77b4"/>
   </g>
   <g id="patch_72">
    <path d="M 171.814254 273.312 
L 173.427626 273.312 
L 173.427626 66.223858 
L 171.814254 66.223858 
z
" clip-path="url(#p59216f5a8a)" style="fill: #1f77b4"/>
   </g>
   <g id="patch_73">
    <path d="M 173.427626 273.312 
L 175.040997 273.312 
L 175.040997 69.961912 
L 173.427626 69.961912 
z
" clip-path="url(#p59216f5a8a)" style="fill: #1f77b4"/>
   </g>
   <g id="patch_74">
    <path d="M 175.040997 273.312 
L 176.654369 273.312 
L 176.654369 91.642619 
L 175.040997 91.642619 
z
" clip-path="url(#p59216f5a8a)" style="fill: #1f77b4"/>
   </g>
   <g id="patch_75">
    <path d="M 176.654369 273.312 
L 178.26774 273.312 
L 178.26774 62.485805 
L 176.654369 62.485805 
z
" clip-path="url(#p59216f5a8a)" style="fill: #1f77b4"/>
   </g>
   <g id="patch_76">
    <path d="M 178.26774 273.312 
L 179.881112 273.312 
L 179.881112 93.137841 
L 178.26774 93.137841 
z
" clip-path="url(#p59216f5a8a)" style="fill: #1f77b4"/>
   </g>
   <g id="patch_77">
    <path d="M 179.881112 273.312 
L 181.494483 273.312 
L 181.494483 79.68085 
L 179.881112 79.68085 
z
" clip-path="url(#p59216f5a8a)" style="fill: #1f77b4"/>
   </g>
   <g id="patch_78">
    <path d="M 181.494483 273.312 
L 183.107855 273.312 
L 183.107855 63.233416 
L 181.494483 63.233416 
z
" clip-path="url(#p59216f5a8a)" style="fill: #1f77b4"/>
   </g>
   <g id="patch_79">
    <path d="M 183.107855 273.312 
L 184.721226 273.312 
L 184.721226 71.457133 
L 183.107855 71.457133 
z
" clip-path="url(#p59216f5a8a)" style="fill: #1f77b4"/>
   </g>
   <g id="patch_80">
    <path d="M 184.721226 273.312 
L 186.334598 273.312 
L 186.334598 36.319434 
L 184.721226 36.319434 
z
" clip-path="url(#p59216f5a8a)" style="fill: #1f77b4"/>
   </g>
   <g id="patch_81">
    <path d="M 186.334598 273.312 
L 187.947969 273.312 
L 187.947969 56.50492 
L 186.334598 56.50492 
z
" clip-path="url(#p59216f5a8a)" style="fill: #1f77b4"/>
   </g>
   <g id="patch_82">
    <path d="M 187.947969 273.312 
L 189.561341 273.312 
L 189.561341 47.533593 
L 187.947969 47.533593 
z
" clip-path="url(#p59216f5a8a)" style="fill: #1f77b4"/>
   </g>
   <g id="patch_83">
    <path d="M 189.561341 273.312 
L 191.174712 273.312 
L 191.174712 34.076602 
L 189.561341 34.076602 
z
" clip-path="url(#p59216f5a8a)" style="fill: #1f77b4"/>
   </g>
   <g id="patch_84">
    <path d="M 191.174712 273.312 
L 192.788084 273.312 
L 192.788084 40.057487 
L 191.174712 40.057487 
z
" clip-path="url(#p59216f5a8a)" style="fill: #1f77b4"/>
   </g>
   <g id="patch_85">
    <path d="M 192.788084 273.312 
L 194.401455 273.312 
L 194.401455 52.766867 
L 192.788084 52.766867 
z
" clip-path="url(#p59216f5a8a)" style="fill: #1f77b4"/>
   </g>
   <g id="patch_86">
    <path d="M 194.401455 273.312 
L 196.014827 273.312 
L 196.014827 43.047929 
L 194.401455 43.047929 
z
" clip-path="url(#p59216f5a8a)" style="fill: #1f77b4"/>
   </g>
   <g id="patch_87">
    <path d="M 196.014827 273.312 
L 197.628198 273.312 
L 197.628198 49.028814 
L 196.014827 49.028814 
z
" clip-path="url(#p59216f5a8a)" style="fill: #1f77b4"/>
   </g>
   <g id="patch_88">
    <path d="M 197.628198 273.312 
L 199.24157 273.312 
L 199.24157 51.271646 
L 197.628198 51.271646 
z
" clip-path="url(#p59216f5a8a)" style="fill: #1f77b4"/>
   </g>
   <g id="patch_89">
    <path d="M 199.24157 273.312 
L 200.854941 273.312 
L 200.854941 57.252531 
L 199.24157 57.252531 
z
" clip-path="url(#p59216f5a8a)" style="fill: #1f77b4"/>
   </g>
   <g id="patch_90">
    <path d="M 200.854941 273.312 
L 202.468313 273.312 
L 202.468313 33.328991 
L 200.854941 33.328991 
z
" clip-path="url(#p59216f5a8a)" style="fill: #1f77b4"/>
   </g>
   <g id="patch_91">
    <path d="M 202.468313 273.312 
L 204.081684 273.312 
L 204.081684 28.095717 
L 202.468313 28.095717 
z
" clip-path="url(#p59216f5a8a)" style="fill: #1f77b4"/>
   </g>
   <g id="patch_92">
    <path d="M 204.081684 273.312 
L 205.695056 273.312 
L 205.695056 32.581381 
L 204.081684 32.581381 
z
" clip-path="url(#p59216f5a8a)" style="fill: #1f77b4"/>
   </g>
   <g id="patch_93">
    <path d="M 205.695056 273.312 
L 207.308427 273.312 
L 207.308427 29.590938 
L 205.695056 29.590938 
z
" clip-path="url(#p59216f5a8a)" style="fill: #1f77b4"/>
   </g>
   <g id="patch_94">
    <path d="M 207.308427 273.312 
L 208.921799 273.312 
L 208.921799 59.495363 
L 207.308427 59.495363 
z
" clip-path="url(#p59216f5a8a)" style="fill: #1f77b4"/>
   </g>
   <g id="patch_95">
    <path d="M 208.921799 273.312 
L 210.53517 273.312 
L 210.53517 32.581381 
L 208.921799 32.581381 
z
" clip-path="url(#p59216f5a8a)" style="fill: #1f77b4"/>
   </g>
   <g id="patch_96">
    <path d="M 210.53517 273.312 
L 212.148542 273.312 
L 212.148542 36.319434 
L 210.53517 36.319434 
z
" clip-path="url(#p59216f5a8a)" style="fill: #1f77b4"/>
   </g>
   <g id="patch_97">
    <path d="M 212.148542 273.312 
L 213.761913 273.312 
L 213.761913 68.46669 
L 212.148542 68.46669 
z
" clip-path="url(#p59216f5a8a)" style="fill: #1f77b4"/>
   </g>
   <g id="patch_98">
    <path d="M 213.761913 273.312 
L 215.375285 273.312 
L 215.375285 31.086159 
L 213.761913 31.086159 
z
" clip-path="url(#p59216f5a8a)" style="fill: #1f77b4"/>
   </g>
   <g id="patch_99">
    <path d="M 215.375285 273.312 
L 216.988656 273.312 
L 216.988656 34.076602 
L 215.375285 34.076602 
z
" clip-path="url(#p59216f5a8a)" style="fill: #1f77b4"/>
   </g>
   <g id="patch_100">
    <path d="M 216.988656 273.312 
L 218.602028 273.312 
L 218.602028 24.357664 
L 216.988656 24.357664 
z
" clip-path="url(#p59216f5a8a)" style="fill: #1f77b4"/>
   </g>
   <g id="patch_101">
    <path d="M 218.602028 273.312 
L 220.215399 273.312 
L 220.215399 29.590938 
L 218.602028 29.590938 
z
" clip-path="url(#p59216f5a8a)" style="fill: #1f77b4"/>
   </g>
   <g id="patch_102">
    <path d="M 220.215399 273.312 
L 221.828771 273.312 
L 221.828771 51.271646 
L 220.215399 51.271646 
z
" clip-path="url(#p59216f5a8a)" style="fill: #1f77b4"/>
   </g>
   <g id="patch_103">
    <path d="M 221.828771 273.312 
L 223.442142 273.312 
L 223.442142 46.038372 
L 221.828771 46.038372 
z
" clip-path="url(#p59216f5a8a)" style="fill: #1f77b4"/>
   </g>
   <g id="patch_104">
    <path d="M 223.442142 273.312 
L 225.055513 273.312 
L 225.055513 22.862442 
L 223.442142 22.862442 
z
" clip-path="url(#p59216f5a8a)" style="fill: #1f77b4"/>
   </g>
   <g id="patch_105">
    <path d="M 225.055513 273.312 
L 226.668885 273.312 
L 226.668885 59.495363 
L 225.055513 59.495363 
z
" clip-path="url(#p59216f5a8a)" style="fill: #1f77b4"/>
   </g>
   <g id="patch_106">
    <path d="M 226.668885 273.312 
L 228.282256 273.312 
L 228.282256 41.552708 
L 226.668885 41.552708 
z
" clip-path="url(#p59216f5a8a)" style="fill: #1f77b4"/>
   </g>
   <g id="patch_107">
    <path d="M 228.282256 273.312 
L 229.895628 273.312 
L 229.895628 26.600496 
L 228.282256 26.600496 
z
" clip-path="url(#p59216f5a8a)" style="fill: #1f77b4"/>
   </g>
   <g id="patch_108">
    <path d="M 229.895628 273.312 
L 231.508999 273.312 
L 231.508999 52.019257 
L 229.895628 52.019257 
z
" clip-path="url(#p59216f5a8a)" style="fill: #1f77b4"/>
   </g>
   <g id="patch_109">
    <path d="M 231.508999 273.312 
L 233.122371 273.312 
L 233.122371 37.814655 
L 231.508999 37.814655 
z
" clip-path="url(#p59216f5a8a)" style="fill: #1f77b4"/>
   </g>
   <g id="patch_110">
    <path d="M 233.122371 273.312 
L 234.735742 273.312 
L 234.735742 43.79554 
L 233.122371 43.79554 
z
" clip-path="url(#p59216f5a8a)" style="fill: #1f77b4"/>
   </g>
   <g id="patch_111">
    <path d="M 234.735742 273.312 
L 236.349114 273.312 
L 236.349114 29.590938 
L 234.735742 29.590938 
z
" clip-path="url(#p59216f5a8a)" style="fill: #1f77b4"/>
   </g>
   <g id="patch_112">
    <path d="M 236.349114 273.312 
L 237.962485 273.312 
L 237.962485 34.824212 
L 236.349114 34.824212 
z
" clip-path="url(#p59216f5a8a)" style="fill: #1f77b4"/>
   </g>
   <g id="patch_113">
    <path d="M 237.962485 273.312 
L 239.575857 273.312 
L 239.575857 56.50492 
L 237.962485 56.50492 
z
" clip-path="url(#p59216f5a8a)" style="fill: #1f77b4"/>
   </g>
   <g id="patch_114">
    <path d="M 239.575857 273.312 
L 241.189228 273.312 
L 241.189228 49.776425 
L 239.575857 49.776425 
z
" clip-path="url(#p59216f5a8a)" style="fill: #1f77b4"/>
   </g>
   <g id="patch_115">
    <path d="M 241.189228 273.312 
L 242.8026 273.312 
L 242.8026 34.076602 
L 241.189228 34.076602 
z
" clip-path="url(#p59216f5a8a)" style="fill: #1f77b4"/>
   </g>
   <g id="patch_116">
    <path d="M 242.8026 273.312 
L 244.415971 273.312 
L 244.415971 52.019257 
L 242.8026 52.019257 
z
" clip-path="url(#p59216f5a8a)" style="fill: #1f77b4"/>
   </g>
   <g id="patch_117">
    <path d="M 244.415971 273.312 
L 246.029343 273.312 
L 246.029343 19.872 
L 244.415971 19.872 
z
" clip-path="url(#p59216f5a8a)" style="fill: #1f77b4"/>
   </g>
   <g id="patch_118">
    <path d="M 246.029343 273.312 
L 247.642714 273.312 
L 247.642714 46.785982 
L 246.029343 46.785982 
z
" clip-path="url(#p59216f5a8a)" style="fill: #1f77b4"/>
   </g>
   <g id="patch_119">
    <path d="M 247.642714 273.312 
L 249.256086 273.312 
L 249.256086 52.019257 
L 247.642714 52.019257 
z
" clip-path="url(#p59216f5a8a)" style="fill: #1f77b4"/>
   </g>
   <g id="patch_120">
    <path d="M 249.256086 273.312 
L 250.869457 273.312 
L 250.869457 40.057487 
L 249.256086 40.057487 
z
" clip-path="url(#p59216f5a8a)" style="fill: #1f77b4"/>
   </g>
   <g id="patch_121">
    <path d="M 250.869457 273.312 
L 252.482829 273.312 
L 252.482829 44.54315 
L 250.869457 44.54315 
z
" clip-path="url(#p59216f5a8a)" style="fill: #1f77b4"/>
   </g>
   <g id="patch_122">
    <path d="M 252.482829 273.312 
L 254.0962 273.312 
L 254.0962 31.83377 
L 252.482829 31.83377 
z
" clip-path="url(#p59216f5a8a)" style="fill: #1f77b4"/>
   </g>
   <g id="patch_123">
    <path d="M 254.0962 273.312 
L 255.709572 273.312 
L 255.709572 28.843327 
L 254.0962 28.843327 
z
" clip-path="url(#p59216f5a8a)" style="fill: #1f77b4"/>
   </g>
   <g id="patch_124">
    <path d="M 255.709572 273.312 
L 257.322943 273.312 
L 257.322943 80.42846 
L 255.709572 80.42846 
z
" clip-path="url(#p59216f5a8a)" style="fill: #1f77b4"/>
   </g>
   <g id="patch_125">
    <path d="M 257.322943 273.312 
L 258.936315 273.312 
L 258.936315 59.495363 
L 257.322943 59.495363 
z
" clip-path="url(#p59216f5a8a)" style="fill: #1f77b4"/>
   </g>
   <g id="patch_126">
    <path d="M 258.936315 273.312 
L 260.549686 273.312 
L 260.549686 34.076602 
L 258.936315 34.076602 
z
" clip-path="url(#p59216f5a8a)" style="fill: #1f77b4"/>
   </g>
   <g id="patch_127">
    <path d="M 260.549686 273.312 
L 262.163058 273.312 
L 262.163058 43.79554 
L 260.549686 43.79554 
z
" clip-path="url(#p59216f5a8a)" style="fill: #1f77b4"/>
   </g>
   <g id="patch_128">
    <path d="M 262.163058 273.312 
L 263.776429 273.312 
L 263.776429 49.028814 
L 262.163058 49.028814 
z
" clip-path="url(#p59216f5a8a)" style="fill: #1f77b4"/>
   </g>
   <g id="patch_129">
    <path d="M 263.776429 273.312 
L 265.389801 273.312 
L 265.389801 58.000142 
L 263.776429 58.000142 
z
" clip-path="url(#p59216f5a8a)" style="fill: #1f77b4"/>
   </g>
   <g id="patch_130">
    <path d="M 265.389801 273.312 
L 267.003172 273.312 
L 267.003172 61.738195 
L 265.389801 61.738195 
z
" clip-path="url(#p59216f5a8a)" style="fill: #1f77b4"/>
   </g>
   <g id="patch_131">
    <path d="M 267.003172 273.312 
L 268.616544 273.312 
L 268.616544 66.223858 
L 267.003172 66.223858 
z
" clip-path="url(#p59216f5a8a)" style="fill: #1f77b4"/>
   </g>
   <g id="patch_132">
    <path d="M 268.616544 273.312 
L 270.229915 273.312 
L 270.229915 56.50492 
L 268.616544 56.50492 
z
" clip-path="url(#p59216f5a8a)" style="fill: #1f77b4"/>
   </g>
   <g id="patch_133">
    <path d="M 270.229915 273.312 
L 271.843287 273.312 
L 271.843287 55.009699 
L 270.229915 55.009699 
z
" clip-path="url(#p59216f5a8a)" style="fill: #1f77b4"/>
   </g>
   <g id="patch_134">
    <path d="M 271.843287 273.312 
L 273.456658 273.312 
L 273.456658 56.50492 
L 271.843287 56.50492 
z
" clip-path="url(#p59216f5a8a)" style="fill: #1f77b4"/>
   </g>
   <g id="patch_135">
    <path d="M 273.456658 273.312 
L 275.07003 273.312 
L 275.07003 80.42846 
L 273.456658 80.42846 
z
" clip-path="url(#p59216f5a8a)" style="fill: #1f77b4"/>
   </g>
   <g id="patch_136">
    <path d="M 275.07003 273.312 
L 276.683401 273.312 
L 276.683401 72.204743 
L 275.07003 72.204743 
z
" clip-path="url(#p59216f5a8a)" style="fill: #1f77b4"/>
   </g>
   <g id="patch_137">
    <path d="M 276.683401 273.312 
L 278.296773 273.312 
L 278.296773 82.671292 
L 276.683401 82.671292 
z
" clip-path="url(#p59216f5a8a)" style="fill: #1f77b4"/>
   </g>
   <g id="patch_138">
    <path d="M 278.296773 273.312 
L 279.910144 273.312 
L 279.910144 88.652177 
L 278.296773 88.652177 
z
" clip-path="url(#p59216f5a8a)" style="fill: #1f77b4"/>
   </g>
   <g id="patch_139">
    <path d="M 279.910144 273.312 
L 281.523516 273.312 
L 281.523516 86.409345 
L 279.910144 86.409345 
z
" clip-path="url(#p59216f5a8a)" style="fill: #1f77b4"/>
   </g>
   <g id="patch_140">
    <path d="M 281.523516 273.312 
L 283.136887 273.312 
L 283.136887 72.952354 
L 281.523516 72.952354 
z
" clip-path="url(#p59216f5a8a)" style="fill: #1f77b4"/>
   </g>
   <g id="patch_141">
    <path d="M 283.136887 273.312 
L 284.750259 273.312 
L 284.750259 60.242973 
L 283.136887 60.242973 
z
" clip-path="url(#p59216f5a8a)" style="fill: #1f77b4"/>
   </g>
   <g id="patch_142">
    <path d="M 284.750259 273.312 
L 286.36363 273.312 
L 286.36363 90.895009 
L 284.750259 90.895009 
z
" clip-path="url(#p59216f5a8a)" style="fill: #1f77b4"/>
   </g>
   <g id="patch_143">
    <path d="M 286.36363 273.312 
L 287.977002 273.312 
L 287.977002 69.961912 
L 286.36363 69.961912 
z
" clip-path="url(#p59216f5a8a)" style="fill: #1f77b4"/>
   </g>
   <g id="patch_144">
    <path d="M 287.977002 273.312 
L 289.590373 273.312 
L 289.590373 100.613947 
L 287.977002 100.613947 
z
" clip-path="url(#p59216f5a8a)" style="fill: #1f77b4"/>
   </g>
   <g id="patch_145">
    <path d="M 289.590373 273.312 
L 291.203745 273.312 
L 291.203745 87.904566 
L 289.590373 87.904566 
z
" clip-path="url(#p59216f5a8a)" style="fill: #1f77b4"/>
   </g>
   <g id="patch_146">
    <path d="M 291.203745 273.312 
L 292.817116 273.312 
L 292.817116 81.176071 
L 291.203745 81.176071 
z
" clip-path="url(#p59216f5a8a)" style="fill: #1f77b4"/>
   </g>
   <g id="patch_147">
    <path d="M 292.817116 273.312 
L 294.430488 273.312 
L 294.430488 85.661735 
L 292.817116 85.661735 
z
" clip-path="url(#p59216f5a8a)" style="fill: #1f77b4"/>
   </g>
   <g id="patch_148">
    <path d="M 294.430488 273.312 
L 296.043859 273.312 
L 296.043859 78.185628 
L 294.430488 78.185628 
z
" clip-path="url(#p59216f5a8a)" style="fill: #1f77b4"/>
   </g>
   <g id="patch_149">
    <path d="M 296.043859 273.312 
L 297.657231 273.312 
L 297.657231 87.904566 
L 296.043859 87.904566 
z
" clip-path="url(#p59216f5a8a)" style="fill: #1f77b4"/>
   </g>
   <g id="patch_150">
    <path d="M 297.657231 273.312 
L 299.270602 273.312 
L 299.270602 114.070938 
L 297.657231 114.070938 
z
" clip-path="url(#p59216f5a8a)" style="fill: #1f77b4"/>
   </g>
   <g id="patch_151">
    <path d="M 299.270602 273.312 
L 300.883974 273.312 
L 300.883974 110.332885 
L 299.270602 110.332885 
z
" clip-path="url(#p59216f5a8a)" style="fill: #1f77b4"/>
   </g>
   <g id="patch_152">
    <path d="M 300.883974 273.312 
L 302.497345 273.312 
L 302.497345 111.828106 
L 300.883974 111.828106 
z
" clip-path="url(#p59216f5a8a)" style="fill: #1f77b4"/>
   </g>
   <g id="patch_153">
    <path d="M 302.497345 273.312 
L 304.110717 273.312 
L 304.110717 104.352 
L 302.497345 104.352 
z
" clip-path="url(#p59216f5a8a)" style="fill: #1f77b4"/>
   </g>
   <g id="patch_154">
    <path d="M 304.110717 273.312 
L 305.724088 273.312 
L 305.724088 103.604389 
L 304.110717 103.604389 
z
" clip-path="url(#p59216f5a8a)" style="fill: #1f77b4"/>
   </g>
   <g id="patch_155">
    <path d="M 305.724088 273.312 
L 307.33746 273.312 
L 307.33746 107.342442 
L 305.724088 107.342442 
z
" clip-path="url(#p59216f5a8a)" style="fill: #1f77b4"/>
   </g>
   <g id="patch_156">
    <path d="M 307.33746 273.312 
L 308.950831 273.312 
L 308.950831 131.265982 
L 307.33746 131.265982 
z
" clip-path="url(#p59216f5a8a)" style="fill: #1f77b4"/>
   </g>
   <g id="patch_157">
    <path d="M 308.950831 273.312 
L 310.564203 273.312 
L 310.564203 126.780319 
L 308.950831 126.780319 
z
" clip-path="url(#p59216f5a8a)" style="fill: #1f77b4"/>
   </g>
   <g id="patch_158">
    <path d="M 310.564203 273.312 
L 312.177574 273.312 
L 312.177574 118.556602 
L 310.564203 118.556602 
z
" clip-path="url(#p59216f5a8a)" style="fill: #1f77b4"/>
   </g>
   <g id="patch_159">
    <path d="M 312.177574 273.312 
L 313.790946 273.312 
L 313.790946 105.847221 
L 312.177574 105.847221 
z
" clip-path="url(#p59216f5a8a)" style="fill: #1f77b4"/>
   </g>
   <g id="patch_160">
    <path d="M 313.790946 273.312 
L 315.404317 273.312 
L 315.404317 141.732531 
L 313.790946 141.732531 
z
" clip-path="url(#p59216f5a8a)" style="fill: #1f77b4"/>
   </g>
   <g id="patch_161">
    <path d="M 315.404317 273.312 
L 317.017689 273.312 
L 317.017689 139.489699 
L 315.404317 139.489699 
z
" clip-path="url(#p59216f5a8a)" style="fill: #1f77b4"/>
   </g>
   <g id="patch_162">
    <path d="M 317.017689 273.312 
L 318.63106 273.312 
L 318.63106 144.722973 
L 317.017689 144.722973 
z
" clip-path="url(#p59216f5a8a)" style="fill: #1f77b4"/>
   </g>
   <g id="patch_163">
    <path d="M 318.63106 273.312 
L 320.244432 273.312 
L 320.244432 127.527929 
L 318.63106 127.527929 
z
" clip-path="url(#p59216f5a8a)" style="fill: #1f77b4"/>
   </g>
   <g id="patch_164">
    <path d="M 320.244432 273.312 
L 321.857803 273.312 
L 321.857803 125.285097 
L 320.244432 125.285097 
z
" clip-path="url(#p59216f5a8a)" style="fill: #1f77b4"/>
   </g>
   <g id="patch_165">
    <path d="M 321.857803 273.312 
L 323.471175 273.312 
L 323.471175 143.975363 
L 321.857803 143.975363 
z
" clip-path="url(#p59216f5a8a)" style="fill: #1f77b4"/>
   </g>
   <g id="patch_166">
    <path d="M 323.471175 273.312 
L 325.084546 273.312 
L 325.084546 139.489699 
L 323.471175 139.489699 
z
" clip-path="url(#p59216f5a8a)" style="fill: #1f77b4"/>
   </g>
   <g id="patch_167">
    <path d="M 325.084546 273.312 
L 326.697918 273.312 
L 326.697918 137.994478 
L 325.084546 137.994478 
z
" clip-path="url(#p59216f5a8a)" style="fill: #1f77b4"/>
   </g>
   <g id="patch_168">
    <path d="M 326.697918 273.312 
L 328.311289 273.312 
L 328.311289 146.218195 
L 326.697918 146.218195 
z
" clip-path="url(#p59216f5a8a)" style="fill: #1f77b4"/>
   </g>
   <g id="patch_169">
    <path d="M 328.311289 273.312 
L 329.924661 273.312 
L 329.924661 125.285097 
L 328.311289 125.285097 
z
" clip-path="url(#p59216f5a8a)" style="fill: #1f77b4"/>
   </g>
   <g id="patch_170">
    <path d="M 329.924661 273.312 
L 331.538032 273.312 
L 331.538032 143.975363 
L 329.924661 143.975363 
z
" clip-path="url(#p59216f5a8a)" style="fill: #1f77b4"/>
   </g>
   <g id="patch_171">
    <path d="M 331.538032 273.312 
L 333.151404 273.312 
L 333.151404 150.703858 
L 331.538032 150.703858 
z
" clip-path="url(#p59216f5a8a)" style="fill: #1f77b4"/>
   </g>
   <g id="patch_172">
    <path d="M 333.151404 273.312 
L 334.764775 273.312 
L 334.764775 158.179965 
L 333.151404 158.179965 
z
" clip-path="url(#p59216f5a8a)" style="fill: #1f77b4"/>
   </g>
   <g id="patch_173">
    <path d="M 334.764775 273.312 
L 336.378147 273.312 
L 336.378147 170.889345 
L 334.764775 170.889345 
z
" clip-path="url(#p59216f5a8a)" style="fill: #1f77b4"/>
   </g>
   <g id="patch_174">
    <path d="M 336.378147 273.312 
L 337.991518 273.312 
L 337.991518 175.375009 
L 336.378147 175.375009 
z
" clip-path="url(#p59216f5a8a)" style="fill: #1f77b4"/>
   </g>
   <g id="patch_175">
    <path d="M 337.991518 273.312 
L 339.60489 273.312 
L 339.60489 188.832 
L 337.991518 188.832 
z
" clip-path="url(#p59216f5a8a)" style="fill: #1f77b4"/>
   </g>
   <g id="patch_176">
    <path d="M 339.60489 273.312 
L 341.218261 273.312 
L 341.218261 175.375009 
L 339.60489 175.375009 
z
" clip-path="url(#p59216f5a8a)" style="fill: #1f77b4"/>
   </g>
   <g id="patch_177">
    <path d="M 341.218261 273.312 
L 342.831633 273.312 
L 342.831633 187.336779 
L 341.218261 187.336779 
z
" clip-path="url(#p59216f5a8a)" style="fill: #1f77b4"/>
   </g>
   <g id="patch_178">
    <path d="M 342.831633 273.312 
L 344.445004 273.312 
L 344.445004 183.598726 
L 342.831633 183.598726 
z
" clip-path="url(#p59216f5a8a)" style="fill: #1f77b4"/>
   </g>
   <g id="patch_179">
    <path d="M 344.445004 273.312 
L 346.058376 273.312 
L 346.058376 182.851115 
L 344.445004 182.851115 
z
" clip-path="url(#p59216f5a8a)" style="fill: #1f77b4"/>
   </g>
   <g id="patch_180">
    <path d="M 346.058376 273.312 
L 347.671747 273.312 
L 347.671747 209.017487 
L 346.058376 209.017487 
z
" clip-path="url(#p59216f5a8a)" style="fill: #1f77b4"/>
   </g>
   <g id="patch_181">
    <path d="M 347.671747 273.312 
L 349.285119 273.312 
L 349.285119 205.279434 
L 347.671747 205.279434 
z
" clip-path="url(#p59216f5a8a)" style="fill: #1f77b4"/>
   </g>
   <g id="patch_182">
    <path d="M 349.285119 273.312 
L 350.89849 273.312 
L 350.89849 208.269876 
L 349.285119 208.269876 
z
" clip-path="url(#p59216f5a8a)" style="fill: #1f77b4"/>
   </g>
   <g id="patch_183">
    <path d="M 350.89849 273.312 
L 352.511862 273.312 
L 352.511862 197.055717 
L 350.89849 197.055717 
z
" clip-path="url(#p59216f5a8a)" style="fill: #1f77b4"/>
   </g>
   <g id="patch_184">
    <path d="M 352.511862 273.312 
L 354.125233 273.312 
L 354.125233 204.531823 
L 352.511862 204.531823 
z
" clip-path="url(#p59216f5a8a)" style="fill: #1f77b4"/>
   </g>
   <g id="patch_185">
    <path d="M 354.125233 273.312 
L 355.738605 273.312 
L 355.738605 201.541381 
L 354.125233 201.541381 
z
" clip-path="url(#p59216f5a8a)" style="fill: #1f77b4"/>
   </g>
   <g id="patch_186">
    <path d="M 355.738605 273.312 
L 357.351976 273.312 
L 357.351976 209.017487 
L 355.738605 209.017487 
z
" clip-path="url(#p59216f5a8a)" style="fill: #1f77b4"/>
   </g>
   <g id="patch_187">
    <path d="M 357.351976 273.312 
L 358.965348 273.312 
L 358.965348 214.250761 
L 357.351976 214.250761 
z
" clip-path="url(#p59216f5a8a)" style="fill: #1f77b4"/>
   </g>
   <g id="patch_188">
    <path d="M 358.965348 273.312 
L 360.578719 273.312 
L 360.578719 223.222088 
L 358.965348 223.222088 
z
" clip-path="url(#p59216f5a8a)" style="fill: #1f77b4"/>
   </g>
   <g id="patch_189">
    <path d="M 360.578719 273.312 
L 362.192091 273.312 
L 362.192091 222.474478 
L 360.578719 222.474478 
z
" clip-path="url(#p59216f5a8a)" style="fill: #1f77b4"/>
   </g>
   <g id="patch_190">
    <path d="M 362.192091 273.312 
L 363.805462 273.312 
L 363.805462 224.71731 
L 362.192091 224.71731 
z
" clip-path="url(#p59216f5a8a)" style="fill: #1f77b4"/>
   </g>
   <g id="patch_191">
    <path d="M 363.805462 273.312 
L 365.418834 273.312 
L 365.418834 233.688637 
L 363.805462 233.688637 
z
" clip-path="url(#p59216f5a8a)" style="fill: #1f77b4"/>
   </g>
   <g id="patch_192">
    <path d="M 365.418834 273.312 
L 367.032205 273.312 
L 367.032205 232.193416 
L 365.418834 232.193416 
z
" clip-path="url(#p59216f5a8a)" style="fill: #1f77b4"/>
   </g>
   <g id="patch_193">
    <path d="M 367.032205 273.312 
L 368.645577 273.312 
L 368.645577 239.669522 
L 367.032205 239.669522 
z
" clip-path="url(#p59216f5a8a)" style="fill: #1f77b4"/>
   </g>
   <g id="patch_194">
    <path d="M 368.645577 273.312 
L 370.258948 273.312 
L 370.258948 238.921912 
L 368.645577 238.921912 
z
" clip-path="url(#p59216f5a8a)" style="fill: #1f77b4"/>
   </g>
   <g id="patch_195">
    <path d="M 370.258948 273.312 
L 371.87232 273.312 
L 371.87232 239.669522 
L 370.258948 239.669522 
z
" clip-path="url(#p59216f5a8a)" style="fill: #1f77b4"/>
   </g>
   <g id="patch_196">
    <path d="M 371.87232 273.312 
L 373.485691 273.312 
L 373.485691 245.650407 
L 371.87232 245.650407 
z
" clip-path="url(#p59216f5a8a)" style="fill: #1f77b4"/>
   </g>
   <g id="patch_197">
    <path d="M 373.485691 273.312 
L 375.099063 273.312 
L 375.099063 250.883681 
L 373.485691 250.883681 
z
" clip-path="url(#p59216f5a8a)" style="fill: #1f77b4"/>
   </g>
   <g id="patch_198">
    <path d="M 375.099063 273.312 
L 376.712434 273.312 
L 376.712434 254.621735 
L 375.099063 254.621735 
z
" clip-path="url(#p59216f5a8a)" style="fill: #1f77b4"/>
   </g>
   <g id="patch_199">
    <path d="M 376.712434 273.312 
L 378.325806 273.312 
L 378.325806 259.107398 
L 376.712434 259.107398 
z
" clip-path="url(#p59216f5a8a)" style="fill: #1f77b4"/>
   </g>
   <g id="patch_200">
    <path d="M 378.325806 273.312 
L 379.939177 273.312 
L 379.939177 257.612177 
L 378.325806 257.612177 
z
" clip-path="url(#p59216f5a8a)" style="fill: #1f77b4"/>
   </g>
   <g id="patch_201">
    <path d="M 379.939177 273.312 
L 381.552549 273.312 
L 381.552549 264.340673 
L 379.939177 264.340673 
z
" clip-path="url(#p59216f5a8a)" style="fill: #1f77b4"/>
   </g>
   <g id="patch_202">
    <path d="M 381.552549 273.312 
L 383.16592 273.312 
L 383.16592 265.088283 
L 381.552549 265.088283 
z
" clip-path="url(#p59216f5a8a)" style="fill: #1f77b4"/>
   </g>
   <g id="matplotlib.axis_1">
    <g id="xtick_1">
     <g id="line2d_1">
      <defs>
       <path id="m9538aea803" d="M 0 0 
L 0 3.5 
" style="stroke: #000000; stroke-width: 0.8"/>
      </defs>
      <g>
       <use xlink:href="#m9538aea803" x="60.013977" y="273.312" style="stroke: #000000; stroke-width: 0.8"/>
      </g>
     </g>
     <g id="text_1">
      <!-- 0.0 -->
      <g transform="translate(52.062415 287.910437)scale(0.1 -0.1)">
       <defs>
        <path id="DejaVuSans-30" d="M 2034 4250 
Q 1547 4250 1301 3770 
Q 1056 3291 1056 2328 
Q 1056 1369 1301 889 
Q 1547 409 2034 409 
Q 2525 409 2770 889 
Q 3016 1369 3016 2328 
Q 3016 3291 2770 3770 
Q 2525 4250 2034 4250 
z
M 2034 4750 
Q 2819 4750 3233 4129 
Q 3647 3509 3647 2328 
Q 3647 1150 3233 529 
Q 2819 -91 2034 -91 
Q 1250 -91 836 529 
Q 422 1150 422 2328 
Q 422 3509 836 4129 
Q 1250 4750 2034 4750 
z
" transform="scale(0.015625)"/>
        <path id="DejaVuSans-2e" d="M 684 794 
L 1344 794 
L 1344 0 
L 684 0 
L 684 794 
z
" transform="scale(0.015625)"/>
       </defs>
       <use xlink:href="#DejaVuSans-30"/>
       <use xlink:href="#DejaVuSans-2e" x="63.623047"/>
       <use xlink:href="#DejaVuSans-30" x="95.410156"/>
      </g>
     </g>
    </g>
    <g id="xtick_2">
     <g id="line2d_2">
      <g>
       <use xlink:href="#m9538aea803" x="101.350278" y="273.312" style="stroke: #000000; stroke-width: 0.8"/>
      </g>
     </g>
     <g id="text_2">
      <!-- 0.2 -->
      <g transform="translate(93.398715 287.910437)scale(0.1 -0.1)">
       <defs>
        <path id="DejaVuSans-32" d="M 1228 531 
L 3431 531 
L 3431 0 
L 469 0 
L 469 531 
Q 828 903 1448 1529 
Q 2069 2156 2228 2338 
Q 2531 2678 2651 2914 
Q 2772 3150 2772 3378 
Q 2772 3750 2511 3984 
Q 2250 4219 1831 4219 
Q 1534 4219 1204 4116 
Q 875 4013 500 3803 
L 500 4441 
Q 881 4594 1212 4672 
Q 1544 4750 1819 4750 
Q 2544 4750 2975 4387 
Q 3406 4025 3406 3419 
Q 3406 3131 3298 2873 
Q 3191 2616 2906 2266 
Q 2828 2175 2409 1742 
Q 1991 1309 1228 531 
z
" transform="scale(0.015625)"/>
       </defs>
       <use xlink:href="#DejaVuSans-30"/>
       <use xlink:href="#DejaVuSans-2e" x="63.623047"/>
       <use xlink:href="#DejaVuSans-32" x="95.410156"/>
      </g>
     </g>
    </g>
    <g id="xtick_3">
     <g id="line2d_3">
      <g>
       <use xlink:href="#m9538aea803" x="142.686578" y="273.312" style="stroke: #000000; stroke-width: 0.8"/>
      </g>
     </g>
     <g id="text_3">
      <!-- 0.4 -->
      <g transform="translate(134.735016 287.910437)scale(0.1 -0.1)">
       <defs>
        <path id="DejaVuSans-34" d="M 2419 4116 
L 825 1625 
L 2419 1625 
L 2419 4116 
z
M 2253 4666 
L 3047 4666 
L 3047 1625 
L 3713 1625 
L 3713 1100 
L 3047 1100 
L 3047 0 
L 2419 0 
L 2419 1100 
L 313 1100 
L 313 1709 
L 2253 4666 
z
" transform="scale(0.015625)"/>
       </defs>
       <use xlink:href="#DejaVuSans-30"/>
       <use xlink:href="#DejaVuSans-2e" x="63.623047"/>
       <use xlink:href="#DejaVuSans-34" x="95.410156"/>
      </g>
     </g>
    </g>
    <g id="xtick_4">
     <g id="line2d_4">
      <g>
       <use xlink:href="#m9538aea803" x="184.022879" y="273.312" style="stroke: #000000; stroke-width: 0.8"/>
      </g>
     </g>
     <g id="text_4">
      <!-- 0.6 -->
      <g transform="translate(176.071316 287.910437)scale(0.1 -0.1)">
       <defs>
        <path id="DejaVuSans-36" d="M 2113 2584 
Q 1688 2584 1439 2293 
Q 1191 2003 1191 1497 
Q 1191 994 1439 701 
Q 1688 409 2113 409 
Q 2538 409 2786 701 
Q 3034 994 3034 1497 
Q 3034 2003 2786 2293 
Q 2538 2584 2113 2584 
z
M 3366 4563 
L 3366 3988 
Q 3128 4100 2886 4159 
Q 2644 4219 2406 4219 
Q 1781 4219 1451 3797 
Q 1122 3375 1075 2522 
Q 1259 2794 1537 2939 
Q 1816 3084 2150 3084 
Q 2853 3084 3261 2657 
Q 3669 2231 3669 1497 
Q 3669 778 3244 343 
Q 2819 -91 2113 -91 
Q 1303 -91 875 529 
Q 447 1150 447 2328 
Q 447 3434 972 4092 
Q 1497 4750 2381 4750 
Q 2619 4750 2861 4703 
Q 3103 4656 3366 4563 
z
" transform="scale(0.015625)"/>
       </defs>
       <use xlink:href="#DejaVuSans-30"/>
       <use xlink:href="#DejaVuSans-2e" x="63.623047"/>
       <use xlink:href="#DejaVuSans-36" x="95.410156"/>
      </g>
     </g>
    </g>
    <g id="xtick_5">
     <g id="line2d_5">
      <g>
       <use xlink:href="#m9538aea803" x="225.35918" y="273.312" style="stroke: #000000; stroke-width: 0.8"/>
      </g>
     </g>
     <g id="text_5">
      <!-- 0.8 -->
      <g transform="translate(217.407617 287.910437)scale(0.1 -0.1)">
       <defs>
        <path id="DejaVuSans-38" d="M 2034 2216 
Q 1584 2216 1326 1975 
Q 1069 1734 1069 1313 
Q 1069 891 1326 650 
Q 1584 409 2034 409 
Q 2484 409 2743 651 
Q 3003 894 3003 1313 
Q 3003 1734 2745 1975 
Q 2488 2216 2034 2216 
z
M 1403 2484 
Q 997 2584 770 2862 
Q 544 3141 544 3541 
Q 544 4100 942 4425 
Q 1341 4750 2034 4750 
Q 2731 4750 3128 4425 
Q 3525 4100 3525 3541 
Q 3525 3141 3298 2862 
Q 3072 2584 2669 2484 
Q 3125 2378 3379 2068 
Q 3634 1759 3634 1313 
Q 3634 634 3220 271 
Q 2806 -91 2034 -91 
Q 1263 -91 848 271 
Q 434 634 434 1313 
Q 434 1759 690 2068 
Q 947 2378 1403 2484 
z
M 1172 3481 
Q 1172 3119 1398 2916 
Q 1625 2713 2034 2713 
Q 2441 2713 2670 2916 
Q 2900 3119 2900 3481 
Q 2900 3844 2670 4047 
Q 2441 4250 2034 4250 
Q 1625 4250 1398 4047 
Q 1172 3844 1172 3481 
z
" transform="scale(0.015625)"/>
       </defs>
       <use xlink:href="#DejaVuSans-30"/>
       <use xlink:href="#DejaVuSans-2e" x="63.623047"/>
       <use xlink:href="#DejaVuSans-38" x="95.410156"/>
      </g>
     </g>
    </g>
    <g id="xtick_6">
     <g id="line2d_6">
      <g>
       <use xlink:href="#m9538aea803" x="266.69548" y="273.312" style="stroke: #000000; stroke-width: 0.8"/>
      </g>
     </g>
     <g id="text_6">
      <!-- 1.0 -->
      <g transform="translate(258.743918 287.910437)scale(0.1 -0.1)">
       <defs>
        <path id="DejaVuSans-31" d="M 794 531 
L 1825 531 
L 1825 4091 
L 703 3866 
L 703 4441 
L 1819 4666 
L 2450 4666 
L 2450 531 
L 3481 531 
L 3481 0 
L 794 0 
L 794 531 
z
" transform="scale(0.015625)"/>
       </defs>
       <use xlink:href="#DejaVuSans-31"/>
       <use xlink:href="#DejaVuSans-2e" x="63.623047"/>
       <use xlink:href="#DejaVuSans-30" x="95.410156"/>
      </g>
     </g>
    </g>
    <g id="xtick_7">
     <g id="line2d_7">
      <g>
       <use xlink:href="#m9538aea803" x="308.031781" y="273.312" style="stroke: #000000; stroke-width: 0.8"/>
      </g>
     </g>
     <g id="text_7">
      <!-- 1.2 -->
      <g transform="translate(300.080218 287.910437)scale(0.1 -0.1)">
       <use xlink:href="#DejaVuSans-31"/>
       <use xlink:href="#DejaVuSans-2e" x="63.623047"/>
       <use xlink:href="#DejaVuSans-32" x="95.410156"/>
      </g>
     </g>
    </g>
    <g id="xtick_8">
     <g id="line2d_8">
      <g>
       <use xlink:href="#m9538aea803" x="349.368081" y="273.312" style="stroke: #000000; stroke-width: 0.8"/>
      </g>
     </g>
     <g id="text_8">
      <!-- 1.4 -->
      <g transform="translate(341.416519 287.910437)scale(0.1 -0.1)">
       <use xlink:href="#DejaVuSans-31"/>
       <use xlink:href="#DejaVuSans-2e" x="63.623047"/>
       <use xlink:href="#DejaVuSans-34" x="95.410156"/>
      </g>
     </g>
    </g>
    <g id="xtick_9">
     <g id="line2d_9">
      <g>
       <use xlink:href="#m9538aea803" x="390.704382" y="273.312" style="stroke: #000000; stroke-width: 0.8"/>
      </g>
     </g>
     <g id="text_9">
      <!-- 1.6 -->
      <g transform="translate(382.752819 287.910437)scale(0.1 -0.1)">
       <use xlink:href="#DejaVuSans-31"/>
       <use xlink:href="#DejaVuSans-2e" x="63.623047"/>
       <use xlink:href="#DejaVuSans-36" x="95.410156"/>
      </g>
     </g>
    </g>
    <g id="text_10">
     <!-- Angle with normal (rad) -->
     <g transform="translate(163.023281 301.588562)scale(0.1 -0.1)">
      <defs>
       <path id="DejaVuSans-41" d="M 2188 4044 
L 1331 1722 
L 3047 1722 
L 2188 4044 
z
M 1831 4666 
L 2547 4666 
L 4325 0 
L 3669 0 
L 3244 1197 
L 1141 1197 
L 716 0 
L 50 0 
L 1831 4666 
z
" transform="scale(0.015625)"/>
       <path id="DejaVuSans-6e" d="M 3513 2113 
L 3513 0 
L 2938 0 
L 2938 2094 
Q 2938 2591 2744 2837 
Q 2550 3084 2163 3084 
Q 1697 3084 1428 2787 
Q 1159 2491 1159 1978 
L 1159 0 
L 581 0 
L 581 3500 
L 1159 3500 
L 1159 2956 
Q 1366 3272 1645 3428 
Q 1925 3584 2291 3584 
Q 2894 3584 3203 3211 
Q 3513 2838 3513 2113 
z
" transform="scale(0.015625)"/>
       <path id="DejaVuSans-67" d="M 2906 1791 
Q 2906 2416 2648 2759 
Q 2391 3103 1925 3103 
Q 1463 3103 1205 2759 
Q 947 2416 947 1791 
Q 947 1169 1205 825 
Q 1463 481 1925 481 
Q 2391 481 2648 825 
Q 2906 1169 2906 1791 
z
M 3481 434 
Q 3481 -459 3084 -895 
Q 2688 -1331 1869 -1331 
Q 1566 -1331 1297 -1286 
Q 1028 -1241 775 -1147 
L 775 -588 
Q 1028 -725 1275 -790 
Q 1522 -856 1778 -856 
Q 2344 -856 2625 -561 
Q 2906 -266 2906 331 
L 2906 616 
Q 2728 306 2450 153 
Q 2172 0 1784 0 
Q 1141 0 747 490 
Q 353 981 353 1791 
Q 353 2603 747 3093 
Q 1141 3584 1784 3584 
Q 2172 3584 2450 3431 
Q 2728 3278 2906 2969 
L 2906 3500 
L 3481 3500 
L 3481 434 
z
" transform="scale(0.015625)"/>
       <path id="DejaVuSans-6c" d="M 603 4863 
L 1178 4863 
L 1178 0 
L 603 0 
L 603 4863 
z
" transform="scale(0.015625)"/>
       <path id="DejaVuSans-65" d="M 3597 1894 
L 3597 1613 
L 953 1613 
Q 991 1019 1311 708 
Q 1631 397 2203 397 
Q 2534 397 2845 478 
Q 3156 559 3463 722 
L 3463 178 
Q 3153 47 2828 -22 
Q 2503 -91 2169 -91 
Q 1331 -91 842 396 
Q 353 884 353 1716 
Q 353 2575 817 3079 
Q 1281 3584 2069 3584 
Q 2775 3584 3186 3129 
Q 3597 2675 3597 1894 
z
M 3022 2063 
Q 3016 2534 2758 2815 
Q 2500 3097 2075 3097 
Q 1594 3097 1305 2825 
Q 1016 2553 972 2059 
L 3022 2063 
z
" transform="scale(0.015625)"/>
       <path id="DejaVuSans-20" transform="scale(0.015625)"/>
       <path id="DejaVuSans-77" d="M 269 3500 
L 844 3500 
L 1563 769 
L 2278 3500 
L 2956 3500 
L 3675 769 
L 4391 3500 
L 4966 3500 
L 4050 0 
L 3372 0 
L 2619 2869 
L 1863 0 
L 1184 0 
L 269 3500 
z
" transform="scale(0.015625)"/>
       <path id="DejaVuSans-69" d="M 603 3500 
L 1178 3500 
L 1178 0 
L 603 0 
L 603 3500 
z
M 603 4863 
L 1178 4863 
L 1178 4134 
L 603 4134 
L 603 4863 
z
" transform="scale(0.015625)"/>
       <path id="DejaVuSans-74" d="M 1172 4494 
L 1172 3500 
L 2356 3500 
L 2356 3053 
L 1172 3053 
L 1172 1153 
Q 1172 725 1289 603 
Q 1406 481 1766 481 
L 2356 481 
L 2356 0 
L 1766 0 
Q 1100 0 847 248 
Q 594 497 594 1153 
L 594 3053 
L 172 3053 
L 172 3500 
L 594 3500 
L 594 4494 
L 1172 4494 
z
" transform="scale(0.015625)"/>
       <path id="DejaVuSans-68" d="M 3513 2113 
L 3513 0 
L 2938 0 
L 2938 2094 
Q 2938 2591 2744 2837 
Q 2550 3084 2163 3084 
Q 1697 3084 1428 2787 
Q 1159 2491 1159 1978 
L 1159 0 
L 581 0 
L 581 4863 
L 1159 4863 
L 1159 2956 
Q 1366 3272 1645 3428 
Q 1925 3584 2291 3584 
Q 2894 3584 3203 3211 
Q 3513 2838 3513 2113 
z
" transform="scale(0.015625)"/>
       <path id="DejaVuSans-6f" d="M 1959 3097 
Q 1497 3097 1228 2736 
Q 959 2375 959 1747 
Q 959 1119 1226 758 
Q 1494 397 1959 397 
Q 2419 397 2687 759 
Q 2956 1122 2956 1747 
Q 2956 2369 2687 2733 
Q 2419 3097 1959 3097 
z
M 1959 3584 
Q 2709 3584 3137 3096 
Q 3566 2609 3566 1747 
Q 3566 888 3137 398 
Q 2709 -91 1959 -91 
Q 1206 -91 779 398 
Q 353 888 353 1747 
Q 353 2609 779 3096 
Q 1206 3584 1959 3584 
z
" transform="scale(0.015625)"/>
       <path id="DejaVuSans-72" d="M 2631 2963 
Q 2534 3019 2420 3045 
Q 2306 3072 2169 3072 
Q 1681 3072 1420 2755 
Q 1159 2438 1159 1844 
L 1159 0 
L 581 0 
L 581 3500 
L 1159 3500 
L 1159 2956 
Q 1341 3275 1631 3429 
Q 1922 3584 2338 3584 
Q 2397 3584 2469 3576 
Q 2541 3569 2628 3553 
L 2631 2963 
z
" transform="scale(0.015625)"/>
       <path id="DejaVuSans-6d" d="M 3328 2828 
Q 3544 3216 3844 3400 
Q 4144 3584 4550 3584 
Q 5097 3584 5394 3201 
Q 5691 2819 5691 2113 
L 5691 0 
L 5113 0 
L 5113 2094 
Q 5113 2597 4934 2840 
Q 4756 3084 4391 3084 
Q 3944 3084 3684 2787 
Q 3425 2491 3425 1978 
L 3425 0 
L 2847 0 
L 2847 2094 
Q 2847 2600 2669 2842 
Q 2491 3084 2119 3084 
Q 1678 3084 1418 2786 
Q 1159 2488 1159 1978 
L 1159 0 
L 581 0 
L 581 3500 
L 1159 3500 
L 1159 2956 
Q 1356 3278 1631 3431 
Q 1906 3584 2284 3584 
Q 2666 3584 2933 3390 
Q 3200 3197 3328 2828 
z
" transform="scale(0.015625)"/>
       <path id="DejaVuSans-61" d="M 2194 1759 
Q 1497 1759 1228 1600 
Q 959 1441 959 1056 
Q 959 750 1161 570 
Q 1363 391 1709 391 
Q 2188 391 2477 730 
Q 2766 1069 2766 1631 
L 2766 1759 
L 2194 1759 
z
M 3341 1997 
L 3341 0 
L 2766 0 
L 2766 531 
Q 2569 213 2275 61 
Q 1981 -91 1556 -91 
Q 1019 -91 701 211 
Q 384 513 384 1019 
Q 384 1609 779 1909 
Q 1175 2209 1959 2209 
L 2766 2209 
L 2766 2266 
Q 2766 2663 2505 2880 
Q 2244 3097 1772 3097 
Q 1472 3097 1187 3025 
Q 903 2953 641 2809 
L 641 3341 
Q 956 3463 1253 3523 
Q 1550 3584 1831 3584 
Q 2591 3584 2966 3190 
Q 3341 2797 3341 1997 
z
" transform="scale(0.015625)"/>
       <path id="DejaVuSans-28" d="M 1984 4856 
Q 1566 4138 1362 3434 
Q 1159 2731 1159 2009 
Q 1159 1288 1364 580 
Q 1569 -128 1984 -844 
L 1484 -844 
Q 1016 -109 783 600 
Q 550 1309 550 2009 
Q 550 2706 781 3412 
Q 1013 4119 1484 4856 
L 1984 4856 
z
" transform="scale(0.015625)"/>
       <path id="DejaVuSans-64" d="M 2906 2969 
L 2906 4863 
L 3481 4863 
L 3481 0 
L 2906 0 
L 2906 525 
Q 2725 213 2448 61 
Q 2172 -91 1784 -91 
Q 1150 -91 751 415 
Q 353 922 353 1747 
Q 353 2572 751 3078 
Q 1150 3584 1784 3584 
Q 2172 3584 2448 3432 
Q 2725 3281 2906 2969 
z
M 947 1747 
Q 947 1113 1208 752 
Q 1469 391 1925 391 
Q 2381 391 2643 752 
Q 2906 1113 2906 1747 
Q 2906 2381 2643 2742 
Q 2381 3103 1925 3103 
Q 1469 3103 1208 2742 
Q 947 2381 947 1747 
z
" transform="scale(0.015625)"/>
       <path id="DejaVuSans-29" d="M 513 4856 
L 1013 4856 
Q 1481 4119 1714 3412 
Q 1947 2706 1947 2009 
Q 1947 1309 1714 600 
Q 1481 -109 1013 -844 
L 513 -844 
Q 928 -128 1133 580 
Q 1338 1288 1338 2009 
Q 1338 2731 1133 3434 
Q 928 4138 513 4856 
z
" transform="scale(0.015625)"/>
      </defs>
      <use xlink:href="#DejaVuSans-41"/>
      <use xlink:href="#DejaVuSans-6e" x="68.408203"/>
      <use xlink:href="#DejaVuSans-67" x="131.787109"/>
      <use xlink:href="#DejaVuSans-6c" x="195.263672"/>
      <use xlink:href="#DejaVuSans-65" x="223.046875"/>
      <use xlink:href="#DejaVuSans-20" x="284.570312"/>
      <use xlink:href="#DejaVuSans-77" x="316.357422"/>
      <use xlink:href="#DejaVuSans-69" x="398.144531"/>
      <use xlink:href="#DejaVuSans-74" x="425.927734"/>
      <use xlink:href="#DejaVuSans-68" x="465.136719"/>
      <use xlink:href="#DejaVuSans-20" x="528.515625"/>
      <use xlink:href="#DejaVuSans-6e" x="560.302734"/>
      <use xlink:href="#DejaVuSans-6f" x="623.681641"/>
      <use xlink:href="#DejaVuSans-72" x="684.863281"/>
      <use xlink:href="#DejaVuSans-6d" x="724.226562"/>
      <use xlink:href="#DejaVuSans-61" x="821.638672"/>
      <use xlink:href="#DejaVuSans-6c" x="882.917969"/>
      <use xlink:href="#DejaVuSans-20" x="910.701172"/>
      <use xlink:href="#DejaVuSans-28" x="942.488281"/>
      <use xlink:href="#DejaVuSans-72" x="981.501953"/>
      <use xlink:href="#DejaVuSans-61" x="1022.615234"/>
      <use xlink:href="#DejaVuSans-64" x="1083.894531"/>
      <use xlink:href="#DejaVuSans-29" x="1147.371094"/>
     </g>
    </g>
   </g>
   <g id="matplotlib.axis_2">
    <g id="ytick_1">
     <g id="line2d_10">
      <defs>
       <path id="m22384414b0" d="M 0 0 
L -3.5 0 
" style="stroke: #000000; stroke-width: 0.8"/>
      </defs>
      <g>
       <use xlink:href="#m22384414b0" x="43.78125" y="273.312" style="stroke: #000000; stroke-width: 0.8"/>
      </g>
     </g>
     <g id="text_11">
      <!-- 0.0 -->
      <g transform="translate(20.878125 277.111219)scale(0.1 -0.1)">
       <use xlink:href="#DejaVuSans-30"/>
       <use xlink:href="#DejaVuSans-2e" x="63.623047"/>
       <use xlink:href="#DejaVuSans-30" x="95.410156"/>
      </g>
     </g>
    </g>
    <g id="ytick_2">
     <g id="line2d_11">
      <g>
       <use xlink:href="#m22384414b0" x="43.78125" y="226.624758" style="stroke: #000000; stroke-width: 0.8"/>
      </g>
     </g>
     <g id="text_12">
      <!-- 0.2 -->
      <g transform="translate(20.878125 230.423977)scale(0.1 -0.1)">
       <use xlink:href="#DejaVuSans-30"/>
       <use xlink:href="#DejaVuSans-2e" x="63.623047"/>
       <use xlink:href="#DejaVuSans-32" x="95.410156"/>
      </g>
     </g>
    </g>
    <g id="ytick_3">
     <g id="line2d_12">
      <g>
       <use xlink:href="#m22384414b0" x="43.78125" y="179.937516" style="stroke: #000000; stroke-width: 0.8"/>
      </g>
     </g>
     <g id="text_13">
      <!-- 0.4 -->
      <g transform="translate(20.878125 183.736735)scale(0.1 -0.1)">
       <use xlink:href="#DejaVuSans-30"/>
       <use xlink:href="#DejaVuSans-2e" x="63.623047"/>
       <use xlink:href="#DejaVuSans-34" x="95.410156"/>
      </g>
     </g>
    </g>
    <g id="ytick_4">
     <g id="line2d_13">
      <g>
       <use xlink:href="#m22384414b0" x="43.78125" y="133.250274" style="stroke: #000000; stroke-width: 0.8"/>
      </g>
     </g>
     <g id="text_14">
      <!-- 0.6 -->
      <g transform="translate(20.878125 137.049493)scale(0.1 -0.1)">
       <use xlink:href="#DejaVuSans-30"/>
       <use xlink:href="#DejaVuSans-2e" x="63.623047"/>
       <use xlink:href="#DejaVuSans-36" x="95.410156"/>
      </g>
     </g>
    </g>
    <g id="ytick_5">
     <g id="line2d_14">
      <g>
       <use xlink:href="#m22384414b0" x="43.78125" y="86.563032" style="stroke: #000000; stroke-width: 0.8"/>
      </g>
     </g>
     <g id="text_15">
      <!-- 0.8 -->
      <g transform="translate(20.878125 90.362251)scale(0.1 -0.1)">
       <use xlink:href="#DejaVuSans-30"/>
       <use xlink:href="#DejaVuSans-2e" x="63.623047"/>
       <use xlink:href="#DejaVuSans-38" x="95.410156"/>
      </g>
     </g>
    </g>
    <g id="ytick_6">
     <g id="line2d_15">
      <g>
       <use xlink:href="#m22384414b0" x="43.78125" y="39.875791" style="stroke: #000000; stroke-width: 0.8"/>
      </g>
     </g>
     <g id="text_16">
      <!-- 1.0 -->
      <g transform="translate(20.878125 43.675009)scale(0.1 -0.1)">
       <use xlink:href="#DejaVuSans-31"/>
       <use xlink:href="#DejaVuSans-2e" x="63.623047"/>
       <use xlink:href="#DejaVuSans-30" x="95.410156"/>
      </g>
     </g>
    </g>
    <g id="text_17">
     <!-- Probability density -->
     <g transform="translate(14.798438 186.606781)rotate(-90)scale(0.1 -0.1)">
      <defs>
       <path id="DejaVuSans-50" d="M 1259 4147 
L 1259 2394 
L 2053 2394 
Q 2494 2394 2734 2622 
Q 2975 2850 2975 3272 
Q 2975 3691 2734 3919 
Q 2494 4147 2053 4147 
L 1259 4147 
z
M 628 4666 
L 2053 4666 
Q 2838 4666 3239 4311 
Q 3641 3956 3641 3272 
Q 3641 2581 3239 2228 
Q 2838 1875 2053 1875 
L 1259 1875 
L 1259 0 
L 628 0 
L 628 4666 
z
" transform="scale(0.015625)"/>
       <path id="DejaVuSans-62" d="M 3116 1747 
Q 3116 2381 2855 2742 
Q 2594 3103 2138 3103 
Q 1681 3103 1420 2742 
Q 1159 2381 1159 1747 
Q 1159 1113 1420 752 
Q 1681 391 2138 391 
Q 2594 391 2855 752 
Q 3116 1113 3116 1747 
z
M 1159 2969 
Q 1341 3281 1617 3432 
Q 1894 3584 2278 3584 
Q 2916 3584 3314 3078 
Q 3713 2572 3713 1747 
Q 3713 922 3314 415 
Q 2916 -91 2278 -91 
Q 1894 -91 1617 61 
Q 1341 213 1159 525 
L 1159 0 
L 581 0 
L 581 4863 
L 1159 4863 
L 1159 2969 
z
" transform="scale(0.015625)"/>
       <path id="DejaVuSans-79" d="M 2059 -325 
Q 1816 -950 1584 -1140 
Q 1353 -1331 966 -1331 
L 506 -1331 
L 506 -850 
L 844 -850 
Q 1081 -850 1212 -737 
Q 1344 -625 1503 -206 
L 1606 56 
L 191 3500 
L 800 3500 
L 1894 763 
L 2988 3500 
L 3597 3500 
L 2059 -325 
z
" transform="scale(0.015625)"/>
       <path id="DejaVuSans-73" d="M 2834 3397 
L 2834 2853 
Q 2591 2978 2328 3040 
Q 2066 3103 1784 3103 
Q 1356 3103 1142 2972 
Q 928 2841 928 2578 
Q 928 2378 1081 2264 
Q 1234 2150 1697 2047 
L 1894 2003 
Q 2506 1872 2764 1633 
Q 3022 1394 3022 966 
Q 3022 478 2636 193 
Q 2250 -91 1575 -91 
Q 1294 -91 989 -36 
Q 684 19 347 128 
L 347 722 
Q 666 556 975 473 
Q 1284 391 1588 391 
Q 1994 391 2212 530 
Q 2431 669 2431 922 
Q 2431 1156 2273 1281 
Q 2116 1406 1581 1522 
L 1381 1569 
Q 847 1681 609 1914 
Q 372 2147 372 2553 
Q 372 3047 722 3315 
Q 1072 3584 1716 3584 
Q 2034 3584 2315 3537 
Q 2597 3491 2834 3397 
z
" transform="scale(0.015625)"/>
      </defs>
      <use xlink:href="#DejaVuSans-50"/>
      <use xlink:href="#DejaVuSans-72" x="58.552734"/>
      <use xlink:href="#DejaVuSans-6f" x="97.416016"/>
      <use xlink:href="#DejaVuSans-62" x="158.597656"/>
      <use xlink:href="#DejaVuSans-61" x="222.074219"/>
      <use xlink:href="#DejaVuSans-62" x="283.353516"/>
      <use xlink:href="#DejaVuSans-69" x="346.830078"/>
      <use xlink:href="#DejaVuSans-6c" x="374.613281"/>
      <use xlink:href="#DejaVuSans-69" x="402.396484"/>
      <use xlink:href="#DejaVuSans-74" x="430.179688"/>
      <use xlink:href="#DejaVuSans-79" x="469.388672"/>
      <use xlink:href="#DejaVuSans-20" x="528.568359"/>
      <use xlink:href="#DejaVuSans-64" x="560.355469"/>
      <use xlink:href="#DejaVuSans-65" x="623.832031"/>
      <use xlink:href="#DejaVuSans-6e" x="685.355469"/>
      <use xlink:href="#DejaVuSans-73" x="748.734375"/>
      <use xlink:href="#DejaVuSans-69" x="800.833984"/>
      <use xlink:href="#DejaVuSans-74" x="828.617188"/>
      <use xlink:href="#DejaVuSans-79" x="867.826172"/>
     </g>
    </g>
   </g>
   <g id="line2d_16">
    <path d="M 60.013977 273.312 
L 79.837728 228.806302 
L 90.237073 206.010195 
L 99.01152 187.296501 
L 106.811029 171.178287 
L 113.960578 156.911912 
L 120.460169 144.424015 
L 126.63478 133.031863 
L 132.484411 122.70049 
L 138.009063 113.385532 
L 143.208736 105.035489 
L 148.408408 97.111378 
L 153.283101 90.087209 
L 157.832814 83.898782 
L 162.382528 78.077437 
L 166.607261 73.010466 
L 170.831995 68.278213 
L 175.056729 63.888585 
L 178.956483 60.147081 
L 182.856238 56.709103 
L 186.755992 53.579545 
L 190.330767 50.985537 
L 193.905542 48.657542 
L 197.480316 46.598344 
L 201.055091 44.810409 
L 204.304886 43.422211 
L 207.554682 42.261342 
L 210.804477 41.328948 
L 214.054272 40.625952 
L 217.304067 40.153049 
L 220.553863 39.910706 
L 223.803658 39.899164 
L 227.053453 40.118434 
L 230.303248 40.568298 
L 233.553044 41.248312 
L 236.802839 42.157804 
L 240.052634 43.295874 
L 243.302429 44.661396 
L 246.552225 46.253022 
L 250.126999 48.263073 
L 253.701774 50.542394 
L 257.276549 53.088257 
L 260.851324 55.897617 
L 264.751078 59.258932 
L 268.650832 62.925038 
L 272.550587 66.890713 
L 276.77532 71.518359 
L 281.000054 76.483217 
L 285.224788 81.776989 
L 289.774501 87.835656 
L 294.324215 94.253776 
L 299.198908 101.515073 
L 304.39858 109.681309 
L 309.598252 118.261718 
L 315.122904 127.807903 
L 320.972536 138.368186 
L 327.147147 149.983405 
L 333.646737 162.684661 
L 340.796287 177.159334 
L 348.595795 193.472114 
L 357.370243 212.36262 
L 367.769587 235.308932 
L 382.393666 268.173746 
L 384.668523 273.312 
L 384.668523 273.312 
" clip-path="url(#p59216f5a8a)" style="fill: none; stroke: #ff7f0e; stroke-width: 1.5; stroke-linecap: square"/>
   </g>
   <g id="patch_203">
    <path d="M 43.78125 273.312 
L 43.78125 7.2 
" style="fill: none; stroke: #000000; stroke-width: 0.8; stroke-linejoin: miter; stroke-linecap: square"/>
   </g>
   <g id="patch_204">
    <path d="M 400.90125 273.312 
L 400.90125 7.2 
" style="fill: none; stroke: #000000; stroke-width: 0.8; stroke-linejoin: miter; stroke-linecap: square"/>
   </g>
   <g id="patch_205">
    <path d="M 43.78125 273.312 
L 400.90125 273.312 
" style="fill: none; stroke: #000000; stroke-width: 0.8; stroke-linejoin: miter; stroke-linecap: square"/>
   </g>
   <g id="patch_206">
    <path d="M 43.78125 7.2 
L 400.90125 7.2 
" style="fill: none; stroke: #000000; stroke-width: 0.8; stroke-linejoin: miter; stroke-linecap: square"/>
   </g>
  </g>
 </g>
 <defs>
  <clipPath id="p59216f5a8a">
   <rect x="43.78125" y="7.2" width="357.12" height="266.112"/>
  </clipPath>
 </defs>
</svg>
