<?xml version="1.0" encoding="utf-8" standalone="no"?>
<!DOCTYPE svg PUBLIC "-//W3C//DTD SVG 1.1//EN"
  "http://www.w3.org/Graphics/SVG/1.1/DTD/svg11.dtd">
<svg xmlns:xlink="http://www.w3.org/1999/xlink" width="414.46375pt" height="310.86825pt" viewBox="0 0 414.46375 310.86825" xmlns="http://www.w3.org/2000/svg" version="1.1">
 <metadata>
  <rdf:RDF xmlns:dc="http://purl.org/dc/elements/1.1/" xmlns:cc="http://creativecommons.org/ns#" xmlns:rdf="http://www.w3.org/1999/02/22-rdf-syntax-ns#">
   <cc:Work>
    <dc:type rdf:resource="http://purl.org/dc/dcmitype/StillImage"/>
    <dc:date>2022-05-04T16:16:57.548112</dc:date>
    <dc:format>image/svg+xml</dc:format>
    <dc:creator>
     <cc:Agent>
      <dc:title>Matplotlib v3.5.2, https://matplotlib.org/</dc:title>
     </cc:Agent>
    </dc:creator>
   </cc:Work>
  </rdf:RDF>
 </metadata>
 <defs>
  <style type="text/css">*{stroke-linejoin: round; stroke-linecap: butt}</style>
 </defs>
 <g id="figure_1">
  <g id="patch_1">
   <path d="M 0 310.86825 
L 414.46375 310.86825 
L 414.46375 0 
L 0 0 
z
" style="fill: #ffffff"/>
  </g>
  <g id="axes_1">
   <g id="patch_2">
    <path d="M 50.14375 273.312 
L 407.26375 273.312 
L 407.26375 7.2 
L 50.14375 7.2 
z
" style="fill: #ffffff"/>
   </g>
   <g id="patch_3">
    <path d="M 68.736739 273.312 
L 70.348206 273.312 
L 70.348206 267.802435 
L 68.736739 267.802435 
z
" clip-path="url(#p87bdf3e871)" style="fill: #1f77b4"/>
   </g>
   <g id="patch_4">
    <path d="M 70.348206 273.312 
L 71.959673 273.312 
L 71.959673 269.026783 
L 70.348206 269.026783 
z
" clip-path="url(#p87bdf3e871)" style="fill: #1f77b4"/>
   </g>
   <g id="patch_5">
    <path d="M 71.959673 273.312 
L 73.57114 273.312 
L 73.57114 269.638957 
L 71.959673 269.638957 
z
" clip-path="url(#p87bdf3e871)" style="fill: #1f77b4"/>
   </g>
   <g id="patch_6">
    <path d="M 73.57114 273.312 
L 75.182607 273.312 
L 75.182607 265.353739 
L 73.57114 265.353739 
z
" clip-path="url(#p87bdf3e871)" style="fill: #1f77b4"/>
   </g>
   <g id="patch_7">
    <path d="M 75.182607 273.312 
L 76.794074 273.312 
L 76.794074 265.965913 
L 75.182607 265.965913 
z
" clip-path="url(#p87bdf3e871)" style="fill: #1f77b4"/>
   </g>
   <g id="patch_8">
    <path d="M 76.794074 273.312 
L 78.405542 273.312 
L 78.405542 265.965913 
L 76.794074 265.965913 
z
" clip-path="url(#p87bdf3e871)" style="fill: #1f77b4"/>
   </g>
   <g id="patch_9">
    <path d="M 78.405542 273.312 
L 80.017009 273.312 
L 80.017009 263.517217 
L 78.405542 263.517217 
z
" clip-path="url(#p87bdf3e871)" style="fill: #1f77b4"/>
   </g>
   <g id="patch_10">
    <path d="M 80.017009 273.312 
L 81.628476 273.312 
L 81.628476 264.129391 
L 80.017009 264.129391 
z
" clip-path="url(#p87bdf3e871)" style="fill: #1f77b4"/>
   </g>
   <g id="patch_11">
    <path d="M 81.628476 273.312 
L 83.239943 273.312 
L 83.239943 263.517217 
L 81.628476 263.517217 
z
" clip-path="url(#p87bdf3e871)" style="fill: #1f77b4"/>
   </g>
   <g id="patch_12">
    <path d="M 83.239943 273.312 
L 84.85141 273.312 
L 84.85141 258.007652 
L 83.239943 258.007652 
z
" clip-path="url(#p87bdf3e871)" style="fill: #1f77b4"/>
   </g>
   <g id="patch_13">
    <path d="M 84.85141 273.312 
L 86.462877 273.312 
L 86.462877 258.619826 
L 84.85141 258.619826 
z
" clip-path="url(#p87bdf3e871)" style="fill: #1f77b4"/>
   </g>
   <g id="patch_14">
    <path d="M 86.462877 273.312 
L 88.074344 273.312 
L 88.074344 259.844174 
L 86.462877 259.844174 
z
" clip-path="url(#p87bdf3e871)" style="fill: #1f77b4"/>
   </g>
   <g id="patch_15">
    <path d="M 88.074344 273.312 
L 89.685811 273.312 
L 89.685811 251.273739 
L 88.074344 251.273739 
z
" clip-path="url(#p87bdf3e871)" style="fill: #1f77b4"/>
   </g>
   <g id="patch_16">
    <path d="M 89.685811 273.312 
L 91.297278 273.312 
L 91.297278 254.946783 
L 89.685811 254.946783 
z
" clip-path="url(#p87bdf3e871)" style="fill: #1f77b4"/>
   </g>
   <g id="patch_17">
    <path d="M 91.297278 273.312 
L 92.908745 273.312 
L 92.908745 254.946783 
L 91.297278 254.946783 
z
" clip-path="url(#p87bdf3e871)" style="fill: #1f77b4"/>
   </g>
   <g id="patch_18">
    <path d="M 92.908745 273.312 
L 94.520212 273.312 
L 94.520212 259.232 
L 92.908745 259.232 
z
" clip-path="url(#p87bdf3e871)" style="fill: #1f77b4"/>
   </g>
   <g id="patch_19">
    <path d="M 94.520212 273.312 
L 96.131679 273.312 
L 96.131679 248.825043 
L 94.520212 248.825043 
z
" clip-path="url(#p87bdf3e871)" style="fill: #1f77b4"/>
   </g>
   <g id="patch_20">
    <path d="M 96.131679 273.312 
L 97.743147 273.312 
L 97.743147 252.498087 
L 96.131679 252.498087 
z
" clip-path="url(#p87bdf3e871)" style="fill: #1f77b4"/>
   </g>
   <g id="patch_21">
    <path d="M 97.743147 273.312 
L 99.354614 273.312 
L 99.354614 248.825043 
L 97.743147 248.825043 
z
" clip-path="url(#p87bdf3e871)" style="fill: #1f77b4"/>
   </g>
   <g id="patch_22">
    <path d="M 99.354614 273.312 
L 100.966081 273.312 
L 100.966081 250.661565 
L 99.354614 250.661565 
z
" clip-path="url(#p87bdf3e871)" style="fill: #1f77b4"/>
   </g>
   <g id="patch_23">
    <path d="M 100.966081 273.312 
L 102.577548 273.312 
L 102.577548 246.988522 
L 100.966081 246.988522 
z
" clip-path="url(#p87bdf3e871)" style="fill: #1f77b4"/>
   </g>
   <g id="patch_24">
    <path d="M 102.577548 273.312 
L 104.189015 273.312 
L 104.189015 245.764174 
L 102.577548 245.764174 
z
" clip-path="url(#p87bdf3e871)" style="fill: #1f77b4"/>
   </g>
   <g id="patch_25">
    <path d="M 104.189015 273.312 
L 105.800482 273.312 
L 105.800482 247.600696 
L 104.189015 247.600696 
z
" clip-path="url(#p87bdf3e871)" style="fill: #1f77b4"/>
   </g>
   <g id="patch_26">
    <path d="M 105.800482 273.312 
L 107.411949 273.312 
L 107.411949 246.376348 
L 105.800482 246.376348 
z
" clip-path="url(#p87bdf3e871)" style="fill: #1f77b4"/>
   </g>
   <g id="patch_27">
    <path d="M 107.411949 273.312 
L 109.023416 273.312 
L 109.023416 240.866783 
L 107.411949 240.866783 
z
" clip-path="url(#p87bdf3e871)" style="fill: #1f77b4"/>
   </g>
   <g id="patch_28">
    <path d="M 109.023416 273.312 
L 110.634883 273.312 
L 110.634883 239.030261 
L 109.023416 239.030261 
z
" clip-path="url(#p87bdf3e871)" style="fill: #1f77b4"/>
   </g>
   <g id="patch_29">
    <path d="M 110.634883 273.312 
L 112.24635 273.312 
L 112.24635 235.969391 
L 110.634883 235.969391 
z
" clip-path="url(#p87bdf3e871)" style="fill: #1f77b4"/>
   </g>
   <g id="patch_30">
    <path d="M 112.24635 273.312 
L 113.857817 273.312 
L 113.857817 239.030261 
L 112.24635 239.030261 
z
" clip-path="url(#p87bdf3e871)" style="fill: #1f77b4"/>
   </g>
   <g id="patch_31">
    <path d="M 113.857817 273.312 
L 115.469284 273.312 
L 115.469284 238.418087 
L 113.857817 238.418087 
z
" clip-path="url(#p87bdf3e871)" style="fill: #1f77b4"/>
   </g>
   <g id="patch_32">
    <path d="M 115.469284 273.312 
L 117.080752 273.312 
L 117.080752 234.745043 
L 115.469284 234.745043 
z
" clip-path="url(#p87bdf3e871)" style="fill: #1f77b4"/>
   </g>
   <g id="patch_33">
    <path d="M 117.080752 273.312 
L 118.692219 273.312 
L 118.692219 234.745043 
L 117.080752 234.745043 
z
" clip-path="url(#p87bdf3e871)" style="fill: #1f77b4"/>
   </g>
   <g id="patch_34">
    <path d="M 118.692219 273.312 
L 120.303686 273.312 
L 120.303686 239.030261 
L 118.692219 239.030261 
z
" clip-path="url(#p87bdf3e871)" style="fill: #1f77b4"/>
   </g>
   <g id="patch_35">
    <path d="M 120.303686 273.312 
L 121.915153 273.312 
L 121.915153 230.459826 
L 120.303686 230.459826 
z
" clip-path="url(#p87bdf3e871)" style="fill: #1f77b4"/>
   </g>
   <g id="patch_36">
    <path d="M 121.915153 273.312 
L 123.52662 273.312 
L 123.52662 241.478957 
L 121.915153 241.478957 
z
" clip-path="url(#p87bdf3e871)" style="fill: #1f77b4"/>
   </g>
   <g id="patch_37">
    <path d="M 123.52662 273.312 
L 125.138087 273.312 
L 125.138087 237.193739 
L 123.52662 237.193739 
z
" clip-path="url(#p87bdf3e871)" style="fill: #1f77b4"/>
   </g>
   <g id="patch_38">
    <path d="M 125.138087 273.312 
L 126.749554 273.312 
L 126.749554 240.254609 
L 125.138087 240.254609 
z
" clip-path="url(#p87bdf3e871)" style="fill: #1f77b4"/>
   </g>
   <g id="patch_39">
    <path d="M 126.749554 273.312 
L 128.361021 273.312 
L 128.361021 229.235478 
L 126.749554 229.235478 
z
" clip-path="url(#p87bdf3e871)" style="fill: #1f77b4"/>
   </g>
   <g id="patch_40">
    <path d="M 128.361021 273.312 
L 129.972488 273.312 
L 129.972488 220.665043 
L 128.361021 220.665043 
z
" clip-path="url(#p87bdf3e871)" style="fill: #1f77b4"/>
   </g>
   <g id="patch_41">
    <path d="M 129.972488 273.312 
L 131.583955 273.312 
L 131.583955 227.398957 
L 129.972488 227.398957 
z
" clip-path="url(#p87bdf3e871)" style="fill: #1f77b4"/>
   </g>
   <g id="patch_42">
    <path d="M 131.583955 273.312 
L 133.195422 273.312 
L 133.195422 231.072 
L 131.583955 231.072 
z
" clip-path="url(#p87bdf3e871)" style="fill: #1f77b4"/>
   </g>
   <g id="patch_43">
    <path d="M 133.195422 273.312 
L 134.806889 273.312 
L 134.806889 218.216348 
L 133.195422 218.216348 
z
" clip-path="url(#p87bdf3e871)" style="fill: #1f77b4"/>
   </g>
   <g id="patch_44">
    <path d="M 134.806889 273.312 
L 136.418357 273.312 
L 136.418357 226.786783 
L 134.806889 226.786783 
z
" clip-path="url(#p87bdf3e871)" style="fill: #1f77b4"/>
   </g>
   <g id="patch_45">
    <path d="M 136.418357 273.312 
L 138.029824 273.312 
L 138.029824 218.216348 
L 136.418357 218.216348 
z
" clip-path="url(#p87bdf3e871)" style="fill: #1f77b4"/>
   </g>
   <g id="patch_46">
    <path d="M 138.029824 273.312 
L 139.641291 273.312 
L 139.641291 230.459826 
L 138.029824 230.459826 
z
" clip-path="url(#p87bdf3e871)" style="fill: #1f77b4"/>
   </g>
   <g id="patch_47">
    <path d="M 139.641291 273.312 
L 141.252758 273.312 
L 141.252758 224.950261 
L 139.641291 224.950261 
z
" clip-path="url(#p87bdf3e871)" style="fill: #1f77b4"/>
   </g>
   <g id="patch_48">
    <path d="M 141.252758 273.312 
L 142.864225 273.312 
L 142.864225 207.197217 
L 141.252758 207.197217 
z
" clip-path="url(#p87bdf3e871)" style="fill: #1f77b4"/>
   </g>
   <g id="patch_49">
    <path d="M 142.864225 273.312 
L 144.475692 273.312 
L 144.475692 220.665043 
L 142.864225 220.665043 
z
" clip-path="url(#p87bdf3e871)" style="fill: #1f77b4"/>
   </g>
   <g id="patch_50">
    <path d="M 144.475692 273.312 
L 146.087159 273.312 
L 146.087159 211.482435 
L 144.475692 211.482435 
z
" clip-path="url(#p87bdf3e871)" style="fill: #1f77b4"/>
   </g>
   <g id="patch_51">
    <path d="M 146.087159 273.312 
L 147.698626 273.312 
L 147.698626 214.543304 
L 146.087159 214.543304 
z
" clip-path="url(#p87bdf3e871)" style="fill: #1f77b4"/>
   </g>
   <g id="patch_52">
    <path d="M 147.698626 273.312 
L 149.310093 273.312 
L 149.310093 204.748522 
L 147.698626 204.748522 
z
" clip-path="url(#p87bdf3e871)" style="fill: #1f77b4"/>
   </g>
   <g id="patch_53">
    <path d="M 149.310093 273.312 
L 150.92156 273.312 
L 150.92156 209.033739 
L 149.310093 209.033739 
z
" clip-path="url(#p87bdf3e871)" style="fill: #1f77b4"/>
   </g>
   <g id="patch_54">
    <path d="M 150.92156 273.312 
L 152.533027 273.312 
L 152.533027 194.953739 
L 150.92156 194.953739 
z
" clip-path="url(#p87bdf3e871)" style="fill: #1f77b4"/>
   </g>
   <g id="patch_55">
    <path d="M 152.533027 273.312 
L 154.144494 273.312 
L 154.144494 194.341565 
L 152.533027 194.341565 
z
" clip-path="url(#p87bdf3e871)" style="fill: #1f77b4"/>
   </g>
   <g id="patch_56">
    <path d="M 154.144494 273.312 
L 155.755962 273.312 
L 155.755962 199.238957 
L 154.144494 199.238957 
z
" clip-path="url(#p87bdf3e871)" style="fill: #1f77b4"/>
   </g>
   <g id="patch_57">
    <path d="M 155.755962 273.312 
L 157.367429 273.312 
L 157.367429 205.360696 
L 155.755962 205.360696 
z
" clip-path="url(#p87bdf3e871)" style="fill: #1f77b4"/>
   </g>
   <g id="patch_58">
    <path d="M 157.367429 273.312 
L 158.978896 273.312 
L 158.978896 198.626783 
L 157.367429 198.626783 
z
" clip-path="url(#p87bdf3e871)" style="fill: #1f77b4"/>
   </g>
   <g id="patch_59">
    <path d="M 158.978896 273.312 
L 160.590363 273.312 
L 160.590363 204.748522 
L 158.978896 204.748522 
z
" clip-path="url(#p87bdf3e871)" style="fill: #1f77b4"/>
   </g>
   <g id="patch_60">
    <path d="M 160.590363 273.312 
L 162.20183 273.312 
L 162.20183 190.668522 
L 160.590363 190.668522 
z
" clip-path="url(#p87bdf3e871)" style="fill: #1f77b4"/>
   </g>
   <g id="patch_61">
    <path d="M 162.20183 273.312 
L 163.813297 273.312 
L 163.813297 205.97287 
L 162.20183 205.97287 
z
" clip-path="url(#p87bdf3e871)" style="fill: #1f77b4"/>
   </g>
   <g id="patch_62">
    <path d="M 163.813297 273.312 
L 165.424764 273.312 
L 165.424764 198.014609 
L 163.813297 198.014609 
z
" clip-path="url(#p87bdf3e871)" style="fill: #1f77b4"/>
   </g>
   <g id="patch_63">
    <path d="M 165.424764 273.312 
L 167.036231 273.312 
L 167.036231 186.995478 
L 165.424764 186.995478 
z
" clip-path="url(#p87bdf3e871)" style="fill: #1f77b4"/>
   </g>
   <g id="patch_64">
    <path d="M 167.036231 273.312 
L 168.647698 273.312 
L 168.647698 195.565913 
L 167.036231 195.565913 
z
" clip-path="url(#p87bdf3e871)" style="fill: #1f77b4"/>
   </g>
   <g id="patch_65">
    <path d="M 168.647698 273.312 
L 170.259165 273.312 
L 170.259165 207.197217 
L 168.647698 207.197217 
z
" clip-path="url(#p87bdf3e871)" style="fill: #1f77b4"/>
   </g>
   <g id="patch_66">
    <path d="M 170.259165 273.312 
L 171.870632 273.312 
L 171.870632 193.729391 
L 170.259165 193.729391 
z
" clip-path="url(#p87bdf3e871)" style="fill: #1f77b4"/>
   </g>
   <g id="patch_67">
    <path d="M 171.870632 273.312 
L 173.482099 273.312 
L 173.482099 202.912 
L 171.870632 202.912 
z
" clip-path="url(#p87bdf3e871)" style="fill: #1f77b4"/>
   </g>
   <g id="patch_68">
    <path d="M 173.482099 273.312 
L 175.093567 273.312 
L 175.093567 206.585043 
L 173.482099 206.585043 
z
" clip-path="url(#p87bdf3e871)" style="fill: #1f77b4"/>
   </g>
   <g id="patch_69">
    <path d="M 175.093567 273.312 
L 176.705034 273.312 
L 176.705034 178.425043 
L 175.093567 178.425043 
z
" clip-path="url(#p87bdf3e871)" style="fill: #1f77b4"/>
   </g>
   <g id="patch_70">
    <path d="M 176.705034 273.312 
L 178.316501 273.312 
L 178.316501 185.158957 
L 176.705034 185.158957 
z
" clip-path="url(#p87bdf3e871)" style="fill: #1f77b4"/>
   </g>
   <g id="patch_71">
    <path d="M 178.316501 273.312 
L 179.927968 273.312 
L 179.927968 188.832 
L 178.316501 188.832 
z
" clip-path="url(#p87bdf3e871)" style="fill: #1f77b4"/>
   </g>
   <g id="patch_72">
    <path d="M 179.927968 273.312 
L 181.539435 273.312 
L 181.539435 185.77113 
L 179.927968 185.77113 
z
" clip-path="url(#p87bdf3e871)" style="fill: #1f77b4"/>
   </g>
   <g id="patch_73">
    <path d="M 181.539435 273.312 
L 183.150902 273.312 
L 183.150902 197.402435 
L 181.539435 197.402435 
z
" clip-path="url(#p87bdf3e871)" style="fill: #1f77b4"/>
   </g>
   <g id="patch_74">
    <path d="M 183.150902 273.312 
L 184.762369 273.312 
L 184.762369 193.117217 
L 183.150902 193.117217 
z
" clip-path="url(#p87bdf3e871)" style="fill: #1f77b4"/>
   </g>
   <g id="patch_75">
    <path d="M 184.762369 273.312 
L 186.373836 273.312 
L 186.373836 185.77113 
L 184.762369 185.77113 
z
" clip-path="url(#p87bdf3e871)" style="fill: #1f77b4"/>
   </g>
   <g id="patch_76">
    <path d="M 186.373836 273.312 
L 187.985303 273.312 
L 187.985303 179.037217 
L 186.373836 179.037217 
z
" clip-path="url(#p87bdf3e871)" style="fill: #1f77b4"/>
   </g>
   <g id="patch_77">
    <path d="M 187.985303 273.312 
L 189.59677 273.312 
L 189.59677 174.752 
L 187.985303 174.752 
z
" clip-path="url(#p87bdf3e871)" style="fill: #1f77b4"/>
   </g>
   <g id="patch_78">
    <path d="M 189.59677 273.312 
L 191.208237 273.312 
L 191.208237 184.546783 
L 189.59677 184.546783 
z
" clip-path="url(#p87bdf3e871)" style="fill: #1f77b4"/>
   </g>
   <g id="patch_79">
    <path d="M 191.208237 273.312 
L 192.819704 273.312 
L 192.819704 168.018087 
L 191.208237 168.018087 
z
" clip-path="url(#p87bdf3e871)" style="fill: #1f77b4"/>
   </g>
   <g id="patch_80">
    <path d="M 192.819704 273.312 
L 194.431172 273.312 
L 194.431172 188.219826 
L 192.819704 188.219826 
z
" clip-path="url(#p87bdf3e871)" style="fill: #1f77b4"/>
   </g>
   <g id="patch_81">
    <path d="M 194.431172 273.312 
L 196.042639 273.312 
L 196.042639 181.485913 
L 194.431172 181.485913 
z
" clip-path="url(#p87bdf3e871)" style="fill: #1f77b4"/>
   </g>
   <g id="patch_82">
    <path d="M 196.042639 273.312 
L 197.654106 273.312 
L 197.654106 182.098087 
L 196.042639 182.098087 
z
" clip-path="url(#p87bdf3e871)" style="fill: #1f77b4"/>
   </g>
   <g id="patch_83">
    <path d="M 197.654106 273.312 
L 199.265573 273.312 
L 199.265573 175.976348 
L 197.654106 175.976348 
z
" clip-path="url(#p87bdf3e871)" style="fill: #1f77b4"/>
   </g>
   <g id="patch_84">
    <path d="M 199.265573 273.312 
L 200.87704 273.312 
L 200.87704 171.69113 
L 199.265573 171.69113 
z
" clip-path="url(#p87bdf3e871)" style="fill: #1f77b4"/>
   </g>
   <g id="patch_85">
    <path d="M 200.87704 273.312 
L 202.488507 273.312 
L 202.488507 164.957217 
L 200.87704 164.957217 
z
" clip-path="url(#p87bdf3e871)" style="fill: #1f77b4"/>
   </g>
   <g id="patch_86">
    <path d="M 202.488507 273.312 
L 204.099974 273.312 
L 204.099974 159.447652 
L 202.488507 159.447652 
z
" clip-path="url(#p87bdf3e871)" style="fill: #1f77b4"/>
   </g>
   <g id="patch_87">
    <path d="M 204.099974 273.312 
L 205.711441 273.312 
L 205.711441 161.896348 
L 204.099974 161.896348 
z
" clip-path="url(#p87bdf3e871)" style="fill: #1f77b4"/>
   </g>
   <g id="patch_88">
    <path d="M 205.711441 273.312 
L 207.322908 273.312 
L 207.322908 164.345043 
L 205.711441 164.345043 
z
" clip-path="url(#p87bdf3e871)" style="fill: #1f77b4"/>
   </g>
   <g id="patch_89">
    <path d="M 207.322908 273.312 
L 208.934375 273.312 
L 208.934375 168.630261 
L 207.322908 168.630261 
z
" clip-path="url(#p87bdf3e871)" style="fill: #1f77b4"/>
   </g>
   <g id="patch_90">
    <path d="M 208.934375 273.312 
L 210.545842 273.312 
L 210.545842 164.345043 
L 208.934375 164.345043 
z
" clip-path="url(#p87bdf3e871)" style="fill: #1f77b4"/>
   </g>
   <g id="patch_91">
    <path d="M 210.545842 273.312 
L 212.157309 273.312 
L 212.157309 172.303304 
L 210.545842 172.303304 
z
" clip-path="url(#p87bdf3e871)" style="fill: #1f77b4"/>
   </g>
   <g id="patch_92">
    <path d="M 212.157309 273.312 
L 213.768777 273.312 
L 213.768777 162.508522 
L 212.157309 162.508522 
z
" clip-path="url(#p87bdf3e871)" style="fill: #1f77b4"/>
   </g>
   <g id="patch_93">
    <path d="M 213.768777 273.312 
L 215.380244 273.312 
L 215.380244 158.223304 
L 213.768777 158.223304 
z
" clip-path="url(#p87bdf3e871)" style="fill: #1f77b4"/>
   </g>
   <g id="patch_94">
    <path d="M 215.380244 273.312 
L 216.991711 273.312 
L 216.991711 161.284174 
L 215.380244 161.284174 
z
" clip-path="url(#p87bdf3e871)" style="fill: #1f77b4"/>
   </g>
   <g id="patch_95">
    <path d="M 216.991711 273.312 
L 218.603178 273.312 
L 218.603178 145.979826 
L 216.991711 145.979826 
z
" clip-path="url(#p87bdf3e871)" style="fill: #1f77b4"/>
   </g>
   <g id="patch_96">
    <path d="M 218.603178 273.312 
L 220.214645 273.312 
L 220.214645 152.713739 
L 218.603178 152.713739 
z
" clip-path="url(#p87bdf3e871)" style="fill: #1f77b4"/>
   </g>
   <g id="patch_97">
    <path d="M 220.214645 273.312 
L 221.826112 273.312 
L 221.826112 159.447652 
L 220.214645 159.447652 
z
" clip-path="url(#p87bdf3e871)" style="fill: #1f77b4"/>
   </g>
   <g id="patch_98">
    <path d="M 221.826112 273.312 
L 223.437579 273.312 
L 223.437579 160.059826 
L 221.826112 160.059826 
z
" clip-path="url(#p87bdf3e871)" style="fill: #1f77b4"/>
   </g>
   <g id="patch_99">
    <path d="M 223.437579 273.312 
L 225.049046 273.312 
L 225.049046 169.242435 
L 223.437579 169.242435 
z
" clip-path="url(#p87bdf3e871)" style="fill: #1f77b4"/>
   </g>
   <g id="patch_100">
    <path d="M 225.049046 273.312 
L 226.660513 273.312 
L 226.660513 168.630261 
L 225.049046 168.630261 
z
" clip-path="url(#p87bdf3e871)" style="fill: #1f77b4"/>
   </g>
   <g id="patch_101">
    <path d="M 226.660513 273.312 
L 228.27198 273.312 
L 228.27198 144.755478 
L 226.660513 144.755478 
z
" clip-path="url(#p87bdf3e871)" style="fill: #1f77b4"/>
   </g>
   <g id="patch_102">
    <path d="M 228.27198 273.312 
L 229.883447 273.312 
L 229.883447 153.325913 
L 228.27198 153.325913 
z
" clip-path="url(#p87bdf3e871)" style="fill: #1f77b4"/>
   </g>
   <g id="patch_103">
    <path d="M 229.883447 273.312 
L 231.494914 273.312 
L 231.494914 160.059826 
L 229.883447 160.059826 
z
" clip-path="url(#p87bdf3e871)" style="fill: #1f77b4"/>
   </g>
   <g id="patch_104">
    <path d="M 231.494914 273.312 
L 233.106382 273.312 
L 233.106382 150.265043 
L 231.494914 150.265043 
z
" clip-path="url(#p87bdf3e871)" style="fill: #1f77b4"/>
   </g>
   <g id="patch_105">
    <path d="M 233.106382 273.312 
L 234.717849 273.312 
L 234.717849 141.082435 
L 233.106382 141.082435 
z
" clip-path="url(#p87bdf3e871)" style="fill: #1f77b4"/>
   </g>
   <g id="patch_106">
    <path d="M 234.717849 273.312 
L 236.329316 273.312 
L 236.329316 142.306783 
L 234.717849 142.306783 
z
" clip-path="url(#p87bdf3e871)" style="fill: #1f77b4"/>
   </g>
   <g id="patch_107">
    <path d="M 236.329316 273.312 
L 237.940783 273.312 
L 237.940783 138.633739 
L 236.329316 138.633739 
z
" clip-path="url(#p87bdf3e871)" style="fill: #1f77b4"/>
   </g>
   <g id="patch_108">
    <path d="M 237.940783 273.312 
L 239.55225 273.312 
L 239.55225 141.694609 
L 237.940783 141.694609 
z
" clip-path="url(#p87bdf3e871)" style="fill: #1f77b4"/>
   </g>
   <g id="patch_109">
    <path d="M 239.55225 273.312 
L 241.163717 273.312 
L 241.163717 142.918957 
L 239.55225 142.918957 
z
" clip-path="url(#p87bdf3e871)" style="fill: #1f77b4"/>
   </g>
   <g id="patch_110">
    <path d="M 241.163717 273.312 
L 242.775184 273.312 
L 242.775184 143.53113 
L 241.163717 143.53113 
z
" clip-path="url(#p87bdf3e871)" style="fill: #1f77b4"/>
   </g>
   <g id="patch_111">
    <path d="M 242.775184 273.312 
L 244.386651 273.312 
L 244.386651 144.755478 
L 242.775184 144.755478 
z
" clip-path="url(#p87bdf3e871)" style="fill: #1f77b4"/>
   </g>
   <g id="patch_112">
    <path d="M 244.386651 273.312 
L 245.998118 273.312 
L 245.998118 136.185043 
L 244.386651 136.185043 
z
" clip-path="url(#p87bdf3e871)" style="fill: #1f77b4"/>
   </g>
   <g id="patch_113">
    <path d="M 245.998118 273.312 
L 247.609585 273.312 
L 247.609585 136.797217 
L 245.998118 136.797217 
z
" clip-path="url(#p87bdf3e871)" style="fill: #1f77b4"/>
   </g>
   <g id="patch_114">
    <path d="M 247.609585 273.312 
L 249.221052 273.312 
L 249.221052 127.614609 
L 247.609585 127.614609 
z
" clip-path="url(#p87bdf3e871)" style="fill: #1f77b4"/>
   </g>
   <g id="patch_115">
    <path d="M 249.221052 273.312 
L 250.832519 273.312 
L 250.832519 125.165913 
L 249.221052 125.165913 
z
" clip-path="url(#p87bdf3e871)" style="fill: #1f77b4"/>
   </g>
   <g id="patch_116">
    <path d="M 250.832519 273.312 
L 252.443987 273.312 
L 252.443987 121.49287 
L 250.832519 121.49287 
z
" clip-path="url(#p87bdf3e871)" style="fill: #1f77b4"/>
   </g>
   <g id="patch_117">
    <path d="M 252.443987 273.312 
L 254.055454 273.312 
L 254.055454 135.57287 
L 252.443987 135.57287 
z
" clip-path="url(#p87bdf3e871)" style="fill: #1f77b4"/>
   </g>
   <g id="patch_118">
    <path d="M 254.055454 273.312 
L 255.666921 273.312 
L 255.666921 156.998957 
L 254.055454 156.998957 
z
" clip-path="url(#p87bdf3e871)" style="fill: #1f77b4"/>
   </g>
   <g id="patch_119">
    <path d="M 255.666921 273.312 
L 257.278388 273.312 
L 257.278388 126.390261 
L 255.666921 126.390261 
z
" clip-path="url(#p87bdf3e871)" style="fill: #1f77b4"/>
   </g>
   <g id="patch_120">
    <path d="M 257.278388 273.312 
L 258.889855 273.312 
L 258.889855 116.595478 
L 257.278388 116.595478 
z
" clip-path="url(#p87bdf3e871)" style="fill: #1f77b4"/>
   </g>
   <g id="patch_121">
    <path d="M 258.889855 273.312 
L 260.501322 273.312 
L 260.501322 112.922435 
L 258.889855 112.922435 
z
" clip-path="url(#p87bdf3e871)" style="fill: #1f77b4"/>
   </g>
   <g id="patch_122">
    <path d="M 260.501322 273.312 
L 262.112789 273.312 
L 262.112789 125.165913 
L 260.501322 125.165913 
z
" clip-path="url(#p87bdf3e871)" style="fill: #1f77b4"/>
   </g>
   <g id="patch_123">
    <path d="M 262.112789 273.312 
L 263.724256 273.312 
L 263.724256 116.595478 
L 262.112789 116.595478 
z
" clip-path="url(#p87bdf3e871)" style="fill: #1f77b4"/>
   </g>
   <g id="patch_124">
    <path d="M 263.724256 273.312 
L 265.335723 273.312 
L 265.335723 133.736348 
L 263.724256 133.736348 
z
" clip-path="url(#p87bdf3e871)" style="fill: #1f77b4"/>
   </g>
   <g id="patch_125">
    <path d="M 265.335723 273.312 
L 266.94719 273.312 
L 266.94719 112.922435 
L 265.335723 112.922435 
z
" clip-path="url(#p87bdf3e871)" style="fill: #1f77b4"/>
   </g>
   <g id="patch_126">
    <path d="M 266.94719 273.312 
L 268.558657 273.312 
L 268.558657 127.614609 
L 266.94719 127.614609 
z
" clip-path="url(#p87bdf3e871)" style="fill: #1f77b4"/>
   </g>
   <g id="patch_127">
    <path d="M 268.558657 273.312 
L 270.170124 273.312 
L 270.170124 104.352 
L 268.558657 104.352 
z
" clip-path="url(#p87bdf3e871)" style="fill: #1f77b4"/>
   </g>
   <g id="patch_128">
    <path d="M 270.170124 273.312 
L 271.781592 273.312 
L 271.781592 125.778087 
L 270.170124 125.778087 
z
" clip-path="url(#p87bdf3e871)" style="fill: #1f77b4"/>
   </g>
   <g id="patch_129">
    <path d="M 271.781592 273.312 
L 273.393059 273.312 
L 273.393059 111.698087 
L 271.781592 111.698087 
z
" clip-path="url(#p87bdf3e871)" style="fill: #1f77b4"/>
   </g>
   <g id="patch_130">
    <path d="M 273.393059 273.312 
L 275.004526 273.312 
L 275.004526 121.49287 
L 273.393059 121.49287 
z
" clip-path="url(#p87bdf3e871)" style="fill: #1f77b4"/>
   </g>
   <g id="patch_131">
    <path d="M 275.004526 273.312 
L 276.615993 273.312 
L 276.615993 130.063304 
L 275.004526 130.063304 
z
" clip-path="url(#p87bdf3e871)" style="fill: #1f77b4"/>
   </g>
   <g id="patch_132">
    <path d="M 276.615993 273.312 
L 278.22746 273.312 
L 278.22746 119.656348 
L 276.615993 119.656348 
z
" clip-path="url(#p87bdf3e871)" style="fill: #1f77b4"/>
   </g>
   <g id="patch_133">
    <path d="M 278.22746 273.312 
L 279.838927 273.312 
L 279.838927 100.678957 
L 278.22746 100.678957 
z
" clip-path="url(#p87bdf3e871)" style="fill: #1f77b4"/>
   </g>
   <g id="patch_134">
    <path d="M 279.838927 273.312 
L 281.450394 273.312 
L 281.450394 104.964174 
L 279.838927 104.964174 
z
" clip-path="url(#p87bdf3e871)" style="fill: #1f77b4"/>
   </g>
   <g id="patch_135">
    <path d="M 281.450394 273.312 
L 283.061861 273.312 
L 283.061861 111.085913 
L 281.450394 111.085913 
z
" clip-path="url(#p87bdf3e871)" style="fill: #1f77b4"/>
   </g>
   <g id="patch_136">
    <path d="M 283.061861 273.312 
L 284.673328 273.312 
L 284.673328 107.41287 
L 283.061861 107.41287 
z
" clip-path="url(#p87bdf3e871)" style="fill: #1f77b4"/>
   </g>
   <g id="patch_137">
    <path d="M 284.673328 273.312 
L 286.284795 273.312 
L 286.284795 118.432 
L 284.673328 118.432 
z
" clip-path="url(#p87bdf3e871)" style="fill: #1f77b4"/>
   </g>
   <g id="patch_138">
    <path d="M 286.284795 273.312 
L 287.896262 273.312 
L 287.896262 111.698087 
L 286.284795 111.698087 
z
" clip-path="url(#p87bdf3e871)" style="fill: #1f77b4"/>
   </g>
   <g id="patch_139">
    <path d="M 287.896262 273.312 
L 289.507729 273.312 
L 289.507729 95.169391 
L 287.896262 95.169391 
z
" clip-path="url(#p87bdf3e871)" style="fill: #1f77b4"/>
   </g>
   <g id="patch_140">
    <path d="M 289.507729 273.312 
L 291.119197 273.312 
L 291.119197 106.188522 
L 289.507729 106.188522 
z
" clip-path="url(#p87bdf3e871)" style="fill: #1f77b4"/>
   </g>
   <g id="patch_141">
    <path d="M 291.119197 273.312 
L 292.730664 273.312 
L 292.730664 120.880696 
L 291.119197 120.880696 
z
" clip-path="url(#p87bdf3e871)" style="fill: #1f77b4"/>
   </g>
   <g id="patch_142">
    <path d="M 292.730664 273.312 
L 294.342131 273.312 
L 294.342131 96.393739 
L 292.730664 96.393739 
z
" clip-path="url(#p87bdf3e871)" style="fill: #1f77b4"/>
   </g>
   <g id="patch_143">
    <path d="M 294.342131 273.312 
L 295.953598 273.312 
L 295.953598 104.964174 
L 294.342131 104.964174 
z
" clip-path="url(#p87bdf3e871)" style="fill: #1f77b4"/>
   </g>
   <g id="patch_144">
    <path d="M 295.953598 273.312 
L 297.565065 273.312 
L 297.565065 92.720696 
L 295.953598 92.720696 
z
" clip-path="url(#p87bdf3e871)" style="fill: #1f77b4"/>
   </g>
   <g id="patch_145">
    <path d="M 297.565065 273.312 
L 299.176532 273.312 
L 299.176532 106.800696 
L 297.565065 106.800696 
z
" clip-path="url(#p87bdf3e871)" style="fill: #1f77b4"/>
   </g>
   <g id="patch_146">
    <path d="M 299.176532 273.312 
L 300.787999 273.312 
L 300.787999 87.823304 
L 299.176532 87.823304 
z
" clip-path="url(#p87bdf3e871)" style="fill: #1f77b4"/>
   </g>
   <g id="patch_147">
    <path d="M 300.787999 273.312 
L 302.399466 273.312 
L 302.399466 80.477217 
L 300.787999 80.477217 
z
" clip-path="url(#p87bdf3e871)" style="fill: #1f77b4"/>
   </g>
   <g id="patch_148">
    <path d="M 302.399466 273.312 
L 304.010933 273.312 
L 304.010933 101.903304 
L 302.399466 101.903304 
z
" clip-path="url(#p87bdf3e871)" style="fill: #1f77b4"/>
   </g>
   <g id="patch_149">
    <path d="M 304.010933 273.312 
L 305.6224 273.312 
L 305.6224 94.557217 
L 304.010933 94.557217 
z
" clip-path="url(#p87bdf3e871)" style="fill: #1f77b4"/>
   </g>
   <g id="patch_150">
    <path d="M 305.6224 273.312 
L 307.233867 273.312 
L 307.233867 109.861565 
L 305.6224 109.861565 
z
" clip-path="url(#p87bdf3e871)" style="fill: #1f77b4"/>
   </g>
   <g id="patch_151">
    <path d="M 307.233867 273.312 
L 308.845335 273.312 
L 308.845335 85.986783 
L 307.233867 85.986783 
z
" clip-path="url(#p87bdf3e871)" style="fill: #1f77b4"/>
   </g>
   <g id="patch_152">
    <path d="M 308.845335 273.312 
L 310.456802 273.312 
L 310.456802 86.598957 
L 308.845335 86.598957 
z
" clip-path="url(#p87bdf3e871)" style="fill: #1f77b4"/>
   </g>
   <g id="patch_153">
    <path d="M 310.456802 273.312 
L 312.068269 273.312 
L 312.068269 102.515478 
L 310.456802 102.515478 
z
" clip-path="url(#p87bdf3e871)" style="fill: #1f77b4"/>
   </g>
   <g id="patch_154">
    <path d="M 312.068269 273.312 
L 313.679736 273.312 
L 313.679736 75.579826 
L 312.068269 75.579826 
z
" clip-path="url(#p87bdf3e871)" style="fill: #1f77b4"/>
   </g>
   <g id="patch_155">
    <path d="M 313.679736 273.312 
L 315.291203 273.312 
L 315.291203 79.865043 
L 313.679736 79.865043 
z
" clip-path="url(#p87bdf3e871)" style="fill: #1f77b4"/>
   </g>
   <g id="patch_156">
    <path d="M 315.291203 273.312 
L 316.90267 273.312 
L 316.90267 73.13113 
L 315.291203 73.13113 
z
" clip-path="url(#p87bdf3e871)" style="fill: #1f77b4"/>
   </g>
   <g id="patch_157">
    <path d="M 316.90267 273.312 
L 318.514137 273.312 
L 318.514137 75.579826 
L 316.90267 75.579826 
z
" clip-path="url(#p87bdf3e871)" style="fill: #1f77b4"/>
   </g>
   <g id="patch_158">
    <path d="M 318.514137 273.312 
L 320.125604 273.312 
L 320.125604 94.557217 
L 318.514137 94.557217 
z
" clip-path="url(#p87bdf3e871)" style="fill: #1f77b4"/>
   </g>
   <g id="patch_159">
    <path d="M 320.125604 273.312 
L 321.737071 273.312 
L 321.737071 85.374609 
L 320.125604 85.374609 
z
" clip-path="url(#p87bdf3e871)" style="fill: #1f77b4"/>
   </g>
   <g id="patch_160">
    <path d="M 321.737071 273.312 
L 323.348538 273.312 
L 323.348538 87.21113 
L 321.737071 87.21113 
z
" clip-path="url(#p87bdf3e871)" style="fill: #1f77b4"/>
   </g>
   <g id="patch_161">
    <path d="M 323.348538 273.312 
L 324.960005 273.312 
L 324.960005 70.682435 
L 323.348538 70.682435 
z
" clip-path="url(#p87bdf3e871)" style="fill: #1f77b4"/>
   </g>
   <g id="patch_162">
    <path d="M 324.960005 273.312 
L 326.571472 273.312 
L 326.571472 83.538087 
L 324.960005 83.538087 
z
" clip-path="url(#p87bdf3e871)" style="fill: #1f77b4"/>
   </g>
   <g id="patch_163">
    <path d="M 326.571472 273.312 
L 328.18294 273.312 
L 328.18294 68.233739 
L 326.571472 68.233739 
z
" clip-path="url(#p87bdf3e871)" style="fill: #1f77b4"/>
   </g>
   <g id="patch_164">
    <path d="M 328.18294 273.312 
L 329.794407 273.312 
L 329.794407 74.355478 
L 328.18294 74.355478 
z
" clip-path="url(#p87bdf3e871)" style="fill: #1f77b4"/>
   </g>
   <g id="patch_165">
    <path d="M 329.794407 273.312 
L 331.405874 273.312 
L 331.405874 70.070261 
L 329.794407 70.070261 
z
" clip-path="url(#p87bdf3e871)" style="fill: #1f77b4"/>
   </g>
   <g id="patch_166">
    <path d="M 331.405874 273.312 
L 333.017341 273.312 
L 333.017341 61.499826 
L 331.405874 61.499826 
z
" clip-path="url(#p87bdf3e871)" style="fill: #1f77b4"/>
   </g>
   <g id="patch_167">
    <path d="M 333.017341 273.312 
L 334.628808 273.312 
L 334.628808 69.458087 
L 333.017341 69.458087 
z
" clip-path="url(#p87bdf3e871)" style="fill: #1f77b4"/>
   </g>
   <g id="patch_168">
    <path d="M 334.628808 273.312 
L 336.240275 273.312 
L 336.240275 89.659826 
L 334.628808 89.659826 
z
" clip-path="url(#p87bdf3e871)" style="fill: #1f77b4"/>
   </g>
   <g id="patch_169">
    <path d="M 336.240275 273.312 
L 337.851742 273.312 
L 337.851742 84.150261 
L 336.240275 84.150261 
z
" clip-path="url(#p87bdf3e871)" style="fill: #1f77b4"/>
   </g>
   <g id="patch_170">
    <path d="M 337.851742 273.312 
L 339.463209 273.312 
L 339.463209 101.29113 
L 337.851742 101.29113 
z
" clip-path="url(#p87bdf3e871)" style="fill: #1f77b4"/>
   </g>
   <g id="patch_171">
    <path d="M 339.463209 273.312 
L 341.074676 273.312 
L 341.074676 78.640696 
L 339.463209 78.640696 
z
" clip-path="url(#p87bdf3e871)" style="fill: #1f77b4"/>
   </g>
   <g id="patch_172">
    <path d="M 341.074676 273.312 
L 342.686143 273.312 
L 342.686143 81.089391 
L 341.074676 81.089391 
z
" clip-path="url(#p87bdf3e871)" style="fill: #1f77b4"/>
   </g>
   <g id="patch_173">
    <path d="M 342.686143 273.312 
L 344.29761 273.312 
L 344.29761 67.621565 
L 342.686143 67.621565 
z
" clip-path="url(#p87bdf3e871)" style="fill: #1f77b4"/>
   </g>
   <g id="patch_174">
    <path d="M 344.29761 273.312 
L 345.909077 273.312 
L 345.909077 61.499826 
L 344.29761 61.499826 
z
" clip-path="url(#p87bdf3e871)" style="fill: #1f77b4"/>
   </g>
   <g id="patch_175">
    <path d="M 345.909077 273.312 
L 347.520545 273.312 
L 347.520545 77.416348 
L 345.909077 77.416348 
z
" clip-path="url(#p87bdf3e871)" style="fill: #1f77b4"/>
   </g>
   <g id="patch_176">
    <path d="M 347.520545 273.312 
L 349.132012 273.312 
L 349.132012 70.070261 
L 347.520545 70.070261 
z
" clip-path="url(#p87bdf3e871)" style="fill: #1f77b4"/>
   </g>
   <g id="patch_177">
    <path d="M 349.132012 273.312 
L 350.743479 273.312 
L 350.743479 57.826783 
L 349.132012 57.826783 
z
" clip-path="url(#p87bdf3e871)" style="fill: #1f77b4"/>
   </g>
   <g id="patch_178">
    <path d="M 350.743479 273.312 
L 352.354946 273.312 
L 352.354946 51.705043 
L 350.743479 51.705043 
z
" clip-path="url(#p87bdf3e871)" style="fill: #1f77b4"/>
   </g>
   <g id="patch_179">
    <path d="M 352.354946 273.312 
L 353.966413 273.312 
L 353.966413 57.214609 
L 352.354946 57.214609 
z
" clip-path="url(#p87bdf3e871)" style="fill: #1f77b4"/>
   </g>
   <g id="patch_180">
    <path d="M 353.966413 273.312 
L 355.57788 273.312 
L 355.57788 58.438957 
L 353.966413 58.438957 
z
" clip-path="url(#p87bdf3e871)" style="fill: #1f77b4"/>
   </g>
   <g id="patch_181">
    <path d="M 355.57788 273.312 
L 357.189347 273.312 
L 357.189347 57.214609 
L 355.57788 57.214609 
z
" clip-path="url(#p87bdf3e871)" style="fill: #1f77b4"/>
   </g>
   <g id="patch_182">
    <path d="M 357.189347 273.312 
L 358.800814 273.312 
L 358.800814 49.868522 
L 357.189347 49.868522 
z
" clip-path="url(#p87bdf3e871)" style="fill: #1f77b4"/>
   </g>
   <g id="patch_183">
    <path d="M 358.800814 273.312 
L 360.412281 273.312 
L 360.412281 54.153739 
L 358.800814 54.153739 
z
" clip-path="url(#p87bdf3e871)" style="fill: #1f77b4"/>
   </g>
   <g id="patch_184">
    <path d="M 360.412281 273.312 
L 362.023748 273.312 
L 362.023748 41.298087 
L 360.412281 41.298087 
z
" clip-path="url(#p87bdf3e871)" style="fill: #1f77b4"/>
   </g>
   <g id="patch_185">
    <path d="M 362.023748 273.312 
L 363.635215 273.312 
L 363.635215 63.948522 
L 362.023748 63.948522 
z
" clip-path="url(#p87bdf3e871)" style="fill: #1f77b4"/>
   </g>
   <g id="patch_186">
    <path d="M 363.635215 273.312 
L 365.246682 273.312 
L 365.246682 27.218087 
L 363.635215 27.218087 
z
" clip-path="url(#p87bdf3e871)" style="fill: #1f77b4"/>
   </g>
   <g id="patch_187">
    <path d="M 365.246682 273.312 
L 366.85815 273.312 
L 366.85815 50.480696 
L 365.246682 50.480696 
z
" clip-path="url(#p87bdf3e871)" style="fill: #1f77b4"/>
   </g>
   <g id="patch_188">
    <path d="M 366.85815 273.312 
L 368.469617 273.312 
L 368.469617 48.032 
L 366.85815 48.032 
z
" clip-path="url(#p87bdf3e871)" style="fill: #1f77b4"/>
   </g>
   <g id="patch_189">
    <path d="M 368.469617 273.312 
L 370.081084 273.312 
L 370.081084 35.788522 
L 368.469617 35.788522 
z
" clip-path="url(#p87bdf3e871)" style="fill: #1f77b4"/>
   </g>
   <g id="patch_190">
    <path d="M 370.081084 273.312 
L 371.692551 273.312 
L 371.692551 65.785043 
L 370.081084 65.785043 
z
" clip-path="url(#p87bdf3e871)" style="fill: #1f77b4"/>
   </g>
   <g id="patch_191">
    <path d="M 371.692551 273.312 
L 373.304018 273.312 
L 373.304018 32.115478 
L 371.692551 32.115478 
z
" clip-path="url(#p87bdf3e871)" style="fill: #1f77b4"/>
   </g>
   <g id="patch_192">
    <path d="M 373.304018 273.312 
L 374.915485 273.312 
L 374.915485 57.214609 
L 373.304018 57.214609 
z
" clip-path="url(#p87bdf3e871)" style="fill: #1f77b4"/>
   </g>
   <g id="patch_193">
    <path d="M 374.915485 273.312 
L 376.526952 273.312 
L 376.526952 51.705043 
L 374.915485 51.705043 
z
" clip-path="url(#p87bdf3e871)" style="fill: #1f77b4"/>
   </g>
   <g id="patch_194">
    <path d="M 376.526952 273.312 
L 378.138419 273.312 
L 378.138419 59.05113 
L 376.526952 59.05113 
z
" clip-path="url(#p87bdf3e871)" style="fill: #1f77b4"/>
   </g>
   <g id="patch_195">
    <path d="M 378.138419 273.312 
L 379.749886 273.312 
L 379.749886 27.218087 
L 378.138419 27.218087 
z
" clip-path="url(#p87bdf3e871)" style="fill: #1f77b4"/>
   </g>
   <g id="patch_196">
    <path d="M 379.749886 273.312 
L 381.361353 273.312 
L 381.361353 45.583304 
L 379.749886 45.583304 
z
" clip-path="url(#p87bdf3e871)" style="fill: #1f77b4"/>
   </g>
   <g id="patch_197">
    <path d="M 381.361353 273.312 
L 382.97282 273.312 
L 382.97282 50.480696 
L 381.361353 50.480696 
z
" clip-path="url(#p87bdf3e871)" style="fill: #1f77b4"/>
   </g>
   <g id="patch_198">
    <path d="M 382.97282 273.312 
L 384.584287 273.312 
L 384.584287 51.705043 
L 382.97282 51.705043 
z
" clip-path="url(#p87bdf3e871)" style="fill: #1f77b4"/>
   </g>
   <g id="patch_199">
    <path d="M 384.584287 273.312 
L 386.195755 273.312 
L 386.195755 51.705043 
L 384.584287 51.705043 
z
" clip-path="url(#p87bdf3e871)" style="fill: #1f77b4"/>
   </g>
   <g id="patch_200">
    <path d="M 386.195755 273.312 
L 387.807222 273.312 
L 387.807222 20.484174 
L 386.195755 20.484174 
z
" clip-path="url(#p87bdf3e871)" style="fill: #1f77b4"/>
   </g>
   <g id="patch_201">
    <path d="M 387.807222 273.312 
L 389.418689 273.312 
L 389.418689 29.054609 
L 387.807222 29.054609 
z
" clip-path="url(#p87bdf3e871)" style="fill: #1f77b4"/>
   </g>
   <g id="patch_202">
    <path d="M 389.418689 273.312 
L 391.030156 273.312 
L 391.030156 19.872 
L 389.418689 19.872 
z
" clip-path="url(#p87bdf3e871)" style="fill: #1f77b4"/>
   </g>
   <g id="matplotlib.axis_1">
    <g id="xtick_1">
     <g id="line2d_1">
      <defs>
       <path id="md47396a078" d="M 0 0 
L 0 3.5 
" style="stroke: #000000; stroke-width: 0.8"/>
      </defs>
      <g>
       <use xlink:href="#md47396a078" x="66.376477" y="273.312" style="stroke: #000000; stroke-width: 0.8"/>
      </g>
     </g>
     <g id="text_1">
      <!-- 0.0 -->
      <g transform="translate(58.424915 287.910437)scale(0.1 -0.1)">
       <defs>
        <path id="DejaVuSans-30" d="M 2034 4250 
Q 1547 4250 1301 3770 
Q 1056 3291 1056 2328 
Q 1056 1369 1301 889 
Q 1547 409 2034 409 
Q 2525 409 2770 889 
Q 3016 1369 3016 2328 
Q 3016 3291 2770 3770 
Q 2525 4250 2034 4250 
z
M 2034 4750 
Q 2819 4750 3233 4129 
Q 3647 3509 3647 2328 
Q 3647 1150 3233 529 
Q 2819 -91 2034 -91 
Q 1250 -91 836 529 
Q 422 1150 422 2328 
Q 422 3509 836 4129 
Q 1250 4750 2034 4750 
z
" transform="scale(0.015625)"/>
        <path id="DejaVuSans-2e" d="M 684 794 
L 1344 794 
L 1344 0 
L 684 0 
L 684 794 
z
" transform="scale(0.015625)"/>
       </defs>
       <use xlink:href="#DejaVuSans-30"/>
       <use xlink:href="#DejaVuSans-2e" x="63.623047"/>
       <use xlink:href="#DejaVuSans-30" x="95.410156"/>
      </g>
     </g>
    </g>
    <g id="xtick_2">
     <g id="line2d_2">
      <g>
       <use xlink:href="#md47396a078" x="131.307386" y="273.312" style="stroke: #000000; stroke-width: 0.8"/>
      </g>
     </g>
     <g id="text_2">
      <!-- 0.2 -->
      <g transform="translate(123.355824 287.910437)scale(0.1 -0.1)">
       <defs>
        <path id="DejaVuSans-32" d="M 1228 531 
L 3431 531 
L 3431 0 
L 469 0 
L 469 531 
Q 828 903 1448 1529 
Q 2069 2156 2228 2338 
Q 2531 2678 2651 2914 
Q 2772 3150 2772 3378 
Q 2772 3750 2511 3984 
Q 2250 4219 1831 4219 
Q 1534 4219 1204 4116 
Q 875 4013 500 3803 
L 500 4441 
Q 881 4594 1212 4672 
Q 1544 4750 1819 4750 
Q 2544 4750 2975 4387 
Q 3406 4025 3406 3419 
Q 3406 3131 3298 2873 
Q 3191 2616 2906 2266 
Q 2828 2175 2409 1742 
Q 1991 1309 1228 531 
z
" transform="scale(0.015625)"/>
       </defs>
       <use xlink:href="#DejaVuSans-30"/>
       <use xlink:href="#DejaVuSans-2e" x="63.623047"/>
       <use xlink:href="#DejaVuSans-32" x="95.410156"/>
      </g>
     </g>
    </g>
    <g id="xtick_3">
     <g id="line2d_3">
      <g>
       <use xlink:href="#md47396a078" x="196.238295" y="273.312" style="stroke: #000000; stroke-width: 0.8"/>
      </g>
     </g>
     <g id="text_3">
      <!-- 0.4 -->
      <g transform="translate(188.286733 287.910437)scale(0.1 -0.1)">
       <defs>
        <path id="DejaVuSans-34" d="M 2419 4116 
L 825 1625 
L 2419 1625 
L 2419 4116 
z
M 2253 4666 
L 3047 4666 
L 3047 1625 
L 3713 1625 
L 3713 1100 
L 3047 1100 
L 3047 0 
L 2419 0 
L 2419 1100 
L 313 1100 
L 313 1709 
L 2253 4666 
z
" transform="scale(0.015625)"/>
       </defs>
       <use xlink:href="#DejaVuSans-30"/>
       <use xlink:href="#DejaVuSans-2e" x="63.623047"/>
       <use xlink:href="#DejaVuSans-34" x="95.410156"/>
      </g>
     </g>
    </g>
    <g id="xtick_4">
     <g id="line2d_4">
      <g>
       <use xlink:href="#md47396a078" x="261.169205" y="273.312" style="stroke: #000000; stroke-width: 0.8"/>
      </g>
     </g>
     <g id="text_4">
      <!-- 0.6 -->
      <g transform="translate(253.217642 287.910437)scale(0.1 -0.1)">
       <defs>
        <path id="DejaVuSans-36" d="M 2113 2584 
Q 1688 2584 1439 2293 
Q 1191 2003 1191 1497 
Q 1191 994 1439 701 
Q 1688 409 2113 409 
Q 2538 409 2786 701 
Q 3034 994 3034 1497 
Q 3034 2003 2786 2293 
Q 2538 2584 2113 2584 
z
M 3366 4563 
L 3366 3988 
Q 3128 4100 2886 4159 
Q 2644 4219 2406 4219 
Q 1781 4219 1451 3797 
Q 1122 3375 1075 2522 
Q 1259 2794 1537 2939 
Q 1816 3084 2150 3084 
Q 2853 3084 3261 2657 
Q 3669 2231 3669 1497 
Q 3669 778 3244 343 
Q 2819 -91 2113 -91 
Q 1303 -91 875 529 
Q 447 1150 447 2328 
Q 447 3434 972 4092 
Q 1497 4750 2381 4750 
Q 2619 4750 2861 4703 
Q 3103 4656 3366 4563 
z
" transform="scale(0.015625)"/>
       </defs>
       <use xlink:href="#DejaVuSans-30"/>
       <use xlink:href="#DejaVuSans-2e" x="63.623047"/>
       <use xlink:href="#DejaVuSans-36" x="95.410156"/>
      </g>
     </g>
    </g>
    <g id="xtick_5">
     <g id="line2d_5">
      <g>
       <use xlink:href="#md47396a078" x="326.100114" y="273.312" style="stroke: #000000; stroke-width: 0.8"/>
      </g>
     </g>
     <g id="text_5">
      <!-- 0.8 -->
      <g transform="translate(318.148551 287.910437)scale(0.1 -0.1)">
       <defs>
        <path id="DejaVuSans-38" d="M 2034 2216 
Q 1584 2216 1326 1975 
Q 1069 1734 1069 1313 
Q 1069 891 1326 650 
Q 1584 409 2034 409 
Q 2484 409 2743 651 
Q 3003 894 3003 1313 
Q 3003 1734 2745 1975 
Q 2488 2216 2034 2216 
z
M 1403 2484 
Q 997 2584 770 2862 
Q 544 3141 544 3541 
Q 544 4100 942 4425 
Q 1341 4750 2034 4750 
Q 2731 4750 3128 4425 
Q 3525 4100 3525 3541 
Q 3525 3141 3298 2862 
Q 3072 2584 2669 2484 
Q 3125 2378 3379 2068 
Q 3634 1759 3634 1313 
Q 3634 634 3220 271 
Q 2806 -91 2034 -91 
Q 1263 -91 848 271 
Q 434 634 434 1313 
Q 434 1759 690 2068 
Q 947 2378 1403 2484 
z
M 1172 3481 
Q 1172 3119 1398 2916 
Q 1625 2713 2034 2713 
Q 2441 2713 2670 2916 
Q 2900 3119 2900 3481 
Q 2900 3844 2670 4047 
Q 2441 4250 2034 4250 
Q 1625 4250 1398 4047 
Q 1172 3844 1172 3481 
z
" transform="scale(0.015625)"/>
       </defs>
       <use xlink:href="#DejaVuSans-30"/>
       <use xlink:href="#DejaVuSans-2e" x="63.623047"/>
       <use xlink:href="#DejaVuSans-38" x="95.410156"/>
      </g>
     </g>
    </g>
    <g id="xtick_6">
     <g id="line2d_6">
      <g>
       <use xlink:href="#md47396a078" x="391.031023" y="273.312" style="stroke: #000000; stroke-width: 0.8"/>
      </g>
     </g>
     <g id="text_6">
      <!-- 1.0 -->
      <g transform="translate(383.07946 287.910437)scale(0.1 -0.1)">
       <defs>
        <path id="DejaVuSans-31" d="M 794 531 
L 1825 531 
L 1825 4091 
L 703 3866 
L 703 4441 
L 1819 4666 
L 2450 4666 
L 2450 531 
L 3481 531 
L 3481 0 
L 794 0 
L 794 531 
z
" transform="scale(0.015625)"/>
       </defs>
       <use xlink:href="#DejaVuSans-31"/>
       <use xlink:href="#DejaVuSans-2e" x="63.623047"/>
       <use xlink:href="#DejaVuSans-30" x="95.410156"/>
      </g>
     </g>
    </g>
    <g id="text_7">
     <!-- Propagation direction -->
     <g transform="translate(175.221719 301.588562)scale(0.1 -0.1)">
      <defs>
       <path id="DejaVuSans-50" d="M 1259 4147 
L 1259 2394 
L 2053 2394 
Q 2494 2394 2734 2622 
Q 2975 2850 2975 3272 
Q 2975 3691 2734 3919 
Q 2494 4147 2053 4147 
L 1259 4147 
z
M 628 4666 
L 2053 4666 
Q 2838 4666 3239 4311 
Q 3641 3956 3641 3272 
Q 3641 2581 3239 2228 
Q 2838 1875 2053 1875 
L 1259 1875 
L 1259 0 
L 628 0 
L 628 4666 
z
" transform="scale(0.015625)"/>
       <path id="DejaVuSans-72" d="M 2631 2963 
Q 2534 3019 2420 3045 
Q 2306 3072 2169 3072 
Q 1681 3072 1420 2755 
Q 1159 2438 1159 1844 
L 1159 0 
L 581 0 
L 581 3500 
L 1159 3500 
L 1159 2956 
Q 1341 3275 1631 3429 
Q 1922 3584 2338 3584 
Q 2397 3584 2469 3576 
Q 2541 3569 2628 3553 
L 2631 2963 
z
" transform="scale(0.015625)"/>
       <path id="DejaVuSans-6f" d="M 1959 3097 
Q 1497 3097 1228 2736 
Q 959 2375 959 1747 
Q 959 1119 1226 758 
Q 1494 397 1959 397 
Q 2419 397 2687 759 
Q 2956 1122 2956 1747 
Q 2956 2369 2687 2733 
Q 2419 3097 1959 3097 
z
M 1959 3584 
Q 2709 3584 3137 3096 
Q 3566 2609 3566 1747 
Q 3566 888 3137 398 
Q 2709 -91 1959 -91 
Q 1206 -91 779 398 
Q 353 888 353 1747 
Q 353 2609 779 3096 
Q 1206 3584 1959 3584 
z
" transform="scale(0.015625)"/>
       <path id="DejaVuSans-70" d="M 1159 525 
L 1159 -1331 
L 581 -1331 
L 581 3500 
L 1159 3500 
L 1159 2969 
Q 1341 3281 1617 3432 
Q 1894 3584 2278 3584 
Q 2916 3584 3314 3078 
Q 3713 2572 3713 1747 
Q 3713 922 3314 415 
Q 2916 -91 2278 -91 
Q 1894 -91 1617 61 
Q 1341 213 1159 525 
z
M 3116 1747 
Q 3116 2381 2855 2742 
Q 2594 3103 2138 3103 
Q 1681 3103 1420 2742 
Q 1159 2381 1159 1747 
Q 1159 1113 1420 752 
Q 1681 391 2138 391 
Q 2594 391 2855 752 
Q 3116 1113 3116 1747 
z
" transform="scale(0.015625)"/>
       <path id="DejaVuSans-61" d="M 2194 1759 
Q 1497 1759 1228 1600 
Q 959 1441 959 1056 
Q 959 750 1161 570 
Q 1363 391 1709 391 
Q 2188 391 2477 730 
Q 2766 1069 2766 1631 
L 2766 1759 
L 2194 1759 
z
M 3341 1997 
L 3341 0 
L 2766 0 
L 2766 531 
Q 2569 213 2275 61 
Q 1981 -91 1556 -91 
Q 1019 -91 701 211 
Q 384 513 384 1019 
Q 384 1609 779 1909 
Q 1175 2209 1959 2209 
L 2766 2209 
L 2766 2266 
Q 2766 2663 2505 2880 
Q 2244 3097 1772 3097 
Q 1472 3097 1187 3025 
Q 903 2953 641 2809 
L 641 3341 
Q 956 3463 1253 3523 
Q 1550 3584 1831 3584 
Q 2591 3584 2966 3190 
Q 3341 2797 3341 1997 
z
" transform="scale(0.015625)"/>
       <path id="DejaVuSans-67" d="M 2906 1791 
Q 2906 2416 2648 2759 
Q 2391 3103 1925 3103 
Q 1463 3103 1205 2759 
Q 947 2416 947 1791 
Q 947 1169 1205 825 
Q 1463 481 1925 481 
Q 2391 481 2648 825 
Q 2906 1169 2906 1791 
z
M 3481 434 
Q 3481 -459 3084 -895 
Q 2688 -1331 1869 -1331 
Q 1566 -1331 1297 -1286 
Q 1028 -1241 775 -1147 
L 775 -588 
Q 1028 -725 1275 -790 
Q 1522 -856 1778 -856 
Q 2344 -856 2625 -561 
Q 2906 -266 2906 331 
L 2906 616 
Q 2728 306 2450 153 
Q 2172 0 1784 0 
Q 1141 0 747 490 
Q 353 981 353 1791 
Q 353 2603 747 3093 
Q 1141 3584 1784 3584 
Q 2172 3584 2450 3431 
Q 2728 3278 2906 2969 
L 2906 3500 
L 3481 3500 
L 3481 434 
z
" transform="scale(0.015625)"/>
       <path id="DejaVuSans-74" d="M 1172 4494 
L 1172 3500 
L 2356 3500 
L 2356 3053 
L 1172 3053 
L 1172 1153 
Q 1172 725 1289 603 
Q 1406 481 1766 481 
L 2356 481 
L 2356 0 
L 1766 0 
Q 1100 0 847 248 
Q 594 497 594 1153 
L 594 3053 
L 172 3053 
L 172 3500 
L 594 3500 
L 594 4494 
L 1172 4494 
z
" transform="scale(0.015625)"/>
       <path id="DejaVuSans-69" d="M 603 3500 
L 1178 3500 
L 1178 0 
L 603 0 
L 603 3500 
z
M 603 4863 
L 1178 4863 
L 1178 4134 
L 603 4134 
L 603 4863 
z
" transform="scale(0.015625)"/>
       <path id="DejaVuSans-6e" d="M 3513 2113 
L 3513 0 
L 2938 0 
L 2938 2094 
Q 2938 2591 2744 2837 
Q 2550 3084 2163 3084 
Q 1697 3084 1428 2787 
Q 1159 2491 1159 1978 
L 1159 0 
L 581 0 
L 581 3500 
L 1159 3500 
L 1159 2956 
Q 1366 3272 1645 3428 
Q 1925 3584 2291 3584 
Q 2894 3584 3203 3211 
Q 3513 2838 3513 2113 
z
" transform="scale(0.015625)"/>
       <path id="DejaVuSans-20" transform="scale(0.015625)"/>
       <path id="DejaVuSans-64" d="M 2906 2969 
L 2906 4863 
L 3481 4863 
L 3481 0 
L 2906 0 
L 2906 525 
Q 2725 213 2448 61 
Q 2172 -91 1784 -91 
Q 1150 -91 751 415 
Q 353 922 353 1747 
Q 353 2572 751 3078 
Q 1150 3584 1784 3584 
Q 2172 3584 2448 3432 
Q 2725 3281 2906 2969 
z
M 947 1747 
Q 947 1113 1208 752 
Q 1469 391 1925 391 
Q 2381 391 2643 752 
Q 2906 1113 2906 1747 
Q 2906 2381 2643 2742 
Q 2381 3103 1925 3103 
Q 1469 3103 1208 2742 
Q 947 2381 947 1747 
z
" transform="scale(0.015625)"/>
       <path id="DejaVuSans-65" d="M 3597 1894 
L 3597 1613 
L 953 1613 
Q 991 1019 1311 708 
Q 1631 397 2203 397 
Q 2534 397 2845 478 
Q 3156 559 3463 722 
L 3463 178 
Q 3153 47 2828 -22 
Q 2503 -91 2169 -91 
Q 1331 -91 842 396 
Q 353 884 353 1716 
Q 353 2575 817 3079 
Q 1281 3584 2069 3584 
Q 2775 3584 3186 3129 
Q 3597 2675 3597 1894 
z
M 3022 2063 
Q 3016 2534 2758 2815 
Q 2500 3097 2075 3097 
Q 1594 3097 1305 2825 
Q 1016 2553 972 2059 
L 3022 2063 
z
" transform="scale(0.015625)"/>
       <path id="DejaVuSans-63" d="M 3122 3366 
L 3122 2828 
Q 2878 2963 2633 3030 
Q 2388 3097 2138 3097 
Q 1578 3097 1268 2742 
Q 959 2388 959 1747 
Q 959 1106 1268 751 
Q 1578 397 2138 397 
Q 2388 397 2633 464 
Q 2878 531 3122 666 
L 3122 134 
Q 2881 22 2623 -34 
Q 2366 -91 2075 -91 
Q 1284 -91 818 406 
Q 353 903 353 1747 
Q 353 2603 823 3093 
Q 1294 3584 2113 3584 
Q 2378 3584 2631 3529 
Q 2884 3475 3122 3366 
z
" transform="scale(0.015625)"/>
      </defs>
      <use xlink:href="#DejaVuSans-50"/>
      <use xlink:href="#DejaVuSans-72" x="58.552734"/>
      <use xlink:href="#DejaVuSans-6f" x="97.416016"/>
      <use xlink:href="#DejaVuSans-70" x="158.597656"/>
      <use xlink:href="#DejaVuSans-61" x="222.074219"/>
      <use xlink:href="#DejaVuSans-67" x="283.353516"/>
      <use xlink:href="#DejaVuSans-61" x="346.830078"/>
      <use xlink:href="#DejaVuSans-74" x="408.109375"/>
      <use xlink:href="#DejaVuSans-69" x="447.318359"/>
      <use xlink:href="#DejaVuSans-6f" x="475.101562"/>
      <use xlink:href="#DejaVuSans-6e" x="536.283203"/>
      <use xlink:href="#DejaVuSans-20" x="599.662109"/>
      <use xlink:href="#DejaVuSans-64" x="631.449219"/>
      <use xlink:href="#DejaVuSans-69" x="694.925781"/>
      <use xlink:href="#DejaVuSans-72" x="722.708984"/>
      <use xlink:href="#DejaVuSans-65" x="761.572266"/>
      <use xlink:href="#DejaVuSans-63" x="823.095703"/>
      <use xlink:href="#DejaVuSans-74" x="878.076172"/>
      <use xlink:href="#DejaVuSans-69" x="917.285156"/>
      <use xlink:href="#DejaVuSans-6f" x="945.068359"/>
      <use xlink:href="#DejaVuSans-6e" x="1006.25"/>
     </g>
    </g>
   </g>
   <g id="matplotlib.axis_2">
    <g id="ytick_1">
     <g id="line2d_7">
      <defs>
       <path id="m8a21fa4f2f" d="M 0 0 
L -3.5 0 
" style="stroke: #000000; stroke-width: 0.8"/>
      </defs>
      <g>
       <use xlink:href="#m8a21fa4f2f" x="50.14375" y="273.312" style="stroke: #000000; stroke-width: 0.8"/>
      </g>
     </g>
     <g id="text_8">
      <!-- 0.00 -->
      <g transform="translate(20.878125 277.111219)scale(0.1 -0.1)">
       <use xlink:href="#DejaVuSans-30"/>
       <use xlink:href="#DejaVuSans-2e" x="63.623047"/>
       <use xlink:href="#DejaVuSans-30" x="95.410156"/>
       <use xlink:href="#DejaVuSans-30" x="159.033203"/>
      </g>
     </g>
    </g>
    <g id="ytick_2">
     <g id="line2d_8">
      <g>
       <use xlink:href="#m8a21fa4f2f" x="50.14375" y="242.925913" style="stroke: #000000; stroke-width: 0.8"/>
      </g>
     </g>
     <g id="text_9">
      <!-- 0.25 -->
      <g transform="translate(20.878125 246.725132)scale(0.1 -0.1)">
       <defs>
        <path id="DejaVuSans-35" d="M 691 4666 
L 3169 4666 
L 3169 4134 
L 1269 4134 
L 1269 2991 
Q 1406 3038 1543 3061 
Q 1681 3084 1819 3084 
Q 2600 3084 3056 2656 
Q 3513 2228 3513 1497 
Q 3513 744 3044 326 
Q 2575 -91 1722 -91 
Q 1428 -91 1123 -41 
Q 819 9 494 109 
L 494 744 
Q 775 591 1075 516 
Q 1375 441 1709 441 
Q 2250 441 2565 725 
Q 2881 1009 2881 1497 
Q 2881 1984 2565 2268 
Q 2250 2553 1709 2553 
Q 1456 2553 1204 2497 
Q 953 2441 691 2322 
L 691 4666 
z
" transform="scale(0.015625)"/>
       </defs>
       <use xlink:href="#DejaVuSans-30"/>
       <use xlink:href="#DejaVuSans-2e" x="63.623047"/>
       <use xlink:href="#DejaVuSans-32" x="95.410156"/>
       <use xlink:href="#DejaVuSans-35" x="159.033203"/>
      </g>
     </g>
    </g>
    <g id="ytick_3">
     <g id="line2d_9">
      <g>
       <use xlink:href="#m8a21fa4f2f" x="50.14375" y="212.539827" style="stroke: #000000; stroke-width: 0.8"/>
      </g>
     </g>
     <g id="text_10">
      <!-- 0.50 -->
      <g transform="translate(20.878125 216.339046)scale(0.1 -0.1)">
       <use xlink:href="#DejaVuSans-30"/>
       <use xlink:href="#DejaVuSans-2e" x="63.623047"/>
       <use xlink:href="#DejaVuSans-35" x="95.410156"/>
       <use xlink:href="#DejaVuSans-30" x="159.033203"/>
      </g>
     </g>
    </g>
    <g id="ytick_4">
     <g id="line2d_10">
      <g>
       <use xlink:href="#m8a21fa4f2f" x="50.14375" y="182.15374" style="stroke: #000000; stroke-width: 0.8"/>
      </g>
     </g>
     <g id="text_11">
      <!-- 0.75 -->
      <g transform="translate(20.878125 185.952959)scale(0.1 -0.1)">
       <defs>
        <path id="DejaVuSans-37" d="M 525 4666 
L 3525 4666 
L 3525 4397 
L 1831 0 
L 1172 0 
L 2766 4134 
L 525 4134 
L 525 4666 
z
" transform="scale(0.015625)"/>
       </defs>
       <use xlink:href="#DejaVuSans-30"/>
       <use xlink:href="#DejaVuSans-2e" x="63.623047"/>
       <use xlink:href="#DejaVuSans-37" x="95.410156"/>
       <use xlink:href="#DejaVuSans-35" x="159.033203"/>
      </g>
     </g>
    </g>
    <g id="ytick_5">
     <g id="line2d_11">
      <g>
       <use xlink:href="#m8a21fa4f2f" x="50.14375" y="151.767654" style="stroke: #000000; stroke-width: 0.8"/>
      </g>
     </g>
     <g id="text_12">
      <!-- 1.00 -->
      <g transform="translate(20.878125 155.566873)scale(0.1 -0.1)">
       <use xlink:href="#DejaVuSans-31"/>
       <use xlink:href="#DejaVuSans-2e" x="63.623047"/>
       <use xlink:href="#DejaVuSans-30" x="95.410156"/>
       <use xlink:href="#DejaVuSans-30" x="159.033203"/>
      </g>
     </g>
    </g>
    <g id="ytick_6">
     <g id="line2d_12">
      <g>
       <use xlink:href="#m8a21fa4f2f" x="50.14375" y="121.381567" style="stroke: #000000; stroke-width: 0.8"/>
      </g>
     </g>
     <g id="text_13">
      <!-- 1.25 -->
      <g transform="translate(20.878125 125.180786)scale(0.1 -0.1)">
       <use xlink:href="#DejaVuSans-31"/>
       <use xlink:href="#DejaVuSans-2e" x="63.623047"/>
       <use xlink:href="#DejaVuSans-32" x="95.410156"/>
       <use xlink:href="#DejaVuSans-35" x="159.033203"/>
      </g>
     </g>
    </g>
    <g id="ytick_7">
     <g id="line2d_13">
      <g>
       <use xlink:href="#m8a21fa4f2f" x="50.14375" y="90.995481" style="stroke: #000000; stroke-width: 0.8"/>
      </g>
     </g>
     <g id="text_14">
      <!-- 1.50 -->
      <g transform="translate(20.878125 94.7947)scale(0.1 -0.1)">
       <use xlink:href="#DejaVuSans-31"/>
       <use xlink:href="#DejaVuSans-2e" x="63.623047"/>
       <use xlink:href="#DejaVuSans-35" x="95.410156"/>
       <use xlink:href="#DejaVuSans-30" x="159.033203"/>
      </g>
     </g>
    </g>
    <g id="ytick_8">
     <g id="line2d_14">
      <g>
       <use xlink:href="#m8a21fa4f2f" x="50.14375" y="60.609394" style="stroke: #000000; stroke-width: 0.8"/>
      </g>
     </g>
     <g id="text_15">
      <!-- 1.75 -->
      <g transform="translate(20.878125 64.408613)scale(0.1 -0.1)">
       <use xlink:href="#DejaVuSans-31"/>
       <use xlink:href="#DejaVuSans-2e" x="63.623047"/>
       <use xlink:href="#DejaVuSans-37" x="95.410156"/>
       <use xlink:href="#DejaVuSans-35" x="159.033203"/>
      </g>
     </g>
    </g>
    <g id="ytick_9">
     <g id="line2d_15">
      <g>
       <use xlink:href="#m8a21fa4f2f" x="50.14375" y="30.223308" style="stroke: #000000; stroke-width: 0.8"/>
      </g>
     </g>
     <g id="text_16">
      <!-- 2.00 -->
      <g transform="translate(20.878125 34.022527)scale(0.1 -0.1)">
       <use xlink:href="#DejaVuSans-32"/>
       <use xlink:href="#DejaVuSans-2e" x="63.623047"/>
       <use xlink:href="#DejaVuSans-30" x="95.410156"/>
       <use xlink:href="#DejaVuSans-30" x="159.033203"/>
      </g>
     </g>
    </g>
    <g id="text_17">
     <!-- Probability density -->
     <g transform="translate(14.798438 186.606781)rotate(-90)scale(0.1 -0.1)">
      <defs>
       <path id="DejaVuSans-62" d="M 3116 1747 
Q 3116 2381 2855 2742 
Q 2594 3103 2138 3103 
Q 1681 3103 1420 2742 
Q 1159 2381 1159 1747 
Q 1159 1113 1420 752 
Q 1681 391 2138 391 
Q 2594 391 2855 752 
Q 3116 1113 3116 1747 
z
M 1159 2969 
Q 1341 3281 1617 3432 
Q 1894 3584 2278 3584 
Q 2916 3584 3314 3078 
Q 3713 2572 3713 1747 
Q 3713 922 3314 415 
Q 2916 -91 2278 -91 
Q 1894 -91 1617 61 
Q 1341 213 1159 525 
L 1159 0 
L 581 0 
L 581 4863 
L 1159 4863 
L 1159 2969 
z
" transform="scale(0.015625)"/>
       <path id="DejaVuSans-6c" d="M 603 4863 
L 1178 4863 
L 1178 0 
L 603 0 
L 603 4863 
z
" transform="scale(0.015625)"/>
       <path id="DejaVuSans-79" d="M 2059 -325 
Q 1816 -950 1584 -1140 
Q 1353 -1331 966 -1331 
L 506 -1331 
L 506 -850 
L 844 -850 
Q 1081 -850 1212 -737 
Q 1344 -625 1503 -206 
L 1606 56 
L 191 3500 
L 800 3500 
L 1894 763 
L 2988 3500 
L 3597 3500 
L 2059 -325 
z
" transform="scale(0.015625)"/>
       <path id="DejaVuSans-73" d="M 2834 3397 
L 2834 2853 
Q 2591 2978 2328 3040 
Q 2066 3103 1784 3103 
Q 1356 3103 1142 2972 
Q 928 2841 928 2578 
Q 928 2378 1081 2264 
Q 1234 2150 1697 2047 
L 1894 2003 
Q 2506 1872 2764 1633 
Q 3022 1394 3022 966 
Q 3022 478 2636 193 
Q 2250 -91 1575 -91 
Q 1294 -91 989 -36 
Q 684 19 347 128 
L 347 722 
Q 666 556 975 473 
Q 1284 391 1588 391 
Q 1994 391 2212 530 
Q 2431 669 2431 922 
Q 2431 1156 2273 1281 
Q 2116 1406 1581 1522 
L 1381 1569 
Q 847 1681 609 1914 
Q 372 2147 372 2553 
Q 372 3047 722 3315 
Q 1072 3584 1716 3584 
Q 2034 3584 2315 3537 
Q 2597 3491 2834 3397 
z
" transform="scale(0.015625)"/>
      </defs>
      <use xlink:href="#DejaVuSans-50"/>
      <use xlink:href="#DejaVuSans-72" x="58.552734"/>
      <use xlink:href="#DejaVuSans-6f" x="97.416016"/>
      <use xlink:href="#DejaVuSans-62" x="158.597656"/>
      <use xlink:href="#DejaVuSans-61" x="222.074219"/>
      <use xlink:href="#DejaVuSans-62" x="283.353516"/>
      <use xlink:href="#DejaVuSans-69" x="346.830078"/>
      <use xlink:href="#DejaVuSans-6c" x="374.613281"/>
      <use xlink:href="#DejaVuSans-69" x="402.396484"/>
      <use xlink:href="#DejaVuSans-74" x="430.179688"/>
      <use xlink:href="#DejaVuSans-79" x="469.388672"/>
      <use xlink:href="#DejaVuSans-20" x="528.568359"/>
      <use xlink:href="#DejaVuSans-64" x="560.355469"/>
      <use xlink:href="#DejaVuSans-65" x="623.832031"/>
      <use xlink:href="#DejaVuSans-6e" x="685.355469"/>
      <use xlink:href="#DejaVuSans-73" x="748.734375"/>
      <use xlink:href="#DejaVuSans-69" x="800.833984"/>
      <use xlink:href="#DejaVuSans-74" x="828.617188"/>
      <use xlink:href="#DejaVuSans-79" x="867.826172"/>
     </g>
    </g>
   </g>
   <g id="line2d_16">
    <path d="M 66.376477 273.312 
L 391.031023 30.223308 
L 391.031023 30.223308 
" clip-path="url(#p87bdf3e871)" style="fill: none; stroke: #ff7f0e; stroke-width: 1.5; stroke-linecap: square"/>
   </g>
   <g id="patch_203">
    <path d="M 50.14375 273.312 
L 50.14375 7.2 
" style="fill: none; stroke: #000000; stroke-width: 0.8; stroke-linejoin: miter; stroke-linecap: square"/>
   </g>
   <g id="patch_204">
    <path d="M 407.26375 273.312 
L 407.26375 7.2 
" style="fill: none; stroke: #000000; stroke-width: 0.8; stroke-linejoin: miter; stroke-linecap: square"/>
   </g>
   <g id="patch_205">
    <path d="M 50.14375 273.312 
L 407.26375 273.312 
" style="fill: none; stroke: #000000; stroke-width: 0.8; stroke-linejoin: miter; stroke-linecap: square"/>
   </g>
   <g id="patch_206">
    <path d="M 50.14375 7.2 
L 407.26375 7.2 
" style="fill: none; stroke: #000000; stroke-width: 0.8; stroke-linejoin: miter; stroke-linecap: square"/>
   </g>
  </g>
 </g>
 <defs>
  <clipPath id="p87bdf3e871">
   <rect x="50.14375" y="7.2" width="357.12" height="266.112"/>
  </clipPath>
 </defs>
</svg>
