<?xml version="1.0" encoding="utf-8" standalone="no"?>
<!DOCTYPE svg PUBLIC "-//W3C//DTD SVG 1.1//EN"
  "http://www.w3.org/Graphics/SVG/1.1/DTD/svg11.dtd">
<svg xmlns:xlink="http://www.w3.org/1999/xlink" width="408.10125pt" height="310.86825pt" viewBox="0 0 408.10125 310.86825" xmlns="http://www.w3.org/2000/svg" version="1.1">
 <metadata>
  <rdf:RDF xmlns:dc="http://purl.org/dc/elements/1.1/" xmlns:cc="http://creativecommons.org/ns#" xmlns:rdf="http://www.w3.org/1999/02/22-rdf-syntax-ns#">
   <cc:Work>
    <dc:type rdf:resource="http://purl.org/dc/dcmitype/StillImage"/>
    <dc:date>2022-05-10T18:18:03.058137</dc:date>
    <dc:format>image/svg+xml</dc:format>
    <dc:creator>
     <cc:Agent>
      <dc:title>Matplotlib v3.5.2, https://matplotlib.org/</dc:title>
     </cc:Agent>
    </dc:creator>
   </cc:Work>
  </rdf:RDF>
 </metadata>
 <defs>
  <style type="text/css">*{stroke-linejoin: round; stroke-linecap: butt}</style>
 </defs>
 <g id="figure_1">
  <g id="patch_1">
   <path d="M 0 310.86825 
L 408.10125 310.86825 
L 408.10125 0 
L 0 0 
z
" style="fill: #ffffff"/>
  </g>
  <g id="axes_1">
   <g id="patch_2">
    <path d="M 43.78125 273.312 
L 400.90125 273.312 
L 400.90125 7.2 
L 43.78125 7.2 
z
" style="fill: #ffffff"/>
   </g>
   <g id="patch_3">
    <path d="M 62.671271 273.312 
L 64.281245 273.312 
L 64.281245 269.767385 
L 62.671271 269.767385 
z
" clip-path="url(#pf21b2bf327)" style="fill: #1f77b4"/>
   </g>
   <g id="patch_4">
    <path d="M 64.281245 273.312 
L 65.891219 273.312 
L 65.891219 269.176615 
L 64.281245 269.176615 
z
" clip-path="url(#pf21b2bf327)" style="fill: #1f77b4"/>
   </g>
   <g id="patch_5">
    <path d="M 65.891219 273.312 
L 67.501194 273.312 
L 67.501194 268.585846 
L 65.891219 268.585846 
z
" clip-path="url(#pf21b2bf327)" style="fill: #1f77b4"/>
   </g>
   <g id="patch_6">
    <path d="M 67.501194 273.312 
L 69.111168 273.312 
L 69.111168 266.813538 
L 67.501194 266.813538 
z
" clip-path="url(#pf21b2bf327)" style="fill: #1f77b4"/>
   </g>
   <g id="patch_7">
    <path d="M 69.111168 273.312 
L 70.721142 273.312 
L 70.721142 268.585846 
L 69.111168 268.585846 
z
" clip-path="url(#pf21b2bf327)" style="fill: #1f77b4"/>
   </g>
   <g id="patch_8">
    <path d="M 70.721142 273.312 
L 72.331117 273.312 
L 72.331117 267.995077 
L 70.721142 267.995077 
z
" clip-path="url(#pf21b2bf327)" style="fill: #1f77b4"/>
   </g>
   <g id="patch_9">
    <path d="M 72.331117 273.312 
L 73.941091 273.312 
L 73.941091 263.268923 
L 72.331117 263.268923 
z
" clip-path="url(#pf21b2bf327)" style="fill: #1f77b4"/>
   </g>
   <g id="patch_10">
    <path d="M 73.941091 273.312 
L 75.551066 273.312 
L 75.551066 261.496615 
L 73.941091 261.496615 
z
" clip-path="url(#pf21b2bf327)" style="fill: #1f77b4"/>
   </g>
   <g id="patch_11">
    <path d="M 75.551066 273.312 
L 77.16104 273.312 
L 77.16104 259.133538 
L 75.551066 259.133538 
z
" clip-path="url(#pf21b2bf327)" style="fill: #1f77b4"/>
   </g>
   <g id="patch_12">
    <path d="M 77.16104 273.312 
L 78.771014 273.312 
L 78.771014 260.315077 
L 77.16104 260.315077 
z
" clip-path="url(#pf21b2bf327)" style="fill: #1f77b4"/>
   </g>
   <g id="patch_13">
    <path d="M 78.771014 273.312 
L 80.380989 273.312 
L 80.380989 256.770462 
L 78.771014 256.770462 
z
" clip-path="url(#pf21b2bf327)" style="fill: #1f77b4"/>
   </g>
   <g id="patch_14">
    <path d="M 80.380989 273.312 
L 81.990963 273.312 
L 81.990963 260.905846 
L 80.380989 260.905846 
z
" clip-path="url(#pf21b2bf327)" style="fill: #1f77b4"/>
   </g>
   <g id="patch_15">
    <path d="M 81.990963 273.312 
L 83.600937 273.312 
L 83.600937 259.133538 
L 81.990963 259.133538 
z
" clip-path="url(#pf21b2bf327)" style="fill: #1f77b4"/>
   </g>
   <g id="patch_16">
    <path d="M 83.600937 273.312 
L 85.210912 273.312 
L 85.210912 259.724308 
L 83.600937 259.724308 
z
" clip-path="url(#pf21b2bf327)" style="fill: #1f77b4"/>
   </g>
   <g id="patch_17">
    <path d="M 85.210912 273.312 
L 86.820886 273.312 
L 86.820886 252.635077 
L 85.210912 252.635077 
z
" clip-path="url(#pf21b2bf327)" style="fill: #1f77b4"/>
   </g>
   <g id="patch_18">
    <path d="M 86.820886 273.312 
L 88.430861 273.312 
L 88.430861 254.998154 
L 86.820886 254.998154 
z
" clip-path="url(#pf21b2bf327)" style="fill: #1f77b4"/>
   </g>
   <g id="patch_19">
    <path d="M 88.430861 273.312 
L 90.040835 273.312 
L 90.040835 245.545846 
L 88.430861 245.545846 
z
" clip-path="url(#pf21b2bf327)" style="fill: #1f77b4"/>
   </g>
   <g id="patch_20">
    <path d="M 90.040835 273.312 
L 91.650809 273.312 
L 91.650809 255.588923 
L 90.040835 255.588923 
z
" clip-path="url(#pf21b2bf327)" style="fill: #1f77b4"/>
   </g>
   <g id="patch_21">
    <path d="M 91.650809 273.312 
L 93.260784 273.312 
L 93.260784 252.635077 
L 91.650809 252.635077 
z
" clip-path="url(#pf21b2bf327)" style="fill: #1f77b4"/>
   </g>
   <g id="patch_22">
    <path d="M 93.260784 273.312 
L 94.870758 273.312 
L 94.870758 249.090462 
L 93.260784 249.090462 
z
" clip-path="url(#pf21b2bf327)" style="fill: #1f77b4"/>
   </g>
   <g id="patch_23">
    <path d="M 94.870758 273.312 
L 96.480732 273.312 
L 96.480732 252.044308 
L 94.870758 252.044308 
z
" clip-path="url(#pf21b2bf327)" style="fill: #1f77b4"/>
   </g>
   <g id="patch_24">
    <path d="M 96.480732 273.312 
L 98.090707 273.312 
L 98.090707 245.545846 
L 96.480732 245.545846 
z
" clip-path="url(#pf21b2bf327)" style="fill: #1f77b4"/>
   </g>
   <g id="patch_25">
    <path d="M 98.090707 273.312 
L 99.700681 273.312 
L 99.700681 243.773538 
L 98.090707 243.773538 
z
" clip-path="url(#pf21b2bf327)" style="fill: #1f77b4"/>
   </g>
   <g id="patch_26">
    <path d="M 99.700681 273.312 
L 101.310656 273.312 
L 101.310656 248.499692 
L 99.700681 248.499692 
z
" clip-path="url(#pf21b2bf327)" style="fill: #1f77b4"/>
   </g>
   <g id="patch_27">
    <path d="M 101.310656 273.312 
L 102.92063 273.312 
L 102.92063 246.136615 
L 101.310656 246.136615 
z
" clip-path="url(#pf21b2bf327)" style="fill: #1f77b4"/>
   </g>
   <g id="patch_28">
    <path d="M 102.92063 273.312 
L 104.530604 273.312 
L 104.530604 238.456615 
L 102.92063 238.456615 
z
" clip-path="url(#pf21b2bf327)" style="fill: #1f77b4"/>
   </g>
   <g id="patch_29">
    <path d="M 104.530604 273.312 
L 106.140579 273.312 
L 106.140579 238.456615 
L 104.530604 238.456615 
z
" clip-path="url(#pf21b2bf327)" style="fill: #1f77b4"/>
   </g>
   <g id="patch_30">
    <path d="M 106.140579 273.312 
L 107.750553 273.312 
L 107.750553 234.321231 
L 106.140579 234.321231 
z
" clip-path="url(#pf21b2bf327)" style="fill: #1f77b4"/>
   </g>
   <g id="patch_31">
    <path d="M 107.750553 273.312 
L 109.360527 273.312 
L 109.360527 231.367385 
L 107.750553 231.367385 
z
" clip-path="url(#pf21b2bf327)" style="fill: #1f77b4"/>
   </g>
   <g id="patch_32">
    <path d="M 109.360527 273.312 
L 110.970502 273.312 
L 110.970502 234.321231 
L 109.360527 234.321231 
z
" clip-path="url(#pf21b2bf327)" style="fill: #1f77b4"/>
   </g>
   <g id="patch_33">
    <path d="M 110.970502 273.312 
L 112.580476 273.312 
L 112.580476 240.819692 
L 110.970502 240.819692 
z
" clip-path="url(#pf21b2bf327)" style="fill: #1f77b4"/>
   </g>
   <g id="patch_34">
    <path d="M 112.580476 273.312 
L 114.190451 273.312 
L 114.190451 234.912 
L 112.580476 234.912 
z
" clip-path="url(#pf21b2bf327)" style="fill: #1f77b4"/>
   </g>
   <g id="patch_35">
    <path d="M 114.190451 273.312 
L 115.800425 273.312 
L 115.800425 223.687385 
L 114.190451 223.687385 
z
" clip-path="url(#pf21b2bf327)" style="fill: #1f77b4"/>
   </g>
   <g id="patch_36">
    <path d="M 115.800425 273.312 
L 117.410399 273.312 
L 117.410399 228.413538 
L 115.800425 228.413538 
z
" clip-path="url(#pf21b2bf327)" style="fill: #1f77b4"/>
   </g>
   <g id="patch_37">
    <path d="M 117.410399 273.312 
L 119.020374 273.312 
L 119.020374 225.459692 
L 117.410399 225.459692 
z
" clip-path="url(#pf21b2bf327)" style="fill: #1f77b4"/>
   </g>
   <g id="patch_38">
    <path d="M 119.020374 273.312 
L 120.630348 273.312 
L 120.630348 224.278154 
L 119.020374 224.278154 
z
" clip-path="url(#pf21b2bf327)" style="fill: #1f77b4"/>
   </g>
   <g id="patch_39">
    <path d="M 120.630348 273.312 
L 122.240322 273.312 
L 122.240322 234.321231 
L 120.630348 234.321231 
z
" clip-path="url(#pf21b2bf327)" style="fill: #1f77b4"/>
   </g>
   <g id="patch_40">
    <path d="M 122.240322 273.312 
L 123.850297 273.312 
L 123.850297 229.004308 
L 122.240322 229.004308 
z
" clip-path="url(#pf21b2bf327)" style="fill: #1f77b4"/>
   </g>
   <g id="patch_41">
    <path d="M 123.850297 273.312 
L 125.460271 273.312 
L 125.460271 221.324308 
L 123.850297 221.324308 
z
" clip-path="url(#pf21b2bf327)" style="fill: #1f77b4"/>
   </g>
   <g id="patch_42">
    <path d="M 125.460271 273.312 
L 127.070246 273.312 
L 127.070246 237.865846 
L 125.460271 237.865846 
z
" clip-path="url(#pf21b2bf327)" style="fill: #1f77b4"/>
   </g>
   <g id="patch_43">
    <path d="M 127.070246 273.312 
L 128.68022 273.312 
L 128.68022 223.096615 
L 127.070246 223.096615 
z
" clip-path="url(#pf21b2bf327)" style="fill: #1f77b4"/>
   </g>
   <g id="patch_44">
    <path d="M 128.68022 273.312 
L 130.290194 273.312 
L 130.290194 226.050462 
L 128.68022 226.050462 
z
" clip-path="url(#pf21b2bf327)" style="fill: #1f77b4"/>
   </g>
   <g id="patch_45">
    <path d="M 130.290194 273.312 
L 131.900169 273.312 
L 131.900169 227.822769 
L 130.290194 227.822769 
z
" clip-path="url(#pf21b2bf327)" style="fill: #1f77b4"/>
   </g>
   <g id="patch_46">
    <path d="M 131.900169 273.312 
L 133.510143 273.312 
L 133.510143 221.915077 
L 131.900169 221.915077 
z
" clip-path="url(#pf21b2bf327)" style="fill: #1f77b4"/>
   </g>
   <g id="patch_47">
    <path d="M 133.510143 273.312 
L 135.120117 273.312 
L 135.120117 221.915077 
L 133.510143 221.915077 
z
" clip-path="url(#pf21b2bf327)" style="fill: #1f77b4"/>
   </g>
   <g id="patch_48">
    <path d="M 135.120117 273.312 
L 136.730092 273.312 
L 136.730092 218.370462 
L 135.120117 218.370462 
z
" clip-path="url(#pf21b2bf327)" style="fill: #1f77b4"/>
   </g>
   <g id="patch_49">
    <path d="M 136.730092 273.312 
L 138.340066 273.312 
L 138.340066 212.462769 
L 136.730092 212.462769 
z
" clip-path="url(#pf21b2bf327)" style="fill: #1f77b4"/>
   </g>
   <g id="patch_50">
    <path d="M 138.340066 273.312 
L 139.950041 273.312 
L 139.950041 217.188923 
L 138.340066 217.188923 
z
" clip-path="url(#pf21b2bf327)" style="fill: #1f77b4"/>
   </g>
   <g id="patch_51">
    <path d="M 139.950041 273.312 
L 141.560015 273.312 
L 141.560015 221.915077 
L 139.950041 221.915077 
z
" clip-path="url(#pf21b2bf327)" style="fill: #1f77b4"/>
   </g>
   <g id="patch_52">
    <path d="M 141.560015 273.312 
L 143.169989 273.312 
L 143.169989 212.462769 
L 141.560015 212.462769 
z
" clip-path="url(#pf21b2bf327)" style="fill: #1f77b4"/>
   </g>
   <g id="patch_53">
    <path d="M 143.169989 273.312 
L 144.779964 273.312 
L 144.779964 211.872 
L 143.169989 211.872 
z
" clip-path="url(#pf21b2bf327)" style="fill: #1f77b4"/>
   </g>
   <g id="patch_54">
    <path d="M 144.779964 273.312 
L 146.389938 273.312 
L 146.389938 207.145846 
L 144.779964 207.145846 
z
" clip-path="url(#pf21b2bf327)" style="fill: #1f77b4"/>
   </g>
   <g id="patch_55">
    <path d="M 146.389938 273.312 
L 147.999912 273.312 
L 147.999912 219.552 
L 146.389938 219.552 
z
" clip-path="url(#pf21b2bf327)" style="fill: #1f77b4"/>
   </g>
   <g id="patch_56">
    <path d="M 147.999912 273.312 
L 149.609887 273.312 
L 149.609887 209.508923 
L 147.999912 209.508923 
z
" clip-path="url(#pf21b2bf327)" style="fill: #1f77b4"/>
   </g>
   <g id="patch_57">
    <path d="M 149.609887 273.312 
L 151.219861 273.312 
L 151.219861 206.555077 
L 149.609887 206.555077 
z
" clip-path="url(#pf21b2bf327)" style="fill: #1f77b4"/>
   </g>
   <g id="patch_58">
    <path d="M 151.219861 273.312 
L 152.829836 273.312 
L 152.829836 201.828923 
L 151.219861 201.828923 
z
" clip-path="url(#pf21b2bf327)" style="fill: #1f77b4"/>
   </g>
   <g id="patch_59">
    <path d="M 152.829836 273.312 
L 154.43981 273.312 
L 154.43981 201.828923 
L 152.829836 201.828923 
z
" clip-path="url(#pf21b2bf327)" style="fill: #1f77b4"/>
   </g>
   <g id="patch_60">
    <path d="M 154.43981 273.312 
L 156.049784 273.312 
L 156.049784 204.192 
L 154.43981 204.192 
z
" clip-path="url(#pf21b2bf327)" style="fill: #1f77b4"/>
   </g>
   <g id="patch_61">
    <path d="M 156.049784 273.312 
L 157.659759 273.312 
L 157.659759 198.284308 
L 156.049784 198.284308 
z
" clip-path="url(#pf21b2bf327)" style="fill: #1f77b4"/>
   </g>
   <g id="patch_62">
    <path d="M 157.659759 273.312 
L 159.269733 273.312 
L 159.269733 214.235077 
L 157.659759 214.235077 
z
" clip-path="url(#pf21b2bf327)" style="fill: #1f77b4"/>
   </g>
   <g id="patch_63">
    <path d="M 159.269733 273.312 
L 160.879707 273.312 
L 160.879707 197.693538 
L 159.269733 197.693538 
z
" clip-path="url(#pf21b2bf327)" style="fill: #1f77b4"/>
   </g>
   <g id="patch_64">
    <path d="M 160.879707 273.312 
L 162.489682 273.312 
L 162.489682 199.465846 
L 160.879707 199.465846 
z
" clip-path="url(#pf21b2bf327)" style="fill: #1f77b4"/>
   </g>
   <g id="patch_65">
    <path d="M 162.489682 273.312 
L 164.099656 273.312 
L 164.099656 194.148923 
L 162.489682 194.148923 
z
" clip-path="url(#pf21b2bf327)" style="fill: #1f77b4"/>
   </g>
   <g id="patch_66">
    <path d="M 164.099656 273.312 
L 165.709631 273.312 
L 165.709631 194.148923 
L 164.099656 194.148923 
z
" clip-path="url(#pf21b2bf327)" style="fill: #1f77b4"/>
   </g>
   <g id="patch_67">
    <path d="M 165.709631 273.312 
L 167.319605 273.312 
L 167.319605 190.013538 
L 165.709631 190.013538 
z
" clip-path="url(#pf21b2bf327)" style="fill: #1f77b4"/>
   </g>
   <g id="patch_68">
    <path d="M 167.319605 273.312 
L 168.929579 273.312 
L 168.929579 189.422769 
L 167.319605 189.422769 
z
" clip-path="url(#pf21b2bf327)" style="fill: #1f77b4"/>
   </g>
   <g id="patch_69">
    <path d="M 168.929579 273.312 
L 170.539554 273.312 
L 170.539554 193.558154 
L 168.929579 193.558154 
z
" clip-path="url(#pf21b2bf327)" style="fill: #1f77b4"/>
   </g>
   <g id="patch_70">
    <path d="M 170.539554 273.312 
L 172.149528 273.312 
L 172.149528 204.192 
L 170.539554 204.192 
z
" clip-path="url(#pf21b2bf327)" style="fill: #1f77b4"/>
   </g>
   <g id="patch_71">
    <path d="M 172.149528 273.312 
L 173.759502 273.312 
L 173.759502 198.875077 
L 172.149528 198.875077 
z
" clip-path="url(#pf21b2bf327)" style="fill: #1f77b4"/>
   </g>
   <g id="patch_72">
    <path d="M 173.759502 273.312 
L 175.369477 273.312 
L 175.369477 184.105846 
L 173.759502 184.105846 
z
" clip-path="url(#pf21b2bf327)" style="fill: #1f77b4"/>
   </g>
   <g id="patch_73">
    <path d="M 175.369477 273.312 
L 176.979451 273.312 
L 176.979451 196.512 
L 175.369477 196.512 
z
" clip-path="url(#pf21b2bf327)" style="fill: #1f77b4"/>
   </g>
   <g id="patch_74">
    <path d="M 176.979451 273.312 
L 178.589426 273.312 
L 178.589426 183.515077 
L 176.979451 183.515077 
z
" clip-path="url(#pf21b2bf327)" style="fill: #1f77b4"/>
   </g>
   <g id="patch_75">
    <path d="M 178.589426 273.312 
L 180.1994 273.312 
L 180.1994 188.241231 
L 178.589426 188.241231 
z
" clip-path="url(#pf21b2bf327)" style="fill: #1f77b4"/>
   </g>
   <g id="patch_76">
    <path d="M 180.1994 273.312 
L 181.809374 273.312 
L 181.809374 190.604308 
L 180.1994 190.604308 
z
" clip-path="url(#pf21b2bf327)" style="fill: #1f77b4"/>
   </g>
   <g id="patch_77">
    <path d="M 181.809374 273.312 
L 183.419349 273.312 
L 183.419349 188.241231 
L 181.809374 188.241231 
z
" clip-path="url(#pf21b2bf327)" style="fill: #1f77b4"/>
   </g>
   <g id="patch_78">
    <path d="M 183.419349 273.312 
L 185.029323 273.312 
L 185.029323 181.742769 
L 183.419349 181.742769 
z
" clip-path="url(#pf21b2bf327)" style="fill: #1f77b4"/>
   </g>
   <g id="patch_79">
    <path d="M 185.029323 273.312 
L 186.639297 273.312 
L 186.639297 177.607385 
L 185.029323 177.607385 
z
" clip-path="url(#pf21b2bf327)" style="fill: #1f77b4"/>
   </g>
   <g id="patch_80">
    <path d="M 186.639297 273.312 
L 188.249272 273.312 
L 188.249272 184.696615 
L 186.639297 184.696615 
z
" clip-path="url(#pf21b2bf327)" style="fill: #1f77b4"/>
   </g>
   <g id="patch_81">
    <path d="M 188.249272 273.312 
L 189.859246 273.312 
L 189.859246 181.742769 
L 188.249272 181.742769 
z
" clip-path="url(#pf21b2bf327)" style="fill: #1f77b4"/>
   </g>
   <g id="patch_82">
    <path d="M 189.859246 273.312 
L 191.469221 273.312 
L 191.469221 181.152 
L 189.859246 181.152 
z
" clip-path="url(#pf21b2bf327)" style="fill: #1f77b4"/>
   </g>
   <g id="patch_83">
    <path d="M 191.469221 273.312 
L 193.079195 273.312 
L 193.079195 173.472 
L 191.469221 173.472 
z
" clip-path="url(#pf21b2bf327)" style="fill: #1f77b4"/>
   </g>
   <g id="patch_84">
    <path d="M 193.079195 273.312 
L 194.689169 273.312 
L 194.689169 168.155077 
L 193.079195 168.155077 
z
" clip-path="url(#pf21b2bf327)" style="fill: #1f77b4"/>
   </g>
   <g id="patch_85">
    <path d="M 194.689169 273.312 
L 196.299144 273.312 
L 196.299144 177.016615 
L 194.689169 177.016615 
z
" clip-path="url(#pf21b2bf327)" style="fill: #1f77b4"/>
   </g>
   <g id="patch_86">
    <path d="M 196.299144 273.312 
L 197.909118 273.312 
L 197.909118 174.653538 
L 196.299144 174.653538 
z
" clip-path="url(#pf21b2bf327)" style="fill: #1f77b4"/>
   </g>
   <g id="patch_87">
    <path d="M 197.909118 273.312 
L 199.519092 273.312 
L 199.519092 159.884308 
L 197.909118 159.884308 
z
" clip-path="url(#pf21b2bf327)" style="fill: #1f77b4"/>
   </g>
   <g id="patch_88">
    <path d="M 199.519092 273.312 
L 201.129067 273.312 
L 201.129067 173.472 
L 199.519092 173.472 
z
" clip-path="url(#pf21b2bf327)" style="fill: #1f77b4"/>
   </g>
   <g id="patch_89">
    <path d="M 201.129067 273.312 
L 202.739041 273.312 
L 202.739041 172.290462 
L 201.129067 172.290462 
z
" clip-path="url(#pf21b2bf327)" style="fill: #1f77b4"/>
   </g>
   <g id="patch_90">
    <path d="M 202.739041 273.312 
L 204.349016 273.312 
L 204.349016 174.062769 
L 202.739041 174.062769 
z
" clip-path="url(#pf21b2bf327)" style="fill: #1f77b4"/>
   </g>
   <g id="patch_91">
    <path d="M 204.349016 273.312 
L 205.95899 273.312 
L 205.95899 171.699692 
L 204.349016 171.699692 
z
" clip-path="url(#pf21b2bf327)" style="fill: #1f77b4"/>
   </g>
   <g id="patch_92">
    <path d="M 205.95899 273.312 
L 207.568964 273.312 
L 207.568964 178.198154 
L 205.95899 178.198154 
z
" clip-path="url(#pf21b2bf327)" style="fill: #1f77b4"/>
   </g>
   <g id="patch_93">
    <path d="M 207.568964 273.312 
L 209.178939 273.312 
L 209.178939 161.065846 
L 207.568964 161.065846 
z
" clip-path="url(#pf21b2bf327)" style="fill: #1f77b4"/>
   </g>
   <g id="patch_94">
    <path d="M 209.178939 273.312 
L 210.788913 273.312 
L 210.788913 157.521231 
L 209.178939 157.521231 
z
" clip-path="url(#pf21b2bf327)" style="fill: #1f77b4"/>
   </g>
   <g id="patch_95">
    <path d="M 210.788913 273.312 
L 212.398887 273.312 
L 212.398887 169.927385 
L 210.788913 169.927385 
z
" clip-path="url(#pf21b2bf327)" style="fill: #1f77b4"/>
   </g>
   <g id="patch_96">
    <path d="M 212.398887 273.312 
L 214.008862 273.312 
L 214.008862 168.155077 
L 212.398887 168.155077 
z
" clip-path="url(#pf21b2bf327)" style="fill: #1f77b4"/>
   </g>
   <g id="patch_97">
    <path d="M 214.008862 273.312 
L 215.618836 273.312 
L 215.618836 152.204308 
L 214.008862 152.204308 
z
" clip-path="url(#pf21b2bf327)" style="fill: #1f77b4"/>
   </g>
   <g id="patch_98">
    <path d="M 215.618836 273.312 
L 217.228811 273.312 
L 217.228811 152.204308 
L 215.618836 152.204308 
z
" clip-path="url(#pf21b2bf327)" style="fill: #1f77b4"/>
   </g>
   <g id="patch_99">
    <path d="M 217.228811 273.312 
L 218.838785 273.312 
L 218.838785 155.748923 
L 217.228811 155.748923 
z
" clip-path="url(#pf21b2bf327)" style="fill: #1f77b4"/>
   </g>
   <g id="patch_100">
    <path d="M 218.838785 273.312 
L 220.448759 273.312 
L 220.448759 160.475077 
L 218.838785 160.475077 
z
" clip-path="url(#pf21b2bf327)" style="fill: #1f77b4"/>
   </g>
   <g id="patch_101">
    <path d="M 220.448759 273.312 
L 222.058734 273.312 
L 222.058734 163.428923 
L 220.448759 163.428923 
z
" clip-path="url(#pf21b2bf327)" style="fill: #1f77b4"/>
   </g>
   <g id="patch_102">
    <path d="M 222.058734 273.312 
L 223.668708 273.312 
L 223.668708 146.887385 
L 222.058734 146.887385 
z
" clip-path="url(#pf21b2bf327)" style="fill: #1f77b4"/>
   </g>
   <g id="patch_103">
    <path d="M 223.668708 273.312 
L 225.278683 273.312 
L 225.278683 159.884308 
L 223.668708 159.884308 
z
" clip-path="url(#pf21b2bf327)" style="fill: #1f77b4"/>
   </g>
   <g id="patch_104">
    <path d="M 225.278683 273.312 
L 226.888657 273.312 
L 226.888657 149.841231 
L 225.278683 149.841231 
z
" clip-path="url(#pf21b2bf327)" style="fill: #1f77b4"/>
   </g>
   <g id="patch_105">
    <path d="M 226.888657 273.312 
L 228.498631 273.312 
L 228.498631 154.567385 
L 226.888657 154.567385 
z
" clip-path="url(#pf21b2bf327)" style="fill: #1f77b4"/>
   </g>
   <g id="patch_106">
    <path d="M 228.498631 273.312 
L 230.108606 273.312 
L 230.108606 148.659692 
L 228.498631 148.659692 
z
" clip-path="url(#pf21b2bf327)" style="fill: #1f77b4"/>
   </g>
   <g id="patch_107">
    <path d="M 230.108606 273.312 
L 231.71858 273.312 
L 231.71858 146.887385 
L 230.108606 146.887385 
z
" clip-path="url(#pf21b2bf327)" style="fill: #1f77b4"/>
   </g>
   <g id="patch_108">
    <path d="M 231.71858 273.312 
L 233.328554 273.312 
L 233.328554 172.881231 
L 231.71858 172.881231 
z
" clip-path="url(#pf21b2bf327)" style="fill: #1f77b4"/>
   </g>
   <g id="patch_109">
    <path d="M 233.328554 273.312 
L 234.938529 273.312 
L 234.938529 142.161231 
L 233.328554 142.161231 
z
" clip-path="url(#pf21b2bf327)" style="fill: #1f77b4"/>
   </g>
   <g id="patch_110">
    <path d="M 234.938529 273.312 
L 236.548503 273.312 
L 236.548503 139.207385 
L 234.938529 139.207385 
z
" clip-path="url(#pf21b2bf327)" style="fill: #1f77b4"/>
   </g>
   <g id="patch_111">
    <path d="M 236.548503 273.312 
L 238.158478 273.312 
L 238.158478 141.570462 
L 236.548503 141.570462 
z
" clip-path="url(#pf21b2bf327)" style="fill: #1f77b4"/>
   </g>
   <g id="patch_112">
    <path d="M 238.158478 273.312 
L 239.768452 273.312 
L 239.768452 152.795077 
L 238.158478 152.795077 
z
" clip-path="url(#pf21b2bf327)" style="fill: #1f77b4"/>
   </g>
   <g id="patch_113">
    <path d="M 239.768452 273.312 
L 241.378426 273.312 
L 241.378426 147.478154 
L 239.768452 147.478154 
z
" clip-path="url(#pf21b2bf327)" style="fill: #1f77b4"/>
   </g>
   <g id="patch_114">
    <path d="M 241.378426 273.312 
L 242.988401 273.312 
L 242.988401 156.930462 
L 241.378426 156.930462 
z
" clip-path="url(#pf21b2bf327)" style="fill: #1f77b4"/>
   </g>
   <g id="patch_115">
    <path d="M 242.988401 273.312 
L 244.598375 273.312 
L 244.598375 131.527385 
L 242.988401 131.527385 
z
" clip-path="url(#pf21b2bf327)" style="fill: #1f77b4"/>
   </g>
   <g id="patch_116">
    <path d="M 244.598375 273.312 
L 246.208349 273.312 
L 246.208349 137.435077 
L 244.598375 137.435077 
z
" clip-path="url(#pf21b2bf327)" style="fill: #1f77b4"/>
   </g>
   <g id="patch_117">
    <path d="M 246.208349 273.312 
L 247.818324 273.312 
L 247.818324 142.161231 
L 246.208349 142.161231 
z
" clip-path="url(#pf21b2bf327)" style="fill: #1f77b4"/>
   </g>
   <g id="patch_118">
    <path d="M 247.818324 273.312 
L 249.428298 273.312 
L 249.428298 120.302769 
L 247.818324 120.302769 
z
" clip-path="url(#pf21b2bf327)" style="fill: #1f77b4"/>
   </g>
   <g id="patch_119">
    <path d="M 249.428298 273.312 
L 251.038273 273.312 
L 251.038273 137.435077 
L 249.428298 137.435077 
z
" clip-path="url(#pf21b2bf327)" style="fill: #1f77b4"/>
   </g>
   <g id="patch_120">
    <path d="M 251.038273 273.312 
L 252.648247 273.312 
L 252.648247 139.798154 
L 251.038273 139.798154 
z
" clip-path="url(#pf21b2bf327)" style="fill: #1f77b4"/>
   </g>
   <g id="patch_121">
    <path d="M 252.648247 273.312 
L 254.258221 273.312 
L 254.258221 145.705846 
L 252.648247 145.705846 
z
" clip-path="url(#pf21b2bf327)" style="fill: #1f77b4"/>
   </g>
   <g id="patch_122">
    <path d="M 254.258221 273.312 
L 255.868196 273.312 
L 255.868196 129.755077 
L 254.258221 129.755077 
z
" clip-path="url(#pf21b2bf327)" style="fill: #1f77b4"/>
   </g>
   <g id="patch_123">
    <path d="M 255.868196 273.312 
L 257.47817 273.312 
L 257.47817 128.573538 
L 255.868196 128.573538 
z
" clip-path="url(#pf21b2bf327)" style="fill: #1f77b4"/>
   </g>
   <g id="patch_124">
    <path d="M 257.47817 273.312 
L 259.088144 273.312 
L 259.088144 127.392 
L 257.47817 127.392 
z
" clip-path="url(#pf21b2bf327)" style="fill: #1f77b4"/>
   </g>
   <g id="patch_125">
    <path d="M 259.088144 273.312 
L 260.698119 273.312 
L 260.698119 133.299692 
L 259.088144 133.299692 
z
" clip-path="url(#pf21b2bf327)" style="fill: #1f77b4"/>
   </g>
   <g id="patch_126">
    <path d="M 260.698119 273.312 
L 262.308093 273.312 
L 262.308093 140.979692 
L 260.698119 140.979692 
z
" clip-path="url(#pf21b2bf327)" style="fill: #1f77b4"/>
   </g>
   <g id="patch_127">
    <path d="M 262.308093 273.312 
L 263.918068 273.312 
L 263.918068 102.579692 
L 262.308093 102.579692 
z
" clip-path="url(#pf21b2bf327)" style="fill: #1f77b4"/>
   </g>
   <g id="patch_128">
    <path d="M 263.918068 273.312 
L 265.528042 273.312 
L 265.528042 127.392 
L 263.918068 127.392 
z
" clip-path="url(#pf21b2bf327)" style="fill: #1f77b4"/>
   </g>
   <g id="patch_129">
    <path d="M 265.528042 273.312 
L 267.138016 273.312 
L 267.138016 133.299692 
L 265.528042 133.299692 
z
" clip-path="url(#pf21b2bf327)" style="fill: #1f77b4"/>
   </g>
   <g id="patch_130">
    <path d="M 267.138016 273.312 
L 268.747991 273.312 
L 268.747991 122.665846 
L 267.138016 122.665846 
z
" clip-path="url(#pf21b2bf327)" style="fill: #1f77b4"/>
   </g>
   <g id="patch_131">
    <path d="M 268.747991 273.312 
L 270.357965 273.312 
L 270.357965 113.804308 
L 268.747991 113.804308 
z
" clip-path="url(#pf21b2bf327)" style="fill: #1f77b4"/>
   </g>
   <g id="patch_132">
    <path d="M 270.357965 273.312 
L 271.967939 273.312 
L 271.967939 117.939692 
L 270.357965 117.939692 
z
" clip-path="url(#pf21b2bf327)" style="fill: #1f77b4"/>
   </g>
   <g id="patch_133">
    <path d="M 271.967939 273.312 
L 273.577914 273.312 
L 273.577914 110.259692 
L 271.967939 110.259692 
z
" clip-path="url(#pf21b2bf327)" style="fill: #1f77b4"/>
   </g>
   <g id="patch_134">
    <path d="M 273.577914 273.312 
L 275.187888 273.312 
L 275.187888 126.801231 
L 273.577914 126.801231 
z
" clip-path="url(#pf21b2bf327)" style="fill: #1f77b4"/>
   </g>
   <g id="patch_135">
    <path d="M 275.187888 273.312 
L 276.797863 273.312 
L 276.797863 123.847385 
L 275.187888 123.847385 
z
" clip-path="url(#pf21b2bf327)" style="fill: #1f77b4"/>
   </g>
   <g id="patch_136">
    <path d="M 276.797863 273.312 
L 278.407837 273.312 
L 278.407837 103.170462 
L 276.797863 103.170462 
z
" clip-path="url(#pf21b2bf327)" style="fill: #1f77b4"/>
   </g>
   <g id="patch_137">
    <path d="M 278.407837 273.312 
L 280.017811 273.312 
L 280.017811 113.804308 
L 278.407837 113.804308 
z
" clip-path="url(#pf21b2bf327)" style="fill: #1f77b4"/>
   </g>
   <g id="patch_138">
    <path d="M 280.017811 273.312 
L 281.627786 273.312 
L 281.627786 113.213538 
L 280.017811 113.213538 
z
" clip-path="url(#pf21b2bf327)" style="fill: #1f77b4"/>
   </g>
   <g id="patch_139">
    <path d="M 281.627786 273.312 
L 283.23776 273.312 
L 283.23776 97.853538 
L 281.627786 97.853538 
z
" clip-path="url(#pf21b2bf327)" style="fill: #1f77b4"/>
   </g>
   <g id="patch_140">
    <path d="M 283.23776 273.312 
L 284.847734 273.312 
L 284.847734 123.847385 
L 283.23776 123.847385 
z
" clip-path="url(#pf21b2bf327)" style="fill: #1f77b4"/>
   </g>
   <g id="patch_141">
    <path d="M 284.847734 273.312 
L 286.457709 273.312 
L 286.457709 104.352 
L 284.847734 104.352 
z
" clip-path="url(#pf21b2bf327)" style="fill: #1f77b4"/>
   </g>
   <g id="patch_142">
    <path d="M 286.457709 273.312 
L 288.067683 273.312 
L 288.067683 108.487385 
L 286.457709 108.487385 
z
" clip-path="url(#pf21b2bf327)" style="fill: #1f77b4"/>
   </g>
   <g id="patch_143">
    <path d="M 288.067683 273.312 
L 289.677658 273.312 
L 289.677658 107.305846 
L 288.067683 107.305846 
z
" clip-path="url(#pf21b2bf327)" style="fill: #1f77b4"/>
   </g>
   <g id="patch_144">
    <path d="M 289.677658 273.312 
L 291.287632 273.312 
L 291.287632 91.355077 
L 289.677658 91.355077 
z
" clip-path="url(#pf21b2bf327)" style="fill: #1f77b4"/>
   </g>
   <g id="patch_145">
    <path d="M 291.287632 273.312 
L 292.897606 273.312 
L 292.897606 93.127385 
L 291.287632 93.127385 
z
" clip-path="url(#pf21b2bf327)" style="fill: #1f77b4"/>
   </g>
   <g id="patch_146">
    <path d="M 292.897606 273.312 
L 294.507581 273.312 
L 294.507581 106.715077 
L 292.897606 106.715077 
z
" clip-path="url(#pf21b2bf327)" style="fill: #1f77b4"/>
   </g>
   <g id="patch_147">
    <path d="M 294.507581 273.312 
L 296.117555 273.312 
L 296.117555 101.398154 
L 294.507581 101.398154 
z
" clip-path="url(#pf21b2bf327)" style="fill: #1f77b4"/>
   </g>
   <g id="patch_148">
    <path d="M 296.117555 273.312 
L 297.727529 273.312 
L 297.727529 100.216615 
L 296.117555 100.216615 
z
" clip-path="url(#pf21b2bf327)" style="fill: #1f77b4"/>
   </g>
   <g id="patch_149">
    <path d="M 297.727529 273.312 
L 299.337504 273.312 
L 299.337504 100.216615 
L 297.727529 100.216615 
z
" clip-path="url(#pf21b2bf327)" style="fill: #1f77b4"/>
   </g>
   <g id="patch_150">
    <path d="M 299.337504 273.312 
L 300.947478 273.312 
L 300.947478 114.985846 
L 299.337504 114.985846 
z
" clip-path="url(#pf21b2bf327)" style="fill: #1f77b4"/>
   </g>
   <g id="patch_151">
    <path d="M 300.947478 273.312 
L 302.557453 273.312 
L 302.557453 102.579692 
L 300.947478 102.579692 
z
" clip-path="url(#pf21b2bf327)" style="fill: #1f77b4"/>
   </g>
   <g id="patch_152">
    <path d="M 302.557453 273.312 
L 304.167427 273.312 
L 304.167427 110.850462 
L 302.557453 110.850462 
z
" clip-path="url(#pf21b2bf327)" style="fill: #1f77b4"/>
   </g>
   <g id="patch_153">
    <path d="M 304.167427 273.312 
L 305.777401 273.312 
L 305.777401 91.945846 
L 304.167427 91.945846 
z
" clip-path="url(#pf21b2bf327)" style="fill: #1f77b4"/>
   </g>
   <g id="patch_154">
    <path d="M 305.777401 273.312 
L 307.387376 273.312 
L 307.387376 99.035077 
L 305.777401 99.035077 
z
" clip-path="url(#pf21b2bf327)" style="fill: #1f77b4"/>
   </g>
   <g id="patch_155">
    <path d="M 307.387376 273.312 
L 308.99735 273.312 
L 308.99735 119.712 
L 307.387376 119.712 
z
" clip-path="url(#pf21b2bf327)" style="fill: #1f77b4"/>
   </g>
   <g id="patch_156">
    <path d="M 308.99735 273.312 
L 310.607324 273.312 
L 310.607324 83.675077 
L 308.99735 83.675077 
z
" clip-path="url(#pf21b2bf327)" style="fill: #1f77b4"/>
   </g>
   <g id="patch_157">
    <path d="M 310.607324 273.312 
L 312.217299 273.312 
L 312.217299 83.084308 
L 310.607324 83.084308 
z
" clip-path="url(#pf21b2bf327)" style="fill: #1f77b4"/>
   </g>
   <g id="patch_158">
    <path d="M 312.217299 273.312 
L 313.827273 273.312 
L 313.827273 78.358154 
L 312.217299 78.358154 
z
" clip-path="url(#pf21b2bf327)" style="fill: #1f77b4"/>
   </g>
   <g id="patch_159">
    <path d="M 313.827273 273.312 
L 315.437248 273.312 
L 315.437248 101.398154 
L 313.827273 101.398154 
z
" clip-path="url(#pf21b2bf327)" style="fill: #1f77b4"/>
   </g>
   <g id="patch_160">
    <path d="M 315.437248 273.312 
L 317.047222 273.312 
L 317.047222 83.084308 
L 315.437248 83.084308 
z
" clip-path="url(#pf21b2bf327)" style="fill: #1f77b4"/>
   </g>
   <g id="patch_161">
    <path d="M 317.047222 273.312 
L 318.657196 273.312 
L 318.657196 78.358154 
L 317.047222 78.358154 
z
" clip-path="url(#pf21b2bf327)" style="fill: #1f77b4"/>
   </g>
   <g id="patch_162">
    <path d="M 318.657196 273.312 
L 320.267171 273.312 
L 320.267171 98.444308 
L 318.657196 98.444308 
z
" clip-path="url(#pf21b2bf327)" style="fill: #1f77b4"/>
   </g>
   <g id="patch_163">
    <path d="M 320.267171 273.312 
L 321.877145 273.312 
L 321.877145 78.948923 
L 320.267171 78.948923 
z
" clip-path="url(#pf21b2bf327)" style="fill: #1f77b4"/>
   </g>
   <g id="patch_164">
    <path d="M 321.877145 273.312 
L 323.487119 273.312 
L 323.487119 84.265846 
L 321.877145 84.265846 
z
" clip-path="url(#pf21b2bf327)" style="fill: #1f77b4"/>
   </g>
   <g id="patch_165">
    <path d="M 323.487119 273.312 
L 325.097094 273.312 
L 325.097094 78.948923 
L 323.487119 78.948923 
z
" clip-path="url(#pf21b2bf327)" style="fill: #1f77b4"/>
   </g>
   <g id="patch_166">
    <path d="M 325.097094 273.312 
L 326.707068 273.312 
L 326.707068 68.315077 
L 325.097094 68.315077 
z
" clip-path="url(#pf21b2bf327)" style="fill: #1f77b4"/>
   </g>
   <g id="patch_167">
    <path d="M 326.707068 273.312 
L 328.317043 273.312 
L 328.317043 86.038154 
L 326.707068 86.038154 
z
" clip-path="url(#pf21b2bf327)" style="fill: #1f77b4"/>
   </g>
   <g id="patch_168">
    <path d="M 328.317043 273.312 
L 329.927017 273.312 
L 329.927017 69.496615 
L 328.317043 69.496615 
z
" clip-path="url(#pf21b2bf327)" style="fill: #1f77b4"/>
   </g>
   <g id="patch_169">
    <path d="M 329.927017 273.312 
L 331.536991 273.312 
L 331.536991 72.450462 
L 329.927017 72.450462 
z
" clip-path="url(#pf21b2bf327)" style="fill: #1f77b4"/>
   </g>
   <g id="patch_170">
    <path d="M 331.536991 273.312 
L 333.146966 273.312 
L 333.146966 83.675077 
L 331.536991 83.675077 
z
" clip-path="url(#pf21b2bf327)" style="fill: #1f77b4"/>
   </g>
   <g id="patch_171">
    <path d="M 333.146966 273.312 
L 334.75694 273.312 
L 334.75694 74.813538 
L 333.146966 74.813538 
z
" clip-path="url(#pf21b2bf327)" style="fill: #1f77b4"/>
   </g>
   <g id="patch_172">
    <path d="M 334.75694 273.312 
L 336.366914 273.312 
L 336.366914 75.404308 
L 334.75694 75.404308 
z
" clip-path="url(#pf21b2bf327)" style="fill: #1f77b4"/>
   </g>
   <g id="patch_173">
    <path d="M 336.366914 273.312 
L 337.976889 273.312 
L 337.976889 90.173538 
L 336.366914 90.173538 
z
" clip-path="url(#pf21b2bf327)" style="fill: #1f77b4"/>
   </g>
   <g id="patch_174">
    <path d="M 337.976889 273.312 
L 339.586863 273.312 
L 339.586863 79.539692 
L 337.976889 79.539692 
z
" clip-path="url(#pf21b2bf327)" style="fill: #1f77b4"/>
   </g>
   <g id="patch_175">
    <path d="M 339.586863 273.312 
L 341.196838 273.312 
L 341.196838 93.127385 
L 339.586863 93.127385 
z
" clip-path="url(#pf21b2bf327)" style="fill: #1f77b4"/>
   </g>
   <g id="patch_176">
    <path d="M 341.196838 273.312 
L 342.806812 273.312 
L 342.806812 74.222769 
L 341.196838 74.222769 
z
" clip-path="url(#pf21b2bf327)" style="fill: #1f77b4"/>
   </g>
   <g id="patch_177">
    <path d="M 342.806812 273.312 
L 344.416786 273.312 
L 344.416786 68.905846 
L 342.806812 68.905846 
z
" clip-path="url(#pf21b2bf327)" style="fill: #1f77b4"/>
   </g>
   <g id="patch_178">
    <path d="M 344.416786 273.312 
L 346.026761 273.312 
L 346.026761 48.819692 
L 344.416786 48.819692 
z
" clip-path="url(#pf21b2bf327)" style="fill: #1f77b4"/>
   </g>
   <g id="patch_179">
    <path d="M 346.026761 273.312 
L 347.636735 273.312 
L 347.636735 62.998154 
L 346.026761 62.998154 
z
" clip-path="url(#pf21b2bf327)" style="fill: #1f77b4"/>
   </g>
   <g id="patch_180">
    <path d="M 347.636735 273.312 
L 349.246709 273.312 
L 349.246709 81.312 
L 347.636735 81.312 
z
" clip-path="url(#pf21b2bf327)" style="fill: #1f77b4"/>
   </g>
   <g id="patch_181">
    <path d="M 349.246709 273.312 
L 350.856684 273.312 
L 350.856684 54.727385 
L 349.246709 54.727385 
z
" clip-path="url(#pf21b2bf327)" style="fill: #1f77b4"/>
   </g>
   <g id="patch_182">
    <path d="M 350.856684 273.312 
L 352.466658 273.312 
L 352.466658 97.262769 
L 350.856684 97.262769 
z
" clip-path="url(#pf21b2bf327)" style="fill: #1f77b4"/>
   </g>
   <g id="patch_183">
    <path d="M 352.466658 273.312 
L 354.076633 273.312 
L 354.076633 53.545846 
L 352.466658 53.545846 
z
" clip-path="url(#pf21b2bf327)" style="fill: #1f77b4"/>
   </g>
   <g id="patch_184">
    <path d="M 354.076633 273.312 
L 355.686607 273.312 
L 355.686607 54.136615 
L 354.076633 54.136615 
z
" clip-path="url(#pf21b2bf327)" style="fill: #1f77b4"/>
   </g>
   <g id="patch_185">
    <path d="M 355.686607 273.312 
L 357.296581 273.312 
L 357.296581 58.862769 
L 355.686607 58.862769 
z
" clip-path="url(#pf21b2bf327)" style="fill: #1f77b4"/>
   </g>
   <g id="patch_186">
    <path d="M 357.296581 273.312 
L 358.906556 273.312 
L 358.906556 52.364308 
L 357.296581 52.364308 
z
" clip-path="url(#pf21b2bf327)" style="fill: #1f77b4"/>
   </g>
   <g id="patch_187">
    <path d="M 358.906556 273.312 
L 360.51653 273.312 
L 360.51653 65.952 
L 358.906556 65.952 
z
" clip-path="url(#pf21b2bf327)" style="fill: #1f77b4"/>
   </g>
   <g id="patch_188">
    <path d="M 360.51653 273.312 
L 362.126504 273.312 
L 362.126504 70.678154 
L 360.51653 70.678154 
z
" clip-path="url(#pf21b2bf327)" style="fill: #1f77b4"/>
   </g>
   <g id="patch_189">
    <path d="M 362.126504 273.312 
L 363.736479 273.312 
L 363.736479 42.912 
L 362.126504 42.912 
z
" clip-path="url(#pf21b2bf327)" style="fill: #1f77b4"/>
   </g>
   <g id="patch_190">
    <path d="M 363.736479 273.312 
L 365.346453 273.312 
L 365.346453 52.364308 
L 363.736479 52.364308 
z
" clip-path="url(#pf21b2bf327)" style="fill: #1f77b4"/>
   </g>
   <g id="patch_191">
    <path d="M 365.346453 273.312 
L 366.956428 273.312 
L 366.956428 52.955077 
L 365.346453 52.955077 
z
" clip-path="url(#pf21b2bf327)" style="fill: #1f77b4"/>
   </g>
   <g id="patch_192">
    <path d="M 366.956428 273.312 
L 368.566402 273.312 
L 368.566402 49.410462 
L 366.956428 49.410462 
z
" clip-path="url(#pf21b2bf327)" style="fill: #1f77b4"/>
   </g>
   <g id="patch_193">
    <path d="M 368.566402 273.312 
L 370.176376 273.312 
L 370.176376 38.185846 
L 368.566402 38.185846 
z
" clip-path="url(#pf21b2bf327)" style="fill: #1f77b4"/>
   </g>
   <g id="patch_194">
    <path d="M 370.176376 273.312 
L 371.786351 273.312 
L 371.786351 54.727385 
L 370.176376 54.727385 
z
" clip-path="url(#pf21b2bf327)" style="fill: #1f77b4"/>
   </g>
   <g id="patch_195">
    <path d="M 371.786351 273.312 
L 373.396325 273.312 
L 373.396325 42.912 
L 371.786351 42.912 
z
" clip-path="url(#pf21b2bf327)" style="fill: #1f77b4"/>
   </g>
   <g id="patch_196">
    <path d="M 373.396325 273.312 
L 375.006299 273.312 
L 375.006299 47.047385 
L 373.396325 47.047385 
z
" clip-path="url(#pf21b2bf327)" style="fill: #1f77b4"/>
   </g>
   <g id="patch_197">
    <path d="M 375.006299 273.312 
L 376.616274 273.312 
L 376.616274 38.185846 
L 375.006299 38.185846 
z
" clip-path="url(#pf21b2bf327)" style="fill: #1f77b4"/>
   </g>
   <g id="patch_198">
    <path d="M 376.616274 273.312 
L 378.226248 273.312 
L 378.226248 51.182769 
L 376.616274 51.182769 
z
" clip-path="url(#pf21b2bf327)" style="fill: #1f77b4"/>
   </g>
   <g id="patch_199">
    <path d="M 378.226248 273.312 
L 379.836223 273.312 
L 379.836223 51.182769 
L 378.226248 51.182769 
z
" clip-path="url(#pf21b2bf327)" style="fill: #1f77b4"/>
   </g>
   <g id="patch_200">
    <path d="M 379.836223 273.312 
L 381.446197 273.312 
L 381.446197 58.272 
L 379.836223 58.272 
z
" clip-path="url(#pf21b2bf327)" style="fill: #1f77b4"/>
   </g>
   <g id="patch_201">
    <path d="M 381.446197 273.312 
L 383.056171 273.312 
L 383.056171 19.872 
L 381.446197 19.872 
z
" clip-path="url(#pf21b2bf327)" style="fill: #1f77b4"/>
   </g>
   <g id="patch_202">
    <path d="M 383.056171 273.312 
L 384.666146 273.312 
L 384.666146 33.459692 
L 383.056171 33.459692 
z
" clip-path="url(#pf21b2bf327)" style="fill: #1f77b4"/>
   </g>
   <g id="matplotlib.axis_1">
    <g id="xtick_1">
     <g id="line2d_1">
      <defs>
       <path id="mf42342f97a" d="M 0 0 
L 0 3.5 
" style="stroke: #000000; stroke-width: 0.8"/>
      </defs>
      <g>
       <use xlink:href="#mf42342f97a" x="60.013977" y="273.312" style="stroke: #000000; stroke-width: 0.8"/>
      </g>
     </g>
     <g id="text_1">
      <!-- 0.0 -->
      <g transform="translate(52.062415 287.910437)scale(0.1 -0.1)">
       <defs>
        <path id="DejaVuSans-30" d="M 2034 4250 
Q 1547 4250 1301 3770 
Q 1056 3291 1056 2328 
Q 1056 1369 1301 889 
Q 1547 409 2034 409 
Q 2525 409 2770 889 
Q 3016 1369 3016 2328 
Q 3016 3291 2770 3770 
Q 2525 4250 2034 4250 
z
M 2034 4750 
Q 2819 4750 3233 4129 
Q 3647 3509 3647 2328 
Q 3647 1150 3233 529 
Q 2819 -91 2034 -91 
Q 1250 -91 836 529 
Q 422 1150 422 2328 
Q 422 3509 836 4129 
Q 1250 4750 2034 4750 
z
" transform="scale(0.015625)"/>
        <path id="DejaVuSans-2e" d="M 684 794 
L 1344 794 
L 1344 0 
L 684 0 
L 684 794 
z
" transform="scale(0.015625)"/>
       </defs>
       <use xlink:href="#DejaVuSans-30"/>
       <use xlink:href="#DejaVuSans-2e" x="63.623047"/>
       <use xlink:href="#DejaVuSans-30" x="95.410156"/>
      </g>
     </g>
    </g>
    <g id="xtick_2">
     <g id="line2d_2">
      <g>
       <use xlink:href="#mf42342f97a" x="124.944886" y="273.312" style="stroke: #000000; stroke-width: 0.8"/>
      </g>
     </g>
     <g id="text_2">
      <!-- 0.2 -->
      <g transform="translate(116.993324 287.910437)scale(0.1 -0.1)">
       <defs>
        <path id="DejaVuSans-32" d="M 1228 531 
L 3431 531 
L 3431 0 
L 469 0 
L 469 531 
Q 828 903 1448 1529 
Q 2069 2156 2228 2338 
Q 2531 2678 2651 2914 
Q 2772 3150 2772 3378 
Q 2772 3750 2511 3984 
Q 2250 4219 1831 4219 
Q 1534 4219 1204 4116 
Q 875 4013 500 3803 
L 500 4441 
Q 881 4594 1212 4672 
Q 1544 4750 1819 4750 
Q 2544 4750 2975 4387 
Q 3406 4025 3406 3419 
Q 3406 3131 3298 2873 
Q 3191 2616 2906 2266 
Q 2828 2175 2409 1742 
Q 1991 1309 1228 531 
z
" transform="scale(0.015625)"/>
       </defs>
       <use xlink:href="#DejaVuSans-30"/>
       <use xlink:href="#DejaVuSans-2e" x="63.623047"/>
       <use xlink:href="#DejaVuSans-32" x="95.410156"/>
      </g>
     </g>
    </g>
    <g id="xtick_3">
     <g id="line2d_3">
      <g>
       <use xlink:href="#mf42342f97a" x="189.875795" y="273.312" style="stroke: #000000; stroke-width: 0.8"/>
      </g>
     </g>
     <g id="text_3">
      <!-- 0.4 -->
      <g transform="translate(181.924233 287.910437)scale(0.1 -0.1)">
       <defs>
        <path id="DejaVuSans-34" d="M 2419 4116 
L 825 1625 
L 2419 1625 
L 2419 4116 
z
M 2253 4666 
L 3047 4666 
L 3047 1625 
L 3713 1625 
L 3713 1100 
L 3047 1100 
L 3047 0 
L 2419 0 
L 2419 1100 
L 313 1100 
L 313 1709 
L 2253 4666 
z
" transform="scale(0.015625)"/>
       </defs>
       <use xlink:href="#DejaVuSans-30"/>
       <use xlink:href="#DejaVuSans-2e" x="63.623047"/>
       <use xlink:href="#DejaVuSans-34" x="95.410156"/>
      </g>
     </g>
    </g>
    <g id="xtick_4">
     <g id="line2d_4">
      <g>
       <use xlink:href="#mf42342f97a" x="254.806705" y="273.312" style="stroke: #000000; stroke-width: 0.8"/>
      </g>
     </g>
     <g id="text_4">
      <!-- 0.6 -->
      <g transform="translate(246.855142 287.910437)scale(0.1 -0.1)">
       <defs>
        <path id="DejaVuSans-36" d="M 2113 2584 
Q 1688 2584 1439 2293 
Q 1191 2003 1191 1497 
Q 1191 994 1439 701 
Q 1688 409 2113 409 
Q 2538 409 2786 701 
Q 3034 994 3034 1497 
Q 3034 2003 2786 2293 
Q 2538 2584 2113 2584 
z
M 3366 4563 
L 3366 3988 
Q 3128 4100 2886 4159 
Q 2644 4219 2406 4219 
Q 1781 4219 1451 3797 
Q 1122 3375 1075 2522 
Q 1259 2794 1537 2939 
Q 1816 3084 2150 3084 
Q 2853 3084 3261 2657 
Q 3669 2231 3669 1497 
Q 3669 778 3244 343 
Q 2819 -91 2113 -91 
Q 1303 -91 875 529 
Q 447 1150 447 2328 
Q 447 3434 972 4092 
Q 1497 4750 2381 4750 
Q 2619 4750 2861 4703 
Q 3103 4656 3366 4563 
z
" transform="scale(0.015625)"/>
       </defs>
       <use xlink:href="#DejaVuSans-30"/>
       <use xlink:href="#DejaVuSans-2e" x="63.623047"/>
       <use xlink:href="#DejaVuSans-36" x="95.410156"/>
      </g>
     </g>
    </g>
    <g id="xtick_5">
     <g id="line2d_5">
      <g>
       <use xlink:href="#mf42342f97a" x="319.737614" y="273.312" style="stroke: #000000; stroke-width: 0.8"/>
      </g>
     </g>
     <g id="text_5">
      <!-- 0.8 -->
      <g transform="translate(311.786051 287.910437)scale(0.1 -0.1)">
       <defs>
        <path id="DejaVuSans-38" d="M 2034 2216 
Q 1584 2216 1326 1975 
Q 1069 1734 1069 1313 
Q 1069 891 1326 650 
Q 1584 409 2034 409 
Q 2484 409 2743 651 
Q 3003 894 3003 1313 
Q 3003 1734 2745 1975 
Q 2488 2216 2034 2216 
z
M 1403 2484 
Q 997 2584 770 2862 
Q 544 3141 544 3541 
Q 544 4100 942 4425 
Q 1341 4750 2034 4750 
Q 2731 4750 3128 4425 
Q 3525 4100 3525 3541 
Q 3525 3141 3298 2862 
Q 3072 2584 2669 2484 
Q 3125 2378 3379 2068 
Q 3634 1759 3634 1313 
Q 3634 634 3220 271 
Q 2806 -91 2034 -91 
Q 1263 -91 848 271 
Q 434 634 434 1313 
Q 434 1759 690 2068 
Q 947 2378 1403 2484 
z
M 1172 3481 
Q 1172 3119 1398 2916 
Q 1625 2713 2034 2713 
Q 2441 2713 2670 2916 
Q 2900 3119 2900 3481 
Q 2900 3844 2670 4047 
Q 2441 4250 2034 4250 
Q 1625 4250 1398 4047 
Q 1172 3844 1172 3481 
z
" transform="scale(0.015625)"/>
       </defs>
       <use xlink:href="#DejaVuSans-30"/>
       <use xlink:href="#DejaVuSans-2e" x="63.623047"/>
       <use xlink:href="#DejaVuSans-38" x="95.410156"/>
      </g>
     </g>
    </g>
    <g id="xtick_6">
     <g id="line2d_6">
      <g>
       <use xlink:href="#mf42342f97a" x="384.668523" y="273.312" style="stroke: #000000; stroke-width: 0.8"/>
      </g>
     </g>
     <g id="text_6">
      <!-- 1.0 -->
      <g transform="translate(376.71696 287.910437)scale(0.1 -0.1)">
       <defs>
        <path id="DejaVuSans-31" d="M 794 531 
L 1825 531 
L 1825 4091 
L 703 3866 
L 703 4441 
L 1819 4666 
L 2450 4666 
L 2450 531 
L 3481 531 
L 3481 0 
L 794 0 
L 794 531 
z
" transform="scale(0.015625)"/>
       </defs>
       <use xlink:href="#DejaVuSans-31"/>
       <use xlink:href="#DejaVuSans-2e" x="63.623047"/>
       <use xlink:href="#DejaVuSans-30" x="95.410156"/>
      </g>
     </g>
    </g>
    <g id="text_7">
     <!-- Propagation direction -->
     <g transform="translate(168.859219 301.588562)scale(0.1 -0.1)">
      <defs>
       <path id="DejaVuSans-50" d="M 1259 4147 
L 1259 2394 
L 2053 2394 
Q 2494 2394 2734 2622 
Q 2975 2850 2975 3272 
Q 2975 3691 2734 3919 
Q 2494 4147 2053 4147 
L 1259 4147 
z
M 628 4666 
L 2053 4666 
Q 2838 4666 3239 4311 
Q 3641 3956 3641 3272 
Q 3641 2581 3239 2228 
Q 2838 1875 2053 1875 
L 1259 1875 
L 1259 0 
L 628 0 
L 628 4666 
z
" transform="scale(0.015625)"/>
       <path id="DejaVuSans-72" d="M 2631 2963 
Q 2534 3019 2420 3045 
Q 2306 3072 2169 3072 
Q 1681 3072 1420 2755 
Q 1159 2438 1159 1844 
L 1159 0 
L 581 0 
L 581 3500 
L 1159 3500 
L 1159 2956 
Q 1341 3275 1631 3429 
Q 1922 3584 2338 3584 
Q 2397 3584 2469 3576 
Q 2541 3569 2628 3553 
L 2631 2963 
z
" transform="scale(0.015625)"/>
       <path id="DejaVuSans-6f" d="M 1959 3097 
Q 1497 3097 1228 2736 
Q 959 2375 959 1747 
Q 959 1119 1226 758 
Q 1494 397 1959 397 
Q 2419 397 2687 759 
Q 2956 1122 2956 1747 
Q 2956 2369 2687 2733 
Q 2419 3097 1959 3097 
z
M 1959 3584 
Q 2709 3584 3137 3096 
Q 3566 2609 3566 1747 
Q 3566 888 3137 398 
Q 2709 -91 1959 -91 
Q 1206 -91 779 398 
Q 353 888 353 1747 
Q 353 2609 779 3096 
Q 1206 3584 1959 3584 
z
" transform="scale(0.015625)"/>
       <path id="DejaVuSans-70" d="M 1159 525 
L 1159 -1331 
L 581 -1331 
L 581 3500 
L 1159 3500 
L 1159 2969 
Q 1341 3281 1617 3432 
Q 1894 3584 2278 3584 
Q 2916 3584 3314 3078 
Q 3713 2572 3713 1747 
Q 3713 922 3314 415 
Q 2916 -91 2278 -91 
Q 1894 -91 1617 61 
Q 1341 213 1159 525 
z
M 3116 1747 
Q 3116 2381 2855 2742 
Q 2594 3103 2138 3103 
Q 1681 3103 1420 2742 
Q 1159 2381 1159 1747 
Q 1159 1113 1420 752 
Q 1681 391 2138 391 
Q 2594 391 2855 752 
Q 3116 1113 3116 1747 
z
" transform="scale(0.015625)"/>
       <path id="DejaVuSans-61" d="M 2194 1759 
Q 1497 1759 1228 1600 
Q 959 1441 959 1056 
Q 959 750 1161 570 
Q 1363 391 1709 391 
Q 2188 391 2477 730 
Q 2766 1069 2766 1631 
L 2766 1759 
L 2194 1759 
z
M 3341 1997 
L 3341 0 
L 2766 0 
L 2766 531 
Q 2569 213 2275 61 
Q 1981 -91 1556 -91 
Q 1019 -91 701 211 
Q 384 513 384 1019 
Q 384 1609 779 1909 
Q 1175 2209 1959 2209 
L 2766 2209 
L 2766 2266 
Q 2766 2663 2505 2880 
Q 2244 3097 1772 3097 
Q 1472 3097 1187 3025 
Q 903 2953 641 2809 
L 641 3341 
Q 956 3463 1253 3523 
Q 1550 3584 1831 3584 
Q 2591 3584 2966 3190 
Q 3341 2797 3341 1997 
z
" transform="scale(0.015625)"/>
       <path id="DejaVuSans-67" d="M 2906 1791 
Q 2906 2416 2648 2759 
Q 2391 3103 1925 3103 
Q 1463 3103 1205 2759 
Q 947 2416 947 1791 
Q 947 1169 1205 825 
Q 1463 481 1925 481 
Q 2391 481 2648 825 
Q 2906 1169 2906 1791 
z
M 3481 434 
Q 3481 -459 3084 -895 
Q 2688 -1331 1869 -1331 
Q 1566 -1331 1297 -1286 
Q 1028 -1241 775 -1147 
L 775 -588 
Q 1028 -725 1275 -790 
Q 1522 -856 1778 -856 
Q 2344 -856 2625 -561 
Q 2906 -266 2906 331 
L 2906 616 
Q 2728 306 2450 153 
Q 2172 0 1784 0 
Q 1141 0 747 490 
Q 353 981 353 1791 
Q 353 2603 747 3093 
Q 1141 3584 1784 3584 
Q 2172 3584 2450 3431 
Q 2728 3278 2906 2969 
L 2906 3500 
L 3481 3500 
L 3481 434 
z
" transform="scale(0.015625)"/>
       <path id="DejaVuSans-74" d="M 1172 4494 
L 1172 3500 
L 2356 3500 
L 2356 3053 
L 1172 3053 
L 1172 1153 
Q 1172 725 1289 603 
Q 1406 481 1766 481 
L 2356 481 
L 2356 0 
L 1766 0 
Q 1100 0 847 248 
Q 594 497 594 1153 
L 594 3053 
L 172 3053 
L 172 3500 
L 594 3500 
L 594 4494 
L 1172 4494 
z
" transform="scale(0.015625)"/>
       <path id="DejaVuSans-69" d="M 603 3500 
L 1178 3500 
L 1178 0 
L 603 0 
L 603 3500 
z
M 603 4863 
L 1178 4863 
L 1178 4134 
L 603 4134 
L 603 4863 
z
" transform="scale(0.015625)"/>
       <path id="DejaVuSans-6e" d="M 3513 2113 
L 3513 0 
L 2938 0 
L 2938 2094 
Q 2938 2591 2744 2837 
Q 2550 3084 2163 3084 
Q 1697 3084 1428 2787 
Q 1159 2491 1159 1978 
L 1159 0 
L 581 0 
L 581 3500 
L 1159 3500 
L 1159 2956 
Q 1366 3272 1645 3428 
Q 1925 3584 2291 3584 
Q 2894 3584 3203 3211 
Q 3513 2838 3513 2113 
z
" transform="scale(0.015625)"/>
       <path id="DejaVuSans-20" transform="scale(0.015625)"/>
       <path id="DejaVuSans-64" d="M 2906 2969 
L 2906 4863 
L 3481 4863 
L 3481 0 
L 2906 0 
L 2906 525 
Q 2725 213 2448 61 
Q 2172 -91 1784 -91 
Q 1150 -91 751 415 
Q 353 922 353 1747 
Q 353 2572 751 3078 
Q 1150 3584 1784 3584 
Q 2172 3584 2448 3432 
Q 2725 3281 2906 2969 
z
M 947 1747 
Q 947 1113 1208 752 
Q 1469 391 1925 391 
Q 2381 391 2643 752 
Q 2906 1113 2906 1747 
Q 2906 2381 2643 2742 
Q 2381 3103 1925 3103 
Q 1469 3103 1208 2742 
Q 947 2381 947 1747 
z
" transform="scale(0.015625)"/>
       <path id="DejaVuSans-65" d="M 3597 1894 
L 3597 1613 
L 953 1613 
Q 991 1019 1311 708 
Q 1631 397 2203 397 
Q 2534 397 2845 478 
Q 3156 559 3463 722 
L 3463 178 
Q 3153 47 2828 -22 
Q 2503 -91 2169 -91 
Q 1331 -91 842 396 
Q 353 884 353 1716 
Q 353 2575 817 3079 
Q 1281 3584 2069 3584 
Q 2775 3584 3186 3129 
Q 3597 2675 3597 1894 
z
M 3022 2063 
Q 3016 2534 2758 2815 
Q 2500 3097 2075 3097 
Q 1594 3097 1305 2825 
Q 1016 2553 972 2059 
L 3022 2063 
z
" transform="scale(0.015625)"/>
       <path id="DejaVuSans-63" d="M 3122 3366 
L 3122 2828 
Q 2878 2963 2633 3030 
Q 2388 3097 2138 3097 
Q 1578 3097 1268 2742 
Q 959 2388 959 1747 
Q 959 1106 1268 751 
Q 1578 397 2138 397 
Q 2388 397 2633 464 
Q 2878 531 3122 666 
L 3122 134 
Q 2881 22 2623 -34 
Q 2366 -91 2075 -91 
Q 1284 -91 818 406 
Q 353 903 353 1747 
Q 353 2603 823 3093 
Q 1294 3584 2113 3584 
Q 2378 3584 2631 3529 
Q 2884 3475 3122 3366 
z
" transform="scale(0.015625)"/>
      </defs>
      <use xlink:href="#DejaVuSans-50"/>
      <use xlink:href="#DejaVuSans-72" x="58.552734"/>
      <use xlink:href="#DejaVuSans-6f" x="97.416016"/>
      <use xlink:href="#DejaVuSans-70" x="158.597656"/>
      <use xlink:href="#DejaVuSans-61" x="222.074219"/>
      <use xlink:href="#DejaVuSans-67" x="283.353516"/>
      <use xlink:href="#DejaVuSans-61" x="346.830078"/>
      <use xlink:href="#DejaVuSans-74" x="408.109375"/>
      <use xlink:href="#DejaVuSans-69" x="447.318359"/>
      <use xlink:href="#DejaVuSans-6f" x="475.101562"/>
      <use xlink:href="#DejaVuSans-6e" x="536.283203"/>
      <use xlink:href="#DejaVuSans-20" x="599.662109"/>
      <use xlink:href="#DejaVuSans-64" x="631.449219"/>
      <use xlink:href="#DejaVuSans-69" x="694.925781"/>
      <use xlink:href="#DejaVuSans-72" x="722.708984"/>
      <use xlink:href="#DejaVuSans-65" x="761.572266"/>
      <use xlink:href="#DejaVuSans-63" x="823.095703"/>
      <use xlink:href="#DejaVuSans-74" x="878.076172"/>
      <use xlink:href="#DejaVuSans-69" x="917.285156"/>
      <use xlink:href="#DejaVuSans-6f" x="945.068359"/>
      <use xlink:href="#DejaVuSans-6e" x="1006.25"/>
     </g>
    </g>
   </g>
   <g id="matplotlib.axis_2">
    <g id="ytick_1">
     <g id="line2d_7">
      <defs>
       <path id="m1d28b08ea3" d="M 0 0 
L -3.5 0 
" style="stroke: #000000; stroke-width: 0.8"/>
      </defs>
      <g>
       <use xlink:href="#m1d28b08ea3" x="43.78125" y="273.312" style="stroke: #000000; stroke-width: 0.8"/>
      </g>
     </g>
     <g id="text_8">
      <!-- 0.0 -->
      <g transform="translate(20.878125 277.111219)scale(0.1 -0.1)">
       <use xlink:href="#DejaVuSans-30"/>
       <use xlink:href="#DejaVuSans-2e" x="63.623047"/>
       <use xlink:href="#DejaVuSans-30" x="95.410156"/>
      </g>
     </g>
    </g>
    <g id="ytick_2">
     <g id="line2d_8">
      <g>
       <use xlink:href="#m1d28b08ea3" x="43.78125" y="214.719053" style="stroke: #000000; stroke-width: 0.8"/>
      </g>
     </g>
     <g id="text_9">
      <!-- 0.5 -->
      <g transform="translate(20.878125 218.518272)scale(0.1 -0.1)">
       <defs>
        <path id="DejaVuSans-35" d="M 691 4666 
L 3169 4666 
L 3169 4134 
L 1269 4134 
L 1269 2991 
Q 1406 3038 1543 3061 
Q 1681 3084 1819 3084 
Q 2600 3084 3056 2656 
Q 3513 2228 3513 1497 
Q 3513 744 3044 326 
Q 2575 -91 1722 -91 
Q 1428 -91 1123 -41 
Q 819 9 494 109 
L 494 744 
Q 775 591 1075 516 
Q 1375 441 1709 441 
Q 2250 441 2565 725 
Q 2881 1009 2881 1497 
Q 2881 1984 2565 2268 
Q 2250 2553 1709 2553 
Q 1456 2553 1204 2497 
Q 953 2441 691 2322 
L 691 4666 
z
" transform="scale(0.015625)"/>
       </defs>
       <use xlink:href="#DejaVuSans-30"/>
       <use xlink:href="#DejaVuSans-2e" x="63.623047"/>
       <use xlink:href="#DejaVuSans-35" x="95.410156"/>
      </g>
     </g>
    </g>
    <g id="ytick_3">
     <g id="line2d_9">
      <g>
       <use xlink:href="#m1d28b08ea3" x="43.78125" y="156.126107" style="stroke: #000000; stroke-width: 0.8"/>
      </g>
     </g>
     <g id="text_10">
      <!-- 1.0 -->
      <g transform="translate(20.878125 159.925325)scale(0.1 -0.1)">
       <use xlink:href="#DejaVuSans-31"/>
       <use xlink:href="#DejaVuSans-2e" x="63.623047"/>
       <use xlink:href="#DejaVuSans-30" x="95.410156"/>
      </g>
     </g>
    </g>
    <g id="ytick_4">
     <g id="line2d_10">
      <g>
       <use xlink:href="#m1d28b08ea3" x="43.78125" y="97.53316" style="stroke: #000000; stroke-width: 0.8"/>
      </g>
     </g>
     <g id="text_11">
      <!-- 1.5 -->
      <g transform="translate(20.878125 101.332379)scale(0.1 -0.1)">
       <use xlink:href="#DejaVuSans-31"/>
       <use xlink:href="#DejaVuSans-2e" x="63.623047"/>
       <use xlink:href="#DejaVuSans-35" x="95.410156"/>
      </g>
     </g>
    </g>
    <g id="ytick_5">
     <g id="line2d_11">
      <g>
       <use xlink:href="#m1d28b08ea3" x="43.78125" y="38.940213" style="stroke: #000000; stroke-width: 0.8"/>
      </g>
     </g>
     <g id="text_12">
      <!-- 2.0 -->
      <g transform="translate(20.878125 42.739432)scale(0.1 -0.1)">
       <use xlink:href="#DejaVuSans-32"/>
       <use xlink:href="#DejaVuSans-2e" x="63.623047"/>
       <use xlink:href="#DejaVuSans-30" x="95.410156"/>
      </g>
     </g>
    </g>
    <g id="text_13">
     <!-- Probability density -->
     <g transform="translate(14.798438 186.606781)rotate(-90)scale(0.1 -0.1)">
      <defs>
       <path id="DejaVuSans-62" d="M 3116 1747 
Q 3116 2381 2855 2742 
Q 2594 3103 2138 3103 
Q 1681 3103 1420 2742 
Q 1159 2381 1159 1747 
Q 1159 1113 1420 752 
Q 1681 391 2138 391 
Q 2594 391 2855 752 
Q 3116 1113 3116 1747 
z
M 1159 2969 
Q 1341 3281 1617 3432 
Q 1894 3584 2278 3584 
Q 2916 3584 3314 3078 
Q 3713 2572 3713 1747 
Q 3713 922 3314 415 
Q 2916 -91 2278 -91 
Q 1894 -91 1617 61 
Q 1341 213 1159 525 
L 1159 0 
L 581 0 
L 581 4863 
L 1159 4863 
L 1159 2969 
z
" transform="scale(0.015625)"/>
       <path id="DejaVuSans-6c" d="M 603 4863 
L 1178 4863 
L 1178 0 
L 603 0 
L 603 4863 
z
" transform="scale(0.015625)"/>
       <path id="DejaVuSans-79" d="M 2059 -325 
Q 1816 -950 1584 -1140 
Q 1353 -1331 966 -1331 
L 506 -1331 
L 506 -850 
L 844 -850 
Q 1081 -850 1212 -737 
Q 1344 -625 1503 -206 
L 1606 56 
L 191 3500 
L 800 3500 
L 1894 763 
L 2988 3500 
L 3597 3500 
L 2059 -325 
z
" transform="scale(0.015625)"/>
       <path id="DejaVuSans-73" d="M 2834 3397 
L 2834 2853 
Q 2591 2978 2328 3040 
Q 2066 3103 1784 3103 
Q 1356 3103 1142 2972 
Q 928 2841 928 2578 
Q 928 2378 1081 2264 
Q 1234 2150 1697 2047 
L 1894 2003 
Q 2506 1872 2764 1633 
Q 3022 1394 3022 966 
Q 3022 478 2636 193 
Q 2250 -91 1575 -91 
Q 1294 -91 989 -36 
Q 684 19 347 128 
L 347 722 
Q 666 556 975 473 
Q 1284 391 1588 391 
Q 1994 391 2212 530 
Q 2431 669 2431 922 
Q 2431 1156 2273 1281 
Q 2116 1406 1581 1522 
L 1381 1569 
Q 847 1681 609 1914 
Q 372 2147 372 2553 
Q 372 3047 722 3315 
Q 1072 3584 1716 3584 
Q 2034 3584 2315 3537 
Q 2597 3491 2834 3397 
z
" transform="scale(0.015625)"/>
      </defs>
      <use xlink:href="#DejaVuSans-50"/>
      <use xlink:href="#DejaVuSans-72" x="58.552734"/>
      <use xlink:href="#DejaVuSans-6f" x="97.416016"/>
      <use xlink:href="#DejaVuSans-62" x="158.597656"/>
      <use xlink:href="#DejaVuSans-61" x="222.074219"/>
      <use xlink:href="#DejaVuSans-62" x="283.353516"/>
      <use xlink:href="#DejaVuSans-69" x="346.830078"/>
      <use xlink:href="#DejaVuSans-6c" x="374.613281"/>
      <use xlink:href="#DejaVuSans-69" x="402.396484"/>
      <use xlink:href="#DejaVuSans-74" x="430.179688"/>
      <use xlink:href="#DejaVuSans-79" x="469.388672"/>
      <use xlink:href="#DejaVuSans-20" x="528.568359"/>
      <use xlink:href="#DejaVuSans-64" x="560.355469"/>
      <use xlink:href="#DejaVuSans-65" x="623.832031"/>
      <use xlink:href="#DejaVuSans-6e" x="685.355469"/>
      <use xlink:href="#DejaVuSans-73" x="748.734375"/>
      <use xlink:href="#DejaVuSans-69" x="800.833984"/>
      <use xlink:href="#DejaVuSans-74" x="828.617188"/>
      <use xlink:href="#DejaVuSans-79" x="867.826172"/>
     </g>
    </g>
   </g>
   <g id="line2d_12">
    <path d="M 60.013977 273.312 
L 384.668523 38.940213 
L 384.668523 38.940213 
" clip-path="url(#pf21b2bf327)" style="fill: none; stroke: #ff7f0e; stroke-width: 1.5; stroke-linecap: square"/>
   </g>
   <g id="patch_203">
    <path d="M 43.78125 273.312 
L 43.78125 7.2 
" style="fill: none; stroke: #000000; stroke-width: 0.8; stroke-linejoin: miter; stroke-linecap: square"/>
   </g>
   <g id="patch_204">
    <path d="M 400.90125 273.312 
L 400.90125 7.2 
" style="fill: none; stroke: #000000; stroke-width: 0.8; stroke-linejoin: miter; stroke-linecap: square"/>
   </g>
   <g id="patch_205">
    <path d="M 43.78125 273.312 
L 400.90125 273.312 
" style="fill: none; stroke: #000000; stroke-width: 0.8; stroke-linejoin: miter; stroke-linecap: square"/>
   </g>
   <g id="patch_206">
    <path d="M 43.78125 7.2 
L 400.90125 7.2 
" style="fill: none; stroke: #000000; stroke-width: 0.8; stroke-linejoin: miter; stroke-linecap: square"/>
   </g>
  </g>
 </g>
 <defs>
  <clipPath id="pf21b2bf327">
   <rect x="43.78125" y="7.2" width="357.12" height="266.112"/>
  </clipPath>
 </defs>
</svg>
