<?xml version="1.0" encoding="utf-8" standalone="no"?>
<!DOCTYPE svg PUBLIC "-//W3C//DTD SVG 1.1//EN"
  "http://www.w3.org/Graphics/SVG/1.1/DTD/svg11.dtd">
<svg xmlns:xlink="http://www.w3.org/1999/xlink" width="408.10125pt" height="310.86825pt" viewBox="0 0 408.10125 310.86825" xmlns="http://www.w3.org/2000/svg" version="1.1">
 <metadata>
  <rdf:RDF xmlns:dc="http://purl.org/dc/elements/1.1/" xmlns:cc="http://creativecommons.org/ns#" xmlns:rdf="http://www.w3.org/1999/02/22-rdf-syntax-ns#">
   <cc:Work>
    <dc:type rdf:resource="http://purl.org/dc/dcmitype/StillImage"/>
    <dc:date>2022-05-08T22:39:55.062107</dc:date>
    <dc:format>image/svg+xml</dc:format>
    <dc:creator>
     <cc:Agent>
      <dc:title>Matplotlib v3.5.2, https://matplotlib.org/</dc:title>
     </cc:Agent>
    </dc:creator>
   </cc:Work>
  </rdf:RDF>
 </metadata>
 <defs>
  <style type="text/css">*{stroke-linejoin: round; stroke-linecap: butt}</style>
 </defs>
 <g id="figure_1">
  <g id="patch_1">
   <path d="M 0 310.86825 
L 408.10125 310.86825 
L 408.10125 0 
L 0 0 
z
" style="fill: #ffffff"/>
  </g>
  <g id="axes_1">
   <g id="patch_2">
    <path d="M 43.78125 273.312 
L 400.90125 273.312 
L 400.90125 7.2 
L 43.78125 7.2 
z
" style="fill: #ffffff"/>
   </g>
   <g id="patch_3">
    <path d="M 61.452893 273.312 
L 63.063874 273.312 
L 63.063874 268.772776 
L 61.452893 268.772776 
z
" clip-path="url(#p4a060e1a68)" style="fill: #1f77b4"/>
   </g>
   <g id="patch_4">
    <path d="M 63.063874 273.312 
L 64.674856 273.312 
L 64.674856 261.207403 
L 63.063874 261.207403 
z
" clip-path="url(#p4a060e1a68)" style="fill: #1f77b4"/>
   </g>
   <g id="patch_5">
    <path d="M 64.674856 273.312 
L 66.285837 273.312 
L 66.285837 264.99009 
L 64.674856 264.99009 
z
" clip-path="url(#p4a060e1a68)" style="fill: #1f77b4"/>
   </g>
   <g id="patch_6">
    <path d="M 66.285837 273.312 
L 67.896818 273.312 
L 67.896818 254.398567 
L 66.285837 254.398567 
z
" clip-path="url(#p4a060e1a68)" style="fill: #1f77b4"/>
   </g>
   <g id="patch_7">
    <path d="M 67.896818 273.312 
L 69.5078 273.312 
L 69.5078 247.589731 
L 67.896818 247.589731 
z
" clip-path="url(#p4a060e1a68)" style="fill: #1f77b4"/>
   </g>
   <g id="patch_8">
    <path d="M 69.5078 273.312 
L 71.118781 273.312 
L 71.118781 252.885493 
L 69.5078 252.885493 
z
" clip-path="url(#p4a060e1a68)" style="fill: #1f77b4"/>
   </g>
   <g id="patch_9">
    <path d="M 71.118781 273.312 
L 72.729762 273.312 
L 72.729762 246.833194 
L 71.118781 246.833194 
z
" clip-path="url(#p4a060e1a68)" style="fill: #1f77b4"/>
   </g>
   <g id="patch_10">
    <path d="M 72.729762 273.312 
L 74.340744 273.312 
L 74.340744 243.050507 
L 72.729762 243.050507 
z
" clip-path="url(#p4a060e1a68)" style="fill: #1f77b4"/>
   </g>
   <g id="patch_11">
    <path d="M 74.340744 273.312 
L 75.951725 273.312 
L 75.951725 236.241672 
L 74.340744 236.241672 
z
" clip-path="url(#p4a060e1a68)" style="fill: #1f77b4"/>
   </g>
   <g id="patch_12">
    <path d="M 75.951725 273.312 
L 77.562707 273.312 
L 77.562707 233.97206 
L 75.951725 233.97206 
z
" clip-path="url(#p4a060e1a68)" style="fill: #1f77b4"/>
   </g>
   <g id="patch_13">
    <path d="M 77.562707 273.312 
L 79.173688 273.312 
L 79.173688 224.137075 
L 77.562707 224.137075 
z
" clip-path="url(#p4a060e1a68)" style="fill: #1f77b4"/>
   </g>
   <g id="patch_14">
    <path d="M 79.173688 273.312 
L 80.784669 273.312 
L 80.784669 232.458985 
L 79.173688 232.458985 
z
" clip-path="url(#p4a060e1a68)" style="fill: #1f77b4"/>
   </g>
   <g id="patch_15">
    <path d="M 80.784669 273.312 
L 82.395651 273.312 
L 82.395651 217.328239 
L 80.784669 217.328239 
z
" clip-path="url(#p4a060e1a68)" style="fill: #1f77b4"/>
   </g>
   <g id="patch_16">
    <path d="M 82.395651 273.312 
L 84.006632 273.312 
L 84.006632 220.354388 
L 82.395651 220.354388 
z
" clip-path="url(#p4a060e1a68)" style="fill: #1f77b4"/>
   </g>
   <g id="patch_17">
    <path d="M 84.006632 273.312 
L 85.617613 273.312 
L 85.617613 222.624 
L 84.006632 222.624 
z
" clip-path="url(#p4a060e1a68)" style="fill: #1f77b4"/>
   </g>
   <g id="patch_18">
    <path d="M 85.617613 273.312 
L 87.228595 273.312 
L 87.228595 212.789015 
L 85.617613 212.789015 
z
" clip-path="url(#p4a060e1a68)" style="fill: #1f77b4"/>
   </g>
   <g id="patch_19">
    <path d="M 87.228595 273.312 
L 88.839576 273.312 
L 88.839576 208.249791 
L 87.228595 208.249791 
z
" clip-path="url(#p4a060e1a68)" style="fill: #1f77b4"/>
   </g>
   <g id="patch_20">
    <path d="M 88.839576 273.312 
L 90.450557 273.312 
L 90.450557 201.440955 
L 88.839576 201.440955 
z
" clip-path="url(#p4a060e1a68)" style="fill: #1f77b4"/>
   </g>
   <g id="patch_21">
    <path d="M 90.450557 273.312 
L 92.061539 273.312 
L 92.061539 196.145194 
L 90.450557 196.145194 
z
" clip-path="url(#p4a060e1a68)" style="fill: #1f77b4"/>
   </g>
   <g id="patch_22">
    <path d="M 92.061539 273.312 
L 93.67252 273.312 
L 93.67252 202.197493 
L 92.061539 202.197493 
z
" clip-path="url(#p4a060e1a68)" style="fill: #1f77b4"/>
   </g>
   <g id="patch_23">
    <path d="M 93.67252 273.312 
L 95.283502 273.312 
L 95.283502 198.414806 
L 93.67252 198.414806 
z
" clip-path="url(#p4a060e1a68)" style="fill: #1f77b4"/>
   </g>
   <g id="patch_24">
    <path d="M 95.283502 273.312 
L 96.894483 273.312 
L 96.894483 184.797134 
L 95.283502 184.797134 
z
" clip-path="url(#p4a060e1a68)" style="fill: #1f77b4"/>
   </g>
   <g id="patch_25">
    <path d="M 96.894483 273.312 
L 98.505464 273.312 
L 98.505464 176.475224 
L 96.894483 176.475224 
z
" clip-path="url(#p4a060e1a68)" style="fill: #1f77b4"/>
   </g>
   <g id="patch_26">
    <path d="M 98.505464 273.312 
L 100.116446 273.312 
L 100.116446 181.770985 
L 98.505464 181.770985 
z
" clip-path="url(#p4a060e1a68)" style="fill: #1f77b4"/>
   </g>
   <g id="patch_27">
    <path d="M 100.116446 273.312 
L 101.727427 273.312 
L 101.727427 186.310209 
L 100.116446 186.310209 
z
" clip-path="url(#p4a060e1a68)" style="fill: #1f77b4"/>
   </g>
   <g id="patch_28">
    <path d="M 101.727427 273.312 
L 103.338408 273.312 
L 103.338408 187.823284 
L 101.727427 187.823284 
z
" clip-path="url(#p4a060e1a68)" style="fill: #1f77b4"/>
   </g>
   <g id="patch_29">
    <path d="M 103.338408 273.312 
L 104.94939 273.312 
L 104.94939 168.909851 
L 103.338408 168.909851 
z
" clip-path="url(#p4a060e1a68)" style="fill: #1f77b4"/>
   </g>
   <g id="patch_30">
    <path d="M 104.94939 273.312 
L 106.560371 273.312 
L 106.560371 172.692537 
L 104.94939 172.692537 
z
" clip-path="url(#p4a060e1a68)" style="fill: #1f77b4"/>
   </g>
   <g id="patch_31">
    <path d="M 106.560371 273.312 
L 108.171353 273.312 
L 108.171353 156.048716 
L 106.560371 156.048716 
z
" clip-path="url(#p4a060e1a68)" style="fill: #1f77b4"/>
   </g>
   <g id="patch_32">
    <path d="M 108.171353 273.312 
L 109.782334 273.312 
L 109.782334 167.396776 
L 108.171353 167.396776 
z
" clip-path="url(#p4a060e1a68)" style="fill: #1f77b4"/>
   </g>
   <g id="patch_33">
    <path d="M 109.782334 273.312 
L 111.393315 273.312 
L 111.393315 180.25791 
L 109.782334 180.25791 
z
" clip-path="url(#p4a060e1a68)" style="fill: #1f77b4"/>
   </g>
   <g id="patch_34">
    <path d="M 111.393315 273.312 
L 113.004297 273.312 
L 113.004297 169.666388 
L 111.393315 169.666388 
z
" clip-path="url(#p4a060e1a68)" style="fill: #1f77b4"/>
   </g>
   <g id="patch_35">
    <path d="M 113.004297 273.312 
L 114.615278 273.312 
L 114.615278 153.022567 
L 113.004297 153.022567 
z
" clip-path="url(#p4a060e1a68)" style="fill: #1f77b4"/>
   </g>
   <g id="patch_36">
    <path d="M 114.615278 273.312 
L 116.226259 273.312 
L 116.226259 156.805254 
L 114.615278 156.805254 
z
" clip-path="url(#p4a060e1a68)" style="fill: #1f77b4"/>
   </g>
   <g id="patch_37">
    <path d="M 116.226259 273.312 
L 117.837241 273.312 
L 117.837241 141.674507 
L 116.226259 141.674507 
z
" clip-path="url(#p4a060e1a68)" style="fill: #1f77b4"/>
   </g>
   <g id="patch_38">
    <path d="M 117.837241 273.312 
L 119.448222 273.312 
L 119.448222 135.622209 
L 117.837241 135.622209 
z
" clip-path="url(#p4a060e1a68)" style="fill: #1f77b4"/>
   </g>
   <g id="patch_39">
    <path d="M 119.448222 273.312 
L 121.059204 273.312 
L 121.059204 153.022567 
L 119.448222 153.022567 
z
" clip-path="url(#p4a060e1a68)" style="fill: #1f77b4"/>
   </g>
   <g id="patch_40">
    <path d="M 121.059204 273.312 
L 122.670185 273.312 
L 122.670185 145.457194 
L 121.059204 145.457194 
z
" clip-path="url(#p4a060e1a68)" style="fill: #1f77b4"/>
   </g>
   <g id="patch_41">
    <path d="M 122.670185 273.312 
L 124.281166 273.312 
L 124.281166 163.61409 
L 122.670185 163.61409 
z
" clip-path="url(#p4a060e1a68)" style="fill: #1f77b4"/>
   </g>
   <g id="patch_42">
    <path d="M 124.281166 273.312 
L 125.892148 273.312 
L 125.892148 133.352597 
L 124.281166 133.352597 
z
" clip-path="url(#p4a060e1a68)" style="fill: #1f77b4"/>
   </g>
   <g id="patch_43">
    <path d="M 125.892148 273.312 
L 127.503129 273.312 
L 127.503129 136.378746 
L 125.892148 136.378746 
z
" clip-path="url(#p4a060e1a68)" style="fill: #1f77b4"/>
   </g>
   <g id="patch_44">
    <path d="M 127.503129 273.312 
L 129.11411 273.312 
L 129.11411 125.030687 
L 127.503129 125.030687 
z
" clip-path="url(#p4a060e1a68)" style="fill: #1f77b4"/>
   </g>
   <g id="patch_45">
    <path d="M 129.11411 273.312 
L 130.725092 273.312 
L 130.725092 108.386866 
L 129.11411 108.386866 
z
" clip-path="url(#p4a060e1a68)" style="fill: #1f77b4"/>
   </g>
   <g id="patch_46">
    <path d="M 130.725092 273.312 
L 132.336073 273.312 
L 132.336073 105.360716 
L 130.725092 105.360716 
z
" clip-path="url(#p4a060e1a68)" style="fill: #1f77b4"/>
   </g>
   <g id="patch_47">
    <path d="M 132.336073 273.312 
L 133.947055 273.312 
L 133.947055 125.787224 
L 132.336073 125.787224 
z
" clip-path="url(#p4a060e1a68)" style="fill: #1f77b4"/>
   </g>
   <g id="patch_48">
    <path d="M 133.947055 273.312 
L 135.558036 273.312 
L 135.558036 121.248 
L 133.947055 121.248 
z
" clip-path="url(#p4a060e1a68)" style="fill: #1f77b4"/>
   </g>
   <g id="patch_49">
    <path d="M 135.558036 273.312 
L 137.169017 273.312 
L 137.169017 115.195701 
L 135.558036 115.195701 
z
" clip-path="url(#p4a060e1a68)" style="fill: #1f77b4"/>
   </g>
   <g id="patch_50">
    <path d="M 137.169017 273.312 
L 138.779999 273.312 
L 138.779999 106.117254 
L 137.169017 106.117254 
z
" clip-path="url(#p4a060e1a68)" style="fill: #1f77b4"/>
   </g>
   <g id="patch_51">
    <path d="M 138.779999 273.312 
L 140.39098 273.312 
L 140.39098 102.334567 
L 138.779999 102.334567 
z
" clip-path="url(#p4a060e1a68)" style="fill: #1f77b4"/>
   </g>
   <g id="patch_52">
    <path d="M 140.39098 273.312 
L 142.001961 273.312 
L 142.001961 87.960358 
L 140.39098 87.960358 
z
" clip-path="url(#p4a060e1a68)" style="fill: #1f77b4"/>
   </g>
   <g id="patch_53">
    <path d="M 142.001961 273.312 
L 143.612943 273.312 
L 143.612943 86.447284 
L 142.001961 86.447284 
z
" clip-path="url(#p4a060e1a68)" style="fill: #1f77b4"/>
   </g>
   <g id="patch_54">
    <path d="M 143.612943 273.312 
L 145.223924 273.312 
L 145.223924 99.308418 
L 143.612943 99.308418 
z
" clip-path="url(#p4a060e1a68)" style="fill: #1f77b4"/>
   </g>
   <g id="patch_55">
    <path d="M 145.223924 273.312 
L 146.834905 273.312 
L 146.834905 66.777313 
L 145.223924 66.777313 
z
" clip-path="url(#p4a060e1a68)" style="fill: #1f77b4"/>
   </g>
   <g id="patch_56">
    <path d="M 146.834905 273.312 
L 148.445887 273.312 
L 148.445887 84.177672 
L 146.834905 84.177672 
z
" clip-path="url(#p4a060e1a68)" style="fill: #1f77b4"/>
   </g>
   <g id="patch_57">
    <path d="M 148.445887 273.312 
L 150.056868 273.312 
L 150.056868 103.091104 
L 148.445887 103.091104 
z
" clip-path="url(#p4a060e1a68)" style="fill: #1f77b4"/>
   </g>
   <g id="patch_58">
    <path d="M 150.056868 273.312 
L 151.66785 273.312 
L 151.66785 105.360716 
L 150.056868 105.360716 
z
" clip-path="url(#p4a060e1a68)" style="fill: #1f77b4"/>
   </g>
   <g id="patch_59">
    <path d="M 151.66785 273.312 
L 153.278831 273.312 
L 153.278831 87.960358 
L 151.66785 87.960358 
z
" clip-path="url(#p4a060e1a68)" style="fill: #1f77b4"/>
   </g>
   <g id="patch_60">
    <path d="M 153.278831 273.312 
L 154.889812 273.312 
L 154.889812 108.386866 
L 153.278831 108.386866 
z
" clip-path="url(#p4a060e1a68)" style="fill: #1f77b4"/>
   </g>
   <g id="patch_61">
    <path d="M 154.889812 273.312 
L 156.500794 273.312 
L 156.500794 89.473433 
L 154.889812 89.473433 
z
" clip-path="url(#p4a060e1a68)" style="fill: #1f77b4"/>
   </g>
   <g id="patch_62">
    <path d="M 156.500794 273.312 
L 158.111775 273.312 
L 158.111775 95.525731 
L 156.500794 95.525731 
z
" clip-path="url(#p4a060e1a68)" style="fill: #1f77b4"/>
   </g>
   <g id="patch_63">
    <path d="M 158.111775 273.312 
L 159.722756 273.312 
L 159.722756 78.125373 
L 158.111775 78.125373 
z
" clip-path="url(#p4a060e1a68)" style="fill: #1f77b4"/>
   </g>
   <g id="patch_64">
    <path d="M 159.722756 273.312 
L 161.333738 273.312 
L 161.333738 53.159642 
L 159.722756 53.159642 
z
" clip-path="url(#p4a060e1a68)" style="fill: #1f77b4"/>
   </g>
   <g id="patch_65">
    <path d="M 161.333738 273.312 
L 162.944719 273.312 
L 162.944719 65.264239 
L 161.333738 65.264239 
z
" clip-path="url(#p4a060e1a68)" style="fill: #1f77b4"/>
   </g>
   <g id="patch_66">
    <path d="M 162.944719 273.312 
L 164.555701 273.312 
L 164.555701 54.672716 
L 162.944719 54.672716 
z
" clip-path="url(#p4a060e1a68)" style="fill: #1f77b4"/>
   </g>
   <g id="patch_67">
    <path d="M 164.555701 273.312 
L 166.166682 273.312 
L 166.166682 50.89003 
L 164.555701 50.89003 
z
" clip-path="url(#p4a060e1a68)" style="fill: #1f77b4"/>
   </g>
   <g id="patch_68">
    <path d="M 166.166682 273.312 
L 167.777663 273.312 
L 167.777663 77.368836 
L 166.166682 77.368836 
z
" clip-path="url(#p4a060e1a68)" style="fill: #1f77b4"/>
   </g>
   <g id="patch_69">
    <path d="M 167.777663 273.312 
L 169.388645 273.312 
L 169.388645 81.151522 
L 167.777663 81.151522 
z
" clip-path="url(#p4a060e1a68)" style="fill: #1f77b4"/>
   </g>
   <g id="patch_70">
    <path d="M 169.388645 273.312 
L 170.999626 273.312 
L 170.999626 41.811582 
L 169.388645 41.811582 
z
" clip-path="url(#p4a060e1a68)" style="fill: #1f77b4"/>
   </g>
   <g id="patch_71">
    <path d="M 170.999626 273.312 
L 172.610607 273.312 
L 172.610607 74.342687 
L 170.999626 74.342687 
z
" clip-path="url(#p4a060e1a68)" style="fill: #1f77b4"/>
   </g>
   <g id="patch_72">
    <path d="M 172.610607 273.312 
L 174.221589 273.312 
L 174.221589 53.916179 
L 172.610607 53.916179 
z
" clip-path="url(#p4a060e1a68)" style="fill: #1f77b4"/>
   </g>
   <g id="patch_73">
    <path d="M 174.221589 273.312 
L 175.83257 273.312 
L 175.83257 53.159642 
L 174.221589 53.159642 
z
" clip-path="url(#p4a060e1a68)" style="fill: #1f77b4"/>
   </g>
   <g id="patch_74">
    <path d="M 175.83257 273.312 
L 177.443552 273.312 
L 177.443552 62.994627 
L 175.83257 62.994627 
z
" clip-path="url(#p4a060e1a68)" style="fill: #1f77b4"/>
   </g>
   <g id="patch_75">
    <path d="M 177.443552 273.312 
L 179.054533 273.312 
L 179.054533 53.916179 
L 177.443552 53.916179 
z
" clip-path="url(#p4a060e1a68)" style="fill: #1f77b4"/>
   </g>
   <g id="patch_76">
    <path d="M 179.054533 273.312 
L 180.665514 273.312 
L 180.665514 72.829612 
L 179.054533 72.829612 
z
" clip-path="url(#p4a060e1a68)" style="fill: #1f77b4"/>
   </g>
   <g id="patch_77">
    <path d="M 180.665514 273.312 
L 182.276496 273.312 
L 182.276496 54.672716 
L 180.665514 54.672716 
z
" clip-path="url(#p4a060e1a68)" style="fill: #1f77b4"/>
   </g>
   <g id="patch_78">
    <path d="M 182.276496 273.312 
L 183.887477 273.312 
L 183.887477 56.942328 
L 182.276496 56.942328 
z
" clip-path="url(#p4a060e1a68)" style="fill: #1f77b4"/>
   </g>
   <g id="patch_79">
    <path d="M 183.887477 273.312 
L 185.498458 273.312 
L 185.498458 50.133493 
L 183.887477 50.133493 
z
" clip-path="url(#p4a060e1a68)" style="fill: #1f77b4"/>
   </g>
   <g id="patch_80">
    <path d="M 185.498458 273.312 
L 187.10944 273.312 
L 187.10944 50.89003 
L 185.498458 50.89003 
z
" clip-path="url(#p4a060e1a68)" style="fill: #1f77b4"/>
   </g>
   <g id="patch_81">
    <path d="M 187.10944 273.312 
L 188.720421 273.312 
L 188.720421 50.89003 
L 187.10944 50.89003 
z
" clip-path="url(#p4a060e1a68)" style="fill: #1f77b4"/>
   </g>
   <g id="patch_82">
    <path d="M 188.720421 273.312 
L 190.331402 273.312 
L 190.331402 75.855761 
L 188.720421 75.855761 
z
" clip-path="url(#p4a060e1a68)" style="fill: #1f77b4"/>
   </g>
   <g id="patch_83">
    <path d="M 190.331402 273.312 
L 191.942384 273.312 
L 191.942384 61.481552 
L 190.331402 61.481552 
z
" clip-path="url(#p4a060e1a68)" style="fill: #1f77b4"/>
   </g>
   <g id="patch_84">
    <path d="M 191.942384 273.312 
L 193.553365 273.312 
L 193.553365 41.055045 
L 191.942384 41.055045 
z
" clip-path="url(#p4a060e1a68)" style="fill: #1f77b4"/>
   </g>
   <g id="patch_85">
    <path d="M 193.553365 273.312 
L 195.164347 273.312 
L 195.164347 38.028896 
L 193.553365 38.028896 
z
" clip-path="url(#p4a060e1a68)" style="fill: #1f77b4"/>
   </g>
   <g id="patch_86">
    <path d="M 195.164347 273.312 
L 196.775328 273.312 
L 196.775328 21.385075 
L 195.164347 21.385075 
z
" clip-path="url(#p4a060e1a68)" style="fill: #1f77b4"/>
   </g>
   <g id="patch_87">
    <path d="M 196.775328 273.312 
L 198.386309 273.312 
L 198.386309 44.081194 
L 196.775328 44.081194 
z
" clip-path="url(#p4a060e1a68)" style="fill: #1f77b4"/>
   </g>
   <g id="patch_88">
    <path d="M 198.386309 273.312 
L 199.997291 273.312 
L 199.997291 67.533851 
L 198.386309 67.533851 
z
" clip-path="url(#p4a060e1a68)" style="fill: #1f77b4"/>
   </g>
   <g id="patch_89">
    <path d="M 199.997291 273.312 
L 201.608272 273.312 
L 201.608272 44.837731 
L 199.997291 44.837731 
z
" clip-path="url(#p4a060e1a68)" style="fill: #1f77b4"/>
   </g>
   <g id="patch_90">
    <path d="M 201.608272 273.312 
L 203.219253 273.312 
L 203.219253 64.507701 
L 201.608272 64.507701 
z
" clip-path="url(#p4a060e1a68)" style="fill: #1f77b4"/>
   </g>
   <g id="patch_91">
    <path d="M 203.219253 273.312 
L 204.830235 273.312 
L 204.830235 42.568119 
L 203.219253 42.568119 
z
" clip-path="url(#p4a060e1a68)" style="fill: #1f77b4"/>
   </g>
   <g id="patch_92">
    <path d="M 204.830235 273.312 
L 206.441216 273.312 
L 206.441216 44.081194 
L 204.830235 44.081194 
z
" clip-path="url(#p4a060e1a68)" style="fill: #1f77b4"/>
   </g>
   <g id="patch_93">
    <path d="M 206.441216 273.312 
L 208.052198 273.312 
L 208.052198 66.777313 
L 206.441216 66.777313 
z
" clip-path="url(#p4a060e1a68)" style="fill: #1f77b4"/>
   </g>
   <g id="patch_94">
    <path d="M 208.052198 273.312 
L 209.663179 273.312 
L 209.663179 62.23809 
L 208.052198 62.23809 
z
" clip-path="url(#p4a060e1a68)" style="fill: #1f77b4"/>
   </g>
   <g id="patch_95">
    <path d="M 209.663179 273.312 
L 211.27416 273.312 
L 211.27416 19.872 
L 209.663179 19.872 
z
" clip-path="url(#p4a060e1a68)" style="fill: #1f77b4"/>
   </g>
   <g id="patch_96">
    <path d="M 211.27416 273.312 
L 212.885142 273.312 
L 212.885142 56.942328 
L 211.27416 56.942328 
z
" clip-path="url(#p4a060e1a68)" style="fill: #1f77b4"/>
   </g>
   <g id="patch_97">
    <path d="M 212.885142 273.312 
L 214.496123 273.312 
L 214.496123 26.680836 
L 212.885142 26.680836 
z
" clip-path="url(#p4a060e1a68)" style="fill: #1f77b4"/>
   </g>
   <g id="patch_98">
    <path d="M 214.496123 273.312 
L 216.107104 273.312 
L 216.107104 53.159642 
L 214.496123 53.159642 
z
" clip-path="url(#p4a060e1a68)" style="fill: #1f77b4"/>
   </g>
   <g id="patch_99">
    <path d="M 216.107104 273.312 
L 217.718086 273.312 
L 217.718086 45.594269 
L 216.107104 45.594269 
z
" clip-path="url(#p4a060e1a68)" style="fill: #1f77b4"/>
   </g>
   <g id="patch_100">
    <path d="M 217.718086 273.312 
L 219.329067 273.312 
L 219.329067 42.568119 
L 217.718086 42.568119 
z
" clip-path="url(#p4a060e1a68)" style="fill: #1f77b4"/>
   </g>
   <g id="patch_101">
    <path d="M 219.329067 273.312 
L 220.940049 273.312 
L 220.940049 36.515821 
L 219.329067 36.515821 
z
" clip-path="url(#p4a060e1a68)" style="fill: #1f77b4"/>
   </g>
   <g id="patch_102">
    <path d="M 220.940049 273.312 
L 222.55103 273.312 
L 222.55103 22.898149 
L 220.940049 22.898149 
z
" clip-path="url(#p4a060e1a68)" style="fill: #1f77b4"/>
   </g>
   <g id="patch_103">
    <path d="M 222.55103 273.312 
L 224.162011 273.312 
L 224.162011 50.89003 
L 222.55103 50.89003 
z
" clip-path="url(#p4a060e1a68)" style="fill: #1f77b4"/>
   </g>
   <g id="patch_104">
    <path d="M 224.162011 273.312 
L 225.772993 273.312 
L 225.772993 40.298507 
L 224.162011 40.298507 
z
" clip-path="url(#p4a060e1a68)" style="fill: #1f77b4"/>
   </g>
   <g id="patch_105">
    <path d="M 225.772993 273.312 
L 227.383974 273.312 
L 227.383974 56.185791 
L 225.772993 56.185791 
z
" clip-path="url(#p4a060e1a68)" style="fill: #1f77b4"/>
   </g>
   <g id="patch_106">
    <path d="M 227.383974 273.312 
L 228.994955 273.312 
L 228.994955 33.489672 
L 227.383974 33.489672 
z
" clip-path="url(#p4a060e1a68)" style="fill: #1f77b4"/>
   </g>
   <g id="patch_107">
    <path d="M 228.994955 273.312 
L 230.605937 273.312 
L 230.605937 24.411224 
L 228.994955 24.411224 
z
" clip-path="url(#p4a060e1a68)" style="fill: #1f77b4"/>
   </g>
   <g id="patch_108">
    <path d="M 230.605937 273.312 
L 232.216918 273.312 
L 232.216918 44.837731 
L 230.605937 44.837731 
z
" clip-path="url(#p4a060e1a68)" style="fill: #1f77b4"/>
   </g>
   <g id="patch_109">
    <path d="M 232.216918 273.312 
L 233.8279 273.312 
L 233.8279 43.324657 
L 232.216918 43.324657 
z
" clip-path="url(#p4a060e1a68)" style="fill: #1f77b4"/>
   </g>
   <g id="patch_110">
    <path d="M 233.8279 273.312 
L 235.438881 273.312 
L 235.438881 53.916179 
L 233.8279 53.916179 
z
" clip-path="url(#p4a060e1a68)" style="fill: #1f77b4"/>
   </g>
   <g id="patch_111">
    <path d="M 235.438881 273.312 
L 237.049862 273.312 
L 237.049862 30.463522 
L 235.438881 30.463522 
z
" clip-path="url(#p4a060e1a68)" style="fill: #1f77b4"/>
   </g>
   <g id="patch_112">
    <path d="M 237.049862 273.312 
L 238.660844 273.312 
L 238.660844 59.21194 
L 237.049862 59.21194 
z
" clip-path="url(#p4a060e1a68)" style="fill: #1f77b4"/>
   </g>
   <g id="patch_113">
    <path d="M 238.660844 273.312 
L 240.271825 273.312 
L 240.271825 31.22006 
L 238.660844 31.22006 
z
" clip-path="url(#p4a060e1a68)" style="fill: #1f77b4"/>
   </g>
   <g id="patch_114">
    <path d="M 240.271825 273.312 
L 241.882806 273.312 
L 241.882806 34.246209 
L 240.271825 34.246209 
z
" clip-path="url(#p4a060e1a68)" style="fill: #1f77b4"/>
   </g>
   <g id="patch_115">
    <path d="M 241.882806 273.312 
L 243.493788 273.312 
L 243.493788 51.646567 
L 241.882806 51.646567 
z
" clip-path="url(#p4a060e1a68)" style="fill: #1f77b4"/>
   </g>
   <g id="patch_116">
    <path d="M 243.493788 273.312 
L 245.104769 273.312 
L 245.104769 40.298507 
L 243.493788 40.298507 
z
" clip-path="url(#p4a060e1a68)" style="fill: #1f77b4"/>
   </g>
   <g id="patch_117">
    <path d="M 245.104769 273.312 
L 246.71575 273.312 
L 246.71575 73.586149 
L 245.104769 73.586149 
z
" clip-path="url(#p4a060e1a68)" style="fill: #1f77b4"/>
   </g>
   <g id="patch_118">
    <path d="M 246.71575 273.312 
L 248.326732 273.312 
L 248.326732 36.515821 
L 246.71575 36.515821 
z
" clip-path="url(#p4a060e1a68)" style="fill: #1f77b4"/>
   </g>
   <g id="patch_119">
    <path d="M 248.326732 273.312 
L 249.937713 273.312 
L 249.937713 43.324657 
L 248.326732 43.324657 
z
" clip-path="url(#p4a060e1a68)" style="fill: #1f77b4"/>
   </g>
   <g id="patch_120">
    <path d="M 249.937713 273.312 
L 251.548695 273.312 
L 251.548695 53.159642 
L 249.937713 53.159642 
z
" clip-path="url(#p4a060e1a68)" style="fill: #1f77b4"/>
   </g>
   <g id="patch_121">
    <path d="M 251.548695 273.312 
L 253.159676 273.312 
L 253.159676 40.298507 
L 251.548695 40.298507 
z
" clip-path="url(#p4a060e1a68)" style="fill: #1f77b4"/>
   </g>
   <g id="patch_122">
    <path d="M 253.159676 273.312 
L 254.770657 273.312 
L 254.770657 58.455403 
L 253.159676 58.455403 
z
" clip-path="url(#p4a060e1a68)" style="fill: #1f77b4"/>
   </g>
   <g id="patch_123">
    <path d="M 254.770657 273.312 
L 256.381639 273.312 
L 256.381639 42.568119 
L 254.770657 42.568119 
z
" clip-path="url(#p4a060e1a68)" style="fill: #1f77b4"/>
   </g>
   <g id="patch_124">
    <path d="M 256.381639 273.312 
L 257.99262 273.312 
L 257.99262 58.455403 
L 256.381639 58.455403 
z
" clip-path="url(#p4a060e1a68)" style="fill: #1f77b4"/>
   </g>
   <g id="patch_125">
    <path d="M 257.99262 273.312 
L 259.603601 273.312 
L 259.603601 76.612299 
L 257.99262 76.612299 
z
" clip-path="url(#p4a060e1a68)" style="fill: #1f77b4"/>
   </g>
   <g id="patch_126">
    <path d="M 259.603601 273.312 
L 261.214583 273.312 
L 261.214583 74.342687 
L 259.603601 74.342687 
z
" clip-path="url(#p4a060e1a68)" style="fill: #1f77b4"/>
   </g>
   <g id="patch_127">
    <path d="M 261.214583 273.312 
L 262.825564 273.312 
L 262.825564 31.22006 
L 261.214583 31.22006 
z
" clip-path="url(#p4a060e1a68)" style="fill: #1f77b4"/>
   </g>
   <g id="patch_128">
    <path d="M 262.825564 273.312 
L 264.436546 273.312 
L 264.436546 73.586149 
L 262.825564 73.586149 
z
" clip-path="url(#p4a060e1a68)" style="fill: #1f77b4"/>
   </g>
   <g id="patch_129">
    <path d="M 264.436546 273.312 
L 266.047527 273.312 
L 266.047527 68.290388 
L 264.436546 68.290388 
z
" clip-path="url(#p4a060e1a68)" style="fill: #1f77b4"/>
   </g>
   <g id="patch_130">
    <path d="M 266.047527 273.312 
L 267.658508 273.312 
L 267.658508 62.994627 
L 266.047527 62.994627 
z
" clip-path="url(#p4a060e1a68)" style="fill: #1f77b4"/>
   </g>
   <g id="patch_131">
    <path d="M 267.658508 273.312 
L 269.26949 273.312 
L 269.26949 50.133493 
L 267.658508 50.133493 
z
" clip-path="url(#p4a060e1a68)" style="fill: #1f77b4"/>
   </g>
   <g id="patch_132">
    <path d="M 269.26949 273.312 
L 270.880471 273.312 
L 270.880471 49.376955 
L 269.26949 49.376955 
z
" clip-path="url(#p4a060e1a68)" style="fill: #1f77b4"/>
   </g>
   <g id="patch_133">
    <path d="M 270.880471 273.312 
L 272.491452 273.312 
L 272.491452 69.803463 
L 270.880471 69.803463 
z
" clip-path="url(#p4a060e1a68)" style="fill: #1f77b4"/>
   </g>
   <g id="patch_134">
    <path d="M 272.491452 273.312 
L 274.102434 273.312 
L 274.102434 63.751164 
L 272.491452 63.751164 
z
" clip-path="url(#p4a060e1a68)" style="fill: #1f77b4"/>
   </g>
   <g id="patch_135">
    <path d="M 274.102434 273.312 
L 275.713415 273.312 
L 275.713415 45.594269 
L 274.102434 45.594269 
z
" clip-path="url(#p4a060e1a68)" style="fill: #1f77b4"/>
   </g>
   <g id="patch_136">
    <path d="M 275.713415 273.312 
L 277.324397 273.312 
L 277.324397 69.803463 
L 275.713415 69.803463 
z
" clip-path="url(#p4a060e1a68)" style="fill: #1f77b4"/>
   </g>
   <g id="patch_137">
    <path d="M 277.324397 273.312 
L 278.935378 273.312 
L 278.935378 80.394985 
L 277.324397 80.394985 
z
" clip-path="url(#p4a060e1a68)" style="fill: #1f77b4"/>
   </g>
   <g id="patch_138">
    <path d="M 278.935378 273.312 
L 280.546359 273.312 
L 280.546359 53.159642 
L 278.935378 53.159642 
z
" clip-path="url(#p4a060e1a68)" style="fill: #1f77b4"/>
   </g>
   <g id="patch_139">
    <path d="M 280.546359 273.312 
L 282.157341 273.312 
L 282.157341 84.934209 
L 280.546359 84.934209 
z
" clip-path="url(#p4a060e1a68)" style="fill: #1f77b4"/>
   </g>
   <g id="patch_140">
    <path d="M 282.157341 273.312 
L 283.768322 273.312 
L 283.768322 99.308418 
L 282.157341 99.308418 
z
" clip-path="url(#p4a060e1a68)" style="fill: #1f77b4"/>
   </g>
   <g id="patch_141">
    <path d="M 283.768322 273.312 
L 285.379303 273.312 
L 285.379303 74.342687 
L 283.768322 74.342687 
z
" clip-path="url(#p4a060e1a68)" style="fill: #1f77b4"/>
   </g>
   <g id="patch_142">
    <path d="M 285.379303 273.312 
L 286.990285 273.312 
L 286.990285 90.986507 
L 285.379303 90.986507 
z
" clip-path="url(#p4a060e1a68)" style="fill: #1f77b4"/>
   </g>
   <g id="patch_143">
    <path d="M 286.990285 273.312 
L 288.601266 273.312 
L 288.601266 63.751164 
L 286.990285 63.751164 
z
" clip-path="url(#p4a060e1a68)" style="fill: #1f77b4"/>
   </g>
   <g id="patch_144">
    <path d="M 288.601266 273.312 
L 290.212248 273.312 
L 290.212248 81.151522 
L 288.601266 81.151522 
z
" clip-path="url(#p4a060e1a68)" style="fill: #1f77b4"/>
   </g>
   <g id="patch_145">
    <path d="M 290.212248 273.312 
L 291.823229 273.312 
L 291.823229 78.88191 
L 290.212248 78.88191 
z
" clip-path="url(#p4a060e1a68)" style="fill: #1f77b4"/>
   </g>
   <g id="patch_146">
    <path d="M 291.823229 273.312 
L 293.43421 273.312 
L 293.43421 98.551881 
L 291.823229 98.551881 
z
" clip-path="url(#p4a060e1a68)" style="fill: #1f77b4"/>
   </g>
   <g id="patch_147">
    <path d="M 293.43421 273.312 
L 295.045192 273.312 
L 295.045192 84.934209 
L 293.43421 84.934209 
z
" clip-path="url(#p4a060e1a68)" style="fill: #1f77b4"/>
   </g>
   <g id="patch_148">
    <path d="M 295.045192 273.312 
L 296.656173 273.312 
L 296.656173 86.447284 
L 295.045192 86.447284 
z
" clip-path="url(#p4a060e1a68)" style="fill: #1f77b4"/>
   </g>
   <g id="patch_149">
    <path d="M 296.656173 273.312 
L 298.267154 273.312 
L 298.267154 87.960358 
L 296.656173 87.960358 
z
" clip-path="url(#p4a060e1a68)" style="fill: #1f77b4"/>
   </g>
   <g id="patch_150">
    <path d="M 298.267154 273.312 
L 299.878136 273.312 
L 299.878136 96.282269 
L 298.267154 96.282269 
z
" clip-path="url(#p4a060e1a68)" style="fill: #1f77b4"/>
   </g>
   <g id="patch_151">
    <path d="M 299.878136 273.312 
L 301.489117 273.312 
L 301.489117 95.525731 
L 299.878136 95.525731 
z
" clip-path="url(#p4a060e1a68)" style="fill: #1f77b4"/>
   </g>
   <g id="patch_152">
    <path d="M 301.489117 273.312 
L 303.100098 273.312 
L 303.100098 107.630328 
L 301.489117 107.630328 
z
" clip-path="url(#p4a060e1a68)" style="fill: #1f77b4"/>
   </g>
   <g id="patch_153">
    <path d="M 303.100098 273.312 
L 304.71108 273.312 
L 304.71108 97.038806 
L 303.100098 97.038806 
z
" clip-path="url(#p4a060e1a68)" style="fill: #1f77b4"/>
   </g>
   <g id="patch_154">
    <path d="M 304.71108 273.312 
L 306.322061 273.312 
L 306.322061 118.978388 
L 304.71108 118.978388 
z
" clip-path="url(#p4a060e1a68)" style="fill: #1f77b4"/>
   </g>
   <g id="patch_155">
    <path d="M 306.322061 273.312 
L 307.933043 273.312 
L 307.933043 132.59606 
L 306.322061 132.59606 
z
" clip-path="url(#p4a060e1a68)" style="fill: #1f77b4"/>
   </g>
   <g id="patch_156">
    <path d="M 307.933043 273.312 
L 309.544024 273.312 
L 309.544024 120.491463 
L 307.933043 120.491463 
z
" clip-path="url(#p4a060e1a68)" style="fill: #1f77b4"/>
   </g>
   <g id="patch_157">
    <path d="M 309.544024 273.312 
L 311.155005 273.312 
L 311.155005 109.143403 
L 309.544024 109.143403 
z
" clip-path="url(#p4a060e1a68)" style="fill: #1f77b4"/>
   </g>
   <g id="patch_158">
    <path d="M 311.155005 273.312 
L 312.765987 273.312 
L 312.765987 105.360716 
L 311.155005 105.360716 
z
" clip-path="url(#p4a060e1a68)" style="fill: #1f77b4"/>
   </g>
   <g id="patch_159">
    <path d="M 312.765987 273.312 
L 314.376968 273.312 
L 314.376968 133.352597 
L 312.765987 133.352597 
z
" clip-path="url(#p4a060e1a68)" style="fill: #1f77b4"/>
   </g>
   <g id="patch_160">
    <path d="M 314.376968 273.312 
L 315.987949 273.312 
L 315.987949 115.195701 
L 314.376968 115.195701 
z
" clip-path="url(#p4a060e1a68)" style="fill: #1f77b4"/>
   </g>
   <g id="patch_161">
    <path d="M 315.987949 273.312 
L 317.598931 273.312 
L 317.598931 122.761075 
L 315.987949 122.761075 
z
" clip-path="url(#p4a060e1a68)" style="fill: #1f77b4"/>
   </g>
   <g id="patch_162">
    <path d="M 317.598931 273.312 
L 319.209912 273.312 
L 319.209912 134.109134 
L 317.598931 134.109134 
z
" clip-path="url(#p4a060e1a68)" style="fill: #1f77b4"/>
   </g>
   <g id="patch_163">
    <path d="M 319.209912 273.312 
L 320.820894 273.312 
L 320.820894 143.944119 
L 319.209912 143.944119 
z
" clip-path="url(#p4a060e1a68)" style="fill: #1f77b4"/>
   </g>
   <g id="patch_164">
    <path d="M 320.820894 273.312 
L 322.431875 273.312 
L 322.431875 122.004537 
L 320.820894 122.004537 
z
" clip-path="url(#p4a060e1a68)" style="fill: #1f77b4"/>
   </g>
   <g id="patch_165">
    <path d="M 322.431875 273.312 
L 324.042856 273.312 
L 324.042856 129.56991 
L 322.431875 129.56991 
z
" clip-path="url(#p4a060e1a68)" style="fill: #1f77b4"/>
   </g>
   <g id="patch_166">
    <path d="M 324.042856 273.312 
L 325.653838 273.312 
L 325.653838 155.292179 
L 324.042856 155.292179 
z
" clip-path="url(#p4a060e1a68)" style="fill: #1f77b4"/>
   </g>
   <g id="patch_167">
    <path d="M 325.653838 273.312 
L 327.264819 273.312 
L 327.264819 153.022567 
L 325.653838 153.022567 
z
" clip-path="url(#p4a060e1a68)" style="fill: #1f77b4"/>
   </g>
   <g id="patch_168">
    <path d="M 327.264819 273.312 
L 328.8758 273.312 
L 328.8758 148.483343 
L 327.264819 148.483343 
z
" clip-path="url(#p4a060e1a68)" style="fill: #1f77b4"/>
   </g>
   <g id="patch_169">
    <path d="M 328.8758 273.312 
L 330.486782 273.312 
L 330.486782 160.58794 
L 328.8758 160.58794 
z
" clip-path="url(#p4a060e1a68)" style="fill: #1f77b4"/>
   </g>
   <g id="patch_170">
    <path d="M 330.486782 273.312 
L 332.097763 273.312 
L 332.097763 146.970269 
L 330.486782 146.970269 
z
" clip-path="url(#p4a060e1a68)" style="fill: #1f77b4"/>
   </g>
   <g id="patch_171">
    <path d="M 332.097763 273.312 
L 333.708745 273.312 
L 333.708745 160.58794 
L 332.097763 160.58794 
z
" clip-path="url(#p4a060e1a68)" style="fill: #1f77b4"/>
   </g>
   <g id="patch_172">
    <path d="M 333.708745 273.312 
L 335.319726 273.312 
L 335.319726 164.370627 
L 333.708745 164.370627 
z
" clip-path="url(#p4a060e1a68)" style="fill: #1f77b4"/>
   </g>
   <g id="patch_173">
    <path d="M 335.319726 273.312 
L 336.930707 273.312 
L 336.930707 147.726806 
L 335.319726 147.726806 
z
" clip-path="url(#p4a060e1a68)" style="fill: #1f77b4"/>
   </g>
   <g id="patch_174">
    <path d="M 336.930707 273.312 
L 338.541689 273.312 
L 338.541689 168.909851 
L 336.930707 168.909851 
z
" clip-path="url(#p4a060e1a68)" style="fill: #1f77b4"/>
   </g>
   <g id="patch_175">
    <path d="M 338.541689 273.312 
L 340.15267 273.312 
L 340.15267 169.666388 
L 338.541689 169.666388 
z
" clip-path="url(#p4a060e1a68)" style="fill: #1f77b4"/>
   </g>
   <g id="patch_176">
    <path d="M 340.15267 273.312 
L 341.763651 273.312 
L 341.763651 179.501373 
L 340.15267 179.501373 
z
" clip-path="url(#p4a060e1a68)" style="fill: #1f77b4"/>
   </g>
   <g id="patch_177">
    <path d="M 341.763651 273.312 
L 343.374633 273.312 
L 343.374633 174.962149 
L 341.763651 174.962149 
z
" clip-path="url(#p4a060e1a68)" style="fill: #1f77b4"/>
   </g>
   <g id="patch_178">
    <path d="M 343.374633 273.312 
L 344.985614 273.312 
L 344.985614 179.501373 
L 343.374633 179.501373 
z
" clip-path="url(#p4a060e1a68)" style="fill: #1f77b4"/>
   </g>
   <g id="patch_179">
    <path d="M 344.985614 273.312 
L 346.596595 273.312 
L 346.596595 182.527522 
L 344.985614 182.527522 
z
" clip-path="url(#p4a060e1a68)" style="fill: #1f77b4"/>
   </g>
   <g id="patch_180">
    <path d="M 346.596595 273.312 
L 348.207577 273.312 
L 348.207577 198.414806 
L 346.596595 198.414806 
z
" clip-path="url(#p4a060e1a68)" style="fill: #1f77b4"/>
   </g>
   <g id="patch_181">
    <path d="M 348.207577 273.312 
L 349.818558 273.312 
L 349.818558 187.066746 
L 348.207577 187.066746 
z
" clip-path="url(#p4a060e1a68)" style="fill: #1f77b4"/>
   </g>
   <g id="patch_182">
    <path d="M 349.818558 273.312 
L 351.42954 273.312 
L 351.42954 205.223642 
L 349.818558 205.223642 
z
" clip-path="url(#p4a060e1a68)" style="fill: #1f77b4"/>
   </g>
   <g id="patch_183">
    <path d="M 351.42954 273.312 
L 353.040521 273.312 
L 353.040521 199.927881 
L 351.42954 199.927881 
z
" clip-path="url(#p4a060e1a68)" style="fill: #1f77b4"/>
   </g>
   <g id="patch_184">
    <path d="M 353.040521 273.312 
L 354.651502 273.312 
L 354.651502 215.058627 
L 353.040521 215.058627 
z
" clip-path="url(#p4a060e1a68)" style="fill: #1f77b4"/>
   </g>
   <g id="patch_185">
    <path d="M 354.651502 273.312 
L 356.262484 273.312 
L 356.262484 199.171343 
L 354.651502 199.171343 
z
" clip-path="url(#p4a060e1a68)" style="fill: #1f77b4"/>
   </g>
   <g id="patch_186">
    <path d="M 356.262484 273.312 
L 357.873465 273.312 
L 357.873465 214.30209 
L 356.262484 214.30209 
z
" clip-path="url(#p4a060e1a68)" style="fill: #1f77b4"/>
   </g>
   <g id="patch_187">
    <path d="M 357.873465 273.312 
L 359.484446 273.312 
L 359.484446 218.084776 
L 357.873465 218.084776 
z
" clip-path="url(#p4a060e1a68)" style="fill: #1f77b4"/>
   </g>
   <g id="patch_188">
    <path d="M 359.484446 273.312 
L 361.095428 273.312 
L 361.095428 234.728597 
L 359.484446 234.728597 
z
" clip-path="url(#p4a060e1a68)" style="fill: #1f77b4"/>
   </g>
   <g id="patch_189">
    <path d="M 361.095428 273.312 
L 362.706409 273.312 
L 362.706409 212.032478 
L 361.095428 212.032478 
z
" clip-path="url(#p4a060e1a68)" style="fill: #1f77b4"/>
   </g>
   <g id="patch_190">
    <path d="M 362.706409 273.312 
L 364.317391 273.312 
L 364.317391 230.189373 
L 362.706409 230.189373 
z
" clip-path="url(#p4a060e1a68)" style="fill: #1f77b4"/>
   </g>
   <g id="patch_191">
    <path d="M 364.317391 273.312 
L 365.928372 273.312 
L 365.928372 233.215522 
L 364.317391 233.215522 
z
" clip-path="url(#p4a060e1a68)" style="fill: #1f77b4"/>
   </g>
   <g id="patch_192">
    <path d="M 365.928372 273.312 
L 367.539353 273.312 
L 367.539353 233.97206 
L 365.928372 233.97206 
z
" clip-path="url(#p4a060e1a68)" style="fill: #1f77b4"/>
   </g>
   <g id="patch_193">
    <path d="M 367.539353 273.312 
L 369.150335 273.312 
L 369.150335 225.650149 
L 367.539353 225.650149 
z
" clip-path="url(#p4a060e1a68)" style="fill: #1f77b4"/>
   </g>
   <g id="patch_194">
    <path d="M 369.150335 273.312 
L 370.761316 273.312 
L 370.761316 236.241672 
L 369.150335 236.241672 
z
" clip-path="url(#p4a060e1a68)" style="fill: #1f77b4"/>
   </g>
   <g id="patch_195">
    <path d="M 370.761316 273.312 
L 372.372297 273.312 
L 372.372297 233.97206 
L 370.761316 233.97206 
z
" clip-path="url(#p4a060e1a68)" style="fill: #1f77b4"/>
   </g>
   <g id="patch_196">
    <path d="M 372.372297 273.312 
L 373.983279 273.312 
L 373.983279 250.615881 
L 372.372297 250.615881 
z
" clip-path="url(#p4a060e1a68)" style="fill: #1f77b4"/>
   </g>
   <g id="patch_197">
    <path d="M 373.983279 273.312 
L 375.59426 273.312 
L 375.59426 249.859343 
L 373.983279 249.859343 
z
" clip-path="url(#p4a060e1a68)" style="fill: #1f77b4"/>
   </g>
   <g id="patch_198">
    <path d="M 375.59426 273.312 
L 377.205242 273.312 
L 377.205242 249.859343 
L 375.59426 249.859343 
z
" clip-path="url(#p4a060e1a68)" style="fill: #1f77b4"/>
   </g>
   <g id="patch_199">
    <path d="M 377.205242 273.312 
L 378.816223 273.312 
L 378.816223 261.207403 
L 377.205242 261.207403 
z
" clip-path="url(#p4a060e1a68)" style="fill: #1f77b4"/>
   </g>
   <g id="patch_200">
    <path d="M 378.816223 273.312 
L 380.427204 273.312 
L 380.427204 265.746627 
L 378.816223 265.746627 
z
" clip-path="url(#p4a060e1a68)" style="fill: #1f77b4"/>
   </g>
   <g id="patch_201">
    <path d="M 380.427204 273.312 
L 382.038186 273.312 
L 382.038186 262.720478 
L 380.427204 262.720478 
z
" clip-path="url(#p4a060e1a68)" style="fill: #1f77b4"/>
   </g>
   <g id="patch_202">
    <path d="M 382.038186 273.312 
L 383.649167 273.312 
L 383.649167 269.529313 
L 382.038186 269.529313 
z
" clip-path="url(#p4a060e1a68)" style="fill: #1f77b4"/>
   </g>
   <g id="matplotlib.axis_1">
    <g id="xtick_1">
     <g id="line2d_1">
      <defs>
       <path id="mda5a22fee4" d="M 0 0 
L 0 3.5 
" style="stroke: #000000; stroke-width: 0.8"/>
      </defs>
      <g>
       <use xlink:href="#mda5a22fee4" x="60.013977" y="273.312" style="stroke: #000000; stroke-width: 0.8"/>
      </g>
     </g>
     <g id="text_1">
      <!-- 0.0 -->
      <g transform="translate(52.062415 287.910437)scale(0.1 -0.1)">
       <defs>
        <path id="DejaVuSans-30" d="M 2034 4250 
Q 1547 4250 1301 3770 
Q 1056 3291 1056 2328 
Q 1056 1369 1301 889 
Q 1547 409 2034 409 
Q 2525 409 2770 889 
Q 3016 1369 3016 2328 
Q 3016 3291 2770 3770 
Q 2525 4250 2034 4250 
z
M 2034 4750 
Q 2819 4750 3233 4129 
Q 3647 3509 3647 2328 
Q 3647 1150 3233 529 
Q 2819 -91 2034 -91 
Q 1250 -91 836 529 
Q 422 1150 422 2328 
Q 422 3509 836 4129 
Q 1250 4750 2034 4750 
z
" transform="scale(0.015625)"/>
        <path id="DejaVuSans-2e" d="M 684 794 
L 1344 794 
L 1344 0 
L 684 0 
L 684 794 
z
" transform="scale(0.015625)"/>
       </defs>
       <use xlink:href="#DejaVuSans-30"/>
       <use xlink:href="#DejaVuSans-2e" x="63.623047"/>
       <use xlink:href="#DejaVuSans-30" x="95.410156"/>
      </g>
     </g>
    </g>
    <g id="xtick_2">
     <g id="line2d_2">
      <g>
       <use xlink:href="#mda5a22fee4" x="101.350278" y="273.312" style="stroke: #000000; stroke-width: 0.8"/>
      </g>
     </g>
     <g id="text_2">
      <!-- 0.2 -->
      <g transform="translate(93.398715 287.910437)scale(0.1 -0.1)">
       <defs>
        <path id="DejaVuSans-32" d="M 1228 531 
L 3431 531 
L 3431 0 
L 469 0 
L 469 531 
Q 828 903 1448 1529 
Q 2069 2156 2228 2338 
Q 2531 2678 2651 2914 
Q 2772 3150 2772 3378 
Q 2772 3750 2511 3984 
Q 2250 4219 1831 4219 
Q 1534 4219 1204 4116 
Q 875 4013 500 3803 
L 500 4441 
Q 881 4594 1212 4672 
Q 1544 4750 1819 4750 
Q 2544 4750 2975 4387 
Q 3406 4025 3406 3419 
Q 3406 3131 3298 2873 
Q 3191 2616 2906 2266 
Q 2828 2175 2409 1742 
Q 1991 1309 1228 531 
z
" transform="scale(0.015625)"/>
       </defs>
       <use xlink:href="#DejaVuSans-30"/>
       <use xlink:href="#DejaVuSans-2e" x="63.623047"/>
       <use xlink:href="#DejaVuSans-32" x="95.410156"/>
      </g>
     </g>
    </g>
    <g id="xtick_3">
     <g id="line2d_3">
      <g>
       <use xlink:href="#mda5a22fee4" x="142.686578" y="273.312" style="stroke: #000000; stroke-width: 0.8"/>
      </g>
     </g>
     <g id="text_3">
      <!-- 0.4 -->
      <g transform="translate(134.735016 287.910437)scale(0.1 -0.1)">
       <defs>
        <path id="DejaVuSans-34" d="M 2419 4116 
L 825 1625 
L 2419 1625 
L 2419 4116 
z
M 2253 4666 
L 3047 4666 
L 3047 1625 
L 3713 1625 
L 3713 1100 
L 3047 1100 
L 3047 0 
L 2419 0 
L 2419 1100 
L 313 1100 
L 313 1709 
L 2253 4666 
z
" transform="scale(0.015625)"/>
       </defs>
       <use xlink:href="#DejaVuSans-30"/>
       <use xlink:href="#DejaVuSans-2e" x="63.623047"/>
       <use xlink:href="#DejaVuSans-34" x="95.410156"/>
      </g>
     </g>
    </g>
    <g id="xtick_4">
     <g id="line2d_4">
      <g>
       <use xlink:href="#mda5a22fee4" x="184.022879" y="273.312" style="stroke: #000000; stroke-width: 0.8"/>
      </g>
     </g>
     <g id="text_4">
      <!-- 0.6 -->
      <g transform="translate(176.071316 287.910437)scale(0.1 -0.1)">
       <defs>
        <path id="DejaVuSans-36" d="M 2113 2584 
Q 1688 2584 1439 2293 
Q 1191 2003 1191 1497 
Q 1191 994 1439 701 
Q 1688 409 2113 409 
Q 2538 409 2786 701 
Q 3034 994 3034 1497 
Q 3034 2003 2786 2293 
Q 2538 2584 2113 2584 
z
M 3366 4563 
L 3366 3988 
Q 3128 4100 2886 4159 
Q 2644 4219 2406 4219 
Q 1781 4219 1451 3797 
Q 1122 3375 1075 2522 
Q 1259 2794 1537 2939 
Q 1816 3084 2150 3084 
Q 2853 3084 3261 2657 
Q 3669 2231 3669 1497 
Q 3669 778 3244 343 
Q 2819 -91 2113 -91 
Q 1303 -91 875 529 
Q 447 1150 447 2328 
Q 447 3434 972 4092 
Q 1497 4750 2381 4750 
Q 2619 4750 2861 4703 
Q 3103 4656 3366 4563 
z
" transform="scale(0.015625)"/>
       </defs>
       <use xlink:href="#DejaVuSans-30"/>
       <use xlink:href="#DejaVuSans-2e" x="63.623047"/>
       <use xlink:href="#DejaVuSans-36" x="95.410156"/>
      </g>
     </g>
    </g>
    <g id="xtick_5">
     <g id="line2d_5">
      <g>
       <use xlink:href="#mda5a22fee4" x="225.35918" y="273.312" style="stroke: #000000; stroke-width: 0.8"/>
      </g>
     </g>
     <g id="text_5">
      <!-- 0.8 -->
      <g transform="translate(217.407617 287.910437)scale(0.1 -0.1)">
       <defs>
        <path id="DejaVuSans-38" d="M 2034 2216 
Q 1584 2216 1326 1975 
Q 1069 1734 1069 1313 
Q 1069 891 1326 650 
Q 1584 409 2034 409 
Q 2484 409 2743 651 
Q 3003 894 3003 1313 
Q 3003 1734 2745 1975 
Q 2488 2216 2034 2216 
z
M 1403 2484 
Q 997 2584 770 2862 
Q 544 3141 544 3541 
Q 544 4100 942 4425 
Q 1341 4750 2034 4750 
Q 2731 4750 3128 4425 
Q 3525 4100 3525 3541 
Q 3525 3141 3298 2862 
Q 3072 2584 2669 2484 
Q 3125 2378 3379 2068 
Q 3634 1759 3634 1313 
Q 3634 634 3220 271 
Q 2806 -91 2034 -91 
Q 1263 -91 848 271 
Q 434 634 434 1313 
Q 434 1759 690 2068 
Q 947 2378 1403 2484 
z
M 1172 3481 
Q 1172 3119 1398 2916 
Q 1625 2713 2034 2713 
Q 2441 2713 2670 2916 
Q 2900 3119 2900 3481 
Q 2900 3844 2670 4047 
Q 2441 4250 2034 4250 
Q 1625 4250 1398 4047 
Q 1172 3844 1172 3481 
z
" transform="scale(0.015625)"/>
       </defs>
       <use xlink:href="#DejaVuSans-30"/>
       <use xlink:href="#DejaVuSans-2e" x="63.623047"/>
       <use xlink:href="#DejaVuSans-38" x="95.410156"/>
      </g>
     </g>
    </g>
    <g id="xtick_6">
     <g id="line2d_6">
      <g>
       <use xlink:href="#mda5a22fee4" x="266.69548" y="273.312" style="stroke: #000000; stroke-width: 0.8"/>
      </g>
     </g>
     <g id="text_6">
      <!-- 1.0 -->
      <g transform="translate(258.743918 287.910437)scale(0.1 -0.1)">
       <defs>
        <path id="DejaVuSans-31" d="M 794 531 
L 1825 531 
L 1825 4091 
L 703 3866 
L 703 4441 
L 1819 4666 
L 2450 4666 
L 2450 531 
L 3481 531 
L 3481 0 
L 794 0 
L 794 531 
z
" transform="scale(0.015625)"/>
       </defs>
       <use xlink:href="#DejaVuSans-31"/>
       <use xlink:href="#DejaVuSans-2e" x="63.623047"/>
       <use xlink:href="#DejaVuSans-30" x="95.410156"/>
      </g>
     </g>
    </g>
    <g id="xtick_7">
     <g id="line2d_7">
      <g>
       <use xlink:href="#mda5a22fee4" x="308.031781" y="273.312" style="stroke: #000000; stroke-width: 0.8"/>
      </g>
     </g>
     <g id="text_7">
      <!-- 1.2 -->
      <g transform="translate(300.080218 287.910437)scale(0.1 -0.1)">
       <use xlink:href="#DejaVuSans-31"/>
       <use xlink:href="#DejaVuSans-2e" x="63.623047"/>
       <use xlink:href="#DejaVuSans-32" x="95.410156"/>
      </g>
     </g>
    </g>
    <g id="xtick_8">
     <g id="line2d_8">
      <g>
       <use xlink:href="#mda5a22fee4" x="349.368081" y="273.312" style="stroke: #000000; stroke-width: 0.8"/>
      </g>
     </g>
     <g id="text_8">
      <!-- 1.4 -->
      <g transform="translate(341.416519 287.910437)scale(0.1 -0.1)">
       <use xlink:href="#DejaVuSans-31"/>
       <use xlink:href="#DejaVuSans-2e" x="63.623047"/>
       <use xlink:href="#DejaVuSans-34" x="95.410156"/>
      </g>
     </g>
    </g>
    <g id="xtick_9">
     <g id="line2d_9">
      <g>
       <use xlink:href="#mda5a22fee4" x="390.704382" y="273.312" style="stroke: #000000; stroke-width: 0.8"/>
      </g>
     </g>
     <g id="text_9">
      <!-- 1.6 -->
      <g transform="translate(382.752819 287.910437)scale(0.1 -0.1)">
       <use xlink:href="#DejaVuSans-31"/>
       <use xlink:href="#DejaVuSans-2e" x="63.623047"/>
       <use xlink:href="#DejaVuSans-36" x="95.410156"/>
      </g>
     </g>
    </g>
    <g id="text_10">
     <!-- Angle with normal (rad) -->
     <g transform="translate(163.023281 301.588562)scale(0.1 -0.1)">
      <defs>
       <path id="DejaVuSans-41" d="M 2188 4044 
L 1331 1722 
L 3047 1722 
L 2188 4044 
z
M 1831 4666 
L 2547 4666 
L 4325 0 
L 3669 0 
L 3244 1197 
L 1141 1197 
L 716 0 
L 50 0 
L 1831 4666 
z
" transform="scale(0.015625)"/>
       <path id="DejaVuSans-6e" d="M 3513 2113 
L 3513 0 
L 2938 0 
L 2938 2094 
Q 2938 2591 2744 2837 
Q 2550 3084 2163 3084 
Q 1697 3084 1428 2787 
Q 1159 2491 1159 1978 
L 1159 0 
L 581 0 
L 581 3500 
L 1159 3500 
L 1159 2956 
Q 1366 3272 1645 3428 
Q 1925 3584 2291 3584 
Q 2894 3584 3203 3211 
Q 3513 2838 3513 2113 
z
" transform="scale(0.015625)"/>
       <path id="DejaVuSans-67" d="M 2906 1791 
Q 2906 2416 2648 2759 
Q 2391 3103 1925 3103 
Q 1463 3103 1205 2759 
Q 947 2416 947 1791 
Q 947 1169 1205 825 
Q 1463 481 1925 481 
Q 2391 481 2648 825 
Q 2906 1169 2906 1791 
z
M 3481 434 
Q 3481 -459 3084 -895 
Q 2688 -1331 1869 -1331 
Q 1566 -1331 1297 -1286 
Q 1028 -1241 775 -1147 
L 775 -588 
Q 1028 -725 1275 -790 
Q 1522 -856 1778 -856 
Q 2344 -856 2625 -561 
Q 2906 -266 2906 331 
L 2906 616 
Q 2728 306 2450 153 
Q 2172 0 1784 0 
Q 1141 0 747 490 
Q 353 981 353 1791 
Q 353 2603 747 3093 
Q 1141 3584 1784 3584 
Q 2172 3584 2450 3431 
Q 2728 3278 2906 2969 
L 2906 3500 
L 3481 3500 
L 3481 434 
z
" transform="scale(0.015625)"/>
       <path id="DejaVuSans-6c" d="M 603 4863 
L 1178 4863 
L 1178 0 
L 603 0 
L 603 4863 
z
" transform="scale(0.015625)"/>
       <path id="DejaVuSans-65" d="M 3597 1894 
L 3597 1613 
L 953 1613 
Q 991 1019 1311 708 
Q 1631 397 2203 397 
Q 2534 397 2845 478 
Q 3156 559 3463 722 
L 3463 178 
Q 3153 47 2828 -22 
Q 2503 -91 2169 -91 
Q 1331 -91 842 396 
Q 353 884 353 1716 
Q 353 2575 817 3079 
Q 1281 3584 2069 3584 
Q 2775 3584 3186 3129 
Q 3597 2675 3597 1894 
z
M 3022 2063 
Q 3016 2534 2758 2815 
Q 2500 3097 2075 3097 
Q 1594 3097 1305 2825 
Q 1016 2553 972 2059 
L 3022 2063 
z
" transform="scale(0.015625)"/>
       <path id="DejaVuSans-20" transform="scale(0.015625)"/>
       <path id="DejaVuSans-77" d="M 269 3500 
L 844 3500 
L 1563 769 
L 2278 3500 
L 2956 3500 
L 3675 769 
L 4391 3500 
L 4966 3500 
L 4050 0 
L 3372 0 
L 2619 2869 
L 1863 0 
L 1184 0 
L 269 3500 
z
" transform="scale(0.015625)"/>
       <path id="DejaVuSans-69" d="M 603 3500 
L 1178 3500 
L 1178 0 
L 603 0 
L 603 3500 
z
M 603 4863 
L 1178 4863 
L 1178 4134 
L 603 4134 
L 603 4863 
z
" transform="scale(0.015625)"/>
       <path id="DejaVuSans-74" d="M 1172 4494 
L 1172 3500 
L 2356 3500 
L 2356 3053 
L 1172 3053 
L 1172 1153 
Q 1172 725 1289 603 
Q 1406 481 1766 481 
L 2356 481 
L 2356 0 
L 1766 0 
Q 1100 0 847 248 
Q 594 497 594 1153 
L 594 3053 
L 172 3053 
L 172 3500 
L 594 3500 
L 594 4494 
L 1172 4494 
z
" transform="scale(0.015625)"/>
       <path id="DejaVuSans-68" d="M 3513 2113 
L 3513 0 
L 2938 0 
L 2938 2094 
Q 2938 2591 2744 2837 
Q 2550 3084 2163 3084 
Q 1697 3084 1428 2787 
Q 1159 2491 1159 1978 
L 1159 0 
L 581 0 
L 581 4863 
L 1159 4863 
L 1159 2956 
Q 1366 3272 1645 3428 
Q 1925 3584 2291 3584 
Q 2894 3584 3203 3211 
Q 3513 2838 3513 2113 
z
" transform="scale(0.015625)"/>
       <path id="DejaVuSans-6f" d="M 1959 3097 
Q 1497 3097 1228 2736 
Q 959 2375 959 1747 
Q 959 1119 1226 758 
Q 1494 397 1959 397 
Q 2419 397 2687 759 
Q 2956 1122 2956 1747 
Q 2956 2369 2687 2733 
Q 2419 3097 1959 3097 
z
M 1959 3584 
Q 2709 3584 3137 3096 
Q 3566 2609 3566 1747 
Q 3566 888 3137 398 
Q 2709 -91 1959 -91 
Q 1206 -91 779 398 
Q 353 888 353 1747 
Q 353 2609 779 3096 
Q 1206 3584 1959 3584 
z
" transform="scale(0.015625)"/>
       <path id="DejaVuSans-72" d="M 2631 2963 
Q 2534 3019 2420 3045 
Q 2306 3072 2169 3072 
Q 1681 3072 1420 2755 
Q 1159 2438 1159 1844 
L 1159 0 
L 581 0 
L 581 3500 
L 1159 3500 
L 1159 2956 
Q 1341 3275 1631 3429 
Q 1922 3584 2338 3584 
Q 2397 3584 2469 3576 
Q 2541 3569 2628 3553 
L 2631 2963 
z
" transform="scale(0.015625)"/>
       <path id="DejaVuSans-6d" d="M 3328 2828 
Q 3544 3216 3844 3400 
Q 4144 3584 4550 3584 
Q 5097 3584 5394 3201 
Q 5691 2819 5691 2113 
L 5691 0 
L 5113 0 
L 5113 2094 
Q 5113 2597 4934 2840 
Q 4756 3084 4391 3084 
Q 3944 3084 3684 2787 
Q 3425 2491 3425 1978 
L 3425 0 
L 2847 0 
L 2847 2094 
Q 2847 2600 2669 2842 
Q 2491 3084 2119 3084 
Q 1678 3084 1418 2786 
Q 1159 2488 1159 1978 
L 1159 0 
L 581 0 
L 581 3500 
L 1159 3500 
L 1159 2956 
Q 1356 3278 1631 3431 
Q 1906 3584 2284 3584 
Q 2666 3584 2933 3390 
Q 3200 3197 3328 2828 
z
" transform="scale(0.015625)"/>
       <path id="DejaVuSans-61" d="M 2194 1759 
Q 1497 1759 1228 1600 
Q 959 1441 959 1056 
Q 959 750 1161 570 
Q 1363 391 1709 391 
Q 2188 391 2477 730 
Q 2766 1069 2766 1631 
L 2766 1759 
L 2194 1759 
z
M 3341 1997 
L 3341 0 
L 2766 0 
L 2766 531 
Q 2569 213 2275 61 
Q 1981 -91 1556 -91 
Q 1019 -91 701 211 
Q 384 513 384 1019 
Q 384 1609 779 1909 
Q 1175 2209 1959 2209 
L 2766 2209 
L 2766 2266 
Q 2766 2663 2505 2880 
Q 2244 3097 1772 3097 
Q 1472 3097 1187 3025 
Q 903 2953 641 2809 
L 641 3341 
Q 956 3463 1253 3523 
Q 1550 3584 1831 3584 
Q 2591 3584 2966 3190 
Q 3341 2797 3341 1997 
z
" transform="scale(0.015625)"/>
       <path id="DejaVuSans-28" d="M 1984 4856 
Q 1566 4138 1362 3434 
Q 1159 2731 1159 2009 
Q 1159 1288 1364 580 
Q 1569 -128 1984 -844 
L 1484 -844 
Q 1016 -109 783 600 
Q 550 1309 550 2009 
Q 550 2706 781 3412 
Q 1013 4119 1484 4856 
L 1984 4856 
z
" transform="scale(0.015625)"/>
       <path id="DejaVuSans-64" d="M 2906 2969 
L 2906 4863 
L 3481 4863 
L 3481 0 
L 2906 0 
L 2906 525 
Q 2725 213 2448 61 
Q 2172 -91 1784 -91 
Q 1150 -91 751 415 
Q 353 922 353 1747 
Q 353 2572 751 3078 
Q 1150 3584 1784 3584 
Q 2172 3584 2448 3432 
Q 2725 3281 2906 2969 
z
M 947 1747 
Q 947 1113 1208 752 
Q 1469 391 1925 391 
Q 2381 391 2643 752 
Q 2906 1113 2906 1747 
Q 2906 2381 2643 2742 
Q 2381 3103 1925 3103 
Q 1469 3103 1208 2742 
Q 947 2381 947 1747 
z
" transform="scale(0.015625)"/>
       <path id="DejaVuSans-29" d="M 513 4856 
L 1013 4856 
Q 1481 4119 1714 3412 
Q 1947 2706 1947 2009 
Q 1947 1309 1714 600 
Q 1481 -109 1013 -844 
L 513 -844 
Q 928 -128 1133 580 
Q 1338 1288 1338 2009 
Q 1338 2731 1133 3434 
Q 928 4138 513 4856 
z
" transform="scale(0.015625)"/>
      </defs>
      <use xlink:href="#DejaVuSans-41"/>
      <use xlink:href="#DejaVuSans-6e" x="68.408203"/>
      <use xlink:href="#DejaVuSans-67" x="131.787109"/>
      <use xlink:href="#DejaVuSans-6c" x="195.263672"/>
      <use xlink:href="#DejaVuSans-65" x="223.046875"/>
      <use xlink:href="#DejaVuSans-20" x="284.570312"/>
      <use xlink:href="#DejaVuSans-77" x="316.357422"/>
      <use xlink:href="#DejaVuSans-69" x="398.144531"/>
      <use xlink:href="#DejaVuSans-74" x="425.927734"/>
      <use xlink:href="#DejaVuSans-68" x="465.136719"/>
      <use xlink:href="#DejaVuSans-20" x="528.515625"/>
      <use xlink:href="#DejaVuSans-6e" x="560.302734"/>
      <use xlink:href="#DejaVuSans-6f" x="623.681641"/>
      <use xlink:href="#DejaVuSans-72" x="684.863281"/>
      <use xlink:href="#DejaVuSans-6d" x="724.226562"/>
      <use xlink:href="#DejaVuSans-61" x="821.638672"/>
      <use xlink:href="#DejaVuSans-6c" x="882.917969"/>
      <use xlink:href="#DejaVuSans-20" x="910.701172"/>
      <use xlink:href="#DejaVuSans-28" x="942.488281"/>
      <use xlink:href="#DejaVuSans-72" x="981.501953"/>
      <use xlink:href="#DejaVuSans-61" x="1022.615234"/>
      <use xlink:href="#DejaVuSans-64" x="1083.894531"/>
      <use xlink:href="#DejaVuSans-29" x="1147.371094"/>
     </g>
    </g>
   </g>
   <g id="matplotlib.axis_2">
    <g id="ytick_1">
     <g id="line2d_10">
      <defs>
       <path id="m91cb43625a" d="M 0 0 
L -3.5 0 
" style="stroke: #000000; stroke-width: 0.8"/>
      </defs>
      <g>
       <use xlink:href="#m91cb43625a" x="43.78125" y="273.312" style="stroke: #000000; stroke-width: 0.8"/>
      </g>
     </g>
     <g id="text_11">
      <!-- 0.0 -->
      <g transform="translate(20.878125 277.111219)scale(0.1 -0.1)">
       <use xlink:href="#DejaVuSans-30"/>
       <use xlink:href="#DejaVuSans-2e" x="63.623047"/>
       <use xlink:href="#DejaVuSans-30" x="95.410156"/>
      </g>
     </g>
    </g>
    <g id="ytick_2">
     <g id="line2d_11">
      <g>
       <use xlink:href="#m91cb43625a" x="43.78125" y="226.137289" style="stroke: #000000; stroke-width: 0.8"/>
      </g>
     </g>
     <g id="text_12">
      <!-- 0.2 -->
      <g transform="translate(20.878125 229.936508)scale(0.1 -0.1)">
       <use xlink:href="#DejaVuSans-30"/>
       <use xlink:href="#DejaVuSans-2e" x="63.623047"/>
       <use xlink:href="#DejaVuSans-32" x="95.410156"/>
      </g>
     </g>
    </g>
    <g id="ytick_3">
     <g id="line2d_12">
      <g>
       <use xlink:href="#m91cb43625a" x="43.78125" y="178.962578" style="stroke: #000000; stroke-width: 0.8"/>
      </g>
     </g>
     <g id="text_13">
      <!-- 0.4 -->
      <g transform="translate(20.878125 182.761797)scale(0.1 -0.1)">
       <use xlink:href="#DejaVuSans-30"/>
       <use xlink:href="#DejaVuSans-2e" x="63.623047"/>
       <use xlink:href="#DejaVuSans-34" x="95.410156"/>
      </g>
     </g>
    </g>
    <g id="ytick_4">
     <g id="line2d_13">
      <g>
       <use xlink:href="#m91cb43625a" x="43.78125" y="131.787867" style="stroke: #000000; stroke-width: 0.8"/>
      </g>
     </g>
     <g id="text_14">
      <!-- 0.6 -->
      <g transform="translate(20.878125 135.587086)scale(0.1 -0.1)">
       <use xlink:href="#DejaVuSans-30"/>
       <use xlink:href="#DejaVuSans-2e" x="63.623047"/>
       <use xlink:href="#DejaVuSans-36" x="95.410156"/>
      </g>
     </g>
    </g>
    <g id="ytick_5">
     <g id="line2d_14">
      <g>
       <use xlink:href="#m91cb43625a" x="43.78125" y="84.613156" style="stroke: #000000; stroke-width: 0.8"/>
      </g>
     </g>
     <g id="text_15">
      <!-- 0.8 -->
      <g transform="translate(20.878125 88.412375)scale(0.1 -0.1)">
       <use xlink:href="#DejaVuSans-30"/>
       <use xlink:href="#DejaVuSans-2e" x="63.623047"/>
       <use xlink:href="#DejaVuSans-38" x="95.410156"/>
      </g>
     </g>
    </g>
    <g id="ytick_6">
     <g id="line2d_15">
      <g>
       <use xlink:href="#m91cb43625a" x="43.78125" y="37.438445" style="stroke: #000000; stroke-width: 0.8"/>
      </g>
     </g>
     <g id="text_16">
      <!-- 1.0 -->
      <g transform="translate(20.878125 41.237664)scale(0.1 -0.1)">
       <use xlink:href="#DejaVuSans-31"/>
       <use xlink:href="#DejaVuSans-2e" x="63.623047"/>
       <use xlink:href="#DejaVuSans-30" x="95.410156"/>
      </g>
     </g>
    </g>
    <g id="text_17">
     <!-- Probability density -->
     <g transform="translate(14.798438 186.606781)rotate(-90)scale(0.1 -0.1)">
      <defs>
       <path id="DejaVuSans-50" d="M 1259 4147 
L 1259 2394 
L 2053 2394 
Q 2494 2394 2734 2622 
Q 2975 2850 2975 3272 
Q 2975 3691 2734 3919 
Q 2494 4147 2053 4147 
L 1259 4147 
z
M 628 4666 
L 2053 4666 
Q 2838 4666 3239 4311 
Q 3641 3956 3641 3272 
Q 3641 2581 3239 2228 
Q 2838 1875 2053 1875 
L 1259 1875 
L 1259 0 
L 628 0 
L 628 4666 
z
" transform="scale(0.015625)"/>
       <path id="DejaVuSans-62" d="M 3116 1747 
Q 3116 2381 2855 2742 
Q 2594 3103 2138 3103 
Q 1681 3103 1420 2742 
Q 1159 2381 1159 1747 
Q 1159 1113 1420 752 
Q 1681 391 2138 391 
Q 2594 391 2855 752 
Q 3116 1113 3116 1747 
z
M 1159 2969 
Q 1341 3281 1617 3432 
Q 1894 3584 2278 3584 
Q 2916 3584 3314 3078 
Q 3713 2572 3713 1747 
Q 3713 922 3314 415 
Q 2916 -91 2278 -91 
Q 1894 -91 1617 61 
Q 1341 213 1159 525 
L 1159 0 
L 581 0 
L 581 4863 
L 1159 4863 
L 1159 2969 
z
" transform="scale(0.015625)"/>
       <path id="DejaVuSans-79" d="M 2059 -325 
Q 1816 -950 1584 -1140 
Q 1353 -1331 966 -1331 
L 506 -1331 
L 506 -850 
L 844 -850 
Q 1081 -850 1212 -737 
Q 1344 -625 1503 -206 
L 1606 56 
L 191 3500 
L 800 3500 
L 1894 763 
L 2988 3500 
L 3597 3500 
L 2059 -325 
z
" transform="scale(0.015625)"/>
       <path id="DejaVuSans-73" d="M 2834 3397 
L 2834 2853 
Q 2591 2978 2328 3040 
Q 2066 3103 1784 3103 
Q 1356 3103 1142 2972 
Q 928 2841 928 2578 
Q 928 2378 1081 2264 
Q 1234 2150 1697 2047 
L 1894 2003 
Q 2506 1872 2764 1633 
Q 3022 1394 3022 966 
Q 3022 478 2636 193 
Q 2250 -91 1575 -91 
Q 1294 -91 989 -36 
Q 684 19 347 128 
L 347 722 
Q 666 556 975 473 
Q 1284 391 1588 391 
Q 1994 391 2212 530 
Q 2431 669 2431 922 
Q 2431 1156 2273 1281 
Q 2116 1406 1581 1522 
L 1381 1569 
Q 847 1681 609 1914 
Q 372 2147 372 2553 
Q 372 3047 722 3315 
Q 1072 3584 1716 3584 
Q 2034 3584 2315 3537 
Q 2597 3491 2834 3397 
z
" transform="scale(0.015625)"/>
      </defs>
      <use xlink:href="#DejaVuSans-50"/>
      <use xlink:href="#DejaVuSans-72" x="58.552734"/>
      <use xlink:href="#DejaVuSans-6f" x="97.416016"/>
      <use xlink:href="#DejaVuSans-62" x="158.597656"/>
      <use xlink:href="#DejaVuSans-61" x="222.074219"/>
      <use xlink:href="#DejaVuSans-62" x="283.353516"/>
      <use xlink:href="#DejaVuSans-69" x="346.830078"/>
      <use xlink:href="#DejaVuSans-6c" x="374.613281"/>
      <use xlink:href="#DejaVuSans-69" x="402.396484"/>
      <use xlink:href="#DejaVuSans-74" x="430.179688"/>
      <use xlink:href="#DejaVuSans-79" x="469.388672"/>
      <use xlink:href="#DejaVuSans-20" x="528.568359"/>
      <use xlink:href="#DejaVuSans-64" x="560.355469"/>
      <use xlink:href="#DejaVuSans-65" x="623.832031"/>
      <use xlink:href="#DejaVuSans-6e" x="685.355469"/>
      <use xlink:href="#DejaVuSans-73" x="748.734375"/>
      <use xlink:href="#DejaVuSans-69" x="800.833984"/>
      <use xlink:href="#DejaVuSans-74" x="828.617188"/>
      <use xlink:href="#DejaVuSans-79" x="867.826172"/>
     </g>
    </g>
   </g>
   <g id="line2d_16">
    <path d="M 60.013977 273.312 
L 79.512749 229.069987 
L 89.912094 206.018085 
L 98.686541 187.088396 
L 106.486049 170.779398 
L 113.635599 156.340106 
L 120.135189 143.697364 
L 126.3098 132.160763 
L 132.159432 121.695402 
L 137.684084 112.256849 
L 142.883756 103.793421 
L 148.083429 95.759069 
L 152.958121 88.634653 
L 157.507835 82.355572 
L 162.057548 76.446566 
L 166.282282 71.30102 
L 170.507016 66.493049 
L 174.73175 62.030687 
L 178.631504 58.224797 
L 182.531258 54.725169 
L 186.431012 51.536787 
L 190.005787 48.89141 
L 193.580562 46.514551 
L 197.155337 44.409054 
L 200.730112 42.577438 
L 203.979907 41.151848 
L 207.229702 39.955832 
L 210.479497 38.990571 
L 213.729293 38.25702 
L 216.979088 37.755905 
L 220.228883 37.487721 
L 223.478678 37.452733 
L 226.728474 37.650975 
L 229.978269 38.082253 
L 233.228064 38.746139 
L 236.477859 39.641976 
L 239.727655 40.76888 
L 242.97745 42.125735 
L 246.227245 43.7112 
L 249.80202 45.717379 
L 253.376795 47.995873 
L 256.951569 50.543956 
L 260.526344 53.358581 
L 264.426098 56.729103 
L 268.325853 60.408018 
L 272.225607 64.390087 
L 276.450341 69.03951 
L 280.675075 74.030286 
L 284.899809 79.354077 
L 289.449522 85.449597 
L 293.999235 91.909196 
L 298.873928 99.219973 
L 304.073601 107.444613 
L 309.273273 116.089087 
L 314.797925 125.709364 
L 320.647556 136.354627 
L 326.822167 148.066539 
L 333.321758 160.876962 
L 340.471307 175.479957 
L 348.270816 191.941866 
L 357.045263 211.010513 
L 367.444608 234.180463 
L 382.068687 267.378543 
L 384.668523 273.312 
L 384.668523 273.312 
" clip-path="url(#p4a060e1a68)" style="fill: none; stroke: #ff7f0e; stroke-width: 1.5; stroke-linecap: square"/>
   </g>
   <g id="patch_203">
    <path d="M 43.78125 273.312 
L 43.78125 7.2 
" style="fill: none; stroke: #000000; stroke-width: 0.8; stroke-linejoin: miter; stroke-linecap: square"/>
   </g>
   <g id="patch_204">
    <path d="M 400.90125 273.312 
L 400.90125 7.2 
" style="fill: none; stroke: #000000; stroke-width: 0.8; stroke-linejoin: miter; stroke-linecap: square"/>
   </g>
   <g id="patch_205">
    <path d="M 43.78125 273.312 
L 400.90125 273.312 
" style="fill: none; stroke: #000000; stroke-width: 0.8; stroke-linejoin: miter; stroke-linecap: square"/>
   </g>
   <g id="patch_206">
    <path d="M 43.78125 7.2 
L 400.90125 7.2 
" style="fill: none; stroke: #000000; stroke-width: 0.8; stroke-linejoin: miter; stroke-linecap: square"/>
   </g>
  </g>
 </g>
 <defs>
  <clipPath id="p4a060e1a68">
   <rect x="43.78125" y="7.2" width="357.12" height="266.112"/>
  </clipPath>
 </defs>
</svg>
