<?xml version="1.0" encoding="utf-8" standalone="no"?>
<!DOCTYPE svg PUBLIC "-//W3C//DTD SVG 1.1//EN"
  "http://www.w3.org/Graphics/SVG/1.1/DTD/svg11.dtd">
<svg xmlns:xlink="http://www.w3.org/1999/xlink" width="408.10125pt" height="310.86825pt" viewBox="0 0 408.10125 310.86825" xmlns="http://www.w3.org/2000/svg" version="1.1">
 <metadata>
  <rdf:RDF xmlns:dc="http://purl.org/dc/elements/1.1/" xmlns:cc="http://creativecommons.org/ns#" xmlns:rdf="http://www.w3.org/1999/02/22-rdf-syntax-ns#">
   <cc:Work>
    <dc:type rdf:resource="http://purl.org/dc/dcmitype/StillImage"/>
    <dc:date>2022-05-02T22:02:16.939726</dc:date>
    <dc:format>image/svg+xml</dc:format>
    <dc:creator>
     <cc:Agent>
      <dc:title>Matplotlib v3.5.1, https://matplotlib.org/</dc:title>
     </cc:Agent>
    </dc:creator>
   </cc:Work>
  </rdf:RDF>
 </metadata>
 <defs>
  <style type="text/css">*{stroke-linejoin: round; stroke-linecap: butt}</style>
 </defs>
 <g id="figure_1">
  <g id="patch_1">
   <path d="M 0 310.86825 
L 408.10125 310.86825 
L 408.10125 0 
L 0 0 
z
" style="fill: #ffffff"/>
  </g>
  <g id="axes_1">
   <g id="patch_2">
    <path d="M 43.78125 273.312 
L 400.90125 273.312 
L 400.90125 7.2 
L 43.78125 7.2 
z
" style="fill: #ffffff"/>
   </g>
   <g id="patch_3">
    <path d="M 60.62185 273.312 
L 62.239497 273.312 
L 62.239497 268.813065 
L 60.62185 268.813065 
z
" clip-path="url(#p0ee9202322)" style="fill: #1f77b4"/>
   </g>
   <g id="patch_4">
    <path d="M 62.239497 273.312 
L 63.857144 273.312 
L 63.857144 266.563598 
L 62.239497 266.563598 
z
" clip-path="url(#p0ee9202322)" style="fill: #1f77b4"/>
   </g>
   <g id="patch_5">
    <path d="M 63.857144 273.312 
L 65.474792 273.312 
L 65.474792 260.565018 
L 63.857144 260.565018 
z
" clip-path="url(#p0ee9202322)" style="fill: #1f77b4"/>
   </g>
   <g id="patch_6">
    <path d="M 65.474792 273.312 
L 67.092439 273.312 
L 67.092439 260.565018 
L 65.474792 260.565018 
z
" clip-path="url(#p0ee9202322)" style="fill: #1f77b4"/>
   </g>
   <g id="patch_7">
    <path d="M 67.092439 273.312 
L 68.710086 273.312 
L 68.710086 250.817325 
L 67.092439 250.817325 
z
" clip-path="url(#p0ee9202322)" style="fill: #1f77b4"/>
   </g>
   <g id="patch_8">
    <path d="M 68.710086 273.312 
L 70.327733 273.312 
L 70.327733 250.067503 
L 68.710086 250.067503 
z
" clip-path="url(#p0ee9202322)" style="fill: #1f77b4"/>
   </g>
   <g id="patch_9">
    <path d="M 70.327733 273.312 
L 71.945381 273.312 
L 71.945381 247.068213 
L 70.327733 247.068213 
z
" clip-path="url(#p0ee9202322)" style="fill: #1f77b4"/>
   </g>
   <g id="patch_10">
    <path d="M 71.945381 273.312 
L 73.563028 273.312 
L 73.563028 243.319101 
L 71.945381 243.319101 
z
" clip-path="url(#p0ee9202322)" style="fill: #1f77b4"/>
   </g>
   <g id="patch_11">
    <path d="M 73.563028 273.312 
L 75.180675 273.312 
L 75.180675 242.569278 
L 73.563028 242.569278 
z
" clip-path="url(#p0ee9202322)" style="fill: #1f77b4"/>
   </g>
   <g id="patch_12">
    <path d="M 75.180675 273.312 
L 76.798323 273.312 
L 76.798323 239.569988 
L 75.180675 239.569988 
z
" clip-path="url(#p0ee9202322)" style="fill: #1f77b4"/>
   </g>
   <g id="patch_13">
    <path d="M 76.798323 273.312 
L 78.41597 273.312 
L 78.41597 232.821586 
L 76.798323 232.821586 
z
" clip-path="url(#p0ee9202322)" style="fill: #1f77b4"/>
   </g>
   <g id="patch_14">
    <path d="M 78.41597 273.312 
L 80.033617 273.312 
L 80.033617 227.572828 
L 78.41597 227.572828 
z
" clip-path="url(#p0ee9202322)" style="fill: #1f77b4"/>
   </g>
   <g id="patch_15">
    <path d="M 80.033617 273.312 
L 81.651265 273.312 
L 81.651265 229.822296 
L 80.033617 229.822296 
z
" clip-path="url(#p0ee9202322)" style="fill: #1f77b4"/>
   </g>
   <g id="patch_16">
    <path d="M 81.651265 273.312 
L 83.268912 273.312 
L 83.268912 226.073183 
L 81.651265 226.073183 
z
" clip-path="url(#p0ee9202322)" style="fill: #1f77b4"/>
   </g>
   <g id="patch_17">
    <path d="M 83.268912 273.312 
L 84.886559 273.312 
L 84.886559 210.326911 
L 83.268912 210.326911 
z
" clip-path="url(#p0ee9202322)" style="fill: #1f77b4"/>
   </g>
   <g id="patch_18">
    <path d="M 84.886559 273.312 
L 86.504207 273.312 
L 86.504207 217.825136 
L 84.886559 217.825136 
z
" clip-path="url(#p0ee9202322)" style="fill: #1f77b4"/>
   </g>
   <g id="patch_19">
    <path d="M 86.504207 273.312 
L 88.121854 273.312 
L 88.121854 214.825846 
L 86.504207 214.825846 
z
" clip-path="url(#p0ee9202322)" style="fill: #1f77b4"/>
   </g>
   <g id="patch_20">
    <path d="M 88.121854 273.312 
L 89.739501 273.312 
L 89.739501 205.078154 
L 88.121854 205.078154 
z
" clip-path="url(#p0ee9202322)" style="fill: #1f77b4"/>
   </g>
   <g id="patch_21">
    <path d="M 89.739501 273.312 
L 91.357149 273.312 
L 91.357149 198.329751 
L 89.739501 198.329751 
z
" clip-path="url(#p0ee9202322)" style="fill: #1f77b4"/>
   </g>
   <g id="patch_22">
    <path d="M 91.357149 273.312 
L 92.974796 273.312 
L 92.974796 208.077444 
L 91.357149 208.077444 
z
" clip-path="url(#p0ee9202322)" style="fill: #1f77b4"/>
   </g>
   <g id="patch_23">
    <path d="M 92.974796 273.312 
L 94.592443 273.312 
L 94.592443 203.578509 
L 92.974796 203.578509 
z
" clip-path="url(#p0ee9202322)" style="fill: #1f77b4"/>
   </g>
   <g id="patch_24">
    <path d="M 94.592443 273.312 
L 96.210091 273.312 
L 96.210091 208.077444 
L 94.592443 208.077444 
z
" clip-path="url(#p0ee9202322)" style="fill: #1f77b4"/>
   </g>
   <g id="patch_25">
    <path d="M 96.210091 273.312 
L 97.827738 273.312 
L 97.827738 193.080994 
L 96.210091 193.080994 
z
" clip-path="url(#p0ee9202322)" style="fill: #1f77b4"/>
   </g>
   <g id="patch_26">
    <path d="M 97.827738 273.312 
L 99.445385 273.312 
L 99.445385 193.080994 
L 97.827738 193.080994 
z
" clip-path="url(#p0ee9202322)" style="fill: #1f77b4"/>
   </g>
   <g id="patch_27">
    <path d="M 99.445385 273.312 
L 101.063033 273.312 
L 101.063033 190.081704 
L 99.445385 190.081704 
z
" clip-path="url(#p0ee9202322)" style="fill: #1f77b4"/>
   </g>
   <g id="patch_28">
    <path d="M 101.063033 273.312 
L 102.68068 273.312 
L 102.68068 186.332592 
L 101.063033 186.332592 
z
" clip-path="url(#p0ee9202322)" style="fill: #1f77b4"/>
   </g>
   <g id="patch_29">
    <path d="M 102.68068 273.312 
L 104.298327 273.312 
L 104.298327 190.831527 
L 102.68068 190.831527 
z
" clip-path="url(#p0ee9202322)" style="fill: #1f77b4"/>
   </g>
   <g id="patch_30">
    <path d="M 104.298327 273.312 
L 105.915975 273.312 
L 105.915975 184.832947 
L 104.298327 184.832947 
z
" clip-path="url(#p0ee9202322)" style="fill: #1f77b4"/>
   </g>
   <g id="patch_31">
    <path d="M 105.915975 273.312 
L 107.533622 273.312 
L 107.533622 175.835077 
L 105.915975 175.835077 
z
" clip-path="url(#p0ee9202322)" style="fill: #1f77b4"/>
   </g>
   <g id="patch_32">
    <path d="M 107.533622 273.312 
L 109.151269 273.312 
L 109.151269 182.583479 
L 107.533622 182.583479 
z
" clip-path="url(#p0ee9202322)" style="fill: #1f77b4"/>
   </g>
   <g id="patch_33">
    <path d="M 109.151269 273.312 
L 110.768917 273.312 
L 110.768917 160.088805 
L 109.151269 160.088805 
z
" clip-path="url(#p0ee9202322)" style="fill: #1f77b4"/>
   </g>
   <g id="patch_34">
    <path d="M 110.768917 273.312 
L 112.386564 273.312 
L 112.386564 165.337562 
L 110.768917 165.337562 
z
" clip-path="url(#p0ee9202322)" style="fill: #1f77b4"/>
   </g>
   <g id="patch_35">
    <path d="M 112.386564 273.312 
L 114.004211 273.312 
L 114.004211 171.336142 
L 112.386564 171.336142 
z
" clip-path="url(#p0ee9202322)" style="fill: #1f77b4"/>
   </g>
   <g id="patch_36">
    <path d="M 114.004211 273.312 
L 115.621859 273.312 
L 115.621859 161.58845 
L 114.004211 161.58845 
z
" clip-path="url(#p0ee9202322)" style="fill: #1f77b4"/>
   </g>
   <g id="patch_37">
    <path d="M 115.621859 273.312 
L 117.239506 273.312 
L 117.239506 153.340402 
L 115.621859 153.340402 
z
" clip-path="url(#p0ee9202322)" style="fill: #1f77b4"/>
   </g>
   <g id="patch_38">
    <path d="M 117.239506 273.312 
L 118.857153 273.312 
L 118.857153 142.842888 
L 117.239506 142.842888 
z
" clip-path="url(#p0ee9202322)" style="fill: #1f77b4"/>
   </g>
   <g id="patch_39">
    <path d="M 118.857153 273.312 
L 120.474801 273.312 
L 120.474801 133.845018 
L 118.857153 133.845018 
z
" clip-path="url(#p0ee9202322)" style="fill: #1f77b4"/>
   </g>
   <g id="patch_40">
    <path d="M 120.474801 273.312 
L 122.092448 273.312 
L 122.092448 138.343953 
L 120.474801 138.343953 
z
" clip-path="url(#p0ee9202322)" style="fill: #1f77b4"/>
   </g>
   <g id="patch_41">
    <path d="M 122.092448 273.312 
L 123.710095 273.312 
L 123.710095 133.095195 
L 122.092448 133.095195 
z
" clip-path="url(#p0ee9202322)" style="fill: #1f77b4"/>
   </g>
   <g id="patch_42">
    <path d="M 123.710095 273.312 
L 125.327743 273.312 
L 125.327743 121.098036 
L 123.710095 121.098036 
z
" clip-path="url(#p0ee9202322)" style="fill: #1f77b4"/>
   </g>
   <g id="patch_43">
    <path d="M 125.327743 273.312 
L 126.94539 273.312 
L 126.94539 121.847858 
L 125.327743 121.847858 
z
" clip-path="url(#p0ee9202322)" style="fill: #1f77b4"/>
   </g>
   <g id="patch_44">
    <path d="M 126.94539 273.312 
L 128.563037 273.312 
L 128.563037 131.59555 
L 126.94539 131.59555 
z
" clip-path="url(#p0ee9202322)" style="fill: #1f77b4"/>
   </g>
   <g id="patch_45">
    <path d="M 128.563037 273.312 
L 130.180685 273.312 
L 130.180685 120.348213 
L 128.563037 120.348213 
z
" clip-path="url(#p0ee9202322)" style="fill: #1f77b4"/>
   </g>
   <g id="patch_46">
    <path d="M 130.180685 273.312 
L 131.798332 273.312 
L 131.798332 139.093775 
L 130.180685 139.093775 
z
" clip-path="url(#p0ee9202322)" style="fill: #1f77b4"/>
   </g>
   <g id="patch_47">
    <path d="M 131.798332 273.312 
L 133.415979 273.312 
L 133.415979 118.098746 
L 131.798332 118.098746 
z
" clip-path="url(#p0ee9202322)" style="fill: #1f77b4"/>
   </g>
   <g id="patch_48">
    <path d="M 133.415979 273.312 
L 135.033627 273.312 
L 135.033627 119.598391 
L 133.415979 119.598391 
z
" clip-path="url(#p0ee9202322)" style="fill: #1f77b4"/>
   </g>
   <g id="patch_49">
    <path d="M 135.033627 273.312 
L 136.651274 273.312 
L 136.651274 141.343243 
L 135.033627 141.343243 
z
" clip-path="url(#p0ee9202322)" style="fill: #1f77b4"/>
   </g>
   <g id="patch_50">
    <path d="M 136.651274 273.312 
L 138.268921 273.312 
L 138.268921 109.100876 
L 136.651274 109.100876 
z
" clip-path="url(#p0ee9202322)" style="fill: #1f77b4"/>
   </g>
   <g id="patch_51">
    <path d="M 138.268921 273.312 
L 139.886569 273.312 
L 139.886569 120.348213 
L 138.268921 120.348213 
z
" clip-path="url(#p0ee9202322)" style="fill: #1f77b4"/>
   </g>
   <g id="patch_52">
    <path d="M 139.886569 273.312 
L 141.504216 273.312 
L 141.504216 85.856379 
L 139.886569 85.856379 
z
" clip-path="url(#p0ee9202322)" style="fill: #1f77b4"/>
   </g>
   <g id="patch_53">
    <path d="M 141.504216 273.312 
L 143.121863 273.312 
L 143.121863 97.103716 
L 141.504216 97.103716 
z
" clip-path="url(#p0ee9202322)" style="fill: #1f77b4"/>
   </g>
   <g id="patch_54">
    <path d="M 143.121863 273.312 
L 144.739511 273.312 
L 144.739511 108.351053 
L 143.121863 108.351053 
z
" clip-path="url(#p0ee9202322)" style="fill: #1f77b4"/>
   </g>
   <g id="patch_55">
    <path d="M 144.739511 273.312 
L 146.357158 273.312 
L 146.357158 96.353893 
L 144.739511 96.353893 
z
" clip-path="url(#p0ee9202322)" style="fill: #1f77b4"/>
   </g>
   <g id="patch_56">
    <path d="M 146.357158 273.312 
L 147.974805 273.312 
L 147.974805 104.601941 
L 146.357158 104.601941 
z
" clip-path="url(#p0ee9202322)" style="fill: #1f77b4"/>
   </g>
   <g id="patch_57">
    <path d="M 147.974805 273.312 
L 149.592453 273.312 
L 149.592453 91.854959 
L 147.974805 91.854959 
z
" clip-path="url(#p0ee9202322)" style="fill: #1f77b4"/>
   </g>
   <g id="patch_58">
    <path d="M 149.592453 273.312 
L 151.2101 273.312 
L 151.2101 70.110107 
L 149.592453 70.110107 
z
" clip-path="url(#p0ee9202322)" style="fill: #1f77b4"/>
   </g>
   <g id="patch_59">
    <path d="M 151.2101 273.312 
L 152.827747 273.312 
L 152.827747 110.600521 
L 151.2101 110.600521 
z
" clip-path="url(#p0ee9202322)" style="fill: #1f77b4"/>
   </g>
   <g id="patch_60">
    <path d="M 152.827747 273.312 
L 154.445395 273.312 
L 154.445395 86.606201 
L 152.827747 86.606201 
z
" clip-path="url(#p0ee9202322)" style="fill: #1f77b4"/>
   </g>
   <g id="patch_61">
    <path d="M 154.445395 273.312 
L 156.063042 273.312 
L 156.063042 85.106556 
L 154.445395 85.106556 
z
" clip-path="url(#p0ee9202322)" style="fill: #1f77b4"/>
   </g>
   <g id="patch_62">
    <path d="M 156.063042 273.312 
L 157.680689 273.312 
L 157.680689 88.855669 
L 156.063042 88.855669 
z
" clip-path="url(#p0ee9202322)" style="fill: #1f77b4"/>
   </g>
   <g id="patch_63">
    <path d="M 157.680689 273.312 
L 159.298337 273.312 
L 159.298337 98.603361 
L 157.680689 98.603361 
z
" clip-path="url(#p0ee9202322)" style="fill: #1f77b4"/>
   </g>
   <g id="patch_64">
    <path d="M 159.298337 273.312 
L 160.915984 273.312 
L 160.915984 82.107266 
L 159.298337 82.107266 
z
" clip-path="url(#p0ee9202322)" style="fill: #1f77b4"/>
   </g>
   <g id="patch_65">
    <path d="M 160.915984 273.312 
L 162.533631 273.312 
L 162.533631 65.611172 
L 160.915984 65.611172 
z
" clip-path="url(#p0ee9202322)" style="fill: #1f77b4"/>
   </g>
   <g id="patch_66">
    <path d="M 162.533631 273.312 
L 164.151279 273.312 
L 164.151279 56.613302 
L 162.533631 56.613302 
z
" clip-path="url(#p0ee9202322)" style="fill: #1f77b4"/>
   </g>
   <g id="patch_67">
    <path d="M 164.151279 273.312 
L 165.768926 273.312 
L 165.768926 74.609041 
L 164.151279 74.609041 
z
" clip-path="url(#p0ee9202322)" style="fill: #1f77b4"/>
   </g>
   <g id="patch_68">
    <path d="M 165.768926 273.312 
L 167.386573 273.312 
L 167.386573 82.857089 
L 165.768926 82.857089 
z
" clip-path="url(#p0ee9202322)" style="fill: #1f77b4"/>
   </g>
   <g id="patch_69">
    <path d="M 167.386573 273.312 
L 169.004221 273.312 
L 169.004221 55.113657 
L 167.386573 55.113657 
z
" clip-path="url(#p0ee9202322)" style="fill: #1f77b4"/>
   </g>
   <g id="patch_70">
    <path d="M 169.004221 273.312 
L 170.621868 273.312 
L 170.621868 61.862059 
L 169.004221 61.862059 
z
" clip-path="url(#p0ee9202322)" style="fill: #1f77b4"/>
   </g>
   <g id="patch_71">
    <path d="M 170.621868 273.312 
L 172.239515 273.312 
L 172.239515 73.109396 
L 170.621868 73.109396 
z
" clip-path="url(#p0ee9202322)" style="fill: #1f77b4"/>
   </g>
   <g id="patch_72">
    <path d="M 172.239515 273.312 
L 173.857162 273.312 
L 173.857162 84.356734 
L 172.239515 84.356734 
z
" clip-path="url(#p0ee9202322)" style="fill: #1f77b4"/>
   </g>
   <g id="patch_73">
    <path d="M 173.857162 273.312 
L 175.47481 273.312 
L 175.47481 50.614722 
L 173.857162 50.614722 
z
" clip-path="url(#p0ee9202322)" style="fill: #1f77b4"/>
   </g>
   <g id="patch_74">
    <path d="M 175.47481 273.312 
L 177.092457 273.312 
L 177.092457 40.86703 
L 175.47481 40.86703 
z
" clip-path="url(#p0ee9202322)" style="fill: #1f77b4"/>
   </g>
   <g id="patch_75">
    <path d="M 177.092457 273.312 
L 178.710104 273.312 
L 178.710104 65.611172 
L 177.092457 65.611172 
z
" clip-path="url(#p0ee9202322)" style="fill: #1f77b4"/>
   </g>
   <g id="patch_76">
    <path d="M 178.710104 273.312 
L 180.327752 273.312 
L 180.327752 28.86987 
L 178.710104 28.86987 
z
" clip-path="url(#p0ee9202322)" style="fill: #1f77b4"/>
   </g>
   <g id="patch_77">
    <path d="M 180.327752 273.312 
L 181.945399 273.312 
L 181.945399 60.362414 
L 180.327752 60.362414 
z
" clip-path="url(#p0ee9202322)" style="fill: #1f77b4"/>
   </g>
   <g id="patch_78">
    <path d="M 181.945399 273.312 
L 183.563046 273.312 
L 183.563046 70.110107 
L 181.945399 70.110107 
z
" clip-path="url(#p0ee9202322)" style="fill: #1f77b4"/>
   </g>
   <g id="patch_79">
    <path d="M 183.563046 273.312 
L 185.180694 273.312 
L 185.180694 22.87129 
L 183.563046 22.87129 
z
" clip-path="url(#p0ee9202322)" style="fill: #1f77b4"/>
   </g>
   <g id="patch_80">
    <path d="M 185.180694 273.312 
L 186.798341 273.312 
L 186.798341 50.614722 
L 185.180694 50.614722 
z
" clip-path="url(#p0ee9202322)" style="fill: #1f77b4"/>
   </g>
   <g id="patch_81">
    <path d="M 186.798341 273.312 
L 188.415988 273.312 
L 188.415988 61.112237 
L 186.798341 61.112237 
z
" clip-path="url(#p0ee9202322)" style="fill: #1f77b4"/>
   </g>
   <g id="patch_82">
    <path d="M 188.415988 273.312 
L 190.033636 273.312 
L 190.033636 47.615432 
L 188.415988 47.615432 
z
" clip-path="url(#p0ee9202322)" style="fill: #1f77b4"/>
   </g>
   <g id="patch_83">
    <path d="M 190.033636 273.312 
L 191.651283 273.312 
L 191.651283 57.363124 
L 190.033636 57.363124 
z
" clip-path="url(#p0ee9202322)" style="fill: #1f77b4"/>
   </g>
   <g id="patch_84">
    <path d="M 191.651283 273.312 
L 193.26893 273.312 
L 193.26893 46.115787 
L 191.651283 46.115787 
z
" clip-path="url(#p0ee9202322)" style="fill: #1f77b4"/>
   </g>
   <g id="patch_85">
    <path d="M 193.26893 273.312 
L 194.886578 273.312 
L 194.886578 53.614012 
L 193.26893 53.614012 
z
" clip-path="url(#p0ee9202322)" style="fill: #1f77b4"/>
   </g>
   <g id="patch_86">
    <path d="M 194.886578 273.312 
L 196.504225 273.312 
L 196.504225 49.115077 
L 194.886578 49.115077 
z
" clip-path="url(#p0ee9202322)" style="fill: #1f77b4"/>
   </g>
   <g id="patch_87">
    <path d="M 196.504225 273.312 
L 198.121872 273.312 
L 198.121872 43.86632 
L 196.504225 43.86632 
z
" clip-path="url(#p0ee9202322)" style="fill: #1f77b4"/>
   </g>
   <g id="patch_88">
    <path d="M 198.121872 273.312 
L 199.73952 273.312 
L 199.73952 43.116497 
L 198.121872 43.116497 
z
" clip-path="url(#p0ee9202322)" style="fill: #1f77b4"/>
   </g>
   <g id="patch_89">
    <path d="M 199.73952 273.312 
L 201.357167 273.312 
L 201.357167 50.614722 
L 199.73952 50.614722 
z
" clip-path="url(#p0ee9202322)" style="fill: #1f77b4"/>
   </g>
   <g id="patch_90">
    <path d="M 201.357167 273.312 
L 202.974814 273.312 
L 202.974814 49.864899 
L 201.357167 49.864899 
z
" clip-path="url(#p0ee9202322)" style="fill: #1f77b4"/>
   </g>
   <g id="patch_91">
    <path d="M 202.974814 273.312 
L 204.592462 273.312 
L 204.592462 42.366675 
L 202.974814 42.366675 
z
" clip-path="url(#p0ee9202322)" style="fill: #1f77b4"/>
   </g>
   <g id="patch_92">
    <path d="M 204.592462 273.312 
L 206.210109 273.312 
L 206.210109 49.115077 
L 204.592462 49.115077 
z
" clip-path="url(#p0ee9202322)" style="fill: #1f77b4"/>
   </g>
   <g id="patch_93">
    <path d="M 206.210109 273.312 
L 207.827756 273.312 
L 207.827756 40.117207 
L 206.210109 40.117207 
z
" clip-path="url(#p0ee9202322)" style="fill: #1f77b4"/>
   </g>
   <g id="patch_94">
    <path d="M 207.827756 273.312 
L 209.445404 273.312 
L 209.445404 43.116497 
L 207.827756 43.116497 
z
" clip-path="url(#p0ee9202322)" style="fill: #1f77b4"/>
   </g>
   <g id="patch_95">
    <path d="M 209.445404 273.312 
L 211.063051 273.312 
L 211.063051 22.121467 
L 209.445404 22.121467 
z
" clip-path="url(#p0ee9202322)" style="fill: #1f77b4"/>
   </g>
   <g id="patch_96">
    <path d="M 211.063051 273.312 
L 212.680698 273.312 
L 212.680698 27.370225 
L 211.063051 27.370225 
z
" clip-path="url(#p0ee9202322)" style="fill: #1f77b4"/>
   </g>
   <g id="patch_97">
    <path d="M 212.680698 273.312 
L 214.298346 273.312 
L 214.298346 48.365254 
L 212.680698 48.365254 
z
" clip-path="url(#p0ee9202322)" style="fill: #1f77b4"/>
   </g>
   <g id="patch_98">
    <path d="M 214.298346 273.312 
L 215.915993 273.312 
L 215.915993 34.118627 
L 214.298346 34.118627 
z
" clip-path="url(#p0ee9202322)" style="fill: #1f77b4"/>
   </g>
   <g id="patch_99">
    <path d="M 215.915993 273.312 
L 217.53364 273.312 
L 217.53364 35.618272 
L 215.915993 35.618272 
z
" clip-path="url(#p0ee9202322)" style="fill: #1f77b4"/>
   </g>
   <g id="patch_100">
    <path d="M 217.53364 273.312 
L 219.151288 273.312 
L 219.151288 40.117207 
L 217.53364 40.117207 
z
" clip-path="url(#p0ee9202322)" style="fill: #1f77b4"/>
   </g>
   <g id="patch_101">
    <path d="M 219.151288 273.312 
L 220.768935 273.312 
L 220.768935 19.872 
L 219.151288 19.872 
z
" clip-path="url(#p0ee9202322)" style="fill: #1f77b4"/>
   </g>
   <g id="patch_102">
    <path d="M 220.768935 273.312 
L 222.386582 273.312 
L 222.386582 43.116497 
L 220.768935 43.116497 
z
" clip-path="url(#p0ee9202322)" style="fill: #1f77b4"/>
   </g>
   <g id="patch_103">
    <path d="M 222.386582 273.312 
L 224.00423 273.312 
L 224.00423 32.618982 
L 222.386582 32.618982 
z
" clip-path="url(#p0ee9202322)" style="fill: #1f77b4"/>
   </g>
   <g id="patch_104">
    <path d="M 224.00423 273.312 
L 225.621877 273.312 
L 225.621877 37.117917 
L 224.00423 37.117917 
z
" clip-path="url(#p0ee9202322)" style="fill: #1f77b4"/>
   </g>
   <g id="patch_105">
    <path d="M 225.621877 273.312 
L 227.239524 273.312 
L 227.239524 34.118627 
L 225.621877 34.118627 
z
" clip-path="url(#p0ee9202322)" style="fill: #1f77b4"/>
   </g>
   <g id="patch_106">
    <path d="M 227.239524 273.312 
L 228.857172 273.312 
L 228.857172 39.367385 
L 227.239524 39.367385 
z
" clip-path="url(#p0ee9202322)" style="fill: #1f77b4"/>
   </g>
   <g id="patch_107">
    <path d="M 228.857172 273.312 
L 230.474819 273.312 
L 230.474819 53.614012 
L 228.857172 53.614012 
z
" clip-path="url(#p0ee9202322)" style="fill: #1f77b4"/>
   </g>
   <g id="patch_108">
    <path d="M 230.474819 273.312 
L 232.092466 273.312 
L 232.092466 40.117207 
L 230.474819 40.117207 
z
" clip-path="url(#p0ee9202322)" style="fill: #1f77b4"/>
   </g>
   <g id="patch_109">
    <path d="M 232.092466 273.312 
L 233.710114 273.312 
L 233.710114 28.120047 
L 232.092466 28.120047 
z
" clip-path="url(#p0ee9202322)" style="fill: #1f77b4"/>
   </g>
   <g id="patch_110">
    <path d="M 233.710114 273.312 
L 235.327761 273.312 
L 235.327761 41.616852 
L 233.710114 41.616852 
z
" clip-path="url(#p0ee9202322)" style="fill: #1f77b4"/>
   </g>
   <g id="patch_111">
    <path d="M 235.327761 273.312 
L 236.945408 273.312 
L 236.945408 37.86774 
L 235.327761 37.86774 
z
" clip-path="url(#p0ee9202322)" style="fill: #1f77b4"/>
   </g>
   <g id="patch_112">
    <path d="M 236.945408 273.312 
L 238.563056 273.312 
L 238.563056 44.616142 
L 236.945408 44.616142 
z
" clip-path="url(#p0ee9202322)" style="fill: #1f77b4"/>
   </g>
   <g id="patch_113">
    <path d="M 238.563056 273.312 
L 240.180703 273.312 
L 240.180703 37.86774 
L 238.563056 37.86774 
z
" clip-path="url(#p0ee9202322)" style="fill: #1f77b4"/>
   </g>
   <g id="patch_114">
    <path d="M 240.180703 273.312 
L 241.79835 273.312 
L 241.79835 53.614012 
L 240.180703 53.614012 
z
" clip-path="url(#p0ee9202322)" style="fill: #1f77b4"/>
   </g>
   <g id="patch_115">
    <path d="M 241.79835 273.312 
L 243.415998 273.312 
L 243.415998 41.616852 
L 241.79835 41.616852 
z
" clip-path="url(#p0ee9202322)" style="fill: #1f77b4"/>
   </g>
   <g id="patch_116">
    <path d="M 243.415998 273.312 
L 245.033645 273.312 
L 245.033645 71.609751 
L 243.415998 71.609751 
z
" clip-path="url(#p0ee9202322)" style="fill: #1f77b4"/>
   </g>
   <g id="patch_117">
    <path d="M 245.033645 273.312 
L 246.651292 273.312 
L 246.651292 61.862059 
L 245.033645 61.862059 
z
" clip-path="url(#p0ee9202322)" style="fill: #1f77b4"/>
   </g>
   <g id="patch_118">
    <path d="M 246.651292 273.312 
L 248.26894 273.312 
L 248.26894 43.116497 
L 246.651292 43.116497 
z
" clip-path="url(#p0ee9202322)" style="fill: #1f77b4"/>
   </g>
   <g id="patch_119">
    <path d="M 248.26894 273.312 
L 249.886587 273.312 
L 249.886587 44.616142 
L 248.26894 44.616142 
z
" clip-path="url(#p0ee9202322)" style="fill: #1f77b4"/>
   </g>
   <g id="patch_120">
    <path d="M 249.886587 273.312 
L 251.504234 273.312 
L 251.504234 66.360994 
L 249.886587 66.360994 
z
" clip-path="url(#p0ee9202322)" style="fill: #1f77b4"/>
   </g>
   <g id="patch_121">
    <path d="M 251.504234 273.312 
L 253.121882 273.312 
L 253.121882 43.86632 
L 251.504234 43.86632 
z
" clip-path="url(#p0ee9202322)" style="fill: #1f77b4"/>
   </g>
   <g id="patch_122">
    <path d="M 253.121882 273.312 
L 254.739529 273.312 
L 254.739529 54.363834 
L 253.121882 54.363834 
z
" clip-path="url(#p0ee9202322)" style="fill: #1f77b4"/>
   </g>
   <g id="patch_123">
    <path d="M 254.739529 273.312 
L 256.357176 273.312 
L 256.357176 55.113657 
L 254.739529 55.113657 
z
" clip-path="url(#p0ee9202322)" style="fill: #1f77b4"/>
   </g>
   <g id="patch_124">
    <path d="M 256.357176 273.312 
L 257.974824 273.312 
L 257.974824 61.862059 
L 256.357176 61.862059 
z
" clip-path="url(#p0ee9202322)" style="fill: #1f77b4"/>
   </g>
   <g id="patch_125">
    <path d="M 257.974824 273.312 
L 259.592471 273.312 
L 259.592471 40.86703 
L 257.974824 40.86703 
z
" clip-path="url(#p0ee9202322)" style="fill: #1f77b4"/>
   </g>
   <g id="patch_126">
    <path d="M 259.592471 273.312 
L 261.210118 273.312 
L 261.210118 66.360994 
L 259.592471 66.360994 
z
" clip-path="url(#p0ee9202322)" style="fill: #1f77b4"/>
   </g>
   <g id="patch_127">
    <path d="M 261.210118 273.312 
L 262.827766 273.312 
L 262.827766 49.115077 
L 261.210118 49.115077 
z
" clip-path="url(#p0ee9202322)" style="fill: #1f77b4"/>
   </g>
   <g id="patch_128">
    <path d="M 262.827766 273.312 
L 264.445413 273.312 
L 264.445413 58.112947 
L 262.827766 58.112947 
z
" clip-path="url(#p0ee9202322)" style="fill: #1f77b4"/>
   </g>
   <g id="patch_129">
    <path d="M 264.445413 273.312 
L 266.06306 273.312 
L 266.06306 64.111527 
L 264.445413 64.111527 
z
" clip-path="url(#p0ee9202322)" style="fill: #1f77b4"/>
   </g>
   <g id="patch_130">
    <path d="M 266.06306 273.312 
L 267.680708 273.312 
L 267.680708 49.115077 
L 266.06306 49.115077 
z
" clip-path="url(#p0ee9202322)" style="fill: #1f77b4"/>
   </g>
   <g id="patch_131">
    <path d="M 267.680708 273.312 
L 269.298355 273.312 
L 269.298355 67.860639 
L 267.680708 67.860639 
z
" clip-path="url(#p0ee9202322)" style="fill: #1f77b4"/>
   </g>
   <g id="patch_132">
    <path d="M 269.298355 273.312 
L 270.916002 273.312 
L 270.916002 59.612592 
L 269.298355 59.612592 
z
" clip-path="url(#p0ee9202322)" style="fill: #1f77b4"/>
   </g>
   <g id="patch_133">
    <path d="M 270.916002 273.312 
L 272.53365 273.312 
L 272.53365 73.109396 
L 270.916002 73.109396 
z
" clip-path="url(#p0ee9202322)" style="fill: #1f77b4"/>
   </g>
   <g id="patch_134">
    <path d="M 272.53365 273.312 
L 274.151297 273.312 
L 274.151297 46.865609 
L 272.53365 46.865609 
z
" clip-path="url(#p0ee9202322)" style="fill: #1f77b4"/>
   </g>
   <g id="patch_135">
    <path d="M 274.151297 273.312 
L 275.768944 273.312 
L 275.768944 63.361704 
L 274.151297 63.361704 
z
" clip-path="url(#p0ee9202322)" style="fill: #1f77b4"/>
   </g>
   <g id="patch_136">
    <path d="M 275.768944 273.312 
L 277.386591 273.312 
L 277.386591 61.862059 
L 275.768944 61.862059 
z
" clip-path="url(#p0ee9202322)" style="fill: #1f77b4"/>
   </g>
   <g id="patch_137">
    <path d="M 277.386591 273.312 
L 279.004239 273.312 
L 279.004239 75.358864 
L 277.386591 75.358864 
z
" clip-path="url(#p0ee9202322)" style="fill: #1f77b4"/>
   </g>
   <g id="patch_138">
    <path d="M 279.004239 273.312 
L 280.621886 273.312 
L 280.621886 70.110107 
L 279.004239 70.110107 
z
" clip-path="url(#p0ee9202322)" style="fill: #1f77b4"/>
   </g>
   <g id="patch_139">
    <path d="M 280.621886 273.312 
L 282.239533 273.312 
L 282.239533 56.613302 
L 280.621886 56.613302 
z
" clip-path="url(#p0ee9202322)" style="fill: #1f77b4"/>
   </g>
   <g id="patch_140">
    <path d="M 282.239533 273.312 
L 283.857181 273.312 
L 283.857181 89.605491 
L 282.239533 89.605491 
z
" clip-path="url(#p0ee9202322)" style="fill: #1f77b4"/>
   </g>
   <g id="patch_141">
    <path d="M 283.857181 273.312 
L 285.474828 273.312 
L 285.474828 79.857799 
L 283.857181 79.857799 
z
" clip-path="url(#p0ee9202322)" style="fill: #1f77b4"/>
   </g>
   <g id="patch_142">
    <path d="M 285.474828 273.312 
L 287.092475 273.312 
L 287.092475 79.857799 
L 285.474828 79.857799 
z
" clip-path="url(#p0ee9202322)" style="fill: #1f77b4"/>
   </g>
   <g id="patch_143">
    <path d="M 287.092475 273.312 
L 288.710123 273.312 
L 288.710123 85.106556 
L 287.092475 85.106556 
z
" clip-path="url(#p0ee9202322)" style="fill: #1f77b4"/>
   </g>
   <g id="patch_144">
    <path d="M 288.710123 273.312 
L 290.32777 273.312 
L 290.32777 93.354604 
L 288.710123 93.354604 
z
" clip-path="url(#p0ee9202322)" style="fill: #1f77b4"/>
   </g>
   <g id="patch_145">
    <path d="M 290.32777 273.312 
L 291.945417 273.312 
L 291.945417 95.604071 
L 290.32777 95.604071 
z
" clip-path="url(#p0ee9202322)" style="fill: #1f77b4"/>
   </g>
   <g id="patch_146">
    <path d="M 291.945417 273.312 
L 293.563065 273.312 
L 293.563065 81.357444 
L 291.945417 81.357444 
z
" clip-path="url(#p0ee9202322)" style="fill: #1f77b4"/>
   </g>
   <g id="patch_147">
    <path d="M 293.563065 273.312 
L 295.180712 273.312 
L 295.180712 89.605491 
L 293.563065 89.605491 
z
" clip-path="url(#p0ee9202322)" style="fill: #1f77b4"/>
   </g>
   <g id="patch_148">
    <path d="M 295.180712 273.312 
L 296.798359 273.312 
L 296.798359 97.103716 
L 295.180712 97.103716 
z
" clip-path="url(#p0ee9202322)" style="fill: #1f77b4"/>
   </g>
   <g id="patch_149">
    <path d="M 296.798359 273.312 
L 298.416007 273.312 
L 298.416007 94.854249 
L 296.798359 94.854249 
z
" clip-path="url(#p0ee9202322)" style="fill: #1f77b4"/>
   </g>
   <g id="patch_150">
    <path d="M 298.416007 273.312 
L 300.033654 273.312 
L 300.033654 90.355314 
L 298.416007 90.355314 
z
" clip-path="url(#p0ee9202322)" style="fill: #1f77b4"/>
   </g>
   <g id="patch_151">
    <path d="M 300.033654 273.312 
L 301.651301 273.312 
L 301.651301 89.605491 
L 300.033654 89.605491 
z
" clip-path="url(#p0ee9202322)" style="fill: #1f77b4"/>
   </g>
   <g id="patch_152">
    <path d="M 301.651301 273.312 
L 303.268949 273.312 
L 303.268949 107.601231 
L 301.651301 107.601231 
z
" clip-path="url(#p0ee9202322)" style="fill: #1f77b4"/>
   </g>
   <g id="patch_153">
    <path d="M 303.268949 273.312 
L 304.886596 273.312 
L 304.886596 116.599101 
L 303.268949 116.599101 
z
" clip-path="url(#p0ee9202322)" style="fill: #1f77b4"/>
   </g>
   <g id="patch_154">
    <path d="M 304.886596 273.312 
L 306.504243 273.312 
L 306.504243 103.102296 
L 304.886596 103.102296 
z
" clip-path="url(#p0ee9202322)" style="fill: #1f77b4"/>
   </g>
   <g id="patch_155">
    <path d="M 306.504243 273.312 
L 308.121891 273.312 
L 308.121891 118.848568 
L 306.504243 118.848568 
z
" clip-path="url(#p0ee9202322)" style="fill: #1f77b4"/>
   </g>
   <g id="patch_156">
    <path d="M 308.121891 273.312 
L 309.739538 273.312 
L 309.739538 112.100166 
L 308.121891 112.100166 
z
" clip-path="url(#p0ee9202322)" style="fill: #1f77b4"/>
   </g>
   <g id="patch_157">
    <path d="M 309.739538 273.312 
L 311.357185 273.312 
L 311.357185 124.847148 
L 309.739538 124.847148 
z
" clip-path="url(#p0ee9202322)" style="fill: #1f77b4"/>
   </g>
   <g id="patch_158">
    <path d="M 311.357185 273.312 
L 312.974833 273.312 
L 312.974833 106.851408 
L 311.357185 106.851408 
z
" clip-path="url(#p0ee9202322)" style="fill: #1f77b4"/>
   </g>
   <g id="patch_159">
    <path d="M 312.974833 273.312 
L 314.59248 273.312 
L 314.59248 146.592 
L 312.974833 146.592 
z
" clip-path="url(#p0ee9202322)" style="fill: #1f77b4"/>
   </g>
   <g id="patch_160">
    <path d="M 314.59248 273.312 
L 316.210127 273.312 
L 316.210127 124.097325 
L 314.59248 124.097325 
z
" clip-path="url(#p0ee9202322)" style="fill: #1f77b4"/>
   </g>
   <g id="patch_161">
    <path d="M 316.210127 273.312 
L 317.827775 273.312 
L 317.827775 124.097325 
L 316.210127 124.097325 
z
" clip-path="url(#p0ee9202322)" style="fill: #1f77b4"/>
   </g>
   <g id="patch_162">
    <path d="M 317.827775 273.312 
L 319.445422 273.312 
L 319.445422 159.338982 
L 317.827775 159.338982 
z
" clip-path="url(#p0ee9202322)" style="fill: #1f77b4"/>
   </g>
   <g id="patch_163">
    <path d="M 319.445422 273.312 
L 321.063069 273.312 
L 321.063069 131.59555 
L 319.445422 131.59555 
z
" clip-path="url(#p0ee9202322)" style="fill: #1f77b4"/>
   </g>
   <g id="patch_164">
    <path d="M 321.063069 273.312 
L 322.680717 273.312 
L 322.680717 153.340402 
L 321.063069 153.340402 
z
" clip-path="url(#p0ee9202322)" style="fill: #1f77b4"/>
   </g>
   <g id="patch_165">
    <path d="M 322.680717 273.312 
L 324.298364 273.312 
L 324.298364 143.59271 
L 322.680717 143.59271 
z
" clip-path="url(#p0ee9202322)" style="fill: #1f77b4"/>
   </g>
   <g id="patch_166">
    <path d="M 324.298364 273.312 
L 325.916011 273.312 
L 325.916011 138.343953 
L 324.298364 138.343953 
z
" clip-path="url(#p0ee9202322)" style="fill: #1f77b4"/>
   </g>
   <g id="patch_167">
    <path d="M 325.916011 273.312 
L 327.533659 273.312 
L 327.533659 157.839337 
L 325.916011 157.839337 
z
" clip-path="url(#p0ee9202322)" style="fill: #1f77b4"/>
   </g>
   <g id="patch_168">
    <path d="M 327.533659 273.312 
L 329.151306 273.312 
L 329.151306 144.342533 
L 327.533659 144.342533 
z
" clip-path="url(#p0ee9202322)" style="fill: #1f77b4"/>
   </g>
   <g id="patch_169">
    <path d="M 329.151306 273.312 
L 330.768953 273.312 
L 330.768953 153.340402 
L 329.151306 153.340402 
z
" clip-path="url(#p0ee9202322)" style="fill: #1f77b4"/>
   </g>
   <g id="patch_170">
    <path d="M 330.768953 273.312 
L 332.386601 273.312 
L 332.386601 153.340402 
L 330.768953 153.340402 
z
" clip-path="url(#p0ee9202322)" style="fill: #1f77b4"/>
   </g>
   <g id="patch_171">
    <path d="M 332.386601 273.312 
L 334.004248 273.312 
L 334.004248 147.341822 
L 332.386601 147.341822 
z
" clip-path="url(#p0ee9202322)" style="fill: #1f77b4"/>
   </g>
   <g id="patch_172">
    <path d="M 334.004248 273.312 
L 335.621895 273.312 
L 335.621895 173.585609 
L 334.004248 173.585609 
z
" clip-path="url(#p0ee9202322)" style="fill: #1f77b4"/>
   </g>
   <g id="patch_173">
    <path d="M 335.621895 273.312 
L 337.239543 273.312 
L 337.239543 166.837207 
L 335.621895 166.837207 
z
" clip-path="url(#p0ee9202322)" style="fill: #1f77b4"/>
   </g>
   <g id="patch_174">
    <path d="M 337.239543 273.312 
L 338.85719 273.312 
L 338.85719 162.338272 
L 337.239543 162.338272 
z
" clip-path="url(#p0ee9202322)" style="fill: #1f77b4"/>
   </g>
   <g id="patch_175">
    <path d="M 338.85719 273.312 
L 340.474837 273.312 
L 340.474837 169.836497 
L 338.85719 169.836497 
z
" clip-path="url(#p0ee9202322)" style="fill: #1f77b4"/>
   </g>
   <g id="patch_176">
    <path d="M 340.474837 273.312 
L 342.092485 273.312 
L 342.092485 184.832947 
L 340.474837 184.832947 
z
" clip-path="url(#p0ee9202322)" style="fill: #1f77b4"/>
   </g>
   <g id="patch_177">
    <path d="M 342.092485 273.312 
L 343.710132 273.312 
L 343.710132 178.084544 
L 342.092485 178.084544 
z
" clip-path="url(#p0ee9202322)" style="fill: #1f77b4"/>
   </g>
   <g id="patch_178">
    <path d="M 343.710132 273.312 
L 345.327779 273.312 
L 345.327779 201.329041 
L 343.710132 201.329041 
z
" clip-path="url(#p0ee9202322)" style="fill: #1f77b4"/>
   </g>
   <g id="patch_179">
    <path d="M 345.327779 273.312 
L 346.945427 273.312 
L 346.945427 186.332592 
L 345.327779 186.332592 
z
" clip-path="url(#p0ee9202322)" style="fill: #1f77b4"/>
   </g>
   <g id="patch_180">
    <path d="M 346.945427 273.312 
L 348.563074 273.312 
L 348.563074 186.332592 
L 346.945427 186.332592 
z
" clip-path="url(#p0ee9202322)" style="fill: #1f77b4"/>
   </g>
   <g id="patch_181">
    <path d="M 348.563074 273.312 
L 350.180721 273.312 
L 350.180721 204.328331 
L 348.563074 204.328331 
z
" clip-path="url(#p0ee9202322)" style="fill: #1f77b4"/>
   </g>
   <g id="patch_182">
    <path d="M 350.180721 273.312 
L 351.798369 273.312 
L 351.798369 206.577799 
L 350.180721 206.577799 
z
" clip-path="url(#p0ee9202322)" style="fill: #1f77b4"/>
   </g>
   <g id="patch_183">
    <path d="M 351.798369 273.312 
L 353.416016 273.312 
L 353.416016 195.330462 
L 351.798369 195.330462 
z
" clip-path="url(#p0ee9202322)" style="fill: #1f77b4"/>
   </g>
   <g id="patch_184">
    <path d="M 353.416016 273.312 
L 355.033663 273.312 
L 355.033663 196.080284 
L 353.416016 196.080284 
z
" clip-path="url(#p0ee9202322)" style="fill: #1f77b4"/>
   </g>
   <g id="patch_185">
    <path d="M 355.033663 273.312 
L 356.651311 273.312 
L 356.651311 214.076024 
L 355.033663 214.076024 
z
" clip-path="url(#p0ee9202322)" style="fill: #1f77b4"/>
   </g>
   <g id="patch_186">
    <path d="M 356.651311 273.312 
L 358.268958 273.312 
L 358.268958 221.574249 
L 356.651311 221.574249 
z
" clip-path="url(#p0ee9202322)" style="fill: #1f77b4"/>
   </g>
   <g id="patch_187">
    <path d="M 358.268958 273.312 
L 359.886605 273.312 
L 359.886605 214.825846 
L 358.268958 214.825846 
z
" clip-path="url(#p0ee9202322)" style="fill: #1f77b4"/>
   </g>
   <g id="patch_188">
    <path d="M 359.886605 273.312 
L 361.504253 273.312 
L 361.504253 212.576379 
L 359.886605 212.576379 
z
" clip-path="url(#p0ee9202322)" style="fill: #1f77b4"/>
   </g>
   <g id="patch_189">
    <path d="M 361.504253 273.312 
L 363.1219 273.312 
L 363.1219 233.571408 
L 361.504253 233.571408 
z
" clip-path="url(#p0ee9202322)" style="fill: #1f77b4"/>
   </g>
   <g id="patch_190">
    <path d="M 363.1219 273.312 
L 364.739547 273.312 
L 364.739547 224.573538 
L 363.1219 224.573538 
z
" clip-path="url(#p0ee9202322)" style="fill: #1f77b4"/>
   </g>
   <g id="patch_191">
    <path d="M 364.739547 273.312 
L 366.357195 273.312 
L 366.357195 226.073183 
L 364.739547 226.073183 
z
" clip-path="url(#p0ee9202322)" style="fill: #1f77b4"/>
   </g>
   <g id="patch_192">
    <path d="M 366.357195 273.312 
L 367.974842 273.312 
L 367.974842 221.574249 
L 366.357195 221.574249 
z
" clip-path="url(#p0ee9202322)" style="fill: #1f77b4"/>
   </g>
   <g id="patch_193">
    <path d="M 367.974842 273.312 
L 369.592489 273.312 
L 369.592489 239.569988 
L 367.974842 239.569988 
z
" clip-path="url(#p0ee9202322)" style="fill: #1f77b4"/>
   </g>
   <g id="patch_194">
    <path d="M 369.592489 273.312 
L 371.210137 273.312 
L 371.210137 238.070343 
L 369.592489 238.070343 
z
" clip-path="url(#p0ee9202322)" style="fill: #1f77b4"/>
   </g>
   <g id="patch_195">
    <path d="M 371.210137 273.312 
L 372.827784 273.312 
L 372.827784 242.569278 
L 371.210137 242.569278 
z
" clip-path="url(#p0ee9202322)" style="fill: #1f77b4"/>
   </g>
   <g id="patch_196">
    <path d="M 372.827784 273.312 
L 374.445431 273.312 
L 374.445431 238.820166 
L 372.827784 238.820166 
z
" clip-path="url(#p0ee9202322)" style="fill: #1f77b4"/>
   </g>
   <g id="patch_197">
    <path d="M 374.445431 273.312 
L 376.063079 273.312 
L 376.063079 249.31768 
L 374.445431 249.31768 
z
" clip-path="url(#p0ee9202322)" style="fill: #1f77b4"/>
   </g>
   <g id="patch_198">
    <path d="M 376.063079 273.312 
L 377.680726 273.312 
L 377.680726 253.816615 
L 376.063079 253.816615 
z
" clip-path="url(#p0ee9202322)" style="fill: #1f77b4"/>
   </g>
   <g id="patch_199">
    <path d="M 377.680726 273.312 
L 379.298373 273.312 
L 379.298373 258.31555 
L 377.680726 258.31555 
z
" clip-path="url(#p0ee9202322)" style="fill: #1f77b4"/>
   </g>
   <g id="patch_200">
    <path d="M 379.298373 273.312 
L 380.91602 273.312 
L 380.91602 263.564308 
L 379.298373 263.564308 
z
" clip-path="url(#p0ee9202322)" style="fill: #1f77b4"/>
   </g>
   <g id="patch_201">
    <path d="M 380.91602 273.312 
L 382.533668 273.312 
L 382.533668 265.813775 
L 380.91602 265.813775 
z
" clip-path="url(#p0ee9202322)" style="fill: #1f77b4"/>
   </g>
   <g id="patch_202">
    <path d="M 382.533668 273.312 
L 384.151315 273.312 
L 384.151315 268.813065 
L 382.533668 268.813065 
z
" clip-path="url(#p0ee9202322)" style="fill: #1f77b4"/>
   </g>
   <g id="matplotlib.axis_1">
    <g id="xtick_1">
     <g id="line2d_1">
      <defs>
       <path id="mb2b511f81b" d="M 0 0 
L 0 3.5 
" style="stroke: #000000; stroke-width: 0.8"/>
      </defs>
      <g>
       <use xlink:href="#mb2b511f81b" x="60.013977" y="273.312" style="stroke: #000000; stroke-width: 0.8"/>
      </g>
     </g>
     <g id="text_1">
      <!-- 0.0 -->
      <g transform="translate(52.062415 287.910437)scale(0.1 -0.1)">
       <defs>
        <path id="DejaVuSans-30" d="M 2034 4250 
Q 1547 4250 1301 3770 
Q 1056 3291 1056 2328 
Q 1056 1369 1301 889 
Q 1547 409 2034 409 
Q 2525 409 2770 889 
Q 3016 1369 3016 2328 
Q 3016 3291 2770 3770 
Q 2525 4250 2034 4250 
z
M 2034 4750 
Q 2819 4750 3233 4129 
Q 3647 3509 3647 2328 
Q 3647 1150 3233 529 
Q 2819 -91 2034 -91 
Q 1250 -91 836 529 
Q 422 1150 422 2328 
Q 422 3509 836 4129 
Q 1250 4750 2034 4750 
z
" transform="scale(0.015625)"/>
        <path id="DejaVuSans-2e" d="M 684 794 
L 1344 794 
L 1344 0 
L 684 0 
L 684 794 
z
" transform="scale(0.015625)"/>
       </defs>
       <use xlink:href="#DejaVuSans-30"/>
       <use xlink:href="#DejaVuSans-2e" x="63.623047"/>
       <use xlink:href="#DejaVuSans-30" x="95.410156"/>
      </g>
     </g>
    </g>
    <g id="xtick_2">
     <g id="line2d_2">
      <g>
       <use xlink:href="#mb2b511f81b" x="101.350278" y="273.312" style="stroke: #000000; stroke-width: 0.8"/>
      </g>
     </g>
     <g id="text_2">
      <!-- 0.2 -->
      <g transform="translate(93.398715 287.910437)scale(0.1 -0.1)">
       <defs>
        <path id="DejaVuSans-32" d="M 1228 531 
L 3431 531 
L 3431 0 
L 469 0 
L 469 531 
Q 828 903 1448 1529 
Q 2069 2156 2228 2338 
Q 2531 2678 2651 2914 
Q 2772 3150 2772 3378 
Q 2772 3750 2511 3984 
Q 2250 4219 1831 4219 
Q 1534 4219 1204 4116 
Q 875 4013 500 3803 
L 500 4441 
Q 881 4594 1212 4672 
Q 1544 4750 1819 4750 
Q 2544 4750 2975 4387 
Q 3406 4025 3406 3419 
Q 3406 3131 3298 2873 
Q 3191 2616 2906 2266 
Q 2828 2175 2409 1742 
Q 1991 1309 1228 531 
z
" transform="scale(0.015625)"/>
       </defs>
       <use xlink:href="#DejaVuSans-30"/>
       <use xlink:href="#DejaVuSans-2e" x="63.623047"/>
       <use xlink:href="#DejaVuSans-32" x="95.410156"/>
      </g>
     </g>
    </g>
    <g id="xtick_3">
     <g id="line2d_3">
      <g>
       <use xlink:href="#mb2b511f81b" x="142.686578" y="273.312" style="stroke: #000000; stroke-width: 0.8"/>
      </g>
     </g>
     <g id="text_3">
      <!-- 0.4 -->
      <g transform="translate(134.735016 287.910437)scale(0.1 -0.1)">
       <defs>
        <path id="DejaVuSans-34" d="M 2419 4116 
L 825 1625 
L 2419 1625 
L 2419 4116 
z
M 2253 4666 
L 3047 4666 
L 3047 1625 
L 3713 1625 
L 3713 1100 
L 3047 1100 
L 3047 0 
L 2419 0 
L 2419 1100 
L 313 1100 
L 313 1709 
L 2253 4666 
z
" transform="scale(0.015625)"/>
       </defs>
       <use xlink:href="#DejaVuSans-30"/>
       <use xlink:href="#DejaVuSans-2e" x="63.623047"/>
       <use xlink:href="#DejaVuSans-34" x="95.410156"/>
      </g>
     </g>
    </g>
    <g id="xtick_4">
     <g id="line2d_4">
      <g>
       <use xlink:href="#mb2b511f81b" x="184.022879" y="273.312" style="stroke: #000000; stroke-width: 0.8"/>
      </g>
     </g>
     <g id="text_4">
      <!-- 0.6 -->
      <g transform="translate(176.071316 287.910437)scale(0.1 -0.1)">
       <defs>
        <path id="DejaVuSans-36" d="M 2113 2584 
Q 1688 2584 1439 2293 
Q 1191 2003 1191 1497 
Q 1191 994 1439 701 
Q 1688 409 2113 409 
Q 2538 409 2786 701 
Q 3034 994 3034 1497 
Q 3034 2003 2786 2293 
Q 2538 2584 2113 2584 
z
M 3366 4563 
L 3366 3988 
Q 3128 4100 2886 4159 
Q 2644 4219 2406 4219 
Q 1781 4219 1451 3797 
Q 1122 3375 1075 2522 
Q 1259 2794 1537 2939 
Q 1816 3084 2150 3084 
Q 2853 3084 3261 2657 
Q 3669 2231 3669 1497 
Q 3669 778 3244 343 
Q 2819 -91 2113 -91 
Q 1303 -91 875 529 
Q 447 1150 447 2328 
Q 447 3434 972 4092 
Q 1497 4750 2381 4750 
Q 2619 4750 2861 4703 
Q 3103 4656 3366 4563 
z
" transform="scale(0.015625)"/>
       </defs>
       <use xlink:href="#DejaVuSans-30"/>
       <use xlink:href="#DejaVuSans-2e" x="63.623047"/>
       <use xlink:href="#DejaVuSans-36" x="95.410156"/>
      </g>
     </g>
    </g>
    <g id="xtick_5">
     <g id="line2d_5">
      <g>
       <use xlink:href="#mb2b511f81b" x="225.35918" y="273.312" style="stroke: #000000; stroke-width: 0.8"/>
      </g>
     </g>
     <g id="text_5">
      <!-- 0.8 -->
      <g transform="translate(217.407617 287.910437)scale(0.1 -0.1)">
       <defs>
        <path id="DejaVuSans-38" d="M 2034 2216 
Q 1584 2216 1326 1975 
Q 1069 1734 1069 1313 
Q 1069 891 1326 650 
Q 1584 409 2034 409 
Q 2484 409 2743 651 
Q 3003 894 3003 1313 
Q 3003 1734 2745 1975 
Q 2488 2216 2034 2216 
z
M 1403 2484 
Q 997 2584 770 2862 
Q 544 3141 544 3541 
Q 544 4100 942 4425 
Q 1341 4750 2034 4750 
Q 2731 4750 3128 4425 
Q 3525 4100 3525 3541 
Q 3525 3141 3298 2862 
Q 3072 2584 2669 2484 
Q 3125 2378 3379 2068 
Q 3634 1759 3634 1313 
Q 3634 634 3220 271 
Q 2806 -91 2034 -91 
Q 1263 -91 848 271 
Q 434 634 434 1313 
Q 434 1759 690 2068 
Q 947 2378 1403 2484 
z
M 1172 3481 
Q 1172 3119 1398 2916 
Q 1625 2713 2034 2713 
Q 2441 2713 2670 2916 
Q 2900 3119 2900 3481 
Q 2900 3844 2670 4047 
Q 2441 4250 2034 4250 
Q 1625 4250 1398 4047 
Q 1172 3844 1172 3481 
z
" transform="scale(0.015625)"/>
       </defs>
       <use xlink:href="#DejaVuSans-30"/>
       <use xlink:href="#DejaVuSans-2e" x="63.623047"/>
       <use xlink:href="#DejaVuSans-38" x="95.410156"/>
      </g>
     </g>
    </g>
    <g id="xtick_6">
     <g id="line2d_6">
      <g>
       <use xlink:href="#mb2b511f81b" x="266.69548" y="273.312" style="stroke: #000000; stroke-width: 0.8"/>
      </g>
     </g>
     <g id="text_6">
      <!-- 1.0 -->
      <g transform="translate(258.743918 287.910437)scale(0.1 -0.1)">
       <defs>
        <path id="DejaVuSans-31" d="M 794 531 
L 1825 531 
L 1825 4091 
L 703 3866 
L 703 4441 
L 1819 4666 
L 2450 4666 
L 2450 531 
L 3481 531 
L 3481 0 
L 794 0 
L 794 531 
z
" transform="scale(0.015625)"/>
       </defs>
       <use xlink:href="#DejaVuSans-31"/>
       <use xlink:href="#DejaVuSans-2e" x="63.623047"/>
       <use xlink:href="#DejaVuSans-30" x="95.410156"/>
      </g>
     </g>
    </g>
    <g id="xtick_7">
     <g id="line2d_7">
      <g>
       <use xlink:href="#mb2b511f81b" x="308.031781" y="273.312" style="stroke: #000000; stroke-width: 0.8"/>
      </g>
     </g>
     <g id="text_7">
      <!-- 1.2 -->
      <g transform="translate(300.080218 287.910437)scale(0.1 -0.1)">
       <use xlink:href="#DejaVuSans-31"/>
       <use xlink:href="#DejaVuSans-2e" x="63.623047"/>
       <use xlink:href="#DejaVuSans-32" x="95.410156"/>
      </g>
     </g>
    </g>
    <g id="xtick_8">
     <g id="line2d_8">
      <g>
       <use xlink:href="#mb2b511f81b" x="349.368081" y="273.312" style="stroke: #000000; stroke-width: 0.8"/>
      </g>
     </g>
     <g id="text_8">
      <!-- 1.4 -->
      <g transform="translate(341.416519 287.910437)scale(0.1 -0.1)">
       <use xlink:href="#DejaVuSans-31"/>
       <use xlink:href="#DejaVuSans-2e" x="63.623047"/>
       <use xlink:href="#DejaVuSans-34" x="95.410156"/>
      </g>
     </g>
    </g>
    <g id="xtick_9">
     <g id="line2d_9">
      <g>
       <use xlink:href="#mb2b511f81b" x="390.704382" y="273.312" style="stroke: #000000; stroke-width: 0.8"/>
      </g>
     </g>
     <g id="text_9">
      <!-- 1.6 -->
      <g transform="translate(382.752819 287.910437)scale(0.1 -0.1)">
       <use xlink:href="#DejaVuSans-31"/>
       <use xlink:href="#DejaVuSans-2e" x="63.623047"/>
       <use xlink:href="#DejaVuSans-36" x="95.410156"/>
      </g>
     </g>
    </g>
    <g id="text_10">
     <!-- Angle with normal (rad) -->
     <g transform="translate(163.023281 301.588562)scale(0.1 -0.1)">
      <defs>
       <path id="DejaVuSans-41" d="M 2188 4044 
L 1331 1722 
L 3047 1722 
L 2188 4044 
z
M 1831 4666 
L 2547 4666 
L 4325 0 
L 3669 0 
L 3244 1197 
L 1141 1197 
L 716 0 
L 50 0 
L 1831 4666 
z
" transform="scale(0.015625)"/>
       <path id="DejaVuSans-6e" d="M 3513 2113 
L 3513 0 
L 2938 0 
L 2938 2094 
Q 2938 2591 2744 2837 
Q 2550 3084 2163 3084 
Q 1697 3084 1428 2787 
Q 1159 2491 1159 1978 
L 1159 0 
L 581 0 
L 581 3500 
L 1159 3500 
L 1159 2956 
Q 1366 3272 1645 3428 
Q 1925 3584 2291 3584 
Q 2894 3584 3203 3211 
Q 3513 2838 3513 2113 
z
" transform="scale(0.015625)"/>
       <path id="DejaVuSans-67" d="M 2906 1791 
Q 2906 2416 2648 2759 
Q 2391 3103 1925 3103 
Q 1463 3103 1205 2759 
Q 947 2416 947 1791 
Q 947 1169 1205 825 
Q 1463 481 1925 481 
Q 2391 481 2648 825 
Q 2906 1169 2906 1791 
z
M 3481 434 
Q 3481 -459 3084 -895 
Q 2688 -1331 1869 -1331 
Q 1566 -1331 1297 -1286 
Q 1028 -1241 775 -1147 
L 775 -588 
Q 1028 -725 1275 -790 
Q 1522 -856 1778 -856 
Q 2344 -856 2625 -561 
Q 2906 -266 2906 331 
L 2906 616 
Q 2728 306 2450 153 
Q 2172 0 1784 0 
Q 1141 0 747 490 
Q 353 981 353 1791 
Q 353 2603 747 3093 
Q 1141 3584 1784 3584 
Q 2172 3584 2450 3431 
Q 2728 3278 2906 2969 
L 2906 3500 
L 3481 3500 
L 3481 434 
z
" transform="scale(0.015625)"/>
       <path id="DejaVuSans-6c" d="M 603 4863 
L 1178 4863 
L 1178 0 
L 603 0 
L 603 4863 
z
" transform="scale(0.015625)"/>
       <path id="DejaVuSans-65" d="M 3597 1894 
L 3597 1613 
L 953 1613 
Q 991 1019 1311 708 
Q 1631 397 2203 397 
Q 2534 397 2845 478 
Q 3156 559 3463 722 
L 3463 178 
Q 3153 47 2828 -22 
Q 2503 -91 2169 -91 
Q 1331 -91 842 396 
Q 353 884 353 1716 
Q 353 2575 817 3079 
Q 1281 3584 2069 3584 
Q 2775 3584 3186 3129 
Q 3597 2675 3597 1894 
z
M 3022 2063 
Q 3016 2534 2758 2815 
Q 2500 3097 2075 3097 
Q 1594 3097 1305 2825 
Q 1016 2553 972 2059 
L 3022 2063 
z
" transform="scale(0.015625)"/>
       <path id="DejaVuSans-20" transform="scale(0.015625)"/>
       <path id="DejaVuSans-77" d="M 269 3500 
L 844 3500 
L 1563 769 
L 2278 3500 
L 2956 3500 
L 3675 769 
L 4391 3500 
L 4966 3500 
L 4050 0 
L 3372 0 
L 2619 2869 
L 1863 0 
L 1184 0 
L 269 3500 
z
" transform="scale(0.015625)"/>
       <path id="DejaVuSans-69" d="M 603 3500 
L 1178 3500 
L 1178 0 
L 603 0 
L 603 3500 
z
M 603 4863 
L 1178 4863 
L 1178 4134 
L 603 4134 
L 603 4863 
z
" transform="scale(0.015625)"/>
       <path id="DejaVuSans-74" d="M 1172 4494 
L 1172 3500 
L 2356 3500 
L 2356 3053 
L 1172 3053 
L 1172 1153 
Q 1172 725 1289 603 
Q 1406 481 1766 481 
L 2356 481 
L 2356 0 
L 1766 0 
Q 1100 0 847 248 
Q 594 497 594 1153 
L 594 3053 
L 172 3053 
L 172 3500 
L 594 3500 
L 594 4494 
L 1172 4494 
z
" transform="scale(0.015625)"/>
       <path id="DejaVuSans-68" d="M 3513 2113 
L 3513 0 
L 2938 0 
L 2938 2094 
Q 2938 2591 2744 2837 
Q 2550 3084 2163 3084 
Q 1697 3084 1428 2787 
Q 1159 2491 1159 1978 
L 1159 0 
L 581 0 
L 581 4863 
L 1159 4863 
L 1159 2956 
Q 1366 3272 1645 3428 
Q 1925 3584 2291 3584 
Q 2894 3584 3203 3211 
Q 3513 2838 3513 2113 
z
" transform="scale(0.015625)"/>
       <path id="DejaVuSans-6f" d="M 1959 3097 
Q 1497 3097 1228 2736 
Q 959 2375 959 1747 
Q 959 1119 1226 758 
Q 1494 397 1959 397 
Q 2419 397 2687 759 
Q 2956 1122 2956 1747 
Q 2956 2369 2687 2733 
Q 2419 3097 1959 3097 
z
M 1959 3584 
Q 2709 3584 3137 3096 
Q 3566 2609 3566 1747 
Q 3566 888 3137 398 
Q 2709 -91 1959 -91 
Q 1206 -91 779 398 
Q 353 888 353 1747 
Q 353 2609 779 3096 
Q 1206 3584 1959 3584 
z
" transform="scale(0.015625)"/>
       <path id="DejaVuSans-72" d="M 2631 2963 
Q 2534 3019 2420 3045 
Q 2306 3072 2169 3072 
Q 1681 3072 1420 2755 
Q 1159 2438 1159 1844 
L 1159 0 
L 581 0 
L 581 3500 
L 1159 3500 
L 1159 2956 
Q 1341 3275 1631 3429 
Q 1922 3584 2338 3584 
Q 2397 3584 2469 3576 
Q 2541 3569 2628 3553 
L 2631 2963 
z
" transform="scale(0.015625)"/>
       <path id="DejaVuSans-6d" d="M 3328 2828 
Q 3544 3216 3844 3400 
Q 4144 3584 4550 3584 
Q 5097 3584 5394 3201 
Q 5691 2819 5691 2113 
L 5691 0 
L 5113 0 
L 5113 2094 
Q 5113 2597 4934 2840 
Q 4756 3084 4391 3084 
Q 3944 3084 3684 2787 
Q 3425 2491 3425 1978 
L 3425 0 
L 2847 0 
L 2847 2094 
Q 2847 2600 2669 2842 
Q 2491 3084 2119 3084 
Q 1678 3084 1418 2786 
Q 1159 2488 1159 1978 
L 1159 0 
L 581 0 
L 581 3500 
L 1159 3500 
L 1159 2956 
Q 1356 3278 1631 3431 
Q 1906 3584 2284 3584 
Q 2666 3584 2933 3390 
Q 3200 3197 3328 2828 
z
" transform="scale(0.015625)"/>
       <path id="DejaVuSans-61" d="M 2194 1759 
Q 1497 1759 1228 1600 
Q 959 1441 959 1056 
Q 959 750 1161 570 
Q 1363 391 1709 391 
Q 2188 391 2477 730 
Q 2766 1069 2766 1631 
L 2766 1759 
L 2194 1759 
z
M 3341 1997 
L 3341 0 
L 2766 0 
L 2766 531 
Q 2569 213 2275 61 
Q 1981 -91 1556 -91 
Q 1019 -91 701 211 
Q 384 513 384 1019 
Q 384 1609 779 1909 
Q 1175 2209 1959 2209 
L 2766 2209 
L 2766 2266 
Q 2766 2663 2505 2880 
Q 2244 3097 1772 3097 
Q 1472 3097 1187 3025 
Q 903 2953 641 2809 
L 641 3341 
Q 956 3463 1253 3523 
Q 1550 3584 1831 3584 
Q 2591 3584 2966 3190 
Q 3341 2797 3341 1997 
z
" transform="scale(0.015625)"/>
       <path id="DejaVuSans-28" d="M 1984 4856 
Q 1566 4138 1362 3434 
Q 1159 2731 1159 2009 
Q 1159 1288 1364 580 
Q 1569 -128 1984 -844 
L 1484 -844 
Q 1016 -109 783 600 
Q 550 1309 550 2009 
Q 550 2706 781 3412 
Q 1013 4119 1484 4856 
L 1984 4856 
z
" transform="scale(0.015625)"/>
       <path id="DejaVuSans-64" d="M 2906 2969 
L 2906 4863 
L 3481 4863 
L 3481 0 
L 2906 0 
L 2906 525 
Q 2725 213 2448 61 
Q 2172 -91 1784 -91 
Q 1150 -91 751 415 
Q 353 922 353 1747 
Q 353 2572 751 3078 
Q 1150 3584 1784 3584 
Q 2172 3584 2448 3432 
Q 2725 3281 2906 2969 
z
M 947 1747 
Q 947 1113 1208 752 
Q 1469 391 1925 391 
Q 2381 391 2643 752 
Q 2906 1113 2906 1747 
Q 2906 2381 2643 2742 
Q 2381 3103 1925 3103 
Q 1469 3103 1208 2742 
Q 947 2381 947 1747 
z
" transform="scale(0.015625)"/>
       <path id="DejaVuSans-29" d="M 513 4856 
L 1013 4856 
Q 1481 4119 1714 3412 
Q 1947 2706 1947 2009 
Q 1947 1309 1714 600 
Q 1481 -109 1013 -844 
L 513 -844 
Q 928 -128 1133 580 
Q 1338 1288 1338 2009 
Q 1338 2731 1133 3434 
Q 928 4138 513 4856 
z
" transform="scale(0.015625)"/>
      </defs>
      <use xlink:href="#DejaVuSans-41"/>
      <use xlink:href="#DejaVuSans-6e" x="68.408203"/>
      <use xlink:href="#DejaVuSans-67" x="131.787109"/>
      <use xlink:href="#DejaVuSans-6c" x="195.263672"/>
      <use xlink:href="#DejaVuSans-65" x="223.046875"/>
      <use xlink:href="#DejaVuSans-20" x="284.570312"/>
      <use xlink:href="#DejaVuSans-77" x="316.357422"/>
      <use xlink:href="#DejaVuSans-69" x="398.144531"/>
      <use xlink:href="#DejaVuSans-74" x="425.927734"/>
      <use xlink:href="#DejaVuSans-68" x="465.136719"/>
      <use xlink:href="#DejaVuSans-20" x="528.515625"/>
      <use xlink:href="#DejaVuSans-6e" x="560.302734"/>
      <use xlink:href="#DejaVuSans-6f" x="623.681641"/>
      <use xlink:href="#DejaVuSans-72" x="684.863281"/>
      <use xlink:href="#DejaVuSans-6d" x="724.226562"/>
      <use xlink:href="#DejaVuSans-61" x="821.638672"/>
      <use xlink:href="#DejaVuSans-6c" x="882.917969"/>
      <use xlink:href="#DejaVuSans-20" x="910.701172"/>
      <use xlink:href="#DejaVuSans-28" x="942.488281"/>
      <use xlink:href="#DejaVuSans-72" x="981.501953"/>
      <use xlink:href="#DejaVuSans-61" x="1022.615234"/>
      <use xlink:href="#DejaVuSans-64" x="1083.894531"/>
      <use xlink:href="#DejaVuSans-29" x="1147.371094"/>
     </g>
    </g>
   </g>
   <g id="matplotlib.axis_2">
    <g id="ytick_1">
     <g id="line2d_10">
      <defs>
       <path id="m5bd6163cbb" d="M 0 0 
L -3.5 0 
" style="stroke: #000000; stroke-width: 0.8"/>
      </defs>
      <g>
       <use xlink:href="#m5bd6163cbb" x="43.78125" y="273.312" style="stroke: #000000; stroke-width: 0.8"/>
      </g>
     </g>
     <g id="text_11">
      <!-- 0.0 -->
      <g transform="translate(20.878125 277.111219)scale(0.1 -0.1)">
       <use xlink:href="#DejaVuSans-30"/>
       <use xlink:href="#DejaVuSans-2e" x="63.623047"/>
       <use xlink:href="#DejaVuSans-30" x="95.410156"/>
      </g>
     </g>
    </g>
    <g id="ytick_2">
     <g id="line2d_11">
      <g>
       <use xlink:href="#m5bd6163cbb" x="43.78125" y="226.362531" style="stroke: #000000; stroke-width: 0.8"/>
      </g>
     </g>
     <g id="text_12">
      <!-- 0.2 -->
      <g transform="translate(20.878125 230.16175)scale(0.1 -0.1)">
       <use xlink:href="#DejaVuSans-30"/>
       <use xlink:href="#DejaVuSans-2e" x="63.623047"/>
       <use xlink:href="#DejaVuSans-32" x="95.410156"/>
      </g>
     </g>
    </g>
    <g id="ytick_3">
     <g id="line2d_12">
      <g>
       <use xlink:href="#m5bd6163cbb" x="43.78125" y="179.413063" style="stroke: #000000; stroke-width: 0.8"/>
      </g>
     </g>
     <g id="text_13">
      <!-- 0.4 -->
      <g transform="translate(20.878125 183.212282)scale(0.1 -0.1)">
       <use xlink:href="#DejaVuSans-30"/>
       <use xlink:href="#DejaVuSans-2e" x="63.623047"/>
       <use xlink:href="#DejaVuSans-34" x="95.410156"/>
      </g>
     </g>
    </g>
    <g id="ytick_4">
     <g id="line2d_13">
      <g>
       <use xlink:href="#m5bd6163cbb" x="43.78125" y="132.463594" style="stroke: #000000; stroke-width: 0.8"/>
      </g>
     </g>
     <g id="text_14">
      <!-- 0.6 -->
      <g transform="translate(20.878125 136.262813)scale(0.1 -0.1)">
       <use xlink:href="#DejaVuSans-30"/>
       <use xlink:href="#DejaVuSans-2e" x="63.623047"/>
       <use xlink:href="#DejaVuSans-36" x="95.410156"/>
      </g>
     </g>
    </g>
    <g id="ytick_5">
     <g id="line2d_14">
      <g>
       <use xlink:href="#m5bd6163cbb" x="43.78125" y="85.514126" style="stroke: #000000; stroke-width: 0.8"/>
      </g>
     </g>
     <g id="text_15">
      <!-- 0.8 -->
      <g transform="translate(20.878125 89.313345)scale(0.1 -0.1)">
       <use xlink:href="#DejaVuSans-30"/>
       <use xlink:href="#DejaVuSans-2e" x="63.623047"/>
       <use xlink:href="#DejaVuSans-38" x="95.410156"/>
      </g>
     </g>
    </g>
    <g id="ytick_6">
     <g id="line2d_15">
      <g>
       <use xlink:href="#m5bd6163cbb" x="43.78125" y="38.564657" style="stroke: #000000; stroke-width: 0.8"/>
      </g>
     </g>
     <g id="text_16">
      <!-- 1.0 -->
      <g transform="translate(20.878125 42.363876)scale(0.1 -0.1)">
       <use xlink:href="#DejaVuSans-31"/>
       <use xlink:href="#DejaVuSans-2e" x="63.623047"/>
       <use xlink:href="#DejaVuSans-30" x="95.410156"/>
      </g>
     </g>
    </g>
    <g id="text_17">
     <!-- Probability density -->
     <g transform="translate(14.798438 186.606781)rotate(-90)scale(0.1 -0.1)">
      <defs>
       <path id="DejaVuSans-50" d="M 1259 4147 
L 1259 2394 
L 2053 2394 
Q 2494 2394 2734 2622 
Q 2975 2850 2975 3272 
Q 2975 3691 2734 3919 
Q 2494 4147 2053 4147 
L 1259 4147 
z
M 628 4666 
L 2053 4666 
Q 2838 4666 3239 4311 
Q 3641 3956 3641 3272 
Q 3641 2581 3239 2228 
Q 2838 1875 2053 1875 
L 1259 1875 
L 1259 0 
L 628 0 
L 628 4666 
z
" transform="scale(0.015625)"/>
       <path id="DejaVuSans-62" d="M 3116 1747 
Q 3116 2381 2855 2742 
Q 2594 3103 2138 3103 
Q 1681 3103 1420 2742 
Q 1159 2381 1159 1747 
Q 1159 1113 1420 752 
Q 1681 391 2138 391 
Q 2594 391 2855 752 
Q 3116 1113 3116 1747 
z
M 1159 2969 
Q 1341 3281 1617 3432 
Q 1894 3584 2278 3584 
Q 2916 3584 3314 3078 
Q 3713 2572 3713 1747 
Q 3713 922 3314 415 
Q 2916 -91 2278 -91 
Q 1894 -91 1617 61 
Q 1341 213 1159 525 
L 1159 0 
L 581 0 
L 581 4863 
L 1159 4863 
L 1159 2969 
z
" transform="scale(0.015625)"/>
       <path id="DejaVuSans-79" d="M 2059 -325 
Q 1816 -950 1584 -1140 
Q 1353 -1331 966 -1331 
L 506 -1331 
L 506 -850 
L 844 -850 
Q 1081 -850 1212 -737 
Q 1344 -625 1503 -206 
L 1606 56 
L 191 3500 
L 800 3500 
L 1894 763 
L 2988 3500 
L 3597 3500 
L 2059 -325 
z
" transform="scale(0.015625)"/>
       <path id="DejaVuSans-73" d="M 2834 3397 
L 2834 2853 
Q 2591 2978 2328 3040 
Q 2066 3103 1784 3103 
Q 1356 3103 1142 2972 
Q 928 2841 928 2578 
Q 928 2378 1081 2264 
Q 1234 2150 1697 2047 
L 1894 2003 
Q 2506 1872 2764 1633 
Q 3022 1394 3022 966 
Q 3022 478 2636 193 
Q 2250 -91 1575 -91 
Q 1294 -91 989 -36 
Q 684 19 347 128 
L 347 722 
Q 666 556 975 473 
Q 1284 391 1588 391 
Q 1994 391 2212 530 
Q 2431 669 2431 922 
Q 2431 1156 2273 1281 
Q 2116 1406 1581 1522 
L 1381 1569 
Q 847 1681 609 1914 
Q 372 2147 372 2553 
Q 372 3047 722 3315 
Q 1072 3584 1716 3584 
Q 2034 3584 2315 3537 
Q 2597 3491 2834 3397 
z
" transform="scale(0.015625)"/>
      </defs>
      <use xlink:href="#DejaVuSans-50"/>
      <use xlink:href="#DejaVuSans-72" x="58.552734"/>
      <use xlink:href="#DejaVuSans-6f" x="97.416016"/>
      <use xlink:href="#DejaVuSans-62" x="158.597656"/>
      <use xlink:href="#DejaVuSans-61" x="222.074219"/>
      <use xlink:href="#DejaVuSans-62" x="283.353516"/>
      <use xlink:href="#DejaVuSans-69" x="346.830078"/>
      <use xlink:href="#DejaVuSans-6c" x="374.613281"/>
      <use xlink:href="#DejaVuSans-69" x="402.396484"/>
      <use xlink:href="#DejaVuSans-74" x="430.179688"/>
      <use xlink:href="#DejaVuSans-79" x="469.388672"/>
      <use xlink:href="#DejaVuSans-20" x="528.568359"/>
      <use xlink:href="#DejaVuSans-64" x="560.355469"/>
      <use xlink:href="#DejaVuSans-65" x="623.832031"/>
      <use xlink:href="#DejaVuSans-6e" x="685.355469"/>
      <use xlink:href="#DejaVuSans-73" x="748.734375"/>
      <use xlink:href="#DejaVuSans-69" x="800.833984"/>
      <use xlink:href="#DejaVuSans-74" x="828.617188"/>
      <use xlink:href="#DejaVuSans-79" x="867.826172"/>
     </g>
    </g>
   </g>
   <g id="line2d_16">
    <path d="M 60.013977 273.312 
L 79.837728 228.556329 
L 90.237073 205.632184 
L 99.01152 186.81338 
L 106.811029 170.604636 
L 113.960578 156.258132 
L 120.460169 143.700094 
L 126.63478 132.243957 
L 132.484411 121.854555 
L 138.009063 112.487278 
L 143.208736 104.090336 
L 148.408408 96.121718 
L 153.283101 89.058097 
L 157.832814 82.834911 
L 162.382528 76.98087 
L 166.607261 71.885439 
L 170.831995 67.126606 
L 175.056729 62.712324 
L 178.956483 58.949805 
L 182.856238 55.492516 
L 186.755992 52.345381 
L 190.330767 49.736804 
L 193.905542 47.395733 
L 197.480316 45.324969 
L 201.055091 43.526991 
L 204.304886 42.130997 
L 207.554682 40.963607 
L 210.804477 40.025976 
L 214.054272 39.319032 
L 217.304067 38.843473 
L 220.553863 38.599769 
L 223.803658 38.588162 
L 227.053453 38.808663 
L 230.303248 39.261054 
L 233.553044 39.944888 
L 236.802839 40.859488 
L 240.052634 42.00395 
L 243.302429 43.377142 
L 246.552225 44.977707 
L 250.126999 46.999048 
L 253.701774 49.291171 
L 257.276549 51.851334 
L 260.851324 54.676473 
L 264.751078 58.056668 
L 268.650832 61.743364 
L 272.550587 65.731314 
L 276.77532 70.384952 
L 281.000054 75.377695 
L 285.224788 80.701201 
L 289.774501 86.793897 
L 294.324215 93.248066 
L 299.198908 100.550147 
L 304.39858 108.76225 
L 309.598252 117.390852 
L 315.122904 126.990655 
L 320.972536 137.610252 
L 327.147147 149.290709 
L 333.646737 162.063304 
L 340.796287 176.619276 
L 348.595795 193.02368 
L 357.370243 212.020288 
L 367.769587 235.095482 
L 382.393666 268.144886 
L 384.668523 273.312 
L 384.668523 273.312 
" clip-path="url(#p0ee9202322)" style="fill: none; stroke: #ff7f0e; stroke-width: 1.5; stroke-linecap: square"/>
   </g>
   <g id="patch_203">
    <path d="M 43.78125 273.312 
L 43.78125 7.2 
" style="fill: none; stroke: #000000; stroke-width: 0.8; stroke-linejoin: miter; stroke-linecap: square"/>
   </g>
   <g id="patch_204">
    <path d="M 400.90125 273.312 
L 400.90125 7.2 
" style="fill: none; stroke: #000000; stroke-width: 0.8; stroke-linejoin: miter; stroke-linecap: square"/>
   </g>
   <g id="patch_205">
    <path d="M 43.78125 273.312 
L 400.90125 273.312 
" style="fill: none; stroke: #000000; stroke-width: 0.8; stroke-linejoin: miter; stroke-linecap: square"/>
   </g>
   <g id="patch_206">
    <path d="M 43.78125 7.2 
L 400.90125 7.2 
" style="fill: none; stroke: #000000; stroke-width: 0.8; stroke-linejoin: miter; stroke-linecap: square"/>
   </g>
  </g>
 </g>
 <defs>
  <clipPath id="p0ee9202322">
   <rect x="43.78125" y="7.2" width="357.12" height="266.112"/>
  </clipPath>
 </defs>
</svg>
