<?xml version="1.0" encoding="utf-8" standalone="no"?>
<!DOCTYPE svg PUBLIC "-//W3C//DTD SVG 1.1//EN"
  "http://www.w3.org/Graphics/SVG/1.1/DTD/svg11.dtd">
<svg xmlns:xlink="http://www.w3.org/1999/xlink" width="414.46375pt" height="310.86825pt" viewBox="0 0 414.46375 310.86825" xmlns="http://www.w3.org/2000/svg" version="1.1">
 <metadata>
  <rdf:RDF xmlns:dc="http://purl.org/dc/elements/1.1/" xmlns:cc="http://creativecommons.org/ns#" xmlns:rdf="http://www.w3.org/1999/02/22-rdf-syntax-ns#">
   <cc:Work>
    <dc:type rdf:resource="http://purl.org/dc/dcmitype/StillImage"/>
    <dc:date>2022-05-02T22:02:15.873478</dc:date>
    <dc:format>image/svg+xml</dc:format>
    <dc:creator>
     <cc:Agent>
      <dc:title>Matplotlib v3.5.1, https://matplotlib.org/</dc:title>
     </cc:Agent>
    </dc:creator>
   </cc:Work>
  </rdf:RDF>
 </metadata>
 <defs>
  <style type="text/css">*{stroke-linejoin: round; stroke-linecap: butt}</style>
 </defs>
 <g id="figure_1">
  <g id="patch_1">
   <path d="M 0 310.86825 
L 414.46375 310.86825 
L 414.46375 0 
L 0 0 
z
" style="fill: #ffffff"/>
  </g>
  <g id="axes_1">
   <g id="patch_2">
    <path d="M 50.14375 273.312 
L 407.26375 273.312 
L 407.26375 7.2 
L 50.14375 7.2 
z
" style="fill: #ffffff"/>
   </g>
   <g id="patch_3">
    <path d="M 67.188904 273.312 
L 68.808108 273.312 
L 68.808108 270.25113 
L 67.188904 270.25113 
z
" clip-path="url(#pe366492def)" style="fill: #1f77b4"/>
   </g>
   <g id="patch_4">
    <path d="M 68.808108 273.312 
L 70.427311 273.312 
L 70.427311 270.863304 
L 68.808108 270.863304 
z
" clip-path="url(#pe366492def)" style="fill: #1f77b4"/>
   </g>
   <g id="patch_5">
    <path d="M 70.427311 273.312 
L 72.046515 273.312 
L 72.046515 269.026783 
L 70.427311 269.026783 
z
" clip-path="url(#pe366492def)" style="fill: #1f77b4"/>
   </g>
   <g id="patch_6">
    <path d="M 72.046515 273.312 
L 73.665718 273.312 
L 73.665718 269.638957 
L 72.046515 269.638957 
z
" clip-path="url(#pe366492def)" style="fill: #1f77b4"/>
   </g>
   <g id="patch_7">
    <path d="M 73.665718 273.312 
L 75.284922 273.312 
L 75.284922 268.414609 
L 73.665718 268.414609 
z
" clip-path="url(#pe366492def)" style="fill: #1f77b4"/>
   </g>
   <g id="patch_8">
    <path d="M 75.284922 273.312 
L 76.904126 273.312 
L 76.904126 265.965913 
L 75.284922 265.965913 
z
" clip-path="url(#pe366492def)" style="fill: #1f77b4"/>
   </g>
   <g id="patch_9">
    <path d="M 76.904126 273.312 
L 78.523329 273.312 
L 78.523329 263.517217 
L 76.904126 263.517217 
z
" clip-path="url(#pe366492def)" style="fill: #1f77b4"/>
   </g>
   <g id="patch_10">
    <path d="M 78.523329 273.312 
L 80.142533 273.312 
L 80.142533 260.456348 
L 78.523329 260.456348 
z
" clip-path="url(#pe366492def)" style="fill: #1f77b4"/>
   </g>
   <g id="patch_11">
    <path d="M 80.142533 273.312 
L 81.761736 273.312 
L 81.761736 260.456348 
L 80.142533 260.456348 
z
" clip-path="url(#pe366492def)" style="fill: #1f77b4"/>
   </g>
   <g id="patch_12">
    <path d="M 81.761736 273.312 
L 83.38094 273.312 
L 83.38094 261.068522 
L 81.761736 261.068522 
z
" clip-path="url(#pe366492def)" style="fill: #1f77b4"/>
   </g>
   <g id="patch_13">
    <path d="M 83.38094 273.312 
L 85.000143 273.312 
L 85.000143 252.498087 
L 83.38094 252.498087 
z
" clip-path="url(#pe366492def)" style="fill: #1f77b4"/>
   </g>
   <g id="patch_14">
    <path d="M 85.000143 273.312 
L 86.619347 273.312 
L 86.619347 258.007652 
L 85.000143 258.007652 
z
" clip-path="url(#pe366492def)" style="fill: #1f77b4"/>
   </g>
   <g id="patch_15">
    <path d="M 86.619347 273.312 
L 88.238551 273.312 
L 88.238551 261.680696 
L 86.619347 261.680696 
z
" clip-path="url(#pe366492def)" style="fill: #1f77b4"/>
   </g>
   <g id="patch_16">
    <path d="M 88.238551 273.312 
L 89.857754 273.312 
L 89.857754 248.825043 
L 88.238551 248.825043 
z
" clip-path="url(#pe366492def)" style="fill: #1f77b4"/>
   </g>
   <g id="patch_17">
    <path d="M 89.857754 273.312 
L 91.476958 273.312 
L 91.476958 255.558957 
L 89.857754 255.558957 
z
" clip-path="url(#pe366492def)" style="fill: #1f77b4"/>
   </g>
   <g id="patch_18">
    <path d="M 91.476958 273.312 
L 93.096161 273.312 
L 93.096161 254.334609 
L 91.476958 254.334609 
z
" clip-path="url(#pe366492def)" style="fill: #1f77b4"/>
   </g>
   <g id="patch_19">
    <path d="M 93.096161 273.312 
L 94.715365 273.312 
L 94.715365 246.988522 
L 93.096161 246.988522 
z
" clip-path="url(#pe366492def)" style="fill: #1f77b4"/>
   </g>
   <g id="patch_20">
    <path d="M 94.715365 273.312 
L 96.334568 273.312 
L 96.334568 245.152 
L 94.715365 245.152 
z
" clip-path="url(#pe366492def)" style="fill: #1f77b4"/>
   </g>
   <g id="patch_21">
    <path d="M 96.334568 273.312 
L 97.953772 273.312 
L 97.953772 252.498087 
L 96.334568 252.498087 
z
" clip-path="url(#pe366492def)" style="fill: #1f77b4"/>
   </g>
   <g id="patch_22">
    <path d="M 97.953772 273.312 
L 99.572976 273.312 
L 99.572976 247.600696 
L 97.953772 247.600696 
z
" clip-path="url(#pe366492def)" style="fill: #1f77b4"/>
   </g>
   <g id="patch_23">
    <path d="M 99.572976 273.312 
L 101.192179 273.312 
L 101.192179 246.988522 
L 99.572976 246.988522 
z
" clip-path="url(#pe366492def)" style="fill: #1f77b4"/>
   </g>
   <g id="patch_24">
    <path d="M 101.192179 273.312 
L 102.811383 273.312 
L 102.811383 254.946783 
L 101.192179 254.946783 
z
" clip-path="url(#pe366492def)" style="fill: #1f77b4"/>
   </g>
   <g id="patch_25">
    <path d="M 102.811383 273.312 
L 104.430586 273.312 
L 104.430586 237.805913 
L 102.811383 237.805913 
z
" clip-path="url(#pe366492def)" style="fill: #1f77b4"/>
   </g>
   <g id="patch_26">
    <path d="M 104.430586 273.312 
L 106.04979 273.312 
L 106.04979 243.927652 
L 104.430586 243.927652 
z
" clip-path="url(#pe366492def)" style="fill: #1f77b4"/>
   </g>
   <g id="patch_27">
    <path d="M 106.04979 273.312 
L 107.668993 273.312 
L 107.668993 242.703304 
L 106.04979 242.703304 
z
" clip-path="url(#pe366492def)" style="fill: #1f77b4"/>
   </g>
   <g id="patch_28">
    <path d="M 107.668993 273.312 
L 109.288197 273.312 
L 109.288197 245.764174 
L 107.668993 245.764174 
z
" clip-path="url(#pe366492def)" style="fill: #1f77b4"/>
   </g>
   <g id="patch_29">
    <path d="M 109.288197 273.312 
L 110.907401 273.312 
L 110.907401 244.539826 
L 109.288197 244.539826 
z
" clip-path="url(#pe366492def)" style="fill: #1f77b4"/>
   </g>
   <g id="patch_30">
    <path d="M 110.907401 273.312 
L 112.526604 273.312 
L 112.526604 243.315478 
L 110.907401 243.315478 
z
" clip-path="url(#pe366492def)" style="fill: #1f77b4"/>
   </g>
   <g id="patch_31">
    <path d="M 112.526604 273.312 
L 114.145808 273.312 
L 114.145808 232.296348 
L 112.526604 232.296348 
z
" clip-path="url(#pe366492def)" style="fill: #1f77b4"/>
   </g>
   <g id="patch_32">
    <path d="M 114.145808 273.312 
L 115.765011 273.312 
L 115.765011 235.969391 
L 114.145808 235.969391 
z
" clip-path="url(#pe366492def)" style="fill: #1f77b4"/>
   </g>
   <g id="patch_33">
    <path d="M 115.765011 273.312 
L 117.384215 273.312 
L 117.384215 229.847652 
L 115.765011 229.847652 
z
" clip-path="url(#pe366492def)" style="fill: #1f77b4"/>
   </g>
   <g id="patch_34">
    <path d="M 117.384215 273.312 
L 119.003418 273.312 
L 119.003418 240.254609 
L 117.384215 240.254609 
z
" clip-path="url(#pe366492def)" style="fill: #1f77b4"/>
   </g>
   <g id="patch_35">
    <path d="M 119.003418 273.312 
L 120.622622 273.312 
L 120.622622 233.520696 
L 119.003418 233.520696 
z
" clip-path="url(#pe366492def)" style="fill: #1f77b4"/>
   </g>
   <g id="patch_36">
    <path d="M 120.622622 273.312 
L 122.241826 273.312 
L 122.241826 233.520696 
L 120.622622 233.520696 
z
" clip-path="url(#pe366492def)" style="fill: #1f77b4"/>
   </g>
   <g id="patch_37">
    <path d="M 122.241826 273.312 
L 123.861029 273.312 
L 123.861029 236.581565 
L 122.241826 236.581565 
z
" clip-path="url(#pe366492def)" style="fill: #1f77b4"/>
   </g>
   <g id="patch_38">
    <path d="M 123.861029 273.312 
L 125.480233 273.312 
L 125.480233 223.725913 
L 123.861029 223.725913 
z
" clip-path="url(#pe366492def)" style="fill: #1f77b4"/>
   </g>
   <g id="patch_39">
    <path d="M 125.480233 273.312 
L 127.099436 273.312 
L 127.099436 230.459826 
L 125.480233 230.459826 
z
" clip-path="url(#pe366492def)" style="fill: #1f77b4"/>
   </g>
   <g id="patch_40">
    <path d="M 127.099436 273.312 
L 128.71864 273.312 
L 128.71864 231.684174 
L 127.099436 231.684174 
z
" clip-path="url(#pe366492def)" style="fill: #1f77b4"/>
   </g>
   <g id="patch_41">
    <path d="M 128.71864 273.312 
L 130.337843 273.312 
L 130.337843 233.520696 
L 128.71864 233.520696 
z
" clip-path="url(#pe366492def)" style="fill: #1f77b4"/>
   </g>
   <g id="patch_42">
    <path d="M 130.337843 273.312 
L 131.957047 273.312 
L 131.957047 218.828522 
L 130.337843 218.828522 
z
" clip-path="url(#pe366492def)" style="fill: #1f77b4"/>
   </g>
   <g id="patch_43">
    <path d="M 131.957047 273.312 
L 133.576251 273.312 
L 133.576251 231.072 
L 131.957047 231.072 
z
" clip-path="url(#pe366492def)" style="fill: #1f77b4"/>
   </g>
   <g id="patch_44">
    <path d="M 133.576251 273.312 
L 135.195454 273.312 
L 135.195454 223.113739 
L 133.576251 223.113739 
z
" clip-path="url(#pe366492def)" style="fill: #1f77b4"/>
   </g>
   <g id="patch_45">
    <path d="M 135.195454 273.312 
L 136.814658 273.312 
L 136.814658 219.440696 
L 135.195454 219.440696 
z
" clip-path="url(#pe366492def)" style="fill: #1f77b4"/>
   </g>
   <g id="patch_46">
    <path d="M 136.814658 273.312 
L 138.433861 273.312 
L 138.433861 215.155478 
L 136.814658 215.155478 
z
" clip-path="url(#pe366492def)" style="fill: #1f77b4"/>
   </g>
   <g id="patch_47">
    <path d="M 138.433861 273.312 
L 140.053065 273.312 
L 140.053065 214.543304 
L 138.433861 214.543304 
z
" clip-path="url(#pe366492def)" style="fill: #1f77b4"/>
   </g>
   <g id="patch_48">
    <path d="M 140.053065 273.312 
L 141.672268 273.312 
L 141.672268 216.379826 
L 140.053065 216.379826 
z
" clip-path="url(#pe366492def)" style="fill: #1f77b4"/>
   </g>
   <g id="patch_49">
    <path d="M 141.672268 273.312 
L 143.291472 273.312 
L 143.291472 220.665043 
L 141.672268 220.665043 
z
" clip-path="url(#pe366492def)" style="fill: #1f77b4"/>
   </g>
   <g id="patch_50">
    <path d="M 143.291472 273.312 
L 144.910676 273.312 
L 144.910676 214.543304 
L 143.291472 214.543304 
z
" clip-path="url(#pe366492def)" style="fill: #1f77b4"/>
   </g>
   <g id="patch_51">
    <path d="M 144.910676 273.312 
L 146.529879 273.312 
L 146.529879 209.645913 
L 144.910676 209.645913 
z
" clip-path="url(#pe366492def)" style="fill: #1f77b4"/>
   </g>
   <g id="patch_52">
    <path d="M 146.529879 273.312 
L 148.149083 273.312 
L 148.149083 210.258087 
L 146.529879 210.258087 
z
" clip-path="url(#pe366492def)" style="fill: #1f77b4"/>
   </g>
   <g id="patch_53">
    <path d="M 148.149083 273.312 
L 149.768286 273.312 
L 149.768286 208.421565 
L 148.149083 208.421565 
z
" clip-path="url(#pe366492def)" style="fill: #1f77b4"/>
   </g>
   <g id="patch_54">
    <path d="M 149.768286 273.312 
L 151.38749 273.312 
L 151.38749 205.360696 
L 149.768286 205.360696 
z
" clip-path="url(#pe366492def)" style="fill: #1f77b4"/>
   </g>
   <g id="patch_55">
    <path d="M 151.38749 273.312 
L 153.006693 273.312 
L 153.006693 208.421565 
L 151.38749 208.421565 
z
" clip-path="url(#pe366492def)" style="fill: #1f77b4"/>
   </g>
   <g id="patch_56">
    <path d="M 153.006693 273.312 
L 154.625897 273.312 
L 154.625897 201.075478 
L 153.006693 201.075478 
z
" clip-path="url(#pe366492def)" style="fill: #1f77b4"/>
   </g>
   <g id="patch_57">
    <path d="M 154.625897 273.312 
L 156.245101 273.312 
L 156.245101 210.870261 
L 154.625897 210.870261 
z
" clip-path="url(#pe366492def)" style="fill: #1f77b4"/>
   </g>
   <g id="patch_58">
    <path d="M 156.245101 273.312 
L 157.864304 273.312 
L 157.864304 210.258087 
L 156.245101 210.258087 
z
" clip-path="url(#pe366492def)" style="fill: #1f77b4"/>
   </g>
   <g id="patch_59">
    <path d="M 157.864304 273.312 
L 159.483508 273.312 
L 159.483508 194.953739 
L 157.864304 194.953739 
z
" clip-path="url(#pe366492def)" style="fill: #1f77b4"/>
   </g>
   <g id="patch_60">
    <path d="M 159.483508 273.312 
L 161.102711 273.312 
L 161.102711 205.97287 
L 159.483508 205.97287 
z
" clip-path="url(#pe366492def)" style="fill: #1f77b4"/>
   </g>
   <g id="patch_61">
    <path d="M 161.102711 273.312 
L 162.721915 273.312 
L 162.721915 208.421565 
L 161.102711 208.421565 
z
" clip-path="url(#pe366492def)" style="fill: #1f77b4"/>
   </g>
   <g id="patch_62">
    <path d="M 162.721915 273.312 
L 164.341119 273.312 
L 164.341119 205.97287 
L 162.721915 205.97287 
z
" clip-path="url(#pe366492def)" style="fill: #1f77b4"/>
   </g>
   <g id="patch_63">
    <path d="M 164.341119 273.312 
L 165.960322 273.312 
L 165.960322 192.505043 
L 164.341119 192.505043 
z
" clip-path="url(#pe366492def)" style="fill: #1f77b4"/>
   </g>
   <g id="patch_64">
    <path d="M 165.960322 273.312 
L 167.579526 273.312 
L 167.579526 201.687652 
L 165.960322 201.687652 
z
" clip-path="url(#pe366492def)" style="fill: #1f77b4"/>
   </g>
   <g id="patch_65">
    <path d="M 167.579526 273.312 
L 169.198729 273.312 
L 169.198729 210.870261 
L 167.579526 210.870261 
z
" clip-path="url(#pe366492def)" style="fill: #1f77b4"/>
   </g>
   <g id="patch_66">
    <path d="M 169.198729 273.312 
L 170.817933 273.312 
L 170.817933 198.014609 
L 169.198729 198.014609 
z
" clip-path="url(#pe366492def)" style="fill: #1f77b4"/>
   </g>
   <g id="patch_67">
    <path d="M 170.817933 273.312 
L 172.437136 273.312 
L 172.437136 185.77113 
L 170.817933 185.77113 
z
" clip-path="url(#pe366492def)" style="fill: #1f77b4"/>
   </g>
   <g id="patch_68">
    <path d="M 172.437136 273.312 
L 174.05634 273.312 
L 174.05634 202.299826 
L 172.437136 202.299826 
z
" clip-path="url(#pe366492def)" style="fill: #1f77b4"/>
   </g>
   <g id="patch_69">
    <path d="M 174.05634 273.312 
L 175.675544 273.312 
L 175.675544 194.953739 
L 174.05634 194.953739 
z
" clip-path="url(#pe366492def)" style="fill: #1f77b4"/>
   </g>
   <g id="patch_70">
    <path d="M 175.675544 273.312 
L 177.294747 273.312 
L 177.294747 201.687652 
L 175.675544 201.687652 
z
" clip-path="url(#pe366492def)" style="fill: #1f77b4"/>
   </g>
   <g id="patch_71">
    <path d="M 177.294747 273.312 
L 178.913951 273.312 
L 178.913951 172.915478 
L 177.294747 172.915478 
z
" clip-path="url(#pe366492def)" style="fill: #1f77b4"/>
   </g>
   <g id="patch_72">
    <path d="M 178.913951 273.312 
L 180.533154 273.312 
L 180.533154 185.77113 
L 178.913951 185.77113 
z
" clip-path="url(#pe366492def)" style="fill: #1f77b4"/>
   </g>
   <g id="patch_73">
    <path d="M 180.533154 273.312 
L 182.152358 273.312 
L 182.152358 190.668522 
L 180.533154 190.668522 
z
" clip-path="url(#pe366492def)" style="fill: #1f77b4"/>
   </g>
   <g id="patch_74">
    <path d="M 182.152358 273.312 
L 183.771561 273.312 
L 183.771561 188.832 
L 182.152358 188.832 
z
" clip-path="url(#pe366492def)" style="fill: #1f77b4"/>
   </g>
   <g id="patch_75">
    <path d="M 183.771561 273.312 
L 185.390765 273.312 
L 185.390765 185.77113 
L 183.771561 185.77113 
z
" clip-path="url(#pe366492def)" style="fill: #1f77b4"/>
   </g>
   <g id="patch_76">
    <path d="M 185.390765 273.312 
L 187.009969 273.312 
L 187.009969 183.934609 
L 185.390765 183.934609 
z
" clip-path="url(#pe366492def)" style="fill: #1f77b4"/>
   </g>
   <g id="patch_77">
    <path d="M 187.009969 273.312 
L 188.629172 273.312 
L 188.629172 174.752 
L 187.009969 174.752 
z
" clip-path="url(#pe366492def)" style="fill: #1f77b4"/>
   </g>
   <g id="patch_78">
    <path d="M 188.629172 273.312 
L 190.248376 273.312 
L 190.248376 186.383304 
L 188.629172 186.383304 
z
" clip-path="url(#pe366492def)" style="fill: #1f77b4"/>
   </g>
   <g id="patch_79">
    <path d="M 190.248376 273.312 
L 191.867579 273.312 
L 191.867579 179.649391 
L 190.248376 179.649391 
z
" clip-path="url(#pe366492def)" style="fill: #1f77b4"/>
   </g>
   <g id="patch_80">
    <path d="M 191.867579 273.312 
L 193.486783 273.312 
L 193.486783 179.649391 
L 191.867579 179.649391 
z
" clip-path="url(#pe366492def)" style="fill: #1f77b4"/>
   </g>
   <g id="patch_81">
    <path d="M 193.486783 273.312 
L 195.105986 273.312 
L 195.105986 166.181565 
L 193.486783 166.181565 
z
" clip-path="url(#pe366492def)" style="fill: #1f77b4"/>
   </g>
   <g id="patch_82">
    <path d="M 195.105986 273.312 
L 196.72519 273.312 
L 196.72519 171.078957 
L 195.105986 171.078957 
z
" clip-path="url(#pe366492def)" style="fill: #1f77b4"/>
   </g>
   <g id="patch_83">
    <path d="M 196.72519 273.312 
L 198.344394 273.312 
L 198.344394 169.242435 
L 196.72519 169.242435 
z
" clip-path="url(#pe366492def)" style="fill: #1f77b4"/>
   </g>
   <g id="patch_84">
    <path d="M 198.344394 273.312 
L 199.963597 273.312 
L 199.963597 172.915478 
L 198.344394 172.915478 
z
" clip-path="url(#pe366492def)" style="fill: #1f77b4"/>
   </g>
   <g id="patch_85">
    <path d="M 199.963597 273.312 
L 201.582801 273.312 
L 201.582801 179.037217 
L 199.963597 179.037217 
z
" clip-path="url(#pe366492def)" style="fill: #1f77b4"/>
   </g>
   <g id="patch_86">
    <path d="M 201.582801 273.312 
L 203.202004 273.312 
L 203.202004 166.181565 
L 201.582801 166.181565 
z
" clip-path="url(#pe366492def)" style="fill: #1f77b4"/>
   </g>
   <g id="patch_87">
    <path d="M 203.202004 273.312 
L 204.821208 273.312 
L 204.821208 164.957217 
L 203.202004 164.957217 
z
" clip-path="url(#pe366492def)" style="fill: #1f77b4"/>
   </g>
   <g id="patch_88">
    <path d="M 204.821208 273.312 
L 206.440411 273.312 
L 206.440411 156.998957 
L 204.821208 156.998957 
z
" clip-path="url(#pe366492def)" style="fill: #1f77b4"/>
   </g>
   <g id="patch_89">
    <path d="M 206.440411 273.312 
L 208.059615 273.312 
L 208.059615 171.69113 
L 206.440411 171.69113 
z
" clip-path="url(#pe366492def)" style="fill: #1f77b4"/>
   </g>
   <g id="patch_90">
    <path d="M 208.059615 273.312 
L 209.678819 273.312 
L 209.678819 174.752 
L 208.059615 174.752 
z
" clip-path="url(#pe366492def)" style="fill: #1f77b4"/>
   </g>
   <g id="patch_91">
    <path d="M 209.678819 273.312 
L 211.298022 273.312 
L 211.298022 163.120696 
L 209.678819 163.120696 
z
" clip-path="url(#pe366492def)" style="fill: #1f77b4"/>
   </g>
   <g id="patch_92">
    <path d="M 211.298022 273.312 
L 212.917226 273.312 
L 212.917226 168.630261 
L 211.298022 168.630261 
z
" clip-path="url(#pe366492def)" style="fill: #1f77b4"/>
   </g>
   <g id="patch_93">
    <path d="M 212.917226 273.312 
L 214.536429 273.312 
L 214.536429 166.181565 
L 212.917226 166.181565 
z
" clip-path="url(#pe366492def)" style="fill: #1f77b4"/>
   </g>
   <g id="patch_94">
    <path d="M 214.536429 273.312 
L 216.155633 273.312 
L 216.155633 156.386783 
L 214.536429 156.386783 
z
" clip-path="url(#pe366492def)" style="fill: #1f77b4"/>
   </g>
   <g id="patch_95">
    <path d="M 216.155633 273.312 
L 217.774836 273.312 
L 217.774836 158.223304 
L 216.155633 158.223304 
z
" clip-path="url(#pe366492def)" style="fill: #1f77b4"/>
   </g>
   <g id="patch_96">
    <path d="M 217.774836 273.312 
L 219.39404 273.312 
L 219.39404 158.223304 
L 217.774836 158.223304 
z
" clip-path="url(#pe366492def)" style="fill: #1f77b4"/>
   </g>
   <g id="patch_97">
    <path d="M 219.39404 273.312 
L 221.013244 273.312 
L 221.013244 174.139826 
L 219.39404 174.139826 
z
" clip-path="url(#pe366492def)" style="fill: #1f77b4"/>
   </g>
   <g id="patch_98">
    <path d="M 221.013244 273.312 
L 222.632447 273.312 
L 222.632447 136.797217 
L 221.013244 136.797217 
z
" clip-path="url(#pe366492def)" style="fill: #1f77b4"/>
   </g>
   <g id="patch_99">
    <path d="M 222.632447 273.312 
L 224.251651 273.312 
L 224.251651 150.265043 
L 222.632447 150.265043 
z
" clip-path="url(#pe366492def)" style="fill: #1f77b4"/>
   </g>
   <g id="patch_100">
    <path d="M 224.251651 273.312 
L 225.870854 273.312 
L 225.870854 158.835478 
L 224.251651 158.835478 
z
" clip-path="url(#pe366492def)" style="fill: #1f77b4"/>
   </g>
   <g id="patch_101">
    <path d="M 225.870854 273.312 
L 227.490058 273.312 
L 227.490058 152.101565 
L 225.870854 152.101565 
z
" clip-path="url(#pe366492def)" style="fill: #1f77b4"/>
   </g>
   <g id="patch_102">
    <path d="M 227.490058 273.312 
L 229.109261 273.312 
L 229.109261 139.858087 
L 227.490058 139.858087 
z
" clip-path="url(#pe366492def)" style="fill: #1f77b4"/>
   </g>
   <g id="patch_103">
    <path d="M 229.109261 273.312 
L 230.728465 273.312 
L 230.728465 158.223304 
L 229.109261 158.223304 
z
" clip-path="url(#pe366492def)" style="fill: #1f77b4"/>
   </g>
   <g id="patch_104">
    <path d="M 230.728465 273.312 
L 232.347669 273.312 
L 232.347669 131.899826 
L 230.728465 131.899826 
z
" clip-path="url(#pe366492def)" style="fill: #1f77b4"/>
   </g>
   <g id="patch_105">
    <path d="M 232.347669 273.312 
L 233.966872 273.312 
L 233.966872 138.633739 
L 232.347669 138.633739 
z
" clip-path="url(#pe366492def)" style="fill: #1f77b4"/>
   </g>
   <g id="patch_106">
    <path d="M 233.966872 273.312 
L 235.586076 273.312 
L 235.586076 152.713739 
L 233.966872 152.713739 
z
" clip-path="url(#pe366492def)" style="fill: #1f77b4"/>
   </g>
   <g id="patch_107">
    <path d="M 235.586076 273.312 
L 237.205279 273.312 
L 237.205279 153.325913 
L 235.586076 153.325913 
z
" clip-path="url(#pe366492def)" style="fill: #1f77b4"/>
   </g>
   <g id="patch_108">
    <path d="M 237.205279 273.312 
L 238.824483 273.312 
L 238.824483 130.675478 
L 237.205279 130.675478 
z
" clip-path="url(#pe366492def)" style="fill: #1f77b4"/>
   </g>
   <g id="patch_109">
    <path d="M 238.824483 273.312 
L 240.443686 273.312 
L 240.443686 152.101565 
L 238.824483 152.101565 
z
" clip-path="url(#pe366492def)" style="fill: #1f77b4"/>
   </g>
   <g id="patch_110">
    <path d="M 240.443686 273.312 
L 242.06289 273.312 
L 242.06289 140.470261 
L 240.443686 140.470261 
z
" clip-path="url(#pe366492def)" style="fill: #1f77b4"/>
   </g>
   <g id="patch_111">
    <path d="M 242.06289 273.312 
L 243.682094 273.312 
L 243.682094 137.409391 
L 242.06289 137.409391 
z
" clip-path="url(#pe366492def)" style="fill: #1f77b4"/>
   </g>
   <g id="patch_112">
    <path d="M 243.682094 273.312 
L 245.301297 273.312 
L 245.301297 142.306783 
L 243.682094 142.306783 
z
" clip-path="url(#pe366492def)" style="fill: #1f77b4"/>
   </g>
   <g id="patch_113">
    <path d="M 245.301297 273.312 
L 246.920501 273.312 
L 246.920501 136.797217 
L 245.301297 136.797217 
z
" clip-path="url(#pe366492def)" style="fill: #1f77b4"/>
   </g>
   <g id="patch_114">
    <path d="M 246.920501 273.312 
L 248.539704 273.312 
L 248.539704 130.675478 
L 246.920501 130.675478 
z
" clip-path="url(#pe366492def)" style="fill: #1f77b4"/>
   </g>
   <g id="patch_115">
    <path d="M 248.539704 273.312 
L 250.158908 273.312 
L 250.158908 144.755478 
L 248.539704 144.755478 
z
" clip-path="url(#pe366492def)" style="fill: #1f77b4"/>
   </g>
   <g id="patch_116">
    <path d="M 250.158908 273.312 
L 251.778111 273.312 
L 251.778111 141.694609 
L 250.158908 141.694609 
z
" clip-path="url(#pe366492def)" style="fill: #1f77b4"/>
   </g>
   <g id="patch_117">
    <path d="M 251.778111 273.312 
L 253.397315 273.312 
L 253.397315 119.044174 
L 251.778111 119.044174 
z
" clip-path="url(#pe366492def)" style="fill: #1f77b4"/>
   </g>
   <g id="patch_118">
    <path d="M 253.397315 273.312 
L 255.016519 273.312 
L 255.016519 138.021565 
L 253.397315 138.021565 
z
" clip-path="url(#pe366492def)" style="fill: #1f77b4"/>
   </g>
   <g id="patch_119">
    <path d="M 255.016519 273.312 
L 256.635722 273.312 
L 256.635722 130.063304 
L 255.016519 130.063304 
z
" clip-path="url(#pe366492def)" style="fill: #1f77b4"/>
   </g>
   <g id="patch_120">
    <path d="M 256.635722 273.312 
L 258.254926 273.312 
L 258.254926 131.287652 
L 256.635722 131.287652 
z
" clip-path="url(#pe366492def)" style="fill: #1f77b4"/>
   </g>
   <g id="patch_121">
    <path d="M 258.254926 273.312 
L 259.874129 273.312 
L 259.874129 141.694609 
L 258.254926 141.694609 
z
" clip-path="url(#pe366492def)" style="fill: #1f77b4"/>
   </g>
   <g id="patch_122">
    <path d="M 259.874129 273.312 
L 261.493333 273.312 
L 261.493333 122.717217 
L 259.874129 122.717217 
z
" clip-path="url(#pe366492def)" style="fill: #1f77b4"/>
   </g>
   <g id="patch_123">
    <path d="M 261.493333 273.312 
L 263.112536 273.312 
L 263.112536 132.512 
L 261.493333 132.512 
z
" clip-path="url(#pe366492def)" style="fill: #1f77b4"/>
   </g>
   <g id="patch_124">
    <path d="M 263.112536 273.312 
L 264.73174 273.312 
L 264.73174 127.614609 
L 263.112536 127.614609 
z
" clip-path="url(#pe366492def)" style="fill: #1f77b4"/>
   </g>
   <g id="patch_125">
    <path d="M 264.73174 273.312 
L 266.350944 273.312 
L 266.350944 125.165913 
L 264.73174 125.165913 
z
" clip-path="url(#pe366492def)" style="fill: #1f77b4"/>
   </g>
   <g id="patch_126">
    <path d="M 266.350944 273.312 
L 267.970147 273.312 
L 267.970147 117.819826 
L 266.350944 117.819826 
z
" clip-path="url(#pe366492def)" style="fill: #1f77b4"/>
   </g>
   <g id="patch_127">
    <path d="M 267.970147 273.312 
L 269.589351 273.312 
L 269.589351 141.694609 
L 267.970147 141.694609 
z
" clip-path="url(#pe366492def)" style="fill: #1f77b4"/>
   </g>
   <g id="patch_128">
    <path d="M 269.589351 273.312 
L 271.208554 273.312 
L 271.208554 139.245913 
L 269.589351 139.245913 
z
" clip-path="url(#pe366492def)" style="fill: #1f77b4"/>
   </g>
   <g id="patch_129">
    <path d="M 271.208554 273.312 
L 272.827758 273.312 
L 272.827758 119.656348 
L 271.208554 119.656348 
z
" clip-path="url(#pe366492def)" style="fill: #1f77b4"/>
   </g>
   <g id="patch_130">
    <path d="M 272.827758 273.312 
L 274.446961 273.312 
L 274.446961 113.534609 
L 272.827758 113.534609 
z
" clip-path="url(#pe366492def)" style="fill: #1f77b4"/>
   </g>
   <g id="patch_131">
    <path d="M 274.446961 273.312 
L 276.066165 273.312 
L 276.066165 123.329391 
L 274.446961 123.329391 
z
" clip-path="url(#pe366492def)" style="fill: #1f77b4"/>
   </g>
   <g id="patch_132">
    <path d="M 276.066165 273.312 
L 277.685369 273.312 
L 277.685369 119.656348 
L 276.066165 119.656348 
z
" clip-path="url(#pe366492def)" style="fill: #1f77b4"/>
   </g>
   <g id="patch_133">
    <path d="M 277.685369 273.312 
L 279.304572 273.312 
L 279.304572 111.085913 
L 277.685369 111.085913 
z
" clip-path="url(#pe366492def)" style="fill: #1f77b4"/>
   </g>
   <g id="patch_134">
    <path d="M 279.304572 273.312 
L 280.923776 273.312 
L 280.923776 115.37113 
L 279.304572 115.37113 
z
" clip-path="url(#pe366492def)" style="fill: #1f77b4"/>
   </g>
   <g id="patch_135">
    <path d="M 280.923776 273.312 
L 282.542979 273.312 
L 282.542979 109.861565 
L 280.923776 109.861565 
z
" clip-path="url(#pe366492def)" style="fill: #1f77b4"/>
   </g>
   <g id="patch_136">
    <path d="M 282.542979 273.312 
L 284.162183 273.312 
L 284.162183 98.842435 
L 282.542979 98.842435 
z
" clip-path="url(#pe366492def)" style="fill: #1f77b4"/>
   </g>
   <g id="patch_137">
    <path d="M 284.162183 273.312 
L 285.781386 273.312 
L 285.781386 104.352 
L 284.162183 104.352 
z
" clip-path="url(#pe366492def)" style="fill: #1f77b4"/>
   </g>
   <g id="patch_138">
    <path d="M 285.781386 273.312 
L 287.40059 273.312 
L 287.40059 123.941565 
L 285.781386 123.941565 
z
" clip-path="url(#pe366492def)" style="fill: #1f77b4"/>
   </g>
   <g id="patch_139">
    <path d="M 287.40059 273.312 
L 289.019794 273.312 
L 289.019794 106.188522 
L 287.40059 106.188522 
z
" clip-path="url(#pe366492def)" style="fill: #1f77b4"/>
   </g>
   <g id="patch_140">
    <path d="M 289.019794 273.312 
L 290.638997 273.312 
L 290.638997 107.41287 
L 289.019794 107.41287 
z
" clip-path="url(#pe366492def)" style="fill: #1f77b4"/>
   </g>
   <g id="patch_141">
    <path d="M 290.638997 273.312 
L 292.258201 273.312 
L 292.258201 97.005913 
L 290.638997 97.005913 
z
" clip-path="url(#pe366492def)" style="fill: #1f77b4"/>
   </g>
   <g id="patch_142">
    <path d="M 292.258201 273.312 
L 293.877404 273.312 
L 293.877404 99.454609 
L 292.258201 99.454609 
z
" clip-path="url(#pe366492def)" style="fill: #1f77b4"/>
   </g>
   <g id="patch_143">
    <path d="M 293.877404 273.312 
L 295.496608 273.312 
L 295.496608 101.29113 
L 293.877404 101.29113 
z
" clip-path="url(#pe366492def)" style="fill: #1f77b4"/>
   </g>
   <g id="patch_144">
    <path d="M 295.496608 273.312 
L 297.115811 273.312 
L 297.115811 99.454609 
L 295.496608 99.454609 
z
" clip-path="url(#pe366492def)" style="fill: #1f77b4"/>
   </g>
   <g id="patch_145">
    <path d="M 297.115811 273.312 
L 298.735015 273.312 
L 298.735015 97.618087 
L 297.115811 97.618087 
z
" clip-path="url(#pe366492def)" style="fill: #1f77b4"/>
   </g>
   <g id="patch_146">
    <path d="M 298.735015 273.312 
L 300.354219 273.312 
L 300.354219 87.823304 
L 298.735015 87.823304 
z
" clip-path="url(#pe366492def)" style="fill: #1f77b4"/>
   </g>
   <g id="patch_147">
    <path d="M 300.354219 273.312 
L 301.973422 273.312 
L 301.973422 102.515478 
L 300.354219 102.515478 
z
" clip-path="url(#pe366492def)" style="fill: #1f77b4"/>
   </g>
   <g id="patch_148">
    <path d="M 301.973422 273.312 
L 303.592626 273.312 
L 303.592626 92.720696 
L 301.973422 92.720696 
z
" clip-path="url(#pe366492def)" style="fill: #1f77b4"/>
   </g>
   <g id="patch_149">
    <path d="M 303.592626 273.312 
L 305.211829 273.312 
L 305.211829 88.435478 
L 303.592626 88.435478 
z
" clip-path="url(#pe366492def)" style="fill: #1f77b4"/>
   </g>
   <g id="patch_150">
    <path d="M 305.211829 273.312 
L 306.831033 273.312 
L 306.831033 93.945043 
L 305.211829 93.945043 
z
" clip-path="url(#pe366492def)" style="fill: #1f77b4"/>
   </g>
   <g id="patch_151">
    <path d="M 306.831033 273.312 
L 308.450236 273.312 
L 308.450236 73.743304 
L 306.831033 73.743304 
z
" clip-path="url(#pe366492def)" style="fill: #1f77b4"/>
   </g>
   <g id="patch_152">
    <path d="M 308.450236 273.312 
L 310.06944 273.312 
L 310.06944 81.701565 
L 308.450236 81.701565 
z
" clip-path="url(#pe366492def)" style="fill: #1f77b4"/>
   </g>
   <g id="patch_153">
    <path d="M 310.06944 273.312 
L 311.688644 273.312 
L 311.688644 89.047652 
L 310.06944 89.047652 
z
" clip-path="url(#pe366492def)" style="fill: #1f77b4"/>
   </g>
   <g id="patch_154">
    <path d="M 311.688644 273.312 
L 313.307847 273.312 
L 313.307847 92.108522 
L 311.688644 92.108522 
z
" clip-path="url(#pe366492def)" style="fill: #1f77b4"/>
   </g>
   <g id="patch_155">
    <path d="M 313.307847 273.312 
L 314.927051 273.312 
L 314.927051 92.720696 
L 313.307847 92.720696 
z
" clip-path="url(#pe366492def)" style="fill: #1f77b4"/>
   </g>
   <g id="patch_156">
    <path d="M 314.927051 273.312 
L 316.546254 273.312 
L 316.546254 89.047652 
L 314.927051 89.047652 
z
" clip-path="url(#pe366492def)" style="fill: #1f77b4"/>
   </g>
   <g id="patch_157">
    <path d="M 316.546254 273.312 
L 318.165458 273.312 
L 318.165458 90.884174 
L 316.546254 90.884174 
z
" clip-path="url(#pe366492def)" style="fill: #1f77b4"/>
   </g>
   <g id="patch_158">
    <path d="M 318.165458 273.312 
L 319.784661 273.312 
L 319.784661 90.272 
L 318.165458 90.272 
z
" clip-path="url(#pe366492def)" style="fill: #1f77b4"/>
   </g>
   <g id="patch_159">
    <path d="M 319.784661 273.312 
L 321.403865 273.312 
L 321.403865 74.967652 
L 319.784661 74.967652 
z
" clip-path="url(#pe366492def)" style="fill: #1f77b4"/>
   </g>
   <g id="patch_160">
    <path d="M 321.403865 273.312 
L 323.023069 273.312 
L 323.023069 84.762435 
L 321.403865 84.762435 
z
" clip-path="url(#pe366492def)" style="fill: #1f77b4"/>
   </g>
   <g id="patch_161">
    <path d="M 323.023069 273.312 
L 324.642272 273.312 
L 324.642272 79.25287 
L 323.023069 79.25287 
z
" clip-path="url(#pe366492def)" style="fill: #1f77b4"/>
   </g>
   <g id="patch_162">
    <path d="M 324.642272 273.312 
L 326.261476 273.312 
L 326.261476 83.538087 
L 324.642272 83.538087 
z
" clip-path="url(#pe366492def)" style="fill: #1f77b4"/>
   </g>
   <g id="patch_163">
    <path d="M 326.261476 273.312 
L 327.880679 273.312 
L 327.880679 73.13113 
L 326.261476 73.13113 
z
" clip-path="url(#pe366492def)" style="fill: #1f77b4"/>
   </g>
   <g id="patch_164">
    <path d="M 327.880679 273.312 
L 329.499883 273.312 
L 329.499883 76.192 
L 327.880679 76.192 
z
" clip-path="url(#pe366492def)" style="fill: #1f77b4"/>
   </g>
   <g id="patch_165">
    <path d="M 329.499883 273.312 
L 331.119086 273.312 
L 331.119086 84.762435 
L 329.499883 84.762435 
z
" clip-path="url(#pe366492def)" style="fill: #1f77b4"/>
   </g>
   <g id="patch_166">
    <path d="M 331.119086 273.312 
L 332.73829 273.312 
L 332.73829 70.070261 
L 331.119086 70.070261 
z
" clip-path="url(#pe366492def)" style="fill: #1f77b4"/>
   </g>
   <g id="patch_167">
    <path d="M 332.73829 273.312 
L 334.357494 273.312 
L 334.357494 57.214609 
L 332.73829 57.214609 
z
" clip-path="url(#pe366492def)" style="fill: #1f77b4"/>
   </g>
   <g id="patch_168">
    <path d="M 334.357494 273.312 
L 335.976697 273.312 
L 335.976697 78.028522 
L 334.357494 78.028522 
z
" clip-path="url(#pe366492def)" style="fill: #1f77b4"/>
   </g>
   <g id="patch_169">
    <path d="M 335.976697 273.312 
L 337.595901 273.312 
L 337.595901 71.906783 
L 335.976697 71.906783 
z
" clip-path="url(#pe366492def)" style="fill: #1f77b4"/>
   </g>
   <g id="patch_170">
    <path d="M 337.595901 273.312 
L 339.215104 273.312 
L 339.215104 45.583304 
L 337.595901 45.583304 
z
" clip-path="url(#pe366492def)" style="fill: #1f77b4"/>
   </g>
   <g id="patch_171">
    <path d="M 339.215104 273.312 
L 340.834308 273.312 
L 340.834308 66.397217 
L 339.215104 66.397217 
z
" clip-path="url(#pe366492def)" style="fill: #1f77b4"/>
   </g>
   <g id="patch_172">
    <path d="M 340.834308 273.312 
L 342.453511 273.312 
L 342.453511 45.583304 
L 340.834308 45.583304 
z
" clip-path="url(#pe366492def)" style="fill: #1f77b4"/>
   </g>
   <g id="patch_173">
    <path d="M 342.453511 273.312 
L 344.072715 273.312 
L 344.072715 73.743304 
L 342.453511 73.743304 
z
" clip-path="url(#pe366492def)" style="fill: #1f77b4"/>
   </g>
   <g id="patch_174">
    <path d="M 344.072715 273.312 
L 345.691919 273.312 
L 345.691919 73.743304 
L 344.072715 73.743304 
z
" clip-path="url(#pe366492def)" style="fill: #1f77b4"/>
   </g>
   <g id="patch_175">
    <path d="M 345.691919 273.312 
L 347.311122 273.312 
L 347.311122 46.807652 
L 345.691919 46.807652 
z
" clip-path="url(#pe366492def)" style="fill: #1f77b4"/>
   </g>
   <g id="patch_176">
    <path d="M 347.311122 273.312 
L 348.930326 273.312 
L 348.930326 64.560696 
L 347.311122 64.560696 
z
" clip-path="url(#pe366492def)" style="fill: #1f77b4"/>
   </g>
   <g id="patch_177">
    <path d="M 348.930326 273.312 
L 350.549529 273.312 
L 350.549529 64.560696 
L 348.930326 64.560696 
z
" clip-path="url(#pe366492def)" style="fill: #1f77b4"/>
   </g>
   <g id="patch_178">
    <path d="M 350.549529 273.312 
L 352.168733 273.312 
L 352.168733 38.849391 
L 350.549529 38.849391 
z
" clip-path="url(#pe366492def)" style="fill: #1f77b4"/>
   </g>
   <g id="patch_179">
    <path d="M 352.168733 273.312 
L 353.787936 273.312 
L 353.787936 52.929391 
L 352.168733 52.929391 
z
" clip-path="url(#pe366492def)" style="fill: #1f77b4"/>
   </g>
   <g id="patch_180">
    <path d="M 353.787936 273.312 
L 355.40714 273.312 
L 355.40714 68.233739 
L 353.787936 68.233739 
z
" clip-path="url(#pe366492def)" style="fill: #1f77b4"/>
   </g>
   <g id="patch_181">
    <path d="M 355.40714 273.312 
L 357.026344 273.312 
L 357.026344 59.663304 
L 355.40714 59.663304 
z
" clip-path="url(#pe366492def)" style="fill: #1f77b4"/>
   </g>
   <g id="patch_182">
    <path d="M 357.026344 273.312 
L 358.645547 273.312 
L 358.645547 52.317217 
L 357.026344 52.317217 
z
" clip-path="url(#pe366492def)" style="fill: #1f77b4"/>
   </g>
   <g id="patch_183">
    <path d="M 358.645547 273.312 
L 360.264751 273.312 
L 360.264751 67.009391 
L 358.645547 67.009391 
z
" clip-path="url(#pe366492def)" style="fill: #1f77b4"/>
   </g>
   <g id="patch_184">
    <path d="M 360.264751 273.312 
L 361.883954 273.312 
L 361.883954 41.910261 
L 360.264751 41.910261 
z
" clip-path="url(#pe366492def)" style="fill: #1f77b4"/>
   </g>
   <g id="patch_185">
    <path d="M 361.883954 273.312 
L 363.503158 273.312 
L 363.503158 45.583304 
L 361.883954 45.583304 
z
" clip-path="url(#pe366492def)" style="fill: #1f77b4"/>
   </g>
   <g id="patch_186">
    <path d="M 363.503158 273.312 
L 365.122361 273.312 
L 365.122361 52.317217 
L 363.503158 52.317217 
z
" clip-path="url(#pe366492def)" style="fill: #1f77b4"/>
   </g>
   <g id="patch_187">
    <path d="M 365.122361 273.312 
L 366.741565 273.312 
L 366.741565 30.278957 
L 365.122361 30.278957 
z
" clip-path="url(#pe366492def)" style="fill: #1f77b4"/>
   </g>
   <g id="patch_188">
    <path d="M 366.741565 273.312 
L 368.360769 273.312 
L 368.360769 51.705043 
L 366.741565 51.705043 
z
" clip-path="url(#pe366492def)" style="fill: #1f77b4"/>
   </g>
   <g id="patch_189">
    <path d="M 368.360769 273.312 
L 369.979972 273.312 
L 369.979972 57.214609 
L 368.360769 57.214609 
z
" clip-path="url(#pe366492def)" style="fill: #1f77b4"/>
   </g>
   <g id="patch_190">
    <path d="M 369.979972 273.312 
L 371.599176 273.312 
L 371.599176 44.97113 
L 369.979972 44.97113 
z
" clip-path="url(#pe366492def)" style="fill: #1f77b4"/>
   </g>
   <g id="patch_191">
    <path d="M 371.599176 273.312 
L 373.218379 273.312 
L 373.218379 48.644174 
L 371.599176 48.644174 
z
" clip-path="url(#pe366492def)" style="fill: #1f77b4"/>
   </g>
   <g id="patch_192">
    <path d="M 373.218379 273.312 
L 374.837583 273.312 
L 374.837583 33.952 
L 373.218379 33.952 
z
" clip-path="url(#pe366492def)" style="fill: #1f77b4"/>
   </g>
   <g id="patch_193">
    <path d="M 374.837583 273.312 
L 376.456786 273.312 
L 376.456786 21.708522 
L 374.837583 21.708522 
z
" clip-path="url(#pe366492def)" style="fill: #1f77b4"/>
   </g>
   <g id="patch_194">
    <path d="M 376.456786 273.312 
L 378.07599 273.312 
L 378.07599 25.381565 
L 376.456786 25.381565 
z
" clip-path="url(#pe366492def)" style="fill: #1f77b4"/>
   </g>
   <g id="patch_195">
    <path d="M 378.07599 273.312 
L 379.695194 273.312 
L 379.695194 44.358957 
L 378.07599 44.358957 
z
" clip-path="url(#pe366492def)" style="fill: #1f77b4"/>
   </g>
   <g id="patch_196">
    <path d="M 379.695194 273.312 
L 381.314397 273.312 
L 381.314397 51.705043 
L 379.695194 51.705043 
z
" clip-path="url(#pe366492def)" style="fill: #1f77b4"/>
   </g>
   <g id="patch_197">
    <path d="M 381.314397 273.312 
L 382.933601 273.312 
L 382.933601 43.746783 
L 381.314397 43.746783 
z
" clip-path="url(#pe366492def)" style="fill: #1f77b4"/>
   </g>
   <g id="patch_198">
    <path d="M 382.933601 273.312 
L 384.552804 273.312 
L 384.552804 63.948522 
L 382.933601 63.948522 
z
" clip-path="url(#pe366492def)" style="fill: #1f77b4"/>
   </g>
   <g id="patch_199">
    <path d="M 384.552804 273.312 
L 386.172008 273.312 
L 386.172008 42.522435 
L 384.552804 42.522435 
z
" clip-path="url(#pe366492def)" style="fill: #1f77b4"/>
   </g>
   <g id="patch_200">
    <path d="M 386.172008 273.312 
L 387.791211 273.312 
L 387.791211 48.644174 
L 386.172008 48.644174 
z
" clip-path="url(#pe366492def)" style="fill: #1f77b4"/>
   </g>
   <g id="patch_201">
    <path d="M 387.791211 273.312 
L 389.410415 273.312 
L 389.410415 32.115478 
L 387.791211 32.115478 
z
" clip-path="url(#pe366492def)" style="fill: #1f77b4"/>
   </g>
   <g id="patch_202">
    <path d="M 389.410415 273.312 
L 391.029619 273.312 
L 391.029619 19.872 
L 389.410415 19.872 
z
" clip-path="url(#pe366492def)" style="fill: #1f77b4"/>
   </g>
   <g id="matplotlib.axis_1">
    <g id="xtick_1">
     <g id="line2d_1">
      <defs>
       <path id="m965138667f" d="M 0 0 
L 0 3.5 
" style="stroke: #000000; stroke-width: 0.8"/>
      </defs>
      <g>
       <use xlink:href="#m965138667f" x="66.376477" y="273.312" style="stroke: #000000; stroke-width: 0.8"/>
      </g>
     </g>
     <g id="text_1">
      <!-- 0.0 -->
      <g transform="translate(58.424915 287.910437)scale(0.1 -0.1)">
       <defs>
        <path id="DejaVuSans-30" d="M 2034 4250 
Q 1547 4250 1301 3770 
Q 1056 3291 1056 2328 
Q 1056 1369 1301 889 
Q 1547 409 2034 409 
Q 2525 409 2770 889 
Q 3016 1369 3016 2328 
Q 3016 3291 2770 3770 
Q 2525 4250 2034 4250 
z
M 2034 4750 
Q 2819 4750 3233 4129 
Q 3647 3509 3647 2328 
Q 3647 1150 3233 529 
Q 2819 -91 2034 -91 
Q 1250 -91 836 529 
Q 422 1150 422 2328 
Q 422 3509 836 4129 
Q 1250 4750 2034 4750 
z
" transform="scale(0.015625)"/>
        <path id="DejaVuSans-2e" d="M 684 794 
L 1344 794 
L 1344 0 
L 684 0 
L 684 794 
z
" transform="scale(0.015625)"/>
       </defs>
       <use xlink:href="#DejaVuSans-30"/>
       <use xlink:href="#DejaVuSans-2e" x="63.623047"/>
       <use xlink:href="#DejaVuSans-30" x="95.410156"/>
      </g>
     </g>
    </g>
    <g id="xtick_2">
     <g id="line2d_2">
      <g>
       <use xlink:href="#m965138667f" x="131.307386" y="273.312" style="stroke: #000000; stroke-width: 0.8"/>
      </g>
     </g>
     <g id="text_2">
      <!-- 0.2 -->
      <g transform="translate(123.355824 287.910437)scale(0.1 -0.1)">
       <defs>
        <path id="DejaVuSans-32" d="M 1228 531 
L 3431 531 
L 3431 0 
L 469 0 
L 469 531 
Q 828 903 1448 1529 
Q 2069 2156 2228 2338 
Q 2531 2678 2651 2914 
Q 2772 3150 2772 3378 
Q 2772 3750 2511 3984 
Q 2250 4219 1831 4219 
Q 1534 4219 1204 4116 
Q 875 4013 500 3803 
L 500 4441 
Q 881 4594 1212 4672 
Q 1544 4750 1819 4750 
Q 2544 4750 2975 4387 
Q 3406 4025 3406 3419 
Q 3406 3131 3298 2873 
Q 3191 2616 2906 2266 
Q 2828 2175 2409 1742 
Q 1991 1309 1228 531 
z
" transform="scale(0.015625)"/>
       </defs>
       <use xlink:href="#DejaVuSans-30"/>
       <use xlink:href="#DejaVuSans-2e" x="63.623047"/>
       <use xlink:href="#DejaVuSans-32" x="95.410156"/>
      </g>
     </g>
    </g>
    <g id="xtick_3">
     <g id="line2d_3">
      <g>
       <use xlink:href="#m965138667f" x="196.238295" y="273.312" style="stroke: #000000; stroke-width: 0.8"/>
      </g>
     </g>
     <g id="text_3">
      <!-- 0.4 -->
      <g transform="translate(188.286733 287.910437)scale(0.1 -0.1)">
       <defs>
        <path id="DejaVuSans-34" d="M 2419 4116 
L 825 1625 
L 2419 1625 
L 2419 4116 
z
M 2253 4666 
L 3047 4666 
L 3047 1625 
L 3713 1625 
L 3713 1100 
L 3047 1100 
L 3047 0 
L 2419 0 
L 2419 1100 
L 313 1100 
L 313 1709 
L 2253 4666 
z
" transform="scale(0.015625)"/>
       </defs>
       <use xlink:href="#DejaVuSans-30"/>
       <use xlink:href="#DejaVuSans-2e" x="63.623047"/>
       <use xlink:href="#DejaVuSans-34" x="95.410156"/>
      </g>
     </g>
    </g>
    <g id="xtick_4">
     <g id="line2d_4">
      <g>
       <use xlink:href="#m965138667f" x="261.169205" y="273.312" style="stroke: #000000; stroke-width: 0.8"/>
      </g>
     </g>
     <g id="text_4">
      <!-- 0.6 -->
      <g transform="translate(253.217642 287.910437)scale(0.1 -0.1)">
       <defs>
        <path id="DejaVuSans-36" d="M 2113 2584 
Q 1688 2584 1439 2293 
Q 1191 2003 1191 1497 
Q 1191 994 1439 701 
Q 1688 409 2113 409 
Q 2538 409 2786 701 
Q 3034 994 3034 1497 
Q 3034 2003 2786 2293 
Q 2538 2584 2113 2584 
z
M 3366 4563 
L 3366 3988 
Q 3128 4100 2886 4159 
Q 2644 4219 2406 4219 
Q 1781 4219 1451 3797 
Q 1122 3375 1075 2522 
Q 1259 2794 1537 2939 
Q 1816 3084 2150 3084 
Q 2853 3084 3261 2657 
Q 3669 2231 3669 1497 
Q 3669 778 3244 343 
Q 2819 -91 2113 -91 
Q 1303 -91 875 529 
Q 447 1150 447 2328 
Q 447 3434 972 4092 
Q 1497 4750 2381 4750 
Q 2619 4750 2861 4703 
Q 3103 4656 3366 4563 
z
" transform="scale(0.015625)"/>
       </defs>
       <use xlink:href="#DejaVuSans-30"/>
       <use xlink:href="#DejaVuSans-2e" x="63.623047"/>
       <use xlink:href="#DejaVuSans-36" x="95.410156"/>
      </g>
     </g>
    </g>
    <g id="xtick_5">
     <g id="line2d_5">
      <g>
       <use xlink:href="#m965138667f" x="326.100114" y="273.312" style="stroke: #000000; stroke-width: 0.8"/>
      </g>
     </g>
     <g id="text_5">
      <!-- 0.8 -->
      <g transform="translate(318.148551 287.910437)scale(0.1 -0.1)">
       <defs>
        <path id="DejaVuSans-38" d="M 2034 2216 
Q 1584 2216 1326 1975 
Q 1069 1734 1069 1313 
Q 1069 891 1326 650 
Q 1584 409 2034 409 
Q 2484 409 2743 651 
Q 3003 894 3003 1313 
Q 3003 1734 2745 1975 
Q 2488 2216 2034 2216 
z
M 1403 2484 
Q 997 2584 770 2862 
Q 544 3141 544 3541 
Q 544 4100 942 4425 
Q 1341 4750 2034 4750 
Q 2731 4750 3128 4425 
Q 3525 4100 3525 3541 
Q 3525 3141 3298 2862 
Q 3072 2584 2669 2484 
Q 3125 2378 3379 2068 
Q 3634 1759 3634 1313 
Q 3634 634 3220 271 
Q 2806 -91 2034 -91 
Q 1263 -91 848 271 
Q 434 634 434 1313 
Q 434 1759 690 2068 
Q 947 2378 1403 2484 
z
M 1172 3481 
Q 1172 3119 1398 2916 
Q 1625 2713 2034 2713 
Q 2441 2713 2670 2916 
Q 2900 3119 2900 3481 
Q 2900 3844 2670 4047 
Q 2441 4250 2034 4250 
Q 1625 4250 1398 4047 
Q 1172 3844 1172 3481 
z
" transform="scale(0.015625)"/>
       </defs>
       <use xlink:href="#DejaVuSans-30"/>
       <use xlink:href="#DejaVuSans-2e" x="63.623047"/>
       <use xlink:href="#DejaVuSans-38" x="95.410156"/>
      </g>
     </g>
    </g>
    <g id="xtick_6">
     <g id="line2d_6">
      <g>
       <use xlink:href="#m965138667f" x="391.031023" y="273.312" style="stroke: #000000; stroke-width: 0.8"/>
      </g>
     </g>
     <g id="text_6">
      <!-- 1.0 -->
      <g transform="translate(383.07946 287.910437)scale(0.1 -0.1)">
       <defs>
        <path id="DejaVuSans-31" d="M 794 531 
L 1825 531 
L 1825 4091 
L 703 3866 
L 703 4441 
L 1819 4666 
L 2450 4666 
L 2450 531 
L 3481 531 
L 3481 0 
L 794 0 
L 794 531 
z
" transform="scale(0.015625)"/>
       </defs>
       <use xlink:href="#DejaVuSans-31"/>
       <use xlink:href="#DejaVuSans-2e" x="63.623047"/>
       <use xlink:href="#DejaVuSans-30" x="95.410156"/>
      </g>
     </g>
    </g>
    <g id="text_7">
     <!-- Propagation direction -->
     <g transform="translate(175.221719 301.588562)scale(0.1 -0.1)">
      <defs>
       <path id="DejaVuSans-50" d="M 1259 4147 
L 1259 2394 
L 2053 2394 
Q 2494 2394 2734 2622 
Q 2975 2850 2975 3272 
Q 2975 3691 2734 3919 
Q 2494 4147 2053 4147 
L 1259 4147 
z
M 628 4666 
L 2053 4666 
Q 2838 4666 3239 4311 
Q 3641 3956 3641 3272 
Q 3641 2581 3239 2228 
Q 2838 1875 2053 1875 
L 1259 1875 
L 1259 0 
L 628 0 
L 628 4666 
z
" transform="scale(0.015625)"/>
       <path id="DejaVuSans-72" d="M 2631 2963 
Q 2534 3019 2420 3045 
Q 2306 3072 2169 3072 
Q 1681 3072 1420 2755 
Q 1159 2438 1159 1844 
L 1159 0 
L 581 0 
L 581 3500 
L 1159 3500 
L 1159 2956 
Q 1341 3275 1631 3429 
Q 1922 3584 2338 3584 
Q 2397 3584 2469 3576 
Q 2541 3569 2628 3553 
L 2631 2963 
z
" transform="scale(0.015625)"/>
       <path id="DejaVuSans-6f" d="M 1959 3097 
Q 1497 3097 1228 2736 
Q 959 2375 959 1747 
Q 959 1119 1226 758 
Q 1494 397 1959 397 
Q 2419 397 2687 759 
Q 2956 1122 2956 1747 
Q 2956 2369 2687 2733 
Q 2419 3097 1959 3097 
z
M 1959 3584 
Q 2709 3584 3137 3096 
Q 3566 2609 3566 1747 
Q 3566 888 3137 398 
Q 2709 -91 1959 -91 
Q 1206 -91 779 398 
Q 353 888 353 1747 
Q 353 2609 779 3096 
Q 1206 3584 1959 3584 
z
" transform="scale(0.015625)"/>
       <path id="DejaVuSans-70" d="M 1159 525 
L 1159 -1331 
L 581 -1331 
L 581 3500 
L 1159 3500 
L 1159 2969 
Q 1341 3281 1617 3432 
Q 1894 3584 2278 3584 
Q 2916 3584 3314 3078 
Q 3713 2572 3713 1747 
Q 3713 922 3314 415 
Q 2916 -91 2278 -91 
Q 1894 -91 1617 61 
Q 1341 213 1159 525 
z
M 3116 1747 
Q 3116 2381 2855 2742 
Q 2594 3103 2138 3103 
Q 1681 3103 1420 2742 
Q 1159 2381 1159 1747 
Q 1159 1113 1420 752 
Q 1681 391 2138 391 
Q 2594 391 2855 752 
Q 3116 1113 3116 1747 
z
" transform="scale(0.015625)"/>
       <path id="DejaVuSans-61" d="M 2194 1759 
Q 1497 1759 1228 1600 
Q 959 1441 959 1056 
Q 959 750 1161 570 
Q 1363 391 1709 391 
Q 2188 391 2477 730 
Q 2766 1069 2766 1631 
L 2766 1759 
L 2194 1759 
z
M 3341 1997 
L 3341 0 
L 2766 0 
L 2766 531 
Q 2569 213 2275 61 
Q 1981 -91 1556 -91 
Q 1019 -91 701 211 
Q 384 513 384 1019 
Q 384 1609 779 1909 
Q 1175 2209 1959 2209 
L 2766 2209 
L 2766 2266 
Q 2766 2663 2505 2880 
Q 2244 3097 1772 3097 
Q 1472 3097 1187 3025 
Q 903 2953 641 2809 
L 641 3341 
Q 956 3463 1253 3523 
Q 1550 3584 1831 3584 
Q 2591 3584 2966 3190 
Q 3341 2797 3341 1997 
z
" transform="scale(0.015625)"/>
       <path id="DejaVuSans-67" d="M 2906 1791 
Q 2906 2416 2648 2759 
Q 2391 3103 1925 3103 
Q 1463 3103 1205 2759 
Q 947 2416 947 1791 
Q 947 1169 1205 825 
Q 1463 481 1925 481 
Q 2391 481 2648 825 
Q 2906 1169 2906 1791 
z
M 3481 434 
Q 3481 -459 3084 -895 
Q 2688 -1331 1869 -1331 
Q 1566 -1331 1297 -1286 
Q 1028 -1241 775 -1147 
L 775 -588 
Q 1028 -725 1275 -790 
Q 1522 -856 1778 -856 
Q 2344 -856 2625 -561 
Q 2906 -266 2906 331 
L 2906 616 
Q 2728 306 2450 153 
Q 2172 0 1784 0 
Q 1141 0 747 490 
Q 353 981 353 1791 
Q 353 2603 747 3093 
Q 1141 3584 1784 3584 
Q 2172 3584 2450 3431 
Q 2728 3278 2906 2969 
L 2906 3500 
L 3481 3500 
L 3481 434 
z
" transform="scale(0.015625)"/>
       <path id="DejaVuSans-74" d="M 1172 4494 
L 1172 3500 
L 2356 3500 
L 2356 3053 
L 1172 3053 
L 1172 1153 
Q 1172 725 1289 603 
Q 1406 481 1766 481 
L 2356 481 
L 2356 0 
L 1766 0 
Q 1100 0 847 248 
Q 594 497 594 1153 
L 594 3053 
L 172 3053 
L 172 3500 
L 594 3500 
L 594 4494 
L 1172 4494 
z
" transform="scale(0.015625)"/>
       <path id="DejaVuSans-69" d="M 603 3500 
L 1178 3500 
L 1178 0 
L 603 0 
L 603 3500 
z
M 603 4863 
L 1178 4863 
L 1178 4134 
L 603 4134 
L 603 4863 
z
" transform="scale(0.015625)"/>
       <path id="DejaVuSans-6e" d="M 3513 2113 
L 3513 0 
L 2938 0 
L 2938 2094 
Q 2938 2591 2744 2837 
Q 2550 3084 2163 3084 
Q 1697 3084 1428 2787 
Q 1159 2491 1159 1978 
L 1159 0 
L 581 0 
L 581 3500 
L 1159 3500 
L 1159 2956 
Q 1366 3272 1645 3428 
Q 1925 3584 2291 3584 
Q 2894 3584 3203 3211 
Q 3513 2838 3513 2113 
z
" transform="scale(0.015625)"/>
       <path id="DejaVuSans-20" transform="scale(0.015625)"/>
       <path id="DejaVuSans-64" d="M 2906 2969 
L 2906 4863 
L 3481 4863 
L 3481 0 
L 2906 0 
L 2906 525 
Q 2725 213 2448 61 
Q 2172 -91 1784 -91 
Q 1150 -91 751 415 
Q 353 922 353 1747 
Q 353 2572 751 3078 
Q 1150 3584 1784 3584 
Q 2172 3584 2448 3432 
Q 2725 3281 2906 2969 
z
M 947 1747 
Q 947 1113 1208 752 
Q 1469 391 1925 391 
Q 2381 391 2643 752 
Q 2906 1113 2906 1747 
Q 2906 2381 2643 2742 
Q 2381 3103 1925 3103 
Q 1469 3103 1208 2742 
Q 947 2381 947 1747 
z
" transform="scale(0.015625)"/>
       <path id="DejaVuSans-65" d="M 3597 1894 
L 3597 1613 
L 953 1613 
Q 991 1019 1311 708 
Q 1631 397 2203 397 
Q 2534 397 2845 478 
Q 3156 559 3463 722 
L 3463 178 
Q 3153 47 2828 -22 
Q 2503 -91 2169 -91 
Q 1331 -91 842 396 
Q 353 884 353 1716 
Q 353 2575 817 3079 
Q 1281 3584 2069 3584 
Q 2775 3584 3186 3129 
Q 3597 2675 3597 1894 
z
M 3022 2063 
Q 3016 2534 2758 2815 
Q 2500 3097 2075 3097 
Q 1594 3097 1305 2825 
Q 1016 2553 972 2059 
L 3022 2063 
z
" transform="scale(0.015625)"/>
       <path id="DejaVuSans-63" d="M 3122 3366 
L 3122 2828 
Q 2878 2963 2633 3030 
Q 2388 3097 2138 3097 
Q 1578 3097 1268 2742 
Q 959 2388 959 1747 
Q 959 1106 1268 751 
Q 1578 397 2138 397 
Q 2388 397 2633 464 
Q 2878 531 3122 666 
L 3122 134 
Q 2881 22 2623 -34 
Q 2366 -91 2075 -91 
Q 1284 -91 818 406 
Q 353 903 353 1747 
Q 353 2603 823 3093 
Q 1294 3584 2113 3584 
Q 2378 3584 2631 3529 
Q 2884 3475 3122 3366 
z
" transform="scale(0.015625)"/>
      </defs>
      <use xlink:href="#DejaVuSans-50"/>
      <use xlink:href="#DejaVuSans-72" x="58.552734"/>
      <use xlink:href="#DejaVuSans-6f" x="97.416016"/>
      <use xlink:href="#DejaVuSans-70" x="158.597656"/>
      <use xlink:href="#DejaVuSans-61" x="222.074219"/>
      <use xlink:href="#DejaVuSans-67" x="283.353516"/>
      <use xlink:href="#DejaVuSans-61" x="346.830078"/>
      <use xlink:href="#DejaVuSans-74" x="408.109375"/>
      <use xlink:href="#DejaVuSans-69" x="447.318359"/>
      <use xlink:href="#DejaVuSans-6f" x="475.101562"/>
      <use xlink:href="#DejaVuSans-6e" x="536.283203"/>
      <use xlink:href="#DejaVuSans-20" x="599.662109"/>
      <use xlink:href="#DejaVuSans-64" x="631.449219"/>
      <use xlink:href="#DejaVuSans-69" x="694.925781"/>
      <use xlink:href="#DejaVuSans-72" x="722.708984"/>
      <use xlink:href="#DejaVuSans-65" x="761.572266"/>
      <use xlink:href="#DejaVuSans-63" x="823.095703"/>
      <use xlink:href="#DejaVuSans-74" x="878.076172"/>
      <use xlink:href="#DejaVuSans-69" x="917.285156"/>
      <use xlink:href="#DejaVuSans-6f" x="945.068359"/>
      <use xlink:href="#DejaVuSans-6e" x="1006.25"/>
     </g>
    </g>
   </g>
   <g id="matplotlib.axis_2">
    <g id="ytick_1">
     <g id="line2d_7">
      <defs>
       <path id="m20708b75a5" d="M 0 0 
L -3.5 0 
" style="stroke: #000000; stroke-width: 0.8"/>
      </defs>
      <g>
       <use xlink:href="#m20708b75a5" x="50.14375" y="273.312" style="stroke: #000000; stroke-width: 0.8"/>
      </g>
     </g>
     <g id="text_8">
      <!-- 0.00 -->
      <g transform="translate(20.878125 277.111219)scale(0.1 -0.1)">
       <use xlink:href="#DejaVuSans-30"/>
       <use xlink:href="#DejaVuSans-2e" x="63.623047"/>
       <use xlink:href="#DejaVuSans-30" x="95.410156"/>
       <use xlink:href="#DejaVuSans-30" x="159.033203"/>
      </g>
     </g>
    </g>
    <g id="ytick_2">
     <g id="line2d_8">
      <g>
       <use xlink:href="#m20708b75a5" x="50.14375" y="242.780033" style="stroke: #000000; stroke-width: 0.8"/>
      </g>
     </g>
     <g id="text_9">
      <!-- 0.25 -->
      <g transform="translate(20.878125 246.579252)scale(0.1 -0.1)">
       <defs>
        <path id="DejaVuSans-35" d="M 691 4666 
L 3169 4666 
L 3169 4134 
L 1269 4134 
L 1269 2991 
Q 1406 3038 1543 3061 
Q 1681 3084 1819 3084 
Q 2600 3084 3056 2656 
Q 3513 2228 3513 1497 
Q 3513 744 3044 326 
Q 2575 -91 1722 -91 
Q 1428 -91 1123 -41 
Q 819 9 494 109 
L 494 744 
Q 775 591 1075 516 
Q 1375 441 1709 441 
Q 2250 441 2565 725 
Q 2881 1009 2881 1497 
Q 2881 1984 2565 2268 
Q 2250 2553 1709 2553 
Q 1456 2553 1204 2497 
Q 953 2441 691 2322 
L 691 4666 
z
" transform="scale(0.015625)"/>
       </defs>
       <use xlink:href="#DejaVuSans-30"/>
       <use xlink:href="#DejaVuSans-2e" x="63.623047"/>
       <use xlink:href="#DejaVuSans-32" x="95.410156"/>
       <use xlink:href="#DejaVuSans-35" x="159.033203"/>
      </g>
     </g>
    </g>
    <g id="ytick_3">
     <g id="line2d_9">
      <g>
       <use xlink:href="#m20708b75a5" x="50.14375" y="212.248066" style="stroke: #000000; stroke-width: 0.8"/>
      </g>
     </g>
     <g id="text_10">
      <!-- 0.50 -->
      <g transform="translate(20.878125 216.047285)scale(0.1 -0.1)">
       <use xlink:href="#DejaVuSans-30"/>
       <use xlink:href="#DejaVuSans-2e" x="63.623047"/>
       <use xlink:href="#DejaVuSans-35" x="95.410156"/>
       <use xlink:href="#DejaVuSans-30" x="159.033203"/>
      </g>
     </g>
    </g>
    <g id="ytick_4">
     <g id="line2d_10">
      <g>
       <use xlink:href="#m20708b75a5" x="50.14375" y="181.716099" style="stroke: #000000; stroke-width: 0.8"/>
      </g>
     </g>
     <g id="text_11">
      <!-- 0.75 -->
      <g transform="translate(20.878125 185.515318)scale(0.1 -0.1)">
       <defs>
        <path id="DejaVuSans-37" d="M 525 4666 
L 3525 4666 
L 3525 4397 
L 1831 0 
L 1172 0 
L 2766 4134 
L 525 4134 
L 525 4666 
z
" transform="scale(0.015625)"/>
       </defs>
       <use xlink:href="#DejaVuSans-30"/>
       <use xlink:href="#DejaVuSans-2e" x="63.623047"/>
       <use xlink:href="#DejaVuSans-37" x="95.410156"/>
       <use xlink:href="#DejaVuSans-35" x="159.033203"/>
      </g>
     </g>
    </g>
    <g id="ytick_5">
     <g id="line2d_11">
      <g>
       <use xlink:href="#m20708b75a5" x="50.14375" y="151.184132" style="stroke: #000000; stroke-width: 0.8"/>
      </g>
     </g>
     <g id="text_12">
      <!-- 1.00 -->
      <g transform="translate(20.878125 154.983351)scale(0.1 -0.1)">
       <use xlink:href="#DejaVuSans-31"/>
       <use xlink:href="#DejaVuSans-2e" x="63.623047"/>
       <use xlink:href="#DejaVuSans-30" x="95.410156"/>
       <use xlink:href="#DejaVuSans-30" x="159.033203"/>
      </g>
     </g>
    </g>
    <g id="ytick_6">
     <g id="line2d_12">
      <g>
       <use xlink:href="#m20708b75a5" x="50.14375" y="120.652165" style="stroke: #000000; stroke-width: 0.8"/>
      </g>
     </g>
     <g id="text_13">
      <!-- 1.25 -->
      <g transform="translate(20.878125 124.451384)scale(0.1 -0.1)">
       <use xlink:href="#DejaVuSans-31"/>
       <use xlink:href="#DejaVuSans-2e" x="63.623047"/>
       <use xlink:href="#DejaVuSans-32" x="95.410156"/>
       <use xlink:href="#DejaVuSans-35" x="159.033203"/>
      </g>
     </g>
    </g>
    <g id="ytick_7">
     <g id="line2d_13">
      <g>
       <use xlink:href="#m20708b75a5" x="50.14375" y="90.120198" style="stroke: #000000; stroke-width: 0.8"/>
      </g>
     </g>
     <g id="text_14">
      <!-- 1.50 -->
      <g transform="translate(20.878125 93.919417)scale(0.1 -0.1)">
       <use xlink:href="#DejaVuSans-31"/>
       <use xlink:href="#DejaVuSans-2e" x="63.623047"/>
       <use xlink:href="#DejaVuSans-35" x="95.410156"/>
       <use xlink:href="#DejaVuSans-30" x="159.033203"/>
      </g>
     </g>
    </g>
    <g id="ytick_8">
     <g id="line2d_14">
      <g>
       <use xlink:href="#m20708b75a5" x="50.14375" y="59.588231" style="stroke: #000000; stroke-width: 0.8"/>
      </g>
     </g>
     <g id="text_15">
      <!-- 1.75 -->
      <g transform="translate(20.878125 63.38745)scale(0.1 -0.1)">
       <use xlink:href="#DejaVuSans-31"/>
       <use xlink:href="#DejaVuSans-2e" x="63.623047"/>
       <use xlink:href="#DejaVuSans-37" x="95.410156"/>
       <use xlink:href="#DejaVuSans-35" x="159.033203"/>
      </g>
     </g>
    </g>
    <g id="ytick_9">
     <g id="line2d_15">
      <g>
       <use xlink:href="#m20708b75a5" x="50.14375" y="29.056264" style="stroke: #000000; stroke-width: 0.8"/>
      </g>
     </g>
     <g id="text_16">
      <!-- 2.00 -->
      <g transform="translate(20.878125 32.855483)scale(0.1 -0.1)">
       <use xlink:href="#DejaVuSans-32"/>
       <use xlink:href="#DejaVuSans-2e" x="63.623047"/>
       <use xlink:href="#DejaVuSans-30" x="95.410156"/>
       <use xlink:href="#DejaVuSans-30" x="159.033203"/>
      </g>
     </g>
    </g>
    <g id="text_17">
     <!-- Probability density -->
     <g transform="translate(14.798438 186.606781)rotate(-90)scale(0.1 -0.1)">
      <defs>
       <path id="DejaVuSans-62" d="M 3116 1747 
Q 3116 2381 2855 2742 
Q 2594 3103 2138 3103 
Q 1681 3103 1420 2742 
Q 1159 2381 1159 1747 
Q 1159 1113 1420 752 
Q 1681 391 2138 391 
Q 2594 391 2855 752 
Q 3116 1113 3116 1747 
z
M 1159 2969 
Q 1341 3281 1617 3432 
Q 1894 3584 2278 3584 
Q 2916 3584 3314 3078 
Q 3713 2572 3713 1747 
Q 3713 922 3314 415 
Q 2916 -91 2278 -91 
Q 1894 -91 1617 61 
Q 1341 213 1159 525 
L 1159 0 
L 581 0 
L 581 4863 
L 1159 4863 
L 1159 2969 
z
" transform="scale(0.015625)"/>
       <path id="DejaVuSans-6c" d="M 603 4863 
L 1178 4863 
L 1178 0 
L 603 0 
L 603 4863 
z
" transform="scale(0.015625)"/>
       <path id="DejaVuSans-79" d="M 2059 -325 
Q 1816 -950 1584 -1140 
Q 1353 -1331 966 -1331 
L 506 -1331 
L 506 -850 
L 844 -850 
Q 1081 -850 1212 -737 
Q 1344 -625 1503 -206 
L 1606 56 
L 191 3500 
L 800 3500 
L 1894 763 
L 2988 3500 
L 3597 3500 
L 2059 -325 
z
" transform="scale(0.015625)"/>
       <path id="DejaVuSans-73" d="M 2834 3397 
L 2834 2853 
Q 2591 2978 2328 3040 
Q 2066 3103 1784 3103 
Q 1356 3103 1142 2972 
Q 928 2841 928 2578 
Q 928 2378 1081 2264 
Q 1234 2150 1697 2047 
L 1894 2003 
Q 2506 1872 2764 1633 
Q 3022 1394 3022 966 
Q 3022 478 2636 193 
Q 2250 -91 1575 -91 
Q 1294 -91 989 -36 
Q 684 19 347 128 
L 347 722 
Q 666 556 975 473 
Q 1284 391 1588 391 
Q 1994 391 2212 530 
Q 2431 669 2431 922 
Q 2431 1156 2273 1281 
Q 2116 1406 1581 1522 
L 1381 1569 
Q 847 1681 609 1914 
Q 372 2147 372 2553 
Q 372 3047 722 3315 
Q 1072 3584 1716 3584 
Q 2034 3584 2315 3537 
Q 2597 3491 2834 3397 
z
" transform="scale(0.015625)"/>
      </defs>
      <use xlink:href="#DejaVuSans-50"/>
      <use xlink:href="#DejaVuSans-72" x="58.552734"/>
      <use xlink:href="#DejaVuSans-6f" x="97.416016"/>
      <use xlink:href="#DejaVuSans-62" x="158.597656"/>
      <use xlink:href="#DejaVuSans-61" x="222.074219"/>
      <use xlink:href="#DejaVuSans-62" x="283.353516"/>
      <use xlink:href="#DejaVuSans-69" x="346.830078"/>
      <use xlink:href="#DejaVuSans-6c" x="374.613281"/>
      <use xlink:href="#DejaVuSans-69" x="402.396484"/>
      <use xlink:href="#DejaVuSans-74" x="430.179688"/>
      <use xlink:href="#DejaVuSans-79" x="469.388672"/>
      <use xlink:href="#DejaVuSans-20" x="528.568359"/>
      <use xlink:href="#DejaVuSans-64" x="560.355469"/>
      <use xlink:href="#DejaVuSans-65" x="623.832031"/>
      <use xlink:href="#DejaVuSans-6e" x="685.355469"/>
      <use xlink:href="#DejaVuSans-73" x="748.734375"/>
      <use xlink:href="#DejaVuSans-69" x="800.833984"/>
      <use xlink:href="#DejaVuSans-74" x="828.617188"/>
      <use xlink:href="#DejaVuSans-79" x="867.826172"/>
     </g>
    </g>
   </g>
   <g id="line2d_16">
    <path d="M 66.376477 273.312 
L 391.031023 29.056264 
L 391.031023 29.056264 
" clip-path="url(#pe366492def)" style="fill: none; stroke: #ff7f0e; stroke-width: 1.5; stroke-linecap: square"/>
   </g>
   <g id="patch_203">
    <path d="M 50.14375 273.312 
L 50.14375 7.2 
" style="fill: none; stroke: #000000; stroke-width: 0.8; stroke-linejoin: miter; stroke-linecap: square"/>
   </g>
   <g id="patch_204">
    <path d="M 407.26375 273.312 
L 407.26375 7.2 
" style="fill: none; stroke: #000000; stroke-width: 0.8; stroke-linejoin: miter; stroke-linecap: square"/>
   </g>
   <g id="patch_205">
    <path d="M 50.14375 273.312 
L 407.26375 273.312 
" style="fill: none; stroke: #000000; stroke-width: 0.8; stroke-linejoin: miter; stroke-linecap: square"/>
   </g>
   <g id="patch_206">
    <path d="M 50.14375 7.2 
L 407.26375 7.2 
" style="fill: none; stroke: #000000; stroke-width: 0.8; stroke-linejoin: miter; stroke-linecap: square"/>
   </g>
  </g>
 </g>
 <defs>
  <clipPath id="pe366492def">
   <rect x="50.14375" y="7.2" width="357.12" height="266.112"/>
  </clipPath>
 </defs>
</svg>
