<?xml version="1.0" encoding="utf-8" standalone="no"?>
<!DOCTYPE svg PUBLIC "-//W3C//DTD SVG 1.1//EN"
  "http://www.w3.org/Graphics/SVG/1.1/DTD/svg11.dtd">
<svg xmlns:xlink="http://www.w3.org/1999/xlink" width="408.10125pt" height="310.86825pt" viewBox="0 0 408.10125 310.86825" xmlns="http://www.w3.org/2000/svg" version="1.1">
 <metadata>
  <rdf:RDF xmlns:dc="http://purl.org/dc/elements/1.1/" xmlns:cc="http://creativecommons.org/ns#" xmlns:rdf="http://www.w3.org/1999/02/22-rdf-syntax-ns#">
   <cc:Work>
    <dc:type rdf:resource="http://purl.org/dc/dcmitype/StillImage"/>
    <dc:date>2022-05-10T18:18:04.027257</dc:date>
    <dc:format>image/svg+xml</dc:format>
    <dc:creator>
     <cc:Agent>
      <dc:title>Matplotlib v3.5.2, https://matplotlib.org/</dc:title>
     </cc:Agent>
    </dc:creator>
   </cc:Work>
  </rdf:RDF>
 </metadata>
 <defs>
  <style type="text/css">*{stroke-linejoin: round; stroke-linecap: butt}</style>
 </defs>
 <g id="figure_1">
  <g id="patch_1">
   <path d="M 0 310.86825 
L 408.10125 310.86825 
L 408.10125 0 
L 0 0 
z
" style="fill: #ffffff"/>
  </g>
  <g id="axes_1">
   <g id="patch_2">
    <path d="M 43.78125 273.312 
L 400.90125 273.312 
L 400.90125 7.2 
L 43.78125 7.2 
z
" style="fill: #ffffff"/>
   </g>
   <g id="patch_3">
    <path d="M 60.804874 273.312 
L 62.415734 273.312 
L 62.415734 270.339097 
L 60.804874 270.339097 
z
" clip-path="url(#p407863cea9)" style="fill: #1f77b4"/>
   </g>
   <g id="patch_4">
    <path d="M 62.415734 273.312 
L 64.026594 273.312 
L 64.026594 271.082323 
L 62.415734 271.082323 
z
" clip-path="url(#p407863cea9)" style="fill: #1f77b4"/>
   </g>
   <g id="patch_5">
    <path d="M 64.026594 273.312 
L 65.637453 273.312 
L 65.637453 262.906839 
L 64.026594 262.906839 
z
" clip-path="url(#p407863cea9)" style="fill: #1f77b4"/>
   </g>
   <g id="patch_6">
    <path d="M 65.637453 273.312 
L 67.248313 273.312 
L 67.248313 253.988129 
L 65.637453 253.988129 
z
" clip-path="url(#p407863cea9)" style="fill: #1f77b4"/>
   </g>
   <g id="patch_7">
    <path d="M 67.248313 273.312 
L 68.859173 273.312 
L 68.859173 259.933935 
L 67.248313 259.933935 
z
" clip-path="url(#p407863cea9)" style="fill: #1f77b4"/>
   </g>
   <g id="patch_8">
    <path d="M 68.859173 273.312 
L 70.470033 273.312 
L 70.470033 255.474581 
L 68.859173 255.474581 
z
" clip-path="url(#p407863cea9)" style="fill: #1f77b4"/>
   </g>
   <g id="patch_9">
    <path d="M 70.470033 273.312 
L 72.080892 273.312 
L 72.080892 253.244903 
L 70.470033 253.244903 
z
" clip-path="url(#p407863cea9)" style="fill: #1f77b4"/>
   </g>
   <g id="patch_10">
    <path d="M 72.080892 273.312 
L 73.691752 273.312 
L 73.691752 245.812645 
L 72.080892 245.812645 
z
" clip-path="url(#p407863cea9)" style="fill: #1f77b4"/>
   </g>
   <g id="patch_11">
    <path d="M 73.691752 273.312 
L 75.302612 273.312 
L 75.302612 232.434581 
L 73.691752 232.434581 
z
" clip-path="url(#p407863cea9)" style="fill: #1f77b4"/>
   </g>
   <g id="patch_12">
    <path d="M 75.302612 273.312 
L 76.913471 273.312 
L 76.913471 233.177806 
L 75.302612 233.177806 
z
" clip-path="url(#p407863cea9)" style="fill: #1f77b4"/>
   </g>
   <g id="patch_13">
    <path d="M 76.913471 273.312 
L 78.524331 273.312 
L 78.524331 234.664258 
L 76.913471 234.664258 
z
" clip-path="url(#p407863cea9)" style="fill: #1f77b4"/>
   </g>
   <g id="patch_14">
    <path d="M 78.524331 273.312 
L 80.135191 273.312 
L 80.135191 227.975226 
L 78.524331 227.975226 
z
" clip-path="url(#p407863cea9)" style="fill: #1f77b4"/>
   </g>
   <g id="patch_15">
    <path d="M 80.135191 273.312 
L 81.746051 273.312 
L 81.746051 214.597161 
L 80.135191 214.597161 
z
" clip-path="url(#p407863cea9)" style="fill: #1f77b4"/>
   </g>
   <g id="patch_16">
    <path d="M 81.746051 273.312 
L 83.35691 273.312 
L 83.35691 222.029419 
L 81.746051 222.029419 
z
" clip-path="url(#p407863cea9)" style="fill: #1f77b4"/>
   </g>
   <g id="patch_17">
    <path d="M 83.35691 273.312 
L 84.96777 273.312 
L 84.96777 207.908129 
L 83.35691 207.908129 
z
" clip-path="url(#p407863cea9)" style="fill: #1f77b4"/>
   </g>
   <g id="patch_18">
    <path d="M 84.96777 273.312 
L 86.57863 273.312 
L 86.57863 218.31329 
L 84.96777 218.31329 
z
" clip-path="url(#p407863cea9)" style="fill: #1f77b4"/>
   </g>
   <g id="patch_19">
    <path d="M 86.57863 273.312 
L 88.189489 273.312 
L 88.189489 216.083613 
L 86.57863 216.083613 
z
" clip-path="url(#p407863cea9)" style="fill: #1f77b4"/>
   </g>
   <g id="patch_20">
    <path d="M 88.189489 273.312 
L 89.800349 273.312 
L 89.800349 195.27329 
L 88.189489 195.27329 
z
" clip-path="url(#p407863cea9)" style="fill: #1f77b4"/>
   </g>
   <g id="patch_21">
    <path d="M 89.800349 273.312 
L 91.411209 273.312 
L 91.411209 205.678452 
L 89.800349 205.678452 
z
" clip-path="url(#p407863cea9)" style="fill: #1f77b4"/>
   </g>
   <g id="patch_22">
    <path d="M 91.411209 273.312 
L 93.022069 273.312 
L 93.022069 223.515871 
L 91.411209 223.515871 
z
" clip-path="url(#p407863cea9)" style="fill: #1f77b4"/>
   </g>
   <g id="patch_23">
    <path d="M 93.022069 273.312 
L 94.632928 273.312 
L 94.632928 194.530065 
L 93.022069 194.530065 
z
" clip-path="url(#p407863cea9)" style="fill: #1f77b4"/>
   </g>
   <g id="patch_24">
    <path d="M 94.632928 273.312 
L 96.243788 273.312 
L 96.243788 201.219097 
L 94.632928 201.219097 
z
" clip-path="url(#p407863cea9)" style="fill: #1f77b4"/>
   </g>
   <g id="patch_25">
    <path d="M 96.243788 273.312 
L 97.854648 273.312 
L 97.854648 209.394581 
L 96.243788 209.394581 
z
" clip-path="url(#p407863cea9)" style="fill: #1f77b4"/>
   </g>
   <g id="patch_26">
    <path d="M 97.854648 273.312 
L 99.465508 273.312 
L 99.465508 182.638452 
L 97.854648 182.638452 
z
" clip-path="url(#p407863cea9)" style="fill: #1f77b4"/>
   </g>
   <g id="patch_27">
    <path d="M 99.465508 273.312 
L 101.076367 273.312 
L 101.076367 181.895226 
L 99.465508 181.895226 
z
" clip-path="url(#p407863cea9)" style="fill: #1f77b4"/>
   </g>
   <g id="patch_28">
    <path d="M 101.076367 273.312 
L 102.687227 273.312 
L 102.687227 180.408774 
L 101.076367 180.408774 
z
" clip-path="url(#p407863cea9)" style="fill: #1f77b4"/>
   </g>
   <g id="patch_29">
    <path d="M 102.687227 273.312 
L 104.298087 273.312 
L 104.298087 184.868129 
L 102.687227 184.868129 
z
" clip-path="url(#p407863cea9)" style="fill: #1f77b4"/>
   </g>
   <g id="patch_30">
    <path d="M 104.298087 273.312 
L 105.908946 273.312 
L 105.908946 175.206194 
L 104.298087 175.206194 
z
" clip-path="url(#p407863cea9)" style="fill: #1f77b4"/>
   </g>
   <g id="patch_31">
    <path d="M 105.908946 273.312 
L 107.519806 273.312 
L 107.519806 158.112 
L 105.908946 158.112 
z
" clip-path="url(#p407863cea9)" style="fill: #1f77b4"/>
   </g>
   <g id="patch_32">
    <path d="M 107.519806 273.312 
L 109.130666 273.312 
L 109.130666 177.435871 
L 107.519806 177.435871 
z
" clip-path="url(#p407863cea9)" style="fill: #1f77b4"/>
   </g>
   <g id="patch_33">
    <path d="M 109.130666 273.312 
L 110.741526 273.312 
L 110.741526 164.801032 
L 109.130666 164.801032 
z
" clip-path="url(#p407863cea9)" style="fill: #1f77b4"/>
   </g>
   <g id="patch_34">
    <path d="M 110.741526 273.312 
L 112.352385 273.312 
L 112.352385 178.179097 
L 110.741526 178.179097 
z
" clip-path="url(#p407863cea9)" style="fill: #1f77b4"/>
   </g>
   <g id="patch_35">
    <path d="M 112.352385 273.312 
L 113.963245 273.312 
L 113.963245 136.558452 
L 112.352385 136.558452 
z
" clip-path="url(#p407863cea9)" style="fill: #1f77b4"/>
   </g>
   <g id="patch_36">
    <path d="M 113.963245 273.312 
L 115.574105 273.312 
L 115.574105 157.368774 
L 113.963245 157.368774 
z
" clip-path="url(#p407863cea9)" style="fill: #1f77b4"/>
   </g>
   <g id="patch_37">
    <path d="M 115.574105 273.312 
L 117.184964 273.312 
L 117.184964 158.112 
L 115.574105 158.112 
z
" clip-path="url(#p407863cea9)" style="fill: #1f77b4"/>
   </g>
   <g id="patch_38">
    <path d="M 117.184964 273.312 
L 118.795824 273.312 
L 118.795824 143.99071 
L 117.184964 143.99071 
z
" clip-path="url(#p407863cea9)" style="fill: #1f77b4"/>
   </g>
   <g id="patch_39">
    <path d="M 118.795824 273.312 
L 120.406684 273.312 
L 120.406684 150.679742 
L 118.795824 150.679742 
z
" clip-path="url(#p407863cea9)" style="fill: #1f77b4"/>
   </g>
   <g id="patch_40">
    <path d="M 120.406684 273.312 
L 122.017544 273.312 
L 122.017544 149.936516 
L 120.406684 149.936516 
z
" clip-path="url(#p407863cea9)" style="fill: #1f77b4"/>
   </g>
   <g id="patch_41">
    <path d="M 122.017544 273.312 
L 123.628403 273.312 
L 123.628403 140.274581 
L 122.017544 140.274581 
z
" clip-path="url(#p407863cea9)" style="fill: #1f77b4"/>
   </g>
   <g id="patch_42">
    <path d="M 123.628403 273.312 
L 125.239263 273.312 
L 125.239263 121.693935 
L 123.628403 121.693935 
z
" clip-path="url(#p407863cea9)" style="fill: #1f77b4"/>
   </g>
   <g id="patch_43">
    <path d="M 125.239263 273.312 
L 126.850123 273.312 
L 126.850123 127.639742 
L 125.239263 127.639742 
z
" clip-path="url(#p407863cea9)" style="fill: #1f77b4"/>
   </g>
   <g id="patch_44">
    <path d="M 126.850123 273.312 
L 128.460983 273.312 
L 128.460983 137.301677 
L 126.850123 137.301677 
z
" clip-path="url(#p407863cea9)" style="fill: #1f77b4"/>
   </g>
   <g id="patch_45">
    <path d="M 128.460983 273.312 
L 130.071842 273.312 
L 130.071842 138.788129 
L 128.460983 138.788129 
z
" clip-path="url(#p407863cea9)" style="fill: #1f77b4"/>
   </g>
   <g id="patch_46">
    <path d="M 130.071842 273.312 
L 131.682702 273.312 
L 131.682702 120.207484 
L 130.071842 120.207484 
z
" clip-path="url(#p407863cea9)" style="fill: #1f77b4"/>
   </g>
   <g id="patch_47">
    <path d="M 131.682702 273.312 
L 133.293562 273.312 
L 133.293562 121.693935 
L 131.682702 121.693935 
z
" clip-path="url(#p407863cea9)" style="fill: #1f77b4"/>
   </g>
   <g id="patch_48">
    <path d="M 133.293562 273.312 
L 134.904421 273.312 
L 134.904421 114.261677 
L 133.293562 114.261677 
z
" clip-path="url(#p407863cea9)" style="fill: #1f77b4"/>
   </g>
   <g id="patch_49">
    <path d="M 134.904421 273.312 
L 136.515281 273.312 
L 136.515281 110.545548 
L 134.904421 110.545548 
z
" clip-path="url(#p407863cea9)" style="fill: #1f77b4"/>
   </g>
   <g id="patch_50">
    <path d="M 136.515281 273.312 
L 138.126141 273.312 
L 138.126141 119.464258 
L 136.515281 119.464258 
z
" clip-path="url(#p407863cea9)" style="fill: #1f77b4"/>
   </g>
   <g id="patch_51">
    <path d="M 138.126141 273.312 
L 139.737001 273.312 
L 139.737001 129.126194 
L 138.126141 129.126194 
z
" clip-path="url(#p407863cea9)" style="fill: #1f77b4"/>
   </g>
   <g id="patch_52">
    <path d="M 139.737001 273.312 
L 141.34786 273.312 
L 141.34786 113.518452 
L 139.737001 113.518452 
z
" clip-path="url(#p407863cea9)" style="fill: #1f77b4"/>
   </g>
   <g id="patch_53">
    <path d="M 141.34786 273.312 
L 142.95872 273.312 
L 142.95872 117.234581 
L 141.34786 117.234581 
z
" clip-path="url(#p407863cea9)" style="fill: #1f77b4"/>
   </g>
   <g id="patch_54">
    <path d="M 142.95872 273.312 
L 144.56958 273.312 
L 144.56958 94.937806 
L 142.95872 94.937806 
z
" clip-path="url(#p407863cea9)" style="fill: #1f77b4"/>
   </g>
   <g id="patch_55">
    <path d="M 144.56958 273.312 
L 146.180439 273.312 
L 146.180439 97.91071 
L 144.56958 97.91071 
z
" clip-path="url(#p407863cea9)" style="fill: #1f77b4"/>
   </g>
   <g id="patch_56">
    <path d="M 146.180439 273.312 
L 147.791299 273.312 
L 147.791299 100.883613 
L 146.180439 100.883613 
z
" clip-path="url(#p407863cea9)" style="fill: #1f77b4"/>
   </g>
   <g id="patch_57">
    <path d="M 147.791299 273.312 
L 149.402159 273.312 
L 149.402159 105.342968 
L 147.791299 105.342968 
z
" clip-path="url(#p407863cea9)" style="fill: #1f77b4"/>
   </g>
   <g id="patch_58">
    <path d="M 149.402159 273.312 
L 151.013019 273.312 
L 151.013019 94.937806 
L 149.402159 94.937806 
z
" clip-path="url(#p407863cea9)" style="fill: #1f77b4"/>
   </g>
   <g id="patch_59">
    <path d="M 151.013019 273.312 
L 152.623878 273.312 
L 152.623878 72.641032 
L 151.013019 72.641032 
z
" clip-path="url(#p407863cea9)" style="fill: #1f77b4"/>
   </g>
   <g id="patch_60">
    <path d="M 152.623878 273.312 
L 154.234738 273.312 
L 154.234738 109.802323 
L 152.623878 109.802323 
z
" clip-path="url(#p407863cea9)" style="fill: #1f77b4"/>
   </g>
   <g id="patch_61">
    <path d="M 154.234738 273.312 
L 155.845598 273.312 
L 155.845598 112.775226 
L 154.234738 112.775226 
z
" clip-path="url(#p407863cea9)" style="fill: #1f77b4"/>
   </g>
   <g id="patch_62">
    <path d="M 155.845598 273.312 
L 157.456457 273.312 
L 157.456457 77.843613 
L 155.845598 77.843613 
z
" clip-path="url(#p407863cea9)" style="fill: #1f77b4"/>
   </g>
   <g id="patch_63">
    <path d="M 157.456457 273.312 
L 159.067317 273.312 
L 159.067317 99.397161 
L 157.456457 99.397161 
z
" clip-path="url(#p407863cea9)" style="fill: #1f77b4"/>
   </g>
   <g id="patch_64">
    <path d="M 159.067317 273.312 
L 160.678177 273.312 
L 160.678177 92.708129 
L 159.067317 92.708129 
z
" clip-path="url(#p407863cea9)" style="fill: #1f77b4"/>
   </g>
   <g id="patch_65">
    <path d="M 160.678177 273.312 
L 162.289037 273.312 
L 162.289037 71.897806 
L 160.678177 71.897806 
z
" clip-path="url(#p407863cea9)" style="fill: #1f77b4"/>
   </g>
   <g id="patch_66">
    <path d="M 162.289037 273.312 
L 163.899896 273.312 
L 163.899896 52.573935 
L 162.289037 52.573935 
z
" clip-path="url(#p407863cea9)" style="fill: #1f77b4"/>
   </g>
   <g id="patch_67">
    <path d="M 163.899896 273.312 
L 165.510756 273.312 
L 165.510756 77.100387 
L 163.899896 77.100387 
z
" clip-path="url(#p407863cea9)" style="fill: #1f77b4"/>
   </g>
   <g id="patch_68">
    <path d="M 165.510756 273.312 
L 167.121616 273.312 
L 167.121616 65.208774 
L 165.510756 65.208774 
z
" clip-path="url(#p407863cea9)" style="fill: #1f77b4"/>
   </g>
   <g id="patch_69">
    <path d="M 167.121616 273.312 
L 168.732476 273.312 
L 168.732476 94.937806 
L 167.121616 94.937806 
z
" clip-path="url(#p407863cea9)" style="fill: #1f77b4"/>
   </g>
   <g id="patch_70">
    <path d="M 168.732476 273.312 
L 170.343335 273.312 
L 170.343335 98.653935 
L 168.732476 98.653935 
z
" clip-path="url(#p407863cea9)" style="fill: #1f77b4"/>
   </g>
   <g id="patch_71">
    <path d="M 170.343335 273.312 
L 171.954195 273.312 
L 171.954195 77.100387 
L 170.343335 77.100387 
z
" clip-path="url(#p407863cea9)" style="fill: #1f77b4"/>
   </g>
   <g id="patch_72">
    <path d="M 171.954195 273.312 
L 173.565055 273.312 
L 173.565055 77.100387 
L 171.954195 77.100387 
z
" clip-path="url(#p407863cea9)" style="fill: #1f77b4"/>
   </g>
   <g id="patch_73">
    <path d="M 173.565055 273.312 
L 175.175914 273.312 
L 175.175914 83.046194 
L 173.565055 83.046194 
z
" clip-path="url(#p407863cea9)" style="fill: #1f77b4"/>
   </g>
   <g id="patch_74">
    <path d="M 175.175914 273.312 
L 176.786774 273.312 
L 176.786774 64.465548 
L 175.175914 64.465548 
z
" clip-path="url(#p407863cea9)" style="fill: #1f77b4"/>
   </g>
   <g id="patch_75">
    <path d="M 176.786774 273.312 
L 178.397634 273.312 
L 178.397634 59.262968 
L 176.786774 59.262968 
z
" clip-path="url(#p407863cea9)" style="fill: #1f77b4"/>
   </g>
   <g id="patch_76">
    <path d="M 178.397634 273.312 
L 180.008494 273.312 
L 180.008494 68.181677 
L 178.397634 68.181677 
z
" clip-path="url(#p407863cea9)" style="fill: #1f77b4"/>
   </g>
   <g id="patch_77">
    <path d="M 180.008494 273.312 
L 181.619353 273.312 
L 181.619353 55.546839 
L 180.008494 55.546839 
z
" clip-path="url(#p407863cea9)" style="fill: #1f77b4"/>
   </g>
   <g id="patch_78">
    <path d="M 181.619353 273.312 
L 183.230213 273.312 
L 183.230213 46.628129 
L 181.619353 46.628129 
z
" clip-path="url(#p407863cea9)" style="fill: #1f77b4"/>
   </g>
   <g id="patch_79">
    <path d="M 183.230213 273.312 
L 184.841073 273.312 
L 184.841073 62.235871 
L 183.230213 62.235871 
z
" clip-path="url(#p407863cea9)" style="fill: #1f77b4"/>
   </g>
   <g id="patch_80">
    <path d="M 184.841073 273.312 
L 186.451932 273.312 
L 186.451932 53.317161 
L 184.841073 53.317161 
z
" clip-path="url(#p407863cea9)" style="fill: #1f77b4"/>
   </g>
   <g id="patch_81">
    <path d="M 186.451932 273.312 
L 188.062792 273.312 
L 188.062792 43.655226 
L 186.451932 43.655226 
z
" clip-path="url(#p407863cea9)" style="fill: #1f77b4"/>
   </g>
   <g id="patch_82">
    <path d="M 188.062792 273.312 
L 189.673652 273.312 
L 189.673652 53.317161 
L 188.062792 53.317161 
z
" clip-path="url(#p407863cea9)" style="fill: #1f77b4"/>
   </g>
   <g id="patch_83">
    <path d="M 189.673652 273.312 
L 191.284512 273.312 
L 191.284512 52.573935 
L 189.673652 52.573935 
z
" clip-path="url(#p407863cea9)" style="fill: #1f77b4"/>
   </g>
   <g id="patch_84">
    <path d="M 191.284512 273.312 
L 192.895371 273.312 
L 192.895371 44.398452 
L 191.284512 44.398452 
z
" clip-path="url(#p407863cea9)" style="fill: #1f77b4"/>
   </g>
   <g id="patch_85">
    <path d="M 192.895371 273.312 
L 194.506231 273.312 
L 194.506231 62.235871 
L 192.895371 62.235871 
z
" clip-path="url(#p407863cea9)" style="fill: #1f77b4"/>
   </g>
   <g id="patch_86">
    <path d="M 194.506231 273.312 
L 196.117091 273.312 
L 196.117091 40.682323 
L 194.506231 40.682323 
z
" clip-path="url(#p407863cea9)" style="fill: #1f77b4"/>
   </g>
   <g id="patch_87">
    <path d="M 196.117091 273.312 
L 197.727951 273.312 
L 197.727951 42.168774 
L 196.117091 42.168774 
z
" clip-path="url(#p407863cea9)" style="fill: #1f77b4"/>
   </g>
   <g id="patch_88">
    <path d="M 197.727951 273.312 
L 199.33881 273.312 
L 199.33881 63.722323 
L 197.727951 63.722323 
z
" clip-path="url(#p407863cea9)" style="fill: #1f77b4"/>
   </g>
   <g id="patch_89">
    <path d="M 199.33881 273.312 
L 200.94967 273.312 
L 200.94967 31.763613 
L 199.33881 31.763613 
z
" clip-path="url(#p407863cea9)" style="fill: #1f77b4"/>
   </g>
   <g id="patch_90">
    <path d="M 200.94967 273.312 
L 202.56053 273.312 
L 202.56053 25.817806 
L 200.94967 25.817806 
z
" clip-path="url(#p407863cea9)" style="fill: #1f77b4"/>
   </g>
   <g id="patch_91">
    <path d="M 202.56053 273.312 
L 204.171389 273.312 
L 204.171389 37.709419 
L 202.56053 37.709419 
z
" clip-path="url(#p407863cea9)" style="fill: #1f77b4"/>
   </g>
   <g id="patch_92">
    <path d="M 204.171389 273.312 
L 205.782249 273.312 
L 205.782249 81.559742 
L 204.171389 81.559742 
z
" clip-path="url(#p407863cea9)" style="fill: #1f77b4"/>
   </g>
   <g id="patch_93">
    <path d="M 205.782249 273.312 
L 207.393109 273.312 
L 207.393109 37.709419 
L 205.782249 37.709419 
z
" clip-path="url(#p407863cea9)" style="fill: #1f77b4"/>
   </g>
   <g id="patch_94">
    <path d="M 207.393109 273.312 
L 209.003969 273.312 
L 209.003969 48.114581 
L 207.393109 48.114581 
z
" clip-path="url(#p407863cea9)" style="fill: #1f77b4"/>
   </g>
   <g id="patch_95">
    <path d="M 209.003969 273.312 
L 210.614828 273.312 
L 210.614828 62.235871 
L 209.003969 62.235871 
z
" clip-path="url(#p407863cea9)" style="fill: #1f77b4"/>
   </g>
   <g id="patch_96">
    <path d="M 210.614828 273.312 
L 212.225688 273.312 
L 212.225688 43.655226 
L 210.614828 43.655226 
z
" clip-path="url(#p407863cea9)" style="fill: #1f77b4"/>
   </g>
   <g id="patch_97">
    <path d="M 212.225688 273.312 
L 213.836548 273.312 
L 213.836548 51.83071 
L 212.225688 51.83071 
z
" clip-path="url(#p407863cea9)" style="fill: #1f77b4"/>
   </g>
   <g id="patch_98">
    <path d="M 213.836548 273.312 
L 215.447407 273.312 
L 215.447407 54.803613 
L 213.836548 54.803613 
z
" clip-path="url(#p407863cea9)" style="fill: #1f77b4"/>
   </g>
   <g id="patch_99">
    <path d="M 215.447407 273.312 
L 217.058267 273.312 
L 217.058267 23.588129 
L 215.447407 23.588129 
z
" clip-path="url(#p407863cea9)" style="fill: #1f77b4"/>
   </g>
   <g id="patch_100">
    <path d="M 217.058267 273.312 
L 218.669127 273.312 
L 218.669127 39.939097 
L 217.058267 39.939097 
z
" clip-path="url(#p407863cea9)" style="fill: #1f77b4"/>
   </g>
   <g id="patch_101">
    <path d="M 218.669127 273.312 
L 220.279987 273.312 
L 220.279987 40.682323 
L 218.669127 40.682323 
z
" clip-path="url(#p407863cea9)" style="fill: #1f77b4"/>
   </g>
   <g id="patch_102">
    <path d="M 220.279987 273.312 
L 221.890846 273.312 
L 221.890846 36.222968 
L 220.279987 36.222968 
z
" clip-path="url(#p407863cea9)" style="fill: #1f77b4"/>
   </g>
   <g id="patch_103">
    <path d="M 221.890846 273.312 
L 223.501706 273.312 
L 223.501706 19.872 
L 221.890846 19.872 
z
" clip-path="url(#p407863cea9)" style="fill: #1f77b4"/>
   </g>
   <g id="patch_104">
    <path d="M 223.501706 273.312 
L 225.112566 273.312 
L 225.112566 46.628129 
L 223.501706 46.628129 
z
" clip-path="url(#p407863cea9)" style="fill: #1f77b4"/>
   </g>
   <g id="patch_105">
    <path d="M 225.112566 273.312 
L 226.723425 273.312 
L 226.723425 31.763613 
L 225.112566 31.763613 
z
" clip-path="url(#p407863cea9)" style="fill: #1f77b4"/>
   </g>
   <g id="patch_106">
    <path d="M 226.723425 273.312 
L 228.334285 273.312 
L 228.334285 57.776516 
L 226.723425 57.776516 
z
" clip-path="url(#p407863cea9)" style="fill: #1f77b4"/>
   </g>
   <g id="patch_107">
    <path d="M 228.334285 273.312 
L 229.945145 273.312 
L 229.945145 28.79071 
L 228.334285 28.79071 
z
" clip-path="url(#p407863cea9)" style="fill: #1f77b4"/>
   </g>
   <g id="patch_108">
    <path d="M 229.945145 273.312 
L 231.556005 273.312 
L 231.556005 20.615226 
L 229.945145 20.615226 
z
" clip-path="url(#p407863cea9)" style="fill: #1f77b4"/>
   </g>
   <g id="patch_109">
    <path d="M 231.556005 273.312 
L 233.166864 273.312 
L 233.166864 45.884903 
L 231.556005 45.884903 
z
" clip-path="url(#p407863cea9)" style="fill: #1f77b4"/>
   </g>
   <g id="patch_110">
    <path d="M 233.166864 273.312 
L 234.777724 273.312 
L 234.777724 48.857806 
L 233.166864 48.857806 
z
" clip-path="url(#p407863cea9)" style="fill: #1f77b4"/>
   </g>
   <g id="patch_111">
    <path d="M 234.777724 273.312 
L 236.388584 273.312 
L 236.388584 48.857806 
L 234.777724 48.857806 
z
" clip-path="url(#p407863cea9)" style="fill: #1f77b4"/>
   </g>
   <g id="patch_112">
    <path d="M 236.388584 273.312 
L 237.999444 273.312 
L 237.999444 33.99329 
L 236.388584 33.99329 
z
" clip-path="url(#p407863cea9)" style="fill: #1f77b4"/>
   </g>
   <g id="patch_113">
    <path d="M 237.999444 273.312 
L 239.610303 273.312 
L 239.610303 33.250065 
L 237.999444 33.250065 
z
" clip-path="url(#p407863cea9)" style="fill: #1f77b4"/>
   </g>
   <g id="patch_114">
    <path d="M 239.610303 273.312 
L 241.221163 273.312 
L 241.221163 38.452645 
L 239.610303 38.452645 
z
" clip-path="url(#p407863cea9)" style="fill: #1f77b4"/>
   </g>
   <g id="patch_115">
    <path d="M 241.221163 273.312 
L 242.832023 273.312 
L 242.832023 60.006194 
L 241.221163 60.006194 
z
" clip-path="url(#p407863cea9)" style="fill: #1f77b4"/>
   </g>
   <g id="patch_116">
    <path d="M 242.832023 273.312 
L 244.442882 273.312 
L 244.442882 44.398452 
L 242.832023 44.398452 
z
" clip-path="url(#p407863cea9)" style="fill: #1f77b4"/>
   </g>
   <g id="patch_117">
    <path d="M 244.442882 273.312 
L 246.053742 273.312 
L 246.053742 22.101677 
L 244.442882 22.101677 
z
" clip-path="url(#p407863cea9)" style="fill: #1f77b4"/>
   </g>
   <g id="patch_118">
    <path d="M 246.053742 273.312 
L 247.664602 273.312 
L 247.664602 74.127484 
L 246.053742 74.127484 
z
" clip-path="url(#p407863cea9)" style="fill: #1f77b4"/>
   </g>
   <g id="patch_119">
    <path d="M 247.664602 273.312 
L 249.275462 273.312 
L 249.275462 45.141677 
L 247.664602 45.141677 
z
" clip-path="url(#p407863cea9)" style="fill: #1f77b4"/>
   </g>
   <g id="patch_120">
    <path d="M 249.275462 273.312 
L 250.886321 273.312 
L 250.886321 40.682323 
L 249.275462 40.682323 
z
" clip-path="url(#p407863cea9)" style="fill: #1f77b4"/>
   </g>
   <g id="patch_121">
    <path d="M 250.886321 273.312 
L 252.497181 273.312 
L 252.497181 56.290065 
L 250.886321 56.290065 
z
" clip-path="url(#p407863cea9)" style="fill: #1f77b4"/>
   </g>
   <g id="patch_122">
    <path d="M 252.497181 273.312 
L 254.108041 273.312 
L 254.108041 62.235871 
L 252.497181 62.235871 
z
" clip-path="url(#p407863cea9)" style="fill: #1f77b4"/>
   </g>
   <g id="patch_123">
    <path d="M 254.108041 273.312 
L 255.7189 273.312 
L 255.7189 60.749419 
L 254.108041 60.749419 
z
" clip-path="url(#p407863cea9)" style="fill: #1f77b4"/>
   </g>
   <g id="patch_124">
    <path d="M 255.7189 273.312 
L 257.32976 273.312 
L 257.32976 34.736516 
L 255.7189 34.736516 
z
" clip-path="url(#p407863cea9)" style="fill: #1f77b4"/>
   </g>
   <g id="patch_125">
    <path d="M 257.32976 273.312 
L 258.94062 273.312 
L 258.94062 54.803613 
L 257.32976 54.803613 
z
" clip-path="url(#p407863cea9)" style="fill: #1f77b4"/>
   </g>
   <g id="patch_126">
    <path d="M 258.94062 273.312 
L 260.55148 273.312 
L 260.55148 51.83071 
L 258.94062 51.83071 
z
" clip-path="url(#p407863cea9)" style="fill: #1f77b4"/>
   </g>
   <g id="patch_127">
    <path d="M 260.55148 273.312 
L 262.162339 273.312 
L 262.162339 68.181677 
L 260.55148 68.181677 
z
" clip-path="url(#p407863cea9)" style="fill: #1f77b4"/>
   </g>
   <g id="patch_128">
    <path d="M 262.162339 273.312 
L 263.773199 273.312 
L 263.773199 75.613935 
L 262.162339 75.613935 
z
" clip-path="url(#p407863cea9)" style="fill: #1f77b4"/>
   </g>
   <g id="patch_129">
    <path d="M 263.773199 273.312 
L 265.384059 273.312 
L 265.384059 60.006194 
L 263.773199 60.006194 
z
" clip-path="url(#p407863cea9)" style="fill: #1f77b4"/>
   </g>
   <g id="patch_130">
    <path d="M 265.384059 273.312 
L 266.994919 273.312 
L 266.994919 48.857806 
L 265.384059 48.857806 
z
" clip-path="url(#p407863cea9)" style="fill: #1f77b4"/>
   </g>
   <g id="patch_131">
    <path d="M 266.994919 273.312 
L 268.605778 273.312 
L 268.605778 59.262968 
L 266.994919 59.262968 
z
" clip-path="url(#p407863cea9)" style="fill: #1f77b4"/>
   </g>
   <g id="patch_132">
    <path d="M 268.605778 273.312 
L 270.216638 273.312 
L 270.216638 93.451355 
L 268.605778 93.451355 
z
" clip-path="url(#p407863cea9)" style="fill: #1f77b4"/>
   </g>
   <g id="patch_133">
    <path d="M 270.216638 273.312 
L 271.827498 273.312 
L 271.827498 61.492645 
L 270.216638 61.492645 
z
" clip-path="url(#p407863cea9)" style="fill: #1f77b4"/>
   </g>
   <g id="patch_134">
    <path d="M 271.827498 273.312 
L 273.438357 273.312 
L 273.438357 62.979097 
L 271.827498 62.979097 
z
" clip-path="url(#p407863cea9)" style="fill: #1f77b4"/>
   </g>
   <g id="patch_135">
    <path d="M 273.438357 273.312 
L 275.049217 273.312 
L 275.049217 78.586839 
L 273.438357 78.586839 
z
" clip-path="url(#p407863cea9)" style="fill: #1f77b4"/>
   </g>
   <g id="patch_136">
    <path d="M 275.049217 273.312 
L 276.660077 273.312 
L 276.660077 61.492645 
L 275.049217 61.492645 
z
" clip-path="url(#p407863cea9)" style="fill: #1f77b4"/>
   </g>
   <g id="patch_137">
    <path d="M 276.660077 273.312 
L 278.270937 273.312 
L 278.270937 83.046194 
L 276.660077 83.046194 
z
" clip-path="url(#p407863cea9)" style="fill: #1f77b4"/>
   </g>
   <g id="patch_138">
    <path d="M 278.270937 273.312 
L 279.881796 273.312 
L 279.881796 74.87071 
L 278.270937 74.87071 
z
" clip-path="url(#p407863cea9)" style="fill: #1f77b4"/>
   </g>
   <g id="patch_139">
    <path d="M 279.881796 273.312 
L 281.492656 273.312 
L 281.492656 62.979097 
L 279.881796 62.979097 
z
" clip-path="url(#p407863cea9)" style="fill: #1f77b4"/>
   </g>
   <g id="patch_140">
    <path d="M 281.492656 273.312 
L 283.103516 273.312 
L 283.103516 70.411355 
L 281.492656 70.411355 
z
" clip-path="url(#p407863cea9)" style="fill: #1f77b4"/>
   </g>
   <g id="patch_141">
    <path d="M 283.103516 273.312 
L 284.714375 273.312 
L 284.714375 96.424258 
L 283.103516 96.424258 
z
" clip-path="url(#p407863cea9)" style="fill: #1f77b4"/>
   </g>
   <g id="patch_142">
    <path d="M 284.714375 273.312 
L 286.325235 273.312 
L 286.325235 71.897806 
L 284.714375 71.897806 
z
" clip-path="url(#p407863cea9)" style="fill: #1f77b4"/>
   </g>
   <g id="patch_143">
    <path d="M 286.325235 273.312 
L 287.936095 273.312 
L 287.936095 91.221677 
L 286.325235 91.221677 
z
" clip-path="url(#p407863cea9)" style="fill: #1f77b4"/>
   </g>
   <g id="patch_144">
    <path d="M 287.936095 273.312 
L 289.546955 273.312 
L 289.546955 97.91071 
L 287.936095 97.91071 
z
" clip-path="url(#p407863cea9)" style="fill: #1f77b4"/>
   </g>
   <g id="patch_145">
    <path d="M 289.546955 273.312 
L 291.157814 273.312 
L 291.157814 96.424258 
L 289.546955 96.424258 
z
" clip-path="url(#p407863cea9)" style="fill: #1f77b4"/>
   </g>
   <g id="patch_146">
    <path d="M 291.157814 273.312 
L 292.768674 273.312 
L 292.768674 94.194581 
L 291.157814 94.194581 
z
" clip-path="url(#p407863cea9)" style="fill: #1f77b4"/>
   </g>
   <g id="patch_147">
    <path d="M 292.768674 273.312 
L 294.379534 273.312 
L 294.379534 73.384258 
L 292.768674 73.384258 
z
" clip-path="url(#p407863cea9)" style="fill: #1f77b4"/>
   </g>
   <g id="patch_148">
    <path d="M 294.379534 273.312 
L 295.990393 273.312 
L 295.990393 95.681032 
L 294.379534 95.681032 
z
" clip-path="url(#p407863cea9)" style="fill: #1f77b4"/>
   </g>
   <g id="patch_149">
    <path d="M 295.990393 273.312 
L 297.601253 273.312 
L 297.601253 90.478452 
L 295.990393 90.478452 
z
" clip-path="url(#p407863cea9)" style="fill: #1f77b4"/>
   </g>
   <g id="patch_150">
    <path d="M 297.601253 273.312 
L 299.212113 273.312 
L 299.212113 100.140387 
L 297.601253 100.140387 
z
" clip-path="url(#p407863cea9)" style="fill: #1f77b4"/>
   </g>
   <g id="patch_151">
    <path d="M 299.212113 273.312 
L 300.822973 273.312 
L 300.822973 108.315871 
L 299.212113 108.315871 
z
" clip-path="url(#p407863cea9)" style="fill: #1f77b4"/>
   </g>
   <g id="patch_152">
    <path d="M 300.822973 273.312 
L 302.433832 273.312 
L 302.433832 110.545548 
L 300.822973 110.545548 
z
" clip-path="url(#p407863cea9)" style="fill: #1f77b4"/>
   </g>
   <g id="patch_153">
    <path d="M 302.433832 273.312 
L 304.044692 273.312 
L 304.044692 98.653935 
L 302.433832 98.653935 
z
" clip-path="url(#p407863cea9)" style="fill: #1f77b4"/>
   </g>
   <g id="patch_154">
    <path d="M 304.044692 273.312 
L 305.655552 273.312 
L 305.655552 120.95071 
L 304.044692 120.95071 
z
" clip-path="url(#p407863cea9)" style="fill: #1f77b4"/>
   </g>
   <g id="patch_155">
    <path d="M 305.655552 273.312 
L 307.266412 273.312 
L 307.266412 124.666839 
L 305.655552 124.666839 
z
" clip-path="url(#p407863cea9)" style="fill: #1f77b4"/>
   </g>
   <g id="patch_156">
    <path d="M 307.266412 273.312 
L 308.877271 273.312 
L 308.877271 107.572645 
L 307.266412 107.572645 
z
" clip-path="url(#p407863cea9)" style="fill: #1f77b4"/>
   </g>
   <g id="patch_157">
    <path d="M 308.877271 273.312 
L 310.488131 273.312 
L 310.488131 120.207484 
L 308.877271 120.207484 
z
" clip-path="url(#p407863cea9)" style="fill: #1f77b4"/>
   </g>
   <g id="patch_158">
    <path d="M 310.488131 273.312 
L 312.098991 273.312 
L 312.098991 136.558452 
L 310.488131 136.558452 
z
" clip-path="url(#p407863cea9)" style="fill: #1f77b4"/>
   </g>
   <g id="patch_159">
    <path d="M 312.098991 273.312 
L 313.70985 273.312 
L 313.70985 131.355871 
L 312.098991 131.355871 
z
" clip-path="url(#p407863cea9)" style="fill: #1f77b4"/>
   </g>
   <g id="patch_160">
    <path d="M 313.70985 273.312 
L 315.32071 273.312 
L 315.32071 113.518452 
L 313.70985 113.518452 
z
" clip-path="url(#p407863cea9)" style="fill: #1f77b4"/>
   </g>
   <g id="patch_161">
    <path d="M 315.32071 273.312 
L 316.93157 273.312 
L 316.93157 123.923613 
L 315.32071 123.923613 
z
" clip-path="url(#p407863cea9)" style="fill: #1f77b4"/>
   </g>
   <g id="patch_162">
    <path d="M 316.93157 273.312 
L 318.54243 273.312 
L 318.54243 132.842323 
L 316.93157 132.842323 
z
" clip-path="url(#p407863cea9)" style="fill: #1f77b4"/>
   </g>
   <g id="patch_163">
    <path d="M 318.54243 273.312 
L 320.153289 273.312 
L 320.153289 133.585548 
L 318.54243 133.585548 
z
" clip-path="url(#p407863cea9)" style="fill: #1f77b4"/>
   </g>
   <g id="patch_164">
    <path d="M 320.153289 273.312 
L 321.764149 273.312 
L 321.764149 147.706839 
L 320.153289 147.706839 
z
" clip-path="url(#p407863cea9)" style="fill: #1f77b4"/>
   </g>
   <g id="patch_165">
    <path d="M 321.764149 273.312 
L 323.375009 273.312 
L 323.375009 129.869419 
L 321.764149 129.869419 
z
" clip-path="url(#p407863cea9)" style="fill: #1f77b4"/>
   </g>
   <g id="patch_166">
    <path d="M 323.375009 273.312 
L 324.985868 273.312 
L 324.985868 146.220387 
L 323.375009 146.220387 
z
" clip-path="url(#p407863cea9)" style="fill: #1f77b4"/>
   </g>
   <g id="patch_167">
    <path d="M 324.985868 273.312 
L 326.596728 273.312 
L 326.596728 139.531355 
L 324.985868 139.531355 
z
" clip-path="url(#p407863cea9)" style="fill: #1f77b4"/>
   </g>
   <g id="patch_168">
    <path d="M 326.596728 273.312 
L 328.207588 273.312 
L 328.207588 155.882323 
L 326.596728 155.882323 
z
" clip-path="url(#p407863cea9)" style="fill: #1f77b4"/>
   </g>
   <g id="patch_169">
    <path d="M 328.207588 273.312 
L 329.818448 273.312 
L 329.818448 161.828129 
L 328.207588 161.828129 
z
" clip-path="url(#p407863cea9)" style="fill: #1f77b4"/>
   </g>
   <g id="patch_170">
    <path d="M 329.818448 273.312 
L 331.429307 273.312 
L 331.429307 149.19329 
L 329.818448 149.19329 
z
" clip-path="url(#p407863cea9)" style="fill: #1f77b4"/>
   </g>
   <g id="patch_171">
    <path d="M 331.429307 273.312 
L 333.040167 273.312 
L 333.040167 170.746839 
L 331.429307 170.746839 
z
" clip-path="url(#p407863cea9)" style="fill: #1f77b4"/>
   </g>
   <g id="patch_172">
    <path d="M 333.040167 273.312 
L 334.651027 273.312 
L 334.651027 164.057806 
L 333.040167 164.057806 
z
" clip-path="url(#p407863cea9)" style="fill: #1f77b4"/>
   </g>
   <g id="patch_173">
    <path d="M 334.651027 273.312 
L 336.261887 273.312 
L 336.261887 168.517161 
L 334.651027 168.517161 
z
" clip-path="url(#p407863cea9)" style="fill: #1f77b4"/>
   </g>
   <g id="patch_174">
    <path d="M 336.261887 273.312 
L 337.872746 273.312 
L 337.872746 170.003613 
L 336.261887 170.003613 
z
" clip-path="url(#p407863cea9)" style="fill: #1f77b4"/>
   </g>
   <g id="patch_175">
    <path d="M 337.872746 273.312 
L 339.483606 273.312 
L 339.483606 175.206194 
L 337.872746 175.206194 
z
" clip-path="url(#p407863cea9)" style="fill: #1f77b4"/>
   </g>
   <g id="patch_176">
    <path d="M 339.483606 273.312 
L 341.094466 273.312 
L 341.094466 183.381677 
L 339.483606 183.381677 
z
" clip-path="url(#p407863cea9)" style="fill: #1f77b4"/>
   </g>
   <g id="patch_177">
    <path d="M 341.094466 273.312 
L 342.705325 273.312 
L 342.705325 194.530065 
L 341.094466 194.530065 
z
" clip-path="url(#p407863cea9)" style="fill: #1f77b4"/>
   </g>
   <g id="patch_178">
    <path d="M 342.705325 273.312 
L 344.316185 273.312 
L 344.316185 182.638452 
L 342.705325 182.638452 
z
" clip-path="url(#p407863cea9)" style="fill: #1f77b4"/>
   </g>
   <g id="patch_179">
    <path d="M 344.316185 273.312 
L 345.927045 273.312 
L 345.927045 187.841032 
L 344.316185 187.841032 
z
" clip-path="url(#p407863cea9)" style="fill: #1f77b4"/>
   </g>
   <g id="patch_180">
    <path d="M 345.927045 273.312 
L 347.537905 273.312 
L 347.537905 188.584258 
L 345.927045 188.584258 
z
" clip-path="url(#p407863cea9)" style="fill: #1f77b4"/>
   </g>
   <g id="patch_181">
    <path d="M 347.537905 273.312 
L 349.148764 273.312 
L 349.148764 172.976516 
L 347.537905 172.976516 
z
" clip-path="url(#p407863cea9)" style="fill: #1f77b4"/>
   </g>
   <g id="patch_182">
    <path d="M 349.148764 273.312 
L 350.759624 273.312 
L 350.759624 187.841032 
L 349.148764 187.841032 
z
" clip-path="url(#p407863cea9)" style="fill: #1f77b4"/>
   </g>
   <g id="patch_183">
    <path d="M 350.759624 273.312 
L 352.370484 273.312 
L 352.370484 207.164903 
L 350.759624 207.164903 
z
" clip-path="url(#p407863cea9)" style="fill: #1f77b4"/>
   </g>
   <g id="patch_184">
    <path d="M 352.370484 273.312 
L 353.981343 273.312 
L 353.981343 190.07071 
L 352.370484 190.07071 
z
" clip-path="url(#p407863cea9)" style="fill: #1f77b4"/>
   </g>
   <g id="patch_185">
    <path d="M 353.981343 273.312 
L 355.592203 273.312 
L 355.592203 201.219097 
L 353.981343 201.219097 
z
" clip-path="url(#p407863cea9)" style="fill: #1f77b4"/>
   </g>
   <g id="patch_186">
    <path d="M 355.592203 273.312 
L 357.203063 273.312 
L 357.203063 203.448774 
L 355.592203 203.448774 
z
" clip-path="url(#p407863cea9)" style="fill: #1f77b4"/>
   </g>
   <g id="patch_187">
    <path d="M 357.203063 273.312 
L 358.813923 273.312 
L 358.813923 220.542968 
L 357.203063 220.542968 
z
" clip-path="url(#p407863cea9)" style="fill: #1f77b4"/>
   </g>
   <g id="patch_188">
    <path d="M 358.813923 273.312 
L 360.424782 273.312 
L 360.424782 220.542968 
L 358.813923 220.542968 
z
" clip-path="url(#p407863cea9)" style="fill: #1f77b4"/>
   </g>
   <g id="patch_189">
    <path d="M 360.424782 273.312 
L 362.035642 273.312 
L 362.035642 221.286194 
L 360.424782 221.286194 
z
" clip-path="url(#p407863cea9)" style="fill: #1f77b4"/>
   </g>
   <g id="patch_190">
    <path d="M 362.035642 273.312 
L 363.646502 273.312 
L 363.646502 229.461677 
L 362.035642 229.461677 
z
" clip-path="url(#p407863cea9)" style="fill: #1f77b4"/>
   </g>
   <g id="patch_191">
    <path d="M 363.646502 273.312 
L 365.257361 273.312 
L 365.257361 236.15071 
L 363.646502 236.15071 
z
" clip-path="url(#p407863cea9)" style="fill: #1f77b4"/>
   </g>
   <g id="patch_192">
    <path d="M 365.257361 273.312 
L 366.868221 273.312 
L 366.868221 227.232 
L 365.257361 227.232 
z
" clip-path="url(#p407863cea9)" style="fill: #1f77b4"/>
   </g>
   <g id="patch_193">
    <path d="M 366.868221 273.312 
L 368.479081 273.312 
L 368.479081 233.921032 
L 366.868221 233.921032 
z
" clip-path="url(#p407863cea9)" style="fill: #1f77b4"/>
   </g>
   <g id="patch_194">
    <path d="M 368.479081 273.312 
L 370.089941 273.312 
L 370.089941 245.069419 
L 368.479081 245.069419 
z
" clip-path="url(#p407863cea9)" style="fill: #1f77b4"/>
   </g>
   <g id="patch_195">
    <path d="M 370.089941 273.312 
L 371.7008 273.312 
L 371.7008 246.555871 
L 370.089941 246.555871 
z
" clip-path="url(#p407863cea9)" style="fill: #1f77b4"/>
   </g>
   <g id="patch_196">
    <path d="M 371.7008 273.312 
L 373.31166 273.312 
L 373.31166 242.096516 
L 371.7008 242.096516 
z
" clip-path="url(#p407863cea9)" style="fill: #1f77b4"/>
   </g>
   <g id="patch_197">
    <path d="M 373.31166 273.312 
L 374.92252 273.312 
L 374.92252 245.812645 
L 373.31166 245.812645 
z
" clip-path="url(#p407863cea9)" style="fill: #1f77b4"/>
   </g>
   <g id="patch_198">
    <path d="M 374.92252 273.312 
L 376.53338 273.312 
L 376.53338 254.731355 
L 374.92252 254.731355 
z
" clip-path="url(#p407863cea9)" style="fill: #1f77b4"/>
   </g>
   <g id="patch_199">
    <path d="M 376.53338 273.312 
L 378.144239 273.312 
L 378.144239 257.704258 
L 376.53338 257.704258 
z
" clip-path="url(#p407863cea9)" style="fill: #1f77b4"/>
   </g>
   <g id="patch_200">
    <path d="M 378.144239 273.312 
L 379.755099 273.312 
L 379.755099 263.650065 
L 378.144239 263.650065 
z
" clip-path="url(#p407863cea9)" style="fill: #1f77b4"/>
   </g>
   <g id="patch_201">
    <path d="M 379.755099 273.312 
L 381.365959 273.312 
L 381.365959 262.906839 
L 379.755099 262.906839 
z
" clip-path="url(#p407863cea9)" style="fill: #1f77b4"/>
   </g>
   <g id="patch_202">
    <path d="M 381.365959 273.312 
L 382.976818 273.312 
L 382.976818 267.366194 
L 381.365959 267.366194 
z
" clip-path="url(#p407863cea9)" style="fill: #1f77b4"/>
   </g>
   <g id="matplotlib.axis_1">
    <g id="xtick_1">
     <g id="line2d_1">
      <defs>
       <path id="m11fb4d0e69" d="M 0 0 
L 0 3.5 
" style="stroke: #000000; stroke-width: 0.8"/>
      </defs>
      <g>
       <use xlink:href="#m11fb4d0e69" x="60.013977" y="273.312" style="stroke: #000000; stroke-width: 0.8"/>
      </g>
     </g>
     <g id="text_1">
      <!-- 0.0 -->
      <g transform="translate(52.062415 287.910437)scale(0.1 -0.1)">
       <defs>
        <path id="DejaVuSans-30" d="M 2034 4250 
Q 1547 4250 1301 3770 
Q 1056 3291 1056 2328 
Q 1056 1369 1301 889 
Q 1547 409 2034 409 
Q 2525 409 2770 889 
Q 3016 1369 3016 2328 
Q 3016 3291 2770 3770 
Q 2525 4250 2034 4250 
z
M 2034 4750 
Q 2819 4750 3233 4129 
Q 3647 3509 3647 2328 
Q 3647 1150 3233 529 
Q 2819 -91 2034 -91 
Q 1250 -91 836 529 
Q 422 1150 422 2328 
Q 422 3509 836 4129 
Q 1250 4750 2034 4750 
z
" transform="scale(0.015625)"/>
        <path id="DejaVuSans-2e" d="M 684 794 
L 1344 794 
L 1344 0 
L 684 0 
L 684 794 
z
" transform="scale(0.015625)"/>
       </defs>
       <use xlink:href="#DejaVuSans-30"/>
       <use xlink:href="#DejaVuSans-2e" x="63.623047"/>
       <use xlink:href="#DejaVuSans-30" x="95.410156"/>
      </g>
     </g>
    </g>
    <g id="xtick_2">
     <g id="line2d_2">
      <g>
       <use xlink:href="#m11fb4d0e69" x="101.350278" y="273.312" style="stroke: #000000; stroke-width: 0.8"/>
      </g>
     </g>
     <g id="text_2">
      <!-- 0.2 -->
      <g transform="translate(93.398715 287.910437)scale(0.1 -0.1)">
       <defs>
        <path id="DejaVuSans-32" d="M 1228 531 
L 3431 531 
L 3431 0 
L 469 0 
L 469 531 
Q 828 903 1448 1529 
Q 2069 2156 2228 2338 
Q 2531 2678 2651 2914 
Q 2772 3150 2772 3378 
Q 2772 3750 2511 3984 
Q 2250 4219 1831 4219 
Q 1534 4219 1204 4116 
Q 875 4013 500 3803 
L 500 4441 
Q 881 4594 1212 4672 
Q 1544 4750 1819 4750 
Q 2544 4750 2975 4387 
Q 3406 4025 3406 3419 
Q 3406 3131 3298 2873 
Q 3191 2616 2906 2266 
Q 2828 2175 2409 1742 
Q 1991 1309 1228 531 
z
" transform="scale(0.015625)"/>
       </defs>
       <use xlink:href="#DejaVuSans-30"/>
       <use xlink:href="#DejaVuSans-2e" x="63.623047"/>
       <use xlink:href="#DejaVuSans-32" x="95.410156"/>
      </g>
     </g>
    </g>
    <g id="xtick_3">
     <g id="line2d_3">
      <g>
       <use xlink:href="#m11fb4d0e69" x="142.686578" y="273.312" style="stroke: #000000; stroke-width: 0.8"/>
      </g>
     </g>
     <g id="text_3">
      <!-- 0.4 -->
      <g transform="translate(134.735016 287.910437)scale(0.1 -0.1)">
       <defs>
        <path id="DejaVuSans-34" d="M 2419 4116 
L 825 1625 
L 2419 1625 
L 2419 4116 
z
M 2253 4666 
L 3047 4666 
L 3047 1625 
L 3713 1625 
L 3713 1100 
L 3047 1100 
L 3047 0 
L 2419 0 
L 2419 1100 
L 313 1100 
L 313 1709 
L 2253 4666 
z
" transform="scale(0.015625)"/>
       </defs>
       <use xlink:href="#DejaVuSans-30"/>
       <use xlink:href="#DejaVuSans-2e" x="63.623047"/>
       <use xlink:href="#DejaVuSans-34" x="95.410156"/>
      </g>
     </g>
    </g>
    <g id="xtick_4">
     <g id="line2d_4">
      <g>
       <use xlink:href="#m11fb4d0e69" x="184.022879" y="273.312" style="stroke: #000000; stroke-width: 0.8"/>
      </g>
     </g>
     <g id="text_4">
      <!-- 0.6 -->
      <g transform="translate(176.071316 287.910437)scale(0.1 -0.1)">
       <defs>
        <path id="DejaVuSans-36" d="M 2113 2584 
Q 1688 2584 1439 2293 
Q 1191 2003 1191 1497 
Q 1191 994 1439 701 
Q 1688 409 2113 409 
Q 2538 409 2786 701 
Q 3034 994 3034 1497 
Q 3034 2003 2786 2293 
Q 2538 2584 2113 2584 
z
M 3366 4563 
L 3366 3988 
Q 3128 4100 2886 4159 
Q 2644 4219 2406 4219 
Q 1781 4219 1451 3797 
Q 1122 3375 1075 2522 
Q 1259 2794 1537 2939 
Q 1816 3084 2150 3084 
Q 2853 3084 3261 2657 
Q 3669 2231 3669 1497 
Q 3669 778 3244 343 
Q 2819 -91 2113 -91 
Q 1303 -91 875 529 
Q 447 1150 447 2328 
Q 447 3434 972 4092 
Q 1497 4750 2381 4750 
Q 2619 4750 2861 4703 
Q 3103 4656 3366 4563 
z
" transform="scale(0.015625)"/>
       </defs>
       <use xlink:href="#DejaVuSans-30"/>
       <use xlink:href="#DejaVuSans-2e" x="63.623047"/>
       <use xlink:href="#DejaVuSans-36" x="95.410156"/>
      </g>
     </g>
    </g>
    <g id="xtick_5">
     <g id="line2d_5">
      <g>
       <use xlink:href="#m11fb4d0e69" x="225.35918" y="273.312" style="stroke: #000000; stroke-width: 0.8"/>
      </g>
     </g>
     <g id="text_5">
      <!-- 0.8 -->
      <g transform="translate(217.407617 287.910437)scale(0.1 -0.1)">
       <defs>
        <path id="DejaVuSans-38" d="M 2034 2216 
Q 1584 2216 1326 1975 
Q 1069 1734 1069 1313 
Q 1069 891 1326 650 
Q 1584 409 2034 409 
Q 2484 409 2743 651 
Q 3003 894 3003 1313 
Q 3003 1734 2745 1975 
Q 2488 2216 2034 2216 
z
M 1403 2484 
Q 997 2584 770 2862 
Q 544 3141 544 3541 
Q 544 4100 942 4425 
Q 1341 4750 2034 4750 
Q 2731 4750 3128 4425 
Q 3525 4100 3525 3541 
Q 3525 3141 3298 2862 
Q 3072 2584 2669 2484 
Q 3125 2378 3379 2068 
Q 3634 1759 3634 1313 
Q 3634 634 3220 271 
Q 2806 -91 2034 -91 
Q 1263 -91 848 271 
Q 434 634 434 1313 
Q 434 1759 690 2068 
Q 947 2378 1403 2484 
z
M 1172 3481 
Q 1172 3119 1398 2916 
Q 1625 2713 2034 2713 
Q 2441 2713 2670 2916 
Q 2900 3119 2900 3481 
Q 2900 3844 2670 4047 
Q 2441 4250 2034 4250 
Q 1625 4250 1398 4047 
Q 1172 3844 1172 3481 
z
" transform="scale(0.015625)"/>
       </defs>
       <use xlink:href="#DejaVuSans-30"/>
       <use xlink:href="#DejaVuSans-2e" x="63.623047"/>
       <use xlink:href="#DejaVuSans-38" x="95.410156"/>
      </g>
     </g>
    </g>
    <g id="xtick_6">
     <g id="line2d_6">
      <g>
       <use xlink:href="#m11fb4d0e69" x="266.69548" y="273.312" style="stroke: #000000; stroke-width: 0.8"/>
      </g>
     </g>
     <g id="text_6">
      <!-- 1.0 -->
      <g transform="translate(258.743918 287.910437)scale(0.1 -0.1)">
       <defs>
        <path id="DejaVuSans-31" d="M 794 531 
L 1825 531 
L 1825 4091 
L 703 3866 
L 703 4441 
L 1819 4666 
L 2450 4666 
L 2450 531 
L 3481 531 
L 3481 0 
L 794 0 
L 794 531 
z
" transform="scale(0.015625)"/>
       </defs>
       <use xlink:href="#DejaVuSans-31"/>
       <use xlink:href="#DejaVuSans-2e" x="63.623047"/>
       <use xlink:href="#DejaVuSans-30" x="95.410156"/>
      </g>
     </g>
    </g>
    <g id="xtick_7">
     <g id="line2d_7">
      <g>
       <use xlink:href="#m11fb4d0e69" x="308.031781" y="273.312" style="stroke: #000000; stroke-width: 0.8"/>
      </g>
     </g>
     <g id="text_7">
      <!-- 1.2 -->
      <g transform="translate(300.080218 287.910437)scale(0.1 -0.1)">
       <use xlink:href="#DejaVuSans-31"/>
       <use xlink:href="#DejaVuSans-2e" x="63.623047"/>
       <use xlink:href="#DejaVuSans-32" x="95.410156"/>
      </g>
     </g>
    </g>
    <g id="xtick_8">
     <g id="line2d_8">
      <g>
       <use xlink:href="#m11fb4d0e69" x="349.368081" y="273.312" style="stroke: #000000; stroke-width: 0.8"/>
      </g>
     </g>
     <g id="text_8">
      <!-- 1.4 -->
      <g transform="translate(341.416519 287.910437)scale(0.1 -0.1)">
       <use xlink:href="#DejaVuSans-31"/>
       <use xlink:href="#DejaVuSans-2e" x="63.623047"/>
       <use xlink:href="#DejaVuSans-34" x="95.410156"/>
      </g>
     </g>
    </g>
    <g id="xtick_9">
     <g id="line2d_9">
      <g>
       <use xlink:href="#m11fb4d0e69" x="390.704382" y="273.312" style="stroke: #000000; stroke-width: 0.8"/>
      </g>
     </g>
     <g id="text_9">
      <!-- 1.6 -->
      <g transform="translate(382.752819 287.910437)scale(0.1 -0.1)">
       <use xlink:href="#DejaVuSans-31"/>
       <use xlink:href="#DejaVuSans-2e" x="63.623047"/>
       <use xlink:href="#DejaVuSans-36" x="95.410156"/>
      </g>
     </g>
    </g>
    <g id="text_10">
     <!-- Angle with normal (rad) -->
     <g transform="translate(163.023281 301.588562)scale(0.1 -0.1)">
      <defs>
       <path id="DejaVuSans-41" d="M 2188 4044 
L 1331 1722 
L 3047 1722 
L 2188 4044 
z
M 1831 4666 
L 2547 4666 
L 4325 0 
L 3669 0 
L 3244 1197 
L 1141 1197 
L 716 0 
L 50 0 
L 1831 4666 
z
" transform="scale(0.015625)"/>
       <path id="DejaVuSans-6e" d="M 3513 2113 
L 3513 0 
L 2938 0 
L 2938 2094 
Q 2938 2591 2744 2837 
Q 2550 3084 2163 3084 
Q 1697 3084 1428 2787 
Q 1159 2491 1159 1978 
L 1159 0 
L 581 0 
L 581 3500 
L 1159 3500 
L 1159 2956 
Q 1366 3272 1645 3428 
Q 1925 3584 2291 3584 
Q 2894 3584 3203 3211 
Q 3513 2838 3513 2113 
z
" transform="scale(0.015625)"/>
       <path id="DejaVuSans-67" d="M 2906 1791 
Q 2906 2416 2648 2759 
Q 2391 3103 1925 3103 
Q 1463 3103 1205 2759 
Q 947 2416 947 1791 
Q 947 1169 1205 825 
Q 1463 481 1925 481 
Q 2391 481 2648 825 
Q 2906 1169 2906 1791 
z
M 3481 434 
Q 3481 -459 3084 -895 
Q 2688 -1331 1869 -1331 
Q 1566 -1331 1297 -1286 
Q 1028 -1241 775 -1147 
L 775 -588 
Q 1028 -725 1275 -790 
Q 1522 -856 1778 -856 
Q 2344 -856 2625 -561 
Q 2906 -266 2906 331 
L 2906 616 
Q 2728 306 2450 153 
Q 2172 0 1784 0 
Q 1141 0 747 490 
Q 353 981 353 1791 
Q 353 2603 747 3093 
Q 1141 3584 1784 3584 
Q 2172 3584 2450 3431 
Q 2728 3278 2906 2969 
L 2906 3500 
L 3481 3500 
L 3481 434 
z
" transform="scale(0.015625)"/>
       <path id="DejaVuSans-6c" d="M 603 4863 
L 1178 4863 
L 1178 0 
L 603 0 
L 603 4863 
z
" transform="scale(0.015625)"/>
       <path id="DejaVuSans-65" d="M 3597 1894 
L 3597 1613 
L 953 1613 
Q 991 1019 1311 708 
Q 1631 397 2203 397 
Q 2534 397 2845 478 
Q 3156 559 3463 722 
L 3463 178 
Q 3153 47 2828 -22 
Q 2503 -91 2169 -91 
Q 1331 -91 842 396 
Q 353 884 353 1716 
Q 353 2575 817 3079 
Q 1281 3584 2069 3584 
Q 2775 3584 3186 3129 
Q 3597 2675 3597 1894 
z
M 3022 2063 
Q 3016 2534 2758 2815 
Q 2500 3097 2075 3097 
Q 1594 3097 1305 2825 
Q 1016 2553 972 2059 
L 3022 2063 
z
" transform="scale(0.015625)"/>
       <path id="DejaVuSans-20" transform="scale(0.015625)"/>
       <path id="DejaVuSans-77" d="M 269 3500 
L 844 3500 
L 1563 769 
L 2278 3500 
L 2956 3500 
L 3675 769 
L 4391 3500 
L 4966 3500 
L 4050 0 
L 3372 0 
L 2619 2869 
L 1863 0 
L 1184 0 
L 269 3500 
z
" transform="scale(0.015625)"/>
       <path id="DejaVuSans-69" d="M 603 3500 
L 1178 3500 
L 1178 0 
L 603 0 
L 603 3500 
z
M 603 4863 
L 1178 4863 
L 1178 4134 
L 603 4134 
L 603 4863 
z
" transform="scale(0.015625)"/>
       <path id="DejaVuSans-74" d="M 1172 4494 
L 1172 3500 
L 2356 3500 
L 2356 3053 
L 1172 3053 
L 1172 1153 
Q 1172 725 1289 603 
Q 1406 481 1766 481 
L 2356 481 
L 2356 0 
L 1766 0 
Q 1100 0 847 248 
Q 594 497 594 1153 
L 594 3053 
L 172 3053 
L 172 3500 
L 594 3500 
L 594 4494 
L 1172 4494 
z
" transform="scale(0.015625)"/>
       <path id="DejaVuSans-68" d="M 3513 2113 
L 3513 0 
L 2938 0 
L 2938 2094 
Q 2938 2591 2744 2837 
Q 2550 3084 2163 3084 
Q 1697 3084 1428 2787 
Q 1159 2491 1159 1978 
L 1159 0 
L 581 0 
L 581 4863 
L 1159 4863 
L 1159 2956 
Q 1366 3272 1645 3428 
Q 1925 3584 2291 3584 
Q 2894 3584 3203 3211 
Q 3513 2838 3513 2113 
z
" transform="scale(0.015625)"/>
       <path id="DejaVuSans-6f" d="M 1959 3097 
Q 1497 3097 1228 2736 
Q 959 2375 959 1747 
Q 959 1119 1226 758 
Q 1494 397 1959 397 
Q 2419 397 2687 759 
Q 2956 1122 2956 1747 
Q 2956 2369 2687 2733 
Q 2419 3097 1959 3097 
z
M 1959 3584 
Q 2709 3584 3137 3096 
Q 3566 2609 3566 1747 
Q 3566 888 3137 398 
Q 2709 -91 1959 -91 
Q 1206 -91 779 398 
Q 353 888 353 1747 
Q 353 2609 779 3096 
Q 1206 3584 1959 3584 
z
" transform="scale(0.015625)"/>
       <path id="DejaVuSans-72" d="M 2631 2963 
Q 2534 3019 2420 3045 
Q 2306 3072 2169 3072 
Q 1681 3072 1420 2755 
Q 1159 2438 1159 1844 
L 1159 0 
L 581 0 
L 581 3500 
L 1159 3500 
L 1159 2956 
Q 1341 3275 1631 3429 
Q 1922 3584 2338 3584 
Q 2397 3584 2469 3576 
Q 2541 3569 2628 3553 
L 2631 2963 
z
" transform="scale(0.015625)"/>
       <path id="DejaVuSans-6d" d="M 3328 2828 
Q 3544 3216 3844 3400 
Q 4144 3584 4550 3584 
Q 5097 3584 5394 3201 
Q 5691 2819 5691 2113 
L 5691 0 
L 5113 0 
L 5113 2094 
Q 5113 2597 4934 2840 
Q 4756 3084 4391 3084 
Q 3944 3084 3684 2787 
Q 3425 2491 3425 1978 
L 3425 0 
L 2847 0 
L 2847 2094 
Q 2847 2600 2669 2842 
Q 2491 3084 2119 3084 
Q 1678 3084 1418 2786 
Q 1159 2488 1159 1978 
L 1159 0 
L 581 0 
L 581 3500 
L 1159 3500 
L 1159 2956 
Q 1356 3278 1631 3431 
Q 1906 3584 2284 3584 
Q 2666 3584 2933 3390 
Q 3200 3197 3328 2828 
z
" transform="scale(0.015625)"/>
       <path id="DejaVuSans-61" d="M 2194 1759 
Q 1497 1759 1228 1600 
Q 959 1441 959 1056 
Q 959 750 1161 570 
Q 1363 391 1709 391 
Q 2188 391 2477 730 
Q 2766 1069 2766 1631 
L 2766 1759 
L 2194 1759 
z
M 3341 1997 
L 3341 0 
L 2766 0 
L 2766 531 
Q 2569 213 2275 61 
Q 1981 -91 1556 -91 
Q 1019 -91 701 211 
Q 384 513 384 1019 
Q 384 1609 779 1909 
Q 1175 2209 1959 2209 
L 2766 2209 
L 2766 2266 
Q 2766 2663 2505 2880 
Q 2244 3097 1772 3097 
Q 1472 3097 1187 3025 
Q 903 2953 641 2809 
L 641 3341 
Q 956 3463 1253 3523 
Q 1550 3584 1831 3584 
Q 2591 3584 2966 3190 
Q 3341 2797 3341 1997 
z
" transform="scale(0.015625)"/>
       <path id="DejaVuSans-28" d="M 1984 4856 
Q 1566 4138 1362 3434 
Q 1159 2731 1159 2009 
Q 1159 1288 1364 580 
Q 1569 -128 1984 -844 
L 1484 -844 
Q 1016 -109 783 600 
Q 550 1309 550 2009 
Q 550 2706 781 3412 
Q 1013 4119 1484 4856 
L 1984 4856 
z
" transform="scale(0.015625)"/>
       <path id="DejaVuSans-64" d="M 2906 2969 
L 2906 4863 
L 3481 4863 
L 3481 0 
L 2906 0 
L 2906 525 
Q 2725 213 2448 61 
Q 2172 -91 1784 -91 
Q 1150 -91 751 415 
Q 353 922 353 1747 
Q 353 2572 751 3078 
Q 1150 3584 1784 3584 
Q 2172 3584 2448 3432 
Q 2725 3281 2906 2969 
z
M 947 1747 
Q 947 1113 1208 752 
Q 1469 391 1925 391 
Q 2381 391 2643 752 
Q 2906 1113 2906 1747 
Q 2906 2381 2643 2742 
Q 2381 3103 1925 3103 
Q 1469 3103 1208 2742 
Q 947 2381 947 1747 
z
" transform="scale(0.015625)"/>
       <path id="DejaVuSans-29" d="M 513 4856 
L 1013 4856 
Q 1481 4119 1714 3412 
Q 1947 2706 1947 2009 
Q 1947 1309 1714 600 
Q 1481 -109 1013 -844 
L 513 -844 
Q 928 -128 1133 580 
Q 1338 1288 1338 2009 
Q 1338 2731 1133 3434 
Q 928 4138 513 4856 
z
" transform="scale(0.015625)"/>
      </defs>
      <use xlink:href="#DejaVuSans-41"/>
      <use xlink:href="#DejaVuSans-6e" x="68.408203"/>
      <use xlink:href="#DejaVuSans-67" x="131.787109"/>
      <use xlink:href="#DejaVuSans-6c" x="195.263672"/>
      <use xlink:href="#DejaVuSans-65" x="223.046875"/>
      <use xlink:href="#DejaVuSans-20" x="284.570312"/>
      <use xlink:href="#DejaVuSans-77" x="316.357422"/>
      <use xlink:href="#DejaVuSans-69" x="398.144531"/>
      <use xlink:href="#DejaVuSans-74" x="425.927734"/>
      <use xlink:href="#DejaVuSans-68" x="465.136719"/>
      <use xlink:href="#DejaVuSans-20" x="528.515625"/>
      <use xlink:href="#DejaVuSans-6e" x="560.302734"/>
      <use xlink:href="#DejaVuSans-6f" x="623.681641"/>
      <use xlink:href="#DejaVuSans-72" x="684.863281"/>
      <use xlink:href="#DejaVuSans-6d" x="724.226562"/>
      <use xlink:href="#DejaVuSans-61" x="821.638672"/>
      <use xlink:href="#DejaVuSans-6c" x="882.917969"/>
      <use xlink:href="#DejaVuSans-20" x="910.701172"/>
      <use xlink:href="#DejaVuSans-28" x="942.488281"/>
      <use xlink:href="#DejaVuSans-72" x="981.501953"/>
      <use xlink:href="#DejaVuSans-61" x="1022.615234"/>
      <use xlink:href="#DejaVuSans-64" x="1083.894531"/>
      <use xlink:href="#DejaVuSans-29" x="1147.371094"/>
     </g>
    </g>
   </g>
   <g id="matplotlib.axis_2">
    <g id="ytick_1">
     <g id="line2d_10">
      <defs>
       <path id="m570a47b8f2" d="M 0 0 
L -3.5 0 
" style="stroke: #000000; stroke-width: 0.8"/>
      </defs>
      <g>
       <use xlink:href="#m570a47b8f2" x="43.78125" y="273.312" style="stroke: #000000; stroke-width: 0.8"/>
      </g>
     </g>
     <g id="text_11">
      <!-- 0.0 -->
      <g transform="translate(20.878125 277.111219)scale(0.1 -0.1)">
       <use xlink:href="#DejaVuSans-30"/>
       <use xlink:href="#DejaVuSans-2e" x="63.623047"/>
       <use xlink:href="#DejaVuSans-30" x="95.410156"/>
      </g>
     </g>
    </g>
    <g id="ytick_2">
     <g id="line2d_11">
      <g>
       <use xlink:href="#m570a47b8f2" x="43.78125" y="226.970842" style="stroke: #000000; stroke-width: 0.8"/>
      </g>
     </g>
     <g id="text_12">
      <!-- 0.2 -->
      <g transform="translate(20.878125 230.770061)scale(0.1 -0.1)">
       <use xlink:href="#DejaVuSans-30"/>
       <use xlink:href="#DejaVuSans-2e" x="63.623047"/>
       <use xlink:href="#DejaVuSans-32" x="95.410156"/>
      </g>
     </g>
    </g>
    <g id="ytick_3">
     <g id="line2d_12">
      <g>
       <use xlink:href="#m570a47b8f2" x="43.78125" y="180.629685" style="stroke: #000000; stroke-width: 0.8"/>
      </g>
     </g>
     <g id="text_13">
      <!-- 0.4 -->
      <g transform="translate(20.878125 184.428903)scale(0.1 -0.1)">
       <use xlink:href="#DejaVuSans-30"/>
       <use xlink:href="#DejaVuSans-2e" x="63.623047"/>
       <use xlink:href="#DejaVuSans-34" x="95.410156"/>
      </g>
     </g>
    </g>
    <g id="ytick_4">
     <g id="line2d_13">
      <g>
       <use xlink:href="#m570a47b8f2" x="43.78125" y="134.288527" style="stroke: #000000; stroke-width: 0.8"/>
      </g>
     </g>
     <g id="text_14">
      <!-- 0.6 -->
      <g transform="translate(20.878125 138.087746)scale(0.1 -0.1)">
       <use xlink:href="#DejaVuSans-30"/>
       <use xlink:href="#DejaVuSans-2e" x="63.623047"/>
       <use xlink:href="#DejaVuSans-36" x="95.410156"/>
      </g>
     </g>
    </g>
    <g id="ytick_5">
     <g id="line2d_14">
      <g>
       <use xlink:href="#m570a47b8f2" x="43.78125" y="87.947369" style="stroke: #000000; stroke-width: 0.8"/>
      </g>
     </g>
     <g id="text_15">
      <!-- 0.8 -->
      <g transform="translate(20.878125 91.746588)scale(0.1 -0.1)">
       <use xlink:href="#DejaVuSans-30"/>
       <use xlink:href="#DejaVuSans-2e" x="63.623047"/>
       <use xlink:href="#DejaVuSans-38" x="95.410156"/>
      </g>
     </g>
    </g>
    <g id="ytick_6">
     <g id="line2d_15">
      <g>
       <use xlink:href="#m570a47b8f2" x="43.78125" y="41.606211" style="stroke: #000000; stroke-width: 0.8"/>
      </g>
     </g>
     <g id="text_16">
      <!-- 1.0 -->
      <g transform="translate(20.878125 45.40543)scale(0.1 -0.1)">
       <use xlink:href="#DejaVuSans-31"/>
       <use xlink:href="#DejaVuSans-2e" x="63.623047"/>
       <use xlink:href="#DejaVuSans-30" x="95.410156"/>
      </g>
     </g>
    </g>
    <g id="text_17">
     <!-- Probability density -->
     <g transform="translate(14.798438 186.606781)rotate(-90)scale(0.1 -0.1)">
      <defs>
       <path id="DejaVuSans-50" d="M 1259 4147 
L 1259 2394 
L 2053 2394 
Q 2494 2394 2734 2622 
Q 2975 2850 2975 3272 
Q 2975 3691 2734 3919 
Q 2494 4147 2053 4147 
L 1259 4147 
z
M 628 4666 
L 2053 4666 
Q 2838 4666 3239 4311 
Q 3641 3956 3641 3272 
Q 3641 2581 3239 2228 
Q 2838 1875 2053 1875 
L 1259 1875 
L 1259 0 
L 628 0 
L 628 4666 
z
" transform="scale(0.015625)"/>
       <path id="DejaVuSans-62" d="M 3116 1747 
Q 3116 2381 2855 2742 
Q 2594 3103 2138 3103 
Q 1681 3103 1420 2742 
Q 1159 2381 1159 1747 
Q 1159 1113 1420 752 
Q 1681 391 2138 391 
Q 2594 391 2855 752 
Q 3116 1113 3116 1747 
z
M 1159 2969 
Q 1341 3281 1617 3432 
Q 1894 3584 2278 3584 
Q 2916 3584 3314 3078 
Q 3713 2572 3713 1747 
Q 3713 922 3314 415 
Q 2916 -91 2278 -91 
Q 1894 -91 1617 61 
Q 1341 213 1159 525 
L 1159 0 
L 581 0 
L 581 4863 
L 1159 4863 
L 1159 2969 
z
" transform="scale(0.015625)"/>
       <path id="DejaVuSans-79" d="M 2059 -325 
Q 1816 -950 1584 -1140 
Q 1353 -1331 966 -1331 
L 506 -1331 
L 506 -850 
L 844 -850 
Q 1081 -850 1212 -737 
Q 1344 -625 1503 -206 
L 1606 56 
L 191 3500 
L 800 3500 
L 1894 763 
L 2988 3500 
L 3597 3500 
L 2059 -325 
z
" transform="scale(0.015625)"/>
       <path id="DejaVuSans-73" d="M 2834 3397 
L 2834 2853 
Q 2591 2978 2328 3040 
Q 2066 3103 1784 3103 
Q 1356 3103 1142 2972 
Q 928 2841 928 2578 
Q 928 2378 1081 2264 
Q 1234 2150 1697 2047 
L 1894 2003 
Q 2506 1872 2764 1633 
Q 3022 1394 3022 966 
Q 3022 478 2636 193 
Q 2250 -91 1575 -91 
Q 1294 -91 989 -36 
Q 684 19 347 128 
L 347 722 
Q 666 556 975 473 
Q 1284 391 1588 391 
Q 1994 391 2212 530 
Q 2431 669 2431 922 
Q 2431 1156 2273 1281 
Q 2116 1406 1581 1522 
L 1381 1569 
Q 847 1681 609 1914 
Q 372 2147 372 2553 
Q 372 3047 722 3315 
Q 1072 3584 1716 3584 
Q 2034 3584 2315 3537 
Q 2597 3491 2834 3397 
z
" transform="scale(0.015625)"/>
      </defs>
      <use xlink:href="#DejaVuSans-50"/>
      <use xlink:href="#DejaVuSans-72" x="58.552734"/>
      <use xlink:href="#DejaVuSans-6f" x="97.416016"/>
      <use xlink:href="#DejaVuSans-62" x="158.597656"/>
      <use xlink:href="#DejaVuSans-61" x="222.074219"/>
      <use xlink:href="#DejaVuSans-62" x="283.353516"/>
      <use xlink:href="#DejaVuSans-69" x="346.830078"/>
      <use xlink:href="#DejaVuSans-6c" x="374.613281"/>
      <use xlink:href="#DejaVuSans-69" x="402.396484"/>
      <use xlink:href="#DejaVuSans-74" x="430.179688"/>
      <use xlink:href="#DejaVuSans-79" x="469.388672"/>
      <use xlink:href="#DejaVuSans-20" x="528.568359"/>
      <use xlink:href="#DejaVuSans-64" x="560.355469"/>
      <use xlink:href="#DejaVuSans-65" x="623.832031"/>
      <use xlink:href="#DejaVuSans-6e" x="685.355469"/>
      <use xlink:href="#DejaVuSans-73" x="748.734375"/>
      <use xlink:href="#DejaVuSans-69" x="800.833984"/>
      <use xlink:href="#DejaVuSans-74" x="828.617188"/>
      <use xlink:href="#DejaVuSans-79" x="867.826172"/>
     </g>
    </g>
   </g>
   <g id="line2d_16">
    <path d="M 60.013977 273.312 
L 79.837728 229.136215 
L 90.237073 206.509092 
L 99.01152 187.934118 
L 106.811029 171.935386 
L 113.960578 157.774765 
L 120.460169 145.379438 
L 126.63478 134.071735 
L 132.484411 123.816946 
L 138.009063 114.571038 
L 143.208736 106.282893 
L 148.408408 98.417522 
L 153.283101 91.445422 
L 157.832814 85.302868 
L 162.382528 79.524676 
L 166.607261 74.495265 
L 170.831995 69.798091 
L 175.056729 65.441004 
L 178.956483 61.727235 
L 182.856238 58.314741 
L 186.755992 55.208383 
L 190.330767 52.633604 
L 193.905542 50.322865 
L 197.480316 48.278932 
L 201.055091 46.50425 
L 204.304886 45.126343 
L 207.554682 43.974079 
L 210.804477 43.048597 
L 214.054272 42.350812 
L 217.304067 41.881414 
L 220.553863 41.640868 
L 223.803658 41.629412 
L 227.053453 41.847056 
L 230.303248 42.293585 
L 233.553044 42.968559 
L 236.802839 43.871308 
L 240.052634 45.000942 
L 243.302429 46.356342 
L 246.552225 47.936169 
L 250.126999 49.93132 
L 253.701774 52.193745 
L 257.276549 54.720736 
L 260.851324 57.509271 
L 264.751078 60.845669 
L 268.650832 64.484599 
L 272.550587 68.420877 
L 276.77532 73.014219 
L 281.000054 77.942273 
L 285.549768 83.614273 
L 290.099481 89.653908 
L 294.974174 96.519595 
L 299.848867 103.778592 
L 305.048539 111.936824 
L 310.248212 120.503521 
L 315.772863 130.028921 
L 321.622495 140.56028 
L 327.797106 152.137352 
L 334.296696 164.790153 
L 341.446246 179.201916 
L 349.245755 195.434933 
L 358.020202 214.222372 
L 368.419546 237.029245 
L 383.693584 271.126071 
L 384.668523 273.312 
L 384.668523 273.312 
" clip-path="url(#p407863cea9)" style="fill: none; stroke: #ff7f0e; stroke-width: 1.5; stroke-linecap: square"/>
   </g>
   <g id="patch_203">
    <path d="M 43.78125 273.312 
L 43.78125 7.2 
" style="fill: none; stroke: #000000; stroke-width: 0.8; stroke-linejoin: miter; stroke-linecap: square"/>
   </g>
   <g id="patch_204">
    <path d="M 400.90125 273.312 
L 400.90125 7.2 
" style="fill: none; stroke: #000000; stroke-width: 0.8; stroke-linejoin: miter; stroke-linecap: square"/>
   </g>
   <g id="patch_205">
    <path d="M 43.78125 273.312 
L 400.90125 273.312 
" style="fill: none; stroke: #000000; stroke-width: 0.8; stroke-linejoin: miter; stroke-linecap: square"/>
   </g>
   <g id="patch_206">
    <path d="M 43.78125 7.2 
L 400.90125 7.2 
" style="fill: none; stroke: #000000; stroke-width: 0.8; stroke-linejoin: miter; stroke-linecap: square"/>
   </g>
  </g>
 </g>
 <defs>
  <clipPath id="p407863cea9">
   <rect x="43.78125" y="7.2" width="357.12" height="266.112"/>
  </clipPath>
 </defs>
</svg>
