<?xml version="1.0" encoding="utf-8" standalone="no"?>
<!DOCTYPE svg PUBLIC "-//W3C//DTD SVG 1.1//EN"
  "http://www.w3.org/Graphics/SVG/1.1/DTD/svg11.dtd">
<svg xmlns:xlink="http://www.w3.org/1999/xlink" width="408.10125pt" height="313.352939pt" viewBox="0 0 408.10125 313.352939" xmlns="http://www.w3.org/2000/svg" version="1.1">
 <metadata>
  <rdf:RDF xmlns:dc="http://purl.org/dc/elements/1.1/" xmlns:cc="http://creativecommons.org/ns#" xmlns:rdf="http://www.w3.org/1999/02/22-rdf-syntax-ns#">
   <cc:Work>
    <dc:type rdf:resource="http://purl.org/dc/dcmitype/StillImage"/>
    <dc:date>2022-05-02T21:28:00.549905</dc:date>
    <dc:format>image/svg+xml</dc:format>
    <dc:creator>
     <cc:Agent>
      <dc:title>Matplotlib v3.5.1, https://matplotlib.org/</dc:title>
     </cc:Agent>
    </dc:creator>
   </cc:Work>
  </rdf:RDF>
 </metadata>
 <defs>
  <style type="text/css">*{stroke-linejoin: round; stroke-linecap: butt}</style>
 </defs>
 <g id="figure_1">
  <g id="patch_1">
   <path d="M 0 313.352939 
L 408.10125 313.352939 
L 408.10125 0 
L 0 0 
z
" style="fill: #ffffff"/>
  </g>
  <g id="axes_1">
   <g id="patch_2">
    <path d="M 43.78125 275.796689 
L 400.90125 275.796689 
L 400.90125 9.684689 
L 43.78125 9.684689 
z
" style="fill: #ffffff"/>
   </g>
   <g id="patch_3">
    <path d="M 60.436939 275.796689 
L 62.043019 275.796689 
L 62.043019 272.957026 
L 60.436939 272.957026 
z
" clip-path="url(#p4be0aa3fb2)" style="fill: #1f77b4"/>
   </g>
   <g id="patch_4">
    <path d="M 62.043019 275.796689 
L 63.649099 275.796689 
L 63.649099 265.857866 
L 62.043019 265.857866 
z
" clip-path="url(#p4be0aa3fb2)" style="fill: #1f77b4"/>
   </g>
   <g id="patch_5">
    <path d="M 63.649099 275.796689 
L 65.25518 275.796689 
L 65.25518 266.567782 
L 63.649099 266.567782 
z
" clip-path="url(#p4be0aa3fb2)" style="fill: #1f77b4"/>
   </g>
   <g id="patch_6">
    <path d="M 65.25518 275.796689 
L 66.86126 275.796689 
L 66.86126 262.308286 
L 65.25518 262.308286 
z
" clip-path="url(#p4be0aa3fb2)" style="fill: #1f77b4"/>
   </g>
   <g id="patch_7">
    <path d="M 66.86126 275.796689 
L 68.46734 275.796689 
L 68.46734 256.628958 
L 66.86126 256.628958 
z
" clip-path="url(#p4be0aa3fb2)" style="fill: #1f77b4"/>
   </g>
   <g id="patch_8">
    <path d="M 68.46734 275.796689 
L 70.073421 275.796689 
L 70.073421 247.400051 
L 68.46734 247.400051 
z
" clip-path="url(#p4be0aa3fb2)" style="fill: #1f77b4"/>
   </g>
   <g id="patch_9">
    <path d="M 70.073421 275.796689 
L 71.679501 275.796689 
L 71.679501 252.369463 
L 70.073421 252.369463 
z
" clip-path="url(#p4be0aa3fb2)" style="fill: #1f77b4"/>
   </g>
   <g id="patch_10">
    <path d="M 71.679501 275.796689 
L 73.285581 275.796689 
L 73.285581 248.819883 
L 71.679501 248.819883 
z
" clip-path="url(#p4be0aa3fb2)" style="fill: #1f77b4"/>
   </g>
   <g id="patch_11">
    <path d="M 73.285581 275.796689 
L 74.891662 275.796689 
L 74.891662 245.270303 
L 73.285581 245.270303 
z
" clip-path="url(#p4be0aa3fb2)" style="fill: #1f77b4"/>
   </g>
   <g id="patch_12">
    <path d="M 74.891662 275.796689 
L 76.497742 275.796689 
L 76.497742 233.911647 
L 74.891662 233.911647 
z
" clip-path="url(#p4be0aa3fb2)" style="fill: #1f77b4"/>
   </g>
   <g id="patch_13">
    <path d="M 76.497742 275.796689 
L 78.103822 275.796689 
L 78.103822 241.010807 
L 76.497742 241.010807 
z
" clip-path="url(#p4be0aa3fb2)" style="fill: #1f77b4"/>
   </g>
   <g id="patch_14">
    <path d="M 78.103822 275.796689 
L 79.709903 275.796689 
L 79.709903 223.972824 
L 78.103822 223.972824 
z
" clip-path="url(#p4be0aa3fb2)" style="fill: #1f77b4"/>
   </g>
   <g id="patch_15">
    <path d="M 79.709903 275.796689 
L 81.315983 275.796689 
L 81.315983 235.331479 
L 79.709903 235.331479 
z
" clip-path="url(#p4be0aa3fb2)" style="fill: #1f77b4"/>
   </g>
   <g id="patch_16">
    <path d="M 81.315983 275.796689 
L 82.922063 275.796689 
L 82.922063 237.461227 
L 81.315983 237.461227 
z
" clip-path="url(#p4be0aa3fb2)" style="fill: #1f77b4"/>
   </g>
   <g id="patch_17">
    <path d="M 82.922063 275.796689 
L 84.528144 275.796689 
L 84.528144 227.522404 
L 82.922063 227.522404 
z
" clip-path="url(#p4be0aa3fb2)" style="fill: #1f77b4"/>
   </g>
   <g id="patch_18">
    <path d="M 84.528144 275.796689 
L 86.134224 275.796689 
L 86.134224 222.552992 
L 84.528144 222.552992 
z
" clip-path="url(#p4be0aa3fb2)" style="fill: #1f77b4"/>
   </g>
   <g id="patch_19">
    <path d="M 86.134224 275.796689 
L 87.740304 275.796689 
L 87.740304 224.68274 
L 86.134224 224.68274 
z
" clip-path="url(#p4be0aa3fb2)" style="fill: #1f77b4"/>
   </g>
   <g id="patch_20">
    <path d="M 87.740304 275.796689 
L 89.346385 275.796689 
L 89.346385 220.423244 
L 87.740304 220.423244 
z
" clip-path="url(#p4be0aa3fb2)" style="fill: #1f77b4"/>
   </g>
   <g id="patch_21">
    <path d="M 89.346385 275.796689 
L 90.952465 275.796689 
L 90.952465 212.614168 
L 89.346385 212.614168 
z
" clip-path="url(#p4be0aa3fb2)" style="fill: #1f77b4"/>
   </g>
   <g id="patch_22">
    <path d="M 90.952465 275.796689 
L 92.558545 275.796689 
L 92.558545 216.873664 
L 90.952465 216.873664 
z
" clip-path="url(#p4be0aa3fb2)" style="fill: #1f77b4"/>
   </g>
   <g id="patch_23">
    <path d="M 92.558545 275.796689 
L 94.164626 275.796689 
L 94.164626 211.904252 
L 92.558545 211.904252 
z
" clip-path="url(#p4be0aa3fb2)" style="fill: #1f77b4"/>
   </g>
   <g id="patch_24">
    <path d="M 94.164626 275.796689 
L 95.770706 275.796689 
L 95.770706 202.675345 
L 94.164626 202.675345 
z
" clip-path="url(#p4be0aa3fb2)" style="fill: #1f77b4"/>
   </g>
   <g id="patch_25">
    <path d="M 95.770706 275.796689 
L 97.376786 275.796689 
L 97.376786 209.774505 
L 95.770706 209.774505 
z
" clip-path="url(#p4be0aa3fb2)" style="fill: #1f77b4"/>
   </g>
   <g id="patch_26">
    <path d="M 97.376786 275.796689 
L 98.982866 275.796689 
L 98.982866 193.446437 
L 97.376786 193.446437 
z
" clip-path="url(#p4be0aa3fb2)" style="fill: #1f77b4"/>
   </g>
   <g id="patch_27">
    <path d="M 98.982866 275.796689 
L 100.588947 275.796689 
L 100.588947 176.408454 
L 98.982866 176.408454 
z
" clip-path="url(#p4be0aa3fb2)" style="fill: #1f77b4"/>
   </g>
   <g id="patch_28">
    <path d="M 100.588947 275.796689 
L 102.195027 275.796689 
L 102.195027 202.675345 
L 100.588947 202.675345 
z
" clip-path="url(#p4be0aa3fb2)" style="fill: #1f77b4"/>
   </g>
   <g id="patch_29">
    <path d="M 102.195027 275.796689 
L 103.801107 275.796689 
L 103.801107 184.927446 
L 102.195027 184.927446 
z
" clip-path="url(#p4be0aa3fb2)" style="fill: #1f77b4"/>
   </g>
   <g id="patch_30">
    <path d="M 103.801107 275.796689 
L 105.407188 275.796689 
L 105.407188 189.186942 
L 103.801107 189.186942 
z
" clip-path="url(#p4be0aa3fb2)" style="fill: #1f77b4"/>
   </g>
   <g id="patch_31">
    <path d="M 105.407188 275.796689 
L 107.013268 275.796689 
L 107.013268 173.56879 
L 105.407188 173.56879 
z
" clip-path="url(#p4be0aa3fb2)" style="fill: #1f77b4"/>
   </g>
   <g id="patch_32">
    <path d="M 107.013268 275.796689 
L 108.619348 275.796689 
L 108.619348 184.927446 
L 107.013268 184.927446 
z
" clip-path="url(#p4be0aa3fb2)" style="fill: #1f77b4"/>
   </g>
   <g id="patch_33">
    <path d="M 108.619348 275.796689 
L 110.225429 275.796689 
L 110.225429 184.927446 
L 108.619348 184.927446 
z
" clip-path="url(#p4be0aa3fb2)" style="fill: #1f77b4"/>
   </g>
   <g id="patch_34">
    <path d="M 110.225429 275.796689 
L 111.831509 275.796689 
L 111.831509 170.01921 
L 110.225429 170.01921 
z
" clip-path="url(#p4be0aa3fb2)" style="fill: #1f77b4"/>
   </g>
   <g id="patch_35">
    <path d="M 111.831509 275.796689 
L 113.437589 275.796689 
L 113.437589 155.820891 
L 111.831509 155.820891 
z
" clip-path="url(#p4be0aa3fb2)" style="fill: #1f77b4"/>
   </g>
   <g id="patch_36">
    <path d="M 113.437589 275.796689 
L 115.04367 275.796689 
L 115.04367 169.309294 
L 113.437589 169.309294 
z
" clip-path="url(#p4be0aa3fb2)" style="fill: #1f77b4"/>
   </g>
   <g id="patch_37">
    <path d="M 115.04367 275.796689 
L 116.64975 275.796689 
L 116.64975 155.110975 
L 115.04367 155.110975 
z
" clip-path="url(#p4be0aa3fb2)" style="fill: #1f77b4"/>
   </g>
   <g id="patch_38">
    <path d="M 116.64975 275.796689 
L 118.25583 275.796689 
L 118.25583 170.729126 
L 116.64975 170.729126 
z
" clip-path="url(#p4be0aa3fb2)" style="fill: #1f77b4"/>
   </g>
   <g id="patch_39">
    <path d="M 118.25583 275.796689 
L 119.861911 275.796689 
L 119.861911 150.851479 
L 118.25583 150.851479 
z
" clip-path="url(#p4be0aa3fb2)" style="fill: #1f77b4"/>
   </g>
   <g id="patch_40">
    <path d="M 119.861911 275.796689 
L 121.467991 275.796689 
L 121.467991 154.401059 
L 119.861911 154.401059 
z
" clip-path="url(#p4be0aa3fb2)" style="fill: #1f77b4"/>
   </g>
   <g id="patch_41">
    <path d="M 121.467991 275.796689 
L 123.074071 275.796689 
L 123.074071 142.332488 
L 121.467991 142.332488 
z
" clip-path="url(#p4be0aa3fb2)" style="fill: #1f77b4"/>
   </g>
   <g id="patch_42">
    <path d="M 123.074071 275.796689 
L 124.680152 275.796689 
L 124.680152 138.782908 
L 123.074071 138.782908 
z
" clip-path="url(#p4be0aa3fb2)" style="fill: #1f77b4"/>
   </g>
   <g id="patch_43">
    <path d="M 124.680152 275.796689 
L 126.286232 275.796689 
L 126.286232 128.844084 
L 124.680152 128.844084 
z
" clip-path="url(#p4be0aa3fb2)" style="fill: #1f77b4"/>
   </g>
   <g id="patch_44">
    <path d="M 126.286232 275.796689 
L 127.892312 275.796689 
L 127.892312 145.882068 
L 126.286232 145.882068 
z
" clip-path="url(#p4be0aa3fb2)" style="fill: #1f77b4"/>
   </g>
   <g id="patch_45">
    <path d="M 127.892312 275.796689 
L 129.498393 275.796689 
L 129.498393 152.271311 
L 127.892312 152.271311 
z
" clip-path="url(#p4be0aa3fb2)" style="fill: #1f77b4"/>
   </g>
   <g id="patch_46">
    <path d="M 129.498393 275.796689 
L 131.104473 275.796689 
L 131.104473 125.294505 
L 129.498393 125.294505 
z
" clip-path="url(#p4be0aa3fb2)" style="fill: #1f77b4"/>
   </g>
   <g id="patch_47">
    <path d="M 131.104473 275.796689 
L 132.710553 275.796689 
L 132.710553 145.882068 
L 131.104473 145.882068 
z
" clip-path="url(#p4be0aa3fb2)" style="fill: #1f77b4"/>
   </g>
   <g id="patch_48">
    <path d="M 132.710553 275.796689 
L 134.316634 275.796689 
L 134.316634 147.301899 
L 132.710553 147.301899 
z
" clip-path="url(#p4be0aa3fb2)" style="fill: #1f77b4"/>
   </g>
   <g id="patch_49">
    <path d="M 134.316634 275.796689 
L 135.922714 275.796689 
L 135.922714 128.134168 
L 134.316634 128.134168 
z
" clip-path="url(#p4be0aa3fb2)" style="fill: #1f77b4"/>
   </g>
   <g id="patch_50">
    <path d="M 135.922714 275.796689 
L 137.528794 275.796689 
L 137.528794 127.424252 
L 135.922714 127.424252 
z
" clip-path="url(#p4be0aa3fb2)" style="fill: #1f77b4"/>
   </g>
   <g id="patch_51">
    <path d="M 137.528794 275.796689 
L 139.134875 275.796689 
L 139.134875 136.65316 
L 137.528794 136.65316 
z
" clip-path="url(#p4be0aa3fb2)" style="fill: #1f77b4"/>
   </g>
   <g id="patch_52">
    <path d="M 139.134875 275.796689 
L 140.740955 275.796689 
L 140.740955 111.806101 
L 139.134875 111.806101 
z
" clip-path="url(#p4be0aa3fb2)" style="fill: #1f77b4"/>
   </g>
   <g id="patch_53">
    <path d="M 140.740955 275.796689 
L 142.347035 275.796689 
L 142.347035 118.195345 
L 140.740955 118.195345 
z
" clip-path="url(#p4be0aa3fb2)" style="fill: #1f77b4"/>
   </g>
   <g id="patch_54">
    <path d="M 142.347035 275.796689 
L 143.953116 275.796689 
L 143.953116 107.546605 
L 142.347035 107.546605 
z
" clip-path="url(#p4be0aa3fb2)" style="fill: #1f77b4"/>
   </g>
   <g id="patch_55">
    <path d="M 143.953116 275.796689 
L 145.559196 275.796689 
L 145.559196 112.516017 
L 143.953116 112.516017 
z
" clip-path="url(#p4be0aa3fb2)" style="fill: #1f77b4"/>
   </g>
   <g id="patch_56">
    <path d="M 145.559196 275.796689 
L 147.165276 275.796689 
L 147.165276 106.836689 
L 145.559196 106.836689 
z
" clip-path="url(#p4be0aa3fb2)" style="fill: #1f77b4"/>
   </g>
   <g id="patch_57">
    <path d="M 147.165276 275.796689 
L 148.771357 275.796689 
L 148.771357 116.065597 
L 147.165276 116.065597 
z
" clip-path="url(#p4be0aa3fb2)" style="fill: #1f77b4"/>
   </g>
   <g id="patch_58">
    <path d="M 148.771357 275.796689 
L 150.377437 275.796689 
L 150.377437 98.317698 
L 148.771357 98.317698 
z
" clip-path="url(#p4be0aa3fb2)" style="fill: #1f77b4"/>
   </g>
   <g id="patch_59">
    <path d="M 150.377437 275.796689 
L 151.983517 275.796689 
L 151.983517 91.218538 
L 150.377437 91.218538 
z
" clip-path="url(#p4be0aa3fb2)" style="fill: #1f77b4"/>
   </g>
   <g id="patch_60">
    <path d="M 151.983517 275.796689 
L 153.589598 275.796689 
L 153.589598 111.096185 
L 151.983517 111.096185 
z
" clip-path="url(#p4be0aa3fb2)" style="fill: #1f77b4"/>
   </g>
   <g id="patch_61">
    <path d="M 153.589598 275.796689 
L 155.195678 275.796689 
L 155.195678 105.416857 
L 153.589598 105.416857 
z
" clip-path="url(#p4be0aa3fb2)" style="fill: #1f77b4"/>
   </g>
   <g id="patch_62">
    <path d="M 155.195678 275.796689 
L 156.801758 275.796689 
L 156.801758 94.768118 
L 155.195678 94.768118 
z
" clip-path="url(#p4be0aa3fb2)" style="fill: #1f77b4"/>
   </g>
   <g id="patch_63">
    <path d="M 156.801758 275.796689 
L 158.407839 275.796689 
L 158.407839 84.829294 
L 156.801758 84.829294 
z
" clip-path="url(#p4be0aa3fb2)" style="fill: #1f77b4"/>
   </g>
   <g id="patch_64">
    <path d="M 158.407839 275.796689 
L 160.013919 275.796689 
L 160.013919 81.989631 
L 158.407839 81.989631 
z
" clip-path="url(#p4be0aa3fb2)" style="fill: #1f77b4"/>
   </g>
   <g id="patch_65">
    <path d="M 160.013919 275.796689 
L 161.619999 275.796689 
L 161.619999 79.859883 
L 160.013919 79.859883 
z
" clip-path="url(#p4be0aa3fb2)" style="fill: #1f77b4"/>
   </g>
   <g id="patch_66">
    <path d="M 161.619999 275.796689 
L 163.22608 275.796689 
L 163.22608 74.180555 
L 161.619999 74.180555 
z
" clip-path="url(#p4be0aa3fb2)" style="fill: #1f77b4"/>
   </g>
   <g id="patch_67">
    <path d="M 163.22608 275.796689 
L 164.83216 275.796689 
L 164.83216 107.546605 
L 163.22608 107.546605 
z
" clip-path="url(#p4be0aa3fb2)" style="fill: #1f77b4"/>
   </g>
   <g id="patch_68">
    <path d="M 164.83216 275.796689 
L 166.43824 275.796689 
L 166.43824 77.020219 
L 164.83216 77.020219 
z
" clip-path="url(#p4be0aa3fb2)" style="fill: #1f77b4"/>
   </g>
   <g id="patch_69">
    <path d="M 166.43824 275.796689 
L 168.04432 275.796689 
L 168.04432 91.928454 
L 166.43824 91.928454 
z
" clip-path="url(#p4be0aa3fb2)" style="fill: #1f77b4"/>
   </g>
   <g id="patch_70">
    <path d="M 168.04432 275.796689 
L 169.650401 275.796689 
L 169.650401 70.630975 
L 168.04432 70.630975 
z
" clip-path="url(#p4be0aa3fb2)" style="fill: #1f77b4"/>
   </g>
   <g id="patch_71">
    <path d="M 169.650401 275.796689 
L 171.256481 275.796689 
L 171.256481 79.859883 
L 169.650401 79.859883 
z
" clip-path="url(#p4be0aa3fb2)" style="fill: #1f77b4"/>
   </g>
   <g id="patch_72">
    <path d="M 171.256481 275.796689 
L 172.862561 275.796689 
L 172.862561 88.378874 
L 171.256481 88.378874 
z
" clip-path="url(#p4be0aa3fb2)" style="fill: #1f77b4"/>
   </g>
   <g id="patch_73">
    <path d="M 172.862561 275.796689 
L 174.468642 275.796689 
L 174.468642 86.959042 
L 172.862561 86.959042 
z
" clip-path="url(#p4be0aa3fb2)" style="fill: #1f77b4"/>
   </g>
   <g id="patch_74">
    <path d="M 174.468642 275.796689 
L 176.074722 275.796689 
L 176.074722 90.508622 
L 174.468642 90.508622 
z
" clip-path="url(#p4be0aa3fb2)" style="fill: #1f77b4"/>
   </g>
   <g id="patch_75">
    <path d="M 176.074722 275.796689 
L 177.680802 275.796689 
L 177.680802 77.730135 
L 176.074722 77.730135 
z
" clip-path="url(#p4be0aa3fb2)" style="fill: #1f77b4"/>
   </g>
   <g id="patch_76">
    <path d="M 177.680802 275.796689 
L 179.286883 275.796689 
L 179.286883 64.241731 
L 177.680802 64.241731 
z
" clip-path="url(#p4be0aa3fb2)" style="fill: #1f77b4"/>
   </g>
   <g id="patch_77">
    <path d="M 179.286883 275.796689 
L 180.892963 275.796689 
L 180.892963 69.921059 
L 179.286883 69.921059 
z
" clip-path="url(#p4be0aa3fb2)" style="fill: #1f77b4"/>
   </g>
   <g id="patch_78">
    <path d="M 180.892963 275.796689 
L 182.499043 275.796689 
L 182.499043 84.829294 
L 180.892963 84.829294 
z
" clip-path="url(#p4be0aa3fb2)" style="fill: #1f77b4"/>
   </g>
   <g id="patch_79">
    <path d="M 182.499043 275.796689 
L 184.105124 275.796689 
L 184.105124 86.959042 
L 182.499043 86.959042 
z
" clip-path="url(#p4be0aa3fb2)" style="fill: #1f77b4"/>
   </g>
   <g id="patch_80">
    <path d="M 184.105124 275.796689 
L 185.711204 275.796689 
L 185.711204 74.180555 
L 184.105124 74.180555 
z
" clip-path="url(#p4be0aa3fb2)" style="fill: #1f77b4"/>
   </g>
   <g id="patch_81">
    <path d="M 185.711204 275.796689 
L 187.317284 275.796689 
L 187.317284 67.081395 
L 185.711204 67.081395 
z
" clip-path="url(#p4be0aa3fb2)" style="fill: #1f77b4"/>
   </g>
   <g id="patch_82">
    <path d="M 187.317284 275.796689 
L 188.923365 275.796689 
L 188.923365 68.501227 
L 187.317284 68.501227 
z
" clip-path="url(#p4be0aa3fb2)" style="fill: #1f77b4"/>
   </g>
   <g id="patch_83">
    <path d="M 188.923365 275.796689 
L 190.529445 275.796689 
L 190.529445 66.371479 
L 188.923365 66.371479 
z
" clip-path="url(#p4be0aa3fb2)" style="fill: #1f77b4"/>
   </g>
   <g id="patch_84">
    <path d="M 190.529445 275.796689 
L 192.135525 275.796689 
L 192.135525 69.211143 
L 190.529445 69.211143 
z
" clip-path="url(#p4be0aa3fb2)" style="fill: #1f77b4"/>
   </g>
   <g id="patch_85">
    <path d="M 192.135525 275.796689 
L 193.741606 275.796689 
L 193.741606 55.012824 
L 192.135525 55.012824 
z
" clip-path="url(#p4be0aa3fb2)" style="fill: #1f77b4"/>
   </g>
   <g id="patch_86">
    <path d="M 193.741606 275.796689 
L 195.347686 275.796689 
L 195.347686 55.72274 
L 193.741606 55.72274 
z
" clip-path="url(#p4be0aa3fb2)" style="fill: #1f77b4"/>
   </g>
   <g id="patch_87">
    <path d="M 195.347686 275.796689 
L 196.953766 275.796689 
L 196.953766 65.661563 
L 195.347686 65.661563 
z
" clip-path="url(#p4be0aa3fb2)" style="fill: #1f77b4"/>
   </g>
   <g id="patch_88">
    <path d="M 196.953766 275.796689 
L 198.559847 275.796689 
L 198.559847 74.180555 
L 196.953766 74.180555 
z
" clip-path="url(#p4be0aa3fb2)" style="fill: #1f77b4"/>
   </g>
   <g id="patch_89">
    <path d="M 198.559847 275.796689 
L 200.165927 275.796689 
L 200.165927 69.921059 
L 198.559847 69.921059 
z
" clip-path="url(#p4be0aa3fb2)" style="fill: #1f77b4"/>
   </g>
   <g id="patch_90">
    <path d="M 200.165927 275.796689 
L 201.772007 275.796689 
L 201.772007 52.883076 
L 200.165927 52.883076 
z
" clip-path="url(#p4be0aa3fb2)" style="fill: #1f77b4"/>
   </g>
   <g id="patch_91">
    <path d="M 201.772007 275.796689 
L 203.378088 275.796689 
L 203.378088 58.562404 
L 201.772007 58.562404 
z
" clip-path="url(#p4be0aa3fb2)" style="fill: #1f77b4"/>
   </g>
   <g id="patch_92">
    <path d="M 203.378088 275.796689 
L 204.984168 275.796689 
L 204.984168 57.852488 
L 203.378088 57.852488 
z
" clip-path="url(#p4be0aa3fb2)" style="fill: #1f77b4"/>
   </g>
   <g id="patch_93">
    <path d="M 204.984168 275.796689 
L 206.590248 275.796689 
L 206.590248 39.394673 
L 204.984168 39.394673 
z
" clip-path="url(#p4be0aa3fb2)" style="fill: #1f77b4"/>
   </g>
   <g id="patch_94">
    <path d="M 206.590248 275.796689 
L 208.196329 275.796689 
L 208.196329 74.180555 
L 206.590248 74.180555 
z
" clip-path="url(#p4be0aa3fb2)" style="fill: #1f77b4"/>
   </g>
   <g id="patch_95">
    <path d="M 208.196329 275.796689 
L 209.802409 275.796689 
L 209.802409 70.630975 
L 208.196329 70.630975 
z
" clip-path="url(#p4be0aa3fb2)" style="fill: #1f77b4"/>
   </g>
   <g id="patch_96">
    <path d="M 209.802409 275.796689 
L 211.408489 275.796689 
L 211.408489 78.440051 
L 209.802409 78.440051 
z
" clip-path="url(#p4be0aa3fb2)" style="fill: #1f77b4"/>
   </g>
   <g id="patch_97">
    <path d="M 211.408489 275.796689 
L 213.01457 275.796689 
L 213.01457 44.364084 
L 211.408489 44.364084 
z
" clip-path="url(#p4be0aa3fb2)" style="fill: #1f77b4"/>
   </g>
   <g id="patch_98">
    <path d="M 213.01457 275.796689 
L 214.62065 275.796689 
L 214.62065 81.279715 
L 213.01457 81.279715 
z
" clip-path="url(#p4be0aa3fb2)" style="fill: #1f77b4"/>
   </g>
   <g id="patch_99">
    <path d="M 214.62065 275.796689 
L 216.22673 275.796689 
L 216.22673 47.203748 
L 214.62065 47.203748 
z
" clip-path="url(#p4be0aa3fb2)" style="fill: #1f77b4"/>
   </g>
   <g id="patch_100">
    <path d="M 216.22673 275.796689 
L 217.832811 275.796689 
L 217.832811 53.592992 
L 216.22673 53.592992 
z
" clip-path="url(#p4be0aa3fb2)" style="fill: #1f77b4"/>
   </g>
   <g id="patch_101">
    <path d="M 217.832811 275.796689 
L 219.438891 275.796689 
L 219.438891 23.066605 
L 217.832811 23.066605 
z
" clip-path="url(#p4be0aa3fb2)" style="fill: #1f77b4"/>
   </g>
   <g id="patch_102">
    <path d="M 219.438891 275.796689 
L 221.044971 275.796689 
L 221.044971 49.333496 
L 219.438891 49.333496 
z
" clip-path="url(#p4be0aa3fb2)" style="fill: #1f77b4"/>
   </g>
   <g id="patch_103">
    <path d="M 221.044971 275.796689 
L 222.651052 275.796689 
L 222.651052 40.104589 
L 221.044971 40.104589 
z
" clip-path="url(#p4be0aa3fb2)" style="fill: #1f77b4"/>
   </g>
   <g id="patch_104">
    <path d="M 222.651052 275.796689 
L 224.257132 275.796689 
L 224.257132 54.302908 
L 222.651052 54.302908 
z
" clip-path="url(#p4be0aa3fb2)" style="fill: #1f77b4"/>
   </g>
   <g id="patch_105">
    <path d="M 224.257132 275.796689 
L 225.863212 275.796689 
L 225.863212 48.62358 
L 224.257132 48.62358 
z
" clip-path="url(#p4be0aa3fb2)" style="fill: #1f77b4"/>
   </g>
   <g id="patch_106">
    <path d="M 225.863212 275.796689 
L 227.469293 275.796689 
L 227.469293 47.203748 
L 225.863212 47.203748 
z
" clip-path="url(#p4be0aa3fb2)" style="fill: #1f77b4"/>
   </g>
   <g id="patch_107">
    <path d="M 227.469293 275.796689 
L 229.075373 275.796689 
L 229.075373 66.371479 
L 227.469293 66.371479 
z
" clip-path="url(#p4be0aa3fb2)" style="fill: #1f77b4"/>
   </g>
   <g id="patch_108">
    <path d="M 229.075373 275.796689 
L 230.681453 275.796689 
L 230.681453 56.432656 
L 229.075373 56.432656 
z
" clip-path="url(#p4be0aa3fb2)" style="fill: #1f77b4"/>
   </g>
   <g id="patch_109">
    <path d="M 230.681453 275.796689 
L 232.287533 275.796689 
L 232.287533 22.356689 
L 230.681453 22.356689 
z
" clip-path="url(#p4be0aa3fb2)" style="fill: #1f77b4"/>
   </g>
   <g id="patch_110">
    <path d="M 232.287533 275.796689 
L 233.893614 275.796689 
L 233.893614 67.081395 
L 232.287533 67.081395 
z
" clip-path="url(#p4be0aa3fb2)" style="fill: #1f77b4"/>
   </g>
   <g id="patch_111">
    <path d="M 233.893614 275.796689 
L 235.499694 275.796689 
L 235.499694 48.62358 
L 233.893614 48.62358 
z
" clip-path="url(#p4be0aa3fb2)" style="fill: #1f77b4"/>
   </g>
   <g id="patch_112">
    <path d="M 235.499694 275.796689 
L 237.105774 275.796689 
L 237.105774 72.760723 
L 235.499694 72.760723 
z
" clip-path="url(#p4be0aa3fb2)" style="fill: #1f77b4"/>
   </g>
   <g id="patch_113">
    <path d="M 237.105774 275.796689 
L 238.711855 275.796689 
L 238.711855 60.692152 
L 237.105774 60.692152 
z
" clip-path="url(#p4be0aa3fb2)" style="fill: #1f77b4"/>
   </g>
   <g id="patch_114">
    <path d="M 238.711855 275.796689 
L 240.317935 275.796689 
L 240.317935 65.661563 
L 238.711855 65.661563 
z
" clip-path="url(#p4be0aa3fb2)" style="fill: #1f77b4"/>
   </g>
   <g id="patch_115">
    <path d="M 240.317935 275.796689 
L 241.924015 275.796689 
L 241.924015 67.791311 
L 240.317935 67.791311 
z
" clip-path="url(#p4be0aa3fb2)" style="fill: #1f77b4"/>
   </g>
   <g id="patch_116">
    <path d="M 241.924015 275.796689 
L 243.530096 275.796689 
L 243.530096 65.661563 
L 241.924015 65.661563 
z
" clip-path="url(#p4be0aa3fb2)" style="fill: #1f77b4"/>
   </g>
   <g id="patch_117">
    <path d="M 243.530096 275.796689 
L 245.136176 275.796689 
L 245.136176 52.883076 
L 243.530096 52.883076 
z
" clip-path="url(#p4be0aa3fb2)" style="fill: #1f77b4"/>
   </g>
   <g id="patch_118">
    <path d="M 245.136176 275.796689 
L 246.742256 275.796689 
L 246.742256 36.555009 
L 245.136176 36.555009 
z
" clip-path="url(#p4be0aa3fb2)" style="fill: #1f77b4"/>
   </g>
   <g id="patch_119">
    <path d="M 246.742256 275.796689 
L 248.348337 275.796689 
L 248.348337 72.760723 
L 246.742256 72.760723 
z
" clip-path="url(#p4be0aa3fb2)" style="fill: #1f77b4"/>
   </g>
   <g id="patch_120">
    <path d="M 248.348337 275.796689 
L 249.954417 275.796689 
L 249.954417 47.913664 
L 248.348337 47.913664 
z
" clip-path="url(#p4be0aa3fb2)" style="fill: #1f77b4"/>
   </g>
   <g id="patch_121">
    <path d="M 249.954417 275.796689 
L 251.560497 275.796689 
L 251.560497 72.050807 
L 249.954417 72.050807 
z
" clip-path="url(#p4be0aa3fb2)" style="fill: #1f77b4"/>
   </g>
   <g id="patch_122">
    <path d="M 251.560497 275.796689 
L 253.166578 275.796689 
L 253.166578 50.043412 
L 251.560497 50.043412 
z
" clip-path="url(#p4be0aa3fb2)" style="fill: #1f77b4"/>
   </g>
   <g id="patch_123">
    <path d="M 253.166578 275.796689 
L 254.772658 275.796689 
L 254.772658 69.211143 
L 253.166578 69.211143 
z
" clip-path="url(#p4be0aa3fb2)" style="fill: #1f77b4"/>
   </g>
   <g id="patch_124">
    <path d="M 254.772658 275.796689 
L 256.378738 275.796689 
L 256.378738 49.333496 
L 254.772658 49.333496 
z
" clip-path="url(#p4be0aa3fb2)" style="fill: #1f77b4"/>
   </g>
   <g id="patch_125">
    <path d="M 256.378738 275.796689 
L 257.984819 275.796689 
L 257.984819 69.211143 
L 256.378738 69.211143 
z
" clip-path="url(#p4be0aa3fb2)" style="fill: #1f77b4"/>
   </g>
   <g id="patch_126">
    <path d="M 257.984819 275.796689 
L 259.590899 275.796689 
L 259.590899 85.53921 
L 257.984819 85.53921 
z
" clip-path="url(#p4be0aa3fb2)" style="fill: #1f77b4"/>
   </g>
   <g id="patch_127">
    <path d="M 259.590899 275.796689 
L 261.196979 275.796689 
L 261.196979 83.409463 
L 259.590899 83.409463 
z
" clip-path="url(#p4be0aa3fb2)" style="fill: #1f77b4"/>
   </g>
   <g id="patch_128">
    <path d="M 261.196979 275.796689 
L 262.80306 275.796689 
L 262.80306 88.378874 
L 261.196979 88.378874 
z
" clip-path="url(#p4be0aa3fb2)" style="fill: #1f77b4"/>
   </g>
   <g id="patch_129">
    <path d="M 262.80306 275.796689 
L 264.40914 275.796689 
L 264.40914 66.371479 
L 262.80306 66.371479 
z
" clip-path="url(#p4be0aa3fb2)" style="fill: #1f77b4"/>
   </g>
   <g id="patch_130">
    <path d="M 264.40914 275.796689 
L 266.01522 275.796689 
L 266.01522 74.180555 
L 264.40914 74.180555 
z
" clip-path="url(#p4be0aa3fb2)" style="fill: #1f77b4"/>
   </g>
   <g id="patch_131">
    <path d="M 266.01522 275.796689 
L 267.621301 275.796689 
L 267.621301 100.447446 
L 266.01522 100.447446 
z
" clip-path="url(#p4be0aa3fb2)" style="fill: #1f77b4"/>
   </g>
   <g id="patch_132">
    <path d="M 267.621301 275.796689 
L 269.227381 275.796689 
L 269.227381 58.562404 
L 267.621301 58.562404 
z
" clip-path="url(#p4be0aa3fb2)" style="fill: #1f77b4"/>
   </g>
   <g id="patch_133">
    <path d="M 269.227381 275.796689 
L 270.833461 275.796689 
L 270.833461 89.798706 
L 269.227381 89.798706 
z
" clip-path="url(#p4be0aa3fb2)" style="fill: #1f77b4"/>
   </g>
   <g id="patch_134">
    <path d="M 270.833461 275.796689 
L 272.439542 275.796689 
L 272.439542 74.890471 
L 270.833461 74.890471 
z
" clip-path="url(#p4be0aa3fb2)" style="fill: #1f77b4"/>
   </g>
   <g id="patch_135">
    <path d="M 272.439542 275.796689 
L 274.045622 275.796689 
L 274.045622 90.508622 
L 272.439542 90.508622 
z
" clip-path="url(#p4be0aa3fb2)" style="fill: #1f77b4"/>
   </g>
   <g id="patch_136">
    <path d="M 274.045622 275.796689 
L 275.651702 275.796689 
L 275.651702 96.897866 
L 274.045622 96.897866 
z
" clip-path="url(#p4be0aa3fb2)" style="fill: #1f77b4"/>
   </g>
   <g id="patch_137">
    <path d="M 275.651702 275.796689 
L 277.257783 275.796689 
L 277.257783 96.897866 
L 275.651702 96.897866 
z
" clip-path="url(#p4be0aa3fb2)" style="fill: #1f77b4"/>
   </g>
   <g id="patch_138">
    <path d="M 277.257783 275.796689 
L 278.863863 275.796689 
L 278.863863 59.27232 
L 277.257783 59.27232 
z
" clip-path="url(#p4be0aa3fb2)" style="fill: #1f77b4"/>
   </g>
   <g id="patch_139">
    <path d="M 278.863863 275.796689 
L 280.469943 275.796689 
L 280.469943 95.478034 
L 278.863863 95.478034 
z
" clip-path="url(#p4be0aa3fb2)" style="fill: #1f77b4"/>
   </g>
   <g id="patch_140">
    <path d="M 280.469943 275.796689 
L 282.076024 275.796689 
L 282.076024 86.249126 
L 280.469943 86.249126 
z
" clip-path="url(#p4be0aa3fb2)" style="fill: #1f77b4"/>
   </g>
   <g id="patch_141">
    <path d="M 282.076024 275.796689 
L 283.682104 275.796689 
L 283.682104 99.027614 
L 282.076024 99.027614 
z
" clip-path="url(#p4be0aa3fb2)" style="fill: #1f77b4"/>
   </g>
   <g id="patch_142">
    <path d="M 283.682104 275.796689 
L 285.288184 275.796689 
L 285.288184 112.516017 
L 283.682104 112.516017 
z
" clip-path="url(#p4be0aa3fb2)" style="fill: #1f77b4"/>
   </g>
   <g id="patch_143">
    <path d="M 285.288184 275.796689 
L 286.894265 275.796689 
L 286.894265 94.768118 
L 285.288184 94.768118 
z
" clip-path="url(#p4be0aa3fb2)" style="fill: #1f77b4"/>
   </g>
   <g id="patch_144">
    <path d="M 286.894265 275.796689 
L 288.500345 275.796689 
L 288.500345 107.546605 
L 286.894265 107.546605 
z
" clip-path="url(#p4be0aa3fb2)" style="fill: #1f77b4"/>
   </g>
   <g id="patch_145">
    <path d="M 288.500345 275.796689 
L 290.106425 275.796689 
L 290.106425 121.035009 
L 288.500345 121.035009 
z
" clip-path="url(#p4be0aa3fb2)" style="fill: #1f77b4"/>
   </g>
   <g id="patch_146">
    <path d="M 290.106425 275.796689 
L 291.712506 275.796689 
L 291.712506 106.126773 
L 290.106425 106.126773 
z
" clip-path="url(#p4be0aa3fb2)" style="fill: #1f77b4"/>
   </g>
   <g id="patch_147">
    <path d="M 291.712506 275.796689 
L 293.318586 275.796689 
L 293.318586 117.485429 
L 291.712506 117.485429 
z
" clip-path="url(#p4be0aa3fb2)" style="fill: #1f77b4"/>
   </g>
   <g id="patch_148">
    <path d="M 293.318586 275.796689 
L 294.924666 275.796689 
L 294.924666 96.18795 
L 293.318586 96.18795 
z
" clip-path="url(#p4be0aa3fb2)" style="fill: #1f77b4"/>
   </g>
   <g id="patch_149">
    <path d="M 294.924666 275.796689 
L 296.530747 275.796689 
L 296.530747 108.256521 
L 294.924666 108.256521 
z
" clip-path="url(#p4be0aa3fb2)" style="fill: #1f77b4"/>
   </g>
   <g id="patch_150">
    <path d="M 296.530747 275.796689 
L 298.136827 275.796689 
L 298.136827 110.386269 
L 296.530747 110.386269 
z
" clip-path="url(#p4be0aa3fb2)" style="fill: #1f77b4"/>
   </g>
   <g id="patch_151">
    <path d="M 298.136827 275.796689 
L 299.742907 275.796689 
L 299.742907 121.744925 
L 298.136827 121.744925 
z
" clip-path="url(#p4be0aa3fb2)" style="fill: #1f77b4"/>
   </g>
   <g id="patch_152">
    <path d="M 299.742907 275.796689 
L 301.348987 275.796689 
L 301.348987 108.256521 
L 299.742907 108.256521 
z
" clip-path="url(#p4be0aa3fb2)" style="fill: #1f77b4"/>
   </g>
   <g id="patch_153">
    <path d="M 301.348987 275.796689 
L 302.955068 275.796689 
L 302.955068 118.195345 
L 301.348987 118.195345 
z
" clip-path="url(#p4be0aa3fb2)" style="fill: #1f77b4"/>
   </g>
   <g id="patch_154">
    <path d="M 302.955068 275.796689 
L 304.561148 275.796689 
L 304.561148 108.256521 
L 302.955068 108.256521 
z
" clip-path="url(#p4be0aa3fb2)" style="fill: #1f77b4"/>
   </g>
   <g id="patch_155">
    <path d="M 304.561148 275.796689 
L 306.167228 275.796689 
L 306.167228 125.294505 
L 304.561148 125.294505 
z
" clip-path="url(#p4be0aa3fb2)" style="fill: #1f77b4"/>
   </g>
   <g id="patch_156">
    <path d="M 306.167228 275.796689 
L 307.773309 275.796689 
L 307.773309 150.141563 
L 306.167228 150.141563 
z
" clip-path="url(#p4be0aa3fb2)" style="fill: #1f77b4"/>
   </g>
   <g id="patch_157">
    <path d="M 307.773309 275.796689 
L 309.379389 275.796689 
L 309.379389 125.294505 
L 307.773309 125.294505 
z
" clip-path="url(#p4be0aa3fb2)" style="fill: #1f77b4"/>
   </g>
   <g id="patch_158">
    <path d="M 309.379389 275.796689 
L 310.985469 275.796689 
L 310.985469 117.485429 
L 309.379389 117.485429 
z
" clip-path="url(#p4be0aa3fb2)" style="fill: #1f77b4"/>
   </g>
   <g id="patch_159">
    <path d="M 310.985469 275.796689 
L 312.59155 275.796689 
L 312.59155 130.973832 
L 310.985469 130.973832 
z
" clip-path="url(#p4be0aa3fb2)" style="fill: #1f77b4"/>
   </g>
   <g id="patch_160">
    <path d="M 312.59155 275.796689 
L 314.19763 275.796689 
L 314.19763 126.714336 
L 312.59155 126.714336 
z
" clip-path="url(#p4be0aa3fb2)" style="fill: #1f77b4"/>
   </g>
   <g id="patch_161">
    <path d="M 314.19763 275.796689 
L 315.80371 275.796689 
L 315.80371 122.454841 
L 314.19763 122.454841 
z
" clip-path="url(#p4be0aa3fb2)" style="fill: #1f77b4"/>
   </g>
   <g id="patch_162">
    <path d="M 315.80371 275.796689 
L 317.409791 275.796689 
L 317.409791 135.233328 
L 315.80371 135.233328 
z
" clip-path="url(#p4be0aa3fb2)" style="fill: #1f77b4"/>
   </g>
   <g id="patch_163">
    <path d="M 317.409791 275.796689 
L 319.015871 275.796689 
L 319.015871 138.782908 
L 317.409791 138.782908 
z
" clip-path="url(#p4be0aa3fb2)" style="fill: #1f77b4"/>
   </g>
   <g id="patch_164">
    <path d="M 319.015871 275.796689 
L 320.621951 275.796689 
L 320.621951 134.523412 
L 319.015871 134.523412 
z
" clip-path="url(#p4be0aa3fb2)" style="fill: #1f77b4"/>
   </g>
   <g id="patch_165">
    <path d="M 320.621951 275.796689 
L 322.228032 275.796689 
L 322.228032 145.172152 
L 320.621951 145.172152 
z
" clip-path="url(#p4be0aa3fb2)" style="fill: #1f77b4"/>
   </g>
   <g id="patch_166">
    <path d="M 322.228032 275.796689 
L 323.834112 275.796689 
L 323.834112 156.530807 
L 322.228032 156.530807 
z
" clip-path="url(#p4be0aa3fb2)" style="fill: #1f77b4"/>
   </g>
   <g id="patch_167">
    <path d="M 323.834112 275.796689 
L 325.440192 275.796689 
L 325.440192 145.172152 
L 323.834112 145.172152 
z
" clip-path="url(#p4be0aa3fb2)" style="fill: #1f77b4"/>
   </g>
   <g id="patch_168">
    <path d="M 325.440192 275.796689 
L 327.046273 275.796689 
L 327.046273 156.530807 
L 325.440192 156.530807 
z
" clip-path="url(#p4be0aa3fb2)" style="fill: #1f77b4"/>
   </g>
   <g id="patch_169">
    <path d="M 327.046273 275.796689 
L 328.652353 275.796689 
L 328.652353 170.729126 
L 327.046273 170.729126 
z
" clip-path="url(#p4be0aa3fb2)" style="fill: #1f77b4"/>
   </g>
   <g id="patch_170">
    <path d="M 328.652353 275.796689 
L 330.258433 275.796689 
L 330.258433 162.210135 
L 328.652353 162.210135 
z
" clip-path="url(#p4be0aa3fb2)" style="fill: #1f77b4"/>
   </g>
   <g id="patch_171">
    <path d="M 330.258433 275.796689 
L 331.864514 275.796689 
L 331.864514 164.339883 
L 330.258433 164.339883 
z
" clip-path="url(#p4be0aa3fb2)" style="fill: #1f77b4"/>
   </g>
   <g id="patch_172">
    <path d="M 331.864514 275.796689 
L 333.470594 275.796689 
L 333.470594 161.500219 
L 331.864514 161.500219 
z
" clip-path="url(#p4be0aa3fb2)" style="fill: #1f77b4"/>
   </g>
   <g id="patch_173">
    <path d="M 333.470594 275.796689 
L 335.076674 275.796689 
L 335.076674 177.828286 
L 333.470594 177.828286 
z
" clip-path="url(#p4be0aa3fb2)" style="fill: #1f77b4"/>
   </g>
   <g id="patch_174">
    <path d="M 335.076674 275.796689 
L 336.682755 275.796689 
L 336.682755 179.958034 
L 335.076674 179.958034 
z
" clip-path="url(#p4be0aa3fb2)" style="fill: #1f77b4"/>
   </g>
   <g id="patch_175">
    <path d="M 336.682755 275.796689 
L 338.288835 275.796689 
L 338.288835 182.797698 
L 336.682755 182.797698 
z
" clip-path="url(#p4be0aa3fb2)" style="fill: #1f77b4"/>
   </g>
   <g id="patch_176">
    <path d="M 338.288835 275.796689 
L 339.894915 275.796689 
L 339.894915 184.21753 
L 338.288835 184.21753 
z
" clip-path="url(#p4be0aa3fb2)" style="fill: #1f77b4"/>
   </g>
   <g id="patch_177">
    <path d="M 339.894915 275.796689 
L 341.500996 275.796689 
L 341.500996 177.828286 
L 339.894915 177.828286 
z
" clip-path="url(#p4be0aa3fb2)" style="fill: #1f77b4"/>
   </g>
   <g id="patch_178">
    <path d="M 341.500996 275.796689 
L 343.107076 275.796689 
L 343.107076 186.347278 
L 341.500996 186.347278 
z
" clip-path="url(#p4be0aa3fb2)" style="fill: #1f77b4"/>
   </g>
   <g id="patch_179">
    <path d="M 343.107076 275.796689 
L 344.713156 275.796689 
L 344.713156 201.255513 
L 343.107076 201.255513 
z
" clip-path="url(#p4be0aa3fb2)" style="fill: #1f77b4"/>
   </g>
   <g id="patch_180">
    <path d="M 344.713156 275.796689 
L 346.319237 275.796689 
L 346.319237 184.21753 
L 344.713156 184.21753 
z
" clip-path="url(#p4be0aa3fb2)" style="fill: #1f77b4"/>
   </g>
   <g id="patch_181">
    <path d="M 346.319237 275.796689 
L 347.925317 275.796689 
L 347.925317 187.057194 
L 346.319237 187.057194 
z
" clip-path="url(#p4be0aa3fb2)" style="fill: #1f77b4"/>
   </g>
   <g id="patch_182">
    <path d="M 347.925317 275.796689 
L 349.531397 275.796689 
L 349.531397 199.125765 
L 347.925317 199.125765 
z
" clip-path="url(#p4be0aa3fb2)" style="fill: #1f77b4"/>
   </g>
   <g id="patch_183">
    <path d="M 349.531397 275.796689 
L 351.137478 275.796689 
L 351.137478 202.675345 
L 349.531397 202.675345 
z
" clip-path="url(#p4be0aa3fb2)" style="fill: #1f77b4"/>
   </g>
   <g id="patch_184">
    <path d="M 351.137478 275.796689 
L 352.743558 275.796689 
L 352.743558 201.965429 
L 351.137478 201.965429 
z
" clip-path="url(#p4be0aa3fb2)" style="fill: #1f77b4"/>
   </g>
   <g id="patch_185">
    <path d="M 352.743558 275.796689 
L 354.349638 275.796689 
L 354.349638 213.324084 
L 352.743558 213.324084 
z
" clip-path="url(#p4be0aa3fb2)" style="fill: #1f77b4"/>
   </g>
   <g id="patch_186">
    <path d="M 354.349638 275.796689 
L 355.955719 275.796689 
L 355.955719 221.13316 
L 354.349638 221.13316 
z
" clip-path="url(#p4be0aa3fb2)" style="fill: #1f77b4"/>
   </g>
   <g id="patch_187">
    <path d="M 355.955719 275.796689 
L 357.561799 275.796689 
L 357.561799 221.13316 
L 355.955719 221.13316 
z
" clip-path="url(#p4be0aa3fb2)" style="fill: #1f77b4"/>
   </g>
   <g id="patch_188">
    <path d="M 357.561799 275.796689 
L 359.167879 275.796689 
L 359.167879 226.102572 
L 357.561799 226.102572 
z
" clip-path="url(#p4be0aa3fb2)" style="fill: #1f77b4"/>
   </g>
   <g id="patch_189">
    <path d="M 359.167879 275.796689 
L 360.77396 275.796689 
L 360.77396 210.48442 
L 359.167879 210.48442 
z
" clip-path="url(#p4be0aa3fb2)" style="fill: #1f77b4"/>
   </g>
   <g id="patch_190">
    <path d="M 360.77396 275.796689 
L 362.38004 275.796689 
L 362.38004 226.812488 
L 360.77396 226.812488 
z
" clip-path="url(#p4be0aa3fb2)" style="fill: #1f77b4"/>
   </g>
   <g id="patch_191">
    <path d="M 362.38004 275.796689 
L 363.98612 275.796689 
L 363.98612 231.781899 
L 362.38004 231.781899 
z
" clip-path="url(#p4be0aa3fb2)" style="fill: #1f77b4"/>
   </g>
   <g id="patch_192">
    <path d="M 363.98612 275.796689 
L 365.5922 275.796689 
L 365.5922 231.071984 
L 363.98612 231.071984 
z
" clip-path="url(#p4be0aa3fb2)" style="fill: #1f77b4"/>
   </g>
   <g id="patch_193">
    <path d="M 365.5922 275.796689 
L 367.198281 275.796689 
L 367.198281 236.041395 
L 365.5922 236.041395 
z
" clip-path="url(#p4be0aa3fb2)" style="fill: #1f77b4"/>
   </g>
   <g id="patch_194">
    <path d="M 367.198281 275.796689 
L 368.804361 275.796689 
L 368.804361 248.109967 
L 367.198281 248.109967 
z
" clip-path="url(#p4be0aa3fb2)" style="fill: #1f77b4"/>
   </g>
   <g id="patch_195">
    <path d="M 368.804361 275.796689 
L 370.410441 275.796689 
L 370.410441 236.751311 
L 368.804361 236.751311 
z
" clip-path="url(#p4be0aa3fb2)" style="fill: #1f77b4"/>
   </g>
   <g id="patch_196">
    <path d="M 370.410441 275.796689 
L 372.016522 275.796689 
L 372.016522 248.819883 
L 370.410441 248.819883 
z
" clip-path="url(#p4be0aa3fb2)" style="fill: #1f77b4"/>
   </g>
   <g id="patch_197">
    <path d="M 372.016522 275.796689 
L 373.622602 275.796689 
L 373.622602 253.079378 
L 372.016522 253.079378 
z
" clip-path="url(#p4be0aa3fb2)" style="fill: #1f77b4"/>
   </g>
   <g id="patch_198">
    <path d="M 373.622602 275.796689 
L 375.228682 275.796689 
L 375.228682 252.369463 
L 373.622602 252.369463 
z
" clip-path="url(#p4be0aa3fb2)" style="fill: #1f77b4"/>
   </g>
   <g id="patch_199">
    <path d="M 375.228682 275.796689 
L 376.834763 275.796689 
L 376.834763 257.338874 
L 375.228682 257.338874 
z
" clip-path="url(#p4be0aa3fb2)" style="fill: #1f77b4"/>
   </g>
   <g id="patch_200">
    <path d="M 376.834763 275.796689 
L 378.440843 275.796689 
L 378.440843 260.178538 
L 376.834763 260.178538 
z
" clip-path="url(#p4be0aa3fb2)" style="fill: #1f77b4"/>
   </g>
   <g id="patch_201">
    <path d="M 378.440843 275.796689 
L 380.046923 275.796689 
L 380.046923 265.857866 
L 378.440843 265.857866 
z
" clip-path="url(#p4be0aa3fb2)" style="fill: #1f77b4"/>
   </g>
   <g id="patch_202">
    <path d="M 380.046923 275.796689 
L 381.653004 275.796689 
L 381.653004 265.857866 
L 380.046923 265.857866 
z
" clip-path="url(#p4be0aa3fb2)" style="fill: #1f77b4"/>
   </g>
   <g id="matplotlib.axis_1">
    <g id="xtick_1">
     <g id="line2d_1">
      <defs>
       <path id="m1c2fbc30e1" d="M 0 0 
L 0 3.5 
" style="stroke: #000000; stroke-width: 0.8"/>
      </defs>
      <g>
       <use xlink:href="#m1c2fbc30e1" x="60.013977" y="275.796689" style="stroke: #000000; stroke-width: 0.8"/>
      </g>
     </g>
     <g id="text_1">
      <!-- 0.0 -->
      <g transform="translate(52.062415 290.395127)scale(0.1 -0.1)">
       <defs>
        <path id="DejaVuSans-30" d="M 2034 4250 
Q 1547 4250 1301 3770 
Q 1056 3291 1056 2328 
Q 1056 1369 1301 889 
Q 1547 409 2034 409 
Q 2525 409 2770 889 
Q 3016 1369 3016 2328 
Q 3016 3291 2770 3770 
Q 2525 4250 2034 4250 
z
M 2034 4750 
Q 2819 4750 3233 4129 
Q 3647 3509 3647 2328 
Q 3647 1150 3233 529 
Q 2819 -91 2034 -91 
Q 1250 -91 836 529 
Q 422 1150 422 2328 
Q 422 3509 836 4129 
Q 1250 4750 2034 4750 
z
" transform="scale(0.015625)"/>
        <path id="DejaVuSans-2e" d="M 684 794 
L 1344 794 
L 1344 0 
L 684 0 
L 684 794 
z
" transform="scale(0.015625)"/>
       </defs>
       <use xlink:href="#DejaVuSans-30"/>
       <use xlink:href="#DejaVuSans-2e" x="63.623047"/>
       <use xlink:href="#DejaVuSans-30" x="95.410156"/>
      </g>
     </g>
    </g>
    <g id="xtick_2">
     <g id="line2d_2">
      <g>
       <use xlink:href="#m1c2fbc30e1" x="101.350278" y="275.796689" style="stroke: #000000; stroke-width: 0.8"/>
      </g>
     </g>
     <g id="text_2">
      <!-- 0.2 -->
      <g transform="translate(93.398715 290.395127)scale(0.1 -0.1)">
       <defs>
        <path id="DejaVuSans-32" d="M 1228 531 
L 3431 531 
L 3431 0 
L 469 0 
L 469 531 
Q 828 903 1448 1529 
Q 2069 2156 2228 2338 
Q 2531 2678 2651 2914 
Q 2772 3150 2772 3378 
Q 2772 3750 2511 3984 
Q 2250 4219 1831 4219 
Q 1534 4219 1204 4116 
Q 875 4013 500 3803 
L 500 4441 
Q 881 4594 1212 4672 
Q 1544 4750 1819 4750 
Q 2544 4750 2975 4387 
Q 3406 4025 3406 3419 
Q 3406 3131 3298 2873 
Q 3191 2616 2906 2266 
Q 2828 2175 2409 1742 
Q 1991 1309 1228 531 
z
" transform="scale(0.015625)"/>
       </defs>
       <use xlink:href="#DejaVuSans-30"/>
       <use xlink:href="#DejaVuSans-2e" x="63.623047"/>
       <use xlink:href="#DejaVuSans-32" x="95.410156"/>
      </g>
     </g>
    </g>
    <g id="xtick_3">
     <g id="line2d_3">
      <g>
       <use xlink:href="#m1c2fbc30e1" x="142.686578" y="275.796689" style="stroke: #000000; stroke-width: 0.8"/>
      </g>
     </g>
     <g id="text_3">
      <!-- 0.4 -->
      <g transform="translate(134.735016 290.395127)scale(0.1 -0.1)">
       <defs>
        <path id="DejaVuSans-34" d="M 2419 4116 
L 825 1625 
L 2419 1625 
L 2419 4116 
z
M 2253 4666 
L 3047 4666 
L 3047 1625 
L 3713 1625 
L 3713 1100 
L 3047 1100 
L 3047 0 
L 2419 0 
L 2419 1100 
L 313 1100 
L 313 1709 
L 2253 4666 
z
" transform="scale(0.015625)"/>
       </defs>
       <use xlink:href="#DejaVuSans-30"/>
       <use xlink:href="#DejaVuSans-2e" x="63.623047"/>
       <use xlink:href="#DejaVuSans-34" x="95.410156"/>
      </g>
     </g>
    </g>
    <g id="xtick_4">
     <g id="line2d_4">
      <g>
       <use xlink:href="#m1c2fbc30e1" x="184.022879" y="275.796689" style="stroke: #000000; stroke-width: 0.8"/>
      </g>
     </g>
     <g id="text_4">
      <!-- 0.6 -->
      <g transform="translate(176.071316 290.395127)scale(0.1 -0.1)">
       <defs>
        <path id="DejaVuSans-36" d="M 2113 2584 
Q 1688 2584 1439 2293 
Q 1191 2003 1191 1497 
Q 1191 994 1439 701 
Q 1688 409 2113 409 
Q 2538 409 2786 701 
Q 3034 994 3034 1497 
Q 3034 2003 2786 2293 
Q 2538 2584 2113 2584 
z
M 3366 4563 
L 3366 3988 
Q 3128 4100 2886 4159 
Q 2644 4219 2406 4219 
Q 1781 4219 1451 3797 
Q 1122 3375 1075 2522 
Q 1259 2794 1537 2939 
Q 1816 3084 2150 3084 
Q 2853 3084 3261 2657 
Q 3669 2231 3669 1497 
Q 3669 778 3244 343 
Q 2819 -91 2113 -91 
Q 1303 -91 875 529 
Q 447 1150 447 2328 
Q 447 3434 972 4092 
Q 1497 4750 2381 4750 
Q 2619 4750 2861 4703 
Q 3103 4656 3366 4563 
z
" transform="scale(0.015625)"/>
       </defs>
       <use xlink:href="#DejaVuSans-30"/>
       <use xlink:href="#DejaVuSans-2e" x="63.623047"/>
       <use xlink:href="#DejaVuSans-36" x="95.410156"/>
      </g>
     </g>
    </g>
    <g id="xtick_5">
     <g id="line2d_5">
      <g>
       <use xlink:href="#m1c2fbc30e1" x="225.35918" y="275.796689" style="stroke: #000000; stroke-width: 0.8"/>
      </g>
     </g>
     <g id="text_5">
      <!-- 0.8 -->
      <g transform="translate(217.407617 290.395127)scale(0.1 -0.1)">
       <defs>
        <path id="DejaVuSans-38" d="M 2034 2216 
Q 1584 2216 1326 1975 
Q 1069 1734 1069 1313 
Q 1069 891 1326 650 
Q 1584 409 2034 409 
Q 2484 409 2743 651 
Q 3003 894 3003 1313 
Q 3003 1734 2745 1975 
Q 2488 2216 2034 2216 
z
M 1403 2484 
Q 997 2584 770 2862 
Q 544 3141 544 3541 
Q 544 4100 942 4425 
Q 1341 4750 2034 4750 
Q 2731 4750 3128 4425 
Q 3525 4100 3525 3541 
Q 3525 3141 3298 2862 
Q 3072 2584 2669 2484 
Q 3125 2378 3379 2068 
Q 3634 1759 3634 1313 
Q 3634 634 3220 271 
Q 2806 -91 2034 -91 
Q 1263 -91 848 271 
Q 434 634 434 1313 
Q 434 1759 690 2068 
Q 947 2378 1403 2484 
z
M 1172 3481 
Q 1172 3119 1398 2916 
Q 1625 2713 2034 2713 
Q 2441 2713 2670 2916 
Q 2900 3119 2900 3481 
Q 2900 3844 2670 4047 
Q 2441 4250 2034 4250 
Q 1625 4250 1398 4047 
Q 1172 3844 1172 3481 
z
" transform="scale(0.015625)"/>
       </defs>
       <use xlink:href="#DejaVuSans-30"/>
       <use xlink:href="#DejaVuSans-2e" x="63.623047"/>
       <use xlink:href="#DejaVuSans-38" x="95.410156"/>
      </g>
     </g>
    </g>
    <g id="xtick_6">
     <g id="line2d_6">
      <g>
       <use xlink:href="#m1c2fbc30e1" x="266.69548" y="275.796689" style="stroke: #000000; stroke-width: 0.8"/>
      </g>
     </g>
     <g id="text_6">
      <!-- 1.0 -->
      <g transform="translate(258.743918 290.395127)scale(0.1 -0.1)">
       <defs>
        <path id="DejaVuSans-31" d="M 794 531 
L 1825 531 
L 1825 4091 
L 703 3866 
L 703 4441 
L 1819 4666 
L 2450 4666 
L 2450 531 
L 3481 531 
L 3481 0 
L 794 0 
L 794 531 
z
" transform="scale(0.015625)"/>
       </defs>
       <use xlink:href="#DejaVuSans-31"/>
       <use xlink:href="#DejaVuSans-2e" x="63.623047"/>
       <use xlink:href="#DejaVuSans-30" x="95.410156"/>
      </g>
     </g>
    </g>
    <g id="xtick_7">
     <g id="line2d_7">
      <g>
       <use xlink:href="#m1c2fbc30e1" x="308.031781" y="275.796689" style="stroke: #000000; stroke-width: 0.8"/>
      </g>
     </g>
     <g id="text_7">
      <!-- 1.2 -->
      <g transform="translate(300.080218 290.395127)scale(0.1 -0.1)">
       <use xlink:href="#DejaVuSans-31"/>
       <use xlink:href="#DejaVuSans-2e" x="63.623047"/>
       <use xlink:href="#DejaVuSans-32" x="95.410156"/>
      </g>
     </g>
    </g>
    <g id="xtick_8">
     <g id="line2d_8">
      <g>
       <use xlink:href="#m1c2fbc30e1" x="349.368081" y="275.796689" style="stroke: #000000; stroke-width: 0.8"/>
      </g>
     </g>
     <g id="text_8">
      <!-- 1.4 -->
      <g transform="translate(341.416519 290.395127)scale(0.1 -0.1)">
       <use xlink:href="#DejaVuSans-31"/>
       <use xlink:href="#DejaVuSans-2e" x="63.623047"/>
       <use xlink:href="#DejaVuSans-34" x="95.410156"/>
      </g>
     </g>
    </g>
    <g id="xtick_9">
     <g id="line2d_9">
      <g>
       <use xlink:href="#m1c2fbc30e1" x="390.704382" y="275.796689" style="stroke: #000000; stroke-width: 0.8"/>
      </g>
     </g>
     <g id="text_9">
      <!-- 1.6 -->
      <g transform="translate(382.752819 290.395127)scale(0.1 -0.1)">
       <use xlink:href="#DejaVuSans-31"/>
       <use xlink:href="#DejaVuSans-2e" x="63.623047"/>
       <use xlink:href="#DejaVuSans-36" x="95.410156"/>
      </g>
     </g>
    </g>
    <g id="text_10">
     <!-- Angle with normal (rad) -->
     <g transform="translate(163.023281 304.073252)scale(0.1 -0.1)">
      <defs>
       <path id="DejaVuSans-41" d="M 2188 4044 
L 1331 1722 
L 3047 1722 
L 2188 4044 
z
M 1831 4666 
L 2547 4666 
L 4325 0 
L 3669 0 
L 3244 1197 
L 1141 1197 
L 716 0 
L 50 0 
L 1831 4666 
z
" transform="scale(0.015625)"/>
       <path id="DejaVuSans-6e" d="M 3513 2113 
L 3513 0 
L 2938 0 
L 2938 2094 
Q 2938 2591 2744 2837 
Q 2550 3084 2163 3084 
Q 1697 3084 1428 2787 
Q 1159 2491 1159 1978 
L 1159 0 
L 581 0 
L 581 3500 
L 1159 3500 
L 1159 2956 
Q 1366 3272 1645 3428 
Q 1925 3584 2291 3584 
Q 2894 3584 3203 3211 
Q 3513 2838 3513 2113 
z
" transform="scale(0.015625)"/>
       <path id="DejaVuSans-67" d="M 2906 1791 
Q 2906 2416 2648 2759 
Q 2391 3103 1925 3103 
Q 1463 3103 1205 2759 
Q 947 2416 947 1791 
Q 947 1169 1205 825 
Q 1463 481 1925 481 
Q 2391 481 2648 825 
Q 2906 1169 2906 1791 
z
M 3481 434 
Q 3481 -459 3084 -895 
Q 2688 -1331 1869 -1331 
Q 1566 -1331 1297 -1286 
Q 1028 -1241 775 -1147 
L 775 -588 
Q 1028 -725 1275 -790 
Q 1522 -856 1778 -856 
Q 2344 -856 2625 -561 
Q 2906 -266 2906 331 
L 2906 616 
Q 2728 306 2450 153 
Q 2172 0 1784 0 
Q 1141 0 747 490 
Q 353 981 353 1791 
Q 353 2603 747 3093 
Q 1141 3584 1784 3584 
Q 2172 3584 2450 3431 
Q 2728 3278 2906 2969 
L 2906 3500 
L 3481 3500 
L 3481 434 
z
" transform="scale(0.015625)"/>
       <path id="DejaVuSans-6c" d="M 603 4863 
L 1178 4863 
L 1178 0 
L 603 0 
L 603 4863 
z
" transform="scale(0.015625)"/>
       <path id="DejaVuSans-65" d="M 3597 1894 
L 3597 1613 
L 953 1613 
Q 991 1019 1311 708 
Q 1631 397 2203 397 
Q 2534 397 2845 478 
Q 3156 559 3463 722 
L 3463 178 
Q 3153 47 2828 -22 
Q 2503 -91 2169 -91 
Q 1331 -91 842 396 
Q 353 884 353 1716 
Q 353 2575 817 3079 
Q 1281 3584 2069 3584 
Q 2775 3584 3186 3129 
Q 3597 2675 3597 1894 
z
M 3022 2063 
Q 3016 2534 2758 2815 
Q 2500 3097 2075 3097 
Q 1594 3097 1305 2825 
Q 1016 2553 972 2059 
L 3022 2063 
z
" transform="scale(0.015625)"/>
       <path id="DejaVuSans-20" transform="scale(0.015625)"/>
       <path id="DejaVuSans-77" d="M 269 3500 
L 844 3500 
L 1563 769 
L 2278 3500 
L 2956 3500 
L 3675 769 
L 4391 3500 
L 4966 3500 
L 4050 0 
L 3372 0 
L 2619 2869 
L 1863 0 
L 1184 0 
L 269 3500 
z
" transform="scale(0.015625)"/>
       <path id="DejaVuSans-69" d="M 603 3500 
L 1178 3500 
L 1178 0 
L 603 0 
L 603 3500 
z
M 603 4863 
L 1178 4863 
L 1178 4134 
L 603 4134 
L 603 4863 
z
" transform="scale(0.015625)"/>
       <path id="DejaVuSans-74" d="M 1172 4494 
L 1172 3500 
L 2356 3500 
L 2356 3053 
L 1172 3053 
L 1172 1153 
Q 1172 725 1289 603 
Q 1406 481 1766 481 
L 2356 481 
L 2356 0 
L 1766 0 
Q 1100 0 847 248 
Q 594 497 594 1153 
L 594 3053 
L 172 3053 
L 172 3500 
L 594 3500 
L 594 4494 
L 1172 4494 
z
" transform="scale(0.015625)"/>
       <path id="DejaVuSans-68" d="M 3513 2113 
L 3513 0 
L 2938 0 
L 2938 2094 
Q 2938 2591 2744 2837 
Q 2550 3084 2163 3084 
Q 1697 3084 1428 2787 
Q 1159 2491 1159 1978 
L 1159 0 
L 581 0 
L 581 4863 
L 1159 4863 
L 1159 2956 
Q 1366 3272 1645 3428 
Q 1925 3584 2291 3584 
Q 2894 3584 3203 3211 
Q 3513 2838 3513 2113 
z
" transform="scale(0.015625)"/>
       <path id="DejaVuSans-6f" d="M 1959 3097 
Q 1497 3097 1228 2736 
Q 959 2375 959 1747 
Q 959 1119 1226 758 
Q 1494 397 1959 397 
Q 2419 397 2687 759 
Q 2956 1122 2956 1747 
Q 2956 2369 2687 2733 
Q 2419 3097 1959 3097 
z
M 1959 3584 
Q 2709 3584 3137 3096 
Q 3566 2609 3566 1747 
Q 3566 888 3137 398 
Q 2709 -91 1959 -91 
Q 1206 -91 779 398 
Q 353 888 353 1747 
Q 353 2609 779 3096 
Q 1206 3584 1959 3584 
z
" transform="scale(0.015625)"/>
       <path id="DejaVuSans-72" d="M 2631 2963 
Q 2534 3019 2420 3045 
Q 2306 3072 2169 3072 
Q 1681 3072 1420 2755 
Q 1159 2438 1159 1844 
L 1159 0 
L 581 0 
L 581 3500 
L 1159 3500 
L 1159 2956 
Q 1341 3275 1631 3429 
Q 1922 3584 2338 3584 
Q 2397 3584 2469 3576 
Q 2541 3569 2628 3553 
L 2631 2963 
z
" transform="scale(0.015625)"/>
       <path id="DejaVuSans-6d" d="M 3328 2828 
Q 3544 3216 3844 3400 
Q 4144 3584 4550 3584 
Q 5097 3584 5394 3201 
Q 5691 2819 5691 2113 
L 5691 0 
L 5113 0 
L 5113 2094 
Q 5113 2597 4934 2840 
Q 4756 3084 4391 3084 
Q 3944 3084 3684 2787 
Q 3425 2491 3425 1978 
L 3425 0 
L 2847 0 
L 2847 2094 
Q 2847 2600 2669 2842 
Q 2491 3084 2119 3084 
Q 1678 3084 1418 2786 
Q 1159 2488 1159 1978 
L 1159 0 
L 581 0 
L 581 3500 
L 1159 3500 
L 1159 2956 
Q 1356 3278 1631 3431 
Q 1906 3584 2284 3584 
Q 2666 3584 2933 3390 
Q 3200 3197 3328 2828 
z
" transform="scale(0.015625)"/>
       <path id="DejaVuSans-61" d="M 2194 1759 
Q 1497 1759 1228 1600 
Q 959 1441 959 1056 
Q 959 750 1161 570 
Q 1363 391 1709 391 
Q 2188 391 2477 730 
Q 2766 1069 2766 1631 
L 2766 1759 
L 2194 1759 
z
M 3341 1997 
L 3341 0 
L 2766 0 
L 2766 531 
Q 2569 213 2275 61 
Q 1981 -91 1556 -91 
Q 1019 -91 701 211 
Q 384 513 384 1019 
Q 384 1609 779 1909 
Q 1175 2209 1959 2209 
L 2766 2209 
L 2766 2266 
Q 2766 2663 2505 2880 
Q 2244 3097 1772 3097 
Q 1472 3097 1187 3025 
Q 903 2953 641 2809 
L 641 3341 
Q 956 3463 1253 3523 
Q 1550 3584 1831 3584 
Q 2591 3584 2966 3190 
Q 3341 2797 3341 1997 
z
" transform="scale(0.015625)"/>
       <path id="DejaVuSans-28" d="M 1984 4856 
Q 1566 4138 1362 3434 
Q 1159 2731 1159 2009 
Q 1159 1288 1364 580 
Q 1569 -128 1984 -844 
L 1484 -844 
Q 1016 -109 783 600 
Q 550 1309 550 2009 
Q 550 2706 781 3412 
Q 1013 4119 1484 4856 
L 1984 4856 
z
" transform="scale(0.015625)"/>
       <path id="DejaVuSans-64" d="M 2906 2969 
L 2906 4863 
L 3481 4863 
L 3481 0 
L 2906 0 
L 2906 525 
Q 2725 213 2448 61 
Q 2172 -91 1784 -91 
Q 1150 -91 751 415 
Q 353 922 353 1747 
Q 353 2572 751 3078 
Q 1150 3584 1784 3584 
Q 2172 3584 2448 3432 
Q 2725 3281 2906 2969 
z
M 947 1747 
Q 947 1113 1208 752 
Q 1469 391 1925 391 
Q 2381 391 2643 752 
Q 2906 1113 2906 1747 
Q 2906 2381 2643 2742 
Q 2381 3103 1925 3103 
Q 1469 3103 1208 2742 
Q 947 2381 947 1747 
z
" transform="scale(0.015625)"/>
       <path id="DejaVuSans-29" d="M 513 4856 
L 1013 4856 
Q 1481 4119 1714 3412 
Q 1947 2706 1947 2009 
Q 1947 1309 1714 600 
Q 1481 -109 1013 -844 
L 513 -844 
Q 928 -128 1133 580 
Q 1338 1288 1338 2009 
Q 1338 2731 1133 3434 
Q 928 4138 513 4856 
z
" transform="scale(0.015625)"/>
      </defs>
      <use xlink:href="#DejaVuSans-41"/>
      <use xlink:href="#DejaVuSans-6e" x="68.408203"/>
      <use xlink:href="#DejaVuSans-67" x="131.787109"/>
      <use xlink:href="#DejaVuSans-6c" x="195.263672"/>
      <use xlink:href="#DejaVuSans-65" x="223.046875"/>
      <use xlink:href="#DejaVuSans-20" x="284.570312"/>
      <use xlink:href="#DejaVuSans-77" x="316.357422"/>
      <use xlink:href="#DejaVuSans-69" x="398.144531"/>
      <use xlink:href="#DejaVuSans-74" x="425.927734"/>
      <use xlink:href="#DejaVuSans-68" x="465.136719"/>
      <use xlink:href="#DejaVuSans-20" x="528.515625"/>
      <use xlink:href="#DejaVuSans-6e" x="560.302734"/>
      <use xlink:href="#DejaVuSans-6f" x="623.681641"/>
      <use xlink:href="#DejaVuSans-72" x="684.863281"/>
      <use xlink:href="#DejaVuSans-6d" x="724.226562"/>
      <use xlink:href="#DejaVuSans-61" x="821.638672"/>
      <use xlink:href="#DejaVuSans-6c" x="882.917969"/>
      <use xlink:href="#DejaVuSans-20" x="910.701172"/>
      <use xlink:href="#DejaVuSans-28" x="942.488281"/>
      <use xlink:href="#DejaVuSans-72" x="981.501953"/>
      <use xlink:href="#DejaVuSans-61" x="1022.615234"/>
      <use xlink:href="#DejaVuSans-64" x="1083.894531"/>
      <use xlink:href="#DejaVuSans-29" x="1147.371094"/>
     </g>
    </g>
   </g>
   <g id="matplotlib.axis_2">
    <g id="ytick_1">
     <g id="line2d_10">
      <defs>
       <path id="m4e3007b43c" d="M 0 0 
L -3.5 0 
" style="stroke: #000000; stroke-width: 0.8"/>
      </defs>
      <g>
       <use xlink:href="#m4e3007b43c" x="43.78125" y="275.796689" style="stroke: #000000; stroke-width: 0.8"/>
      </g>
     </g>
     <g id="text_11">
      <!-- 0.0 -->
      <g transform="translate(20.878125 279.595908)scale(0.1 -0.1)">
       <use xlink:href="#DejaVuSans-30"/>
       <use xlink:href="#DejaVuSans-2e" x="63.623047"/>
       <use xlink:href="#DejaVuSans-30" x="95.410156"/>
      </g>
     </g>
    </g>
    <g id="ytick_2">
     <g id="line2d_11">
      <g>
       <use xlink:href="#m4e3007b43c" x="43.78125" y="231.663778" style="stroke: #000000; stroke-width: 0.8"/>
      </g>
     </g>
     <g id="text_12">
      <!-- 0.2 -->
      <g transform="translate(20.878125 235.462996)scale(0.1 -0.1)">
       <use xlink:href="#DejaVuSans-30"/>
       <use xlink:href="#DejaVuSans-2e" x="63.623047"/>
       <use xlink:href="#DejaVuSans-32" x="95.410156"/>
      </g>
     </g>
    </g>
    <g id="ytick_3">
     <g id="line2d_12">
      <g>
       <use xlink:href="#m4e3007b43c" x="43.78125" y="187.530866" style="stroke: #000000; stroke-width: 0.8"/>
      </g>
     </g>
     <g id="text_13">
      <!-- 0.4 -->
      <g transform="translate(20.878125 191.330085)scale(0.1 -0.1)">
       <use xlink:href="#DejaVuSans-30"/>
       <use xlink:href="#DejaVuSans-2e" x="63.623047"/>
       <use xlink:href="#DejaVuSans-34" x="95.410156"/>
      </g>
     </g>
    </g>
    <g id="ytick_4">
     <g id="line2d_13">
      <g>
       <use xlink:href="#m4e3007b43c" x="43.78125" y="143.397954" style="stroke: #000000; stroke-width: 0.8"/>
      </g>
     </g>
     <g id="text_14">
      <!-- 0.6 -->
      <g transform="translate(20.878125 147.197173)scale(0.1 -0.1)">
       <use xlink:href="#DejaVuSans-30"/>
       <use xlink:href="#DejaVuSans-2e" x="63.623047"/>
       <use xlink:href="#DejaVuSans-36" x="95.410156"/>
      </g>
     </g>
    </g>
    <g id="ytick_5">
     <g id="line2d_14">
      <g>
       <use xlink:href="#m4e3007b43c" x="43.78125" y="99.265042" style="stroke: #000000; stroke-width: 0.8"/>
      </g>
     </g>
     <g id="text_15">
      <!-- 0.8 -->
      <g transform="translate(20.878125 103.064261)scale(0.1 -0.1)">
       <use xlink:href="#DejaVuSans-30"/>
       <use xlink:href="#DejaVuSans-2e" x="63.623047"/>
       <use xlink:href="#DejaVuSans-38" x="95.410156"/>
      </g>
     </g>
    </g>
    <g id="ytick_6">
     <g id="line2d_15">
      <g>
       <use xlink:href="#m4e3007b43c" x="43.78125" y="55.132131" style="stroke: #000000; stroke-width: 0.8"/>
      </g>
     </g>
     <g id="text_16">
      <!-- 1.0 -->
      <g transform="translate(20.878125 58.931349)scale(0.1 -0.1)">
       <use xlink:href="#DejaVuSans-31"/>
       <use xlink:href="#DejaVuSans-2e" x="63.623047"/>
       <use xlink:href="#DejaVuSans-30" x="95.410156"/>
      </g>
     </g>
    </g>
    <g id="ytick_7">
     <g id="line2d_16">
      <g>
       <use xlink:href="#m4e3007b43c" x="43.78125" y="10.999219" style="stroke: #000000; stroke-width: 0.8"/>
      </g>
     </g>
     <g id="text_17">
      <!-- 1.2 -->
      <g transform="translate(20.878125 14.798437)scale(0.1 -0.1)">
       <use xlink:href="#DejaVuSans-31"/>
       <use xlink:href="#DejaVuSans-2e" x="63.623047"/>
       <use xlink:href="#DejaVuSans-32" x="95.410156"/>
      </g>
     </g>
    </g>
    <g id="text_18">
     <!-- Probability density -->
     <g transform="translate(14.798438 189.091471)rotate(-90)scale(0.1 -0.1)">
      <defs>
       <path id="DejaVuSans-50" d="M 1259 4147 
L 1259 2394 
L 2053 2394 
Q 2494 2394 2734 2622 
Q 2975 2850 2975 3272 
Q 2975 3691 2734 3919 
Q 2494 4147 2053 4147 
L 1259 4147 
z
M 628 4666 
L 2053 4666 
Q 2838 4666 3239 4311 
Q 3641 3956 3641 3272 
Q 3641 2581 3239 2228 
Q 2838 1875 2053 1875 
L 1259 1875 
L 1259 0 
L 628 0 
L 628 4666 
z
" transform="scale(0.015625)"/>
       <path id="DejaVuSans-62" d="M 3116 1747 
Q 3116 2381 2855 2742 
Q 2594 3103 2138 3103 
Q 1681 3103 1420 2742 
Q 1159 2381 1159 1747 
Q 1159 1113 1420 752 
Q 1681 391 2138 391 
Q 2594 391 2855 752 
Q 3116 1113 3116 1747 
z
M 1159 2969 
Q 1341 3281 1617 3432 
Q 1894 3584 2278 3584 
Q 2916 3584 3314 3078 
Q 3713 2572 3713 1747 
Q 3713 922 3314 415 
Q 2916 -91 2278 -91 
Q 1894 -91 1617 61 
Q 1341 213 1159 525 
L 1159 0 
L 581 0 
L 581 4863 
L 1159 4863 
L 1159 2969 
z
" transform="scale(0.015625)"/>
       <path id="DejaVuSans-79" d="M 2059 -325 
Q 1816 -950 1584 -1140 
Q 1353 -1331 966 -1331 
L 506 -1331 
L 506 -850 
L 844 -850 
Q 1081 -850 1212 -737 
Q 1344 -625 1503 -206 
L 1606 56 
L 191 3500 
L 800 3500 
L 1894 763 
L 2988 3500 
L 3597 3500 
L 2059 -325 
z
" transform="scale(0.015625)"/>
       <path id="DejaVuSans-73" d="M 2834 3397 
L 2834 2853 
Q 2591 2978 2328 3040 
Q 2066 3103 1784 3103 
Q 1356 3103 1142 2972 
Q 928 2841 928 2578 
Q 928 2378 1081 2264 
Q 1234 2150 1697 2047 
L 1894 2003 
Q 2506 1872 2764 1633 
Q 3022 1394 3022 966 
Q 3022 478 2636 193 
Q 2250 -91 1575 -91 
Q 1294 -91 989 -36 
Q 684 19 347 128 
L 347 722 
Q 666 556 975 473 
Q 1284 391 1588 391 
Q 1994 391 2212 530 
Q 2431 669 2431 922 
Q 2431 1156 2273 1281 
Q 2116 1406 1581 1522 
L 1381 1569 
Q 847 1681 609 1914 
Q 372 2147 372 2553 
Q 372 3047 722 3315 
Q 1072 3584 1716 3584 
Q 2034 3584 2315 3537 
Q 2597 3491 2834 3397 
z
" transform="scale(0.015625)"/>
      </defs>
      <use xlink:href="#DejaVuSans-50"/>
      <use xlink:href="#DejaVuSans-72" x="58.552734"/>
      <use xlink:href="#DejaVuSans-6f" x="97.416016"/>
      <use xlink:href="#DejaVuSans-62" x="158.597656"/>
      <use xlink:href="#DejaVuSans-61" x="222.074219"/>
      <use xlink:href="#DejaVuSans-62" x="283.353516"/>
      <use xlink:href="#DejaVuSans-69" x="346.830078"/>
      <use xlink:href="#DejaVuSans-6c" x="374.613281"/>
      <use xlink:href="#DejaVuSans-69" x="402.396484"/>
      <use xlink:href="#DejaVuSans-74" x="430.179688"/>
      <use xlink:href="#DejaVuSans-79" x="469.388672"/>
      <use xlink:href="#DejaVuSans-20" x="528.568359"/>
      <use xlink:href="#DejaVuSans-64" x="560.355469"/>
      <use xlink:href="#DejaVuSans-65" x="623.832031"/>
      <use xlink:href="#DejaVuSans-6e" x="685.355469"/>
      <use xlink:href="#DejaVuSans-73" x="748.734375"/>
      <use xlink:href="#DejaVuSans-69" x="800.833984"/>
      <use xlink:href="#DejaVuSans-74" x="828.617188"/>
      <use xlink:href="#DejaVuSans-79" x="867.826172"/>
     </g>
    </g>
   </g>
   <g id="line2d_17">
    <path d="M 60.013977 275.796689 
L 79.837728 233.725966 
L 90.237073 212.177069 
L 99.01152 194.487229 
L 106.811029 179.250867 
L 113.960578 165.765028 
L 120.460169 153.960362 
L 126.63478 143.191493 
L 132.484411 133.425364 
L 138.009063 124.620042 
L 143.208736 116.726843 
L 148.408408 109.236272 
L 153.283101 102.596406 
L 158.157794 96.341858 
L 162.707507 90.86421 
L 167.257221 85.744963 
L 171.481954 81.320973 
L 175.706688 77.221966 
L 179.606442 73.732646 
L 183.506197 70.531045 
L 187.405951 67.621723 
L 190.980726 65.215147 
L 194.555501 63.060532 
L 198.130275 61.160454 
L 201.70505 59.517187 
L 205.279825 58.132697 
L 208.52962 57.100029 
L 211.779415 56.28362 
L 215.029211 55.684278 
L 218.279006 55.302596 
L 221.528801 55.13895 
L 224.778596 55.193503 
L 228.028392 55.466201 
L 231.278187 55.956774 
L 234.527982 56.664737 
L 237.777777 57.589389 
L 241.027573 58.729818 
L 244.602347 60.232157 
L 248.177122 61.992419 
L 251.751897 64.008496 
L 255.326672 66.277977 
L 258.901447 68.798146 
L 262.801201 71.829778 
L 266.700955 75.151839 
L 270.600709 78.759599 
L 274.825443 82.98444 
L 279.050177 87.531484 
L 283.274911 92.393133 
L 287.824624 97.97126 
L 292.374338 103.894014 
L 297.249031 110.609198 
L 302.123723 117.691874 
L 307.323396 125.634018 
L 312.848048 134.488528 
L 318.697679 144.303424 
L 324.87229 155.119904 
L 331.371881 166.970211 
L 338.196451 179.875332 
L 345.67098 194.487229 
L 354.120447 211.512919 
L 363.869833 231.684259 
L 376.544035 258.466253 
L 384.668523 275.796689 
L 384.668523 275.796689 
" clip-path="url(#p4be0aa3fb2)" style="fill: none; stroke: #ff7f0e; stroke-width: 1.5; stroke-linecap: square"/>
   </g>
   <g id="patch_203">
    <path d="M 43.78125 275.796689 
L 43.78125 9.684689 
" style="fill: none; stroke: #000000; stroke-width: 0.8; stroke-linejoin: miter; stroke-linecap: square"/>
   </g>
   <g id="patch_204">
    <path d="M 400.90125 275.796689 
L 400.90125 9.684689 
" style="fill: none; stroke: #000000; stroke-width: 0.8; stroke-linejoin: miter; stroke-linecap: square"/>
   </g>
   <g id="patch_205">
    <path d="M 43.78125 275.796689 
L 400.90125 275.796689 
" style="fill: none; stroke: #000000; stroke-width: 0.8; stroke-linejoin: miter; stroke-linecap: square"/>
   </g>
   <g id="patch_206">
    <path d="M 43.78125 9.684689 
L 400.90125 9.684689 
" style="fill: none; stroke: #000000; stroke-width: 0.8; stroke-linejoin: miter; stroke-linecap: square"/>
   </g>
  </g>
 </g>
 <defs>
  <clipPath id="p4be0aa3fb2">
   <rect x="43.78125" y="9.684689" width="357.12" height="266.112"/>
  </clipPath>
 </defs>
</svg>
