<?xml version="1.0" encoding="utf-8" standalone="no"?>
<!DOCTYPE svg PUBLIC "-//W3C//DTD SVG 1.1//EN"
  "http://www.w3.org/Graphics/SVG/1.1/DTD/svg11.dtd">
<svg xmlns:xlink="http://www.w3.org/1999/xlink" width="408.10125pt" height="310.86825pt" viewBox="0 0 408.10125 310.86825" xmlns="http://www.w3.org/2000/svg" version="1.1">
 <metadata>
  <rdf:RDF xmlns:dc="http://purl.org/dc/elements/1.1/" xmlns:cc="http://creativecommons.org/ns#" xmlns:rdf="http://www.w3.org/1999/02/22-rdf-syntax-ns#">
   <cc:Work>
    <dc:type rdf:resource="http://purl.org/dc/dcmitype/StillImage"/>
    <dc:date>2022-05-02T21:27:59.688693</dc:date>
    <dc:format>image/svg+xml</dc:format>
    <dc:creator>
     <cc:Agent>
      <dc:title>Matplotlib v3.5.1, https://matplotlib.org/</dc:title>
     </cc:Agent>
    </dc:creator>
   </cc:Work>
  </rdf:RDF>
 </metadata>
 <defs>
  <style type="text/css">*{stroke-linejoin: round; stroke-linecap: butt}</style>
 </defs>
 <g id="figure_1">
  <g id="patch_1">
   <path d="M 0 310.86825 
L 408.10125 310.86825 
L 408.10125 0 
L 0 0 
z
" style="fill: #ffffff"/>
  </g>
  <g id="axes_1">
   <g id="patch_2">
    <path d="M 43.78125 273.312 
L 400.90125 273.312 
L 400.90125 7.2 
L 43.78125 7.2 
z
" style="fill: #ffffff"/>
   </g>
   <g id="patch_3">
    <path d="M 64.750575 273.312 
L 66.350162 273.312 
L 66.350162 268.151457 
L 64.750575 268.151457 
z
" clip-path="url(#p609788252e)" style="fill: #1f77b4"/>
   </g>
   <g id="patch_4">
    <path d="M 66.350162 273.312 
L 67.949748 273.312 
L 67.949748 268.151457 
L 66.350162 268.151457 
z
" clip-path="url(#p609788252e)" style="fill: #1f77b4"/>
   </g>
   <g id="patch_5">
    <path d="M 67.949748 273.312 
L 69.549334 273.312 
L 69.549334 267.578063 
L 67.949748 267.578063 
z
" clip-path="url(#p609788252e)" style="fill: #1f77b4"/>
   </g>
   <g id="patch_6">
    <path d="M 69.549334 273.312 
L 71.148921 273.312 
L 71.148921 265.857882 
L 69.549334 265.857882 
z
" clip-path="url(#p609788252e)" style="fill: #1f77b4"/>
   </g>
   <g id="patch_7">
    <path d="M 71.148921 273.312 
L 72.748507 273.312 
L 72.748507 267.00467 
L 71.148921 267.00467 
z
" clip-path="url(#p609788252e)" style="fill: #1f77b4"/>
   </g>
   <g id="patch_8">
    <path d="M 72.748507 273.312 
L 74.348093 273.312 
L 74.348093 265.284489 
L 72.748507 265.284489 
z
" clip-path="url(#p609788252e)" style="fill: #1f77b4"/>
   </g>
   <g id="patch_9">
    <path d="M 74.348093 273.312 
L 75.94768 273.312 
L 75.94768 260.697339 
L 74.348093 260.697339 
z
" clip-path="url(#p609788252e)" style="fill: #1f77b4"/>
   </g>
   <g id="patch_10">
    <path d="M 75.94768 273.312 
L 77.547266 273.312 
L 77.547266 260.697339 
L 75.94768 260.697339 
z
" clip-path="url(#p609788252e)" style="fill: #1f77b4"/>
   </g>
   <g id="patch_11">
    <path d="M 77.547266 273.312 
L 79.146852 273.312 
L 79.146852 258.403765 
L 77.547266 258.403765 
z
" clip-path="url(#p609788252e)" style="fill: #1f77b4"/>
   </g>
   <g id="patch_12">
    <path d="M 79.146852 273.312 
L 80.746439 273.312 
L 80.746439 262.990914 
L 79.146852 262.990914 
z
" clip-path="url(#p609788252e)" style="fill: #1f77b4"/>
   </g>
   <g id="patch_13">
    <path d="M 80.746439 273.312 
L 82.346025 273.312 
L 82.346025 259.550552 
L 80.746439 259.550552 
z
" clip-path="url(#p609788252e)" style="fill: #1f77b4"/>
   </g>
   <g id="patch_14">
    <path d="M 82.346025 273.312 
L 83.945611 273.312 
L 83.945611 252.096434 
L 82.346025 252.096434 
z
" clip-path="url(#p609788252e)" style="fill: #1f77b4"/>
   </g>
   <g id="patch_15">
    <path d="M 83.945611 273.312 
L 85.545198 273.312 
L 85.545198 255.536796 
L 83.945611 255.536796 
z
" clip-path="url(#p609788252e)" style="fill: #1f77b4"/>
   </g>
   <g id="patch_16">
    <path d="M 85.545198 273.312 
L 87.144784 273.312 
L 87.144784 260.697339 
L 85.545198 260.697339 
z
" clip-path="url(#p609788252e)" style="fill: #1f77b4"/>
   </g>
   <g id="patch_17">
    <path d="M 87.144784 273.312 
L 88.74437 273.312 
L 88.74437 252.096434 
L 87.144784 252.096434 
z
" clip-path="url(#p609788252e)" style="fill: #1f77b4"/>
   </g>
   <g id="patch_18">
    <path d="M 88.74437 273.312 
L 90.343957 273.312 
L 90.343957 254.963403 
L 88.74437 254.963403 
z
" clip-path="url(#p609788252e)" style="fill: #1f77b4"/>
   </g>
   <g id="patch_19">
    <path d="M 90.343957 273.312 
L 91.943543 273.312 
L 91.943543 250.376253 
L 90.343957 250.376253 
z
" clip-path="url(#p609788252e)" style="fill: #1f77b4"/>
   </g>
   <g id="patch_20">
    <path d="M 91.943543 273.312 
L 93.543129 273.312 
L 93.543129 249.229466 
L 91.943543 249.229466 
z
" clip-path="url(#p609788252e)" style="fill: #1f77b4"/>
   </g>
   <g id="patch_21">
    <path d="M 93.543129 273.312 
L 95.142716 273.312 
L 95.142716 250.376253 
L 93.543129 250.376253 
z
" clip-path="url(#p609788252e)" style="fill: #1f77b4"/>
   </g>
   <g id="patch_22">
    <path d="M 95.142716 273.312 
L 96.742302 273.312 
L 96.742302 248.656072 
L 95.142716 248.656072 
z
" clip-path="url(#p609788252e)" style="fill: #1f77b4"/>
   </g>
   <g id="patch_23">
    <path d="M 96.742302 273.312 
L 98.341888 273.312 
L 98.341888 242.922136 
L 96.742302 242.922136 
z
" clip-path="url(#p609788252e)" style="fill: #1f77b4"/>
   </g>
   <g id="patch_24">
    <path d="M 98.341888 273.312 
L 99.941475 273.312 
L 99.941475 239.481774 
L 98.341888 239.481774 
z
" clip-path="url(#p609788252e)" style="fill: #1f77b4"/>
   </g>
   <g id="patch_25">
    <path d="M 99.941475 273.312 
L 101.541061 273.312 
L 101.541061 249.229466 
L 99.941475 249.229466 
z
" clip-path="url(#p609788252e)" style="fill: #1f77b4"/>
   </g>
   <g id="patch_26">
    <path d="M 101.541061 273.312 
L 103.140647 273.312 
L 103.140647 246.362498 
L 101.541061 246.362498 
z
" clip-path="url(#p609788252e)" style="fill: #1f77b4"/>
   </g>
   <g id="patch_27">
    <path d="M 103.140647 273.312 
L 104.740234 273.312 
L 104.740234 243.495529 
L 103.140647 243.495529 
z
" clip-path="url(#p609788252e)" style="fill: #1f77b4"/>
   </g>
   <g id="patch_28">
    <path d="M 104.740234 273.312 
L 106.33982 273.312 
L 106.33982 249.80286 
L 104.740234 249.80286 
z
" clip-path="url(#p609788252e)" style="fill: #1f77b4"/>
   </g>
   <g id="patch_29">
    <path d="M 106.33982 273.312 
L 107.939406 273.312 
L 107.939406 241.201955 
L 106.33982 241.201955 
z
" clip-path="url(#p609788252e)" style="fill: #1f77b4"/>
   </g>
   <g id="patch_30">
    <path d="M 107.939406 273.312 
L 109.538993 273.312 
L 109.538993 237.761593 
L 107.939406 237.761593 
z
" clip-path="url(#p609788252e)" style="fill: #1f77b4"/>
   </g>
   <g id="patch_31">
    <path d="M 109.538993 273.312 
L 111.138579 273.312 
L 111.138579 238.334986 
L 109.538993 238.334986 
z
" clip-path="url(#p609788252e)" style="fill: #1f77b4"/>
   </g>
   <g id="patch_32">
    <path d="M 111.138579 273.312 
L 112.738165 273.312 
L 112.738165 235.468018 
L 111.138579 235.468018 
z
" clip-path="url(#p609788252e)" style="fill: #1f77b4"/>
   </g>
   <g id="patch_33">
    <path d="M 112.738165 273.312 
L 114.337752 273.312 
L 114.337752 237.188199 
L 112.738165 237.188199 
z
" clip-path="url(#p609788252e)" style="fill: #1f77b4"/>
   </g>
   <g id="patch_34">
    <path d="M 114.337752 273.312 
L 115.937338 273.312 
L 115.937338 232.027656 
L 114.337752 232.027656 
z
" clip-path="url(#p609788252e)" style="fill: #1f77b4"/>
   </g>
   <g id="patch_35">
    <path d="M 115.937338 273.312 
L 117.536925 273.312 
L 117.536925 231.454262 
L 115.937338 231.454262 
z
" clip-path="url(#p609788252e)" style="fill: #1f77b4"/>
   </g>
   <g id="patch_36">
    <path d="M 117.536925 273.312 
L 119.136511 273.312 
L 119.136511 223.426751 
L 117.536925 223.426751 
z
" clip-path="url(#p609788252e)" style="fill: #1f77b4"/>
   </g>
   <g id="patch_37">
    <path d="M 119.136511 273.312 
L 120.736097 273.312 
L 120.736097 229.734081 
L 119.136511 229.734081 
z
" clip-path="url(#p609788252e)" style="fill: #1f77b4"/>
   </g>
   <g id="patch_38">
    <path d="M 120.736097 273.312 
L 122.335684 273.312 
L 122.335684 227.440507 
L 120.736097 227.440507 
z
" clip-path="url(#p609788252e)" style="fill: #1f77b4"/>
   </g>
   <g id="patch_39">
    <path d="M 122.335684 273.312 
L 123.93527 273.312 
L 123.93527 232.60105 
L 122.335684 232.60105 
z
" clip-path="url(#p609788252e)" style="fill: #1f77b4"/>
   </g>
   <g id="patch_40">
    <path d="M 123.93527 273.312 
L 125.534856 273.312 
L 125.534856 228.587294 
L 123.93527 228.587294 
z
" clip-path="url(#p609788252e)" style="fill: #1f77b4"/>
   </g>
   <g id="patch_41">
    <path d="M 125.534856 273.312 
L 127.134443 273.312 
L 127.134443 232.60105 
L 125.534856 232.60105 
z
" clip-path="url(#p609788252e)" style="fill: #1f77b4"/>
   </g>
   <g id="patch_42">
    <path d="M 127.134443 273.312 
L 128.734029 273.312 
L 128.734029 218.266208 
L 127.134443 218.266208 
z
" clip-path="url(#p609788252e)" style="fill: #1f77b4"/>
   </g>
   <g id="patch_43">
    <path d="M 128.734029 273.312 
L 130.333615 273.312 
L 130.333615 224.000145 
L 128.734029 224.000145 
z
" clip-path="url(#p609788252e)" style="fill: #1f77b4"/>
   </g>
   <g id="patch_44">
    <path d="M 130.333615 273.312 
L 131.933202 273.312 
L 131.933202 227.440507 
L 130.333615 227.440507 
z
" clip-path="url(#p609788252e)" style="fill: #1f77b4"/>
   </g>
   <g id="patch_45">
    <path d="M 131.933202 273.312 
L 133.532788 273.312 
L 133.532788 222.279964 
L 131.933202 222.279964 
z
" clip-path="url(#p609788252e)" style="fill: #1f77b4"/>
   </g>
   <g id="patch_46">
    <path d="M 133.532788 273.312 
L 135.132374 273.312 
L 135.132374 229.160688 
L 133.532788 229.160688 
z
" clip-path="url(#p609788252e)" style="fill: #1f77b4"/>
   </g>
   <g id="patch_47">
    <path d="M 135.132374 273.312 
L 136.731961 273.312 
L 136.731961 217.119421 
L 135.132374 217.119421 
z
" clip-path="url(#p609788252e)" style="fill: #1f77b4"/>
   </g>
   <g id="patch_48">
    <path d="M 136.731961 273.312 
L 138.331547 273.312 
L 138.331547 218.839602 
L 136.731961 218.839602 
z
" clip-path="url(#p609788252e)" style="fill: #1f77b4"/>
   </g>
   <g id="patch_49">
    <path d="M 138.331547 273.312 
L 139.931133 273.312 
L 139.931133 225.146932 
L 138.331547 225.146932 
z
" clip-path="url(#p609788252e)" style="fill: #1f77b4"/>
   </g>
   <g id="patch_50">
    <path d="M 139.931133 273.312 
L 141.53072 273.312 
L 141.53072 217.692814 
L 139.931133 217.692814 
z
" clip-path="url(#p609788252e)" style="fill: #1f77b4"/>
   </g>
   <g id="patch_51">
    <path d="M 141.53072 273.312 
L 143.130306 273.312 
L 143.130306 209.09191 
L 141.53072 209.09191 
z
" clip-path="url(#p609788252e)" style="fill: #1f77b4"/>
   </g>
   <g id="patch_52">
    <path d="M 143.130306 273.312 
L 144.729892 273.312 
L 144.729892 212.532271 
L 143.130306 212.532271 
z
" clip-path="url(#p609788252e)" style="fill: #1f77b4"/>
   </g>
   <g id="patch_53">
    <path d="M 144.729892 273.312 
L 146.329479 273.312 
L 146.329479 215.39924 
L 144.729892 215.39924 
z
" clip-path="url(#p609788252e)" style="fill: #1f77b4"/>
   </g>
   <g id="patch_54">
    <path d="M 146.329479 273.312 
L 147.929065 273.312 
L 147.929065 218.266208 
L 146.329479 218.266208 
z
" clip-path="url(#p609788252e)" style="fill: #1f77b4"/>
   </g>
   <g id="patch_55">
    <path d="M 147.929065 273.312 
L 149.528651 273.312 
L 149.528651 208.518516 
L 147.929065 208.518516 
z
" clip-path="url(#p609788252e)" style="fill: #1f77b4"/>
   </g>
   <g id="patch_56">
    <path d="M 149.528651 273.312 
L 151.128238 273.312 
L 151.128238 213.679059 
L 149.528651 213.679059 
z
" clip-path="url(#p609788252e)" style="fill: #1f77b4"/>
   </g>
   <g id="patch_57">
    <path d="M 151.128238 273.312 
L 152.727824 273.312 
L 152.727824 203.357973 
L 151.128238 203.357973 
z
" clip-path="url(#p609788252e)" style="fill: #1f77b4"/>
   </g>
   <g id="patch_58">
    <path d="M 152.727824 273.312 
L 154.32741 273.312 
L 154.32741 205.078154 
L 152.727824 205.078154 
z
" clip-path="url(#p609788252e)" style="fill: #1f77b4"/>
   </g>
   <g id="patch_59">
    <path d="M 154.32741 273.312 
L 155.926997 273.312 
L 155.926997 202.784579 
L 154.32741 202.784579 
z
" clip-path="url(#p609788252e)" style="fill: #1f77b4"/>
   </g>
   <g id="patch_60">
    <path d="M 155.926997 273.312 
L 157.526583 273.312 
L 157.526583 203.357973 
L 155.926997 203.357973 
z
" clip-path="url(#p609788252e)" style="fill: #1f77b4"/>
   </g>
   <g id="patch_61">
    <path d="M 157.526583 273.312 
L 159.126169 273.312 
L 159.126169 210.81209 
L 157.526583 210.81209 
z
" clip-path="url(#p609788252e)" style="fill: #1f77b4"/>
   </g>
   <g id="patch_62">
    <path d="M 159.126169 273.312 
L 160.725756 273.312 
L 160.725756 195.903855 
L 159.126169 195.903855 
z
" clip-path="url(#p609788252e)" style="fill: #1f77b4"/>
   </g>
   <g id="patch_63">
    <path d="M 160.725756 273.312 
L 162.325342 273.312 
L 162.325342 201.064398 
L 160.725756 201.064398 
z
" clip-path="url(#p609788252e)" style="fill: #1f77b4"/>
   </g>
   <g id="patch_64">
    <path d="M 162.325342 273.312 
L 163.924928 273.312 
L 163.924928 202.211186 
L 162.325342 202.211186 
z
" clip-path="url(#p609788252e)" style="fill: #1f77b4"/>
   </g>
   <g id="patch_65">
    <path d="M 163.924928 273.312 
L 165.524515 273.312 
L 165.524515 197.050643 
L 163.924928 197.050643 
z
" clip-path="url(#p609788252e)" style="fill: #1f77b4"/>
   </g>
   <g id="patch_66">
    <path d="M 165.524515 273.312 
L 167.124101 273.312 
L 167.124101 193.610281 
L 165.524515 193.610281 
z
" clip-path="url(#p609788252e)" style="fill: #1f77b4"/>
   </g>
   <g id="patch_67">
    <path d="M 167.124101 273.312 
L 168.723687 273.312 
L 168.723687 187.876344 
L 167.124101 187.876344 
z
" clip-path="url(#p609788252e)" style="fill: #1f77b4"/>
   </g>
   <g id="patch_68">
    <path d="M 168.723687 273.312 
L 170.323274 273.312 
L 170.323274 187.876344 
L 168.723687 187.876344 
z
" clip-path="url(#p609788252e)" style="fill: #1f77b4"/>
   </g>
   <g id="patch_69">
    <path d="M 170.323274 273.312 
L 171.92286 273.312 
L 171.92286 192.463493 
L 170.323274 192.463493 
z
" clip-path="url(#p609788252e)" style="fill: #1f77b4"/>
   </g>
   <g id="patch_70">
    <path d="M 171.92286 273.312 
L 173.522446 273.312 
L 173.522446 201.064398 
L 171.92286 201.064398 
z
" clip-path="url(#p609788252e)" style="fill: #1f77b4"/>
   </g>
   <g id="patch_71">
    <path d="M 173.522446 273.312 
L 175.122033 273.312 
L 175.122033 182.715801 
L 173.522446 182.715801 
z
" clip-path="url(#p609788252e)" style="fill: #1f77b4"/>
   </g>
   <g id="patch_72">
    <path d="M 175.122033 273.312 
L 176.721619 273.312 
L 176.721619 187.876344 
L 175.122033 187.876344 
z
" clip-path="url(#p609788252e)" style="fill: #1f77b4"/>
   </g>
   <g id="patch_73">
    <path d="M 176.721619 273.312 
L 178.321205 273.312 
L 178.321205 195.330462 
L 176.721619 195.330462 
z
" clip-path="url(#p609788252e)" style="fill: #1f77b4"/>
   </g>
   <g id="patch_74">
    <path d="M 178.321205 273.312 
L 179.920792 273.312 
L 179.920792 210.238697 
L 178.321205 210.238697 
z
" clip-path="url(#p609788252e)" style="fill: #1f77b4"/>
   </g>
   <g id="patch_75">
    <path d="M 179.920792 273.312 
L 181.520378 273.312 
L 181.520378 189.596525 
L 179.920792 189.596525 
z
" clip-path="url(#p609788252e)" style="fill: #1f77b4"/>
   </g>
   <g id="patch_76">
    <path d="M 181.520378 273.312 
L 183.119964 273.312 
L 183.119964 187.876344 
L 181.520378 187.876344 
z
" clip-path="url(#p609788252e)" style="fill: #1f77b4"/>
   </g>
   <g id="patch_77">
    <path d="M 183.119964 273.312 
L 184.719551 273.312 
L 184.719551 178.128652 
L 183.119964 178.128652 
z
" clip-path="url(#p609788252e)" style="fill: #1f77b4"/>
   </g>
   <g id="patch_78">
    <path d="M 184.719551 273.312 
L 186.319137 273.312 
L 186.319137 180.422226 
L 184.719551 180.422226 
z
" clip-path="url(#p609788252e)" style="fill: #1f77b4"/>
   </g>
   <g id="patch_79">
    <path d="M 186.319137 273.312 
L 187.918723 273.312 
L 187.918723 190.743312 
L 186.319137 190.743312 
z
" clip-path="url(#p609788252e)" style="fill: #1f77b4"/>
   </g>
   <g id="patch_80">
    <path d="M 187.918723 273.312 
L 189.51831 273.312 
L 189.51831 175.835077 
L 187.918723 175.835077 
z
" clip-path="url(#p609788252e)" style="fill: #1f77b4"/>
   </g>
   <g id="patch_81">
    <path d="M 189.51831 273.312 
L 191.117896 273.312 
L 191.117896 192.463493 
L 189.51831 192.463493 
z
" clip-path="url(#p609788252e)" style="fill: #1f77b4"/>
   </g>
   <g id="patch_82">
    <path d="M 191.117896 273.312 
L 192.717482 273.312 
L 192.717482 183.862588 
L 191.117896 183.862588 
z
" clip-path="url(#p609788252e)" style="fill: #1f77b4"/>
   </g>
   <g id="patch_83">
    <path d="M 192.717482 273.312 
L 194.317069 273.312 
L 194.317069 177.555258 
L 192.717482 177.555258 
z
" clip-path="url(#p609788252e)" style="fill: #1f77b4"/>
   </g>
   <g id="patch_84">
    <path d="M 194.317069 273.312 
L 195.916655 273.312 
L 195.916655 176.408471 
L 194.317069 176.408471 
z
" clip-path="url(#p609788252e)" style="fill: #1f77b4"/>
   </g>
   <g id="patch_85">
    <path d="M 195.916655 273.312 
L 197.516241 273.312 
L 197.516241 171.821321 
L 195.916655 171.821321 
z
" clip-path="url(#p609788252e)" style="fill: #1f77b4"/>
   </g>
   <g id="patch_86">
    <path d="M 197.516241 273.312 
L 199.115828 273.312 
L 199.115828 178.128652 
L 197.516241 178.128652 
z
" clip-path="url(#p609788252e)" style="fill: #1f77b4"/>
   </g>
   <g id="patch_87">
    <path d="M 199.115828 273.312 
L 200.715414 273.312 
L 200.715414 183.862588 
L 199.115828 183.862588 
z
" clip-path="url(#p609788252e)" style="fill: #1f77b4"/>
   </g>
   <g id="patch_88">
    <path d="M 200.715414 273.312 
L 202.315 273.312 
L 202.315 176.981864 
L 200.715414 176.981864 
z
" clip-path="url(#p609788252e)" style="fill: #1f77b4"/>
   </g>
   <g id="patch_89">
    <path d="M 202.315 273.312 
L 203.914587 273.312 
L 203.914587 174.68829 
L 202.315 174.68829 
z
" clip-path="url(#p609788252e)" style="fill: #1f77b4"/>
   </g>
   <g id="patch_90">
    <path d="M 203.914587 273.312 
L 205.514173 273.312 
L 205.514173 193.036887 
L 203.914587 193.036887 
z
" clip-path="url(#p609788252e)" style="fill: #1f77b4"/>
   </g>
   <g id="patch_91">
    <path d="M 205.514173 273.312 
L 207.113759 273.312 
L 207.113759 174.68829 
L 205.514173 174.68829 
z
" clip-path="url(#p609788252e)" style="fill: #1f77b4"/>
   </g>
   <g id="patch_92">
    <path d="M 207.113759 273.312 
L 208.713346 273.312 
L 208.713346 166.660778 
L 207.113759 166.660778 
z
" clip-path="url(#p609788252e)" style="fill: #1f77b4"/>
   </g>
   <g id="patch_93">
    <path d="M 208.713346 273.312 
L 210.312932 273.312 
L 210.312932 178.702045 
L 208.713346 178.702045 
z
" clip-path="url(#p609788252e)" style="fill: #1f77b4"/>
   </g>
   <g id="patch_94">
    <path d="M 210.312932 273.312 
L 211.912518 273.312 
L 211.912518 177.555258 
L 210.312932 177.555258 
z
" clip-path="url(#p609788252e)" style="fill: #1f77b4"/>
   </g>
   <g id="patch_95">
    <path d="M 211.912518 273.312 
L 213.512105 273.312 
L 213.512105 179.848833 
L 211.912518 179.848833 
z
" clip-path="url(#p609788252e)" style="fill: #1f77b4"/>
   </g>
   <g id="patch_96">
    <path d="M 213.512105 273.312 
L 215.111691 273.312 
L 215.111691 159.780054 
L 213.512105 159.780054 
z
" clip-path="url(#p609788252e)" style="fill: #1f77b4"/>
   </g>
   <g id="patch_97">
    <path d="M 215.111691 273.312 
L 216.711277 273.312 
L 216.711277 164.367204 
L 215.111691 164.367204 
z
" clip-path="url(#p609788252e)" style="fill: #1f77b4"/>
   </g>
   <g id="patch_98">
    <path d="M 216.711277 273.312 
L 218.310864 273.312 
L 218.310864 172.968109 
L 216.711277 172.968109 
z
" clip-path="url(#p609788252e)" style="fill: #1f77b4"/>
   </g>
   <g id="patch_99">
    <path d="M 218.310864 273.312 
L 219.91045 273.312 
L 219.91045 155.192905 
L 218.310864 155.192905 
z
" clip-path="url(#p609788252e)" style="fill: #1f77b4"/>
   </g>
   <g id="patch_100">
    <path d="M 219.91045 273.312 
L 221.510036 273.312 
L 221.510036 143.725032 
L 219.91045 143.725032 
z
" clip-path="url(#p609788252e)" style="fill: #1f77b4"/>
   </g>
   <g id="patch_101">
    <path d="M 221.510036 273.312 
L 223.109623 273.312 
L 223.109623 167.234172 
L 221.510036 167.234172 
z
" clip-path="url(#p609788252e)" style="fill: #1f77b4"/>
   </g>
   <g id="patch_102">
    <path d="M 223.109623 273.312 
L 224.709209 273.312 
L 224.709209 166.087385 
L 223.109623 166.087385 
z
" clip-path="url(#p609788252e)" style="fill: #1f77b4"/>
   </g>
   <g id="patch_103">
    <path d="M 224.709209 273.312 
L 226.308795 273.312 
L 226.308795 166.660778 
L 224.709209 166.660778 
z
" clip-path="url(#p609788252e)" style="fill: #1f77b4"/>
   </g>
   <g id="patch_104">
    <path d="M 226.308795 273.312 
L 227.908382 273.312 
L 227.908382 165.513991 
L 226.308795 165.513991 
z
" clip-path="url(#p609788252e)" style="fill: #1f77b4"/>
   </g>
   <g id="patch_105">
    <path d="M 227.908382 273.312 
L 229.507968 273.312 
L 229.507968 160.926842 
L 227.908382 160.926842 
z
" clip-path="url(#p609788252e)" style="fill: #1f77b4"/>
   </g>
   <g id="patch_106">
    <path d="M 229.507968 273.312 
L 231.107554 273.312 
L 231.107554 146.018606 
L 229.507968 146.018606 
z
" clip-path="url(#p609788252e)" style="fill: #1f77b4"/>
   </g>
   <g id="patch_107">
    <path d="M 231.107554 273.312 
L 232.707141 273.312 
L 232.707141 154.619511 
L 231.107554 154.619511 
z
" clip-path="url(#p609788252e)" style="fill: #1f77b4"/>
   </g>
   <g id="patch_108">
    <path d="M 232.707141 273.312 
L 234.306727 273.312 
L 234.306727 145.445213 
L 232.707141 145.445213 
z
" clip-path="url(#p609788252e)" style="fill: #1f77b4"/>
   </g>
   <g id="patch_109">
    <path d="M 234.306727 273.312 
L 235.906314 273.312 
L 235.906314 167.807566 
L 234.306727 167.807566 
z
" clip-path="url(#p609788252e)" style="fill: #1f77b4"/>
   </g>
   <g id="patch_110">
    <path d="M 235.906314 273.312 
L 237.5059 273.312 
L 237.5059 143.725032 
L 235.906314 143.725032 
z
" clip-path="url(#p609788252e)" style="fill: #1f77b4"/>
   </g>
   <g id="patch_111">
    <path d="M 237.5059 273.312 
L 239.105486 273.312 
L 239.105486 162.073629 
L 237.5059 162.073629 
z
" clip-path="url(#p609788252e)" style="fill: #1f77b4"/>
   </g>
   <g id="patch_112">
    <path d="M 239.105486 273.312 
L 240.705073 273.312 
L 240.705073 139.137882 
L 239.105486 139.137882 
z
" clip-path="url(#p609788252e)" style="fill: #1f77b4"/>
   </g>
   <g id="patch_113">
    <path d="M 240.705073 273.312 
L 242.304659 273.312 
L 242.304659 154.619511 
L 240.705073 154.619511 
z
" clip-path="url(#p609788252e)" style="fill: #1f77b4"/>
   </g>
   <g id="patch_114">
    <path d="M 242.304659 273.312 
L 243.904245 273.312 
L 243.904245 157.48648 
L 242.304659 157.48648 
z
" clip-path="url(#p609788252e)" style="fill: #1f77b4"/>
   </g>
   <g id="patch_115">
    <path d="M 243.904245 273.312 
L 245.503832 273.312 
L 245.503832 156.339692 
L 243.904245 156.339692 
z
" clip-path="url(#p609788252e)" style="fill: #1f77b4"/>
   </g>
   <g id="patch_116">
    <path d="M 245.503832 273.312 
L 247.103418 273.312 
L 247.103418 144.871819 
L 245.503832 144.871819 
z
" clip-path="url(#p609788252e)" style="fill: #1f77b4"/>
   </g>
   <g id="patch_117">
    <path d="M 247.103418 273.312 
L 248.703004 273.312 
L 248.703004 151.179149 
L 247.103418 151.179149 
z
" clip-path="url(#p609788252e)" style="fill: #1f77b4"/>
   </g>
   <g id="patch_118">
    <path d="M 248.703004 273.312 
L 250.302591 273.312 
L 250.302591 131.110371 
L 248.703004 131.110371 
z
" clip-path="url(#p609788252e)" style="fill: #1f77b4"/>
   </g>
   <g id="patch_119">
    <path d="M 250.302591 273.312 
L 251.902177 273.312 
L 251.902177 136.844308 
L 250.302591 136.844308 
z
" clip-path="url(#p609788252e)" style="fill: #1f77b4"/>
   </g>
   <g id="patch_120">
    <path d="M 251.902177 273.312 
L 253.501763 273.312 
L 253.501763 139.137882 
L 251.902177 139.137882 
z
" clip-path="url(#p609788252e)" style="fill: #1f77b4"/>
   </g>
   <g id="patch_121">
    <path d="M 253.501763 273.312 
L 255.10135 273.312 
L 255.10135 129.39019 
L 253.501763 129.39019 
z
" clip-path="url(#p609788252e)" style="fill: #1f77b4"/>
   </g>
   <g id="patch_122">
    <path d="M 255.10135 273.312 
L 256.700936 273.312 
L 256.700936 144.871819 
L 255.10135 144.871819 
z
" clip-path="url(#p609788252e)" style="fill: #1f77b4"/>
   </g>
   <g id="patch_123">
    <path d="M 256.700936 273.312 
L 258.300522 273.312 
L 258.300522 126.523222 
L 256.700936 126.523222 
z
" clip-path="url(#p609788252e)" style="fill: #1f77b4"/>
   </g>
   <g id="patch_124">
    <path d="M 258.300522 273.312 
L 259.900109 273.312 
L 259.900109 139.711276 
L 258.300522 139.711276 
z
" clip-path="url(#p609788252e)" style="fill: #1f77b4"/>
   </g>
   <g id="patch_125">
    <path d="M 259.900109 273.312 
L 261.499695 273.312 
L 261.499695 130.536977 
L 259.900109 130.536977 
z
" clip-path="url(#p609788252e)" style="fill: #1f77b4"/>
   </g>
   <g id="patch_126">
    <path d="M 261.499695 273.312 
L 263.099281 273.312 
L 263.099281 112.18838 
L 261.499695 112.18838 
z
" clip-path="url(#p609788252e)" style="fill: #1f77b4"/>
   </g>
   <g id="patch_127">
    <path d="M 263.099281 273.312 
L 264.698868 273.312 
L 264.698868 131.110371 
L 263.099281 131.110371 
z
" clip-path="url(#p609788252e)" style="fill: #1f77b4"/>
   </g>
   <g id="patch_128">
    <path d="M 264.698868 273.312 
L 266.298454 273.312 
L 266.298454 127.096615 
L 264.698868 127.096615 
z
" clip-path="url(#p609788252e)" style="fill: #1f77b4"/>
   </g>
   <g id="patch_129">
    <path d="M 266.298454 273.312 
L 267.89804 273.312 
L 267.89804 142.578244 
L 266.298454 142.578244 
z
" clip-path="url(#p609788252e)" style="fill: #1f77b4"/>
   </g>
   <g id="patch_130">
    <path d="M 267.89804 273.312 
L 269.497627 273.312 
L 269.497627 125.949828 
L 267.89804 125.949828 
z
" clip-path="url(#p609788252e)" style="fill: #1f77b4"/>
   </g>
   <g id="patch_131">
    <path d="M 269.497627 273.312 
L 271.097213 273.312 
L 271.097213 132.830552 
L 269.497627 132.830552 
z
" clip-path="url(#p609788252e)" style="fill: #1f77b4"/>
   </g>
   <g id="patch_132">
    <path d="M 271.097213 273.312 
L 272.696799 273.312 
L 272.696799 132.830552 
L 271.097213 132.830552 
z
" clip-path="url(#p609788252e)" style="fill: #1f77b4"/>
   </g>
   <g id="patch_133">
    <path d="M 272.696799 273.312 
L 274.296386 273.312 
L 274.296386 131.683765 
L 272.696799 131.683765 
z
" clip-path="url(#p609788252e)" style="fill: #1f77b4"/>
   </g>
   <g id="patch_134">
    <path d="M 274.296386 273.312 
L 275.895972 273.312 
L 275.895972 119.642498 
L 274.296386 119.642498 
z
" clip-path="url(#p609788252e)" style="fill: #1f77b4"/>
   </g>
   <g id="patch_135">
    <path d="M 275.895972 273.312 
L 277.495558 273.312 
L 277.495558 131.110371 
L 275.895972 131.110371 
z
" clip-path="url(#p609788252e)" style="fill: #1f77b4"/>
   </g>
   <g id="patch_136">
    <path d="M 277.495558 273.312 
L 279.095145 273.312 
L 279.095145 115.055348 
L 277.495558 115.055348 
z
" clip-path="url(#p609788252e)" style="fill: #1f77b4"/>
   </g>
   <g id="patch_137">
    <path d="M 279.095145 273.312 
L 280.694731 273.312 
L 280.694731 95.559964 
L 279.095145 95.559964 
z
" clip-path="url(#p609788252e)" style="fill: #1f77b4"/>
   </g>
   <g id="patch_138">
    <path d="M 280.694731 273.312 
L 282.294317 273.312 
L 282.294317 120.215891 
L 280.694731 120.215891 
z
" clip-path="url(#p609788252e)" style="fill: #1f77b4"/>
   </g>
   <g id="patch_139">
    <path d="M 282.294317 273.312 
L 283.893904 273.312 
L 283.893904 128.243403 
L 282.294317 128.243403 
z
" clip-path="url(#p609788252e)" style="fill: #1f77b4"/>
   </g>
   <g id="patch_140">
    <path d="M 283.893904 273.312 
L 285.49349 273.312 
L 285.49349 109.321412 
L 283.893904 109.321412 
z
" clip-path="url(#p609788252e)" style="fill: #1f77b4"/>
   </g>
   <g id="patch_141">
    <path d="M 285.49349 273.312 
L 287.093076 273.312 
L 287.093076 115.055348 
L 285.49349 115.055348 
z
" clip-path="url(#p609788252e)" style="fill: #1f77b4"/>
   </g>
   <g id="patch_142">
    <path d="M 287.093076 273.312 
L 288.692663 273.312 
L 288.692663 116.202136 
L 287.093076 116.202136 
z
" clip-path="url(#p609788252e)" style="fill: #1f77b4"/>
   </g>
   <g id="patch_143">
    <path d="M 288.692663 273.312 
L 290.292249 273.312 
L 290.292249 100.147113 
L 288.692663 100.147113 
z
" clip-path="url(#p609788252e)" style="fill: #1f77b4"/>
   </g>
   <g id="patch_144">
    <path d="M 290.292249 273.312 
L 291.891835 273.312 
L 291.891835 98.426932 
L 290.292249 98.426932 
z
" clip-path="url(#p609788252e)" style="fill: #1f77b4"/>
   </g>
   <g id="patch_145">
    <path d="M 291.891835 273.312 
L 293.491422 273.312 
L 293.491422 103.014081 
L 291.891835 103.014081 
z
" clip-path="url(#p609788252e)" style="fill: #1f77b4"/>
   </g>
   <g id="patch_146">
    <path d="M 293.491422 273.312 
L 295.091008 273.312 
L 295.091008 98.426932 
L 293.491422 98.426932 
z
" clip-path="url(#p609788252e)" style="fill: #1f77b4"/>
   </g>
   <g id="patch_147">
    <path d="M 295.091008 273.312 
L 296.690594 273.312 
L 296.690594 107.601231 
L 295.091008 107.601231 
z
" clip-path="url(#p609788252e)" style="fill: #1f77b4"/>
   </g>
   <g id="patch_148">
    <path d="M 296.690594 273.312 
L 298.290181 273.312 
L 298.290181 101.867294 
L 296.690594 101.867294 
z
" clip-path="url(#p609788252e)" style="fill: #1f77b4"/>
   </g>
   <g id="patch_149">
    <path d="M 298.290181 273.312 
L 299.889767 273.312 
L 299.889767 131.110371 
L 298.290181 131.110371 
z
" clip-path="url(#p609788252e)" style="fill: #1f77b4"/>
   </g>
   <g id="patch_150">
    <path d="M 299.889767 273.312 
L 301.489353 273.312 
L 301.489353 89.826027 
L 299.889767 89.826027 
z
" clip-path="url(#p609788252e)" style="fill: #1f77b4"/>
   </g>
   <g id="patch_151">
    <path d="M 301.489353 273.312 
L 303.08894 273.312 
L 303.08894 123.656253 
L 301.489353 123.656253 
z
" clip-path="url(#p609788252e)" style="fill: #1f77b4"/>
   </g>
   <g id="patch_152">
    <path d="M 303.08894 273.312 
L 304.688526 273.312 
L 304.688526 115.628742 
L 303.08894 115.628742 
z
" clip-path="url(#p609788252e)" style="fill: #1f77b4"/>
   </g>
   <g id="patch_153">
    <path d="M 304.688526 273.312 
L 306.288112 273.312 
L 306.288112 116.775529 
L 304.688526 116.775529 
z
" clip-path="url(#p609788252e)" style="fill: #1f77b4"/>
   </g>
   <g id="patch_154">
    <path d="M 306.288112 273.312 
L 307.887699 273.312 
L 307.887699 86.385665 
L 306.288112 86.385665 
z
" clip-path="url(#p609788252e)" style="fill: #1f77b4"/>
   </g>
   <g id="patch_155">
    <path d="M 307.887699 273.312 
L 309.487285 273.312 
L 309.487285 100.147113 
L 307.887699 100.147113 
z
" clip-path="url(#p609788252e)" style="fill: #1f77b4"/>
   </g>
   <g id="patch_156">
    <path d="M 309.487285 273.312 
L 311.086871 273.312 
L 311.086871 97.280145 
L 309.487285 97.280145 
z
" clip-path="url(#p609788252e)" style="fill: #1f77b4"/>
   </g>
   <g id="patch_157">
    <path d="M 311.086871 273.312 
L 312.686458 273.312 
L 312.686458 95.559964 
L 311.086871 95.559964 
z
" clip-path="url(#p609788252e)" style="fill: #1f77b4"/>
   </g>
   <g id="patch_158">
    <path d="M 312.686458 273.312 
L 314.286044 273.312 
L 314.286044 100.720507 
L 312.686458 100.720507 
z
" clip-path="url(#p609788252e)" style="fill: #1f77b4"/>
   </g>
   <g id="patch_159">
    <path d="M 314.286044 273.312 
L 315.88563 273.312 
L 315.88563 107.601231 
L 314.286044 107.601231 
z
" clip-path="url(#p609788252e)" style="fill: #1f77b4"/>
   </g>
   <g id="patch_160">
    <path d="M 315.88563 273.312 
L 317.485217 273.312 
L 317.485217 96.133357 
L 315.88563 96.133357 
z
" clip-path="url(#p609788252e)" style="fill: #1f77b4"/>
   </g>
   <g id="patch_161">
    <path d="M 317.485217 273.312 
L 319.084803 273.312 
L 319.084803 88.67924 
L 317.485217 88.67924 
z
" clip-path="url(#p609788252e)" style="fill: #1f77b4"/>
   </g>
   <g id="patch_162">
    <path d="M 319.084803 273.312 
L 320.684389 273.312 
L 320.684389 82.37191 
L 319.084803 82.37191 
z
" clip-path="url(#p609788252e)" style="fill: #1f77b4"/>
   </g>
   <g id="patch_163">
    <path d="M 320.684389 273.312 
L 322.283976 273.312 
L 322.283976 96.706751 
L 320.684389 96.706751 
z
" clip-path="url(#p609788252e)" style="fill: #1f77b4"/>
   </g>
   <g id="patch_164">
    <path d="M 322.283976 273.312 
L 323.883562 273.312 
L 323.883562 93.839783 
L 322.283976 93.839783 
z
" clip-path="url(#p609788252e)" style="fill: #1f77b4"/>
   </g>
   <g id="patch_165">
    <path d="M 323.883562 273.312 
L 325.483148 273.312 
L 325.483148 82.945303 
L 323.883562 82.945303 
z
" clip-path="url(#p609788252e)" style="fill: #1f77b4"/>
   </g>
   <g id="patch_166">
    <path d="M 325.483148 273.312 
L 327.082735 273.312 
L 327.082735 89.826027 
L 325.483148 89.826027 
z
" clip-path="url(#p609788252e)" style="fill: #1f77b4"/>
   </g>
   <g id="patch_167">
    <path d="M 327.082735 273.312 
L 328.682321 273.312 
L 328.682321 99.000326 
L 327.082735 99.000326 
z
" clip-path="url(#p609788252e)" style="fill: #1f77b4"/>
   </g>
   <g id="patch_168">
    <path d="M 328.682321 273.312 
L 330.281907 273.312 
L 330.281907 100.720507 
L 328.682321 100.720507 
z
" clip-path="url(#p609788252e)" style="fill: #1f77b4"/>
   </g>
   <g id="patch_169">
    <path d="M 330.281907 273.312 
L 331.881494 273.312 
L 331.881494 86.959059 
L 330.281907 86.959059 
z
" clip-path="url(#p609788252e)" style="fill: #1f77b4"/>
   </g>
   <g id="patch_170">
    <path d="M 331.881494 273.312 
L 333.48108 273.312 
L 333.48108 69.757249 
L 331.881494 69.757249 
z
" clip-path="url(#p609788252e)" style="fill: #1f77b4"/>
   </g>
   <g id="patch_171">
    <path d="M 333.48108 273.312 
L 335.080666 273.312 
L 335.080666 82.945303 
L 333.48108 82.945303 
z
" clip-path="url(#p609788252e)" style="fill: #1f77b4"/>
   </g>
   <g id="patch_172">
    <path d="M 335.080666 273.312 
L 336.680253 273.312 
L 336.680253 99.000326 
L 335.080666 99.000326 
z
" clip-path="url(#p609788252e)" style="fill: #1f77b4"/>
   </g>
   <g id="patch_173">
    <path d="M 336.680253 273.312 
L 338.279839 273.312 
L 338.279839 91.546208 
L 336.680253 91.546208 
z
" clip-path="url(#p609788252e)" style="fill: #1f77b4"/>
   </g>
   <g id="patch_174">
    <path d="M 338.279839 273.312 
L 339.879425 273.312 
L 339.879425 72.624217 
L 338.279839 72.624217 
z
" clip-path="url(#p609788252e)" style="fill: #1f77b4"/>
   </g>
   <g id="patch_175">
    <path d="M 339.879425 273.312 
L 341.479012 273.312 
L 341.479012 66.890281 
L 339.879425 66.890281 
z
" clip-path="url(#p609788252e)" style="fill: #1f77b4"/>
   </g>
   <g id="patch_176">
    <path d="M 341.479012 273.312 
L 343.078598 273.312 
L 343.078598 82.37191 
L 341.479012 82.37191 
z
" clip-path="url(#p609788252e)" style="fill: #1f77b4"/>
   </g>
   <g id="patch_177">
    <path d="M 343.078598 273.312 
L 344.678184 273.312 
L 344.678184 80.651729 
L 343.078598 80.651729 
z
" clip-path="url(#p609788252e)" style="fill: #1f77b4"/>
   </g>
   <g id="patch_178">
    <path d="M 344.678184 273.312 
L 346.277771 273.312 
L 346.277771 62.876525 
L 344.678184 62.876525 
z
" clip-path="url(#p609788252e)" style="fill: #1f77b4"/>
   </g>
   <g id="patch_179">
    <path d="M 346.277771 273.312 
L 347.877357 273.312 
L 347.877357 55.995801 
L 346.277771 55.995801 
z
" clip-path="url(#p609788252e)" style="fill: #1f77b4"/>
   </g>
   <g id="patch_180">
    <path d="M 347.877357 273.312 
L 349.476943 273.312 
L 349.476943 66.316887 
L 347.877357 66.316887 
z
" clip-path="url(#p609788252e)" style="fill: #1f77b4"/>
   </g>
   <g id="patch_181">
    <path d="M 349.476943 273.312 
L 351.07653 273.312 
L 351.07653 58.289376 
L 349.476943 58.289376 
z
" clip-path="url(#p609788252e)" style="fill: #1f77b4"/>
   </g>
   <g id="patch_182">
    <path d="M 351.07653 273.312 
L 352.676116 273.312 
L 352.676116 71.47743 
L 351.07653 71.47743 
z
" clip-path="url(#p609788252e)" style="fill: #1f77b4"/>
   </g>
   <g id="patch_183">
    <path d="M 352.676116 273.312 
L 354.275702 273.312 
L 354.275702 63.449919 
L 352.676116 63.449919 
z
" clip-path="url(#p609788252e)" style="fill: #1f77b4"/>
   </g>
   <g id="patch_184">
    <path d="M 354.275702 273.312 
L 355.875289 273.312 
L 355.875289 64.023312 
L 354.275702 64.023312 
z
" clip-path="url(#p609788252e)" style="fill: #1f77b4"/>
   </g>
   <g id="patch_185">
    <path d="M 355.875289 273.312 
L 357.474875 273.312 
L 357.474875 62.876525 
L 355.875289 62.876525 
z
" clip-path="url(#p609788252e)" style="fill: #1f77b4"/>
   </g>
   <g id="patch_186">
    <path d="M 357.474875 273.312 
L 359.074462 273.312 
L 359.074462 53.702226 
L 357.474875 53.702226 
z
" clip-path="url(#p609788252e)" style="fill: #1f77b4"/>
   </g>
   <g id="patch_187">
    <path d="M 359.074462 273.312 
L 360.674048 273.312 
L 360.674048 56.569195 
L 359.074462 56.569195 
z
" clip-path="url(#p609788252e)" style="fill: #1f77b4"/>
   </g>
   <g id="patch_188">
    <path d="M 360.674048 273.312 
L 362.273634 273.312 
L 362.273634 77.211367 
L 360.674048 77.211367 
z
" clip-path="url(#p609788252e)" style="fill: #1f77b4"/>
   </g>
   <g id="patch_189">
    <path d="M 362.273634 273.312 
L 363.873221 273.312 
L 363.873221 64.596706 
L 362.273634 64.596706 
z
" clip-path="url(#p609788252e)" style="fill: #1f77b4"/>
   </g>
   <g id="patch_190">
    <path d="M 363.873221 273.312 
L 365.472807 273.312 
L 365.472807 86.959059 
L 363.873221 86.959059 
z
" clip-path="url(#p609788252e)" style="fill: #1f77b4"/>
   </g>
   <g id="patch_191">
    <path d="M 365.472807 273.312 
L 367.072393 273.312 
L 367.072393 53.128833 
L 365.472807 53.128833 
z
" clip-path="url(#p609788252e)" style="fill: #1f77b4"/>
   </g>
   <g id="patch_192">
    <path d="M 367.072393 273.312 
L 368.67198 273.312 
L 368.67198 64.023312 
L 367.072393 64.023312 
z
" clip-path="url(#p609788252e)" style="fill: #1f77b4"/>
   </g>
   <g id="patch_193">
    <path d="M 368.67198 273.312 
L 370.271566 273.312 
L 370.271566 34.206842 
L 368.67198 34.206842 
z
" clip-path="url(#p609788252e)" style="fill: #1f77b4"/>
   </g>
   <g id="patch_194">
    <path d="M 370.271566 273.312 
L 371.871152 273.312 
L 371.871152 50.261864 
L 370.271566 50.261864 
z
" clip-path="url(#p609788252e)" style="fill: #1f77b4"/>
   </g>
   <g id="patch_195">
    <path d="M 371.871152 273.312 
L 373.470739 273.312 
L 373.470739 57.142588 
L 371.871152 57.142588 
z
" clip-path="url(#p609788252e)" style="fill: #1f77b4"/>
   </g>
   <g id="patch_196">
    <path d="M 373.470739 273.312 
L 375.070325 273.312 
L 375.070325 50.261864 
L 373.470739 50.261864 
z
" clip-path="url(#p609788252e)" style="fill: #1f77b4"/>
   </g>
   <g id="patch_197">
    <path d="M 375.070325 273.312 
L 376.669911 273.312 
L 376.669911 63.449919 
L 375.070325 63.449919 
z
" clip-path="url(#p609788252e)" style="fill: #1f77b4"/>
   </g>
   <g id="patch_198">
    <path d="M 376.669911 273.312 
L 378.269498 273.312 
L 378.269498 59.436163 
L 376.669911 59.436163 
z
" clip-path="url(#p609788252e)" style="fill: #1f77b4"/>
   </g>
   <g id="patch_199">
    <path d="M 378.269498 273.312 
L 379.869084 273.312 
L 379.869084 51.408652 
L 378.269498 51.408652 
z
" clip-path="url(#p609788252e)" style="fill: #1f77b4"/>
   </g>
   <g id="patch_200">
    <path d="M 379.869084 273.312 
L 381.46867 273.312 
L 381.46867 61.156344 
L 379.869084 61.156344 
z
" clip-path="url(#p609788252e)" style="fill: #1f77b4"/>
   </g>
   <g id="patch_201">
    <path d="M 381.46867 273.312 
L 383.068257 273.312 
L 383.068257 65.743493 
L 381.46867 65.743493 
z
" clip-path="url(#p609788252e)" style="fill: #1f77b4"/>
   </g>
   <g id="patch_202">
    <path d="M 383.068257 273.312 
L 384.667843 273.312 
L 384.667843 19.872 
L 383.068257 19.872 
z
" clip-path="url(#p609788252e)" style="fill: #1f77b4"/>
   </g>
   <g id="matplotlib.axis_1">
    <g id="xtick_1">
     <g id="line2d_1">
      <defs>
       <path id="m73af275d0a" d="M 0 0 
L 0 3.5 
" style="stroke: #000000; stroke-width: 0.8"/>
      </defs>
      <g>
       <use xlink:href="#m73af275d0a" x="60.013977" y="273.312" style="stroke: #000000; stroke-width: 0.8"/>
      </g>
     </g>
     <g id="text_1">
      <!-- 0.0 -->
      <g transform="translate(52.062415 287.910437)scale(0.1 -0.1)">
       <defs>
        <path id="DejaVuSans-30" d="M 2034 4250 
Q 1547 4250 1301 3770 
Q 1056 3291 1056 2328 
Q 1056 1369 1301 889 
Q 1547 409 2034 409 
Q 2525 409 2770 889 
Q 3016 1369 3016 2328 
Q 3016 3291 2770 3770 
Q 2525 4250 2034 4250 
z
M 2034 4750 
Q 2819 4750 3233 4129 
Q 3647 3509 3647 2328 
Q 3647 1150 3233 529 
Q 2819 -91 2034 -91 
Q 1250 -91 836 529 
Q 422 1150 422 2328 
Q 422 3509 836 4129 
Q 1250 4750 2034 4750 
z
" transform="scale(0.015625)"/>
        <path id="DejaVuSans-2e" d="M 684 794 
L 1344 794 
L 1344 0 
L 684 0 
L 684 794 
z
" transform="scale(0.015625)"/>
       </defs>
       <use xlink:href="#DejaVuSans-30"/>
       <use xlink:href="#DejaVuSans-2e" x="63.623047"/>
       <use xlink:href="#DejaVuSans-30" x="95.410156"/>
      </g>
     </g>
    </g>
    <g id="xtick_2">
     <g id="line2d_2">
      <g>
       <use xlink:href="#m73af275d0a" x="124.944886" y="273.312" style="stroke: #000000; stroke-width: 0.8"/>
      </g>
     </g>
     <g id="text_2">
      <!-- 0.2 -->
      <g transform="translate(116.993324 287.910437)scale(0.1 -0.1)">
       <defs>
        <path id="DejaVuSans-32" d="M 1228 531 
L 3431 531 
L 3431 0 
L 469 0 
L 469 531 
Q 828 903 1448 1529 
Q 2069 2156 2228 2338 
Q 2531 2678 2651 2914 
Q 2772 3150 2772 3378 
Q 2772 3750 2511 3984 
Q 2250 4219 1831 4219 
Q 1534 4219 1204 4116 
Q 875 4013 500 3803 
L 500 4441 
Q 881 4594 1212 4672 
Q 1544 4750 1819 4750 
Q 2544 4750 2975 4387 
Q 3406 4025 3406 3419 
Q 3406 3131 3298 2873 
Q 3191 2616 2906 2266 
Q 2828 2175 2409 1742 
Q 1991 1309 1228 531 
z
" transform="scale(0.015625)"/>
       </defs>
       <use xlink:href="#DejaVuSans-30"/>
       <use xlink:href="#DejaVuSans-2e" x="63.623047"/>
       <use xlink:href="#DejaVuSans-32" x="95.410156"/>
      </g>
     </g>
    </g>
    <g id="xtick_3">
     <g id="line2d_3">
      <g>
       <use xlink:href="#m73af275d0a" x="189.875795" y="273.312" style="stroke: #000000; stroke-width: 0.8"/>
      </g>
     </g>
     <g id="text_3">
      <!-- 0.4 -->
      <g transform="translate(181.924233 287.910437)scale(0.1 -0.1)">
       <defs>
        <path id="DejaVuSans-34" d="M 2419 4116 
L 825 1625 
L 2419 1625 
L 2419 4116 
z
M 2253 4666 
L 3047 4666 
L 3047 1625 
L 3713 1625 
L 3713 1100 
L 3047 1100 
L 3047 0 
L 2419 0 
L 2419 1100 
L 313 1100 
L 313 1709 
L 2253 4666 
z
" transform="scale(0.015625)"/>
       </defs>
       <use xlink:href="#DejaVuSans-30"/>
       <use xlink:href="#DejaVuSans-2e" x="63.623047"/>
       <use xlink:href="#DejaVuSans-34" x="95.410156"/>
      </g>
     </g>
    </g>
    <g id="xtick_4">
     <g id="line2d_4">
      <g>
       <use xlink:href="#m73af275d0a" x="254.806705" y="273.312" style="stroke: #000000; stroke-width: 0.8"/>
      </g>
     </g>
     <g id="text_4">
      <!-- 0.6 -->
      <g transform="translate(246.855142 287.910437)scale(0.1 -0.1)">
       <defs>
        <path id="DejaVuSans-36" d="M 2113 2584 
Q 1688 2584 1439 2293 
Q 1191 2003 1191 1497 
Q 1191 994 1439 701 
Q 1688 409 2113 409 
Q 2538 409 2786 701 
Q 3034 994 3034 1497 
Q 3034 2003 2786 2293 
Q 2538 2584 2113 2584 
z
M 3366 4563 
L 3366 3988 
Q 3128 4100 2886 4159 
Q 2644 4219 2406 4219 
Q 1781 4219 1451 3797 
Q 1122 3375 1075 2522 
Q 1259 2794 1537 2939 
Q 1816 3084 2150 3084 
Q 2853 3084 3261 2657 
Q 3669 2231 3669 1497 
Q 3669 778 3244 343 
Q 2819 -91 2113 -91 
Q 1303 -91 875 529 
Q 447 1150 447 2328 
Q 447 3434 972 4092 
Q 1497 4750 2381 4750 
Q 2619 4750 2861 4703 
Q 3103 4656 3366 4563 
z
" transform="scale(0.015625)"/>
       </defs>
       <use xlink:href="#DejaVuSans-30"/>
       <use xlink:href="#DejaVuSans-2e" x="63.623047"/>
       <use xlink:href="#DejaVuSans-36" x="95.410156"/>
      </g>
     </g>
    </g>
    <g id="xtick_5">
     <g id="line2d_5">
      <g>
       <use xlink:href="#m73af275d0a" x="319.737614" y="273.312" style="stroke: #000000; stroke-width: 0.8"/>
      </g>
     </g>
     <g id="text_5">
      <!-- 0.8 -->
      <g transform="translate(311.786051 287.910437)scale(0.1 -0.1)">
       <defs>
        <path id="DejaVuSans-38" d="M 2034 2216 
Q 1584 2216 1326 1975 
Q 1069 1734 1069 1313 
Q 1069 891 1326 650 
Q 1584 409 2034 409 
Q 2484 409 2743 651 
Q 3003 894 3003 1313 
Q 3003 1734 2745 1975 
Q 2488 2216 2034 2216 
z
M 1403 2484 
Q 997 2584 770 2862 
Q 544 3141 544 3541 
Q 544 4100 942 4425 
Q 1341 4750 2034 4750 
Q 2731 4750 3128 4425 
Q 3525 4100 3525 3541 
Q 3525 3141 3298 2862 
Q 3072 2584 2669 2484 
Q 3125 2378 3379 2068 
Q 3634 1759 3634 1313 
Q 3634 634 3220 271 
Q 2806 -91 2034 -91 
Q 1263 -91 848 271 
Q 434 634 434 1313 
Q 434 1759 690 2068 
Q 947 2378 1403 2484 
z
M 1172 3481 
Q 1172 3119 1398 2916 
Q 1625 2713 2034 2713 
Q 2441 2713 2670 2916 
Q 2900 3119 2900 3481 
Q 2900 3844 2670 4047 
Q 2441 4250 2034 4250 
Q 1625 4250 1398 4047 
Q 1172 3844 1172 3481 
z
" transform="scale(0.015625)"/>
       </defs>
       <use xlink:href="#DejaVuSans-30"/>
       <use xlink:href="#DejaVuSans-2e" x="63.623047"/>
       <use xlink:href="#DejaVuSans-38" x="95.410156"/>
      </g>
     </g>
    </g>
    <g id="xtick_6">
     <g id="line2d_6">
      <g>
       <use xlink:href="#m73af275d0a" x="384.668523" y="273.312" style="stroke: #000000; stroke-width: 0.8"/>
      </g>
     </g>
     <g id="text_6">
      <!-- 1.0 -->
      <g transform="translate(376.71696 287.910437)scale(0.1 -0.1)">
       <defs>
        <path id="DejaVuSans-31" d="M 794 531 
L 1825 531 
L 1825 4091 
L 703 3866 
L 703 4441 
L 1819 4666 
L 2450 4666 
L 2450 531 
L 3481 531 
L 3481 0 
L 794 0 
L 794 531 
z
" transform="scale(0.015625)"/>
       </defs>
       <use xlink:href="#DejaVuSans-31"/>
       <use xlink:href="#DejaVuSans-2e" x="63.623047"/>
       <use xlink:href="#DejaVuSans-30" x="95.410156"/>
      </g>
     </g>
    </g>
    <g id="text_7">
     <!-- Propagation direction -->
     <g transform="translate(168.859219 301.588562)scale(0.1 -0.1)">
      <defs>
       <path id="DejaVuSans-50" d="M 1259 4147 
L 1259 2394 
L 2053 2394 
Q 2494 2394 2734 2622 
Q 2975 2850 2975 3272 
Q 2975 3691 2734 3919 
Q 2494 4147 2053 4147 
L 1259 4147 
z
M 628 4666 
L 2053 4666 
Q 2838 4666 3239 4311 
Q 3641 3956 3641 3272 
Q 3641 2581 3239 2228 
Q 2838 1875 2053 1875 
L 1259 1875 
L 1259 0 
L 628 0 
L 628 4666 
z
" transform="scale(0.015625)"/>
       <path id="DejaVuSans-72" d="M 2631 2963 
Q 2534 3019 2420 3045 
Q 2306 3072 2169 3072 
Q 1681 3072 1420 2755 
Q 1159 2438 1159 1844 
L 1159 0 
L 581 0 
L 581 3500 
L 1159 3500 
L 1159 2956 
Q 1341 3275 1631 3429 
Q 1922 3584 2338 3584 
Q 2397 3584 2469 3576 
Q 2541 3569 2628 3553 
L 2631 2963 
z
" transform="scale(0.015625)"/>
       <path id="DejaVuSans-6f" d="M 1959 3097 
Q 1497 3097 1228 2736 
Q 959 2375 959 1747 
Q 959 1119 1226 758 
Q 1494 397 1959 397 
Q 2419 397 2687 759 
Q 2956 1122 2956 1747 
Q 2956 2369 2687 2733 
Q 2419 3097 1959 3097 
z
M 1959 3584 
Q 2709 3584 3137 3096 
Q 3566 2609 3566 1747 
Q 3566 888 3137 398 
Q 2709 -91 1959 -91 
Q 1206 -91 779 398 
Q 353 888 353 1747 
Q 353 2609 779 3096 
Q 1206 3584 1959 3584 
z
" transform="scale(0.015625)"/>
       <path id="DejaVuSans-70" d="M 1159 525 
L 1159 -1331 
L 581 -1331 
L 581 3500 
L 1159 3500 
L 1159 2969 
Q 1341 3281 1617 3432 
Q 1894 3584 2278 3584 
Q 2916 3584 3314 3078 
Q 3713 2572 3713 1747 
Q 3713 922 3314 415 
Q 2916 -91 2278 -91 
Q 1894 -91 1617 61 
Q 1341 213 1159 525 
z
M 3116 1747 
Q 3116 2381 2855 2742 
Q 2594 3103 2138 3103 
Q 1681 3103 1420 2742 
Q 1159 2381 1159 1747 
Q 1159 1113 1420 752 
Q 1681 391 2138 391 
Q 2594 391 2855 752 
Q 3116 1113 3116 1747 
z
" transform="scale(0.015625)"/>
       <path id="DejaVuSans-61" d="M 2194 1759 
Q 1497 1759 1228 1600 
Q 959 1441 959 1056 
Q 959 750 1161 570 
Q 1363 391 1709 391 
Q 2188 391 2477 730 
Q 2766 1069 2766 1631 
L 2766 1759 
L 2194 1759 
z
M 3341 1997 
L 3341 0 
L 2766 0 
L 2766 531 
Q 2569 213 2275 61 
Q 1981 -91 1556 -91 
Q 1019 -91 701 211 
Q 384 513 384 1019 
Q 384 1609 779 1909 
Q 1175 2209 1959 2209 
L 2766 2209 
L 2766 2266 
Q 2766 2663 2505 2880 
Q 2244 3097 1772 3097 
Q 1472 3097 1187 3025 
Q 903 2953 641 2809 
L 641 3341 
Q 956 3463 1253 3523 
Q 1550 3584 1831 3584 
Q 2591 3584 2966 3190 
Q 3341 2797 3341 1997 
z
" transform="scale(0.015625)"/>
       <path id="DejaVuSans-67" d="M 2906 1791 
Q 2906 2416 2648 2759 
Q 2391 3103 1925 3103 
Q 1463 3103 1205 2759 
Q 947 2416 947 1791 
Q 947 1169 1205 825 
Q 1463 481 1925 481 
Q 2391 481 2648 825 
Q 2906 1169 2906 1791 
z
M 3481 434 
Q 3481 -459 3084 -895 
Q 2688 -1331 1869 -1331 
Q 1566 -1331 1297 -1286 
Q 1028 -1241 775 -1147 
L 775 -588 
Q 1028 -725 1275 -790 
Q 1522 -856 1778 -856 
Q 2344 -856 2625 -561 
Q 2906 -266 2906 331 
L 2906 616 
Q 2728 306 2450 153 
Q 2172 0 1784 0 
Q 1141 0 747 490 
Q 353 981 353 1791 
Q 353 2603 747 3093 
Q 1141 3584 1784 3584 
Q 2172 3584 2450 3431 
Q 2728 3278 2906 2969 
L 2906 3500 
L 3481 3500 
L 3481 434 
z
" transform="scale(0.015625)"/>
       <path id="DejaVuSans-74" d="M 1172 4494 
L 1172 3500 
L 2356 3500 
L 2356 3053 
L 1172 3053 
L 1172 1153 
Q 1172 725 1289 603 
Q 1406 481 1766 481 
L 2356 481 
L 2356 0 
L 1766 0 
Q 1100 0 847 248 
Q 594 497 594 1153 
L 594 3053 
L 172 3053 
L 172 3500 
L 594 3500 
L 594 4494 
L 1172 4494 
z
" transform="scale(0.015625)"/>
       <path id="DejaVuSans-69" d="M 603 3500 
L 1178 3500 
L 1178 0 
L 603 0 
L 603 3500 
z
M 603 4863 
L 1178 4863 
L 1178 4134 
L 603 4134 
L 603 4863 
z
" transform="scale(0.015625)"/>
       <path id="DejaVuSans-6e" d="M 3513 2113 
L 3513 0 
L 2938 0 
L 2938 2094 
Q 2938 2591 2744 2837 
Q 2550 3084 2163 3084 
Q 1697 3084 1428 2787 
Q 1159 2491 1159 1978 
L 1159 0 
L 581 0 
L 581 3500 
L 1159 3500 
L 1159 2956 
Q 1366 3272 1645 3428 
Q 1925 3584 2291 3584 
Q 2894 3584 3203 3211 
Q 3513 2838 3513 2113 
z
" transform="scale(0.015625)"/>
       <path id="DejaVuSans-20" transform="scale(0.015625)"/>
       <path id="DejaVuSans-64" d="M 2906 2969 
L 2906 4863 
L 3481 4863 
L 3481 0 
L 2906 0 
L 2906 525 
Q 2725 213 2448 61 
Q 2172 -91 1784 -91 
Q 1150 -91 751 415 
Q 353 922 353 1747 
Q 353 2572 751 3078 
Q 1150 3584 1784 3584 
Q 2172 3584 2448 3432 
Q 2725 3281 2906 2969 
z
M 947 1747 
Q 947 1113 1208 752 
Q 1469 391 1925 391 
Q 2381 391 2643 752 
Q 2906 1113 2906 1747 
Q 2906 2381 2643 2742 
Q 2381 3103 1925 3103 
Q 1469 3103 1208 2742 
Q 947 2381 947 1747 
z
" transform="scale(0.015625)"/>
       <path id="DejaVuSans-65" d="M 3597 1894 
L 3597 1613 
L 953 1613 
Q 991 1019 1311 708 
Q 1631 397 2203 397 
Q 2534 397 2845 478 
Q 3156 559 3463 722 
L 3463 178 
Q 3153 47 2828 -22 
Q 2503 -91 2169 -91 
Q 1331 -91 842 396 
Q 353 884 353 1716 
Q 353 2575 817 3079 
Q 1281 3584 2069 3584 
Q 2775 3584 3186 3129 
Q 3597 2675 3597 1894 
z
M 3022 2063 
Q 3016 2534 2758 2815 
Q 2500 3097 2075 3097 
Q 1594 3097 1305 2825 
Q 1016 2553 972 2059 
L 3022 2063 
z
" transform="scale(0.015625)"/>
       <path id="DejaVuSans-63" d="M 3122 3366 
L 3122 2828 
Q 2878 2963 2633 3030 
Q 2388 3097 2138 3097 
Q 1578 3097 1268 2742 
Q 959 2388 959 1747 
Q 959 1106 1268 751 
Q 1578 397 2138 397 
Q 2388 397 2633 464 
Q 2878 531 3122 666 
L 3122 134 
Q 2881 22 2623 -34 
Q 2366 -91 2075 -91 
Q 1284 -91 818 406 
Q 353 903 353 1747 
Q 353 2603 823 3093 
Q 1294 3584 2113 3584 
Q 2378 3584 2631 3529 
Q 2884 3475 3122 3366 
z
" transform="scale(0.015625)"/>
      </defs>
      <use xlink:href="#DejaVuSans-50"/>
      <use xlink:href="#DejaVuSans-72" x="58.552734"/>
      <use xlink:href="#DejaVuSans-6f" x="97.416016"/>
      <use xlink:href="#DejaVuSans-70" x="158.597656"/>
      <use xlink:href="#DejaVuSans-61" x="222.074219"/>
      <use xlink:href="#DejaVuSans-67" x="283.353516"/>
      <use xlink:href="#DejaVuSans-61" x="346.830078"/>
      <use xlink:href="#DejaVuSans-74" x="408.109375"/>
      <use xlink:href="#DejaVuSans-69" x="447.318359"/>
      <use xlink:href="#DejaVuSans-6f" x="475.101562"/>
      <use xlink:href="#DejaVuSans-6e" x="536.283203"/>
      <use xlink:href="#DejaVuSans-20" x="599.662109"/>
      <use xlink:href="#DejaVuSans-64" x="631.449219"/>
      <use xlink:href="#DejaVuSans-69" x="694.925781"/>
      <use xlink:href="#DejaVuSans-72" x="722.708984"/>
      <use xlink:href="#DejaVuSans-65" x="761.572266"/>
      <use xlink:href="#DejaVuSans-63" x="823.095703"/>
      <use xlink:href="#DejaVuSans-74" x="878.076172"/>
      <use xlink:href="#DejaVuSans-69" x="917.285156"/>
      <use xlink:href="#DejaVuSans-6f" x="945.068359"/>
      <use xlink:href="#DejaVuSans-6e" x="1006.25"/>
     </g>
    </g>
   </g>
   <g id="matplotlib.axis_2">
    <g id="ytick_1">
     <g id="line2d_7">
      <defs>
       <path id="m7f4ed90b7b" d="M 0 0 
L -3.5 0 
" style="stroke: #000000; stroke-width: 0.8"/>
      </defs>
      <g>
       <use xlink:href="#m7f4ed90b7b" x="43.78125" y="273.312" style="stroke: #000000; stroke-width: 0.8"/>
      </g>
     </g>
     <g id="text_8">
      <!-- 0.0 -->
      <g transform="translate(20.878125 277.111219)scale(0.1 -0.1)">
       <use xlink:href="#DejaVuSans-30"/>
       <use xlink:href="#DejaVuSans-2e" x="63.623047"/>
       <use xlink:href="#DejaVuSans-30" x="95.410156"/>
      </g>
     </g>
    </g>
    <g id="ytick_2">
     <g id="line2d_8">
      <g>
       <use xlink:href="#m7f4ed90b7b" x="43.78125" y="216.809315" style="stroke: #000000; stroke-width: 0.8"/>
      </g>
     </g>
     <g id="text_9">
      <!-- 0.5 -->
      <g transform="translate(20.878125 220.608534)scale(0.1 -0.1)">
       <defs>
        <path id="DejaVuSans-35" d="M 691 4666 
L 3169 4666 
L 3169 4134 
L 1269 4134 
L 1269 2991 
Q 1406 3038 1543 3061 
Q 1681 3084 1819 3084 
Q 2600 3084 3056 2656 
Q 3513 2228 3513 1497 
Q 3513 744 3044 326 
Q 2575 -91 1722 -91 
Q 1428 -91 1123 -41 
Q 819 9 494 109 
L 494 744 
Q 775 591 1075 516 
Q 1375 441 1709 441 
Q 2250 441 2565 725 
Q 2881 1009 2881 1497 
Q 2881 1984 2565 2268 
Q 2250 2553 1709 2553 
Q 1456 2553 1204 2497 
Q 953 2441 691 2322 
L 691 4666 
z
" transform="scale(0.015625)"/>
       </defs>
       <use xlink:href="#DejaVuSans-30"/>
       <use xlink:href="#DejaVuSans-2e" x="63.623047"/>
       <use xlink:href="#DejaVuSans-35" x="95.410156"/>
      </g>
     </g>
    </g>
    <g id="ytick_3">
     <g id="line2d_9">
      <g>
       <use xlink:href="#m7f4ed90b7b" x="43.78125" y="160.30663" style="stroke: #000000; stroke-width: 0.8"/>
      </g>
     </g>
     <g id="text_10">
      <!-- 1.0 -->
      <g transform="translate(20.878125 164.105849)scale(0.1 -0.1)">
       <use xlink:href="#DejaVuSans-31"/>
       <use xlink:href="#DejaVuSans-2e" x="63.623047"/>
       <use xlink:href="#DejaVuSans-30" x="95.410156"/>
      </g>
     </g>
    </g>
    <g id="ytick_4">
     <g id="line2d_10">
      <g>
       <use xlink:href="#m7f4ed90b7b" x="43.78125" y="103.803946" style="stroke: #000000; stroke-width: 0.8"/>
      </g>
     </g>
     <g id="text_11">
      <!-- 1.5 -->
      <g transform="translate(20.878125 107.603164)scale(0.1 -0.1)">
       <use xlink:href="#DejaVuSans-31"/>
       <use xlink:href="#DejaVuSans-2e" x="63.623047"/>
       <use xlink:href="#DejaVuSans-35" x="95.410156"/>
      </g>
     </g>
    </g>
    <g id="ytick_5">
     <g id="line2d_11">
      <g>
       <use xlink:href="#m7f4ed90b7b" x="43.78125" y="47.301261" style="stroke: #000000; stroke-width: 0.8"/>
      </g>
     </g>
     <g id="text_12">
      <!-- 2.0 -->
      <g transform="translate(20.878125 51.100479)scale(0.1 -0.1)">
       <use xlink:href="#DejaVuSans-32"/>
       <use xlink:href="#DejaVuSans-2e" x="63.623047"/>
       <use xlink:href="#DejaVuSans-30" x="95.410156"/>
      </g>
     </g>
    </g>
    <g id="text_13">
     <!-- Probability density -->
     <g transform="translate(14.798438 186.606781)rotate(-90)scale(0.1 -0.1)">
      <defs>
       <path id="DejaVuSans-62" d="M 3116 1747 
Q 3116 2381 2855 2742 
Q 2594 3103 2138 3103 
Q 1681 3103 1420 2742 
Q 1159 2381 1159 1747 
Q 1159 1113 1420 752 
Q 1681 391 2138 391 
Q 2594 391 2855 752 
Q 3116 1113 3116 1747 
z
M 1159 2969 
Q 1341 3281 1617 3432 
Q 1894 3584 2278 3584 
Q 2916 3584 3314 3078 
Q 3713 2572 3713 1747 
Q 3713 922 3314 415 
Q 2916 -91 2278 -91 
Q 1894 -91 1617 61 
Q 1341 213 1159 525 
L 1159 0 
L 581 0 
L 581 4863 
L 1159 4863 
L 1159 2969 
z
" transform="scale(0.015625)"/>
       <path id="DejaVuSans-6c" d="M 603 4863 
L 1178 4863 
L 1178 0 
L 603 0 
L 603 4863 
z
" transform="scale(0.015625)"/>
       <path id="DejaVuSans-79" d="M 2059 -325 
Q 1816 -950 1584 -1140 
Q 1353 -1331 966 -1331 
L 506 -1331 
L 506 -850 
L 844 -850 
Q 1081 -850 1212 -737 
Q 1344 -625 1503 -206 
L 1606 56 
L 191 3500 
L 800 3500 
L 1894 763 
L 2988 3500 
L 3597 3500 
L 2059 -325 
z
" transform="scale(0.015625)"/>
       <path id="DejaVuSans-73" d="M 2834 3397 
L 2834 2853 
Q 2591 2978 2328 3040 
Q 2066 3103 1784 3103 
Q 1356 3103 1142 2972 
Q 928 2841 928 2578 
Q 928 2378 1081 2264 
Q 1234 2150 1697 2047 
L 1894 2003 
Q 2506 1872 2764 1633 
Q 3022 1394 3022 966 
Q 3022 478 2636 193 
Q 2250 -91 1575 -91 
Q 1294 -91 989 -36 
Q 684 19 347 128 
L 347 722 
Q 666 556 975 473 
Q 1284 391 1588 391 
Q 1994 391 2212 530 
Q 2431 669 2431 922 
Q 2431 1156 2273 1281 
Q 2116 1406 1581 1522 
L 1381 1569 
Q 847 1681 609 1914 
Q 372 2147 372 2553 
Q 372 3047 722 3315 
Q 1072 3584 1716 3584 
Q 2034 3584 2315 3537 
Q 2597 3491 2834 3397 
z
" transform="scale(0.015625)"/>
      </defs>
      <use xlink:href="#DejaVuSans-50"/>
      <use xlink:href="#DejaVuSans-72" x="58.552734"/>
      <use xlink:href="#DejaVuSans-6f" x="97.416016"/>
      <use xlink:href="#DejaVuSans-62" x="158.597656"/>
      <use xlink:href="#DejaVuSans-61" x="222.074219"/>
      <use xlink:href="#DejaVuSans-62" x="283.353516"/>
      <use xlink:href="#DejaVuSans-69" x="346.830078"/>
      <use xlink:href="#DejaVuSans-6c" x="374.613281"/>
      <use xlink:href="#DejaVuSans-69" x="402.396484"/>
      <use xlink:href="#DejaVuSans-74" x="430.179688"/>
      <use xlink:href="#DejaVuSans-79" x="469.388672"/>
      <use xlink:href="#DejaVuSans-20" x="528.568359"/>
      <use xlink:href="#DejaVuSans-64" x="560.355469"/>
      <use xlink:href="#DejaVuSans-65" x="623.832031"/>
      <use xlink:href="#DejaVuSans-6e" x="685.355469"/>
      <use xlink:href="#DejaVuSans-73" x="748.734375"/>
      <use xlink:href="#DejaVuSans-69" x="800.833984"/>
      <use xlink:href="#DejaVuSans-74" x="828.617188"/>
      <use xlink:href="#DejaVuSans-79" x="867.826172"/>
     </g>
    </g>
   </g>
   <g id="line2d_12">
    <path d="M 60.013977 273.312 
L 384.668523 47.301261 
L 384.668523 47.301261 
" clip-path="url(#p609788252e)" style="fill: none; stroke: #ff7f0e; stroke-width: 1.5; stroke-linecap: square"/>
   </g>
   <g id="patch_203">
    <path d="M 43.78125 273.312 
L 43.78125 7.2 
" style="fill: none; stroke: #000000; stroke-width: 0.8; stroke-linejoin: miter; stroke-linecap: square"/>
   </g>
   <g id="patch_204">
    <path d="M 400.90125 273.312 
L 400.90125 7.2 
" style="fill: none; stroke: #000000; stroke-width: 0.8; stroke-linejoin: miter; stroke-linecap: square"/>
   </g>
   <g id="patch_205">
    <path d="M 43.78125 273.312 
L 400.90125 273.312 
" style="fill: none; stroke: #000000; stroke-width: 0.8; stroke-linejoin: miter; stroke-linecap: square"/>
   </g>
   <g id="patch_206">
    <path d="M 43.78125 7.2 
L 400.90125 7.2 
" style="fill: none; stroke: #000000; stroke-width: 0.8; stroke-linejoin: miter; stroke-linecap: square"/>
   </g>
  </g>
 </g>
 <defs>
  <clipPath id="p609788252e">
   <rect x="43.78125" y="7.2" width="357.12" height="266.112"/>
  </clipPath>
 </defs>
</svg>
